<?xml version="1.0" encoding="UTF-8"?>
<svg xmlns="http://www.w3.org/2000/svg" xmlns:xlink="http://www.w3.org/1999/xlink" baseProfile="tiny" contentScriptType="text/ecmascript" contentStyleType="text/css" height="96px" preserveAspectRatio="xMidYMid meet" version="1.1" viewBox="0 0 96 96" width="96px" x="0px" y="0px" zoomAndPan="magnify">
<defs>
<linearGradient id="linearGradient3904">
<stop offset="0" stop-color="#006fce" stop-opacity="1"/>
<stop offset="1" stop-color="#005fca" stop-opacity="1"/>
</linearGradient>
<linearGradient gradientTransform="matrix(0,1,-1,0,96,0)" gradientUnits="userSpaceOnUse" id="linearGradient3910" x1="8" x2="88" y1="48" y2="48">
<stop offset="0" stop-color="#006fce" stop-opacity="1"/>
<stop offset="1" stop-color="#005fca" stop-opacity="1"/>
</linearGradient>
</defs>
<path d="M 88.0 49.0 C 88.0 78.635 77.639 89.0 48.0 89.0 C 18.367 89.0 8.0 78.635 8.0 49.0 C 8.0 19.367 18.367 9.0 48.0 9.0 C 77.637 9.0 88.0 19.367 88.0 49.0 z " fill-opacity="0.4"/>
<linearGradient gradientUnits="userSpaceOnUse" x1="47.9995" x2="47.9995" y1="11.5664" y2="102.2422">
<stop offset="0" stop-color="#0077cd"/>
<stop offset="1" stop-color="#003f9a"/>
</linearGradient>
<path d="M 48.0 88.0 C 18.365 88.0 8.0 77.639 8.0 48.0 C 8.0 18.367 18.365 8.0 48.0 8.0 C 77.633 8.0 88.0 18.367 88.0 48.0 C 88.0 77.637 77.633 88.0 48.0 88.0 z " fill="url(#linearGradient3910)" fill-opacity="1"/>
<linearGradient gradientTransform="matrix(1 0 0 1 -313.5547 -1536.8613)" gradientUnits="userSpaceOnUse" id="SVGID_2_" x1="361.5547" x2="361.5547" y1="1545.1133" y2="1624.3579">
<stop offset="0" stop-color="#ffffff"/>
<stop offset="1" stop-color="#ffffff" stop-opacity="0"/>
</linearGradient>
<path d="M 48.0 8.0 C 18.367 8.0 8.0 18.367 8.0 48.0 C 8.0 77.635 18.367 88.0 48.0 88.0 C 77.639 88.0 88.0 77.635 88.0 48.0 C 88.0 18.367 77.637 8.0 48.0 8.0 z M 48.0 87.0 C 18.842 87.0 9.0 77.158 9.0 48.0 C 9.0 18.842005 18.842 9.0 48.0 9.0 C 77.16 9.0 87.0 18.842 87.0 48.0 C 87.0 77.158005 77.16 87.0 48.0 87.0 z " fill="url(#SVGID_2_)" fill-opacity="0.15"/>
<path d="M 39.813 55.208 C 39.367 54.724 38.837 54.312 38.301 54.032 C 36.988 53.267 35.599 52.591003 34.167 52.022003 C 33.557 51.775 33.063 51.268 32.704 50.512005 C 32.655 50.408005 32.615997 50.308006 32.586 50.208004 C 32.855 49.874004 33.100998 49.491005 33.330997 49.041004 C 33.647 48.417004 33.839996 47.80201 33.990997 47.286003 C 34.851 46.69 35.150997 45.627003 35.303 45.097004 L 35.312996 45.062004 C 35.332996 44.988003 35.361996 44.901005 35.407 44.759003 L 35.423996 44.706 C 35.580997 44.214 35.800995 43.535 35.900997 42.881 C 36.06 41.853 35.840996 41.152 35.597996 40.717 C 35.631996 40.531 35.689995 40.237 35.694996 40.197 C 35.786995 39.698997 35.832996 39.24 35.832996 38.798 C 35.832996 38.656 35.838997 38.515 35.844997 38.393 C 35.868996 37.866 35.457996 35.588 35.025997 34.647003 C 34.634 33.789 34.039 32.716003 32.879997 32.047005 C 32.121 31.606005 31.369995 31.379004 30.644997 31.158005 L 30.600996 31.146006 C 30.476995 31.108006 30.352997 31.070004 30.229996 31.031006 C 30.051996 30.973003 29.869995 30.914003 29.664995 30.845003 C 28.635996 30.499004 27.565994 30.143003 26.314997 30.143003 C 26.146996 30.143003 25.978994 30.150003 25.808994 30.164003 C 25.174994 30.219006 24.667994 30.402006 24.253994 30.553003 C 24.153994 30.589005 24.053991 30.629004 23.956991 30.655005 L 23.913994 30.654003 C 23.791994 30.647003 23.669994 30.640003 23.548994 30.640003 C 23.312994 30.640003 23.097994 30.661003 22.886992 30.702003 C 21.691994 30.938004 21.122992 31.780005 20.887993 32.200005 C 19.915993 32.620003 19.449991 33.464005 19.225992 33.879005 L 19.167992 33.980007 C 18.444992 35.279007 18.124992 37.89401 18.145992 38.217007 C 18.148993 38.251007 18.148993 38.321007 18.148993 38.451008 L 18.149992 38.612007 C 18.153992 39.167007 18.155993 39.36001 18.166992 39.44101 C 18.166992 39.973007 18.214993 40.505005 18.312992 41.033005 C 18.022991 41.710003 18.012993 42.551006 18.276993 43.591003 C 18.282991 43.616005 18.301992 43.709003 18.310991 43.756004 C 18.618994 45.216003 18.919992 46.397003 19.727991 47.10101 C 19.877993 47.62801 20.041992 48.153008 20.299994 48.708004 C 20.572994 49.306004 20.860994 49.785004 21.190994 50.197 C 21.155994 50.342003 21.110994 50.508003 21.108994 50.512 C 21.016994 50.89 20.834991 51.221 20.581991 51.47 C 20.283993 51.763 19.794992 51.967003 19.173992 52.228 L 19.133991 52.246 C 18.980991 52.31 18.826992 52.374 18.675991 52.442 L 18.463991 52.537003 C 17.251991 53.071003 15.997992 53.627003 14.849991 54.475 C 14.5259905 54.718 14.258991 55.069004 14.03299 55.539 C 16.57899 58.34 20.730991 59.488003 27.015991 59.488003 C 33.32799 59.488003 37.49099 58.332005 40.02999 55.507004 C 39.953 55.39 39.886 55.288 39.813 55.208 z " fill-opacity="0.02"/>
<path d="M 39.515 55.485 C 39.096 55.032 38.6 54.652 38.096 54.387 C 36.803 53.631 35.429 52.961 34.021 52.398003 C 33.309 52.117004 32.744 51.541004 32.338 50.688004 C 32.244 50.494003 32.179 50.289005 32.143 50.106003 C 32.183002 50.061005 32.221 50.015003 32.257 49.972004 C 32.516 49.652004 32.747 49.288 32.97 48.856003 C 33.294003 48.225 33.473 47.615 33.643 47.026 C 34.472 46.542 34.765003 45.508 34.912003 44.994 L 34.919003 44.952 C 34.945004 44.87 34.977 44.767 35.020004 44.636 L 35.035004 44.588997 C 35.189003 44.105995 35.404003 43.447 35.498005 42.820995 C 35.651005 41.828995 35.428005 41.188995 35.17001 40.798996 C 35.17001 40.798996 35.286007 40.182995 35.29501 40.125996 C 35.384007 39.649994 35.428005 39.216995 35.428005 38.798996 C 35.428005 38.652996 35.43401 38.504997 35.437004 38.374996 C 35.459003 37.943996 35.082005 35.742996 34.65601 34.817 C 34.290005 34.012997 33.73201 33.011997 32.677006 32.400997 C 31.960009 31.984997 31.232006 31.763998 30.529003 31.550997 L 30.484003 31.536997 C 30.355003 31.497995 30.231005 31.460997 30.107004 31.422997 C 29.927004 31.360996 29.740004 31.302996 29.536003 31.234997 C 28.538006 30.898996 27.502005 30.550997 26.316006 30.550997 C 26.158005 30.550997 26.003006 30.556995 25.843006 30.570995 C 25.265009 30.619995 24.806004 30.787996 24.400003 30.933998 C 24.266005 30.985 24.129004 31.037 24.000006 31.066998 C 23.969006 31.066998 23.938004 31.062998 23.894005 31.059998 C 23.780005 31.053995 23.665005 31.047998 23.551004 31.047998 C 23.340004 31.047998 23.150003 31.066998 22.967005 31.102 C 21.856005 31.321 21.371004 32.159 21.176004 32.522 C 20.248005 32.866 19.817003 33.647 19.583004 34.078 L 19.527004 34.178 C 18.842005 35.402996 18.537004 37.925 18.552004 38.195 C 18.554005 38.236 18.556004 38.314 18.556004 38.452 L 18.556004 38.613 C 18.560003 39.134 18.564005 39.339 18.572004 39.442 C 18.574003 39.990997 18.631004 40.545 18.736004 41.087 C 18.435003 41.692997 18.416004 42.483 18.673004 43.496 C 18.681004 43.526997 18.711004 43.672997 18.711004 43.675 C 19.014004 45.111 19.311005 46.266 20.086004 46.869 C 20.238005 47.408 20.402004 47.963 20.669004 48.542 C 20.963003 49.179 21.274004 49.682 21.639004 50.1 C 21.623005 50.175 21.507004 50.614 21.507004 50.614 C 21.397003 51.066 21.176004 51.463997 20.867004 51.765 C 20.513004 52.113 19.993004 52.332 19.334003 52.608 L 19.294004 52.626 C 19.141005 52.687 18.989002 52.753 18.842005 52.82 L 18.631002 52.911 C 17.438002 53.441 16.205002 53.987 15.092003 54.807 C 14.785003 55.034 14.537003 55.384 14.328003 55.864 C 16.896004 58.431 20.971004 59.49 27.016005 59.49 C 33.093002 59.49 37.179 58.419 39.742004 55.818996 C 39.667 55.685 39.595 55.571 39.515 55.485 z " fill-opacity="0.03"/>
<path d="M 27.012 59.488 C 32.853 59.488 36.855 58.493 39.435 56.107 C 39.367996 55.968 39.297997 55.851 39.214996 55.761 C 38.830997 55.344 38.365997 54.985996 37.890995 54.738 C 36.615993 53.990997 35.261993 53.334 33.868996 52.778 C 33.059998 52.452 32.419994 51.812 31.971996 50.863 C 31.825996 50.558 31.738997 50.243 31.715996 49.962997 C 31.792995 49.886997 31.869995 49.804996 31.941996 49.714996 C 32.183994 49.417995 32.399994 49.076996 32.609997 48.67 C 32.922997 48.053 33.102997 47.445 33.272995 46.857 L 33.302994 46.747 C 34.094994 46.387997 34.37599 45.39 34.518993 44.886997 L 34.531994 44.843 C 34.555992 44.747997 34.596992 44.629 34.647995 44.466 C 34.799995 43.996 35.004993 43.353 35.097996 42.758 C 35.243996 41.804 35.013996 41.234 34.737995 40.898 C 34.790997 40.615997 34.882996 40.131 34.897995 40.052 C 34.979996 39.602997 35.019997 39.192 35.021996 38.8 C 35.021996 38.648 35.027996 38.494 35.031994 38.357 C 35.047993 38.024 34.69099 35.872 34.288994 34.987 C 33.945995 34.239 33.431995 33.309 32.474995 32.755 C 31.799995 32.364002 31.093994 32.15 30.410995 31.943 C 30.265997 31.901 30.123997 31.856 29.983995 31.811 C 29.800997 31.751 29.615995 31.692 29.411997 31.622002 C 28.438995 31.298002 27.435995 30.96 26.314997 30.96 C 26.168997 30.96 26.022997 30.966002 25.876995 30.98 C 25.352997 31.024002 24.925997 31.179 24.540997 31.320002 C 24.367994 31.384 24.204994 31.441002 24.037994 31.478004 C 23.989994 31.478004 23.937994 31.474005 23.866997 31.470003 C 23.760994 31.464005 23.654997 31.458004 23.549995 31.458004 C 23.366997 31.458004 23.201996 31.474005 23.041996 31.505005 C 22.078997 31.694004 21.682997 32.441006 21.512997 32.761005 C 21.494995 32.792004 21.477997 32.824005 21.462996 32.859005 C 20.572998 33.118004 20.178995 33.838005 19.936996 34.277004 L 19.882996 34.379005 C 19.250996 35.514004 18.945995 37.931007 18.959995 38.178005 C 18.961996 38.224007 18.961996 38.324005 18.963997 38.451004 L 18.963997 38.610004 C 18.965996 39.095005 18.972996 39.346004 18.979996 39.423004 C 18.979996 40.004005 19.042995 40.585003 19.167995 41.150005 C 18.851995 41.678005 18.817995 42.416004 19.066996 43.397007 C 19.075996 43.426006 19.108995 43.592007 19.108995 43.592007 C 19.405996 45.01001 19.698996 46.140007 20.440996 46.623005 C 20.600996 47.189003 20.764996 47.775005 21.041996 48.370007 C 21.352997 49.046005 21.685995 49.563007 22.081997 49.98301 C 22.067995 50.06601 22.036997 50.211006 21.969995 50.461006 C 21.945995 50.547005 21.923998 50.629005 21.904997 50.709007 C 21.774998 51.237007 21.513996 51.703007 21.154997 52.057007 C 20.744995 52.459007 20.170998 52.701008 19.488997 52.987007 C 19.326996 53.05301 19.166996 53.12401 19.007996 53.19201 L 18.797997 53.28601 C 17.624996 53.80601 16.410995 54.346012 15.338997 55.137012 C 15.057997 55.344013 14.832997 55.683018 14.644997 56.157013 C 17.219 58.509 21.207 59.488 27.012 59.488 z " fill-opacity="0.05"/>
<path d="M 27.012 59.488 C 32.618 59.488 36.532997 58.576 39.116997 56.389 C 39.061996 56.247 38.998997 56.126 38.914997 56.037 C 38.561996 55.655 38.131996 55.323997 37.685997 55.088997 C 36.428 54.357 35.093 53.704 33.715996 53.157 C 32.808994 52.793 32.095997 52.080997 31.602997 51.038 C 31.400995 50.616997 31.292995 50.167 31.300997 49.803997 C 31.323996 49.778996 31.352997 49.749996 31.390997 49.713997 C 31.468996 49.632996 31.550997 49.551 31.621998 49.458996 C 31.843 49.181995 32.048996 48.863995 32.241997 48.481995 C 32.540997 47.900993 32.711998 47.317993 32.874996 46.742996 C 32.906998 46.638996 32.937996 46.533997 32.967995 46.430996 C 33.709995 46.236996 33.985996 45.268997 34.122993 44.775997 L 34.136993 44.729996 C 34.165993 44.623997 34.207993 44.491997 34.259995 44.338997 C 34.404995 43.881996 34.606995 43.255997 34.692993 42.697 C 34.83499 41.779 34.596992 41.288 34.295994 41.027 C 34.295994 41.027 34.472992 40.09 34.491993 39.975 C 34.57099 39.546997 34.609993 39.162 34.609993 38.796 C 34.609993 38.637997 34.617992 38.481 34.62199 38.332996 C 34.633995 38.083996 34.295994 35.983997 33.91299 35.152996 C 33.599995 34.458996 33.125996 33.598995 32.266994 33.101997 C 31.630997 32.734997 30.951994 32.528996 30.287994 32.328 C 30.140997 32.285 29.994995 32.242 29.856997 32.197 C 29.664995 32.135998 29.473995 32.072 29.278996 32.005997 C 28.338997 31.689997 27.368996 31.364996 26.311996 31.364996 C 26.177996 31.364996 26.042995 31.368996 25.907995 31.380997 C 25.436996 31.420998 25.039995 31.565996 24.682997 31.694996 C 24.498997 31.762997 24.322996 31.827995 24.151997 31.868996 C 24.127996 31.875996 24.087996 31.879995 24.034996 31.879995 C 23.973995 31.879995 23.909996 31.875996 23.839996 31.868996 C 23.741997 31.864996 23.642996 31.858995 23.546995 31.858995 C 23.390997 31.858995 23.249996 31.870996 23.120996 31.899996 C 22.343996 32.051994 22.023996 32.654995 21.869995 32.943996 C 21.821997 33.033997 21.786997 33.120995 21.763996 33.199997 C 21.745996 33.204998 21.728996 33.206997 21.706997 33.209995 C 20.885998 33.384995 20.528996 34.036995 20.292995 34.467995 L 20.233995 34.570995 C 19.661997 35.596996 19.348995 37.931995 19.363997 38.149994 C 19.365995 38.208992 19.366997 38.35099 19.366997 38.518993 L 19.366997 38.603992 C 19.371996 38.99699 19.373997 39.30899 19.384996 39.416992 C 19.384996 40.025993 19.456997 40.63599 19.599997 41.229992 C 19.596996 41.23099 19.595997 41.235992 19.591995 41.23799 C 19.259996 41.666992 19.215998 42.338993 19.458998 43.290993 C 19.468998 43.32999 19.483995 43.40499 19.503998 43.502995 C 19.796995 44.89899 20.087996 46.013996 20.782995 46.345993 C 20.796995 46.39699 20.809998 46.449993 20.825996 46.50399 C 20.981997 47.056995 21.140997 47.625996 21.405996 48.192993 C 21.727997 48.89199 22.071997 49.407993 22.486996 49.812992 C 22.520996 49.958992 22.405996 50.37799 22.355995 50.561993 C 22.334995 50.645992 22.311996 50.72499 22.292995 50.802994 C 22.145996 51.401993 21.849997 51.93399 21.431995 52.341995 C 20.965996 52.797997 20.338997 53.060997 19.656996 53.347996 C 19.492996 53.416996 19.329996 53.485996 19.165997 53.557995 L 18.956997 53.652996 C 17.804996 54.161995 16.612997 54.69099 15.573997 55.458996 C 15.331998 55.637997 15.126998 55.970997 14.962997 56.435997 C 17.55 58.588 21.445 59.488 27.012 59.488 z " fill-opacity="0.1"/>
<path d="M 27.012 59.488 C 32.385 59.488 36.203 58.648 38.788 56.655 C 38.745 56.518 38.692997 56.397 38.615997 56.314 C 38.290997 55.966 37.896996 55.661 37.478996 55.443 C 36.238995 54.717 34.922997 54.076 33.563995 53.535 C 32.557995 53.135 31.773994 52.352 31.233995 51.214 C 30.993996 50.709 30.871996 50.163 30.898996 49.715 C 30.905996 49.633 30.957996 49.569 31.098995 49.428 C 31.168997 49.358 31.241997 49.283 31.302998 49.205 C 31.508995 48.951 31.698996 48.654003 31.879995 48.297 C 32.160995 47.746 32.325996 47.179 32.482998 46.629 C 32.544 46.436 32.596996 46.245003 32.656 46.059 C 32.67 46.059 32.679996 46.059 32.696 46.059 C 33.339 46.059 33.593 45.153004 33.731 44.666 L 33.744 44.619 C 33.775 44.51 33.82 44.373 33.87 44.215 C 34.014 43.77 34.208 43.162 34.289 42.635 C 34.407 41.879 34.254997 41.405 33.844 41.219997 C 33.881996 41.024 34.054996 40.114 34.091 39.904 C 34.166 39.499 34.203 39.137 34.203 38.796 C 34.203 38.633 34.208 38.470997 34.215 38.315 C 34.223 38.161 33.906 36.122 33.543 35.324997 C 33.251 34.685997 32.82 33.896996 32.062 33.457996 C 31.469 33.114998 30.809 32.914997 30.173 32.721996 C 30.022 32.677 29.875 32.632996 29.733 32.588997 C 29.541 32.525997 29.348 32.461998 29.153 32.395996 C 28.244 32.090996 27.303 31.776997 26.313 31.776997 C 26.19 31.776997 26.068 31.782995 25.942 31.790997 C 25.526 31.827995 25.171 31.957996 24.827 32.081997 C 24.632 32.153996 24.446 32.222996 24.257 32.269997 C 24.194 32.285995 24.128 32.293995 24.04 32.293995 C 23.964 32.293995 23.891 32.287994 23.816 32.282993 C 23.726 32.277992 23.636 32.272995 23.547 32.272995 C 23.418 32.272995 23.305 32.282993 23.199 32.302994 C 22.613 32.418995 22.373 32.870995 22.228 33.140995 C 22.161 33.269997 22.132 33.394997 22.109 33.496994 C 22.104002 33.524994 22.097002 33.555992 22.091002 33.581993 C 22.064 33.582993 22.028002 33.585995 22.003002 33.587994 C 21.929005 33.59399 21.855 33.601994 21.793003 33.61499 C 21.153004 33.749992 20.872004 34.26099 20.646004 34.671993 L 20.590004 34.77399 C 20.059004 35.726994 19.763004 37.999996 19.769005 38.129993 C 19.775003 38.201992 19.775003 38.390995 19.777004 38.604992 C 19.779003 38.941994 19.781004 39.290993 19.793003 39.42099 C 19.793003 40.07699 19.880005 40.72599 20.054005 41.35899 C 20.002005 41.39599 19.955004 41.44199 19.916004 41.493988 C 19.668003 41.80999 19.648005 42.384987 19.855003 43.197987 C 19.865004 43.239983 19.880005 43.318985 19.903004 43.424988 C 20.240004 45.021988 20.541004 45.92999 21.115004 46.03399 C 21.152004 46.153988 21.186005 46.27499 21.220003 46.397987 C 21.370005 46.934982 21.527002 47.488987 21.777002 48.02799 C 22.082005 48.69199 22.404003 49.17299 22.791002 49.54699 C 23.002005 49.74799 22.858002 50.28499 22.750002 50.67599 C 22.73 50.75399 22.709002 50.833992 22.691002 50.90499 C 22.525002 51.57899 22.191002 52.17699 21.719002 52.64099 C 21.197002 53.14999 20.536 53.42899 19.834002 53.722992 C 19.666002 53.791992 19.498 53.86399 19.331 53.937992 L 19.123 54.02899 C 17.988 54.533993 16.817 55.04999 15.815001 55.789993 C 15.551001 55.985992 15.377001 56.456993 15.297001 56.707993 C 17.881 58.666 21.682 59.488 27.012 59.488 z " fill-opacity="0.2"/>
<path d="M 27.012 59.488 C 32.149 59.488 35.862 58.718 38.437 56.912 C 38.417 56.782 38.377 56.655 38.317 56.592 C 38.02 56.268997 37.662003 55.997997 37.274 55.792 C 36.039 55.072 34.741 54.445 33.413002 53.914 C 32.239002 53.445 31.404 52.522003 30.866 51.390003 C 30.624 50.882004 30.458 50.251003 30.491 49.691 C 30.511002 49.353 30.79 49.198 30.989 48.952003 C 31.194 48.694004 31.366 48.409004 31.518 48.114 C 31.952 47.27 32.093998 46.36 32.422 45.485 C 32.932 46.106 33.261 44.83 33.353 44.51 C 33.56 43.780003 34.341 41.803 33.625 41.572 C 33.523 41.538 33.43 41.576004 33.359 41.656 C 33.371002 41.481003 33.573 40.477 33.692 39.83 C 33.754 39.49 33.796 39.142 33.796 38.795 C 33.796 38.627003 33.801003 38.461 33.808 38.293003 C 33.811 38.261 33.524002 36.259003 33.172 35.495003 C 32.88 34.855003 32.484 34.176003 31.858002 33.811005 C 31.172 33.412006 30.358002 33.212006 29.612 32.975006 C 28.442 32.606007 27.224 32.090008 25.977 32.195007 C 25.389002 32.245007 24.911 32.522007 24.352 32.66501 C 23.997002 32.75501 23.636002 32.632008 23.278002 32.702007 C 22.911 32.774006 22.751 33.027008 22.588 33.33201 C 22.507002 33.486008 22.513 33.66901 22.434002 33.82301 C 22.330002 34.020008 22.058002 33.97301 21.878002 34.01101 C 21.378002 34.11701 21.175003 34.56501 20.946005 34.972008 C 20.456003 35.854008 20.175003 38.05401 20.176004 38.10701 C 20.186005 38.286007 20.180002 39.166008 20.200005 39.42001 C 20.200005 40.14901 20.318005 40.905006 20.564005 41.639008 C 19.879004 41.514008 20.173002 42.79701 20.250004 43.09401 C 20.340004 43.45001 20.795004 46.12001 21.396004 45.556007 C 21.642004 46.329006 21.804005 47.111008 22.146004 47.855007 C 22.378004 48.363007 22.669004 48.861008 23.075005 49.250008 C 23.519005 49.67801 23.213003 50.48501 23.086004 51.001007 C 22.908005 51.73201 22.546003 52.39901 22.004004 52.926006 C 21.297005 53.62401 20.381004 53.915005 19.496004 54.310005 C 18.334003 54.824005 17.085005 55.359005 16.058004 56.118004 C 15.906004 56.229004 15.734004 56.639004 15.650004 56.956005 C 18.221 58.732 21.916 59.488 27.012 59.488 z " fill="#ffffff" fill-opacity="1"/>
<radialGradient cx="538.9727" cy="848.335" gradientTransform="matrix(1 0 0 1 -511.96 -811.0391)" gradientUnits="userSpaceOnUse" r="14.5053">
<stop offset="0" stop-color="#fffff9"/>
<stop offset="0.2121" stop-color="#fffff9"/>
<stop offset="1" stop-color="#adcceb"/>
</radialGradient>
<radialGradient cx="538.8965" cy="862.4883" gradientTransform="matrix(1 0 0 1 -511.96 -811.0391)" gradientUnits="userSpaceOnUse" id="SVGID_4_" r="3.7889">
<stop offset="0" stop-color="#000000" stop-opacity="0.5"/>
<stop offset="0.4" stop-color="#000000" stop-opacity="0.5"/>
<stop offset="1" stop-color="#5a5a5a" stop-opacity="0"/>
</radialGradient>
<path d="M 23.299 49.341 C 23.299 49.341 25.525 51.348 26.645 51.348 C 26.645 51.348 27.188 51.383 27.664 51.281 C 28.141 51.178 30.416002 49.378 30.416002 49.378 C 30.416002 49.378 29.522003 54.921 26.776005 54.912 C 23.935 54.903 23.299 49.341 23.299 49.341 z " fill="url(#SVGID_4_)" fill-opacity="0.3"/>
<path d="M 30.232 48.799 C 29.684 49.225 28.211 50.03 27.815 50.115 C 27.341 50.214996 26.798 50.182 26.798 50.182 C 25.915 50.182 24.205 49.393 23.576 48.86 C 23.704 49.117 23.726 49.404 23.7 49.684 C 24.389 50.254 25.814 51.347 26.643002 51.347 C 26.643002 51.347 27.186 51.382 27.662004 51.28 C 28.027002 51.198997 29.447002 50.128 30.091003 49.629997 C 30.082005 49.500996 30.076004 49.377 30.085005 49.259 C 30.096 49.073 30.157 48.927 30.232 48.799 z " fill="#ffffff" fill-opacity="0.05"/>
<path d="M 27.663 50.857 C 27.187 50.956997 26.644 50.921997 26.644 50.921997 C 25.815 50.921997 23.727 49.402996 23.701 49.684 C 24.39 50.254 25.815 51.346996 26.644 51.346996 C 26.644 51.346996 27.187 51.381996 27.663002 51.279995 C 28.028002 51.198994 29.448002 50.127995 30.092005 49.629993 C 30.083 49.505 28.028 50.779 27.663 50.857 z " fill="#ffffff" fill-opacity="0.1"/>
<path d="M 81.757 55.208 C 81.311005 54.724 80.782005 54.312 80.247 54.03 C 78.934 53.265 77.544 52.591 76.113 52.018997 C 75.504 51.775 75.009 51.268 74.648 50.511997 C 74.601006 50.407997 74.56201 50.308 74.534004 50.207996 C 74.804 49.873997 75.046005 49.490997 75.27801 49.040997 C 75.59601 48.416996 75.78801 47.802 75.936005 47.285995 C 76.797005 46.689995 77.09801 45.626995 77.248 45.096996 L 77.259 45.061996 C 77.277 44.987995 77.305 44.900997 77.35401 44.758995 L 77.36801 44.705994 C 77.52801 44.213993 77.745 43.534992 77.846 42.880993 C 78.004 41.852993 77.788 41.151993 77.542 40.71699 C 77.577 40.53099 77.635 40.23699 77.64 40.19699 C 77.733 39.69899 77.78 39.23999 77.78 38.797993 C 77.78 38.65599 77.787 38.51499 77.789 38.39299 C 77.815 37.865993 77.405 35.587994 76.974 34.646996 C 76.582 33.788994 75.982 32.715996 74.826 32.046997 C 74.06899 31.605995 73.315994 31.378998 72.591 31.157995 L 72.544 31.145998 C 72.421 31.107998 72.297 31.069998 72.174995 31.030998 C 71.996994 30.972998 71.815994 30.913998 71.61199 30.844995 C 70.58099 30.498997 69.51199 30.142998 68.26199 30.142998 C 68.091 30.142998 67.924995 30.149998 67.75499 30.163998 C 67.12099 30.218998 66.61299 30.402 66.20099 30.552998 C 66.09999 30.588997 65.997986 30.628998 65.90299 30.654997 L 65.86099 30.653996 C 65.73799 30.646996 65.61499 30.639996 65.493996 30.639996 C 65.259995 30.639996 65.043 30.660995 64.83199 30.701998 C 63.637993 30.937998 63.067993 31.779997 62.832993 32.199997 C 61.85799 32.619995 61.394993 33.463997 61.170994 33.879 L 61.113995 33.98 C 60.388996 35.279 60.070995 37.894 60.091995 38.217 C 60.094994 38.251 60.094994 38.321 60.094994 38.451 L 60.094994 38.612 C 60.099995 39.167 60.101994 39.36 60.112995 39.441 C 60.112995 39.973 60.160995 40.504997 60.258995 41.032997 C 59.969994 41.709995 59.957996 42.551 60.223995 43.590996 C 60.229996 43.615997 60.247993 43.708996 60.255997 43.755997 C 60.563995 45.215996 60.866997 46.396996 61.672997 47.101 C 61.823997 47.628 61.989 48.153 62.243996 48.707996 C 62.518997 49.305996 62.806995 49.784996 63.136997 50.196995 C 63.101 50.341995 63.058 50.507996 63.054996 50.511993 C 62.962997 50.887993 62.781 51.220993 62.526997 51.469994 C 62.228996 51.759995 61.740997 51.966995 61.119995 52.227993 L 61.07999 52.245995 C 60.924995 52.309994 60.769993 52.373993 60.62199 52.438995 L 60.408993 52.536995 C 59.19699 53.069996 57.944992 53.626995 56.797993 54.474995 C 56.471992 54.715996 56.20399 55.068996 55.98099 55.538994 C 58.52499 58.339993 62.67799 59.487995 68.96199 59.487995 C 75.27399 59.487995 79.43699 58.328995 81.97599 55.506996 C 81.899 55.39 81.831 55.288 81.757 55.208 z " fill-opacity="0.02"/>
<path d="M 81.458 55.485 C 81.043 55.032 80.545 54.652 80.041 54.387 C 78.748 53.631 77.375 52.961 75.966 52.398003 C 75.254005 52.117004 74.689 51.541004 74.284004 50.688004 C 74.19 50.494003 74.122 50.291004 74.09001 50.106003 C 74.128006 50.061005 74.165 50.015003 74.202 49.972004 C 74.46001 49.652004 74.69 49.288 74.916 48.856003 C 75.236 48.225 75.419 47.615 75.589 47.026 C 76.416 46.542 76.709 45.508 76.855 44.994 L 76.865 44.952 C 76.89 44.87 76.92 44.767 76.964 44.636 L 76.979 44.588997 C 77.134 44.105995 77.34599 43.447 77.44299 42.820995 C 77.59499 41.828995 77.37299 41.188995 77.11399 40.798996 C 77.11399 40.798996 77.22999 40.182995 77.24099 40.125996 C 77.32599 39.649994 77.37099 39.216995 77.37299 38.798996 C 77.37299 38.652996 77.37799 38.504997 77.383 38.374996 C 77.405 37.943996 77.02699 35.742996 76.604 34.817 C 76.23499 34.012997 75.67799 33.011997 74.62 32.400997 C 73.906 31.984997 73.176994 31.763998 72.47099 31.550997 L 72.42899 31.536997 C 72.300995 31.497995 72.174995 31.460997 72.05 31.422997 C 71.869 31.360996 71.686 31.302996 71.480995 31.234997 C 70.482994 30.898996 69.447 30.550997 68.26199 30.550997 C 68.104 30.550997 67.94599 30.556995 67.787994 30.570995 C 67.20899 30.619995 66.75299 30.787996 66.342995 30.933998 C 66.20899 30.985 66.073 31.037 65.94299 31.066998 C 65.911995 31.066998 65.881 31.062998 65.839 31.059998 C 65.724 31.053995 65.607994 31.047998 65.493996 31.047998 C 65.284 31.047998 65.093994 31.066998 64.909996 31.102 C 63.799995 31.321 63.31599 32.159 63.119995 32.522 C 62.189995 32.866 61.76099 33.647 61.525993 34.078 L 61.46899 34.178 C 60.784996 35.402996 60.480995 37.925 60.494995 38.195 C 60.497993 38.236 60.497993 38.314 60.499996 38.452 L 60.499996 38.613 C 60.504 39.134 60.505997 39.339 60.515995 39.442 C 60.515995 39.990997 60.574993 40.545 60.680996 41.087 C 60.380997 41.692997 60.358997 42.483 60.612995 43.496 C 60.623997 43.526997 60.653996 43.672997 60.653996 43.675 C 60.955994 45.111 61.254997 46.266 62.029995 46.869 C 62.180996 47.408 62.344994 47.963 62.612995 48.542 C 62.906994 49.179 63.216995 49.682 63.582996 50.1 C 63.562996 50.175 63.450996 50.613 63.450996 50.613 C 63.340996 51.066 63.119995 51.464 62.809 51.765 C 62.457996 52.111 61.934 52.332 61.276997 52.608 L 61.236996 52.626 C 61.084995 52.687 60.931995 52.751 60.784996 52.82 L 60.574997 52.911 C 59.381996 53.441 58.149 53.987 57.036995 54.807 C 56.731995 55.034 56.480995 55.384 56.271996 55.864 C 58.83699 58.431 62.916996 59.49 68.95999 59.49 C 75.03499 59.49 79.12399 58.419 81.68599 55.818996 C 81.612 55.685 81.54 55.571 81.458 55.485 z " fill-opacity="0.03"/>
<path d="M 68.957 59.488 C 74.799 59.488 78.8 58.493 81.380005 56.107 C 81.313 55.968 81.241005 55.85 81.159004 55.761 C 80.774 55.342 80.30801 54.985996 79.836006 54.735996 C 78.563 53.990997 77.20801 53.333996 75.815 52.777996 C 75.003006 52.451996 74.363 51.81 73.915 50.859997 C 73.770004 50.558 73.681 50.242996 73.658 49.962997 C 73.737 49.886997 73.813 49.804996 73.885994 49.714996 C 74.12799 49.417995 74.342995 49.076996 74.55399 48.67 C 74.867 48.053 75.04599 47.445 75.216 46.857 L 75.246 46.747 C 76.038994 46.387997 76.32099 45.39 76.463 44.886997 L 76.475 44.843 C 76.501 44.747997 76.539 44.629 76.591 44.466 C 76.744 43.996 76.95 43.353 77.04199 42.758 C 77.188995 41.804 76.95799 41.234 76.68299 40.898 C 76.73599 40.615997 76.82599 40.131 76.83999 40.052 C 76.92199 39.602997 76.96299 39.192 76.96399 38.8 C 76.96699 38.648 76.97199 38.494 76.97699 38.357 C 76.99399 38.024 76.63599 35.872 76.23099 34.987 C 75.89099 34.239 75.37699 33.309 74.41899 32.755 C 73.74199 32.364002 73.03499 32.15 72.35399 31.943 C 72.20999 31.901 72.066986 31.856 71.92699 31.811 C 71.74399 31.751 71.55798 31.692 71.35599 31.622002 C 70.38399 31.298002 69.37899 30.96 68.25899 30.96 C 68.11298 30.96 67.96699 30.966002 67.819984 30.98 C 67.29598 31.024002 66.86899 31.179 66.484985 31.320002 C 66.30998 31.384 66.14799 31.441002 65.98199 31.478004 C 65.931984 31.478004 65.88199 31.474005 65.80899 31.470003 C 65.70399 31.464005 65.59699 31.458004 65.49199 31.458004 C 65.30799 31.458004 65.14199 31.474005 64.98799 31.505005 C 64.02199 31.694004 63.624992 32.441006 63.45499 32.761005 C 63.437992 32.792004 63.42099 32.824005 63.40499 32.859005 C 62.51599 33.118004 62.11999 33.838005 61.87999 34.277004 L 61.82499 34.379005 C 61.19299 35.514004 60.88699 37.931007 60.90299 38.178005 C 60.904987 38.224007 60.90699 38.324005 60.90699 38.451004 L 60.90699 38.610004 C 60.90899 39.095005 60.91499 39.346004 60.92099 39.423004 C 60.92099 40.004005 60.98399 40.585003 61.10799 41.150005 C 60.79299 41.678005 60.76199 42.416004 61.00899 43.397007 C 61.020992 43.426006 61.05199 43.592007 61.05199 43.592007 C 61.347992 45.01001 61.64199 46.140007 62.381992 46.623005 C 62.540993 47.189003 62.705994 47.775005 62.983994 48.370007 C 63.295994 49.046005 63.62899 49.563007 64.024994 49.98301 C 64.008995 50.06601 63.978992 50.211006 63.911995 50.461006 C 63.888996 50.547005 63.866997 50.629005 63.84399 50.708008 C 63.717995 51.236008 63.459995 51.701008 63.096992 52.057007 C 62.686993 52.459007 62.11399 52.701008 61.430992 52.987007 C 61.269993 53.05301 61.10799 53.12401 60.950993 53.19201 L 60.73999 53.28601 C 59.56599 53.80601 58.354996 54.346012 57.279995 55.137012 C 56.999996 55.344013 56.775993 55.68201 56.587994 56.157013 C 59.162 58.509 63.15 59.488 68.957 59.488 z " fill-opacity="0.05"/>
<path d="M 68.957 59.488 C 74.564 59.488 78.48 58.576 81.062 56.389 C 81.004 56.247 80.945 56.126 80.85899 56.035 C 80.505 55.656 80.07399 55.323 79.62899 55.089 C 78.36999 54.358 77.03599 53.705 75.65999 53.156 C 74.75099 52.794003 74.039986 52.08 73.54899 51.039 C 73.346985 50.618 73.23999 50.168003 73.247986 49.805 C 73.26899 49.78 73.29598 49.751 73.33598 49.715 C 73.414986 49.634 73.49398 49.552 73.567986 49.46 C 73.790985 49.183 73.99299 48.865 74.18899 48.483 C 74.483986 47.901997 74.65699 47.318996 74.82099 46.744 C 74.85299 46.64 74.884 46.535 74.913994 46.432 C 75.65499 46.238 75.92999 45.27 76.06699 44.777 L 76.08299 44.731 C 76.10899 44.625 76.15299 44.493 76.204 44.34 C 76.35 43.883 76.549 43.257 76.63799 42.698 C 76.77899 41.780003 76.54299 41.289 76.24099 41.028004 C 76.24099 41.028004 76.41699 40.091003 76.43399 39.97601 C 76.51499 39.548004 76.55599 39.16301 76.55599 38.797005 C 76.55599 38.639004 76.56199 38.48201 76.565994 38.334003 C 76.58099 38.085003 76.23899 35.985004 75.857994 35.154003 C 75.54399 34.460003 75.06999 33.6 74.21199 33.103004 C 73.57599 32.736004 72.89599 32.530003 72.232994 32.329006 C 72.08699 32.286007 71.94199 32.243008 71.800995 32.198006 C 71.60999 32.137005 71.42 32.073006 71.226 32.007004 C 70.287994 31.691004 69.314995 31.366005 68.258995 31.366005 C 68.12399 31.366005 67.98799 31.370005 67.856 31.382004 C 67.385994 31.422005 66.98499 31.567003 66.629 31.696005 C 66.444 31.764004 66.27 31.829002 66.1 31.870005 C 66.073 31.877005 66.034996 31.881002 65.982 31.881002 C 65.920006 31.881002 65.856 31.877005 65.786 31.870005 C 65.688 31.866005 65.590004 31.860004 65.492004 31.860004 C 65.338005 31.860004 65.19701 31.872002 65.066 31.901005 C 64.293 32.053 63.969 32.656002 63.816 32.945004 C 63.77 33.035004 63.733 33.122 63.710003 33.201004 C 63.689003 33.206005 63.671 33.208004 63.655003 33.211002 C 62.831 33.386 62.474003 34.038 62.238003 34.469 L 62.179005 34.572 C 61.610004 35.598003 61.296005 37.933 61.307003 38.151 C 61.31 38.21 61.311005 38.352 61.314003 38.52 L 61.314003 38.605 C 61.317 38.998 61.321003 39.31 61.33 39.418 C 61.33 40.027 61.403004 40.637 61.546 41.231 C 61.544003 41.232 61.54 41.237 61.537003 41.239 C 61.206 41.668 61.161003 42.34 61.404003 43.292 C 61.414 43.331 61.429005 43.406 61.451004 43.504 C 61.745003 44.9 62.033005 46.015003 62.72601 46.347 C 62.744007 46.398 62.757004 46.451 62.770004 46.505 C 62.92701 47.058 63.08701 47.627003 63.352005 48.194 C 63.674004 48.893 64.017006 49.409 64.43201 49.814 C 64.466 49.96 64.353004 50.379 64.30201 50.56 C 64.27801 50.647 64.25701 50.724 64.239006 50.803997 C 64.092 51.402996 63.794006 51.935 63.37801 52.343 C 62.914005 52.799 62.286007 53.062 61.602005 53.345997 C 61.438004 53.417995 61.27401 53.486996 61.112003 53.559 L 60.903004 53.654 C 59.750004 54.163 58.560005 54.691 57.518005 55.46 C 57.277004 55.639 57.074005 55.972 56.908005 56.437 C 59.493 58.588 63.388 59.488 68.957 59.488 z " fill-opacity="0.1"/>
<path d="M 68.957 59.488 C 74.33 59.488 78.149 58.648 80.732 56.655 C 80.69 56.518 80.637 56.397 80.558 56.314 C 80.237 55.962997 79.841 55.661 79.422 55.443 C 78.184 54.717 76.869 54.076 75.508995 53.535 C 74.50099 53.131 73.718 52.352 73.18099 51.214 C 72.93699 50.709 72.815994 50.163 72.843994 49.715 C 72.851 49.633 72.90299 49.569 73.04399 49.428 C 73.11699 49.358 73.18399 49.283 73.24799 49.205 C 73.452995 48.951 73.644 48.654003 73.826 48.297 C 74.106995 47.746 74.271 47.179 74.42899 46.629 C 74.48899 46.436 74.54099 46.245003 74.59999 46.059 C 74.61499 46.059 74.62499 46.059 74.63899 46.059 C 75.285 46.059 75.537994 45.153004 75.674995 44.666 L 75.688995 44.619 C 75.71999 44.51 75.76399 44.373 75.814995 44.215 C 75.95899 43.77 76.15299 43.162 76.23499 42.635 C 76.35199 41.879 76.19999 41.405 75.79099 41.219997 C 75.82499 41.024 75.99899 40.114 76.036 39.904 C 76.10899 39.499 76.145 39.137 76.145 38.796 C 76.148994 38.633 76.153 38.470997 76.16 38.315 C 76.167 38.161 75.851 36.122 75.48599 35.324997 C 75.19599 34.685997 74.76499 33.896996 74.007 33.457996 C 73.413994 33.114998 72.753 32.914997 72.116 32.721996 C 71.966 32.677 71.82 32.632996 71.676994 32.588997 C 71.48499 32.525997 71.28999 32.461998 71.09599 32.395996 C 70.188995 32.090996 69.24799 31.776997 68.258 31.776997 C 68.134 31.776997 68.010994 31.782995 67.88899 31.790997 C 67.468 31.827995 67.11599 31.957996 66.770996 32.081997 C 66.577995 32.153996 66.39 32.222996 66.2 32.269997 C 66.14 32.285995 66.072 32.293995 65.980995 32.293995 C 65.908 32.293995 65.83499 32.287994 65.759995 32.282993 C 65.66899 32.277992 65.58099 32.272995 65.49 32.272995 C 65.361 32.272995 65.249 32.282993 65.14 32.302994 C 64.557 32.418995 64.316 32.870995 64.172 33.140995 C 64.103 33.269997 64.076 33.394997 64.054 33.496994 C 64.046 33.524994 64.041 33.555992 64.036 33.581993 C 64.006004 33.582993 63.973003 33.585995 63.946003 33.587994 C 63.871 33.59399 63.798004 33.601994 63.735004 33.61499 C 63.09401 33.749992 62.817005 34.26099 62.588005 34.671993 L 62.533005 34.77399 C 62.004005 35.726994 61.706005 37.999996 61.713005 38.129993 C 61.717007 38.201992 61.718006 38.390995 61.720005 38.604992 C 61.720005 38.941994 61.725006 39.290993 61.735004 39.42099 C 61.735004 40.07699 61.82301 40.72599 61.995003 41.35899 C 61.946003 41.39599 61.898003 41.44199 61.857 41.493988 C 61.613003 41.80999 61.590004 42.384987 61.799004 43.197987 C 61.810005 43.239983 61.824005 43.318985 61.847004 43.424988 C 62.182003 45.021988 62.484005 45.92999 63.060005 46.03399 C 63.095005 46.153988 63.12801 46.27499 63.16301 46.397987 C 63.312004 46.934982 63.471004 47.488987 63.720005 48.02799 C 64.02701 48.69199 64.350006 49.17299 64.73701 49.54699 C 64.94701 49.74799 64.80001 50.28499 64.69601 50.67599 C 64.675 50.75399 64.65301 50.83099 64.63401 50.90399 C 64.46901 51.576992 64.13301 52.17799 63.66301 52.63999 C 63.14201 53.150993 62.48101 53.429993 61.77801 53.72399 C 61.608013 53.79299 61.443012 53.86499 61.276012 53.93899 L 61.067013 54.02999 C 59.933018 54.53199 58.762012 55.05099 57.75801 55.790993 C 57.49501 55.98699 57.32001 56.457993 57.24001 56.708992 C 59.825 58.663 63.627 59.488 68.957 59.488 z " fill-opacity="0.2"/>
<path d="M 68.957 59.488 C 74.093 59.488 77.806 58.718 80.383 56.912 C 80.362 56.782 80.32101 56.655 80.26 56.592 C 79.964005 56.268997 79.607 55.996 79.22 55.792 C 77.984 55.072 76.686005 54.445 75.361 53.914 C 74.183 53.445 73.349 52.522003 72.81 51.387 C 72.569 50.878 72.402 50.251 72.436 49.691 C 72.457 49.353 72.735 49.198 72.933 48.952003 C 73.139 48.694004 73.312 48.409004 73.463 48.114 C 73.895 47.27 74.036995 46.36 74.367 45.485 C 74.876 46.106 75.204994 44.83 75.298 44.51 C 75.505 43.780003 76.286 41.803 75.573 41.572 C 75.466995 41.538 75.374 41.576004 75.301994 41.656 C 75.314995 41.481003 75.51699 40.477 75.635994 39.83 C 75.699 39.49 75.73899 39.142 75.73999 38.795 C 75.73999 38.627003 75.746994 38.461 75.75399 38.293003 C 75.75599 38.261 75.46799 36.259003 75.11699 35.495003 C 74.82499 34.855003 74.428986 34.176003 73.802986 33.811005 C 73.11799 33.412006 72.303986 33.212006 71.555984 32.975006 C 70.389984 32.606007 69.16898 32.090008 67.92198 32.195007 C 67.333984 32.245007 66.85498 32.522007 66.29798 32.66501 C 65.93998 32.75501 65.58198 32.632008 65.21998 32.702007 C 64.85298 32.774006 64.696976 33.027008 64.531975 33.33201 C 64.449974 33.486008 64.45698 33.66901 64.377975 33.82301 C 64.27398 34.020008 64.002975 33.97301 63.820976 34.01101 C 63.322975 34.11701 63.117977 34.56501 62.890976 34.972008 C 62.398975 35.854008 62.117977 38.05401 62.119976 38.10701 C 62.130978 38.286007 62.124977 39.166008 62.143974 39.42001 C 62.143974 40.14901 62.262978 40.905006 62.507973 41.639008 C 61.82297 41.514008 62.115974 42.79701 62.194973 43.09401 C 62.285973 43.45001 62.737972 46.12001 63.341972 45.556007 C 63.58697 46.329006 63.74597 47.111008 64.09097 47.855007 C 64.322975 48.363007 64.614975 48.861008 65.016975 49.250008 C 65.460976 49.67801 65.156975 50.48501 65.030975 50.99801 C 64.851974 51.730007 64.490974 52.39901 63.947975 52.92601 C 63.240974 53.624012 62.322975 53.91501 61.440975 54.31001 C 60.278976 54.82401 59.029976 55.35701 58.002975 56.118008 C 57.851974 56.229008 57.679977 56.639008 57.595978 56.95601 C 60.167 58.732 63.861 59.488 68.957 59.488 z " fill="#ffffff" fill-opacity="1"/>
<radialGradient cx="580.915" cy="848.335" gradientTransform="matrix(1 0 0 1 -511.96 -811.0391)" gradientUnits="userSpaceOnUse" r="14.505">
<stop offset="0" stop-color="#fffff9"/>
<stop offset="0.2121" stop-color="#fffff9"/>
<stop offset="1" stop-color="#adcceb"/>
</radialGradient>
<radialGradient cx="580.8408" cy="862.4883" gradientTransform="matrix(1 0 0 1 -511.96 -811.0391)" gradientUnits="userSpaceOnUse" id="SVGID_6_" r="3.7884">
<stop offset="0" stop-color="#000000" stop-opacity="0.5"/>
<stop offset="0.4" stop-color="#000000" stop-opacity="0.5"/>
<stop offset="1" stop-color="#5a5a5a" stop-opacity="0"/>
</radialGradient>
<path d="M 65.243 49.341 C 65.243 49.341 67.468994 51.348 68.59 51.348 C 68.59 51.348 69.133 51.383 69.607994 51.281 C 70.08499 51.178 72.35999 49.378 72.35999 49.378 C 72.35999 49.378 71.468 54.921 68.72299 54.911 C 65.878 54.903 65.243 49.341 65.243 49.341 z " fill="url(#SVGID_6_)" fill-opacity="0.3"/>
<path d="M 72.175 48.799 C 71.631004 49.225 70.157005 50.03 69.763 50.115 C 69.285 50.214996 68.742 50.182 68.742 50.182 C 67.861 50.182 66.152 49.393 65.520996 48.86 C 65.647995 49.117 65.672 49.404 65.646996 49.684 C 66.33399 50.254 67.76 51.347 68.589 51.347 C 68.589 51.347 69.132 51.382 69.606995 51.28 C 69.97299 51.198997 71.393 50.128 72.037994 49.629997 C 72.02899 49.500996 72.022 49.377 72.03099 49.259 C 72.04 49.073 72.101 48.927 72.175 48.799 z " fill="#ffffff" fill-opacity="0.05"/>
<path d="M 69.607 50.857 C 69.132 50.956997 68.591 50.921997 68.591 50.921997 C 67.76 50.921997 65.672005 49.402996 65.647 49.684 C 66.334 50.254 67.76 51.346996 68.591 51.346996 C 68.591 51.346996 69.132 51.381996 69.607 51.279995 C 69.973 51.198994 71.393005 50.127995 72.038 49.629993 C 72.029 49.505 69.974 50.777 69.607 50.857 z " fill="#ffffff" fill-opacity="0.1"/>
<path d="M 60.564 41.347 C 60.115997 40.863 59.587997 40.451 59.054 40.168 C 57.741 39.404 56.35 38.73 54.921 38.159 C 54.308 37.914 53.816 37.407 53.454 36.651 C 53.408 36.549 53.369003 36.448 53.339 36.347 C 53.61 36.013 53.852 35.63 54.085 35.179 C 54.402 34.556 54.593 33.941 54.743 33.425 C 55.602 32.829998 55.904 31.766 56.054 31.236 L 56.065 31.2 C 56.084003 31.128 56.112003 31.041 56.159004 30.897 L 56.175003 30.846 C 56.334003 30.352 56.550003 29.675 56.651005 29.02 C 56.812004 27.992 56.59401 27.291 56.348003 26.856 C 56.385 26.67 56.44 26.376 56.447 26.337002 C 56.54 25.838 56.586 25.379002 56.586 24.936 C 56.586 24.796 56.591003 24.655 56.595 24.532 C 56.622 24.005 56.211 21.728 55.780003 20.786 C 55.387 19.928 54.789 18.854002 53.632004 18.185 C 52.874004 17.745 52.122005 17.518002 51.397003 17.297 L 51.352005 17.284 C 51.228004 17.246 51.102005 17.209 50.980003 17.17 C 50.801003 17.111 50.623005 17.053 50.417004 16.984 C 49.388004 16.637999 48.320004 16.282999 47.068005 16.282999 C 46.898006 16.282999 46.731003 16.289 46.560005 16.303 C 45.92701 16.358 45.419006 16.541 45.007004 16.692 C 44.907005 16.729 44.804005 16.768 44.708004 16.795 L 44.666004 16.792 C 44.544003 16.786 44.422005 16.778 44.299004 16.778 C 44.065 16.778 43.848003 16.801 43.637005 16.841 C 42.444004 17.077 41.873005 17.919 41.640003 18.339 C 40.665005 18.759 40.202003 19.603 39.977005 20.019 L 39.919006 20.119 C 39.197006 21.418 38.877007 24.033 38.897007 24.356998 C 38.89901 24.39 38.89901 24.461 38.89901 24.590998 L 38.89901 24.750998 C 38.90601 25.305998 38.908005 25.498997 38.918007 25.580996 C 38.918007 26.111998 38.966007 26.643995 39.065006 27.171995 C 38.775005 27.849997 38.764008 28.689997 39.028008 29.729998 C 39.034008 29.754995 39.051006 29.848995 39.063007 29.893995 C 39.370007 31.355995 39.67101 32.537 40.479008 33.239998 C 40.62901 33.767 40.793007 34.293 41.048008 34.846996 C 41.32501 35.443996 41.611008 35.922997 41.94201 36.335995 C 41.90701 36.480995 41.86301 36.646996 41.861008 36.650993 C 41.76801 37.026993 41.586006 37.359993 41.33201 37.608994 C 41.034008 37.89899 40.54601 38.104992 39.925007 38.366993 L 39.88501 38.384995 C 39.731007 38.448994 39.575005 38.512993 39.428005 38.57999 L 39.216003 38.674995 C 38.002003 39.208996 36.749004 39.76699 35.603004 40.613995 C 35.277004 40.853996 35.009003 41.206993 34.786003 41.677994 C 37.329 44.477993 41.483 45.624992 47.766003 45.624992 C 54.078003 45.624992 58.242004 44.46799 60.782 41.645992 C 60.706 41.528 60.638 41.426 60.564 41.347 z " fill-opacity="0.02"/>
<path d="M 60.265 41.624 C 59.851 41.172 59.354 40.791 58.848 40.525 C 57.555 39.769 56.182 39.1 54.773 38.537003 C 54.062 38.257004 53.496 37.680004 53.091 36.827003 C 52.998 36.633003 52.928 36.431004 52.897 36.245003 C 52.934 36.200005 52.971 36.156 53.009 36.112003 C 53.268 35.791004 53.497997 35.427 53.723 34.995003 C 54.044 34.364 54.225 33.755 54.396 33.165 C 55.224 32.68 55.516 31.647 55.661 31.133 L 55.672 31.091002 C 55.698 31.009 55.728 30.906002 55.77 30.775002 L 55.787 30.728 C 55.941 30.246 56.154 29.585 56.25 28.96 C 56.401 27.968 56.18 27.328 55.921 26.938002 C 55.921 26.938002 56.037003 26.322002 56.048 26.264002 C 56.135 25.788002 56.178 25.357002 56.18 24.937002 C 56.18 24.793003 56.185 24.644005 56.19 24.515 C 56.212 24.083002 55.834 21.882002 55.41 20.956 C 55.042 20.151 54.484 19.152 53.427 18.54 C 52.712997 18.124 51.984997 17.903002 51.279 17.69 L 51.236 17.676 C 51.108 17.638 50.981 17.6 50.858 17.563 C 50.676003 17.502 50.493 17.442 50.289 17.374 C 49.29 17.038 48.254 16.69 47.069 16.69 C 46.91 16.69 46.754 16.696001 46.596 16.711 C 46.017 16.759 45.559 16.928 45.15 17.073 C 45.015003 17.124 44.879 17.177 44.751003 17.206 C 44.721004 17.206 44.688004 17.202 44.646004 17.199 C 44.533005 17.194 44.416004 17.188 44.301003 17.188 C 44.092003 17.188 43.903004 17.206 43.717003 17.241 C 42.608 17.46 42.125004 18.297998 41.929005 18.661 C 40.998005 19.006 40.570004 19.785 40.335003 20.216 L 40.276005 20.318 C 39.593006 21.543 39.287006 24.064 39.304005 24.334 C 39.305004 24.375 39.305004 24.453 39.307003 24.592 L 39.307003 24.752 C 39.311005 25.273 39.316 25.477 39.324 25.582 C 39.324 26.131 39.382 26.683998 39.49 27.224998 C 39.189003 27.832 39.167 28.620998 39.422 29.634998 C 39.434 29.665998 39.463 29.811 39.463 29.812998 C 39.764 31.249 40.062 32.405 40.836 33.008 C 40.988003 33.547 41.155003 34.103 41.42 34.68 C 41.715 35.318 42.025 35.821 42.391003 36.241 C 42.373 36.313 42.259003 36.751 42.259003 36.751 C 42.148003 37.206 41.929 37.604 41.617004 37.903 C 41.266003 38.251 40.743004 38.471 40.086006 38.746 L 40.046005 38.765 C 39.894005 38.826 39.741005 38.89 39.592007 38.958 L 39.382008 39.051 C 38.190006 39.578 36.95701 40.127 35.84501 40.947 C 35.541008 41.175 35.28901 41.524 35.08001 42.004 C 37.64701 44.571 41.72301 45.629 47.76701 45.629 C 53.84201 45.629 57.931007 44.56 60.49401 41.96 C 60.42 41.822 60.348 41.71 60.265 41.624 z " fill-opacity="0.03"/>
<path d="M 47.763 45.626 C 53.606 45.626 57.607 44.633 60.187 42.245 C 60.12 42.107 60.05 41.989 59.966 41.9 C 59.582 41.481 59.116 41.124996 58.643 40.873997 C 57.369 40.130997 56.016 39.473995 54.622997 38.916996 C 53.81 38.590996 53.171 37.94799 52.721996 36.999996 C 52.577995 36.695995 52.487995 36.380997 52.464996 36.101997 C 52.541996 36.025997 52.619995 35.943996 52.692997 35.853996 C 52.934 35.556995 53.150997 35.216995 53.359997 34.809 C 53.674995 34.192997 53.852997 33.584 54.024 32.996 L 54.052 32.885998 C 54.844 32.527996 55.127 31.528996 55.269997 31.025995 L 55.282 30.982998 C 55.309 30.886995 55.345997 30.767998 55.399 30.605995 C 55.55 30.134996 55.755997 29.492996 55.85 28.896996 C 55.996 27.943998 55.765 27.371998 55.489 27.036997 C 55.543 26.754995 55.634 26.269997 55.647 26.191998 C 55.728 25.742998 55.769 25.331997 55.772 24.937998 C 55.773 24.785995 55.779 24.632998 55.784 24.495998 C 55.8 24.162998 55.444 22.010998 55.038 21.126 C 54.696003 20.379 54.184 19.448 53.226 18.894 C 52.550003 18.502998 51.843 18.289 51.161003 18.082 C 51.017 18.04 50.875004 17.995 50.734005 17.950998 C 50.551006 17.891 50.367004 17.830996 50.16301 17.760998 C 49.19101 17.436998 48.186005 17.098995 47.06601 17.098995 C 46.92001 17.098995 46.773006 17.104998 46.62801 17.118998 C 46.102005 17.161997 45.675007 17.317995 45.292007 17.458998 C 45.118008 17.522997 44.95501 17.580996 44.79001 17.617998 C 44.73901 17.617998 44.688007 17.613 44.618008 17.608995 C 44.51001 17.602997 44.404007 17.596998 44.298008 17.596998 C 44.11601 17.596998 43.95001 17.613 43.79501 17.644 C 42.82901 17.832998 42.43201 18.579 42.26101 18.9 C 42.24601 18.932 42.229008 18.964 42.21101 18.998 C 41.32401 19.258 40.92601 19.977 40.68601 20.415998 L 40.633007 20.519 C 39.99801 21.653 39.695007 24.071 39.711006 24.317 C 39.713005 24.364 39.714005 24.463 39.714005 24.589 L 39.714005 24.749998 C 39.716003 25.233995 39.722004 25.485 39.729004 25.562998 C 39.729004 26.142998 39.792004 26.724998 39.915005 27.289995 C 39.602005 27.816998 39.568005 28.555998 39.818005 29.535995 C 39.826004 29.564997 39.859005 29.730995 39.859005 29.730995 C 40.155006 31.148996 40.44801 32.278996 41.190006 32.761997 C 41.348007 33.327995 41.515007 33.914 41.792007 34.51 C 42.104008 35.185 42.43601 35.703 42.83101 36.122997 C 42.81601 36.205 42.78601 36.35 42.72001 36.599 C 42.69601 36.687 42.673008 36.768997 42.652008 36.847 C 42.52601 37.375 42.26701 37.841 41.905006 38.196 C 41.494007 38.598 40.921005 38.84 40.238007 39.127 C 40.077007 39.193 39.914005 39.263 39.758007 39.330997 L 39.548008 39.425 C 38.37301 39.945 37.162006 40.485 36.08701 41.275 C 35.80701 41.482 35.58201 41.822 35.39401 42.296 C 37.97 44.646 41.957 45.626 47.763 45.626 z " fill-opacity="0.05"/>
<path d="M 47.763 45.626 C 53.372 45.626 57.286 44.715 59.870003 42.528 C 59.811005 42.387 59.752003 42.265 59.666004 42.174 C 59.313004 41.793 58.882004 41.46 58.435005 41.227 C 57.178005 40.495003 55.843006 39.844 54.468006 39.294003 C 53.558006 38.931004 52.846004 38.219 52.355007 37.177 C 52.155006 36.757004 52.04701 36.308 52.055008 35.943 C 52.076008 35.917 52.10301 35.889 52.14301 35.853 C 52.222008 35.772 52.30201 35.69 52.375008 35.598 C 52.598007 35.322 52.801006 35.002 52.99701 34.622 C 53.292007 34.039997 53.465008 33.456997 53.62801 32.880997 C 53.66001 32.776997 53.69001 32.672997 53.72101 32.569996 C 54.46101 32.376995 54.737007 31.407995 54.875008 30.915997 L 54.889008 30.868996 C 54.917007 30.761995 54.961006 30.630997 55.01201 30.477997 C 55.15801 30.020994 55.35701 29.395994 55.445007 28.835997 C 55.585007 27.916994 55.350006 27.426994 55.048008 27.165997 C 55.048008 27.165997 55.225006 26.228994 55.24201 26.112995 C 55.32201 25.685995 55.363007 25.300997 55.363007 24.933994 C 55.363007 24.775991 55.368008 24.619995 55.373005 24.470997 C 55.387005 24.222996 55.046005 22.122995 54.666004 21.290997 C 54.35101 20.598995 53.87801 19.737995 53.020004 19.241997 C 52.38501 18.873997 51.704 18.667995 51.039005 18.466995 C 50.896004 18.423996 50.750004 18.381996 50.60801 18.335997 C 50.418007 18.274994 50.228004 18.210997 50.034004 18.144997 C 49.096004 17.828997 48.124004 17.503994 47.067005 17.503994 C 46.932007 17.503994 46.796005 17.507994 46.665005 17.519997 C 46.193005 17.560995 45.79501 17.703997 45.437004 17.834995 C 45.252003 17.901997 45.076004 17.966995 44.908005 18.008995 C 44.880005 18.013994 44.842003 18.018995 44.791004 18.018995 C 44.729004 18.018995 44.66301 18.013996 44.59401 18.008995 C 44.49601 18.003996 44.398006 17.998997 44.299007 17.998997 C 44.146008 17.998997 44.00401 18.010994 43.875008 18.038996 C 43.100006 18.190996 42.777008 18.794996 42.62301 19.083996 C 42.577007 19.172997 42.541008 19.259996 42.51701 19.339996 C 42.49601 19.343996 42.47901 19.345997 42.46401 19.349997 C 41.640007 19.523996 41.28201 20.175997 41.04701 20.606997 L 40.986008 20.709995 C 40.419006 21.735996 40.10201 24.070995 40.11601 24.288998 C 40.118008 24.347998 40.12001 24.489998 40.12201 24.657995 L 40.12201 24.741997 C 40.12601 25.135996 40.12801 25.447996 40.13801 25.556995 C 40.13801 26.163998 40.210007 26.773998 40.355007 27.367998 C 40.35101 27.37 40.348007 27.374 40.34401 27.375998 C 40.015007 27.805998 39.971004 28.476995 40.21201 29.428995 C 40.223007 29.469995 40.237007 29.542995 40.258007 29.641996 C 40.55401 31.038996 40.841007 32.153996 41.535007 32.483997 C 41.551006 32.535995 41.564007 32.588997 41.58001 32.642 C 41.736004 33.196 41.895004 33.765 42.161007 34.331997 C 42.48301 35.032 42.82501 35.546997 43.24101 35.950996 C 43.27401 36.096996 43.161007 36.515995 43.111008 36.698997 C 43.08701 36.786 43.06701 36.861996 43.048008 36.941 C 42.90101 37.540997 42.60301 38.073997 42.18601 38.481 C 41.72101 38.938 41.09301 39.201 40.411007 39.485 C 40.24801 39.557 40.083008 39.626 39.92001 39.697 L 39.713005 39.792004 C 38.55901 40.302 37.368004 40.828003 36.329006 41.598003 C 36.085007 41.777004 35.883007 42.111004 35.718006 42.575005 C 38.3 44.727 42.194 45.626 47.763 45.626 z " fill-opacity="0.1"/>
<path d="M 47.763 45.626 C 53.138 45.626 56.955 44.787 59.538 42.794 C 59.496 42.657997 59.446003 42.536 59.365 42.454 C 59.044003 42.102997 58.648003 41.801 58.230003 41.581997 C 56.992004 40.854996 55.677 40.214996 54.318005 39.673996 C 53.310005 39.271996 52.525005 38.490997 51.988007 37.352997 C 51.744007 36.846996 51.623005 36.303 51.651005 35.853996 C 51.657005 35.770996 51.709003 35.708996 51.852005 35.567 C 51.923004 35.497 51.992004 35.422997 52.056004 35.344997 C 52.26 35.089996 52.451004 34.793 52.633003 34.436996 C 52.913 33.886 53.078003 33.317997 53.237003 32.768997 C 53.295 32.574997 53.349003 32.384 53.407 32.197 C 53.422 32.197 53.433 32.197 53.446003 32.197 C 54.091003 32.197 54.344 31.293 54.481003 30.804 L 54.496 30.759 C 54.528004 30.648 54.572 30.511 54.623 30.353 C 54.767 29.908998 54.961 29.3 55.04 28.773 C 55.16 28.019 55.007 27.543 54.599 27.359 C 54.632 27.162 54.807 26.252 54.843 26.043 C 54.917 25.638 54.953 25.277 54.953 24.935 C 54.954 24.772 54.961 24.61 54.966 24.454 C 54.974 24.3 54.658 22.260998 54.294 21.464 C 54.004 20.825 53.571 20.036 52.815 19.596998 C 52.222 19.253998 51.562 19.054 50.925 18.861998 C 50.774 18.815998 50.626 18.770998 50.486 18.727997 C 50.294 18.664995 50.099 18.600996 49.905 18.534996 C 48.997 18.229996 48.056 17.915997 47.066 17.915997 C 46.942997 17.915997 46.82 17.921995 46.697 17.930996 C 46.277 17.966995 45.924 18.095997 45.579 18.220997 C 45.385 18.292995 45.198 18.361998 45.008 18.409996 C 44.947 18.424995 44.879 18.432997 44.79 18.432997 C 44.718 18.432997 44.643 18.426996 44.568 18.422997 C 44.478 18.416996 44.387 18.412996 44.297 18.412996 C 44.169003 18.412996 44.058 18.422997 43.949 18.441996 C 43.365 18.556995 43.125 19.008995 42.98 19.279997 C 42.913 19.408997 42.883 19.533997 42.861 19.636995 C 42.854 19.663996 42.85 19.694996 42.843 19.720997 C 42.814 19.722996 42.78 19.724997 42.754997 19.726995 C 42.679996 19.732996 42.607 19.740995 42.542995 19.753996 C 41.902996 19.888996 41.623997 20.399996 41.395996 20.810995 L 41.342995 20.913996 C 40.810993 21.865995 40.513996 24.139996 40.519993 24.267996 C 40.524994 24.340996 40.526993 24.529997 40.527992 24.744995 C 40.527992 25.080996 40.532993 25.429996 40.54299 25.560995 C 40.54299 26.214994 40.631992 26.863997 40.803993 27.498997 C 40.752995 27.533997 40.705994 27.579994 40.664993 27.632996 C 40.41999 27.948996 40.39899 28.522997 40.606995 29.336996 C 40.615993 29.378996 40.631996 29.458996 40.654995 29.563995 C 40.991997 31.161997 41.291996 32.069996 41.867996 32.172997 C 41.903996 32.292995 41.935 32.413998 41.969997 32.538 C 42.121 33.072998 42.277996 33.629 42.529 34.168 C 42.835 34.830997 43.157 35.313 43.544 35.686 C 43.754997 35.887 43.608 36.423 43.504997 36.814 C 43.483 36.894 43.46 36.969997 43.442 37.043 C 43.279 37.717 42.941 38.318 42.472996 38.778 C 41.950996 39.289 41.288994 39.568 40.587997 39.863 C 40.418 39.933 40.252 40.004 40.083996 40.078 L 39.876995 40.17 C 38.740993 40.671 37.570995 41.19 36.56599 41.928997 C 36.303993 42.125996 36.12899 42.597996 36.048996 42.847996 C 38.634 44.801 42.434 45.626 47.763 45.626 z " fill-opacity="0.2"/>
<path d="M 47.763 45.626 C 52.902 45.626 56.613 44.858 59.189 43.052 C 59.168 42.921 59.127 42.794 59.067 42.732 C 58.772 42.407997 58.414 42.136 58.026997 41.931 C 56.791996 41.211 55.492996 40.584 54.168995 40.053 C 52.98999 39.583 52.154995 38.662003 51.615993 37.527 C 51.37599 37.019 51.209995 36.391 51.242992 35.83 C 51.263992 35.492 51.54299 35.337 51.740993 35.091003 C 51.946995 34.832005 52.11899 34.548004 52.269993 34.253 C 52.70299 33.409 52.844994 32.498 53.17499 31.624002 C 53.68299 32.246002 54.012993 30.969002 54.10599 30.648005 C 54.310993 29.919004 55.09399 27.943005 54.37899 27.712002 C 54.27399 27.677002 54.18099 27.715002 54.10899 27.795002 C 54.12299 27.621002 54.32399 26.617002 54.44299 25.97 C 54.50599 25.628002 54.54699 25.282 54.54699 24.934002 C 54.54699 24.767002 54.55399 24.601002 54.55899 24.433002 C 54.56099 24.400002 54.27499 22.398005 53.92299 21.634005 C 53.63199 20.993002 53.23599 20.315002 52.60899 19.950005 C 51.92299 19.551004 51.10999 19.352003 50.36299 19.114002 C 49.19599 18.745005 47.97399 18.229002 46.727993 18.335005 C 46.14099 18.385002 45.661995 18.661003 45.104992 18.804005 C 44.74699 18.894005 44.38599 18.772003 44.025993 18.841003 C 43.658993 18.913004 43.50399 19.166004 43.337994 19.471004 C 43.255993 19.625002 43.263992 19.808002 43.181995 19.962002 C 43.078995 20.160002 42.807995 20.112 42.625996 20.150002 C 42.126995 20.256002 41.923996 20.703 41.695995 21.11 C 41.20499 21.992 40.922997 24.193 40.925995 24.245 C 40.935993 24.424002 40.929996 25.304 40.949993 25.559 C 40.949993 26.288 41.067993 27.043 41.311993 27.776 C 40.62899 27.653002 40.920994 28.935 40.998993 29.233002 C 41.087994 29.588 41.541992 32.258003 42.144993 31.694002 C 42.39199 32.467003 42.54999 33.250004 42.895992 33.993004 C 43.12799 34.501003 43.416992 35.000004 43.82199 35.388004 C 44.26699 35.81601 43.96199 36.622005 43.83699 37.137005 C 43.65699 37.868004 43.29799 38.537006 42.75399 39.065006 C 42.04599 39.762005 41.12899 40.053005 40.24499 40.44801 C 39.082993 40.961006 37.83599 41.495007 36.80799 42.257004 C 36.65599 42.368004 36.48399 42.778004 36.39999 43.095005 C 38.974 44.872 42.667 45.626 47.763 45.626 z " fill="#ffffff" fill-opacity="1"/>
<radialGradient cx="559.7227" cy="834.4736" gradientTransform="matrix(1 0 0 1 -511.96 -811.0391)" gradientUnits="userSpaceOnUse" r="14.505">
<stop offset="0" stop-color="#fffff9"/>
<stop offset="0.2121" stop-color="#fffff9"/>
<stop offset="1" stop-color="#adcceb"/>
</radialGradient>
<radialGradient cx="559.6484" cy="848.627" gradientTransform="matrix(1 0 0 1 -511.96 -811.0391)" gradientUnits="userSpaceOnUse" id="SVGID_8_" r="3.7879">
<stop offset="0" stop-color="#000000" stop-opacity="0.5"/>
<stop offset="0.4" stop-color="#000000" stop-opacity="0.5"/>
<stop offset="1" stop-color="#5a5a5a" stop-opacity="0"/>
</radialGradient>
<path d="M 44.051 35.48 C 44.051 35.48 46.277 37.486 47.396 37.486 C 47.396 37.486 47.939 37.52 48.415 37.419 C 48.893 37.316 51.167 35.517 51.167 35.517 C 51.167 35.517 50.276 41.06 47.528 41.049 C 44.684 41.044 44.051 35.48 44.051 35.48 z " fill="url(#SVGID_8_)" fill-opacity="0.3"/>
<path d="M 50.982 34.937 C 50.435997 35.365 48.962997 36.169 48.569 36.254 C 48.09 36.355003 47.548 36.321003 47.548 36.321003 C 46.668 36.321003 44.959 35.532 44.33 35.000004 C 44.455 35.256004 44.479 35.543003 44.453003 35.822 C 45.141003 36.395004 46.568005 37.486004 47.395004 37.486004 C 47.395004 37.486004 47.938004 37.520004 48.414005 37.419003 C 48.78101 37.338 50.199005 36.266003 50.84401 35.769 C 50.836006 35.641003 50.83001 35.517 50.838005 35.399 C 50.848 35.212 50.907 35.065 50.982 34.937 z " fill="#ffffff" fill-opacity="0.05"/>
<path d="M 48.414 36.996 C 47.938 37.097 47.398003 37.060997 47.398003 37.060997 C 46.568 37.060997 44.479004 35.541996 44.453003 35.822 C 45.141003 36.395 46.568005 37.486 47.398003 37.486 C 47.398003 37.486 47.938004 37.52 48.414 37.419 C 48.781 37.337997 50.199 36.266 50.844 35.768997 C 50.836 35.643 48.781 36.916 48.414 36.996 z " fill="#ffffff" fill-opacity="0.1"/>
<path d="M 60.564 71.883 C 60.115997 71.399 59.587997 70.987 59.054 70.704 C 57.741 69.941 56.35 69.266 54.921 68.693 C 54.308 68.450005 53.816 67.941 53.454 67.18701 C 53.408 67.08301 53.369003 66.984 53.339 66.883 C 53.61 66.548004 53.852 66.166 54.085 65.715004 C 54.402 65.091 54.593 64.476006 54.743 63.961 C 55.602 63.365 55.904 62.300003 56.054 61.772003 L 56.065 61.737003 C 56.084003 61.662003 56.112003 61.577003 56.159004 61.432003 L 56.175003 61.380005 C 56.334003 60.888004 56.550003 60.209003 56.651005 59.554005 C 56.812004 58.526005 56.59401 57.826004 56.348003 57.393005 C 56.385 57.206005 56.44 56.912006 56.447 56.872005 C 56.54 56.373005 56.586 55.915005 56.586 55.472004 C 56.586 55.331005 56.591003 55.19 56.595 55.067005 C 56.622 54.540005 56.211 52.262005 55.780003 51.320004 C 55.387 50.463005 54.789 49.390003 53.632004 48.721004 C 52.874004 48.280003 52.122005 48.053005 51.397003 47.833004 L 51.35 47.82 C 51.226 47.783 51.1 47.744 50.977997 47.707 C 50.798996 47.648003 50.621 47.589 50.414997 47.52 C 49.386 47.175 48.317997 46.819 47.066 46.819 C 46.896 46.819 46.728996 46.825 46.558 46.839 C 45.925 46.893 45.417 47.078 45.004997 47.229 C 44.905 47.265 44.802 47.305 44.705997 47.332 L 44.664 47.329 C 44.541996 47.323 44.42 47.315 44.296997 47.315 C 44.062996 47.315 43.845997 47.337 43.635 47.377003 C 42.442 47.613003 41.871 48.456 41.637997 48.875004 C 40.663 49.295 40.199997 50.140003 39.975 50.554005 L 39.917 50.655006 C 39.195 51.954006 38.875 54.569008 38.895 54.89201 C 38.897 54.925007 38.897 54.99601 38.897 55.127007 L 38.897 55.287006 C 38.904 55.842007 38.906 56.035007 38.916 56.11701 C 38.916 56.646008 38.964 57.181007 39.063 57.709007 C 38.773 58.386005 38.762 59.22601 39.026 60.26701 C 39.032 60.292007 39.049 60.384007 39.061 60.431007 C 39.368 61.89201 39.669003 63.07301 40.477 63.77601 C 40.627003 64.30301 40.791 64.82901 41.046 65.38401 C 41.323 65.98101 41.609 66.45901 41.94 66.87201 C 41.905003 67.01801 41.861004 67.18301 41.859 67.18801 C 41.766003 67.56401 41.584 67.89601 41.33 68.14501 C 41.032 68.43601 40.544003 68.64201 39.923 68.903015 L 39.883 68.92201 C 39.729 68.985016 39.573 69.05001 39.426 69.11601 L 39.213997 69.21201 C 37.999996 69.74501 36.747 70.30201 35.601 71.15002 C 35.275 71.391014 35.006996 71.74402 34.783997 72.21302 C 37.326996 75.01402 41.480995 76.16202 47.763996 76.16202 C 54.075996 76.16202 58.24 75.00402 60.779995 72.182014 C 60.706 72.063 60.638 71.961 60.564 71.883 z " fill-opacity="0.02"/>
<path d="M 60.265 72.159 C 59.851 71.70699 59.354 71.325 58.848 71.061 C 57.555 70.306 56.182 69.635994 54.773 69.073 C 54.062 68.792 53.496 68.214 53.091 67.363 C 52.998 67.168 52.928 66.965996 52.897 66.779 C 52.934 66.735 52.971 66.691 53.009 66.646996 C 53.268 66.326 53.497997 65.962 53.723 65.531 C 54.044 64.898994 54.225 64.29 54.396 63.699997 C 55.224 63.215996 55.516 62.183 55.661 61.667995 L 55.672 61.624996 C 55.698 61.543995 55.728 61.442 55.77 61.31 L 55.787 61.262997 C 55.941 60.779995 56.154 60.121 56.25 59.494995 C 56.401 58.50399 56.18 57.86499 55.921 57.473995 C 55.921 57.473995 56.037003 56.858994 56.048 56.799995 C 56.135 56.32299 56.178 55.890995 56.18 55.472996 C 56.18 55.327995 56.185 55.179996 56.19 55.049995 C 56.212 54.617996 55.834 52.417995 55.41 51.491997 C 55.042 50.686996 54.484 49.686996 53.427 49.074997 C 52.712997 48.658997 51.984997 48.437996 51.279 48.225 L 51.236 48.211 C 51.108 48.173 50.981 48.136 50.858 48.097 C 50.676003 48.037 50.493 47.977 50.289 47.909 C 49.29 47.572 48.254 47.224 47.069 47.224 C 46.91 47.224 46.754 47.23 46.596 47.245 C 46.017 47.293 45.559 47.462 45.15 47.607 C 45.015003 47.657997 44.879 47.71 44.751003 47.74 C 44.721004 47.74 44.688004 47.735996 44.646004 47.733997 C 44.533005 47.727997 44.416004 47.721996 44.301003 47.721996 C 44.092003 47.721996 43.903004 47.74 43.717003 47.775997 C 42.608 47.993996 42.125004 48.832996 41.929005 49.194996 C 40.998005 49.539997 40.570004 50.318996 40.335003 50.750996 L 40.276005 50.851997 C 39.593006 52.076996 39.287006 54.597996 39.304005 54.868996 C 39.305004 54.908997 39.305004 54.986996 39.307003 55.125996 L 39.307003 55.285995 C 39.311005 55.806995 39.316 56.01099 39.324 56.115997 C 39.324 56.664997 39.382 57.218 39.49 57.76 C 39.189003 58.366997 39.167 59.156 39.422 60.169 C 39.434 60.202 39.463 60.344997 39.463 60.345997 C 39.764 61.783997 40.062 62.938995 40.836 63.541996 C 40.988003 64.079994 41.155003 64.63699 41.42 65.214 C 41.715 65.852 42.025 66.354996 42.391003 66.773994 C 42.373 66.84899 42.259003 67.286 42.259003 67.286 C 42.148003 67.741 41.929 68.13799 41.617004 68.438 C 41.266003 68.785 40.743004 69.004 40.086006 69.28 L 40.046005 69.298 C 39.894005 69.361 39.741005 69.424995 39.592007 69.491 L 39.382008 69.585 C 38.190006 70.115 36.95701 70.660995 35.84501 71.481 C 35.541008 71.709 35.28901 72.059006 35.08001 72.539 C 37.64701 75.106 41.72301 76.164 47.76701 76.164 C 53.84201 76.164 57.931007 75.095 60.49401 72.494 C 60.42 72.358 60.348 72.246 60.265 72.159 z " fill-opacity="0.03"/>
<path d="M 47.763 76.162 C 53.606 76.162 57.607 75.168 60.187 72.781006 C 60.12 72.643005 60.05 72.524 59.966 72.43701 C 59.582 72.017006 59.116 71.66 58.643 71.41 C 57.369 70.666 56.016 70.008 54.622997 69.452 C 53.81 69.12701 53.171 68.483 52.721996 67.535 C 52.577995 67.233 52.487995 66.916 52.464996 66.638 C 52.541996 66.561 52.619995 66.479004 52.692997 66.388 C 52.934 66.093 53.150997 65.751 53.359997 65.345 C 53.674995 64.728004 53.852997 64.119 54.024 63.531 L 54.052 63.421 C 54.844 63.063 55.127 62.065 55.269997 61.562 L 55.282 61.517 C 55.309 61.423 55.345997 61.303 55.399 61.140003 C 55.55 60.672005 55.755997 60.029003 55.85 59.433 C 55.996 58.479004 55.765 57.906 55.489 57.574 C 55.543 57.289 55.634 56.804 55.647 56.727 C 55.728 56.278 55.769 55.867 55.772 55.474003 C 55.773 55.322 55.779 55.169003 55.784 55.031 C 55.8 54.699 55.444 52.546 55.038 51.661003 C 54.696003 50.915005 54.184 49.984 53.226 49.428 C 52.550003 49.038 51.843 48.824 51.161003 48.617 C 51.017 48.574 50.875004 48.531 50.734005 48.486 C 50.551006 48.426 50.367004 48.366 50.16301 48.297 C 49.19101 47.972 48.186005 47.635 47.06601 47.635 C 46.92001 47.635 46.773006 47.642 46.62801 47.654003 C 46.102005 47.698 45.675007 47.855003 45.292007 47.994003 C 45.118008 48.058 44.95501 48.117004 44.79001 48.152004 C 44.73901 48.152004 44.688007 48.148003 44.618008 48.145004 C 44.51001 48.139004 44.404007 48.132004 44.298008 48.132004 C 44.11601 48.132004 43.95001 48.148003 43.79501 48.178005 C 42.82901 48.368004 42.43201 49.115005 42.26101 49.435005 C 42.24601 49.467007 42.229008 49.499004 42.21101 49.534004 C 41.32401 49.793003 40.92601 50.512005 40.68601 50.951004 L 40.633007 51.053005 C 39.99801 52.188004 39.695007 54.605003 39.711006 54.853004 C 39.713005 54.898003 39.714005 54.999004 39.714005 55.125004 L 39.714005 55.284004 C 39.716003 55.769005 39.722004 56.020004 39.729004 56.097004 C 39.729004 56.678005 39.792004 57.26 39.915005 57.825005 C 39.602005 58.352005 39.568005 59.090004 39.818005 60.07301 C 39.826004 60.100006 39.859005 60.266006 39.859005 60.266006 C 40.155006 61.683006 40.44801 62.813007 41.190006 63.296005 C 41.348007 63.86401 41.515007 64.449005 41.792007 65.046005 C 42.104008 65.72001 42.43601 66.23601 42.83101 66.659004 C 42.81601 66.739006 42.78601 66.886 42.72001 67.136 C 42.69601 67.221 42.673008 67.303 42.652008 67.383 C 42.52601 67.911 42.26701 68.375 41.905006 68.731 C 41.494007 69.134 40.921005 69.375 40.238007 69.661 C 40.077007 69.727005 39.914005 69.79801 39.758007 69.866005 L 39.548008 69.96001 C 38.37301 70.48101 37.162006 71.019005 36.08701 71.811005 C 35.80701 72.018005 35.58201 72.356 35.39401 72.83201 C 37.97 75.182 41.957 76.162 47.763 76.162 z " fill-opacity="0.05"/>
<path d="M 47.763 76.162 C 53.372 76.162 57.286 75.251 59.870003 73.064 C 59.811005 72.92301 59.752003 72.801 59.666004 72.71001 C 59.313004 72.32901 58.882004 71.99701 58.435005 71.76201 C 57.178005 71.032005 55.843006 70.379005 54.468006 69.83001 C 53.558006 69.46701 52.846004 68.75501 52.355007 67.71401 C 52.155006 67.294014 52.04701 66.84401 52.055008 66.47901 C 52.076008 66.45301 52.10301 66.42501 52.14301 66.38801 C 52.222008 66.30801 52.30201 66.228004 52.375008 66.13301 C 52.598007 65.85801 52.801006 65.53801 52.99701 65.15801 C 53.292007 64.57701 53.465008 63.99301 53.62801 63.419018 C 53.66001 63.313015 53.69001 63.209015 53.72101 63.108013 C 54.46101 62.913013 54.737007 61.94401 54.875008 61.45101 L 54.889008 61.407013 C 54.917007 61.300014 54.961006 61.168015 55.01201 61.015015 C 55.15801 60.557014 55.35701 59.932014 55.445007 59.373016 C 55.585007 58.45302 55.350006 57.963017 55.048008 57.70302 C 55.048008 57.70302 55.225006 56.76502 55.24201 56.649017 C 55.32201 56.22202 55.363007 55.837017 55.363007 55.471016 C 55.363007 55.313015 55.368008 55.156017 55.373005 55.008015 C 55.387005 54.759014 55.046005 52.659016 54.666004 51.828014 C 54.35101 51.135017 53.87801 50.274017 53.020004 49.778015 C 52.38501 49.411015 51.704 49.205013 51.039005 49.005016 C 50.896004 48.96002 50.750004 48.918015 50.60801 48.872017 C 50.418007 48.811016 50.228004 48.747017 50.034004 48.68202 C 49.096004 48.365017 48.124004 48.04002 47.067005 48.04002 C 46.932007 48.04002 46.796005 48.04402 46.665005 48.05702 C 46.193005 48.09602 45.79501 48.241016 45.437004 48.371017 C 45.252003 48.43802 45.076004 48.503017 44.908005 48.545017 C 44.880005 48.551018 44.842003 48.555016 44.791004 48.555016 C 44.729004 48.555016 44.66301 48.551018 44.59401 48.545017 C 44.49601 48.541016 44.398006 48.534016 44.299007 48.534016 C 44.146008 48.534016 44.00401 48.548016 43.875008 48.575016 C 43.100006 48.726017 42.777008 49.331017 42.62301 49.619015 C 42.577007 49.710014 42.541008 49.796013 42.51701 49.876015 C 42.49601 49.880016 42.47901 49.882015 42.46401 49.886013 C 41.640007 50.061012 41.28201 50.712013 41.04701 51.144012 L 40.986008 51.246017 C 40.419006 52.272015 40.10201 54.607018 40.11601 54.825012 C 40.118008 54.88401 40.12001 55.026012 40.12201 55.19401 L 40.12201 55.27901 C 40.12601 55.672012 40.12801 55.985012 40.13801 56.09201 C 40.13801 56.70101 40.210007 57.311012 40.355007 57.90301 C 40.35101 57.907013 40.348007 57.91101 40.34401 57.91301 C 40.015007 58.34201 39.971004 59.01401 40.21201 59.96601 C 40.223007 60.005013 40.237007 60.08001 40.258007 60.178013 C 40.55401 61.57601 40.841007 62.690018 41.535007 63.02101 C 41.551006 63.074013 41.564007 63.12501 41.58001 63.179012 C 41.736004 63.732018 41.895004 64.30101 42.161007 64.86901 C 42.48301 65.56901 42.82501 66.08201 43.24101 66.488014 C 43.27401 66.63402 43.161007 67.05302 43.111008 67.235016 C 43.08701 67.321014 43.06701 67.39802 43.048008 67.47801 C 42.90101 68.07701 42.60301 68.610016 42.18601 69.01701 C 41.72101 69.47501 41.09301 69.737015 40.411007 70.02101 C 40.24801 70.09201 40.083008 70.16101 39.92001 70.23501 L 39.71 70.33 C 38.556 70.839005 37.365 71.364 36.326 72.135 C 36.082 72.313 35.88 72.647 35.715 73.113 C 38.3 75.263 42.194 76.162 47.763 76.162 z " fill-opacity="0.1"/>
<path d="M 47.763 76.162 C 53.138 76.162 56.955 75.32201 59.538 73.33 C 59.496 73.193 59.446003 73.071 59.365 72.989 C 59.044003 72.638 58.648003 72.336 58.230003 72.117 C 56.992004 71.391 55.677 70.751 54.318005 70.209 C 53.310005 69.807 52.525005 69.026 51.988007 67.889 C 51.744007 67.383 51.623005 66.837 51.651005 66.388 C 51.657005 66.306 51.709003 66.245 51.852005 66.103 C 51.923004 66.033 51.992004 65.958 52.056004 65.881 C 52.26 65.625 52.451004 65.327995 52.633003 64.972 C 52.913 64.42 53.078003 63.853 53.237003 63.305 C 53.295 63.11 53.349003 62.919 53.407 62.733 C 53.422 62.733 53.433 62.733 53.446003 62.733 C 54.091003 62.733 54.344 61.827003 54.481003 61.34 L 54.496 61.293 C 54.528004 61.183 54.572 61.047 54.623 60.889 C 54.767 60.444 54.961 59.837 55.04 59.309 C 55.16 58.553 55.007 58.079 54.599 57.894997 C 54.632 57.698 54.807 56.786995 54.843 56.577995 C 54.917 56.173996 54.953 55.812996 54.953 55.46899 C 54.954 55.307995 54.961 55.144993 54.966 54.988995 C 54.974 54.834995 54.658 52.795994 54.294 51.998993 C 54.004 51.360992 53.571 50.569992 52.815 50.13299 C 52.222 49.78899 51.562 49.588993 50.925 49.39699 C 50.774 49.35099 50.626 49.30699 50.486 49.262993 C 50.294 49.199993 50.099 49.13599 49.905 49.07099 C 48.997 48.76599 48.056 48.451992 47.066 48.451992 C 46.942997 48.451992 46.82 48.457993 46.697 48.465992 C 46.277 48.50199 45.924 48.631992 45.579 48.755993 C 45.385 48.82799 45.198 48.89699 45.008 48.943993 C 44.947 48.96099 44.879 48.96799 44.79 48.96799 C 44.718 48.96799 44.643 48.96099 44.568 48.957993 C 44.478 48.951992 44.387 48.94799 44.297 48.94799 C 44.169003 48.94799 44.058 48.957993 43.949 48.977993 C 43.365 49.09399 43.125 49.54399 42.98 49.81599 C 42.913 49.943993 42.883 50.069996 42.861 50.171993 C 42.854 50.198994 42.85 50.229992 42.843 50.255993 C 42.814 50.25799 42.78 50.25899 42.754997 50.261993 C 42.679996 50.26799 42.607 50.276993 42.542995 50.289993 C 41.902996 50.423992 41.623997 50.934994 41.395996 51.345993 L 41.342995 51.448994 C 40.810993 52.401993 40.513996 54.675995 40.519993 54.804993 C 40.524994 54.87599 40.526993 55.06399 40.527992 55.27999 C 40.527992 55.61599 40.532993 55.96699 40.54299 56.09499 C 40.54299 56.74999 40.631992 57.40099 40.803993 58.03299 C 40.752995 58.06899 40.705994 58.11499 40.664993 58.167988 C 40.41999 58.48399 40.39899 59.056988 40.606995 59.871983 C 40.615993 59.912987 40.631996 59.993988 40.654995 60.09799 C 40.991997 61.695988 41.291996 62.60399 41.867996 62.70599 C 41.903996 62.82699 41.935 62.94799 41.969997 63.07199 C 42.121 63.60699 42.277996 64.16199 42.529 64.70099 C 42.835 65.36599 43.157 65.84699 43.544 66.21899 C 43.754997 66.42199 43.608 66.955986 43.504997 67.347984 C 43.483 67.427986 43.46 67.50498 43.442 67.57698 C 43.279 68.24998 42.941 68.85098 42.472996 69.31298 C 41.950996 69.82498 41.288994 70.10298 40.587997 70.39698 C 40.418 70.46698 40.252 70.53798 40.083996 70.61198 L 39.876995 70.70398 C 38.740993 71.20598 37.570995 71.72498 36.56599 72.46498 C 36.303993 72.65998 36.12899 73.13198 36.048996 73.38198 C 38.634 75.337 42.434 76.162 47.763 76.162 z " fill-opacity="0.2"/>
<path d="M 47.763 76.162 C 52.902 76.162 56.613 75.391 59.189 73.587006 C 59.168 73.45701 59.127 73.33 59.067 73.26601 C 58.772 72.94401 58.414 72.670006 58.026997 72.46501 C 56.791996 71.747 55.492996 71.12 54.168995 70.588005 C 52.98999 70.12 52.154995 69.19601 51.615993 68.06201 C 51.37599 67.553 51.209995 66.926 51.242992 66.366005 C 51.263992 66.02701 51.54299 65.872 51.740993 65.62601 C 51.946995 65.367004 52.11899 65.08201 52.269993 64.78801 C 52.70299 63.944008 52.844994 63.034008 53.17499 62.16001 C 53.68299 62.782013 54.012993 61.505013 54.10599 61.18301 C 54.310993 60.45401 55.09399 58.478012 54.37899 58.24701 C 54.27399 58.21301 54.18099 58.250008 54.10899 58.33001 C 54.12299 58.15501 54.32399 57.152008 54.44299 56.50501 C 54.50599 56.16301 54.54699 55.81701 54.54699 55.46801 C 54.54699 55.30201 54.55399 55.13501 54.55899 54.96801 C 54.56099 54.93601 54.27499 52.93301 53.92299 52.17001 C 53.63199 51.52901 53.23599 50.85101 52.60899 50.486008 C 51.92299 50.086006 51.10999 49.88701 50.36299 49.64901 C 49.19599 49.28101 47.97399 48.764008 46.727993 48.870007 C 46.14099 48.92001 45.661995 49.196007 45.104992 49.33901 C 44.74699 49.42901 44.38599 49.307007 44.025993 49.377007 C 43.658993 49.449005 43.50399 49.701008 43.337994 50.00601 C 43.255993 50.160007 43.263992 50.34301 43.181995 50.49701 C 43.078995 50.69601 42.807995 50.64701 42.625996 50.68501 C 42.126995 50.791008 41.923996 51.23901 41.695995 51.646008 C 41.20499 52.527008 40.922997 54.72801 40.925995 54.78101 C 40.935993 54.959007 40.929996 55.839005 40.949993 56.09401 C 40.949993 56.82301 41.067993 57.579006 41.311993 58.313007 C 40.62899 58.189007 40.920994 59.472008 40.998993 59.76901 C 41.087994 60.125008 41.541992 62.79501 42.144993 62.230007 C 42.39199 63.002007 42.54999 63.786007 42.895992 64.52901 C 43.12799 65.03601 43.416992 65.53601 43.82199 65.924 C 44.26699 66.352005 43.96199 67.159004 43.83699 67.67301 C 43.65699 68.40401 43.29799 69.074005 42.75399 69.601006 C 42.04599 70.29801 41.12899 70.589005 40.24499 70.98401 C 39.082993 71.49801 37.83599 72.031006 36.80799 72.79301 C 36.65599 72.90501 36.48399 73.31401 36.39999 73.631004 C 38.974 75.407 42.667 76.162 47.763 76.162 z " fill="#ffffff" fill-opacity="1"/>
<radialGradient cx="559.7227" cy="865.0088" gradientTransform="matrix(1 0 0 1 -511.96 -811.0391)" gradientUnits="userSpaceOnUse" r="14.505">
<stop offset="0" stop-color="#fffff9"/>
<stop offset="0.2121" stop-color="#fffff9"/>
<stop offset="1" stop-color="#adcceb"/>
</radialGradient>
<radialGradient cx="559.6484" cy="879.1621" gradientTransform="matrix(1 0 0 1 -511.96 -811.0391)" gradientUnits="userSpaceOnUse" id="SVGID_10_" r="3.7879">
<stop offset="0" stop-color="#000000" stop-opacity="0.5"/>
<stop offset="0.4" stop-color="#000000" stop-opacity="0.5"/>
<stop offset="1" stop-color="#5a5a5a" stop-opacity="0"/>
</radialGradient>
<path d="M 44.051 66.017 C 44.051 66.017 46.277 68.022 47.396 68.022 C 47.396 68.022 47.939 68.05599 48.415 67.954994 C 48.893 67.852 51.167 66.05399 51.167 66.05399 C 51.167 66.05399 50.276 71.59599 47.528 71.58499 C 44.684 71.578 44.051 66.017 44.051 66.017 z " fill="url(#SVGID_10_)" fill-opacity="0.3"/>
<path d="M 50.982 65.473 C 50.435997 65.901 48.962997 66.703 48.569 66.79 C 48.09 66.889 47.548 66.855 47.548 66.855 C 46.668 66.855 44.959 66.067 44.33 65.535 C 44.455 65.79 44.479 66.077 44.453003 66.358 C 45.141003 66.929 46.568005 68.021 47.395004 68.021 C 47.395004 68.021 47.938004 68.055 48.414005 67.954 C 48.78101 67.874 50.199005 66.802 50.84401 66.305 C 50.836006 66.176 50.83001 66.053 50.838005 65.935 C 50.848 65.747 50.907 65.601 50.982 65.473 z " fill="#ffffff" fill-opacity="0.05"/>
<path d="M 48.414 67.532 C 47.938 67.631 47.398003 67.597 47.398003 67.597 C 46.568 67.597 44.479004 66.076 44.453003 66.358 C 45.141003 66.929 46.568005 68.021 47.398003 68.021 C 47.398003 68.021 47.938004 68.055 48.414 67.954 C 48.781 67.874 50.199 66.802 50.844 66.305 C 50.836 66.179 48.781 67.451 48.414 67.532 z " fill="#ffffff" fill-opacity="0.1"/>
<rect fill="none" height="96" width="96"/>
</svg>
