<?xml version="1.0" encoding="UTF-8"?>
<svg xmlns="http://www.w3.org/2000/svg" xmlns:xlink="http://www.w3.org/1999/xlink" baseProfile="tiny" contentScriptType="text/ecmascript" contentStyleType="text/css" height="27px" preserveAspectRatio="xMidYMid meet" version="1.1" viewBox="0 0 27 27" width="27px" x="0px" y="0px" zoomAndPan="magnify">
<rect fill="none" height="31.345" width="36.845" x="-4.698" y="-1.991"/>
<linearGradient gradientTransform="matrix(1 0 0 1 -289.96 -1193.8457)" gradientUnits="userSpaceOnUse" x1="303.4082" x2="303.4082" xlink:actuate="onLoad" xlink:show="other" xlink:type="simple" y1="1219.3506" y2="1195.1533">
<stop offset="0" stop-color="#d0cbc5"/>
<stop offset="1" stop-color="#fcfcf9"/>
</linearGradient>
<path d="M 13.449 1.308 C 6.777001 1.308 1.3510008 6.736 1.3510008 13.405999 C 1.3510008 20.078 6.777001 25.505 13.449 25.505 C 20.118 25.505 25.547 20.078 25.547 13.405999 C 25.547 6.736 20.118 1.308 13.449 1.308 M 4.776 14.818 C 4.621 14.835 4.488 14.839 4.374 14.839 C 3.854 14.839 3.611 14.689 3.244 14.462999 L 3.04 14.352 C 2.907 14.301001 2.814 14.18 2.806 14.039 L 2.795 13.882001 C 2.7840002 13.726001 2.775 13.568001 2.775 13.407001 C 2.775 10.47 3.955 7.7280006 6.096 5.6860003 C 6.163 5.624 6.251 5.59 6.341 5.59 L 6.362 5.59 C 6.459 5.593 6.551 5.6410003 6.613 5.714 C 6.781 5.914 7.137 6.024 7.614 6.024 C 7.855 6.024 8.123 5.993 8.377 5.9420004 C 8.521 5.914 8.661 5.88 8.798 5.847 C 9.198 5.755 9.607 5.659 10.063001 5.659 L 10.156001 5.659 C 10.283001 5.665 13.249001 5.765 13.486001 6.733 C 13.538001 6.939 13.501001 7.143 13.379001 7.319 C 13.019001 7.842 11.950001 8.013 10.793001 8.156 C 10.550001 8.184 10.357001 8.208 10.256001 8.231 C 9.446001 8.437 9.019001 8.975 8.523002 9.595 C 8.208002 9.989 7.883002 10.395 7.4380016 10.741 C 6.9870014 11.093 6.474002 11.177 6.021002 11.247 C 5.7070017 11.299 5.407002 11.349 5.1430016 11.476999 C 4.8790016 11.61 4.7990017 11.716 4.7940016 11.756999 C 4.7700014 11.917999 5.1950016 12.293999 5.4490013 12.519999 C 5.9260015 12.942999 6.4200015 13.380999 6.366001 13.928999 C 6.29 14.672 5.311 14.766 4.776 14.818 M 12.137 17.357 C 12.075 17.496 12.011 17.629 11.956 17.769 C 11.92 17.849 11.92 17.961 11.92 18.087002 C 11.918 18.246002 11.916 18.427002 11.853 18.615002 C 11.711 19.046 11.391999 19.227 11.134 19.374002 C 11.018 19.437002 10.908 19.501003 10.837999 19.573002 C 10.587999 19.819002 10.426999 20.309002 10.301 20.703 L 10.240999 20.88 C 10.202 20.996 10.152999 21.099 10.105999 21.196 C 10.063999 21.28 10.025999 21.36 10.000999 21.45 C 9.983 21.516 9.985999 21.631 9.988 21.743 C 9.988 21.901 9.99 22.08 9.947 22.25 C 9.936 22.293 9.936 22.332 9.934 22.381 C 9.932 22.532 9.925 22.816 9.534 23.006 C 9.406 23.069 9.274 23.101 9.143001 23.101 C 9.129001 23.101 9.058001 23.097 9.042001 23.095 C 9.005001 23.09 8.968 23.081 8.935 23.064 L 8.699 22.950998 C 8.669001 22.933 8.641001 22.915998 8.616 22.894 C 8.352 22.641998 8.257 22.254 8.222 22.039 C 8.123 21.419 7.99 20.566 8.091001 19.9 C 8.110001 19.759 8.136001 19.613 8.162001 19.464 C 8.261001 18.902998 8.362 18.327 8.207001 17.808 C 8.106001 17.466 7.8270006 17.239998 7.5040007 16.974 C 7.1030006 16.646 6.6430006 16.275 6.540001 15.608999 C 6.460001 15.120999 6.577001 14.678999 6.875001 14.329999 C 7.242001 13.899999 7.8650007 13.641999 8.544001 13.641999 C 8.767 13.641999 8.983001 13.669999 9.191001 13.724999 C 9.314001 13.759999 9.456001 13.794 9.604001 13.832 C 10.051001 13.941 10.607001 14.079 11.0910015 14.278999 C 11.454001 14.428 11.733002 14.591999 11.942001 14.782999 C 12.915 15.668 12.483 16.604 12.137 17.357 M 22.873 9.576 C 22.789 9.576 22.707 9.548 22.641 9.492001 C 22.508 9.374001 22.214 9.286 21.974998 9.213 C 21.87 9.181001 21.767998 9.149 21.672 9.116 C 21.429998 9.026 21.211 8.917 20.99 8.811 C 20.886 8.761 20.781 8.708 20.671 8.661 C 20.363 8.516 20.139 8.442 19.965 8.442 C 19.958 8.442 19.952 8.442 19.945 8.444 C 19.945 8.444 19.851 8.529 19.876 9.0390005 C 19.893 9.369 19.975 9.985001 20.361 10.39 C 20.5 10.537001 20.713 10.629001 20.939 10.723001 C 21.195 10.832001 21.488 10.957001 21.71 11.187 C 22.065 11.552 22.06 11.849 22.046 12.193001 L 22.042 12.408001 C 22.037 13.579 21.776 14.262001 21.021 15.113001 C 20.912 15.234001 20.8 15.342001 20.695 15.450001 C 20.447 15.689001 20.23 15.900001 20.025 16.369001 C 20.011 16.398 19.996 16.430002 19.994 16.432001 C 19.573 17.297 18.799 18.231 18.081 18.231 C 17.844 18.231 17.417 18.128 17.193 17.45 C 17.183 17.428 17.179 17.401 17.179 17.379002 L 17.165 17.289 C 17.108 16.793 17.058 16.28 17.256998 15.701001 C 17.281998 15.628001 17.313995 15.542001 17.348995 15.454001 C 17.483995 15.100001 17.669996 14.623001 17.585997 14.352001 C 17.545996 14.221002 17.465996 14.178001 17.235996 14.077002 C 17.105995 14.020001 16.960997 13.954001 16.818996 13.849002 C 16.517996 13.621002 16.353996 13.400002 16.157997 13.119001 C 16.040997 12.963001 15.955997 12.780002 15.871997 12.603002 C 15.766997 12.388001 15.659997 12.167002 15.528996 12.046001 C 15.333997 11.8740015 15.052997 11.739001 14.756996 11.593001 C 14.061996 11.2490015 13.187996 10.824001 13.227996 9.675001 C 13.251996 9.048001 13.886996 8.388001 14.264996 8.049001 C 14.663996 7.691001 15.016995 7.542001 15.467996 7.542001 C 15.613996 7.542001 15.766995 7.559001 15.946996 7.574001 L 16.469995 7.619001 C 16.719995 7.6420007 16.965996 7.666001 17.192995 7.666001 C 17.508995 7.666001 17.711994 7.6160007 17.796995 7.519001 C 17.892996 7.405001 17.882996 7.173001 17.857996 7.002001 C 17.784996 6.527001 17.707996 6.5040007 17.322996 6.383001 C 17.158997 6.329001 16.970997 6.271001 16.763996 6.172001 C 15.982996 5.807001 15.513996 5.491001 15.582996 5.053001 C 15.655996 4.6280007 16.177996 4.515001 16.681995 4.462001 C 16.724995 4.439001 16.791996 4.295001 16.831997 4.2070007 C 16.912994 4.0440006 17.001995 3.8590007 17.165997 3.7050009 L 17.252996 3.6340008 C 17.315994 3.5800009 17.394997 3.5540009 17.476995 3.5540009 C 17.525995 3.5540009 17.570995 3.563001 17.618996 3.582001 C 20.109997 4.644001 22.090996 6.595001 23.196997 9.079001 C 23.263994 9.229001 23.220997 9.410002 23.084995 9.509002 C 23.021 9.552 22.948 9.576 22.873 9.576 " fill="#dedede" fill-opacity="1"/>
</svg>
