<?xml version="1.0" encoding="UTF-8"?>
<svg xmlns="http://www.w3.org/2000/svg" xmlns:xlink="http://www.w3.org/1999/xlink" baseProfile="tiny" contentScriptType="text/ecmascript" contentStyleType="text/css" height="27px" preserveAspectRatio="xMidYMid meet" version="1.1" viewBox="0 0 27 27" width="27px" x="0px" y="0px" zoomAndPan="magnify">
<rect fill="none" height="27" width="27"/>
<linearGradient gradientTransform="matrix(1 0 0 1 -289.96 -1193.8457)" gradientUnits="userSpaceOnUse" x1="303.5713" x2="303.5712" xlink:actuate="onLoad" xlink:show="other" xlink:type="simple" y1="1219.4238" y2="1196.6875">
<stop offset="0" stop-color="#d0cbc5"/>
<stop offset="1" stop-color="#fcfcf9"/>
</linearGradient>
<path d="M 15.541 16.479 C 15.564 16.446 15.594001 16.416 15.623 16.384 L 15.672 16.334002 C 15.492 15.803001 15.029 15.234001 13.768 15.082002 C 11.915999 14.859002 12.073999 13.510002 12.195999 12.827002 C 12.363999 11.885001 12.466999 11.327002 13.261 11.134002 C 13.707 11.025002 15.047 10.852002 15.98 11.220002 C 16.418 11.394002 17.122 11.323002 17.228 10.743002 C 17.343 10.122002 16.929 10.084002 15.930999 9.804002 C 15.028998 9.550002 14.180999 10.3080015 13.450998 10.307002 C 13.124998 10.307002 13.140998 10.030002 13.144999 9.645002 C 13.152999 9.260002 14.561998 8.266003 14.710999 8.155003 C 14.997998 7.936003 15.831999 8.024003 15.849998 8.024003 C 16.773998 8.054003 16.573997 7.428003 15.948998 7.398003 C 14.855998 7.345003 14.937999 6.772003 14.925999 6.6000032 C 14.911999 6.4270034 15.083999 5.9870033 15.925999 5.9670033 C 16.119 5.962003 16.710999 5.9380035 17.145998 5.9540033 C 19.238 7.5120034 20.638998 9.937003 20.809998 12.696003 C 21.118998 12.592003 21.436998 12.506003 21.763998 12.443003 C 21.823996 12.429003 21.940998 12.403003 22.097998 12.380003 C 21.652 7.039003 17.176 2.8420029 11.716998 2.8420029 L 11.715998 2.8420029 C 8.859998 2.8420029 6.272998 3.993003 4.3899975 5.855003 C 4.375 5.868 4.359 5.88 4.345 5.894 C 4.267 5.973 4.197 6.06 4.121 6.14 C 2.3719995 8.004 1.2929997 10.503 1.2929997 13.259 C 1.2929997 13.259 1.2929997 13.259 1.2929997 13.261 L 1.2929997 13.262 C 1.2929997 19.017 5.9589996 23.683 11.713999 23.683 L 11.714999 23.683 C 12.073999 23.683 12.428 23.659998 12.777999 23.621998 C 12.540998 22.579 12.735999 21.639996 12.791999 21.407995 C 13.211 19.227 14.66 17.411 15.541 16.479 z M 9.433 16.908 C 9.23 17.312 8.783 17.466002 8.823 18.208 C 8.888 19.4 7.929 19.307 7.708 20.117 C 7.565 20.64 7.406 21.036 7.315 21.244 C 6.667 20.887 6.071 20.443 5.531 19.945002 C 5.599 19.090002 5.3640003 17.519 5.0820003 17.327002 C 4.189 16.721 4.223 16.896002 4.144 14.517002 C 4.102 13.197002 6.3389997 13.573002 6.821 14.097002 C 7.282 14.599002 7.206 15.329002 8.547 15.892002 C 8.929 16.051 9.635 16.504 9.433 16.908 z M 8.708 6.578 C 8.232 6.748 8.045 6.719 7.719 6.502 C 7.26 6.1949997 6.262 7.012 6.879 7.299 C 7.087001 7.397 7.464 7.429 8.067 7.635 C 9.021 7.965 9.299001 8.533 8.746 8.682 C 5.979 9.43 7.273 10.294001 6.2250004 11.343 C 5.6870003 11.884001 5.7240005 12.1 5.3430004 12.227 C 4.8760004 12.383 4.8010006 11.703 4.3620005 11.684 C 4.2230005 11.676 3.1990004 11.699 2.7400005 11.704 C 3.4310005 7.712001 6.719001 4.5990005 10.801001 4.1910005 C 10.868001 4.2280006 10.911 4.2780004 10.895 4.3620005 C 10.8 4.838 9.186 6.407 8.708 6.578 z M 18.477 12.37 C 17.994 12.736 18.311 13.216 18.789 13.666 C 19.056 13.499001 19.332 13.338 19.627 13.189 C 19.258 12.743 18.934 12.025 18.477 12.37 z M 21.203 16.917 C 21.072 16.917 20.338 16.99 18.853 18.428 C 18.846998 18.436 18.763 18.516 18.742 18.539 C 18.565998 18.978 18.334 19.369 18.180998 19.57 C 18.055998 19.736 17.742 20.105 17.368998 20.38 C 17.247995 20.661 17.230995 20.831 17.230995 20.902 L 17.890997 21.64 C 19.027996 20.796 19.991997 19.73 20.708998 18.501 C 20.974998 18.044 21.202995 17.563 21.399998 17.065 L 21.218 16.915998 C 21.219 16.918 21.211 16.917 21.203 16.917 z M 25.914 15.6 C 25.18 12.526001 21.963 13.370001 21.963 13.370001 C 19.66 13.802001 17.756 15.582001 17.169998 16.183 L 17.165998 16.181 L 16.293 17.056 L 16.296999 17.06 C 15.558999 17.83 14.103999 19.564 13.7179985 21.615 C 13.7179985 21.615 12.873999 24.834 15.948998 25.566 C 16.378998 25.67 16.628998 25.199 16.628998 25.199 L 17.392998 23.152 C 17.636995 22.689 17.312998 22.415 17.312998 22.415 L 16.423998 21.419 C 16.511997 21.494 15.458998 20.568 18.062998 17.881 L 18.062998 17.88 L 18.193998 17.751 L 18.196 17.752 C 20.883 15.147001 21.807 16.197 21.733 16.111 L 22.76 16.965 C 22.76 16.965 23.035 17.288 23.5 17.045 L 25.543 16.28 C 25.543 16.279 26.016 16.031 25.914 15.6 z " fill="#dedede" fill-opacity="1"/>
</svg>
