<?xml version="1.0" encoding="UTF-8"?>
<svg xmlns="http://www.w3.org/2000/svg" xmlns:xlink="http://www.w3.org/1999/xlink" baseProfile="tiny" contentScriptType="text/ecmascript" contentStyleType="text/css" height="27px" preserveAspectRatio="xMidYMid meet" version="1.1" viewBox="0 0 27 27" width="27px" x="0px" y="0px" zoomAndPan="magnify">
<defs/>
<g>
<rect fill="none" height="27" width="27" x="0.294"/>
</g>
<linearGradient gradientTransform="matrix(1 0 0 1 -289.96 -1193.8457)" gradientUnits="userSpaceOnUse" x1="303.46" x2="303.46" xlink:actuate="onLoad" xlink:show="other" xlink:type="simple" y1="1218.5527" y2="1195.5527">
<stop offset="0" stop-color="#d0cbc5"/>
<stop offset="1" stop-color="#fcfcf9"/>
</linearGradient>
<path d="M 3.911187 2.0000017 L 3.911187 2.0449216 C 3.00269 2.2168744 2.294 3.1179817 2.294 4.2011714 L 2.294 22.798828 C 2.294 24.00304 3.233389 25.0 4.382867 25.0 L 23.205132 25.0 C 24.354609 25.0 25.294 24.00304 25.294 22.798828 L 25.294 4.201172 C 25.294 3.0834808 24.548788 2.1522448 23.58697 2.022461 L 23.58697 2.000001 L 3.9111881 2.000001 z M 9.908258 7.570314 L 10.829157 7.570314 L 10.829157 19.429688 L 9.391657 19.429688 L 9.391657 10.198241 C 9.043047 10.530768 8.587353 10.854011 8.02154 11.1865225 C 7.4557176 11.51905 6.9447045 11.783942 6.494196 11.950194 L 6.494196 10.535155 C 7.304035 10.154381 7.999474 9.706736 8.605523 9.165041 C 9.21156 8.623366 9.656182 8.07983 9.908258 7.5703144 z M 17.410212 7.5703144 C 18.541838 7.570328 19.423382 7.9086523 20.083063 8.536135 C 20.742727 9.16364 21.071339 9.944248 21.071344 10.872072 C 21.071339 11.344041 20.994884 11.786326 20.801813 12.24219 C 20.608736 12.698071 20.28382 13.198015 19.835993 13.70215 C 19.388159 14.206299 18.630354 14.888998 17.5899 15.768558 C 16.721058 16.497953 16.174494 16.990868 15.92779 17.25098 C 15.681079 17.511097 15.459776 17.774317 15.298883 18.037111 L 21.093805 18.037111 L 21.093805 19.429691 L 13.29986 19.429691 C 13.28914 19.081081 13.33373 18.740736 13.457087 18.418947 C 13.655522 17.887993 13.985806 17.361555 14.422907 16.846682 C 14.860003 16.33182 15.48369 15.748034 16.309626 15.072268 C 17.591423 14.021085 18.464579 13.193195 18.915094 12.579103 C 19.365599 11.965025 19.588915 11.3742075 19.588923 10.827149 C 19.588915 10.253294 19.39276 9.761394 18.982477 9.367189 C 18.572184 8.973004 18.024956 8.7832155 17.36529 8.783204 C 16.668068 8.7832155 16.121508 8.993793 15.70318 9.41211 C 15.284848 9.830452 15.079664 10.401491 15.074273 11.141603 L 13.569391 10.984377 C 13.67129 9.874203 14.072316 9.02821 14.737359 8.446291 C 15.4023905 7.864398 16.289299 7.570325 17.410212 7.570315 z " fill="#dedede" fill-opacity="1" stroke-opacity="0.3"/>
</svg>
