<?xml version="1.0" encoding="UTF-8"?>
<svg xmlns="http://www.w3.org/2000/svg" xmlns:xlink="http://www.w3.org/1999/xlink" baseProfile="tiny" contentScriptType="text/ecmascript" contentStyleType="text/css" height="27px" preserveAspectRatio="xMidYMid meet" version="1.1" viewBox="15 15 27 27" width="27px" x="0px" y="0px" zoomAndPan="magnify">
<rect fill="none" height="27" width="27" x="15" y="15"/>
<linearGradient gradientTransform="matrix(1 0 0 1 -300.8604 -1001.4453)" gradientUnits="userSpaceOnUse" x1="329.3604" x2="329.3604" xlink:actuate="onLoad" xlink:show="other" xlink:type="simple" y1="1040.6035" y2="1019.7607">
<stop offset="0" stop-color="#d0cbc5"/>
<stop offset="1" stop-color="#fcfcf9"/>
</linearGradient>
<path d="M 28.486 18.316 C 27.296 18.316 26.18 18.542 25.139 18.996 C 24.1 19.448 23.189 20.066 22.408 20.845 C 21.627 21.626 21.012 22.541 20.559002 23.589 C 20.105 24.638 19.878002 25.758 19.878002 26.949 C 19.878002 28.158 20.102003 29.282 20.545002 30.323002 C 20.991 31.362 21.615002 32.27 22.421 33.043003 L 28.486002 39.159004 L 34.579 33.043003 C 35.367 32.271004 35.988003 31.362003 36.443 30.323004 C 36.895 29.282003 37.122 28.158005 37.122 26.949003 C 37.122 25.758003 36.895 24.638002 36.443 23.589005 C 35.988 22.541002 35.372 21.626003 34.591 20.845003 C 33.811 20.066004 32.896 19.448004 31.848 18.996002 C 30.797 18.542 29.679 18.316 28.486 18.316 z M 28.486 31.253 C 27.881 31.253 27.321 31.14 26.801 30.912 C 26.281 30.686 25.827 30.38 25.443 29.994 C 25.056002 29.608002 24.751 29.155 24.524 28.636002 C 24.297 28.115002 24.184 27.553 24.184 26.948002 C 24.184 26.345 24.297 25.782 24.524 25.262 C 24.752 24.741 25.057 24.289 25.443 23.903002 C 25.828 23.516005 26.282 23.21 26.801 22.984 C 27.321 22.757002 27.881 22.644 28.486 22.644 C 29.093 22.644 29.654 22.757002 30.174 22.984 C 30.695 23.211 31.148 23.516 31.534 23.903002 C 31.919 24.289 32.225 24.741 32.452 25.262 C 32.679 25.782 32.791 26.345 32.791 26.948002 C 32.791 27.553 32.679 28.115002 32.452 28.636002 C 32.225 29.157 31.92 29.608002 31.534 29.994 C 31.147 30.379002 30.695 30.687002 30.174 30.912 C 29.654 31.14 29.094 31.253 28.486 31.253 z " fill="#dedede" fill-opacity="1"/>
</svg>
