<?xml version="1.0" encoding="UTF-8"?>
<svg xmlns="http://www.w3.org/2000/svg" xmlns:xlink="http://www.w3.org/1999/xlink" baseProfile="tiny" contentScriptType="text/ecmascript" contentStyleType="text/css" height="27px" preserveAspectRatio="xMidYMid meet" version="1.1" viewBox="0 0 27 27" width="27px" x="0px" y="0px" zoomAndPan="magnify">
<path d="M 23.889 19.39 L 20.135 17.986 C 19.281 17.539 18.777 18.132 18.777 18.132 L 16.887 19.702 C 17.024 19.544 15.323001 21.476 10.384001 16.687 L 10.382001 16.69 L 10.144001 16.452 L 10.144001 16.45 C 5.358001 11.512001 7.291002 9.810001 7.130001 9.948001 L 8.764001 8.119001 C 8.764001 8.119001 9.360001 7.6170015 8.912001 6.7630014 L 7.507001 3.0030017 C 7.507001 3.0030017 7.050001 2.1400015 6.257001 2.3270016 C 0.611001 3.6740017 2.158001 9.587002 2.158001 9.587002 C 2.866001 13.358002 5.542001 16.544003 6.899001 17.960005 L 6.890002 17.966003 L 8.496001 19.573004 L 8.500001 19.569004 C 9.578001 20.673004 13.075001 23.946005 17.31 24.739004 C 17.31 24.739004 23.222002 26.288004 24.568 20.639004 C 24.758 19.847 23.889 19.39 23.889 19.39 z M 23.895 11.707 C 22.936 12.308 21.805 12.660999 20.592 12.660999 C 19.377 12.660999 18.247002 12.308 17.287 11.706999 L 15.767 13.731998 C 15.47 14.1259985 15.632 14.445998 16.123001 14.445998 L 25.054 14.445998 C 25.546 14.445998 25.706 14.1259985 25.411 13.731998 L 23.895 11.707 z M 20.592 11.768 C 23.553 11.768 25.95 9.369 25.95 6.408999 C 25.95 3.449999 23.553 1.0499992 20.592 1.0499992 C 17.633 1.0499992 15.234999 3.449999 15.234999 6.408999 C 15.233 9.368 17.633 11.768 20.592 11.768 z M 20.592 4.176 C 21.825 4.176 22.824 5.176 22.824 6.4090004 C 22.824 7.6420007 21.825 8.642 20.592 8.642 C 19.36 8.642 18.362 7.643 18.362 6.4090004 C 18.36 5.176 19.358 4.176 20.592 4.176 z " fill-opacity="0.15"/>
<linearGradient gradientTransform="translate(-289.96,-1193.8457)" gradientUnits="userSpaceOnUse" x1="303.917" x2="303.917" xlink:actuate="onLoad" xlink:show="other" xlink:type="simple" y1="1218.7793" y2="1194.8955">
<stop offset="0" stop-color="#d0cbc5"/>
<stop offset="1" stop-color="#fcfcf9"/>
</linearGradient>
<path d="M 23.889 19.39 L 20.135 17.986 C 19.281 17.539 18.777 18.132 18.777 18.132 L 16.887 19.702 C 17.024 19.544 15.323001 21.476 10.384001 16.687 L 10.382001 16.69 L 10.144001 16.452 L 10.144001 16.449999 C 5.358001 11.512 7.291002 9.809999 7.130001 9.948 L 8.764001 8.119 C 8.764001 8.119 9.360001 7.617 8.912001 6.763 L 7.507001 3.003 C 7.507001 3.003 7.050001 2.14 6.257001 2.327 C 0.611001 3.6740005 2.158001 9.587001 2.158001 9.587001 C 2.866001 13.358001 5.542001 16.544003 6.899001 17.960005 L 6.890002 17.966003 L 8.496001 19.573004 L 8.500001 19.569004 C 9.578001 20.673004 13.075001 23.946005 17.31 24.739004 C 17.31 24.739004 23.222002 26.288004 24.568 20.639004 C 24.758 19.847 23.889 19.39 23.889 19.39 z M 23.895 11.706999 C 22.936 12.307999 21.805 12.660997 20.592 12.660997 C 19.377 12.660997 18.247002 12.307999 17.287 11.706997 L 15.767 13.731996 C 15.47 14.125997 15.632 14.445995 16.123001 14.445995 L 25.054 14.445995 C 25.546 14.445995 25.706 14.125997 25.411 13.731996 L 23.895 11.707 z M 20.592 11.768 C 23.553 11.768 25.95 9.369 25.95 6.408999 C 25.95 3.4499989 23.553 1.0499988 20.592005 1.0499988 C 17.633003 1.0499988 15.235003 3.4499989 15.235003 6.408999 C 15.233 9.368 17.633 11.768 20.592 11.768 z M 20.592 4.1759996 C 21.825 4.1759996 22.824 5.1759996 22.824 6.4090004 C 22.824 7.6420007 21.825 8.642 20.592 8.642 C 19.36 8.642 18.362 7.643 18.362 6.4090004 C 18.36 5.176 19.358 4.176 20.592 4.176 z " fill="#dedede" fill-opacity="1"/>
<rect fill="none" height="26.793" width="26.794" x="0.05" y="0.157"/>
</svg>
