<?xml version="1.0" encoding="UTF-8"?>
<svg xmlns="http://www.w3.org/2000/svg" xmlns:xlink="http://www.w3.org/1999/xlink" baseProfile="tiny" contentScriptType="text/ecmascript" contentStyleType="text/css" height="27px" preserveAspectRatio="xMidYMid meet" version="1.1" viewBox="0 0 27 27" width="27px" x="0px" y="0px" zoomAndPan="magnify">
<rect fill="none" height="27.333" width="27.333" x="-0.5" y="0.297"/>
<linearGradient gradientTransform="matrix(1 0 0 -1 -289.9199 -1167.6914)" gradientUnits="userSpaceOnUse" x1="303.4707" x2="303.4707" xlink:actuate="onLoad" xlink:show="other" xlink:type="simple" y1="-1193.3584" y2="-1169.3584">
<stop offset="0" stop-color="#d0cbc5"/>
<stop offset="1" stop-color="#fcfcf9"/>
</linearGradient>
<path d="M 25.063 12.933 C 25.063 19.031 23.315 20.599998 20.28 20.599998 C 18.759998 20.599998 17.758 20.316998 17.089 19.366 C 16.109999 19.856 14.387999 20.575 12.946999 20.575 C 10.193998 20.575 8.264998 19.211998 8.264998 14.117999 C 8.264998 9.872 9.266998 7.2469993 13.278998 7.2469993 C 14.206999 7.2469993 15.932999 7.8389993 15.932999 7.8389993 L 15.932999 7.478999 L 18.734 7.478999 L 18.734 12.623999 C 18.734 17.513 19.072 17.897 20.281 17.897 C 21.568 17.897 22.21 17.282 22.21 12.934999 L 22.21 12.471999 C 22.21 6.656999 19.740002 4.3919992 13.849001 4.3919992 C 7.881001 4.3919992 4.8710012 7.3509994 4.8710012 13.627999 C 4.8710012 20.444 7.391001 22.914 13.849001 22.914 C 14.876001 22.914 17.527 22.683 17.527 22.683 L 17.631 25.412 C 17.631 25.412 15.085001 25.668 13.848001 25.668 C 6.2340007 25.668 2.040001 22.917 2.040001 13.629 C 2.040001 5.3199997 6.619001 1.6679993 13.848001 1.6679993 C 21.488 1.6679993 25.064 5.395999 25.064 12.497 L 25.064 12.933 L 25.063 12.933 L 25.063 12.933 z M 16.137 17.15 C 15.980999 16.277 15.929999 15.171 15.929999 13.778999 L 15.929999 10.280999 C 15.929999 10.280999 14.617 9.893999 13.870999 9.893999 C 11.554999 9.893999 11.091999 11.000999 11.091999 14.141999 C 11.091999 17.126 11.965999 17.82 13.150999 17.82 C 14.18 17.818 15.363 17.436 16.137 17.15 z " fill="#dedede" fill-opacity="1"/>
</svg>
