<?xml version="1.0" encoding="UTF-8"?>
<svg xmlns="http://www.w3.org/2000/svg" xmlns:xlink="http://www.w3.org/1999/xlink" baseProfile="tiny" contentScriptType="text/ecmascript" contentStyleType="text/css" height="27px" preserveAspectRatio="xMidYMid meet" version="1.1" viewBox="0 0 27 27" width="27px" x="0px" y="0px" zoomAndPan="magnify">
<linearGradient gradientUnits="userSpaceOnUse" x1="13.4585" x2="13.4585" xlink:actuate="onLoad" xlink:show="other" xlink:type="simple" y1="6" y2="21.0005">
<stop offset="0" stop-color="#fcfcf9"/>
<stop offset="1" stop-color="#d0cbc5"/>
</linearGradient>
<path d="M 3.75 6.0 C 3.318 6.0 2.96875 6.35625 2.96875 6.78125 L 2.96875 20.21875 C 2.96875 20.64375 3.317 21.0 3.75 21.0 L 23.1875 21.0 C 23.6205 21.0 23.96875 20.64575 23.96875 20.21875 L 23.96875 6.78125 C 23.96875 6.35625 23.6195 6.0 23.1875 6.0 L 3.75 6.0 z M 4.46875 7.5 L 22.46875 7.5 L 22.46875 14.0 L 4.46875 14.0 L 4.46875 7.5 z M 15.15625 15.5 L 16.96875 15.5 L 16.96875 17.46875 L 15.15625 17.46875 C 15.041249 17.46875 14.96875 17.365 14.96875 17.25 L 14.96875 15.71875 C 14.96875 15.60375 15.04125 15.5 15.15625 15.5 z M 17.46875 15.5 L 19.46875 15.5 L 19.46875 17.46875 L 17.46875 17.46875 L 17.46875 15.5 z M 19.96875 15.5 L 21.75 15.5 C 21.865 15.5 21.96875 15.60375 21.96875 15.71875 L 21.96875 17.25 C 21.96875 17.365 21.865 17.46875 21.75 17.46875 L 19.96875 17.46875 L 19.96875 15.5 z " fill="#dedede" fill-opacity="1"/>
<linearGradient gradientTransform="matrix(1 0 0 -1 0.04 26.1543)" gradientUnits="userSpaceOnUse" x1="18.4189" x2="18.4189" xlink:actuate="onLoad" xlink:show="other" xlink:type="simple" y1="8.1816" y2="11.1543">
<stop offset="0" stop-color="#a5a5a5"/>
<stop offset="1" stop-color="#ffffff"/>
</linearGradient>
<linearGradient gradientTransform="matrix(1 0 0 1 -125.96 -889.8457)" gradientUnits="userSpaceOnUse" x1="144.4189" x2="144.4189" xlink:actuate="onLoad" xlink:show="other" xlink:type="simple" y1="907.3184" y2="905.3457">
<stop offset="0" stop-color="#ffffff"/>
<stop offset="1" stop-color="#d1d1d1"/>
</linearGradient>
<rect fill="none" height="27" width="27"/>
</svg>
