<?xml version="1.0" encoding="UTF-8"?>
<svg xmlns="http://www.w3.org/2000/svg" xmlns:xlink="http://www.w3.org/1999/xlink" baseProfile="tiny" contentScriptType="text/ecmascript" contentStyleType="text/css" height="96px" preserveAspectRatio="xMidYMid meet" version="1.1" viewBox="0 0 96 96" width="96px" x="0px" y="0px" zoomAndPan="magnify">
<defs>
<linearGradient>
<stop offset="0" stop-color="#ffd758" stop-opacity="1"/>
<stop offset="1" stop-color="#ffcc58" stop-opacity="1"/>
</linearGradient>
<linearGradient gradientUnits="userSpaceOnUse" id="linearGradient3794" x1="49.132042" x2="49.132042" y1="16.476873" y2="87.39315">
<stop offset="0" stop-color="#ffd758" stop-opacity="1"/>
<stop offset="1" stop-color="#ffcc58" stop-opacity="1"/>
</linearGradient>
</defs>
<path d="M 88.0 49.0 C 88.0 78.635 77.639 89.0 48.0 89.0 C 18.365 89.0 8.0 78.635 8.0 49.0 C 8.0 19.367 18.365 9.0 48.0 9.0 C 77.637 9.0 88.0 19.367 88.0 49.0 z " fill-opacity="0.4"/>
<rect fill="none" height="96" width="96"/>
<linearGradient gradientUnits="userSpaceOnUse" x1="47.9995" x2="47.9995" y1="8" y2="24">
<stop offset="0" stop-color="#e4be34"/>
<stop offset="1" stop-color="#e0aa18"/>
</linearGradient>
<path d="M 84.004 24.0 C 78.653 12.49 67.499 8.0 48.0 8.0 C 28.502 8.0 17.348 12.49 11.995998 24.0 L 84.004 24.0 z " fill="#f5ab42" fill-opacity="1"/>
<path d="M 48.0 88.0 C 77.639 88.0 88.0 77.634 88.0 48.0 C 88.0 36.834 86.526 28.406 83.107 22.235 L 46.066 22.235 C 45.579 21.647 44.561 20.369 42.616 17.752 C 41.714 16.537 39.669003 14.500001 36.118 14.500001 L 19.71 14.500001 C 11.361 20.525 8.0 31.142 8.0 48.0 C 8.0 77.634 18.365 88.0 48.0 88.0 z " fill-opacity="0.05"/>
<path d="M 48.0 88.0 C 77.639 88.0 88.0 77.634 88.0 48.0 C 88.0 37.129 86.598 28.86 83.368 22.735 L 45.833 22.735 C 45.406 22.231 44.383 20.967 42.215 18.05 C 41.368 16.911 39.449 15.0 36.118 15.0 L 19.047 15.0 C 11.186 21.105 8.0 31.597 8.0 48.0 C 8.0 77.634 18.365 88.0 48.0 88.0 z " fill-opacity="0.05"/>
<path d="M 48.0 88.0 C 77.639 88.0 88.0 77.634 88.0 48.0 C 88.0 37.421 86.67 29.309 83.622 23.235 L 45.604 23.235 C 45.277 22.862 44.282 21.669 41.814 18.348 C 41.023 17.285 39.232 15.499 36.119 15.499 L 18.423 15.499 C 11.016 21.673 8.0 32.037 8.0 48.0 C 8.0 77.634 18.365 88.0 48.0 88.0 z " fill-opacity="0.1"/>
<linearGradient gradientUnits="userSpaceOnUse" x1="47.9995" x2="47.9995" y1="16" y2="88.0005">
<stop offset="0" stop-color="#e6cd49"/>
<stop offset="1" stop-color="#e0a714"/>
</linearGradient>
<path d="M 48.0 88.0 C 77.639 88.0 88.0 77.634 88.0 48.0 C 88.0 37.712 86.747 29.751 83.876 23.735 L 45.383 23.735 C 45.383 23.735 44.648 23.0 41.412 18.646 C 40.458 17.363 38.765 16.0 36.118 16.0 C 32.899 16.0 24.183 16.0 17.842 16.0 C 10.857 22.227 8.0 32.461 8.0 48.0 C 8.0 77.634 18.365 88.0 48.0 88.0 z " fill="url(#linearGradient3794)" fill-opacity="1"/>
<linearGradient gradientTransform="matrix(1 0 0 1 193.9253 -815.8408)" gradientUnits="userSpaceOnUse" id="SVGID_3_" x1="-145.9253" x2="-145.9253" y1="824.0938" y2="903.3385">
<stop offset="0" stop-color="#ffffff"/>
<stop offset="1" stop-color="#ffffff" stop-opacity="0"/>
</linearGradient>
<path d="M 48.0 8.0 C 18.365 8.0 8.0 18.366 8.0 48.0 C 8.0 77.634 18.365 88.0 48.0 88.0 C 77.639 88.0 88.0 77.634 88.0 48.0 C 88.0 18.365995 77.637 8.0 48.0 8.0 z M 48.0 87.0 C 18.842 87.0 9.0 77.158 9.0 48.0 C 9.0 18.842005 18.842 9.0 48.0 9.0 C 77.158005 9.0 87.0 18.842 87.0 48.0 C 87.0 77.158005 77.158 87.0 48.0 87.0 z " fill="url(#SVGID_3_)" fill-opacity="0.15"/>
<path d="M 65.76578 72.3629 C 65.299774 71.8569 64.73478 71.4279 64.12678 71.1089 C 62.183777 69.9749 60.142776 68.9859 58.052776 68.1499 C 56.202778 67.4119 54.890778 65.9619 54.042778 64.1779 C 53.662777 63.376904 53.399776 62.3889 53.453777 61.5059 C 53.48578 60.9709 53.924778 60.724903 54.233776 60.337902 C 54.559776 59.933903 54.832775 59.483902 55.067776 59.021904 C 55.750774 57.692905 55.973774 56.259903 56.493774 54.885902 C 57.294765 55.864902 57.811775 53.854904 57.955776 53.350903 C 58.281776 52.204903 59.511776 49.092903 58.388775 48.731903 C 58.222775 48.6789 58.075775 48.737904 57.965775 48.864902 C 57.986774 48.591904 58.302776 47.010902 58.489765 45.9929 C 58.586765 45.4539 58.651764 44.9099 58.651764 44.3609 C 58.653763 44.0989 58.662766 43.8359 58.672764 43.572903 C 58.674763 43.522903 58.225765 40.371902 57.673763 39.168907 C 57.215763 38.16591 56.594765 37.092903 55.604763 36.52091 C 54.526764 35.89591 53.247765 35.58091 52.067764 35.20691 C 50.233765 34.62491 48.313763 33.81691 46.352764 33.980907 C 45.430767 34.058907 44.673767 34.494907 43.797768 34.715908 C 43.234768 34.85891 42.67077 34.66591 42.104767 34.77791 C 41.528767 34.890907 41.276768 35.286907 41.020767 35.76891 C 40.889767 36.01291 40.901768 36.29891 40.776768 36.53991 C 40.61577 36.85191 40.18477 36.77691 39.901768 36.83791 C 39.11577 37.00491 38.794765 37.70791 38.436768 38.34691 C 37.66477 39.736908 37.221767 43.196903 37.225765 43.279907 C 37.243774 43.56191 37.231766 44.94391 37.260765 45.347908 C 37.260765 46.493908 37.44677 47.682903 37.83577 48.835907 C 36.75777 48.641907 37.22177 50.66091 37.33977 51.12691 C 37.483772 51.68891 38.19577 55.891907 39.14577 54.99691 C 39.53477 56.21591 39.78477 57.44591 40.32577 58.61791 C 40.690777 59.412907 41.14777 60.19991 41.78577 60.81091 C 42.483772 61.48291 42.004772 62.751907 41.80677 63.56291 C 41.523766 64.712906 40.95377 65.76391 40.10377 66.59791 C 38.98877 67.68991 37.545776 68.15291 36.15877 68.769905 C 34.330772 69.580894 32.363773 70.41991 30.749771 71.615906 C 30.359772 71.90291 29.88977 73.41991 30.05977 73.535904 C 30.80977 74.05691 31.606771 74.51389 32.43077 74.90491 C 36.33877 76.76791 40.787766 77.312904 45.06977 77.48891 C 49.909775 77.68391 54.924774 77.55191 59.632774 76.30691 C 61.444775 75.82791 63.213776 75.160904 64.83276 74.212906 C 65.18977 74.00391 65.54176 73.78091 65.882774 73.54491 C 66.04378 73.43291 65.99777 72.616905 65.76578 72.36291 z " fill="#dc9e0e" fill-opacity="1"/>
</svg>
