<?xml version="1.0" encoding="UTF-8"?>
<svg xmlns="http://www.w3.org/2000/svg" xmlns:xlink="http://www.w3.org/1999/xlink" baseProfile="tiny" contentScriptType="text/ecmascript" contentStyleType="text/css" height="30px" preserveAspectRatio="xMidYMid meet" version="1.1" viewBox="0 0 30 30" width="30px" x="0px" y="0px" zoomAndPan="magnify">
<rect fill="none" height="30" width="30"/>
<path d="M 13.484 15.052 C 12.905001 14.474 12.905001 13.528 13.484 12.949 L 22.829 3.6050005 C 23.407 3.0260005 23.407 2.0800004 22.829 1.5010004 L 21.776001 0.44800043 C 21.196001 -0.13099957 20.25 -0.13099957 19.672 0.44800043 L 7.172001 12.948 C 6.593001 13.526 6.593001 14.472 7.172001 15.051 L 19.672 27.552 C 20.25 28.129 21.196001 28.129 21.776001 27.552 L 22.829 26.501 C 23.407 25.923 23.407 24.973999 22.829 24.395 L 13.484 15.052 z " fill-opacity="0.3" stroke-opacity="0.3"/>
<path d="M 20.724 29.985 C 20.059 29.985 19.434002 29.728 18.966002 29.26 L 6.465 16.759 C 5.996 16.291 5.737 15.666 5.738 15.0 C 5.738 14.334 5.996 13.709 6.466 13.241 L 18.966 0.7410002 C 19.434 0.27200016 20.059 0.014000177 20.725 0.014000177 C 21.390001 0.014000177 22.015 0.27200016 22.484001 0.7410002 L 23.538002 1.7940001 C 24.507002 2.763 24.508001 4.341 23.539001 5.311 L 14.193002 14.655 C 14.068 14.779 14.05 14.925 14.05 15.0 C 14.05 15.075 14.068 15.221 14.191 15.344 L 23.536 24.688 C 24.505999 25.66 24.505999 27.239 23.536 28.209 L 22.481998 29.261 C 22.013 29.729 21.388 29.985 20.724 29.985 L 20.724 29.985 z " fill-opacity="0.15" stroke-opacity="0.15"/>
<path d="M 13.484 16.052 C 12.905001 15.474 12.905001 14.528 13.484 13.949 L 22.829 4.6050005 C 23.407 4.0260005 23.407 3.0800004 22.829 2.5010004 L 21.776001 1.4480004 C 21.196001 0.86900043 20.25 0.86900043 19.672 1.4480004 L 7.172001 13.948 C 6.593001 14.526 6.593001 15.472 7.172001 16.051 L 19.672 28.552002 C 20.25 29.129002 21.196001 29.129002 21.776001 28.552002 L 22.829 27.501001 C 23.407 26.923002 23.407 25.974 22.829 25.395 L 13.484 16.052 z " fill-opacity="0.15" stroke-opacity="0.15"/>
<path d="M 13.484 16.052 C 12.905001 15.474 12.905001 14.528 13.484 13.949 L 22.829 4.6050005 C 23.407 4.0260005 23.407 3.0800004 22.829 2.5010004 L 21.776001 1.4480004 C 21.196001 0.86900043 20.25 0.86900043 19.672 1.4480004 L 7.172001 13.948 C 6.593001 14.526 6.593001 15.472 7.172001 16.051 L 19.672 28.552002 C 20.25 29.129002 21.196001 29.129002 21.776001 28.552002 L 22.829 27.501001 C 23.407 26.923002 23.407 25.974 22.829 25.395 L 13.484 16.052 z " fill="#dedede"/>
<rect fill="none" height="30" width="30"/>
</svg>
