<?xml version="1.0" encoding="UTF-8"?>
<svg xmlns="http://www.w3.org/2000/svg" xmlns:xlink="http://www.w3.org/1999/xlink" baseProfile="tiny" contentScriptType="text/ecmascript" contentStyleType="text/css" height="30px" preserveAspectRatio="xMidYMid meet" version="1.1" viewBox="0 0 30 30" width="30px" x="0px" y="0px" zoomAndPan="magnify">
<path d="M 20.518 15.793 L 16.875 14.017 L 16.875 7.75 C 16.875 7.176 16.41 6.711 15.836 6.711 C 15.262 6.711 14.797001 7.176 14.797001 7.75 L 14.797001 14.68 C 14.797001 15.451 15.419001 15.645 15.419001 15.645 L 19.597 17.683 C 20.118 17.937 20.747 17.720001 21.002 17.199001 C 21.256 16.677 21.039 16.047 20.518 15.793 z " fill-opacity="0.3" stroke-opacity="0.3"/>
<rect fill="none" height="30" width="30"/>
<path d="M 16.277 1.338 C 9.319 1.338 3.6740007 6.9519997 3.6210003 13.899 L 1.427 13.899 C 1.296 13.898 1.1750001 13.966001 1.11 14.081 C 1.0780001 14.1380005 1.062 14.198 1.062 14.2630005 C 1.062 14.328001 1.079 14.389001 1.112 14.4470005 L 4.758 20.677 C 4.822 20.788 4.943 20.858 5.071 20.858 C 5.203 20.86 5.323 20.792 5.389 20.677 L 9.032 14.4470005 C 9.063999 14.389001 9.080999 14.328 9.080999 14.2630005 C 9.080999 14.200001 9.065 14.14 9.032999 14.082001 C 8.967999 13.971001 8.846999 13.899001 8.716999 13.899001 L 6.334 13.899001 C 6.3900003 8.461 10.826 4.0510015 16.277 4.0510015 C 21.763 4.0510015 26.226002 8.514002 26.226002 13.9990015 C 26.226002 19.484001 21.763002 23.947002 16.277 23.947002 C 14.201 23.947002 12.273001 23.304003 10.676001 22.215002 L 10.675 22.215002 C 10.668 22.209002 10.662001 22.207003 10.655 22.201002 C 10.653999 22.201002 10.653999 22.201002 10.653 22.201002 C 10.011 21.670002 9.6119995 22.260002 9.604 22.273003 L 8.803 23.457003 C 8.803 23.459003 8.526 23.932003 8.8880005 24.256002 C 10.968 25.760002 13.5130005 26.662003 16.274 26.662003 C 23.268 26.662003 28.936 20.992002 28.936 13.999002 C 28.936 7.0060024 23.271 1.338 16.277 1.338 z " fill-opacity="0.3" stroke-opacity="0.3"/>
<rect fill="none" height="27.13" width="27.132" x="2.868" y="3.87"/>
<path d="M 16.277 28.662 C 13.41 28.662 10.652 27.766 8.304001 26.066 C 8.276001 26.045 8.249001 26.023 8.223001 26.001 C 7.5810003 25.425999 7.6070004 24.58 7.9190006 23.993 C 7.936001 23.96 7.956001 23.928 7.9770007 23.896 L 8.778001 22.711 C 8.896001 22.5 9.390001 21.978 10.133001 21.978 C 10.403002 21.978 10.810001 22.051 11.242002 22.390001 C 12.735002 23.409 14.476002 23.947 16.277 23.947 C 21.212 23.947 25.226002 19.933 25.226002 14.999001 C 25.226002 10.065001 21.210003 6.0510006 16.277 6.0510006 C 11.736 6.0510006 7.9490004 9.489 7.401 13.899 L 8.716 13.899 C 9.198 13.899 9.65 14.158 9.8949995 14.575 C 10.021 14.802 10.080999 15.026 10.080999 15.263 C 10.080999 15.495999 10.0199995 15.728 9.905 15.934999 L 6.253 22.181 C 6.009 22.598999 5.5579996 22.857 5.0769997 22.857 C 4.587 22.857 4.1349998 22.597 3.8929996 22.177 L 0.2489996 15.951 C 0.1249996 15.737 0.06199959 15.501 0.06199959 15.262 C 0.06199959 15.025 0.12399959 14.791 0.2409996 14.586 C 0.484 14.162 0.937 13.9 1.425 13.9 L 2.666 13.9 C 3.229 6.887 9.14 1.338 16.277 1.338 C 23.810001 1.338 29.937 7.4659996 29.937 14.999001 C 29.938 22.533 23.811 28.662 16.277 28.662 L 16.277 28.662 z " fill-opacity="0.15" stroke-opacity="0.15"/>
<path d="M 16.277 2.338 C 9.319 2.338 3.6740007 7.9519997 3.6210003 14.899 L 1.427 14.899 C 1.296 14.898 1.1750001 14.966001 1.11 15.081 C 1.0780001 15.1380005 1.062 15.198 1.062 15.2630005 C 1.062 15.328001 1.079 15.389001 1.112 15.4470005 L 4.758 21.677 C 4.822 21.788 4.943 21.858 5.071 21.858 C 5.203 21.86 5.323 21.792 5.389 21.677 L 9.032 15.4470005 C 9.063999 15.389001 9.080999 15.328 9.080999 15.2630005 C 9.080999 15.200001 9.065 15.14 9.032999 15.082001 C 8.967999 14.971001 8.846999 14.899001 8.716999 14.899001 L 6.334 14.899001 C 6.3900003 9.461 10.826 5.0510015 16.277 5.0510015 C 21.763 5.0510015 26.226002 9.514002 26.226002 14.9990015 C 26.226002 20.484001 21.763002 24.947002 16.277 24.947002 C 14.201 24.947002 12.273001 24.304003 10.676001 23.215002 L 10.675 23.215002 C 10.668 23.209002 10.662001 23.207003 10.655 23.201002 C 10.653999 23.201002 10.653999 23.201002 10.653 23.201002 C 10.011 22.670002 9.6119995 23.260002 9.604 23.273003 L 8.803 24.457003 C 8.803 24.459003 8.526 24.932003 8.8880005 25.256002 C 10.968 26.760002 13.5130005 27.662003 16.274 27.662003 C 23.268 27.662003 28.936 21.992002 28.936 14.999002 C 28.936 8.006002 23.271 2.338 16.277 2.338 z " fill="#dedede"/>
<rect fill="none" height="30" width="30"/>
<path d="M 20.056 19.789 C 19.747 19.789 19.437 19.717 19.159 19.581 L 15.029 17.566 C 14.532001 17.374 13.798 16.796 13.798 15.679 L 13.798 8.75 C 13.798 7.625 14.713 6.711 15.837 6.711 C 16.961 6.711 17.876 7.626 17.876 8.75 L 17.876 14.392 L 20.956999 15.895 C 21.449 16.134 21.817999 16.551 21.996998 17.07 C 22.175997 17.588999 22.141998 18.144 21.901999 18.636 C 21.559 19.337 20.834 19.789 20.056 19.789 L 20.056 19.789 z " fill-opacity="0.15" stroke-opacity="0.15"/>
<path d="M 20.518 16.793 L 16.875 15.016999 L 16.875 8.75 C 16.875 8.176 16.41 7.711 15.836 7.711 C 15.262 7.711 14.797001 8.176 14.797001 8.75 L 14.797001 15.68 C 14.797001 16.451 15.419001 16.645 15.419001 16.645 L 19.597 18.683 C 20.118 18.937 20.747 18.720001 21.002 18.199001 C 21.256 17.677 21.039 17.047 20.518 16.793 z " fill-opacity="0.15" stroke-opacity="0.15"/>
<path d="M 20.518 16.793 L 16.875 15.016999 L 16.875 8.75 C 16.875 8.176 16.41 7.711 15.836 7.711 C 15.262 7.711 14.797001 8.176 14.797001 8.75 L 14.797001 15.68 C 14.797001 16.451 15.419001 16.645 15.419001 16.645 L 19.597 18.683 C 20.118 18.937 20.747 18.720001 21.002 18.199001 C 21.256 17.677 21.039 17.047 20.518 16.793 z " fill="#dedede"/>
</svg>
