<?xml version="1.0" encoding="UTF-8"?>
<svg xmlns="http://www.w3.org/2000/svg" xmlns:xlink="http://www.w3.org/1999/xlink" baseProfile="tiny" contentScriptType="text/ecmascript" contentStyleType="text/css" height="57px" preserveAspectRatio="xMidYMid meet" version="1.1" viewBox="0 0 67 57" width="67px" x="0px" y="0px" zoomAndPan="magnify">
<rect color="#000000" display="inline" fill="#353535" fill-opacity="0.58823528999999997" fill-rule="nonzero" height="48" ry="8.2174387" stroke="none" visibility="visible" width="48" x="9.5" y="4.5"/>
<path d="M 41.22014 26.808943 L 40.716187 26.808943 L 40.716187 24.838102 C 40.716187 24.253565 40.257786 23.780567 39.691936 23.780567 L 26.22016 23.780567 L 39.597336 20.195683 C 39.86654 20.123852 40.027126 19.847647 39.95413 19.577862 L 39.693104 18.603247 C 39.621273 18.33346 39.3439 18.173458 39.074696 18.246452 L 18.354904 23.799255 C 18.302343 23.808556 18.251545 23.823206 18.20191 23.840126 L 18.11257 23.864077 C 18.002203 23.893856 17.917528 23.962767 17.85271 24.046856 C 17.637234 24.240728 17.500004 24.52161 17.500004 24.83928 L 17.500004 37.408264 C 17.500004 37.992218 17.958406 38.467552 18.524258 38.467552 L 39.690773 38.467552 C 40.256626 38.467552 40.715027 37.992798 40.715027 37.408264 L 40.715027 30.846977 L 41.218975 30.846977 C 41.49752 30.846977 41.72409 30.620989 41.72409 30.341856 L 41.72409 27.314068 C 41.72409 27.03552 41.4981 26.808949 41.220142 26.808949 z M 38.191765 31.350933 C 38.191765 31.630648 37.966946 31.856054 37.687813 31.856054 L 19.519304 31.856054 C 19.240175 31.856054 19.014769 31.630066 19.014769 31.350933 L 19.014769 26.304419 C 19.014769 26.025293 19.240173 25.799883 19.519304 25.799883 L 37.68781 25.799883 C 37.96752 25.799883 38.19176 26.025291 38.19176 26.304419 L 38.19176 31.350933 z M 46.327385 23.426117 L 45.257584 24.496502 C 48.896774 28.137444 48.896774 34.059303 45.257584 37.700245 L 46.327385 38.771214 C 50.557533 34.541065 50.557533 27.656849 46.327385 23.426117 z M 43.804127 26.021788 L 42.73316 27.092752 C 43.80646 28.164307 44.39625 29.586231 44.39625 31.098665 C 44.39625 32.611103 43.80646 34.034195 42.73432 35.10516 L 43.804123 36.176712 C 45.162395 34.819607 45.91044 33.01695 45.91044 31.098663 C 45.911022 29.18155 45.162983 27.378887 43.804123 26.021786 z M 22.547094 26.808949 L 22.04256 26.808949 C 21.763432 26.808949 21.538027 27.034353 21.538027 27.313482 L 21.538027 30.341276 C 21.538027 30.620985 21.764015 30.846394 22.04256 30.846394 L 22.547094 30.846394 C 22.825054 30.846394 23.051628 30.620407 23.051628 30.341276 L 23.051628 27.313482 C 23.051628 27.03552 22.825054 26.808949 22.547094 26.808949 z " fill="#ffffff" fill-opacity="1" stroke-opacity="0.3"/>
<defs>
<linearGradient gradientTransform="matrix(1 0 0 -1 0 57)" gradientUnits="userSpaceOnUse" x1="34.501" x2="34.501" xlink:actuate="onLoad" xlink:show="other" xlink:type="simple" y1="12.1182" y2="47.2974">
<stop offset="0" stop-color="#cbc8c1"/>
<stop offset="0.5031" stop-color="#fafaef"/>
<stop offset="0.9693" stop-color="#ffffff"/>
<stop offset="1" stop-color="#ffffff"/>
</linearGradient>
</defs>
</svg>
