<?xml version="1.0" encoding="UTF-8"?>
<svg xmlns="http://www.w3.org/2000/svg" xmlns:xlink="http://www.w3.org/1999/xlink" baseProfile="tiny" contentScriptType="text/ecmascript" contentStyleType="text/css" height="30px" preserveAspectRatio="xMidYMid meet" version="1.1" viewBox="0 0 30 30" width="30px" x="0px" y="0px" zoomAndPan="magnify">
<path d="M 18.443 28.995 C 16.460001 28.995 14.356001 27.988 12.358001 26.082 C 12.219001 25.949001 12.124001 25.782001 12.079 25.602001 C 11.389 25.862 10.664 26.0 9.952 26.0 C 6.726 26.0 4.0 23.252 4.0 20.0 C 4.0 16.691 6.693 14.0 10.004 14.0 C 13.366 14.0 16.0 16.636 16.0 20.0 C 16.0 21.636 15.389 22.996 14.455 24.006 C 14.49 24.031 14.523 24.060001 14.555 24.09 C 15.675 25.156 16.737 25.744 17.544 25.744 C 17.961 25.744 18.284 25.584 18.562 25.241999 C 19.498001 24.089998 19.62 21.315998 18.887001 17.822998 C 18.825 17.527998 18.900002 17.220999 19.089 16.986998 C 19.279001 16.753998 19.565 16.617998 19.865002 16.617998 L 22.468002 16.617998 C 22.995003 16.617998 23.523003 16.491999 24.036003 16.244999 C 24.174004 16.178999 24.322002 16.144999 24.471003 16.144999 C 24.648003 16.144999 24.825003 16.192 24.981003 16.284998 C 25.269003 16.455997 25.453003 16.759998 25.470003 17.093998 C 25.694004 21.432999 24.712004 24.984997 22.706003 27.096998 C 21.526 28.339 20.053 28.995 18.443 28.995 L 18.443 28.995 z M 20.0 16.0 C 17.534 16.0 15.954 15.617 15.168 14.83 C 14.383 14.045 14.0 12.464 14.0 10.0 C 14.0 7.8929996 14.279 6.4309998 14.853 5.56 C 14.625 5.559 14.399 5.481 14.214 5.327 C 13.134 4.4240003 12.396999 4.234 11.969999 4.234 C 11.556999 4.234 11.228999 4.408 10.934999 4.783 C 10.1779995 5.75 9.636999 8.267 10.603999 12.181 C 10.675999 12.474999 10.612999 12.785 10.428999 13.026999 C 10.244999 13.268999 9.962999 13.412999 9.660999 13.422 C 8.249 13.4609995 6.918999 13.945 5.8129992 14.821 C 5.6329994 14.964 5.413999 15.038 5.1919994 15.038 C 5.0669994 15.038 4.9409995 15.015 4.8209996 14.967 C 4.489 14.834 4.253 14.533 4.2019997 14.179 C 3.569 9.711 4.45 5.595 6.56 3.165 C 7.79 1.7479999 9.35 0.9990001 11.07 0.9990001 C 12.844999 0.9990001 14.671 1.7840002 16.494999 3.332 C 16.775 3.571 16.903 3.945 16.824999 4.3059998 C 16.824 4.312 16.821999 4.318 16.821 4.324 C 17.642 4.106 18.697 4.0 20.0 4.0 C 22.466 4.0 24.046 4.382 24.832 5.168 C 25.618002 5.9540005 26.0 7.534 26.0 10.0 C 26.0 12.464 25.618 14.045 24.833 14.830999 C 24.046 15.618 22.466 16.0 20.0 16.0 L 20.0 16.0 z " fill-opacity="0.15" stroke-opacity="0.15"/>
<path d="M 9.633 11.421 C 7.924 4.502 10.375 -0.188 14.855 3.56 C 15.153 3.35 15.488999 3.198 15.846 3.095 C 9.213 -2.535 3.91 3.993 5.192 13.037 C 6.42 12.063 7.957 11.468 9.633 11.421 z M 15.876 13.124 C 16.448 13.697 17.875 14.0 20.0 14.0 C 22.127 14.0 23.553 13.697 24.125 13.125 C 24.697 12.552 25.0 11.126 25.0 9.0 C 25.0 6.8739996 24.697 5.447 24.125 4.875 C 23.553 4.303 22.127 4.0 20.0 4.0 C 17.875 4.0 16.448 4.303 15.875999 4.875 C 15.304 5.448 15.0 6.874 15.0 9.0 C 15.0 11.125 15.304 12.552 15.876 13.124 z M 22.468 16.618 L 19.865 16.618 C 21.69 25.324001 18.235 27.978 13.865 23.813 C 13.606 24.015999 13.333 24.198 13.049 24.358 C 19.249 30.274 24.963 25.673 24.471 16.145 C 23.861 16.439 23.187 16.618 22.468 16.618 z M 15.0 19.0 C 15.0 16.038 12.632 14.0 10.004 14.0 C 7.375 14.0 5.0 16.164 5.0 19.0 C 5.0 21.835 7.4040003 24.0 9.952 24.0 C 12.504 24.0 15.0 21.962 15.0 19.0 z " fill-opacity="0.3" stroke-opacity="0.3"/>
<path d="M 9.633 12.421 C 7.924 5.502 10.375 0.812 14.855 4.56 C 15.153 4.35 15.488999 4.198 15.846 4.095 C 9.213 -1.535 3.91 4.993 5.192 14.037 C 6.42 13.063 7.957 12.468 9.633 12.421 z M 15.876 14.124 C 16.448 14.697 17.875 15.0 20.0 15.0 C 22.127 15.0 23.553 14.697 24.125 14.125 C 24.697 13.552 25.0 12.126 25.0 10.0 C 25.0 7.8739996 24.697 6.447 24.125 5.875 C 23.553 5.303 22.127 5.0 20.0 5.0 C 17.875 5.0 16.448 5.303 15.875999 5.875 C 15.304 6.448 15.0 7.874 15.0 10.0 C 15.0 12.125 15.304 13.552 15.876 14.124 z M 22.468 17.618 L 19.865 17.618 C 21.69 26.324001 18.235 28.978 13.865 24.813 C 13.606 25.015999 13.333 25.198 13.049 25.358 C 19.249 31.274 24.963 26.673 24.471 17.145 C 23.861 17.439 23.187 17.618 22.468 17.618 z M 15.0 20.0 C 15.0 17.038 12.632 15.0 10.004 15.0 C 7.375 15.0 5.0 17.164 5.0 20.0 C 5.0 22.835 7.4040003 25.0 9.952 25.0 C 12.504 25.0 15.0 22.962 15.0 20.0 z " fill="#dedede"/>
<rect fill="none" height="30" width="30"/>
</svg>
