<?xml version="1.0" encoding="UTF-8"?>
<svg xmlns="http://www.w3.org/2000/svg" xmlns:xlink="http://www.w3.org/1999/xlink" baseProfile="tiny" contentScriptType="text/ecmascript" contentStyleType="text/css" height="30px" preserveAspectRatio="xMidYMid meet" version="1.1" viewBox="0 0 30 30" width="30px" x="0px" y="0px" zoomAndPan="magnify">
<rect fill="none" height="30" width="30"/>
<path d="M 2.6 29.0 C 1.896 29.0 1.198 28.521 0.9389999 27.862 L 0.2679999 26.162 C 0.112 25.768 0.0 25.174 0.0 24.75 L 0.0 5.25 C 0.0 4.825 0.112 4.231 0.269 3.838 L 0.939 2.1360002 C 1.197 1.479 1.896 1.0 2.6 1.0 L 15.4 1.0 C 16.104 1.0 16.802 1.479 17.061 2.138 L 17.731998 3.839 C 17.888 4.231 18.0 4.825 18.0 5.25 L 18.0 24.75 C 18.0 25.174 17.888 25.768 17.732 26.162 L 17.061 27.863 C 16.803 28.521 16.104 29.0 15.4 29.0 L 2.6 29.0 z M 24.269 28.75 C 23.829 28.75 23.401 28.621 23.033 28.379 C 22.530998 28.049 22.186998 27.542 22.065998 26.953 C 21.944998 26.365 22.059998 25.764 22.391 25.262 C 24.405998 22.205 25.471 18.657 25.471 14.999999 C 25.471 11.343999 24.405998 7.794999 22.391 4.737999 C 22.06 4.235999 21.945 3.6349988 22.065998 3.046999 C 22.186998 2.457999 22.530998 1.950999 23.032995 1.620999 C 23.401997 1.377999 23.828997 1.249999 24.268995 1.249999 C 25.027998 1.249999 25.729998 1.6279991 26.147997 2.2609992 C 28.649998 6.056999 29.970997 10.462 29.970997 15.0 C 29.970997 19.538 28.649998 23.943 26.148996 27.738 C 25.73 28.372 25.028 28.75 24.269 28.75 L 24.269 28.75 z M 20.278 24.76 C 19.896 24.76 19.516 24.661 19.181 24.474 C 18.098 23.869 17.709 22.495 18.315 21.411 C 19.41 19.455002 19.988 17.238 19.988 15.000002 C 19.988 12.762002 19.410002 10.545002 18.315 8.588001 C 17.71 7.505001 18.098 6.132001 19.18 5.526001 C 19.516 5.339001 19.895 5.2400007 20.278 5.2400007 C 21.093 5.2400007 21.846 5.6810007 22.243 6.3920007 C 23.712 9.018001 24.488 11.995001 24.488 14.999001 C 24.488 18.004002 23.711998 20.98 22.243 23.607 C 21.847 24.318 21.094 24.76 20.278 24.76 L 20.278 24.76 z " fill-opacity="0.15"/>
<path d="M 25.313 1.812 C 24.932 1.235 24.158 1.077 23.582 1.456 C 23.005 1.836 22.846 2.611 23.226 3.188 C 25.349 6.409 26.471 10.148 26.471 14.0 C 26.471 17.852 25.349 21.591 23.226002 24.813 C 22.846004 25.389 23.005 26.165 23.582005 26.544 C 23.794004 26.683998 24.032003 26.749998 24.269005 26.749998 C 24.675003 26.749998 25.074003 26.552998 25.314005 26.186998 C 27.707005 22.555998 28.971004 18.340998 28.971004 13.998999 C 28.971004 9.657999 27.706003 5.442999 25.313004 1.8119984 z M 21.37 5.88 C 21.033 5.276 20.27 5.064 19.669 5.399 C 19.066 5.736 18.852 6.497 19.189 7.1 C 20.367 9.205999 20.988998 11.592 20.988998 14.0 C 20.988998 16.408 20.367 18.794 19.189 20.899 C 18.852 21.502 19.067 22.263 19.669 22.6 C 19.862 22.708 20.071 22.759 20.277998 22.759 C 20.715998 22.759 21.141 22.529 21.37 22.119 C 22.756 19.641 23.488 16.833002 23.488 13.9990015 C 23.488 11.165001 22.756 8.358002 21.37 5.880001 z " fill-opacity="0.3"/>
<path d="M 25.313 2.812 C 24.932 2.235 24.158 2.077 23.582 2.456 C 23.005 2.836 22.846 3.611 23.226 4.188 C 25.349 7.409001 26.471 11.148001 26.471 15.0 C 26.471 18.852 25.349 22.591 23.226002 25.813 C 22.846004 26.389 23.005 27.165 23.582005 27.544 C 23.794004 27.683998 24.032003 27.749998 24.269005 27.749998 C 24.675003 27.749998 25.074003 27.552998 25.314005 27.186998 C 27.707005 23.555998 28.971004 19.340998 28.971004 14.998999 C 28.971004 10.657999 27.706003 6.442999 25.313004 2.8119984 z M 21.37 6.88 C 21.033 6.276 20.27 6.064 19.669 6.399 C 19.066 6.736 18.852 7.497 19.189 8.1 C 20.367 10.206 20.988998 12.592001 20.988998 15.0 C 20.988998 17.408 20.367 19.794 19.189 21.899 C 18.852 22.502 19.067 23.263 19.669 23.6 C 19.862 23.708 20.071 23.759 20.277998 23.759 C 20.715998 23.759 21.141 23.529 21.37 23.119 C 22.756 20.641 23.488 17.833002 23.488 14.9990015 C 23.488 12.165001 22.756 9.358002 21.37 6.880001 z " fill="#dedede"/>
<path d="M 15.625 1.0 L 2.625 1.0 C 1.380051 1.0 1.139429 3.247144 1.0 4.25 L 1.0 23.75 C 1.0 25.023664 1.391927 27.0 2.625 27.0 L 15.625 27.0 C 16.989733 27.0 17.25 25.003494 17.25 23.75 L 17.25 4.25 C 17.25 3.040951 16.571491 1.0 15.625 1.0 z M 9.849208 25.375 C 9.419045 25.676382 8.7037525 25.676258 8.2734995 25.375 C 8.037404 25.209688 7.9777503 24.850718 7.9777503 24.5625 C 7.9777503 24.274282 8.0374 23.915312 8.2734995 23.75 C 8.7037525 23.448742 9.419045 23.448618 9.849208 23.75 C 10.085207 23.915346 10.144417 24.274343 10.144417 24.5625 C 10.144417 24.850657 10.085207 25.209656 9.849208 25.375 z M 15.625 22.125 L 2.625 22.125 L 2.625 4.25 L 15.625 4.25 z " fill="#989898" fill-opacity="1" stroke-opacity="0.3"/>
<path d="M 15.625 2.0000005 L 2.625 2.0000005 C 1.380051 2.0000005 1.139429 4.2471447 1.0 5.2500005 L 1.0 24.75 C 1.0 26.023664 1.391927 28.0 2.625 28.0 L 15.625 28.0 C 16.989733 28.0 17.25 26.003494 17.25 24.75 L 17.25 5.25 C 17.25 4.040951 16.571491 2.0 15.625 2.0 z M 9.849208 26.375 C 9.419045 26.676382 8.7037525 26.676258 8.2734995 26.375 C 8.037404 26.209688 7.9777503 25.850718 7.9777503 25.5625 C 7.9777503 25.274282 8.0374 24.915312 8.2734995 24.75 C 8.7037525 24.448742 9.419045 24.448618 9.849208 24.75 C 10.085207 24.915346 10.144417 25.274343 10.144417 25.5625 C 10.144417 25.850657 10.085207 26.209656 9.849208 26.375 z M 15.625 23.125 L 2.625 23.125 L 2.625 5.25 L 15.625 5.25 z " fill="#dedede" fill-opacity="1" stroke-opacity="0.3"/>
</svg>
