<?xml version="1.0" encoding="UTF-8"?>
<svg xmlns="http://www.w3.org/2000/svg" xmlns:xlink="http://www.w3.org/1999/xlink" baseProfile="tiny" contentScriptType="text/ecmascript" contentStyleType="text/css" height="30px" preserveAspectRatio="xMidYMid meet" version="1.1" viewBox="0 0 30 30" width="30px" x="0px" y="0px" zoomAndPan="magnify">
<path d="M 21.822 20.612 C 24.363 18.596 26.0 15.488 26.0 12.0 C 26.0 5.935 21.065 1.0 15.0 1.0 C 8.934999 1.0 4.0 5.935 4.0 12.0 C 4.0 15.488 5.637 18.596 8.1779995 20.612 L 4.967 24.99 C 4.272 25.939 4.106 26.942 4.511 27.742 C 4.916 28.541 5.823 29.0 7.0 29.0 L 23.0 29.0 C 24.177 29.0 25.084 28.541 25.489 27.742 C 25.894001 26.942001 25.728 25.939001 25.033 24.989 L 21.822 20.612 z " fill-opacity="0.15" stroke-opacity="0.15"/>
<path d="M 21.605 21.008 C 19.709 22.264 17.439 23.0 15.0 23.0 C 12.561001 23.0 10.291 22.264 8.395 21.008 L 5.774 24.581 C 4.799 25.911 5.35 27.0 7.0 27.0 L 23.0 27.0 C 24.65 27.0 25.201 25.911 24.227 24.581 L 21.605 21.008 z M 15.0 21.0 C 20.522999 21.0 25.0 16.522 25.0 11.0 C 25.0 5.4780006 20.523 1.0 15.0 1.0 C 9.476999 1.0 5.0 5.478 5.0 11.0 C 5.0 16.522 9.477 21.0 15.0 21.0 z M 15.0 7.0 C 17.209 7.0 19.0 8.791 19.0 11.0 C 19.0 13.209 17.209 15.0 15.0 15.0 C 12.791 15.0 11.0 13.209 11.0 11.0 C 11.0 8.791 12.791 7.0 15.0 7.0 z " fill-opacity="0.3" stroke-opacity="0.3"/>
<path d="M 21.605 22.008 C 19.709 23.264 17.439 24.0 15.0 24.0 C 12.561001 24.0 10.291 23.264 8.395 22.008 L 5.774 25.581 C 4.799 26.911 5.35 28.0 7.0 28.0 L 23.0 28.0 C 24.65 28.0 25.201 26.911 24.227 25.581 L 21.605 22.008 z M 15.0 22.0 C 20.522999 22.0 25.0 17.522 25.0 12.0 C 25.0 6.4780006 20.523 2.0 15.0 2.0 C 9.476999 2.0 5.0 6.478 5.0 12.0 C 5.0 17.522 9.477 22.0 15.0 22.0 z M 15.0 8.0 C 17.209 8.0 19.0 9.791 19.0 12.0 C 19.0 14.209 17.209 16.0 15.0 16.0 C 12.791 16.0 11.0 14.209 11.0 12.0 C 11.0 9.791 12.791 8.0 15.0 8.0 z " fill="#dedede"/>
<rect fill="none" height="30" width="30"/>
</svg>
