<?xml version="1.0" encoding="UTF-8"?>
<svg xmlns="http://www.w3.org/2000/svg" xmlns:xlink="http://www.w3.org/1999/xlink" baseProfile="tiny" contentScriptType="text/ecmascript" contentStyleType="text/css" height="200px" preserveAspectRatio="xMidYMid meet" version="1.1" viewBox="0 0 156 200" width="156px" x="0px" y="0px" zoomAndPan="magnify">
<g>
<g>
<linearGradient gradientUnits="userSpaceOnUse" id="SVGID_1_" x1="54.1631" x2="54.1631" xlink:actuate="onLoad" xlink:show="other" xlink:type="simple" y1="99.8604" y2="171.214">
<stop offset="0" stop-color="#50b4fb" stop-opacity="0.5"/>
<stop offset="1" stop-color="#50b4fb"/>
</linearGradient>
<path d="M 47.863 105.771 L 47.863 165.098 C 47.863 170.533 51.045 171.266 54.156 171.266 C 57.275 171.266 60.462997 170.533 60.462997 165.098 L 60.462997 105.77101 C 60.462997 100.33701 57.281 99.60301 54.171997 99.60301 C 51.053 99.603 47.863 100.337 47.863 105.771 L 47.863 105.771 z " fill="url(#SVGID_1_)" fill-opacity="0.05" stroke-opacity="0.05"/>
<g>
<g>
<linearGradient gradientUnits="userSpaceOnUse" id="SVGID_2_" x1="54.1621" x2="54.1621" xlink:actuate="onLoad" xlink:show="other" xlink:type="simple" y1="161.748" y2="97.7829">
<stop offset="0" stop-color="#50b4fb" stop-opacity="0.5"/>
<stop offset="1" stop-color="#50b4fb"/>
</linearGradient>
<path d="M 49.121 105.771 C 49.121 101.76601 50.898 100.86301 54.171997 100.86301 C 57.429996 100.86301 59.202995 101.739006 59.202995 105.771 L 59.202995 165.098 C 59.202995 169.103 57.425995 170.005 54.15599 170.005 C 50.895996 170.005 49.120995 169.129 49.120995 165.098 L 49.120995 105.771 " fill="url(#SVGID_2_)"/>
</g>
<path d="M 49.121 105.771 C 49.121 101.76601 50.898 100.86301 54.171997 100.86301 C 57.429996 100.86301 59.202995 101.739006 59.202995 105.771 L 59.202995 165.098 C 59.202995 169.103 57.425995 170.005 54.15599 170.005 C 50.895996 170.005 49.120995 169.129 49.120995 165.098 L 49.120995 105.771 " fill="#50b4fb"/>
<g>
<path d="M 53.982 102.718 L 54.377 102.718 C 57.898 102.718 58.955 104.134 59.133 106.745 C 59.154 106.450005 59.172 106.151 59.172 105.827 C 59.172 102.630005 58.287003 100.895004 54.377 100.895004 L 53.982 100.895004 C 50.044 100.895004 49.191 102.62601 49.191 105.809006 C 49.191 106.12601 49.206997 106.421005 49.226 106.712006 C 49.406 104.124 50.449 102.718 53.982 102.718 z " fill="#50b4fb" fill-opacity="0.1" stroke-opacity="0.1"/>
<path d="M 53.982 101.809 L 54.377 101.809 C 58.092 101.809 59.063 103.39 59.152 106.286995 C 59.154 106.133 59.172 105.99 59.172 105.828 C 59.172 102.631 58.287003 100.896 54.377 100.896 L 53.982 100.896 C 50.044 100.896 49.191 102.627 49.191 105.81 C 49.191 105.968994 49.203 106.109 49.209 106.260994 C 49.299 103.383 50.248 101.809 53.982 101.809 z " fill-opacity="0.5" stroke-opacity="0.5"/>
</g>
</g>
</g>
<g>
<linearGradient gradientUnits="userSpaceOnUse" id="SVGID_3_" x1="38.2744" x2="38.2744" xlink:actuate="onLoad" xlink:show="other" xlink:type="simple" y1="110.8213" y2="171.222">
<stop offset="0" stop-color="#50b4fb" stop-opacity="0.5"/>
<stop offset="1" stop-color="#50b4fb"/>
</linearGradient>
<path d="M 31.975 116.771 L 31.975 165.098 C 31.975 170.533 35.157 171.266 38.268 171.266 C 41.387 171.266 44.575 170.533 44.575 165.098 L 44.575 116.77101 C 44.575 111.33701 41.393 110.60301 38.284 110.60301 C 35.164 110.603 31.975 111.337 31.975 116.771 L 31.975 116.771 z " fill="url(#SVGID_3_)" fill-opacity="0.05" stroke-opacity="0.05"/>
<g>
<g>
<linearGradient gradientUnits="userSpaceOnUse" id="SVGID_4_" x1="38.2734" x2="38.2734" xlink:actuate="onLoad" xlink:show="other" xlink:type="simple" y1="163.0615" y2="109.2727">
<stop offset="0" stop-color="#50b4fb" stop-opacity="0.5"/>
<stop offset="1" stop-color="#50b4fb"/>
</linearGradient>
<path d="M 33.232 116.771 C 33.232 112.76601 35.009 111.86301 38.282997 111.86301 C 41.540997 111.86301 43.313995 112.739006 43.313995 116.771 L 43.313995 165.098 C 43.313995 169.103 41.536995 170.005 38.26699 170.005 C 35.006996 170.005 33.231995 169.129 33.231995 165.098 L 33.231995 116.771 " fill="url(#SVGID_4_)"/>
</g>
<path d="M 33.232 116.771 C 33.232 112.76601 35.009 111.86301 38.282997 111.86301 C 41.540997 111.86301 43.313995 112.739006 43.313995 116.771 L 43.313995 165.098 C 43.313995 169.103 41.536995 170.005 38.26699 170.005 C 35.006996 170.005 33.231995 169.129 33.231995 165.098 L 33.231995 116.771 " fill="#50b4fb"/>
<g>
<path d="M 38.094 113.718 L 38.489 113.718 C 42.01 113.718 43.067 115.134 43.245003 117.745 C 43.266003 117.450005 43.284004 117.151 43.284004 116.827 C 43.284004 113.630005 42.39901 111.895004 38.48901 111.895004 L 38.09401 111.895004 C 34.15601 111.895004 33.303005 113.62601 33.303005 116.809006 C 33.303005 117.12601 33.319004 117.421005 33.338005 117.712006 C 33.518 115.124 34.561 113.718 38.094 113.718 z " fill="#50b4fb" fill-opacity="0.1" stroke-opacity="0.1"/>
<path d="M 38.094 112.809 L 38.489 112.809 C 42.204 112.809 43.175003 114.39 43.264004 117.286995 C 43.266003 117.133 43.284004 116.99 43.284004 116.828 C 43.284004 113.631 42.39901 111.896 38.48901 111.896 L 38.09401 111.896 C 34.15601 111.896 33.303005 113.627 33.303005 116.81 C 33.303005 116.968994 33.315006 117.109 33.321007 117.260994 C 33.41 114.383 34.359 112.809 38.094 112.809 z " fill-opacity="0.5" stroke-opacity="0.5"/>
</g>
</g>
</g>
<g>
<linearGradient gradientUnits="userSpaceOnUse" id="SVGID_5_" x1="22.3848" x2="22.3848" xlink:actuate="onLoad" xlink:show="other" xlink:type="simple" y1="122.7773" y2="171.23">
<stop offset="0" stop-color="#50b4fb" stop-opacity="0.5"/>
<stop offset="1" stop-color="#50b4fb"/>
</linearGradient>
<path d="M 16.084 128.771 L 16.084 165.09799 C 16.084 170.533 19.268 171.266 22.377 171.266 C 25.498 171.266 28.686 170.533 28.686 165.09799 L 28.686 128.771 C 28.686 123.337 25.502 122.603 22.395 122.603 C 19.275 122.603 16.084 123.337 16.084 128.771 L 16.084 128.771 z " fill="url(#SVGID_5_)" fill-opacity="0.05" stroke-opacity="0.05"/>
<g>
<g>
<linearGradient gradientUnits="userSpaceOnUse" id="SVGID_6_" x1="22.3848" x2="22.3848" xlink:actuate="onLoad" xlink:show="other" xlink:type="simple" y1="164.4941" y2="121.8067">
<stop offset="0" stop-color="#50b4fb" stop-opacity="0.5"/>
<stop offset="1" stop-color="#50b4fb"/>
</linearGradient>
<path d="M 17.344 128.771 C 17.344 124.766 19.121 123.863 22.395 123.863 C 25.653 123.863 27.426 124.739 27.426 128.771 L 27.426 165.09799 C 27.426 169.103 25.649 170.005 22.377 170.005 C 19.117 170.005 17.344002 169.12898 17.344002 165.09799 L 17.344002 128.771 " fill="url(#SVGID_6_)"/>
</g>
<path d="M 17.344 128.771 C 17.344 124.766 19.121 123.863 22.395 123.863 C 25.653 123.863 27.426 124.739 27.426 128.771 L 27.426 165.09799 C 27.426 169.103 25.649 170.005 22.377 170.005 C 19.117 170.005 17.344002 169.12898 17.344002 165.09799 L 17.344002 128.771 " fill="#50b4fb"/>
<g>
<path d="M 22.205 125.718 L 22.6 125.718 C 26.121 125.718 27.178 127.134 27.356 129.745 C 27.377 129.45 27.393002 129.151 27.393002 128.827 C 27.393002 125.63 26.510002 123.895 22.600002 123.895 L 22.205002 123.895 C 18.267002 123.895 17.414 125.626 17.414 128.80899 C 17.414 129.12599 17.430002 129.42099 17.449 129.71199 C 17.629 127.124 18.67 125.718 22.205 125.718 z " fill="#50b4fb" fill-opacity="0.1" stroke-opacity="0.1"/>
<path d="M 22.205 124.809 L 22.6 124.809 C 26.313 124.809 27.286 126.39 27.375 129.287 C 27.377 129.133 27.393 128.99 27.393 128.828 C 27.393 125.631004 26.51 123.896 22.599998 123.896 L 22.204998 123.896 C 18.266998 123.896 17.413998 125.62701 17.413998 128.81 C 17.413998 128.969 17.425997 129.109 17.431995 129.261 C 17.521 126.383 18.471 124.809 22.205 124.809 z " fill-opacity="0.5" stroke-opacity="0.5"/>
</g>
</g>
</g>
<g>
<linearGradient gradientUnits="userSpaceOnUse" id="SVGID_7_" x1="6.4966" x2="6.4966" xlink:actuate="onLoad" xlink:show="other" xlink:type="simple" y1="134.7344" y2="171.2389">
<stop offset="0" stop-color="#50b4fb" stop-opacity="0.5"/>
<stop offset="1" stop-color="#50b4fb"/>
</linearGradient>
<path d="M 0.196 140.771 L 0.196 165.09799 C 0.196 170.533 3.379 171.266 6.4890003 171.266 C 9.609 171.266 12.797001 170.533 12.797001 165.09799 L 12.797001 140.771 C 12.797001 135.33699 9.614 134.603 6.506001 134.603 C 3.387 134.603 0.196 135.337 0.196 140.771 L 0.196 140.771 z " fill="url(#SVGID_7_)" fill-opacity="0.05" stroke-opacity="0.05"/>
<g>
<g>
<linearGradient gradientUnits="userSpaceOnUse" id="SVGID_8_" x1="6.4961" x2="6.4961" xlink:actuate="onLoad" xlink:show="other" xlink:type="simple" y1="165.9277" y2="134.3418">
<stop offset="0" stop-color="#50b4fb" stop-opacity="0.5"/>
<stop offset="1" stop-color="#50b4fb"/>
</linearGradient>
<path d="M 1.455 140.771 C 1.455 136.76599 3.232 135.86299 6.506 135.86299 C 9.764 135.86299 11.537001 136.739 11.537001 140.771 L 11.537001 165.09799 C 11.537001 169.103 9.76 170.005 6.489001 170.005 C 3.2290008 170.005 1.4550009 169.12898 1.4550009 165.09799 L 1.4550009 140.771 " fill="url(#SVGID_8_)"/>
</g>
<path d="M 1.455 140.771 C 1.455 136.76599 3.232 135.86299 6.506 135.86299 C 9.764 135.86299 11.537001 136.739 11.537001 140.771 L 11.537001 165.09799 C 11.537001 169.103 9.76 170.005 6.489001 170.005 C 3.2290008 170.005 1.4550009 169.12898 1.4550009 165.09799 L 1.4550009 140.771 " fill="#50b4fb"/>
<g>
<path d="M 6.316 137.718 L 6.711 137.718 C 10.232 137.718 11.289 139.134 11.467 141.745 C 11.488 141.45 11.505 141.151 11.505 140.827 C 11.505 137.62999 10.621 135.89499 6.711 135.89499 L 6.316 135.89499 C 2.378 135.89499 1.5250001 137.62599 1.5250001 140.80899 C 1.5250001 141.12599 1.5410001 141.42099 1.5600001 141.71199 C 1.74 139.124 2.782 137.718 6.316 137.718 z " fill="#50b4fb" fill-opacity="0.1" stroke-opacity="0.1"/>
<path d="M 6.316 136.809 L 6.711 136.809 C 10.425 136.809 11.396999 138.39 11.486 141.287 C 11.488 141.133 11.505 140.99 11.505 140.828 C 11.505 137.631 10.621 135.896 6.711 135.896 L 6.316 135.896 C 2.378 135.896 1.5250001 137.627 1.5250001 140.81 C 1.5250001 140.969 1.5370001 141.109 1.5430001 141.261 C 1.633 138.383 2.582 136.809 6.316 136.809 z " fill-opacity="0.5" stroke-opacity="0.5"/>
</g>
</g>
</g>
<g>
<linearGradient gradientUnits="userSpaceOnUse" id="SVGID_9_" x1="70.0518" x2="70.0518" xlink:actuate="onLoad" xlink:show="other" xlink:type="simple" y1="89.2075" y2="171.2063">
<stop offset="0" stop-color="#50b4fb" stop-opacity="0.5"/>
<stop offset="1" stop-color="#50b4fb"/>
</linearGradient>
<path d="M 63.752 95.079 L 63.752 165.09799 C 63.752 170.533 66.934 171.266 70.045 171.266 C 73.164 171.266 76.352 170.533 76.352 165.09799 L 76.352 95.079 C 76.352 89.645004 73.17 88.911 70.061 88.911 C 66.941 88.911 63.752 89.646 63.752 95.079 L 63.752 95.079 z " fill="url(#SVGID_9_)" fill-opacity="0.05" stroke-opacity="0.05"/>
<g>
<linearGradient gradientUnits="userSpaceOnUse" id="SVGID_10_" x1="70.0508" x2="70.0508" xlink:actuate="onLoad" xlink:show="other" xlink:type="simple" y1="168.7842" y2="88.9517">
<stop offset="0" stop-color="#50b4fb" stop-opacity="0.5"/>
<stop offset="1" stop-color="#50b4fb"/>
</linearGradient>
<path d="M 65.01 95.079 C 65.01 91.074005 66.787 90.172005 70.061005 90.172005 C 73.31901 90.172005 75.092 91.047005 75.092 95.079 L 75.092 165.09799 C 75.092 169.103 73.315 170.005 70.045006 170.005 C 66.785 170.005 65.01001 169.12898 65.01001 165.09799 L 65.01001 95.079 " fill="url(#SVGID_10_)"/>
<path d="M 65.01 95.079 C 65.01 91.074005 66.787 90.172005 70.061005 90.172005 C 73.31901 90.172005 75.092 91.047005 75.092 95.079 L 75.092 165.09799 C 75.092 169.103 73.315 170.005 70.045006 170.005 C 66.785 170.005 65.01001 169.12898 65.01001 165.09799 L 65.01001 95.079 " fill="#50b4fb"/>
<g>
<path d="M 69.871 92.026 L 70.267006 92.026 C 73.787 92.026 74.84501 93.442 75.021 96.053 C 75.04201 95.758 75.060005 95.459 75.060005 95.135 C 75.060005 91.938 74.177 90.203 70.267006 90.203 L 69.871 90.203 C 65.935005 90.203 65.082 91.934006 65.082 95.117004 C 65.082 95.435005 65.098 95.72901 65.117004 96.020004 C 65.295 93.433 66.338 92.026 69.871 92.026 z " fill="#50b4fb" fill-opacity="0.1" stroke-opacity="0.1"/>
<path d="M 69.871 91.117 L 70.267006 91.117 C 73.98 91.117 74.953 92.698 75.04201 95.59499 C 75.04401 95.440994 75.060005 95.298 75.060005 95.135994 C 75.060005 91.938995 74.177 90.204 70.267006 90.204 L 69.871 90.204 C 65.935005 90.204 65.082 91.935 65.082 95.118 C 65.082 95.27699 65.094 95.417 65.1 95.56899 C 65.188 92.691 66.137 91.117 69.871 91.117 z " fill-opacity="0.5" stroke-opacity="0.5"/>
</g>
</g>
</g>
<g>
<linearGradient gradientUnits="userSpaceOnUse" id="SVGID_11_" x1="85.9414" x2="85.9414" xlink:actuate="onLoad" xlink:show="other" xlink:type="simple" y1="78.5547" y2="171.1986">
<stop offset="0" stop-color="#50b4fb" stop-opacity="0.5"/>
<stop offset="1" stop-color="#50b4fb"/>
</linearGradient>
<path d="M 79.641 84.388 L 79.641 165.09799 C 79.641 170.533 82.825 171.266 85.934 171.266 C 89.055 171.266 92.243 170.533 92.243 165.09799 L 92.243 84.38799 C 92.243 78.954 89.059 78.21999 85.952 78.21999 C 82.832 78.22 79.641 78.954 79.641 84.388 L 79.641 84.388 z " fill="url(#SVGID_11_)" fill-opacity="0.05" stroke-opacity="0.05"/>
<g>
<g>
<linearGradient gradientUnits="userSpaceOnUse" id="SVGID_12_" x1="85.9404" x2="85.9404" xlink:actuate="onLoad" xlink:show="other" xlink:type="simple" y1="164.8018" y2="82.6081">
<stop offset="0" stop-color="#50b4fb" stop-opacity="0.5"/>
<stop offset="1" stop-color="#50b4fb"/>
</linearGradient>
<path d="M 80.9 84.388 C 80.9 80.384 82.675 79.481 85.95101 79.481 C 89.20901 79.481 90.98 80.356 90.98 84.388 L 90.98 165.09799 C 90.98 169.103 89.205 170.005 85.93301 170.005 C 82.67301 170.005 80.90001 169.12898 80.90001 165.09799 L 80.90001 84.388 " fill="url(#SVGID_12_)"/>
</g>
<path d="M 80.9 84.388 C 80.9 80.384 82.675 79.481 85.95101 79.481 C 89.20901 79.481 90.98 80.356 90.98 84.388 L 90.98 165.09799 C 90.98 169.103 89.205 170.005 85.93301 170.005 C 82.67301 170.005 80.90001 169.12898 80.90001 165.09799 L 80.90001 84.388 " fill="#50b4fb"/>
<g>
<path d="M 85.76 81.335 L 86.156006 81.335 C 89.676 81.335 90.73401 82.751 90.912 85.362 C 90.93301 85.067 90.949005 84.768 90.949005 84.444 C 90.949005 81.247 90.066 79.513 86.156006 79.513 L 85.76 79.513 C 81.824005 79.513 80.971 81.24301 80.971 84.426 C 80.971 84.744 80.987 85.038 81.006004 85.329 C 81.184 82.741 82.229 81.335 85.76 81.335 z " fill="#50b4fb" fill-opacity="0.1" stroke-opacity="0.1"/>
<path d="M 85.76 80.426 L 86.156006 80.426 C 89.871 80.426 90.842 82.007 90.93101 84.904 C 90.93301 84.75 90.949005 84.607 90.949005 84.445 C 90.949005 81.248 90.066 79.514 86.156006 79.514 L 85.76 79.514 C 81.824005 79.514 80.971 81.244 80.971 84.427 C 80.971 84.586 80.983 84.726006 80.989 84.878 C 81.078 82.0 82.027 80.426 85.76 80.426 z " fill-opacity="0.5" stroke-opacity="0.5"/>
</g>
</g>
</g>
<g>
<linearGradient gradientUnits="userSpaceOnUse" id="SVGID_13_" x1="101.8301" x2="101.8301" xlink:actuate="onLoad" xlink:show="other" xlink:type="simple" y1="67.9019" y2="171.191">
<stop offset="0" stop-color="#50b4fb" stop-opacity="0.5"/>
<stop offset="1" stop-color="#50b4fb"/>
</linearGradient>
<path d="M 95.529 73.696 L 95.529 165.097 C 95.529 170.532 98.713 171.265 101.822 171.265 C 104.943 171.265 108.131 170.532 108.131 165.097 L 108.131 73.696 C 108.131 68.262 104.947 67.528 101.84 67.528 C 98.721 67.528 95.529 68.263 95.529 73.696 L 95.529 73.696 z " fill="url(#SVGID_13_)" fill-opacity="0.05" stroke-opacity="0.05"/>
<g>
<g>
<linearGradient gradientUnits="userSpaceOnUse" id="SVGID_14_" x1="101.8291" x2="101.8291" xlink:actuate="onLoad" xlink:show="other" xlink:type="simple" y1="164.3223" y2="74.4077">
<stop offset="0" stop-color="#50b4fb" stop-opacity="0.5"/>
<stop offset="1" stop-color="#50b4fb"/>
</linearGradient>
<path d="M 96.789 73.696 C 96.789 69.692 98.564 68.789 101.84001 68.789 C 105.09801 68.789 106.869 69.665 106.869 73.696 L 106.869 165.097 C 106.869 169.102 105.094 170.004 101.82201 170.004 C 98.56201 170.004 96.78901 169.128 96.78901 165.097 L 96.78901 73.696 " fill="url(#SVGID_14_)"/>
</g>
<path d="M 96.789 73.696 C 96.789 69.692 98.564 68.789 101.84001 68.789 C 105.09801 68.789 106.869 69.665 106.869 73.696 L 106.869 165.097 C 106.869 169.102 105.094 170.004 101.82201 170.004 C 98.56201 170.004 96.78901 169.128 96.78901 165.097 L 96.78901 73.696 " fill="#50b4fb"/>
<g>
<path d="M 101.648 70.645 L 102.04401 70.645 C 105.564 70.645 106.62201 72.06 106.8 74.671 C 106.82101 74.376 106.837006 74.077 106.837006 73.753 C 106.837006 70.557 105.954 68.822 102.04401 68.822 L 101.648 68.822 C 97.712006 68.822 96.859 70.552 96.859 73.736 C 96.859 74.053 96.875 74.347 96.894005 74.638 C 97.072 72.05 98.117 70.645 101.648 70.645 z " fill="#50b4fb" fill-opacity="0.1" stroke-opacity="0.1"/>
<path d="M 101.648 69.734 L 102.04401 69.734 C 105.759 69.734 106.73 71.315 106.81901 74.212 C 106.82101 74.058 106.837006 73.915 106.837006 73.753 C 106.837006 70.557 105.954 68.822 102.04401 68.822 L 101.648 68.822 C 97.712006 68.822 96.859 70.552 96.859 73.736 C 96.859 73.894 96.871 74.034 96.877 74.186 C 96.967 71.309 97.916 69.734 101.648 69.734 z " fill-opacity="0.5" stroke-opacity="0.5"/>
</g>
</g>
</g>
<g>
<linearGradient gradientUnits="userSpaceOnUse" id="SVGID_15_" x1="117.7188" x2="117.7187" xlink:actuate="onLoad" xlink:show="other" xlink:type="simple" y1="56.2524" y2="171.1824">
<stop offset="0" stop-color="#50b4fb" stop-opacity="0.5"/>
<stop offset="1" stop-color="#50b4fb"/>
</linearGradient>
<path d="M 111.418 62.005 L 111.418 165.098 C 111.418 170.533 114.601 171.266 117.711 171.266 C 120.831 171.266 124.019 170.533 124.019 165.098 L 124.019 62.005 C 124.019 56.571 120.836 55.837 117.728 55.837 C 114.608 55.837 111.418 56.571 111.418 62.005 L 111.418 62.005 z " fill="url(#SVGID_15_)" fill-opacity="0.05" stroke-opacity="0.05"/>
<g>
<g>
<linearGradient gradientUnits="userSpaceOnUse" id="SVGID_16_" x1="117.7178" x2="117.7178" xlink:actuate="onLoad" xlink:show="other" xlink:type="simple" y1="164.5186" y2="54.7126">
<stop offset="0" stop-color="#50b4fb" stop-opacity="0.5"/>
<stop offset="1" stop-color="#50b4fb"/>
</linearGradient>
<path d="M 112.678 62.005 C 112.678 58.001 114.453 57.098 117.728004 57.098 C 120.98601 57.098 122.758 57.974 122.758 62.005 L 122.758 165.098 C 122.758 169.103 120.983 170.005 117.711006 170.005 C 114.45101 170.005 112.67801 169.129 112.67801 165.098 L 112.67801 62.005 " fill="url(#SVGID_16_)"/>
</g>
<path d="M 112.678 62.005 C 112.678 58.001 114.453 57.098 117.728004 57.098 C 120.98601 57.098 122.758 57.974 122.758 62.005 L 122.758 165.098 C 122.758 169.103 120.983 170.005 117.711006 170.005 C 114.45101 170.005 112.67801 169.129 112.67801 165.098 L 112.67801 62.005 " fill="#50b4fb"/>
<g>
<path d="M 117.537 58.953 L 117.93301 58.953 C 121.45401 58.953 122.51201 60.368 122.688 62.979 C 122.71001 62.685 122.727005 62.385 122.727005 62.061 C 122.727005 58.865 121.844 57.13 117.93301 57.13 L 117.537 57.13 C 113.601006 57.13 112.747 58.86 112.747 62.044003 C 112.747 62.361004 112.764 62.655003 112.782005 62.947 C 112.961 60.358 114.004 58.953 117.537 58.953 z " fill="#50b4fb" fill-opacity="0.1" stroke-opacity="0.1"/>
<path d="M 117.537 58.043 L 117.93301 58.043 C 121.647 58.043 122.619 59.624 122.70901 62.521 C 122.711006 62.367 122.727005 62.224 122.727005 62.062 C 122.727005 58.866 121.844 57.131 117.93301 57.131 L 117.537 57.131 C 113.601006 57.131 112.747 58.861 112.747 62.045 C 112.747 62.203003 112.76 62.343 112.766 62.495003 C 112.854 59.617 113.804 58.043 117.537 58.043 z " fill-opacity="0.5" stroke-opacity="0.5"/>
</g>
</g>
</g>
<g>
<linearGradient gradientUnits="userSpaceOnUse" id="SVGID_17_" x1="133.6074" x2="133.6074" xlink:actuate="onLoad" xlink:show="other" xlink:type="simple" y1="170.8115" y2="45.2374">
<stop offset="0" stop-color="#50b4fb" stop-opacity="0.5"/>
<stop offset="1" stop-color="#50b4fb"/>
</linearGradient>
<path d="M 127.307 51.313 L 127.307 165.097 C 127.307 170.532 130.491 171.265 133.602 171.265 C 136.72101 171.265 139.90901 170.532 139.90901 165.097 L 139.90901 51.313 C 139.90901 45.879 136.727 45.145 133.61801 45.145 C 130.498 45.146 127.307 45.88 127.307 51.313 L 127.307 51.313 z " fill="url(#SVGID_17_)" fill-opacity="0.05" stroke-opacity="0.05"/>
<g>
<g>
<linearGradient gradientUnits="userSpaceOnUse" id="SVGID_18_" x1="133.6074" x2="133.6074" xlink:actuate="onLoad" xlink:show="other" xlink:type="simple" y1="164.7119" y2="60.8889">
<stop offset="0" stop-color="#50b4fb" stop-opacity="0.5"/>
<stop offset="1" stop-color="#50b4fb"/>
</linearGradient>
<path d="M 128.566 51.313 C 128.566 47.309 130.34299 46.406 133.61699 46.406 C 136.87498 46.406 138.648 47.282 138.648 51.313 L 138.648 165.097 C 138.648 169.102 136.871 170.004 133.601 170.004 C 130.341 170.004 128.566 169.128 128.566 165.097 L 128.566 51.313 " fill="url(#SVGID_18_)"/>
</g>
<path d="M 128.566 51.313 C 128.566 47.309 130.34299 46.406 133.61699 46.406 C 136.87498 46.406 138.648 47.282 138.648 51.313 L 138.648 165.097 C 138.648 169.102 136.871 170.004 133.601 170.004 C 130.341 170.004 128.566 169.128 128.566 165.097 L 128.566 51.313 " fill="#50b4fb"/>
<g>
<path d="M 133.428 48.262 L 133.823 48.262 C 137.344 48.262 138.403 49.677 138.579 52.288 C 138.59999 51.994003 138.618 51.694 138.618 51.370003 C 138.618 48.174004 137.735 46.439003 133.823 46.439003 L 133.428 46.439003 C 129.49199 46.439003 128.637 48.169003 128.637 51.353004 C 128.637 51.67001 128.653 51.964005 128.672 52.256004 C 128.852 49.667 129.895 48.262 133.428 48.262 z " fill="#50b4fb" fill-opacity="0.1" stroke-opacity="0.1"/>
<path d="M 133.428 47.352 L 133.823 47.352 C 137.538 47.352 138.509 48.933 138.59999 51.83 C 138.60199 51.676003 138.618 51.533 138.618 51.371 C 138.618 48.175003 137.735 46.44 133.823 46.44 L 133.428 46.44 C 129.49199 46.44 128.637 48.17 128.637 51.354004 C 128.637 51.512005 128.651 51.652004 128.657 51.805004 C 128.744 48.926 129.693 47.352 133.428 47.352 z " fill-opacity="0.5" stroke-opacity="0.5"/>
</g>
</g>
</g>
<g>
<linearGradient gradientUnits="userSpaceOnUse" id="SVGID_19_" x1="149.4961" x2="149.4961" xlink:actuate="onLoad" xlink:show="other" xlink:type="simple" y1="34.9463" y2="171.1666">
<stop offset="0" stop-color="#50b4fb" stop-opacity="0.5"/>
<stop offset="1" stop-color="#50b4fb"/>
</linearGradient>
<path d="M 143.195 40.622 L 143.195 165.09799 C 143.195 170.533 146.378 171.266 149.48901 171.266 C 152.60802 171.266 155.79701 170.533 155.79701 165.09799 L 155.79701 40.622 C 155.79701 35.188004 152.613 34.454 149.50601 34.454 C 146.387 34.454 143.195 35.188 143.195 40.622 L 143.195 40.622 z " fill="url(#SVGID_19_)" fill-opacity="0.05" stroke-opacity="0.05"/>
<g>
<g>
<linearGradient gradientUnits="userSpaceOnUse" id="SVGID_20_" x1="149.4951" x2="149.4951" xlink:actuate="onLoad" xlink:show="other" xlink:type="simple" y1="161.3867" y2="36.9213">
<stop offset="0" stop-color="#50b4fb" stop-opacity="0.5"/>
<stop offset="1" stop-color="#50b4fb"/>
</linearGradient>
<path d="M 144.454 40.622 C 144.454 36.618 146.23099 35.715 149.506 35.715 C 152.763 35.715 154.536 36.591 154.536 40.622 L 154.536 165.09799 C 154.536 169.103 152.76 170.005 149.489 170.005 C 146.229 170.005 144.454 169.12898 144.454 165.09799 L 144.454 40.622 " fill="url(#SVGID_20_)"/>
</g>
<path d="M 144.454 40.622 C 144.454 36.618 146.23099 35.715 149.506 35.715 C 152.763 35.715 154.536 36.591 154.536 40.622 L 154.536 165.09799 C 154.536 169.103 152.76 170.005 149.489 170.005 C 146.229 170.005 144.454 169.12898 144.454 165.09799 L 144.454 40.622 " fill="#50b4fb"/>
<g>
<path d="M 149.315 37.57 L 149.71 37.57 C 153.231 37.57 154.289 38.985 154.466 41.596 C 154.487 41.302 154.505 41.002 154.505 40.678 C 154.505 37.482 153.621 35.747 149.71 35.747 L 149.315 35.747 C 145.378 35.747 144.524 37.477 144.524 40.661003 C 144.524 40.978004 144.541 41.273003 144.559 41.564003 C 144.739 38.976 145.782 37.57 149.315 37.57 z " fill="#50b4fb" fill-opacity="0.1" stroke-opacity="0.1"/>
<path d="M 149.315 36.66 L 149.71 36.66 C 153.425 36.66 154.397 38.241 154.48601 41.138 C 154.48901 40.984 154.505 40.841 154.505 40.679 C 154.505 37.483 153.621 35.748 149.71 35.748 L 149.315 35.748 C 145.378 35.748 144.524 37.478 144.524 40.662003 C 144.524 40.820004 144.53801 40.960003 144.543 41.113003 C 144.632 38.234 145.581 36.66 149.315 36.66 z " fill-opacity="0.5" stroke-opacity="0.5"/>
</g>
</g>
</g>
<rect fill="none" height="200" width="156"/>
</g>
</svg>
