<?xml version="1.0" encoding="UTF-8"?>
<svg xmlns="http://www.w3.org/2000/svg" xmlns:xlink="http://www.w3.org/1999/xlink" baseProfile="tiny" contentScriptType="text/ecmascript" contentStyleType="text/css" height="30px" preserveAspectRatio="xMidYMid meet" version="1.1" viewBox="0 0 30 30" width="30px" x="0px" y="0px" zoomAndPan="magnify">
<path d="M 2.423 29.0 C 1.9480001 29.0 1.5270001 28.793 1.2660002 28.431 C 1.1000001 28.202 0.85900015 27.704 1.1060002 26.965 L 3.413 20.038 C 3.647 19.342001 4.214 18.427 4.731 17.908 C 4.731 17.908 18.872 3.7740011 19.253 3.389001 L 20.731 1.9060009 C 21.317 1.321 22.097 1.0 22.927 1.0 C 23.756 1.0 24.535 1.321 25.119 1.904 L 28.094 4.881 C 28.679 5.465 29.001 6.244 29.0 7.075 C 29.0 7.9059997 28.678 8.684 28.093 9.268 L 12.094 25.27 C 11.566 25.793001 10.65 26.359001 9.96 26.588001 L 3.0360003 28.895 C 2.827 28.965 2.621 29.0 2.423 29.0 L 2.423 29.0 z M 5.923 24.114 L 7.8999996 23.422 L 6.5839996 22.102001 L 5.8919997 24.082 L 5.923 24.114 z " fill-opacity="0.15" stroke-opacity="0.15"/>
<path d="M 5.438 17.614 C 5.0290003 18.024 4.544 18.807001 4.361 19.354 L 2.053 26.281 C 1.87 26.829 2.17 27.130001 2.7189999 26.946001 L 9.644 24.638 C 10.193 24.455 10.974 23.970001 11.386 23.562 L 24.498 10.46 L 18.550999 4.512 L 5.438 17.614 z M 8.812 23.162 L 5.658 24.266 L 4.74 23.343 L 5.843 20.189001 L 6.462 19.565 L 9.432 22.543001 L 8.812 23.162 z M 27.387 4.588 L 24.412998 1.6119998 C 23.594997 0.79599977 22.257998 0.79599977 21.439 1.6119998 L 19.960999 3.0949998 L 25.908998 9.042999 L 27.385998 7.5599995 C 28.205 6.744 28.205 5.405 27.387 4.588 z " fill-opacity="0.3" stroke-opacity="0.3"/>
<path d="M 5.438 18.614 C 5.0290003 19.024 4.544 19.807001 4.361 20.354 L 2.053 27.281 C 1.87 27.829 2.17 28.130001 2.7189999 27.946001 L 9.644 25.638 C 10.193 25.455 10.974 24.970001 11.386 24.562 L 24.498 11.46 L 18.550999 5.512 L 5.438 18.614 z M 8.812 24.162 L 5.658 25.266 L 4.74 24.343 L 5.843 21.189001 L 6.462 20.565 L 9.432 23.543001 L 8.812 24.162 z M 27.387 5.588 L 24.412998 2.6119998 C 23.594997 1.7959998 22.257998 1.7959998 21.439 2.6119998 L 19.960999 4.095 L 25.908998 10.042999 L 27.385998 8.559999 C 28.205 7.744 28.205 6.405 27.387 5.588 z " fill="#dedede"/>
<rect fill="none" height="30" width="30"/>
</svg>
