<?xml version="1.0" encoding="UTF-8"?>
<svg xmlns="http://www.w3.org/2000/svg" xmlns:xlink="http://www.w3.org/1999/xlink" baseProfile="tiny" contentScriptType="text/ecmascript" contentStyleType="text/css" height="30px" preserveAspectRatio="xMidYMid meet" version="1.1" viewBox="0 0 30 30" width="30px" x="0px" y="0px" zoomAndPan="magnify">
<path d="M 28.0 15.0 L 27.0 15.0 L 27.0 3.0 C 27.0 1.897 26.103 1.0 25.0 1.0 L 5.0 1.0 C 3.897 1.0 3.0 1.897 3.0 3.0 L 3.0 27.0 C 3.0 28.104 3.897 29.0 5.0 29.0 L 15.278 29.0 C 15.625 29.595 16.262 30.0 17.0 30.0 L 28.0 30.0 C 29.104 30.0 30.0 29.104 30.0 28.0 L 30.0 17.0 C 30.0 15.897 29.104 15.0 28.0 15.0 z " fill-opacity="0.15"/>
<path d="M 10.8 14.0 C 10.8 13.338 11.338 12.8 12.0 12.8 L 22.0 12.8 C 22.662 12.8 23.2 13.339 23.2 14.0 L 26.0 14.0 L 26.0 2.0 C 26.0 1.448 25.553 1.0 25.0 1.0 L 5.0 1.0 C 4.447 1.0 4.0 1.448 4.0 2.0 L 4.0 26.0 C 4.0 26.553 4.447 27.0 5.0 27.0 L 15.0 27.0 L 15.0 19.2 L 12.0 19.2 C 11.338 19.2 10.8 18.662 10.8 18.0 C 10.8 17.338 11.338 16.8 12.0 16.8 L 15.0 16.8 L 15.0 16.0 C 15.0 15.715 15.062 15.445 15.169 15.2 L 12.0 15.2 C 11.338 15.2 10.8 14.662 10.8 14.0 z M 12.0 4.8 L 22.0 4.8 C 22.662 4.8 23.2 5.339 23.2 6.0 C 23.2 6.661 22.662 7.2 22.0 7.2 L 12.0 7.2 C 11.338 7.2 10.8 6.661 10.8 6.0 C 10.8 5.339 11.338 4.8 12.0 4.8 z M 12.0 8.8 L 22.0 8.8 C 22.662 8.8 23.2 9.339 23.2 10.0 C 23.2 10.661 22.662 11.2 22.0 11.2 L 12.0 11.2 C 11.338 11.2 10.8 10.661 10.8 10.0 C 10.8 9.339 11.338 8.8 12.0 8.8 z M 8.0 19.2 C 7.338 19.2 6.8 18.662 6.8 18.0 C 6.8 17.338 7.3380003 16.8 8.0 16.8 C 8.662 16.8 9.2 17.338 9.2 18.0 C 9.2 18.662 8.662 19.2 8.0 19.2 z M 8.0 15.2 C 7.338 15.2 6.8 14.661 6.8 14.0 C 6.8 13.339 7.3380003 12.8 8.0 12.8 C 8.662 12.8 9.2 13.339 9.2 14.0 C 9.2 14.661 8.662 15.2 8.0 15.2 z M 8.0 11.2 C 7.338 11.2 6.8 10.661 6.8 10.0 C 6.8 9.339 7.338 8.8 8.0 8.8 C 8.662001 8.8 9.2 9.338 9.2 10.0 C 9.2 10.662 8.662 11.2 8.0 11.2 z M 8.0 7.2 C 7.338 7.2 6.8 6.662 6.8 6.0 C 6.8 5.338 7.338 4.8 8.0 4.8 C 8.662001 4.8 9.2 5.338 9.2 6.0 C 9.2 6.662 8.662 7.2 8.0 7.2 z M 28.0 15.0 L 17.0 15.0 C 16.447 15.0 16.0 15.448 16.0 16.0 L 16.0 27.0 C 16.0 27.553 16.447 28.0 17.0 28.0 L 28.0 28.0 C 28.553 28.0 29.0 27.553 29.0 27.0 L 29.0 16.0 C 29.0 15.448 28.553 15.0 28.0 15.0 z M 18.5 27.2 C 17.562 27.2 16.8 26.437 16.8 25.5 C 16.8 24.563 17.563 23.8 18.5 23.8 C 19.437 23.8 20.2 24.563 20.2 25.5 C 20.2 26.437 19.438 27.2 18.5 27.2 z M 24.2 27.2 L 21.800001 27.2 L 21.800001 25.5 C 21.800001 23.68 20.320002 22.2 18.500002 22.2 L 16.800001 22.2 L 16.800001 19.800001 L 18.500002 19.800001 C 21.643002 19.800001 24.2 22.358002 24.2 25.5 L 24.2 27.2 z M 28.2 27.2 L 25.800001 27.2 L 25.800001 25.5 C 25.800001 21.475 22.526001 18.2 18.5 18.2 L 16.8 18.2 L 16.8 15.800001 L 18.5 15.800001 C 23.848999 15.800001 28.2 20.152 28.2 25.5 L 28.2 27.2 z " fill-opacity="0.3"/>
<path d="M 10.8 15.0 C 10.8 14.338 11.338 13.8 12.0 13.8 L 22.0 13.8 C 22.662 13.8 23.2 14.339 23.2 15.0 L 26.0 15.0 L 26.0 3.0 C 26.0 2.448 25.553 2.0 25.0 2.0 L 5.0 2.0 C 4.447 2.0 4.0 2.448 4.0 3.0 L 4.0 27.0 C 4.0 27.553 4.447 28.0 5.0 28.0 L 15.0 28.0 L 15.0 20.2 L 12.0 20.2 C 11.338 20.2 10.8 19.662 10.8 19.0 C 10.8 18.338 11.338 17.8 12.0 17.8 L 15.0 17.8 L 15.0 17.0 C 15.0 16.715 15.062 16.445 15.169 16.2 L 12.0 16.2 C 11.338 16.2 10.8 15.662 10.8 15.0 z M 12.0 5.8 L 22.0 5.8 C 22.662 5.8 23.2 6.339 23.2 7.0 C 23.2 7.661 22.662 8.2 22.0 8.2 L 12.0 8.2 C 11.338 8.2 10.8 7.661 10.8 7.0 C 10.8 6.339 11.338 5.8 12.0 5.8 z M 12.0 9.8 L 22.0 9.8 C 22.662 9.8 23.2 10.339 23.2 11.0 C 23.2 11.661 22.662 12.2 22.0 12.2 L 12.0 12.2 C 11.338 12.2 10.8 11.661 10.8 11.0 C 10.8 10.339 11.338 9.8 12.0 9.8 z M 8.0 20.2 C 7.338 20.2 6.8 19.662 6.8 19.0 C 6.8 18.338 7.3380003 17.8 8.0 17.8 C 8.662 17.8 9.2 18.338 9.2 19.0 C 9.2 19.662 8.662 20.2 8.0 20.2 z M 8.0 16.2 C 7.338 16.2 6.8 15.661001 6.8 15.000001 C 6.8 14.339001 7.3380003 13.800001 8.0 13.800001 C 8.662 13.800001 9.2 14.339001 9.2 15.000001 C 9.2 15.661001 8.662 16.2 8.0 16.2 z M 8.0 12.2 C 7.338 12.2 6.8 11.661 6.8 11.0 C 6.8 10.339 7.338 9.8 8.0 9.8 C 8.662001 9.8 9.2 10.339 9.2 11.0 C 9.2 11.661 8.662 12.2 8.0 12.2 z M 8.0 8.2 C 7.338 8.2 6.8 7.662 6.8 7.0 C 6.8 6.338 7.338 5.8 8.0 5.8 C 8.662001 5.8 9.2 6.338 9.2 7.0 C 9.2 7.662 8.662 8.2 8.0 8.2 z M 28.0 16.0 L 17.0 16.0 C 16.447 16.0 16.0 16.447 16.0 17.0 L 16.0 28.0 C 16.0 28.553 16.447 29.0 17.0 29.0 L 28.0 29.0 C 28.553 29.0 29.0 28.553 29.0 28.0 L 29.0 17.0 C 29.0 16.447 28.553 16.0 28.0 16.0 z M 18.5 28.2 C 17.562 28.2 16.8 27.437 16.8 26.5 C 16.8 25.563 17.563 24.8 18.5 24.8 C 19.437 24.8 20.2 25.563 20.2 26.5 C 20.2 27.437 19.438 28.2 18.5 28.2 z M 24.2 28.2 L 21.800001 28.2 L 21.800001 26.5 C 21.800001 24.68 20.320002 23.2 18.500002 23.2 L 16.800001 23.2 L 16.800001 20.800001 L 18.500002 20.800001 C 21.643002 20.800001 24.2 23.358002 24.2 26.5 L 24.2 28.2 z M 28.2 28.2 L 25.800001 28.2 L 25.800001 26.5 C 25.800001 22.475 22.526001 19.2 18.5 19.2 L 16.8 19.2 L 16.8 16.800001 L 18.5 16.800001 C 23.848999 16.800001 28.2 21.152 28.2 26.5 L 28.2 28.2 z " fill="#dedede"/>
<rect fill="none" height="30" width="30"/>
</svg>
