<?xml version="1.0" encoding="UTF-8"?>
<svg xmlns="http://www.w3.org/2000/svg" xmlns:xlink="http://www.w3.org/1999/xlink" baseProfile="tiny" contentScriptType="text/ecmascript" contentStyleType="text/css" height="27px" preserveAspectRatio="xMidYMid meet" version="1.1" viewBox="15 15 27 27" width="27px" x="0px" y="0px" zoomAndPan="magnify">
<rect fill="none" height="27" width="27" x="15" y="15"/>
<linearGradient gradientTransform="matrix(1 0 0 1 -300.8604 -1001.4453)" gradientUnits="userSpaceOnUse" x1="329.3604" x2="329.3604" xlink:actuate="onLoad" xlink:show="other" xlink:type="simple" y1="1039.9961" y2="1019.8936">
<stop offset="0" stop-color="#d0cbc5"/>
<stop offset="1" stop-color="#fcfcf9"/>
</linearGradient>
<path d="M 22.283 31.983 C 22.931002 32.0 23.825 32.004 25.027 31.794 C 25.028 31.792 25.03 31.785 25.03 31.782 C 24.474 31.148 24.152 30.259 23.987 29.666002 C 23.501 29.319002 23.349 28.600002 23.247002 28.119 C 23.222002 28.000002 23.201002 27.89 23.176004 27.812002 C 22.965002 27.143002 22.923002 26.759005 22.944002 26.506002 C 22.946005 26.168003 23.036 25.915005 23.147 25.732002 C 23.03 25.292002 22.973 24.874002 22.990002 24.381002 C 22.998 24.173002 22.985004 23.984003 22.971004 23.783005 C 22.908005 22.850002 22.934002 22.020002 23.858002 20.546003 C 23.994 20.310003 24.288002 20.021004 24.705002 19.871004 C 24.747002 19.788004 24.811005 19.674004 24.897 19.553003 C 24.889002 19.540005 24.885002 19.531004 24.876 19.518003 C 24.626 19.146004 24.284 19.083004 22.864002 18.626003 C 21.444002 18.169004 21.243002 18.750004 20.772003 18.692003 C 20.302004 18.638002 20.235004 18.827003 20.146004 18.995005 C 20.056004 19.164003 20.146004 19.297005 19.891005 19.307005 C 19.632004 19.320004 19.518003 19.517002 19.518003 19.517002 C 18.749006 20.742002 19.037004 21.110004 19.009005 21.893002 C 18.994003 22.31 19.064005 22.621002 19.279003 23.194002 L 19.258003 23.163002 C 19.258003 23.163002 18.958006 23.021002 18.979006 23.430002 C 18.979006 23.430002 18.937006 23.555002 19.110006 24.099005 C 19.208006 24.412004 19.286009 25.284002 19.580006 25.007004 C 19.590006 25.039003 19.601006 25.073004 19.613008 25.107004 C 19.613008 25.107004 19.842009 26.307005 20.424007 26.810003 C 20.542007 26.920004 20.468008 27.263002 20.386007 27.588003 C 20.352009 27.711002 20.188007 28.559004 19.162006 28.968002 C 19.162006 28.968002 18.226006 29.329002 17.281006 29.881002 C 17.281006 29.881002 16.649006 30.198002 16.518005 30.723003 L 16.5 30.805 C 17.037 31.113 17.668 31.36 18.404 31.551 C 20.204 32.012 21.444 32.004 22.283 31.983 z M 40.471 30.727 C 40.339 30.201 39.709 29.884 39.709 29.884 C 38.762 29.332 37.828 28.971 37.828 28.971 C 37.694 28.919 37.580997 28.86 37.475 28.796 C 36.898 28.401 36.604 27.698 36.577 27.591 C 36.492 27.265 36.422 26.923 36.54 26.813 C 37.120003 26.31 37.352 25.109 37.352 25.109 C 37.370003 25.063 37.385 25.02 37.4 24.974998 C 37.686 25.325998 37.833 24.502998 37.951 24.126 C 38.074 23.725 38.128 23.464 38.128 23.464 C 38.178997 23.06 37.869 23.179998 37.869 23.179998 L 37.846 23.204998 C 37.889 22.641998 38.054 22.296995 38.054 21.789995 C 38.057 21.004995 38.249 20.718998 37.448 19.516996 C 37.198 19.144997 36.857 19.082996 35.435 18.624996 C 34.015003 18.166996 33.815 18.748997 33.342003 18.690996 C 32.873 18.636995 32.807003 18.825996 32.716003 18.993996 C 32.626003 19.161997 32.716003 19.295996 32.461002 19.304996 C 32.202003 19.317995 32.086002 19.515997 32.086002 19.515997 C 32.056004 19.563995 32.037003 19.603996 32.010002 19.649998 C 32.483 19.865995 32.800003 20.107998 33.075 20.514996 C 34.117 22.082998 34.162003 22.804996 34.112 23.806995 C 34.104 23.949997 34.096 24.100998 34.096 24.270998 C 34.096 24.761995 34.01 25.166998 33.934 25.523998 C 33.926003 25.554998 33.921 25.586 33.912003 25.617998 C 34.087 25.826998 34.26 26.183 34.195004 26.731998 C 34.191 26.762 34.185005 26.790998 34.182003 26.821 C 34.176003 26.837 34.092003 27.238 33.907 27.839 C 33.882 27.919998 33.856003 28.013998 33.832 28.113 C 33.686 28.645 33.485 29.383 32.953 29.706 C 32.787 30.285 32.471 31.131 31.931 31.758 C 33.225 32.003 34.175 31.999 34.856 31.982 C 35.696 32.003002 36.935997 32.010002 38.736 31.548 C 39.419 31.37 40.0 31.142 40.502 30.864 L 40.471 30.727 z M 35.393 35.601 C 34.067 34.828003 32.759003 34.323 32.759003 34.323 C 32.574 34.251003 32.413002 34.166 32.267002 34.077003 C 31.458002 33.523003 31.048002 32.539005 31.009005 32.389004 C 30.891005 31.934004 30.791002 31.454004 30.956003 31.301004 C 31.770002 30.596004 32.093002 28.916004 32.093002 28.916004 C 32.116 28.850004 32.140003 28.790005 32.158 28.728004 C 32.559002 29.219004 32.763 28.067003 32.93 27.540005 C 33.104 26.978004 33.178 26.614004 33.178 26.614004 C 33.246002 26.049004 32.814003 26.217005 32.814003 26.217005 L 32.782 26.252005 C 32.844 25.464005 33.074 24.981005 33.074 24.271004 C 33.077 23.172005 33.345 22.771004 32.224003 21.089005 C 31.875002 20.569004 31.395002 20.482004 29.406002 19.840004 C 27.419004 19.199003 27.139002 20.014004 26.478004 19.934004 C 25.820004 19.857004 25.728004 20.123005 25.602003 20.358004 C 25.476004 20.594004 25.602003 20.780005 25.244003 20.794004 C 24.882004 20.813004 24.722004 21.088003 24.722004 21.088003 C 23.647003 22.804005 24.050003 23.319004 24.009005 24.417006 C 23.989004 25.001003 24.087004 25.435003 24.386003 26.237003 L 24.358006 26.195004 C 24.358006 26.195004 23.937006 25.996006 23.965006 26.568005 C 23.965006 26.568005 23.907003 26.744003 24.148006 27.505005 C 24.287006 27.943005 24.395006 29.164003 24.809006 28.776005 C 24.822006 28.821005 24.839006 28.868004 24.854006 28.916004 C 24.854006 28.916004 25.177006 30.596004 25.990004 31.300003 C 26.155006 31.453005 26.053003 31.933004 25.936005 32.389004 C 25.891005 32.563004 25.661003 33.749004 24.224005 34.324005 C 24.224005 34.324005 22.913004 34.828007 21.590004 35.602005 C 21.590004 35.602005 20.705004 36.044006 20.522003 36.782005 L 20.5 36.888 C 21.252 37.319 22.135 37.667 23.168 37.934 C 25.686 38.581 27.421 38.569 28.597 38.542004 C 29.773 38.568005 31.507 38.58 34.03 37.934 C 34.981 37.687 35.796997 37.367 36.501 36.976 L 36.461 36.781 C 36.275 36.044 35.393 35.601 35.393 35.601 z " fill="#dedede" fill-opacity="1"/>
</svg>
