<?xml version="1.0" encoding="UTF-8"?>
<svg xmlns="http://www.w3.org/2000/svg" xmlns:xlink="http://www.w3.org/1999/xlink" baseProfile="tiny" contentScriptType="text/ecmascript" contentStyleType="text/css" height="60px" preserveAspectRatio="xMidYMid meet" version="1.1" viewBox="0 0 58 60" width="58px" x="0px" y="0px" zoomAndPan="magnify">
<rect fill="none" height="60" width="58"/>
<defs>
<linearGradient gradientTransform="matrix(1 0 0 -1 -262.4805 -326.0195)" gradientUnits="userSpaceOnUse" x1="291.4092" x2="291.4092" xlink:actuate="onLoad" xlink:show="other" xlink:type="simple" y1="-392.3105" y2="-287.3671">
<stop offset="0" stop-color="#d0cbc5"/>
<stop offset="0.5031" stop-color="#fafcef"/>
<stop offset="0.9693" stop-color="#ffffff"/>
<stop offset="1" stop-color="#ffffff"/>
</linearGradient>
</defs>
<path d="M 44.546284 48.71544 L 44.546284 54.544487 L 11.896873 54.544487 C 11.8519535 53.08441 12.087804 51.680504 12.604445 50.332745 C 13.43556 48.108948 14.766466 45.918846 16.59718 43.762432 C 18.427872 41.606033 21.072844 39.11268 24.5321 36.282383 C 29.900644 31.879734 33.52835 28.392414 35.415237 25.820415 C 37.30207 23.248482 38.2455 20.816902 38.24553 18.525682 C 38.2455 16.122221 37.386307 14.094972 35.667946 12.443931 C 33.94953 10.79297 31.708883 9.967474 28.946009 9.967427 C 26.02585 9.967474 23.689745 10.843511 21.937672 12.595552 C 20.18558 14.34768 19.298306 16.77364 19.275852 19.87344 L 13.042468 19.233255 C 13.469253 14.583535 15.07533 11.04006 17.8607 8.602825 C 20.646051 6.165681 24.386074 4.9470835 29.08078 4.947035 C 33.82037 4.947083 37.57162 6.261147 40.33455 8.889224 C 43.097416 11.517391 44.478867 14.774466 44.4789 18.66046 C 44.478867 20.637203 44.074543 22.58022 43.265923 24.489508 C 42.457233 26.398865 41.115097 28.409267 39.2395 30.520723 C 37.36384 32.632233 34.24716 35.529903 29.889437 39.213757 C 26.250471 42.268684 23.914364 44.34086 22.8811 45.430283 C 21.847803 46.51973 20.994226 47.614784 20.32036 48.71544 z " fill="#dedede" fill-opacity="1" font-family="Sans" font-size="40px" font-style="normal" font-weight="normal" stroke="none"/>
</svg>
