<?xml version="1.0" encoding="UTF-8"?>
<svg xmlns="http://www.w3.org/2000/svg" xmlns:xlink="http://www.w3.org/1999/xlink" baseProfile="tiny" contentScriptType="text/ecmascript" contentStyleType="text/css" height="30px" preserveAspectRatio="xMidYMid meet" version="1.1" viewBox="0 0 30 30" width="30px" x="0px" y="0px" zoomAndPan="magnify">
<path d="M 29.983 27.36 L 29.933 27.104 C 29.649 25.95 28.479 25.329 28.403 25.293 C 27.027 24.481998 25.681 23.953 25.626999 23.932999 C 25.505 23.884998 25.397999 23.828999 25.338 23.793 C 24.831999 23.442999 24.518 22.769999 24.480999 22.671999 C 24.436998 22.494999 24.411 22.370998 24.394999 22.285 C 24.943998 21.649 25.267998 20.767 25.435999 20.183 C 25.967 19.866001 26.167 19.122 26.310999 18.589 C 26.338 18.487001 26.363998 18.392 26.388998 18.310001 C 26.579998 17.687002 26.659998 17.279001 26.671997 17.208002 C 26.739998 16.654001 26.562998 16.299002 26.390997 16.093002 C 26.398996 16.054003 26.407997 16.017002 26.414997 15.980002 C 26.489998 15.621002 26.575996 15.214003 26.575996 14.724003 C 26.576996 14.5510025 26.584997 14.398003 26.591997 14.253003 C 26.643997 13.248003 26.599997 12.524003 25.562998 10.956003 C 25.068998 10.210003 24.453999 10.013003 22.964998 9.5370035 L 22.219 9.3 C 21.6 9.098 21.062 9.0 20.572 9.0 C 20.124 9.0 19.785 9.083 19.521 9.173 C 19.527 9.152 19.534 9.126 19.539999 9.106 C 19.564999 9.011 19.588999 8.922 19.612 8.845 C 19.793 8.2560005 19.868 7.8690004 19.879 7.7980003 C 19.942999 7.2770004 19.784 6.9340005 19.621 6.728 C 19.627 6.701 19.633 6.6740003 19.638 6.6470003 C 19.709 6.307 19.79 5.9210005 19.79 5.4560003 C 19.791 5.2950006 19.799002 5.1500006 19.806002 5.0160003 C 19.854002 4.059 19.813002 3.3700004 18.830002 1.8790002 C 18.355001 1.1600002 17.770002 0.97300017 16.359001 0.5200002 L 15.663001 0.29500023 C 15.076001 0.10300022 14.565001 0.010000229 14.099001 0.010000229 C 13.478001 0.010000229 13.067001 0.17600022 12.795001 0.28600022 C 12.740001 0.3080002 12.691001 0.33200023 12.730001 0.34300023 C 12.608002 0.32700023 12.500002 0.32200024 12.402001 0.32200024 C 11.398002 0.32200024 11.041001 1.0020002 10.911001 1.2550002 C 10.516001 1.4010003 10.238001 1.6790003 10.109001 1.9050002 C 9.239001 3.3130002 9.215001 4.106 9.275002 4.9960003 C 9.279001 5.056 9.278002 5.1260004 9.2820015 5.1870003 C 8.855 5.073 8.457 5.0 8.1 5.0 C 7.479 5.0 7.066 5.166 6.795 5.276 C 6.74 5.298 6.691 5.322 6.729 5.333 C 6.607 5.317 6.498 5.312 6.4 5.312 C 5.3980002 5.312 5.0410004 5.99 4.91 6.244 C 4.516 6.391 4.237 6.669 4.107 6.896 C 3.238 8.304 3.2139997 9.096 3.274 9.986 C 3.2849998 10.16 3.2979999 10.341 3.293 10.547 C 3.277 11.018 3.328 11.412 3.438 11.828 C 3.3339999 12.004 3.251 12.246 3.25 12.566 C 3.23 12.808 3.27 13.177 3.469 13.82 C 3.493 13.894 3.514 14.0 3.537 14.114 C 3.6339998 14.567 3.777 15.241 4.229 15.58 C 4.3840003 16.14 4.685 16.977 5.205 17.58 C 5.18 17.708 5.1419997 17.858 5.123 17.937 C 4.993 18.463001 4.6540003 18.839 4.1270003 19.053 C 4.0740004 19.074 2.8070002 19.573 1.5740004 20.305 C 1.3670003 20.41 0.3170004 20.988 0.034000397 22.141 L 0.015000397 22.245 C -0.058999605 22.659 0.1340004 23.076 0.4990004 23.287 C 1.2860004 23.741001 2.2110004 24.108 3.2470002 24.379002 C 5.377 24.936 6.947 25.0 7.943 25.0 C 8.184999 25.0 8.408999 24.996 8.571 24.991 C 8.777 24.996 9.0 25.0 9.242 25.0 C 10.238 25.0 11.808 24.936 13.938 24.379 C 14.903999 24.126 15.738999 23.798 16.49 23.376 C 16.862 23.167 17.06 22.743 16.983 22.323 L 16.937 22.079 C 16.663 20.966 15.542 20.371 15.474 20.339 C 15.273 20.220001 15.076 20.11 14.88 20.005001 C 15.062 20.007002 15.236 20.009 15.236 20.009 C 15.543 20.009 15.923 19.995 16.338 19.971 C 16.393 20.031 16.439 20.099 16.505 20.146 C 16.668999 20.734 16.994999 21.652 17.556 22.291 C 17.536 22.392 17.505 22.528 17.462 22.705 C 17.317 23.282999 16.944 23.698 16.36 23.934 C 16.303001 23.955 14.957001 24.485 13.642 25.263 C 13.509 25.33 12.334001 25.95 12.034 27.171001 L 12.014 27.281002 C 11.94 27.696003 12.135 28.113003 12.5 28.322002 C 13.334 28.802002 14.314 29.190002 15.414 29.476002 C 16.695 29.809 18.767 30.0 21.1 30.0 C 23.432001 30.0 25.502 29.809 26.784 29.475 C 27.811 29.206001 28.696001 28.86 29.489 28.415 C 29.862 28.206 30.061 27.782 29.983 27.36 z " fill-opacity="0.15"/>
<path d="M 28.963 26.336 C 28.779999 25.594 27.897 25.147001 27.897 25.147001 C 26.574999 24.368002 25.262 23.856 25.262 23.856 C 25.077 23.784 24.915998 23.7 24.769999 23.608002 C 23.963 23.049002 23.55 22.055002 23.509998 21.905003 C 23.396997 21.446003 23.295998 20.963003 23.456999 20.807003 C 24.272999 20.095003 24.598 18.400003 24.598 18.400003 C 24.619 18.334003 24.639 18.272003 24.661999 18.212004 C 25.061998 18.707005 25.266998 17.543003 25.432999 17.010004 C 25.605999 16.447004 25.678999 16.079004 25.678999 16.079004 C 25.748999 15.507004 25.317999 15.675004 25.317999 15.675004 L 25.284998 15.712004 C 25.347998 14.916004 25.575998 14.430004 25.575998 13.713004 C 25.580997 12.605004 25.850998 12.200005 24.727999 10.502005 C 24.38 9.976005 23.9 9.890005 21.908998 9.242004 C 19.923998 8.5960045 19.64 9.415005 18.98 9.337005 C 18.321999 9.257005 18.230999 9.527004 18.102999 9.765005 C 17.973999 10.001005 18.102999 10.191005 17.744 10.206005 C 17.383 10.225005 17.223 10.502005 17.223 10.502005 C 16.151 12.233005 16.548 12.753004 16.512 13.860004 C 16.491999 14.449004 16.585999 14.886004 16.890999 15.699004 L 16.857998 15.654004 C 16.857998 15.654004 16.437998 15.456004 16.468998 16.030005 C 16.468998 16.030005 16.409998 16.210005 16.648998 16.977005 C 16.791998 17.418005 16.901 18.649006 17.309998 18.260006 C 17.322998 18.305006 17.341997 18.353006 17.356998 18.400005 C 17.356998 18.400005 17.677998 20.095005 18.494999 20.807005 C 18.661 20.962006 18.556 21.446005 18.442 21.905005 C 18.394999 22.081005 18.163 23.277004 16.724998 23.856005 C 16.724998 23.856005 15.411999 24.368004 14.0929985 25.147005 C 14.0929985 25.147005 13.203999 25.594006 13.019999 26.336004 L 13.0 26.445 C 13.751 26.876999 14.637 27.23 15.668 27.498 C 18.188 28.154999 24.01 28.154999 26.53 27.498 C 27.485 27.248 28.299 26.925999 29.0 26.532999 L 28.963 26.336 z M 15.408 16.996 C 15.356 16.997 15.291 17.0 15.242 17.0 C 15.242 17.0 14.806 16.996 14.613999 16.992 C 14.379 16.996 14.17 17.0 13.943 17.0 C 13.419 17.0 12.693 16.967 11.809999 16.848 C 11.815 16.866999 11.818 16.88 11.822999 16.901 C 11.854999 16.984999 12.145999 17.602999 12.603999 17.921999 C 12.617999 17.929998 12.640999 17.942999 12.661999 17.953 C 13.433999 18.011 14.073998 18.004 14.5929985 17.993 C 14.902999 18.0 15.258999 18.004 15.655998 17.995 C 15.6259985 17.872002 15.597999 17.752 15.575998 17.646 C 15.542998 17.489 15.524999 17.406 15.506998 17.344 C 15.468 17.22 15.438 17.107 15.408 16.996 z M 10.359 4.501 C 10.721001 4.617 11.028 4.716 11.293 4.811 C 11.291 4.746 11.2890005 4.6819997 11.291 4.614 C 11.301001 4.3329997 11.285001 4.0889997 11.27 3.8519998 C 11.234 3.3069997 11.211 2.9649997 11.708 2.1179998 C 12.017 2.0599997 12.452001 1.8799998 12.646 1.3289998 C 12.667 1.3309997 12.683 1.3309997 12.691 1.3309997 C 13.052 1.3309997 13.337 1.2159997 13.546 1.1319997 C 13.739 1.052 13.867 1.0 14.1 1.0 C 14.348001 1.0 14.6640005 1.063 15.042001 1.186 L 15.748001 1.415 C 16.75 1.735 17.08 1.85 17.16 1.971 C 17.852 3.0219998 17.838 3.2989998 17.807 3.905 C 17.797998 4.068 17.789999 4.243 17.789 4.437 C 17.789 4.706 17.741 4.936 17.68 5.2289996 C 17.616001 5.535 17.550001 5.8559995 17.52 6.245 C 17.498001 6.525 17.595001 6.7939997 17.775 6.993 C 17.754 7.072 17.58 7.684 17.562 7.747 C 17.31 7.847 17.107 8.047 17.004 8.304 C 16.972 8.384 16.945 8.466 16.917 8.554 C 16.906 8.591 16.897 8.627 16.89 8.665 C 16.852 8.858 16.778 9.108 16.689 9.359 C 16.803999 9.277 16.928999 9.2 17.075998 9.141 C 17.243998 8.828 17.616 8.249 18.487999 8.144 C 18.550999 7.93 18.605 7.706 18.655998 7.543 C 18.817999 7.0140004 18.885998 6.6670003 18.885998 6.6670003 C 18.951998 6.129 18.547998 6.287 18.547998 6.287 L 18.516998 6.322 C 18.575998 5.573 18.788998 5.115 18.788998 4.441 C 18.793997 3.398 19.046997 3.017 17.993998 1.4200001 C 17.667997 0.9260001 17.218998 0.8450001 15.350998 0.23500013 C 13.489998 -0.37299985 13.223998 0.39800012 12.604998 0.32500014 C 11.988997 0.24900013 11.902998 0.50300014 11.783998 0.7270001 C 11.662997 0.9490001 11.783998 1.1270001 11.445997 1.1420001 C 11.1069975 1.159 10.957997 1.4190001 10.957997 1.4190001 C 9.986998 2.992 10.297997 3.5080001 10.289997 4.478 L 10.359 4.501 z M 16.0 21.495 L 15.966 21.308 C 15.794 20.61 14.964999 20.19 14.964999 20.19 C 13.725999 19.457 12.494999 18.975 12.494999 18.975 C 12.321999 18.907 12.170999 18.828001 12.0339985 18.742 C 11.2769985 18.217001 10.889998 17.281 10.851998 17.139 C 10.745998 16.707 10.6519985 16.252 10.802999 16.107 C 11.567999 15.437 11.871999 13.841001 11.871999 13.841001 C 11.891999 13.778001 11.909999 13.721001 11.932999 13.665001 C 12.307999 14.130001 12.499999 13.035001 12.655998 12.533001 C 12.817998 12.003001 12.885998 11.657001 12.885998 11.657001 C 12.951998 11.119 12.547997 11.277 12.547997 11.277 L 12.516997 11.312 C 12.575997 10.563001 12.788998 10.106 12.788998 9.431 C 12.793998 8.387 13.046998 8.007 11.993998 6.41 C 11.667997 5.915 11.218998 5.8339996 9.350998 5.224 C 7.491 4.618 7.226 5.39 6.606 5.316 C 5.99 5.24 5.904 5.494 5.785 5.719 C 5.664 5.942 5.785 6.119 5.447 6.134 C 5.108 6.15 4.959 6.412 4.959 6.412 C 3.953 8.041 4.326 8.529 4.292 9.571 C 4.273 10.125 4.362 10.537 4.647 11.3 L 4.6159997 11.258 C 4.6159997 11.258 4.2219996 11.071 4.252 11.612 C 4.252 11.612 4.197 11.781 4.421 12.504001 C 4.555 12.920001 4.656 14.077001 5.04 13.711 C 5.053 13.754001 5.07 13.799001 5.084 13.842 C 5.084 13.842 5.385 15.438 6.151 16.108 C 6.306 16.254 6.2070003 16.709 6.101 17.14 C 6.0569997 17.305 5.838 18.431 4.4919996 18.976 C 4.4919996 18.976 3.2619996 19.457 2.0239997 20.191 C 2.0239997 20.191 1.1909997 20.611 1.0179996 21.309 L 1.0 21.412 C 1.704 21.818 2.534 22.150002 3.501 22.402 C 5.863 23.02 7.491 23.006 8.593 22.982 C 9.696 23.006 11.3220005 23.02 13.685 22.402 C 14.58 22.168 15.343 21.864 16.0 21.495 z M 9.242 21.991 C 9.242 21.991 8.806 21.987 8.613999 21.981998 C 8.379 21.986998 8.169999 21.991 7.9429994 21.991 C 7.056999 21.991 5.6599994 21.932999 3.7539992 21.435 C 3.3219993 21.321999 2.9179993 21.191 2.5419993 21.043 C 3.7299993 20.348999 4.8459992 19.91 4.8569994 19.904999 C 6.0 19.444 6.779 18.56 7.064 17.41 C 7.222 16.767 7.425 15.931 6.835 15.378 C 6.469 15.057 6.164 14.1640005 6.066 13.654 C 6.058 13.617001 6.048 13.578 6.038 13.542 L 5.998 13.425 C 5.92 13.178 5.749 12.969 5.527 12.844 C 5.513 12.787 5.503 12.733 5.494 12.69 C 5.453 12.499 5.412 12.323 5.373 12.198 C 5.352 12.128 5.333 12.065 5.3180003 12.01 C 5.609 11.745 5.728 11.336 5.584 10.951 C 5.317 10.236 5.2790003 9.969 5.291 9.6050005 C 5.301 9.324 5.285 9.078 5.27 8.842001 C 5.233 8.298 5.211 7.956 5.707 7.108 C 6.016 7.051 6.451 6.869 6.645 6.32 C 6.666 6.32 6.682 6.321 6.69 6.321 C 7.051 6.321 7.336 6.2060003 7.545 6.1210003 C 7.7390003 6.043 7.867 5.991 8.1 5.991 C 8.348001 5.991 8.6640005 6.0540004 9.042001 6.178 L 9.748001 6.406 C 10.750001 6.727 11.080001 6.842 11.160001 6.9630003 C 11.852001 8.014 11.838001 8.29 11.807001 8.898001 C 11.798001 9.06 11.790001 9.234001 11.789001 9.429001 C 11.789001 9.698001 11.741001 9.929001 11.680001 10.220001 C 11.616001 10.527001 11.550001 10.847001 11.520001 11.237001 C 11.498001 11.517001 11.595001 11.787002 11.775002 11.986001 C 11.754002 12.064001 11.580002 12.676001 11.562001 12.738001 C 11.310001 12.840001 11.107001 13.0390005 11.004002 13.2960005 C 10.972002 13.375001 10.945002 13.457001 10.917002 13.5460005 C 10.906002 13.582001 10.897001 13.619 10.890001 13.656 C 10.790001 14.1640005 10.485002 15.058001 10.144001 15.357 C 9.528001 15.948 9.740001 16.81 9.8810005 17.380001 C 9.960001 17.679 10.4470005 18.859001 11.463 19.565 C 11.687 19.707 11.892 19.814001 12.126 19.907001 C 12.141001 19.913002 13.305 20.373001 14.454 21.053001 C 14.475 21.065 14.497001 21.076002 14.518001 21.090002 C 14.18 21.220001 13.819 21.336002 13.429001 21.438002 C 11.525 21.934 10.128 21.991 9.242 21.991 z " fill-opacity="0.3"/>
<path d="M 28.963 27.345 C 28.779999 26.602999 27.897 26.156 27.897 26.156 C 26.574999 25.377 25.262 24.865 25.262 24.865 C 25.077 24.793 24.915998 24.709 24.769999 24.617 C 23.963 24.058 23.55 23.064001 23.509998 22.914001 C 23.396997 22.455002 23.295998 21.972002 23.456999 21.816002 C 24.272999 21.104002 24.598 19.409002 24.598 19.409002 C 24.619 19.343002 24.639 19.281002 24.661999 19.221003 C 25.061998 19.716003 25.266998 18.552002 25.432999 18.019003 C 25.605999 17.456003 25.678999 17.088003 25.678999 17.088003 C 25.748999 16.516003 25.317999 16.684004 25.317999 16.684004 L 25.284998 16.721004 C 25.347998 15.925005 25.575998 15.439005 25.575998 14.722005 C 25.580997 13.614005 25.850998 13.209005 24.727999 11.511005 C 24.38 10.985005 23.9 10.899006 21.908998 10.251005 C 19.923998 9.605005 19.64 10.4240055 18.98 10.346005 C 18.321999 10.2660055 18.230999 10.536005 18.102999 10.774006 C 17.973999 11.010006 18.102999 11.200006 17.744 11.215006 C 17.383 11.234006 17.223 11.511005 17.223 11.511005 C 16.151 13.242005 16.548 13.762005 16.512 14.869005 C 16.491999 15.458005 16.585999 15.895005 16.890999 16.708006 L 16.857998 16.663006 C 16.857998 16.663006 16.437998 16.465006 16.468998 17.039005 C 16.468998 17.039005 16.409998 17.219006 16.648998 17.986006 C 16.791998 18.427006 16.901 19.658007 17.309998 19.269005 C 17.322998 19.314005 17.341997 19.362005 17.356998 19.409004 C 17.356998 19.409004 17.677998 21.104004 18.494999 21.816004 C 18.661 21.971004 18.556 22.455004 18.442 22.914003 C 18.394999 23.090004 18.163 24.286003 16.724998 24.865004 C 16.724998 24.865004 15.411999 25.377003 14.0929985 26.156004 C 14.0929985 26.156004 13.203999 26.603004 13.019999 27.345003 L 13.0 27.454 C 13.751 27.886 14.637 28.239 15.668 28.507 C 18.188 29.164 24.01 29.164 26.53 28.507 C 27.485 28.257 28.299 27.935 29.0 27.542 L 28.963 27.345 z M 15.408 18.005 C 15.356 18.005999 15.291 18.008999 15.242 18.008999 C 15.242 18.008999 14.806 18.005 14.613999 18.001 C 14.379 18.005 14.169999 18.008999 13.942999 18.008999 C 13.418999 18.008999 12.692999 17.975998 11.809999 17.856998 C 11.815 17.875998 11.818 17.888998 11.822999 17.909998 C 11.854999 17.993998 12.145999 18.611998 12.603999 18.930998 C 12.617999 18.938997 12.640999 18.951998 12.661999 18.961998 C 13.433999 19.019999 14.073998 19.012999 14.5929985 19.001999 C 14.902999 19.008999 15.258999 19.012999 15.655998 19.004 C 15.6259985 18.881 15.597999 18.761 15.575998 18.654999 C 15.542998 18.498 15.524999 18.414999 15.506998 18.352999 C 15.468 18.229 15.438 18.116 15.408 18.005 z M 10.359 5.51 C 10.721001 5.6260004 11.028 5.7250004 11.293 5.82 C 11.291 5.755 11.2890005 5.691 11.291 5.623 C 11.301001 5.342 11.285001 5.098 11.27 4.861 C 11.234 4.316 11.211 3.974 11.708 3.127 C 12.017 3.069 12.452001 2.8890002 12.646 2.338 C 12.667 2.3400002 12.683 2.3400002 12.691 2.3400002 C 13.052 2.3400002 13.337 2.2250001 13.546 2.1410003 C 13.74 2.0620003 13.867999 2.0100002 14.101 2.0100002 C 14.349 2.0100002 14.665 2.0730002 15.043 2.1960003 L 15.749001 2.4250004 C 16.751001 2.7460005 17.081001 2.8610005 17.161001 2.9820004 C 17.853 4.0330005 17.839 4.3100004 17.808 4.9160004 C 17.799 5.0790005 17.791 5.254 17.79 5.4480004 C 17.79 5.7170005 17.742 5.9470005 17.681002 6.2400002 C 17.617002 6.5460005 17.551003 6.867 17.521002 7.2560005 C 17.499002 7.5360007 17.596003 7.8050003 17.776001 8.004001 C 17.755001 8.083001 17.581001 8.695001 17.563002 8.758 C 17.311 8.858001 17.108002 9.058001 17.005001 9.315001 C 16.973001 9.395 16.946001 9.477 16.918001 9.565001 C 16.907001 9.602 16.898 9.6380005 16.891 9.676001 C 16.853 9.869 16.779001 10.119 16.69 10.370001 C 16.805 10.288001 16.93 10.211 17.077 10.152 C 17.244999 9.839001 17.617 9.26 18.489 9.155001 C 18.552 8.941001 18.606 8.717001 18.657 8.554001 C 18.819 8.025001 18.887 7.678001 18.887 7.678001 C 18.953 7.140001 18.549 7.298001 18.549 7.298001 L 18.518 7.3330007 C 18.577 6.5840006 18.789999 6.1260004 18.789999 5.4520006 C 18.794998 4.4090004 19.047998 4.028001 17.994999 2.4310007 C 17.668999 1.9370008 17.22 1.8560007 15.351999 1.2460008 C 13.490999 0.6380008 13.224999 1.4090008 12.605999 1.3360008 C 11.989999 1.2600008 11.903999 1.5140008 11.784999 1.7380009 C 11.663999 1.9600009 11.784999 2.138001 11.446999 2.1530008 C 11.107999 2.1700008 10.958999 2.4300008 10.958999 2.4300008 C 9.987999 4.0030007 10.298999 4.519001 10.290998 5.489001 L 10.359 5.51 z M 16.0 22.504 L 15.966 22.317 C 15.794 21.619 14.964999 21.199 14.964999 21.199 C 13.725999 20.466 12.494999 19.984 12.494999 19.984 C 12.321999 19.915998 12.170999 19.837 12.0339985 19.751 C 11.2769985 19.226 10.889998 18.289999 10.851998 18.147999 C 10.745998 17.716 10.6519985 17.261 10.802999 17.116 C 11.567999 16.446 11.871999 14.849999 11.871999 14.849999 C 11.891999 14.787 11.909999 14.73 11.932999 14.674 C 12.307999 15.139 12.499999 14.044 12.655998 13.542 C 12.817998 13.012 12.885998 12.665999 12.885998 12.665999 C 12.951998 12.127999 12.547997 12.285999 12.547997 12.285999 L 12.516997 12.320999 C 12.575997 11.572 12.788998 11.114999 12.788998 10.439999 C 12.793998 9.395999 13.046998 9.015999 11.993998 7.4189987 C 11.667997 6.923999 11.218998 6.8429985 9.350998 6.232999 C 7.489998 5.624999 7.223998 6.395999 6.6049976 6.322999 C 5.99 6.249 5.904 6.503 5.785 6.728 C 5.664 6.951 5.785 7.1280003 5.447 7.143 C 5.108 7.159 4.959 7.421 4.959 7.421 C 3.953 9.05 4.326 9.538 4.292 10.58 C 4.273 11.134 4.362 11.546 4.647 12.309 L 4.6159997 12.267 C 4.6159997 12.267 4.2219996 12.08 4.252 12.621 C 4.252 12.621 4.197 12.79 4.421 13.5130005 C 4.555 13.929001 4.656 15.086 5.04 14.72 C 5.053 14.7630005 5.07 14.808001 5.084 14.851 C 5.084 14.851 5.385 16.447 6.151 17.117 C 6.306 17.263 6.2070003 17.718 6.101 18.149 C 6.0569997 18.314001 5.838 19.44 4.4919996 19.985 C 4.4919996 19.985 3.2619996 20.466002 2.0239997 21.2 C 2.0239997 21.2 1.1909997 21.62 1.0179996 22.318 L 1.0 22.421 C 1.704 22.827 2.534 23.159 3.501 23.411 C 5.863 24.029 7.491 24.015 8.593 23.991 C 9.696 24.015 11.3220005 24.029 13.685 23.411 C 14.58 23.177 15.343 22.873 16.0 22.504 z M 9.242 23.0 C 9.242 23.0 8.806 22.996 8.613999 22.991 C 8.379 22.996 8.17 23.0 7.943 23.0 C 7.0569997 23.0 5.66 22.942 3.7539997 22.444 C 3.3219998 22.331 2.9179997 22.2 2.5419998 22.052 C 3.7299998 21.358 4.8459997 20.919 4.857 20.914 C 6.0 20.453 6.779 19.568 7.064 18.419 C 7.222 17.776001 7.425 16.94 6.835 16.387001 C 6.469 16.066002 6.164 15.173001 6.066 14.663001 C 6.058 14.626001 6.048 14.587001 6.038 14.551001 L 5.998 14.434001 C 5.92 14.187001 5.749 13.978001 5.527 13.853001 C 5.513 13.7960005 5.503 13.742001 5.494 13.699 C 5.453 13.508 5.412 13.332001 5.373 13.207001 C 5.352 13.137001 5.333 13.074 5.3180003 13.019001 C 5.609 12.754001 5.728 12.345001 5.584 11.960001 C 5.317 11.245001 5.2790003 10.978001 5.291 10.614001 C 5.301 10.333001 5.285 10.087001 5.27 9.851002 C 5.233 9.307 5.211 8.965 5.707 8.117 C 6.016 8.06 6.451 7.878 6.645 7.329 C 6.666 7.329 6.682 7.33 6.69 7.33 C 7.051 7.33 7.336 7.215 7.545 7.13 C 7.739 7.052 7.867 7.0 8.1 7.0 C 8.348001 7.0 8.6640005 7.063 9.042001 7.187 L 9.748001 7.415 C 10.75 7.735 11.08 7.85 11.16 7.971 C 11.852 9.022 11.837999 9.298 11.807 9.906 C 11.798 10.068 11.79 10.242001 11.7890005 10.437 C 11.7890005 10.706 11.741 10.937 11.68 11.228001 C 11.616 11.535001 11.55 11.8550005 11.52 12.245001 C 11.498 12.525001 11.595 12.795001 11.775001 12.994 C 11.754001 13.0720005 11.580001 13.684 11.562 13.746 C 11.31 13.848001 11.107 14.047 11.004001 14.304 C 10.972001 14.383 10.945001 14.465 10.917001 14.554 C 10.906001 14.59 10.897 14.627 10.89 14.664 C 10.79 15.172 10.485001 16.066 10.144 16.365 C 9.528 16.956 9.74 17.817999 9.8810005 18.388 C 9.960001 18.687 10.4470005 19.867 11.463 20.573 C 11.687 20.715 11.892 20.822 12.126 20.915 C 12.141001 20.921001 13.305 21.381 14.454 22.061 C 14.475 22.073 14.497001 22.084002 14.518001 22.098001 C 14.18 22.228 13.819 22.344002 13.429001 22.446001 C 11.525 22.942 10.128 23.0 9.242 23.0 z " fill="#dedede"/>
<rect fill="none" height="30" width="30"/>
</svg>
