<?xml version="1.0" encoding="UTF-8"?>
<svg xmlns="http://www.w3.org/2000/svg" xmlns:xlink="http://www.w3.org/1999/xlink" baseProfile="tiny" contentScriptType="text/ecmascript" contentStyleType="text/css" height="70px" preserveAspectRatio="xMidYMid meet" version="1.1" viewBox="0 0 70 70" width="70px" x="0px" y="0px" zoomAndPan="magnify">
<defs/>
<rect color="#000000" display="inline" fill="#646464" fill-opacity="0.58823532" fill-rule="nonzero" height="48" ry="8.2174387" stroke="none" visibility="visible" width="48" x="11" y="11"/>
<path d="M 52.294876 25.223152 L 43.875988 25.223152 L 43.875988 33.645348 L 46.280087 33.645348 L 46.280087 36.1032 C 46.280087 37.59015 45.01312 38.102062 44.694725 38.212055 L 38.15727 40.64096 C 37.600697 40.855156 37.104496 41.098293 36.656258 41.35549 L 36.656258 25.22315 L 40.13546 25.22315 L 34.784744 15.599321 L 29.438171 25.22315 L 33.04473 25.22315 L 33.04473 41.32737 C 32.593185 41.063557 32.09285 40.818764 31.529663 40.603745 L 24.94176 38.1583 C 24.687044 38.068157 23.42173 37.557068 23.42173 36.06929 L 23.42173 34.492195 C 25.1849 33.777664 26.428713 32.055016 26.428713 30.037128 C 26.428713 27.378317 24.276024 25.2248 21.618038 25.2248 C 18.961708 25.2248 16.805712 27.378317 16.805712 30.037128 C 16.805712 32.054188 18.05035 33.77601 19.812693 34.49054 L 19.812693 36.070946 C 19.812693 39.44015 22.446695 41.156178 23.75088 41.56472 L 30.254429 43.981224 C 32.83716 44.969498 33.033985 46.486217 33.044735 46.6847 L 33.044735 47.301643 C 31.626425 47.976475 30.642292 49.41381 30.642292 51.08849 C 30.642292 53.416492 32.528687 55.30124 34.851734 55.30124 C 37.177265 55.30124 39.063656 53.417328 39.063656 51.08849 C 39.063656 49.413803 38.075382 47.97813 36.655422 47.301643 L 36.655422 46.669815 C 36.655422 46.654926 36.77782 45.03731 39.430843 44.01927 L 45.86327 41.62675 C 47.2576 41.19092 49.888294 39.473236 49.888294 36.10486 L 49.888294 33.647007 L 52.29487 33.647007 L 52.29487 25.223158 L 52.29487 25.223158 z " fill="#ffffff" fill-opacity="1"/>
<linearGradient gradientTransform="matrix(1 0 0 -1 -272.0996 -325.4004)" gradientUnits="userSpaceOnUse" x1="307.0996" x2="307.0996" xlink:actuate="onLoad" xlink:show="other" xlink:type="simple" y1="-384.4023" y2="-336.3975">
<stop offset="0" stop-color="#d0cbc5"/>
<stop offset="0.5031" stop-color="#fafcef"/>
<stop offset="0.9693" stop-color="#ffffff"/>
<stop offset="1" stop-color="#ffffff"/>
</linearGradient>
</svg>
