<?xml version="1.0" encoding="UTF-8"?>
<svg xmlns="http://www.w3.org/2000/svg" xmlns:xlink="http://www.w3.org/1999/xlink" baseProfile="tiny" contentScriptType="text/ecmascript" contentStyleType="text/css" height="37px" preserveAspectRatio="xMidYMid meet" version="1.1" viewBox="0 0 37 37" width="37px" x="0px" y="0px" zoomAndPan="magnify">
<defs>
<linearGradient gradientUnits="userSpaceOnUse" x1="18.5005" x2="18.5005" xlink:actuate="onLoad" xlink:show="other" xlink:type="simple" y1="23.889601" y2="13.1118">
<stop offset="0" stop-color="#ffffff"/>
<stop offset="1" stop-color="#ffffff" stop-opacity="0"/>
</linearGradient>
<linearGradient gradientUnits="userSpaceOnUse" x1="17.9604" x2="17.9604" xlink:actuate="onLoad" xlink:show="other" xlink:type="simple" y1="10.4604" y2="25.333">
<stop offset="0" stop-color="#1d1d1b" stop-opacity="0.2"/>
<stop offset="1" stop-color="#1d1d1b" stop-opacity="0.05"/>
</linearGradient>
<linearGradient gradientUnits="userSpaceOnUse" x1="17.9604" x2="17.9604" xlink:actuate="onLoad" xlink:show="other" xlink:type="simple" y1="10.4604" y2="25.333">
<stop offset="0" stop-color="#1d1d1b" stop-opacity="0.4"/>
<stop offset="1" stop-color="#1d1d1b" stop-opacity="0.05"/>
</linearGradient>
<linearGradient gradientUnits="userSpaceOnUse" id="linearGradient3064" x1="18.5005" x2="18.5005" xlink:actuate="onLoad" xlink:show="other" xlink:type="simple" y1="23.889601" y2="13.1118">
<stop offset="0" stop-color="#ffffff"/>
<stop offset="1" stop-color="#ffffff" stop-opacity="0"/>
</linearGradient>
</defs>
<path d="M 31.725 13.111 L 0.0 13.111 L 0.0 23.89 L 31.725 23.89 C 36.373 23.89 37.0 21.167 37.0 18.509 C 37.0 15.841 36.373 13.111 31.725 13.111 z " fill="url(#linearGradient3064)" fill-opacity="0.2" stroke-opacity="0.2"/>
<path d="M 31.725 14.189 L 0.0 14.189 L 0.0 22.812 L 31.725 22.812 C 35.174 22.812 35.922 21.294 35.922 18.508 C 35.922 15.709 35.15 14.188999 31.725 14.188999 z " fill="#575757" fill-opacity="0.78039217"/>
<rect fill="none" height="37" width="37" x="0" y="0"/>
</svg>
