<?xml version="1.0" encoding="UTF-8"?>
<svg xmlns="http://www.w3.org/2000/svg" xmlns:xlink="http://www.w3.org/1999/xlink" baseProfile="tiny" contentScriptType="text/ecmascript" contentStyleType="text/css" height="27px" preserveAspectRatio="xMidYMid meet" version="1.1" viewBox="0 0 27 27" width="27px" x="0px" y="0px" zoomAndPan="magnify">
<rect fill="none" height="27" width="27"/>
<defs>
<linearGradient gradientUnits="userSpaceOnUse" x1="11.645" x2="11.645" xlink:actuate="onLoad" xlink:show="other" xlink:type="simple" y1="23.9873" y2="3.0005">
<stop offset="0" stop-color="#d0cbc5"/>
<stop offset="1" stop-color="#fcfcf9"/>
</linearGradient>
</defs>
<rect color="#000000" display="inline" fill="#575757" fill-opacity="1" fill-rule="nonzero" height="27" stroke="none" stroke-width="4" visibility="visible" width="27" x="0" y="0"/>
<g transform="matrix(0.86746703,0,0,0.86746703,0.72873231,1.343748)">
<path d="M 11.809138 21.35104 C 11.809138 19.446793 13.745324 17.89819 16.125202 17.89819 C 16.311657 17.89819 16.49293 17.92409 16.675932 17.94394 C 16.671633 17.94134 16.664711 17.93874 16.660393 17.93614 C 15.898177 17.406124 15.508867 16.4635 15.474339 16.321932 C 15.362984 15.886872 15.268893 15.427644 15.422548 15.280034 C 16.193398 14.6058655 16.496384 13.00029 16.496384 13.00029 C 16.517963 12.93727 16.539543 12.877714 16.559404 12.822468 C 16.738089 13.044313 16.87534 12.909648 16.987556 12.656731 L 16.987556 10.129247 C 16.987556 9.714042 17.141209 9.336818 17.387224 9.038147 C 17.408804 8.886222 17.422615 8.72998 17.423473 8.558201 C 17.426973 7.5085344 17.6833 7.1261315 16.622412 5.5179663 C 16.292665 5.0199246 15.841205 4.9379196 13.962854 4.3241754 C 12.084503 3.7095683 11.817772 4.489049 11.198847 4.4139495 C 10.574746 4.3397136 10.486697 4.5934978 10.368437 4.820523 C 10.249313 5.044958 10.368437 5.2245064 10.027467 5.2383175 C 9.689088 5.2538543 9.537163 5.5179977 9.537163 5.5179977 C 8.523751 7.1572385 8.902701 7.649269 8.865583 8.699799 C 8.846592 9.256571 8.938093 9.673502 9.223817 10.441761 L 9.19274 10.400331 C 9.19274 10.400331 8.795663 10.2112875 8.823284 10.755974 C 8.823284 10.755974 8.768903 10.925163 8.996791 11.653715 C 9.127136 12.070647 9.230721 13.23771 9.62003 12.868254 C 9.634706 12.912273 9.647653 12.955434 9.663192 13.000326 C 9.663192 13.000326 9.967906 14.605038 10.737028 15.28007 C 10.89327 15.42768 10.794868 15.886909 10.687828 16.321968 C 10.642938 16.48857 10.426274 17.621965 9.067577 18.171833 C 9.067577 18.171833 7.8288684 18.656096 6.578073 19.39328 C 6.578073 19.39328 5.7433467 19.817118 5.5698404 20.520636 L 5.5508504 20.624222 C 6.2604113 21.033386 7.0942745 21.367447 8.067978 21.622095 C 9.687365 22.044207 10.958014 22.171099 11.957613 22.203037 C 11.869563 21.929398 11.80914 21.64713 11.80914 21.351046 z " fill="#ffffff" fill-opacity="1"/>
<path d="M 23.894112 10.129278 L 18.714838 9.266066 C 18.237482 9.266066 17.851625 9.652784 17.851625 10.129277 L 17.851625 11.855702 L 17.851625 19.120499 C 17.342329 18.897789 16.757072 18.761402 16.1252 18.761402 C 14.218363 18.761402 12.67235 19.920696 12.67235 21.35104 C 12.67235 22.781384 14.218363 23.940678 16.1252 23.940678 C 18.032036 23.940678 19.57805 22.781384 19.57805 21.35104 L 19.57805 12.850124 L 23.894112 13.582129 L 23.894112 10.129278 z " fill="#ffffff" fill-opacity="1"/>
</g>
</svg>
