<?xml version="1.0" encoding="UTF-8"?>
<svg xmlns="http://www.w3.org/2000/svg" xmlns:xlink="http://www.w3.org/1999/xlink" baseProfile="tiny" contentScriptType="text/ecmascript" contentStyleType="text/css" height="30px" preserveAspectRatio="xMidYMid meet" version="1.1" viewBox="0 0 30 30" width="30px" x="0px" y="0px" zoomAndPan="magnify">
<defs/>
<path d="M 20.975 14.5 L 21.0 14.5 L 21.0 12.535 L 13.691 19.844 C 14.114 19.938 14.549 20.0 15.0 20.0 C 18.146 20.0 20.721 17.58 20.975 14.5 z " fill="#ffffff"/>
<path d="M 9.693 16.771 L 20.836 5.629 C 20.215 2.977 17.842 1.0 15.0 1.0 C 11.686 1.0 9.0 3.687 9.0 7.0 L 9.0 14.5 L 9.025 14.5 C 9.093 15.316 9.332 16.08 9.693 16.771 z " fill="#ffffff"/>
<path d="M 8.227 18.238 C 7.454 17.008 7.0 15.557 7.0 14.0 C 7.0 13.447 6.553 13.0 6.0 13.0 C 5.447 13.0 5.0 13.447 5.0 14.0 C 5.0 16.111 5.658 18.07 6.778 19.687 L 8.227 18.238 z " fill="#ffffff"/>
<path d="M 24.0 13.0 C 23.447 13.0 23.0 13.447 23.0 14.0 C 23.0 18.411 19.411 22.0 15.0 22.0 C 13.973 22.0 12.994 21.799 12.091 21.444 L 10.570999 22.964 C 11.331999 23.341002 12.145999 23.624 12.999999 23.799 L 12.999999 26.0 L 10.999999 26.0 C 10.446999 26.0 9.999999 26.448 9.999999 27.0 C 9.999999 27.553 10.446999 28.0 10.999999 28.0 L 19.0 28.0 C 19.553 28.0 20.0 27.553 20.0 27.0 C 20.0 26.448 19.553 26.0 19.0 26.0 L 17.0 26.0 L 17.0 23.799 C 21.559 22.869 25.0 18.829 25.0 14.0 C 25.0 13.447 24.553 13.0 24.0 13.0 z " fill="#ffffff"/>
<path d="M 2.0 29.0 C 1.744 29.0 1.4879999 28.902 1.293 28.707 C 0.902 28.316 0.902 27.684 1.293 27.293 L 27.293 1.2930012 C 27.684 0.90200114 28.316 0.90200114 28.707 1.2930012 C 29.097998 1.6840012 29.098 2.3160012 28.707 2.7070012 L 2.7069988 28.707 C 2.512 28.902 2.256 29.0 2.0 29.0 L 2.0 29.0 z " fill="#fa664b"/>
<rect fill="none" height="30" width="30"/>
</svg>
