<?xml version="1.0" encoding="UTF-8"?>
<svg xmlns="http://www.w3.org/2000/svg" xmlns:xlink="http://www.w3.org/1999/xlink" baseProfile="tiny" contentScriptType="text/ecmascript" contentStyleType="text/css" height="30px" preserveAspectRatio="xMidYMid meet" version="1.1" viewBox="0 0 30 30" width="30px" x="0px" y="0px" zoomAndPan="magnify">
<rect color="#000000" display="inline" fill="#353535" fill-opacity="0.58823529" fill-rule="nonzero" height="27.533897" ry="4.7137108" stroke="none" visibility="visible" width="27.533897" x="1.2330513" y="1.2330513"/>
<path d="M 23.181818 6.0 L 6.8181815 6.0 C 6.3681817 6.0 6.0 6.311727 6.0 6.6921816 L 6.0 23.308636 C 6.0 23.688272 6.3681817 24.0 6.8181815 24.0 L 23.181818 24.0 C 23.63182 24.0 24.0 23.688272 24.0 23.307816 L 24.0 6.6921816 C 24.0 6.311727 23.63182 6.0 23.181818 6.0 z M 20.727272 18.272728 L 9.272726 18.272728 C 8.820272 18.272728 8.454544 17.907 8.454544 17.454546 C 8.454544 17.002092 8.820272 16.636366 9.272726 16.636366 L 20.727272 16.636366 C 21.179726 16.636366 21.545454 17.002092 21.545454 17.454546 C 21.545454 17.907 21.179726 18.272728 20.727272 18.272728 z M 20.727272 15.000001 L 9.272726 15.000001 C 8.820272 15.000001 8.454544 14.634274 8.454544 14.181819 C 8.454544 13.729365 8.820272 13.363637 9.272726 13.363637 L 20.727272 13.363637 C 21.179726 13.363637 21.545454 13.729365 21.545454 14.181819 C 21.545456 14.634272 21.179728 15.0 20.727272 15.0 z M 20.727272 11.727273 L 9.272726 11.727273 C 8.820272 11.727273 8.454544 11.361545 8.454544 10.909091 C 8.454544 10.456636 8.820272 10.090909 9.272726 10.090909 L 20.727272 10.090909 C 21.179726 10.090909 21.545454 10.456636 21.545454 10.909091 C 21.545454 11.361545 21.179726 11.727273 20.727272 11.727273 z " fill="#dedede"/>
</svg>
