<?xml version="1.0" encoding="UTF-8"?>
<svg xmlns="http://www.w3.org/2000/svg" xmlns:xlink="http://www.w3.org/1999/xlink" baseProfile="tiny" contentScriptType="text/ecmascript" contentStyleType="text/css" height="27" preserveAspectRatio="xMidYMid meet" version="1.1" viewBox="0 0 27 27" width="27" x="0" y="0" zoomAndPan="magnify">
<rect fill="none" height="24.579" width="29.187" x="-1.667" y="1.21"/>
<path d="M 24.687 4.187 L 16.865 4.187 C 15.91 4.188 15.135 4.962 15.135 5.919 L 15.135 13.737 C 15.135 14.693 15.91 15.468 16.865 15.47 L 24.687 15.47 C 25.643 15.468 26.417 14.693 26.417 13.737 L 26.417 5.919 C 26.417 4.962 25.645 4.188 24.687 4.187 z " fill-opacity="0.4" stroke-opacity="0.4"/>
<path d="M 24.688 4.801 L 16.867 4.801 C 16.251 4.801 15.75 5.304 15.75 5.919 L 15.75 13.737 C 15.75 14.353 16.251 14.855 16.867 14.855 L 24.688 14.855 C 25.303 14.855 25.804 14.355 25.804 13.737 L 25.804 5.919 C 25.804 5.305 25.303 4.801 24.688 4.801 z M 23.225 11.59 L 22.028 10.394 C 22.028 10.394 20.544 11.881 19.92 12.504 L 19.92 12.505 C 18.883 13.576 16.912 13.06 16.894 10.389 C 17.021 11.221 17.981 12.102 18.785 11.388 L 20.903 9.267 L 19.707 8.07 L 24.667 6.63 L 23.225 11.59 z " fill="#dedede"/>
<g>
<path d="M 21.319 18.461 L 17.943 17.195 C 17.172 16.793 16.722 17.326 16.722 17.326 L 15.076 18.797 C 15.201 18.654 13.67 20.391 9.232 16.09 L 9.232 16.09 L 9.018 15.875 L 9.018 15.873 C 4.714 11.433 6.452 9.905 6.31 10.029 L 7.721 8.33 C 7.721 8.33 8.257 7.8771 7.854 7.11 L 6.593 3.734 C 6.593 3.734 6.18 2.952 5.468 3.123 C 0.39 4.333 1.785 9.647 1.785 9.647 C 2.497 13.453 5.437 16.597 6.431 17.566 L 6.427 17.57 L 7.87 19.013 L 7.877 19.005 C 9.149 20.226 12.015 22.632 15.405 23.267 C 15.405 23.267 20.72 24.662 21.931 19.581 C 22.099 18.869 21.319 18.461 21.319 18.461 z " fill-opacity="0.3" stroke-opacity="0.3"/>
<path d="M 16.986 25.008 C 15.982 25.008 15.237 24.817 15.207 24.809 C 11.795 24.168 8.896 21.834 7.425 20.438 C 7.387 20.413 7.35 20.383 7.316 20.348 L 5.873 18.907 C 5.85 18.884 5.827 18.86 5.808 18.8331 C 4.7771 17.8131 1.759 14.5421 1.016 10.5751 C 1.0 10.5171 0.3191 7.8421 1.643 5.6351 C 2.395 4.378 3.621 3.54 5.288 3.143 C 5.414 3.113 5.542 3.097 5.67 3.097 C 6.698 3.097 7.228 4.041 7.285 4.148 C 7.301 4.177 7.315 4.209 7.327 4.24 L 8.571 7.575 C 9.049 8.535 8.632 9.313 8.291 9.647 C 8.291 9.647 6.949 11.266 6.944 11.273 C 6.935 11.287 6.203 12.623 9.581 16.106 C 9.59 16.118 9.787 16.317 9.787 16.317 C 12.217 18.671 13.6 19.0219 14.206 19.0219 C 14.464 19.0219 14.589 18.958 14.615 18.942 L 16.1739 17.546 C 16.3209 17.398 16.7349 17.044 17.3859 17.044 C 17.6759 17.044 17.9709 17.116 18.2579 17.261 L 21.5939 18.5089 C 21.6249 18.5189 21.6549 18.5339 21.6839 18.5479 C 22.1739 18.8079 22.9349 19.5149 22.6899 20.5459 C 21.766 24.43 18.72 25.008 16.986 25.008 L 16.986 25.008 z " fill-opacity="0.15" stroke-opacity="0.15"/>
<path d="M 21.319 19.242 L 17.943 17.976 C 17.172 17.576 16.722 18.111 16.722 18.111 L 15.076 19.58 C 15.201 19.435 13.67 21.176 9.232 16.873 L 9.232 16.873 L 9.018 16.656 L 9.018 16.654 C 4.714 12.216 6.452 10.687 6.31 10.811 L 7.721 9.112 C 7.721 9.112 8.257 8.658 7.854 7.8911 L 6.593 4.516 C 6.593 4.516 6.18 3.735 5.468 3.905 C 0.39 5.115 1.785 10.43 1.785 10.43 C 2.497 14.236 5.437 17.379 6.431 18.349 L 6.427 18.353 L 7.87 19.796 L 7.877 19.79 C 9.149 21.007 12.015 23.415 15.405 24.05 C 15.405 24.05 20.72 25.443 21.931 20.364 C 22.099 19.652 21.319 19.242 21.319 19.242 z " fill-opacity="0.15" stroke-opacity="0.15"/>
<path d="M 21.319 19.242 L 17.943 17.976 C 17.172 17.576 16.722 18.111 16.722 18.111 L 15.076 19.58 C 15.201 19.435 13.67 21.176 9.232 16.873 L 9.232 16.873 L 9.018 16.656 L 9.018 16.654 C 4.714 12.216 6.452 10.687 6.31 10.811 L 7.721 9.112 C 7.721 9.112 8.257 8.658 7.854 7.8911 L 6.593 4.516 C 6.593 4.516 6.18 3.735 5.468 3.905 C 0.39 5.115 1.785 10.43 1.785 10.43 C 2.497 14.236 5.437 17.379 6.431 18.349 L 6.427 18.353 L 7.87 19.796 L 7.877 19.79 C 9.149 21.007 12.015 23.415 15.405 24.05 C 15.405 24.05 20.72 25.443 21.931 20.364 C 22.099 19.652 21.319 19.242 21.319 19.242 z " fill="#dedede"/>
<rect fill="none" height="23.475" width="23.475" x="0.044" y="2.314"/>
</g>
</svg>
