<?xml version="1.0" encoding="UTF-8"?>
<svg xmlns="http://www.w3.org/2000/svg" xmlns:xlink="http://www.w3.org/1999/xlink" baseProfile="tiny" contentScriptType="text/ecmascript" contentStyleType="text/css" height="57px" preserveAspectRatio="xMidYMid meet" version="1.1" viewBox="0 0 67 57" width="67px" x="0px" y="0px" zoomAndPan="magnify">
<rect fill="#ffffff" fill-opacity="0.70588235" fill-rule="nonzero" height="48" ry="8.2174387" stroke="none" width="48" x="9.4999971" y="4.500001"/>
<rect fill="#1083ff" fill-opacity="0.58823532" fill-rule="nonzero" height="48" ry="8.2174387" stroke="none" width="48" x="9.5" y="4.5"/>
<rect fill="none" height="57" width="67"/>
<rect fill="none" height="46" width="46" x="10.5" y="5.5"/>
<path d="M 33.499653 23.576763 C 30.099926 23.576763 27.34578 26.330908 27.34578 29.731337 C 27.34578 33.12967 30.099928 35.885204 33.499653 35.885204 C 36.89938 35.885204 39.653526 33.12967 39.653526 29.731333 C 39.653526 26.33091 36.89938 23.57676 33.499653 23.57676 z M 33.499653 34.244125 C 31.010555 34.244125 28.987556 32.219734 28.987556 29.73133 C 28.987556 27.242231 31.010555 25.218538 33.499653 25.218538 C 35.988747 25.218538 38.012444 27.242231 38.012444 29.73133 C 38.012444 32.219734 35.988747 34.244125 33.499653 34.244125 z M 47.85892 17.833334 L 25.7047 17.833334 C 25.7047 16.926878 24.96938 16.192255 24.063623 16.192255 L 21.60235 16.192255 C 20.695898 16.192255 19.961967 16.927574 19.961967 17.833334 L 19.14108 17.833334 C 18.234625 17.833334 17.499998 18.56796 17.499998 19.473717 L 17.499998 39.16737 C 17.499998 40.07382 18.235315 40.807747 19.14108 40.807747 L 47.858917 40.807747 C 48.765373 40.807747 49.499996 40.073124 49.499996 39.16737 L 49.499996 19.47372 C 49.499996 18.56796 48.764675 17.833336 47.858917 17.833336 z M 22.422537 22.756573 C 21.515385 22.756573 20.782154 22.021254 20.782154 21.115494 C 20.782154 20.209734 21.516085 19.474417 22.422537 19.474417 C 23.32899 19.474417 24.062922 20.21043 24.062922 21.115494 C 24.063616 22.021946 23.329687 22.756573 22.422537 22.756573 z M 33.49965 37.526287 C 29.194162 37.526287 25.704697 34.036125 25.704697 29.731337 C 25.704697 25.425846 29.194164 21.936382 33.49965 21.936382 C 37.805138 21.936382 41.2946 25.425154 41.2946 29.731337 C 41.2946 34.03612 37.805138 37.526287 33.49965 37.526287 z M 47.07768 21.935684 L 42.115498 21.935684 L 42.115498 19.748508 L 47.07768 19.748508 L 47.07768 21.935682 z " fill="#ffffff" fill-opacity="1" stroke-opacity="0.3"/>
<defs>
<linearGradient gradientUnits="userSpaceOnUse" x1="33.5005" x2="33.5005" xlink:actuate="onLoad" xlink:show="other" xlink:type="simple" y1="45.6924" y2="10.3081">
<stop offset="0" stop-color="#d0cbc5"/>
<stop offset="0.5031" stop-color="#fafcef"/>
<stop offset="0.9693" stop-color="#ffffff"/>
<stop offset="1" stop-color="#ffffff"/>
</linearGradient>
</defs>
</svg>
