<?xml version="1.0" encoding="UTF-8"?>
<svg xmlns="http://www.w3.org/2000/svg" xmlns:xlink="http://www.w3.org/1999/xlink" baseProfile="tiny" contentScriptType="text/ecmascript" contentStyleType="text/css" height="30px" preserveAspectRatio="xMidYMid meet" version="1.1" viewBox="0 0 30 30" width="30px" x="0px" y="0px" zoomAndPan="magnify">
<rect fill="none" height="30" width="30"/>
<path d="M 28.768 25.389 L 14.07 10.69 C 16.181 8.999 17.446 8.724999 18.042 8.724999 C 18.41 8.724999 18.562 8.8289995 18.563 8.8289995 C 18.567 8.832 20.629 10.542999 20.629 10.542999 C 20.831 10.747 21.352 11.171999 22.161999 11.171999 C 22.532999 11.171999 22.907999 11.079999 23.275 10.897999 L 27.536 9.305999 C 27.577 9.290998 27.616 9.273999 27.654 9.252998 C 28.279 8.921998 29.254 8.011998 28.939999 6.7009983 C 27.76 1.741 23.869 1.0 21.655 1.0 C 20.383001 1.0 19.435001 1.242 19.445 1.242 C 19.445 1.242 19.445 1.242 19.446 1.2409999 C 15.251999 2.026 11.685999 4.7819996 9.838999 6.46 L 4.768 1.389 C 4.295 0.916 3.668 0.656 3.0 0.656 C 2.332 0.656 1.705 0.916 1.232 1.388 C 0.25699997 2.363 0.25699997 3.9490001 1.232 4.9230003 L 6.4 10.092 C 6.2530003 10.151 6.116 10.234 6.01 10.356 C 4.224 12.422 1.947 15.677 1.2540002 19.378 C 1.2170002 19.522 0.3500002 22.94 2.0420003 25.76 C 3.0050004 27.364 4.571 28.435 6.7000003 28.942 C 6.862 28.98 7.027 29.0 7.189 29.0 C 8.505 29.0 9.179 27.794 9.252 27.656 C 9.272 27.619 9.289 27.58 9.304 27.541 L 10.9 23.278 C 11.516999 22.032999 10.962999 21.028 10.528 20.612 L 8.75 18.622 C 8.542 18.298 8.444 16.956 10.378 14.434999 C 10.436 14.360999 10.469 14.275999 10.502 14.191999 L 25.233 28.923 C 25.706 29.396 26.333 29.655 27.001 29.655 C 27.668999 29.655 28.296 29.395 28.769 28.923 C 29.742 27.949 29.742 26.363 28.768 25.389 z " fill-opacity="0.15"/>
<path d="M 9.814 20.314 L 7.9350004 18.212 C 8.094001 18.35 6.4600005 16.898 9.583 12.826 L 6.768 10.01 C 5.135 11.899 2.9 15.023001 2.223 18.631 C 2.223 18.631 0.444 25.424 6.933 26.969002 C 7.843 27.186 8.368 26.191002 8.368 26.191002 L 9.983 21.876001 C 10.496 20.893 9.814 20.314 9.814 20.314 z M 28.061 25.096 L 12.594 9.629 C 17.550999 5.238 19.291 7.179 19.143 7.0099998 L 21.314 8.812 C 21.314 8.812 21.893 9.497001 22.873999 8.982 L 27.188 7.3710003 C 27.188 7.3710003 28.185999 6.8430004 27.969 5.934 C 26.421999 -0.5580001 19.630001 1.2249999 19.630001 1.2249999 C 15.1 2.073 11.317001 5.3789997 9.819001 6.855 L 4.061 1.096 C 3.475 0.50999993 2.526 0.50999993 1.9399998 1.096 C 1.3539996 1.6819999 1.3539999 2.631 1.9399998 3.217 L 25.94 27.217 C 26.233 27.509998 26.617 27.655998 27.001001 27.655998 C 27.385002 27.655998 27.769001 27.509998 28.062002 27.217 C 28.646 26.631 28.646 25.682 28.061 25.096 z " fill-opacity="0.3"/>
<path d="M 9.814 21.314 L 7.9350004 19.212 C 8.094001 19.35 6.4600005 17.898 9.583 13.826 L 6.768 11.01 C 5.135 12.899 2.9 16.023 2.223 19.631 C 2.223 19.631 0.444 26.424 6.933 27.969002 C 7.843 28.186 8.368 27.191002 8.368 27.191002 L 9.983 22.876001 C 10.496 21.893 9.814 21.314 9.814 21.314 z " fill="#dedede"/>
<path d="M 28.061 26.096 L 12.594 10.629 C 17.550999 6.238 19.291 8.179 19.143 8.01 L 21.314 9.812 C 21.314 9.812 21.893 10.497001 22.873999 9.982 L 27.188 8.371 C 27.188 8.371 28.185999 7.8430004 27.969 6.934 C 26.421999 0.4419999 19.630001 2.225 19.630001 2.225 C 15.1 3.073 11.317001 6.3789997 9.819001 7.855 L 4.061 2.096 C 3.475 1.51 2.526 1.51 1.9399998 2.096 C 1.3539996 2.682 1.3539999 3.631 1.9399998 4.217 L 25.94 28.217 C 26.233 28.509998 26.617 28.655998 27.001001 28.655998 C 27.385002 28.655998 27.769001 28.509998 28.062002 28.217 C 28.646 27.631 28.646 26.682 28.061 26.096 z " fill="#dedede"/>
</svg>
