<?xml version="1.0" encoding="UTF-8"?>
<svg xmlns="http://www.w3.org/2000/svg" xmlns:xlink="http://www.w3.org/1999/xlink" baseProfile="tiny" contentScriptType="text/ecmascript" contentStyleType="text/css" height="57px" preserveAspectRatio="xMidYMid meet" version="1.1" viewBox="0 0 67 57" width="67px" x="0px" y="0px" zoomAndPan="magnify">
<rect fill="#ffffff" fill-opacity="0.70588235" fill-rule="nonzero" height="48" ry="8.2174387" stroke="none" width="48" x="9.5" y="5.5"/>
<rect color="#000000" display="inline" fill="#f6da42" fill-opacity="0.58823528999999997" fill-rule="nonzero" height="48" ry="8.2174387" stroke="none" visibility="visible" width="48" x="9.5" y="5.5"/>
<rect fill="none" height="57" width="67"/>
<path d="M 33.677383 17.228975 L 42.298256 17.228975 L 42.298256 12.709135 L 17.665052 12.709135 L 17.665052 17.228975 L 26.285925 17.228975 L 26.285925 43.5757 L 30.12651 43.5757 L 30.12651 28.342442 L 33.676636 31.893316 L 33.676636 17.228975 z M 45.88741 35.719643 L 35.37964 35.719643 L 31.62687 31.96687 L 31.62687 44.7263 C 31.62687 46.72878 33.255573 48.479073 35.37964 48.479073 L 45.88741 48.479073 C 48.008476 48.479073 49.640182 46.72878 49.640182 44.7263 L 49.640182 39.472416 C 49.640182 37.469185 48.008476 35.719643 45.88741 35.719643 z M 35.37964 43.600468 C 34.55103 43.600468 33.878532 42.92797 33.878532 42.09936 C 33.878532 41.270744 34.55103 40.598248 35.37964 40.598248 C 36.208256 40.598248 36.880753 41.270744 36.880753 42.09936 C 36.880753 42.92797 36.208256 43.600468 35.37964 43.600468 z M 40.63353 43.600468 C 39.804913 43.600468 39.132416 42.92797 39.132416 42.09936 C 39.132416 41.270744 39.804913 40.598248 40.63353 40.598248 C 41.46214 40.598248 42.134636 41.270744 42.134636 42.09936 C 42.134636 42.92797 41.46214 43.600468 40.63353 43.600468 z M 45.88741 43.600468 C 45.058796 43.600468 44.3863 42.92797 44.3863 42.09936 C 44.3863 41.270744 45.058796 40.598248 45.88741 40.598248 C 46.716022 40.598248 47.38852 41.270744 47.38852 42.09936 C 47.38852 42.92797 46.716022 43.600468 45.88741 43.600468 z " fill="#ffffff" fill-opacity="1"/>
<defs>
<linearGradient gradientUnits="userSpaceOnUse" x1="38.4834" x2="38.4834" xlink:actuate="onLoad" xlink:show="other" xlink:type="simple" y1="53.3291" y2="5.6714">
<stop offset="0" stop-color="#cfcac4"/>
<stop offset="0.5031" stop-color="#fafaef"/>
<stop offset="0.9693" stop-color="#ffffff"/>
<stop offset="1" stop-color="#ffffff"/>
</linearGradient>
</defs>
</svg>
