<?xml version="1.0" encoding="UTF-8"?>
<!DOCTYPE svg PUBLIC "-//W3C//DTD SVG 1.1 Tiny//EN" "http://www.w3.org/Graphics/SVG/1.1/DTD/svg11-tiny.dtd">
<svg baseProfile="tiny" height="30px" version="1.1" viewBox="0 0 30 30" width="30px" x="0px" xmlns="http://www.w3.org/2000/svg" xmlns:xlink="http://www.w3.org/1999/xlink" y="0px">
<rect fill="none" height="30" width="30"/>
<g>
<path d="M25.609,11.484h-8.064V3.421c0-0.272-0.106-0.531-0.303-0.727s-0.454-0.304-0.727-0.304h-3.032   c-0.568,0-1.031,0.462-1.031,1.03v8.063H4.391c-0.568,0-1.031,0.462-1.031,1.03v3.031c0,0.568,0.462,1.03,1.031,1.03h8.062v8.063   c0,0.567,0.462,1.029,1.031,1.029h3.032c0.567,0,1.029-0.462,1.029-1.029v-8.063h8.064c0.568,0,1.03-0.462,1.03-1.03v-3.031   C26.64,11.946,26.178,11.484,25.609,11.484z" fill-opacity="0.3" stroke-opacity="0.3"/>
<path d="M13.483,27.609c-1.103,0-2-0.897-2-2v-7.093H4.391c-1.103,0-2-0.897-2-2.001v-3.031c0-1.103,0.897-2,2-2   h7.092V4.392c0-1.103,0.897-2,2-2h3.032c0.531,0,1.033,0.208,1.412,0.588c0.379,0.377,0.588,0.88,0.588,1.413v7.093h7.094   c1.104,0,2.001,0.897,2.001,2v3.031c0,1.104-0.897,2.001-2.001,2.001h-7.094v7.093c0,1.103-0.897,2-2,2H13.483z" fill-opacity="0.15" stroke-opacity="0.15"/>
<path d="M25.609,12.454h-8.064V4.392c0-0.273-0.106-0.531-0.303-0.727c-0.196-0.196-0.454-0.304-0.727-0.304h-3.032   c-0.568,0-1.031,0.462-1.031,1.031v8.063H4.391c-0.568,0-1.031,0.462-1.031,1.031v3.031c0,0.568,0.462,1.03,1.031,1.03h8.062v8.063   c0,0.567,0.462,1.029,1.031,1.029h3.032c0.567,0,1.029-0.462,1.029-1.029v-8.063h8.064c0.568,0,1.03-0.462,1.03-1.03v-3.031   C26.64,12.917,26.178,12.454,25.609,12.454z" fill-opacity="0.15" stroke-opacity="0.15"/>
<path d="M25.609,12.454h-8.064V4.392c0-0.273-0.106-0.531-0.303-0.727c-0.196-0.196-0.454-0.304-0.727-0.304h-3.032   c-0.568,0-1.031,0.462-1.031,1.031v8.063H4.391c-0.568,0-1.031,0.462-1.031,1.031v3.031c0,0.568,0.462,1.03,1.031,1.03h8.062v8.063   c0,0.567,0.462,1.029,1.031,1.029h3.032c0.567,0,1.029-0.462,1.029-1.029v-8.063h8.064c0.568,0,1.03-0.462,1.03-1.03v-3.031   C26.64,12.917,26.178,12.454,25.609,12.454z" fill="#FFFFFF"/>
</g>
</svg>
