<?xml version="1.0" encoding="UTF-8"?>
<svg xmlns="http://www.w3.org/2000/svg" xmlns:xlink="http://www.w3.org/1999/xlink" baseProfile="tiny" contentScriptType="text/ecmascript" contentStyleType="text/css" height="57px" preserveAspectRatio="xMidYMid meet" version="1.1" viewBox="0 0 67 57" width="67px" x="0px" y="0px" zoomAndPan="magnify">
<rect fill="#ffffff" fill-opacity="0.70588235" fill-rule="nonzero" height="48" ry="8.2174387" stroke="none" width="48" x="9.5" y="5.5"/>
<rect color="#000000" display="inline" fill="#f6da42" fill-opacity="0.58823528999999997" fill-rule="nonzero" height="48" ry="8.2174387" stroke="none" visibility="visible" width="48" x="9.5" y="5.5"/>
<g>
<rect fill="none" height="57" width="67"/>
</g>
<g>
<rect fill="none" height="46" width="46" x="10.5" y="5.5"/>
</g>
<defs>
<linearGradient gradientUnits="userSpaceOnUse" x1="34.0156" x2="34.0156" xlink:actuate="onLoad" xlink:show="other" xlink:type="simple" y1="52" y2="4.0005">
<stop offset="0" stop-color="#d0cbc5"/>
<stop offset="0.5031" stop-color="#fafcef"/>
<stop offset="0.9693" stop-color="#ffffff"/>
<stop offset="1" stop-color="#ffffff"/>
</linearGradient>
</defs>
<path d="M 40.589165 15.302939 L 26.392103 15.302939 C 24.901442 15.302939 24.617472 17.48333 24.617472 18.852203 L 24.617472 40.147797 C 24.617472 41.538765 25.045689 43.69706 26.392103 43.69706 L 40.589165 43.69706 C 42.0793 43.69706 42.363796 41.51676 42.363796 40.147797 L 42.363796 18.852203 C 42.363796 17.532043 41.622646 15.302941 40.589165 15.30294 z M 40.589165 38.373165 L 26.392103 38.373165 L 26.392103 18.852207 L 40.589165 18.852207 z " fill="#ffffff" fill-opacity="1" stroke-opacity="0.3"/>
<path d="M 18.110483 29.5 L 22.251291 29.5 C 22.578417 29.5 22.842838 29.23499 22.842838 28.908457 L 22.842838 27.725368 C 22.842838 27.398245 22.578417 27.133823 22.251291 27.133823 L 18.110483 27.133823 C 17.78336 27.133823 17.518942 27.398245 17.518942 27.725368 L 17.518942 28.908457 C 17.518942 29.23499 17.78336 29.5 18.110483 29.5 z M 22.189774 33.34504 C 22.027098 33.06169 21.665071 32.964676 21.382317 33.129124 L 17.795782 35.199528 C 17.513023 35.3622 17.41601 35.723637 17.579868 36.006985 L 18.171412 37.03154 C 18.334677 37.314888 18.696705 37.411903 18.97946 37.248043 L 22.565992 35.17764 C 22.849342 35.014378 22.945765 34.652348 22.781906 34.36959 z M 23.157536 22.480736 L 19.571005 20.410332 C 19.287651 20.247065 18.92622 20.344082 18.762957 20.626837 L 18.17141 21.65139 C 18.008144 21.934149 18.10516 22.296171 18.387917 22.45944 L 21.97445 24.529844 C 22.2578 24.693111 22.619232 24.595505 22.781908 24.31334 L 23.373451 23.288786 C 23.53731 23.005436 23.440891 22.644005 23.157536 22.480736 z " fill="#ffffff" fill-opacity="1" stroke-opacity="0.3"/>
<path d="M 48.88912 27.133823 L 44.74831 27.133823 C 44.421185 27.133823 44.156765 27.398245 44.156765 27.725368 L 44.156765 28.908457 C 44.156765 29.234987 44.421185 29.499998 44.74831 29.499998 L 48.88912 29.499998 C 49.216244 29.499998 49.480663 29.234987 49.480663 28.908457 L 49.480663 27.725368 C 49.480663 27.398245 49.216244 27.133823 48.88912 27.133823 z M 49.20382 35.199528 L 45.617287 33.129124 C 45.33394 32.965267 44.972504 33.062275 44.80983 33.34504 L 44.218285 34.369595 C 44.05502 34.652943 44.151443 35.014378 44.4342 35.177643 L 48.020733 37.248047 C 48.304085 37.411312 48.665516 37.314297 48.82878 37.031544 L 49.420326 36.00699 C 49.58359 35.72364 49.486576 35.36221 49.203823 35.19953 z M 44.809834 23.288784 C 44.972507 23.571545 45.334538 23.669147 45.61729 23.50529 L 49.203823 21.434883 C 49.48717 21.27162 49.584187 20.909002 49.420326 20.626837 L 48.82878 19.602282 C 48.665516 19.319525 48.30349 19.22251 48.020733 19.385777 L 44.4342 21.45618 C 44.15085 21.618856 44.05443 21.98088 44.218285 22.26364 z " fill="#ffffff" fill-opacity="1" stroke-opacity="0.3"/>
</svg>
