<?xml version="1.0" encoding="UTF-8"?>
<svg xmlns="http://www.w3.org/2000/svg" xmlns:xlink="http://www.w3.org/1999/xlink" baseProfile="tiny" contentScriptType="text/ecmascript" contentStyleType="text/css" height="30px" preserveAspectRatio="xMidYMid meet" version="1.1" viewBox="0 0 30 30" width="30px" x="0px" y="0px" zoomAndPan="magnify">
<path d="M 28.0 4.0 L 27.756 4.0 C 27.428001 3.407 26.803001 3.0 26.077 3.0 L 26.0 3.0 L 26.0 2.0 C 26.0 0.89699996 25.104 0.0 24.0 0.0 C 22.896 0.0 22.0 0.897 22.0 2.0 L 22.0 3.27 C 21.797 3.399 21.623 3.565 21.506 3.779 C 21.467 3.85 21.449 3.926 21.423 4.0 L 21.098 4.0 C 21.071 3.925 21.053 3.8470001 21.013 3.776 C 20.739 3.283 20.212 3.0 19.564 3.0 L 10.433 3.0 C 9.787 3.0 9.259 3.283 8.986 3.775 C 8.713 4.269 8.753 4.868 9.096 5.416 L 9.547 6.144 L 7.932 6.144 L 8.3810005 5.42 C 8.725 4.87 8.766001 4.2720003 8.491 3.777 C 8.218 3.283 7.689 3.0 7.042 3.0 L 3.924 3.0 C 2.863 3.0 2.0 3.86 2.0 4.917 L 2.0 25.083 C 2.0 26.141 2.863 27.0 3.924 27.0 L 26.077 27.0 C 27.138 27.0 28.0 26.141 28.0 25.083 L 28.0 8.0 C 29.104 8.0 30.0 7.103 30.0 6.0 C 30.0 4.897 29.104 4.0 28.0 4.0 z " fill-opacity="0.15"/>
<rect fill="none" height="30" width="30"/>
<rect fill="none" height="30" width="30"/>
<path d="M 28.0 4.0 L 25.0 4.0 L 25.0 1.0 C 25.0 0.448 24.553 0.0 24.0 0.0 C 23.447 0.0 23.0 0.448 23.0 1.0 L 23.0 4.0 L 20.0 4.0 C 19.447 4.0 19.0 4.448 19.0 5.0 C 19.0 5.552 19.447 6.0 20.0 6.0 L 23.0 6.0 L 23.0 9.0 C 23.0 9.552 23.447 10.0 24.0 10.0 C 24.553 10.0 25.0 9.552 25.0 9.0 L 25.0 6.0 L 28.0 6.0 C 28.553 6.0 29.0 5.552 29.0 5.0 C 29.0 4.448 28.553 4.0 28.0 4.0 z M 26.0 9.0 C 26.0 10.103 25.104 11.0 24.0 11.0 C 22.896 11.0 22.0 10.103 22.0 9.0 L 22.0 7.0 L 20.0 7.0 C 18.896 7.0 18.0 6.103 18.0 5.0 C 18.0 3.995 18.746 3.1690001 19.713 3.029 C 19.662 3.021 19.623 3.0 19.564 3.0 L 10.433 3.0 C 9.859 3.0 9.641 3.401 9.945 3.889 L 10.794 5.257 C 11.099 5.743 10.879 6.144 10.304999 6.144 L 7.174 6.144 C 6.601 6.144 6.3789997 5.744 6.684 5.257 L 7.534 3.889 C 7.838 3.401 7.616 3.0 7.042 3.0 L 3.924 3.0 C 3.413 3.0 3.0 3.41 3.0 3.917 L 3.0 24.083 C 3.0 24.59 3.413 25.0 3.924 25.0 L 26.077 25.0 C 26.588 25.0 27.0 24.59 27.0 24.083 L 27.0 7.0 L 26.0 7.0 L 26.0 9.0 z M 19.2 20.516 C 19.2 20.625 19.11 20.715 19.0 20.715 L 12.0 20.715 C 11.89 20.715 11.8 20.625 11.8 20.516 L 11.8 19.0 C 11.8 18.89 11.89 18.8 12.0 18.8 L 13.8 18.8 L 13.8 11.804999 L 12.052 12.275999 C 12.035 12.279999 12.018 12.282999 12.0 12.282999 C 11.956 12.282999 11.914 12.267999 11.878 12.240999 C 11.829 12.202999 11.8 12.143999 11.8 12.081999 L 11.8 10.468999 C 11.8 10.388999 11.848001 10.3169985 11.9210005 10.284999 L 15.314 8.815999 L 17.0 8.8 C 17.11 8.8 17.2 8.89 17.2 9.0 L 17.2 18.8 L 19.0 18.8 C 19.11 18.8 19.2 18.89 19.2 19.0 L 19.2 20.516 z " fill-opacity="0.3"/>
<path d="M 28.0 5.0 L 25.0 5.0 L 25.0 2.0 C 25.0 1.448 24.553 1.0 24.0 1.0 C 23.447 1.0 23.0 1.448 23.0 2.0 L 23.0 5.0 L 20.0 5.0 C 19.447 5.0 19.0 5.448 19.0 6.0 C 19.0 6.552 19.447 7.0 20.0 7.0 L 23.0 7.0 L 23.0 10.0 C 23.0 10.552 23.447 11.0 24.0 11.0 C 24.553 11.0 25.0 10.552 25.0 10.0 L 25.0 7.0 L 28.0 7.0 C 28.553 7.0 29.0 6.552 29.0 6.0 C 29.0 5.448 28.553 5.0 28.0 5.0 z M 26.0 10.0 C 26.0 11.103 25.104 12.0 24.0 12.0 C 22.896 12.0 22.0 11.103 22.0 10.0 L 22.0 8.0 L 20.0 8.0 C 18.896 8.0 18.0 7.103 18.0 6.0 C 18.0 4.995 18.746 4.169 19.713 4.0290003 C 19.662 4.021 19.623 4.0 19.564 4.0 L 10.433 4.0 C 9.859 4.0 9.641 4.401 9.945 4.889 L 10.794 6.257 C 11.099 6.743 10.879 7.144 10.304999 7.144 L 7.174 7.144 C 6.601 7.144 6.3789997 6.744 6.684 6.257 L 7.534 4.889 C 7.838 4.401 7.616 4.0 7.042 4.0 L 3.924 4.0 C 3.413 4.0 3.0 4.41 3.0 4.917 L 3.0 25.083 C 3.0 25.59 3.413 26.0 3.924 26.0 L 26.077 26.0 C 26.588 26.0 27.0 25.59 27.0 25.083 L 27.0 8.0 L 26.0 8.0 L 26.0 10.0 z M 19.2 21.516 C 19.2 21.625 19.11 21.715 19.0 21.715 L 12.0 21.715 C 11.89 21.715 11.8 21.625 11.8 21.516 L 11.8 20.0 C 11.8 19.89 11.89 19.8 12.0 19.8 L 13.8 19.8 L 13.8 12.804999 L 12.052 13.275999 C 12.035 13.279999 12.018 13.282999 12.0 13.282999 C 11.956 13.282999 11.914 13.267999 11.878 13.240999 C 11.829 13.202999 11.8 13.143999 11.8 13.081999 L 11.8 11.468999 C 11.8 11.388999 11.848001 11.3169985 11.9210005 11.284999 L 15.314 9.815999 L 17.0 9.8 C 17.11 9.8 17.2 9.89 17.2 10.0 L 17.2 19.8 L 19.0 19.8 C 19.11 19.8 19.2 19.89 19.2 20.0 L 19.2 21.516 z " fill="#dedede"/>
</svg>
