<?xml version="1.0" encoding="UTF-8"?>
<svg xmlns="http://www.w3.org/2000/svg" xmlns:xlink="http://www.w3.org/1999/xlink" baseProfile="tiny" contentScriptType="text/ecmascript" contentStyleType="text/css" height="57px" preserveAspectRatio="xMidYMid meet" version="1.1" viewBox="0 0 67 57" width="67px" x="0px" y="0px" zoomAndPan="magnify">
<rect fill="#ffffff" fill-opacity="0.70588235" fill-rule="nonzero" height="48" ry="8.2174387" stroke="none" width="48" x="8.5" y="5.5"/>
<rect color="#000000" display="inline" fill="#4ed54a" fill-opacity="0.58823528999999997" fill-rule="nonzero" height="48" ry="8.2174387" stroke="none" visibility="visible" width="48" x="8.5" y="5.5"/>
<g>
<rect fill="none" height="57" width="67"/>
</g>
<g>
<rect fill="none" height="46" width="46" x="10.5" y="5.5"/>
</g>
<rect color="#000000" display="inline" fill="#ffffff" fill-opacity="0" fill-rule="nonzero" height="33" ry="0" stroke="none" stroke-width="1" visibility="visible" width="33" x="16" y="13"/>
<rect fill="none" height="44" width="44" x="12" y="7"/>
<defs>
<linearGradient gradientUnits="userSpaceOnUse" x1="33.9995" x2="33.9995" xlink:actuate="onLoad" xlink:show="other" xlink:type="simple" y1="50.4717" y2="7.5278">
<stop offset="0" stop-color="#d0cbc5"/>
<stop offset="0.5031" stop-color="#fafcef"/>
<stop offset="0.9693" stop-color="#ffffff"/>
<stop offset="1" stop-color="#ffffff"/>
</linearGradient>
</defs>
<path d="M 23.658705 11.75 C 23.061592 11.75 21.14202 12.073914 20.064955 12.84375 L 19.783705 13.03125 C 18.656506 13.810522 16.783705 15.056218 16.783705 17.84375 C 16.783705 21.431618 19.569122 27.136038 25.439955 35.03125 C 28.554533 39.219486 31.971708 42.267067 34.971207 44.28125 C 37.970703 46.295433 40.594505 47.25 41.908707 47.25 C 43.104366 47.25 44.410347 46.4659 45.502457 45.4375 C 46.594566 44.4091 47.47182 43.150127 47.877457 42.375 C 48.24757 41.668934 48.26727 41.1087 48.158707 40.65625 C 48.05444 40.221684 47.81412 39.892532 47.658707 39.75 C 47.656406 39.7479 47.629726 39.752 47.627457 39.75 C 47.627155 39.73959 47.627155 39.72916 47.627457 39.71875 C 47.617046 39.71905 47.606617 39.71905 47.596207 39.71875 C 47.596207 39.71875 43.658836 37.0571 41.908707 35.875 C 41.305435 35.46696 40.736313 35.28125 40.189957 35.28125 C 39.505608 35.28125 39.104225 35.5729 39.033707 35.625 C 39.026207 35.6305 38.969925 35.65732 38.971207 35.65625 C 38.971508 35.66666 38.971508 35.67709 38.971207 35.6875 C 38.967808 35.6916 38.590622 36.091255 37.846207 36.71875 C 36.916607 37.501617 35.528362 37.337696 34.564957 36.4375 C 34.245274 36.13924 33.722282 35.506073 33.002457 34.65625 C 32.28263 33.806427 31.404163 32.734398 30.502457 31.625 C 28.69904 29.406202 26.794575 27.016785 25.877457 25.78125 C 25.466358 25.22646 25.24659 24.63183 25.346207 24.03125 C 25.448086 23.411806 25.829628 22.94597 26.221207 22.5625 C 26.612785 22.17903 27.03371 21.882286 27.314957 21.6875 L 27.502457 21.5625 C 28.399979 20.91994 28.478449 19.793385 28.189957 19.03125 C 28.109306 18.819016 27.428995 17.33449 26.783707 15.9375 C 26.138418 14.54051 25.4971 13.144674 25.377457 12.90625 C 25.227882 12.607407 25.037685 12.2985115 24.783707 12.09375 C 24.529726 11.888989 24.20152 11.75 23.658705 11.75 z " fill="#ffffff" fill-opacity="1" fill-rule="nonzero" stroke="none"/>
</svg>
