<?xml version="1.0" encoding="UTF-8"?>
<svg xmlns="http://www.w3.org/2000/svg" xmlns:xlink="http://www.w3.org/1999/xlink" baseProfile="tiny" contentScriptType="text/ecmascript" contentStyleType="text/css" height="30px" preserveAspectRatio="xMidYMid meet" version="1.1" viewBox="0 0 30 30" width="30px" x="0px" y="0px" zoomAndPan="magnify">
<rect fill="none" height="30" width="30"/>
<path d="M 12.92 27.0 C 12.729 27.0 12.538 26.945 12.372 26.836 C 12.006 26.597 7.16 23.445 7.16 23.445 C 6.8999996 23.275 6.733 22.994999 6.7089996 22.685 L 6.6159997 21.456 C 6.608 21.352 6.6159997 21.248999 6.6389995 21.149 C 6.4999995 21.107 6.3699994 21.035 6.2599993 20.935 C 6.148999 20.834 6.017999 20.719 5.8629994 20.587 L 5.6169996 22.188 C 5.5409994 22.682 5.115 23.036 4.6299996 23.036 C 4.581 23.036 4.5309997 23.032 4.4819994 23.025 L 1.8529994 22.632 C 1.5889995 22.593 1.3529994 22.45 1.1959994 22.236 C 1.0379994 22.022 0.97099936 21.754 1.0119994 21.491 L 2.4829993 11.929999 C 2.5589993 11.435999 2.9849992 11.082 3.4699993 11.082 C 3.5189993 11.082 3.5689993 11.0859995 3.6179993 11.092999 L 6.247999 11.485999 C 6.511999 11.524999 6.747999 11.667999 6.9049993 11.881999 C 7.0629992 12.095999 7.129999 12.363999 7.0889993 12.626999 L 7.043999 12.921999 L 8.529999 12.694999 C 8.579999 12.687999 8.629999 12.683999 8.677999 12.683999 C 8.963999 12.683999 9.236999 12.805999 9.425999 13.0199995 C 9.879999 12.372999 10.454999 11.629999 11.0269985 11.108999 C 11.66 10.624 13.377 10.0 15.001 10.0 C 15.598001 10.0 16.137001 10.086 16.604 10.256 C 18.261 10.8619995 20.266 12.632 20.867 13.184 C 20.982 13.199 21.233 13.22 21.742 13.22 C 22.035 13.22 22.393002 13.213 22.834 13.199 C 22.845999 13.198 22.956999 13.201 23.0 13.207001 L 22.91 12.63 C 22.869999 12.367001 22.935 12.099 23.094 11.885 C 23.251 11.67 23.487999 11.528 23.751 11.489 L 26.38 11.096001 C 26.429998 11.089001 26.48 11.085001 26.528 11.085001 C 27.013 11.085001 27.439 11.439001 27.515 11.933001 L 28.987999 21.494 C 29.029 21.757 28.963 22.025 28.803999 22.239 C 28.647 22.454 28.41 22.596 28.147 22.635 L 25.515999 23.028 C 25.466 23.035 25.415998 23.039 25.367998 23.039 C 24.882998 23.039 24.456999 22.685 24.380999 22.191 L 24.373999 22.147 C 24.359 22.153 23.345 22.560999 22.788998 22.786 C 22.668997 22.835 22.540998 22.859 22.413998 22.859 C 22.322998 22.859 22.232998 22.845999 22.144999 22.821999 C 22.104998 22.905998 22.053 22.984999 21.991 23.055998 C 19.762 25.765999 18.755999 26.121998 18.123999 26.135998 C 18.123999 26.135998 16.114998 26.208998 16.102999 26.208998 C 15.738998 26.208998 15.402999 26.010998 15.226998 25.690998 C 14.747998 26.086998 14.1589985 26.447998 13.553998 26.788998 L 13.422998 26.863998 C 13.268 26.955 13.094 27.0 12.92 27.0 L 12.92 27.0 z M 24.0 12.0 C 22.897 12.0 22.0 11.103 22.0 10.0 L 22.0 8.0 L 20.0 8.0 C 18.897 8.0 18.0 7.103 18.0 6.0 C 18.0 4.897 18.897 4.0 20.0 4.0 L 22.0 4.0 L 22.0 2.0 C 22.0 0.89699996 22.897 0.0 24.0 0.0 C 25.103 0.0 26.0 0.897 26.0 2.0 L 26.0 4.0 L 28.0 4.0 C 29.103 4.0 30.0 4.897 30.0 6.0 C 30.0 7.103 29.103 8.0 28.0 8.0 L 26.0 8.0 L 26.0 10.0 C 26.0 11.103 25.103 12.0 24.0 12.0 L 24.0 12.0 z " fill-opacity="0.15" stroke-opacity="0.15"/>
<path d="M 2.0 20.645 L 4.6289997 21.038 L 6.101 11.477 L 3.4709997 11.084001 L 2.0 20.645 z M 9.492 19.015 C 9.396 18.953 9.306 18.942 9.181 18.970999 C 8.663 19.092 8.011 19.828 7.613 20.378998 C 7.643 20.767998 7.683 21.321999 7.706 21.607998 C 8.155 21.9 12.358 24.632 12.92 25.0 C 13.318 24.768 15.13 23.818 15.313 22.987999 C 14.99 22.15 9.492 19.015 9.492 19.015 z M 20.0 6.0 L 23.0 6.0 L 23.0 8.0 C 23.0 8.5529995 23.447 10.0 24.0 10.0 C 24.553 10.0 25.0 8.5529995 25.0 8.0 L 25.0 6.0 L 28.0 6.0 C 28.553 6.0 29.0 5.553 29.0 5.0 C 29.0 4.447 28.553 4.0 28.0 4.0 L 25.0 4.0 L 25.0 1.0 C 25.0 0.44700003 24.553 0.0 24.0 0.0 C 23.447 0.0 23.0 0.447 23.0 1.0 L 23.0 4.0 L 20.0 4.0 C 19.447 4.0 19.0 4.447 19.0 5.0 C 19.0 5.553 19.447 6.0 20.0 6.0 z M 14.512 13.688 C 14.113 14.146 13.297 14.952 11.788 15.818 C 10.009 16.838 7.244 14.868 8.346001 13.194 L 8.679001 12.686 C 8.098001 12.773 7.498001 12.867 7.1950006 12.912 C 7.0650005 13.768 6.2890005 18.638 6.2890005 18.638 C 6.5550003 18.861 6.7640004 19.043001 6.9310007 19.194 C 7.417001 18.61 8.117001 17.928 8.893001 17.747 C 9.35 17.644 9.794001 17.713999 10.179001 17.958 C 10.179001 17.958 16.507 21.563 16.550001 22.685001 C 16.685001 23.240002 16.45 23.762001 16.105001 24.210001 L 18.104002 24.137001 C 19.097002 24.116001 21.207003 21.426 21.244001 21.394001 C 20.892002 20.11 19.900002 17.027 18.848001 15.949001 C 17.795 14.865 15.435 13.999 14.512 13.688 z M 23.898 11.478 L 25.369001 21.039 L 28.0 20.646 L 26.527 11.085 L 23.898 11.478 z M 20.332 13.053 C 20.332 13.053 17.980001 10.824 16.262001 10.196 C 14.668001 9.616 12.196001 10.474 11.701001 10.851 C 10.588001 11.866 9.398001 13.908 9.398001 13.908 C 9.593 14.71 10.537001 15.083 11.143001 14.735 C 13.359001 13.473 14.033001 12.221 14.033001 12.221 C 14.033001 12.221 18.222 13.492 19.766 15.077 C 21.068 16.414 22.091002 19.724998 22.413 20.858 C 22.971 20.632 23.618 20.371 23.960001 20.235 C 23.960001 20.235 22.931002 13.6 22.866001 13.1970005 C 20.785 13.268 20.489 13.156 20.332 13.053 z " fill-opacity="0.3" stroke-opacity="0.3"/>
<path d="M 2.0 21.645 L 4.6289997 22.038 L 6.101 12.477 L 3.4709997 12.084001 L 2.0 21.645 z M 9.492 20.015 C 9.396 19.953 9.306 19.942 9.181 19.970999 C 8.663 20.092 8.011 20.828 7.613 21.378998 C 7.643 21.767998 7.683 22.321999 7.706 22.607998 C 8.155 22.9 12.358 25.632 12.92 26.0 C 13.318 25.768 15.13 24.818 15.313 23.987999 C 14.99 23.15 9.492 20.015 9.492 20.015 z M 20.0 7.0 L 23.0 7.0 L 23.0 10.0 C 23.0 10.5529995 23.447 11.0 24.0 11.0 C 24.553 11.0 25.0 10.553 25.0 10.0 L 25.0 7.0 L 28.0 7.0 C 28.553 7.0 29.0 6.553 29.0 6.0 C 29.0 5.447 28.553 5.0 28.0 5.0 L 25.0 5.0 L 25.0 2.0 C 25.0 1.447 24.553 1.0 24.0 1.0 C 23.447 1.0 23.0 1.447 23.0 2.0 L 23.0 5.0 L 20.0 5.0 C 19.447 5.0 19.0 5.447 19.0 6.0 C 19.0 6.553 19.447 7.0 20.0 7.0 z M 14.512 14.688 C 14.113 15.146 13.297 15.952 11.788 16.818 C 10.009 17.838001 7.244 15.868001 8.346001 14.194 L 8.679001 13.686 C 8.098001 13.773 7.498001 13.867 7.1950006 13.912 C 7.0650005 14.768 6.2890005 19.638 6.2890005 19.638 C 6.5550003 19.861 6.7640004 20.043001 6.9310007 20.194 C 7.417001 19.61 8.117001 18.928 8.893001 18.747 C 9.35 18.644 9.794001 18.713999 10.179001 18.958 C 10.179001 18.958 16.507 22.563 16.550001 23.685001 C 16.685001 24.240002 16.45 24.762001 16.105001 25.210001 L 18.104002 25.137001 C 19.097002 25.116001 21.207003 22.426 21.244001 22.394001 C 20.892002 21.11 19.900002 18.027 18.848001 16.949001 C 17.795 15.865 15.435 14.999 14.512 14.688 z M 23.898 12.478 L 25.369001 22.039 L 28.0 21.646 L 26.527 12.085 L 23.898 12.478 z M 20.332 14.053 C 20.332 14.053 17.980001 11.824 16.262001 11.196 C 14.668001 10.616 12.196001 11.474 11.701001 11.851 C 10.588001 12.866 9.398001 14.908 9.398001 14.908 C 9.593 15.71 10.537001 16.083 11.143001 15.735 C 13.359001 14.473 14.033001 13.221 14.033001 13.221 C 14.033001 13.221 18.222 14.492 19.766 16.077 C 21.068 17.414 22.091002 20.724998 22.413 21.858 C 22.971 21.632 23.618 21.371 23.960001 21.235 C 23.960001 21.235 22.931002 14.6 22.866001 14.1970005 C 20.785 14.268 20.489 14.156 20.332 14.053 z " fill="#dedede"/>
</svg>
