<?xml version="1.0" encoding="UTF-8"?>
<svg xmlns="http://www.w3.org/2000/svg" xmlns:xlink="http://www.w3.org/1999/xlink" baseProfile="tiny" contentScriptType="text/ecmascript" contentStyleType="text/css" height="30px" preserveAspectRatio="xMidYMid meet" version="1.1" viewBox="0 0 30 30" width="30px" x="0px" y="0px" zoomAndPan="magnify">
<path d="M 29.329 14.5 L 27.498001 12.668 C 27.349 12.52 27.179 12.403 27.000002 12.303 L 27.000002 2.999 C 27.000002 1.896 26.103003 0.9990001 25.000002 0.9990001 L 5.0 0.9990001 C 3.8969998 0.9990001 3.0 1.8960001 3.0 2.999 L 3.0 26.999 C 3.0 28.102001 3.897 28.999 5.0 28.999 L 12.034 28.999 C 12.068001 29.176 12.1310005 29.344 12.235001 29.489 C 12.468 29.813 12.841001 29.999 13.259001 29.999 C 13.422001 29.999 13.591001 29.971 13.758 29.915 L 16.506 28.999 L 25.0 28.999 C 26.103 28.999 27.0 28.102001 27.0 26.999 L 27.0 20.079 L 27.552 19.528 L 29.328 17.744 C 29.762 17.312 30.0 16.735 30.0 16.122 C 30.0 15.508 29.762 14.932 29.329 14.5 z " fill-opacity="0.15" stroke-opacity="0.15"/>
<path d="M 19.625 27.732 C 19.534 27.821001 19.428 27.911001 19.315 27.999 L 25.0 27.999 C 25.55 27.999 26.0 27.549 26.0 26.999 L 26.0 21.362 L 19.625 27.732 z " fill="#dedede"/>
<path d="M 26.0 1.999 C 26.0 1.4489999 25.55 0.99899995 25.0 0.99899995 L 5.0 0.99899995 C 4.45 0.99899995 4.0 1.4489999 4.0 1.999 L 4.0 3.999 L 26.0 3.999 L 26.0 1.999 z M 14.264 21.377 L 22.355999 13.291 L 24.112999 11.529 C 24.585999 11.057 25.211998 10.8 25.877998 10.8 C 25.919998 10.8 25.958998 10.81 26.000998 10.812 L 26.000998 4.999 L 4.0 4.999 L 4.0 25.999 C 4.0 26.549 4.45 26.999 5.0 26.999 L 11.952 26.999 L 13.313 22.915 C 13.486 22.401 13.886 21.757 14.264 21.377 z M 12.175 22.536 L 11.613 24.220999 C 11.592 24.221998 11.571 24.225998 11.55 24.225998 C 10.724 24.225998 10.014 23.917997 9.444 23.313997 C 8.280001 22.083998 7.893 19.710997 8.024 17.906998 C 8.246 14.784998 9.87 9.612998 13.436001 8.163998 C 14.059001 7.9079976 14.738001 7.772998 15.390001 7.772998 C 16.494001 7.772998 17.453001 8.158998 18.160002 8.8899975 C 18.722002 9.469997 19.051003 10.236998 19.096003 11.064998 C 19.388002 11.221997 19.564003 11.495997 19.575003 11.826998 C 19.597002 12.712997 19.549004 13.611998 19.445004 14.504997 L 16.695004 17.251997 C 16.912003 16.535997 17.091003 15.788997 17.187004 14.968997 L 17.207005 14.341997 C 16.899004 14.316998 16.638004 14.172997 16.466005 13.929997 C 16.246006 13.803997 16.357006 13.465998 16.475006 13.109998 C 16.669006 12.509997 16.996006 11.506998 16.307007 10.156998 C 16.111008 9.770998 15.800007 9.689998 15.572007 9.689998 C 15.262007 9.689998 14.884007 9.845998 14.451007 10.156998 C 13.528007 10.821998 12.744007 11.796998 12.122007 13.053998 C 11.107007 15.116998 10.636007 16.852999 10.643007 18.510998 C 10.648007 19.444998 10.685007 20.511997 11.062007 21.361998 C 11.336007 21.982998 11.736007 22.289997 12.274007 22.302998 C 12.24 22.38 12.2 22.46 12.175 22.536 z M 28.622 14.207 L 26.792 12.375999 C 26.288 11.874 25.466 11.874 24.962 12.375999 L 24.052 13.289 L 27.714 16.949 L 28.622002 16.036 C 29.126 15.533 29.126 14.71 28.622 14.207 z M 15.114 22.224 C 14.863 22.476002 14.565001 22.958 14.452001 23.294 L 13.032001 27.557001 C 12.92 27.894001 13.104 28.079 13.442 27.966002 L 17.704 26.546001 C 18.042 26.434002 18.522001 26.135002 18.776001 25.884 L 26.844002 17.821001 L 23.184002 14.160001 L 15.114 22.224 z M 17.191 25.638 L 15.25 26.318 L 14.686 25.749 L 15.365 23.808 L 15.745999 23.424 L 17.574 25.256 L 17.191 25.638 z " fill-opacity="0.3" stroke-opacity="0.3"/>
<path d="M 26.0 2.999 C 26.0 2.4490001 25.55 1.9990001 25.0 1.9990001 L 5.0 1.9990001 C 4.45 1.9990001 4.0 2.4490001 4.0 2.999 L 4.0 4.999 L 26.0 4.999 L 26.0 2.999 z M 14.264 22.377 L 22.355999 14.291 L 24.112999 12.529 C 24.585999 12.057 25.211998 11.8 25.877998 11.8 C 25.919998 11.8 25.958998 11.81 26.000998 11.812 L 26.000998 5.999 L 4.0 5.999 L 4.0 26.999 C 4.0 27.549 4.45 27.999 5.0 27.999 L 11.952 27.999 L 13.313 23.915 C 13.486 23.401 13.886 22.757 14.264 22.377 z M 12.175 23.536 L 11.613 25.220999 C 11.592 25.221998 11.571 25.225998 11.55 25.225998 C 10.724 25.225998 10.014 24.917997 9.444 24.313997 C 8.280001 23.083998 7.893 20.710997 8.024 18.906998 C 8.246 15.784998 9.87 10.612998 13.436001 9.163998 C 14.059001 8.907998 14.738001 8.772998 15.390001 8.772998 C 16.494001 8.772998 17.453001 9.158998 18.160002 9.8899975 C 18.722002 10.469997 19.051003 11.236998 19.096003 12.064998 C 19.388002 12.221997 19.564003 12.495997 19.575003 12.826998 C 19.597002 13.712997 19.549004 14.611998 19.445004 15.504997 L 16.695004 18.251997 C 16.912003 17.535997 17.091003 16.788998 17.187004 15.968997 L 17.207005 15.341997 C 16.899004 15.316998 16.638004 15.172997 16.466005 14.929997 C 16.246006 14.803997 16.357006 14.465998 16.475006 14.109998 C 16.669006 13.509997 16.996006 12.506998 16.307007 11.156998 C 16.111008 10.770998 15.800007 10.689998 15.572007 10.689998 C 15.262007 10.689998 14.884007 10.845998 14.451007 11.156998 C 13.528007 11.821998 12.744007 12.796998 12.122007 14.053998 C 11.107007 16.116999 10.636007 17.852999 10.643007 19.510998 C 10.648007 20.444998 10.685007 21.511997 11.062007 22.361998 C 11.336007 22.982998 11.736007 23.289997 12.274007 23.302998 C 12.24 23.38 12.2 23.46 12.175 23.536 z M 28.622 15.207 L 26.792 13.375999 C 26.288 12.874 25.466 12.874 24.962 13.375999 L 24.052 14.289 L 27.714 17.949 L 28.622002 17.036 C 29.126 16.533 29.126 15.71 28.622 15.207 z M 15.114 23.224 C 14.863 23.476002 14.565001 23.958 14.452001 24.294 L 13.032001 28.557001 C 12.92 28.894001 13.104 29.079 13.442 28.966002 L 17.704 27.546001 C 18.042 27.434002 18.522001 27.135002 18.776001 26.884 L 26.844002 18.821001 L 23.184002 15.160001 L 15.114 23.224 z M 17.191 26.638 L 15.25 27.318 L 14.686 26.749 L 15.365 24.808 L 15.745999 24.424 L 17.574 26.256 L 17.191 26.638 z " fill="#dedede"/>
<rect fill="none" height="30" width="30"/>
</svg>
