<?xml version="1.0" encoding="UTF-8"?>
<svg xmlns="http://www.w3.org/2000/svg" xmlns:xlink="http://www.w3.org/1999/xlink" baseProfile="tiny" contentScriptType="text/ecmascript" contentStyleType="text/css" height="27px" preserveAspectRatio="xMidYMid meet" version="1.1" viewBox="0 0 27 27" width="27px" x="0px" y="0px" zoomAndPan="magnify">
<rect fill="none" height="27" width="27"/>
<path d="M 24.808 14.201 C 23.217 12.598001 20.627 12.6 19.037 14.201 L 12.853001 20.425 C 12.303 20.979 12.0 21.716 12.0 22.499 C 12.0 23.282 12.303 24.019 12.854 24.573 C 13.405 25.127 14.135 25.432 14.916 25.432 C 15.694 25.432 16.425001 25.126 16.979 24.573 L 23.161 18.349 C 23.843 17.662 23.843 16.546 23.161 15.859999 C 22.48 15.173999 21.37 15.173999 20.688 15.859999 L 20.688 15.859999 L 20.688 15.859999 L 14.917 21.669 C 14.689 21.898 14.689 22.269 14.917 22.499 C 15.031 22.613 15.181 22.671 15.33 22.671 C 15.477 22.671 15.627 22.613 15.741 22.499 L 21.512 16.689999 L 21.512 16.689999 C 21.741 16.460999 22.109 16.460999 22.337002 16.689999 C 22.565002 16.919 22.565002 17.291998 22.337002 17.52 L 16.153002 23.742998 C 15.494001 24.408998 14.340002 24.408998 13.681002 23.742998 C 13.350001 23.410995 13.168001 22.969995 13.168001 22.499 C 13.168001 22.028 13.350001 21.586998 13.681002 21.255 L 19.863005 15.030999 C 21.000002 13.886999 22.848003 13.884999 23.985004 15.030999 C 25.121002 16.175 25.121002 18.036 23.985004 19.179 L 18.214005 24.987 C 17.985004 25.216 17.985004 25.589 18.214005 25.817 C 18.327003 25.931 18.477003 25.99 18.626003 25.99 C 18.775003 25.99 18.925003 25.931 19.038004 25.817 L 24.809004 20.008 C 26.398 18.408 26.398 15.802 24.808 14.201 z " fill="#dedede"/>
<defs>
<linearGradient gradientUnits="userSpaceOnUse" x1="13.5" x2="13.5" xlink:actuate="onLoad" xlink:show="other" xlink:type="simple" y1="24" y2="3.0005">
<stop offset="0" stop-color="#d0cbc5"/>
<stop offset="1" stop-color="#fcfcf9"/>
</linearGradient>
</defs>
<path d="M 4.46875 3.0 L 4.46875 3.03125 C 3.639253 3.18825 3.0 4.011 3.0 5.0 L 3.0 22.0 C 3.0 23.0995 3.8567271 24.0 4.90625 24.0 L 11.25 24.0 C 11.061017 23.528696 10.9375 23.013062 10.9375 22.5 C 10.9375 21.453377 11.351791 20.434856 12.09375 19.6875 L 13.0625 18.71875 C 13.0715 18.46683 13.09739 18.235044 13.1875 18.0 C 13.36868 17.515217 13.663408 17.0326 14.0625 16.5625 C 14.461588 16.09241 15.058385 15.5545025 15.8125 14.9375 C 16.982836 13.977723 17.77616 13.216943 18.1875 12.65625 C 18.598831 12.095568 18.781244 11.561987 18.78125 11.0625 C 18.781244 10.538546 18.624603 10.078675 18.25 9.71875 C 17.875383 9.358841 17.352304 9.18751 16.75 9.1875 C 16.113407 9.187509 15.631951 9.399308 15.25 9.78125 C 14.868045 10.163214 14.661172 10.667994 14.65625 11.34375 L 13.28125 11.1875 C 13.37429 10.173863 13.767786 9.406317 14.375 8.875 C 14.982202 8.343707 15.789059 8.093758 16.8125 8.09375 C 17.845722 8.093763 18.647684 8.395832 19.25 8.96875 C 19.852304 9.541688 20.156246 10.246606 20.15625 11.09375 C 20.156244 11.524679 20.08253 11.927526 19.90625 12.34375 C 20.55711 12.071199 21.254047 11.937663 21.9375 11.9375 C 22.636602 11.937333 23.343569 12.088592 24.0 12.375 L 24.0 5.0 C 24.0 3.979499 23.31568 3.149748 22.4375 3.03125 L 22.4375 3.0 z M 27.90625 8.09375 L 28.75 8.09375 L 28.75 18.90625 L 27.4375 18.90625 L 27.4375 10.5 C 27.119202 10.80361 26.704111 11.0714035 26.1875 11.375 C 25.67088 11.678612 25.223831 11.941955 24.8125 12.09375 L 24.8125 10.78125 C 7.583169 10.433583 8.196652 10.025841 8.75 9.53125 C 9.303338 9.036679 9.707344 8.558961 9.9375 8.09375 z " fill="#dedede" fill-opacity="1" stroke-opacity="0.3"/>
</svg>
