<?xml version="1.0" encoding="UTF-8"?>
<svg xmlns="http://www.w3.org/2000/svg" xmlns:xlink="http://www.w3.org/1999/xlink" baseProfile="tiny" contentScriptType="text/ecmascript" contentStyleType="text/css" height="30px" preserveAspectRatio="xMidYMid meet" version="1.1" viewBox="0 0 30 30" width="30px" x="0px" y="0px" zoomAndPan="magnify">
<path d="M 29.485 23.126 L 29.0 22.856 L 29.0 7.0 C 29.0 6.447 28.553 6.0 28.0 6.0 L 2.0 6.0 C 1.447 6.0 1.0 6.447 1.0 7.0 L 1.0 24.0 C 1.0 25.104 1.896 26.0 3.0 26.0 L 15.0 26.0 C 15.0 26.553 15.447 27.0 16.0 27.0 L 19.0 27.0 L 19.0 29.0 C 19.0 29.354 19.188 29.683 19.493 29.862 C 19.649 29.954 19.824 30.0 20.0 30.0 C 20.167 30.0 20.335 29.958 20.485 29.874 L 27.695 25.868 C 27.882 25.799 28.052 25.702 28.208 25.584 L 29.485 24.874 C 29.803 24.698 30.0 24.363 30.0 24.0 C 30.0 23.637 29.803 23.302 29.485 23.126 z " fill-opacity="0.15" stroke-opacity="0.15"/>
<rect fill="none" height="30" width="30"/>
<rect fill="none" height="30" width="30"/>
<path d="M 28.0 6.0 L 2.0 6.0 L 15.0 16.0 L 28.0 6.0 z M 19.0 20.0 L 19.0 18.0 C 19.0 17.646 19.188 17.317 19.493 17.138 C 19.649 17.046 19.824 17.0 20.0 17.0 C 20.167 17.0 20.335 17.042 20.485 17.126 L 28.0 21.301 L 28.0 7.893 L 15.0 17.893 L 2.0 7.8929996 L 2.0 23.0 C 2.0 23.55 2.45 24.0 3.0 24.0 L 15.0 24.0 L 15.0 21.0 C 15.0 20.447 15.447 20.0 16.0 20.0 L 19.0 20.0 z M 29.0 23.0 L 20.0 18.0 L 20.0 21.0 L 16.0 21.0 L 16.0 25.0 L 20.0 25.0 L 20.0 28.0 L 29.0 23.0 z " fill-opacity="0.3" stroke-opacity="0.3"/>
<path d="M 28.0 7.0 L 2.0 7.0 L 15.0 17.0 L 28.0 7.0 z M 19.0 21.0 L 19.0 19.0 C 19.0 18.646 19.188 18.317 19.493 18.138 C 19.649 18.046 19.824 18.0 20.0 18.0 C 20.167 18.0 20.335 18.042 20.485 18.126 L 28.0 22.301 L 28.0 8.893 L 15.0 18.893 L 2.0 8.893 L 2.0 24.0 C 2.0 24.55 2.45 25.0 3.0 25.0 L 15.0 25.0 L 15.0 22.0 C 15.0 21.447 15.447 21.0 16.0 21.0 L 19.0 21.0 z M 29.0 24.0 L 20.0 19.0 L 20.0 22.0 L 16.0 22.0 L 16.0 26.0 L 20.0 26.0 L 20.0 29.0 L 29.0 24.0 z " fill="#dedede"/>
</svg>
