<?xml version="1.0" encoding="UTF-8"?>
<svg xmlns="http://www.w3.org/2000/svg" xmlns:xlink="http://www.w3.org/1999/xlink" baseProfile="tiny" contentScriptType="text/ecmascript" contentStyleType="text/css" height="57px" preserveAspectRatio="xMidYMid meet" version="1.1" viewBox="0 0 67 57" width="67px" x="0px" y="0px" zoomAndPan="magnify">
<path d="M 54.0 24.0 L 14.0 24.0 C 12.485 24.0 12.0 24.488 12.0 26.0 L 12.0 45.0 C 12.0 46.514 12.485 46.875 14.0 46.875 L 18.0 46.875 L 18.0 38.0 L 50.0 38.0 L 50.0 46.875 L 54.0 46.875 C 55.511 46.875 56.0 46.514 56.0 45.0 L 56.0 26.0 C 56.0 24.489 55.511 24.0 54.0 24.0 z M 51.0 30.0 L 48.0 30.0 L 48.0 27.0 L 51.0 27.0 L 51.0 30.0 z M 47.75 7.0 L 20.25 7.0 L 20.25 22.0 L 47.75 22.0 L 47.75 7.0 z M 20.0 51.0 L 48.0 51.0 L 48.0 40.0 L 20.0 40.0 L 20.0 51.0 z M 23.0 43.0 L 45.0 43.0 L 45.0 48.0 L 23.0 48.0 L 23.0 43.0 z " fill="#dedede" fill-opacity="1" stroke-opacity="0.29999999999999999"/>
<defs>
<linearGradient gradientUnits="userSpaceOnUse" x1="34" x2="34" xlink:actuate="onLoad" xlink:show="other" xlink:type="simple" y1="50" y2="6.0005">
<stop offset="0" stop-color="#d0cbc5"/>
<stop offset="0.5031" stop-color="#fafcef"/>
<stop offset="0.9693" stop-color="#ffffff"/>
<stop offset="1" stop-color="#ffffff"/>
</linearGradient>
</defs>
</svg>
