<?xml version="1.0" encoding="UTF-8"?>
<svg xmlns="http://www.w3.org/2000/svg" xmlns:xlink="http://www.w3.org/1999/xlink" baseProfile="tiny" contentScriptType="text/ecmascript" contentStyleType="text/css" height="30px" preserveAspectRatio="xMidYMid meet" version="1.1" viewBox="0.001 0 30 30" width="30px" x="0px" y="0px" zoomAndPan="magnify">
<defs/>
<path d="M 28.048 14.54 C 31.115 9.625 25.797 6.5629997 25.797 6.5629997 C 22.216002 4.146 17.392002 3.9869998 15.839001 4.007 L 15.837 4.0 L 13.549 4.0 L 13.55 4.011 C 11.574 4.052 7.3960004 4.4110003 4.2040005 6.563 C 4.2040005 6.563 -1.1119995 9.627 1.9540005 14.539 C 2.3840005 15.226999 3.3270006 14.94 3.3270006 14.94 L 7.0050006 13.289 C 7.9330006 13.002 7.8680005 12.231 7.8680005 12.231 L 8.0060005 9.798 C 8.022 10.008 7.8570004 7.4540005 14.786001 7.3490005 L 14.787002 7.3480005 L 15.127002 7.3480005 L 15.128002 7.3500004 C 22.059002 7.4540005 21.893002 10.007 21.906002 9.8 L 22.135002 12.228001 C 22.135002 12.228001 22.069002 13.001 22.996002 13.286 L 26.672003 14.938 C 26.673 14.94 27.619 15.227 28.048 14.54 z " fill="#ffffff"/>
<path d="M 28.048 25.539 C 31.115 20.625 25.797 17.562 25.797 17.562 C 22.216002 15.146 17.392002 14.987 15.839001 15.0060005 L 15.837 15.0 L 13.549 15.0 L 13.55 15.011 C 11.574 15.052 7.3960004 15.410999 4.2040005 17.563 C 4.2040005 17.563 -1.1119995 20.626999 1.9540005 25.54 C 2.3840005 26.228 3.3270006 25.941 3.3270006 25.941 L 7.0050006 24.29 C 7.9330006 24.003 7.8680005 23.233002 7.8680005 23.233002 L 8.0060005 20.799002 C 8.022 21.010002 7.8570004 18.455002 14.786001 18.351002 L 14.787002 18.350002 L 15.127002 18.350002 L 15.128002 18.352003 C 22.059002 18.457003 21.893002 21.009003 21.906002 20.803003 L 22.135002 23.231003 C 22.135002 23.231003 22.069002 24.004004 22.996002 24.289003 L 26.672003 25.940002 C 26.673 25.939 27.619 26.227 28.048 25.539 z " fill="#ffffff"/>
<rect fill="none" height="30" width="30" x="0.001"/>
</svg>
