<?xml version="1.0" encoding="UTF-8"?>
<svg xmlns="http://www.w3.org/2000/svg" xmlns:xlink="http://www.w3.org/1999/xlink" baseProfile="tiny" contentScriptType="text/ecmascript" contentStyleType="text/css" height="57px" preserveAspectRatio="xMidYMid meet" version="1.1" viewBox="0 0 67 57" width="67px" x="0px" y="0px" zoomAndPan="magnify">
<rect color="#000000" display="inline" fill="#646464" fill-opacity="0.58823532" fill-rule="nonzero" height="48" ry="8.2174387" stroke="none" visibility="visible" width="48" x="9.5" y="4.5"/>
<defs>
<linearGradient gradientUnits="userSpaceOnUse" x1="39.7256" x2="39.7256" xlink:actuate="onLoad" xlink:show="other" xlink:type="simple" y1="54" y2="6.0005">
<stop offset="0" stop-color="#d0cbc5"/>
<stop offset="0.5031" stop-color="#fafcef"/>
<stop offset="0.9693" stop-color="#ffffff"/>
<stop offset="1" stop-color="#ffffff"/>
</linearGradient>
</defs>
<path d="M 24.65625 10.75 C 24.059137 10.75 22.139565 11.073914 21.0625 11.84375 L 20.78125 12.03125 C 19.65405 12.810522 17.78125 14.056218 17.78125 16.84375 C 17.78125 20.431618 20.566668 26.136038 26.4375 34.03125 C 29.552078 38.219486 32.969254 41.267067 35.96875 43.28125 C 38.968246 45.295433 41.59205 46.25 42.90625 46.25 C 44.10191 46.25 45.40789 45.4659 46.5 44.4375 C 47.59211 43.4091 48.469364 42.150127 48.875 41.375 C 49.245113 40.668934 49.264812 40.1087 49.15625 39.65625 C 49.051983 39.221684 48.811665 38.892532 48.65625 38.75 C 48.65395 38.7479 48.62727 38.752 48.625 38.75 C 48.6247 38.739586 48.6247 38.729164 48.625 38.71875 C 48.614586 38.71905 48.604164 38.71905 48.59375 38.71875 C 48.59375 38.71875 44.65638 36.0571 42.90625 34.875 C 42.30298 34.46696 41.733856 34.28125 41.1875 34.28125 C 40.50315 34.28125 40.10177 34.5729 40.03125 34.625 C 40.02375 34.6305 39.96747 34.65732 39.96875 34.65625 C 39.96905 34.666664 39.96905 34.677086 39.96875 34.6875 C 39.96535 34.6916 39.588165 35.091255 38.84375 35.71875 C 37.91415 36.501617 36.525906 36.337696 35.5625 35.4375 C 35.242817 35.13924 34.719826 34.506073 34.0 33.65625 C 33.280174 32.806427 32.401707 31.734398 31.5 30.625 C 29.696583 28.406202 27.792118 26.016785 26.875 24.78125 C 26.463902 24.22646 26.244133 23.63183 26.34375 23.03125 C 26.44563 22.411806 26.827171 21.94597 27.21875 21.5625 C 27.610329 21.17903 28.031254 20.882286 28.3125 20.6875 L 28.5 20.5625 C 29.397522 19.91994 29.475992 18.793385 29.1875 18.03125 C 29.106848 17.819016 28.426538 16.33449 27.78125 14.9375 C 27.135962 13.54051 26.494644 12.144674 26.375 11.90625 C 26.225426 11.607407 26.035229 11.298511 25.78125 11.09375 C 25.527271 10.888989 25.199064 10.75 24.65625 10.75 z " fill="#ffffff" fill-opacity="1" fill-rule="nonzero" stroke="none"/>
</svg>
