<?xml version="1.0" encoding="UTF-8"?>
<svg xmlns="http://www.w3.org/2000/svg" xmlns:xlink="http://www.w3.org/1999/xlink" baseProfile="tiny" contentScriptType="text/ecmascript" contentStyleType="text/css" height="57px" preserveAspectRatio="xMidYMid meet" version="1.1" viewBox="5 0 57 57" width="57px" x="0px" y="0px" zoomAndPan="magnify">
<linearGradient gradientTransform="matrix(1,0,0,-1,-300.9004,-159.5996)" gradientUnits="userSpaceOnUse" x1="334.4004" x2="334.4004" xlink:actuate="onLoad" xlink:show="other" xlink:type="simple" y1="-209.2339" y2="-166.9639">
<stop offset="0" stop-color="#d0cbc5"/>
<stop offset="0.5031" stop-color="#fafcef"/>
<stop offset="0.9693" stop-color="#ffffff"/>
<stop offset="1" stop-color="#ffffff"/>
</linearGradient>
<path d="M 32.164 37.871 L 27.837004 41.934 C 25.458004 44.19 21.561 44.19 19.181004 41.934 C 16.777004 39.703 16.777004 36.040997 19.181004 33.810997 L 23.509005 29.748997 L 25.838003 27.541996 C 27.609003 25.886995 30.215006 25.460997 32.417007 26.262997 C 32.771008 26.413996 33.15101 26.588997 33.480007 26.788998 C 33.50501 26.788998 33.50501 26.788998 33.50501 26.788998 C 33.85901 27.014996 34.19001 27.265997 34.51801 27.540998 C 35.125008 28.117 35.58101 28.794 35.86001 29.520998 C 37.32901 29.795998 38.897007 29.419998 40.009007 28.367998 L 41.62801 26.863998 C 41.022007 25.586 40.160007 24.356998 39.02401 23.304 C 38.745003 23.028 38.44 22.778 38.137 22.551998 C 37.883 22.351995 37.63 22.200998 37.403 22.025995 C 37.329 21.974997 37.276 21.924995 37.202 21.899998 C 33.0 19.218 27.459 19.192995 23.231998 21.824997 C 23.207 21.849997 23.182 21.874996 23.155998 21.874996 C 22.853 22.075996 22.548998 22.275995 22.243998 22.501995 C 21.940998 22.751995 21.610998 23.027996 21.333998 23.303995 L 14.651998 29.571997 C 9.767998 34.159996 9.767998 41.604996 14.651998 46.192997 C 19.537 50.781 27.481998 50.781 32.365997 46.192997 L 39.023 39.923996 C 39.629997 39.372997 40.135 38.770996 40.591 38.143997 C 37.832 38.85 34.896 38.749 32.164 37.871 z M 52.357 10.796 C 47.472 6.2329984 39.527 6.2079997 34.643997 10.796 L 27.961998 17.063 C 27.378998 17.615 26.846998 18.216 26.391998 18.869 C 29.176 18.141 32.112 18.242 34.819 19.119 L 39.147 15.058 C 41.551 12.801 45.448 12.801 47.827 15.058 C 50.206 17.289 50.206 20.949 47.827 23.18 L 43.473 27.241 L 41.145 29.447 C 39.374 31.101 36.792 31.527 34.591 30.726 C 34.211 30.576 33.856 30.424 33.502 30.2 L 33.476997 30.2 C 33.122997 29.974 32.793 29.722 32.489998 29.447 C 31.882998 28.871 31.426998 28.195 31.122995 27.467 C 29.680998 27.191002 28.086998 27.567 26.972998 28.619 L 25.377998 30.124 C 25.985998 31.402 26.846 32.631 27.961 33.684 C 28.263998 33.960003 28.543 34.210003 28.871998 34.461 C 29.099998 34.637 29.351995 34.813004 29.605995 34.963 C 29.655996 35.014 29.731997 35.063 29.781998 35.087 C 33.983 37.77 39.551 37.79501 43.776997 35.163 C 43.776997 35.139004 43.802 35.111004 43.827995 35.111004 C 44.131996 34.912003 44.434994 34.711 44.738995 34.486004 C 45.067993 34.234005 45.370995 33.960003 45.674995 33.683 L 52.355995 27.414 C 57.242 22.829 57.217 15.384 52.357 10.796 z " fill="#dedede" fill-opacity="1"/>
</svg>
