<?xml version="1.0" encoding="UTF-8"?>
<svg xmlns="http://www.w3.org/2000/svg" xmlns:xlink="http://www.w3.org/1999/xlink" baseProfile="tiny" contentScriptType="text/ecmascript" contentStyleType="text/css" height="27px" preserveAspectRatio="xMidYMid meet" version="1.1" viewBox="0 0 27 27" width="27px" x="0px" y="0px" zoomAndPan="magnify">
<rect fill="none" height="27" width="27"/>
<polygon fill="#dedede" points="17,26 26,21 17,16 17,19 13,19 13,23 17,23 "/>
<defs>
<linearGradient gradientUnits="userSpaceOnUse" x1="13.5" x2="13.5" xlink:actuate="onLoad" xlink:show="other" xlink:type="simple" y1="24" y2="3.0005">
<stop offset="0" stop-color="#d0cbc5"/>
<stop offset="1" stop-color="#fcfcf9"/>
</linearGradient>
</defs>
<path d="M 4.46875 3.0 L 4.46875 3.03125 C 3.639253 3.18825 3.0 4.011 3.0 5.0 L 3.0 22.0 C 3.0 23.0995 3.8567271 24.0 4.90625 24.0 L 12.34375 24.0 C 12.014373 23.784143 11.806986 23.393768 11.8125 23.0 L 11.8125 19.0 C 11.806331 18.376562 12.376562 17.806332 13.0 17.8125 L 13.28125 17.8125 C 13.465777 17.391403 13.714999 16.97183 14.0625 16.5625 C 14.461588 16.09241 15.058385 15.5545025 15.8125 14.9375 C 16.982836 13.977723 17.77616 13.216943 18.1875 12.65625 C 18.598831 12.095568 18.781244 11.561987 18.78125 11.0625 C 18.781244 10.538546 18.624603 10.078675 18.25 9.71875 C 17.875383 9.358841 17.352304 9.18751 16.75 9.1875 C 16.113407 9.187509 15.631951 9.399308 15.25 9.78125 C 14.868045 10.163214 14.661172 10.667994 14.65625 11.34375 L 13.28125 11.1875 C 13.37429 10.173863 13.767786 9.406317 14.375 8.875 C 14.982202 8.343707 15.789059 8.093758 16.8125 8.09375 C 17.845722 8.093763 18.647684 8.395832 19.25 8.96875 C 19.852304 9.541688 20.156246 10.246606 20.15625 11.09375 C 20.156244 11.524679 20.08253 11.927526 19.90625 12.34375 C 19.72996 12.759987 19.440134 13.227204 19.03125 13.6875 C 18.731644 14.02478 18.218683 14.481094 17.625 15.0 L 24.0 18.53125 L 24.0 5.0 C 24.0 3.979499 23.31568 3.149748 22.4375 3.03125 L 22.4375 3.0 z M 15.8125 16.59375 C 15.72306 16.67848 15.493177 16.878798 15.4375 16.9375 C 15.212242 17.175 15.021903 17.416307 14.875 17.65625 L 15.8125 17.65625 z M 9.9375 9.15625 L 10.78125 9.15625 L 10.78125 19.96875 L 9.46875 19.96875 L 9.46875 11.5625 C 9.150452 11.86611 8.735363 12.133904 8.21875 12.4375 C 7.70213 12.741112 7.255084 13.004455 6.84375 13.15625 L 6.84375 11.84375 C 7.583169 10.433583 8.196652 10.025841 8.75 9.53125 C 9.303338 9.036679 9.707344 8.558961 9.9375 8.09375 z " fill="#dedede" fill-opacity="1" stroke-opacity="0.3"/>
</svg>
