<?xml version="1.0" encoding="UTF-8"?>
<svg xmlns="http://www.w3.org/2000/svg" xmlns:xlink="http://www.w3.org/1999/xlink" baseProfile="tiny" contentScriptType="text/ecmascript" contentStyleType="text/css" height="30px" preserveAspectRatio="xMidYMid meet" version="1.1" viewBox="0 0 30 30" width="30px" x="0px" y="0px" zoomAndPan="magnify">
<path d="M 30.0 2.0 C 30.0 1.4660001 29.792 0.964 29.414 0.58599997 C 29.036 0.20799994 28.534 0.0 28.0 0.0 C 27.466 0.0 26.964 0.208 26.586 0.586 L 22.857 4.315 C 20.857 2.273 18.076 1.0 15.0 1.0 C 8.935 1.0 4.0 5.935 4.0 12.0 C 4.0 15.077 5.275 17.854 7.32 19.852 L 0.5859995 26.586002 C 0.208 26.964 0.0 27.466 0.0 28.0 C 0.0 28.534 0.208 29.036 0.586 29.414 C 0.9640001 29.792 1.466 30.0 2.0 30.0 C 2.534 30.0 3.036 29.792 3.414 29.414 L 4.756 28.073 C 5.225 28.656 6.006 29.0 7.0 29.0 L 23.0 29.0 C 24.177 29.0 25.084 28.541 25.489 27.742 C 25.894 26.942 25.728 25.939 25.033 24.989 L 21.822 20.612 C 24.363 18.596 26.0 15.488 26.0 12.0 C 26.0 10.477 25.687 9.024 25.125 7.703 L 29.414 3.414 C 29.792 3.036 30.0 2.534 30.0 2.0 z " fill-opacity="0.15" stroke-opacity="0.15"/>
<path d="M 11.93 13.535 C 11.357 12.844 11.0 11.968 11.0 11.0 C 11.0 8.791 12.791 7.0 15.0 7.0 C 15.968 7.0 16.844 7.357 17.535 7.93 L 21.791 3.674 C 20.007 2.02 17.625 1.0 15.0 1.0 C 9.477 1.0 5.0 5.478 5.0 11.0 C 5.0 13.625 6.02 16.007 7.674 17.791 L 11.93 13.535 z M 21.605 21.008 C 19.709 22.264 17.439 23.0 15.0 23.0 C 13.387 23.0 11.851 22.672 10.444 22.091 L 5.8240004 26.711 C 6.11 26.89 6.497 27.0 7.0 27.0 L 23.0 27.0 C 24.65 27.0 25.201 25.911 24.227 24.581 L 21.605 21.008 z M 11.996 20.539 C 12.944 20.838 13.953 21.0 15.0 21.0 C 20.523 21.0 25.0 16.522 25.0 11.0 C 25.0 9.953 24.838 8.944 24.539 7.996 L 11.996 20.539 z M 28.707 0.293 C 28.316 -0.09799999 27.684 -0.09799999 27.293 0.293 L 1.2930012 26.293 C 0.90200114 26.684 0.90200114 27.316 1.2930012 27.707 C 1.488 27.902 1.744 28.0 2.0 28.0 C 2.256 28.0 2.512 27.902 2.707 27.707 L 28.707 1.7070009 C 29.098 1.316 29.098 0.684 28.707 0.293 z " fill-opacity="0.3" stroke-opacity="0.3"/>
<rect fill="none" height="30" width="30"/>
<path d="M 11.93 14.535 C 11.357 13.844 11.0 12.968 11.0 12.0 C 11.0 9.791 12.791 8.0 15.0 8.0 C 15.968 8.0 16.844 8.357 17.535 8.93 L 21.791 4.6740003 C 20.007 3.02 17.625 2.0 15.0 2.0 C 9.477 2.0 5.0 6.478 5.0 12.0 C 5.0 14.625 6.02 17.007 7.674 18.791 L 11.93 14.535 z M 21.605 22.008 C 19.709 23.264 17.439 24.0 15.0 24.0 C 13.387 24.0 11.851 23.672 10.444 23.091 L 5.8240004 27.711 C 6.11 27.89 6.497 28.0 7.0 28.0 L 23.0 28.0 C 24.65 28.0 25.201 26.911 24.227 25.581 L 21.605 22.008 z M 15.0 22.0 C 20.523 22.0 25.0 17.522 25.0 12.0 C 25.0 10.953 24.838 9.944 24.539 8.996 L 11.996 21.539 C 12.944 21.838 13.953 22.0 15.0 22.0 z " fill="#dedede"/>
<path d="M 2.0 29.0 C 1.744 29.0 1.4879999 28.902 1.293 28.707 C 0.902 28.316 0.902 27.684 1.293 27.293 L 27.293 1.2930012 C 27.684 0.90200114 28.316 0.90200114 28.707 1.2930012 C 29.097998 1.6840012 29.098 2.3160012 28.707 2.7070012 L 2.7069988 28.707 C 2.512 28.902 2.256 29.0 2.0 29.0 L 2.0 29.0 z " fill="#fa664b"/>
</svg>
