<?xml version="1.0" encoding="UTF-8"?>
<svg xmlns="http://www.w3.org/2000/svg" xmlns:xlink="http://www.w3.org/1999/xlink" baseProfile="tiny" contentScriptType="text/ecmascript" contentStyleType="text/css" height="30px" preserveAspectRatio="xMidYMid meet" version="1.1" viewBox="0 0 30 30" width="30px" x="0px" y="0px" zoomAndPan="magnify">
<path d="M 29.0 21.0 L 28.0 21.0 L 28.0 5.0 C 28.0 3.346 26.654 2.0 25.0 2.0 L 5.0 2.0 C 3.346 2.0 2.0 3.346 2.0 5.0 L 2.0 25.0 C 2.0 26.654 3.346 28.0 5.0 28.0 L 21.142 28.0 L 24.515 29.874 C 24.665 29.958 24.833 30.0 25.0 30.0 C 25.176 30.0 25.351 29.954 25.507 29.861 C 25.813 29.682 26.0 29.354 26.0 29.0 L 26.0 27.815 C 26.474 27.646 26.89 27.366001 27.22 27.0 L 29.0 27.0 C 29.553 27.0 30.0 26.553 30.0 26.0 L 30.0 22.0 C 30.0 21.447 29.553 21.0 29.0 21.0 z " fill-opacity="0.15"/>
<rect fill="none" height="30" width="30"/>
<path d="M 14.8 23.0 C 14.8 22.564 15.036 22.162 15.417 21.951 L 24.417 16.951 C 24.599 16.85 24.8 16.8 25.0 16.8 C 25.211 16.8 25.421 16.855999 25.608 16.966 C 25.975 17.182 26.2 17.574 26.2 18.0 L 26.2 19.8 L 27.0 19.8 L 27.0 4.0 C 27.0 2.896 26.104 2.0 25.0 2.0 L 5.0 2.0 C 3.896 2.0 3.0 2.896 3.0 4.0 L 3.0 24.0 C 3.0 25.104 3.896 26.0 5.0 26.0 L 18.93 26.0 L 15.417 24.049 C 15.036 23.838 14.8 23.436 14.8 23.0 z M 5.0 5.333 C 5.0 4.598 5.596 4.0 6.334 4.0 L 7.6660004 4.0 C 7.7380004 4.0 7.7990003 4.03 7.8670006 4.041 C 15.067 4.3599997 21.138 8.948 23.678001 15.323999 C 23.634 15.344999 23.586002 15.353999 23.543001 15.377999 L 20.150002 17.262 C 18.199001 11.912999 13.038002 8.020999 7.0680017 8.020999 L 7.0680017 8.0 L 6.334 8.0 C 5.596 8.0 5.0 7.403 5.0 6.667 L 5.0 5.333 z M 8.0 24.0 C 6.3450003 24.0 5.0 22.656 5.0 21.0 C 5.0 19.344 6.3450003 18.0 8.0 18.0 C 9.655 18.0 11.0 19.344 11.0 21.0 C 11.0 22.656 9.655 24.0 8.0 24.0 z M 14.188 20.642 C 13.565 17.329 10.547999 14.667 7.1049995 14.667 L 6.334 14.667 C 5.596 14.667 5.0 14.07 5.0 13.333 L 5.0 12.0 C 5.0 11.264 5.596 10.667 6.334 10.667 L 7.6660004 10.667 C 7.7320004 10.667 7.7910004 10.696 7.8540006 10.705 C 12.555 11.018 16.449001 14.234 17.794 18.571 L 14.542001 20.377998 C 14.411 20.45 14.305 20.552 14.188 20.642 z M 25.0 21.0 L 25.0 18.0 L 16.0 23.0 L 25.0 28.0 L 25.0 25.0 L 29.0 25.0 L 29.0 21.0 L 25.0 21.0 z " fill-opacity="0.3"/>
<path d="M 14.8 24.0 C 14.8 23.564 15.036 23.162 15.417 22.951 L 24.417 17.951 C 24.599 17.85 24.8 17.8 25.0 17.8 C 25.211 17.8 25.421 17.855999 25.608 17.966 C 25.975 18.182 26.2 18.574 26.2 19.0 L 26.2 20.8 L 27.0 20.8 L 27.0 5.0 C 27.0 3.896 26.104 3.0 25.0 3.0 L 5.0 3.0 C 3.896 3.0 3.0 3.896 3.0 5.0 L 3.0 25.0 C 3.0 26.104 3.896 27.0 5.0 27.0 L 18.93 27.0 L 15.417 25.049 C 15.036 24.838 14.8 24.436 14.8 24.0 z M 5.0 6.333 C 5.0 5.598 5.596 5.0 6.334 5.0 L 7.6660004 5.0 C 7.7380004 5.0 7.7990003 5.03 7.8670006 5.041 C 15.067 5.3599997 21.138 9.948 23.678001 16.325 C 23.634 16.346 23.586002 16.354 23.543001 16.378 L 20.150002 18.263 C 18.199001 12.9140005 13.038002 9.022 7.0680017 9.022 L 7.0680017 9.0 L 6.334 9.0 C 5.596 9.0 5.0 8.403 5.0 7.667 L 5.0 6.333 z M 8.0 25.0 C 6.3450003 25.0 5.0 23.656 5.0 22.0 C 5.0 20.344 6.3450003 19.0 8.0 19.0 C 9.655 19.0 11.0 20.344 11.0 22.0 C 11.0 23.656 9.655 25.0 8.0 25.0 z M 14.188 21.642 C 13.565 18.329 10.547999 15.667 7.1049995 15.667 L 6.334 15.667 C 5.596 15.667 5.0 15.07 5.0 14.333 L 5.0 13.0 C 5.0 12.264 5.596 11.667 6.334 11.667 L 7.6660004 11.667 C 7.7320004 11.667 7.7910004 11.696 7.8540006 11.705 C 12.555 12.018 16.449001 15.234 17.794 19.571 L 14.542001 21.377998 C 14.411 21.45 14.305 21.552 14.188 21.642 z M 25.0 22.0 L 25.0 19.0 L 16.0 24.0 L 25.0 29.0 L 25.0 26.0 L 29.0 26.0 L 29.0 22.0 L 25.0 22.0 z " fill="#dedede"/>
</svg>
