<?xml version="1.0" encoding="UTF-8"?>
<svg xmlns="http://www.w3.org/2000/svg" xmlns:xlink="http://www.w3.org/1999/xlink" baseProfile="tiny" contentScriptType="text/ecmascript" contentStyleType="text/css" height="16px" preserveAspectRatio="xMidYMid meet" version="1.1" viewBox="20.5 20.5 16 16" width="16px" x="0px" y="0px" zoomAndPan="magnify">
<linearGradient gradientTransform="matrix(1 0 0 1 -300.8604 -1001.4453)" gradientUnits="userSpaceOnUse" x1="329.3604" x2="329.3604" xlink:actuate="onLoad" xlink:show="other" xlink:type="simple" y1="1036.5166" y2="1023.3721">
<stop offset="0" stop-color="#d0cbc5"/>
<stop offset="0.5031" stop-color="#fafcef"/>
<stop offset="0.9693" stop-color="#ffffff"/>
<stop offset="1" stop-color="#ffffff"/>
</linearGradient>
<path d="M 28.084 31.413 L 26.739 32.677002 C 25.999 33.378002 24.787 33.378002 24.047 32.677002 C 23.299002 31.984 23.299002 30.845 24.047 30.151 L 25.393002 28.888 L 26.118002 28.202 C 26.668 27.687 27.479002 27.555 28.163002 27.805 C 28.273005 27.852 28.392002 27.906 28.494 27.968 C 28.501 27.968 28.501 27.968 28.501 27.968 C 28.611002 28.038 28.714 28.116 28.816002 28.202 C 29.005 28.381 29.147 28.592 29.233002 28.818 C 29.690002 28.902998 30.177002 28.786 30.524002 28.459 L 31.027002 27.991 C 30.839005 27.594 30.571005 27.212 30.217005 26.884 C 30.130005 26.797998 30.035004 26.72 29.942003 26.65 C 29.863005 26.588 29.784002 26.541 29.713003 26.486 C 29.690002 26.47 29.673002 26.455 29.650003 26.447 C 28.343004 25.613 26.620005 25.605 25.306004 26.424 C 25.298004 26.432 25.290005 26.44 25.283005 26.44 C 25.189005 26.503 25.094004 26.565 24.999002 26.635 C 24.905005 26.713 24.802002 26.799 24.716003 26.885 L 22.638004 28.834 C 21.119003 30.261 21.119003 32.576 22.638004 34.002 C 24.157003 35.429 26.628004 35.429 28.146004 34.002 L 30.216003 32.052998 C 30.404003 31.881998 30.562004 31.694998 30.703005 31.499998 C 29.847 31.718 28.935 31.687 28.084 31.413 z M 34.364 22.994 C 32.843998 21.575 30.374 21.568 28.856 22.994 L 26.778 24.943 C 26.597 25.115 26.431 25.301998 26.29 25.505 C 27.155 25.278 28.068 25.31 28.91 25.582998 L 30.256 24.319998 C 31.004 23.617998 32.216 23.617998 32.955 24.319998 C 33.695004 25.013 33.695004 26.152 32.955 26.844995 L 31.601002 28.107998 L 30.876 28.794 C 30.325 29.308998 29.522 29.44 28.838 29.190998 C 28.72 29.145 28.609 29.096998 28.499 29.027998 L 28.491 29.027998 C 28.381 28.957998 28.279 28.879995 28.184002 28.794 C 27.995005 28.614998 27.853004 28.405 27.759005 28.178 C 27.311005 28.092 26.815002 28.209 26.469002 28.536 L 25.973 29.004 C 26.162 29.401 26.430002 29.783 26.776 30.11 C 26.87 30.196 26.957 30.274 27.059002 30.352 C 27.13 30.407 27.208002 30.461 27.287004 30.507002 C 27.303003 30.524002 27.327003 30.538002 27.342005 30.546 C 28.648005 31.38 30.380005 31.388 31.694004 30.569002 C 31.694004 30.561005 31.701004 30.553 31.710005 30.553 C 31.804005 30.490002 31.898005 30.428 31.993004 30.359 C 32.096004 30.28 32.189003 30.195002 32.284004 30.109 L 34.361004 28.159 C 35.883 26.736 35.875 24.421 34.364 22.994 z " fill="#dedede" fill-opacity="1"/>
</svg>
