<?xml version="1.0" encoding="UTF-8"?>
<svg xmlns="http://www.w3.org/2000/svg" xmlns:xlink="http://www.w3.org/1999/xlink" baseProfile="tiny" contentScriptType="text/ecmascript" contentStyleType="text/css" height="30px" preserveAspectRatio="xMidYMid meet" version="1.1" viewBox="0 0 30 30" width="30px" x="0px" y="0px" zoomAndPan="magnify">
<path d="M 29.996 18.0 C 29.996 17.895 29.982 17.788 29.948 17.684 C 29.813 17.275 29.431 17.0 29.0 17.0 L 28.84 17.0 C 28.935 16.345 29.0 15.681 29.0 15.0 C 29.0 7.28 22.72 1.0 15.0 1.0 C 7.2800007 1.0 1.0 7.28 1.0 15.0 C 1.0 21.737 5.785 27.377 12.135 28.703 C 12.42 29.459 13.146 30.0 14.0 30.0 L 28.0 30.0 C 29.103 30.0 30.0 29.103 30.0 28.0 L 30.0 20.0 L 30.0 19.5 L 30.0 18.0 L 29.996 18.0 z " fill-opacity="0.15"/>
<rect fill="none" height="30" width="30"/>
<path d="M 21.0 23.0 L 29.0 17.0 L 13.0 17.0 L 21.0 23.0 z M 13.0 18.5 L 13.0 27.0 C 13.0 27.55 13.45 28.0 14.0 28.0 L 28.0 28.0 C 28.55 28.0 29.0 27.55 29.0 27.0 L 29.0 18.5 L 21.0 24.5 L 13.0 18.5 z M 27.83 16.0 C 27.932 15.347 28.0 14.682 28.0 14.0 C 28.0 6.831 22.167 1.0 15.0 1.0 C 7.831 1.0 2.0 6.831 2.0 14.0 C 2.0 19.396 5.307 24.034 10.0 25.997 L 10.0 26.0 C 10.186 26.077 10.38 26.137 10.57 26.206 C 10.768 26.278 10.962999 26.359 11.165999 26.422 C 11.351999 26.48 11.546 26.52 11.735999 26.568 C 11.823999 26.589998 11.911999 26.610998 11.999999 26.634998 L 11.999999 17.0 L 12.003999 17.0 C 12.003999 16.895 12.017999 16.788 12.051999 16.684 C 12.188 16.275 12.569 16.0 13.0 16.0 L 27.83 16.0 z M 15.877 8.242 C 16.309 7.855 16.685 7.696 17.172 7.696 C 17.328 7.696 17.492 7.7119994 17.683998 7.73 L 18.247995 7.7789993 C 18.515997 7.8039994 18.780998 7.829999 19.022997 7.829999 C 19.362995 7.829999 19.581997 7.775 19.670998 7.6739993 C 19.774998 7.551999 19.763998 7.300999 19.736998 7.116999 C 19.658998 6.6089993 19.572998 6.5819993 19.158998 6.451999 C 18.985 6.393999 18.783998 6.3319993 18.561 6.2259994 C 17.721 5.8319993 17.214 5.4949994 17.294998 5.0249996 C 17.370998 4.5659995 17.931995 4.4459996 18.472998 4.3879995 C 18.515997 4.362999 18.591995 4.2059994 18.638998 4.1139994 C 18.721998 3.9379992 18.818998 3.7419991 18.992 3.5759993 L 19.086998 3.4969993 C 19.156998 3.4389992 19.242998 3.4119992 19.329 3.4119992 C 19.38 3.4119992 19.430998 3.4209993 19.478998 3.4409993 C 22.156998 4.5819993 24.283998 6.678999 25.472998 9.346999 C 25.546995 9.508999 25.497995 9.704 25.353998 9.809999 C 25.283998 9.860999 25.205996 9.884999 25.124998 9.884999 C 25.037 9.884999 24.947 9.853999 24.874998 9.791999 C 24.731998 9.668999 24.413998 9.571999 24.159998 9.492999 C 24.044 9.457999 23.933 9.424999 23.832998 9.388 C 23.573996 9.292 23.337996 9.176999 23.103998 9.061999 C 22.990995 9.006999 22.875998 8.952999 22.759 8.898 C 22.429 8.745999 22.186 8.668 21.999 8.668 L 21.98 8.668 C 21.978 8.668 21.88 8.762 21.904 9.307 C 21.921 9.662 22.009 10.325 22.425 10.762 C 22.572 10.918 22.802 11.014 23.044 11.117 C 23.321 11.233999 23.634 11.367 23.877 11.617 C 24.258 12.009999 24.248 12.328 24.237 12.695999 L 24.231 12.925999 C 24.23 13.334999 24.185 13.676999 24.117 13.998999 L 18.144 13.998999 C 18.065 13.899999 17.987 13.802999 17.908 13.689999 C 17.786 13.517999 17.692 13.322999 17.599998 13.134998 C 17.488998 12.904999 17.374998 12.663999 17.231998 12.536999 C 17.023998 12.348999 16.722998 12.202999 16.406998 12.048999 C 15.655997 11.678999 14.718998 11.221999 14.761997 9.985999 C 14.79 9.314 15.474 8.604 15.877 8.242 z M 10.155 16.048 C 10.051 16.358 10.006 16.679 10.006 17.0 L 10.0 17.0 L 10.0 24.309 L 9.896 24.258 C 9.863 24.239 9.833 24.219 9.805 24.194 C 9.523001 23.928 9.4210005 23.51 9.382 23.277 C 9.276 22.61 9.133 21.695 9.24 20.979 C 9.261 20.827 9.289 20.67 9.316 20.512 C 9.422 19.912 9.532 19.291 9.365 18.733002 C 9.256 18.364002 8.957 18.121002 8.61 17.837002 C 8.177 17.483002 7.685 17.083002 7.5739994 16.370003 C 7.487999 15.847003 7.612999 15.370003 7.935 14.993003 C 8.33 14.532002 8.997999 14.255003 9.726999 14.255003 C 9.967999 14.255003 10.202 14.284003 10.421999 14.345003 C 10.555999 14.382003 10.705999 14.4190035 10.866999 14.460003 C 10.984999 14.489003 11.123999 14.527003 11.252998 14.561003 C 10.752 14.919 10.36 15.433 10.155 16.048 z M 12.145 8.357 C 11.887 8.389 11.676001 8.413 11.569 8.440001 C 10.698 8.662001 10.239 9.238001 9.704 9.905001 C 9.366 10.326 9.016001 10.7630005 8.538 11.134001 C 8.053 11.5130005 7.504 11.603001 7.019 11.68 C 6.676 11.736 6.356 11.788 6.072 11.926001 C 5.788 12.070001 5.704 12.183001 5.696 12.226001 C 5.675 12.400001 6.131 12.806001 6.403 13.0460005 C 6.918 13.503 7.448 13.972 7.387 14.56 C 7.307 15.359 6.256 15.46 5.6800003 15.519 C 5.5130005 15.533 5.3710003 15.54 5.248 15.54 C 4.689 15.54 4.4300003 15.379 4.033 15.138 L 3.814 15.014999 C 3.671 14.962999 3.572 14.829999 3.562 14.678 L 3.5499997 14.511 C 3.54 14.342 3.527 14.174 3.527 14.0 C 3.527 10.845 4.797 7.898 7.099 5.705 C 7.171 5.638 7.266 5.6 7.361 5.6 L 7.383 5.6 C 7.487 5.605 7.586 5.6549997 7.654 5.735 C 7.833 5.948 8.217 6.065 8.731 6.065 C 8.988 6.065 9.279 6.0360003 9.547 5.981 C 9.701 5.948 9.854 5.913 10.002 5.877 C 10.429 5.777 10.869 5.674 11.36 5.674 L 11.46 5.674 C 11.596 5.68 14.781 5.79 15.037 6.826 C 15.092999 7.05 15.053 7.267 14.922 7.458 C 14.537 8.021 13.389 8.205 12.145 8.357 z " fill-opacity="0.3"/>
<path d="M 21.0 24.0 L 29.0 18.0 L 13.0 18.0 L 21.0 24.0 z M 13.0 19.5 L 13.0 28.0 C 13.0 28.55 13.45 29.0 14.0 29.0 L 28.0 29.0 C 28.55 29.0 29.0 28.55 29.0 28.0 L 29.0 19.5 L 21.0 25.5 L 13.0 19.5 z M 27.83 17.0 C 27.932 16.347 28.0 15.682 28.0 15.0 C 28.0 7.831 22.167 2.0 15.0 2.0 C 7.831 2.0 2.0 7.831 2.0 15.0 C 2.0 20.396 5.307 25.034 10.0 26.997 L 10.0 27.0 C 10.186 27.077 10.38 27.137 10.57 27.206 C 10.768 27.278 10.962999 27.359 11.165999 27.422 C 11.351999 27.48 11.546 27.52 11.735999 27.568 C 11.823999 27.589998 11.911999 27.610998 11.999999 27.634998 L 11.999999 18.0 L 12.003999 18.0 C 12.003999 17.895 12.017999 17.788 12.051999 17.684 C 12.188 17.275 12.569 17.0 13.0 17.0 L 27.83 17.0 z M 15.877 9.242 C 16.309 8.855 16.685 8.695999 17.172 8.695999 C 17.328 8.695999 17.492 8.711999 17.683998 8.73 L 18.247995 8.778999 C 18.515997 8.803999 18.780998 8.829999 19.022997 8.829999 C 19.362995 8.829999 19.581997 8.774999 19.670998 8.673999 C 19.774998 8.551999 19.763998 8.300999 19.736998 8.116999 C 19.658998 7.608999 19.572998 7.581999 19.158998 7.451998 C 18.985 7.3939986 18.783998 7.331999 18.561 7.225999 C 17.721 6.831999 17.214 6.494999 17.294998 6.0249987 C 17.370998 5.5659986 17.931995 5.4459987 18.472998 5.3879986 C 18.515997 5.3629985 18.591995 5.2059984 18.638998 5.1139984 C 18.721998 4.9379983 18.818998 4.741998 18.992 4.5759983 L 19.086998 4.4969983 C 19.156998 4.438998 19.242998 4.4119983 19.329 4.4119983 C 19.38 4.4119983 19.430998 4.420998 19.478998 4.440998 C 22.156998 5.581998 24.283998 7.678998 25.472998 10.346998 C 25.546995 10.508998 25.497995 10.703999 25.353998 10.8099985 C 25.283998 10.860998 25.205996 10.884998 25.124998 10.884998 C 25.037 10.884998 24.947 10.853998 24.874998 10.791998 C 24.731998 10.668998 24.413998 10.571998 24.159998 10.492998 C 24.044 10.457998 23.933 10.424998 23.832998 10.387999 C 23.573996 10.291999 23.337996 10.176998 23.103998 10.061998 C 22.990995 10.006998 22.875998 9.952998 22.759 9.897999 C 22.429 9.745998 22.186 9.667999 21.999 9.667999 L 21.98 9.667999 C 21.978 9.667999 21.88 9.761999 21.904 10.306999 C 21.921 10.661999 22.009 11.324999 22.425 11.761999 C 22.572 11.917999 22.802 12.013999 23.044 12.116999 C 23.321 12.233998 23.634 12.366999 23.877 12.616999 C 24.258 13.009998 24.248 13.327999 24.237 13.695999 L 24.231 13.925999 C 24.23 14.334999 24.185 14.676999 24.117 14.998999 L 18.144 14.998999 C 18.065 14.899999 17.987 14.802999 17.908 14.689999 C 17.786 14.517999 17.692 14.322999 17.599998 14.134998 C 17.488998 13.904999 17.374998 13.663999 17.231998 13.536999 C 17.023998 13.348999 16.722998 13.202999 16.406998 13.048999 C 15.655997 12.678999 14.718998 12.221999 14.761997 10.985999 C 14.79 10.314 15.474 9.604 15.877 9.242 z M 10.155 17.048 C 10.051 17.358 10.006 17.679 10.006 18.0 L 10.0 18.0 L 10.0 25.309 L 9.896 25.258 C 9.863 25.239 9.833 25.219 9.805 25.194 C 9.523001 24.928 9.4210005 24.51 9.382 24.277 C 9.276 23.61 9.133 22.695 9.24 21.979 C 9.261 21.827 9.289 21.67 9.316 21.512 C 9.422 20.912 9.532 20.291 9.365 19.733002 C 9.256 19.364002 8.957 19.121002 8.61 18.837002 C 8.177 18.483002 7.685 18.083002 7.5739994 17.370005 C 7.487999 16.847002 7.612999 16.370003 7.935 15.993003 C 8.33 15.532002 8.997999 15.255003 9.726999 15.255003 C 9.967999 15.255003 10.202 15.284003 10.421999 15.345003 C 10.555999 15.382003 10.705999 15.4190035 10.866999 15.460003 C 10.984999 15.489003 11.123999 15.527003 11.252998 15.561003 C 10.752 15.919 10.36 16.433 10.155 17.048 z M 12.145 9.357 C 11.887 9.389 11.676001 9.413 11.569 9.440001 C 10.698 9.662001 10.239 10.238001 9.704 10.905001 C 9.366 11.326 9.016001 11.7630005 8.538 12.134001 C 8.053 12.5130005 7.504 12.603001 7.019 12.68 C 6.676 12.736 6.356 12.788 6.072 12.926001 C 5.788 13.070001 5.704 13.183001 5.696 13.226001 C 5.675 13.400001 6.131 13.806001 6.403 14.046 C 6.918 14.503 7.448 14.972 7.387 15.56 C 7.307 16.359001 6.256 16.460001 5.6800003 16.519001 C 5.5130005 16.533 5.3710003 16.54 5.248 16.54 C 4.689 16.54 4.4300003 16.379002 4.033 16.138 L 3.814 16.015001 C 3.671 15.963001 3.572 15.830001 3.562 15.678001 L 3.5499997 15.511002 C 3.54 15.342 3.527 15.174 3.527 15.0 C 3.527 11.845 4.797 8.898 7.099 6.705 C 7.171 6.638 7.266 6.6 7.361 6.6 L 7.383 6.6 C 7.487 6.605 7.586 6.6549997 7.654 6.735 C 7.833 6.948 8.217 7.065 8.731 7.065 C 8.988 7.065 9.279 7.036 9.547 6.981 C 9.701 6.948 9.854 6.913 10.002 6.877 C 10.429 6.777 10.869 6.674 11.36 6.674 L 11.46 6.674 C 11.596 6.68 14.781 6.79 15.037 7.826 C 15.092999 8.05 15.053 8.267 14.922 8.458 C 14.537 9.021 13.389 9.205 12.145 9.357 z " fill="#dedede"/>
</svg>
