<?xml version="1.0" encoding="UTF-8"?>
<svg xmlns="http://www.w3.org/2000/svg" xmlns:xlink="http://www.w3.org/1999/xlink" baseProfile="tiny" contentScriptType="text/ecmascript" contentStyleType="text/css" height="57px" preserveAspectRatio="xMidYMid meet" version="1.1" viewBox="0 0 67 57" width="67px" x="0px" y="0px" zoomAndPan="magnify">
<rect color="#000000" display="inline" fill="#646464" fill-opacity="0.58823532" fill-rule="nonzero" height="48" ry="8.2174387" stroke="none" visibility="visible" width="48" x="9.5" y="5.5"/>
<rect fill="none" height="57" width="67"/>
<path d="M 33.476177 36.773144 C 31.715508 36.773144 30.28478 38.203136 30.28478 39.962337 C 30.28478 41.723007 31.715508 43.154472 33.476177 43.154472 C 35.23464 43.154472 36.666107 41.72301 36.666107 39.96234 C 36.666107 38.20314 35.23391 36.773148 33.47618 36.773148 z M 33.374775 30.39182 C 30.542711 30.39182 27.897297 31.525673 25.921322 33.587627 C 25.887512 33.6229 25.59138 33.952843 25.59138 34.460613 C 25.59138 35.176346 26.17484 35.76054 26.891308 35.76054 C 27.280037 35.76054 27.64672 35.575363 27.866436 35.28804 C 29.347866 33.79265 31.303268 32.967422 33.374775 32.963013 C 35.53299 32.96741 37.54277 33.84702 39.000687 35.40194 C 39.252735 35.76275 39.63632 35.9685 40.05224 35.9685 C 40.76944 35.9685 41.35143 35.38871 41.35143 34.672245 C 41.35143 34.28793 41.04427 33.84702 40.92302 33.690502 C 38.939693 31.56462 36.259007 30.39182 33.37477 30.39182 z M 45.194626 28.80457 C 42.02013 25.619783 37.823475 23.86573 33.375504 23.86573 C 28.846704 23.86573 24.597874 25.664612 21.443214 28.898628 C 21.396923 28.936848 20.988352 29.288094 20.988352 29.888454 C 20.988352 30.60639 21.570345 31.189852 22.286076 31.189852 C 22.659372 31.189852 23.015034 31.021572 23.24504 30.751154 C 25.943363 27.978613 29.542597 26.444271 33.376236 26.436192 C 37.25985 26.444292 40.888477 28.01168 43.61252 30.864317 C 43.65 30.897388 43.97994 31.189114 44.52739 31.189114 C 45.241653 31.189114 45.82438 30.605654 45.82438 29.887716 C 45.823643 29.294706 45.389355 28.95374 45.194626 28.80457 z M 49.981354 24.2912 L 49.982853 24.158928 L 49.85279 24.158928 C 49.84319 24.149427 49.83515 24.142756 49.827072 24.136875 C 45.4379 19.685234 39.595207 17.230877 33.374813 17.230877 C 27.142658 17.230877 21.293354 19.69111 16.919603 24.136875 C 16.634485 24.395538 16.476496 24.736504 16.476496 25.10172 C 16.476496 25.82039 17.058483 26.403114 17.775686 26.403114 C 18.393684 26.403114 18.725832 26.008509 18.733915 25.99381 C 22.63884 22.010258 27.838549 19.813095 33.374813 19.802073 C 38.95957 19.813091 44.192352 22.04553 48.170757 26.14372 C 48.20971 26.16944 48.565365 26.403116 48.981285 26.403116 C 49.698486 26.403116 50.280476 25.819654 50.280476 25.10172 C 50.27974 24.817335 50.175392 24.536629 49.981396 24.291191 z " fill="#e1e1e1" fill-opacity="1" stroke-opacity="0.3"/>
<defs>
<linearGradient gradientUnits="userSpaceOnUse" x1="33.5005" x2="33.5005" xlink:actuate="onLoad" xlink:show="other" xlink:type="simple" y1="47.2334" y2="11.9575">
<stop offset="0" stop-color="#d0cbc5"/>
<stop offset="0.5031" stop-color="#fafcef"/>
<stop offset="0.9693" stop-color="#ffffff"/>
<stop offset="1" stop-color="#ffffff"/>
</linearGradient>
</defs>
</svg>
