<?xml version="1.0" encoding="UTF-8"?>
<svg xmlns="http://www.w3.org/2000/svg" xmlns:xlink="http://www.w3.org/1999/xlink" baseProfile="tiny" contentScriptType="text/ecmascript" contentStyleType="text/css" height="30px" preserveAspectRatio="xMidYMid meet" version="1.1" viewBox="0 0 30 30" width="30px" x="0px" y="0px" zoomAndPan="magnify">
<defs/>
<rect color="#000000" display="inline" fill="#353535" fill-opacity="0.58823529" fill-rule="nonzero" height="27.533897" ry="4.7137108" stroke="none" visibility="visible" width="27.533897" x="1.2330513" y="1.2330513"/>
<path d="M 6.34375 6.40625 C 5.9445314 6.40625 5.625 6.7289066 5.625 7.125 L 5.625 22.875 C 5.625 23.271093 5.944531 23.59375 6.34375 23.59375 L 23.65625 23.59375 C 24.055468 23.59375 24.375 23.271093 24.375 22.875 L 24.375 7.125 C 24.375 6.728906 24.055468 6.4062495 23.65625 6.40625 L 6.34375 6.40625 z M 16.53125 8.90625 L 17.0625 8.90625 L 17.0625 21.09375 L 15.6875 21.09375 L 15.6875 10.78125 C 15.582419 10.886336 15.420601 11.020768 15.21875 11.15625 C 15.016891 11.291752 14.814125 11.429783 14.5625 11.5625 C 14.310868 11.695237 14.029277 11.821374 13.75 11.9375 C 13.470718 12.053646 13.202952 12.152396 12.9375 12.21875 L 12.9375 10.84375 C 13.236134 10.76081 13.540415 10.641033 13.875 10.5 C 14.20958 10.358988 14.551474 10.205465 14.875 10.03125 C 15.198518 9.857058 15.493671 9.659557 15.78125 9.46875 C 16.06882 9.2779665 16.321095 9.088761 16.53125 8.90625 z " fill="#ffffff"/>
<rect fill="none" height="30" width="30"/>
<rect fill="none" height="30" width="30"/>
</svg>
