<?xml version="1.0" encoding="UTF-8"?>
<svg xmlns="http://www.w3.org/2000/svg" xmlns:xlink="http://www.w3.org/1999/xlink" baseProfile="tiny" contentScriptType="text/ecmascript" contentStyleType="text/css" height="20px" preserveAspectRatio="xMidYMid meet" version="1.1" viewBox="0 0 21 20" width="21px" x="0px" y="0px" zoomAndPan="magnify">
<rect fill="none" height="20" width="21"/>
<path d="M 10.5 1.0 C 5.529 1.0 1.5 5.029 1.5 10.0 C 1.5 14.971001 5.529 19.0 10.5 19.0 C 15.471001 19.0 19.5 14.971001 19.5 10.0 C 19.5 5.0289993 15.471 1.0 10.5 1.0 z M 11.764 3.531 L 11.514 11.426 L 9.203 11.426 L 8.953 3.5309997 L 11.764 3.5309997 z M 10.334 15.764 C 9.42 15.764 8.721 15.1 8.721 14.135 C 8.721 13.17 9.42 12.522 10.334 12.522 C 11.247999 12.522 11.962999 13.17 11.962999 14.135 C 11.962999 15.1 11.248 15.764 10.334 15.764 z " fill="#dedede" fill-opacity="1"/>
<defs>
<linearGradient gradientUnits="userSpaceOnUse" x1="10.5005" x2="10.5005" xlink:actuate="onLoad" xlink:show="other" xlink:type="simple" y1="19" y2="1.0005">
<stop offset="0" stop-color="#d0cbc5"/>
<stop offset="1" stop-color="#fcfcf9"/>
</linearGradient>
</defs>
</svg>
