<?xml version="1.0" encoding="UTF-8"?>
<svg xmlns="http://www.w3.org/2000/svg" xmlns:xlink="http://www.w3.org/1999/xlink" baseProfile="tiny" contentScriptType="text/ecmascript" contentStyleType="text/css" height="57px" preserveAspectRatio="xMidYMid meet" version="1.1" viewBox="0 0 67 57" width="67px" x="0px" y="0px" zoomAndPan="magnify">
<rect fill="none" height="57" width="67"/>
<path d="M 21.009 36.929 L 20.832 36.925 C 18.097 36.925 17.5 38.128 17.5 40.342 C 17.5 42.562 18.113 43.764 20.832 43.764 L 21.009 43.768 C 23.746 43.768 24.338 42.564003 24.338 40.351 C 24.338 38.136 23.729 36.929 21.009 36.929 z M 31.111 21.731 L 47.896 21.731 C 48.78 21.731 49.5 21.01 49.5 20.13 L 49.5 17.177002 C 49.5 16.298002 48.782 15.576002 47.896 15.576002 L 31.111 15.576002 C 30.238 15.576002 29.514 16.298002 29.514 17.177002 L 29.514 20.13 C 29.515 21.011 30.238 21.731 31.111 21.731 z M 21.009 26.082 L 20.832 26.082 C 18.097 26.082 17.5 27.283 17.5 29.494 C 17.5 31.716002 18.113 32.921 20.832 32.921 L 21.009 32.921 C 23.746 32.921 24.338 31.719002 24.338 29.505 C 24.338 27.284 23.729 26.082 21.009 26.082 z M 31.021 32.578 L 47.801003 32.578 C 48.679 32.578 49.402004 31.859 49.404003 30.977 L 49.404003 28.023 C 49.404003 27.141 48.679005 26.424 47.801003 26.424 L 31.021002 26.424 C 30.137 26.424 29.412004 27.141 29.412004 28.023 L 29.412004 30.977 C 29.412 31.859 30.138 32.578 31.021 32.578 z M 21.009 15.234 L 20.832 15.232 C 18.097 15.232 17.5 16.433 17.5 18.645 C 17.5 20.868 18.113 22.071 20.832 22.071 L 21.009 22.074 C 23.746 22.074 24.338 20.87 24.338 18.658 C 24.338 16.439 23.729 15.234 21.009 15.234 z M 49.5 41.823 L 49.5 38.869003 C 49.5 37.989 48.782 37.270004 47.896 37.270004 L 31.111 37.270004 C 30.238 37.270004 29.514 37.98901 29.514 38.869003 L 29.514 41.823 C 29.514 42.703003 30.238 43.421 31.111 43.421 L 47.896 43.421 C 48.78 43.421 49.5 42.703 49.5 41.823 z M 52.833 31.004 C 52.833 31.004 51.572 30.875 51.572 32.195 L 51.572 47.84 C 50.699997 47.447 49.678997 47.209 48.577 47.209 C 45.493 47.209 43.0 48.951 43.0 51.105 C 43.0 53.259 45.493 55.0 48.577 55.0 C 51.652 55.0 54.142 53.259 54.142 51.105 L 54.142 37.605 C 56.705 37.997 59.052 38.531 60.998997 39.073 L 60.998997 32.547997 C 58.038 31.78 55.096 31.329 52.833 31.004 z " fill="#575757" fill-opacity="1" stroke-opacity="0.3"/>
<defs>
<linearGradient gradientUnits="userSpaceOnUse" x1="39.25" x2="39.25" xlink:actuate="onLoad" xlink:show="other" xlink:type="simple" y1="54" y2="14.2329">
<stop offset="0" stop-color="#d0cbc5"/>
<stop offset="0.5031" stop-color="#fafcef"/>
<stop offset="0.9693" stop-color="#ffffff"/>
<stop offset="1" stop-color="#ffffff"/>
</linearGradient>
</defs>
</svg>
