<?xml version="1.0" encoding="UTF-8"?>
<svg xmlns="http://www.w3.org/2000/svg" xmlns:xlink="http://www.w3.org/1999/xlink" baseProfile="tiny" contentScriptType="text/ecmascript" contentStyleType="text/css" height="57px" preserveAspectRatio="xMidYMid meet" version="1.1" viewBox="0 0 67 57" width="67px" x="0px" y="0px" zoomAndPan="magnify">
<rect fill="none" height="57" width="67"/>
<path d="M 34.0 42.771 L 34.0 39.999 L 36.644 39.999 L 37.073 39.57 C 37.448 39.195 37.957 38.984 38.487003 38.984 L 39.173004 38.984 C 39.537003 38.984 39.89201 39.084 40.199005 39.267 C 40.506004 39.083004 40.860004 38.984 41.224007 38.984 L 41.908005 38.984 C 42.417004 38.984 42.90601 39.178 43.276005 39.526 C 43.647003 39.178 44.136005 38.984 44.645004 38.984 C 44.645004 38.984 46.723003 38.984 46.735004 38.984 L 47.719 38.0 L 35.004 38.0 L 35.004 21.0 L 51.985 21.0 L 51.985 33.734 L 55.0 30.72 L 55.0 16.0 C 55.0 14.9 54.1 14.0 53.0 14.0 L 13.0 14.0 C 11.9 14.0 11.0 14.9 11.0 16.0 L 11.0 43.0 C 11.0 44.1 11.9 45.0 13.0 45.0 L 34.226 45.0 C 33.691 44.363 33.615 43.48 34.0 42.771 z M 49.0 15.999 L 52.0 15.999 L 52.0 18.999 L 49.0 18.999 L 49.0 15.999 z M 44.0 15.999 L 47.0 15.999 L 47.0 18.999 L 44.0 18.999 L 44.0 15.999 z M 39.0 15.999 L 42.0 15.999 L 42.0 18.999 L 39.0 18.999 L 39.0 15.999 z M 34.0 15.999 L 37.0 15.999 L 37.0 18.999 L 34.0 18.999 L 34.0 15.999 z M 24.0 15.999 L 27.0 15.999 L 27.0 18.999 L 24.0 18.999 L 24.0 15.999 z M 19.0 15.999 L 22.0 15.999 L 22.0 18.999 L 19.0 18.999 L 19.0 15.999 z M 14.0 15.999 L 17.0 15.999 L 17.0 18.999 L 14.0 18.999 L 14.0 15.999 z M 14.0 21.0 L 31.036 21.0 L 31.036 38.0 L 14.0 38.0 L 14.0 21.0 z M 17.0 42.999 L 14.0 42.999 L 14.0 39.999 L 17.0 39.999 L 17.0 42.999 z M 22.0 42.999 L 19.0 42.999 L 19.0 39.999 L 22.0 39.999 L 22.0 42.999 z M 27.0 42.999 L 24.0 42.999 L 24.0 39.999 L 27.0 39.999 L 27.0 42.999 z M 32.0 42.999 L 29.0 42.999 L 29.0 39.999 L 32.0 39.999 L 32.0 42.999 z M 32.0 18.999 L 29.0 18.999 L 29.0 15.999001 L 32.0 15.999001 L 32.0 18.999 z M 55.584 35.661 C 54.836 35.578 53.912 36.044 53.539 36.698 L 51.486 39.615 L 50.119 39.615 L 49.433 40.983997 L 48.75 40.983997 L 48.065 41.666996 L 47.379997 41.666996 L 46.696 40.983997 L 44.643 40.983997 L 43.959 41.666996 L 42.591 41.666996 L 41.905 40.983997 L 41.221 40.983997 L 40.536 41.666996 L 39.851997 41.666996 L 39.168 40.983997 L 38.482 40.983997 L 35.746 43.719997 L 38.482 46.456997 L 44.997997 46.456997 L 55.848 35.688995 L 55.584 35.661 z M 61.065 36.878 C 60.689 36.502 59.768997 36.126 59.019997 36.043 L 57.778996 35.905 L 47.226 46.458 L 49.434 46.458 L 50.120003 47.825 L 51.487003 47.825 L 53.540005 50.743 C 53.91301 51.396 54.83701 51.862 55.585007 51.78 L 59.022007 51.397 C 59.771008 51.314 60.69101 50.939 61.06701 50.562 C 61.444008 50.185 61.75201 49.262 61.75201 48.509 L 61.75201 38.931 C 61.75 38.178 61.442 37.255 61.065 36.878 z M 59.014 47.484 C 59.014 48.049 58.553 48.509003 57.987 48.509003 C 57.422 48.509003 56.962 48.049004 56.962 47.484 L 56.962 39.958 C 56.962 39.391 57.421997 38.932 57.987 38.932 C 58.553 38.932 59.014 39.391 59.014 39.958 L 59.014 47.484 z " fill="#575757" fill-opacity="1" stroke-opacity="0.3"/>
<path d="M 40.98424 50.74723 C 40.98424 50.485233 41.08524 50.223236 41.284237 50.021233 L 61.127235 30.179234 C 61.528236 29.779234 62.17823 29.779234 62.579235 30.179234 C 62.978233 30.581234 62.978233 31.231234 62.579235 31.630234 L 42.736237 51.474236 C 42.335236 51.873234 41.68524 51.873234 41.284237 51.474236 C 41.085236 51.273235 40.98424 51.010235 40.98424 50.74723 L 40.98424 50.74723 z " fill="#fa664b"/>
<defs>
<linearGradient gradientUnits="userSpaceOnUse" x1="36.375" x2="36.375" xlink:actuate="onLoad" xlink:show="other" xlink:type="simple" y1="50.79" y2="13.0005">
<stop offset="0" stop-color="#d0cbc5"/>
<stop offset="0.5031" stop-color="#fafcef"/>
<stop offset="0.9693" stop-color="#ffffff"/>
<stop offset="1" stop-color="#ffffff"/>
</linearGradient>
</defs>
</svg>
