<?xml version="1.0" encoding="UTF-8"?>
<svg xmlns="http://www.w3.org/2000/svg" xmlns:xlink="http://www.w3.org/1999/xlink" baseProfile="tiny" contentScriptType="text/ecmascript" contentStyleType="text/css" height="30px" preserveAspectRatio="xMidYMid meet" version="1.1" viewBox="0 0 30 30" width="30px" x="0px" y="0px" zoomAndPan="magnify">
<path d="M 20.0 30.0 C 19.824 30.0 19.649 29.954 19.492 29.861 C 19.188 29.682 19.0 29.354 19.0 29.0 L 9.0 29.0 C 7.896 29.0 7.0 28.104 7.0 27.0 C 5.896 27.0 5.0 26.104 5.0 25.0 C 3.896 25.0 3.0 24.104 3.0 23.0 L 3.0 3.0 C 3.0 1.896 3.896 1.0 5.0 1.0 L 21.0 1.0 C 22.104 1.0 23.0 1.896 23.0 3.0 C 24.104 3.0 25.0 3.896 25.0 5.0 C 26.104 5.0 27.0 5.896 27.0 7.0 L 27.0 21.189 C 27.0 21.361 26.955 21.529 26.874 21.674 L 29.486 23.125 C 29.803 23.303 30.0 23.637 30.0 24.0 C 30.0 24.363 29.803 24.697 29.486 24.874 L 26.874 26.325 C 26.955 26.471 27.0 26.639 27.0 26.811 L 27.0 27.0 C 27.0 28.104 26.104 29.0 25.0 29.0 L 23.859 29.0 C 23.49 29.0 23.157999 28.797 22.984 28.485 L 20.486 29.874 C 20.334 29.958 20.167 30.0 20.0 30.0 L 20.0 30.0 z " fill-opacity="0.15"/>
<path d="M 24.0 4.0 C 24.0 3.447 23.553 3.0 23.0 3.0 L 7.0 3.0 C 6.447 3.0 6.0 3.447 6.0 4.0 L 6.0 24.0 C 6.0 24.553 6.447 25.0 7.0 25.0 L 7.0 6.0 C 7.0 4.896 7.896 4.0 9.0 4.0 L 24.0 4.0 z M 22.0 2.0 C 22.0 1.447 21.553 1.0 21.0 1.0 L 5.0 1.0 C 4.447 1.0 4.0 1.447 4.0 2.0 L 4.0 22.0 C 4.0 22.553 4.447 23.0 5.0 23.0 L 5.0 4.0 C 5.0 2.896 5.896 2.0 7.0 2.0 L 22.0 2.0 z M 25.0 27.0 C 25.553 27.0 26.0 26.553 26.0 26.0 L 26.0 25.811 L 23.859 27.0 L 25.0 27.0 z M 29.0 23.0 L 20.0 18.0 L 20.0 21.0 L 16.0 21.0 L 16.0 25.0 L 20.0 25.0 L 20.0 28.0 L 29.0 23.0 z M 15.0 25.0 L 15.0 21.0 C 15.0 20.447 15.447 20.0 16.0 20.0 L 19.0 20.0 L 19.0 18.0 C 19.0 17.646 19.188 17.318 19.492 17.139 C 19.649 17.046 19.824 17.0 20.0 17.0 C 20.167 17.0 20.334 17.042 20.486 17.126 L 26.0 20.189 L 26.0 6.0 C 26.0 5.447 25.553 5.0 25.0 5.0 L 9.0 5.0 C 8.447 5.0 8.0 5.447 8.0 6.0 L 8.0 26.0 C 8.0 26.553 8.447 27.0 9.0 27.0 L 19.0 27.0 L 19.0 26.0 L 16.0 26.0 C 15.447 26.0 15.0 25.553 15.0 25.0 z " fill-opacity="0.3"/>
<rect fill="none" height="30" width="30"/>
<path d="M 22.0 3.0 C 22.0 2.447 21.553 2.0 21.0 2.0 L 5.0 2.0 C 4.447 2.0 4.0 2.447 4.0 3.0 L 4.0 23.0 C 4.0 23.553 4.447 24.0 5.0 24.0 L 5.0 5.0 C 5.0 3.896 5.896 3.0 7.0 3.0 L 22.0 3.0 z " fill="#dedede"/>
<path d="M 24.0 5.0 C 24.0 4.447 23.553 4.0 23.0 4.0 L 7.0 4.0 C 6.447 4.0 6.0 4.447 6.0 5.0 L 6.0 25.0 C 6.0 25.553 6.447 26.0 7.0 26.0 L 7.0 7.0 C 7.0 5.896 7.896 5.0 9.0 5.0 L 24.0 5.0 z " fill="#dedede"/>
<path d="M 25.0 28.0 C 25.553 28.0 26.0 27.553 26.0 27.0 L 26.0 26.811 L 23.859 28.0 L 25.0 28.0 z " fill="#dedede"/>
<path d="M 18.8 27.2 L 16.0 27.2 C 15.338 27.2 14.8 26.662 14.8 26.0 L 14.8 22.0 C 14.8 21.338 15.338 20.8 16.0 20.8 L 18.8 20.8 L 18.8 19.0 C 18.8 18.574 19.026 18.182 19.391998 17.966 C 19.579 17.855 19.789 17.8 20.0 17.8 C 20.201 17.8 20.401 17.849998 20.583 17.950998 L 26.0 20.961 L 26.0 7.0 C 26.0 6.447 25.553 6.0 25.0 6.0 L 9.0 6.0 C 8.447 6.0 8.0 6.447 8.0 7.0 L 8.0 27.0 C 8.0 27.553 8.447 28.0 9.0 28.0 L 18.8 28.0 L 18.8 27.2 z " fill="#dedede"/>
<polygon fill="#dedede" points="29,24 20,19 20,22 16,22 16,26 20,26 20,29 "/>
</svg>
