<?xml version="1.0" encoding="UTF-8"?>
<svg xmlns="http://www.w3.org/2000/svg" xmlns:xlink="http://www.w3.org/1999/xlink" baseProfile="tiny" contentScriptType="text/ecmascript" contentStyleType="text/css" height="60px" preserveAspectRatio="xMidYMid meet" version="1.1" viewBox="0 0 58 60" width="58px" x="0px" y="0px" zoomAndPan="magnify">
<rect fill="none" height="60" width="58"/>
<defs>
<linearGradient gradientTransform="matrix(1 0 0 -1 -262.4805 -326.0195)" gradientUnits="userSpaceOnUse" x1="291.5352" x2="291.5352" xlink:actuate="onLoad" xlink:show="other" xlink:type="simple" y1="-392.7603" y2="-286.7174">
<stop offset="0" stop-color="#d0cbc5"/>
<stop offset="0.5031" stop-color="#fafcef"/>
<stop offset="0.9693" stop-color="#ffffff"/>
<stop offset="1" stop-color="#ffffff"/>
</linearGradient>
</defs>
<path color="#000000" d="M 28.554775 6.6123643 C 24.452944 6.6124105 21.036837 8.021113 18.312656 10.838481 C 15.588466 13.655931 14.235695 17.35585 14.235697 21.97554 C 14.235695 26.450275 15.553246 30.079762 18.163498 32.814285 C 20.773735 35.548847 23.939178 36.89126 27.709549 36.891243 C 29.967602 36.89126 32.086872 36.358852 34.023865 35.250515 C 35.960808 34.142216 37.47931 32.706577 38.598015 30.92496 C 38.618744 31.422174 38.59799 31.770205 38.598015 32.01878 C 38.59799 34.33902 38.36182 36.642666 37.80251 38.880005 C 37.243145 41.11737 36.54294 42.884468 35.71431 44.19994 C 34.885635 45.51543 33.82704 46.545025 32.53229 47.332237 C 31.237503 48.119457 29.727291 48.525497 28.007862 48.525497 C 25.998371 48.525497 24.320356 47.974445 23.03596 46.83505 C 21.751545 45.695663 20.90632 43.843628 20.450571 41.31624 L 15.080919 41.813427 C 15.536674 45.397343 16.899803 48.187824 19.15788 50.16622 C 21.41594 52.144623 24.295498 53.14936 27.858707 53.14936 C 31.214722 53.14936 34.162643 52.21713 36.658978 50.414818 C 39.155254 48.612503 41.0135 46.008472 42.27722 42.559208 C 43.54088 39.10996 44.16651 34.45917 44.166546 28.637884 C 44.16651 23.044523 43.55124 18.762476 42.27722 15.810378 C 41.003143 12.85835 39.113823 10.594067 36.658978 8.998873 C 34.204075 7.403768 31.517178 6.612406 28.554771 6.61236 z M 29.25084 11.236229 C 31.653906 11.23627 33.70688 12.185073 35.415997 14.070213 C 37.12506 15.955429 37.95164 18.515957 37.951668 21.726942 C 37.95164 24.937988 37.13335 27.421864 35.465717 29.234512 C 33.798035 31.047203 31.691196 31.969078 29.101685 31.96906 C 26.532852 31.969078 24.339005 31.047209 22.588491 29.234512 C 20.83796 27.421864 19.953377 25.074717 19.953384 22.174412 C 19.953377 18.942707 20.893894 16.299316 22.73765 14.269088 C 24.581385 12.238934 26.764874 11.236269 29.25084 11.236228 z " display="inline" fill="#dedede" fill-opacity="1" fill-rule="nonzero" stroke="none" stroke-width="2" visibility="visible"/>
</svg>
