<?xml version="1.0" encoding="UTF-8"?>
<svg xmlns="http://www.w3.org/2000/svg" xmlns:xlink="http://www.w3.org/1999/xlink" baseProfile="tiny" contentScriptType="text/ecmascript" contentStyleType="text/css" height="57px" preserveAspectRatio="xMidYMid meet" version="1.1" viewBox="0 0 67 57" width="67px" x="0px" y="0px" zoomAndPan="magnify">
<rect fill="#ffffff" fill-opacity="0.70588235" fill-rule="nonzero" height="48" ry="8.2174387" stroke="none" width="48" x="9.5" y="5.5"/>
<rect fill="#469fff" fill-opacity="0.58823529" fill-rule="nonzero" height="48" ry="8.2174387" stroke="none" width="48" x="9.5" y="5.5"/>
<defs>
<linearGradient gradientUnits="userSpaceOnUse" x1="34.1465" x2="34.1465" xlink:actuate="onLoad" xlink:show="other" xlink:type="simple" y1="49" y2="7.0005">
<stop offset="0" stop-color="#d0cbc5"/>
<stop offset="0.5031" stop-color="#fafcef"/>
<stop offset="0.9693" stop-color="#ffffff"/>
<stop offset="1" stop-color="#ffffff"/>
</linearGradient>
</defs>
<path color="#000000" d="M 34.32586 11.773504 C 37.37365 11.773533 40.09825 12.384322 42.525467 13.631689 C 44.952633 14.879109 46.87595 16.736063 48.276997 19.206244 C 49.469048 21.33236 50.046658 23.6428 50.04669 26.137571 C 50.046658 29.70156 48.80787 32.869816 46.30083 35.634964 C 44.064095 38.117462 41.61109 39.351337 38.95657 39.351337 C 38.108566 39.351337 37.414204 39.22598 36.89192 38.9679 C 36.36959 38.709816 35.98738 38.35588 35.74161 37.876583 C 35.58183 37.569344 35.49088 37.03352 35.417168 36.28385 C 34.618324 37.205578 33.722412 37.93681 32.73312 38.49598 C 31.743792 39.055157 30.749563 39.351337 29.754124 39.351337 C 28.660332 39.351337 27.600977 39.017056 26.568665 38.378 C 25.53633 37.73894 24.677288 36.755775 24.032091 35.428497 C 23.386885 34.101227 23.058746 32.648598 23.058758 31.063236 C 23.058746 29.1092 23.561394 27.153933 24.563004 25.19373 C 25.564598 23.233557 26.82182 21.752665 28.308872 20.769478 C 29.795897 19.786331 31.24361 19.294756 32.644638 19.29473 C 33.71381 19.294756 34.74122 19.59093 35.712116 20.15009 C 36.682972 20.709282 37.518665 21.543743 38.219193 22.686657 L 38.83859 19.855137 L 42.14203 19.855137 L 39.487484 32.21354 C 39.118767 33.93409 38.92705 34.890217 38.92707 35.07455 C 38.927048 35.406376 39.05855 35.690266 39.31051 35.92991 C 39.562416 36.16956 39.868427 36.28385 40.224857 36.28385 C 40.87617 36.28385 41.733986 35.912712 42.79092 35.16304 C 44.191902 34.17988 45.27707 32.863667 46.09436 31.210709 C 46.911583 29.557766 47.33312 27.836 47.33315 26.078575 C 47.33312 24.026236 46.79115 22.10906 45.740417 20.327051 C 44.689625 18.545082 43.133766 17.119492 41.050713 16.050278 C 38.9676 14.981108 36.66822 14.457573 34.14888 14.457548 C 31.273102 14.457575 28.651735 15.147022 26.273714 16.492704 C 23.89567 17.838436 22.037489 19.760529 20.728651 22.273724 C 19.419807 24.78696 18.781977 27.479609 18.781982 30.355354 C 18.781977 33.36631 19.419806 35.966785 20.728651 38.142036 C 22.037483 40.317295 23.944828 41.91125 26.421188 42.94972 C 28.897524 43.988186 31.639328 44.51295 34.650295 44.51296 C 37.870144 44.51295 40.55664 43.972218 42.73193 42.89073 C 44.90715 41.80925 46.546585 40.486893 47.628098 38.938404 L 50.961037 38.938404 C 50.33422 40.22881 49.26995 41.551167 47.746075 42.89073 C 46.22213 44.230297 44.39099 45.295803 42.289497 46.07619 C 40.18795 46.856575 37.67105 47.226498 34.70928 47.2265 C 31.980976 47.226498 29.46284 46.894676 27.158562 46.194176 C 24.854256 45.49366 22.88178 44.44536 21.25956 43.038204 C 19.637333 41.631046 18.42558 40.00267 17.60218 38.171528 C 16.569855 35.8488 16.038942 33.34173 16.038948 30.650305 C 16.038942 27.651655 16.66817 24.78327 17.89713 22.067257 C 19.396454 18.736795 21.509031 16.197775 24.26805 14.428052 C 27.02705 12.658379 30.393166 11.773529 34.32585 11.773502 z M 32.8806 22.067257 C 32.094048 22.067274 31.36282 22.25776 30.668472 22.657158 C 29.974094 23.056583 29.284653 23.689495 28.633318 24.574335 C 27.981953 25.459198 27.463337 26.55297 27.070082 27.818789 C 26.676804 29.084623 26.48017 30.242304 26.480185 31.299198 C 26.480171 32.982872 26.890642 34.28803 27.68948 35.22203 C 28.488283 36.156044 29.400171 36.608303 30.432514 36.6083 C 31.120712 36.608303 31.853176 36.400604 32.615147 35.988903 C 33.37708 35.57721 34.1034 34.97133 34.79778 34.160213 C 35.492123 33.34911 36.03655 32.34013 36.47899 31.092735 C 36.92139 29.845348 37.157356 28.570925 37.157375 27.317375 C 37.157356 25.646006 36.74811 24.34577 35.918587 23.424036 C 35.089016 22.502337 34.07267 22.067282 32.8806 22.067266 z " display="inline" fill="#ffffff" fill-opacity="1" fill-rule="nonzero" stroke="none" visibility="visible"/>
</svg>
