<?xml version="1.0" encoding="UTF-8"?>
<svg xmlns="http://www.w3.org/2000/svg" xmlns:xlink="http://www.w3.org/1999/xlink" baseProfile="tiny" contentScriptType="text/ecmascript" contentStyleType="text/css" height="22px" preserveAspectRatio="xMidYMid meet" version="1.1" viewBox="0 0 22 22" width="22px" x="0px" y="0px" zoomAndPan="magnify">
<path d="M 13.603 6.467 C 13.608999 6.471 15.129 7.731 15.129 7.731 C 15.276 7.881 15.658999 8.193 16.253 8.193 C 16.525 8.193 16.800001 8.125999 17.068 7.9919996 L 20.194 6.825 C 20.223 6.8139997 20.253 6.802 20.28 6.786 C 20.738 6.5429997 21.453001 5.876 21.223001 4.915 C 20.357002 1.277 17.503002 0.7329998 15.879002 0.7329998 C 14.946002 0.7329998 14.252002 0.9109998 14.259002 0.9109998 C 14.259002 0.9109998 14.259002 0.9109998 14.259002 0.9099998 C 10.539001 1.6059997 7.474002 4.436 6.519002 5.402 C 6.496 5.421 6.473 5.44 6.451 5.463 L 5.099 6.815 C 5.067 6.847 5.039 6.881 5.015 6.917 C 3.7069998 8.297 1.5179999 11.014 0.921 14.21 C 0.894 14.314 0.25800002 16.821 1.4990001 18.89 C 2.205 20.066 3.354 20.852 4.915 21.223 C 5.033 21.251 5.154 21.265999 5.273 21.265999 C 6.2369995 21.265999 6.732 20.380999 6.785 20.280998 C 6.7999997 20.253998 6.812 20.225998 6.824 20.196 L 7.994 17.07 C 8.447 16.157 8.04 15.42 7.7209997 15.115 L 6.417 13.655 C 6.3719997 13.575 5.7799997 12.326 8.877 9.129999 C 8.877 9.129999 9.063 8.945999 9.073 8.936999 C 11.357 6.7209992 12.654 6.3899994 13.222 6.3899994 C 13.485 6.391 13.6 6.465 13.603 6.467 z M 21.267 14.667 C 21.267 11.837 18.964 9.533 16.134 9.533 C 13.303 9.533 11.000001 11.837 11.000001 14.667 C 11.000001 16.237999 11.712001 17.645 12.826001 18.587 L 11.587001 20.239 C 11.299001 20.624 11.238001 21.054 11.422001 21.422 C 11.606001 21.79 11.987 22.0 12.467 22.0 L 19.8 22.0 C 20.279999 22.0 20.661 21.789 20.845 21.422 C 21.029 21.055002 20.967999 20.624 20.679998 20.241001 L 19.439999 18.587002 C 20.555 17.645 21.267 16.238 21.267 14.667 z " fill-opacity="0.15"/>
<g>
<g>
<path d="M 14.038 5.141 L 15.6310005 6.462 C 15.6310005 6.462 16.055 6.9639997 16.775002 6.587 L 19.938002 5.4049997 C 19.938002 5.4049997 20.669003 5.0179996 20.511002 4.351 C 19.376001 -0.41000032 14.396002 0.89799976 14.396002 0.89799976 C 10.829002 1.5649998 7.882002 4.321 6.9760017 5.252 L 6.97 5.248 L 5.618 6.601 L 5.624 6.608 C 4.48 7.799 2.226 10.484 1.63 13.663 C 1.63 13.663 0.32500005 18.644001 5.085 19.777 C 5.752 19.936 6.137 19.207 6.137 19.207 L 7.321 16.042 C 7.698 15.322 7.198 14.896999 7.198 14.896999 L 5.8199997 13.355999 C 5.955 13.471999 4.3259997 12.037999 8.36 7.877999 L 8.36 7.877 L 8.561 7.677 L 8.562 7.678 C 12.722 3.644 14.154 5.272 14.038 5.141 z M 18.846 18.283 C 18.058 18.776001 17.129002 19.066002 16.134 19.066002 C 15.1380005 19.066002 14.209001 18.776001 13.4210005 18.283 L 12.173 19.947 C 11.931001 20.269001 12.064 20.533 12.467 20.533 L 19.8 20.533 C 20.203 20.533 20.335999 20.269001 20.094 19.947 L 18.846 18.283 z M 16.134 18.333 C 18.563 18.333 20.533 16.362 20.533 13.934 C 20.533 11.504 18.562 9.534 16.134 9.534 C 13.704 9.534 11.734001 11.505 11.734001 13.934 C 11.733 16.362 13.704 18.333 16.134 18.333 z M 16.134 12.1 C 17.146 12.1 17.967001 12.9210005 17.967001 13.934 C 17.967001 14.947 17.146002 15.767 16.134 15.767 C 15.121 15.767 14.300001 14.9470005 14.300001 13.934 C 14.300001 12.921 15.121 12.1 16.134 12.1 z " fill-opacity="0.3"/>
</g>
</g>
<g>
<g>
<path d="M 14.038 5.874 L 15.6310005 7.195 C 15.6310005 7.195 16.055 7.697 16.775002 7.32 L 19.938002 6.138 C 19.938002 6.138 20.669003 5.751 20.511002 5.084 C 19.376001 0.32299995 14.396002 1.631 14.396002 1.631 C 10.829002 2.298 7.882002 5.054 6.9760017 5.985 L 6.97 5.981 L 5.618 7.334 L 5.624 7.341 C 4.48 8.532 2.226 11.218 1.63 14.396 C 1.63 14.396 0.32500005 19.378 5.085 20.511 C 5.752 20.669 6.137 19.941 6.137 19.941 L 7.321 16.776001 C 7.698 16.056002 7.198 15.6310005 7.198 15.6310005 L 5.819 14.09 C 5.954 14.206 4.325 12.772 8.358999 8.6119995 L 8.358999 8.611 L 8.559999 8.411 L 8.561 8.412001 C 12.722 4.377 14.154 6.005 14.038 5.874 z M 16.134 19.066 C 18.563 19.066 20.533 17.095 20.533 14.667 C 20.533 12.2369995 18.562 10.267 16.134 10.267 C 13.704 10.267 11.734001 12.238 11.734001 14.667 C 11.733 17.096 13.704 19.066 16.134 19.066 z M 16.134 12.833 C 17.146 12.833 17.967001 13.654 17.967001 14.667 C 17.967001 15.679999 17.146 16.5 16.134 16.5 C 15.121 16.5 14.300001 15.68 14.300001 14.667 C 14.300001 13.653999 15.121 12.833 16.134 12.833 z M 18.846 19.017 C 18.058 19.509 17.129002 19.8 16.134 19.8 C 15.1380005 19.8 14.209001 19.508999 13.4210005 19.016998 L 12.173 20.679998 C 11.931001 21.002998 12.064 21.266998 12.467 21.266998 L 19.8 21.266998 C 20.203 21.266998 20.335999 21.002998 20.094 20.679998 L 18.846 19.017 z " fill="#dedede"/>
</g>
</g>
<rect fill="none" height="22" width="22"/>
</svg>
