<?xml version="1.0" encoding="UTF-8"?>
<svg xmlns="http://www.w3.org/2000/svg" xmlns:xlink="http://www.w3.org/1999/xlink" baseProfile="tiny" contentScriptType="text/ecmascript" contentStyleType="text/css" height="30px" preserveAspectRatio="xMidYMid meet" version="1.1" viewBox="0 0 30 30" width="30px" x="0px" y="0px" zoomAndPan="magnify">
<rect fill="none" height="30" width="30"/>
<path d="M 23.269 28.75 C 22.828999 28.75 22.401 28.621 22.032999 28.379 C 21.530998 28.049 21.186998 27.542 21.065998 26.953 C 20.944998 26.365 21.059998 25.764 21.390999 25.262 C 23.405998 22.205 24.470999 18.657 24.470999 14.999999 C 24.470999 11.343999 23.405998 7.794999 21.390999 4.737999 C 21.06 4.235999 20.945 3.6349988 21.065998 3.046999 C 21.186998 2.457999 21.530998 1.950999 22.032997 1.620999 C 22.401997 1.378999 22.829998 1.250999 23.268997 1.250999 C 24.027998 1.250999 24.730997 1.628999 25.148996 2.2619991 C 27.649996 6.057999 28.970997 10.462999 28.970997 15.000999 C 28.970997 19.539 27.649998 23.944 25.148996 27.738998 C 24.73 28.372 24.028 28.75 23.269 28.75 L 23.269 28.75 z M 14.318 26.076 C 13.82 26.075 13.321 25.859001 12.8359995 25.435 L 8.338 21.5 L 4.0 21.5 C 2.346 21.5 1.0 20.154 1.0 18.5 L 1.0 11.5 C 1.0 9.846 2.346 8.5 4.0 8.5 L 8.337999 8.5 L 12.837 4.564 C 13.321 4.139 13.82 3.9240003 14.318 3.9240003 C 15.155 3.924 16.0 4.566 16.0 6.0 L 16.0 24.0 C 16.0 24.539 15.882 24.992 15.649 25.348 C 15.346 25.811 14.861 26.076 14.318 26.076 L 14.318 26.076 z M 19.278 24.76 C 18.896 24.76 18.516 24.66 18.181 24.474 C 17.656 24.18 17.277 23.7 17.114 23.121 C 16.951 22.542 17.022001 21.935 17.315 21.411 C 18.41 19.455 18.988 17.237999 18.988 15.0 C 18.988 12.762 18.410002 10.545 17.315 8.587999 C 16.710001 7.504999 17.098001 6.131999 18.18 5.525999 C 18.516 5.3389993 18.895 5.239999 19.277 5.239999 C 20.092001 5.239999 20.845001 5.680999 21.243 6.391999 C 22.712 9.017999 23.487999 11.994999 23.487999 14.998999 C 23.487999 18.003998 22.711998 20.98 21.243 23.606998 C 20.847 24.318 20.094 24.76 19.278 24.76 L 19.278 24.76 z " fill-opacity="0.15"/>
<path d="M 13.495 4.317 L 8.714 8.5 L 4.0 8.5 C 2.9 8.5 2.0 9.4 2.0 10.5 L 2.0 17.5 C 2.0 18.6 2.9 19.5 4.0 19.5 L 8.714001 19.5 L 13.495001 23.684 C 14.322 24.407 15.0 24.1 15.0 23.0 L 15.0 5.0 C 15.0 3.9 14.322 3.593 13.495 4.317 z M 24.313 1.812 C 23.933 1.2360001 23.157999 1.0780001 22.582 1.4560001 C 22.005001 1.8360001 21.846 2.611 22.226 3.1880002 C 24.348999 6.4090004 25.471 10.148001 25.471 14.0 C 25.471 17.852 24.349 21.591 22.226002 24.813 C 21.846003 25.389 22.005001 26.164999 22.582003 26.543999 C 22.794003 26.683998 23.032003 26.749998 23.269003 26.749998 C 23.675003 26.749998 24.074003 26.552998 24.314003 26.186998 C 26.707003 22.555998 27.971003 18.340998 27.971003 13.998999 C 27.971 9.658 26.706 5.443 24.313 1.812 z M 20.37 5.88 C 20.033 5.277 19.27 5.063 18.669 5.399 C 18.066 5.736 17.852001 6.497 18.189001 7.1000004 C 19.367 9.206 19.989 11.592001 19.989 14.0 C 19.989 16.408 19.367 18.794 18.189001 20.899 C 17.852001 21.502 18.067001 22.263 18.669 22.6 C 18.862001 22.708 19.071001 22.759 19.278 22.759 C 19.716 22.759 20.141 22.529001 20.369999 22.119001 C 21.755999 19.641 22.487999 16.833002 22.487999 13.9990015 C 22.487999 11.165001 21.756 8.358 20.37 5.88 z " fill-opacity="0.3"/>
<path d="M 13.495 5.317 L 8.714 9.5 L 4.0 9.5 C 2.9 9.5 2.0 10.4 2.0 11.5 L 2.0 18.5 C 2.0 19.6 2.9 20.5 4.0 20.5 L 8.714001 20.5 L 13.495001 24.684 C 14.322 25.407 15.0 25.1 15.0 24.0 L 15.0 6.0 C 15.0 4.9 14.322 4.593 13.495 5.317 z M 24.313 2.812 C 23.933 2.236 23.157999 2.078 22.582 2.456 C 22.005001 2.836 21.846 3.611 22.226 4.188 C 24.348999 7.4090004 25.471 11.148001 25.471 15.0 C 25.471 18.852 24.349 22.591 22.226002 25.813 C 21.846003 26.389 22.005001 27.164999 22.582003 27.543999 C 22.794003 27.683998 23.032003 27.749998 23.269003 27.749998 C 23.675003 27.749998 24.074003 27.552998 24.314003 27.186998 C 26.707003 23.555998 27.971003 19.340998 27.971003 14.998999 C 27.971 10.658 26.706 6.443 24.313 2.812 z M 20.37 6.88 C 20.033 6.277 19.27 6.063 18.669 6.399 C 18.066 6.736 17.852001 7.497 18.189001 8.1 C 19.367 10.206 19.989 12.592001 19.989 15.0 C 19.989 17.408 19.367 19.794 18.189001 21.899 C 17.852001 22.502 18.067001 23.263 18.669 23.6 C 18.862001 23.708 19.071001 23.759 19.278 23.759 C 19.716 23.759 20.141 23.529001 20.369999 23.119001 C 21.755999 20.641 22.487999 17.833002 22.487999 14.9990015 C 22.487999 12.165001 21.756 9.358 20.37 6.88 z " fill="#dedede"/>
</svg>
