<?xml version="1.0" encoding="UTF-8"?>
<svg xmlns="http://www.w3.org/2000/svg" xmlns:xlink="http://www.w3.org/1999/xlink" baseProfile="tiny" contentScriptType="text/ecmascript" contentStyleType="text/css" height="96px" preserveAspectRatio="xMidYMid meet" version="1.1" viewBox="0 0 96 96" width="96px" x="0px" y="0px" zoomAndPan="magnify">
<defs>
<linearGradient>
<stop offset="0" stop-color="#c1d5e3" stop-opacity="1"/>
<stop offset="1" stop-color="#8fb3cc" stop-opacity="1"/>
</linearGradient>
<linearGradient gradientTransform="matrix(0,1,-1,0,96,0)" gradientUnits="userSpaceOnUse" id="linearGradient3909" x1="8" x2="88" y1="48" y2="48">
<stop offset="0" stop-color="#c1d5e3" stop-opacity="1"/>
<stop offset="1" stop-color="#8fb3cc" stop-opacity="1"/>
</linearGradient>
</defs>
<rect fill="none" height="96" width="96"/>
<path d="M 88.0 49.0 C 88.0 78.633 77.637 89.0 48.0 89.0 C 18.365 89.0 8.0 78.633 8.0 49.0 C 8.0 19.365 18.365 9.0 48.0 9.0 C 77.637 9.0 88.0 19.365 88.0 49.0 z " fill-opacity="0.4" stroke-opacity="0.4"/>
<linearGradient gradientUnits="userSpaceOnUse" x1="47.9995" x2="47.9995" xlink:actuate="onLoad" xlink:show="other" xlink:type="simple" y1="6.8105" y2="84.6841">
<stop offset="0" stop-color="#b2c3ce"/>
<stop offset="1" stop-color="#596275"/>
</linearGradient>
<path d="M 48.0 88.0 C 18.367 88.0 8.0 77.637 8.0 48.0 C 8.0 18.365 18.367 8.0 48.0 8.0 C 77.635 8.0 88.0 18.365 88.0 48.0 C 88.0 77.637 77.635 88.0 48.0 88.0 z " fill="url(#linearGradient3909)" fill-opacity="1"/>
<path d="M 83.051 73.859 L 72.123 62.932 C 78.543 52.074997 76.781 37.891 67.799 28.909 C 62.51 23.619 55.479 20.706 48.0 20.706 C 40.521 20.706 33.489998 23.619 28.201 28.908 C 22.912004 34.197 20.0 41.229 20.0 48.707 C 20.0 56.185 22.912 63.217003 28.201 68.506 C 33.488 73.793 40.517 76.704994 47.994 76.704994 C 53.029 76.704994 57.932 75.367 62.224 72.828995 L 72.931 83.536995 C 77.344 81.286 80.669 78.116 83.051 73.859 z M 48.0 67.707 C 37.523 67.707 29.0 59.184 29.0 48.707 C 29.0 38.23 37.523 29.707 48.0 29.707 C 58.477 29.707 67.0 38.23 67.0 48.707 C 67.0 59.184 58.477 67.707 48.0 67.707 z " fill-opacity="0.05" stroke-opacity="0.05"/>
<path d="M 82.524 74.747 L 70.859 63.082 C 77.54801 52.491 76.021 38.544 67.091 29.615002 C 61.991005 24.514002 55.210003 21.706 47.999004 21.706 C 40.78801 21.706 34.009003 24.515 28.907003 29.615002 C 23.809 34.716 21.0 41.496 21.0 48.707 C 21.0 55.918003 23.809 62.698 28.908 67.799 C 34.008 72.898 40.785 75.704994 47.994003 75.704994 C 53.125004 75.704994 58.078003 74.27599 62.375004 71.564995 L 73.859 83.05 C 77.513 81.007 80.365 78.269 82.524 74.747 z M 48.0 68.707 C 36.973 68.707 28.0 59.735 28.0 48.707 C 28.0 37.679 36.973 28.707 48.0 28.707 C 59.029 28.707 68.0 37.679 68.0 48.707 C 68.0 59.735 59.029 68.707 48.0 68.707 z " fill-opacity="0.05" stroke-opacity="0.05"/>
<path d="M 81.971 75.607 L 69.578 63.215 C 76.545006 52.9 75.26 39.196 66.385 30.322 C 61.475 25.411 54.946003 22.705996 48.0 22.705996 C 41.057 22.705996 34.527 25.410995 29.615 30.322 C 24.705 35.233 22.0 41.763 22.0 48.707 C 22.0 55.651 24.705 62.181 29.615 67.092 C 34.525 72.001 41.053 74.705 47.994 74.705 C 53.217 74.705 58.217 73.18 62.508 70.284004 L 74.747 82.524 C 77.685 80.724 80.073 78.437 81.971 75.607 z M 48.0 69.707 C 36.422 69.707 27.0 60.286003 27.0 48.707 C 27.0 37.128 36.422 27.707 48.0 27.707 C 59.58 27.707 69.0 37.128 69.0 48.707 C 69.0 60.286003 59.58 69.707 48.0 69.707 z " fill-opacity="0.1" stroke-opacity="0.1"/>
<path d="M 68.279 63.329 C 75.343 53.557 74.478 39.83 65.677 31.029 C 55.913 21.265 40.085003 21.265 30.322002 31.029 C 20.559002 40.793 20.558002 56.621 30.322002 66.384 C 39.123 75.185005 52.849003 76.049 62.623 68.984 L 67.441 73.804 L 76.637 83.0 C 78.678 81.537 80.719 79.371 82.129 77.18 L 68.279 63.329 z M 48.0 70.707 C 35.848 70.707 26.0 60.857 26.0 48.707 C 26.0 36.555 35.848 26.707 48.0 26.707 C 60.15 26.707 70.0 36.555 70.0 48.707 C 70.0 60.857 60.15 70.707 48.0 70.707 z " fill-opacity="0.1" stroke-opacity="0.1"/>
<path d="M 81.394 76.444 L 68.279 63.329 C 75.343 53.557 74.478 39.83 65.677 31.029 C 55.913 21.265 40.085003 21.265 30.322002 31.029 C 20.559002 40.793 20.558002 56.621 30.322002 66.384 C 39.123 75.185005 52.849003 76.049 62.623 68.984 L 67.441 73.804 L 75.607 81.97 C 77.872 80.451 79.795 78.623 81.394 76.444 z M 48.0 70.707 C 35.848 70.707 26.0 60.857 26.0 48.707 C 26.0 36.555 35.848 26.707 48.0 26.707 C 60.15 26.707 70.0 36.555 70.0 48.707 C 70.0 60.857 60.15 70.707 48.0 70.707 z " fill-opacity="0.1" stroke-opacity="0.1"/>
<linearGradient gradientUnits="userSpaceOnUse" id="SVGID_2_" x1="47.9995" x2="47.9995" xlink:actuate="onLoad" xlink:show="other" xlink:type="simple" y1="8.2534" y2="87.4985">
<stop offset="0" stop-color="#ffffff"/>
<stop offset="1" stop-color="#ffffff" stop-opacity="0"/>
</linearGradient>
<path d="M 48.0 8.0 C 18.365 8.0 8.0 18.365 8.0 48.0 C 8.0 77.633 18.365 88.0 48.0 88.0 C 77.637 88.0 88.0 77.633 88.0 48.0 C 88.0 18.365 77.637 8.0 48.0 8.0 z M 48.0 87.0 C 18.842 87.0 9.0 77.158 9.0 48.0 C 9.0 18.842005 18.842 9.0 48.0 9.0 C 77.158005 9.0 87.0 18.842 87.0 48.0 C 87.0 77.158005 77.158 87.0 48.0 87.0 z " fill="url(#SVGID_2_)" fill-opacity="0.3" stroke-opacity="0.3"/>
<linearGradient gradientUnits="userSpaceOnUse" x1="47.9995" x2="47.9995" xlink:actuate="onLoad" xlink:show="other" xlink:type="simple" y1="36.5732" y2="77.2195">
<stop offset="0" stop-color="#b2c3ce"/>
<stop offset="1" stop-color="#596275"/>
</linearGradient>
<circle cx="48" cy="47" fill="#c1d5e3" fill-opacity="1" r="23"/>
<linearGradient gradientUnits="userSpaceOnUse" x1="47.8843" x2="47.8843" xlink:actuate="onLoad" xlink:show="other" xlink:type="simple" y1="68.8594" y2="32.4805">
<stop offset="0" stop-color="#fafcef"/>
<stop offset="0.2727" stop-color="#d0cbc5"/>
<stop offset="1" stop-color="#fafcef"/>
</linearGradient>
<path d="M 62.705 64.521 C 62.318 64.100006 61.846 63.743004 61.339 63.475 C 59.719 62.530003 58.016 61.704 56.272 61.007004 C 54.728 60.391003 53.633 59.181004 52.927 57.694004 C 52.609997 57.026005 52.391 56.202003 52.435997 55.465004 C 52.462997 55.019005 52.827995 54.814003 53.087 54.491005 C 53.358997 54.153004 53.585 53.778004 53.782997 53.393005 C 54.351 52.282005 54.538 51.088005 54.970997 49.94101 C 55.637997 50.757004 56.069996 49.079006 56.191 48.660007 C 56.462997 47.703007 57.487 45.10701 56.551 44.806007 C 56.412 44.76201 56.289997 44.81001 56.198 44.916008 C 56.216 44.687008 56.478996 43.368008 56.636 42.520008 C 56.717 42.070007 56.770996 41.61601 56.773 41.159008 C 56.773 40.939007 56.781 40.72101 56.789997 40.501007 C 56.791996 40.460007 56.414997 37.83101 55.956997 36.827007 C 55.573 35.99101 55.054996 35.09601 54.229996 34.618008 C 53.32999 34.097008 52.26099 33.833008 51.278996 33.522007 C 49.747997 33.036007 48.146996 32.361008 46.508995 32.49901 C 45.738995 32.563007 45.108994 32.92801 44.37899 33.113007 C 43.908993 33.232006 43.437996 33.070007 42.964993 33.164005 C 42.484993 33.258007 42.27399 33.589005 42.059994 33.991005 C 41.951992 34.195004 41.960995 34.43401 41.85799 34.634007 C 41.721992 34.894005 41.363995 34.833008 41.127995 34.883007 C 40.470993 35.023006 40.203995 35.60901 39.90599 36.14201 C 39.259995 37.30201 38.890995 40.189007 38.894993 40.258007 C 38.908993 40.493008 38.899994 41.646008 38.92499 41.98301 C 38.92499 42.939007 39.07899 43.931007 39.40399 44.893005 C 38.504993 44.731007 38.89099 46.415005 38.98999 46.804005 C 39.10999 47.273006 39.70499 50.780006 40.49699 50.035004 C 40.819992 51.051003 41.02899 52.078003 41.479992 53.056004 C 41.78599 53.719 42.166992 54.376003 42.69799 54.886005 C 43.28199 55.445007 42.88099 56.505005 42.71499 57.181007 C 42.47999 58.14201 42.00499 59.01901 41.293987 59.71401 C 40.364983 60.62401 39.160988 61.01101 38.001987 61.52501 C 36.476982 62.202007 34.836987 62.903008 33.488987 63.90001 C 33.164986 64.13901 32.771988 65.40401 32.912987 65.503006 C 33.538986 65.939 34.202988 66.31701 34.890987 66.646 C 38.15299 68.200005 41.864983 68.65501 45.43699 68.799 C 49.47499 68.964005 53.660988 68.853004 57.58799 67.815 C 59.09999 67.416 60.57499 66.859 61.92599 66.069 C 62.22499 65.895 62.51799 65.71 62.80299 65.511 C 62.939 65.414 62.9 64.732 62.705 64.521 z " fill="#ffffff" fill-opacity="1"/>
<radialGradient cx="47.5527" cy="58.0898" gradientUnits="userSpaceOnUse" r="8.3902" xlink:actuate="onLoad" xlink:show="other" xlink:type="simple">
<stop offset="0" stop-color="#a09c98"/>
<stop offset="0.2593" stop-color="#a09c98"/>
<stop offset="1" stop-color="#f4f5e9" stop-opacity="0.0714"/>
</radialGradient>
<linearGradient gradientUnits="userSpaceOnUse" x1="47.9995" x2="47.9995" xlink:actuate="onLoad" xlink:show="other" xlink:type="simple" y1="-32.189" y2="67.5757">
<stop offset="0" stop-color="#929497"/>
<stop offset="0.1627" stop-color="#989a9d"/>
<stop offset="0.3834" stop-color="#a9abad"/>
<stop offset="0.6373" stop-color="#c6c7c8"/>
<stop offset="0.9139" stop-color="#ededee"/>
<stop offset="1" stop-color="#fbfbfb"/>
</linearGradient>
<path d="M 48.0 23.0 C 34.744 23.0 24.0 33.744 24.0 47.0 C 24.0 60.256 34.744 71.0 48.0 71.0 C 61.256 71.0 72.0 60.256 72.0 47.0 C 72.0 33.744 61.256 23.0 48.0 23.0 z M 48.0 69.0 C 35.848 69.0 26.0 59.15 26.0 47.0 C 26.0 34.848 35.848 25.0 48.0 25.0 C 60.15 25.0 70.0 34.848 70.0 47.0 C 70.0 59.15 60.15 69.0 48.0 69.0 z " fill="#aeaeae" fill-opacity="1"/>
<linearGradient gradientUnits="userSpaceOnUse" x1="69.498" x2="75.0563" xlink:actuate="onLoad" xlink:show="other" xlink:type="simple" y1="74.2178" y2="68.6595">
<stop offset="0" stop-color="#e5e5e5"/>
<stop offset="0.2545" stop-color="#6d6e70"/>
<stop offset="0.3381" stop-color="#707173"/>
<stop offset="0.4038" stop-color="#7a7b7d"/>
<stop offset="0.4635" stop-color="#8b8b8d"/>
<stop offset="0.5195" stop-color="#a2a3a4"/>
<stop offset="0.5731" stop-color="#c0c1c2"/>
<stop offset="0.624" stop-color="#e5e5e6"/>
<stop offset="0.6545" stop-color="#ffffff"/>
<stop offset="0.8303" stop-color="#808184"/>
<stop offset="1" stop-color="#f4f4f4"/>
</linearGradient>
<path d="M 67.898 61.242 L 62.242004 66.898 L 76.63701 81.293 C 78.67801 79.83 80.71901 77.664 82.129005 75.473 L 67.898 61.242 z " fill="#aeaeae" fill-opacity="1"/>
<linearGradient gradientUnits="userSpaceOnUse" x1="65.3301" x2="70.529" xlink:actuate="onLoad" xlink:show="other" xlink:type="simple" y1="64.1943" y2="70.1927">
<stop offset="0" stop-color="#231f20"/>
<stop offset="1" stop-color="#231f20" stop-opacity="0"/>
</linearGradient>
<linearGradient gradientUnits="userSpaceOnUse" x1="47.9995" x2="47.9995" xlink:actuate="onLoad" xlink:show="other" xlink:type="simple" y1="31.2017" y2="74.4305">
<stop offset="0" stop-color="#ffffff"/>
<stop offset="0.5743" stop-color="#b1b1b1"/>
<stop offset="1" stop-color="#ffffff"/>
</linearGradient>
<path d="M 65.678 29.322 C 55.914 19.558 40.086 19.558 30.323002 29.322 C 20.56 39.086 20.559002 54.914 30.323002 64.677 C 40.087 74.44 55.915 74.441 65.678 64.677 C 75.441 54.913 75.441 39.086 65.678 29.322 z M 31.736 63.264 C 22.754 54.282 22.754 39.719 31.736 30.737 C 40.718 21.754995 55.281 21.755 64.263 30.737 C 73.245 39.719 73.245 54.282 64.263 63.264 C 55.281 72.246 40.719 72.246 31.736 63.264 z " fill="#aeaeae" fill-opacity="1"/>
<radialGradient cx="48.5615" cy="67.5205" gradientUnits="userSpaceOnUse" r="30.8561" xlink:actuate="onLoad" xlink:show="other" xlink:type="simple">
<stop offset="0" stop-color="#ffffff"/>
<stop offset="0.3721" stop-color="#ffffff"/>
<stop offset="1" stop-color="#ffffff" stop-opacity="0"/>
</radialGradient>
<linearGradient gradientUnits="userSpaceOnUse" x1="48.0005" x2="48.0005" xlink:actuate="onLoad" xlink:show="other" xlink:type="simple" y1="69" y2="25.0005">
<stop offset="0" stop-color="#000000" stop-opacity="0"/>
<stop offset="1" stop-color="#000000"/>
</linearGradient>
<path d="M 48.0 25.0 C 35.85 25.0 26.0 34.85 26.0 47.0 C 26.0 59.15 35.85 69.0 48.0 69.0 C 60.15 69.0 70.0 59.15 70.0 47.0 C 70.0 34.85 60.15 25.0 48.0 25.0 z M 48.0 68.0 C 36.422 68.0 27.0 58.579 27.0 47.0 C 27.0 35.421 36.422 26.0 48.0 26.0 C 59.58 26.0 69.0 35.421 69.0 47.0 C 69.0 58.579 59.58 68.0 48.0 68.0 z " fill-opacity="0.2" stroke-opacity="0.2"/>
<linearGradient gradientUnits="userSpaceOnUse" x1="48.0005" x2="48.0005" xlink:actuate="onLoad" xlink:show="other" xlink:type="simple" y1="50" y2="25.0005">
<stop offset="0" stop-color="#000000" stop-opacity="0"/>
<stop offset="1" stop-color="#000000"/>
</linearGradient>
<linearGradient gradientUnits="userSpaceOnUse" id="SVGID_13_" x1="48.0015" x2="48.0015" xlink:actuate="onLoad" xlink:show="other" xlink:type="simple" y1="42.7021" y2="26">
<stop offset="0" stop-color="#000000" stop-opacity="0"/>
<stop offset="1" stop-color="#000000"/>
</linearGradient>
<path d="M 68.559 42.702 C 64.742 35.126 56.865 30.0 48.0 30.0 C 39.135 30.0 31.26 35.126 27.443 42.702 C 29.432 33.177 37.893 26.0 48.0 26.0 C 58.107 26.0 66.57 33.177 68.559 42.702 L 68.559 42.702 z " fill="url(#SVGID_13_)" fill-opacity="0.1" stroke-opacity="0.1"/>
<linearGradient gradientUnits="userSpaceOnUse" x1="47.9995" x2="47.9995" xlink:actuate="onLoad" xlink:show="other" xlink:type="simple" y1="23.375" y2="42.0268">
<stop offset="0" stop-color="#ffffff"/>
<stop offset="1" stop-color="#ffffff" stop-opacity="0"/>
</linearGradient>
</svg>
