<?xml version="1.0" encoding="UTF-8"?>
<svg xmlns="http://www.w3.org/2000/svg" xmlns:xlink="http://www.w3.org/1999/xlink" baseProfile="tiny" contentScriptType="text/ecmascript" contentStyleType="text/css" height="27px" preserveAspectRatio="xMidYMid meet" version="1.1" viewBox="0 0 27 27" width="27px" x="0px" y="0px" zoomAndPan="magnify">
<rect fill="none" height="27" width="27"/>
<path d="M 13.799 19.229 C 13.854 19.125 13.898 19.014 13.928 18.891 C 13.954 18.786 13.973999 18.701 13.988999 18.633 C 13.605999 18.159 13.346 17.571 13.174999 17.070002 C 12.488999 16.728 11.961 16.519001 11.961 16.519001 C 11.811 16.459002 11.681999 16.391 11.561 16.317001 C 10.905 15.862001 10.57 15.049002 10.541 14.927001 C 10.445001 14.553001 10.364 14.1570015 10.497001 14.031001 C 11.160001 13.451001 11.4210005 12.069001 11.4210005 12.069001 C 11.440001 12.016001 11.458 11.965001 11.475 11.916001 C 11.779 12.294002 11.946 11.491001 12.076 11.028002 C 12.076 11.016002 12.076 11.003002 12.075 10.991002 C 12.05 10.605002 12.044 10.2350025 12.105 9.831002 C 12.051999 9.833002 12.007999 9.850002 12.007999 9.850002 L 11.981 9.88 C 12.03 9.232 12.216 8.835 12.217 8.249001 C 12.22 7.3460007 12.441 7.0170007 11.528 5.6320004 C 11.244 5.2030005 10.855 5.1330004 9.239 4.6050005 C 7.623001 4.0770006 7.394 4.747 6.861 4.681 C 6.325 4.618 6.249 4.836 6.147 5.031 C 6.0439997 5.224 6.147 5.379 5.8539996 5.3910003 C 5.562 5.4040003 5.431 5.631 5.431 5.631 C 4.559 7.041 4.885 7.465 4.8529997 8.368 C 4.835 8.849 4.915 9.207 5.161 9.868 L 5.134 9.834 C 5.134 9.834 4.792 9.671 4.816 10.139999 C 4.816 10.139999 4.77 10.285999 4.965 10.912 C 5.078 11.27 5.1670003 12.274 5.5010004 11.957 C 5.5130005 11.994 5.5250006 12.032 5.5380006 12.07 C 5.5380006 12.07 5.8000007 13.452 6.463001 14.032 C 6.5970006 14.158999 6.513001 14.554 6.421001 14.928 C 6.383001 15.072 6.196001 16.046999 5.026001 16.52 C 5.026001 16.52 3.961001 16.937 2.884001 17.572 C 2.884001 17.572 2.165001 17.936 2.015001 18.543 L 2.0 18.632 C 2.61 18.984 3.329 19.272 4.167 19.49 C 6.213 20.024 7.625 20.013 8.58 19.992 C 9.534 20.013 10.945 20.024 12.992001 19.49 C 13.281 19.414 13.54 19.322 13.799 19.229 z M 24.965 23.317 C 24.793 22.619 23.965 22.198 23.965 22.198 C 22.722 21.466 21.492 20.985 21.492 20.985 C 21.32 20.916 21.17 20.837 21.031 20.752 C 20.275 20.226002 19.888 19.289 19.853 19.148 C 19.743 18.716002 19.649 18.26 19.802 18.114 C 20.568 17.444 20.868 15.85 20.868 15.85 C 20.889 15.787001 20.911 15.729 20.931 15.673 C 21.306 16.138 21.499 15.046 21.655 14.542 C 21.817 14.013 21.886 13.665999 21.886 13.665999 C 21.951 13.127 21.546 13.287999 21.546 13.287999 L 21.517 13.320999 C 21.573 12.572999 21.788 12.115999 21.789 11.438999 C 21.792 10.396999 22.047 10.016999 20.993 8.418999 C 20.667 7.924999 20.218 7.843999 18.352 7.233999 C 16.487 6.623998 16.222 7.397999 15.608 7.3219986 C 14.988999 7.248998 14.901 7.5009985 14.783999 7.7259984 C 14.664999 7.9489985 14.783999 8.1259985 14.445 8.140999 C 14.108 8.155999 13.957 8.417999 13.957 8.417999 C 12.951 10.046 13.327 10.533999 13.29 11.577 C 13.271 12.129999 13.362 12.544 13.646 13.306 L 13.615 13.264999 C 13.615 13.264999 13.219999 13.077 13.248 13.619 C 13.248 13.619 13.194 13.787 13.42 14.511 C 13.55 14.924999 13.652 16.083 14.039 15.717 C 14.053 15.76 14.066001 15.803 14.081 15.848 C 14.081 15.848 14.383 17.442 15.147 18.112 C 15.302 18.258 15.205 18.715 15.099 19.146 C 15.054 19.312 14.839 20.437 13.49 20.983 C 13.49 20.983 12.261 21.463 11.018 22.196 C 11.018 22.196 10.188999 22.617 10.016999 23.315 L 10.0 23.421 C 10.705 23.827 11.533 24.159 12.5 24.412 C 14.862 25.027998 16.491 25.016 17.592 24.991 C 18.693998 25.015 20.321 25.028 22.683998 24.412 C 23.579 24.178 24.342 23.873 24.999998 23.502998 L 24.965 23.317 z " fill="#dedede" fill-opacity="1"/>
<defs>
<linearGradient gradientUnits="userSpaceOnUse" x1="13.5005" x2="13.5005" xlink:actuate="onLoad" xlink:show="other" xlink:type="simple" y1="25" y2="4.4009">
<stop offset="0" stop-color="#d0cbc5"/>
<stop offset="1" stop-color="#fcfcf9"/>
</linearGradient>
</defs>
</svg>
