<?xml version="1.0" encoding="UTF-8"?>
<svg xmlns="http://www.w3.org/2000/svg" xmlns:xlink="http://www.w3.org/1999/xlink" baseProfile="tiny" contentScriptType="text/ecmascript" contentStyleType="text/css" height="57px" preserveAspectRatio="xMidYMid meet" version="1.1" viewBox="0 0 67 57" width="67px" x="0px" y="0px" zoomAndPan="magnify">
<rect fill="none" height="57" width="67"/>
<path d="M 53.0 14.0 L 13.0 14.0 C 11.9 14.0 11.0 14.9 11.0 16.0 L 11.0 43.0 C 11.0 44.1 11.9 45.0 13.0 45.0 L 53.0 45.0 C 54.1 45.0 55.0 44.1 55.0 43.0 L 55.0 16.0 C 55.0 14.9 54.1 14.0 53.0 14.0 z M 49.0 15.999 L 52.0 15.999 L 52.0 18.999 L 49.0 18.999 L 49.0 15.999 z M 44.0 15.999 L 47.0 15.999 L 47.0 18.999 L 44.0 18.999 L 44.0 15.999 z M 39.0 15.999 L 42.0 15.999 L 42.0 18.999 L 39.0 18.999 L 39.0 15.999 z M 34.0 15.999 L 37.0 15.999 L 37.0 18.999 L 34.0 18.999 L 34.0 15.999 z M 24.0 15.999 L 27.0 15.999 L 27.0 18.999 L 24.0 18.999 L 24.0 15.999 z M 19.0 15.999 L 22.0 15.999 L 22.0 18.999 L 19.0 18.999 L 19.0 15.999 z M 14.0 15.999 L 17.0 15.999 L 17.0 18.999 L 14.0 18.999 L 14.0 15.999 z M 17.0 42.999 L 14.0 42.999 L 14.0 39.999 L 17.0 39.999 L 17.0 42.999 z M 22.0 42.999 L 19.0 42.999 L 19.0 39.999 L 22.0 39.999 L 22.0 42.999 z M 27.0 42.999 L 24.0 42.999 L 24.0 39.999 L 27.0 39.999 L 27.0 42.999 z M 32.0 42.999 L 29.0 42.999 L 29.0 39.999 L 32.0 39.999 L 32.0 42.999 z M 31.036 38.0 L 14.0 38.0 L 14.0 21.0 L 31.036 21.0 L 31.036 38.0 z M 32.0 18.999 L 29.0 18.999 L 29.0 15.999001 L 32.0 15.999001 L 32.0 18.999 z M 37.0 42.999 L 34.0 42.999 L 34.0 39.999 L 37.0 39.999 L 37.0 42.999 z M 42.0 42.999 L 39.0 42.999 L 39.0 39.999 L 42.0 39.999 L 42.0 42.999 z M 47.0 42.999 L 44.0 42.999 L 44.0 39.999 L 47.0 39.999 L 47.0 42.999 z M 52.0 42.999 L 49.0 42.999 L 49.0 39.999 L 52.0 39.999 L 52.0 42.999 z M 51.985 38.0 L 35.004 38.0 L 35.004 21.0 L 51.985 21.0 L 51.985 38.0 z " fill="#575757" fill-opacity="1" stroke-opacity="0.3"/>
<defs>
<linearGradient gradientUnits="userSpaceOnUse" x1="33.0005" x2="33.0005" xlink:actuate="onLoad" xlink:show="other" xlink:type="simple" y1="61.7529" y2="-5.0154">
<stop offset="0" stop-color="#d0cbc5"/>
<stop offset="0.5031" stop-color="#fafcef"/>
<stop offset="0.9693" stop-color="#ffffff"/>
<stop offset="1" stop-color="#ffffff"/>
</linearGradient>
</defs>
</svg>
