<?xml version="1.0" encoding="UTF-8"?>
<svg xmlns="http://www.w3.org/2000/svg" xmlns:xlink="http://www.w3.org/1999/xlink" baseProfile="tiny" contentScriptType="text/ecmascript" contentStyleType="text/css" height="30px" preserveAspectRatio="xMidYMid meet" version="1.1" viewBox="0 0 30 30" width="30px" x="0px" y="0px" zoomAndPan="magnify">
<rect fill="none" height="30" width="30"/>
<path d="M 28.0 14.153 L 28.0 9.0 C 28.0 7.646 27.094 6.513 25.859 6.141 C 25.57 5.1809998 24.819 4.4309998 23.859 4.141 C 23.487 2.907 22.354 2.0 21.0 2.0 L 5.0 2.0 C 3.346 2.0 2.0 3.346 2.0 5.0 L 2.0 21.0 C 2.0 22.354 2.9060001 23.487 4.141 23.859 C 4.43 24.818998 5.1809998 25.57 6.141 25.859 C 6.513 27.094 7.646 28.0 9.0 28.0 L 14.153 28.0 C 15.596 29.387 17.819 30.0 21.0 30.0 C 27.477001 30.0 30.0 27.477 30.0 21.0 C 30.0 17.819 29.387 15.597 28.0 14.153 z " fill-opacity="0.15"/>
<path d="M 22.721 3.0 C 22.373 2.406 21.734 2.0 21.0 2.0 L 5.0 2.0 C 3.9 2.0 3.0 2.9 3.0 4.0 L 3.0 20.0 C 3.0 20.734 3.406 21.373 4.0 21.721 L 4.0 6.0 C 4.0 4.3459997 5.3459997 3.0 7.0 3.0 L 22.721 3.0 z M 24.721 5.0 C 24.373 4.406 23.734 4.0 23.0 4.0 L 7.0 4.0 C 5.9 4.0 5.0 4.9 5.0 6.0 L 5.0 22.0 C 5.0 22.734 5.406 23.373 6.0 23.721 L 6.0 8.0 C 6.0 6.3459997 7.3459997 5.0 9.0 5.0 L 24.721 5.0 z M 21.0 12.0 C 15.073 12.0 13.0 14.073999 13.0 20.0 C 13.0 25.927 15.073 28.0 21.0 28.0 C 26.928 28.0 29.0 25.927 29.0 20.0 C 29.0 14.074 26.928 12.0 21.0 12.0 z M 21.0 27.0 C 15.636 27.0 14.0 25.364 14.0 20.0 C 14.0 14.636 15.636 13.0 21.0 13.0 C 22.659 13.0 23.96 13.158 24.968 13.533 L 20.975 17.526001 L 19.349 15.9 C 19.220001 15.771999 19.057001 15.827 19.032001 16.015 L 17.998001 22.671 C 17.994001 22.705 17.991001 22.737999 17.991001 22.771 C 17.992 22.921 18.042002 23.044 18.134 23.125 C 18.235 23.213 18.382 23.249 18.545 23.227 L 25.206 22.179998 C 25.386 22.155998 25.428999 21.978998 25.312 21.863998 L 23.685 20.236998 L 27.569 16.352997 C 27.867 17.313 28.0 18.508 28.0 20.0 C 28.0 25.364 26.364 27.0 21.0 27.0 z M 11.133 24.2 C 9.847 24.2 8.8 23.153 8.8 21.867 C 8.8 20.58 9.847 19.533 11.133 19.533 C 11.443001 19.533 11.737 19.596 12.008 19.707 C 12.021 18.701 12.097 17.793001 12.242001 16.978 C 11.743001 16.821001 11.22 16.733 10.683001 16.733 L 10.066001 16.733 C 9.368001 16.733 8.799001 16.164999 8.799001 15.466 L 8.799001 14.4 C 8.799001 13.702 9.367001 13.132999 10.066001 13.132999 L 11.132001 13.132999 C 11.150001 13.132999 11.257001 13.151999 11.274001 13.155999 C 12.080001 13.2109995 12.855001 13.374999 13.5910015 13.622999 C 13.976002 13.1189995 14.445002 12.700999 14.985002 12.348999 C 13.648002 11.753999 12.1830015 11.415999 10.654001 11.415999 C 10.626001 11.415999 10.5980015 11.41 10.574001 11.398999 L 10.066001 11.398999 C 9.368001 11.398999 8.799001 10.830999 8.799001 10.131999 L 8.799001 9.066 C 8.8 8.368 9.368 7.8 10.066 7.8 L 11.132 7.8 C 11.15 7.8 11.266 7.82 11.283 7.8250003 C 14.453 7.9690003 17.369999 9.158 19.709 11.04 C 20.122 11.016 20.549 11.0 21.0 11.0 C 23.617 11.0 25.579 11.421 27.0 12.34 L 27.0 8.0 C 27.0 6.9 26.1 6.0 25.0 6.0 L 9.0 6.0 C 7.9 6.0 7.0 6.9 7.0 8.0 L 7.0 24.0 C 7.0 25.1 7.9 26.0 9.0 26.0 L 13.34 26.0 C 12.939 25.379 12.632 24.652 12.416 23.812 C 12.047 24.057 11.607 24.2 11.133 24.2 z " fill-opacity="0.3"/>
<path d="M 22.721 4.0 C 22.373 3.406 21.734 3.0 21.0 3.0 L 5.0 3.0 C 3.9 3.0 3.0 3.9 3.0 5.0 L 3.0 21.0 C 3.0 21.734 3.406 22.373 4.0 22.721 L 4.0 7.0 C 4.0 5.3459997 5.3459997 4.0 7.0 4.0 L 22.721 4.0 z M 24.721 6.0 C 24.373 5.406 23.734 5.0 23.0 5.0 L 7.0 5.0 C 5.9 5.0 5.0 5.9 5.0 7.0 L 5.0 23.0 C 5.0 23.734 5.406 24.373 6.0 24.721 L 6.0 9.0 C 6.0 7.3459997 7.3459997 6.0 9.0 6.0 L 24.721 6.0 z M 21.0 13.0 C 15.073 13.0 13.0 15.073999 13.0 21.0 C 13.0 26.927 15.073 29.0 21.0 29.0 C 26.928 29.0 29.0 26.927 29.0 21.0 C 29.0 15.074 26.928 13.0 21.0 13.0 z M 21.0 28.0 C 15.636 28.0 14.0 26.364 14.0 21.0 C 14.0 15.636 15.636 14.0 21.0 14.0 C 22.659 14.0 23.96 14.158 24.968 14.533 L 20.975 18.526001 L 19.349 16.9 C 19.220001 16.772 19.057001 16.828 19.032001 17.015 L 17.998001 23.671 C 17.994001 23.705 17.991001 23.737999 17.991001 23.771 C 17.992 23.921 18.042002 24.044 18.134 24.125 C 18.235 24.213 18.382 24.249 18.545 24.227 L 25.206 23.179998 C 25.386 23.155998 25.428999 22.978998 25.312 22.863998 L 23.685 21.236998 L 27.569 17.352997 C 27.867 18.313 28.0 19.508 28.0 21.0 C 28.0 26.364 26.364 28.0 21.0 28.0 z M 11.133 25.2 C 9.847 25.2 8.8 24.153 8.8 22.867 C 8.8 21.58 9.847 20.533 11.133 20.533 C 11.443001 20.533 11.737 20.596 12.008 20.707 C 12.021 19.701 12.097 18.793001 12.242001 17.978 C 11.743001 17.821001 11.22 17.733 10.683001 17.733 L 10.066001 17.733 C 9.368001 17.733 8.799001 17.164999 8.799001 16.466 L 8.799001 15.4 C 8.799001 14.702 9.367001 14.132999 10.066001 14.132999 L 11.132001 14.132999 C 11.150001 14.132999 11.257001 14.151999 11.274001 14.155999 C 12.080001 14.2109995 12.855001 14.374999 13.5910015 14.622999 C 13.976002 14.1189995 14.445002 13.700999 14.985002 13.348999 C 13.648002 12.753999 12.1830015 12.415999 10.654001 12.415999 C 10.626001 12.415999 10.5980015 12.41 10.574001 12.398999 L 10.066001 12.398999 C 9.368001 12.398999 8.799001 11.830999 8.799001 11.131999 L 8.799001 10.064999 C 8.8 9.368 9.368 8.8 10.066 8.8 L 11.132 8.8 C 11.15 8.8 11.266 8.820001 11.283 8.825 C 14.453 8.969 17.369999 10.158 19.709 12.04 C 20.122 12.016 20.549 12.0 21.0 12.0 C 23.617 12.0 25.579 12.421 27.0 13.34 L 27.0 9.0 C 27.0 7.9 26.1 7.0 25.0 7.0 L 9.0 7.0 C 7.9 7.0 7.0 7.9 7.0 9.0 L 7.0 25.0 C 7.0 26.1 7.9 27.0 9.0 27.0 L 13.34 27.0 C 12.939 26.379 12.632 25.652 12.416 24.812 C 12.047 25.057 11.607 25.2 11.133 25.2 z " fill="#dedede"/>
</svg>
