<?xml version="1.0" encoding="UTF-8"?>
<svg xmlns="http://www.w3.org/2000/svg" xmlns:xlink="http://www.w3.org/1999/xlink" baseProfile="tiny" contentScriptType="text/ecmascript" contentStyleType="text/css" height="96px" preserveAspectRatio="xMidYMid meet" version="1.1" viewBox="0 0 96 96" width="96px" x="0px" y="0px" zoomAndPan="magnify">
<defs>
<linearGradient>
<stop offset="0" stop-color="#ffd758" stop-opacity="1"/>
<stop offset="1" stop-color="#ffcc58" stop-opacity="1"/>
</linearGradient>
<linearGradient gradientUnits="userSpaceOnUse" id="linearGradient3794" x1="49.132042" x2="49.132042" y1="16.476873" y2="87.39315">
<stop offset="0" stop-color="#ffd758" stop-opacity="1"/>
<stop offset="1" stop-color="#ffcc58" stop-opacity="1"/>
</linearGradient>
</defs>
<path d="M 88.0 49.0 C 88.0 78.635 77.639 89.0 48.0 89.0 C 18.365 89.0 8.0 78.635 8.0 49.0 C 8.0 19.367 18.365 9.0 48.0 9.0 C 77.637 9.0 88.0 19.367 88.0 49.0 z " fill-opacity="0.4"/>
<rect fill="none" height="96" width="96"/>
<linearGradient gradientUnits="userSpaceOnUse" x1="47.9995" x2="47.9995" y1="8" y2="24">
<stop offset="0" stop-color="#e4be34"/>
<stop offset="1" stop-color="#e0aa18"/>
</linearGradient>
<path d="M 84.004 24.0 C 78.653 12.49 67.499 8.0 48.0 8.0 C 28.502 8.0 17.348 12.49 11.995998 24.0 L 84.004 24.0 z " fill="#83a4a4" fill-opacity="1"/>
<path d="M 48.0 88.0 C 77.639 88.0 88.0 77.634 88.0 48.0 C 88.0 36.834 86.526 28.406 83.107 22.235 L 46.066 22.235 C 45.579 21.647 44.561 20.369 42.616 17.752 C 41.714 16.537 39.669003 14.500001 36.118 14.500001 L 19.71 14.500001 C 11.361 20.525 8.0 31.142 8.0 48.0 C 8.0 77.634 18.365 88.0 48.0 88.0 z " fill-opacity="0.05"/>
<path d="M 48.0 88.0 C 77.639 88.0 88.0 77.634 88.0 48.0 C 88.0 37.129 86.598 28.86 83.368 22.735 L 45.833 22.735 C 45.406 22.231 44.383 20.967 42.215 18.05 C 41.368 16.911 39.449 15.0 36.118 15.0 L 19.047 15.0 C 11.186 21.105 8.0 31.597 8.0 48.0 C 8.0 77.634 18.365 88.0 48.0 88.0 z " fill-opacity="0.05"/>
<path d="M 48.0 88.0 C 77.639 88.0 88.0 77.634 88.0 48.0 C 88.0 37.421 86.67 29.309 83.622 23.235 L 45.604 23.235 C 45.277 22.862 44.282 21.669 41.814 18.348 C 41.023 17.285 39.232 15.499 36.119 15.499 L 18.423 15.499 C 11.016 21.673 8.0 32.037 8.0 48.0 C 8.0 77.634 18.365 88.0 48.0 88.0 z " fill-opacity="0.1"/>
<linearGradient gradientUnits="userSpaceOnUse" x1="47.9995" x2="47.9995" y1="16" y2="88.0005">
<stop offset="0" stop-color="#e6cd49"/>
<stop offset="1" stop-color="#e0a714"/>
</linearGradient>
<path d="M 48.0 88.0 C 77.639 88.0 88.0 77.634 88.0 48.0 C 88.0 37.712 86.747 29.751 83.876 23.735 L 45.383 23.735 C 45.383 23.735 44.648 23.0 41.412 18.646 C 40.458 17.363 38.765 16.0 36.118 16.0 C 32.899 16.0 24.183 16.0 17.842 16.0 C 10.857 22.227 8.0 32.461 8.0 48.0 C 8.0 77.634 18.365 88.0 48.0 88.0 z " fill="url(#linearGradient3794)" fill-opacity="1"/>
<linearGradient gradientTransform="matrix(1 0 0 1 193.9253 -815.8408)" gradientUnits="userSpaceOnUse" id="SVGID_3_" x1="-145.9253" x2="-145.9253" y1="824.0938" y2="903.3385">
<stop offset="0" stop-color="#ffffff"/>
<stop offset="1" stop-color="#ffffff" stop-opacity="0"/>
</linearGradient>
<path d="M 48.0 8.0 C 18.365 8.0 8.0 18.366 8.0 48.0 C 8.0 77.634 18.365 88.0 48.0 88.0 C 77.639 88.0 88.0 77.634 88.0 48.0 C 88.0 18.365995 77.637 8.0 48.0 8.0 z M 48.0 87.0 C 18.842 87.0 9.0 77.158 9.0 48.0 C 9.0 18.842005 18.842 9.0 48.0 9.0 C 77.158005 9.0 87.0 18.842 87.0 48.0 C 87.0 77.158005 77.158 87.0 48.0 87.0 z " fill="url(#SVGID_3_)" fill-opacity="0.15"/>
<path d="M 41.73689 52.86325 L 29.031887 65.56825 L 29.046886 65.58325 C 27.564886 67.36025 27.655884 70.009254 29.322884 71.67725 C 30.991886 73.34625 33.63788 73.43626 35.41588 71.952255 L 35.43288 71.968254 L 47.294876 60.107258 C 47.331875 59.86826 47.38888 59.63426 47.47887 59.413258 L 46.268875 57.394253 L 41.736885 52.86325 z M 33.10388 70.22325 C 32.461884 70.86525 31.418882 70.86525 30.776882 70.22325 C 30.133884 69.579254 30.133884 68.53825 30.776882 67.89525 C 31.419882 67.25325 32.462883 67.25325 33.10388 67.89525 C 33.746883 68.538246 33.746883 69.57925 33.10388 70.22325 z M 50.75788 52.90425 L 52.77688 54.11425 C 52.99888 54.02425 53.232883 53.96825 53.47188 53.92925 L 56.378883 51.022247 C 59.39588 51.82525 62.736885 51.06225 65.10588 48.69425 C 68.88788 44.913258 68.44888 41.280247 66.70288 39.535248 L 62.80888 43.488247 C 60.87888 45.415245 59.76088 45.09424 57.83188 43.168247 C 55.90588 41.24024 55.58288 40.120247 57.51288 38.192245 L 61.46488 34.297245 C 59.71988 32.552246 56.08788 32.111244 52.30588 35.894245 C 49.938877 38.262245 49.17288 41.604244 49.97888 44.62224 L 46.22788 48.373245 L 50.757877 52.90425 z M 55.161877 55.87225 C 54.50688 55.21825 53.44488 55.21825 52.79088 55.87225 L 49.827877 54.09625 L 39.16388 43.431248 L 37.38688 40.468246 L 30.868876 35.13625 L 28.49988 37.50624 L 33.83288 44.02324 L 36.79388 45.80024 L 47.45988 56.464245 L 49.23588 59.427246 C 48.58188 60.08025 48.58188 61.142246 49.23588 61.79625 L 61.085884 73.64625 C 61.739883 74.29925 62.800884 74.29925 63.454884 73.64625 L 67.00887 70.09125 C 67.66387 69.437256 67.66387 68.37726 67.00887 67.722244 L 55.161884 55.87225 z " fill="#83a4a4" fill-opacity="1" stroke-opacity="0.9"/>
</svg>
