<?xml version="1.0" encoding="UTF-8"?>
<svg xmlns="http://www.w3.org/2000/svg" xmlns:xlink="http://www.w3.org/1999/xlink" baseProfile="tiny" contentScriptType="text/ecmascript" contentStyleType="text/css" height="27px" preserveAspectRatio="xMidYMid meet" version="1.1" viewBox="-5.5 -5.5 27 27" width="27px" x="0px" y="0px" zoomAndPan="magnify">
<path d="M 8.0 -3.5 C 1.648 -3.5 -3.5 1.648 -3.5 8.0 C -3.5 14.352 1.648 19.5 8.0 19.5 C 14.352 19.5 19.5 14.352 19.5 8.0 C 19.5 1.6479998 14.352 -3.5 8.0 -3.5 z M 10.5 16.5 L 6.5 16.5 L 6.5 7.7 L 5.5 7.7 C 4.838 7.7 4.3 7.161 4.3 6.5 C 4.3 5.839 4.8380003 5.3 5.5 5.3 L 10.3 5.3 C 10.41 5.3 10.5 5.3910003 10.5 5.5 L 10.5 16.5 z M 8.5 3.7 C 7.287 3.7 6.3 2.713 6.3 1.5 C 6.3 0.28699994 7.287 -0.7000001 8.5 -0.7000001 C 9.712999 -0.7000001 10.7 0.28699994 10.7 1.5 C 10.7 2.713 9.713 3.7 8.5 3.7 z " fill="#dedede" fill-opacity="1"/>
<rect fill="none" height="27" width="27" x="-5.5" y="-5.5"/>
<defs>
<linearGradient gradientTransform="matrix(1 0 0 -1 -262.4805 -370.0195)" gradientUnits="userSpaceOnUse" x1="270.4805" x2="270.4805" xlink:actuate="onLoad" xlink:show="other" xlink:type="simple" y1="-389.5195" y2="-366.5195">
<stop offset="0" stop-color="#d0cbc5"/>
<stop offset="1" stop-color="#fcfcf9"/>
</linearGradient>
</defs>
</svg>
