<?xml version="1.0" encoding="UTF-8"?>
<svg xmlns="http://www.w3.org/2000/svg" xmlns:xlink="http://www.w3.org/1999/xlink" baseProfile="tiny" contentScriptType="text/ecmascript" contentStyleType="text/css" height="30px" preserveAspectRatio="xMidYMid meet" version="1.1" viewBox="0 0 30 30" width="30px" x="0px" y="0px" zoomAndPan="magnify">
<path d="M 29.164 12.014 L 25.432 11.392 C 25.781 11.031 26.0 10.541 26.0 10.0 C 27.102 10.0 28.0 9.103 28.0 8.0 C 29.102 8.0 30.0 7.104 30.0 6.0 C 30.0 4.896 29.102 4.0 28.0 4.0 L 26.0 4.0 L 26.0 2.0 C 26.0 0.896 25.102 0.0 24.0 0.0 C 22.896 0.0 22.0 0.896 22.0 2.0 L 22.0 4.0 L 20.0 4.0 L 10.0 4.0 C 8.897 4.0 8.0 4.897 8.0 6.0 C 8.0 6.0 7.993 4.001 5.0620003 4.001 L 4.948 4.0 C 2.0 4.0 2.0 6.254 2.0 6.994 C 2.0 7.737 2.0 9.998 4.9300003 9.998 L 5.052 10.0 C 7.993 10.0 8.0 8.0 8.0 8.0 C 8.0 9.103 8.897 10.0 10.0 10.0 L 22.0 10.0 C 22.0 10.414 22.127 10.8 22.344 11.1189995 C 21.891 11.278 21.516 11.591999 21.278 11.999999 L 10.0 11.999999 C 8.897 11.999999 8.0 12.896999 8.0 13.999999 C 8.0 13.999999 7.993 12.000999 5.0620003 12.000999 L 4.948 12.0 C 2.0 12.0 2.0 14.254 2.0 14.994 C 2.0 15.737 2.0 17.998001 4.9300003 17.998001 L 5.052 18.0 C 7.993 18.0 8.0 16.0 8.0 16.0 C 8.0 17.103 8.897 18.0 10.0 18.0 L 21.0 18.0 L 21.0 20.0 L 10.0 20.0 C 8.897 20.0 8.0 20.897 8.0 22.0 C 8.0 22.0 7.993 20.001 5.0620003 20.001 L 4.948 20.0 C 2.0 20.0 2.0 22.254 2.0 22.994 C 2.0 23.737 2.0 25.998 4.9300003 25.998 L 5.052 26.0 C 7.993 26.0 8.0 24.0 8.0 24.0 C 8.0 25.103 8.897 26.0 10.0 26.0 L 15.0 26.0 C 15.0 28.205 17.242 30.0 20.0 30.0 C 22.756 30.0 25.0 28.205 25.0 26.0 L 26.0 26.0 C 27.102 26.0 28.0 25.103 28.0 24.0 L 28.0 22.0 C 28.0 20.897 27.102 20.0 26.0 20.0 L 25.0 20.0 L 25.0 18.0 L 26.0 18.0 C 26.393 18.0 26.756 17.883 27.064 17.687 L 28.831999 17.987 C 28.889 17.996 28.943 18.0 29.0 18.0 C 29.234 18.0 29.463 17.918 29.645 17.764 C 29.869 17.574 30.0 17.295 30.0 17.0 L 30.0 13.0 C 30.0 12.512 29.646 12.094 29.164 12.014 z " fill-opacity="0.15" stroke-opacity="0.15"/>
<path d="M 22.0 12.0 L 22.0 22.416 C 21.41 22.158 20.732 22.0 20.0 22.0 C 17.791 22.0 16.0 23.343 16.0 25.0 C 16.0 26.657 17.791 28.0 20.0 28.0 C 22.209 28.0 24.0 26.657 24.0 25.0 L 24.0 15.152 L 29.0 16.0 L 29.0 12.0 L 23.0 11.0 C 22.447 11.0 22.0 11.448 22.0 12.0 z M 26.959 7.2 L 26.199 7.2 L 26.199 7.9589996 C 26.584 7.877 26.877 7.585 26.959 7.2 z M 10.0 16.0 L 20.799 16.0 L 20.799 12.0 L 10.0 12.0 C 9.45 12.0 9.0 12.45 9.0 13.0 L 9.0 15.0 C 9.0 15.55 9.45 16.0 10.0 16.0 z M 10.0 8.0 L 21.799 8.0 L 21.799 7.2 L 20.0 7.2 C 18.787 7.2 17.799 6.213 17.799 5.0 C 17.799 4.639 17.897 4.302 18.051 4.0 L 10.0 4.0 C 9.45 4.0 9.0 4.45 9.0 5.0 L 9.0 7.0 C 9.0 7.55 9.45 8.0 10.0 8.0 z M 5.052 20.001 L 4.948 20.0 C 3.349 20.0 3.0 20.701 3.0 21.994 C 3.0 23.293999 3.358 23.998 4.948 23.998 L 5.052 24.0 C 6.653 24.0 7.0 23.295 7.0 22.002 C 7.0 20.705 6.645 20.001 5.052 20.001 z M 5.052 12.001 L 4.948 12.0 C 3.349 12.0 3.0 12.701 3.0 13.994 C 3.0 15.294001 3.358 15.998 4.948 15.998 L 5.052 16.0 C 6.653 16.0 7.0 15.295 7.0 14.002 C 7.0 12.705 6.645 12.001 5.052 12.001 z M 26.0 20.0 L 25.199 20.0 L 25.199 24.0 L 26.0 24.0 C 26.549 24.0 27.0 23.55 27.0 23.0 L 27.0 21.0 C 27.0 20.45 26.549 20.0 26.0 20.0 z M 20.0 20.8 C 20.27 20.8 20.535 20.817999 20.799 20.851 L 20.799 20.0 L 10.0 20.0 C 9.45 20.0 9.0 20.45 9.0 21.0 L 9.0 23.0 C 9.0 23.55 9.45 24.0 10.0 24.0 L 14.965 24.0 C 15.524 22.168 17.561 20.8 20.0 20.8 z M 5.052 4.001 L 4.948 4.0 C 3.349 4.0 3.0 4.701 3.0 5.994 C 3.0 7.2939997 3.358 7.998 4.948 7.998 L 5.052 8.0 C 6.653 8.0 7.0 7.295 7.0 6.002 C 7.0 4.705 6.645 4.001 5.052 4.001 z M 20.0 6.0 L 23.0 6.0 L 23.0 9.0 C 23.0 9.5529995 23.447 10.0 24.0 10.0 C 24.553 10.0 25.0 9.553 25.0 9.0 L 25.0 6.0 L 28.0 6.0 C 28.553 6.0 29.0 5.553 29.0 5.0 C 29.0 4.447 28.553 4.0 28.0 4.0 L 25.0 4.0 L 25.0 1.0 C 25.0 0.44700003 24.553 0.0 24.0 0.0 C 23.447 0.0 23.0 0.447 23.0 1.0 L 23.0 4.0 L 20.0 4.0 C 19.447 4.0 19.0 4.447 19.0 5.0 C 19.0 5.553 19.447 6.0 20.0 6.0 z " fill-opacity="0.3" stroke-opacity="0.3"/>
<path d="M 22.0 13.0 L 22.0 23.416 C 21.41 23.158 20.732 23.0 20.0 23.0 C 17.791 23.0 16.0 24.343 16.0 26.0 C 16.0 27.657 17.791 29.0 20.0 29.0 C 22.209 29.0 24.0 27.657 24.0 26.0 L 24.0 16.152 L 29.0 17.0 L 29.0 13.0 L 23.0 12.0 C 22.447 12.0 22.0 12.448 22.0 13.0 z M 26.959 8.2 L 26.199 8.2 L 26.199 8.959 C 26.584 8.877 26.877 8.585 26.959 8.2 z M 10.0 17.0 L 20.799 17.0 L 20.799 13.0 L 10.0 13.0 C 9.45 13.0 9.0 13.45 9.0 14.0 L 9.0 16.0 C 9.0 16.55 9.45 17.0 10.0 17.0 z M 10.0 9.0 L 21.799 9.0 L 21.799 8.2 L 20.0 8.2 C 18.787 8.2 17.799 7.213 17.799 6.0 C 17.799 5.639 17.897 5.302 18.051 5.0 L 10.0 5.0 C 9.45 5.0 9.0 5.45 9.0 6.0 L 9.0 8.0 C 9.0 8.55 9.45 9.0 10.0 9.0 z M 5.052 21.001 L 4.948 21.0 C 3.349 21.0 3.0 21.701 3.0 22.994 C 3.0 24.293999 3.358 24.998 4.948 24.998 L 5.052 25.0 C 6.653 25.0 7.0 24.295 7.0 23.002 C 7.0 21.705 6.645 21.001 5.052 21.001 z M 5.052 13.001 L 4.948 13.0 C 3.349 13.0 3.0 13.701 3.0 14.994 C 3.0 16.294 3.358 16.998001 4.948 16.998001 L 5.052 17.0 C 6.653 17.0 7.0 16.295 7.0 15.002 C 7.0 13.705 6.645 13.001 5.052 13.001 z M 26.0 21.0 L 25.199 21.0 L 25.199 25.0 L 26.0 25.0 C 26.549 25.0 27.0 24.55 27.0 24.0 L 27.0 22.0 C 27.0 21.45 26.549 21.0 26.0 21.0 z M 20.0 21.8 C 20.27 21.8 20.535 21.817999 20.799 21.851 L 20.799 21.0 L 10.0 21.0 C 9.45 21.0 9.0 21.45 9.0 22.0 L 9.0 24.0 C 9.0 24.55 9.45 25.0 10.0 25.0 L 14.965 25.0 C 15.524 23.168 17.561 21.8 20.0 21.8 z M 5.052 5.001 L 4.948 5.0 C 3.349 5.0 3.0 5.701 3.0 6.994 C 3.0 8.294 3.358 8.998 4.948 8.998 L 5.052 9.0 C 6.653 9.0 7.0 8.295 7.0 7.002 C 7.0 5.705 6.645 5.001 5.052 5.001 z M 20.0 7.0 L 23.0 7.0 L 23.0 10.0 C 23.0 10.5529995 23.447 11.0 24.0 11.0 C 24.553 11.0 25.0 10.553 25.0 10.0 L 25.0 7.0 L 28.0 7.0 C 28.553 7.0 29.0 6.553 29.0 6.0 C 29.0 5.447 28.553 5.0 28.0 5.0 L 25.0 5.0 L 25.0 2.0 C 25.0 1.447 24.553 1.0 24.0 1.0 C 23.447 1.0 23.0 1.447 23.0 2.0 L 23.0 5.0 L 20.0 5.0 C 19.447 5.0 19.0 5.447 19.0 6.0 C 19.0 6.553 19.447 7.0 20.0 7.0 z " fill="#dedede"/>
<rect fill="none" height="30" width="30"/>
</svg>
