<?xml version="1.0" encoding="UTF-8"?>
<svg xmlns="http://www.w3.org/2000/svg" xmlns:xlink="http://www.w3.org/1999/xlink" baseProfile="tiny" contentScriptType="text/ecmascript" contentStyleType="text/css" height="57px" preserveAspectRatio="xMidYMid meet" version="1.1" viewBox="0 0 67 57" width="67px" x="0px" y="0px" zoomAndPan="magnify">
<rect fill="#ffffff" fill-opacity="0.70588235" fill-rule="nonzero" height="48" ry="8.2174387" stroke="none" width="48" x="9.5" y="5.5"/>
<rect fill="none" height="57" width="67"/>
<defs>
<linearGradient gradientUnits="userSpaceOnUse" x1="36.5" x2="36.5" xlink:actuate="onLoad" xlink:show="other" xlink:type="simple" y1="55" y2="9.0005">
<stop offset="0" stop-color="#d0cbc5"/>
<stop offset="0.5031" stop-color="#fafcef"/>
<stop offset="0.9693" stop-color="#ffffff"/>
<stop offset="1" stop-color="#ffffff"/>
</linearGradient>
</defs>
<rect fill="#469fff" fill-opacity="0.58823529" fill-rule="nonzero" height="48" ry="8.2174387" stroke="none" width="48" x="9.5" y="5.5"/>
<path d="M 46.238388 30.13652 L 46.238388 19.611843 C 46.238388 17.052242 44.038727 14.700328 41.326862 14.700328 L 20.277514 14.700328 C 17.562847 14.700328 15.365998 17.052242 15.365998 19.611843 L 15.365998 41.36284 L 19.575869 37.15297 L 32.205482 37.15297 L 32.205482 34.38498 C 32.205482 32.08218 34.125885 30.136517 36.399216 30.136517 L 46.238388 30.136517 z M 22.11934 19.61184 L 39.57276 19.61184 C 40.153725 19.61184 40.62523 20.083344 40.62523 20.664309 C 40.62523 21.245266 40.153725 21.716774 39.57276 21.716774 L 22.11934 21.716774 C 21.53838 21.716774 21.066874 21.245268 21.066874 20.664309 C 21.066874 20.083344 21.53838 19.61184 22.11934 19.61184 z M 29.048088 31.539806 L 22.119345 31.539806 C 21.538382 31.539806 21.066875 31.0683 21.066875 30.48734 C 21.066875 29.906378 21.538382 29.434872 22.119345 29.434872 L 29.048088 29.434872 C 29.62905 29.434872 30.100555 29.906376 30.100555 30.48734 C 30.100555 31.0683 29.629051 31.539806 29.048088 31.539806 z M 22.119345 26.628288 C 21.538382 26.628288 21.066875 26.156784 21.066875 25.57582 C 21.066875 24.994858 21.538382 24.523354 22.119345 24.523354 L 39.57276 24.523354 C 40.153725 24.523354 40.62523 24.994858 40.62523 25.57582 C 40.62523 26.156782 40.153725 26.628288 39.57276 26.628288 L 22.11934 26.628288 z M 48.359463 31.539806 L 36.39922 31.539806 C 34.85841 31.539806 33.608776 32.9017 33.608776 34.384975 L 33.608776 41.696114 C 33.608776 43.177288 34.85841 44.53988 36.39922 44.53988 L 48.758 44.53988 L 51.149902 46.97599 L 51.149902 34.384968 C 51.149902 32.901695 49.90168 31.5398 48.359463 31.5398 z M 47.312607 41.289856 L 43.375675 41.289856 C 43.0459 41.289856 42.777172 41.01551 42.777172 40.680126 C 42.777172 40.341934 43.0459 40.070396 43.375675 40.070396 L 47.312607 40.070396 C 47.64308 40.070396 47.910408 40.343334 47.910408 40.680126 C 47.910408 41.016212 47.64308 41.289856 47.312607 41.289856 z M 47.312607 38.44539 L 37.395557 38.44539 C 37.065083 38.44539 36.797756 38.172447 36.797756 37.837063 C 36.797756 37.500275 37.065083 37.227333 37.395557 37.227333 L 47.31261 37.227333 C 47.643085 37.227333 47.91041 37.50168 47.91041 37.837063 C 47.91041 38.172447 47.643085 38.44539 47.31261 38.44539 z M 47.312614 35.601624 L 37.39556 35.601624 C 37.065086 35.601624 36.79776 35.32868 36.79776 34.993298 C 36.79776 34.65791 37.065086 34.38497 37.39556 34.38497 L 47.312614 34.38497 C 47.64309 34.38497 47.910416 34.657913 47.910416 34.993298 C 47.910416 35.32868 47.64309 35.601624 47.312614 35.601624 z " fill="#ffffff" fill-opacity="1" stroke-opacity="0.3"/>
</svg>
