<?xml version="1.0" encoding="UTF-8"?>
<svg xmlns="http://www.w3.org/2000/svg" xmlns:xlink="http://www.w3.org/1999/xlink" baseProfile="tiny" contentScriptType="text/ecmascript" contentStyleType="text/css" height="30px" preserveAspectRatio="xMidYMid meet" version="1.1" viewBox="0 0 30 30" width="30px" x="0px" y="0px" zoomAndPan="magnify">
<path d="M 23.772 28.001 C 23.227999 28.001 22.717 27.788 22.334 27.403 L 15.0 20.069 L 7.665 27.404 C 7.282 27.788 6.771 28.001 6.227 28.001 C 5.684 28.001 5.1730003 27.789 4.7890005 27.404 L 2.5960004 25.210999 C 1.8030005 24.418 1.8030005 23.126999 2.5960004 22.333998 L 9.931 15.0 L 2.596 7.665 C 2.212 7.282 1.999 6.771 1.999 6.227 C 1.999 5.684 2.212 5.1720004 2.597 4.7890005 L 4.7889996 2.5970006 C 5.174 2.2120006 5.6849995 2.0000005 6.2269993 2.0000005 C 6.7709994 2.0000005 7.281999 2.2130005 7.664999 2.5980005 L 15.0 9.93 L 22.335 2.5960002 C 22.717999 2.2120001 23.228998 1.9990002 23.772999 1.9990002 C 24.315998 1.9990002 24.827 2.2110002 25.210999 2.5960002 L 27.404 4.7890005 C 27.788 5.1720004 28.001 5.6840005 28.001 6.227 C 28.001 6.7710004 27.788 7.283 27.403 7.6660004 L 20.069 15.0 L 27.404 22.334 C 28.196999 23.126999 28.196999 24.418 27.404 25.211 L 25.210999 27.404001 C 24.826 27.789 24.315 28.001 23.772 28.001 L 23.772 28.001 z " fill-opacity="0.15"/>
<path d="M 18.655 14.0 L 26.697 5.958 C 27.101 5.5550003 27.101 4.899 26.697 4.4960003 L 24.504 2.3030002 C 24.1 1.8990002 23.445 1.8990002 23.042 2.3030002 L 15.0 10.344 L 6.958 2.303 C 6.5550003 1.8989999 5.9 1.8989999 5.4960003 2.303 L 3.303 4.496 C 2.899 4.8989997 2.899 5.555 3.303 5.9579997 L 11.345 14.0 L 3.3030005 22.041 C 2.8990004 22.445 2.8990004 23.1 3.3030005 23.504 L 5.4960003 25.697 C 5.9 26.101 6.5550003 26.101 6.958 25.697 L 15.0 17.655 L 23.042 25.697 C 23.445 26.101 24.1 26.101 24.504 25.697 L 26.697 23.504 C 27.101 23.1 27.101 22.445 26.697 22.041 L 18.655 14.0 z " fill-opacity="0.3"/>
<path d="M 18.655 15.0 L 26.697 6.958 C 27.101 6.5550003 27.101 5.899 26.697 5.4960003 L 24.504 3.3030002 C 24.1 2.8990002 23.445 2.8990002 23.042 3.3030002 L 15.0 11.344 L 6.958 3.303 C 6.5550003 2.899 5.9 2.899 5.4960003 3.303 L 3.303 5.496 C 2.899 5.8989997 2.899 6.555 3.303 6.9579997 L 11.345 15.0 L 3.3030005 23.041 C 2.8990004 23.445 2.8990004 24.1 3.3030005 24.504 L 5.4960003 26.697 C 5.9 27.101 6.5550003 27.101 6.958 26.697 L 15.0 18.655 L 23.042 26.697 C 23.445 27.101 24.1 27.101 24.504 26.697 L 26.697 24.504 C 27.101 24.1 27.101 23.445 26.697 23.041 L 18.655 15.0 z " fill="#dedede"/>
<rect fill="none" height="30" width="30"/>
</svg>
