<?xml version="1.0" encoding="UTF-8"?>
<svg xmlns="http://www.w3.org/2000/svg" xmlns:xlink="http://www.w3.org/1999/xlink" baseProfile="tiny" contentScriptType="text/ecmascript" contentStyleType="text/css" height="30px" preserveAspectRatio="xMidYMid meet" version="1.1" viewBox="0 0 30 30" width="30px" x="0px" y="0px" zoomAndPan="magnify">
<path d="M 3.0 26.0 C 1.897 26.0 1.0 25.103 1.0 24.0 L 1.0 6.0 C 1.0 4.897 1.8970001 4.0 3.0 4.0 L 27.0 4.0 C 28.103 4.0 29.0 4.897 29.0 6.0 L 29.0 24.0 C 29.0 25.103 28.103 26.0 27.0 26.0 L 3.0 26.0 z " fill-opacity="0.15" stroke-opacity="0.15"/>
<path d="M 5.828 24.0 L 12.879 24.0 L 9.354 20.475 L 5.828 24.0 z M 18.0 11.828 L 11.475 18.353 L 14.854 21.732 L 21.379 15.207001 L 18.0 11.828 z M 27.0 4.0 L 25.828 4.0 L 20.828 9.0 L 28.0 16.172 L 28.0 5.0 C 28.0 4.45 27.55 4.0 27.0 4.0 z M 2.0 13.121 L 2.0 22.172 L 6.525 17.647001 L 2.0 13.121 z M 20.172 4.0 L 8.414 4.0 L 14.292999 9.879 L 20.172 4.0 z M 16.268 23.146 L 17.121 24.0 L 27.0 24.0 C 27.55 24.0 28.0 23.55 28.0 23.0 L 28.0 21.828 L 22.793 16.620998 L 16.268 23.146 z M 8.646 15.525 L 12.878 11.292999 L 5.586 4.0 L 3.0 4.0 C 2.45 4.0 2.0 4.45 2.0 5.0 L 2.0 9.0 L 2.061 8.939 L 8.646 15.525 z " fill-opacity="0.3" stroke-opacity="0.3"/>
<path d="M 5.828 25.0 L 12.879 25.0 L 9.354 21.475 L 5.828 25.0 z M 18.0 12.828 L 11.475 19.353 L 14.854 22.732 L 21.379 16.207 L 18.0 12.828 z M 27.0 5.0 L 25.828 5.0 L 20.828 10.0 L 28.0 17.172 L 28.0 6.0 C 28.0 5.45 27.55 5.0 27.0 5.0 z M 2.0 14.121 L 2.0 23.172 L 6.525 18.647001 L 2.0 14.121 z M 20.172 5.0 L 8.414 5.0 L 14.292999 10.879 L 20.172 5.0 z M 16.268 24.146 L 17.121 25.0 L 27.0 25.0 C 27.55 25.0 28.0 24.55 28.0 24.0 L 28.0 22.828 L 22.793 17.620998 L 16.268 24.146 z M 8.646 16.525 L 12.878 12.292999 L 5.586 5.0 L 3.0 5.0 C 2.45 5.0 2.0 5.45 2.0 6.0 L 2.0 10.0 L 2.061 9.939 L 8.646 16.525 z " fill="#dedede"/>
<rect fill="none" height="30" width="30"/>
</svg>
