<?xml version="1.0" encoding="UTF-8"?>
<svg xmlns="http://www.w3.org/2000/svg" xmlns:xlink="http://www.w3.org/1999/xlink" baseProfile="tiny" contentScriptType="text/ecmascript" contentStyleType="text/css" height="72px" preserveAspectRatio="xMidYMid meet" version="1.1" viewBox="6 0 72 72" width="72px" x="0px" y="0px" zoomAndPan="magnify">
<rect fill="none" height="72" width="72" x="6"/>
<path d="M 41.374 8.842 C 26.162 8.842 13.791 21.311 13.791 36.632 C 13.791 51.957 26.162 64.421 41.374 64.421 C 56.58 64.421 68.957 51.956997 68.957 36.631996 C 68.957 21.311 56.58 8.842 41.374 8.842 M 21.599 39.878 C 21.246 39.913 20.943 39.928 20.683 39.928 C 19.498 39.928 18.944 39.581997 18.106 39.065 L 17.641 38.803 C 17.338 38.687996 17.127 38.407 17.107 38.081997 L 17.081 37.722996 C 17.057 37.363995 17.038002 37.001995 17.038002 36.631996 C 17.038002 29.886995 19.727 23.585997 24.609 18.898996 C 24.761002 18.755997 24.962002 18.676996 25.168 18.676996 L 25.216002 18.676996 C 25.437002 18.686996 25.647 18.794996 25.789 18.963997 C 26.172 19.421995 26.984 19.674995 28.071 19.674995 C 28.62 19.674995 29.232 19.604998 29.81 19.487995 C 30.139002 19.422997 30.457 19.343998 30.77 19.269997 C 31.682 19.057997 32.612 18.834995 33.656 18.834995 L 33.866 18.834995 C 34.154 18.849997 40.918 19.080996 41.457 21.301998 C 41.575 21.776 41.491 22.243998 41.213 22.648998 C 40.39 23.851995 37.955 24.242998 35.316 24.572998 C 34.764004 24.636995 34.322 24.690998 34.091003 24.745 C 32.245003 25.219 31.270004 26.453 30.139004 27.877 C 29.419004 28.780998 28.680004 29.713 27.666004 30.507 C 26.637005 31.317 25.466003 31.508 24.434004 31.672 C 23.719004 31.79 23.034004 31.904 22.431004 32.2 C 21.829004 32.506 21.647003 32.748 21.637005 32.841 C 21.583002 33.211 22.552004 34.075 23.131002 34.594 C 24.217005 35.566 25.345003 36.572 25.222002 37.830997 C 25.05 39.538 22.817 39.756 21.599 39.878 M 38.381 45.711 C 38.239 46.025 38.093 46.337 37.97 46.652 C 37.887 46.84 37.887 47.097 37.887 47.388 C 37.882 47.752 37.876 48.166 37.735 48.601 C 37.411 49.587 36.681 50.006 36.094 50.343 C 35.83 50.49 35.579 50.634003 35.418003 50.802 C 34.85 51.369003 34.483 52.493004 34.193005 53.398003 L 34.056004 53.802 C 33.969 54.068 33.855003 54.304 33.748005 54.531 C 33.65601 54.724003 33.56601 54.906 33.509007 55.113003 C 33.469006 55.265003 33.475006 55.527004 33.480007 55.785004 C 33.480007 56.150005 33.48401 56.560005 33.38701 56.950005 C 33.362007 57.049004 33.362007 57.138004 33.35801 57.251003 C 33.354008 57.602005 33.33801 58.247 32.44701 58.688004 C 32.15401 58.832005 31.855013 58.905003 31.55601 58.905003 C 31.523008 58.905003 31.36101 58.895004 31.32601 58.889004 C 31.24301 58.879005 31.15901 58.860004 31.08201 58.821003 L 30.54201 58.559 C 30.47301 58.52 30.41001 58.475 30.352009 58.425003 C 29.75001 57.848003 29.534008 56.960003 29.456009 56.461 C 29.23001 55.035004 28.92701 53.077003 29.15701 51.547 C 29.20101 51.227 29.26001 50.891003 29.31901 50.55 C 29.54501 49.266 29.77501 47.942 29.42201 46.745 C 29.19201 45.962 28.556011 45.437 27.82101 44.83 C 26.90601 44.073997 25.858011 43.223 25.622011 41.691 C 25.440012 40.572 25.705011 39.556 26.385012 38.753 C 27.223013 37.766 28.643011 37.172997 30.191011 37.172997 C 30.69901 37.172997 31.195011 37.237995 31.670012 37.362995 C 31.950012 37.442997 32.27201 37.520996 32.610012 37.608994 C 33.630013 37.860992 34.89801 38.17699 35.999012 38.63599 C 36.82701 38.981995 37.463013 39.356995 37.93801 39.795994 C 40.153 41.827 39.17 43.979 38.381 45.711 M 62.857 27.834 C 62.668 27.834 62.48 27.769 62.329 27.641 C 62.025 27.37 61.355 27.168 60.81 26.999998 C 60.564 26.926 60.335 26.851995 60.121 26.777998 C 59.566 26.570995 59.066 26.319998 58.567997 26.076998 C 58.329 25.963997 58.087997 25.839998 57.837997 25.731998 C 57.138996 25.399998 56.623997 25.229998 56.228996 25.229998 C 56.212 25.229998 56.200996 25.229998 56.184 25.234997 C 56.184 25.234997 55.973 25.431995 56.028 26.601995 C 56.061 27.356997 56.25 28.772997 57.134 29.705996 C 57.447 30.041998 57.934 30.254995 58.453 30.469995 C 59.035 30.720997 59.701 31.007998 60.214 31.535995 C 61.024 32.374996 61.004 33.055996 60.979 33.845997 L 60.968 34.339996 C 60.958 37.027996 60.365 38.597996 58.639 40.553 C 58.389 40.833996 58.141 41.079 57.895 41.325996 C 57.331 41.879 56.835 42.360996 56.371 43.436996 C 56.337 43.504997 56.303 43.575996 56.298 43.580997 C 55.339 45.567997 53.569 47.711 51.935 47.711 C 51.396 47.711 50.422 47.481 49.913 45.92 C 49.892 45.865 49.885 45.807 49.88 45.752 L 49.856003 45.545 C 49.729004 44.404 49.606003 43.232 50.061005 41.899 C 50.122005 41.733 50.194004 41.535 50.272003 41.333 C 50.582005 40.524 51.007004 39.423 50.815 38.808 C 50.723003 38.506 50.543003 38.407997 50.018 38.17 C 49.725 38.042 49.391003 37.89 49.067 37.648 C 48.381 37.126 48.004 36.617 47.559 35.972 C 47.293003 35.612 47.098003 35.192 46.907 34.787 C 46.669003 34.293 46.424 33.786 46.125 33.509 C 45.68 33.113 45.043 32.802 44.366 32.468 C 42.780003 31.679 40.787003 30.701998 40.881 28.061998 C 40.935 26.620998 42.384 25.106 43.239 24.326998 C 44.155003 23.503998 44.954 23.162 45.987003 23.162 C 46.315 23.162 46.669003 23.200998 47.075005 23.237 L 48.268005 23.341 C 48.836006 23.395 49.401005 23.449 49.914005 23.449 C 50.634007 23.449 51.100006 23.336 51.292004 23.113 C 51.514004 22.852 51.486004 22.318998 51.428005 21.925 C 51.262005 20.834 51.086006 20.78 50.208004 20.504 C 49.836 20.38 49.410004 20.248 48.936005 20.021 C 47.155006 19.182 46.085003 18.457 46.248005 17.45 C 46.415005 16.474 47.602005 16.216002 48.754005 16.094002 C 48.849007 16.04 49.004005 15.709002 49.096004 15.507002 C 49.28101 15.132002 49.486004 14.708002 49.85701 14.352002 L 50.058006 14.189002 C 50.199005 14.065002 50.380005 14.006002 50.562008 14.006002 C 50.674007 14.006002 50.777008 14.026003 50.884007 14.070003 C 56.56601 16.508003 61.08001 20.992002 63.603004 26.697002 C 63.759003 27.042002 63.658005 27.457005 63.349003 27.684002 C 63.195 27.78 63.029 27.834 62.857 27.834 " fill="#dedede" fill-opacity="1"/>
<linearGradient gradientTransform="matrix(1 0 0 1 -262.4404 -1155.8652)" gradientUnits="userSpaceOnUse" x1="303.8145" x2="303.8145" xlink:actuate="onLoad" xlink:show="other" xlink:type="simple" y1="1219.0244" y2="1163.4443">
<stop offset="0" stop-color="#d0cbc5"/>
<stop offset="0.5031" stop-color="#fafcef"/>
<stop offset="0.9693" stop-color="#ffffff"/>
<stop offset="1" stop-color="#ffffff"/>
</linearGradient>
</svg>
