<?xml version="1.0" encoding="UTF-8"?>
<svg xmlns="http://www.w3.org/2000/svg" xmlns:xlink="http://www.w3.org/1999/xlink" baseProfile="tiny" contentScriptType="text/ecmascript" contentStyleType="text/css" height="57px" preserveAspectRatio="xMidYMid meet" version="1.1" viewBox="0 0 67 57" width="67px" x="0px" y="0px" zoomAndPan="magnify">
<rect fill="#ffffff" fill-opacity="0.70588235" fill-rule="nonzero" height="48" ry="8.2174387" stroke="none" width="48" x="8.5" y="5.5"/>
<rect color="#000000" display="inline" fill="#4ed54a" fill-opacity="0.58823528999999997" fill-rule="nonzero" height="48" ry="8.2174387" stroke="none" visibility="visible" width="48" x="8.5" y="5.5"/>
<g>
<rect fill="none" height="57" width="67"/>
</g>
<g>
<rect fill="none" height="46" width="46" x="10.5" y="5.5"/>
</g>
<rect color="#000000" display="inline" fill="#ffffff" fill-opacity="0" fill-rule="nonzero" height="33" ry="0" stroke="none" stroke-width="1" visibility="visible" width="33" x="16" y="13"/>
<rect fill="none" height="44" width="44" x="12" y="7"/>
<defs>
<linearGradient gradientUnits="userSpaceOnUse" x1="33.9995" x2="33.9995" xlink:actuate="onLoad" xlink:show="other" xlink:type="simple" y1="50.4717" y2="7.5278">
<stop offset="0" stop-color="#d0cbc5"/>
<stop offset="0.5031" stop-color="#fafcef"/>
<stop offset="0.9693" stop-color="#ffffff"/>
<stop offset="1" stop-color="#ffffff"/>
</linearGradient>
</defs>
<path d="M 25.158705 11.25 C 24.561592 11.25 22.64202 11.573914 21.564955 12.34375 L 21.283705 12.53125 C 20.156506 13.310522 18.283705 14.556218 18.283705 17.34375 C 18.283705 20.931618 21.069122 26.636038 26.939955 34.53125 C 30.054533 38.719486 33.47171 41.767067 36.471207 43.78125 C 39.470703 45.795433 42.094505 46.75 43.408707 46.75 C 44.604366 46.75 45.910347 45.9659 47.002457 44.9375 C 48.094566 43.9091 48.97182 42.650127 49.377457 41.875 C 49.74757 41.168934 49.76727 40.6087 49.658707 40.15625 C 49.55444 39.721684 49.31412 39.392532 49.158707 39.25 C 49.156406 39.2479 49.129726 39.252 49.127457 39.25 C 49.127155 39.23959 49.127155 39.22916 49.127457 39.21875 C 49.117046 39.21905 49.106617 39.21905 49.096207 39.21875 C 49.096207 39.21875 45.158836 36.5571 43.408707 35.375 C 42.805435 34.96696 42.236313 34.78125 41.689957 34.78125 C 41.005608 34.78125 40.604225 35.0729 40.533707 35.125 C 40.526207 35.1305 40.469925 35.15732 40.471207 35.15625 C 40.471508 35.16666 40.471508 35.17709 40.471207 35.1875 C 40.467808 35.1916 40.090622 35.591255 39.346207 36.21875 C 38.416607 37.001617 37.028362 36.837696 36.064957 35.9375 C 35.745274 35.63924 35.222282 35.006073 34.502457 34.15625 C 33.78263 33.306427 32.904163 32.234398 32.002457 31.125 C 30.19904 28.906202 28.294575 26.516785 27.377457 25.28125 C 26.966358 24.72646 26.74659 24.13183 26.846207 23.53125 C 26.948086 22.911806 27.329628 22.44597 27.721207 22.0625 C 28.112785 21.67903 28.53371 21.382286 28.814957 21.1875 L 29.002457 21.0625 C 29.899979 20.41994 29.978449 19.293385 29.689957 18.53125 C 29.609306 18.319016 28.928995 16.83449 28.283707 15.4375 C 27.638418 14.04051 26.9971 12.644674 26.877457 12.40625 C 26.727882 12.107407 26.537685 11.7985115 26.283707 11.59375 C 26.029726 11.388989 25.70152 11.25 25.158705 11.25 z " fill="#ffffff" fill-opacity="1" fill-rule="nonzero" stroke="none"/>
</svg>
