<?xml version="1.0" encoding="UTF-8"?>
<svg xmlns="http://www.w3.org/2000/svg" xmlns:xlink="http://www.w3.org/1999/xlink" baseProfile="tiny" contentScriptType="text/ecmascript" contentStyleType="text/css" height="16px" preserveAspectRatio="xMidYMid meet" version="1.1" viewBox="0 0 16 16" width="16px" x="0px" y="0px" zoomAndPan="magnify">
<linearGradient gradientTransform="matrix(1 0 0 -1 -427.04 -841.7656)" gradientUnits="userSpaceOnUse" x1="435.041" x2="435.041" xlink:actuate="onLoad" xlink:show="other" xlink:type="simple" y1="-856.6436" y2="-842.8887">
<stop offset="0" stop-color="#d0cbc5"/>
<stop offset="0.5031" stop-color="#fafcef"/>
<stop offset="0.9693" stop-color="#ffffff"/>
<stop offset="1" stop-color="#ffffff"/>
</linearGradient>
<path d="M 11.93 8.702 L 11.93 5.427 C 11.93 5.064 11.649 4.765 11.303 4.765 L 8.794 4.765 C 8.448 4.765 8.165999 4.556 8.165999 4.2999997 C 8.165999 4.0439997 8.395 3.661 8.676 3.447 C 8.676 3.447 9.108 3.1179998 9.108 2.613 C 9.108 1.79 8.125 1.1229999 6.913 1.1229999 C 5.7 1.1229999 4.717 1.79 4.717 2.613 C 4.717 3.118 5.15 3.447 5.15 3.447 C 5.427 3.661 5.656 4.044 5.656 4.3 C 5.656 4.556 5.374 4.7650003 5.028 4.7650003 L 1.891 4.7650003 C 1.546 4.7650003 1.263 5.064 1.263 5.4270005 L 1.263 7.4130006 C 1.263 7.778001 1.462 8.075001 1.704 8.075001 C 1.946 8.075001 2.31 7.8340006 2.512 7.539001 C 2.512 7.539001 2.824 7.0820007 3.302 7.0820007 C 4.082 7.0820007 4.7139997 8.121 4.7139997 9.398001 C 4.7139997 10.679001 4.082 11.716001 3.3019998 11.716001 C 2.8229997 11.716001 2.5119998 11.261001 2.5119998 11.261001 C 2.311 10.965 1.9469998 10.724001 1.7039998 10.724001 C 1.4609997 10.724001 1.2629998 11.021001 1.2629998 11.386001 L 1.2629998 13.371 C 1.2629998 13.735001 1.5459998 14.033 1.8909998 14.033 L 8.562 14.033 L 8.562 9.823 C 8.562 9.204 9.066 8.701 9.685 8.701 L 11.93 8.701 z M 14.176 9.264 L 9.686 9.264 C 9.374 9.264 9.123 9.516 9.123 9.826 L 9.123 14.317 C 9.123 14.628 9.374001 14.879001 9.686 14.879001 L 14.176 14.879001 C 14.487 14.879001 14.738999 14.628 14.738999 14.317 L 14.738999 9.824 C 14.736 9.516 14.484 9.264 14.176 9.264 z " fill="#dedede" fill-opacity="1"/>
</svg>
