<?xml version="1.0" encoding="UTF-8"?>
<svg xmlns="http://www.w3.org/2000/svg" xmlns:xlink="http://www.w3.org/1999/xlink" baseProfile="tiny" contentScriptType="text/ecmascript" contentStyleType="text/css" height="30px" preserveAspectRatio="xMidYMid meet" version="1.1" viewBox="0.001 0 30 30" width="30px" x="0px" y="0px" zoomAndPan="magnify">
<defs/>
<path d="M 28.048 19.539 C 31.115 14.624 25.797 11.563 25.797 11.563 C 22.216002 9.146 17.392002 8.9869995 15.839001 9.007 L 15.837 9.0 L 13.549 9.0 L 13.55 9.011 C 11.574 9.052 7.3960004 9.410999 4.2040005 11.563 C 4.2040005 11.563 -1.1119995 14.627 1.9540005 19.539 C 2.3840005 20.227 3.3270006 19.939999 3.3270006 19.939999 L 7.0050006 18.288998 C 7.9330006 18.001997 7.8680005 17.231998 7.8680005 17.231998 L 8.0060005 14.798998 C 8.022 15.008998 7.8570004 12.454998 14.786001 12.349998 L 14.787002 12.348998 L 15.127002 12.348998 L 15.128002 12.350998 C 22.059002 12.454998 21.893002 15.0079975 21.906002 14.800998 L 22.135002 17.228998 C 22.135002 17.228998 22.069002 18.001999 22.996002 18.286999 L 26.672003 19.938 C 26.673 19.939 27.619 20.227 28.048 19.539 z " fill="#ffffff"/>
<rect fill="none" height="30" width="30" x="0.001"/>
</svg>
