<?xml version="1.0" encoding="UTF-8"?>
<svg xmlns="http://www.w3.org/2000/svg" xmlns:xlink="http://www.w3.org/1999/xlink" baseProfile="tiny" contentScriptType="text/ecmascript" contentStyleType="text/css" height="30px" preserveAspectRatio="xMidYMid meet" version="1.1" viewBox="0 0 30 30" width="30px" x="0px" y="0px" zoomAndPan="magnify">
<path d="M 29.934 27.104 C 29.65 25.95 28.48 25.33 28.404 25.292 C 27.028 24.482 25.682 23.954 25.627998 23.933 C 25.506 23.885 25.398998 23.829 25.339 23.793 C 24.832998 23.442 24.519 22.77 24.481998 22.673 C 24.437998 22.495 24.412 22.372 24.395998 22.285 C 24.944998 21.649 25.268995 20.766 25.436998 20.184 C 25.968 19.866 26.168 19.122 26.311998 18.588 C 26.322 18.552 26.330996 18.522 26.339998 18.487 L 29.415 15.412 C 29.792 15.036 30.0 14.534 30.0 14.0 C 30.0 13.466 29.792 12.964 29.414 12.586 C 29.036 12.208001 28.534 12.0 28.0 12.0 C 27.466 12.0 26.964 12.208 26.586 12.586 L 26.453 12.719001 C 26.31 12.240001 26.048 11.693001 25.562 10.959001 C 25.068 10.213 24.453 10.016001 22.964 9.540001 L 22.218 9.300001 C 21.6 9.098 21.062 9.0 20.572 9.0 C 20.123 9.0 19.785 9.084 19.52 9.173 C 19.526 9.152 19.534 9.127001 19.539 9.106 C 19.564 9.011 19.589 8.922 19.612 8.845 C 19.793 8.2560005 19.867 7.870001 19.879 7.799 C 19.943 7.278001 19.783 6.935001 19.621 6.728 C 19.627 6.701 19.633 6.6740003 19.638 6.6470003 C 19.709 6.307 19.79 5.9210005 19.79 5.4550004 C 19.791 5.293 19.799002 5.1500006 19.805 5.0150003 C 19.854 4.0580006 19.813 3.3690004 18.83 1.8790004 C 18.355 1.1590004 17.771 0.9710005 16.359 0.5190004 L 15.662999 0.29400042 C 15.075999 0.10300042 14.563999 0.009000421 14.099999 0.009000421 C 13.478999 0.009000421 13.066999 0.1750004 12.794999 0.2850004 C 12.739999 0.3070004 12.690999 0.33100042 12.728999 0.3410004 C 12.607 0.327 12.498 0.32 12.4 0.32 C 11.398 0.32 11.040999 0.998 10.91 1.252 C 10.514999 1.3989999 10.237 1.677 10.107 1.903 C 9.238 3.312 9.214001 4.104 9.274 4.993 C 9.278 5.053 9.277 5.123 9.281 5.184 C 8.855 5.073 8.457 5.0 8.1 5.0 C 7.479 5.0 7.066 5.166 6.795 5.276 C 6.74 5.298 6.691 5.322 6.729 5.333 C 6.607 5.318 6.498 5.312 6.4 5.312 C 5.398 5.312 5.0410004 5.99 4.91 6.244 C 4.516 6.391 4.237 6.668 4.107 6.895 C 3.238 8.304 3.215 9.096 3.274 9.985 C 3.2849998 10.158999 3.298 10.339999 3.293 10.546 C 3.277 11.016 3.328 11.410999 3.438 11.825999 C 3.334 12.001999 3.251 12.244 3.25 12.565 C 3.23 12.808 3.27 13.176 3.469 13.818999 C 3.493 13.894 3.514 14.0 3.537 14.114 C 3.634 14.567 3.777 15.241 4.229 15.58 C 4.3840003 16.141 4.685 16.977 5.205 17.58 C 5.18 17.708 5.1419997 17.857 5.123 17.937 C 4.993 18.462 4.6540003 18.839 4.1270003 19.052 C 4.0740004 19.073 2.8070002 19.573 1.5740004 20.306 C 1.3670003 20.41 0.3170004 20.988 0.034000397 22.14 L 0.015000397 22.244 C -0.058999605 22.659 0.1340004 23.076 0.4990004 23.287 C 1.2860004 23.741 2.2110004 24.107998 3.2470002 24.378998 C 5.377 24.936 6.947 25.0 7.943 25.0 C 8.184999 25.0 8.408999 24.996 8.571 24.991 C 8.777 24.996 9.0 25.0 9.242 25.0 C 10.238 25.0 11.808 24.936 13.938 24.379 C 14.388 24.261 14.803 24.123 15.201 23.971 L 14.251 24.921 C 14.051001 25.029 13.848001 25.141 13.644 25.262 C 13.511 25.328 12.336 25.949 12.036 27.170002 L 12.016 27.280005 C 11.993 27.412004 12.004 27.543003 12.033 27.668003 C 12.014 27.777 12.0 27.888 12.0 28.0 C 12.0 28.534 12.208 29.036 12.586 29.414 C 12.964001 29.792 13.466 30.0 14.0 30.0 C 14.512 30.0 14.989 29.805 15.361 29.457 C 15.381 29.463 15.396 29.471 15.416 29.475 C 16.695 29.809 18.767 30.0 21.1 30.0 C 23.432 30.0 25.502 29.809 26.784 29.475 C 27.811 29.206 28.696 28.86 29.489 28.415 C 29.863 28.206 30.061 27.781 29.984 27.361 L 29.934 27.104 z M 16.938 22.078 C 16.664 20.967 15.542999 20.370998 15.474999 20.338 C 15.273999 20.219 15.075 20.109 14.879 20.004 C 14.999 20.006 15.111 20.009 15.242 20.009 C 15.547999 20.009 15.926 19.995998 16.34 19.971 C 16.395 20.030998 16.44 20.098 16.506 20.145 C 16.639 20.624 16.887 21.311998 17.274 21.898998 L 16.962 22.211 L 16.938 22.078 z " fill-opacity="0.15"/>
<path d="M 16.0 21.504 L 15.966 21.317 C 15.794 20.619 14.964999 20.199 14.964999 20.199 C 13.725999 19.467 12.494999 18.984 12.494999 18.984 C 12.321999 18.915998 12.170999 18.837 12.0339985 18.751 C 11.2769985 18.226 10.889998 17.29 10.851998 17.148 C 10.745998 16.716 10.6519985 16.261 10.802999 16.116 C 11.567999 15.445999 11.871999 13.850999 11.871999 13.850999 C 11.891999 13.787999 11.909999 13.729999 11.932999 13.673999 C 12.307999 14.139998 12.499999 13.044999 12.655998 12.542999 C 12.817998 12.013 12.885998 11.666999 12.885998 11.666999 C 12.951998 11.128999 12.547997 11.286999 12.547997 11.286999 L 12.516997 11.321999 C 12.575997 10.572999 12.788998 10.114999 12.788998 9.440998 C 12.793998 8.397998 13.046998 8.016998 11.993998 6.419998 C 11.667997 5.9249983 11.218998 5.843998 9.350998 5.234998 C 7.489998 4.6269984 7.223998 5.3979983 6.6049976 5.3249984 C 5.99 5.249 5.904 5.503 5.785 5.728 C 5.664 5.9500003 5.785 6.1280003 5.447 6.143 C 5.108 6.159 4.959 6.42 4.959 6.42 C 3.953 8.049 4.326 8.539 4.292 9.58 C 4.273 10.134 4.362 10.546 4.647 11.309 L 4.6159997 11.267 C 4.6159997 11.267 4.2219996 11.08 4.252 11.621 C 4.252 11.621 4.197 11.79 4.421 12.5130005 C 4.555 12.929001 4.656 14.086 5.04 13.72 C 5.053 13.763 5.07 13.808001 5.084 13.852 C 5.084 13.852 5.385 15.447 6.151 16.117 C 6.306 16.263 6.2070003 16.718 6.101 17.149 C 6.0569997 17.314 5.838 18.44 4.4919996 18.985 C 4.4919996 18.985 3.2619996 19.467 2.0239997 20.2 C 2.0239997 20.2 1.1909997 20.62 1.0179996 21.318 L 1.0 21.421 C 1.704 21.827 2.534 22.159 3.501 22.412 C 5.863 23.029 7.491 23.016 8.593 22.992 C 9.696 23.015 11.3220005 23.029 13.685 22.412 C 14.58 22.177 15.343 21.873 16.0 21.504 z M 18.104 9.773 C 17.975 10.009 18.104 10.198999 17.745 10.214 C 17.384 10.231999 17.224 10.509 17.224 10.509 C 16.152 12.24 16.549002 12.76 16.513 13.867 C 16.493 14.455999 16.587 14.893999 16.892 15.705999 L 16.859 15.660999 C 16.859 15.660999 16.439 15.461999 16.47 16.036 C 16.47 16.036 16.411 16.216 16.65 16.985 C 16.793 17.426 16.902 18.657 17.311 18.266 C 17.324 18.311998 17.343 18.36 17.358 18.407 C 17.358 18.407 17.48 19.046 17.762 19.703 L 25.491 11.973999 C 25.374 11.596999 25.148 11.141999 24.729 10.508999 C 24.381 9.982999 23.901 9.896999 21.91 9.248999 C 19.925 8.602999 19.641 9.421999 18.981 9.343999 C 18.322 9.265 18.231 9.535 18.104 9.773 z M 10.359 4.51 C 11.771 4.9630003 12.3550005 5.15 12.83 5.8700004 C 13.812 7.3600006 13.853 8.049 13.805 9.0060005 C 13.799001 9.141001 13.791 9.285001 13.79 9.446 C 13.79 9.912 13.709 10.298 13.638 10.6380005 C 13.632999 10.665001 13.627 10.692 13.620999 10.719001 C 13.782999 10.926001 13.942999 11.269001 13.879 11.790001 C 13.867 11.861001 13.792999 12.247001 13.612 12.836 C 13.589 12.913 13.563999 13.003 13.539 13.097 C 13.403999 13.603 13.214999 14.305 12.714999 14.621 C 12.555999 15.175 12.256999 15.979 11.749 16.577 C 11.764 16.654999 11.787 16.763 11.823 16.91 C 11.855 16.993 12.146 17.612 12.604 17.931 C 12.617 17.939 12.642 17.951 12.662 17.962 C 13.434 18.019 14.073999 18.013 14.592999 18.001 C 14.954 18.009 15.379 18.014 15.86 17.997 C 15.825 17.861 15.797 17.729 15.771999 17.613 C 15.745999 17.488998 15.723 17.374 15.697999 17.294 C 15.486999 16.614998 15.445999 16.230999 15.467999 15.980999 C 15.469 15.637999 15.561 15.384999 15.672999 15.203999 C 15.553 14.758999 15.495999 14.337998 15.513 13.835999 C 15.521 13.613998 15.506 13.418999 15.492999 13.232999 C 15.429999 12.297998 15.455999 11.465999 16.373999 9.983999 C 16.508999 9.747999 16.803 9.457999 17.218998 9.310999 C 17.221998 9.305999 17.223995 9.300999 17.228 9.294999 C 17.359 9.043999 17.648998 8.488999 18.421 8.359999 C 18.515 8.094998 18.59 7.7699986 18.657 7.5529985 C 18.819 7.022999 18.887 6.6769986 18.887 6.6769986 C 18.953 6.1389985 18.549 6.2969985 18.549 6.2969985 L 18.518 6.3319983 C 18.577 5.5829983 18.79 5.124998 18.79 4.4509983 C 18.794998 3.4079983 19.047998 3.0269983 17.995 1.4299984 C 17.669 0.9349984 17.22 0.8539984 15.351999 0.24499846 C 13.490999 -0.36300153 13.224999 0.40799844 12.605999 0.33499846 C 11.989999 0.25899845 11.903999 0.51299846 11.784999 0.7369985 C 11.663999 0.9589985 11.784999 1.1369984 11.446999 1.1519984 C 11.107999 1.1689984 10.958999 1.4299984 10.958999 1.4299984 C 9.987999 3.0029984 10.298999 3.5169983 10.290998 4.4889984 L 10.359 4.51 z M 28.707 12.293 C 28.316 11.902 27.684 11.902 27.293 12.293 L 13.293001 26.293 C 12.902001 26.684 12.902001 27.316 13.293001 27.707 C 13.488 27.902 13.744 28.0 14.0 28.0 C 14.256 28.0 14.512 27.902 14.707 27.707 L 28.707 13.707001 C 29.098 13.316 29.098 12.684 28.707 12.293 z M 27.896 25.155 C 26.574 24.377 25.261 23.864 25.261 23.864 C 25.076 23.792 24.915 23.708 24.769 23.616 C 23.962 23.057 23.549 22.063002 23.509 21.913002 C 23.442 21.642002 23.386 21.370005 23.38 21.154 L 16.805 27.729 C 19.648 28.152 24.337 28.078 26.53 27.507 C 27.485 27.257 28.299 26.935 29.0 26.542 L 28.963 26.343 C 28.78 25.602 27.896 25.155 27.896 25.155 z " fill-opacity="0.3"/>
<path d="M 13.685 23.412 C 11.323 24.029 9.696 24.016 8.593 23.992 C 7.491 24.015 5.8640003 24.029 3.5010004 23.412 C 2.534 23.159 1.704 22.827 1.0 22.421 L 1.019 22.317 C 1.192 21.619 2.025 21.199 2.025 21.199 C 3.262 20.467 4.493 19.984 4.493 19.984 C 5.84 19.439 6.058 18.313 6.102 18.148 C 6.2070003 17.716 6.307 17.261 6.1520004 17.116 C 5.385 16.446 5.0850005 14.850999 5.0850005 14.850999 C 5.0710006 14.807999 5.0540004 14.761999 5.0410004 14.718999 C 4.6570005 15.085999 4.556 13.927999 4.4220004 13.511999 C 4.1980004 12.789 4.2530003 12.619999 4.2530003 12.619999 C 4.2240005 12.079999 4.617 12.265999 4.617 12.265999 L 4.648 12.307999 C 4.3630004 11.543999 4.274 11.131999 4.293 10.578999 C 4.327 9.536999 3.954 9.047998 4.96 7.4189982 C 4.96 7.4189982 5.109 7.1579986 5.448 7.140999 C 5.785 7.128 5.664 6.95 5.785 6.728 C 5.904 6.503 5.99 6.249 6.606 6.325 C 7.225 6.398 7.491 5.627 9.352 6.2349997 C 11.219 6.844 11.668 6.925 11.995 7.42 C 13.048 9.016999 12.795 9.398 12.79 10.441 C 12.79 11.115 12.576 11.573 12.518 12.3220005 L 12.549 12.287001 C 12.549 12.287001 12.953 12.129001 12.887 12.667001 C 12.887 12.667001 12.819 13.0130005 12.657001 13.543001 C 12.502001 14.045001 12.309001 15.140001 11.934001 14.674002 C 11.912001 14.730001 11.893001 14.788002 11.873001 14.851002 C 11.873001 14.851002 11.568001 16.446001 10.804001 17.116 C 10.653001 17.262 10.746001 17.717 10.853001 18.148 C 10.891001 18.29 11.278001 19.225 12.035001 19.751 C 12.172001 19.837002 12.323001 19.916002 12.496001 19.984 C 12.496001 19.984 13.726002 20.466002 14.9660015 21.199 C 14.9660015 21.199 15.795002 21.619 15.967002 22.317 L 16.0 22.504 C 15.343 22.873 14.58 23.177 13.685 23.412 z " fill="#dedede"/>
<path d="M 10.359 5.51 C 11.771 5.9630003 12.3550005 6.15 12.83 6.870001 C 13.812 8.360001 13.853 9.049 13.805 10.0060005 C 13.799001 10.141001 13.791 10.285001 13.79 10.446 C 13.79 10.912 13.709 11.298 13.638 11.6380005 C 13.632999 11.665001 13.627 11.692 13.620999 11.719001 C 13.782999 11.926001 13.942999 12.269001 13.879 12.790001 C 13.867 12.861001 13.792999 13.247001 13.612 13.836 C 13.589 13.913 13.563999 14.003 13.539 14.097 C 13.403999 14.603 13.214999 15.305 12.714999 15.621 C 12.555999 16.174 12.256999 16.979 11.749 17.577 C 11.764 17.655 11.787 17.763 11.823 17.91 C 11.855 17.993 12.146 18.612 12.604 18.931 C 12.617 18.939 12.642 18.951 12.662 18.962 C 13.434 19.019 14.073999 19.013 14.592999 19.001 C 14.954 19.009 15.379 19.014 15.86 18.997 C 15.825 18.861 15.797 18.729 15.771999 18.613 C 15.745999 18.488998 15.723 18.374 15.697999 18.294 C 15.486999 17.614998 15.445999 17.231 15.467999 16.981 C 15.469 16.637999 15.561 16.383999 15.672999 16.203999 C 15.553 15.758999 15.495999 15.337998 15.513 14.835999 C 15.521 14.613998 15.506 14.418999 15.492999 14.232999 C 15.429999 13.297998 15.455999 12.465999 16.373999 10.983999 C 16.508999 10.747999 16.803 10.457999 17.218998 10.310999 C 17.221998 10.305999 17.223995 10.300999 17.228 10.294999 C 17.359 10.043999 17.648998 9.488999 18.421 9.359999 C 18.515 9.094998 18.59 8.769999 18.657 8.552999 C 18.819 8.022999 18.887 7.6769986 18.887 7.6769986 C 18.953 7.1389985 18.549 7.2969985 18.549 7.2969985 L 18.518 7.3319983 C 18.577 6.5829983 18.79 6.124998 18.79 5.4509983 C 18.794998 4.407998 19.047998 4.0269985 17.995 2.4299984 C 17.669 1.9349984 17.22 1.8539984 15.351999 1.2449985 C 13.490999 0.6369985 13.224999 1.4079984 12.605999 1.3349985 C 11.989999 1.2589985 11.903999 1.5129985 11.784999 1.7369986 C 11.663999 1.9589986 11.784999 2.136999 11.446999 2.1519983 C 11.107999 2.1689985 10.958999 2.4299984 10.958999 2.4299984 C 9.987999 4.0029984 10.298999 4.5169983 10.290998 5.4889984 L 10.359 5.51 z " fill="#dedede"/>
<rect fill="none" height="30" width="30"/>
<path d="M 17.31 19.268 C 17.323 19.314 17.342 19.362 17.357 19.409 C 17.357 19.409 17.479 20.048 17.761 20.705 L 25.49 12.976 C 25.373 12.599 25.147 12.144 24.728 11.511 C 24.38 10.985 23.900002 10.899 21.909 10.250999 C 19.924 9.605 19.64 10.424 18.98 10.346 C 18.322 10.264999 18.231 10.535999 18.103 10.774 C 17.974 11.01 18.103 11.2 17.744 11.215 C 17.383 11.233 17.223 11.51 17.223 11.51 C 16.151 13.241 16.548 13.761 16.512 14.868 C 16.491999 15.457 16.585999 15.895 16.891 16.707 L 16.857998 16.662 C 16.857998 16.662 16.437998 16.463001 16.468998 17.037 C 16.468998 17.037 16.409998 17.217 16.648998 17.986 C 16.791 18.428 16.9 19.658 17.31 19.268 z " fill="#dedede"/>
<path d="M 27.896 26.155 C 26.574 25.377 25.261 24.864 25.261 24.864 C 25.076 24.792 24.915 24.708 24.769 24.616 C 23.962 24.057 23.549 23.063002 23.509 22.913002 C 23.442 22.642002 23.386 22.370005 23.38 22.154 L 16.805 28.729 C 19.648 29.152 24.337 29.078 26.53 28.507 C 27.485 28.257 28.299 27.935 29.0 27.542 L 28.963 27.343 C 28.78 26.602 27.896 26.155 27.896 26.155 z " fill="#dedede"/>
<path d="M 14.0 29.0 C 13.744 29.0 13.488 28.902 13.293 28.707 C 12.902 28.316 12.902 27.684 13.293 27.293 L 27.293 13.293001 C 27.684 12.902001 28.316 12.902001 28.707 13.293001 C 29.097998 13.684001 29.098 14.316001 28.707 14.707001 L 14.706999 28.707 C 14.512 28.902 14.256 29.0 14.0 29.0 L 14.0 29.0 z " fill="#fa664b"/>
</svg>
