<?xml version="1.0" encoding="UTF-8"?>
<svg xmlns="http://www.w3.org/2000/svg" xmlns:xlink="http://www.w3.org/1999/xlink" baseProfile="tiny" contentScriptType="text/ecmascript" contentStyleType="text/css" height="68px" preserveAspectRatio="xMidYMid meet" version="1.1" viewBox="0 0 51 68" width="51px" x="0px" y="0px" zoomAndPan="magnify">
<defs/>
<path d="M 47.5 34.275 C 47.5 50.574 41.803 56.275 25.5 56.275 C 9.201 56.275 3.5 50.574 3.5 34.275 C 3.5 17.977001 9.201 12.275002 25.5 12.275002 C 41.801 12.275 47.5 17.977 47.5 34.275 z " fill-opacity="0.4"/>
<linearGradient gradientTransform="matrix(1 0 0 -1 412.9053 -563.3203)" gradientUnits="userSpaceOnUse" x1="-387.4053" x2="-387.4053" y1="-619.2305" y2="-575.231">
<stop offset="0" stop-color="#69000f"/>
<stop offset="1" stop-color="#e2323b"/>
</linearGradient>
<path d="M 47.5 33.725 C 47.5 50.023 41.803 55.725 25.5 55.725 C 9.201 55.725 3.5 50.024 3.5 33.725 C 3.5 17.425999 9.201 11.724998 25.5 11.724998 C 41.801 11.725 47.5 17.427 47.5 33.725 z " fill="#e23842" fill-opacity="1"/>
<linearGradient gradientTransform="matrix(1 0 0 -1 412.9053 -563.3203)" gradientUnits="userSpaceOnUse" id="SVGID_2_" x1="-387.4053" x2="-387.4053" y1="-575.1846" y2="-618.7687">
<stop offset="0" stop-color="#ffffff"/>
<stop offset="1" stop-color="#ffffff" stop-opacity="0"/>
</linearGradient>
<path d="M 25.5 11.725 C 9.201 11.725 3.5 17.427 3.5 33.725 C 3.5 50.022995 9.201 55.725 25.5 55.725 C 41.803 55.725 47.5 50.024 47.5 33.725 C 47.5 17.425999 41.801 11.725 25.5 11.725 z M 25.5 55.175 C 9.462999 55.175 4.0510006 49.762 4.0510006 33.725 C 4.0510006 17.687998 9.463001 12.274998 25.5 12.274998 C 41.537 12.274998 46.951 17.687998 46.951 33.725 C 46.951 49.762 41.537 55.175 25.5 55.175 z " fill="url(#SVGID_2_)" fill-opacity="0.15"/>
<path d="M 24.204 49.089 C 16.978 49.089 11.1 43.211002 11.1 35.985 L 11.1 34.263 C 11.1 32.417 12.603001 30.915 14.449 30.915 L 16.744 30.915 C 18.591 30.915 20.092 32.417 20.092 34.263 L 20.092 35.985 C 20.092 38.253002 21.938 40.098 24.204998 40.098 C 26.310997 40.098 28.053997 38.506 28.290998 36.463 L 25.927998 36.463 C 25.148998 36.463 24.419998 36.045002 24.026997 35.371002 C 23.632998 34.691 23.630997 33.849003 24.017996 33.171 L 30.903996 21.119001 C 31.293995 20.435001 32.025997 20.011002 32.813995 20.011002 C 33.602997 20.011002 34.334995 20.436 34.724995 21.121002 L 41.611996 33.172 C 41.999996 33.850002 41.996994 34.691 41.604996 35.366 C 41.208996 36.044003 40.480995 36.464 39.701996 36.464 L 37.301994 36.464 C 37.048 43.468 31.271 49.089 24.204 49.089 z " fill-opacity="0.05" stroke-opacity="0.05"/>
<path d="M 24.204 48.539 C 17.281 48.539 11.650001 42.907 11.650001 35.984 L 11.650001 34.262 C 11.650001 32.72 12.905001 31.464 14.448001 31.464 L 16.743 31.464 C 18.286 31.464 19.541 32.719 19.541 34.262 L 19.541 35.984 C 19.541 38.555 21.633 40.647003 24.204 40.647003 C 26.775002 40.647003 28.867 38.555004 28.867 35.984 L 28.867 35.912003 L 25.927 35.912003 C 25.342001 35.912003 24.796 35.599003 24.5 35.094 C 24.205 34.584003 24.203 33.953003 24.494 33.445004 L 31.38 21.393003 C 31.671999 20.880003 32.222 20.561003 32.813 20.561003 C 33.405 20.561003 33.954 20.880003 34.247 21.394003 L 41.134003 33.445004 C 41.424004 33.953003 41.423004 34.584003 41.129 35.091003 C 40.832 35.599003 40.286003 35.913002 39.701 35.913002 L 36.760002 35.913002 L 36.760002 35.985 C 36.759 42.907 31.127 48.539 24.204 48.539 z " fill-opacity="0.07" stroke-opacity="0.07"/>
<path d="M 24.204 47.989 C 17.585001 47.989 12.200001 42.602997 12.200001 35.983997 L 12.200001 34.261997 C 12.200001 33.023 13.209001 32.013996 14.448001 32.013996 L 16.743 32.013996 C 17.983 32.013996 18.991 33.021996 18.991 34.261997 L 18.991 35.983997 C 18.991 38.858997 21.33 41.197 24.203999 41.197 C 27.077997 41.197 29.418 38.858997 29.418 35.983997 L 29.418 35.363 L 25.927 35.363 C 25.536 35.363 25.172 35.153 24.976 34.815998 C 24.78 34.476997 24.778 34.057 24.972 33.717 L 31.858 21.664999 C 32.053 21.322998 32.419 21.110998 32.813 21.110998 C 33.207 21.110998 33.572998 21.322998 33.768 21.664999 L 40.656002 33.717 C 40.849003 34.056 40.848003 34.476997 40.652 34.815 C 40.455 35.154 40.09 35.364 39.701 35.364 L 36.21 35.364 L 36.21 35.984997 C 36.209 42.604 30.823 47.989 24.204 47.989 z " fill-opacity="0.1" stroke-opacity="0.1"/>
<path d="M 24.204 47.439 C 17.888 47.439 12.75 42.3 12.75 35.984 L 12.75 34.262 C 12.75 33.326 13.512 32.564003 14.448 32.564003 L 16.743 32.564003 C 17.68 32.564003 18.441 33.326004 18.441 34.262 L 18.441 35.984 C 18.441 39.162003 21.026001 41.748 24.204 41.748 C 27.382 41.748 29.968 39.162003 29.968 35.984 L 29.968 34.812 L 25.927 34.812 C 25.731 34.812 25.549 34.708 25.45 34.538002 C 25.352001 34.369003 25.351 34.160004 25.449001 33.989002 L 32.335003 21.937002 C 32.433002 21.766003 32.615 21.660002 32.813004 21.660002 C 33.011005 21.660002 33.193005 21.766003 33.291004 21.937002 L 40.179005 33.989002 C 40.276005 34.159 40.276005 34.368004 40.177006 34.538002 C 40.078007 34.708 39.898006 34.812 39.701004 34.812 L 35.660004 34.812 L 35.660004 35.984 C 35.659 42.301 30.521 47.439 24.204 47.439 z " fill-opacity="0.12" stroke-opacity="0.12"/>
<linearGradient gradientTransform="matrix(1 0 0 -1 -117.4805 -31.0195)" gradientUnits="userSpaceOnUse" x1="143.9805" x2="143.9805" y1="-77.3584" y2="-52.6802">
<stop offset="0" stop-color="#d0cbc5"/>
<stop offset="0.5031" stop-color="#fafcef"/>
<stop offset="0.9693" stop-color="#ffffff"/>
<stop offset="1" stop-color="#ffffff"/>
</linearGradient>
<path d="M 32.813 21.661 L 25.927 33.712997 L 30.518 33.712997 L 30.518 35.434998 C 30.518 38.921997 27.691 41.747997 24.205 41.747997 C 20.719 41.747997 17.892 38.921997 17.892 35.434998 L 17.892 33.712997 C 17.892 33.081997 17.375 32.565 16.744 32.565 L 14.448999 32.565 C 13.818 32.565 13.301 33.081997 13.301 33.712997 L 13.301 35.434998 C 13.301 41.456997 18.182999 46.338997 24.205 46.338997 C 30.227001 46.338997 35.109 41.456997 35.109 35.434998 L 35.109 33.712997 L 39.7 33.712997 L 32.813 21.661 z " fill="#ffffff" fill-opacity="1"/>
<rect fill="none" height="68" width="51"/>
</svg>
