<?xml version="1.0" encoding="UTF-8"?>
<svg xmlns="http://www.w3.org/2000/svg" xmlns:xlink="http://www.w3.org/1999/xlink" baseProfile="tiny" contentScriptType="text/ecmascript" contentStyleType="text/css" height="30px" preserveAspectRatio="xMidYMid meet" version="1.1" viewBox="0 0 30 30" width="30px" x="0px" y="0px" zoomAndPan="magnify">
<path d="M 5.696 1.684 C 5.648 1.677 5.6 1.673 5.553 1.673 C 5.2 1.673 4.869 1.859 4.689 2.17 C 4.483 2.522 4.513 2.964 4.763 3.286 C 4.772 3.297 5.629 4.453 5.347 5.893 C 5.262 6.33 4.719 7.304 4.194 8.246 C 3.0219998 10.348001 1.4189997 13.227 1.3189998 15.978001 C 0.979 25.279 6.81 28.43 7.058 28.561 C 7.204 28.637001 7.362 28.673 7.518 28.673 C 7.795 28.673 8.068 28.557001 8.2630005 28.34 C 8.569 28.0 8.603001 27.494 8.35 27.114 C 8.332001 27.088001 8.217 26.908 8.082001 26.616001 C 6.996001 24.255001 7.7340007 21.844002 8.668001 18.79 C 9.397001 16.41 10.222001 13.714001 10.305001 10.492001 C 10.305 10.16 10.258 2.345 5.696 1.684 z M 28.0 4.0 L 26.0 4.0 L 26.0 2.0 C 26.0 0.89699996 25.104 0.0 24.0 0.0 C 22.896 0.0 22.0 0.897 22.0 2.0 L 22.0 4.0 L 20.0 4.0 C 18.896 4.0 18.0 4.897 18.0 6.0 C 18.0 7.103 18.896 8.0 20.0 8.0 L 22.0 8.0 L 22.0 10.0 C 22.0 10.79 22.464 11.469 23.131 11.793 C 23.02 12.147 22.705 12.753 22.365 13.402 C 21.52 15.017 20.362 17.229 20.289999 19.367 C 20.043 26.567001 24.335999 29.035 24.518 29.137001 C 24.668999 29.221 24.834 29.262001 24.998 29.262001 C 25.266998 29.262001 25.532 29.153002 25.727 28.947 C 26.040998 28.616001 26.088 28.11 25.845 27.723 C 25.828999 27.698 25.757 27.574999 25.671999 27.381 C 24.925999 25.651001 25.445 23.848 26.102 21.565 C 26.625 19.746 27.217999 17.684 27.279 15.229 C 27.281 15.128 27.328 12.745 26.497 10.818001 C 26.394 10.579 26.204 10.396001 25.972 10.2960005 C 25.984 10.199 26.0 10.102 26.0 10.0 L 26.0 8.0 L 28.0 8.0 C 29.104 8.0 30.0 7.103 30.0 6.0 C 30.0 4.897 29.104 4.0 28.0 4.0 z M 15.031 5.828 C 14.96 5.8120003 14.887 5.8050003 14.815001 5.8050003 C 14.454 5.8050003 14.119 6.0000005 13.942 6.3150005 C 13.651 6.8310003 13.925 7.285001 14.016001 7.4340005 C 14.177001 7.7000003 14.667001 8.51 14.482 9.452001 C 14.4140005 9.792001 13.956 10.598001 13.5130005 11.379001 C 12.499001 13.163001 11.113001 15.606001 11.027 17.961 C 10.732 25.892 15.806 28.585 16.022 28.696 C 16.165998 28.768 16.32 28.803999 16.473 28.803999 C 16.753 28.803999 17.029999 28.685999 17.225 28.463 C 17.528 28.120998 17.557001 27.612999 17.300001 27.236 C 17.282001 27.209 17.194 27.07 17.088001 26.841 C 16.187 24.914999 16.810001 22.914999 17.599 20.383999 C 18.227001 18.371998 18.938002 16.092 19.008001 13.399999 C 19.021 13.13 19.279 6.767 15.031 5.828 z " fill="#231f20" fill-opacity="0.15"/>
<rect fill="none" height="30" width="30"/>
<rect fill="none" height="30" width="30"/>
<rect fill="none" height="30" width="30"/>
<path d="M 14.816 5.805 C 14.742 5.789 15.781 7.028 15.462 8.646999 C 15.181 10.054999 12.145 13.730999 12.025 16.997 C 11.750999 24.382 16.477 26.805 16.477 26.805 C 16.477 26.805 16.338 26.608 16.182 26.266 C 14.320999 22.292 17.849998 18.383001 18.008 12.353001 C 18.01 12.353 18.289 6.572 14.816 5.805 z M 5.553 1.673 C 5.553 1.673 6.705 3.159 6.328 5.085 C 6.002 6.759 2.459 11.129 2.3179998 15.015 C 1.9969999 23.792 7.52 26.674 7.52 26.674 C 7.52 26.674 7.361 26.44 7.173 26.034 C 5.0 21.31 9.12 16.66 9.305 9.491 C 9.305 9.491 9.31 2.218 5.553 1.673 z M 24.12 10.988 C 23.756 12.343 21.387001 15.541 21.289001 18.402 C 21.060001 25.073 25.003002 27.262001 25.003002 27.262001 C 25.003002 27.262001 24.888002 27.086 24.754002 26.777 C 23.205002 23.184 26.145002 19.653 26.278002 14.205001 C 26.278002 14.205001 26.332003 11.962001 25.578001 10.214001 C 25.236 10.658 24.715 10.952 24.12 10.988 z M 28.0 4.0 L 25.0 4.0 L 25.0 1.0 C 25.0 0.448 24.553 0.0 24.0 0.0 C 23.447 0.0 23.0 0.448 23.0 1.0 L 23.0 4.0 L 20.0 4.0 C 19.447 4.0 19.0 4.448 19.0 5.0 C 19.0 5.552 19.447 6.0 20.0 6.0 L 23.0 6.0 L 23.0 9.0 C 23.0 9.552 23.447 10.0 24.0 10.0 C 24.553 10.0 25.0 9.552 25.0 9.0 L 25.0 6.0 L 28.0 6.0 C 28.553 6.0 29.0 5.552 29.0 5.0 C 29.0 4.448 28.553 4.0 28.0 4.0 z " fill-opacity="0.3"/>
<path d="M 14.816 6.805 C 14.742 6.789 15.781 8.028 15.462 9.646999 C 15.181 11.054999 12.145 14.730999 12.025 17.997 C 11.750999 25.382 16.477 27.805 16.477 27.805 C 16.477 27.805 16.338 27.608 16.182 27.266 C 14.320999 23.292 17.849998 19.383001 18.008 13.353001 C 18.01 13.353 18.289 7.572 14.816 6.805 z M 5.553 2.673 C 5.553 2.673 6.705 4.159 6.328 6.085 C 6.002 7.759 2.459 12.129 2.3179998 16.015 C 1.9969999 24.792 7.52 27.674 7.52 27.674 C 7.52 27.674 7.361 27.44 7.173 27.034 C 5.0 22.31 9.12 17.66 9.305 10.491 C 9.305 10.491 9.31 3.218 5.553 2.673 z M 24.12 11.988 C 23.756 13.343 21.387001 16.541 21.289001 19.402 C 21.060001 26.073 25.003002 28.262001 25.003002 28.262001 C 25.003002 28.262001 24.888002 28.086 24.754002 27.777 C 23.205002 24.184 26.145002 20.653 26.278002 15.205001 C 26.278002 15.205001 26.332003 12.962001 25.578001 11.214001 C 25.236 11.658 24.715 11.952 24.12 11.988 z M 28.0 5.0 L 25.0 5.0 L 25.0 2.0 C 25.0 1.448 24.553 1.0 24.0 1.0 C 23.447 1.0 23.0 1.448 23.0 2.0 L 23.0 5.0 L 20.0 5.0 C 19.447 5.0 19.0 5.448 19.0 6.0 C 19.0 6.552 19.447 7.0 20.0 7.0 L 23.0 7.0 L 23.0 10.0 C 23.0 10.552 23.447 11.0 24.0 11.0 C 24.553 11.0 25.0 10.552 25.0 10.0 L 25.0 7.0 L 28.0 7.0 C 28.553 7.0 29.0 6.552 29.0 6.0 C 29.0 5.448 28.553 5.0 28.0 5.0 z " fill="#dedede"/>
</svg>
