<?xml version="1.0" encoding="UTF-8"?>
<svg xmlns="http://www.w3.org/2000/svg" xmlns:xlink="http://www.w3.org/1999/xlink" baseProfile="tiny" contentScriptType="text/ecmascript" contentStyleType="text/css" height="30px" preserveAspectRatio="xMidYMid meet" version="1.1" viewBox="0 0 30 30" width="30px" x="0px" y="0px" zoomAndPan="magnify">
<rect fill="none" height="30" width="30"/>
<path color="#000000" d="M 8.778468 5.0 C 7.484468 5.000019 6.4993067 5.47966 5.817806 6.428571 C 5.136299 7.377519 4.803312 8.531762 4.803313 9.886128 C 4.8033113 11.611469 5.1785693 12.903738 5.942029 13.757765 C 6.705483 14.611812 7.6725287 15.020714 8.819876 15.020705 C 9.975839 15.020714 10.949785 14.604048 11.73913 13.737062 C 12.528459 12.870096 12.919244 11.635624 12.919254 10.031057 C 12.919244 8.383384 12.519831 7.133385 11.73913 6.283644 C 10.958411 5.433939 9.968938 5.000019 8.778468 5.0 z M 19.233952 5.0 L 8.861284 25.0 L 10.786749 25.0 L 21.138716 5.0 L 19.233952 5.0 z M 8.84058 6.614907 C 9.418559 6.614925 9.90165 6.864234 10.289855 7.360248 C 10.678046 7.856296 10.890262 8.702569 10.890269 9.927536 C 10.890263 11.256052 10.694437 12.180827 10.310559 12.68116 C 9.926667 13.181516 9.427185 13.426512 8.84058 13.426501 C 8.271217 13.426512 7.8002033 13.177203 7.412009 12.68116 C 7.023806 12.18514 6.832295 11.330241 6.8322983 10.113872 C 6.832295 8.776758 7.028119 7.86061 7.412009 7.360248 C 7.7958894 6.859921 8.26259 6.614925 8.84058 6.614907 z M 21.0559 14.958592 C 19.753262 14.958602 18.776726 15.442555 18.095238 16.387165 C 17.413715 17.331787 17.060026 18.481718 17.06004 19.844725 C 17.060028 21.561426 17.45599 22.85801 18.21946 23.716358 C 18.982904 24.574709 19.929243 25.000002 21.076605 25.000002 C 22.241182 25.0 23.227203 24.562632 24.016563 23.695654 C 24.805878 22.828678 25.196665 21.594208 25.196688 19.98965 C 25.196665 18.341969 24.797253 17.09197 24.016563 16.242239 C 23.235832 15.392524 22.246355 14.958605 21.0559 14.958595 z M 21.13872 16.573502 C 21.716688 16.57351 22.19978 16.82282 22.587996 17.318844 C 22.976175 17.814882 23.167686 18.661154 23.167707 19.886131 C 23.167688 21.214638 22.971865 22.139412 22.587996 22.639755 C 22.204094 23.1401 21.713238 23.385098 21.11802 23.385096 C 20.548643 23.385098 20.077633 23.1401 19.689447 22.639755 C 19.301231 22.139412 19.089018 21.2802 19.089031 20.072468 C 19.089018 18.735344 19.284842 17.819197 19.668743 17.318844 C 20.052612 16.818506 20.552095 16.57351 21.138723 16.573502 z " display="inline" fill="#dedede" fill-opacity="1" fill-rule="nonzero" stroke="none" stroke-width="1" visibility="visible"/>
</svg>
