<?xml version="1.0" encoding="UTF-8"?>
<svg xmlns="http://www.w3.org/2000/svg" xmlns:xlink="http://www.w3.org/1999/xlink" baseProfile="tiny" contentScriptType="text/ecmascript" contentStyleType="text/css" height="30px" preserveAspectRatio="xMidYMid meet" version="1.1" viewBox="0 0 30 30" width="30px" x="0px" y="0px" zoomAndPan="magnify">
<path d="M 7.189 29.0 C 7.027 29.0 6.862 28.98 6.701 28.941 C 4.5720005 28.433 3.0060003 27.363 2.0430002 25.758 C 0.3510002 22.939 1.2180002 19.521 1.2550002 19.376 C 2.0700002 15.016999 5.0550003 11.313 6.8380003 9.431 C 6.871 9.384 6.91 9.337 6.953 9.294 L 8.797 7.4489994 C 8.826 7.418999 8.859 7.3909993 8.891 7.365999 C 10.193 6.0489993 14.372 2.190999 19.446999 1.2409992 C 19.444998 1.2419993 19.444998 1.2419993 19.444998 1.2419993 C 19.436 1.242 20.384 1.0 21.656 1.0 C 23.87 1.0 27.76 1.7409999 28.941 6.702 C 29.254 8.0130005 28.281 8.923 27.656 9.254 C 27.618 9.275 27.579 9.292 27.538 9.307 L 23.277 10.899 C 22.91 11.082 22.535 11.173 22.164 11.173 L 22.164 11.173 C 21.352999 11.173 20.833 10.747001 20.631 10.543 C 20.631 10.543 18.559 8.825 18.550001 8.819 C 18.546001 8.816 18.391 8.715 18.029001 8.715 C 17.254002 8.715 15.486001 9.166 12.371001 12.188 C 12.357001 12.2 12.103002 12.451 12.103002 12.451 C 7.8790016 16.808 8.686002 18.512001 8.7490015 18.622 L 10.527001 20.612999 C 10.963001 21.029 11.517001 22.033998 10.900002 23.279 L 9.304002 27.542 C 9.289001 27.582 9.272002 27.619999 9.252002 27.657 C 9.18 27.794 8.506 29.0 7.189 29.0 L 7.189 29.0 z " fill-opacity="0.15"/>
<path d="M 27.969 5.943 C 26.421999 -0.54900026 19.630001 1.2339997 19.630001 1.2339997 C 14.766001 2.1439998 10.748001 5.902 9.512001 7.1709995 L 9.504 7.166 L 7.66 9.01 L 7.6689997 9.019 C 6.1099997 10.644 3.0349998 14.306 2.2229996 18.640999 C 2.2229996 18.640999 0.44399953 25.433998 6.9329996 26.979 C 7.8429995 27.196 8.368 26.201 8.368 26.201 L 9.982 21.888 C 10.497001 20.906 9.814 20.326 9.814 20.326 L 7.936 18.223 C 8.12 18.381 5.899 16.425999 11.398 10.754 L 11.398 10.752 L 11.671 10.479 L 11.672999 10.4800005 C 17.347 4.9790006 19.3 7.200001 19.141998 7.0200005 L 21.314 8.8220005 C 21.314 8.8220005 21.891998 9.507001 22.873999 8.992001 L 27.186998 7.3810005 C 27.188 7.379 28.186 6.851 27.969 5.943 z " fill-opacity="0.3"/>
<path d="M 27.969 6.934 C 26.421999 0.4419999 19.630001 2.225 19.630001 2.225 C 14.766001 3.135 10.748001 6.893 9.512001 8.162 L 9.504 8.156 L 7.66 10.001 L 7.6689997 10.01 C 6.1099997 11.635 3.0349998 15.297001 2.2229996 19.631 C 2.2229996 19.631 0.44399953 26.424 6.9329996 27.969002 C 7.8429995 28.186 8.368 27.192001 8.368 27.192001 L 9.982 22.877 C 10.497001 21.896 9.814 21.315 9.814 21.315 L 7.936 19.213001 C 8.12 19.372002 5.899 17.416 11.398 11.744001 L 11.398 11.742002 L 11.671 11.469002 L 11.672999 11.470002 C 17.347 5.9690022 19.3 8.190002 19.141998 8.010002 L 21.314 9.812002 C 21.314 9.812002 21.891998 10.497003 22.873999 9.982002 L 27.186998 8.371002 C 27.188 8.37 28.186 7.842 27.969 6.934 z " fill="#dedede"/>
<rect fill="none" height="30" width="30"/>
</svg>
