<?xml version="1.0" encoding="UTF-8"?>
<svg xmlns="http://www.w3.org/2000/svg" xmlns:xlink="http://www.w3.org/1999/xlink" baseProfile="tiny" contentScriptType="text/ecmascript" contentStyleType="text/css" height="30px" preserveAspectRatio="xMidYMid meet" version="1.1" viewBox="0 0 30 30" width="30px" x="0px" y="0px" zoomAndPan="magnify">
<path d="M 30.0 16.123 C 30.0 15.508999 29.762 14.932999 29.329 14.500999 L 29.0 14.172 L 29.0 7.0 C 29.0 6.447 28.553 6.0 28.0 6.0 L 2.0 6.0 C 1.447 6.0 1.0 6.447 1.0 7.0 L 1.0 24.0 C 1.0 25.104 1.896 26.0 3.0 26.0 L 12.83 26.0 L 12.085 28.239 C 11.934 28.689001 11.988 29.145 12.235 29.488 C 12.469 29.813 12.843 30.0 13.261 30.0 C 13.424 30.0 13.592999 29.972 13.759999 29.915 L 18.02 28.496 C 18.499 28.336 19.114 27.958 19.484001 27.592001 L 21.076 26.0 L 27.0 26.0 C 28.104 26.0 29.0 25.104 29.0 24.0 L 29.0 18.075 L 29.328 17.745 C 29.762 17.313 30.0 16.736 30.0 16.123 z " fill-opacity="0.15" stroke-opacity="0.15"/>
<rect fill="none" height="30" width="30"/>
<path d="M 28.0 6.0 L 2.0 6.0 L 15.0 16.0 L 28.0 6.0 z M 27.0 24.0 C 27.55 24.0 28.0 23.55 28.0 23.0 L 28.0 18.355999 L 22.357 24.0 L 27.0 24.0 z M 14.264 21.378 L 24.112999 11.530001 C 24.585999 11.058001 25.211998 10.801001 25.877998 10.801001 C 26.543999 10.801001 27.169998 11.059001 27.639997 11.527 L 28.0 11.888 L 28.0 7.893 L 15.0 17.893 L 2.0 7.8929996 L 2.0 23.0 C 2.0 23.55 2.45 24.0 3.0 24.0 L 12.953 24.0 L 13.313 22.916 C 13.486 22.402 13.886 21.758 14.264 21.378 z M 28.622 14.208 L 26.792 12.377 C 26.288 11.875 25.466 11.875 24.962 12.377 L 24.052 13.29 L 27.714 16.95 L 28.622002 16.037 C 29.126 15.534 29.126 14.711 28.622 14.208 z M 23.185 14.161 L 15.115 22.223999 C 14.863999 22.476 14.566 22.957998 14.453 23.293999 L 13.034 27.557 C 12.9210005 27.894 13.106 28.078999 13.444 27.966 L 17.705 26.546 C 18.043 26.434 18.523 26.135 18.777 25.883999 L 26.845001 17.821 L 23.185 14.161 z M 17.191 25.639 L 15.25 26.319 L 14.686 25.75 L 15.365 23.809 L 15.745999 23.425 L 17.574 25.257 L 17.191 25.639 z " fill-opacity="0.3" stroke-opacity="0.3"/>
<path d="M 28.0 7.0 L 2.0 7.0 L 15.0 17.0 L 28.0 7.0 z M 27.0 25.0 C 27.55 25.0 28.0 24.55 28.0 24.0 L 28.0 19.355999 L 22.357 25.0 L 27.0 25.0 z M 14.264 22.378 L 24.112999 12.530001 C 24.585999 12.058001 25.211998 11.801001 25.877998 11.801001 C 26.543999 11.801001 27.169998 12.059001 27.639997 12.527 L 28.0 12.888 L 28.0 8.893 L 15.0 18.893 L 2.0 8.893 L 2.0 24.0 C 2.0 24.55 2.45 25.0 3.0 25.0 L 12.953 25.0 L 13.313 23.916 C 13.486 23.402 13.886 22.758 14.264 22.378 z M 28.622 15.208 L 26.792 13.377 C 26.288 12.875 25.466 12.875 24.962 13.377 L 24.052 14.29 L 27.714 17.95 L 28.622002 17.037 C 29.126 16.534 29.126 15.711 28.622 15.208 z M 23.185 15.161 L 15.115 23.223999 C 14.863999 23.476 14.566 23.957998 14.453 24.293999 L 13.034 28.557 C 12.9210005 28.894 13.106 29.078999 13.444 28.966 L 17.705 27.546 C 18.043 27.434 18.523 27.135 18.777 26.883999 L 26.845001 18.821 L 23.185 15.161 z M 17.191 26.639 L 15.25 27.319 L 14.686 26.75 L 15.365 24.809 L 15.745999 24.425 L 17.574 26.257 L 17.191 26.639 z " fill="#dedede"/>
</svg>
