<?xml version="1.0" encoding="UTF-8"?>
<svg xmlns="http://www.w3.org/2000/svg" xmlns:xlink="http://www.w3.org/1999/xlink" baseProfile="tiny" contentScriptType="text/ecmascript" contentStyleType="text/css" height="30px" preserveAspectRatio="xMidYMid meet" version="1.1" viewBox="0 0 30 30" width="30px" x="0px" y="0px" zoomAndPan="magnify">
<path d="M 10.372 25.0 C 9.819 25.0 9.372 24.553 9.372 24.0 L 9.372 21.897 C 9.372 21.344 9.818999 20.897 10.372 20.897 L 12.285999 20.897 L 12.285999 10.316999 L 10.292999 10.740999 C 10.223999 10.756 10.153999 10.761999 10.084999 10.761999 C 9.857999 10.761999 9.635999 10.684999 9.455999 10.539 C 9.221 10.349 9.084999 10.063 9.084999 9.761999 L 9.084999 7.66 C 9.084999 7.225 9.364999 6.8409996 9.778999 6.7079997 L 14.796999 5.0959997 C 14.895999 5.0649996 14.998999 5.048 15.102999 5.048 L 17.228998 5.048 C 17.781998 5.048 18.228998 5.495 18.228998 6.048 L 18.228998 20.898 L 19.915998 20.898 C 20.468998 20.898 20.915998 21.345001 20.915998 21.898 L 20.915998 24.0 C 20.915998 24.553 20.468998 25.0 19.915998 25.0 L 10.372 25.0 z " fill-opacity="0.15" stroke-opacity="0.15"/>
<path d="M 19.915 22.952 L 10.372001 22.952 L 10.372001 20.85 L 13.286001 20.85 L 13.286001 8.034 L 10.085001 8.715 L 10.085001 6.612 L 15.103 5.0 L 17.229 5.0 L 17.229 20.85 L 19.916 20.85 L 19.916 22.952 z " fill-opacity="0.3" stroke-opacity="0.3"/>
<path d="M 19.915 24.0 L 10.372001 24.0 L 10.372001 21.897 L 13.286001 21.897 L 13.286001 9.082 L 10.085001 9.763 L 10.085001 7.66 L 15.103001 6.048 L 17.229 6.048 L 17.229 21.898 L 19.916 21.898 L 19.916 24.0 z " fill="#dedede"/>
<rect fill="none" height="30" width="30"/>
</svg>
