<?xml version="1.0" encoding="UTF-8"?>
<svg xmlns="http://www.w3.org/2000/svg" xmlns:xlink="http://www.w3.org/1999/xlink" baseProfile="tiny" contentScriptType="text/ecmascript" contentStyleType="text/css" height="30px" preserveAspectRatio="xMidYMid meet" version="1.1" viewBox="0 0 30 30" width="30px" x="0px" y="0px" zoomAndPan="magnify">
<rect fill="none" height="30" width="30"/>
<path d="M 22.0 30.0 C 19.773 30.0 17.757 29.086 16.305 27.612999 C 16.118 27.854 15.828 28.0 15.516 28.0 L 5.0 28.0 C 3.346 28.0 2.0 26.654 2.0 25.0 L 2.0 5.0 C 2.0 3.346 3.346 2.0 5.0 2.0 L 25.0 2.0 C 26.654 2.0 28.0 3.346 28.0 5.0 L 28.0 15.516 C 28.0 15.8289995 27.854 16.119 27.613 16.305 C 29.086 17.757 30.0 19.773 30.0 22.0 C 30.0 26.411 26.411 30.0 22.0 30.0 L 22.0 30.0 z M 8.0 20.0 C 6.896 20.0 6.0 20.896 6.0 22.0 C 6.0 23.104 6.896 24.0 8.0 24.0 C 9.103 24.0 10.0 23.104 10.0 22.0 C 10.0 20.896 9.103 20.0 8.0 20.0 L 8.0 20.0 z M 6.334 12.667 C 6.149 12.667 6.0 12.816 6.0 13.0 L 6.0 14.333 C 6.0 14.517 6.149 14.666 6.334 14.666 L 7.105 14.666 C 10.174 14.666 13.064 16.542 14.455999 19.335001 C 14.737999 18.538 15.143 17.800001 15.648 17.141 C 15.526999 17.073 15.419 16.979 15.335 16.865002 C 13.54 14.420002 10.788 12.903002 7.7860003 12.703001 C 7.736 12.700001 7.6450005 12.683001 7.5750003 12.667001 L 6.334 12.667 L 6.334 12.667 z M 7.281 8.022 C 11.865 8.09 16.25 10.359 19.047 14.122 C 19.131 14.235 19.19 14.363999 19.221 14.498 C 19.914001 14.24 20.653 14.076 21.42 14.021 C 18.46 9.263 13.404 6.287 7.822 6.04 C 7.785 6.038 7.748 6.034 7.711 6.028 C 7.686 6.024 7.627 6.011 7.58 6.0 L 6.334 6.0 C 6.149 6.0 6.0 6.149 6.0 6.333 L 6.0 7.6660004 C 6.0 7.851 6.149 8.0 6.334 8.0 L 7.0680003 8.0 C 7.142 8.0 7.213 8.008 7.281 8.022 L 7.281 8.022 z " fill-opacity="0.15"/>
<path d="M 13.922 19.641 C 12.938 16.809 10.193 14.667001 7.106 14.667001 L 6.334 14.667001 C 5.596 14.667 5.0 14.07 5.0 13.334 L 5.0 12.0 C 5.0 11.264 5.596 10.667 6.334 10.667 L 7.6660004 10.667 C 7.7320004 10.667 7.7910004 10.696 7.8540006 10.705 C 11.257001 10.931 14.240001 12.682 16.143 15.273 C 16.753 14.648 17.463 14.124 18.246 13.717999 C 15.692 10.282 11.616 8.0199995 7.0700006 8.0199995 L 7.0700006 8.0 L 6.334 8.0 C 5.596 8.0 5.0 7.403 5.0 6.667 L 5.0 5.334 C 5.0 4.598 5.596 4.0 6.334 4.0 L 7.6660004 4.0 C 7.7380004 4.0 7.7990003 4.03 7.8670006 4.041 C 14.088001 4.317 19.476002 7.778 22.471 12.823999 C 24.17 12.921 25.731 13.535 27.0 14.514999 L 27.0 4.0 C 27.0 2.896 26.104 2.0 25.0 2.0 L 5.0 2.0 C 3.896 2.0 3.0 2.896 3.0 4.0 L 3.0 24.0 C 3.0 25.105 3.896 26.0 5.0 26.0 L 15.516 26.0 C 14.445 24.615 13.8 22.883 13.8 21.0 C 13.8 20.537 13.848 20.084 13.922 19.641 z M 8.0 24.0 C 6.3450003 24.0 5.0 22.657 5.0 21.0 C 5.0 19.344 6.3450003 18.0 8.0 18.0 C 9.655 18.0 11.0 19.344 11.0 21.0 C 11.0 22.657 9.655 24.0 8.0 24.0 z M 22.001 14.0 L 22.001 14.0 C 20.081999 14.0 18.344 14.773 17.078999 16.023 C 17.069998 16.033 17.06 16.041 17.050999 16.049 C 16.998 16.103 16.950998 16.16 16.901 16.215 C 15.724999 17.467001 15.001999 19.146 15.001999 20.996 C 15.001999 20.996 15.001999 20.996 15.001999 20.998001 L 15.001999 20.998001 C 15.001999 24.864 18.137 27.998001 22.001999 27.998001 L 22.002998 27.998001 C 24.583998 27.998001 26.831999 26.599 28.044998 24.519001 C 28.648 23.484 29.0 22.285 29.0 21.0 L 29.0 21.0 C 29.0 20.998 29.0 20.998 29.0 20.998 C 29.0 17.135 25.867 14.0 22.001 14.0 z M 20.469 23.449 C 20.332 23.72 20.031 23.824 20.059 24.321999 C 20.102 25.123 19.457 25.06 19.309 25.602999 C 19.213 25.956 19.106 26.221998 19.046 26.360998 C 18.609 26.120998 18.21 25.823997 17.848 25.487999 C 17.893 24.914 17.734999 23.859 17.546 23.73 C 16.945 23.321999 16.969 23.441 16.916 21.842 C 16.887001 20.955 18.391 21.206999 18.713001 21.56 C 19.024002 21.897999 18.973001 22.387999 19.873001 22.767 C 20.13 22.873 20.604 23.178 20.469 23.449 z M 19.98 16.51 C 19.661999 16.625 19.536 16.604 19.316 16.459 C 19.007 16.253 18.337 16.800999 18.752 16.994 C 18.893002 17.06 19.147001 17.081999 19.551 17.220999 C 20.192001 17.442 20.378 17.824 20.007 17.923998 C 18.149 18.425999 19.018 19.006998 18.315 19.710999 C 17.954 20.074 17.977001 20.218998 17.721 20.304998 C 17.408 20.408998 17.358 19.951998 17.061 19.939999 C 16.969002 19.935999 16.28 19.951998 15.973001 19.954998 C 16.436 17.271997 18.645 15.182999 21.387001 14.907998 C 21.432001 14.931998 21.461 14.966998 21.45 15.021998 C 21.387 15.341 20.302 16.396 19.98 16.51 z M 27.6 21.163 C 27.213001 21.093 26.961 20.085001 26.543001 20.4 C 25.846 20.925999 27.613 21.802 27.613 22.08 C 27.613 22.358 27.240002 22.764 27.078001 22.893 C 26.836 23.088 26.880001 23.838 26.880001 23.838 C 26.880001 24.365 26.526001 24.995998 26.344002 25.237999 C 26.161001 25.48 25.369001 26.380999 24.908 25.825998 C 24.564001 25.409998 24.853 24.557999 24.753 23.645998 C 24.717001 23.319998 24.779 22.389997 23.379 22.219997 C 22.137 22.071997 22.242 21.163998 22.324 20.704998 C 22.435 20.071999 22.505999 19.698997 23.039 19.566998 C 23.34 19.493998 24.237999 19.378998 24.865 19.626997 C 25.159 19.742996 25.633 19.693996 25.704 19.305998 C 25.781 18.889997 25.503 18.864998 24.833 18.673998 C 24.227 18.503998 23.658 19.014997 23.166 19.012999 C 22.947 19.012999 22.958 18.825998 22.961 18.569998 C 22.965 18.309998 23.914 17.643997 24.014 17.567997 C 24.205 17.421997 24.766 17.479998 24.78 17.479998 C 25.399 17.499998 25.262001 17.079998 24.844 17.059998 C 24.112 17.022997 24.164 16.637997 24.156 16.522997 C 24.146 16.407997 24.261 16.112997 24.827 16.098997 C 24.956999 16.094997 25.355 16.077997 25.646 16.087997 C 27.124 17.190998 28.09 18.934998 28.121 20.907997 C 28.01 21.057 27.824 21.205 27.6 21.163 z " fill-opacity="0.3"/>
<path d="M 13.922 20.641 C 12.938 17.809 10.193 15.667001 7.106 15.667001 L 6.334 15.667001 C 5.596 15.667 5.0 15.07 5.0 14.333 L 5.0 13.0 C 5.0 12.264 5.596 11.667 6.334 11.667 L 7.6660004 11.667 C 7.7320004 11.667 7.7910004 11.696 7.8540006 11.705 C 11.257001 11.931 14.240001 13.682 16.143 16.272999 C 16.753 15.647999 17.463 15.123999 18.246 14.7179985 C 15.692 11.281999 11.616 9.019999 7.0700006 9.019999 L 7.0700006 9.0 L 6.334 9.0 C 5.596 9.0 5.0 8.403 5.0 7.667 L 5.0 6.333 C 5.0 5.598 5.596 5.0 6.334 5.0 L 7.6660004 5.0 C 7.7380004 5.0 7.7990003 5.03 7.8670006 5.041 C 14.088001 5.317 19.476002 8.778 22.471 13.823999 C 24.17 13.921 25.731 14.535 27.0 15.514999 L 27.0 5.0 C 27.0 3.896 26.104 3.0 25.0 3.0 L 5.0 3.0 C 3.896 3.0 3.0 3.896 3.0 5.0 L 3.0 25.0 C 3.0 26.104 3.896 27.0 5.0 27.0 L 15.516 27.0 C 14.445 25.614 13.8 23.883 13.8 22.0 C 13.8 21.536 13.848 21.084 13.922 20.641 z M 8.0 25.0 C 6.3450003 25.0 5.0 23.656 5.0 22.0 C 5.0 20.344 6.3450003 19.0 8.0 19.0 C 9.655 19.0 11.0 20.344 11.0 22.0 C 11.0 23.656 9.655 25.0 8.0 25.0 z M 22.001 15.0 L 22.001 15.0 C 20.081999 15.0 18.344 15.773 17.078999 17.023 C 17.069998 17.033 17.06 17.041 17.050999 17.048 C 16.998 17.101 16.950998 17.159 16.901 17.214 C 15.724999 18.466002 15.001999 20.146 15.001999 21.996 C 15.001999 21.996 15.001999 21.996 15.001999 21.997 L 15.001999 22.0 C 15.001999 25.865 18.137 29.0 22.001999 29.0 L 22.002998 29.0 C 24.583998 29.0 26.831999 27.6 28.044998 25.52 C 28.648 24.484 29.0 23.284 29.0 22.0 L 29.0 21.999 C 29.0 21.998001 29.0 21.998001 29.0 21.998001 C 29.0 18.134 25.867 15.0 22.001 15.0 z M 20.469 24.448 C 20.332 24.72 20.031 24.823 20.059 25.322 C 20.102 26.122 19.457 26.058 19.309 26.603 C 19.213 26.955 19.106 27.220001 19.046 27.361 C 18.609 27.12 18.21 26.824 17.848 26.488 C 17.893 25.914001 17.734999 24.859001 17.546 24.730001 C 16.945 24.322002 16.969 24.441002 16.916 22.842001 C 16.887001 21.955002 18.391 22.207 18.713001 22.560001 C 19.024002 22.898 18.973001 23.388 19.873001 23.767002 C 20.13 23.873 20.604 24.177 20.469 24.448 z M 19.98 17.509 C 19.661999 17.624 19.536 17.604 19.316 17.458 C 19.007 17.252 18.337 17.801 18.752 17.994 C 18.893002 18.057999 19.147001 18.081 19.551 18.220999 C 20.192001 18.442 20.378 18.824 20.007 18.922998 C 18.149 19.425999 19.018 20.005999 18.315 20.710999 C 17.954 21.074 17.977001 21.218998 17.721 21.304998 C 17.408 21.408998 17.358 20.950998 17.061 20.939999 C 16.969002 20.933998 16.28 20.950998 15.973001 20.954998 C 16.436 18.271997 18.645 16.182999 21.387001 15.907998 C 21.432001 15.931998 21.461 15.966998 21.45 16.021997 C 21.387 16.34 20.302 17.395 19.98 17.509 z M 27.6 22.162 C 27.213001 22.092001 26.961 21.084002 26.543001 21.398 C 25.846 21.925001 27.613 22.801 27.613 23.08 C 27.613 23.355 27.240002 23.764 27.078001 23.893 C 26.836 24.088 26.880001 24.838 26.880001 24.838 C 26.880001 25.363998 26.526001 25.995998 26.344002 26.236 C 26.161001 26.48 25.369001 27.381 24.908 26.825 C 24.564001 26.41 24.853 25.558 24.753 24.646 C 24.717001 24.32 24.779 23.39 23.379 23.22 C 22.137 23.071999 22.242 22.163 22.324 21.705 C 22.435 21.072 22.505999 20.698 23.039 20.567 C 23.34 20.494 24.237999 20.379 24.865 20.626 C 25.159 20.741999 25.633 20.694 25.704 20.306 C 25.781 19.89 25.503 19.864 24.833 19.674 C 24.227 19.504 23.658 20.013 23.166 20.013 C 22.947 20.013 22.958 19.826 22.961 19.568 C 22.965 19.310001 23.914 18.642 24.014 18.568 C 24.205 18.422 24.766 18.480001 24.78 18.480001 C 25.399 18.500002 25.262001 18.080002 24.844 18.058 C 24.112 18.023 24.164 17.638 24.156 17.523 C 24.146 17.407001 24.261 17.111 24.827 17.097 C 24.956999 17.095 25.355 17.077 25.646 17.088 C 27.124 18.189 28.09 19.935 28.121 21.907999 C 28.01 22.057 27.824 22.204 27.6 22.162 z " fill="#dedede"/>
</svg>
