<?xml version="1.0" encoding="UTF-8"?>
<svg xmlns="http://www.w3.org/2000/svg" xmlns:xlink="http://www.w3.org/1999/xlink" baseProfile="tiny" contentScriptType="text/ecmascript" contentStyleType="text/css" height="30px" preserveAspectRatio="xMidYMid meet" version="1.1" viewBox="0 0 30 30" width="30px" x="0px" y="0px" zoomAndPan="magnify">
<path d="M 27.0 11.0 L 26.967 11.0 L 27.858 9.515 C 27.953 9.356 28.0 9.178 28.0 9.0 C 28.0 8.83 27.957 8.66 27.87 8.507 C 27.693 8.193 27.36 8.0 27.0 8.0 L 25.931 8.0 C 25.436 4.06 22.072 1.0 18.0 1.0 C 17.447 1.0 17.0 1.447 17.0 2.0 L 15.304 2.0 C 14.841 2.0 14.434 2.186 14.174 2.505 C 13.914 2.186 13.506 2.0 13.043 2.0 L 6.955 2.0 C 6.492 2.0 6.086 2.186 5.825 2.505 C 5.565 2.186 5.157 2.0 4.694 2.0 L 3.0 2.0 C 1.896 2.0 1.0 2.897 1.0 4.0 L 1.0 17.0 C 1.0 18.104 1.896 19.0 3.0 19.0 L 11.0 19.0 L 11.0 26.0 C 11.0 27.104 11.896 28.0 13.0 28.0 L 27.0 28.0 C 28.104 28.0 29.0 27.104 29.0 26.0 L 29.0 13.0 C 29.0 11.897 28.104 11.0 27.0 11.0 z M 20.143 9.515 L 21.033 11.0 L 19.0 11.0 L 19.0 5.142 C 20.395 5.508 21.494 6.602 21.857 8.0 L 21.0 8.0 C 20.64 8.0 20.307 8.193 20.13 8.507 C 20.043 8.66 20.0 8.83 20.0 9.0 C 20.0 9.178 20.047 9.356 20.143 9.515 z " fill-opacity="0.15" stroke-opacity="0.15"/>
<rect fill="none" height="30" width="30"/>
<path d="M 4.782 4.144 C 4.4 4.144 4.252 3.871 4.455 3.539 L 5.021 2.606 C 5.13 2.4259999 5.13 2.269 5.054 2.157 L 2.0 5.211 L 2.0 7.333 L 5.189 4.144 L 4.782 4.144 z M 3.0 2.0 C 2.447 2.0 2.0 2.448 2.0 3.0 L 2.0 3.09 L 3.09 2.0 L 3.0 2.0 z M 9.454 2.0 L 2.0 9.454 L 2.0 11.576 L 11.575 2.0 L 9.454 2.0 z M 23.0 8.0 L 21.0 8.0 L 24.0 13.0 L 27.0 8.0 L 25.0 8.0 C 25.0 4.1400003 21.859 1.0 18.0 1.0 L 18.0 3.0 C 20.757 3.0 23.0 5.243 23.0 8.0 z M 15.066 2.752 L 15.818 2.0 L 15.3029995 2.0 C 14.921 2.0 14.773 2.273 14.978 2.606 L 15.066 2.752 z M 6.666 2.666 L 7.333 2.0 L 6.955 2.0 C 6.572 2.0 6.427 2.273 6.63 2.606 L 6.666 2.666 z M 13.13 4.144 C 12.747 4.144 12.6 3.871 12.803 3.539 L 13.369 2.606 C 13.449 2.475 13.461 2.358 13.439 2.2589998 L 2.0 13.697 L 2.0 15.818 L 13.675 4.144 L 13.13 4.144 z M 9.303 17.0 L 11.0 15.303 L 11.0 13.182 L 7.182 17.0 L 9.303 17.0 z M 27.0 11.0 L 26.366 11.0 L 25.491999 12.456 L 25.543 12.5390005 C 25.747 12.871 25.599998 13.144001 25.217 13.144001 L 25.08 13.144001 L 24.857 13.515001 C 24.677 13.815 24.352 14.0 24.0 14.0 C 23.648 14.0 23.323 13.815 23.143 13.515 L 22.892 13.097 C 22.774 13.042 22.72 12.938 22.721 12.812 L 21.634 11.0 L 16.955002 11.0 C 16.572002 11.0 16.427002 11.273 16.630001 11.606 L 17.195002 12.539 C 17.398 12.870999 17.252 13.143999 16.869001 13.143999 L 14.7820015 13.143999 C 14.400002 13.143999 14.252002 12.870999 14.455002 12.539 L 15.021002 11.606 C 15.225 11.273 15.077 11.0 14.694 11.0 L 13.0 11.0 C 12.4470005 11.0 12.0 11.448 12.0 12.0 L 12.0 25.0 C 12.0 25.553 12.447 26.0 13.0 26.0 L 27.0 26.0 C 27.553 26.0 28.0 25.553 28.0 25.0 L 28.0 12.0 C 28.0 11.448 27.553 11.0 27.0 11.0 z M 19.792 23.0 C 19.792 23.11 19.702 23.2 19.592 23.2 L 14.577999 23.2 C 14.467999 23.2 14.377999 23.11 14.377999 23.0 L 14.377999 21.922 C 14.377999 21.812 14.467999 21.722 14.577999 21.722 L 15.955999 21.722 L 15.955999 16.603 L 14.622 16.907001 C 14.606999 16.911001 14.592999 16.913002 14.578 16.913002 C 14.533 16.913002 14.489 16.897001 14.453 16.868002 C 14.406 16.831001 14.378 16.773003 14.378 16.712002 L 14.378 15.775002 C 14.378 15.688002 14.435 15.610002 14.519 15.584002 L 17.003 14.810001 L 18.0 14.8 C 18.11 14.8 18.2 14.89 18.2 15.0 L 18.2 21.722 L 19.592001 21.722 C 19.702002 21.722 19.792002 21.812 19.792002 21.922 L 19.792002 23.0 z M 26.2 23.0 C 26.2 23.11 26.11 23.2 26.0 23.2 L 20.986 23.2 C 20.876 23.2 20.786 23.11 20.786 23.0 L 20.786 22.307 C 20.786 20.613998 21.882 19.553 22.907999 18.692 C 23.553 18.151 23.942999 17.779999 23.942999 17.185999 C 23.942999 16.56 23.598 16.242998 22.918 16.242998 C 22.498999 16.242998 21.963999 16.363998 21.328 16.601997 C 21.306 16.611998 21.280998 16.615997 21.258 16.615997 C 21.217999 16.615997 21.178 16.603998 21.144 16.580997 C 21.089998 16.542997 21.057999 16.480997 21.057999 16.415997 L 21.057999 15.341996 C 21.057999 15.251996 21.117998 15.173996 21.203999 15.149996 C 22.024998 14.918996 22.765 14.801996 23.401 14.801996 C 25.112 14.801996 26.133 15.668996 26.133 17.120996 C 26.133 18.356997 25.483 19.002996 24.49 19.845997 C 23.621 20.579996 23.052 21.089996 22.9 21.749996 L 26.0 21.749996 C 26.11 21.749996 26.2 21.839996 26.2 21.949997 L 26.2 23.0 z M 15.812 10.492 L 18.0 8.304 L 18.0 6.182 L 14.182 10.0 L 14.695 10.0 C 15.15 10.0 15.551 10.182 15.812 10.492 z M 18.0 4.0 C 17.447 4.0 17.0 3.552 17.0 3.0 L 17.0 2.939 L 2.949 16.989 C 2.967 16.99 2.982 17.0 3.0 17.0 L 5.061 17.0 L 18.0 4.061 L 18.0 4.0 z M 2.932 16.985 C 2.6759999 16.966002 2.4459999 16.858 2.2789998 16.685001 C 2.445 16.861 2.676 16.967 2.932 16.985 z M 2.949 16.99 L 2.949 16.99 C 2.9429998 16.989 2.938 16.986 2.931 16.985 C 2.938 16.986 2.943 16.989 2.949 16.99 z " fill-opacity="0.3" stroke-opacity="0.3"/>
<path d="M 4.782 5.144 C 4.4 5.144 4.252 4.8710003 4.455 4.539 L 5.021 3.606 C 5.13 3.4259999 5.13 3.269 5.054 3.157 L 2.0 6.211 L 2.0 8.333 L 5.189 5.144 L 4.782 5.144 z M 3.0 3.0 C 2.447 3.0 2.0 3.448 2.0 4.0 L 2.0 4.09 L 3.09 3.0 L 3.0 3.0 z M 9.454 3.0 L 2.0 10.454 L 2.0 12.576 L 11.575 3.0 L 9.454 3.0 z M 23.0 9.0 L 21.0 9.0 L 24.0 14.0 L 27.0 9.0 L 25.0 9.0 C 25.0 5.1400003 21.859 2.0 18.0 2.0 L 18.0 4.0 C 20.757 4.0 23.0 6.243 23.0 9.0 z M 15.066 3.752 L 15.818 3.0 L 15.3029995 3.0 C 14.921 3.0 14.773 3.273 14.978 3.606 L 15.066 3.752 z M 6.666 3.666 L 7.333 3.0 L 6.955 3.0 C 6.572 3.0 6.427 3.273 6.63 3.606 L 6.666 3.666 z M 13.13 5.144 C 12.747 5.144 12.6 4.8710003 12.803 4.539 L 13.369 3.606 C 13.449 3.475 13.461 3.358 13.439 3.2589998 L 2.0 14.697 L 2.0 16.819 L 13.675 5.144 L 13.13 5.144 z M 9.303 18.0 L 11.0 16.303 L 11.0 14.181999 L 7.182 18.0 L 9.303 18.0 z M 27.0 12.0 L 26.366 12.0 L 25.491999 13.456 L 25.543 13.5390005 C 25.747 13.871 25.599998 14.144001 25.217 14.144001 L 25.08 14.144001 L 24.857 14.515001 C 24.677 14.815 24.352 15.0 24.0 15.0 C 23.648 15.0 23.323 14.815 23.143 14.515 L 22.892 14.097 C 22.774 14.042 22.72 13.938 22.721 13.812 L 21.634 12.0 L 16.955002 12.0 C 16.572002 12.0 16.427002 12.273 16.630001 12.606 L 17.195002 13.539 C 17.398 13.870999 17.252 14.143999 16.869001 14.143999 L 14.7820015 14.143999 C 14.400002 14.143999 14.252002 13.870999 14.455002 13.539 L 15.021002 12.606 C 15.225 12.273 15.077 12.0 14.694 12.0 L 13.0 12.0 C 12.4470005 12.0 12.0 12.448 12.0 13.0 L 12.0 26.0 C 12.0 26.553 12.447 27.0 13.0 27.0 L 27.0 27.0 C 27.553 27.0 28.0 26.553 28.0 26.0 L 28.0 13.0 C 28.0 12.448 27.553 12.0 27.0 12.0 z M 19.792 24.0 C 19.792 24.11 19.702 24.2 19.592 24.2 L 14.577999 24.2 C 14.467999 24.2 14.377999 24.11 14.377999 24.0 L 14.377999 22.922 C 14.377999 22.812 14.467999 22.722 14.577999 22.722 L 15.955999 22.722 L 15.955999 17.603 L 14.622 17.907001 C 14.606999 17.911001 14.592999 17.913002 14.578 17.913002 C 14.533 17.913002 14.489 17.897001 14.453 17.868002 C 14.406 17.831001 14.378 17.773003 14.378 17.712002 L 14.378 16.774002 C 14.378 16.687002 14.435 16.610003 14.519 16.584002 L 17.003 15.810001 L 18.0 15.8 C 18.11 15.8 18.2 15.89 18.2 16.0 L 18.2 22.722 L 19.592001 22.722 C 19.702002 22.722 19.792002 22.812 19.792002 22.922 L 19.792002 24.0 z M 26.2 24.0 C 26.2 24.11 26.11 24.2 26.0 24.2 L 20.986 24.2 C 20.876 24.2 20.786 24.11 20.786 24.0 L 20.786 23.307 C 20.786 21.613998 21.882 20.553 22.907999 19.692 C 23.553 19.151 23.942999 18.779999 23.942999 18.185999 C 23.942999 17.56 23.598 17.242998 22.918 17.242998 C 22.498999 17.242998 21.963999 17.363998 21.328 17.601997 C 21.306 17.611998 21.280998 17.615997 21.258 17.615997 C 21.217999 17.615997 21.178 17.603998 21.144 17.580997 C 21.089998 17.542997 21.057999 17.480997 21.057999 17.415997 L 21.057999 16.341997 C 21.057999 16.251997 21.117998 16.172997 21.203999 16.149998 C 22.024998 15.918998 22.765 15.801998 23.401 15.801998 C 25.112 15.801998 26.133 16.669998 26.133 18.120998 C 26.133 19.356998 25.483 20.002998 24.49 20.845999 C 23.621 21.579998 23.052 22.089998 22.9 22.749998 L 26.0 22.749998 C 26.11 22.749998 26.2 22.839998 26.2 22.949999 L 26.2 24.0 z M 15.812 11.492 L 18.0 9.304 L 18.0 7.182 L 14.182 11.0 L 14.695 11.0 C 15.15 11.0 15.551 11.182 15.812 11.492 z M 18.0 5.0 C 17.447 5.0 17.0 4.552 17.0 4.0 L 17.0 3.939 L 2.949 17.989 C 2.967 17.99 2.982 18.0 3.0 18.0 L 5.061 18.0 L 18.0 5.061 L 18.0 5.0 z M 2.932 17.985 C 2.6759999 17.966002 2.4459999 17.858 2.2789998 17.685001 C 2.445 17.861 2.676 17.967 2.932 17.985 z M 2.949 17.99 L 2.949 17.99 C 2.9429998 17.989 2.938 17.986 2.931 17.985 C 2.938 17.986 2.943 17.989 2.949 17.99 z " fill="#dedede"/>
</svg>
