<?xml version="1.0" encoding="UTF-8"?>
<svg xmlns="http://www.w3.org/2000/svg" xmlns:xlink="http://www.w3.org/1999/xlink" baseProfile="tiny" contentScriptType="text/ecmascript" contentStyleType="text/css" height="57px" preserveAspectRatio="xMidYMid meet" version="1.1" viewBox="0 0 67 57" width="67px" x="0px" y="0px" zoomAndPan="magnify">
<path d="M 44.0 6.0 L 32.0 24.0 L 39.0 24.0 L 39.0 36.0 C 39.0 37.1 39.9 38.0 41.0 38.0 L 47.0 38.0 C 48.1 38.0 49.0 37.1 49.0 36.0 L 49.0 24.0 L 56.0 24.0 L 44.0 6.0 z M 27.0 24.0 C 27.0 22.9 26.1 22.0 25.0 22.0 L 19.0 22.0 C 17.9 22.0 17.0 22.9 17.0 24.0 L 17.0 36.0 L 10.0 36.0 L 22.0 54.0 L 34.0 36.0 L 27.0 36.0 L 27.0 24.0 z " fill="#dedede" fill-opacity="1" stroke-opacity="0.29999999999999999"/>
<defs>
<linearGradient gradientUnits="userSpaceOnUse" x1="33.0005" x2="33.0005" xlink:actuate="onLoad" xlink:show="other" xlink:type="simple" y1="53" y2="5.0005">
<stop offset="0" stop-color="#d0cbc5"/>
<stop offset="0.5031" stop-color="#fafcef"/>
<stop offset="0.9693" stop-color="#ffffff"/>
<stop offset="1" stop-color="#ffffff"/>
</linearGradient>
</defs>
</svg>
