<?xml version="1.0" encoding="UTF-8"?>
<svg xmlns="http://www.w3.org/2000/svg" xmlns:xlink="http://www.w3.org/1999/xlink" baseProfile="tiny" contentScriptType="text/ecmascript" contentStyleType="text/css" height="30px" preserveAspectRatio="xMidYMid meet" version="1.1" viewBox="0 0 30 30" width="30px" x="0px" y="0px" zoomAndPan="magnify">
<path d="M 29.016 18.886 C 28.67 18.323 28.063 18.0 27.353 18.0 C 27.007 18.0 26.739 18.074 26.665 18.098 C 26.624 18.109999 26.583 18.125 26.544 18.143 L 23.371 19.591 C 22.389 19.927 21.969 20.754 21.977001 21.438 L 21.789001 23.458 C 21.759 23.529 21.178001 24.739 16.828001 24.808 C 16.828001 24.808 16.558 24.808 16.548 24.808 C 12.257 24.742 11.626 23.568 11.579 23.468 L 11.468 21.460001 C 11.487 20.774 11.068001 19.933 10.076 19.59 L 8.525001 18.885 L 9.059001 17.460001 C 9.518001 16.517 9.218001 15.624001 8.721001 15.153001 L 7.3830004 13.657001 C 7.3340006 13.524 6.9870005 12.244 9.933001 9.204 C 9.933001 9.204 10.126 9.015 10.1380005 9.003 C 12.563001 6.651 13.876 6.3980002 14.328001 6.3980002 C 14.505001 6.3980002 14.592001 6.4350004 14.596001 6.4350004 C 14.6 6.4370003 16.176 7.7460003 16.176 7.7460003 C 16.207 7.7760005 16.257 7.8160005 16.302 7.853 L 12.485001 10.144 C 12.185 10.324 12.0 10.649 12.0 11.0 C 12.0 11.351 12.185 11.677 12.485 11.857 L 17.485 14.857 C 17.644 14.954 17.822 15.0 18.0 15.0 C 18.17 15.0 18.34 14.957 18.493 14.87 C 18.807 14.694 19.0 14.361 19.0 14.0 L 19.0 13.143 C 20.72 13.589999 22.0 15.143 22.0 17.0 C 22.0 17.553 22.447 18.0 23.0 18.0 L 25.0 18.0 C 25.553 18.0 26.0 17.553 26.0 17.0 C 26.0 12.9279995 22.939 9.564 19.0 9.069 L 19.0 8.0 C 19.0 7.952 18.988 7.907 18.981 7.861 L 21.725 6.837 C 21.766 6.822 21.805 6.804 21.843 6.783 C 22.382 6.498 23.223 5.709 22.948 4.5620003 C 22.258 1.664 20.133 0.0 17.119 0.0 C 16.118 0.0 15.388 0.184 15.377 0.189 C 11.416 0.931 8.160999 3.9299998 7.141 4.96 C 7.115 4.983 7.09 5.005 7.066 5.03 L 5.647 6.448 C 5.61 6.485 5.576 6.525 5.547 6.566 C 4.156 8.036 1.8369999 10.922 1.204 14.309 C 1.175 14.424 0.48399997 17.144001 1.836 19.397 C 2.258 20.098999 2.834 20.663 3.536 21.105 C 3.394 21.851 3.414 22.593 3.598 23.327 C 4.236 25.876 6.6470003 27.310999 6.69 27.333 C 9.59 29.318 13.27 29.720001 15.292999 29.776001 C 15.344999 29.784 15.396999 29.788 15.449999 29.788 L 17.456 29.788 C 17.49 29.788 17.649 29.783 17.649 29.783 C 19.311 29.783 23.525 29.544 26.694 27.371 C 26.797 27.311 29.209 25.878 29.846 23.331001 C 30.211 21.871 29.932 20.375 29.016 18.886 z M 16.507 22.871 C 16.66 22.958 16.83 23.0 17.0 23.0 C 17.178 23.0 17.356 22.953 17.515 22.857 L 22.515 19.857 C 22.815 19.677 23.0 19.352 23.0 19.0 C 23.0 18.648 22.815 18.323 22.515 18.143 L 17.515 15.143 C 17.356 15.047 17.178 15.0 17.0 15.0 C 16.83 15.0 16.66 15.043 16.507 15.13 C 16.193 15.307 16.0 15.64 16.0 16.0 L 16.0 16.858 C 14.279 16.41 13.0 14.857 13.0 13.0 C 13.0 12.4470005 12.553 12.0 12.0 12.0 L 10.0 12.0 C 9.4470005 12.0 9.0 12.447 9.0 13.0 C 9.0 17.072 12.061 20.436 16.0 20.931 L 16.0 22.0 C 16.0 22.361 16.193 22.694 16.507 22.871 z " fill-opacity="0.15"/>
<rect fill="none" height="30" width="30" y="0"/>
<path d="M 18.0 7.0 L 13.0 10.0 L 18.0 13.0 L 18.0 11.0 C 20.757 11.0 23.0 13.243 23.0 16.0 L 25.0 16.0 C 25.0 12.141 21.859 9.0 18.0 9.0 L 18.0 7.0 z M 22.0 18.0 L 17.0 15.0 L 17.0 17.0 C 14.243 17.0 12.0 14.757 12.0 12.0 L 10.0 12.0 C 10.0 15.859 13.141 19.0 17.0 19.0 L 17.0 21.0 L 22.0 18.0 z M 28.164 18.41 C 27.788 17.798 26.958 18.053999 26.958 18.053999 L 23.734001 19.525 C 22.921001 19.778 22.978 20.466 22.978 20.466 L 22.777 22.626 C 22.765001 22.439999 22.911001 24.713 16.834 24.806 L 16.833 24.808 L 16.534 24.810001 L 16.532 24.808 C 10.457 24.714 10.601 22.441 10.587 22.628 L 10.467 20.464 C 10.467 20.464 10.523 19.778 9.71 19.523 L 8.174 18.824001 L 7.835 19.730001 C 7.831 19.74 7.825 19.75 7.82 19.76 L 9.2960005 20.432001 C 9.333 20.448002 9.370001 20.463001 9.409 20.475 L 9.47 20.382 C 9.467 20.428 9.466001 20.473 9.469 20.519 L 9.589 22.682 C 9.592999 22.764 9.608 22.842 9.63 22.915998 C 9.848001 23.845 10.974 25.708998 16.465 25.805998 C 16.488 25.806997 16.838 25.806997 16.838 25.806997 C 22.448 25.718998 23.543999 23.819998 23.741999 22.886997 C 23.756998 22.831997 23.766998 22.775997 23.772999 22.716997 C 23.772999 22.716997 23.975998 20.521997 23.977 20.503998 C 24.029999 20.483997 24.118 20.446999 24.149 20.433998 L 27.28 19.004997 C 27.299 19.002 27.353 19.0 27.353 19.0 C 27.954 20.002 28.134 20.934 27.906 21.844 C 27.477 23.557 25.704 24.633 25.686 24.644 C 22.856 26.578999 19.124 26.782999 17.649002 26.782999 L 17.457003 26.782 C 17.420002 26.782 17.384003 26.784 17.349003 26.788 L 15.58 26.788 C 15.544 26.783 15.507 26.78 15.47 26.779 C 14.0460005 26.748999 10.452 26.484999 7.8190002 24.682 C 7.7450004 24.634998 5.9620004 23.557 5.5360003 21.83 C 5.4620004 21.529 5.4500003 21.223999 5.466 20.917 C 5.118 20.829 4.79 20.722 4.482 20.596 C 4.125 23.668001 7.255 25.507 7.255 25.507 C 10.054 27.422 13.718 27.742 15.449 27.778 L 15.450001 27.787 L 17.456001 27.787 L 17.457 27.781 C 18.820002 27.799 23.050001 27.657 26.19 25.507 C 26.189 25.507 30.854 22.784 28.164 18.41 z M 6.898 19.377 L 8.141 16.058 C 8.535 15.302001 8.01 14.858001 8.01 14.858001 L 6.565 13.242001 C 6.708 13.364 4.999 11.859 9.228001 7.4970007 L 9.228001 7.495 L 9.44 7.284 L 9.441999 7.285 C 13.804999 3.054 15.309 4.7629995 15.186999 4.6239996 L 16.855999 6.0099998 C 16.855999 6.0099998 17.301998 6.536 18.056 6.141 L 21.375 4.902 C 21.375 4.902 22.143 4.496 21.976 3.797 C 20.786 -1.197 15.561 0.17400002 15.561 0.17400002 C 11.82 0.874 8.729 3.764 7.778 4.74 L 7.773 4.737 L 6.354 6.155 L 6.36 6.162 C 5.162 7.413 2.7970002 10.229 2.172 13.563 C 2.172 13.563 0.8039999 18.788 5.7939997 19.977 C 6.494 20.143 6.898 19.377 6.898 19.377 z " fill-opacity="0.3"/>
<path d="M 18.0 8.0 L 13.0 11.0 L 18.0 14.0 L 18.0 12.0 C 20.757 12.0 23.0 14.243 23.0 17.0 L 25.0 17.0 C 25.0 13.141 21.859 10.0 18.0 10.0 L 18.0 8.0 z M 22.0 19.0 L 17.0 16.0 L 17.0 18.0 C 14.243 18.0 12.0 15.757 12.0 13.0 L 10.0 13.0 C 10.0 16.859 13.141 20.0 17.0 20.0 L 17.0 22.0 L 22.0 19.0 z M 28.164 19.41 C 27.788 18.798 26.958 19.053999 26.958 19.053999 L 23.734001 20.525 C 22.921001 20.778 22.978 21.466 22.978 21.466 L 22.777 23.626 C 22.765001 23.439999 22.911001 25.713 16.834 25.806 L 16.833 25.808 L 16.534 25.810001 L 16.532 25.808 C 10.457 25.714 10.601 23.441 10.587 23.628 L 10.467 21.464 C 10.467 21.464 10.523 20.778 9.71 20.523 L 8.174 19.824001 L 7.835 20.730001 C 7.831 20.74 7.825 20.75 7.82 20.76 L 9.2960005 21.432001 C 9.333 21.448002 9.370001 21.463001 9.409 21.475 L 9.47 21.382 C 9.467 21.428 9.466001 21.473 9.469 21.519 L 9.589 23.682 C 9.592999 23.764 9.608 23.842 9.63 23.915998 C 9.848001 24.845 10.974 26.708998 16.465 26.805998 C 16.488 26.806997 16.838 26.806997 16.838 26.806997 C 22.448 26.718998 23.543999 24.819998 23.741999 23.886997 C 23.756998 23.831997 23.766998 23.775997 23.772999 23.716997 C 23.772999 23.716997 23.975998 21.521997 23.977 21.503998 C 24.029999 21.483997 24.118 21.446999 24.149 21.433998 L 27.28 20.004997 C 27.299 20.002 27.353 20.0 27.353 20.0 C 27.954 21.002 28.134 21.934 27.906 22.844 C 27.477 24.557 25.704 25.633 25.686 25.644 C 22.856 27.578999 19.124 27.782999 17.649002 27.782999 L 17.457003 27.782 C 17.420002 27.782 17.384003 27.784 17.349003 27.788 L 15.58 27.788 C 15.544 27.783 15.507 27.78 15.47 27.779 C 14.0460005 27.748999 10.452 27.484999 7.8190002 25.682 C 7.7450004 25.634998 5.9620004 24.557 5.5360003 22.83 C 5.4620004 22.529 5.4500003 22.223999 5.466 21.917 C 5.118 21.829 4.79 21.722 4.482 21.596 C 4.125 24.668001 7.255 26.507 7.255 26.507 C 10.054 28.422 13.718 28.742 15.449 28.778 L 15.450001 28.787 L 17.456001 28.787 L 17.457 28.781 C 18.820002 28.799 23.050001 28.657 26.19 26.507 C 26.189 26.507 30.854 23.784 28.164 19.41 z M 6.898 20.377 L 8.141 17.058 C 8.535 16.302 8.01 15.858001 8.01 15.858001 L 6.565 14.242001 C 6.708 14.364 4.999 12.859 9.228001 8.497001 L 9.228001 8.495 L 9.44 8.284 L 9.441999 8.285001 C 13.804999 4.054001 15.309 5.7630005 15.186999 5.6240005 L 16.855999 7.0100007 C 16.855999 7.0100007 17.301998 7.5360007 18.056 7.1410007 L 21.375 5.902001 C 21.375 5.902001 22.143 5.496001 21.976 4.797001 C 20.786 -0.19699907 15.561 1.174001 15.561 1.174001 C 11.82 1.874 8.729 4.764 7.778 5.74 L 7.773 5.737 L 6.354 7.155 L 6.36 7.162 C 5.162 8.413 2.7970002 11.229 2.172 14.563 C 2.172 14.563 0.8039999 19.788 5.7939997 20.977 C 6.494 21.143 6.898 20.377 6.898 20.377 z " fill="#dedede"/>
</svg>
