<?xml version="1.0" encoding="UTF-8"?>
<svg xmlns="http://www.w3.org/2000/svg" xmlns:xlink="http://www.w3.org/1999/xlink" baseProfile="tiny" contentScriptType="text/ecmascript" contentStyleType="text/css" height="60px" preserveAspectRatio="xMidYMid meet" version="1.1" viewBox="0 0 58 60" width="58px" x="0px" y="0px" zoomAndPan="magnify">
<rect fill="none" height="60" width="58"/>
<defs>
<linearGradient gradientTransform="matrix(1 0 0 -1 -262.4805 -326.0195)" gradientUnits="userSpaceOnUse" x1="292.1582" x2="292.1582" xlink:actuate="onLoad" xlink:show="other" xlink:type="simple" y1="-392.7314" y2="-286.604">
<stop offset="0" stop-color="#d0cbc5"/>
<stop offset="0.5031" stop-color="#fafcef"/>
<stop offset="0.9693" stop-color="#ffffff"/>
<stop offset="1" stop-color="#ffffff"/>
</linearGradient>
</defs>
<path color="#000000" d="M 31.567583 6.2795267 C 26.752432 6.279573 22.904476 8.022984 20.061066 11.509762 C 16.80254 15.515495 15.17951 21.916302 15.179512 30.737104 C 15.17951 38.623978 16.66556 44.287987 19.61276 47.722916 C 22.559944 51.157852 26.349789 52.853527 31.019651 52.853527 C 33.75928 52.853523 36.23326 52.218426 38.391792 50.91087 C 40.550274 49.603313 42.237648 47.7416 43.47259 45.282143 C 44.70748 42.822697 45.315594 40.126637 45.315628 37.262447 C 45.3156 32.90394 44.00596 29.352776 41.380497 26.60273 C 38.75498 23.852734 35.552498 22.468382 31.81664 22.468351 C 29.678867 22.468382 27.640738 22.9665 25.689793 23.962706 C 23.73882 24.95897 22.107489 26.49068 20.758429 28.54539 C 20.799929 23.97934 21.335407 20.45516 22.352406 17.985294 C 23.369385 15.515496 24.722605 13.643408 26.486782 12.3565645 C 27.835836 11.360371 29.433962 10.862253 31.2189 10.862211 C 33.43965 10.862253 35.282684 11.655089 36.797817 13.253176 C 37.71101 14.249448 38.44158 15.8849325 38.939724 18.084915 L 44.51864 17.636612 C 44.062 14.087559 42.67765 11.281498 40.384266 9.268232 C 38.090824 7.255052 35.15816 6.279573 31.567583 6.2795267 z M 30.720783 27.449528 C 33.273617 27.449554 35.365707 28.323332 37.04688 30.139362 C 38.728 31.955437 39.587257 34.4564 39.58728 37.61113 C 39.587257 40.89041 38.748756 43.472317 37.04688 45.38176 C 35.34495 47.291218 33.28607 48.270847 30.920033 48.270844 C 29.301134 48.270847 27.76112 47.799713 26.28754 46.876114 C 24.813929 45.95253 23.670334 44.605537 22.850529 42.84136 C 22.030697 41.07721 21.605225 39.242474 21.605232 37.312256 C 21.605225 34.36508 22.48108 31.955437 24.245256 30.139362 C 26.009409 28.323332 28.188671 27.449553 30.720783 27.449528 z " display="inline" fill="#dedede" fill-opacity="1" fill-rule="nonzero" stroke="none" stroke-width="2" visibility="visible"/>
</svg>
