<?xml version="1.0" encoding="UTF-8"?>
<svg xmlns="http://www.w3.org/2000/svg" xmlns:xlink="http://www.w3.org/1999/xlink" baseProfile="tiny" contentScriptType="text/ecmascript" contentStyleType="text/css" height="30px" preserveAspectRatio="xMidYMid meet" version="1.1" viewBox="0 0 30 30" width="30px" x="0px" y="0px" zoomAndPan="magnify">
<g>
<rect fill="none" height="30" width="30"/>
</g>
<g>
<g>
<path d="M 27.0 4.999 L 3.0 4.999 C 2.45 4.999 2.0 5.4500003 2.0 5.999 L 2.0 23.001 C 2.0 23.55 2.45 24.001 3.0 24.001 L 27.0 24.001 C 27.55 24.001 28.0 23.55 28.0 23.001 L 28.0 5.999 C 28.0 5.45 27.55 4.999 27.0 4.999 z M 12.457 20.608 C 10.882 21.02 9.797 21.01 9.062 20.995 C 8.328 21.011 7.242 21.02 5.6660004 20.608 C 5.022 20.44 4.469 20.218 4.0 19.948 L 4.013 19.878 C 4.128 19.413 4.684 19.134 4.684 19.134 C 5.508 18.646 6.329 18.323 6.329 18.323 C 7.227 17.96 7.373 17.21 7.4 17.101 C 7.472 16.812 7.537 16.508999 7.434 16.412 C 6.922 15.965001 6.722 14.902 6.722 14.902 C 6.711 14.873 6.701 14.843 6.6930003 14.814 C 6.4360003 15.058001 6.3700004 14.287 6.28 14.009 C 6.132 13.526999 6.168 13.415 6.168 13.415 C 6.148 13.054 6.4100003 13.179 6.4100003 13.179 L 6.431 13.206 C 6.242 12.696 6.181 12.423 6.195 12.054001 C 6.216 11.359001 5.9690003 11.033001 6.638 9.949001 C 6.638 9.949001 6.738 9.773002 6.964 9.763001 C 7.189 9.753001 7.11 9.634002 7.189 9.486001 C 7.269 9.336001 7.327 9.168001 7.736 9.218001 C 8.15 9.267 8.328 8.753 9.568 9.157 C 10.814 9.563 11.113 9.618 11.33 9.948 C 12.031 11.012 11.864 11.264 11.86 11.962 C 11.86 12.411 11.716 12.716 11.677 13.216 L 11.698 13.193 C 11.698 13.193 11.968 13.088 11.924 13.445 C 11.924 13.445 11.878 13.677 11.771 14.031 C 11.667 14.365 11.539 15.095 11.289 14.783 C 11.273999 14.822 11.261999 14.861 11.247999 14.902 C 11.247999 14.902 11.046999 15.965 10.534999 16.412 C 10.433999 16.51 10.497999 16.812 10.568999 17.101 C 10.593999 17.195 10.849999 17.82 11.356999 18.167 C 11.447 18.226 11.547999 18.278 11.662 18.323 C 11.662 18.323 12.483 18.645 13.309 19.134 C 13.309 19.134 13.863 19.413 13.976 19.878 L 14.0 20.003 C 13.562 20.249 13.054 20.452 12.457 20.608 z M 25.0 20.001 L 17.0 20.001 C 16.447 20.001 16.0 19.554 16.0 19.001 C 16.0 18.448 16.447 18.001 17.0 18.001 L 25.0 18.001 C 25.553 18.001 26.0 18.448 26.0 19.001 C 26.0 19.554 25.553 20.001 25.0 20.001 z M 25.0 16.001 L 17.0 16.001 C 16.447 16.001 16.0 15.554 16.0 15.000999 C 16.0 14.447999 16.447 14.000999 17.0 14.000999 L 25.0 14.000999 C 25.553 14.000999 26.0 14.447999 26.0 15.000999 C 26.0 15.554 25.553 16.001 25.0 16.001 z M 25.0 12.001 L 17.0 12.001 C 16.447 12.001 16.0 11.554001 16.0 11.001 C 16.0 10.448 16.447 10.001 17.0 10.001 L 25.0 10.001 C 25.553 10.001 26.0 10.448 26.0 11.001 C 26.0 11.554001 25.553 12.001 25.0 12.001 z " fill-opacity="0.3" stroke-opacity="0.3"/>
<path d="M 3.0 26.001 C 1.897 26.001 1.0 25.104 1.0 24.001 L 1.0 6.999 C 1.0 5.896 1.897 4.999 3.0 4.999 L 27.0 4.999 C 28.103 4.999 29.0 5.896 29.0 6.999 L 29.0 24.001 C 29.0 25.104002 28.103 26.001 27.0 26.001 L 3.0 26.001 z " fill-opacity="0.15" stroke-opacity="0.15"/>
<path d="M 27.0 5.999 L 3.0 5.999 C 2.45 5.999 2.0 6.4500003 2.0 6.999 L 2.0 24.001 C 2.0 24.55 2.45 25.001 3.0 25.001 L 27.0 25.001 C 27.55 25.001 28.0 24.55 28.0 24.001 L 28.0 6.999 C 28.0 6.45 27.55 5.999 27.0 5.999 z M 12.457 21.608 C 10.882 22.02 9.797 22.01 9.062 21.995 C 8.328 22.011 7.242 22.02 5.6660004 21.608 C 5.022 21.44 4.469 21.218 4.0 20.948 L 4.013 20.878 C 4.128 20.413 4.684 20.134 4.684 20.134 C 5.508 19.646 6.329 19.323 6.329 19.323 C 7.227 18.96 7.373 18.21 7.4 18.101 C 7.472 17.812 7.537 17.509 7.434 17.412 C 6.922 16.965 6.722 15.902 6.722 15.902 C 6.711 15.873 6.701 15.843 6.6930003 15.814 C 6.4360003 16.058 6.3700004 15.287 6.28 15.009 C 6.132 14.526999 6.168 14.415 6.168 14.415 C 6.148 14.054 6.4100003 14.179 6.4100003 14.179 L 6.431 14.206 C 6.242 13.696 6.181 13.423 6.195 13.054001 C 6.216 12.359001 5.9690003 12.033001 6.638 10.949001 C 6.638 10.949001 6.738 10.773002 6.964 10.763001 C 7.189 10.753001 7.11 10.634002 7.189 10.486001 C 7.269 10.336001 7.327 10.168001 7.736 10.218001 C 8.15 10.267001 8.328 9.753001 9.568 10.1570015 C 10.814 10.563002 11.113 10.618002 11.33 10.948002 C 12.031 12.012002 11.864 12.264002 11.86 12.962002 C 11.86 13.411002 11.716 13.7160015 11.677 14.2160015 L 11.698 14.193002 C 11.698 14.193002 11.968 14.088002 11.924 14.445002 C 11.924 14.445002 11.878 14.677002 11.771 15.031002 C 11.667 15.365002 11.539 16.095001 11.289 15.783002 C 11.273999 15.822001 11.261999 15.861002 11.247999 15.902002 C 11.247999 15.902002 11.046999 16.965002 10.534999 17.412004 C 10.433999 17.510002 10.497999 17.812002 10.568999 18.101002 C 10.593999 18.195002 10.849999 18.820002 11.356999 19.167002 C 11.447 19.226002 11.547999 19.278002 11.662 19.323002 C 11.662 19.323002 12.483 19.645002 13.309 20.134005 C 13.309 20.134005 13.863 20.413002 13.976 20.878002 L 14.0 21.003 C 13.562 21.249 13.054 21.452 12.457 21.608 z M 25.0 21.001 L 17.0 21.001 C 16.447 21.001 16.0 20.554 16.0 20.001 C 16.0 19.448 16.447 19.001 17.0 19.001 L 25.0 19.001 C 25.553 19.001 26.0 19.448 26.0 20.001 C 26.0 20.554 25.553 21.001 25.0 21.001 z M 25.0 17.001 L 17.0 17.001 C 16.447 17.001 16.0 16.553999 16.0 16.001 C 16.0 15.448 16.447 15.000999 17.0 15.000999 L 25.0 15.000999 C 25.553 15.000999 26.0 15.447999 26.0 16.001 C 26.0 16.554 25.553 17.001 25.0 17.001 z M 25.0 13.001 L 17.0 13.001 C 16.447 13.001 16.0 12.554001 16.0 12.001 C 16.0 11.448 16.447 11.001 17.0 11.001 L 25.0 11.001 C 25.553 11.001 26.0 11.448 26.0 12.001 C 26.0 12.554001 25.553 13.001 25.0 13.001 z " fill-opacity="0.15" stroke-opacity="0.15"/>
<path d="M 27.0 5.999 L 3.0 5.999 C 2.45 5.999 2.0 6.4500003 2.0 6.999 L 2.0 24.001 C 2.0 24.55 2.45 25.001 3.0 25.001 L 27.0 25.001 C 27.55 25.001 28.0 24.55 28.0 24.001 L 28.0 6.999 C 28.0 6.45 27.55 5.999 27.0 5.999 z M 12.457 21.608 C 10.882 22.02 9.797 22.01 9.062 21.995 C 8.328 22.011 7.242 22.02 5.6660004 21.608 C 5.022 21.44 4.469 21.218 4.0 20.948 L 4.013 20.878 C 4.128 20.413 4.684 20.134 4.684 20.134 C 5.508 19.646 6.329 19.323 6.329 19.323 C 7.227 18.96 7.373 18.21 7.4 18.101 C 7.472 17.812 7.537 17.509 7.434 17.412 C 6.922 16.965 6.722 15.902 6.722 15.902 C 6.711 15.873 6.701 15.843 6.6930003 15.814 C 6.4360003 16.058 6.3700004 15.287 6.28 15.009 C 6.132 14.526999 6.168 14.415 6.168 14.415 C 6.148 14.054 6.4100003 14.179 6.4100003 14.179 L 6.431 14.206 C 6.242 13.696 6.181 13.423 6.195 13.054001 C 6.216 12.359001 5.9690003 12.033001 6.638 10.949001 C 6.638 10.949001 6.738 10.773002 6.964 10.763001 C 7.189 10.753001 7.11 10.634002 7.189 10.486001 C 7.269 10.336001 7.327 10.168001 7.736 10.218001 C 8.15 10.267001 8.328 9.753001 9.568 10.1570015 C 10.814 10.563002 11.113 10.618002 11.33 10.948002 C 12.031 12.012002 11.864 12.264002 11.86 12.962002 C 11.86 13.411002 11.716 13.7160015 11.677 14.2160015 L 11.698 14.193002 C 11.698 14.193002 11.968 14.088002 11.924 14.445002 C 11.924 14.445002 11.878 14.677002 11.771 15.031002 C 11.667 15.365002 11.539 16.095001 11.289 15.783002 C 11.273999 15.822001 11.261999 15.861002 11.247999 15.902002 C 11.247999 15.902002 11.046999 16.965002 10.534999 17.412004 C 10.433999 17.510002 10.497999 17.812002 10.568999 18.101002 C 10.593999 18.195002 10.849999 18.820002 11.356999 19.167002 C 11.447 19.226002 11.547999 19.278002 11.662 19.323002 C 11.662 19.323002 12.483 19.645002 13.309 20.134005 C 13.309 20.134005 13.863 20.413002 13.976 20.878002 L 14.0 21.003 C 13.562 21.249 13.054 21.452 12.457 21.608 z M 25.0 21.001 L 17.0 21.001 C 16.447 21.001 16.0 20.554 16.0 20.001 C 16.0 19.448 16.447 19.001 17.0 19.001 L 25.0 19.001 C 25.553 19.001 26.0 19.448 26.0 20.001 C 26.0 20.554 25.553 21.001 25.0 21.001 z M 25.0 17.001 L 17.0 17.001 C 16.447 17.001 16.0 16.553999 16.0 16.001 C 16.0 15.448 16.447 15.000999 17.0 15.000999 L 25.0 15.000999 C 25.553 15.000999 26.0 15.447999 26.0 16.001 C 26.0 16.554 25.553 17.001 25.0 17.001 z M 25.0 13.001 L 17.0 13.001 C 16.447 13.001 16.0 12.554001 16.0 12.001 C 16.0 11.448 16.447 11.001 17.0 11.001 L 25.0 11.001 C 25.553 11.001 26.0 11.448 26.0 12.001 C 26.0 12.554001 25.553 13.001 25.0 13.001 z " fill="#dedede"/>
<rect fill="none" height="30.002" width="30" y="-0.001"/>
</g>
</g>
</svg>
