<?xml version="1.0" encoding="UTF-8"?>
<svg xmlns="http://www.w3.org/2000/svg" xmlns:xlink="http://www.w3.org/1999/xlink" baseProfile="tiny" contentScriptType="text/ecmascript" contentStyleType="text/css" height="30px" preserveAspectRatio="xMidYMid meet" version="1.1" viewBox="0 0 30 30" width="30px" x="0px" y="0px" zoomAndPan="magnify">
<path d="M 27.0 6.0 L 9.0 6.0 C 9.0 5.45 8.55 5.0 8.0 5.0 L 5.0 5.0 C 4.45 5.0 4.0 5.45 4.0 6.0 L 3.0 6.0 C 2.45 6.0 2.0 6.45 2.0 7.0 L 2.0 23.0 C 2.0 23.55 2.45 24.0 3.0 24.0 L 27.0 24.0 C 27.55 24.0 28.0 23.55 28.0 23.0 L 28.0 7.0 C 28.0 6.45 27.55 6.0 27.0 6.0 z M 6.5 10.0 C 5.947 10.0 5.5 9.553 5.5 9.0 C 5.5 8.447 5.947 8.0 6.5 8.0 C 7.053 8.0 7.5 8.447 7.5 9.0 C 7.5 9.553 7.053 10.0 6.5 10.0 z M 15.0 21.75 C 11.272 21.75 8.25 18.728 8.25 15.0 C 8.25 11.271999 11.272 8.25 15.0 8.25 C 18.728 8.25 21.75 11.272 21.75 15.0 C 21.75 18.728 18.728 21.75 15.0 21.75 z M 26.0 9.0 L 22.0 9.0 L 22.0 7.5 L 26.0 7.5 L 26.0 9.0 z M 15.0 9.5 C 11.968 9.5 9.5 11.968 9.5 15.0 C 9.5 18.032 11.968 20.5 15.0 20.5 C 18.032 20.5 20.5 18.032 20.5 15.0 C 20.5 11.968 18.032 9.5 15.0 9.5 z M 15.0 18.5 C 13.07 18.5 11.5 16.93 11.5 15.0 C 11.5 13.07 13.07 11.5 15.0 11.5 C 16.93 11.5 18.5 13.07 18.5 15.0 C 18.5 16.93 16.93 18.5 15.0 18.5 z " fill-opacity="0.3" stroke-opacity="0.3"/>
<path d="M 3.0 26.0 C 1.897 26.0 1.0 25.104 1.0 24.0 L 1.0 8.0 C 1.0 6.897 1.8970001 6.0 3.0 6.0 L 3.269 6.0 C 3.614 5.403 4.261 5.0 5.0 5.0 L 8.0 5.0 C 8.739 5.0 9.386 5.403 9.731 6.0 L 27.0 6.0 C 28.103 6.0 29.0 6.897 29.0 8.0 L 29.0 24.0 C 29.0 25.104 28.103 26.0 27.0 26.0 L 3.0 26.0 z " fill-opacity="0.15" stroke-opacity="0.15"/>
<path d="M 27.0 7.0 L 9.0 7.0 C 9.0 6.45 8.55 6.0 8.0 6.0 L 5.0 6.0 C 4.45 6.0 4.0 6.45 4.0 7.0 L 3.0 7.0 C 2.45 7.0 2.0 7.45 2.0 8.0 L 2.0 24.0 C 2.0 24.55 2.45 25.0 3.0 25.0 L 27.0 25.0 C 27.55 25.0 28.0 24.55 28.0 24.0 L 28.0 8.0 C 28.0 7.45 27.55 7.0 27.0 7.0 z M 6.5 11.0 C 5.947 11.0 5.5 10.553 5.5 10.0 C 5.5 9.447 5.947 9.0 6.5 9.0 C 7.053 9.0 7.5 9.447 7.5 10.0 C 7.5 10.553 7.053 11.0 6.5 11.0 z M 15.0 22.75 C 11.272 22.75 8.25 19.728 8.25 16.0 C 8.25 12.271999 11.272 9.25 15.0 9.25 C 18.728 9.25 21.75 12.272 21.75 16.0 C 21.75 19.728 18.728 22.75 15.0 22.75 z M 26.0 10.0 L 22.0 10.0 L 22.0 8.5 L 26.0 8.5 L 26.0 10.0 z M 15.0 10.5 C 11.968 10.5 9.5 12.968 9.5 16.0 C 9.5 19.032 11.968 21.5 15.0 21.5 C 18.032 21.5 20.5 19.032 20.5 16.0 C 20.5 12.968 18.032 10.5 15.0 10.5 z M 15.0 19.5 C 13.07 19.5 11.5 17.93 11.5 16.0 C 11.5 14.07 13.07 12.5 15.0 12.5 C 16.93 12.5 18.5 14.07 18.5 16.0 C 18.5 17.93 16.93 19.5 15.0 19.5 z " fill="#dedede"/>
<rect fill="none" height="30" width="30"/>
</svg>
