<?xml version="1.0" encoding="UTF-8"?>
<svg xmlns="http://www.w3.org/2000/svg" xmlns:xlink="http://www.w3.org/1999/xlink" baseProfile="tiny" contentScriptType="text/ecmascript" contentStyleType="text/css" height="30px" preserveAspectRatio="xMidYMid meet" version="1.1" viewBox="0 0 30 30" width="30px" x="0px" y="0px" zoomAndPan="magnify">
<path d="M 22.0 26.0 C 21.657 26.0 21.317 25.911 21.019 25.742 L 5.995 16.729 C 5.391 16.39 5.0 15.722 5.0 15.0 C 5.0 14.278 5.391 13.61 6.02 13.257 L 20.996 4.2720003 C 21.317 4.089 21.657 4.0 22.0 4.0 C 22.354 4.0 22.704 4.095 23.01 4.273 C 23.621 4.632 24.0 5.293 24.0 6.0 L 24.0 24.0 C 24.0 24.707 23.621 25.368 23.011 25.726 C 22.709 25.904 22.358 26.0 22.0 26.0 L 22.0 26.0 z " fill-opacity="0.15" stroke-opacity="0.15"/>
<path d="M 22.0 24.0 C 22.174 24.0 22.35 23.955 22.505 23.863 C 22.812 23.684 23.0 23.355 23.0 23.0 L 23.0 5.0 C 23.0 4.645 22.812 4.316 22.505 4.137 C 22.35 4.046 22.174 4.0 22.0 4.0 C 21.831 4.0 21.662 4.043 21.51 4.129 L 6.51 13.129 C 6.195 13.306 6.0 13.639 6.0 14.0 C 6.0 14.361 6.195 14.694 6.51 14.871 L 21.51 23.871 C 21.662 23.957 21.831 24.0 22.0 24.0 L 22.0 24.0 z " fill-opacity="0.3" stroke-opacity="0.3"/>
<path d="M 22.0 25.0 C 22.174 25.0 22.35 24.955 22.505 24.863 C 22.812 24.684 23.0 24.355 23.0 24.0 L 23.0 6.0 C 23.0 5.645 22.812 5.316 22.505 5.137 C 22.35 5.046 22.174 5.0 22.0 5.0 C 21.831 5.0 21.662 5.043 21.51 5.129 L 6.51 14.129 C 6.195 14.306 6.0 14.639 6.0 15.0 C 6.0 15.361 6.195 15.694 6.51 15.871 L 21.51 24.871 C 21.662 24.957 21.831 25.0 22.0 25.0 L 22.0 25.0 z " fill="#dedede"/>
<rect fill="none" height="30" width="30"/>
</svg>
