<?xml version="1.0" encoding="UTF-8"?>
<svg xmlns="http://www.w3.org/2000/svg" xmlns:xlink="http://www.w3.org/1999/xlink" baseProfile="tiny" contentScriptType="text/ecmascript" contentStyleType="text/css" height="27px" preserveAspectRatio="xMidYMid meet" version="1.1" viewBox="0 0 27 27" width="27px" x="0px" y="0px" zoomAndPan="magnify">
<path d="M 16.684 4.051 L 16.317 2.949 C 16.143 2.427 15.55 2.0 15.0 2.0 L 4.0 2.0 C 3.45 2.0 2.857 2.427 2.684 2.949 L 2.316 4.051 C 2.143 4.572 2.0 5.449 2.0 6.0 L 2.0 21.0 C 2.0 21.551 2.143 22.428 2.316 22.949 L 2.683 24.051 C 2.857 24.573 3.45 25.0 4.0 25.0 L 9.278 25.0 C 9.105 24.705 9.0 24.366 9.0 24.0 L 9.0 23.5 L 8.0 23.5 L 8.0 22.0 L 9.0 22.0 L 9.0 20.5 L 4.0 20.5 L 4.0 5.0 L 15.0 5.0 L 15.0 13.0 L 17.0 13.0 L 17.0 6.0 C 17.0 5.449 16.857 4.572 16.684 4.051 z M 11.93 10.843 L 11.91 10.864 C 11.945 10.405001 12.073999 10.126 12.073999 9.715 C 12.077999 9.076 12.228 8.845 11.596999 7.869001 C 11.401999 7.566001 11.131999 7.516 10.011 7.1430006 C 8.895 6.772 8.735 7.244 8.363 7.199 C 7.994 7.152 7.942 7.308 7.871 7.444 C 7.799 7.58 7.871 7.689 7.669 7.698 C 7.465 7.708 7.375 7.869 7.375 7.869 C 6.7719994 8.863 6.9949994 9.162 6.9759994 9.799 C 6.9639993 10.138 7.017999 10.389 7.188999 10.856 L 7.168999 10.831 C 7.168999 10.831 6.933999 10.717 6.9509993 11.048 C 6.9509993 11.048 6.9179993 11.151 7.053 11.593 C 7.1329994 11.846001 7.1939993 12.553 7.4239993 12.329 C 7.431999 12.356001 7.4419994 12.384001 7.4499993 12.410001 C 7.4499993 12.410001 7.631 13.385001 8.091 13.794001 C 8.184 13.884001 8.125 14.161 8.061 14.426001 C 8.036 14.527 7.905 15.214001 7.096 15.547001 C 7.096 15.547001 6.358 15.842001 5.6159997 16.29 C 5.6159997 16.29 5.1159997 16.546001 5.0119996 16.973 L 5.0 17.035 C 5.422 17.283 5.92 17.486 6.5 17.64 C 7.564 17.923 8.379 17.989 9.0 17.998 L 9.0 14.0 C 9.0 13.447 9.447 13.0 10.0 13.0 L 11.354 13.0 C 11.47 12.683 11.523 12.409 11.523 12.409 C 11.535 12.371 11.546 12.336 11.559999 12.301001 C 11.785 12.586 11.9 11.917001 11.994 11.611001 C 12.091999 11.287001 12.132999 11.075001 12.132999 11.075001 C 12.172 10.746 11.93 10.843 11.93 10.843 z " fill="#dedede" fill-opacity="1"/>
<path d="M 10.0 15.5 L 10.0 24.0 C 10.0 24.55 10.45 25.0 11.0 25.0 L 25.0 25.0 C 25.55 25.0 26.0 24.55 26.0 24.0 L 26.0 15.5 L 18.0 21.5 L 10.0 15.5 z M 26.0 14.0 L 10.0 14.0 L 18.0 20.0 L 26.0 14.0 z " fill="#dedede"/>
<rect fill="none" height="27" width="27"/>
<defs>
<linearGradient gradientUnits="userSpaceOnUse" x1="9.5005" x2="9.5005" xlink:actuate="onLoad" xlink:show="other" xlink:type="simple" y1="25" y2="2.0005">
<stop offset="0" stop-color="#d0cbc5"/>
<stop offset="1" stop-color="#fcfcf9"/>
</linearGradient>
</defs>
</svg>
