<?xml version="1.0" encoding="UTF-8"?>
<svg xmlns="http://www.w3.org/2000/svg" xmlns:xlink="http://www.w3.org/1999/xlink" baseProfile="tiny" contentScriptType="text/ecmascript" contentStyleType="text/css" height="57px" preserveAspectRatio="xMidYMid meet" version="1.1" viewBox="0 0 67 57" width="67px" x="0px" y="0px" zoomAndPan="magnify">
<rect fill="none" height="57" width="67"/>
<rect fill="none" height="46" width="46" x="10.5" y="5.5"/>
<path d="M 22.951 27.0 C 22.951 32.514 27.437 37.0 32.951 37.0 C 38.465 37.0 42.951 32.514 42.951 27.0 C 42.951 21.486 38.465 17.0 32.951 17.0 C 27.437 17.0 22.951 21.486 22.951 27.0 z M 39.951 27.0 C 39.951 30.859 36.812 34.0 32.951 34.0 C 29.09 34.0 25.951 30.859 25.951 27.0 C 25.951 23.141 29.09 20.0 32.951 20.0 C 36.812 20.0 39.951 23.141 39.951 27.0 z M 17.951 27.0 C 17.951 18.729 24.68 12.0 32.951 12.0 C 41.222 12.0 47.951 18.729 47.951 27.0 C 47.951 27.604 47.905 28.195 47.836 28.78 C 49.095997 28.155 50.475 27.638 51.938 27.329 C 51.94 27.219 51.952 27.111 51.952 27.0 C 51.952 16.507 43.445 8.0 32.952 8.0 C 22.459 8.0 13.952 16.507 13.952 27.0 C 13.952 35.973 20.181 43.475 28.544 45.465 C 22.316 46.864 20.951 51.0 20.951 51.0 L 33.265 51.0 C 32.72 48.749 33.148 46.696 33.269 46.2 C 33.566 44.654 34.119 43.207 34.777 41.877 C 34.178 41.95 33.57 42.0 32.951 42.0 C 24.68 42.0 17.951 35.271 17.951 27.0 z M 60.97 33.934 C 59.423 27.444998 52.631 29.224 52.631 29.224 C 47.766 30.136 43.748 33.895 42.511 35.162 L 42.505 35.157997 L 40.659 37.004 L 40.669 37.011 C 39.11 38.636997 36.036 42.297997 35.224 46.629997 C 35.224 46.629997 33.445 53.421997 39.933 54.969997 C 40.843 55.185997 41.369 54.192997 41.369 54.192997 L 42.984 49.873997 C 43.496 48.893997 42.813 48.314995 42.813 48.314995 L 40.936 46.213993 C 41.121 46.370995 38.9 44.416992 44.398003 38.74399 L 44.398003 38.741993 L 44.673004 38.46899 L 44.675003 38.469994 C 50.347004 32.968994 52.300003 35.19099 52.144005 35.008995 L 54.314003 36.814995 C 54.314003 36.814995 54.894005 37.49699 55.875004 36.98299 L 60.189003 35.370995 C 60.188 35.37 61.185 34.844 60.97 33.934 z " fill="#dedede" fill-opacity="1" stroke-opacity="0.3"/>
<defs>
<linearGradient gradientUnits="userSpaceOnUse" x1="37.4756" x2="37.4756" xlink:actuate="onLoad" xlink:show="other" xlink:type="simple" y1="54" y2="7.0005">
<stop offset="0" stop-color="#d0cbc5"/>
<stop offset="0.5031" stop-color="#fafcef"/>
<stop offset="0.9693" stop-color="#ffffff"/>
<stop offset="1" stop-color="#ffffff"/>
</linearGradient>
</defs>
</svg>
