<?xml version="1.0" encoding="UTF-8"?>
<svg xmlns="http://www.w3.org/2000/svg" xmlns:xlink="http://www.w3.org/1999/xlink" baseProfile="tiny" contentScriptType="text/ecmascript" contentStyleType="text/css" height="30px" preserveAspectRatio="xMidYMid meet" version="1.1" viewBox="0 0 30 30" width="30px" x="0px" y="0px" zoomAndPan="magnify">
<defs/>
<rect color="#000000" display="inline" fill="#353535" fill-opacity="0.58823529" fill-rule="nonzero" height="27.533897" ry="4.7137108" stroke="none" visibility="visible" width="27.533897" x="1.2330513" y="1.2330513"/>
<rect fill="none" height="30" width="30"/>
<g transform="translate(-0.48437592,0.5341645)">
<path d="M 7.4957185 23.050133 C 6.7064404 23.050133 6.065003 22.408695 6.065003 21.619417 C 6.065003 20.83014 6.7064404 20.1887 7.4957185 20.1887 C 8.284996 20.1887 8.9264345 20.830135 8.9264345 21.619417 C 8.9264345 22.408693 8.284997 23.050133 7.495719 23.050133 z M 7.49572 18.28108 C 6.706442 18.28108 6.0650043 17.639645 6.0650043 16.850365 C 6.0650043 16.061087 6.706442 15.41965 7.49572 15.41965 C 8.284998 15.41965 8.9264345 16.061087 8.9264345 16.850365 C 8.9264345 17.639645 8.284997 18.28108 7.4957194 18.28108 z M 7.4957194 13.512032 C 6.7064414 13.512032 6.065004 12.869401 6.065004 12.081314 C 6.065004 11.293228 6.7064414 10.650599 7.4957194 10.650599 C 8.284997 10.650599 8.9264345 11.293228 8.9264345 12.081314 C 8.9264345 12.8694 8.284997 13.512032 7.4957194 13.512032 z M 7.4957185 8.742977 C 6.70644 8.742972 6.0650024 8.100341 6.0650024 7.312256 C 6.0650024 6.52417 6.70644 5.8815403 7.495718 5.8815403 C 8.284998 5.8815403 8.926434 6.522978 8.926434 7.312256 C 8.926434 8.101534 8.284996 8.742972 7.495718 8.742974 z " fill="#ffffff"/>
<path d="M 13.060787 15.879214 L 15.934658 19.69534 L 23.331345 9.23633 " fill="none" stroke="#ffffff" stroke-dasharray="none" stroke-linecap="round" stroke-linejoin="round" stroke-miterlimit="4" stroke-opacity="1" stroke-width="3.14481068"/>
</g>
</svg>
