<?xml version="1.0" encoding="UTF-8"?>
<svg xmlns="http://www.w3.org/2000/svg" xmlns:xlink="http://www.w3.org/1999/xlink" baseProfile="tiny" contentScriptType="text/ecmascript" contentStyleType="text/css" height="96px" preserveAspectRatio="xMidYMid meet" version="1.1" viewBox="0 0 96 96" width="96px" x="0px" y="0px" zoomAndPan="magnify">
<rect fill="none" height="96" width="96"/>
<path d="M 88.0 49.0 C 88.0 78.635 77.637 89.0 48.0 89.0 C 18.365 89.0 8.0 78.635 8.0 49.0 C 8.0 19.367 18.365 9.0 48.0 9.0 C 77.637 9.0 88.0 19.367 88.0 49.0 z " fill-opacity="0.4"/>
<linearGradient gradientTransform="matrix(1 0 0 -1 -272.5996 -298.9004)" gradientUnits="userSpaceOnUse" id="SVGID_1_" x1="320.6006" x2="320.6006" xlink:actuate="onLoad" xlink:show="other" xlink:type="simple" y1="-386.9004" y2="-306.9004">
<stop offset="0" stop-color="#46d4fc"/>
<stop offset="1" stop-color="#46d4fc"/>
</linearGradient>
<path d="M 88.0 48.0 C 88.0 77.635 77.637 88.0 48.0 88.0 C 18.365 88.0 8.0 77.635 8.0 48.0 C 8.0 18.367 18.365 8.0 48.0 8.0 C 77.637 8.0 88.0 18.367 88.0 48.0 z " fill="url(#SVGID_1_)"/>
<rect fill="none" height="80" width="80" x="7.953" y="8"/>
<path d="M 78.678 78.18 C 77.655 77.071 76.438 76.129 75.198 75.481 C 72.023994 73.629005 68.658 71.991005 65.196 70.608 C 63.45 69.912 62.061 68.499 61.071 66.41 C 60.842 65.93101 60.676 65.434006 60.592 64.977005 C 60.688 64.872 60.78 64.76401 60.869 64.65301 C 61.501 63.870007 62.072 62.973007 62.62 61.912006 C 63.412 60.362007 63.855 58.869007 64.273 57.424007 C 66.306 56.230007 67.021 53.70001 67.379005 52.433006 L 67.40501 52.335007 C 67.462006 52.132008 67.54301 51.883007 67.647 51.556007 L 67.684006 51.44301 C 68.063 50.25901 68.58401 48.63801 68.82101 47.104008 C 69.19601 44.668007 68.647 43.099007 68.01201 42.141006 C 68.01201 42.141006 68.295006 40.633007 68.32101 40.491005 C 68.53701 39.325005 68.64101 38.26001 68.645004 37.235004 C 68.645004 36.877003 68.659004 36.51701 68.670006 36.195004 C 68.72301 35.139004 67.795006 29.741005 66.754005 27.466003 C 65.854004 25.494003 64.48601 23.039003 61.895004 21.537004 C 60.137005 20.517002 58.348003 19.976002 56.619003 19.454002 L 56.511 19.421 C 56.198 19.327002 55.890003 19.233002 55.585003 19.137 C 55.140003 18.995 54.69 18.845 54.187004 18.675 C 51.734 17.85 49.195 17.0 46.285 17.0 C 45.899 17.0 45.514 17.015 45.127 17.048 C 43.705 17.167 42.58 17.578 41.585 17.942 C 41.254997 18.063 40.915 18.188 40.599 18.265 C 40.528 18.262 40.447 18.257 40.337997 18.25 C 40.058 18.233 39.775 18.219 39.492996 18.219 C 38.979996 18.219 38.512997 18.263 38.063995 18.352 C 35.337994 18.89 34.149994 20.945 33.670994 21.837 C 31.389994 22.681 30.337994 24.596 29.759996 25.65 L 29.621994 25.897 C 27.948994 28.904 27.195992 35.09 27.235994 35.754997 C 27.240992 35.85 27.241997 36.045 27.243994 36.379 L 27.246994 36.773 C 27.254992 38.052 27.263994 38.559 27.284994 38.81 C 27.287994 40.161 27.423994 41.516 27.686996 42.844997 C 26.948994 44.335 26.896994 46.275 27.527994 48.755997 C 27.548994 48.838997 27.620996 49.189995 27.621994 49.193996 C 28.361994 52.715996 29.091991 55.554996 30.996994 57.035995 C 31.370996 58.355995 31.774994 59.717995 32.428993 61.132996 C 33.149994 62.69799 33.91299 63.930996 34.80899 64.965 C 34.765995 65.144 34.481995 66.21999 34.481995 66.21999 C 34.210995 67.33199 33.668995 68.30999 32.912994 69.048 C 32.047993 69.898 30.768991 70.435 29.149994 71.114 L 29.052994 71.155 C 28.679996 71.311 28.306992 71.469 27.941994 71.632 L 27.425991 71.86099 C 24.499992 73.15799 21.474993 74.49799 18.746994 76.51 C 17.993994 77.06799 17.381994 77.92899 16.871994 79.101 C 23.168 85.404 33.171 88.0 48.0 88.0 C 62.909 88.0 72.938 85.373 79.227 78.992 C 79.048 78.665 78.873 78.391 78.678 78.18 z " fill-opacity="0.03"/>
<path d="M 48.0 88.0 C 62.337 88.0 72.152 85.562 78.47901 79.704 C 78.315 79.366005 78.145004 79.07601 77.942 78.857 C 76.998 77.832 75.86 76.955 74.694 76.343 C 71.565 74.517006 68.244 72.9 64.825 71.534004 C 62.837997 70.740005 61.269997 69.16 60.167995 66.836006 C 59.813995 66.091 59.592995 65.310005 59.540997 64.631004 C 59.730995 64.439 59.92 64.235 60.092995 64.023 C 60.684994 63.291004 61.21899 62.451004 61.731995 61.455 C 62.505993 59.941 62.938995 58.451 63.356995 57.005 L 63.436996 56.734 C 65.377 55.855 66.07 53.404 66.417 52.171 L 66.446 52.063 C 66.512 51.829 66.608 51.535 66.735 51.137 C 67.106 49.985 67.612 48.406 67.838 46.95 C 68.198 44.604 67.634 43.204 66.952995 42.382 C 67.08399 41.687 67.30699 40.503 67.342995 40.308 C 67.546 39.203 67.648 38.196 67.649994 37.23 C 67.65199 36.859 67.66499 36.487 67.676994 36.144 C 67.716995 35.33 66.841995 30.046 65.851 27.879002 C 65.013 26.043 63.748997 23.761002 61.4 22.400002 C 59.744 21.440002 58.01 20.916002 56.336 20.409002 C 55.982 20.303 55.632 20.197002 55.287 20.088003 C 54.837 19.944004 54.383 19.792004 53.884 19.624002 C 51.499 18.825 49.037 18.0 46.285 18.0 C 45.928 18.0 45.57 18.014 45.211 18.044 C 43.921997 18.152 42.871 18.536 41.93 18.88 C 41.507 19.035002 41.107 19.181002 40.701 19.267 C 40.578 19.267 40.455 19.259 40.277 19.248 C 40.017 19.232 39.755 19.219002 39.493 19.219002 C 39.049 19.219002 38.644 19.256002 38.258 19.333002 C 35.891 19.800003 34.915 21.629002 34.498 22.412004 C 34.455 22.492002 34.415 22.572002 34.378 22.656002 C 32.197002 23.291002 31.227 25.057005 30.635002 26.135002 L 30.497002 26.383 C 28.947002 29.169 28.199 35.096 28.236002 35.703003 C 28.242002 35.816 28.243002 36.064003 28.245005 36.371 L 28.248005 36.767 C 28.255005 37.957 28.264004 38.573 28.286003 38.76 C 28.286003 40.182003 28.439005 41.607 28.742002 43.0 C 27.965002 44.293 27.887005 46.102 28.499002 48.51 C 28.517002 48.577003 28.602003 48.987003 28.602003 48.987003 C 29.331003 52.459003 30.048002 55.239 31.866005 56.426003 C 32.258003 57.813004 32.663002 59.248 33.339005 60.713 C 34.103004 62.371 34.922005 63.641003 35.894005 64.67 C 35.860004 64.877 35.783005 65.233 35.617004 65.844 C 35.560005 66.055 35.506004 66.256004 35.456005 66.455 C 35.141006 67.748 34.505005 68.891 33.615005 69.762 C 32.611004 70.744 31.201006 71.336 29.529003 72.039 C 29.134005 72.205 28.738005 72.371 28.348003 72.545 L 27.833006 72.773994 C 24.955006 74.047 21.979006 75.367 19.344006 77.313 C 18.659006 77.81899 18.105003 78.65299 17.645006 79.81699 C 23.973 85.596 33.755 88.0 48.0 88.0 z " fill-opacity="0.05"/>
<path d="M 48.0 88.0 C 61.762 88.0 71.361 85.76 77.705 80.398 C 77.566 80.052 77.411 79.754005 77.206 79.535 C 76.339005 78.594 75.283005 77.782005 74.189 77.208 C 71.103004 75.408 67.827 73.812 64.451004 72.465 C 62.222004 71.574 60.47601 69.827 59.263004 67.27 C 58.771004 66.237 58.506004 65.139 58.529003 64.23499 C 58.582005 64.175995 58.652004 64.107994 58.741005 64.01799 C 58.937004 63.82099 59.13501 63.61899 59.312004 63.39699 C 59.859005 62.71699 60.359005 61.93399 60.83701 61.00099 C 61.567005 59.57099 61.98301 58.13999 62.39201 56.729992 C 62.466007 56.47399 62.539005 56.21899 62.615005 55.96799 C 64.437004 55.492992 65.10901 53.11299 65.451004 51.90499 L 65.482 51.791992 C 65.554 51.532993 65.662 51.20499 65.782005 50.832993 C 66.142006 49.71099 66.635 48.17499 66.84701 46.80099 C 67.19301 44.55299 66.615005 43.34899 65.87001 42.70599 C 65.87001 42.70599 66.30601 40.40899 66.35401 40.12899 C 66.54501 39.08099 66.641014 38.13399 66.64501 37.229992 C 66.64501 36.844994 66.65901 36.46099 66.67201 36.095993 C 66.70201 35.485992 65.86901 30.338991 64.93601 28.295994 C 64.16001 26.594994 62.998013 24.484991 60.893013 23.266994 C 59.336018 22.365992 57.663013 21.858994 56.039013 21.368994 C 55.682014 21.260994 55.32601 21.152994 54.978012 21.042994 C 54.511013 20.895994 54.04101 20.736994 53.56201 20.575993 C 51.262 19.799 48.876 19.0 46.285 19.0 C 45.956 19.0 45.626 19.013 45.295 19.041 C 44.14 19.138 43.163 19.494 42.287 19.814 C 41.834 19.979002 41.406 20.136002 40.989 20.242 C 40.925 20.259 40.828 20.266 40.701 20.266 C 40.548 20.266 40.393 20.256 40.217 20.245 C 39.976997 20.231 39.735 20.218 39.493 20.218 C 39.115 20.218 38.773 20.249 38.451 20.314 C 36.549 20.689 35.761 22.168 35.381 22.88 C 35.265 23.099 35.184 23.312 35.124 23.507002 C 35.077 23.515 35.031 23.523005 34.987 23.532 C 32.968998 23.96 32.091 25.56 31.509 26.618002 L 31.37 26.868002 C 29.971 29.383 29.2 35.116 29.232998 35.647003 C 29.240995 35.792004 29.242 36.140003 29.244995 36.553 L 29.246998 36.759003 C 29.252998 37.727 29.259998 38.494003 29.284998 38.758003 C 29.284998 40.254 29.462996 41.746 29.812998 43.203003 C 29.806995 43.211 29.801 43.219 29.794 43.225 C 28.98 44.275 28.871998 45.922 29.466 48.258003 C 29.491 48.357 29.529 48.539 29.579 48.779003 C 30.299 52.210003 31.009 54.943005 32.715 55.758003 C 32.752 55.885 32.788002 56.014004 32.823 56.143 C 33.205 57.497 33.599003 58.897003 34.244003 60.292 C 35.035004 62.009 35.879 63.273 36.899 64.268 C 36.982 64.621994 36.701 65.653 36.579 66.104 C 36.523003 66.309 36.471 66.504 36.424004 66.69199 C 36.065 68.16599 35.334003 69.47299 34.312004 70.47299 C 33.172005 71.58999 31.631004 72.23699 29.953005 72.94199 C 29.552004 73.11199 29.148005 73.28199 28.750004 73.45899 L 28.239004 73.68699 C 25.410004 74.93899 22.484003 76.233986 19.935003 78.11899 C 19.339005 78.55799 18.840006 79.37599 18.436005 80.514984 C 24.781 85.789 34.34 88.0 48.0 88.0 z " fill-opacity="0.1"/>
<path d="M 48.0 88.0 C 61.188 88.0 70.551 85.939 76.893 81.051 C 76.79 80.714005 76.662 80.418 76.471 80.213005 C 75.682 79.358 74.706 78.60901 73.686 78.07201 C 70.645 76.297005 67.413994 74.72201 64.082 73.392006 C 61.609 72.406006 59.686 70.490005 58.361 67.69701 C 57.771 66.45901 57.47 65.119 57.538 64.021 C 57.55 63.816 57.684 63.664005 58.032 63.312004 C 58.205 63.140003 58.379 62.961 58.534996 62.76701 C 59.03799 62.144005 59.500996 61.415005 59.946995 60.542007 C 60.639996 59.190006 61.042995 57.79701 61.432995 56.44901 C 61.571995 55.97001 61.70499 55.50201 61.85099 55.04501 C 61.882996 55.04701 61.913994 55.04701 61.944996 55.04701 C 63.525 55.04701 64.149994 52.82301 64.488 51.62901 L 64.520996 51.51501 C 64.59699 51.24601 64.70699 50.908012 64.83099 50.52301 C 65.18199 49.43101 65.660995 47.93901 65.85899 46.64601 C 66.144 44.79501 65.774994 43.62801 64.76499 43.17301 C 64.85499 42.693012 65.27899 40.461018 65.37299 39.94401 C 65.55599 38.95301 65.644 38.06301 65.645 37.22201 C 65.646996 36.82601 65.659996 36.428013 65.673996 36.04101 C 65.69399 35.66801 64.92 30.660011 64.02799 28.707012 C 63.310993 27.140013 62.25199 25.203012 60.39299 24.127012 C 58.935993 23.283012 57.316994 22.794012 55.75099 22.320011 C 55.388992 22.211014 55.026993 22.101011 54.677994 21.990011 C 54.20499 21.841011 53.730995 21.681011 53.251995 21.520014 C 51.021 20.774 48.715 20.0 46.285 20.0 C 45.982 20.0 45.681 20.012 45.379 20.037 C 44.354 20.123 43.482 20.442 42.638 20.75 C 42.158 20.927 41.704 21.093 41.235 21.211 C 41.087 21.249 40.918 21.267 40.702 21.267 C 40.521 21.267 40.34 21.256 40.158 21.245 C 39.937 21.232 39.716 21.22 39.494 21.22 C 39.182 21.22 38.904 21.245 38.645 21.296 C 37.209 21.579002 36.618 22.689 36.264 23.352 C 36.096 23.667002 36.029 23.976002 35.974 24.224 C 35.959 24.294 35.943 24.367 35.927 24.428 C 35.858 24.437002 35.775997 24.443 35.712997 24.448002 C 35.527996 24.463 35.35 24.479002 35.194996 24.513002 C 33.624996 24.846004 32.936996 26.098003 32.383995 27.104002 L 32.243996 27.357002 C 30.943996 29.693005 30.211996 35.269 30.230995 35.594 C 30.240995 35.77 30.242994 36.233 30.246996 36.756 C 30.251995 37.581 30.257996 38.435 30.284996 38.761 C 30.284996 40.366 30.499996 41.960003 30.924995 43.511 C 30.798996 43.603 30.684996 43.714 30.584995 43.843 C 29.980995 44.620003 29.930996 46.026 30.437996 48.020004 C 30.463997 48.126003 30.504995 48.321003 30.558996 48.577003 C 31.382996 52.498005 32.119995 54.728004 33.533997 54.982 C 33.621 55.279003 33.705 55.577003 33.788 55.875004 C 34.158997 57.191 34.543 58.553005 35.154 59.878 C 35.904 61.506 36.695 62.69 37.646 63.602 C 38.163 64.098 37.806 65.412 37.545 66.37 C 37.490997 66.567 37.441 66.757 37.397 66.93301 C 36.993 68.587006 36.168 70.06201 35.013 71.19301 C 33.737 72.44301 32.111 73.128006 30.39 73.84901 C 29.978 74.02301 29.565 74.19501 29.155 74.37701 L 28.645 74.603004 C 25.863998 75.83401 22.988998 77.109 20.53 78.925 C 19.886 79.402 19.454998 80.556 19.259 81.175 C 25.598 85.977 34.92 88.0 48.0 88.0 z " fill-opacity="0.2"/>
<path d="M 48.0 88.0 C 60.605 88.0 69.713 86.115 76.031 81.68 C 75.982 81.362 75.884995 81.053 75.734 80.891 C 75.009 80.104 74.129 79.436 73.181 78.936 C 70.152 77.168 66.967 75.62299 63.708 74.323 C 60.821 73.172 58.774 70.91 57.455 68.13 C 56.86 66.881996 56.453003 65.341995 56.537003 63.962997 C 56.588 63.129997 57.268 62.746 57.754 62.143997 C 58.265003 61.511 58.687 60.811996 59.056 60.089996 C 60.119 58.014996 60.468 55.782 61.279 53.639996 C 62.527 55.163994 63.334 52.028996 63.558 51.243996 C 64.068 49.455997 65.982 44.601997 64.232 44.040997 C 63.974003 43.957996 63.746 44.048996 63.572 44.247997 C 63.605003 43.818996 64.099 41.352997 64.39 39.768997 C 64.542 38.928 64.644 38.08 64.645996 37.222996 C 64.647995 36.813995 64.660995 36.404995 64.676994 35.993996 C 64.68099 35.916996 63.97599 31.001995 63.117996 29.126995 C 62.400997 27.561996 61.431995 25.889996 59.890995 24.995996 C 58.206993 24.020994 56.210995 23.529997 54.372993 22.946997 C 51.513992 22.038994 48.518993 20.777994 45.458992 21.034994 C 44.020992 21.155994 42.84199 21.835997 41.476994 22.181992 C 40.599995 22.404991 39.717995 22.102991 38.833992 22.277994 C 37.935993 22.454994 37.54299 23.071997 37.14299 23.822994 C 36.93999 24.203997 36.95699 24.649994 36.76399 25.025991 C 36.509987 25.511992 35.84099 25.395994 35.39999 25.490992 C 34.17199 25.751991 33.67199 26.846992 33.11599 27.843994 C 31.908989 30.011992 31.21999 35.407993 31.22699 35.536995 C 31.25199 35.97599 31.23499 38.131996 31.28299 38.761993 C 31.28299 40.547993 31.57199 42.40399 32.17899 44.200993 C 30.49699 43.89799 31.21999 47.046993 31.40499 47.77299 C 31.62899 48.64899 32.74199 55.20499 34.22199 53.811993 C 34.82599 55.708992 35.216988 57.629993 36.05999 59.457993 C 36.62999 60.69799 37.34299 61.92599 38.33499 62.87899 C 39.42699 63.924995 38.67699 65.90499 38.36599 67.16899 C 37.92699 68.96399 37.03799 70.60499 35.71099 71.90299 C 33.97399 73.606 31.723991 74.328 29.557993 75.288994 C 26.706991 76.55399 23.64199 77.86399 21.12199 79.727 C 20.74799 80.002 20.32499 81.01 20.11799 81.785 C 26.434 86.145 35.495 88.0 48.0 88.0 z " fill-opacity="0.3"/>
<linearGradient gradientTransform="matrix(1 0 0 -1 -272.5996 -298.9004)" gradientUnits="userSpaceOnUse" id="SVGID_2_" x1="320.5996" x2="320.5996" xlink:actuate="onLoad" xlink:show="other" xlink:type="simple" y1="-307.1533" y2="-386.3984">
<stop offset="0" stop-color="#ffffff"/>
<stop offset="1" stop-color="#ffffff" stop-opacity="0"/>
</linearGradient>
<path d="M 48.0 8.0 C 18.365 8.0 8.0 18.367 8.0 48.0 C 8.0 77.635 18.365 88.0 48.0 88.0 C 77.637 88.0 88.0 77.635 88.0 48.0 C 88.0 18.367 77.637 8.0 48.0 8.0 z M 48.0 87.0 C 18.842 87.0 9.0 77.159 9.0 48.0 C 9.0 18.842 18.842 9.0 48.0 9.0 C 77.158005 9.0 87.0 18.842 87.0 48.0 C 87.0 77.159 77.158 87.0 48.0 87.0 z " fill="url(#SVGID_2_)" fill-opacity="0.25"/>
<radialGradient cx="320.5996" cy="-332.4473" gradientTransform="matrix(1 0 0 -1 -272.5996 -298.9004)" gradientUnits="userSpaceOnUse" r="35.5916" xlink:actuate="onLoad" xlink:show="other" xlink:type="simple" xmlns:xlink="http://www.w3.org/1999/xlink">
<stop offset="0" stop-color="#fdfef9"/>
<stop offset="0.2121" stop-color="#fdfef9"/>
<stop offset="1" stop-color="#d0cbc5"/>
</radialGradient>
<path d="M 71.0 77.0 C 67.971 75.232 66.969 74.623 63.71 73.322 C 60.823997 72.17 58.775 69.908 57.457 67.128 C 56.863 65.88 56.455 64.34 56.539 62.961 C 56.59 62.128 57.271 61.744 57.756 61.141 C 58.266 60.509 58.688 59.810997 59.059 59.087997 C 60.122 57.011997 60.471 54.779 61.280003 52.636997 C 62.528004 54.162 63.336 51.027996 63.559 50.241997 C 64.069 48.454 65.983 43.6 64.233 43.039 C 63.975 42.955997 63.748 43.046997 63.575 43.246 C 63.608 42.817 64.1 40.351 64.391 38.767 C 64.544 37.926 64.645 37.078 64.649 36.220997 C 64.649 35.811996 64.663 35.402996 64.678 34.991997 C 64.682 34.914997 63.979 29.999996 63.120003 28.124996 C 62.404003 26.559996 61.435 24.887997 59.892 23.993996 C 58.209003 23.018995 56.213 22.527996 54.375 21.944996 C 51.515 21.036997 48.521 19.775995 45.461 20.032995 C 44.023 20.153996 42.844 20.833996 41.479 21.179996 C 40.602 21.402994 39.72 21.100994 38.836 21.275995 C 37.938 21.452995 37.545 22.069996 37.144997 22.820995 C 36.942 23.201996 36.958996 23.647997 36.765995 24.023994 C 36.511993 24.509996 35.842995 24.393995 35.401997 24.488997 C 34.173996 24.749994 33.673996 25.844994 33.117996 26.841995 C 31.910995 29.009996 31.221996 34.40599 31.228996 34.534996 C 31.253996 34.973995 31.236996 37.129997 31.284996 37.759995 C 31.284996 39.545994 31.573996 41.401993 32.180996 43.198994 C 30.498997 42.895992 31.221996 46.04499 31.406996 46.770992 C 31.630997 47.64799 32.743996 54.20299 34.223995 52.810993 C 34.827995 54.706993 35.21899 56.627995 36.061996 58.456993 C 36.631996 59.69599 37.344997 60.92499 38.337 61.877995 C 39.428997 62.923996 38.678997 64.90499 38.367996 66.16799 C 37.928997 67.96299 37.039997 69.60299 35.712997 70.90299 C 33.976 72.60399 31.749998 73.38199 29.559998 74.287994 C 23.001 77.0 18.735 80.816 19.0 81.0 C 20.171 81.813 22.459 83.244 23.744 83.857 C 29.842 86.763 36.779 87.613 43.456 87.883 C 51.003 88.191 58.829 87.982 66.17 86.041 C 68.994 85.295 71.754 84.254 74.279 82.776 C 74.838 82.453 76.468 81.368 77.0 81.0 C 77.256 80.822 73.0 78.0 71.0 77.0 z " fill="#ffffff" fill-opacity="1"/>
<radialGradient cx="320.416" cy="-367.1729" gradientTransform="matrix(1 0 0 -1 -272.5996 -298.9004)" gradientUnits="userSpaceOnUse" r="9.2964" xlink:actuate="onLoad" xlink:show="other" xlink:type="simple" xmlns:xlink="http://www.w3.org/1999/xlink">
<stop offset="0" stop-color="#000000" stop-opacity="0.5"/>
<stop offset="0.4" stop-color="#000000" stop-opacity="0.5"/>
<stop offset="1" stop-color="#595959" stop-opacity="0"/>
</radialGradient>
<path d="M 38.889 63.104 C 38.889 63.104 44.348 68.028 47.098 68.028 C 47.098 68.028 48.432 68.112 49.599 67.862 C 50.765 67.612 56.349 63.194 56.349 63.194 C 56.349 63.194 54.161 76.789 47.421997 76.772 C 40.447 76.754 38.889 63.104 38.889 63.104 z " fill="#e4e4e4" fill-opacity="1"/>
<path d="M 55.9 61.773 C 54.558 62.817997 50.943 64.793 49.976 65.0 C 48.808 65.25 47.475 65.166 47.475 65.166 C 45.314003 65.166 41.117004 63.227 39.572 61.924 C 39.883003 62.553 39.941 63.255 39.875004 63.947 C 41.568005 65.347 45.066 68.027 47.098003 68.027 C 47.098003 68.027 48.432003 68.111 49.599003 67.861 C 50.495003 67.669 53.980003 65.033 55.556004 63.812 C 55.536003 63.5 55.523003 63.191 55.540005 62.9 C 55.568 62.445 55.715 62.084 55.9 61.773 z " fill="#ffffff" fill-opacity="0.05"/>
<rect fill="none" height="96" width="96"/>
</svg>
