<?xml version="1.0" encoding="UTF-8"?>
<svg xmlns="http://www.w3.org/2000/svg" xmlns:xlink="http://www.w3.org/1999/xlink" baseProfile="tiny" contentScriptType="text/ecmascript" contentStyleType="text/css" height="30px" preserveAspectRatio="xMidYMid meet" version="1.1" viewBox="0 0 30 30" width="30px" x="0px" y="0px" zoomAndPan="magnify">
<path d="M 11.398 24.285 C 11.398 25.230999 12.205 26.0 13.201 26.0 L 16.799 26.0 C 17.795 26.0 18.6 25.231 18.6 24.285 L 18.6 22.0 L 11.399 22.0 L 11.399 24.285 z M 14.999 2.0 C 9.6 2.0 6.0 5.429 6.0 8.859 C 6.0 15.336 11.352 17.6 11.396 21.0 L 18.603 21.0 C 18.646 17.601 24.0 15.336 24.0 8.859 C 24.0 5.429 20.401 2.0 14.999 2.0 z " fill-opacity="0.3" stroke-opacity="0.3"/>
<path d="M 13.201 28.0 C 11.655001 28.0 10.398001 26.782 10.398001 25.285 L 10.398001 23.0 C 10.398001 22.818 10.398001 22.191 10.396001 22.014 C 10.3810005 20.927 9.5720005 19.879 8.545001 18.553 C 6.966 16.512 5.0 13.971 5.0 9.859 C 5.0 6.08 8.823 2.0 14.999 2.0 C 21.177 2.0 25.0 6.08 25.0 9.859 C 25.0 13.969 23.034 16.51 21.454 18.552 C 20.428001 19.878 19.617 20.925 19.603 22.012001 C 19.602 22.191 19.6 22.819 19.6 23.0 L 19.6 25.285 C 19.6 26.782 18.343 28.0 16.799 28.0 L 13.201 28.0 z " fill-opacity="0.15" stroke-opacity="0.15"/>
<path d="M 11.398 25.285 C 11.398 26.230999 12.205 27.0 13.201 27.0 L 16.799 27.0 C 17.795 27.0 18.6 26.231 18.6 25.285 L 18.6 23.0 L 11.399 23.0 L 11.399 25.285 z M 14.999 3.0 C 9.6 3.0 6.0 6.429 6.0 9.859 C 6.0 16.336 11.352 18.6 11.396 22.0 L 18.603 22.0 C 18.646 18.601 24.0 16.336 24.0 9.859 C 24.0 6.429 20.401 3.0 14.999 3.0 z " fill="#dedede"/>
<rect fill="none" height="30" width="30"/>
</svg>
