<?xml version="1.0" encoding="UTF-8"?>
<svg xmlns="http://www.w3.org/2000/svg" xmlns:xlink="http://www.w3.org/1999/xlink" baseProfile="tiny" contentScriptType="text/ecmascript" contentStyleType="text/css" height="57px" preserveAspectRatio="xMidYMid meet" version="1.1" viewBox="0 0 67 57" width="67px" x="0px" y="0px" zoomAndPan="magnify">
<defs>
<linearGradient gradientTransform="translate(0,20)" gradientUnits="userSpaceOnUse" x1="36" x2="36" xlink:actuate="onLoad" xlink:show="other" xlink:type="simple" y1="54" y2="12.0005">
<stop offset="0" stop-color="#d0cbc5"/>
<stop offset="0.5031" stop-color="#fafcef"/>
<stop offset="0.9693" stop-color="#ffffff"/>
<stop offset="1" stop-color="#ffffff"/>
</linearGradient>
</defs>
<linearGradient gradientTransform="matrix(1 0 0 -1 -300.9004 -159.5996)" gradientUnits="userSpaceOnUse" x1="353.8994" x2="353.8994" xlink:actuate="onLoad" xlink:show="other" xlink:type="simple" y1="-178.4746" y2="-167.8397">
<stop offset="0" stop-color="#c01e22"/>
<stop offset="1" stop-color="#ea2227"/>
</linearGradient>
<linearGradient gradientTransform="translate(0,20)" gradientUnits="userSpaceOnUse" x1="36" x2="36" xlink:actuate="onLoad" xlink:show="other" xlink:type="simple" y1="54" y2="12.0005">
<stop offset="0" stop-color="#d0cbc5"/>
<stop offset="0.5031" stop-color="#fafcef"/>
<stop offset="0.9693" stop-color="#ffffff"/>
<stop offset="1" stop-color="#ffffff"/>
</linearGradient>
<rect fill="#ffffff" fill-opacity="0.70588235" fill-rule="nonzero" height="48" ry="8.2174387" stroke="none" width="48" x="9.5" y="5.5"/>
<rect fill="#469fff" fill-opacity="0.58823529" fill-rule="nonzero" height="48" ry="8.2174387" stroke="none" width="48" x="9.5" y="5.5"/>
<path d="M 42.69536 18.33216 L 45.11165 18.33216 L 43.903137 20.423964 C 43.699867 20.778015 43.821087 21.22964 44.173668 21.433647 C 44.28971 21.500908 44.416847 21.532698 44.542503 21.532698 C 44.79973 21.532698 45.048084 21.39965 45.18335 21.163122 L 46.391125 19.07132 L 47.5989 21.163122 C 47.73712 21.40039 47.983997 21.532698 48.239742 21.532698 C 48.3654 21.532698 48.492535 21.500916 48.60858 21.433647 C 48.962635 21.22964 49.084595 20.77728 48.879112 20.423964 L 47.6706 18.33216 L 50.08689 18.33216 C 50.496384 18.33216 50.82605 18.00176 50.82605 17.593008 C 50.82605 17.184258 50.496384 16.853855 50.08689 16.853855 L 47.6706 16.853855 L 48.879116 14.762054 C 49.082382 14.407998 48.961166 13.956376 48.608585 13.752372 C 48.25453 13.548366 47.80291 13.670321 47.598904 14.022902 L 46.39113 16.114704 L 45.183357 14.0229025 C 44.97861 13.66811 44.524773 13.547627 44.17367 13.752373 C 43.81962 13.956379 43.69766 14.40874 43.903145 14.762054 L 45.11166 16.853855 L 42.69537 16.853855 C 42.285877 16.853855 41.956215 17.18426 41.956215 17.59301 C 41.95622 18.00176 42.285877 18.332165 42.69537 18.332165 z " fill="#fa664b" fill-opacity="1"/>
<path d="M 42.375313 20.364088 C 42.414497 20.172647 42.46918 19.984163 42.557144 19.806028 C 41.39963 19.73433 40.47865 18.769735 40.47865 17.593006 C 40.47865 17.13547 40.619827 16.712675 40.860058 16.358622 L 16.82577 16.358622 C 16.645416 16.358622 16.474672 16.395582 16.315016 16.454712 L 31.60882 29.66337 L 42.375317 20.364092 z M 42.696117 36.315742 L 41.21781 34.728043 C 40.760277 34.113068 39.739506 34.09829 39.739506 34.09829 L 36.043743 34.09829 C 35.022976 34.09829 34.565437 34.83744 34.565437 35.57659 C 34.566177 35.59211 34.565437 47.40303 34.565437 47.40303 L 52.30509 47.40303 L 52.30509 36.315742 L 42.69611 36.315742 z M 39.739494 32.61998 C 40.0455 32.62438 41.48463 32.69907 42.34353 33.767883 L 43.33991 34.837437 L 47.870174 34.837437 L 47.870174 22.965168 C 47.27072 22.861689 46.73114 22.529806 46.39187 22.01979 C 45.98164 22.634766 45.2861 23.010994 44.543247 23.010994 C 44.15593 23.010994 43.771572 22.908253 43.435257 22.713856 C 43.322903 22.648806 43.2209 22.571938 43.122597 22.490631 L 31.608818 32.464016 L 15.347462 18.377989 L 15.347462 39.27235 C 15.347462 40.088375 16.009743 40.750656 16.825768 40.750656 L 33.087124 40.750656 L 33.087124 35.585457 C 33.087124 33.864708 34.331856 32.619976 36.043736 32.619976 L 39.7395 32.619976 z " fill="#ffffff" fill-opacity="1"/>
</svg>
