<?xml version="1.0" encoding="UTF-8"?>
<svg xmlns="http://www.w3.org/2000/svg" xmlns:xlink="http://www.w3.org/1999/xlink" baseProfile="tiny" contentScriptType="text/ecmascript" contentStyleType="text/css" height="30px" preserveAspectRatio="xMidYMid meet" version="1.1" viewBox="0 0 30 30" width="30px" x="0px" y="0px" zoomAndPan="magnify">
<path d="M 4.93 9.998 C 4.93 9.998 5.046 10.0 5.052 10.0 C 7.993 10.0 8.0 7.755 8.0 7.008 L 8.0 8.0 C 8.0 9.103 8.897 10.0 10.0 10.0 L 26.0 10.0 C 27.103 10.0 28.0 9.103 28.0 8.0 L 28.0 6.0 C 28.0 4.897 27.103 4.0 26.0 4.0 L 10.0 4.0 C 8.897 4.0 8.0 4.897 8.0 6.0 L 8.0 6.9969997 C 8.0 6.2489996 7.993 4.0009995 5.0620003 4.0009995 L 4.948 4.0 C 2.0 4.0 2.0 6.254 2.0 6.995 C 2.0 7.737 2.0 9.998 4.93 9.998 z M 29.164 12.014 L 23.164 11.014 C 23.11 11.004 23.055 11.0 23.0 11.0 C 22.264 11.0 21.625 11.405 21.278 12.0 L 10.0 12.0 C 8.897 12.0 8.0 12.897 8.0 14.0 L 8.0 14.997 C 8.0 14.249 7.993 12.000999 5.0620003 12.000999 L 4.948 12.0 C 2.0 12.0 2.0 14.254 2.0 14.995 C 2.0 15.738 2.0 17.998 4.9300003 17.998 C 4.9300003 17.998 5.0460005 18.0 5.0520005 18.0 C 7.993 18.0 8.0 15.755 8.0 15.008 L 8.0 16.0 C 8.0 17.104 8.897 18.0 10.0 18.0 L 21.0 18.0 L 21.0 20.0 L 10.0 20.0 C 8.897 20.0 8.0 20.896 8.0 22.0 L 8.0 22.997 C 8.0 22.249 7.993 20.001 5.0620003 20.001 L 4.948 20.0 C 2.0 20.0 2.0 22.254 2.0 22.994 C 2.0 23.737 2.0 25.998 4.9300003 25.998 C 4.9300003 25.998 5.0460005 26.0 5.0520005 26.0 C 7.993 26.0 8.0 23.755 8.0 23.008 L 8.0 24.0 C 8.0 25.104 8.897 26.0 10.0 26.0 L 15.0 26.0 C 15.0 28.205 17.243 30.0 20.0 30.0 C 22.757 30.0 25.0 28.205 25.0 26.0 L 26.0 26.0 C 27.103 26.0 28.0 25.104 28.0 24.0 L 28.0 22.0 C 28.0 20.896 27.103 20.0 26.0 20.0 L 25.0 20.0 L 25.0 18.0 L 26.0 18.0 C 26.393 18.0 26.756 17.883 27.065 17.686 L 28.833 17.987001 C 28.889 17.996 28.944 18.0 29.0 18.0 C 29.234 18.0 29.464 17.918 29.646 17.764 C 29.87 17.574 30.0 17.295 30.0 17.0 L 30.0 13.0 C 30.0 12.511 29.646 12.094 29.164 12.014 z " fill-opacity="0.15" stroke-opacity="0.15"/>
<path d="M 5.052 20.001 L 4.948 20.0 C 3.349 20.0 3.0 20.701 3.0 21.994 C 3.0 23.293999 3.358 23.998 4.948 23.998 L 5.052 24.0 C 6.653 24.0 7.0 23.295 7.0 22.002 C 7.0 20.705 6.645 20.001 5.052 20.001 z M 10.0 16.0 L 21.0 16.0 L 21.0 12.0 L 10.0 12.0 C 9.45 12.0 9.0 12.45 9.0 13.0 L 9.0 15.0 C 9.0 15.55 9.45 16.0 10.0 16.0 z M 10.0 8.0 L 26.0 8.0 C 26.55 8.0 27.0 7.55 27.0 7.0 L 27.0 5.0 C 27.0 4.45 26.55 4.0 26.0 4.0 L 10.0 4.0 C 9.45 4.0 9.0 4.45 9.0 5.0 L 9.0 7.0 C 9.0 7.55 9.45 8.0 10.0 8.0 z M 5.052 4.001 L 4.948 4.0 C 3.349 4.0 3.0 4.702 3.0 5.995 C 3.0 7.2939997 3.358 7.998 4.948 7.998 L 5.052 8.0 C 6.653 8.0 7.0 7.295 7.0 6.002 C 7.0 4.705 6.645 4.001 5.052 4.001 z M 26.0 20.0 L 25.0 20.0 L 25.0 24.0 L 26.0 24.0 C 26.55 24.0 27.0 23.55 27.0 23.0 L 27.0 21.0 C 27.0 20.45 26.55 20.0 26.0 20.0 z M 20.0 21.0 C 20.338 21.0 20.672 21.027 21.0 21.082 L 21.0 20.0 L 10.0 20.0 C 9.45 20.0 9.0 20.45 9.0 21.0 L 9.0 23.0 C 9.0 23.55 9.45 24.0 10.0 24.0 L 15.1779995 24.0 C 15.736 22.279 17.678 21.0 20.0 21.0 z M 5.052 12.001 L 4.948 12.0 C 3.349 12.0 3.0 12.702 3.0 13.995 C 3.0 15.294 3.358 15.998 4.948 15.998 L 5.052 16.0 C 6.653 16.0 7.0 15.295 7.0 14.002 C 7.0 12.705 6.645 12.001 5.052 12.001 z M 23.0 11.0 C 22.447 11.0 22.0 11.448 22.0 12.0 L 22.0 22.416 C 21.41 22.158 20.732 22.0 20.0 22.0 C 17.791 22.0 16.0 23.343 16.0 25.0 C 16.0 26.657 17.791 28.0 20.0 28.0 C 22.209 28.0 24.0 26.657 24.0 25.0 L 24.0 15.152 L 29.0 16.0 L 29.0 12.0 L 23.0 11.0 z " fill-opacity="0.3" stroke-opacity="0.3"/>
<path d="M 5.052 21.001 L 4.948 21.0 C 3.349 21.0 3.0 21.701 3.0 22.994 C 3.0 24.293999 3.358 24.998 4.948 24.998 L 5.052 25.0 C 6.653 25.0 7.0 24.295 7.0 23.002 C 7.0 21.705 6.645 21.001 5.052 21.001 z M 10.0 17.0 L 21.0 17.0 L 21.0 13.0 L 10.0 13.0 C 9.45 13.0 9.0 13.45 9.0 14.0 L 9.0 16.0 C 9.0 16.55 9.45 17.0 10.0 17.0 z M 10.0 9.0 L 26.0 9.0 C 26.55 9.0 27.0 8.55 27.0 8.0 L 27.0 6.0 C 27.0 5.45 26.55 5.0 26.0 5.0 L 10.0 5.0 C 9.45 5.0 9.0 5.45 9.0 6.0 L 9.0 8.0 C 9.0 8.55 9.45 9.0 10.0 9.0 z M 5.052 5.001 L 4.948 5.0 C 3.349 5.0 3.0 5.702 3.0 6.995 C 3.0 8.294 3.358 8.998 4.948 8.998 L 5.052 9.0 C 6.653 9.0 7.0 8.295 7.0 7.002 C 7.0 5.705 6.645 5.001 5.052 5.001 z M 26.0 21.0 L 25.0 21.0 L 25.0 25.0 L 26.0 25.0 C 26.55 25.0 27.0 24.55 27.0 24.0 L 27.0 22.0 C 27.0 21.45 26.55 21.0 26.0 21.0 z M 20.0 22.0 C 20.338 22.0 20.672 22.027 21.0 22.082 L 21.0 21.0 L 10.0 21.0 C 9.45 21.0 9.0 21.45 9.0 22.0 L 9.0 24.0 C 9.0 24.55 9.45 25.0 10.0 25.0 L 15.1779995 25.0 C 15.736 23.279 17.678 22.0 20.0 22.0 z M 5.052 13.001 L 4.948 13.0 C 3.349 13.0 3.0 13.702 3.0 14.995 C 3.0 16.294 3.358 16.998 4.948 16.998 L 5.052 17.0 C 6.653 17.0 7.0 16.295 7.0 15.002 C 7.0 13.705 6.645 13.001 5.052 13.001 z M 23.0 12.0 C 22.447 12.0 22.0 12.448 22.0 13.0 L 22.0 23.416 C 21.41 23.158 20.732 23.0 20.0 23.0 C 17.791 23.0 16.0 24.343 16.0 26.0 C 16.0 27.657 17.791 29.0 20.0 29.0 C 22.209 29.0 24.0 27.657 24.0 26.0 L 24.0 16.152 L 29.0 17.0 L 29.0 13.0 L 23.0 12.0 z " fill="#dedede"/>
<rect fill="none" height="30" width="30"/>
</svg>
