<?xml version="1.0" encoding="UTF-8"?>
<svg xmlns="http://www.w3.org/2000/svg" xmlns:xlink="http://www.w3.org/1999/xlink" baseProfile="tiny" contentScriptType="text/ecmascript" contentStyleType="text/css" height="30px" preserveAspectRatio="xMidYMid meet" version="1.1" viewBox="0 0 30 30" width="30px" x="0px" y="0px" zoomAndPan="magnify">
<path d="M 22.5 5.899 C 22.5 5.58 22.331 5.287 22.054 5.122 C 21.914 5.04 21.755 5.0 21.6 5.0 C 21.45 5.0 21.295 5.039 21.16 5.116 L 11.500999 12.456 L 11.500999 6.0 C 11.500999 5.447 11.054 5.0 10.500999 5.0 L 8.500999 5.0 C 7.9479995 5.0 7.5009995 5.447 7.5009995 6.0 L 7.5009995 22.0 C 7.5009995 22.553 7.9479995 23.0 8.500999 23.0 L 10.500999 23.0 C 11.053999 23.0 11.500999 22.553 11.500999 22.0 L 11.500999 15.543 L 21.159 22.886 C 21.295 22.963 21.448 23.0 21.6 23.0 C 21.755001 23.0 21.914 22.963 22.054 22.879 C 22.331001 22.717 22.5 22.421999 22.5 22.102 L 22.5 5.899 z " fill-opacity="0.3"/>
<path d="M 23.5 23.102 C 23.5 23.774 23.141 24.401 22.56 24.743 C 22.278 24.911 21.942999 25.003 21.6 25.003 C 21.274 25.003 20.952 24.917 20.668001 24.759 C 20.626001 24.738 20.589 24.710001 20.552002 24.683 L 12.5 18.561 L 12.5 23.0 C 12.5 24.104 11.603 25.002 10.5 25.002 L 8.5 25.002 C 7.396 25.002 6.5 24.104 6.5 23.0 L 6.5 7.0 C 6.5 5.896 7.396 5.0 8.500999 5.0 L 10.500999 5.0 C 11.603999 5.0 12.500999 5.896 12.500999 7.0 L 12.500999 11.439 L 20.551998 5.3180003 C 20.588999 5.2910004 20.625998 5.2650003 20.667997 5.2430005 C 20.949 5.085 21.271 5.0 21.6 5.0 C 21.937 5.0 22.27 5.089 22.559 5.258 C 23.143 5.604 23.5 6.23 23.5 6.898 L 23.5 23.102 z " fill-opacity="0.15"/>
<path d="M 22.5 6.898 C 22.5 6.5789995 22.331 6.286 22.054 6.1219997 C 21.914 6.041 21.755 6.0 21.6 6.0 C 21.45 6.0 21.295 6.038 21.16 6.115 L 11.5 13.456 L 11.5 7.0 C 11.5 6.448 11.053 6.0 10.5 6.0 L 8.5 6.0 C 7.947 6.0 7.5 6.447 7.5 7.0 L 7.5 23.0 C 7.5 23.553 7.947 24.0 8.5 24.0 L 10.5 24.0 C 11.0529995 24.0 11.5 23.553 11.5 23.0 L 11.5 16.543 L 21.158 23.884998 C 21.295 23.963 21.448 24.0 21.6 24.0 C 21.755001 24.0 21.914 23.963 22.054 23.879 C 22.331001 23.717 22.5 23.421999 22.5 23.102 L 22.5 6.898 z " fill="#dedede"/>
<rect fill="none" height="30" width="30"/>
</svg>
