<?xml version="1.0" encoding="UTF-8"?>
<svg xmlns="http://www.w3.org/2000/svg" xmlns:xlink="http://www.w3.org/1999/xlink" baseProfile="tiny" contentScriptType="text/ecmascript" contentStyleType="text/css" height="30px" preserveAspectRatio="xMidYMid meet" version="1.1" viewBox="0 0 30 30" width="30px" x="0px" y="0px" zoomAndPan="magnify">
<path d="M 28.0 4.0 L 27.756 4.0 C 27.428001 3.407 26.803001 3.0 26.077 3.0 L 26.0 3.0 L 26.0 2.0 C 26.0 0.89699996 25.104 0.0 24.0 0.0 C 22.896 0.0 22.0 0.897 22.0 2.0 L 22.0 3.27 C 21.797 3.399 21.623 3.565 21.506 3.779 C 21.467 3.85 21.449 3.926 21.423 4.0 L 21.098 4.0 C 21.071 3.925 21.053 3.8470001 21.013 3.776 C 20.739 3.283 20.212 3.0 19.564 3.0 L 10.433 3.0 C 9.787 3.0 9.259 3.283 8.986 3.775 C 8.713 4.269 8.753 4.868 9.096 5.416 L 9.547 6.144 L 7.932 6.144 L 8.3810005 5.42 C 8.725 4.87 8.766001 4.2720003 8.491 3.777 C 8.218 3.283 7.689 3.0 7.042 3.0 L 3.924 3.0 C 2.863 3.0 2.0 3.86 2.0 4.917 L 2.0 25.083 C 2.0 26.141 2.863 27.0 3.924 27.0 L 26.077 27.0 C 27.138 27.0 28.0 26.141 28.0 25.083 L 28.0 8.0 C 29.104 8.0 30.0 7.103 30.0 6.0 C 30.0 4.897 29.104 4.0 28.0 4.0 z " fill-opacity="0.15"/>
<rect fill="none" height="30" width="30"/>
<rect fill="none" height="30" width="30"/>
<path d="M 28.0 4.0 L 25.0 4.0 L 25.0 1.0 C 25.0 0.448 24.553 0.0 24.0 0.0 C 23.447 0.0 23.0 0.448 23.0 1.0 L 23.0 4.0 L 20.0 4.0 C 19.447 4.0 19.0 4.448 19.0 5.0 C 19.0 5.552 19.447 6.0 20.0 6.0 L 23.0 6.0 L 23.0 9.0 C 23.0 9.552 23.447 10.0 24.0 10.0 C 24.553 10.0 25.0 9.552 25.0 9.0 L 25.0 6.0 L 28.0 6.0 C 28.553 6.0 29.0 5.552 29.0 5.0 C 29.0 4.448 28.553 4.0 28.0 4.0 z M 26.0 9.0 C 26.0 10.103 25.104 11.0 24.0 11.0 C 23.668 11.0 23.36 10.911 23.084 10.768 C 23.236 11.148999 23.321 11.575999 23.321 12.051 C 23.321 13.795 22.396 14.709 20.984999 15.905 C 19.675 17.012 18.835999 17.769 18.648998 18.800999 L 23.214998 18.800999 C 23.267998 18.800999 23.318998 18.821999 23.356998 18.859999 C 23.394 18.897999 23.415998 18.949 23.415998 19.001999 L 23.414999 20.518 C 23.414999 20.628 23.324999 20.718 23.214998 20.718 L 16.0 20.718 C 15.89 20.718 15.8 20.628 15.8 20.518 L 15.8 19.52 C 15.8 17.122 17.361 15.611 18.822 14.383 C 19.769001 13.588 20.343 13.04 20.343 12.147 C 20.343 11.488 20.072 10.702001 18.78 10.702001 C 18.166 10.702001 17.385 10.878 16.460001 11.226001 C 16.438002 11.235001 16.413 11.239 16.390001 11.239 C 16.35 11.239 16.310001 11.227 16.276001 11.203 C 16.222 11.165 16.19 11.104 16.19 11.038 L 16.19 9.49 C 16.19 9.4 16.25 9.322 16.336 9.297999 C 17.511 8.967999 18.566 8.799999 19.475 8.799999 C 20.554 8.799999 21.426 9.055999 22.074001 9.508999 C 22.03 9.346 22.0 9.177 22.0 9.0 L 22.0 7.0 L 20.0 7.0 C 18.896 7.0 18.0 6.103 18.0 5.0 C 18.0 3.995 18.746 3.1690001 19.713 3.029 C 19.662 3.021 19.623 3.0 19.564 3.0 L 10.433 3.0 C 9.859 3.0 9.641 3.401 9.945 3.889 L 10.794 5.257 C 11.099 5.743 10.879 6.144 10.304999 6.144 L 7.174 6.144 C 6.601 6.144 6.3789997 5.744 6.684 5.257 L 7.534 3.889 C 7.838 3.401 7.616 3.0 7.042 3.0 L 3.924 3.0 C 3.413 3.0 3.0 3.41 3.0 3.917 L 3.0 24.083 C 3.0 24.59 3.413 25.0 3.924 25.0 L 26.077 25.0 C 26.588 25.0 27.0 24.59 27.0 24.083 L 27.0 7.0 L 26.0 7.0 L 26.0 9.0 z M 14.2 20.516 C 14.2 20.626001 14.11 20.716002 14.0 20.716002 L 7.0 20.716002 C 6.89 20.716002 6.8 20.626001 6.8 20.516 L 6.8 19.0 C 6.8 18.89 6.8900003 18.8 7.0 18.8 L 9.05 18.8 L 9.05 11.797999 L 7.047 12.276999 C 7.031 12.28 7.016 12.282 7.0 12.282 C 6.955 12.282 6.912 12.266999 6.876 12.238999 C 6.828 12.201 6.8 12.143 6.8 12.082 L 6.8 10.469 C 6.8 10.389 6.848 10.316999 6.921 10.285 L 10.314 8.816 L 12.0 8.8 C 12.11 8.8 12.2 8.89 12.2 9.0 L 12.2 18.8 L 14.0 18.8 C 14.11 18.8 14.2 18.89 14.2 19.0 L 14.2 20.516 z " fill-opacity="0.3"/>
<path d="M 28.0 5.0 L 25.0 5.0 L 25.0 2.0 C 25.0 1.448 24.553 1.0 24.0 1.0 C 23.447 1.0 23.0 1.448 23.0 2.0 L 23.0 5.0 L 20.0 5.0 C 19.447 5.0 19.0 5.448 19.0 6.0 C 19.0 6.552 19.447 7.0 20.0 7.0 L 23.0 7.0 L 23.0 10.0 C 23.0 10.552 23.447 11.0 24.0 11.0 C 24.553 11.0 25.0 10.552 25.0 10.0 L 25.0 7.0 L 28.0 7.0 C 28.553 7.0 29.0 6.552 29.0 6.0 C 29.0 5.448 28.553 5.0 28.0 5.0 z M 26.0 10.0 C 26.0 11.103 25.104 12.0 24.0 12.0 C 23.668 12.0 23.36 11.911 23.084 11.768 C 23.236 12.148999 23.321 12.575999 23.321 13.051 C 23.321 14.795 22.396 15.709 20.984999 16.904999 C 19.675 18.012 18.835999 18.769 18.648998 19.800999 L 23.214998 19.800999 C 23.267998 19.800999 23.318998 19.821999 23.356998 19.859999 C 23.394 19.897999 23.415998 19.949 23.415998 20.001999 L 23.414999 21.518 C 23.414999 21.628 23.324999 21.718 23.214998 21.718 L 16.0 21.718 C 15.89 21.718 15.8 21.628 15.8 21.518 L 15.8 20.52 C 15.8 18.122 17.361 16.611 18.822 15.383 C 19.769001 14.588 20.343 14.04 20.343 13.147 C 20.343 12.488 20.072 11.702001 18.78 11.702001 C 18.166 11.702001 17.385 11.878 16.460001 12.226001 C 16.438002 12.235001 16.413 12.239 16.390001 12.239 C 16.35 12.239 16.310001 12.227 16.276001 12.203 C 16.222 12.165 16.19 12.104 16.19 12.038 L 16.19 10.49 C 16.19 10.4 16.25 10.322 16.336 10.297999 C 17.511 9.967999 18.566 9.799999 19.475 9.799999 C 20.554 9.799999 21.426 10.055999 22.074001 10.508999 C 22.03 10.346 22.0 10.177 22.0 10.0 L 22.0 8.0 L 20.0 8.0 C 18.896 8.0 18.0 7.103 18.0 6.0 C 18.0 4.995 18.746 4.169 19.713 4.0290003 C 19.662 4.021 19.623 4.0 19.564 4.0 L 10.433 4.0 C 9.859 4.0 9.641 4.401 9.945 4.889 L 10.794 6.257 C 11.099 6.743 10.879 7.144 10.304999 7.144 L 7.174 7.144 C 6.601 7.144 6.3789997 6.744 6.684 6.257 L 7.534 4.889 C 7.838 4.401 7.616 4.0 7.042 4.0 L 3.924 4.0 C 3.413 4.0 3.0 4.41 3.0 4.917 L 3.0 25.083 C 3.0 25.59 3.413 26.0 3.924 26.0 L 26.077 26.0 C 26.588 26.0 27.0 25.59 27.0 25.083 L 27.0 8.0 L 26.0 8.0 L 26.0 10.0 z M 14.2 21.516 C 14.2 21.626001 14.11 21.716002 14.0 21.716002 L 7.0 21.716002 C 6.89 21.716002 6.8 21.626001 6.8 21.516 L 6.8 20.0 C 6.8 19.89 6.8900003 19.8 7.0 19.8 L 9.05 19.8 L 9.05 12.797999 L 7.047 13.276999 C 7.031 13.28 7.016 13.282 7.0 13.282 C 6.955 13.282 6.912 13.266999 6.876 13.238999 C 6.828 13.201 6.8 13.143 6.8 13.082 L 6.8 11.469 C 6.8 11.389 6.848 11.316999 6.921 11.285 L 10.314 9.816 L 12.0 9.8 C 12.11 9.8 12.2 9.89 12.2 10.0 L 12.2 19.8 L 14.0 19.8 C 14.11 19.8 14.2 19.89 14.2 20.0 L 14.2 21.516 z " fill="#dedede"/>
</svg>
