<?xml version="1.0" encoding="UTF-8"?>
<svg xmlns="http://www.w3.org/2000/svg" xmlns:xlink="http://www.w3.org/1999/xlink" baseProfile="tiny" contentScriptType="text/ecmascript" contentStyleType="text/css" height="57px" preserveAspectRatio="xMidYMid meet" version="1.1" viewBox="0 0 67 57" width="67px" x="0px" y="0px" zoomAndPan="magnify">
<rect fill="#ffffff" fill-opacity="0.70588235" fill-rule="nonzero" height="48" ry="8.2174387" stroke="none" width="48" x="9.5" y="5.5"/>
<rect fill="#469fff" fill-opacity="0.58823529" fill-rule="nonzero" height="48" ry="8.2174387" stroke="none" width="48" x="9.5" y="5.5"/>
<path d="M 47.76574 14.449153 L 14.139832 14.449153 L 30.952784 28.205206 L 47.76574 14.449153 z M 43.944614 28.205206 C 45.298058 28.205206 46.588833 28.4788 47.76574 28.971724 L 47.76574 16.741829 L 30.952784 30.497885 L 14.139832 16.741829 L 14.139832 38.140133 C 14.139832 38.983837 14.824577 39.668583 15.668282 39.668583 L 34.139606 39.668583 C 34.061657 39.16878 34.00969 38.661335 34.00969 38.140133 C 34.00969 32.662167 38.466652 28.205204 43.94462 28.205204 z M 43.94462 29.733654 C 39.30195 29.733654 35.53814 33.497463 35.53814 38.14013 C 35.53814 42.7828 39.30195 46.546608 43.94462 46.546608 C 48.587288 46.546608 52.351097 42.7828 52.351097 38.14013 C 52.351097 33.49746 48.587288 29.733652 43.94462 29.733652 z M 45.09096 43.87029 C 45.09096 44.080452 44.919006 44.252403 44.708843 44.252403 L 43.180393 44.252403 C 42.97023 44.252403 42.79828 44.080456 42.79828 43.87029 L 42.79828 38.521477 C 42.79828 38.311314 42.626328 38.13936 42.41617 38.13936 L 41.26983 38.13936 C 41.059666 38.13936 40.88771 37.96741 40.88771 37.75725 L 40.88771 36.99379 C 40.88771 36.783627 41.059666 36.611675 41.26983 36.611675 L 44.708843 36.611675 C 44.919006 36.611675 45.09096 36.783627 45.09096 36.99379 L 45.09096 43.87029 z M 43.94462 35.0817 C 43.10091 35.0817 42.41617 34.396954 42.41617 33.554012 C 42.41617 32.710308 43.10091 32.026325 43.94462 32.026325 C 44.789085 32.026325 45.47307 32.710308 45.47307 33.554012 C 45.47307 34.396954 44.789085 35.0817 43.94462 35.0817 z " fill="#ffffff" fill-opacity="1" stroke-opacity="0.3"/>
<defs>
<linearGradient gradientUnits="userSpaceOnUse" x1="36" x2="36" xlink:actuate="onLoad" xlink:show="other" xlink:type="simple" y1="54" y2="12.0005">
<stop offset="0" stop-color="#d0cbc5"/>
<stop offset="0.5031" stop-color="#fafcef"/>
<stop offset="0.9693" stop-color="#ffffff"/>
<stop offset="1" stop-color="#ffffff"/>
</linearGradient>
</defs>
</svg>
