<?xml version="1.0" encoding="UTF-8"?>
<svg xmlns="http://www.w3.org/2000/svg" xmlns:xlink="http://www.w3.org/1999/xlink" baseProfile="tiny" contentScriptType="text/ecmascript" contentStyleType="text/css" height="70px" preserveAspectRatio="xMidYMid meet" version="1.1" viewBox="0 0 70 70" width="70px" x="0px" y="0px" zoomAndPan="magnify">
<rect fill="none" height="70" width="70"/>
<path d="M 40.637 44.701 C 40.366 43.619 40.16 42.525 40.549 42.162 C 42.586 40.399998 43.397 36.197 43.397 36.197 C 43.452 36.032997 43.51 35.885 43.559 35.729 C 44.560997 36.959 45.073997 34.077 45.487 32.758 C 45.92 31.354 46.11 30.444 46.11 30.444 C 46.28 29.03 45.201 29.451 45.201 29.451 L 45.116 29.537 C 45.271 27.566 45.848 26.359001 45.848 24.583 C 45.859 21.836 46.528 20.836 43.727 16.628 C 42.852 15.329 41.655003 15.109 36.683002 13.507 C 31.710003 11.905 31.010002 13.941 29.360003 13.741 C 27.714003 13.549 27.481003 14.214 27.168003 14.802 C 26.851004 15.392 27.168003 15.859 26.272003 15.893 C 25.366003 15.94 24.966003 16.628 24.966003 16.628 C 22.279003 20.918 23.283003 22.207 23.186003 24.95 C 23.136003 26.411001 23.377003 27.496 24.130003 29.502 L 24.058002 29.396 C 24.058002 29.396 23.005003 28.898 23.078003 30.328 C 23.078003 30.328 22.931004 30.766998 23.536003 32.672 C 23.883003 33.767002 24.153004 36.818 25.187004 35.850002 C 25.217005 35.963 25.260004 36.078003 25.300005 36.197002 C 25.300005 36.197002 26.107004 40.4 28.141005 42.162003 C 28.553005 42.547 28.297005 43.744003 28.004005 44.883003 C 27.891005 45.317 27.316006 48.285004 23.724005 49.719 C 23.724005 49.719 20.446005 50.985 17.138004 52.914 C 17.138004 52.914 14.927004 54.023003 14.466004 55.863003 L 14.410005 56.134003 C 16.290005 57.208004 18.500004 58.081 21.080006 58.747 C 27.376005 60.364002 31.715006 60.335003 34.653008 60.267002 C 36.601006 60.312 39.183006 60.328003 42.527008 59.871002 C 40.346 57.547 39.0 54.43 39.0 51.0 C 39.0 48.715 39.598 46.568 40.637 44.701 z M 52.0 40.0 C 45.925 40.0 41.0 44.926 41.0 51.0 C 41.0 57.074 45.925 62.0 52.0 62.0 C 58.075 62.0 63.0 57.074 63.0 51.0 C 63.0 44.926 58.075 40.0 52.0 40.0 z M 56.535 56.949 L 52.0 52.414 L 47.463 56.951 L 46.049 55.537 L 50.586 51.0 L 46.05 46.465 L 47.465 45.051 L 52.0 49.586 L 56.534 45.051 L 57.948 46.465 L 53.414 51.0 L 57.949 55.535 L 56.535 56.949 z " fill="#ffffff" fill-opacity="1" stroke-opacity="0.3"/>
<defs>
<linearGradient gradientUnits="userSpaceOnUse" x1="38.7041" x2="38.7041" y1="61" y2="11.8892">
<stop offset="0" stop-color="#d0cbc5"/>
<stop offset="0.5031" stop-color="#fafcef"/>
<stop offset="0.9693" stop-color="#ffffff"/>
<stop offset="1" stop-color="#ffffff"/>
</linearGradient>
</defs>
</svg>
