<?xml version="1.0" encoding="UTF-8"?>
<svg xmlns="http://www.w3.org/2000/svg" xmlns:xlink="http://www.w3.org/1999/xlink" baseProfile="tiny" contentScriptType="text/ecmascript" contentStyleType="text/css" height="57px" preserveAspectRatio="xMidYMid meet" version="1.1" viewBox="0 0 67 57" width="67px" x="0px" y="0px" zoomAndPan="magnify">
<rect fill="none" height="57" width="67"/>
<rect fill="none" height="46" width="46" x="10.5" y="5.5"/>
<path d="M 35.855 29.795 C 35.416 29.613 34.91 29.488 34.503 29.389 C 34.368 29.354 34.239 29.323 34.128 29.291 C 33.939 29.24 33.740997 29.215 33.538 29.215 C 32.920998 29.215 32.353996 29.449 32.019997 29.84 C 31.748997 30.158 31.642996 30.561 31.714996 31.004 C 31.808996 31.609 32.226997 31.947 32.591995 32.246 C 32.884995 32.486 33.138996 32.692997 33.230995 33.003998 C 33.371994 33.476997 33.279995 34.002 33.189995 34.51 C 33.166996 34.644997 33.142994 34.778 33.125996 34.905 C 33.033997 35.51 33.154995 36.286 33.244995 36.85 C 33.275993 37.046997 33.361996 37.399 33.601994 37.627 C 33.624992 37.647 33.650993 37.664 33.677994 37.68 L 33.89299 37.784 C 33.923992 37.8 33.956993 37.807 33.990993 37.811 C 34.004993 37.813 34.068993 37.817 34.082993 37.817 C 34.201992 37.817 34.32099 37.788 34.437992 37.731003 C 34.79299 37.557003 34.798992 37.301003 34.80099 37.163 C 34.80299 37.118004 34.80299 37.083 34.812992 37.044003 C 34.851994 36.890003 34.84999 36.728 34.84999 36.583004 C 34.847992 36.481003 34.84599 36.378 34.86199 36.317005 C 34.88499 36.235004 34.92099 36.16301 34.957993 36.08701 C 35.00099 35.997005 35.045994 35.903008 35.080994 35.798004 L 35.13599 35.638004 C 35.250996 35.28101 35.397995 34.835003 35.623993 34.611004 C 35.687992 34.545 35.78799 34.488003 35.893993 34.429005 C 36.127995 34.296005 36.418995 34.130005 36.547993 33.740005 C 36.604992 33.568005 36.60699 33.404007 36.608994 33.260006 C 36.608994 33.145004 36.608994 33.043007 36.64199 32.969006 C 36.69099 32.844006 36.748993 32.721004 36.805996 32.596004 C 37.119995 31.910004 37.512997 31.059004 36.627995 30.256004 C 36.439 30.08 36.186 29.932 35.855 29.795 z M 16.0 9.0 L 16.0 50.0 C 16.0 50.607 16.346 51.0 17.0 51.0 L 22.0 51.0 L 22.0 8.0 L 17.0 8.0 C 16.346 8.0 16.0 8.391 16.0 9.0 z M 38.033 22.932 C 37.818 22.053 35.121 21.961 35.006 21.955 L 34.922 21.955 C 34.506 21.955 34.135 22.043 33.772 22.127 C 33.647 22.156 33.52 22.188002 33.389 22.213 C 33.159 22.260002 32.914 22.287 32.696 22.287 C 32.262 22.287 31.938 22.187 31.786 22.006 C 31.729 21.94 31.645 21.897 31.557 21.893 L 31.537 21.893 C 31.454998 21.893 31.374998 21.924 31.314 21.981 C 29.367 23.836 28.294 26.331 28.294 29.001 C 28.294 29.147 28.301998 29.29 28.311998 29.433 L 28.322 29.575998 C 28.329998 29.704998 28.413998 29.815998 28.534998 29.860998 L 28.721 29.964998 C 29.054998 30.169998 29.276 30.307 29.748 30.307 C 29.852 30.307 29.973 30.301 30.113 30.287 C 30.599 30.238 31.49 30.152 31.558 29.475998 C 31.606998 28.978 31.158 28.579998 30.724 28.194998 C 30.494 27.989998 30.106998 27.647997 30.127998 27.501995 C 30.131998 27.464996 30.204 27.368998 30.443998 27.247995 C 30.683998 27.130997 30.957998 27.085997 31.242998 27.038998 C 31.655 26.974998 32.121998 26.897997 32.531998 26.577995 C 32.935997 26.263998 33.231 25.893995 33.517998 25.536997 C 33.969 24.972998 34.358 24.483995 35.094 24.296995 C 35.185997 24.275995 35.362 24.253998 35.581997 24.228996 C 36.635 24.097996 37.604996 23.943996 37.934 23.466995 C 38.047 23.305 38.08 23.119 38.033 22.932 z M 51.0 8.0 L 24.0 8.0 L 24.0 51.0 L 51.0 51.0 C 51.652 51.0 52.0 50.607 52.0 50.0 L 52.0 9.0 C 52.0 8.391 51.652 8.0 51.0 8.0 z M 38.0 40.0 C 31.934 40.0 27.0 35.066 27.0 29.0 C 27.0 22.936 31.934 18.0 38.0 18.0 C 44.064 18.0 49.0 22.936 49.0 29.0 C 49.0 35.066 44.064 40.0 38.0 40.0 z M 41.791 20.066 C 41.748 20.048 41.707 20.041 41.662 20.041 C 41.59 20.041 41.517 20.064 41.461 20.113 L 41.380997 20.177 C 41.233 20.318 41.150997 20.486 41.077995 20.634 C 41.040997 20.714 40.977997 20.845 40.94099 20.866 C 40.481995 20.915 40.006996 21.016 39.94099 21.403002 C 39.876995 21.801004 40.30199 22.089005 41.012993 22.421 C 41.201992 22.511002 41.37199 22.564 41.520992 22.612 C 41.87099 22.721 41.94099 22.743002 42.006992 23.175 C 42.02999 23.331 42.039993 23.542002 41.951992 23.646002 C 41.87599 23.734 41.68999 23.779 41.402992 23.779 C 41.19799 23.779 40.972992 23.758 40.74699 23.736002 L 40.269993 23.695002 C 40.10799 23.681002 39.96699 23.666002 39.835995 23.666002 C 39.423996 23.666002 39.105995 23.801004 38.73999 24.127005 C 38.397995 24.436005 37.819996 25.035004 37.798996 25.606005 C 37.761997 26.651005 38.556995 27.038002 39.189995 27.350002 C 39.459995 27.483002 39.712994 27.606005 39.890995 27.762005 C 40.009995 27.871002 40.10799 28.073004 40.203995 28.268003 C 40.279995 28.428003 40.35799 28.594004 40.463993 28.737003 C 40.64199 28.993004 40.791992 29.194004 41.06599 29.401005 C 41.194996 29.497004 41.327995 29.557005 41.444996 29.608004 C 41.653996 29.702003 41.72599 29.741005 41.762997 29.860004 C 41.838997 30.104004 41.668995 30.540005 41.546 30.860004 C 41.515 30.940004 41.484997 31.018003 41.462 31.085005 C 41.28 31.612003 41.329 32.077003 41.379997 32.528004 L 41.389996 32.610004 C 41.39199 32.631004 41.395996 32.655003 41.403996 32.676006 C 41.606995 33.293007 41.995995 33.385006 42.210995 33.385006 C 42.862995 33.385006 43.567993 32.537006 43.950996 31.750006 C 43.952995 31.748005 43.966995 31.721006 43.979996 31.693008 C 44.165997 31.267006 44.362995 31.076006 44.58699 30.857006 C 44.684994 30.759008 44.783993 30.662006 44.883995 30.550009 C 45.57299 29.777006 45.809994 29.155006 45.813995 28.091007 L 45.817997 27.896008 C 45.827995 27.583008 45.836 27.314009 45.512997 26.982008 C 45.307995 26.773008 45.041996 26.660007 44.81 26.560007 C 44.602997 26.474009 44.409996 26.390009 44.284996 26.257008 C 43.930996 25.888008 43.856995 25.327007 43.84399 25.028008 C 43.82299 24.565008 43.906994 24.487007 43.906994 24.487007 C 43.91299 24.485006 43.924995 24.485006 43.924995 24.485006 C 44.082996 24.485006 44.28799 24.553007 44.567997 24.684006 C 44.667995 24.727003 44.762997 24.776005 44.858997 24.821005 C 45.058 24.917006 45.256996 25.016005 45.477997 25.098003 C 45.563995 25.127005 45.656 25.157003 45.753 25.186005 C 45.969997 25.252005 46.237 25.332005 46.358 25.440004 C 46.419 25.491005 46.492996 25.516005 46.568996 25.516005 C 46.636997 25.516005 46.703995 25.495005 46.761997 25.453005 C 46.885 25.363005 46.926 25.199003 46.864 25.062004 C 45.857 22.807 44.057 21.031 41.791 20.066 z " fill="#dedede" fill-opacity="1" stroke-opacity="0.3"/>
<defs>
<linearGradient gradientUnits="userSpaceOnUse" x1="34" x2="34" xlink:actuate="onLoad" xlink:show="other" xlink:type="simple" y1="50" y2="7.0005">
<stop offset="0" stop-color="#d0cbc5"/>
<stop offset="0.5031" stop-color="#fafcef"/>
<stop offset="0.9693" stop-color="#ffffff"/>
<stop offset="1" stop-color="#ffffff"/>
</linearGradient>
</defs>
</svg>
