<?xml version="1.0" encoding="UTF-8"?>
<svg xmlns="http://www.w3.org/2000/svg" xmlns:xlink="http://www.w3.org/1999/xlink" baseProfile="tiny" contentScriptType="text/ecmascript" contentStyleType="text/css" height="30px" preserveAspectRatio="xMidYMid meet" version="1.1" viewBox="0 0 30 30" width="30px" x="0px" y="0px" zoomAndPan="magnify">
<path d="M 29.983 20.324 L 29.937 20.078 C 29.663 18.967 28.542 18.370998 28.474 18.338 C 27.179 17.573 25.912 17.074 25.863 17.055 C 25.752 17.01 25.654001 16.959 25.604 16.93 C 25.146 16.612 24.855 15.993 24.823 15.909 C 24.787 15.761001 24.763 15.654 24.749 15.576 C 25.257 14.978001 25.556 14.174 25.715 13.62 C 26.215 13.304 26.404 12.602 26.539 12.096 C 26.564 12.000999 26.588999 11.912 26.612 11.835 C 26.793 11.246 26.866999 10.86 26.879 10.789 C 26.942999 10.268 26.782999 9.924999 26.621 9.717999 C 26.627 9.690999 26.633 9.664 26.638 9.636999 C 26.709 9.296999 26.79 8.910999 26.79 8.444999 C 26.791 8.282999 26.799002 8.139998 26.805 8.004999 C 26.854 7.0479994 26.813 6.3589993 25.83 4.8689995 C 25.355 4.148999 24.771 3.9609995 23.359 3.5089993 L 22.663 3.2839994 C 22.076 3.093 21.564 3.0 21.1 3.0 C 20.479 3.0 20.067001 3.166 19.795 3.276 C 19.74 3.298 19.691 3.322 19.729 3.332 C 19.608 3.317 19.499 3.311 19.401001 3.311 C 18.399 3.311 18.042002 3.989 17.911001 4.243 C 17.516 4.39 17.238 4.668 17.108002 4.894 C 16.753002 5.471 16.544003 5.941 16.419003 6.361 L 16.218002 6.297 C 15.599 6.097 15.061 6.0 14.572 6.0 C 14.134 6.0 13.801 6.08 13.54 6.166 C 13.391 5.799 13.169 5.384 12.83 4.87 C 12.355 4.1499996 11.771 3.962 10.359 3.5099998 L 9.663 3.285 C 9.076 3.093 8.564 3.0 8.1 3.0 C 7.479 3.0 7.066 3.166 6.795 3.276 C 6.74 3.298 6.691 3.322 6.729 3.333 C 6.607 3.318 6.498 3.312 6.4 3.312 C 5.3980002 3.312 5.0410004 3.99 4.91 4.244 C 4.516 4.391 4.237 4.668 4.107 4.895 C 3.238 6.304 3.215 7.096 3.274 7.985 C 3.285 8.159 3.299 8.34 3.293 8.546 C 3.277 9.016 3.328 9.410999 3.438 9.825999 C 3.3339999 10.001999 3.251 10.2439995 3.25 10.565 C 3.23 10.808 3.27 11.176 3.469 11.818999 C 3.493 11.894 3.514 12.0 3.537 12.114 C 3.6339998 12.567 3.777 13.241 4.229 13.579 C 4.3840003 14.139001 4.685 14.977 5.205 15.579 C 5.18 15.707001 5.1419997 15.857 5.123 15.936001 C 4.993 16.461 4.6540003 16.838001 4.1270003 17.051 C 4.0740004 17.072 2.8070002 17.572 1.5740004 18.305 C 1.3670003 18.409 0.3170004 18.987 0.034000397 20.139 L 0.015000397 20.243 C -0.058999605 20.658 0.1340004 21.075 0.4990004 21.286 C 1.2860004 21.74 2.2110004 22.106998 3.2470002 22.377998 C 4.6150002 22.734999 5.7260003 22.88 6.629 22.943998 C 6.3760004 23.231998 6.1460004 23.597998 6.0340004 24.046999 L 6.0140004 24.155998 C 5.9400005 24.572998 6.135 24.990997 6.5020003 25.199999 C 7.3370004 25.676998 8.316 26.060999 9.415001 26.345999 C 11.68 26.932 13.35 27.0 14.41 27.0 C 14.665999 27.0 14.901999 26.996 15.078 26.991 C 15.296 26.996 15.532 27.0 15.789 27.0 C 16.848 27.0 18.518 26.932 20.781 26.346 C 21.806 26.08 22.691 25.737001 23.486 25.295 C 23.861 25.086 24.062 24.66 23.982 24.237 L 23.933 23.982 C 23.831001 23.571001 23.615 23.232 23.377 22.959 C 24.306002 22.902 25.480001 22.76 26.938002 22.379 C 27.904001 22.125 28.739002 21.796999 29.490002 21.376 C 29.862 21.166 30.061 20.744 29.983 20.324 z " fill-opacity="0.15"/>
<path d="M 28.966 19.317 C 28.793999 18.619 27.965 18.199 27.965 18.199 C 26.726 17.467 25.495 16.984 25.495 16.984 C 25.322 16.915998 25.171001 16.837 25.034 16.751 C 24.277 16.226 23.89 15.289999 23.852001 15.148 C 23.746 14.716 23.652 14.261 23.803001 14.116 C 24.568 13.446 24.872002 11.851 24.872002 11.851 C 24.892002 11.788 24.910002 11.73 24.933002 11.674 C 25.308002 12.139999 25.500002 11.045 25.656002 10.542999 C 25.818003 10.013 25.886002 9.666999 25.886002 9.666999 C 25.952002 9.128999 25.548002 9.286999 25.548002 9.286999 L 25.517002 9.321999 C 25.576002 8.572999 25.789001 8.114999 25.789001 7.4409986 C 25.794 6.397999 26.047 6.0169983 24.994001 4.4199986 C 24.668001 3.9249988 24.219002 3.8439987 22.351002 3.2349987 C 20.490002 2.6269987 20.224 3.3979988 19.605001 3.3249986 C 18.989002 3.2489986 18.903002 3.5029986 18.784002 3.7269986 C 18.663002 3.9489985 18.784002 4.1269984 18.446003 4.141999 C 18.107002 4.158999 17.958002 4.4199986 17.958002 4.4199986 C 17.700003 4.8369985 17.535002 5.1779985 17.429003 5.4739985 C 18.637003 5.8629985 19.244003 6.1109986 19.726002 6.8329983 C 20.800001 8.444998 20.845001 9.192998 20.791002 10.234999 C 20.783003 10.394999 20.776003 10.534999 20.775002 10.692999 C 20.775002 11.202999 20.686 11.617999 20.608002 11.983999 C 20.736002 12.150999 20.947002 12.558 20.869001 13.184999 C 20.850002 13.3029995 20.764002 13.719 20.579 14.316999 L 20.51 14.558999 C 20.354 15.135999 20.152 15.875999 19.604 16.25 C 19.425 16.846 19.114 17.645 18.61 18.26 C 18.626001 18.332 18.646 18.422 18.673 18.535 C 18.706001 18.617 19.004 19.22 19.448 19.525 C 19.491 19.55 19.587 19.598999 19.696 19.642 C 19.709 19.647 21.074999 20.175 22.484 20.997 C 23.522 20.984 24.889 20.88 26.682999 20.411 C 27.578999 20.175999 28.341 19.872 28.998 19.502998 L 28.966 19.317 z M 7.557 20.969 C 8.875 20.194 10.234 19.664 10.291 19.642 C 10.813001 19.434 11.143001 19.071001 11.269 18.564001 C 11.299 18.446001 11.323 18.346 11.34 18.264002 C 10.826 17.644001 10.5130005 16.818003 10.334 16.201002 C 9.837 15.803002 9.681 15.081002 9.575999 14.598002 C 9.547999 14.461002 9.528999 14.369002 9.507999 14.302002 C 9.315999 13.686002 9.238999 13.246002 9.268 12.913002 C 9.268 12.628002 9.330999 12.3600025 9.455999 12.128002 C 9.341 11.6760025 9.296 11.261003 9.310999 10.793002 C 9.318999 10.592002 9.305999 10.415002 9.293999 10.246002 C 9.226998 9.248002 9.252998 8.388002 10.203999 6.8630023 C 10.339998 6.6260023 10.641998 6.314002 11.078999 6.1380024 C 11.247998 5.8270025 11.605999 5.2740026 12.426998 5.1530023 C 12.313998 4.9360023 12.180998 4.702002 11.993999 4.419002 C 11.667998 3.9240022 11.218999 3.843002 9.350999 3.234002 C 7.489999 2.626002 7.223999 3.3970022 6.6049986 3.324002 C 5.99 3.249 5.904 3.503 5.785 3.728 C 5.664 3.9499998 5.785 4.128 5.447 4.143 C 5.108 4.159 4.959 4.42 4.959 4.42 C 3.953 6.049 4.326 6.539 4.292 7.58 C 4.273 8.134 4.362 8.546 4.647 9.31 L 4.616 9.268 C 4.616 9.268 4.222 9.080999 4.2520003 9.622 C 4.2520003 9.622 4.1970005 9.790999 4.4210005 10.514 C 4.5550003 10.93 4.6560006 12.087 5.0400004 11.721 C 5.0530005 11.764 5.0700006 11.809 5.0840006 11.853 C 5.0840006 11.853 5.3850007 13.448 6.1510005 14.118 C 6.3060007 14.264 6.2070007 14.719 6.1010003 15.15 C 6.057 15.315 5.8380003 16.441 4.4920006 16.986 C 4.4920006 16.986 3.2620006 17.468 2.0240006 18.201 C 2.0240006 18.201 1.1910007 18.621 1.0180006 19.319 L 1.0 19.421 C 1.704 19.827 2.534 20.159 3.501 20.411999 C 5.189 20.852999 6.498 20.970999 7.512 20.992998 C 7.526 20.986 7.549 20.973 7.557 20.969 z M 21.896 22.043 C 20.574 21.269999 19.261 20.761 19.261 20.761 C 19.076 20.69 18.914999 20.605999 18.769 20.515 C 17.962 19.96 17.549 18.973 17.508999 18.824 C 17.395998 18.368 17.294998 17.887 17.456 17.734 C 18.272 17.026999 18.597 15.342999 18.597 15.342999 C 18.618 15.276999 18.638 15.216 18.661 15.155999 C 19.060999 15.647999 19.265999 14.490999 19.432 13.961999 C 19.605 13.4019985 19.678 13.036999 19.678 13.036999 C 19.748 12.468999 19.317 12.635999 19.317 12.635999 L 19.283998 12.672998 C 19.346998 11.881998 19.574999 11.399999 19.574999 10.687999 C 19.579998 9.586999 19.849998 9.1849985 18.727 7.4989986 C 18.379 6.976999 17.899 6.891999 15.907999 6.2489986 C 13.922999 5.6069984 13.638999 6.4209986 12.978999 6.3429985 C 12.320999 6.2629986 12.23 6.5309987 12.101999 6.7679987 C 11.973 7.002999 12.101999 7.1909986 11.742999 7.205999 C 11.381999 7.223999 11.221999 7.498999 11.221999 7.498999 C 10.15 9.217999 10.546999 9.734999 10.510999 10.834 C 10.490998 11.419 10.584999 11.854 10.889998 12.66 L 10.856998 12.616 C 10.856998 12.616 10.436998 12.419001 10.4679985 12.989 C 10.4679985 12.989 10.4089985 13.167001 10.647999 13.93 C 10.790998 14.368 10.899999 15.59 11.308999 15.203 C 11.321999 15.248 11.340999 15.2960005 11.355999 15.342 C 11.355999 15.342 11.676999 17.026001 12.4939995 17.733 C 12.66 17.886 12.554999 18.367 12.440999 18.823 C 12.393999 18.997 12.161999 20.185 10.723999 20.761 C 10.723999 20.761 9.410999 21.27 8.091999 22.043 C 8.091999 22.043 7.202999 22.486 7.018999 23.223999 L 7.0 23.333 C 7.751 23.762001 8.637 24.112 9.668 24.379 C 12.188 25.031 13.924 25.015999 15.1 24.991 C 16.276001 25.015 18.01 25.031 20.531 24.379 C 21.486 24.131 22.3 23.810999 23.001 23.42 L 22.963999 23.224 C 22.78 22.486 21.896 22.043 21.896 22.043 z " fill-opacity="0.3"/>
<path d="M 28.966 20.317 C 28.793999 19.619 27.965 19.199 27.965 19.199 C 26.726 18.467 25.495 17.984 25.495 17.984 C 25.322 17.915998 25.171001 17.837 25.034 17.751 C 24.277 17.226 23.89 16.289999 23.852001 16.147999 C 23.746 15.715999 23.652 15.260999 23.803001 15.115999 C 24.568 14.445999 24.872002 12.850999 24.872002 12.850999 C 24.892002 12.787999 24.910002 12.729999 24.933002 12.673999 C 25.308002 13.139998 25.500002 12.044999 25.656002 11.542999 C 25.818003 11.013 25.886002 10.666999 25.886002 10.666999 C 25.952002 10.128999 25.548002 10.286999 25.548002 10.286999 L 25.517002 10.321999 C 25.576002 9.572999 25.789001 9.114999 25.789001 8.440998 C 25.794 7.397998 26.047 7.0169983 24.994001 5.419998 C 24.668001 4.9249983 24.219002 4.843998 22.351002 4.234998 C 20.490002 3.6269982 20.224 4.3979983 19.605001 4.3249984 C 18.989002 4.248998 18.903002 4.5029984 18.784002 4.7269983 C 18.663002 4.9489985 18.784002 5.1269984 18.446003 5.1419983 C 18.107002 5.1589985 17.958002 5.419998 17.958002 5.419998 C 17.700003 5.836998 17.535002 6.177998 17.429003 6.473998 C 18.637003 6.862998 19.244003 7.110998 19.726002 7.8329983 C 20.800001 9.444998 20.845001 10.192998 20.791002 11.234999 C 20.783003 11.394999 20.776003 11.534999 20.775002 11.692999 C 20.775002 12.202999 20.686 12.617999 20.608002 12.983999 C 20.736002 13.150999 20.947002 13.558 20.869001 14.184999 C 20.850002 14.3029995 20.764002 14.719 20.579 15.316999 L 20.51 15.558999 C 20.354 16.136 20.152 16.876999 19.604 17.25 C 19.425 17.846 19.114 18.645 18.61 19.26 C 18.626001 19.332 18.646 19.422 18.673 19.535 C 18.706001 19.617 19.004 20.22 19.448 20.525 C 19.491 20.55 19.587 20.598999 19.696 20.642 C 19.709 20.647 21.074999 21.175 22.484 21.997 C 23.522 21.984 24.889 21.88 26.682999 21.411 C 27.578999 21.175999 28.341 20.872 28.998 20.502998 L 28.966 20.317 z M 7.557 21.969 C 8.875 21.194 10.234 20.664 10.291 20.642 C 10.813001 20.434 11.143001 20.071001 11.269 19.564001 C 11.299 19.446001 11.323 19.346 11.34 19.264002 C 10.826 18.644001 10.5130005 17.818003 10.334 17.201002 C 9.837 16.803001 9.681 16.082003 9.575999 15.598002 C 9.547999 15.461002 9.528999 15.369002 9.507999 15.302002 C 9.315999 14.686002 9.238999 14.246002 9.268 13.913002 C 9.268 13.628002 9.330999 13.3600025 9.455999 13.128002 C 9.341 12.6760025 9.296 12.261003 9.310999 11.793002 C 9.318999 11.592002 9.305999 11.415002 9.293999 11.246002 C 9.226998 10.248002 9.252998 9.388002 10.203999 7.8630023 C 10.339998 7.6260023 10.641998 7.314002 11.078999 7.1380024 C 11.247998 6.8270025 11.605999 6.2740026 12.426998 6.1530023 C 12.313998 5.9360023 12.180998 5.702002 11.993999 5.419002 C 11.667998 4.924002 11.218999 4.8430023 9.350999 4.234002 C 7.489999 3.626002 7.223999 4.397002 6.6049986 4.3240023 C 5.99 4.249 5.904 4.503 5.785 4.728 C 5.664 4.9500003 5.785 5.1280003 5.447 5.143 C 5.108 5.159 4.959 5.42 4.959 5.42 C 3.953 7.049 4.326 7.539 4.292 8.58 C 4.273 9.134 4.362 9.546 4.647 10.309 L 4.6159997 10.267 C 4.6159997 10.267 4.2219996 10.08 4.252 10.621 C 4.252 10.621 4.197 10.79 4.421 11.5130005 C 4.555 11.929001 4.656 13.086 5.04 12.72 C 5.053 12.7630005 5.07 12.808001 5.084 12.852 C 5.084 12.852 5.385 14.4470005 6.151 15.117001 C 6.306 15.2630005 6.2070003 15.718 6.101 16.149 C 6.0569997 16.314001 5.838 17.44 4.4919996 17.985 C 4.4919996 17.985 3.2619996 18.467001 2.0239997 19.2 C 2.0239997 19.2 1.1909997 19.62 1.0179996 20.318 L 1.0 20.421 C 1.704 20.827 2.534 21.159 3.501 21.411999 C 5.189 21.852999 6.498 21.970999 7.512 21.992998 C 7.526 21.986 7.549 21.973 7.557 21.969 z M 21.896 23.043 C 20.574 22.269999 19.261 21.761 19.261 21.761 C 19.076 21.69 18.914999 21.605999 18.769 21.515 C 17.962 20.96 17.549 19.973 17.508999 19.824 C 17.395998 19.368 17.294998 18.887 17.456 18.734 C 18.272 18.026999 18.597 16.342999 18.597 16.342999 C 18.618 16.277998 18.638 16.214998 18.661 16.155998 C 19.060999 16.646997 19.265999 15.490998 19.432 14.961998 C 19.605 14.401998 19.678 14.036998 19.678 14.036998 C 19.748 13.468998 19.317 13.635998 19.317 13.635998 L 19.283998 13.672997 C 19.346998 12.881997 19.574999 12.399998 19.574999 11.687998 C 19.579998 10.586998 19.849998 10.184998 18.727 8.498998 C 18.379 7.976998 17.899 7.891998 15.907999 7.2489977 C 13.922999 6.6069975 13.638999 7.4209976 12.978999 7.3429976 C 12.320999 7.2629976 12.23 7.5309978 12.101999 7.7679977 C 11.973 8.002997 12.101999 8.190998 11.742999 8.205997 C 11.381999 8.223997 11.221999 8.498998 11.221999 8.498998 C 10.15 10.217998 10.546999 10.734998 10.510999 11.833998 C 10.490998 12.418998 10.584999 12.853998 10.889998 13.659998 L 10.856998 13.615998 C 10.856998 13.615998 10.436998 13.418999 10.4679985 13.988998 C 10.4679985 13.988998 10.4089985 14.166999 10.647999 14.929998 C 10.790998 15.367998 10.899999 16.589998 11.308999 16.203 C 11.321999 16.248 11.340999 16.296999 11.355999 16.342999 C 11.355999 16.342999 11.676999 18.026999 12.4939995 18.734 C 12.66 18.887 12.554999 19.368 12.440999 19.824 C 12.393999 19.998 12.161999 21.185999 10.723999 21.762 C 10.723999 21.762 9.410999 22.271 8.091999 23.043999 C 8.091999 23.043999 7.202999 23.487 7.018999 24.224998 L 7.0 24.333 C 7.751 24.762001 8.637 25.112 9.668 25.379 C 12.188 26.031 13.924 26.015999 15.1 25.991 C 16.276001 26.015 18.01 26.031 20.531 25.379 C 21.486 25.131 22.3 24.810999 23.001 24.42 L 22.963999 24.224 C 22.78 23.486 21.896 23.043 21.896 23.043 z " fill="#dedede"/>
<rect fill="none" height="30" width="30"/>
</svg>
