<?xml version="1.0" encoding="UTF-8"?>
<svg xmlns="http://www.w3.org/2000/svg" xmlns:xlink="http://www.w3.org/1999/xlink" baseProfile="tiny" contentScriptType="text/ecmascript" contentStyleType="text/css" height="30px" preserveAspectRatio="xMidYMid meet" version="1.1" viewBox="0 0 30 30" width="30px" x="0px" y="0px" zoomAndPan="magnify">
<path d="M 28.611 18.219 C 28.856 17.184 29.0 16.109 29.0 15.0 C 29.0 7.28 22.72 1.0 15.0 1.0 C 7.2800007 1.0 1.0 7.28 1.0 15.0 C 1.0 22.72 7.28 29.0 15.0 29.0 C 17.352 29.0 19.565 28.411 21.514 27.383 L 22.126 28.486 C 22.302 28.803 22.637 29.0 23.0 29.0 C 23.363 29.0 23.698 28.803 23.874 28.485 L 28.874 19.485 C 29.046001 19.175001 29.042 18.797 28.862001 18.493 C 28.798 18.383 28.709 18.295 28.611 18.219 z " fill-opacity="0.15" stroke-opacity="0.15"/>
<rect fill="none" height="30" width="30"/>
<path d="M 16.966 17.392 C 17.182 17.025 17.575 16.8 18.0 16.8 L 19.8 16.8 L 19.8 14.0 C 19.8 13.337 20.337 12.8 21.0 12.8 L 25.0 12.8 C 25.663 12.8 26.2 13.337 26.2 14.0 L 26.2 16.8 L 27.692001 16.8 C 27.893 15.898 28.0 14.962 28.0 14.0 C 28.0 6.82 22.18 1.0 15.0 1.0 C 7.8199997 1.0 2.0 6.82 2.0 14.0 C 2.0 21.18 7.82 27.0 15.0 27.0 C 17.107 27.0 19.084 26.479 20.843 25.588 L 16.951 18.583 C 16.744 18.211 16.75 17.758 16.966 17.392 z M 12.154 18.547 C 11.901 19.054 11.342 19.244001 11.392 20.17 C 11.473001 21.656 10.277 21.54 10.0 22.551 C 9.822 23.203001 9.624 23.697 9.511 23.957 C 8.702 23.51 7.9589996 22.959002 7.286 22.336 C 7.371 21.27 7.0769997 19.311 6.725 19.069 C 5.611 18.312 5.654 18.533 5.555 15.565001 C 5.502 13.919001 8.292999 14.387001 8.894 15.042001 C 9.47 15.668001 9.375 16.58 11.048 17.281 C 11.524 17.479 12.406 18.043 12.154 18.547 z M 11.251 5.66 C 10.657001 5.8729997 10.423 5.835 10.017 5.5639997 C 9.445 5.183 8.198 6.201 8.968 6.561 C 9.2300005 6.684 9.699 6.723 10.450001 6.979 C 11.640001 7.3910003 11.988001 8.1 11.297001 8.287 C 7.848001 9.219999 9.460001 10.297999 8.152 11.606 C 7.4800005 12.281 7.5270004 12.549 7.0510006 12.71 C 6.4680004 12.903 6.3750005 12.056 5.8260007 12.031 C 5.653001 12.021 4.375001 12.05 3.8030007 12.056 C 4.666001 7.0759997 8.768001 3.1919994 13.859 2.684 C 13.942 2.731 13.998 2.793 13.976 2.897 C 13.859 3.49 11.845 5.447 11.251 5.66 z M 16.784 9.486 C 16.793001 9.0060005 18.554 7.767 18.736 7.627 C 19.095 7.355 20.136 7.463 20.158 7.463 C 21.308 7.5 21.058 6.7209997 20.28 6.684 C 18.919 6.616 19.019001 5.902 19.003 5.686 C 18.985 5.471 19.2 4.924 20.25 4.896 C 20.492 4.891 21.231 4.861 21.771 4.88 C 23.769 6.369 25.255 8.496 25.941 10.955 C 25.644 10.86 25.33 10.8 25.0 10.8 L 21.885 10.8 C 21.989 10.085 21.471 10.026 20.26 9.685 C 19.134 9.368 18.078001 10.315001 17.165 10.312 C 16.759 10.312 16.778 9.967 16.784 9.486 z M 15.601 13.455 C 15.809 12.28 15.938 11.584 16.928999 11.344 C 17.353998 11.24 18.425999 11.092 19.426998 11.231 C 18.461 11.781 17.8 12.81 17.8 14.0 L 17.8 14.806 C 17.115 14.849999 16.48 15.132999 15.9609995 15.565 C 15.388 14.922 15.501 14.013 15.601 13.455 z M 25.0 14.0 L 21.0 14.0 L 21.0 18.0 L 18.0 18.0 L 23.0 27.0 L 28.0 18.0 L 25.0 18.0 L 25.0 14.0 z " fill-opacity="0.3" stroke-opacity="0.3"/>
<path d="M 16.966 18.392 C 17.182 18.025 17.575 17.8 18.0 17.8 L 19.8 17.8 L 19.8 15.0 C 19.8 14.337 20.337 13.8 21.0 13.8 L 25.0 13.8 C 25.663 13.8 26.2 14.337 26.2 15.0 L 26.2 17.8 L 27.692001 17.8 C 27.893 16.898 28.0 15.962 28.0 15.0 C 28.0 7.82 22.18 2.0 15.0 2.0 C 7.8199997 2.0 2.0 7.82 2.0 15.0 C 2.0 22.18 7.82 28.0 15.0 28.0 C 17.107 28.0 19.084 27.479 20.843 26.588 L 16.951 19.583 C 16.744 19.211 16.75 18.758 16.966 18.392 z M 12.154 19.547 C 11.901 20.054 11.342 20.244001 11.392 21.17 C 11.473001 22.656 10.277 22.54 10.0 23.551 C 9.822 24.203001 9.624 24.697 9.511 24.957 C 8.702 24.51 7.9589996 23.959002 7.286 23.336 C 7.371 22.27 7.0769997 20.311 6.725 20.069 C 5.611 19.312 5.654 19.533 5.555 16.565 C 5.502 14.919001 8.292999 15.387001 8.894 16.042 C 9.47 16.668 9.375 17.58 11.048 18.281 C 11.524 18.479 12.406 19.043 12.154 19.547 z M 11.251 6.66 C 10.657001 6.8729997 10.423 6.835 10.017 6.5639997 C 9.445 6.183 8.198 7.201 8.968 7.561 C 9.2300005 7.684 9.699 7.723 10.450001 7.979 C 11.640001 8.391 11.988001 9.1 11.297001 9.287 C 7.848001 10.219999 9.460001 11.297999 8.152 12.606 C 7.4800005 13.281 7.5270004 13.549 7.0510006 13.71 C 6.4680004 13.903 6.3750005 13.056 5.8260007 13.031 C 5.653001 13.021 4.375001 13.05 3.8030007 13.056 C 4.666001 8.076 8.768001 4.1919994 13.859 3.684 C 13.942 3.731 13.998 3.793 13.976 3.897 C 13.859 4.49 11.845 6.447 11.251 6.66 z M 16.784 10.486 C 16.793001 10.0060005 18.554 8.767 18.736 8.627 C 19.095 8.355 20.136 8.463 20.158 8.463 C 21.308 8.5 21.058 7.721 20.28 7.6840005 C 18.919 7.6160007 19.019001 6.9020004 19.003 6.6860003 C 18.985 6.471 19.2 5.924 20.25 5.896 C 20.492 5.891 21.231 5.861 21.771 5.88 C 23.769 7.369 25.255 9.496 25.941 11.955 C 25.644 11.86 25.33 11.8 25.0 11.8 L 21.885 11.8 C 21.989 11.085 21.471 11.026 20.26 10.685 C 19.134 10.368 18.078001 11.315001 17.165 11.312 C 16.759 11.312 16.778 10.967 16.784 10.486 z M 15.601 14.455 C 15.809 13.28 15.938 12.584 16.928999 12.344 C 17.353998 12.24 18.425999 12.092 19.426998 12.231 C 18.461 12.781 17.8 13.81 17.8 15.0 L 17.8 15.806 C 17.115 15.849999 16.48 16.133 15.9609995 16.565 C 15.388 15.922 15.501 15.013 15.601 14.455 z M 25.0 15.0 L 21.0 15.0 L 21.0 19.0 L 18.0 19.0 L 23.0 28.0 L 28.0 19.0 L 25.0 19.0 L 25.0 15.0 z " fill="#dedede"/>
</svg>
