<?xml version="1.0" encoding="UTF-8"?>
<svg xmlns="http://www.w3.org/2000/svg" xmlns:xlink="http://www.w3.org/1999/xlink" baseProfile="tiny" contentScriptType="text/ecmascript" contentStyleType="text/css" height="27px" preserveAspectRatio="xMidYMid meet" version="1.1" viewBox="0 0 27 27" width="27px" x="0px" y="0px" zoomAndPan="magnify">
<rect fill="none" height="27" width="27"/>
<path d="M 13.5 2.0 C 7.158 2.0 2.0 7.158 2.0 13.5 C 2.0 19.841 7.158 25.0 13.5 25.0 C 19.84 25.0 25.0 19.841 25.0 13.5 C 25.0 7.158 19.84 2.0 13.5 2.0 z M 11.294 17.064 L 9.645 17.064 L 9.645 13.219999 C 9.645 12.790999 9.553 12.499999 9.374001 12.344999 C 9.190001 12.19 8.972 12.110999 8.707001 12.110999 C 8.436001 12.110999 8.214001 12.164 8.043001 12.270999 C 7.870002 12.377999 7.7370014 12.525999 7.644001 12.714999 C 7.547001 12.902999 7.484001 13.124 7.445001 13.371999 C 7.4100018 13.622999 7.388001 13.888999 7.388001 14.166999 L 7.388001 17.063 L 5.738001 17.063 L 5.738001 10.853 L 7.2400007 10.853 L 7.303001 11.679 C 7.360001 11.574 7.442001 11.462 7.5430007 11.347 C 7.6430006 11.232 7.770001 11.124001 7.9190006 11.025001 C 8.066001 10.926001 8.238001 10.847 8.436001 10.786 C 8.633 10.723001 8.856001 10.695001 9.104001 10.695001 C 9.893001 10.695001 10.456001 10.910001 10.791001 11.341001 C 11.129002 11.772 11.298001 12.365001 11.298001 13.122001 L 11.294 17.064 L 11.294 17.064 z M 16.998 9.117 C 16.907 9.099 16.794 9.085 16.65 9.073 C 16.513 9.062 16.345 9.056 16.147999 9.056 C 15.751999 9.056 15.459999 9.157 15.272999 9.356999 C 15.084999 9.560999 14.987999 9.917999 14.987999 10.434999 L 14.987999 10.853999 L 16.63 10.853999 L 16.63 12.247999 L 14.987999 12.247999 L 14.987999 17.064 L 13.323999 17.064 L 13.323999 12.247999 L 12.242 12.244 L 12.242 10.851 L 13.323999 10.851 L 13.323999 10.384 C 13.323999 10.03 13.362999 9.689 13.436999 9.361 C 13.508999 9.034 13.636 8.745 13.817999 8.493 C 13.999999 8.244 14.243999 8.043 14.551999 7.896 C 14.858999 7.75 15.251999 7.674 15.725999 7.674 C 16.096998 7.674 16.401999 7.694 16.637999 7.729 C 16.877 7.768 17.044998 7.795 17.145998 7.821 L 16.998 9.117 z M 22.258 16.734 C 22.135 16.81 21.987 16.888 21.809 16.963 C 21.631 17.036 21.428 17.102 21.202 17.151 C 20.972 17.207998 20.715 17.231 20.434 17.231 C 19.41 17.231 18.633 16.942 18.112 16.353998 C 17.591 15.765998 17.331 14.965998 17.331 13.957998 C 17.331 13.473998 17.401 13.027998 17.547998 12.6259985 C 17.693 12.224998 17.898 11.8759985 18.163998 11.5929985 C 18.430998 11.302999 18.754995 11.082998 19.137997 10.925999 C 19.518995 10.768999 19.948996 10.692999 20.422997 10.692999 C 20.727997 10.692999 21.007996 10.726999 21.262997 10.796999 C 21.518995 10.866999 21.739996 10.945999 21.926996 11.036999 C 22.115995 11.127998 22.268995 11.215999 22.381996 11.302999 C 22.498997 11.387999 22.572996 11.447999 22.604996 11.480999 L 21.864996 12.612999 C 21.825996 12.589999 21.762997 12.548999 21.682997 12.490999 C 21.600996 12.433 21.498997 12.378999 21.384996 12.325999 C 21.272997 12.271999 21.141996 12.224999 20.997995 12.181999 C 20.853998 12.140999 20.701998 12.121999 20.545998 12.121999 C 20.079998 12.121999 19.704 12.270999 19.419998 12.576999 C 19.138 12.882998 18.995 13.340999 18.995 13.957998 C 18.995 14.598998 19.131998 15.0669985 19.407 15.361999 C 19.682 15.657999 20.078 15.802999 20.596 15.802999 C 20.94 15.802999 21.221 15.758999 21.432 15.666999 C 21.647 15.577999 21.811 15.495998 21.925 15.420999 L 22.557 16.543999 C 22.479 16.592 22.382 16.657 22.258 16.734 z " fill="#dedede" fill-opacity="1"/>
<defs>
<linearGradient gradientTransform="matrix(1 0 0 -1 -249.4805 -346.0195)" gradientUnits="userSpaceOnUse" x1="262.9805" x2="262.9805" xlink:actuate="onLoad" xlink:show="other" xlink:type="simple" y1="-371.0195" y2="-348.0195">
<stop offset="0" stop-color="#d0cbc5"/>
<stop offset="1" stop-color="#fcfcf9"/>
</linearGradient>
</defs>
</svg>
