<?xml version="1.0" encoding="UTF-8"?>
<svg xmlns="http://www.w3.org/2000/svg" xmlns:xlink="http://www.w3.org/1999/xlink" baseProfile="tiny" contentScriptType="text/ecmascript" contentStyleType="text/css" height="96px" preserveAspectRatio="xMidYMid meet" version="1.1" viewBox="0 0 96 96" width="96px" x="0px" y="0px" zoomAndPan="magnify">
<defs>
<linearGradient>
<stop offset="0" stop-color="#83909e" stop-opacity="1"/>
<stop offset="1" stop-color="#6e7d8d" stop-opacity="1"/>
</linearGradient>
<linearGradient gradientTransform="matrix(0,1,-1,0,96,0)" gradientUnits="userSpaceOnUse" id="linearGradient3837" x1="8" x2="88" y1="48" y2="48">
<stop offset="0" stop-color="#83909e" stop-opacity="1"/>
<stop offset="1" stop-color="#6e7d8d" stop-opacity="1"/>
</linearGradient>
</defs>
<rect fill="none" height="96" width="96"/>
<path d="M 88.0 49.0 C 88.0 78.635 77.637 89.0 48.0 89.0 C 18.365 89.0 8.0 78.635 8.0 49.0 C 8.0 19.367 18.365 9.0 48.0 9.0 C 77.637 9.0 88.0 19.367 88.0 49.0 z " fill-opacity="0.4" stroke-opacity="0.4"/>
<linearGradient gradientUnits="userSpaceOnUse" x1="47.9995" x2="47.9995" y1="6.8105" y2="84.6841">
<stop offset="0" stop-color="#a7b7c2"/>
<stop offset="1" stop-color="#555e70"/>
</linearGradient>
<path d="M 48.0 88.0 C 18.365 88.0 8.0 77.637 8.0 48.0 C 8.0 18.365 18.365 8.0 48.0 8.0 C 77.633 8.0 88.0 18.365 88.0 48.0 C 88.0 77.637 77.633 88.0 48.0 88.0 z " fill="url(#linearGradient3837)" fill-opacity="1"/>
<linearGradient gradientUnits="userSpaceOnUse" id="SVGID_2_" x1="47.9995" x2="47.9995" y1="8.2534" y2="87.4985">
<stop offset="0" stop-color="#ffffff"/>
<stop offset="1" stop-color="#ffffff" stop-opacity="0"/>
</linearGradient>
<path d="M 48.0 8.0 C 18.365 8.0 8.0 18.367 8.0 48.0 C 8.0 77.635 18.365 88.0 48.0 88.0 C 77.637 88.0 88.0 77.635 88.0 48.0 C 88.0 18.367 77.637 8.0 48.0 8.0 z M 48.0 87.0 C 18.842 87.0 9.0 77.158 9.0 48.0 C 9.0 18.842005 18.842 9.0 48.0 9.0 C 77.158005 9.0 87.0 18.842 87.0 48.0 C 87.0 77.158005 77.158 87.0 48.0 87.0 z " fill="url(#SVGID_2_)" fill-opacity="0.25" stroke-opacity="0.25"/>
<path d="M 44.813 81.0 C 42.415 81.0 40.354 79.314 39.803 76.902 L 39.346 74.587 C 38.272 74.22 37.219 73.783 36.201 73.283 L 34.336 74.533 C 33.389 75.13 32.404 75.424 31.387 75.424 C 30.016 75.424 28.738998 74.897 27.787 73.940994 L 23.350998 69.506 C 21.641998 67.796 21.381998 65.139 22.721998 63.041996 L 24.020998 61.101 C 23.520998 60.086 23.084995 59.034996 22.718 57.962 L 20.516998 57.526997 C 18.024998 56.956997 16.303999 54.887997 16.303999 52.49 L 16.303999 46.203 C 16.303999 43.801 17.992 41.74 20.405998 41.191 L 22.725998 40.732 C 23.090998 39.663 23.527 38.614 24.024998 37.601997 L 22.768995 35.721996 C 21.401997 33.570995 21.647997 30.890997 23.350998 29.186996 L 27.795998 24.741997 C 28.736998 23.792995 30.012997 23.267998 31.381998 23.267998 C 32.396 23.267998 33.387997 23.558 34.253 24.107998 L 36.218 25.421995 C 37.227997 24.926996 38.273 24.493998 39.337 24.130997 L 39.775 21.905996 C 40.346996 19.413996 42.415997 17.693996 44.811996 17.693996 L 51.1 17.693996 C 53.497997 17.693996 55.559 19.376995 56.11 21.785995 L 56.577 24.137997 C 57.64 24.501995 58.681 24.934996 59.684 25.427994 L 61.577 24.158993 C 62.501 23.570992 63.515 23.266993 64.528 23.266993 C 65.897 23.266993 67.173 23.792992 68.122 24.747992 L 72.560005 29.185991 C 74.261 30.877993 74.52901 33.52899 73.20601 35.627995 L 71.87601 37.616993 C 72.37001 38.62699 72.80401 39.66799 73.16701 40.724995 L 75.39701 41.164993 C 77.88901 41.727993 79.61001 43.796993 79.61001 46.199993 L 79.61001 52.48699 C 79.61001 54.88399 77.92601 56.944992 75.51601 57.49699 L 73.17601 57.960995 C 72.81101 59.027996 72.37701 60.073994 71.88301 61.082996 L 73.14301 62.965996 C 74.51001 65.117 74.266014 67.797 72.55901 69.503 L 68.11401 73.946 C 67.17101 74.896 65.89501 75.421 64.52602 75.421 C 63.522015 75.421 62.536015 75.135994 61.674015 74.595 L 59.703014 73.274 C 58.687016 73.775 57.639015 74.212006 56.570015 74.578 L 56.136017 76.783005 C 55.568 79.279 53.5 81.0 51.1 81.0 L 44.813 81.0 z M 47.947 47.342 C 46.836 47.342 45.928997 48.247 45.928997 49.36 C 45.928997 50.47 46.834995 51.374 47.947 51.374 C 49.059 51.374 49.961 50.471 49.961 49.36 C 49.961 48.247 49.059 47.342 47.947 47.342 L 47.947 47.342 z " fill-opacity="0.02" stroke-opacity="0.02"/>
<path d="M 44.813 78.0 C 43.823 78.0 42.965 77.274 42.727 76.234 L 41.938 72.237 C 39.86 71.69 37.877 70.869 36.03 69.787 L 32.667 72.041 C 32.259 72.297 31.825 72.424 31.388 72.424 C 30.824 72.424 30.3 72.212006 29.917 71.82601 L 25.474 67.385 C 24.769 66.679 24.676998 65.558 25.252998 64.657005 L 27.519 61.270004 C 26.435 59.42001 25.613 57.44 25.07 55.367004 L 21.099 54.583004 C 20.030998 54.338005 19.306 53.480003 19.306 52.490005 L 19.306 46.203007 C 19.306 45.210007 20.033 44.35301 21.072 44.118008 L 25.076 43.326008 C 25.621 41.25601 26.443 39.278008 27.523 37.432007 L 25.265 34.055008 C 24.679 33.132008 24.771002 32.01101 25.474 31.308008 L 29.919 26.863008 C 30.3 26.48001 30.821 26.26801 31.384 26.26801 C 31.827002 26.26801 32.263 26.39601 32.646 26.63901 L 36.048 28.91701 C 37.894 27.84001 39.868 27.022009 41.933 26.47901 L 42.722 22.48701 C 42.966 21.42001 43.824 20.69501 44.814 20.69501 L 51.1 20.69501 C 52.09 20.69501 52.948 21.42001 53.185997 22.45801 L 53.980995 26.48601 C 56.041996 27.029009 58.011993 27.84601 59.855995 28.92401 L 63.24699 26.65301 C 63.64899 26.397009 64.08699 26.26801 64.52799 26.26801 C 65.091995 26.26801 65.61199 26.48001 65.994995 26.86501 L 70.438 31.30801 C 71.141 32.00701 71.23499 33.12701 70.66699 34.03301 L 68.37999 37.446007 C 69.455986 39.29001 70.27599 41.261005 70.81899 43.322006 L 74.81699 44.112007 C 75.883 44.35301 76.60999 45.211006 76.60999 46.203007 L 76.60999 52.490005 C 76.60999 53.480007 75.884995 54.338005 74.84599 54.576004 L 70.826 55.371 C 70.281 57.442 69.463 59.417004 68.38699 61.258003 L 70.65099 64.639 C 71.23499 65.56 71.14299 66.681 70.438 67.385 L 65.993 71.828 C 65.612 72.211006 65.090996 72.424 64.52599 72.424 L 64.52599 72.424 C 64.08699 72.424 63.652992 72.297005 63.27199 72.05801 L 59.87599 69.781006 C 58.02999 70.86301 56.05199 71.686005 53.977993 72.23301 L 53.194992 76.20601 C 52.949 77.274 52.09 78.0 51.1 78.0 L 44.813 78.0 z M 47.947 44.342 C 45.181 44.342 42.928997 46.593 42.928997 49.36 C 42.928997 52.125 45.180996 54.374 47.947 54.374 C 50.713 54.374 52.961 52.125 52.961 49.36 C 52.961 46.593 50.713 44.342 47.947 44.342 L 47.947 44.342 z " fill-opacity="0.15" stroke-opacity="0.15"/>
<path d="M 74.621 45.094 L 72.746 44.723003 L 70.064 44.194004 L 70.001 44.180004 C 69.431 41.754005 68.472 39.477005 67.192 37.418003 L 67.233 37.355003 L 68.753 35.089005 L 69.817 33.499004 C 70.116005 33.024006 70.116005 32.399006 69.72901 32.015003 L 67.51 29.794004 L 67.504005 29.790005 L 65.283005 27.569002 C 64.898 27.182005 64.273 27.182005 63.801006 27.483002 L 62.213005 28.547 L 59.943005 30.067 L 59.880005 30.108002 C 57.82301 28.829002 55.546005 27.870005 53.118004 27.301004 L 53.106003 27.235004 L 52.577003 24.557005 L 52.208004 22.680002 C 52.083004 22.135002 51.640003 21.694002 51.097004 21.694002 L 47.958004 21.694002 L 47.950005 21.694002 L 44.80901 21.694002 C 44.264008 21.694002 43.82301 22.135002 43.69801 22.680002 L 43.327007 24.557005 L 42.800007 27.235004 L 42.786007 27.296003 C 40.35801 27.864004 38.077007 28.821005 36.015007 30.101004 L 35.96201 30.066004 L 33.694004 28.548004 L 32.106003 27.484003 C 31.631002 27.183004 31.006002 27.183004 30.622004 27.570004 L 28.401005 29.791006 L 28.4 29.795 L 26.179 32.016 C 25.792 32.403 25.792 33.025997 26.093 33.5 L 27.155998 35.09 L 28.676 37.358 L 28.707 37.405003 C 27.422 39.468 26.461 41.753 25.891 44.184 L 25.846 44.194 L 23.168 44.723 L 21.290998 45.094 C 20.745998 45.217 20.304998 45.657997 20.304998 46.203 L 20.304998 49.344 L 20.304998 49.351997 L 20.304998 52.490997 C 20.304998 53.038 20.745998 53.476997 21.290998 53.601997 L 23.168 53.970997 L 25.846 54.501995 L 25.884998 54.509995 C 26.453 56.94799 27.413998 59.234993 28.703 61.300995 L 28.676 61.335995 L 27.155998 63.605995 L 26.093 65.19599 C 25.791998 65.66699 25.791998 66.29199 26.179 66.67799 L 28.4 68.897 L 28.404 68.90299 L 30.625 71.121994 C 31.01 71.508995 31.635 71.508995 32.109 71.21199 L 33.699 70.14599 L 35.965 68.62599 L 36.0 68.602 C 38.068 69.891 40.357 70.85 42.795 71.42 L 42.803 71.455 L 43.33 74.137 L 43.700996 76.012 C 43.826 76.559 44.268 77.0 44.813 77.0 L 47.954 77.0 L 47.962 77.0 L 51.1 77.0 C 51.643 77.0 52.086 76.559 52.211 76.012 L 52.58 74.137 L 53.108997 71.455 L 53.118996 71.416 C 55.552994 70.844 57.837997 69.883 59.899994 68.596 L 59.944992 68.625 L 62.214993 70.145 L 63.802994 71.211 C 64.27599 71.508 64.90099 71.508 65.284996 71.121 L 67.506 68.902 L 67.51199 68.896 L 69.730995 66.677 C 70.118 66.29 70.118 65.665 69.81899 65.195 L 68.75499 63.605 L 67.23499 61.335 L 67.202 61.284 C 68.48499 59.223 69.44 56.942 70.008995 54.513 L 70.065994 54.501 L 72.74799 53.97 L 74.62299 53.601 C 75.16799 53.476 75.61099 53.037003 75.61099 52.49 L 75.61099 49.351 L 75.61099 49.343 L 75.61099 46.202003 C 75.609 45.658 75.166 45.217 74.621 45.094 z M 47.947 55.373 C 44.629 55.373 41.928997 52.676003 41.928997 49.359 C 41.928997 46.039 44.628 43.341 47.947 43.341 C 51.263 43.341 53.961 46.038 53.961 49.359 C 53.961 52.676 51.264 55.373 47.947 55.373 z " fill-opacity="0.2" stroke-opacity="0.2"/>
<linearGradient gradientUnits="userSpaceOnUse" x1="47.9565" x2="47.9565" y1="36.2788" y2="68.5307">
<stop offset="0" stop-color="#ffffff"/>
<stop offset="0.5743" stop-color="#b1b1b1"/>
<stop offset="1" stop-color="#ffffff"/>
</linearGradient>
<path d="M 74.621 44.035 L 72.746 43.664 L 70.064 43.135 L 70.001 43.121 C 69.431 40.695004 68.472 38.418003 67.192 36.359 L 67.233 36.296 L 68.753 34.030003 L 69.817 32.440002 C 70.116005 31.965002 70.116005 31.340002 69.72901 30.956003 L 67.51 28.735004 L 67.504005 28.731005 L 65.283005 26.510002 C 64.898 26.123005 64.273 26.123005 63.801006 26.424002 L 62.213005 27.488 L 59.943005 29.008 L 59.880005 29.049002 C 57.82301 27.770002 55.546005 26.811 53.118004 26.242002 L 53.106003 26.176004 L 52.58 23.5 L 52.211 21.623 C 52.086 21.078 51.643 20.637 51.1 20.637 L 47.961 20.637 L 47.953003 20.637 L 44.812004 20.637 C 44.26701 20.637 43.826004 21.078 43.701004 21.623 L 43.33 23.5 L 42.803 26.178 L 42.789 26.239 C 40.361 26.807 38.08 27.764 36.018 29.044 L 35.965 29.009 L 33.697 27.491 L 32.108997 26.427002 C 31.633995 26.126 31.008995 26.126 30.624998 26.513002 L 28.403996 28.734003 L 28.4 28.736 L 26.179 30.957 C 25.792 31.344 25.792 31.967 26.093 32.441 L 27.155998 34.031 L 28.676 36.299004 L 28.707 36.346004 C 27.422 38.409004 26.461 40.694004 25.891 43.125004 L 25.846 43.135 L 23.168 43.664 L 21.290998 44.035 C 20.745998 44.158 20.304998 44.599 20.304998 45.144 L 20.304998 48.285 L 20.304998 48.293 L 20.304998 51.432 C 20.304998 51.979 20.745998 52.418 21.290998 52.543 L 23.168 52.912 L 25.846 53.442997 L 25.884998 53.450996 C 26.453 55.888996 27.413998 58.175995 28.703 60.241997 L 28.676 60.276997 L 27.155998 62.546997 L 26.093 64.13699 C 25.791998 64.607994 25.791998 65.232994 26.179 65.618996 L 28.4 67.838 L 28.404 67.843994 L 30.625 70.063 C 31.01 70.45 31.635 70.45 32.109 70.15299 L 33.699 69.08699 L 35.965 67.56699 L 36.0 67.543 C 38.068 68.832 40.357 69.791 42.795 70.361 L 42.803 70.396 L 43.33 73.078 L 43.700996 74.953 C 43.825996 75.5 44.267 75.941 44.811996 75.941 L 47.952995 75.941 L 47.960995 75.941 L 51.1 75.941 C 51.643 75.941 52.086 75.5 52.211 74.953 L 52.58 73.078 L 53.108997 70.396 L 53.118996 70.357 C 55.552994 69.785 57.837997 68.824005 59.899994 67.537 L 59.944992 67.566 L 62.214993 69.086 L 63.802994 70.152 C 64.27599 70.449 64.90099 70.449 65.284996 70.06201 L 67.506 67.843 L 67.51199 67.837006 L 69.730995 65.618004 C 70.118 65.231 70.118 64.606 69.81899 64.136 L 68.75499 62.546 L 67.23499 60.276 L 67.202 60.225 C 68.48499 58.164 69.44 55.883003 70.008995 53.454 L 70.065994 53.442 L 72.74799 52.911003 L 74.62299 52.542004 C 75.16799 52.417004 75.61099 51.978004 75.61099 51.431004 L 75.61099 48.292004 L 75.61099 48.284004 L 75.61099 45.143005 C 75.609 44.6 75.166 44.158 74.621 44.035 z M 47.947 56.658 C 43.334 56.658 39.586 52.91 39.586 48.301003 C 39.586 43.69 43.334 39.94 47.947 39.94 C 52.556 39.94 56.304 43.69 56.304 48.301003 C 56.305 52.91 52.557 56.658 47.947 56.658 z " fill="#dfdfdf" fill-opacity="1"/>
<linearGradient gradientUnits="userSpaceOnUse" id="SVGID_4_" x1="47.9458" x2="47.9458" y1="27.6743" y2="60.8341">
<stop offset="0" stop-color="#ffffff"/>
<stop offset="0.3718" stop-color="#e9e9ea"/>
<stop offset="1" stop-color="#bbbdbf"/>
</linearGradient>
<path d="M 47.947 34.234 C 40.178997 34.234 33.883 40.533 33.883 48.300003 C 33.883 56.066 40.18 62.363003 47.947 62.363003 C 55.713997 62.363003 62.01 56.066 62.01 48.301 C 62.01 40.533 55.715 34.234 47.947 34.234 z M 47.947 58.777 C 42.168 58.777 37.468 54.078 37.468 48.3 C 37.468 42.521 42.167 37.82 47.947 37.82 C 53.722 37.82 58.424 42.521 58.424 48.3 C 58.424 54.078 53.723 58.777 47.947 58.777 z " fill="url(#SVGID_4_)"/>
<linearGradient gradientUnits="userSpaceOnUse" x1="47.9458" x2="47.9458" y1="36.2773" y2="68.5297">
<stop offset="0" stop-color="#ffffff"/>
<stop offset="0.5743" stop-color="#b1b1b1"/>
<stop offset="1" stop-color="#ffffff"/>
</linearGradient>
<path d="M 47.947 34.234 C 40.178997 34.234 33.883 40.533 33.883 48.300003 C 33.883 56.066 40.18 62.363003 47.947 62.363003 C 55.713997 62.363003 62.01 56.066 62.01 48.301 C 62.01 40.533 55.715 34.234 47.947 34.234 z M 47.947 57.828 C 42.692997 57.828 38.418 53.555 38.418 48.301 C 38.418 43.045 42.693 38.769997 47.947 38.769997 C 53.198997 38.769997 57.476 43.045 57.476 48.300995 C 57.477 53.555 53.199 57.828 47.947 57.828 z " fill="#f6f6f6" fill-opacity="1"/>
<linearGradient gradientUnits="userSpaceOnUse" x1="47.9478" x2="47.9478" y1="56.874" y2="33.7987">
<stop offset="0" stop-color="#ffffff"/>
<stop offset="1" stop-color="#1f191a"/>
</linearGradient>
<path d="M 47.947 39.777 C 43.246 39.777 39.424 43.601 39.424 48.3 C 39.424 52.998997 43.246 56.82 47.947 56.82 C 52.646 56.82 56.469997 53.0 56.469997 48.3 C 56.469997 43.6 52.646 39.777 47.947 39.777 z M 47.947 54.115 C 44.738 54.115 42.129 51.506 42.129 48.301003 C 42.129 45.092003 44.738 42.483 47.947 42.483 C 51.152 42.483 53.763 45.092003 53.763 48.301003 C 53.764 51.506 51.152 54.115 47.947 54.115 z " fill="#959595" fill-opacity="1"/>
<linearGradient gradientUnits="userSpaceOnUse" x1="47.9565" x2="47.9565" y1="25.6919" y2="117.3984">
<stop offset="0" stop-color="#ffffff"/>
<stop offset="0.5743" stop-color="#b2b2b2"/>
<stop offset="1" stop-color="#ffffff"/>
</linearGradient>
<linearGradient gradientUnits="userSpaceOnUse" x1="47.9468" x2="47.9468" y1="61.8896" y2="6.8529">
<stop offset="0" stop-color="#ffffff"/>
<stop offset="1" stop-color="#1f191a"/>
</linearGradient>
<rect fill="none" height="80" width="80" x="8" y="8"/>
</svg>
