<?xml version="1.0" encoding="UTF-8"?>
<svg xmlns="http://www.w3.org/2000/svg" xmlns:xlink="http://www.w3.org/1999/xlink" baseProfile="tiny" contentScriptType="text/ecmascript" contentStyleType="text/css" height="57px" preserveAspectRatio="xMidYMid meet" version="1.1" viewBox="0 0 67 57" width="67px" x="0px" y="0px" zoomAndPan="magnify">
<rect fill="#ffffff" fill-opacity="0.70588235" fill-rule="nonzero" height="48" ry="8.2174387" stroke="none" width="48" x="9.5" y="4.5"/>
<rect fill="#f6da42" fill-opacity="0.58823532" fill-rule="nonzero" height="48" ry="8.2174387" stroke="none" width="48" x="9.5" y="4.5"/>
<g>
<rect fill="none" height="57" width="67"/>
</g>
<g>
<rect fill="none" height="46" width="46" x="10.5" y="5.5"/>
</g>
<path d="M 33.499996 32.857616 C 36.712135 32.857616 39.316456 30.253296 39.316456 27.041157 L 39.316456 18.31646 C 39.316456 15.10432 36.712135 12.5 33.499996 12.5 C 30.287851 12.5 27.683537 15.104321 27.683537 18.316462 L 27.683537 27.041157 C 27.683537 30.253296 30.287851 32.857616 33.499996 32.857616 z M 43.315277 21.951752 C 42.31121 21.951752 41.49763 22.76533 41.49763 23.769396 L 41.49763 27.041157 C 41.49763 31.450762 37.909607 35.038795 33.5 35.038795 C 29.090391 35.038795 25.502363 31.450764 25.502363 27.04116 L 25.502363 23.769402 C 25.502363 22.765331 24.688786 21.951756 23.68472 21.951756 C 22.680656 21.951756 21.867077 22.765331 21.867077 23.769402 L 21.867077 27.04116 C 21.867077 32.720207 25.9386 37.44099 31.318829 38.462513 L 31.318829 41.582317 L 25.502369 41.582317 L 25.502369 44.5 L 41.49764 44.5 L 41.49764 41.582317 L 35.681175 41.582317 L 35.681175 38.462513 C 41.0614 37.44099 45.132923 32.720207 45.132923 27.04116 L 45.132923 23.769402 C 45.132923 22.765335 44.319347 21.951756 43.31528 21.951756 z " fill="#ffffff" fill-opacity="1" stroke-opacity="0.3"/>
<defs>
<linearGradient gradientUnits="userSpaceOnUse" x1="34" x2="34" xlink:actuate="onLoad" xlink:show="other" xlink:type="simple" y1="51.0127" y2="7.0005">
<stop offset="0" stop-color="#d0cbc5"/>
<stop offset="0.5031" stop-color="#fafcef"/>
<stop offset="0.9693" stop-color="#ffffff"/>
<stop offset="1" stop-color="#ffffff"/>
</linearGradient>
</defs>
</svg>
