<?xml version="1.0" encoding="UTF-8"?>
<svg xmlns="http://www.w3.org/2000/svg" xmlns:xlink="http://www.w3.org/1999/xlink" baseProfile="tiny" contentScriptType="text/ecmascript" contentStyleType="text/css" height="57px" preserveAspectRatio="xMidYMid meet" version="1.1" viewBox="0 0 67 57" width="67px" x="0px" y="0px" zoomAndPan="magnify">
<g>
<rect fill="none" height="57" width="67"/>
</g>
<g>
<rect fill="none" height="46" width="46" x="10.5" y="5.5"/>
</g>
<rect fill="none" height="44" width="44" x="12" y="7"/>
<defs>
<linearGradient gradientUnits="userSpaceOnUse" x1="33.9995" x2="33.9995" xlink:actuate="onLoad" xlink:show="other" xlink:type="simple" y1="50.4717" y2="7.5278">
<stop offset="0" stop-color="#d0cbc5"/>
<stop offset="0.5031" stop-color="#fafcef"/>
<stop offset="0.9693" stop-color="#ffffff"/>
<stop offset="1" stop-color="#ffffff"/>
</linearGradient>
</defs>
<path d="M 22.790825 7.0 C 22.06756 7.0 19.742443 7.3923464 18.437832 8.324824 L 18.097162 8.551937 C 16.731823 9.495844 14.46336 11.004715 14.46336 14.381163 C 14.46336 18.727032 17.837244 25.63661 24.948395 35.199825 C 28.720984 40.2729 32.860096 43.964336 36.493294 46.40405 C 40.126484 48.843765 43.30461 50.0 44.89646 50.0 C 46.344723 50.0 47.926617 49.050243 49.249454 47.804577 C 50.572292 46.55891 51.63488 45.03396 52.126217 44.09507 C 52.57452 43.239838 52.598385 42.56124 52.466885 42.013203 C 52.340588 41.486828 52.049496 41.088135 51.86125 40.915493 C 51.85845 40.912994 51.826153 40.917892 51.823402 40.915493 C 51.823036 40.90288 51.823036 40.89025 51.823402 40.877644 C 51.81079 40.878006 51.79816 40.878006 51.785553 40.877644 C 51.785553 40.877644 47.016342 37.65367 44.89647 36.221832 C 44.165745 35.727585 43.476387 35.502644 42.8146 35.502644 C 41.985672 35.502644 41.49949 35.85591 41.414074 35.919018 C 41.404972 35.925716 41.336823 35.958168 41.338375 35.956867 C 41.33874 35.96948 41.33874 35.98211 41.338375 35.994717 C 41.334274 35.999718 40.877384 36.483772 39.9757 37.243835 C 38.849705 38.192097 37.16817 37.993546 36.00123 36.903168 C 35.614006 36.541893 34.980522 35.77496 34.108624 34.745598 C 33.23672 33.716236 32.17266 32.41772 31.080454 31.073942 C 28.896032 28.386385 26.589216 25.49216 25.47834 23.995598 C 24.980389 23.323597 24.714191 22.603342 24.834854 21.87588 C 24.958258 21.125566 25.420406 20.561316 25.894712 20.09683 C 26.369019 19.632345 26.878872 19.27291 27.219536 19.036972 L 27.44665 18.885563 C 28.533785 18.107248 28.628832 16.74269 28.279392 15.81954 C 28.181702 15.562468 27.357664 13.76431 26.576046 12.072181 C 25.79442 10.380054 25.017612 8.689323 24.872692 8.400528 C 24.691517 8.038549 24.461138 7.6643953 24.153502 7.4163737 C 23.845863 7.1683526 23.448318 7.0 22.790825 7.0 z " fill="#dedede" fill-opacity="1" fill-rule="nonzero" stroke="none"/>
</svg>
