<?xml version="1.0" encoding="UTF-8"?>
<svg xmlns="http://www.w3.org/2000/svg" xmlns:xlink="http://www.w3.org/1999/xlink" baseProfile="tiny" contentScriptType="text/ecmascript" contentStyleType="text/css" height="30px" preserveAspectRatio="xMidYMid meet" version="1.1" viewBox="0 0 30 30" width="30px" x="0px" y="0px" zoomAndPan="magnify">
<rect fill="none" height="30" width="30"/>
<path d="M 24.673 2.153 C 24.673 1.0170001 23.739 0.08300018 22.606 0.08300018 L 4.648 0.08300018 C 3.5099998 0.08300018 2.5809999 1.0170002 2.5809999 2.153 L 2.5809999 4.36 L 24.672998 4.36 L 24.672998 2.153 z M 23.158 21.604 L 22.641 21.365 L 21.5 20.221 C 22.188 19.161001 22.543 17.946001 22.543 16.684 C 22.543 13.09 19.622 10.161 16.016998 10.161 C 12.423998 10.161 9.491999 13.091001 9.491999 16.684 C 9.491999 20.286 12.424999 23.211 16.016998 23.211 C 17.370998 23.211 18.661 22.801 19.763998 22.021 L 20.815998 23.056 L 21.167997 23.726 L 25.367996 27.917 L 27.430996 25.854 L 23.158 21.604 z M 16.017 21.413 C 13.413 21.413 11.297001 19.297 11.297001 16.684 C 11.297001 14.078 13.413001 11.964001 16.017 11.964001 C 18.632 11.964001 20.746 14.078001 20.746 16.684 C 20.746 19.297 18.627 21.413 16.017 21.413 z M 16.017 24.591 C 11.659 24.591 8.1119995 21.043 8.1119995 16.684 C 8.1119995 12.325 11.657999 8.782 16.017 8.782 C 20.376 8.782 23.924 12.325 23.924 16.684 C 23.924 17.833 23.678999 18.953 23.203 19.977 L 24.672998 21.164999 L 24.672998 6.024 L 2.581 6.024 L 2.581 23.605 C 2.581 23.605 2.286 25.741 4.648 25.741 L 21.234001 25.741 L 19.555 23.754 C 18.464 24.304 17.258 24.591 16.017 24.591 z " fill-opacity="0.3" stroke-opacity="0.3"/>
<path d="M 25.062 23.086 L 28.136 26.145 C 28.324 26.333 28.431 26.587 28.431 26.853 C 28.431 27.119001 28.326 27.374 28.138 27.561 L 26.075 29.624 C 25.880001 29.819 25.624 29.917 25.368 29.917 C 25.112 29.917 24.857 29.819 24.662 29.625 L 22.158 27.126 C 22.032001 27.828 21.235 27.74 21.235 27.74 L 4.648 27.74 C 3.3569999 27.74 2.6339998 27.219 2.2529998 26.784 C 1.5199997 25.942001 1.5509998 24.875 1.5799998 24.552 L 1.5799998 3.153 C 1.5799998 1.4600002 2.9559999 0.08300018 4.647 0.08300018 L 22.604 0.08300018 C 24.295 0.08300018 25.671 1.4600002 25.671 3.153 L 25.671 22.164999 C 25.673 22.165 25.748 22.922 25.062 23.086 z " fill-opacity="0.15" stroke-opacity="0.15"/>
<path d="M 24.673 3.153 C 24.673 2.0170002 23.739 1.0830002 22.606 1.0830002 L 4.648 1.0830002 C 3.5099998 1.0830002 2.5809999 2.0170002 2.5809999 3.153 L 2.5809999 5.36 L 24.672998 5.36 L 24.672998 3.153 z M 23.158 22.604 L 22.641 22.365 L 21.5 21.221 C 22.188 20.161001 22.543 18.946001 22.543 17.684 C 22.543 14.09 19.622 11.161 16.016998 11.161 C 12.423998 11.161 9.491999 14.091001 9.491999 17.684 C 9.491999 21.286 12.424999 24.211 16.016998 24.211 C 17.370998 24.211 18.661 23.801 19.763998 23.021 L 20.815998 24.056 L 21.167997 24.726 L 25.367996 28.917 L 27.430996 26.854 L 23.158 22.604 z M 16.017 22.413 C 13.413 22.413 11.297001 20.297 11.297001 17.684 C 11.297001 15.078 13.413001 12.964001 16.017 12.964001 C 18.632 12.964001 20.746 15.078001 20.746 17.684 C 20.746 20.297 18.627 22.413 16.017 22.413 z M 16.017 25.591 C 11.659 25.591 8.1119995 22.043 8.1119995 17.684 C 8.1119995 13.325 11.657999 9.782 16.017 9.782 C 20.376 9.782 23.924 13.325 23.924 17.684 C 23.924 18.833 23.678999 19.953 23.203 20.977 L 24.672998 22.164999 L 24.672998 7.024 L 2.581 7.024 L 2.581 24.605 C 2.581 24.605 2.286 26.741 4.648 26.741 L 21.234001 26.741 L 19.555 24.754 C 18.464 25.304 17.258 25.591 16.017 25.591 z " fill-opacity="0.15" stroke-opacity="0.15"/>
<path d="M 24.673 3.153 C 24.673 2.0170002 23.739 1.0830002 22.606 1.0830002 L 4.648 1.0830002 C 3.5099998 1.0830002 2.5809999 2.0170002 2.5809999 3.153 L 2.5809999 5.36 L 24.672998 5.36 L 24.672998 3.153 z M 23.158 22.604 L 22.641 22.365 L 21.5 21.221 C 22.188 20.161001 22.543 18.946001 22.543 17.684 C 22.543 14.09 19.622 11.161 16.016998 11.161 C 12.423998 11.161 9.491999 14.091001 9.491999 17.684 C 9.491999 21.286 12.424999 24.211 16.016998 24.211 C 17.370998 24.211 18.661 23.801 19.763998 23.021 L 20.815998 24.056 L 21.167997 24.726 L 25.367996 28.917 L 27.430996 26.854 L 23.158 22.604 z M 16.017 22.413 C 13.413 22.413 11.297001 20.297 11.297001 17.684 C 11.297001 15.078 13.413001 12.964001 16.017 12.964001 C 18.632 12.964001 20.746 15.078001 20.746 17.684 C 20.746 20.297 18.627 22.413 16.017 22.413 z M 16.017 25.591 C 11.659 25.591 8.1119995 22.043 8.1119995 17.684 C 8.1119995 13.325 11.657999 9.782 16.017 9.782 C 20.376 9.782 23.924 13.325 23.924 17.684 C 23.924 18.833 23.678999 19.953 23.203 20.977 L 24.672998 22.164999 L 24.672998 7.024 L 2.581 7.024 L 2.581 24.605 C 2.581 24.605 2.286 26.741 4.648 26.741 L 21.234001 26.741 L 19.555 24.754 C 18.464 25.304 17.258 25.591 16.017 25.591 z " fill="#dedede"/>
<rect fill="none" height="30" width="30"/>
</svg>
