<?xml version="1.0" encoding="UTF-8"?>
<svg xmlns="http://www.w3.org/2000/svg" xmlns:xlink="http://www.w3.org/1999/xlink" baseProfile="tiny" contentScriptType="text/ecmascript" contentStyleType="text/css" height="30px" preserveAspectRatio="xMidYMid meet" version="1.1" viewBox="0 0 30 30" width="30px" x="0px" y="0px" zoomAndPan="magnify">
<path color="#000000" d="M 19.1875 7.375 C 14.794102 7.375 7.876096 15.3125 7.876096 15.3125 C 7.876096 15.3125 14.794101 23.28125 19.1875 23.28125 C 23.580898 23.28125 27.15625 19.705898 27.15625 15.3125 C 27.15625 10.919102 23.580898 7.375 19.1875 7.375 z " display="inline" fill="none" stroke="#8e8e8e" stroke-dasharray="none" stroke-linecap="round" stroke-linejoin="round" stroke-miterlimit="4" stroke-opacity="1" stroke-width="3.16488433" transform="matrix(0.94790192,0,0,0.94790192,0.74829047,0.46477053)" visibility="visible"/>
<path color="#000000" d="M 26.47976 14.992349 C 26.47976 19.156862 23.103758 22.532864 18.939247 22.532864 C 14.7747345 22.532864 8.21653 14.992348 8.21653 14.992348 C 8.21653 14.992348 14.774735 7.451836 18.939247 7.451836 C 23.103756 7.451836 26.47976 10.827839 26.47976 14.992348 z " display="inline" fill="#dedede" fill-opacity="1" stroke="#dedede" stroke-dasharray="none" stroke-linecap="round" stroke-linejoin="round" stroke-miterlimit="4" stroke-opacity="1" stroke-width="0" visibility="visible"/>
<path d="M 21.397177 11.061159 L 18.714142 13.743378 L 16.031109 11.061159 L 14.879024 12.213243 L 17.561243 14.896276 L 14.87821 17.57931 L 16.030294 18.731394 L 18.713327 16.048359 L 21.396362 18.731392 L 22.548445 17.579308 L 19.866226 14.896275 L 22.54926 12.214056 z " fill="#909090" fill-opacity="1"/>
<rect fill="none" height="30" width="30"/>
</svg>
