<?xml version="1.0" encoding="UTF-8"?>
<svg xmlns="http://www.w3.org/2000/svg" xmlns:xlink="http://www.w3.org/1999/xlink" baseProfile="tiny" contentScriptType="text/ecmascript" contentStyleType="text/css" height="57px" preserveAspectRatio="xMidYMid meet" version="1.1" viewBox="0 0 67 57" width="67px" x="0px" y="0px" zoomAndPan="magnify">
<defs/>
<rect fill="#ffffff" fill-opacity="0.70588235" fill-rule="nonzero" height="48" ry="8.2174387" stroke="none" width="48" x="9.5" y="5.5"/>
<rect color="#000000" display="inline" fill="#01a0f3" fill-opacity="0.58823528999999997" fill-rule="nonzero" height="48" ry="8.2174387" stroke="none" visibility="visible" width="48" x="9.5" y="5.5"/>
<linearGradient gradientTransform="matrix(1 0 0 1 -498.9609 -785.0391)" gradientUnits="userSpaceOnUse" x1="532.46" x2="532.46" xlink:actuate="onLoad" xlink:show="other" xlink:type="simple" y1="837.7334" y2="789.647">
<stop offset="0" stop-color="#d0cbc5"/>
<stop offset="0.5031" stop-color="#fafcef"/>
<stop offset="0.9693" stop-color="#ffffff"/>
<stop offset="1" stop-color="#ffffff"/>
</linearGradient>
<path color="#000000" d="M 35.6875 22.765623 C 35.01683 22.765623 34.465252 22.869455 34.03125 23.078123 C 33.596584 23.286123 33.25467 23.569206 33.0 23.921871 C 32.744663 24.274538 32.57275 24.67729 32.46875 25.140623 C 32.36475 25.602625 32.3125 26.112043 32.3125 26.609371 L 32.3125 27.265623 L 30.78125 27.265623 L 30.78125 29.203123 L 32.3125 29.203123 L 32.3125 36.015625 L 34.65625 36.015625 L 34.65625 29.203123 L 36.96875 29.203123 L 36.96875 27.265623 L 34.65625 27.265623 L 34.65625 26.671877 C 34.65625 25.943878 34.796497 25.42463 35.0625 25.140623 C 35.329163 24.85729 35.72658 24.734377 36.28125 24.734377 C 36.559917 24.734377 36.803333 24.717705 37.0 24.734377 C 37.19667 24.752377 37.342747 24.774876 37.46875 24.796877 L 37.6875 22.984377 C 37.548164 22.950377 37.30475 22.911377 36.96875 22.859377 C 36.634083 22.806704 36.207497 22.765623 35.6875 22.765623 z M 26.34375 27.015623 C 25.99775 27.015623 25.684916 27.084536 25.40625 27.171877 C 25.128922 27.258545 24.895504 27.346376 24.6875 27.484377 C 24.47884 27.623709 24.30091 27.791792 24.15625 27.953123 C 24.01092 28.114454 23.89316 28.270544 23.8125 28.421877 L 23.71875 27.265623 L 21.625 27.265623 L 21.625 36.015625 L 23.9375 36.015625 L 23.9375 31.921877 C 23.9375 31.528543 23.97792 31.149538 24.03125 30.796877 C 24.08192 30.443542 24.17983 30.155958 24.3125 29.890623 C 24.445831 29.62329 24.632334 29.415625 24.875 29.265623 C 25.118334 29.11429 25.431166 29.015623 25.8125 29.015623 C 26.181831 29.015623 26.496 29.140038 26.75 29.359377 C 27.004667 29.580042 27.125 29.97679 27.125 30.578123 L 27.125 36.015625 L 29.4375 36.015625 L 29.4375 30.453123 C 29.4375 29.388456 29.19275 28.560455 28.71875 27.953123 C 28.24408 27.345787 27.454416 27.015623 26.34375 27.015623 z M 42.3125 27.015623 C 41.640495 27.015623 41.040005 27.139378 40.5 27.359377 C 39.961334 27.57938 39.50033 27.892208 39.125 28.296877 C 38.748993 28.702211 38.452663 29.198956 38.25 29.765623 C 38.047997 30.333626 37.9375 30.958624 37.9375 31.640623 C 37.9375 33.06396 38.32717 34.189625 39.0625 35.015625 C 39.795834 35.843624 40.86517 36.234375 42.3125 36.234375 C 42.706497 36.234375 43.082912 36.214622 43.40625 36.140625 C 43.72959 36.065956 44.00133 35.963375 44.25 35.859375 C 44.49867 35.756046 44.701664 35.65754 44.875 35.546875 C 45.05033 35.437546 45.20983 35.334953 45.3125 35.265625 L 44.4375 33.703125 C 44.2755 33.80846 44.018757 33.92088 43.71875 34.046875 C 43.416084 34.17354 43.0485 34.234375 42.5625 34.234375 C 41.8325 34.234375 41.263664 34.026043 40.875 33.609375 C 40.487667 33.19271 40.27665 32.54396 40.28125 31.640623 C 40.28125 30.772623 40.507584 30.100546 40.90625 29.671877 C 41.308247 29.24321 41.808743 29.046877 42.46875 29.046877 C 42.687416 29.046877 42.921 29.082624 43.125 29.140623 C 43.324997 29.198626 43.494915 29.253466 43.65625 29.328123 C 43.818245 29.404123 43.97708 29.465546 44.09375 29.546877 C 44.20975 29.628204 44.28442 29.699043 44.34375 29.734377 L 45.375 28.140623 C 45.32766 28.094624 45.223835 28.012625 45.0625 27.890623 C 44.899834 27.769297 44.70217 27.642294 44.4375 27.515623 C 44.1715 27.387629 43.86067 27.270546 43.5 27.171877 C 43.139336 27.073206 42.740498 27.015623 42.3125 27.015623 z " display="inline" fill="#c2c2c2" fill-opacity="1" fill-rule="nonzero" stroke="none" stroke-width="1" visibility="visible"/>
</svg>
