<?xml version="1.0" encoding="UTF-8"?>
<svg xmlns="http://www.w3.org/2000/svg" xmlns:xlink="http://www.w3.org/1999/xlink" baseProfile="tiny" contentScriptType="text/ecmascript" contentStyleType="text/css" height="70px" preserveAspectRatio="xMidYMid meet" version="1.1" viewBox="0 0 70 70" width="70px" x="0px" y="0px" zoomAndPan="magnify">
<rect color="#000000" display="inline" fill="#646464" fill-opacity="0.58823532" fill-rule="nonzero" height="48" ry="8.2174387" stroke="none" visibility="visible" width="48" x="11" y="11"/>
<defs>
<linearGradient gradientUnits="userSpaceOnUse" x1="35.0015" x2="35.0015" xlink:actuate="onLoad" xlink:show="other" xlink:type="simple" y1="54" y2="16.0005">
<stop offset="0" stop-color="#d0cbc5"/>
<stop offset="0.5031" stop-color="#fafcef"/>
<stop offset="0.9693" stop-color="#ffffff"/>
<stop offset="1" stop-color="#ffffff"/>
</linearGradient>
</defs>
<path d="M 19.578123 17.53125 L 19.578123 17.59375 C 18.314127 17.832989 17.328123 19.086702 17.328123 20.59375 L 17.328123 46.46875 C 17.328123 48.144176 18.6351 49.53125 20.234373 49.53125 L 36.921875 49.53125 C 36.784885 48.93129 36.475883 48.19142 35.765625 47.375 C 35.671844 47.28109 33.996616 45.59638 32.890625 43.125 C 32.32213 41.85467 31.909588 40.372585 32.015625 38.78125 C 32.121662 37.189915 32.78636 35.5107 34.234375 34.0625 C 35.682343 32.61472 37.36018 31.91803 38.953125 31.8125 C 39.543392 31.7734 40.116142 31.7943 40.671875 31.875 L 40.703125 31.875 C 41.15418 31.15862 41.390614 30.458584 41.390625 29.8125 C 41.390614 29.014091 41.1177 28.329708 40.546875 27.78125 C 39.976032 27.232817 39.214672 26.968763 38.296875 26.96875 C 37.326828 26.968763 36.566395 27.261742 35.984375 27.84375 C 35.402348 28.425789 35.116875 29.220278 35.109375 30.25 L 33.015625 30.03125 C 33.1574 28.48666 33.71535 27.309626 34.640625 26.5 C 35.565887 25.69041 36.799847 25.281263 38.359375 25.28125 C 39.93381 25.28127 41.160313 25.751982 42.078125 26.625 C 42.99592 27.498049 43.453117 28.584114 43.453125 29.875 C 43.453117 30.531654 43.346745 31.147003 43.078125 31.78125 C 42.990215 31.98881 42.861134 32.21875 42.734375 32.4375 C 45.541584 33.51108 47.48938 35.564415 47.546875 35.625 L 47.578125 35.59375 C 48.255955 36.19334 48.839725 36.51135 49.328125 36.6875 L 49.328125 20.59375 C 49.328125 19.038702 48.291306 17.743069 46.953125 17.5625 L 46.953125 17.53125 L 19.578125 17.53125 z M 27.921875 25.28125 L 29.203125 25.28125 L 29.203125 41.78125 L 27.203125 41.78125 L 27.203125 28.9375 C 26.718103 29.400146 26.084093 29.849874 25.296875 30.3125 C 24.509645 30.775146 23.798668 31.143692 23.171875 31.375 L 23.171875 29.40625 C 24.298609 28.876474 25.266178 28.253662 26.109375 27.5 C 26.952557 26.746368 27.571161 25.990145 27.921875 25.28125 z M 39.015625 32.9375 C 37.669712 33.02667 36.29122 33.56832 35.015625 34.84375 C 29.913898 39.946136 36.609375 46.65625 36.609375 46.65625 C 38.561726 48.90043 38.078125 51.03125 38.078125 51.03125 L 39.546875 52.46875 L 44.546875 47.46875 C 44.88822 48.281513 45.70175 48.84375 46.640625 48.84375 C 47.88849 48.84375 48.890625 47.841618 48.890625 46.59375 C 48.890625 45.65686 48.328392 44.842003 47.515625 44.5 L 52.671875 39.375 L 51.390625 38.09375 L 51.203125 37.90625 C 51.203125 37.90625 49.276318 38.60311 46.828125 36.4375 C 46.828125 36.4375 43.053364 32.67001 39.015625 32.9375 z " fill="#ffffff" fill-opacity="1"/>
</svg>
