<?xml version="1.0" encoding="UTF-8"?>
<svg xmlns="http://www.w3.org/2000/svg" xmlns:xlink="http://www.w3.org/1999/xlink" baseProfile="tiny" contentScriptType="text/ecmascript" contentStyleType="text/css" height="30px" preserveAspectRatio="xMidYMid meet" version="1.1" viewBox="0 0 30 30" width="30px" x="0px" y="0px" zoomAndPan="magnify">
<path d="M 29.486 23.126 L 27.195 21.854 C 28.34 19.825 29.0 17.49 29.0 15.0 C 29.0 7.28 22.721 1.0 15.0 1.0 C 7.28 1.0 1.0 7.28 1.0 15.0 C 1.0 22.721 7.28 29.0 15.0 29.0 C 16.391 29.0 17.73 28.789 19.0 28.41 L 19.0 29.0 C 19.0 29.354 19.188 29.682 19.492 29.861 C 19.648 29.954 19.824 30.0 20.0 30.0 C 20.167 30.0 20.334 29.958 20.486 29.874 L 29.486 24.874 C 29.803 24.697 30.0 24.363 30.0 24.0 C 30.0 23.637 29.803 23.303 29.486 23.126 z " fill-opacity="0.15"/>
<path d="M 14.8 25.0 L 14.8 21.0 C 14.8 20.338 15.338 19.8 16.0 19.8 L 18.8 19.8 L 18.8 18.0 C 18.8 17.576 19.028 17.182 19.390999 16.966 C 19.576 16.857 19.786 16.8 20.0 16.8 C 20.203 16.8 20.404 16.852 20.583 16.950998 L 26.407 20.186998 C 26.687 19.666998 26.941 19.132998 27.152 18.578999 C 27.156 18.567999 27.162 18.557999 27.166 18.548998 L 27.164 18.548998 C 27.699 17.133 28.0 15.604 28.0 14.0 C 28.0 13.999 28.0 13.998 28.0 13.998 C 28.0 13.996 28.0 13.996 28.0 13.996 C 28.0 6.82 22.182 1.0 15.001 1.0 L 15.0 1.0 C 11.436 1.0 8.209 2.4359999 5.861 4.76 C 5.845 4.775 5.826 4.791 5.809 4.807 C 5.71 4.905 5.623 5.014 5.527 5.115 C 3.346 7.439 2.0 10.558 2.0 13.996 C 2.0 13.996 2.0 13.996 2.0 13.998 C 2.0 13.998 2.0 13.999001 2.0 14.0 C 2.0 20.75 7.145 26.295 13.727 26.936 L 13.727 26.936 C 13.728001 26.936 13.729 26.936 13.729 26.936 C 14.146 26.977 14.57 27.0 15.0 27.0 L 15.001 27.0 C 16.324001 27.0 17.598 26.795 18.800001 26.427 L 18.800001 26.2 L 16.0 26.2 C 15.338 26.2 14.8 25.662 14.8 25.0 z M 15.602 13.455 C 15.811 12.28 15.938001 11.586 16.928 11.344 C 17.487 11.207 19.157 10.992 20.321 11.451 C 20.869 11.668 21.745998 11.58 21.880999 10.856 C 22.024998 10.082 21.505999 10.034 20.262999 9.683 C 19.137 9.367 18.079998 10.313 17.166998 10.311999 C 16.759998 10.311999 16.779999 9.966 16.785997 9.485999 C 16.794998 9.006 18.555998 7.765999 18.738997 7.626999 C 19.095997 7.353999 20.136997 7.462999 20.159996 7.462999 C 21.308996 7.499999 21.058996 6.719999 20.281996 6.6829987 C 18.920996 6.6169987 19.019997 5.9019985 19.004995 5.686999 C 18.986996 5.470999 19.201996 4.922999 20.251995 4.896999 C 20.493996 4.890999 21.232996 4.861999 21.772995 4.880999 C 24.516994 6.925999 26.313995 10.167999 26.368996 13.832998 C 26.164995 14.103998 25.817995 14.378998 25.401997 14.301998 C 24.680996 14.171998 24.213997 12.300999 23.436996 12.885998 C 22.141996 13.864998 25.426996 15.491998 25.426996 16.005997 C 25.426996 16.374996 25.065996 16.868998 24.750996 17.206997 L 21.456995 15.376997 C 21.012 15.131 20.508 15.0 20.0 15.0 C 19.465 15.0 18.939 15.145 18.479 15.414 C 18.112 15.631 17.821 15.934 17.58 16.271 C 17.574 16.271 17.569 16.269 17.561 16.269 C 15.252 15.991 15.448 14.309 15.602 13.455 z M 12.154 18.547 C 11.902 19.055 11.341001 19.244001 11.392 20.17 C 11.474 21.656 10.277 21.539 10.0 22.551 C 9.822 23.203001 9.624 23.697 9.512 23.957 C 8.702 23.51 7.96 22.959002 7.2860003 22.336 C 7.3700004 21.27 7.077 19.311 6.7250004 19.07 C 5.6110005 18.312 5.6530004 18.532999 5.5550003 15.566 C 5.5020003 13.92 8.293 14.386 8.894 15.043 C 9.47 15.668 9.375 16.58 11.048 17.281 C 11.525 17.479 12.407 18.043 12.154 18.547 z M 11.25 5.66 C 10.656 5.8729997 10.424 5.836 10.017 5.5639997 C 9.443 5.1839995 8.199 6.2009997 8.969 6.561 C 9.23 6.683 9.699 6.723 10.45 6.98 C 11.639999 7.391 11.9869995 8.1 11.297999 8.286 C 7.8479996 9.22 9.459999 10.298 8.151999 11.606 C 7.4809995 12.28 7.5269995 12.549 7.049999 12.709 C 6.4679995 12.903 6.3759995 12.056 5.8259993 12.031 C 5.6529994 12.022 4.374999 12.05 3.8029993 12.056 C 4.664999 7.0759997 8.768 3.1919994 13.858999 2.684 C 13.941999 2.731 13.996999 2.793 13.975999 2.897 C 13.859 3.49 11.846 5.447 11.25 5.66 z M 29.0 23.0 L 20.0 18.0 L 20.0 21.0 L 16.0 21.0 L 16.0 25.0 L 20.0 25.0 L 20.0 28.0 L 29.0 23.0 z " fill-opacity="0.3"/>
<path d="M 14.8 26.0 L 14.8 22.0 C 14.8 21.338 15.338 20.8 16.0 20.8 L 18.8 20.8 L 18.8 19.0 C 18.8 18.576 19.028 18.182 19.390999 17.966 C 19.576 17.857 19.786 17.8 20.0 17.8 C 20.203 17.8 20.404 17.852 20.583 17.950998 L 26.407 21.186998 C 26.687 20.666998 26.941 20.132998 27.152 19.578999 C 27.156 19.567999 27.162 19.557999 27.166 19.548998 L 27.164 19.548998 C 27.699 18.133 28.0 16.604 28.0 15.0 C 28.0 14.999 28.0 14.998 28.0 14.998 C 28.0 14.996 28.0 14.996 28.0 14.996 C 28.0 7.82 22.182 2.0 15.001 2.0 L 15.0 2.0 C 11.436 2.0 8.209 3.4359999 5.861 5.76 C 5.845 5.775 5.826 5.791 5.809 5.807 C 5.71 5.905 5.623 6.014 5.527 6.115 C 3.346 8.439 2.0 11.558 2.0 14.996 C 2.0 14.996 2.0 14.996 2.0 14.998 C 2.0 14.998 2.0 14.999001 2.0 15.0 C 2.0 21.75 7.145 27.295 13.727 27.936 L 13.727 27.936 C 13.728001 27.936 13.729 27.936 13.729 27.936 C 14.146 27.977 14.57 28.0 15.0 28.0 L 15.001 28.0 C 16.324001 28.0 17.598 27.795 18.800001 27.427 L 18.800001 27.2 L 16.0 27.2 C 15.338 27.2 14.8 26.662 14.8 26.0 z M 15.602 14.455 C 15.811 13.28 15.938001 12.586 16.928 12.344 C 17.487 12.207 19.157 11.992 20.321 12.451 C 20.869 12.668 21.745998 12.58 21.880999 11.856 C 22.024998 11.082 21.505999 11.034 20.262999 10.683 C 19.137 10.367 18.079998 11.313 17.166998 11.311999 C 16.759998 11.311999 16.779999 10.966 16.785997 10.485999 C 16.794998 10.006 18.555998 8.765999 18.738997 8.626999 C 19.095997 8.353999 20.136997 8.462999 20.159996 8.462999 C 21.308996 8.499999 21.058996 7.7199993 20.281996 7.6829996 C 18.920996 7.6169996 19.019997 6.9019995 19.004995 6.687 C 18.986996 6.4709997 19.201996 5.923 20.251995 5.897 C 20.493996 5.891 21.232996 5.862 21.772995 5.881 C 24.516994 7.926 26.313995 11.168 26.368996 14.833 C 26.164995 15.104 25.817995 15.379 25.401997 15.302 C 24.680996 15.172 24.213997 13.301001 23.436996 13.886 C 22.141996 14.865 25.426996 16.492 25.426996 17.006 C 25.426996 17.375 25.065996 17.869001 24.750996 18.207 L 21.456995 16.377 C 21.012 16.131 20.508 16.0 20.0 16.0 C 19.465 16.0 18.939 16.145 18.479 16.414 C 18.112 16.630999 17.821 16.934 17.58 17.271 C 17.574 17.271 17.569 17.269 17.561 17.269 C 15.252 16.991 15.448 15.308 15.602 14.455 z M 12.154 19.547 C 11.902 20.055 11.341001 20.244001 11.392 21.17 C 11.474 22.656 10.277 22.539 10.0 23.551 C 9.822 24.203001 9.624 24.697 9.512 24.957 C 8.702 24.51 7.96 23.959002 7.2860003 23.336 C 7.3700004 22.27 7.077 20.311 6.7250004 20.07 C 5.6110005 19.312 5.6530004 19.532999 5.5550003 16.566 C 5.5020003 14.92 8.293 15.387 8.894 16.043 C 9.47 16.668 9.375 17.58 11.048 18.280998 C 11.525 18.479 12.407 19.043 12.154 19.547 z M 11.25 6.66 C 10.656 6.8729997 10.424 6.836 10.017 6.5639997 C 9.443 6.1839995 8.199 7.2009997 8.969 7.561 C 9.23 7.683 9.699 7.723 10.45 7.98 C 11.639999 8.391 11.9869995 9.1 11.297999 9.286 C 7.8479996 10.22 9.459999 11.298 8.151999 12.606 C 7.4809995 13.28 7.5269995 13.549 7.049999 13.709 C 6.4679995 13.903 6.3759995 13.056 5.8259993 13.031 C 5.6529994 13.022 4.374999 13.05 3.8029993 13.056 C 4.664999 8.076 8.768 4.1919994 13.858999 3.684 C 13.941999 3.731 13.996999 3.793 13.975999 3.897 C 13.859 4.49 11.846 6.447 11.25 6.66 z M 29.0 24.0 L 20.0 19.0 L 20.0 22.0 L 16.0 22.0 L 16.0 26.0 L 20.0 26.0 L 20.0 29.0 L 29.0 24.0 z " fill="#dedede"/>
<rect fill="none" height="30" width="30"/>
</svg>
