<?xml version="1.0" encoding="UTF-8"?>
<svg xmlns="http://www.w3.org/2000/svg" xmlns:xlink="http://www.w3.org/1999/xlink" baseProfile="tiny" contentScriptType="text/ecmascript" contentStyleType="text/css" height="30px" preserveAspectRatio="xMidYMid meet" version="1.1" viewBox="0 0 30 30" width="30px" x="0px" y="0px" zoomAndPan="magnify">
<path d="M 9.386 25.0 C 8.833 25.0 8.386 24.553 8.386 24.0 L 8.386 22.436 C 8.386 20.995 8.745999 19.582 9.458 18.236 C 10.1640005 16.899 11.444 15.469 13.369 13.868 C 14.462001 12.9470005 14.939 12.389 15.147 12.086 C 15.387 11.732 15.504001 11.338 15.504001 10.886001 C 15.504001 9.908001 15.218 9.342001 13.757001 9.342001 C 12.859001 9.342001 11.708001 9.595001 10.336 10.094001 C 10.225 10.135001 10.109 10.155001 9.994 10.155001 C 9.792001 10.155001 9.591001 10.093 9.4210005 9.974001 C 9.154 9.785 8.995 9.479 8.995 9.153 L 8.995 6.729 C 8.995 6.287 9.286 5.8970003 9.71 5.77 C 11.429 5.259 13.128 5.0 14.761 5.0 C 16.883999 5.0 18.546999 5.479 19.706 6.426 C 20.925 7.422 21.542 8.874001 21.542 10.742001 C 21.542 11.613001 21.396 12.427 21.109 13.160001 C 20.824 13.887001 20.403 14.573001 19.856998 15.202001 C 19.342999 15.793 18.616999 16.479 17.637 17.302 C 16.644999 18.132 15.914999 18.787 15.469999 19.252 C 15.067999 19.671001 14.749999 20.098001 14.528999 20.519001 C 14.509999 20.554 14.492999 20.588001 14.475999 20.623001 L 20.613998 20.623001 C 21.166998 20.623001 21.613998 21.070002 21.613998 21.623001 L 21.613998 24.0 C 21.613998 24.553 21.166998 25.0 20.613998 25.0 L 9.386 25.0 z " fill-opacity="0.15" stroke-opacity="0.15"/>
<path d="M 20.614 23.0 L 9.386 23.0 L 9.386 21.436 C 9.386 20.154001 9.7039995 18.91 10.342 17.704 C 10.98 16.497 12.2 15.141001 14.009 13.637001 C 14.964 12.832001 15.6189995 12.169001 15.974 11.649001 C 16.328 11.128001 16.505 10.540001 16.505 9.886002 C 16.505 8.191002 15.589999 7.342002 13.757999 7.342002 C 12.737999 7.342002 11.485 7.613002 9.994999 8.155002 L 9.994999 5.729 C 11.628 5.243 13.216 5.0 14.761 5.0 C 16.657 5.0 18.094 5.4 19.074 6.2 C 20.053 7.001 20.543 8.181 20.543 9.742 C 20.543 10.49 20.421999 11.174999 20.178999 11.796 C 19.935999 12.417 19.577 13.000999 19.103998 13.546 C 18.630997 14.091 17.927998 14.754 16.996998 15.535 C 15.969997 16.394 15.221998 17.069 14.750998 17.559 C 14.280997 18.048 13.912997 18.546 13.646997 19.052 C 13.378998 19.558 13.221997 20.08 13.174997 20.622 L 20.615997 20.622 L 20.615997 23.0 z " fill-opacity="0.3" stroke-opacity="0.3"/>
<path d="M 20.614 24.0 L 9.386 24.0 L 9.386 22.436 C 9.386 21.154001 9.7039995 19.91 10.342 18.704 C 10.98 17.497 12.2 16.141 14.009 14.637001 C 14.964 13.832001 15.6189995 13.169001 15.974 12.649001 C 16.328 12.128001 16.505 11.540001 16.505 10.886002 C 16.505 9.191002 15.589999 8.342002 13.757999 8.342002 C 12.737999 8.342002 11.485 8.613002 9.994999 9.155002 L 9.994999 6.729 C 11.628 6.243 13.216 6.0 14.761 6.0 C 16.657 6.0 18.094 6.4 19.074 7.2 C 20.053 8.000999 20.543 9.181 20.543 10.742 C 20.543 11.49 20.421999 12.174999 20.178999 12.796 C 19.935999 13.417 19.577 14.000999 19.103998 14.546 C 18.630997 15.091 17.927998 15.754 16.996998 16.535 C 15.969997 17.394 15.221998 18.069 14.750998 18.559 C 14.280997 19.048 13.912997 19.546 13.646997 20.052 C 13.378998 20.558 13.221997 21.08 13.174997 21.622 L 20.615997 21.622 L 20.615997 24.0 z " fill="#dedede"/>
<rect fill="none" height="30" width="30"/>
</svg>
