<?xml version="1.0" encoding="UTF-8"?>
<svg xmlns="http://www.w3.org/2000/svg" xmlns:xlink="http://www.w3.org/1999/xlink" baseProfile="tiny" contentScriptType="text/ecmascript" contentStyleType="text/css" height="30px" preserveAspectRatio="xMidYMid meet" version="1.1" viewBox="0 0 30 30" width="30px" x="0px" y="0px" zoomAndPan="magnify">
<rect fill="none" height="30" width="30"/>
<path d="M 24.646 2.425 L 5.354 2.425 C 4.2910004 2.425 3.4240003 3.2879999 3.4240003 4.3529997 L 3.4240003 23.646 C 3.4240003 24.71 4.2890005 25.576 5.354 25.576 L 24.647 25.576 C 25.709 25.576 26.574999 24.711 26.574999 23.646 L 26.574999 4.353 C 26.575 3.29 25.71 2.425 24.646 2.425 z M 8.248 22.921 C 7.053 22.921 6.08 21.946 6.08 20.751 C 6.08 19.556 7.053 18.583 8.248 18.583 C 9.443001 18.583 10.416 19.556 10.416 20.751 C 10.416 21.946 9.443 22.921 8.248 22.921 z M 16.929 22.921 L 15.641001 22.921 C 15.333001 22.921 15.083001 22.668999 15.083001 22.357 L 15.025002 20.888 C 14.646002 17.04 11.300001 13.915001 7.3820014 13.915001 L 6.641 13.915001 C 6.332 13.915001 6.08 13.663001 6.08 13.356001 L 6.08 12.069001 C 6.08 11.760001 6.332 11.510001 6.641 11.510001 L 8.057 11.545001 C 13.08 11.879001 17.121 15.916 17.454 20.940002 L 17.49 22.356003 C 17.49 22.669 17.239 22.921 16.929 22.921 z M 23.359 23.163 L 22.074999 23.163 C 21.63 23.163 21.269999 22.802 21.269999 22.356 L 21.269999 21.647001 C 21.269999 14.274001 15.165998 8.022001 7.831999 7.7560015 L 6.641 7.728 C 6.198 7.728 5.838 7.369 5.838 6.927 L 5.838 5.64 C 5.838 5.197 6.197 4.837 6.641 4.837 L 8.099 4.876 C 16.703 5.257 23.741001 12.296 24.123001 20.901 L 24.163002 22.355999 C 24.163 22.802 23.802 23.163 23.359 23.163 z " fill-opacity="0.3" stroke-opacity="0.3"/>
<path d="M 24.646 2.425 L 5.354 2.425 C 3.739 2.425 2.424 3.738 2.424 5.3529997 L 2.424 24.646 C 2.424 26.261 3.738 27.576 5.354 27.576 L 24.647 27.576 C 26.261 27.576 27.574999 26.262001 27.574999 24.646 L 27.574999 5.353 C 27.575 3.738 26.261 2.425 24.646 2.425 z " fill-opacity="0.15" stroke-opacity="0.15"/>
<path d="M 24.646 3.425 L 5.354 3.425 C 4.2910004 3.425 3.4240003 4.288 3.4240003 5.3529997 L 3.4240003 24.646 C 3.4240003 25.71 4.2890005 26.576 5.354 26.576 L 24.647 26.576 C 25.709 26.576 26.574999 25.711 26.574999 24.646 L 26.574999 5.353 C 26.575 4.29 25.71 3.425 24.646 3.425 z M 8.248 23.921 C 7.053 23.921 6.08 22.946 6.08 21.751 C 6.08 20.556 7.053 19.583 8.248 19.583 C 9.443001 19.583 10.416 20.556 10.416 21.751 C 10.416 22.946 9.443 23.921 8.248 23.921 z M 16.929 23.921 L 15.641001 23.921 C 15.333001 23.921 15.083001 23.668999 15.083001 23.357 L 15.025002 21.888 C 14.646002 18.04 11.300001 14.915001 7.3820014 14.915001 L 6.641 14.915001 C 6.332 14.915001 6.08 14.663001 6.08 14.356001 L 6.08 13.069001 C 6.08 12.760001 6.332 12.510001 6.641 12.510001 L 8.057 12.545001 C 13.08 12.879001 17.121 16.916 17.454 21.940002 L 17.49 23.356003 C 17.49 23.669 17.239 23.921 16.929 23.921 z M 23.359 24.163 L 22.074999 24.163 C 21.63 24.163 21.269999 23.802 21.269999 23.356 L 21.269999 22.647001 C 21.269999 15.274001 15.165998 9.022001 7.831999 8.756001 L 6.641 8.728 C 6.198 8.728 5.838 8.3689995 5.838 7.9269996 L 5.838 6.64 C 5.838 6.197 6.197 5.837 6.641 5.837 L 8.099 5.876 C 16.703 6.257 23.741001 13.296 24.123001 21.901 L 24.163002 23.355999 C 24.163 23.802 23.802 24.163 23.359 24.163 z " fill-opacity="0.15" stroke-opacity="0.15"/>
<path d="M 24.646 3.425 L 5.354 3.425 C 4.2910004 3.425 3.4240003 4.288 3.4240003 5.3529997 L 3.4240003 24.646 C 3.4240003 25.71 4.2890005 26.576 5.354 26.576 L 24.647 26.576 C 25.709 26.576 26.574999 25.711 26.574999 24.646 L 26.574999 5.353 C 26.575 4.29 25.71 3.425 24.646 3.425 z M 8.248 23.921 C 7.053 23.921 6.08 22.946 6.08 21.751 C 6.08 20.556 7.053 19.583 8.248 19.583 C 9.443001 19.583 10.416 20.556 10.416 21.751 C 10.416 22.946 9.443 23.921 8.248 23.921 z M 16.929 23.921 L 15.641001 23.921 C 15.333001 23.921 15.083001 23.668999 15.083001 23.357 L 15.025002 21.888 C 14.646002 18.04 11.300001 14.915001 7.3820014 14.915001 L 6.641 14.915001 C 6.332 14.915001 6.08 14.663001 6.08 14.356001 L 6.08 13.069001 C 6.08 12.760001 6.332 12.510001 6.641 12.510001 L 8.057 12.545001 C 13.08 12.879001 17.121 16.916 17.454 21.940002 L 17.49 23.356003 C 17.49 23.669 17.239 23.921 16.929 23.921 z M 23.359 24.163 L 22.074999 24.163 C 21.63 24.163 21.269999 23.802 21.269999 23.356 L 21.269999 22.647001 C 21.269999 15.274001 15.165998 9.022001 7.831999 8.756001 L 6.641 8.728 C 6.198 8.728 5.838 8.3689995 5.838 7.9269996 L 5.838 6.64 C 5.838 6.197 6.197 5.837 6.641 5.837 L 8.099 5.876 C 16.703 6.257 23.741001 13.296 24.123001 21.901 L 24.163002 23.355999 C 24.163 23.802 23.802 24.163 23.359 24.163 z " fill="#dedede"/>
</svg>
