<?xml version="1.0" encoding="UTF-8"?>
<svg xmlns="http://www.w3.org/2000/svg" xmlns:xlink="http://www.w3.org/1999/xlink" baseProfile="tiny" contentScriptType="text/ecmascript" contentStyleType="text/css" height="30px" preserveAspectRatio="xMidYMid meet" version="1.1" viewBox="0 0 30 30" width="30px" x="0px" y="0px" zoomAndPan="magnify">
<defs/>
<rect color="#000000" display="inline" fill="#353535" fill-opacity="0.58823529" fill-rule="nonzero" height="27.533897" ry="4.7137108" stroke="none" visibility="visible" width="27.533897" x="1.2330513" y="1.2330513"/>
<path d="M 6.34375 6.40625 C 5.944531 6.40625 5.625 6.7289066 5.625 7.125 L 5.625 22.875 C 5.625 23.271091 5.944531 23.59375 6.34375 23.59375 L 23.65625 23.59375 C 24.055468 23.59375 24.375 23.271091 24.375 22.875 L 24.375 7.125 C 24.375 6.7289066 24.055468 6.40625 23.65625 6.40625 L 6.34375 6.40625 z M 12.5 9.625 C 13.075883 9.625011 13.60904 9.72161 14.09375 9.96875 C 14.578449 10.215911 14.930744 10.572893 15.1875 11.0 C 15.444243 11.427125 15.593743 11.863853 15.59375 12.34375 C 15.593742 12.799668 15.463495 13.219431 15.21875 13.59375 C 14.973992 13.968083 14.604899 14.248 14.125 14.46875 C 14.748871 14.612728 15.248211 14.921494 15.59375 15.375 C 15.939275 15.828515 16.093742 16.412289 16.09375 17.09375 C 16.093742 18.015171 15.765611 18.796827 15.09375 19.4375 C 14.421876 20.078175 13.558244 20.375 12.53125 20.375 C 11.605029 20.375 10.861878 20.114391 10.25 19.5625 C 9.638119 19.010609 9.27388 18.28448 9.1875 17.40625 L 10.5 17.25 C 10.648768 17.984259 10.892468 18.519815 11.25 18.84375 C 11.607527 19.167688 12.048998 19.3125 12.5625 19.3125 C 13.171976 19.312502 13.673828 19.10982 14.09375 18.6875 C 14.513662 18.265184 14.718744 17.74888 14.71875 17.125 C 14.718744 16.52992 14.544968 16.04258 14.15625 15.65625 C 13.767522 15.269931 13.256127 15.062505 12.65625 15.0625 C 12.411494 15.062505 12.114725 15.12277 11.75 15.21875 L 11.875 14.0625 C 11.96138 14.07212 12.04096 14.093758 12.09375 14.09375 C 12.645638 14.093756 13.152232 13.9442 13.59375 13.65625 C 14.035257 13.368314 14.249994 12.91239 14.25 12.3125 C 14.249994 11.837403 14.102781 11.468198 13.78125 11.15625 C 13.459708 10.844321 13.039946 10.65626 12.53125 10.65625 C 12.027345 10.65626 11.585931 10.839522 11.25 11.15625 C 10.914064 11.472997 10.72098 11.929033 10.625 12.5625 L 9.3125 12.34375 C 9.470868 11.47513 9.844758 10.790016 10.40625 10.3125 C 10.967737 9.835004 11.664961 9.625011 12.5 9.625 z M 19.96875 9.625 L 20.8125 9.625 L 20.8125 20.375 L 19.5 20.375 L 19.5 11.96875 C 19.188059 12.271558 18.787548 12.603459 18.28125 12.90625 C 17.774948 13.209056 17.309368 13.411107 16.90625 13.5625 L 16.90625 12.3125 C 17.630905 11.965755 18.270205 11.524528 18.8125 11.03125 C 19.354788 10.53799 19.74319 10.088977 19.96875 9.625 z " fill="#ffffff"/>
<rect fill="none" height="30" width="30"/>
<rect fill="none" height="30" width="30"/>
</svg>
