<?xml version="1.0" encoding="UTF-8"?>
<svg xmlns="http://www.w3.org/2000/svg" xmlns:xlink="http://www.w3.org/1999/xlink" baseProfile="tiny" contentScriptType="text/ecmascript" contentStyleType="text/css" height="57px" preserveAspectRatio="xMidYMid meet" version="1.1" viewBox="0 0 67 57" width="67px" x="0px" y="0px" zoomAndPan="magnify">
<rect fill="#ffffff" fill-opacity="0.70588235" fill-rule="nonzero" height="48" ry="8.2174387" stroke="none" width="48" x="9.5" y="5.5"/>
<rect fill="#469fff" fill-opacity="0.58823529" fill-rule="nonzero" height="48" ry="8.2174387" stroke="none" width="48" x="9.5" y="5.5"/>
<path d="M 42.40892 18.035065 L 44.671112 18.035065 L 43.54002 19.99406 C 43.348965 20.325634 43.46249 20.748585 43.793373 20.93964 C 43.902058 21.00263 44.02111 21.0324 44.13879 21.0324 C 44.379 21.0324 44.611584 20.9078 44.738953 20.686289 L 45.870045 18.727291 L 47.00114 20.686289 C 47.130585 20.908491 47.36179 21.0324 47.6013 21.0324 C 47.71898 21.0324 47.83804 21.00264 47.946724 20.93964 C 48.278297 20.748585 48.391823 20.324944 48.200077 19.99406 L 47.06898 18.035065 L 49.331173 18.035065 C 49.713978 18.035065 50.0234 17.72564 50.0234 17.34284 C 50.0234 16.96004 49.713978 16.650616 49.331173 16.650616 L 47.06898 16.650616 L 48.200077 14.691621 C 48.391823 14.3600445 48.278297 13.937096 47.946724 13.746043 C 47.615147 13.554988 47.1922 13.669203 47.001144 13.999397 L 45.87005 15.958392 L 44.738953 13.999397 C 44.547207 13.66713 44.12357 13.554297 43.793373 13.746043 C 43.461803 13.937098 43.34827 14.360738 43.540024 14.691621 L 44.67112 16.650616 L 42.408928 16.650616 C 42.026123 16.650616 41.716705 16.96004 41.716705 17.34284 C 41.716705 17.72564 42.02613 18.035065 42.408928 18.035065 z " fill="#fa664b" fill-opacity="1"/>
<path d="M 47.94672 36.261337 L 47.94672 28.646866 C 47.94672 28.371365 47.530003 27.95464 47.254498 27.95464 L 43.101147 27.95464 C 42.824257 27.95464 42.408924 28.37136 42.408924 28.646866 L 42.408924 36.261337 L 38.9478 36.261337 L 45.177822 45.260258 L 51.407845 36.26134 L 47.94672 36.26134 z M 42.069035 20.429468 C 42.053806 20.080587 42.121643 19.733091 42.280857 19.41536 C 41.194756 19.34821 40.332245 18.44486 40.332245 17.342838 C 40.332245 16.91435 40.46446 16.5184 40.68943 16.186825 L 16.796606 16.186825 L 32.025547 28.646866 L 42.06903 20.42947 z M 37.72186 35.618954 C 37.959984 35.162777 38.432777 34.87689 38.94779 34.87689 L 41.024464 34.87689 L 41.024464 28.646866 C 41.024464 27.59884 42.05311 26.570192 43.101135 26.570192 L 47.25449 26.570192 L 47.25449 22.373236 C 46.693092 22.276323 46.187767 21.96621 45.870037 21.48788 C 45.48585 22.064505 44.83447 22.416843 44.138783 22.416843 C 43.77606 22.416843 43.4161 22.320623 43.10114 22.138569 C 42.989 22.0735 42.88586 21.998049 42.790333 21.916365 L 32.02555 30.723536 L 16.79661 18.263496 L 16.79661 37.645782 C 16.79661 38.410004 17.416843 39.03023 18.18106 39.03023 L 39.180386 39.03023 L 37.80978 37.049774 C 37.51766 36.624752 37.482357 36.074432 37.72186 35.61895 z " fill="#ffffff" fill-opacity="1"/>
<defs>
<linearGradient gradientTransform="matrix(1 0 0 -1 -258 -291)" gradientUnits="userSpaceOnUse" x1="294" x2="294" xlink:actuate="onLoad" xlink:show="other" xlink:type="simple" y1="-345" y2="-303">
<stop offset="0" stop-color="#d0cbc5"/>
<stop offset="0.5031" stop-color="#fafcef"/>
<stop offset="0.9693" stop-color="#ffffff"/>
<stop offset="1" stop-color="#ffffff"/>
</linearGradient>
</defs>
</svg>
