<?xml version="1.0" encoding="UTF-8"?>
<svg xmlns="http://www.w3.org/2000/svg" xmlns:xlink="http://www.w3.org/1999/xlink" baseProfile="tiny" contentScriptType="text/ecmascript" contentStyleType="text/css" height="30px" preserveAspectRatio="xMidYMid meet" version="1.1" viewBox="0 0 30 30" width="30px" x="0px" y="0px" zoomAndPan="magnify">
<path d="M 8.0 24.0 C 7.826 24.0 7.65 23.955 7.495 23.863 C 7.188 23.684 7.0 23.355 7.0 23.0 L 7.0 5.0 C 7.0 4.645 7.188 4.316 7.495 4.137 C 7.65 4.046 7.826 4.0 8.0 4.0 C 8.169 4.0 8.338 4.043 8.49 4.129 L 23.49 13.129 C 23.805 13.306 24.0 13.639 24.0 14.0 C 24.0 14.361 23.805 14.694 23.49 14.871 L 8.49 23.871 C 8.338 23.957 8.169 24.0 8.0 24.0 L 8.0 24.0 z " fill-opacity="0.3" stroke-opacity="0.3"/>
<path d="M 8.0 26.0 C 7.642 26.0 7.291 25.904 6.986 25.724 C 6.379 25.368 6.0 24.707 6.0 24.0 L 6.0 6.0 C 6.0 5.293 6.379 4.632 6.989 4.274 C 7.296 4.095 7.646 4.0 8.0 4.0 C 8.343 4.0 8.683 4.089 8.981 4.258 L 24.004 13.271999 C 24.609 13.61 25.0 14.278 25.0 15.0 C 25.0 15.722 24.609 16.39 23.98 16.743 L 9.005 25.729 C 8.683 25.911 8.343 26.0 8.0 26.0 L 8.0 26.0 z " fill-opacity="0.15" stroke-opacity="0.15"/>
<path d="M 8.0 25.0 C 7.826 25.0 7.65 24.955 7.495 24.863 C 7.188 24.684 7.0 24.355 7.0 24.0 L 7.0 6.0 C 7.0 5.645 7.188 5.316 7.495 5.137 C 7.65 5.046 7.826 5.0 8.0 5.0 C 8.169 5.0 8.338 5.043 8.49 5.129 L 23.49 14.129 C 23.805 14.306 24.0 14.639 24.0 15.0 C 24.0 15.361 23.805 15.694 23.49 15.871 L 8.49 24.871 C 8.338 24.957 8.169 25.0 8.0 25.0 L 8.0 25.0 z " fill="#dedede"/>
<rect fill="none" height="30" width="30"/>
</svg>
