<?xml version="1.0" encoding="UTF-8"?>
<svg xmlns="http://www.w3.org/2000/svg" xmlns:xlink="http://www.w3.org/1999/xlink" baseProfile="tiny" contentScriptType="text/ecmascript" contentStyleType="text/css" height="30px" preserveAspectRatio="xMidYMid meet" version="1.1" viewBox="0 0 30 30" width="30px" x="0px" y="0px" zoomAndPan="magnify">
<path d="M 30.0 2.0 C 30.0 1.4660001 29.792 0.964 29.414 0.58599997 C 29.036 0.20799994 28.534 0.0 28.0 0.0 C 27.466 0.0 26.964 0.208 26.586 0.586 L 22.492 4.68 C 20.76 3.1 18.199 2.0 14.999 2.0 C 8.823 2.0 5.0 6.08 5.0 9.859 C 5.0 13.97 6.966 16.511 8.546 18.552 C 8.556999 18.566 8.566999 18.579 8.577999 18.593 L 0.585999 26.585 C 0.208 26.964 0.0 27.466 0.0 28.0 C 0.0 28.534 0.208 29.036 0.586 29.414 C 0.9640001 29.792 1.466 30.0 2.0 30.0 C 2.534 30.0 3.036 29.792 3.414 29.414 L 10.398001 22.43 C 10.398001 22.657 10.398001 22.898 10.398001 23.0 L 10.398001 25.285 C 10.398001 26.782 11.655001 28.0 13.201 28.0 L 16.799 28.0 C 18.343 28.0 19.6 26.782 19.6 25.285 L 19.6 23.0 C 19.6 22.819 19.602 22.191 19.604 22.013 C 19.618 20.926 20.428 19.879 21.455 18.553 C 23.034 16.511 25.0 13.97 25.0 9.859 C 25.0 9.276 24.898 8.687 24.722 8.1050005 L 29.414 3.4140005 C 29.792 3.036 30.0 2.534 30.0 2.0 z " fill-opacity="0.15" stroke-opacity="0.15"/>
<path d="M 11.398 24.285 C 11.398 25.231 12.205 26.0 13.201 26.0 L 16.799 26.0 C 17.795 26.0 18.6 25.231 18.6 24.285 L 18.6 22.0 L 11.399 22.0 L 11.399 24.285 z M 28.707 0.293 C 28.316 -0.09799999 27.684 -0.09799999 27.293 0.293 L 22.494 5.092 C 20.953 3.297 18.319 2.0 14.999 2.0 C 9.6 2.0 6.0 5.429 6.0 8.859 C 6.0 13.113001 8.305 15.548 9.902 17.683 L 1.2930002 26.292 C 0.9020002 26.683 0.9020002 27.315 1.2930002 27.706 C 1.488 27.902 1.744 28.0 2.0 28.0 C 2.256 28.0 2.512 27.902 2.707 27.707 L 10.994 19.420002 C 11.233 19.932 11.389999 20.451002 11.396 21.000002 L 18.603 21.000002 C 18.646 17.601 24.0 15.336 24.0 8.859 C 24.0 8.174 23.851 7.492 23.579 6.835 L 28.707 1.7070004 C 29.098 1.316 29.098 0.684 28.707 0.293 z " fill-opacity="0.3"/>
<rect fill="none" height="30" width="30"/>
<path d="M 21.408 5.057 C 19.84 3.82 17.637 3.0 14.999 3.0 C 9.6 3.0 6.0 6.429 6.0 9.859 C 6.0 13.341001 7.547 15.602 8.984 17.48 L 21.408 5.057 z " fill="#dedede"/>
<path d="M 11.398 25.285 C 11.398 26.231 12.205 27.0 13.201 27.0 L 16.799 27.0 C 17.795 27.0 18.6 26.231 18.6 25.285 L 18.6 23.0 L 11.399 23.0 L 11.399 25.285 z " fill="#dedede"/>
<path d="M 11.535 22.0 L 18.603 22.0 C 18.646 18.601 24.0 16.336 24.0 9.859 C 24.0 9.757 23.986 9.656 23.98 9.554 L 11.535 22.0 z " fill="#dedede"/>
<path d="M 2.0 29.0 C 1.744 29.0 1.4879999 28.902 1.293 28.707 C 0.902 28.316 0.902 27.684 1.293 27.293 L 27.293 1.2930012 C 27.684 0.90200114 28.316 0.90200114 28.707 1.2930012 C 29.097998 1.6840012 29.098 2.3160012 28.707 2.7070012 L 2.7069988 28.707 C 2.512 28.902 2.256 29.0 2.0 29.0 L 2.0 29.0 z " fill="#fa664b"/>
</svg>
