<?xml version="1.0" encoding="UTF-8"?>
<svg xmlns="http://www.w3.org/2000/svg" xmlns:xlink="http://www.w3.org/1999/xlink" baseProfile="tiny" contentScriptType="text/ecmascript" contentStyleType="text/css" height="30px" preserveAspectRatio="xMidYMid meet" version="1.1" viewBox="0 0 30 30" width="30px" x="0px" y="0px" zoomAndPan="magnify">
<defs/>
<rect color="#000000" display="inline" fill="#353535" fill-opacity="0.58823529" fill-rule="nonzero" height="27.533897" ry="4.7137108" stroke="none" visibility="visible" width="27.533897" x="1.2330513" y="1.2330513"/>
<rect fill="none" height="30" width="30"/>
<rect fill="none" height="30" width="30"/>
<path d="M 6.34375 6.40625 C 5.945073 6.40625 5.625 6.729443 5.625 7.125 L 5.625 22.875 C 5.625 23.270555 5.945073 23.59375 6.34375 23.59375 L 23.65625 23.59375 C 24.054928 23.59375 24.375 23.270555 24.375 22.875 L 24.375 7.125 C 24.375 6.729443 24.054928 6.4062505 23.65625 6.40625 L 6.34375 6.40625 z M 11.90625 10.15625 L 18.09375 10.15625 L 18.09375 10.78125 C 17.944635 11.038806 17.772598 11.365947 17.5625 11.75 C 17.352388 12.134072 17.109947 12.583559 16.875 13.0625 C 16.64004 13.541455 16.400238 14.042514 16.15625 14.59375 C 15.912252 15.144997 15.68111 15.725114 15.46875 16.3125 C 15.256382 16.899893 15.066649 17.49055 14.90625 18.09375 C 14.745843 18.696957 14.63479 19.26088 14.5625 19.84375 L 13.375 19.84375 C 13.45633 19.265398 13.580558 18.696955 13.75 18.09375 C 13.919437 17.490547 14.097873 16.893116 14.3125 16.3125 C 14.527119 15.731893 14.760522 15.193942 15.0 14.65625 C 15.23947 14.118568 15.492828 13.608095 15.71875 13.15625 C 15.944666 12.704419 16.124985 12.283163 16.3125 11.9375 C 16.500008 11.591852 16.668285 11.35055 16.78125 11.15625 L 11.90625 11.15625 L 11.90625 10.15625 z " fill="#ffffff"/>
</svg>
