<?xml version="1.0" encoding="UTF-8"?>
<svg xmlns="http://www.w3.org/2000/svg" xmlns:xlink="http://www.w3.org/1999/xlink" baseProfile="tiny" contentScriptType="text/ecmascript" contentStyleType="text/css" height="57px" preserveAspectRatio="xMidYMid meet" version="1.1" viewBox="0 0 67 57" width="67px" x="0px" y="0px" zoomAndPan="magnify">
<rect fill="#dedede" fill-opacity="0.78431373" fill-rule="nonzero" height="48" ry="8.2174387" stroke="none" width="48" x="9.5" y="5.5"/>
<path d="M 32.879234 12.588983 C 23.611591 12.588983 16.072031 20.127775 16.072031 29.393131 C 16.072031 38.662304 23.61159 46.203392 32.879234 46.203392 C 42.14688 46.203392 49.68644 38.662304 49.68644 29.393131 C 49.68644 20.127775 42.14688 12.588984 32.879234 12.588984 z M 33.718067 18.910784 C 33.718067 18.910784 33.718067 18.910784 35.114594 18.910784 C 39.5876 18.910784 43.36311 22.687056 43.36311 27.156246 C 43.36311 27.156246 43.36311 27.156246 43.36311 28.55583 C 43.36311 28.55583 43.36311 28.55583 38.47374 28.55583 C 38.47374 28.55583 38.47374 28.55583 38.47374 28.134884 C 38.47374 25.759722 36.374363 23.80321 33.999203 23.80321 C 33.999203 23.80321 33.999203 23.80321 33.71883 23.80321 C 33.718067 23.803974 33.718067 23.803974 33.718067 18.910788 z M 43.36464 31.35576 C 43.36464 36.10685 39.589893 39.880833 35.116123 39.880833 C 35.116123 39.880833 35.116123 39.880833 30.92349 39.880833 C 26.169344 39.880833 22.3946 36.10685 22.3946 31.35576 C 22.3946 31.35576 22.3946 31.35576 22.3946 27.16236 C 22.3946 22.689354 26.169346 18.913843 30.923492 18.913843 C 30.923492 18.913843 30.923492 18.913843 32.320015 18.913843 C 32.320015 18.913843 32.320015 18.913843 32.320015 23.80474 C 32.320015 23.80474 32.320015 23.80474 31.9006 23.80474 C 29.523909 23.80474 27.428354 25.76278 27.428354 28.139471 C 27.428354 28.139471 27.428354 28.139471 27.428354 30.65444 C 27.428354 33.03113 29.523144 34.707268 31.9006 34.707268 C 31.9006 34.707268 31.9006 34.707268 33.99844 34.707268 C 36.37207 34.707268 38.472977 33.03113 38.472977 30.65444 C 38.472977 30.65444 38.472977 30.65444 38.472977 29.95465 L 38.473736 29.95465 L 38.473736 29.95775 L 43.363873 29.95775 C 43.364635 29.95775 43.364635 29.95775 43.364635 31.355804 z " fill="#ffffff" fill-opacity="1" stroke-opacity="0.3"/>
<defs>
<linearGradient gradientUnits="userSpaceOnUse" x1="33.0005" x2="33.0005" xlink:actuate="onLoad" xlink:show="other" xlink:type="simple" y1="51" y2="7.0005">
<stop offset="0" stop-color="#d0cbc5"/>
<stop offset="0.5031" stop-color="#fafcef"/>
<stop offset="0.9693" stop-color="#ffffff"/>
<stop offset="1" stop-color="#ffffff"/>
</linearGradient>
</defs>
</svg>
