<?xml version="1.0" encoding="UTF-8"?>
<svg xmlns="http://www.w3.org/2000/svg" xmlns:xlink="http://www.w3.org/1999/xlink" baseProfile="tiny" contentScriptType="text/ecmascript" contentStyleType="text/css" height="57px" preserveAspectRatio="xMidYMid meet" version="1.1" viewBox="0 0 67 57" width="67px" x="0px" y="0px" zoomAndPan="magnify">
<rect fill="#ffffff" fill-opacity="0.70588235" fill-rule="nonzero" height="48" ry="8.2174387" stroke="none" width="48" x="9.5" y="5.5"/>
<rect fill="#469fff" fill-opacity="0.58823529" fill-rule="nonzero" height="48" ry="8.2174387" stroke="none" width="48" x="9.5" y="5.5"/>
<defs>
<linearGradient gradientUnits="userSpaceOnUse" x1="34.1465" x2="34.1465" xlink:actuate="onLoad" xlink:show="other" xlink:type="simple" y1="49" y2="7.0005">
<stop offset="0" stop-color="#d0cbc5"/>
<stop offset="0.5031" stop-color="#fafcef"/>
<stop offset="0.9693" stop-color="#ffffff"/>
<stop offset="1" stop-color="#ffffff"/>
</linearGradient>
</defs>
<path d="M 34.3125 11.78125 C 30.379816 11.781277 27.040249 12.667827 24.28125 14.4375 C 21.522232 16.207224 19.405577 18.73204 17.90625 22.0625 C 16.67729 24.778511 16.031244 27.657602 16.03125 30.65625 C 16.031244 33.347675 16.561424 35.833523 17.59375 38.15625 C 18.41715 39.987396 19.627771 41.624092 21.25 43.03125 C 22.87222 44.438408 24.851944 45.486984 27.15625 46.1875 C 29.46053 46.888 31.990444 47.218742 34.71875 47.21875 C 37.68052 47.218742 40.179707 46.842884 42.28125 46.0625 C 44.382744 45.282112 46.226055 44.245815 47.75 42.90625 C 49.273876 41.56669 50.341934 40.227905 50.96875 38.9375 L 47.625 38.9375 C 46.543488 40.48599 44.89398 41.824764 42.71875 42.90625 C 40.543465 43.987736 37.8761 44.49999 34.65625 44.5 C 31.645285 44.49999 28.882586 43.97596 26.40625 42.9375 C 23.92989 41.89903 22.027582 40.33151 20.71875 38.15625 C 19.409904 35.981 18.781244 33.354706 18.78125 30.34375 C 18.781244 27.468002 19.409904 24.794489 20.71875 22.28125 C 22.027584 19.768051 23.903206 17.845732 26.28125 16.5 C 28.659271 15.154318 31.280472 14.468777 34.15625 14.46875 C 36.67559 14.468775 38.979385 14.99333 41.0625 16.0625 C 41.774677 16.428057 42.410183 16.83238 43.0 17.28125 C 43.257797 17.145126 43.54093 17.0625 43.84375 17.0625 L 44.53125 17.0625 L 44.1875 16.46875 C 43.85325 15.891948 43.88521 15.202648 44.1875 14.65625 C 43.66046 14.283934 43.117294 13.926193 42.53125 13.625 C 40.10403 12.377633 37.36029 11.781279 34.3125 11.78125 z M 49.875 23.90625 C 49.77136 23.92661 49.68854 23.96875 49.5625 23.96875 C 48.95691 23.96875 48.32764 23.656164 48.0 23.09375 L 47.65625 22.5 L 47.3125 23.09375 C 47.23464 23.22915 47.0 23.4375 47.0 23.4375 L 47.0 23.46875 C 47.0 23.46875 47.34374 25.200018 47.34375 26.09375 C 47.343723 27.851171 46.910973 29.565807 46.09375 31.21875 C 45.27646 32.871708 44.18223 34.173088 42.78125 35.15625 C 41.724316 35.90592 40.870068 36.28125 40.21875 36.28125 C 39.862324 36.28125 39.564407 36.17715 39.3125 35.9375 C 39.06054 35.697857 38.937473 35.39432 38.9375 35.0625 C 38.937477 34.87816 39.131283 33.939297 39.5 32.21875 L 42.15625 19.84375 L 38.84375 19.84375 L 38.21875 22.6875 C 37.518223 21.544588 36.68961 20.715445 35.71875 20.15625 C 34.747852 19.59709 33.72542 19.281277 32.65625 19.28125 C 31.255222 19.281277 29.799524 19.798103 28.3125 20.78125 C 26.825447 21.764437 25.564093 23.227327 24.5625 25.1875 C 23.560888 27.147703 23.062489 29.108463 23.0625 31.0625 C 23.062489 32.64786 23.38604 34.11023 24.03125 35.4375 C 24.676443 36.76478 25.530165 37.73594 26.5625 38.375 C 27.594812 39.014057 28.656208 39.34375 29.75 39.34375 C 30.74544 39.34375 31.729422 39.059177 32.71875 38.5 C 33.70804 37.940823 34.607407 37.202976 35.40625 36.28125 C 35.47996 37.03092 35.59022 37.56776 35.75 37.875 C 35.99577 38.354298 36.38392 38.710667 36.90625 38.96875 C 37.428535 39.22683 38.120747 39.34375 38.96875 39.34375 C 41.62327 39.34375 44.075764 38.1075 46.3125 35.625 C 48.819546 32.85985 50.031216 29.68899 50.03125 26.125 C 50.03124 25.361214 49.98434 24.635485 49.875 23.90625 z M 32.875 22.0625 C 34.06707 22.062515 35.07668 22.5158 35.90625 23.4375 C 36.73577 24.359234 37.15623 25.64113 37.15625 27.3125 C 37.15623 28.56605 36.911156 29.846363 36.46875 31.09375 C 36.02631 32.341145 35.506844 33.345146 34.8125 34.15625 C 34.11812 34.967365 33.386932 35.588303 32.625 36.0 C 31.86303 36.4117 31.125698 36.593754 30.4375 36.59375 C 29.40516 36.593754 28.486303 36.15276 27.6875 35.21875 C 26.888662 34.284744 26.46874 32.996174 26.46875 31.3125 C 26.468737 30.255606 26.669222 29.07834 27.0625 27.8125 C 27.455751 26.546682 27.973637 25.447365 28.625 24.5625 C 29.276337 23.677662 29.961872 23.055676 30.65625 22.65625 C 31.350595 22.256851 32.088448 22.062515 32.875 22.0625 z " fill="#ffffff" fill-opacity="1"/>
<path d="M 51.473267 18.093884 L 48.97703 18.093884 L 50.225147 15.932211 C 50.43673 15.56633 50.31146 15.099623 49.94558 14.888803 C 49.5797 14.67798 49.11299 14.804012 48.902172 15.168367 L 47.654057 17.330038 L 46.405937 15.168367 C 46.19436 14.801724 45.72688 14.6772175 45.36253 14.888803 C 44.99665 15.099623 44.87138 15.567094 45.08296 15.932211 L 46.33108 18.093884 L 43.834843 18.093884 C 43.412437 18.093884 43.071 18.43532 43.071 18.857723 C 43.071 19.280128 43.41244 19.621569 43.834843 19.621569 L 46.33108 19.621569 L 45.08296 21.78324 C 44.872135 22.14912 44.997417 22.61583 45.36253 22.826649 C 45.482452 22.896156 45.61383 22.929005 45.743687 22.929005 C 46.00874 22.929005 46.26539 22.791512 46.405937 22.54708 L 47.654053 20.385408 L 48.90217 22.54708 C 49.04501 22.792274 49.30013 22.929005 49.56442 22.929005 C 49.69427 22.929005 49.825653 22.896152 49.94558 22.826649 C 50.31146 22.61583 50.43673 22.148355 50.225147 21.78324 L 48.97703 19.621569 L 51.47327 19.621569 C 51.89567 19.621569 52.23711 19.28013 52.23711 18.857723 C 52.23711 18.43532 51.895668 18.093884 51.47327 18.093884 z " fill="#fa664b" fill-opacity="1"/>
</svg>
