<?xml version="1.0" encoding="UTF-8"?>
<svg xmlns="http://www.w3.org/2000/svg" xmlns:xlink="http://www.w3.org/1999/xlink" baseProfile="tiny" contentScriptType="text/ecmascript" contentStyleType="text/css" height="30px" preserveAspectRatio="xMidYMid meet" version="1.1" viewBox="0 0 30 30" width="30px" x="0px" y="0px" zoomAndPan="magnify">
<path d="M 27.01088 15.056376 C 27.01088 21.174866 21.638369 26.134884 15.011038 26.134884 C 8.383708 26.134884 3.011196 21.174866 3.011196 15.056376 C 3.011196 8.937886 8.383708 3.97787 15.011038 3.97787 C 21.638369 3.97787 27.01088 8.937886 27.01088 15.056376 z " fill="#cecece" fill-opacity="0" fill-rule="nonzero" stroke="#7cc7fb" stroke-dasharray="none" stroke-miterlimit="4" stroke-opacity="1" stroke-width="0.83854364000000003" transform="matrix(0.91667876,0,0,0.99291362,1.2397005,0.05031878)"/>
<g transform="matrix(0.65228557,0,0,0.65228557,7.5,9.4060086)">
<path d="M 22.003937 0.0 L 0.992126 0.0 C 0.4606299 0.0 0.0 0.46062997 0.0 0.9921261 L 0.0 16.015749 C 0.0 16.547245 0.4606299 17.007875 0.992126 17.007875 L 22.003937 17.007875 C 22.535433 17.007875 22.996063 16.547245 22.996063 16.015749 L 22.996063 0.99212646 C 22.996063 0.46062997 22.535433 0.0 22.003937 0.0 z M 8.610236 13.641733 C 7.1929135 14.031497 6.200787 14.031497 5.562992 13.996064 C 4.889764 14.031497 3.933071 14.031497 2.515748 13.641733 C 1.9133856 13.500001 1.4173228 13.287403 0.992126 13.039371 L 1.027559 12.9685 C 1.098425 12.543304 1.6299212 12.295272 1.6299212 12.295272 C 2.3740156 11.834641 3.0826771 11.551177 3.0826771 11.551177 C 3.8976376 11.232279 4.03937 10.523618 4.074803 10.417319 C 4.1102357 10.169288 4.1811023 9.885823 4.074803 9.814957 C 3.6141732 9.389765 3.437008 8.433072 3.437008 8.433072 C 3.437008 8.397639 3.437008 8.362206 3.437008 8.326773 C 3.1889763 8.574804 3.1181102 7.8661423 3.047244 7.618111 C 2.905512 7.1574807 2.940945 7.051182 2.940945 7.051182 C 2.940945 6.732284 3.1535432 6.838584 3.1535432 6.838584 L 3.1889763 6.874016 C 3.011811 6.4133863 2.976378 6.1299214 2.976378 5.811024 C 3.011811 5.1732287 2.7637796 4.854331 3.3661416 3.862205 C 3.3661416 3.862205 3.4724407 3.7204728 3.6850393 3.7204728 C 3.8622048 3.6850395 3.7913384 3.5787404 3.8622048 3.437008 C 3.933071 3.3307087 4.003937 3.1535437 4.358268 3.2244096 C 4.7480316 3.2598429 4.889764 2.76378 6.023622 3.1535437 C 7.1220474 3.5078745 7.405512 3.5787404 7.5826774 3.862205 C 8.220472 4.854331 8.07874 5.06693 8.07874 5.740158 C 8.07874 6.129922 7.937008 6.4133863 7.9015746 6.874016 L 7.9370074 6.838584 C 7.9370074 6.838584 8.185039 6.767718 8.149606 7.086615 C 8.149606 7.086615 8.07874 7.2992134 8.007874 7.618111 C 7.901574 7.937009 7.795275 8.610237 7.547244 8.29134 C 7.547244 8.326773 7.547244 8.3622055 7.511811 8.433072 C 7.511811 8.433072 7.3346457 9.389765 6.8740153 9.814962 C 6.803149 9.885828 6.8385825 10.169292 6.909448 10.417325 C 6.944881 10.523624 7.15748 11.090553 7.6181097 11.409451 C 7.688976 11.480321 7.795275 11.51575 7.901574 11.551183 C 7.901574 11.551183 8.645669 11.834648 9.389763 12.295278 C 9.389763 12.295278 9.885826 12.543308 9.9921255 12.968506 L 9.9921255 13.110238 C 9.602362 13.322837 9.141732 13.500002 8.610235 13.641734 z M 21.507874 13.003939 L 12.507874 13.003939 C 12.224408 13.003939 12.01181 12.791341 12.01181 12.507875 C 12.01181 12.22441 12.224408 12.011812 12.507874 12.011812 L 21.507874 12.011812 C 21.791338 12.011812 22.003937 12.22441 22.003937 12.507875 C 22.003937 12.791341 21.791338 13.003939 21.507874 13.003939 z M 21.507874 9.992127 L 12.507874 9.992127 C 12.224408 9.992127 12.01181 9.779529 12.01181 9.496064 C 12.01181 9.248033 12.224408 9.000001 12.507874 9.000001 L 21.507874 9.000001 C 21.791338 9.000001 22.003937 9.248033 22.003937 9.496064 C 22.003937 9.779529 21.791338 9.992127 21.507874 9.992127 z M 21.507874 7.015749 L 12.507874 7.015749 C 12.224408 7.015749 12.01181 6.767718 12.01181 6.5196857 C 12.01181 6.2362213 12.224408 6.0236225 12.507874 6.0236225 L 21.507874 6.0236225 C 21.791338 6.0236225 22.003937 6.236221 22.003937 6.5196857 C 22.003937 6.767718 21.791338 7.015749 21.507874 7.015749 z " fill="#7cc7fb" fill-opacity="1" fill-rule="nonzero" stroke="none"/>
</g>
</svg>
