<?xml version="1.0" encoding="UTF-8"?>
<svg xmlns="http://www.w3.org/2000/svg" xmlns:xlink="http://www.w3.org/1999/xlink" baseProfile="tiny" contentScriptType="text/ecmascript" contentStyleType="text/css" height="30px" preserveAspectRatio="xMidYMid meet" version="1.1" viewBox="0 0 30 30" width="30px" x="0px" y="0px" zoomAndPan="magnify">
<path d="M 27.0 11.0 L 26.967 11.0 L 27.858 9.515 C 27.953 9.356 28.0 9.178 28.0 9.0 C 28.0 8.83 27.957 8.66 27.87 8.507 C 27.693 8.193 27.36 8.0 27.0 8.0 L 25.931 8.0 C 25.436 4.061 22.072 1.0 18.0 1.0 C 17.447 1.0 17.0 1.447 17.0 2.0 L 15.304 2.0 C 14.841 2.0 14.434 2.186 14.174 2.505 C 13.914 2.186 13.506 2.0 13.043 2.0 L 6.955 2.0 C 6.492 2.0 6.085 2.186 5.825 2.505 C 5.565 2.186 5.157 2.0 4.694 2.0 L 3.0 2.0 C 1.896 2.0 1.0 2.896 1.0 4.0 L 1.0 17.0 C 1.0 18.104 1.896 19.0 3.0 19.0 L 11.0 19.0 L 11.0 26.0 C 11.0 27.104 11.896 28.0 13.0 28.0 L 27.0 28.0 C 28.104 28.0 29.0 27.104 29.0 26.0 L 29.0 13.0 C 29.0 11.896 28.104 11.0 27.0 11.0 z M 21.857 8.0 L 21.0 8.0 C 20.64 8.0 20.307 8.193 20.13 8.507 C 20.043 8.66 20.0 8.83 20.0 9.0 C 20.0 9.178 20.047 9.356 20.143 9.515 L 21.033 11.0 L 19.0 11.0 L 19.0 5.143 C 20.395 5.508 21.494 6.602 21.857 8.0 z " fill-opacity="0.15" stroke-opacity="0.15"/>
<rect fill="none" height="30" width="30"/>
<path d="M 12.0 20.576 L 21.575 11.0 L 19.454 11.0 L 12.0 18.454 L 12.0 20.576 z M 17.333 11.0 L 16.955 11.0 C 16.572 11.0 16.427 11.273 16.63 11.605 L 16.665998 11.665999 L 17.333 11.0 z M 15.054 11.156 C 15.054 11.156 15.055 11.157001 15.055 11.158 L 15.054 11.156 L 15.054 11.156 z M 25.543 12.539 L 25.491999 12.455 L 25.491999 12.456 L 25.543 12.539 z M 12.0 16.333 L 15.189 13.144 L 14.782001 13.144 C 14.400001 13.144 14.252001 12.871 14.455001 12.54 L 15.021001 11.606 C 15.130001 11.426 15.1310005 11.268 15.054001 11.159 L 12.0 14.211 L 12.0 16.333 z M 23.0 8.0 L 21.0 8.0 L 24.0 13.0 L 27.0 8.0 L 25.0 8.0 C 25.0 4.141 21.859 1.0 18.0 1.0 L 18.0 3.0 C 20.757 3.0 23.0 5.243 23.0 8.0 z M 12.0 12.0 L 12.0 12.09 L 13.09 11.0 L 13.0 11.0 C 12.447 11.0 12.0 11.447 12.0 12.0 z M 27.66 11.262 L 27.669 11.271 L 27.671001 11.269 C 27.668 11.266 27.664 11.265 27.66 11.262 z M 19.303 26.0 L 28.0 17.304 L 28.0 15.182001 L 17.182 26.0 L 19.303 26.0 z M 27.669 11.271 L 12.949 25.991001 C 12.967 25.99 12.982 26.0 13.0 26.0 L 15.061 26.0 L 28.0 13.061 L 28.0 12.0 C 28.0 11.708 27.869 11.452 27.669 11.271 z M 23.547 26.0 L 28.0 21.546 L 28.0 19.425 L 21.425 26.0 L 23.547 26.0 z M 12.909 9.692 C 13.553 9.150001 13.943001 8.779 13.943001 8.185 C 13.943001 7.5590005 13.598001 7.2420006 12.918001 7.2420006 C 12.4990015 7.2420006 11.964001 7.3630004 11.328001 7.6020007 C 11.306001 7.6100006 11.281001 7.6150007 11.258001 7.6150007 C 11.218001 7.6150007 11.178001 7.6020007 11.144001 7.579001 C 11.090001 7.542001 11.058001 7.480001 11.058001 7.415001 L 11.058001 6.341 C 11.058001 6.251 11.118001 6.173 11.204 6.149 C 12.025 5.917 12.766 5.8 13.401 5.8 C 15.1119995 5.8 16.133 6.6670003 16.133 8.119 C 16.133 8.976001 15.799999 9.562 15.278 10.114 C 15.4939995 10.200001 15.683 10.33 15.825 10.505 C 16.085 10.186 16.492 10.0 16.955 10.0 L 18.0 10.0 L 18.0 4.0 C 17.447 4.0 17.0 3.553 17.0 3.0 L 17.0 2.0 L 15.304 2.0 C 14.922 2.0 14.774 2.273 14.979 2.605 L 15.543 3.539 C 15.747 3.8700001 15.6 4.143 15.217 4.143 L 13.13 4.143 C 12.747 4.143 12.6 3.8700001 12.803 3.539 L 13.369 2.605 C 13.572 2.273 13.426 2.0 13.043 2.0 L 6.955 2.0 C 6.572 2.0 6.427 2.273 6.63 2.605 L 7.195 3.539 C 7.398 3.87 7.252 4.144 6.869 4.144 L 4.782 4.144 C 4.4 4.144 4.252 3.871 4.455 3.54 L 5.021 2.606 C 5.225 2.273 5.077 2.0 4.694 2.0 L 3.0 2.0 C 2.447 2.0 2.0 2.447 2.0 3.0 L 2.0 16.0 C 2.0 16.553 2.447 17.0 3.0 17.0 L 11.0 17.0 L 11.0 14.2 L 10.986 14.2 C 10.876 14.2 10.786 14.11 10.786 14.0 L 10.786 13.307 C 10.786 12.857 10.867001 12.454 11.0 12.086 L 11.0 12.0 C 11.0 11.084 11.621 10.319 12.462 10.083 C 12.61 9.948 12.76 9.817 12.909 9.692 z M 9.792 14.0 C 9.792 14.11 9.702 14.2 9.592 14.2 L 4.578 14.2 C 4.468 14.2 4.3780003 14.11 4.3780003 14.0 L 4.3780003 12.922 C 4.3780003 12.812 4.4680004 12.722 4.578 12.722 L 5.9560003 12.722 L 5.9560003 7.603 L 4.622 7.906 C 4.607 7.909 4.593 7.911 4.578 7.911 C 4.533 7.911 4.489 7.895 4.453 7.8669996 C 4.406 7.829 4.378 7.771 4.378 7.711 L 4.378 6.773 C 4.378 6.685 4.436 6.608 4.5189996 6.582 L 7.0029993 5.809 L 8.0 5.8 C 8.11 5.8 8.2 5.8900003 8.2 6.0 L 8.2 12.722 L 9.592 12.722 C 9.702 12.722 9.792 12.812 9.792 12.922 L 9.792 14.0 z M 23.143 13.515 L 22.892 13.096001 C 22.774 13.041 22.72 12.938001 22.721 12.812 L 22.408 12.29 L 12.0 22.697 L 12.0 24.818 L 23.214 13.604001 C 23.19 13.574 23.162 13.548 23.143 13.515 z M 27.0 26.0 C 27.553 26.0 28.0 25.553 28.0 25.0 L 28.0 23.667 L 25.667 26.0 L 27.0 26.0 z M 12.938 25.987 C 12.679 25.97 12.447 25.859 12.278 25.685 C 12.446 25.863 12.679 25.971 12.938 25.987 z " fill-opacity="0.3" stroke-opacity="0.3"/>
<path d="M 12.0 21.576 L 21.575 12.0 L 19.454 12.0 L 12.0 19.454 L 12.0 21.576 z M 17.333 12.0 L 16.955 12.0 C 16.572 12.0 16.427 12.273 16.63 12.605 L 16.665998 12.665999 L 17.333 12.0 z M 15.054 12.156 C 15.054 12.156 15.055 12.157001 15.055 12.158 L 15.054 12.156 L 15.054 12.156 z M 25.543 13.539 L 25.491999 13.455 L 25.491999 13.456 L 25.543 13.539 z M 12.0 17.333 L 15.189 14.144 L 14.782001 14.144 C 14.400001 14.144 14.252001 13.871 14.455001 13.54 L 15.021001 12.606 C 15.130001 12.426 15.1310005 12.268 15.054001 12.159 L 12.0 15.211 L 12.0 17.333 z M 23.0 9.0 L 21.0 9.0 L 24.0 14.0 L 27.0 9.0 L 25.0 9.0 C 25.0 5.141 21.859 2.0 18.0 2.0 L 18.0 4.0 C 20.757 4.0 23.0 6.243 23.0 9.0 z M 12.0 13.0 L 12.0 13.09 L 13.09 12.0 L 13.0 12.0 C 12.447 12.0 12.0 12.447 12.0 13.0 z M 27.66 12.262 L 27.669 12.271 L 27.671001 12.269 C 27.668 12.266 27.664 12.265 27.66 12.262 z M 19.303 27.0 L 28.0 18.304 L 28.0 16.182001 L 17.182 27.0 L 19.303 27.0 z M 27.669 12.271 L 12.949 26.991001 C 12.967 26.99 12.982 27.0 13.0 27.0 L 15.061 27.0 L 28.0 14.061 L 28.0 13.0 C 28.0 12.708 27.869 12.452 27.669 12.271 z M 23.547 27.0 L 28.0 22.546 L 28.0 20.425 L 21.425 27.0 L 23.547 27.0 z M 12.909 10.692 C 13.553 10.150001 13.943001 9.779 13.943001 9.185 C 13.943001 8.559 13.598001 8.242001 12.918001 8.242001 C 12.4990015 8.242001 11.964001 8.363001 11.328001 8.602 C 11.306001 8.610001 11.281001 8.615 11.258001 8.615 C 11.218001 8.615 11.178001 8.602 11.144001 8.5789995 C 11.090001 8.542 11.058001 8.48 11.058001 8.415 L 11.058001 7.341 C 11.058001 7.251 11.118001 7.173 11.204 7.149 C 12.025 6.917 12.766 6.8 13.401 6.8 C 15.1119995 6.8 16.133 7.6670003 16.133 9.119 C 16.133 9.976001 15.799999 10.562 15.278 11.114 C 15.4939995 11.200001 15.683 11.33 15.825 11.505 C 16.085 11.186 16.492 11.0 16.955 11.0 L 18.0 11.0 L 18.0 5.0 C 17.447 5.0 17.0 4.553 17.0 4.0 L 17.0 3.0 L 15.304 3.0 C 14.922 3.0 14.774 3.273 14.979 3.605 L 15.543 4.539 C 15.747 4.87 15.6 5.143 15.217 5.143 L 13.13 5.143 C 12.747 5.143 12.6 4.87 12.803 4.539 L 13.369 3.605 C 13.572 3.273 13.426 3.0 13.043 3.0 L 6.955 3.0 C 6.572 3.0 6.427 3.273 6.63 3.605 L 7.195 4.539 C 7.398 4.87 7.252 5.144 6.869 5.144 L 4.782 5.144 C 4.4 5.144 4.252 4.8710003 4.455 4.54 L 5.021 3.606 C 5.225 3.273 5.077 3.0 4.694 3.0 L 3.0 3.0 C 2.447 3.0 2.0 3.447 2.0 4.0 L 2.0 17.0 C 2.0 17.553 2.447 18.0 3.0 18.0 L 11.0 18.0 L 11.0 15.2 L 10.986 15.2 C 10.876 15.2 10.786 15.11 10.786 15.0 L 10.786 14.307 C 10.786 13.857 10.867001 13.454 11.0 13.086 L 11.0 13.0 C 11.0 12.084 11.621 11.319 12.462 11.083 C 12.61 10.948 12.76 10.817 12.909 10.692 z M 9.792 15.0 C 9.792 15.11 9.702 15.2 9.592 15.2 L 4.578 15.2 C 4.468 15.2 4.3780003 15.11 4.3780003 15.0 L 4.3780003 13.922 C 4.3780003 13.812 4.4680004 13.722 4.578 13.722 L 5.9560003 13.722 L 5.9560003 8.603 L 4.622 8.906 C 4.607 8.909 4.593 8.911 4.578 8.911 C 4.533 8.911 4.489 8.895 4.453 8.867001 C 4.406 8.829 4.378 8.771 4.378 8.711 L 4.378 7.773 C 4.378 7.685 4.436 7.608 4.5189996 7.582 L 7.0029993 6.809 L 8.0 6.8 C 8.11 6.8 8.2 6.8900003 8.2 7.0 L 8.2 13.722 L 9.592 13.722 C 9.702 13.722 9.792 13.812 9.792 13.922 L 9.792 15.0 z M 23.143 14.515 L 22.892 14.096001 C 22.774 14.041 22.72 13.938001 22.721 13.812 L 22.408 13.29 L 12.0 23.697 L 12.0 25.818 L 23.214 14.604001 C 23.19 14.574 23.162 14.548 23.143 14.515 z M 27.0 27.0 C 27.553 27.0 28.0 26.553 28.0 26.0 L 28.0 24.667 L 25.667 27.0 L 27.0 27.0 z M 12.938 26.987 C 12.679 26.97 12.447 26.859 12.278 26.685 C 12.446 26.863 12.679 26.971 12.938 26.987 z " fill="#dedede"/>
</svg>
