<?xml version="1.0" encoding="UTF-8"?>
<svg xmlns="http://www.w3.org/2000/svg" xmlns:xlink="http://www.w3.org/1999/xlink" baseProfile="tiny" contentScriptType="text/ecmascript" contentStyleType="text/css" height="57px" preserveAspectRatio="xMidYMid meet" version="1.1" viewBox="0 0 67 57" width="67px" x="0px" y="0px" zoomAndPan="magnify">
<path d="M 42.0 15.0 L 42.0 8.0 L 17.0 8.0 C 15.896 8.0 15.0 8.896 15.0 10.0 L 15.0 47.0 C 15.0 48.104 15.896 49.0 17.0 49.0 L 49.0 49.0 C 50.104 49.0 51.0 48.104 51.0 47.0 L 51.0 17.0 L 44.0 17.0 C 42.896 17.0 42.0 16.104 42.0 15.0 z M 33.084 43.0 C 31.481 43.0 30.18 41.697 30.18 40.1 C 30.18 38.494 31.482 37.196 33.084 37.196 C 34.689 37.196 35.988 38.494 35.988 40.1 C 35.988 41.697 34.689 43.0 33.084 43.0 z M 41.361 24.447 C 40.625 26.123 37.568 29.052 37.568 29.052 C 37.568 29.052 35.279 31.043 35.414 32.836 L 35.414 34.505997 L 30.747002 34.505997 L 30.747002 32.574997 C 30.747002 29.707996 32.391003 28.095997 34.127003 26.363997 C 36.009003 24.577995 36.813004 23.494995 36.813004 21.883995 C 36.813004 19.425997 35.417004 18.203997 32.622 18.203997 C 31.259 18.203997 29.643002 18.478996 27.77 19.027996 L 27.77 15.867996 C 31.151 14.954996 36.528 14.195996 39.801003 16.676996 C 42.848003 19.001995 42.059 22.853996 41.361004 24.446997 z M 46.0 15.0 L 51.0 15.0 L 44.0 8.0 L 44.0 13.0 C 44.0 14.104 44.896 15.0 46.0 15.0 z " fill="#dedede" fill-opacity="1"/>
<defs>
<linearGradient gradientUnits="userSpaceOnUse" x1="33.0005" x2="33.0005" xlink:actuate="onLoad" xlink:show="other" xlink:type="simple" y1="49" y2="8.0005">
<stop offset="0" stop-color="#d0cbc5"/>
<stop offset="0.5031" stop-color="#fafcef"/>
<stop offset="0.9693" stop-color="#ffffff"/>
<stop offset="1" stop-color="#ffffff"/>
</linearGradient>
</defs>
</svg>
