<?xml version="1.0" encoding="UTF-8"?>
<svg xmlns="http://www.w3.org/2000/svg" xmlns:xlink="http://www.w3.org/1999/xlink" baseProfile="tiny" contentScriptType="text/ecmascript" contentStyleType="text/css" height="57px" preserveAspectRatio="xMidYMid meet" version="1.1" viewBox="0 0 67 57" width="67px" x="0px" y="0px" zoomAndPan="magnify">
<rect fill="#ffffff" fill-opacity="0.70588235" fill-rule="nonzero" height="48" ry="8.2174387" stroke="none" width="48" x="9.5" y="4.5"/>
<rect color="#000000" display="inline" fill="#f6da42" fill-opacity="0.58823529" fill-rule="nonzero" height="48" ry="8.2174387" stroke="none" visibility="visible" width="48" x="9.499999" y="5.5"/>
<g>
<rect fill="none" height="57" width="67"/>
</g>
<path d="M 41.77816 21.990004 L 40.36416 23.405338 C 41.780823 24.820671 42.56083 26.700006 42.56083 28.698004 C 42.56083 30.696 41.780827 32.57467 40.36483 33.99 L 41.777496 35.405334 C 43.572163 33.612667 44.56083 31.230667 44.56083 28.698 C 44.56083 26.166 43.57283 23.783998 41.778164 21.990002 z M 45.1115 18.56267 L 43.697502 19.976667 C 48.505505 24.786 48.505505 32.61067 43.697502 37.41933 L 45.1115 38.833332 C 50.6995 33.244663 50.6995 24.151327 45.1115 18.562664 z M 39.697495 21.5 C 39.697495 20.133335 38.87416 18.962667 37.697495 18.448002 L 37.697495 17.5 C 37.697495 17.133335 37.586163 16.554667 37.45016 16.214 L 36.6115 14.118667 C 36.4755 13.778667 36.064163 13.5 35.6975 13.5 L 19.697496 13.5 C 19.33083 13.5 18.919498 13.778667 18.783497 14.119332 L 17.94483 16.214666 C 17.80883 16.554667 17.697498 17.133335 17.697498 17.5 L 17.697498 41.5 C 17.697498 41.867336 17.80883 42.445335 17.94483 42.786667 L 18.783497 44.882 C 18.9195 45.221336 19.330832 45.5 19.697496 45.5 C 25.1927 45.5 30.58963 45.5 35.697502 45.5 C 36.06417 45.5 36.475506 45.221333 36.6115 44.881332 L 37.450165 42.786 C 37.586166 42.444668 37.6975 41.86667 37.6975 41.5 L 37.6975 38.885338 C 38.874165 38.371338 39.6975 37.20067 39.6975 35.833332 C 39.6975 34.46733 38.874165 33.29667 37.6975 32.78133 L 37.6975 24.551996 C 38.87417 24.037333 39.6975 22.86666 39.6975 21.5 z M 28.667494 43.5 C 28.138063 43.870937 27.257702 43.870777 26.72816 43.5 C 26.43758 43.29654 26.36416 42.85473 26.36416 42.499996 C 26.36416 42.145267 26.43758 41.703453 26.72816 41.499992 C 27.257702 41.129215 28.13806 41.12906 28.667492 41.499992 C 28.957952 41.7035 29.030825 42.14534 29.030825 42.499996 C 29.030825 42.854652 28.957945 43.296497 28.667492 43.5 z M 35.69749 39.5 L 19.69749 39.5 L 19.69749 17.5 L 35.69749 17.5 z " fill="#ffffff" fill-opacity="1" stroke-opacity="0.3"/>
<defs>
<linearGradient gradientUnits="userSpaceOnUse" x1="41.7031" x2="41.7031" xlink:actuate="onLoad" xlink:show="other" xlink:type="simple" y1="51.9995" y2="4.0005">
<stop offset="0" stop-color="#d0cbc5"/>
<stop offset="0.5031" stop-color="#fafcef"/>
<stop offset="0.9693" stop-color="#ffffff"/>
<stop offset="1" stop-color="#ffffff"/>
</linearGradient>
</defs>
</svg>
