<?xml version="1.0" encoding="UTF-8"?>
<svg xmlns="http://www.w3.org/2000/svg" xmlns:xlink="http://www.w3.org/1999/xlink" baseProfile="tiny" contentScriptType="text/ecmascript" contentStyleType="text/css" height="30px" preserveAspectRatio="xMidYMid meet" version="1.1" viewBox="0 0 30 30" width="30px" x="0px" y="0px" zoomAndPan="magnify">
<path d="M 19.0 29.0 C 18.737 29.0 18.479 28.896 18.287 28.701 L 5.348 15.542 C 5.0290003 15.227 4.632 14.615 4.6 13.964 L 4.425 9.074 L 1.293 5.941 C 0.903 5.552 0.902 4.921 1.29 4.53 L 2.208 3.604 C 2.395 3.4160001 2.649 3.309 2.915 3.308 C 2.916 3.308 2.917 3.308 2.918 3.308 C 3.116 3.308 3.308 3.367 3.471 3.4750001 C 3.216 3.087 3.258 2.562 3.598 2.22 L 4.52 1.294 C 4.707 1.106 4.962 1.0 5.228 1.0 L 5.229 1.0 C 5.495 1.0 5.749 1.105 5.936 1.293 L 9.086 4.442 L 13.945001 4.6019998 C 14.579 4.6349998 15.205001 5.009 15.553 5.3659997 L 28.7 18.286 C 28.989 18.57 29.078001 19.001999 28.925001 19.377998 C 28.771 19.754 28.406 20.0 28.0 20.0 L 20.0 20.0 L 20.0 28.0 C 20.0 28.406 19.755 28.771 19.379 28.926 C 19.256 28.976 19.128 29.0 19.0 29.0 L 19.0 29.0 z M 24.0 12.0 C 22.897 12.0 22.0 11.103 22.0 10.0 L 22.0 8.0 L 20.0 8.0 C 18.897 8.0 18.0 7.103 18.0 6.0 C 18.0 4.897 18.897 4.0 20.0 4.0 L 22.0 4.0 L 22.0 2.0 C 22.0 0.89699996 22.897 0.0 24.0 0.0 C 25.103 0.0 26.0 0.897 26.0 2.0 L 26.0 4.0 L 28.0 4.0 C 29.103 4.0 30.0 4.897 30.0 6.0 C 30.0 7.103 29.103 8.0 28.0 8.0 L 26.0 8.0 L 26.0 10.0 C 26.0 11.103 25.103 12.0 24.0 12.0 L 24.0 12.0 z " fill-opacity="0.15"/>
<path d="M 20.0 6.0 L 23.0 6.0 L 23.0 8.0 C 23.0 8.552 23.447 10.0 24.0 10.0 C 24.553 10.0 25.0 8.552 25.0 8.0 L 25.0 6.0 L 28.0 6.0 C 28.553 6.0 29.0 5.552 29.0 5.0 C 29.0 4.448 28.553 4.0 28.0 4.0 L 25.0 4.0 L 25.0 1.0 C 25.0 0.448 24.553 0.0 24.0 0.0 C 23.447 0.0 23.0 0.448 23.0 1.0 L 23.0 4.0 L 20.0 4.0 C 19.447 4.0 19.0 4.448 19.0 5.0 C 19.0 5.552 19.447 6.0 20.0 6.0 z M 13.912 4.603 L 8.602 4.427 L 8.629001 4.4 L 5.229 1.0 L 4.307 1.926 L 5.2400002 2.856 L 3.853 4.241 L 2.918 3.308 L 2.0 4.234 L 5.4 7.635 L 5.409 7.6260004 L 5.598 12.9140005 C 5.614 13.234 5.833 13.616 6.06 13.84 L 19.0 27.0 L 19.0 18.0 L 28.0 18.0 L 14.838 5.065 C 14.621 4.843 14.215 4.618 13.912 4.603 z " fill-opacity="0.3"/>
<path d="M 20.0 7.0 L 23.0 7.0 L 23.0 10.0 C 23.0 10.552 23.447 11.0 24.0 11.0 C 24.553 11.0 25.0 10.552 25.0 10.0 L 25.0 7.0 L 28.0 7.0 C 28.553 7.0 29.0 6.552 29.0 6.0 C 29.0 5.448 28.553 5.0 28.0 5.0 L 25.0 5.0 L 25.0 2.0 C 25.0 1.448 24.553 1.0 24.0 1.0 C 23.447 1.0 23.0 1.448 23.0 2.0 L 23.0 5.0 L 20.0 5.0 C 19.447 5.0 19.0 5.448 19.0 6.0 C 19.0 6.552 19.447 7.0 20.0 7.0 z M 13.912 5.603 L 8.602 5.427 L 8.629001 5.4 L 5.229 2.0 L 4.307 2.926 L 5.2400002 3.8560002 L 3.853 5.241 L 2.918 4.308 L 2.0 5.234 L 5.4 8.635 L 5.409 8.626 L 5.598 13.9140005 C 5.614 14.234 5.833 14.616 6.06 14.84 L 19.0 28.0 L 19.0 19.0 L 28.0 19.0 L 14.838 6.065 C 14.621 5.843 14.215 5.618 13.912 5.603 z " fill="#dedede"/>
<rect fill="none" height="30" width="30"/>
</svg>
