<?xml version="1.0" encoding="UTF-8"?>
<svg xmlns="http://www.w3.org/2000/svg" xmlns:xlink="http://www.w3.org/1999/xlink" baseProfile="tiny" contentScriptType="text/ecmascript" contentStyleType="text/css" height="57px" preserveAspectRatio="xMidYMid meet" version="1.1" viewBox="0 0 67 57" width="67px" x="0px" y="0px" zoomAndPan="magnify">
<rect fill="#ffffff" fill-opacity="0.70588235" fill-rule="nonzero" height="48" ry="8.2174387" stroke="none" width="48" x="9.500001" y="4.4999952"/>
<rect color="#000000" display="inline" fill="#30f0ff" fill-opacity="0.58823528999999997" fill-rule="nonzero" height="48" ry="8.2174387" stroke="none" visibility="visible" width="48" x="9.5" y="4.5"/>
<rect fill="none" height="57" width="67"/>
<rect fill="none" height="46" width="46" x="10.5" y="5.5"/>
<path d="M 29.8558 35.31188 C 29.33113 35.31188 28.905308 34.886055 28.905308 34.361385 C 28.905308 33.83671 29.331127 33.41089 29.8558 33.41089 L 32.42341 33.41089 C 32.45319 32.980003 32.50451 32.555443 32.59196 32.143562 L 23.202335 32.143562 L 23.202335 17.569304 L 40.944275 17.569304 L 40.944275 24.88875 C 41.15465 24.87418 41.36503 24.85643 41.579205 24.85643 C 42.45873 24.85643 43.307205 24.988232 44.112595 25.21952 L 44.112595 16.618805 C 44.112595 15.852073 43.569546 15.21334 42.845264 15.066963 L 42.845264 15.034643 L 21.301975 15.034643 L 21.301975 15.066963 C 20.578337 15.21334 20.03402 15.852074 20.03402 16.618805 L 20.03402 32.14356 L 19.717815 32.14356 C 18.492311 32.14356 17.499998 33.13651 17.499998 34.361378 C 17.499998 35.58625 18.492315 36.579197 19.717815 36.579197 L 32.754807 36.579197 C 32.635685 36.16796 32.548874 35.74467 32.488674 35.31188 L 29.855804 35.31188 z M 41.579212 26.12376 C 37.2044 26.12376 33.658417 29.670374 33.658417 34.044556 C 33.658417 38.41873 37.204395 41.965347 41.579212 41.965347 C 45.952755 41.965347 49.500004 38.41873 49.500004 34.044556 C 49.500004 29.670374 45.95276 26.12376 41.579212 26.12376 z M 41.109035 30.032196 L 41.107735 30.032196 C 41.121044 30.20265 41.050705 30.285664 40.906227 30.298964 C 39.45197 30.45865 38.268917 31.408512 37.813316 32.77976 C 37.36912 34.11742 37.741707 35.55394 38.78345 36.52788 L 39.043255 36.77057 L 39.71431 36.11853 L 40.57292 39.430687 L 37.16572 38.59742 L 37.84881 37.933346 L 37.568096 37.66657 C 36.518745 36.666645 35.940845 35.33152 35.940845 33.90451 C 35.940845 31.160114 38.054745 28.91061 40.860607 28.662848 C 40.860607 28.662848 41.10964 28.615318 41.10964 28.843445 L 41.10964 30.032192 z M 42.29966 39.42625 C 42.29836 39.42625 42.05063 39.47378 42.05063 39.24566 L 42.05063 38.056904 C 42.03795 37.886448 42.10893 37.803436 42.252136 37.79013 C 43.70639 37.630447 44.89071 36.68058 45.346313 35.30934 C 45.78925 33.971676 45.417915 32.53516 44.374905 31.561214 L 44.11637 31.318523 L 43.445324 31.970562 L 42.58672 28.658403 L 45.99266 29.491673 L 45.310837 30.155752 L 45.591553 30.422523 C 46.639633 31.422443 47.2188 32.757576 47.2188 34.184586 C 47.2175 36.92898 45.104267 39.17849 42.299667 39.426247 z " fill="#ffffff" fill-opacity="1"/>
<defs>
<linearGradient gradientUnits="userSpaceOnUse" x1="35.75" x2="35.75" xlink:actuate="onLoad" xlink:show="other" xlink:type="simple" y1="54" y2="11.5005">
<stop offset="0" stop-color="#d0cbc5"/>
<stop offset="0.5031" stop-color="#fafcef"/>
<stop offset="1" stop-color="#ffffff"/>
</linearGradient>
</defs>
</svg>
