<?xml version="1.0" encoding="UTF-8"?>
<svg xmlns="http://www.w3.org/2000/svg" xmlns:xlink="http://www.w3.org/1999/xlink" baseProfile="tiny" contentScriptType="text/ecmascript" contentStyleType="text/css" height="30px" preserveAspectRatio="xMidYMid meet" version="1.1" viewBox="0 0 30 30" width="30px" x="0px" y="0px" zoomAndPan="magnify">
<path d="M 5.0 28.0 C 3.346 28.0 2.0 26.654 2.0 25.0 L 2.0 5.0 C 2.0 3.346 3.346 2.0 5.0 2.0 L 25.0 2.0 C 26.654 2.0 28.0 3.346 28.0 5.0 L 28.0 25.0 C 28.0 26.654 26.654 28.0 25.0 28.0 L 5.0 28.0 z " fill-opacity="0.15"/>
<path d="M 25.0 2.0 L 5.0 2.0 C 3.896 2.0 3.0 2.896 3.0 4.0 L 3.0 24.0 C 3.0 25.104 3.896 26.0 5.0 26.0 L 25.0 26.0 C 26.104 26.0 27.0 25.104 27.0 24.0 L 27.0 4.0 C 27.0 2.896 26.104 2.0 25.0 2.0 z M 8.0 24.0 C 6.3450003 24.0 5.0 22.656 5.0 21.0 C 5.0 19.344 6.3450003 18.0 8.0 18.0 C 9.655 18.0 11.0 19.344 11.0 21.0 C 11.0 22.656 9.655 24.0 8.0 24.0 z M 18.334 22.666 C 18.334 23.402 17.736 24.0 17.0 24.0 L 15.666 24.0 C 14.93 24.0 14.334001 23.402 14.334001 22.666 L 14.334001 21.895 L 14.313001 21.895 C 14.313001 18.026001 10.975 14.667 7.106001 14.667 L 6.334 14.667 C 5.596 14.667 5.0 14.07 5.0 13.333 L 5.0 12.0 C 5.0 11.264 5.596 10.667 6.334 10.667 L 7.6660004 10.667 C 7.7320004 10.667 7.7910004 10.696 7.8540006 10.705 C 13.448 11.077 17.924 15.5529995 18.295 21.145 C 18.305 21.209 18.334 21.268 18.334 21.334 L 18.334 22.666 z M 25.0 22.666 C 25.0 23.402 24.404 24.0 23.666 24.0 L 22.334 24.0 C 21.596 24.0 21.0 23.402 21.0 22.666 L 21.0 21.932001 C 21.0 14.326001 14.674 8.021001 7.068 8.021001 L 7.068 8.0 L 6.334 8.0 C 5.596 8.0 5.0 7.403 5.0 6.667 L 5.0 5.333 C 5.0 4.598 5.596 4.0 6.334 4.0 L 7.6660004 4.0 C 7.7380004 4.0 7.7990003 4.03 7.8670006 4.041 C 17.115002 4.4509997 24.549 11.884 24.959 21.133 C 24.971 21.201 25.0 21.262 25.0 21.334 L 25.0 22.666 z " fill-opacity="0.3"/>
<path d="M 25.0 3.0 L 5.0 3.0 C 3.896 3.0 3.0 3.896 3.0 5.0 L 3.0 25.0 C 3.0 26.104 3.896 27.0 5.0 27.0 L 25.0 27.0 C 26.104 27.0 27.0 26.104 27.0 25.0 L 27.0 5.0 C 27.0 3.896 26.104 3.0 25.0 3.0 z M 8.0 25.0 C 6.3450003 25.0 5.0 23.656 5.0 22.0 C 5.0 20.344 6.3450003 19.0 8.0 19.0 C 9.655 19.0 11.0 20.344 11.0 22.0 C 11.0 23.656 9.655 25.0 8.0 25.0 z M 18.334 23.666 C 18.334 24.402 17.736 25.0 17.0 25.0 L 15.666 25.0 C 14.93 25.0 14.334001 24.402 14.334001 23.666 L 14.334001 22.895 L 14.313001 22.895 C 14.313001 19.026001 10.975 15.667 7.106001 15.667 L 6.334 15.667 C 5.596 15.667 5.0 15.07 5.0 14.333 L 5.0 13.0 C 5.0 12.264 5.596 11.667 6.334 11.667 L 7.6660004 11.667 C 7.7320004 11.667 7.7910004 11.696 7.8540006 11.705 C 13.448 12.077 17.924 16.553 18.295 22.145 C 18.305 22.209 18.334 22.268 18.334 22.334 L 18.334 23.666 z M 25.0 23.666 C 25.0 24.402 24.404 25.0 23.666 25.0 L 22.334 25.0 C 21.596 25.0 21.0 24.402 21.0 23.666 L 21.0 22.932001 C 21.0 15.326001 14.674 9.021001 7.068 9.021001 L 7.068 9.0 L 6.334 9.0 C 5.596 9.0 5.0 8.403 5.0 7.667 L 5.0 6.333 C 5.0 5.598 5.596 5.0 6.334 5.0 L 7.6660004 5.0 C 7.7380004 5.0 7.7990003 5.03 7.8670006 5.041 C 17.115002 5.4509997 24.549 12.884 24.959 22.133 C 24.971 22.201 25.0 22.262 25.0 22.334 L 25.0 23.666 z " fill="#dedede"/>
<rect fill="none" height="30" width="30"/>
</svg>
