<?xml version="1.0" encoding="UTF-8"?>
<svg xmlns="http://www.w3.org/2000/svg" xmlns:xlink="http://www.w3.org/1999/xlink" baseProfile="tiny" contentScriptType="text/ecmascript" contentStyleType="text/css" height="57px" preserveAspectRatio="xMidYMid meet" version="1.1" viewBox="0 0 67 57" width="67px" x="0px" y="0px" zoomAndPan="magnify">
<rect fill="#ffffff" fill-opacity="0.70588235" fill-rule="nonzero" height="48" ry="8.2174387" stroke="none" width="48" x="9.500001" y="5.5000072"/>
<rect fill="#0500a7" fill-opacity="0.58823532" fill-rule="nonzero" height="48" ry="8.2174387" stroke="none" width="48" x="9.5" y="5.5"/>
<path d="M 34.657207 37.853977 L 34.550938 37.83888 C 33.591484 37.701817 32.997337 37.285793 32.76608 36.6053 L 19.311428 36.6053 L 19.311428 18.49106 L 42.25613 18.49106 L 42.25613 27.65626 C 42.367233 27.641762 42.41795 27.61822 42.443913 27.586222 C 42.486786 27.53188 42.52844 27.475723 42.57011 27.420176 C 42.82491 27.077818 43.28381 26.470987 44.06755 26.363514 L 44.06755 17.887257 C 44.06755 17.223064 43.52352 16.679638 42.859932 16.679638 L 18.707617 16.679638 C 18.042824 16.679638 17.5 17.223064 17.5 17.887257 L 17.5 37.20911 C 17.5 37.8733 18.042824 38.41673 18.707617 38.41673 L 35.329845 38.41673 C 35.248337 38.285706 35.168022 38.148033 35.09315 38.00131 C 35.007412 37.94214 34.876987 37.887188 34.657204 37.85398 z M 36.335182 27.586834 L 36.698677 27.357992 C 36.945633 27.200998 37.193195 27.044012 37.446796 26.89789 C 37.845913 26.668446 38.218464 26.557344 38.585575 26.557344 C 39.419437 26.557344 39.913353 27.103186 40.273827 27.502304 L 40.333595 27.567514 C 40.400616 27.641184 40.458584 27.705185 40.782227 27.705185 C 40.868576 27.705185 40.957333 27.699783 41.04851 27.692505 L 41.04851 26.809135 L 36.821857 23.970028 C 36.821857 23.970028 36.611732 23.77681 36.34606 23.77681 C 36.079178 23.77681 35.869053 23.970028 35.869053 23.970028 L 29.576763 28.213589 L 29.57616 28.21539 L 25.349504 25.58822 C 25.349504 25.58822 25.13938 25.3944 24.873098 25.3944 C 24.60682 25.3944 24.39609 25.58822 24.39609 25.58822 L 20.51904 28.904337 L 20.51904 35.39769 L 32.632637 35.39769 C 32.621166 35.1145 32.609695 34.83131 32.6103 34.549335 C 32.6145 32.823654 33.878902 32.54892 34.485725 32.41729 C 34.729664 32.36416 34.851635 32.33759 35.08772 31.826763 C 35.188557 31.608189 35.310524 31.396854 35.433704 31.18794 C 35.67825 30.77252 35.7338 30.645117 35.703003 30.56662 L 35.62813 30.382458 C 35.4168 29.868624 34.854652 28.50342 36.33519 27.58684 z M 49.492172 35.274525 C 49.479492 34.851856 49.46741 34.42919 49.453533 34.005924 C 49.425755 33.201046 48.88172 33.228825 48.212704 33.126778 C 47.430164 33.007225 47.15121 32.34364 46.776848 31.73742 C 46.311314 30.983265 45.975594 30.456137 46.251537 29.58545 C 46.45381 28.947826 46.50453 28.66585 45.886833 28.305376 C 45.488323 28.072908 45.071697 27.865805 44.664127 27.64964 C 44.0259 27.310904 43.74453 27.892977 43.386467 28.340397 C 42.81889 29.050472 41.957855 28.833708 41.15963 28.897106 C 40.48276 28.950235 39.910954 28.899506 39.439377 28.380848 C 38.959347 27.852518 38.734737 27.551825 38.04881 27.94611 C 37.682903 28.15684 37.33028 28.392324 36.971012 28.613922 C 36.285084 29.038397 36.58155 29.497292 36.827915 30.127066 C 37.164833 30.988094 36.521786 31.601566 36.184258 32.333378 C 35.856987 33.042248 35.492287 33.434727 34.742355 33.597145 C 34.08783 33.73904 33.819736 33.83746 33.817924 34.55237 C 33.816723 35.014885 33.846313 35.47801 33.860195 35.94053 C 33.879517 36.5715 34.32634 36.582973 34.83776 36.660263 C 35.30994 36.731503 35.743473 36.899975 36.086433 37.275543 C 36.45294 38.13959 37.29103 38.799553 37.1751 39.793423 C 37.13284 40.15631 36.893726 40.505917 36.859913 40.876656 C 36.81161 41.39593 38.35555 42.150085 38.799343 42.25938 C 39.338543 42.54558 39.653732 41.747955 39.949596 41.453293 C 40.51778 40.88692 41.093815 40.97206 41.844948 40.947903 C 42.558044 40.92496 43.20955 40.77522 43.767475 41.333736 C 44.079037 41.607258 44.449173 42.38738 44.965427 42.06495 C 45.40319 41.92788 46.897015 41.081345 46.815495 40.56328 C 46.757526 40.192547 46.494873 39.85924 46.429054 39.493332 C 46.348747 39.04108 46.41095 38.637737 46.668167 38.25975 C 46.9749 37.809315 47.110153 37.152374 47.487537 36.7762 C 48.130592 36.13556 49.620792 36.389763 49.492176 35.27453 z M 41.635433 39.319447 C 39.25039 39.319447 37.25722 37.328087 37.25722 34.942444 C 37.25722 32.55619 39.249184 30.563623 41.635433 30.563623 C 44.021683 30.563623 46.013645 32.55619 46.013645 34.942444 C 46.013645 37.327484 44.020477 39.319447 41.635433 39.319447 z " fill="#ffffff" fill-opacity="1" stroke-opacity="0.3"/>
<defs>
<linearGradient gradientTransform="translate(0,6)" gradientUnits="userSpaceOnUse" x1="37.498" x2="37.498" xlink:actuate="onLoad" xlink:show="other" xlink:type="simple" y1="53.4639" y2="11.0005">
<stop offset="0" stop-color="#d0cbc5"/>
<stop offset="0.5031" stop-color="#fafcef"/>
<stop offset="0.9693" stop-color="#ffffff"/>
<stop offset="1" stop-color="#ffffff"/>
</linearGradient>
</defs>
</svg>
