<?xml version="1.0" encoding="UTF-8"?>
<!DOCTYPE svg PUBLIC "-//W3C//DTD SVG 1.1 Tiny//EN" "http://www.w3.org/Graphics/SVG/1.1/DTD/svg11-tiny.dtd">
<svg baseProfile="tiny" height="32px" version="1.1" viewBox="0 0 32 32" width="32px" x="0px" xmlns="http://www.w3.org/2000/svg" xmlns:xlink="http://www.w3.org/1999/xlink" y="0px">
<g>
<rect fill="none" height="32" width="32" x="0"/>
</g>
<path d="M16,2.667C8.636,2.667,2.667,8.637,2.667,16c0,7.363,5.971,13.334,13.333,13.334  c7.364,0,13.333-5.971,13.333-13.334C29.333,8.637,23.364,2.667,16,2.667z M10,9.333c1.104,0,2,1.194,2,2.667s-0.896,2.667-2,2.667  c-1.104,0-2-1.194-2-2.667S8.896,9.333,10,9.333z M15.999,25.334c-7.354,0-8.174-5.327-7.975-5.934  c0.201-0.605,0.869-0.733,1.455-0.733h13.043c0.657,0,1.25,0.128,1.451,0.733C24.175,20.007,23.351,25.334,15.999,25.334z   M22,14.667c-1.104,0-2-1.194-2-2.667s0.896-2.667,2-2.667c1.104,0,2,1.194,2,2.667S23.104,14.667,22,14.667z" fill="#FFFFFF"/>
</svg>
