<?xml version="1.0" encoding="UTF-8"?>
<svg xmlns="http://www.w3.org/2000/svg" xmlns:xlink="http://www.w3.org/1999/xlink" baseProfile="tiny" contentScriptType="text/ecmascript" contentStyleType="text/css" height="30px" preserveAspectRatio="xMidYMid meet" version="1.1" viewBox="0 0 30 30" width="30px" x="0px" y="0px" zoomAndPan="magnify">
<path d="M 28.0 10.0 L 23.309 10.0 C 23.309 9.854 23.283 9.706 23.217001 9.569 C 22.038 7.099 19.665 5.406 17.0 5.064 L 17.0 4.0 C 17.0 3.6399999 16.807 3.308 16.493 3.13 C 16.34 3.043 16.17 3.0 16.0 3.0 C 15.822 3.0 15.644 3.048 15.485 3.1430001 L 15.0 3.434 L 15.0 3.0 C 15.0 2.447 14.553 2.0 14.0 2.0 L 2.0 2.0 C 1.447 2.0 1.0 2.447 1.0 3.0 L 1.0 13.0 C 1.0 13.5529995 1.447 14.0 2.0 14.0 L 9.0 14.0 L 9.0 18.0 L 7.0 18.0 C 6.447 18.0 6.0 18.447 6.0 19.0 C 6.0 21.547 7.197 23.82 9.058001 25.286 C 9.183 25.696 9.549 26.0 10.0 26.0 L 10.14 26.0 C 11.008 26.481 11.973001 26.809 13.0 26.938 L 13.0 28.0 C 13.0 28.36 13.193 28.692 13.507 28.87 C 13.66 28.957 13.83 29.0 14.0 29.0 C 14.178 29.0 14.356 28.952 14.515 28.857 L 19.277 26.0 L 28.0 26.0 C 28.553 26.0 29.0 25.553 29.0 25.0 L 29.0 11.0 C 29.0 10.447 28.553 10.0 28.0 10.0 z M 17.0 9.129 C 17.593 9.285 18.137 9.587 18.605 10.0 L 17.0 10.0 L 17.0 9.129 z " fill-opacity="0.15" stroke-opacity="0.15"/>
<rect fill="none" height="30" width="30"/>
<path d="M 9.0 10.0 C 9.0 9.4470005 9.447 9.0 10.0 9.0 L 13.668 9.0 L 10.383 7.0290003 C 10.021 6.813 9.8 6.422 9.8 6.0 C 9.8 5.578 10.022 5.187 10.383 4.9709997 L 14.0 2.801 L 14.0 2.0 L 2.0 2.0 L 2.0 12.0 L 9.0 12.0 L 9.0 10.0 z M 10.0 10.0 L 10.0 17.376 C 10.0 18.140999 11.291 21.102999 12.8 21.605 L 12.8 21.0 C 12.8 20.567 13.032001 20.169 13.409 19.956 C 13.593 19.852 13.796 19.8 14.0 19.8 C 14.214 19.8 14.428 19.858 14.617 19.970999 L 19.617 22.970999 C 19.979 23.188 20.2 23.578 20.2 24.0 L 28.0 24.0 L 28.0 10.0 L 10.0 10.0 z M 14.0 23.0 C 11.243 23.0 9.0 20.757 9.0 18.0 L 7.0 18.0 C 7.0 21.859 10.141 25.0 14.0 25.0 L 14.0 27.0 L 19.0 24.0 L 14.0 21.0 L 14.0 23.0 z M 11.0 6.0 L 16.0 9.0 L 16.0 7.0 C 17.627 7.0 19.061 7.793 19.975 9.0 L 22.315 9.0 C 21.188 6.64 18.785 5.0 16.0 5.0 L 16.0 3.0 L 11.0 6.0 z " fill-opacity="0.3" stroke-opacity="0.3"/>
<path d="M 9.0 11.0 C 9.0 10.4470005 9.447 10.0 10.0 10.0 L 13.668 10.0 L 10.383 8.029 C 10.021 7.813 9.8 7.422 9.8 7.0 C 9.8 6.578 10.022 6.187 10.383 5.9709997 L 14.0 3.801 L 14.0 3.0 L 2.0 3.0 L 2.0 13.0 L 9.0 13.0 L 9.0 11.0 z M 10.0 11.0 L 10.0 18.376 C 10.0 19.140999 11.291 22.102999 12.8 22.605 L 12.8 22.0 C 12.8 21.567 13.032001 21.169 13.409 20.956 C 13.593 20.852 13.796 20.8 14.0 20.8 C 14.214 20.8 14.428 20.858 14.617 20.970999 L 19.617 23.970999 C 19.979 24.188 20.2 24.578 20.2 25.0 L 28.0 25.0 L 28.0 11.0 L 10.0 11.0 z M 14.0 24.0 C 11.243 24.0 9.0 21.757 9.0 19.0 L 7.0 19.0 C 7.0 22.859 10.141 26.0 14.0 26.0 L 14.0 28.0 L 19.0 25.0 L 14.0 22.0 L 14.0 24.0 z M 11.0 7.0 L 16.0 10.0 L 16.0 8.0 C 17.627 8.0 19.061 8.793 19.975 10.0 L 22.315 10.0 C 21.188 7.64 18.785 6.0 16.0 6.0 L 16.0 4.0 L 11.0 7.0 z " fill="#dedede"/>
</svg>
