<?xml version="1.0" encoding="UTF-8"?>
<svg xmlns="http://www.w3.org/2000/svg" xmlns:xlink="http://www.w3.org/1999/xlink" baseProfile="tiny" contentScriptType="text/ecmascript" contentStyleType="text/css" height="30px" preserveAspectRatio="xMidYMid meet" version="1.1" viewBox="0 0 30 30" width="30px" x="0px" y="0px" zoomAndPan="magnify">
<rect fill="none" height="30" width="30"/>
<path d="M 10.426829 5.9553733 C 10.426829 7.668054 9.06861 9.056457 7.393162 9.056457 C 5.717713 9.056457 4.3594933 7.668054 4.3594933 5.9553733 C 4.3594933 4.2426925 5.717713 2.8542902 7.393162 2.8542902 C 9.06861 2.8542902 10.426829 4.2426925 10.426829 5.9553733 z " fill="#dedede" fill-opacity="1" fill-rule="nonzero" stroke="#000000" stroke-dasharray="none" stroke-linecap="round" stroke-linejoin="round" stroke-miterlimit="4" stroke-opacity="0.15686275" stroke-width="0.83933884" transform="matrix(1.2323304,0,0,1.2055405,-2.8608167,-0.75522716)"/>
<path d="M 10.426829 5.9553733 C 10.426829 7.668054 9.06861 9.056457 7.393162 9.056457 C 5.717713 9.056457 4.3594933 7.668054 4.3594933 5.9553733 C 4.3594933 4.2426925 5.717713 2.8542902 7.393162 2.8542902 C 9.06861 2.8542902 10.426829 4.2426925 10.426829 5.9553733 z " fill="#dedede" fill-opacity="1" fill-rule="nonzero" stroke="#000000" stroke-dasharray="none" stroke-linecap="round" stroke-linejoin="round" stroke-miterlimit="4" stroke-opacity="0.15686275" stroke-width="0.83933884" transform="matrix(1.2323304,0,0,1.2055405,5.8808109,-0.75522716)"/>
<path d="M 10.426829 5.9553733 C 10.426829 7.668054 9.06861 9.056457 7.393162 9.056457 C 5.717713 9.056457 4.3594933 7.668054 4.3594933 5.9553733 C 4.3594933 4.2426925 5.717713 2.8542902 7.393162 2.8542902 C 9.06861 2.8542902 10.426829 4.2426925 10.426829 5.9553733 z " fill="#dedede" fill-opacity="1" fill-rule="nonzero" stroke="#000000" stroke-dasharray="none" stroke-linecap="round" stroke-linejoin="round" stroke-miterlimit="4" stroke-opacity="0.15686275" stroke-width="0.83933884" transform="matrix(1.2323304,0,0,1.2055405,14.600183,-0.75544365)"/>
<path d="M 10.426829 5.9553733 C 10.426829 7.668054 9.06861 9.056457 7.393162 9.056457 C 5.717713 9.056457 4.3594933 7.668054 4.3594933 5.9553733 C 4.3594933 4.2426925 5.717713 2.8542902 7.393162 2.8542902 C 9.06861 2.8542902 10.426829 4.2426925 10.426829 5.9553733 z " fill="#dedede" fill-opacity="1" fill-rule="nonzero" stroke="#000000" stroke-dasharray="none" stroke-linecap="round" stroke-linejoin="round" stroke-miterlimit="4" stroke-opacity="0.15686275" stroke-width="0.83933884" transform="matrix(1.2323304,0,0,1.2055405,-2.8608167,8.0985887)"/>
<path d="M 10.426829 5.9553733 C 10.426829 7.668054 9.06861 9.056457 7.393162 9.056457 C 5.717713 9.056457 4.3594933 7.668054 4.3594933 5.9553733 C 4.3594933 4.2426925 5.717713 2.8542902 7.393162 2.8542902 C 9.06861 2.8542902 10.426829 4.2426925 10.426829 5.9553733 z " fill="#dedede" fill-opacity="1" fill-rule="nonzero" stroke="#000000" stroke-dasharray="none" stroke-linecap="round" stroke-linejoin="round" stroke-miterlimit="4" stroke-opacity="0.15686275" stroke-width="0.83933884" transform="matrix(1.2323304,0,0,1.2055405,5.8811833,8.0985887)"/>
<path d="M 10.426829 5.9553733 C 10.426829 7.668054 9.06861 9.056457 7.393162 9.056457 C 5.717713 9.056457 4.3594933 7.668054 4.3594933 5.9553733 C 4.3594933 4.2426925 5.717713 2.8542902 7.393162 2.8542902 C 9.06861 2.8542902 10.426829 4.2426925 10.426829 5.9553733 z " fill="#dedede" fill-opacity="1" fill-rule="nonzero" stroke="#000000" stroke-dasharray="none" stroke-linecap="round" stroke-linejoin="round" stroke-miterlimit="4" stroke-opacity="0.15686275" stroke-width="0.83933884" transform="matrix(1.2323304,0,0,1.2055405,14.600183,8.0985564)"/>
<path d="M 10.426829 5.9553733 C 10.426829 7.668054 9.06861 9.056457 7.393162 9.056457 C 5.717713 9.056457 4.3594933 7.668054 4.3594933 5.9553733 C 4.3594933 4.2426925 5.717713 2.8542902 7.393162 2.8542902 C 9.06861 2.8542902 10.426829 4.2426925 10.426829 5.9553733 z " fill="#dedede" fill-opacity="1" fill-rule="nonzero" stroke="#000000" stroke-dasharray="none" stroke-linecap="round" stroke-linejoin="round" stroke-miterlimit="4" stroke-opacity="0.15686275" stroke-width="0.83933884" transform="matrix(1.2323304,0,0,1.2055405,-2.8608167,17.132177)"/>
<path d="M 10.426829 5.9553733 C 10.426829 7.668054 9.06861 9.056457 7.393162 9.056457 C 5.717713 9.056457 4.3594933 7.668054 4.3594933 5.9553733 C 4.3594933 4.2426925 5.717713 2.8542902 7.393162 2.8542902 C 9.06861 2.8542902 10.426829 4.2426925 10.426829 5.9553733 z " fill="#dedede" fill-opacity="1" fill-rule="nonzero" stroke="#000000" stroke-dasharray="none" stroke-linecap="round" stroke-linejoin="round" stroke-miterlimit="4" stroke-opacity="0.15686275" stroke-width="0.83933884" transform="matrix(1.2323304,0,0,1.2055405,5.8811833,17.132177)"/>
<path d="M 10.426829 5.9553733 C 10.426829 7.668054 9.06861 9.056457 7.393162 9.056457 C 5.717713 9.056457 4.3594933 7.668054 4.3594933 5.9553733 C 4.3594933 4.2426925 5.717713 2.8542902 7.393162 2.8542902 C 9.06861 2.8542902 10.426829 4.2426925 10.426829 5.9553733 z " fill="#dedede" fill-opacity="1" fill-rule="nonzero" stroke="#000000" stroke-dasharray="none" stroke-linecap="round" stroke-linejoin="round" stroke-miterlimit="4" stroke-opacity="0.15686275" stroke-width="0.83933884" transform="matrix(1.2323304,0,0,1.2055405,14.599798,17.132655)"/>
</svg>
