<?xml version="1.0" encoding="UTF-8"?>
<svg xmlns="http://www.w3.org/2000/svg" xmlns:xlink="http://www.w3.org/1999/xlink" baseProfile="tiny" contentScriptType="text/ecmascript" contentStyleType="text/css" height="20px" preserveAspectRatio="xMidYMid meet" version="1.1" viewBox="-4 -2.5 20 20" width="20px" x="0px" y="0px" zoomAndPan="magnify">
<g>
<path d="M -0.657 6.656 L 0.62799996 6.656 C 1.229 6.656 1.6700001 6.5280004 1.954 6.276 C 2.24 6.0230002 2.384 5.686 2.384 5.267 C 2.384 4.886 2.262 4.573 2.0210001 4.3250003 C 1.7820002 4.0750003 1.4020002 3.9510002 0.8850001 3.9510002 C 0.6010001 3.9510002 0.35000008 3.9770002 0.13300014 4.031 C -0.087 4.088 -0.281 4.153 -0.451 4.23 C -0.61800003 4.314 -0.764 4.405 -0.88699996 4.509 C -1.011 4.615 -1.122 4.718 -1.213 4.82 L -2.289 3.696 C -2.21 3.5830002 -2.085 3.4450002 -1.909 3.282 C -1.735 3.117 -1.505 2.96 -1.227 2.8040001 C -0.94799995 2.6480002 -0.624 2.515 -0.24800003 2.403 C 0.127 2.296 0.554 2.242 1.03 2.242 C 1.631 2.242 2.1409998 2.3230002 2.567 2.4840002 C 2.991 2.6450002 3.336 2.8530002 3.6019998 3.1060002 C 3.8669996 3.3580003 4.061 3.6480002 4.185 3.9710002 C 4.309 4.295 4.3719997 4.6270003 4.3719997 4.9700003 C 4.3719997 5.3100004 4.324 5.6140003 4.2299995 5.875 C 4.134 6.136 4.012 6.367 3.862 6.567 C 3.712 6.769 3.544 6.937 3.3470001 7.0759997 C 3.152 7.214 2.95 7.333 2.739 7.424 C 2.95 7.48 3.163 7.57 3.377 7.689 C 3.589 7.807 3.786 7.96 3.9620001 8.145 C 4.135 8.33 4.279 8.555 4.387 8.821 C 4.496 9.088 4.55 9.399 4.55 9.756 C 4.55 10.283 4.453 10.752 4.2580004 11.150999 C 4.0650005 11.549999 3.7880003 11.883999 3.4330003 12.152999 C 3.0770004 12.420999 2.6590004 12.623999 2.1760004 12.763999 C 1.6930003 12.902999 1.1670004 12.970999 0.59700036 12.970999 C -0.15399963 12.970999 -0.7789997 12.913999 -1.2779996 12.795999 C -1.7769997 12.678999 -2.1429996 12.567999 -2.3689995 12.452998 L -1.9449995 10.850998 C -1.7469995 10.926998 -1.4599994 11.012998 -1.0859995 11.100998 C -0.7139995 11.192998 -0.19999951 11.237998 0.4570005 11.237998 C 0.7500005 11.237998 1.0210005 11.206998 1.2710005 11.149998 C 1.5190005 11.089997 1.7350005 11.001998 1.9180005 10.879997 C 2.1050005 10.756997 2.2500005 10.604998 2.3560004 10.422997 C 2.4600005 10.238997 2.5130005 10.0149975 2.5130005 9.754997 C 2.5130005 9.333998 2.3640006 8.994997 2.0710006 8.736998 C 1.7780006 8.476997 1.3000005 8.348997 0.6430006 8.348997 L -0.65699935 8.348997 L -0.65699935 6.656 z "/>
<path d="M 11.066 3.784 C 10.574 3.784 10.146 3.8799999 9.791 4.069 C 9.434 4.26 9.137 4.52 8.91 4.856 C 8.681 5.189 8.51 5.583 8.394 6.039 C 8.279 6.492 8.223 6.984 8.223 7.511 C 8.223 8.043 8.276 8.530001 8.381 8.973001 C 8.483 9.4140005 8.651999 9.798 8.879 10.119 C 9.111 10.434 9.403999 10.687 9.759999 10.873 C 10.122 11.057 10.551 11.150001 11.049 11.150001 C 11.337999 11.150001 11.604 11.13 11.84 11.087001 C 12.08 11.0460005 12.297 11.001 12.498 10.950001 L 12.498 8.338 L 10.566 8.338 L 10.566 6.5980005 L 14.367001 6.5980005 L 14.367001 12.348001 C 14.262001 12.399 14.109 12.461 13.908001 12.536 C 13.711001 12.611 13.463001 12.685 13.166001 12.752 C 12.872002 12.82 12.527001 12.88 12.125001 12.926 C 11.725 12.977 11.273 13.0 10.768 13.0 C 9.997 13.0 9.316999 12.874 8.726999 12.627 C 8.136999 12.379 7.642999 12.021999 7.2469993 11.552 C 6.85 11.086 6.549 10.51 6.344 9.83 C 6.139 9.154 6.038 8.379 6.038 7.511 C 6.038 6.704 6.1400003 5.9630003 6.352 5.2890005 C 6.5610003 4.6170006 6.8710003 4.0370007 7.2790003 3.5460005 C 7.6870003 3.0570004 8.193 2.6770005 8.795 2.4040005 C 9.396 2.135 10.1 2.0 10.898 2.0 C 11.587 2.0 12.209 2.096 12.757 2.285 C 13.304 2.474 13.788 2.736 14.206 3.068 L 13.323 4.551 C 13.106 4.3900003 12.8 4.223 12.419 4.047 C 12.033 3.871 11.584 3.784 11.066 3.784 z "/>
</g>
</svg>
