<?xml version="1.0" encoding="UTF-8"?>
<svg xmlns="http://www.w3.org/2000/svg" xmlns:xlink="http://www.w3.org/1999/xlink" baseProfile="tiny" contentScriptType="text/ecmascript" contentStyleType="text/css" height="57px" preserveAspectRatio="xMidYMid meet" version="1.1" viewBox="0 0 67 57" width="67px" x="0px" y="0px" zoomAndPan="magnify">
<defs>
<defs>
<linearGradient gradientTransform="matrix(1 0 0 -1 -249.4805 -316.0195)" gradientUnits="userSpaceOnUse" x1="282.9805" x2="282.9805" xlink:actuate="onLoad" xlink:show="other" xlink:type="simple" y1="-365.5195" y2="-323.519">
<stop offset="0" stop-color="#d0cbc5"/>
<stop offset="0.5031" stop-color="#fafcef"/>
<stop offset="0.9693" stop-color="#ffffff"/>
<stop offset="1" stop-color="#ffffff"/>
</linearGradient>
</defs>
</defs>
<rect fill="#ffffff" fill-opacity="0.70588235" fill-rule="nonzero" height="48" ry="8.2174387" stroke="none" width="48" x="9.5" y="4.5"/>
<rect color="#000000" display="inline" fill="#ff4848" fill-opacity="0.58823528999999997" fill-rule="nonzero" height="48" ry="8.2174387" stroke="none" visibility="visible" width="48" x="9.5" y="4.5"/>
<path d="M 19.75 12.5 L 19.75 12.5625 C 18.486004 12.801739 17.5 14.055453 17.5 15.5625 L 17.5 41.4375 C 17.5 43.112926 18.806976 44.5 20.40625 44.5 L 46.59375 44.5 C 48.19302 44.5 49.5 43.112926 49.5 41.4375 L 49.5 15.5625 C 49.5 14.007452 48.463184 12.711819 47.125 12.53125 L 47.125 12.5 L 19.75 12.5 z M 28.09375 20.25 L 29.375 20.25 L 29.375 36.75 L 27.375 36.75 L 27.375 23.90625 C 26.889977 24.368896 26.255968 24.818624 25.46875 25.28125 C 24.68152 25.743896 23.970545 26.112442 23.34375 26.34375 L 23.34375 24.375 C 24.470484 23.845224 25.438051 23.222412 26.28125 22.46875 C 27.124432 21.715117 27.743036 20.958893 28.09375 20.25 z M 38.53125 20.25 C 40.105686 20.25002 41.332184 20.720732 42.25 21.59375 C 43.167793 22.4668 43.624992 23.552864 43.625 24.84375 C 43.624992 25.500404 43.518616 26.115755 43.25 26.75 C 42.98137 27.384268 42.529312 28.079844 41.90625 28.78125 C 41.283176 29.482672 40.22884 30.432516 38.78125 31.65625 C 37.572426 32.671062 36.81199 33.356857 36.46875 33.71875 C 36.1255 34.080654 35.8176 34.446873 35.59375 34.8125 L 43.65625 34.8125 L 43.65625 36.75 L 32.8125 36.75 C 32.79758 36.26498 32.859623 35.791454 33.03125 35.34375 C 33.307335 34.60503 33.76686 33.872593 34.375 33.15625 C 34.983135 32.43992 35.850872 31.627695 37.0 30.6875 C 38.78337 29.224983 39.998196 28.07314 40.625 27.21875 C 41.25179 26.36438 41.56249 25.542372 41.5625 24.78125 C 41.56249 23.982843 41.289577 23.298458 40.71875 22.75 C 40.147907 22.201569 39.386547 21.937515 38.46875 21.9375 C 37.498703 21.937515 36.73827 22.230492 36.15625 22.8125 C 35.574223 23.39454 35.28875 24.189028 35.28125 25.21875 L 33.1875 25.0 C 33.329273 23.45541 33.887222 22.278376 34.8125 21.46875 C 35.73776 20.65916 36.97172 20.250015 38.53125 20.25 z " fill="#ffffff" fill-opacity="1" stroke-opacity="0.3"/>
</svg>
