<?xml version="1.0" encoding="UTF-8"?>
<svg xmlns="http://www.w3.org/2000/svg" xmlns:xlink="http://www.w3.org/1999/xlink" baseProfile="tiny" contentScriptType="text/ecmascript" contentStyleType="text/css" height="30px" preserveAspectRatio="xMidYMid meet" version="1.1" viewBox="0 0 30 30" width="30px" x="0px" y="0px" zoomAndPan="magnify">
<rect fill="none" height="30" width="30"/>
<path d="M 9.944 14.918 C 9.944 14.762 9.907001 14.604 9.832 14.459001 C 9.67 14.143 9.348 13.944 9.0 13.944 L 7.169 13.944 C 7.201 9.613001 10.729 6.1000004 15.066 6.1000004 C 17.44 6.1000004 19.566 7.1580005 21.015 8.820001 L 22.616 6.3830004 C 22.706 6.2460003 22.811998 6.1280003 22.928 6.017 C 20.903 4.025 18.129 2.7920003 15.066999 2.7920003 C 8.896999 2.7920003 3.893999 7.7790003 3.8619995 13.943001 L 1.984 13.943001 C 1.634 13.943001 1.316 14.141001 1.151 14.461 C 1.076 14.599 1.041 14.757 1.041 14.916 C 1.038 15.1050005 1.094 15.291 1.199 15.455 L 4.705 20.801 C 4.883 21.07 5.177 21.232 5.493 21.232 C 5.807 21.232 6.101 21.07 6.277 20.801 L 9.787 15.455 C 9.892 15.294 9.944 15.106 9.944 14.918 z M 28.801 12.454 L 25.291 7.1090007 C 25.116001 6.8390007 24.822 6.6780005 24.508 6.6780005 C 24.192 6.6780005 23.899 6.839 23.723 7.109 L 20.213 12.454 C 20.105999 12.616 20.054998 12.805 20.054998 12.992001 C 20.054998 13.150001 20.090998 13.306001 20.168999 13.450001 C 20.328999 13.768001 20.65 13.967001 20.999998 13.966001 L 22.962997 13.966001 C 22.962997 13.979 22.964998 13.989 22.964998 14.001 C 22.964998 18.356 19.421999 21.899 15.065998 21.899 C 12.6329975 21.899 10.454998 20.792 9.005999 19.058 L 7.3829985 21.526001 C 7.2999983 21.656 7.1979985 21.764002 7.0929985 21.872002 C 9.123999 23.930002 11.943998 25.207 15.064999 25.207 C 21.252998 25.207 26.272 20.189001 26.272 14.001 C 26.272 13.989 26.269999 13.979 26.269999 13.966001 L 28.015 13.966001 C 28.364 13.966001 28.682 13.769001 28.845999 13.450001 C 28.923998 13.311001 28.957998 13.151001 28.957998 12.993001 C 28.959 12.805 28.906 12.617 28.801 12.454 z " fill-opacity="0.3" stroke-opacity="0.3"/>
<path d="M 15.066 27.207 C 11.778 27.207 8.694 25.917 6.382 23.574001 C 6.255 23.445002 6.169 23.29 6.126 23.125002 C 5.9249997 23.195002 5.712 23.232002 5.493 23.232002 C 4.843 23.232002 4.237 22.904003 3.872 22.354002 L 0.36299992 17.004002 C 0.14399992 16.661001 0.034999907 16.283 0.04099992 15.900002 C 0.04099992 15.586001 0.12099992 15.263001 0.2709999 14.985002 C 0.6019999 14.3480015 1.2609999 13.943002 1.984 13.943002 L 2.906 13.943002 C 3.446 7.71 8.705 2.793 15.066 2.793 C 18.285 2.793 21.326 4.04 23.628 6.3050003 C 23.761 6.4360003 23.854 6.6000004 23.898 6.7780004 C 24.092001 6.714 24.297 6.6790004 24.508001 6.6790004 C 25.164001 6.6790004 25.771002 7.011 26.131 7.5670004 L 29.637001 12.906 C 29.849 13.235001 29.959002 13.609 29.959002 13.994 C 29.959002 14.334001 29.876001 14.662001 29.718002 14.941 C 29.400002 15.561 28.740002 15.966 28.016003 15.966 L 27.23 15.966 C 26.725 22.263 21.462 27.207 15.066 27.207 L 15.066 27.207 z M 9.254 19.09 C 9.455 19.142 9.637 19.255001 9.773 19.417 C 11.092 20.994999 13.021 21.899 15.066 21.899 C 18.542 21.899 21.427 19.314 21.897999 15.965 L 21.0 15.965 C 20.267 15.965 19.605999 15.556 19.275 14.899 C 19.136 14.644 19.053999 14.32 19.053999 13.992001 C 19.053999 13.599001 19.165998 13.223001 19.377998 12.902 L 20.765999 10.7890005 C 20.571999 10.739 20.394999 10.632001 20.259998 10.477 C 18.942999 8.966001 17.048998 8.1 15.064999 8.1 C 11.630999 8.1 8.761999 10.642 8.248999 13.944 L 9.0 13.944 C 9.727 13.944 10.386 14.349 10.722 15.001 C 10.868 15.282001 10.945 15.6 10.945 15.918 C 10.945 16.304 10.835 16.678 10.627999 16.999 L 9.254 19.09 z " fill-opacity="0.15" stroke-opacity="0.15"/>
<path d="M 9.944 15.918 C 9.944 15.762 9.907001 15.604 9.832 15.459001 C 9.67 15.143 9.348 14.944 9.0 14.944 L 7.169 14.944 C 7.201 10.613001 10.729 7.1000004 15.066 7.1000004 C 17.44 7.1000004 19.566 8.158 21.015 9.820001 L 22.616 7.3830004 C 22.706 7.2460003 22.811998 7.1280003 22.928 7.017 C 20.903 5.025 18.129 3.7920003 15.066999 3.7920003 C 8.896999 3.7920003 3.893999 8.779 3.8619995 14.943001 L 1.984 14.943001 C 1.634 14.943001 1.316 15.141001 1.151 15.461 C 1.076 15.599 1.041 15.757 1.041 15.916 C 1.038 16.105 1.094 16.291 1.199 16.455 L 4.705 21.801 C 4.883 22.07 5.177 22.232 5.493 22.232 C 5.807 22.232 6.101 22.07 6.277 21.801 L 9.787 16.455 C 9.892 16.294 9.944 16.106 9.944 15.918 z M 28.801 13.454 L 25.291 8.109001 C 25.116001 7.839001 24.822 7.6780014 24.508 7.6780014 C 24.192 7.6780014 23.899 7.839001 23.723 8.109001 L 20.213 13.454 C 20.105999 13.616 20.054998 13.805 20.054998 13.992001 C 20.054998 14.150001 20.090998 14.306001 20.168999 14.450001 C 20.328999 14.768001 20.65 14.967001 20.999998 14.966001 L 22.962997 14.966001 C 22.962997 14.979 22.964998 14.989 22.964998 15.001 C 22.964998 19.356 19.421999 22.899 15.065998 22.899 C 12.6329975 22.899 10.454998 21.792 9.005999 20.058 L 7.3829985 22.526001 C 7.2999983 22.656 7.1979985 22.764002 7.0929985 22.872002 C 9.123999 24.930002 11.943998 26.207 15.064999 26.207 C 21.252998 26.207 26.272 21.189001 26.272 15.001 C 26.272 14.989 26.269999 14.979 26.269999 14.966001 L 28.015 14.966001 C 28.364 14.966001 28.682 14.769001 28.845999 14.450001 C 28.923998 14.311001 28.957998 14.151001 28.957998 13.993001 C 28.959 13.805 28.906 13.617 28.801 13.454 z " fill-opacity="0.15" stroke-opacity="0.15"/>
<path d="M 9.944 15.918 C 9.944 15.762 9.907001 15.604 9.832 15.459001 C 9.67 15.143 9.348 14.944 9.0 14.944 L 7.169 14.944 C 7.201 10.613001 10.729 7.1000004 15.066 7.1000004 C 17.44 7.1000004 19.566 8.158 21.015 9.820001 L 22.616 7.3830004 C 22.706 7.2460003 22.811998 7.1280003 22.928 7.017 C 20.903 5.025 18.129 3.7920003 15.066999 3.7920003 C 8.896999 3.7920003 3.893999 8.779 3.8619995 14.943001 L 1.984 14.943001 C 1.634 14.943001 1.316 15.141001 1.151 15.461 C 1.076 15.599 1.041 15.757 1.041 15.916 C 1.038 16.105 1.094 16.291 1.199 16.455 L 4.705 21.801 C 4.883 22.07 5.177 22.232 5.493 22.232 C 5.807 22.232 6.101 22.07 6.277 21.801 L 9.787 16.455 C 9.892 16.294 9.944 16.106 9.944 15.918 z M 28.801 13.454 L 25.291 8.109001 C 25.116001 7.839001 24.822 7.6780014 24.508 7.6780014 C 24.192 7.6780014 23.899 7.839001 23.723 8.109001 L 20.213 13.454 C 20.105999 13.616 20.054998 13.805 20.054998 13.992001 C 20.054998 14.150001 20.090998 14.306001 20.168999 14.450001 C 20.328999 14.768001 20.65 14.967001 20.999998 14.966001 L 22.962997 14.966001 C 22.962997 14.979 22.964998 14.989 22.964998 15.001 C 22.964998 19.356 19.421999 22.899 15.065998 22.899 C 12.6329975 22.899 10.454998 21.792 9.005999 20.058 L 7.3829985 22.526001 C 7.2999983 22.656 7.1979985 22.764002 7.0929985 22.872002 C 9.123999 24.930002 11.943998 26.207 15.064999 26.207 C 21.252998 26.207 26.272 21.189001 26.272 15.001 C 26.272 14.989 26.269999 14.979 26.269999 14.966001 L 28.015 14.966001 C 28.364 14.966001 28.682 14.769001 28.845999 14.450001 C 28.923998 14.311001 28.957998 14.151001 28.957998 13.993001 C 28.959 13.805 28.906 13.617 28.801 13.454 z " fill="#dedede"/>
<rect fill="none" height="30" width="30"/>
</svg>
