<?xml version="1.0" encoding="UTF-8"?>
<svg xmlns="http://www.w3.org/2000/svg" xmlns:xlink="http://www.w3.org/1999/xlink" baseProfile="tiny" contentScriptType="text/ecmascript" contentStyleType="text/css" height="30px" preserveAspectRatio="xMidYMid meet" version="1.1" viewBox="0 0 30 30" width="30px" x="0px" y="0px" zoomAndPan="magnify">
<rect fill="none" height="30" width="30"/>
<path color="#000000" d="M 14.957266 5.0 C 13.256761 5.00002 11.899925 5.482569 10.876068 6.452992 C 9.852205 7.42345 9.3376045 8.61825 9.337606 10.042736 C 9.3376045 10.986482 9.58333 11.802008 10.064104 12.478632 C 10.544869 13.155281 11.28917 13.673444 12.286325 14.038462 C 11.093302 14.350081 10.17539 14.931456 9.529915 15.790598 C 8.884437 16.649757 8.547007 17.722586 8.5470085 18.995726 C 8.547008 20.705132 9.136394 22.12518 10.320513 23.26923 C 11.504627 24.413284 13.068014 24.999998 15.0 25.0 C 16.931969 24.999998 18.495358 24.4302 19.679487 23.2906 C 20.86359 22.151 21.452976 20.733624 21.452991 19.05983 C 21.452978 17.84901 21.140478 16.812689 20.51282 15.940172 C 19.885136 15.067673 18.95832 14.43021 17.75641 14.038462 C 18.726835 13.673444 19.459566 13.150831 19.935896 12.478633 C 20.4122 11.806459 20.641012 11.036339 20.641026 10.128206 C 20.641012 8.703721 20.122852 7.488444 19.081196 6.495728 C 18.03952 5.503046 16.666658 5.00002 14.957266 5.0 z M 14.978626 6.987179 C 15.886738 6.987197 16.655077 7.283671 17.264952 7.884615 C 17.874807 8.485593 18.183746 9.225441 18.183754 10.106837 C 18.183744 10.952647 17.878366 11.660447 17.286318 12.24359 C 16.69425 12.8267565 15.947277 13.119669 15.02136 13.119658 C 14.06872 13.11967 13.288805 12.831208 12.692302 12.24359 C 12.095787 11.655996 11.794862 10.9045725 11.794866 9.978632 C 11.794862 9.159559 12.108252 8.4508705 12.71367 7.863248 C 13.319077 7.2756586 14.061596 6.987197 14.978626 6.987179 z M 14.957266 15.08547 C 16.114666 15.08548 17.07175 15.461191 17.84188 16.217949 C 18.611988 16.974724 18.995714 17.945164 18.995728 19.102564 C 18.995716 20.242168 18.6111 21.162752 17.863249 21.90171 C 17.115376 22.64067 16.169865 23.01282 15.021368 23.01282 C 14.282401 23.012823 13.589738 22.851677 12.948719 22.500002 C 12.307688 22.14833 11.842055 21.645304 11.517094 21.004274 C 11.192126 20.363253 11.02564 19.70264 11.0256405 19.017094 C 11.025637 17.895306 11.393336 16.96582 12.136752 16.217949 C 12.880157 15.470095 13.82656 15.085479 14.957265 15.08547 z " display="inline" fill="#dedede" fill-opacity="1" fill-rule="nonzero" stroke="none" visibility="visible"/>
</svg>
