<?xml version="1.0" encoding="UTF-8"?>
<svg xmlns="http://www.w3.org/2000/svg" xmlns:xlink="http://www.w3.org/1999/xlink" baseProfile="tiny" contentScriptType="text/ecmascript" contentStyleType="text/css" height="30px" preserveAspectRatio="xMidYMid meet" version="1.1" viewBox="0 0 30 30" width="30px" x="0px" y="0px" zoomAndPan="magnify">
<rect fill="none" height="30" width="30"/>
<path d="M 3.548 15.0 C 3.548 15.325 3.689 15.625 3.911 15.784 L 14.602 23.883 C 14.709001 23.962 14.831 24.0 14.951 24.0 C 15.076 24.0 15.2 23.958 15.31 23.877 C 15.530001 23.713 15.663 23.42 15.663 23.101002 L 15.663 16.515001 L 25.39 23.883 C 25.497 23.962002 25.619 24.000002 25.739 24.000002 C 25.865 24.000002 25.988 23.958002 26.099 23.877005 C 26.318 23.714005 26.452002 23.420002 26.452002 23.102003 L 26.452002 6.9 C 26.452 6.58 26.318 6.285 26.099 6.123 C 25.988 6.039 25.864 6.0 25.739 6.0 C 25.619 6.0 25.498 6.039 25.389 6.115 L 15.662 13.483999 L 15.662 6.9 C 15.662 6.58 15.529 6.285 15.309 6.123 C 15.2 6.039 15.076 6.0 14.951 6.0 C 14.831 6.0 14.709 6.039 14.601 6.115 L 3.911 14.214 C 3.686 14.375 3.548 14.674 3.548 15.0 z " fill="#dedede" fill-opacity="0.7" stroke-opacity="0.7"/>
</svg>
