<?xml version="1.0" encoding="UTF-8"?>
<svg xmlns="http://www.w3.org/2000/svg" xmlns:xlink="http://www.w3.org/1999/xlink" baseProfile="tiny" contentScriptType="text/ecmascript" contentStyleType="text/css" height="30px" preserveAspectRatio="xMidYMid meet" version="1.1" viewBox="0 0 30 30" width="30px" x="0px" y="0px" zoomAndPan="magnify">
<path d="M 25.859 6.141 C 25.57 5.1809998 24.819 4.43 23.859 4.141 C 23.487 2.906 22.354 2.0 21.0 2.0 L 5.0 2.0 C 3.346 2.0 2.0 3.346 2.0 5.0 L 2.0 21.0 C 2.0 22.354 2.9060001 23.487 4.141 23.859 C 4.43 24.818998 5.1809998 25.57 6.141 25.859 C 6.513 27.093 7.646 28.0 9.0 28.0 L 25.0 28.0 C 26.654 28.0 28.0 26.654 28.0 25.0 L 28.0 9.0 C 28.0 7.646 27.094 6.513 25.859 6.141 z " fill-opacity="0.15"/>
<path d="M 22.721 3.0 C 22.372 2.406 21.734 2.0 21.0 2.0 L 5.0 2.0 C 3.9 2.0 3.0 2.9 3.0 4.0 L 3.0 20.0 C 3.0 20.734 3.406 21.372 4.0 21.721 L 4.0 6.0 C 4.0 4.3459997 5.3459997 3.0 7.0 3.0 L 22.721 3.0 z M 25.0 6.0 L 9.0 6.0 C 7.9 6.0 7.0 6.9 7.0 8.0 L 7.0 24.0 C 7.0 25.1 7.9 26.0 9.0 26.0 L 25.0 26.0 C 26.1 26.0 27.0 25.1 27.0 24.0 L 27.0 8.0 C 27.0 6.9 26.1 6.0 25.0 6.0 z M 11.133 24.0 C 9.956 24.0 9.0 23.045 9.0 21.867 C 9.0 20.688 9.956 19.733 11.132999 19.733 C 12.310999 19.733 13.266999 20.688 13.266999 21.867 C 13.267 23.045 12.311 24.0 11.133 24.0 z M 19.666 22.934 C 19.666 23.523 19.189001 24.0 18.6 24.0 L 17.534 24.0 C 16.944 24.0 16.468 23.522 16.468 22.934 L 16.468 22.316 L 16.45 22.316 C 16.45 19.22 13.779001 16.534 10.684001 16.534 L 10.066001 16.534 C 9.477 16.533 9.0 16.056 9.0 15.467 L 9.0 14.4 C 9.0 13.811 9.477 13.334 10.066 13.334 L 11.132 13.334 C 11.186 13.334 11.232 13.356 11.282 13.363 C 15.757 13.662 19.337 17.242 19.636 21.716 C 19.643 21.768 19.664999 21.814 19.664999 21.866999 L 19.664999 22.934 z M 25.0 22.934 C 25.0 23.522 24.523 24.0 23.934 24.0 L 22.868 24.0 C 22.278 24.0 21.801 23.522 21.801 22.934 L 21.801 22.345 C 21.801 16.259998 16.741001 11.216999 10.656 11.216999 L 10.656 11.2 L 10.067 11.2 C 9.477 11.2 9.0 10.723 9.0 10.133 L 9.0 9.066 C 9.0 8.479 9.477 8.0 10.066 8.0 L 11.132 8.0 C 11.19 8.0 11.239 8.023 11.293 8.032 C 18.692001 8.36 24.639 14.306 24.967 21.706 C 24.977 21.76 25.0 21.811 25.0 21.867 L 25.0 22.934 z M 24.721 5.0 C 24.372 4.406 23.734 4.0 23.0 4.0 L 7.0 4.0 C 5.9 4.0 5.0 4.9 5.0 6.0 L 5.0 22.0 C 5.0 22.734 5.406 23.372 6.0 23.721 L 6.0 8.0 C 6.0 6.3459997 7.3459997 5.0 9.0 5.0 L 24.721 5.0 z " fill-opacity="0.3"/>
<path d="M 22.721 4.0 C 22.372 3.406 21.734 3.0 21.0 3.0 L 5.0 3.0 C 3.9 3.0 3.0 3.9 3.0 5.0 L 3.0 21.0 C 3.0 21.734 3.406 22.372 4.0 22.721 L 4.0 7.0 C 4.0 5.3459997 5.3459997 4.0 7.0 4.0 L 22.721 4.0 z M 25.0 7.0 L 9.0 7.0 C 7.9 7.0 7.0 7.9 7.0 9.0 L 7.0 25.0 C 7.0 26.1 7.9 27.0 9.0 27.0 L 25.0 27.0 C 26.1 27.0 27.0 26.1 27.0 25.0 L 27.0 9.0 C 27.0 7.9 26.1 7.0 25.0 7.0 z M 11.133 25.0 C 9.956 25.0 9.0 24.045 9.0 22.867 C 9.0 21.688 9.956 20.733 11.132999 20.733 C 12.310999 20.733 13.266999 21.688 13.266999 22.867 C 13.267 24.045 12.311 25.0 11.133 25.0 z M 19.666 23.934 C 19.666 24.523 19.189001 25.0 18.6 25.0 L 17.534 25.0 C 16.944 25.0 16.468 24.522 16.468 23.934 L 16.468 23.316 L 16.45 23.316 C 16.45 20.22 13.779001 17.534 10.684001 17.534 L 10.066001 17.534 C 9.477 17.533 9.0 17.056 9.0 16.467 L 9.0 15.4 C 9.0 14.811 9.477 14.334 10.066 14.334 L 11.132 14.334 C 11.186 14.334 11.232 14.356 11.282 14.363 C 15.757 14.662 19.337 18.242 19.636 22.716 C 19.643 22.768 19.664999 22.814 19.664999 22.866999 L 19.664999 23.934 z M 25.0 23.934 C 25.0 24.522 24.523 25.0 23.934 25.0 L 22.868 25.0 C 22.278 25.0 21.801 24.522 21.801 23.934 L 21.801 23.345 C 21.801 17.259998 16.741001 12.216999 10.656 12.216999 L 10.656 12.2 L 10.067 12.2 C 9.477 12.2 9.0 11.723 9.0 11.133 L 9.0 10.067 C 9.0 9.479 9.477 9.0 10.066 9.0 L 11.132 9.0 C 11.19 9.0 11.239 9.023 11.293 9.032 C 18.692001 9.36 24.639 15.306 24.967 22.706 C 24.977 22.76 25.0 22.811 25.0 22.867 L 25.0 23.934 z M 24.721 6.0 C 24.372 5.406 23.734 5.0 23.0 5.0 L 7.0 5.0 C 5.9 5.0 5.0 5.9 5.0 7.0 L 5.0 23.0 C 5.0 23.734 5.406 24.372 6.0 24.721 L 6.0 9.0 C 6.0 7.3459997 7.3459997 6.0 9.0 6.0 L 24.721 6.0 z " fill="#dedede"/>
<rect fill="none" height="30" width="30"/>
</svg>
