<?xml version="1.0" encoding="UTF-8"?>
<svg xmlns="http://www.w3.org/2000/svg" xmlns:xlink="http://www.w3.org/1999/xlink" baseProfile="tiny" contentScriptType="text/ecmascript" contentStyleType="text/css" height="70px" preserveAspectRatio="xMidYMid meet" version="1.1" viewBox="0 0 70 70" width="70px" x="0px" y="0px" zoomAndPan="magnify">
<rect fill="none" height="70" width="70"/>
<path d="M 48.233 58.748 C 41.929 60.365 37.589 60.336002 34.65 60.268 C 31.712002 60.336002 27.374 60.366 21.078003 58.748 C 18.498003 58.082 16.288002 57.209 14.408003 56.135002 L 14.464003 55.864002 C 14.925003 54.023003 17.136002 52.915 17.136002 52.915 C 20.444002 50.984 23.722002 49.719 23.722002 49.719 C 27.315002 48.285004 27.889002 45.317 28.002003 44.883003 C 28.295002 43.744003 28.550003 42.547005 28.139002 42.162003 C 26.105001 40.4 25.298002 36.198 25.298002 36.198 C 25.258001 36.078003 25.215002 35.963 25.185001 35.849003 C 24.150002 36.818005 23.881 33.767002 23.534 32.671 C 22.929 30.768002 23.076 30.328001 23.076 30.328001 C 23.004 28.898 24.056 29.395 24.056 29.395 L 24.128 29.501001 C 23.376 27.495 23.134 26.410002 23.184 24.949001 C 23.282 22.206001 22.277 20.917002 24.964 16.627003 C 24.964 16.627003 25.364 15.939003 26.27 15.892003 C 27.166 15.858003 26.849 15.391003 27.166 14.801003 C 27.479 14.213003 27.711 13.548003 29.358 13.740004 C 31.008 13.939004 31.709 11.904003 36.681 13.506003 C 41.653 15.109003 42.85 15.328003 43.725 16.627003 C 46.525997 20.835003 45.857 21.835003 45.845997 24.582003 C 45.845997 26.358002 45.268997 27.564003 45.114 29.536003 L 45.198997 29.450003 C 45.198997 29.450003 46.277996 29.029003 46.107998 30.442003 C 46.107998 30.442003 45.918 31.353003 45.484997 32.757004 C 45.072 34.075005 44.559 36.957005 43.556995 35.727005 C 43.507996 35.883003 43.449997 36.033005 43.394997 36.197006 C 43.394997 36.197006 42.583996 40.399006 40.546997 42.161007 C 40.136997 42.546005 40.387997 43.743008 40.679996 44.882008 C 40.778996 45.258007 41.802998 47.71901 43.825996 49.104008 C 44.192997 49.328007 44.593998 49.53901 45.056995 49.718006 C 45.056995 49.718006 48.328995 50.984005 51.640995 52.914005 C 51.640995 52.914005 53.849995 54.022007 54.308994 55.863007 L 54.405994 56.352005 C 52.648 57.326 50.616 58.127 48.233 58.748 z " fill="#ffffff" fill-opacity="1" stroke-opacity="0.3"/>
<defs>
<linearGradient gradientUnits="userSpaceOnUse" x1="34.4087" x2="34.4087" y1="59.291" y2="11.8892">
<stop offset="0" stop-color="#d0cbc5"/>
<stop offset="0.5031" stop-color="#fafcef"/>
<stop offset="0.9693" stop-color="#ffffff"/>
<stop offset="1" stop-color="#ffffff"/>
</linearGradient>
</defs>
</svg>
