<?xml version="1.0" encoding="UTF-8"?>
<svg xmlns="http://www.w3.org/2000/svg" xmlns:xlink="http://www.w3.org/1999/xlink" baseProfile="tiny" contentScriptType="text/ecmascript" contentStyleType="text/css" height="16px" preserveAspectRatio="xMidYMid meet" version="1.1" viewBox="5.5 5.5 16 16" width="16px" x="0px" y="0px" zoomAndPan="magnify">
<linearGradient gradientTransform="matrix(1 0 0 -1 0.04 26.1543)" gradientUnits="userSpaceOnUse" x1="12.9595" x2="12.9595" xlink:actuate="onLoad" xlink:show="other" xlink:type="simple" y1="8.6543" y2="17.6548">
<stop offset="0" stop-color="#d0cbc5"/>
<stop offset="1" stop-color="#fcfcf9"/>
</linearGradient>
<path d="M 10.3 12.7 L 10.3 13.3 C 10.3 13.63 10.570001 13.899 10.900001 13.899 L 15.7 13.899 L 15.7 12.1 L 10.899 12.1 C 10.57 12.1 10.3 12.37 10.3 12.7 z M 8.223 15.7 L 8.176 15.7 C 7.457 15.7 7.3 16.014 7.3 16.598 C 7.3 17.182 7.461 17.498 8.176 17.498 L 8.223 17.5 C 8.943999 17.5 9.099 17.184 9.099 16.602 C 9.099 16.018 8.939 15.7 8.223 15.7 z M 18.1 13.502 L 18.1 13.899 C 18.324 13.899 18.511 13.771 18.615 13.587 L 18.1 13.502 z M 18.1 8.5 L 10.900001 8.5 C 10.570001 8.5 10.3 8.77 10.3 9.1 L 10.3 9.700001 C 10.3 10.030001 10.570001 10.301001 10.900001 10.301001 L 15.867001 10.301001 C 16.075 9.943 16.457 9.7 16.899 9.7 C 16.931 9.7 16.965 9.703 16.998 9.709 L 18.621 9.979 C 18.667 9.894 18.7 9.802 18.7 9.7 L 18.7 9.1 C 18.7 8.77 18.43 8.5 18.1 8.5 z M 18.1 15.7 L 18.1 17.5 C 18.43 17.5 18.701 17.23 18.701 16.899 L 18.701 16.299 C 18.7 15.971 18.43 15.7 18.1 15.7 z M 10.3 16.3 L 10.3 16.9 C 10.3 17.231 10.570001 17.501 10.900001 17.501 L 12.517 17.501 C 13.037001 16.787 13.995 16.300999 15.1 16.300999 C 15.303 16.300999 15.503 16.317999 15.701 16.350998 L 15.701 15.7 L 10.9 15.7 C 10.57 15.7 10.3 15.971 10.3 16.3 z M 8.223 8.5 L 8.177 8.5 C 7.457 8.5 7.3 8.815 7.3 9.397 C 7.3 9.982 7.461 10.298 8.176001 10.298 L 8.223 10.3 C 8.943999 10.3 9.099 9.983 9.099 9.401 C 9.099 8.817 8.939 8.5 8.223 8.5 z M 8.223 12.101 L 8.177 12.101 C 7.458 12.101 7.301 12.415999 7.301 12.998 C 7.301 13.582 7.462 13.899 8.177 13.899 L 8.223 13.900001 C 8.943999 13.900001 9.099 13.584001 9.099 13.002001 C 9.099 12.417 8.939 12.101 8.223 12.101 z " fill="#dedede" fill-opacity="1"/>
<path d="M 20.5 10.9 L 16.899 10.299999 C 16.568 10.299999 16.298 10.567999 16.298 10.9 L 16.298 12.099999 L 16.298 17.15 C 15.945001 16.995 15.538 16.899 15.099 16.899 C 13.773 16.899 12.698999 17.707 12.698999 18.7 C 12.698999 19.694 13.773 20.5 15.098999 20.5 C 16.424 20.5 17.499 19.694 17.499 18.7 L 17.499 12.791 L 20.499 13.3 L 20.499 10.9 z " fill="#dedede"/>
<rect fill="none" height="16" width="16" x="5.5" y="5.5"/>
</svg>
