<?xml version="1.0" encoding="UTF-8"?>
<svg xmlns="http://www.w3.org/2000/svg" xmlns:xlink="http://www.w3.org/1999/xlink" baseProfile="tiny" contentScriptType="text/ecmascript" contentStyleType="text/css" height="30px" preserveAspectRatio="xMidYMid meet" version="1.1" viewBox="0 0 30 30" width="30px" x="0px" y="0px" zoomAndPan="magnify">
<path d="M 7.5 22.102 C 7.5 22.421999 7.669 22.717 7.9440002 22.879 C 8.086 22.963 8.245 23.0 8.4 23.0 C 8.551 23.0 8.7039995 22.963 8.841 22.887 L 18.499 15.543999 L 18.499 22.0 C 18.499 22.553 18.946001 23.0 19.499 23.0 L 21.499 23.0 C 22.052 23.0 22.499 22.553 22.499 22.0 L 22.499 6.0 C 22.499 5.447 22.052 5.0 21.499 5.0 L 19.499 5.0 C 18.946001 5.0 18.499 5.447 18.499 6.0 L 18.499 12.457 L 8.841 5.115 C 8.705 5.038 8.55 5.0 8.4 5.0 C 8.245 5.0 8.086 5.04 7.944 5.123 C 7.669 5.287 7.5 5.58 7.5 5.898 L 7.5 22.102 z " fill-opacity="0.3"/>
<path d="M 6.5 6.899 C 6.5 6.23 6.857 5.604 7.442 5.2580004 C 7.73 5.09 8.062 5.0 8.4 5.0 C 8.729 5.0 9.049 5.086 9.332 5.245 C 9.374 5.266 9.411 5.2929997 9.446 5.319 L 17.499 11.44 L 17.499 7.0 C 17.499 5.897 18.396 5.0 19.5 5.0 L 21.5 5.0 C 22.603 5.0 23.5 5.897 23.5 7.001 L 23.5 23.001 C 23.5 24.105 22.603 25.003 21.5 25.003 L 19.5 25.003 C 18.396 25.003 17.499 24.105 17.499 23.001 L 17.499 18.562 L 9.446 24.683 C 9.41 24.710001 9.373 24.738 9.332 24.759 C 9.049 24.917002 8.726 25.003 8.4 25.003 C 8.056 25.003 7.7229996 24.911001 7.4399996 24.743 C 6.86 24.4 6.5 23.773 6.5 23.102 L 6.5 6.899 z " fill-opacity="0.15"/>
<path d="M 7.5 23.102 C 7.5 23.421999 7.669 23.717 7.9440002 23.879 C 8.086 23.963 8.245 24.0 8.4 24.0 C 8.551 24.0 8.7039995 23.963 8.841 23.885 L 18.499 16.543 L 18.499 23.0 C 18.499 23.553 18.946001 24.0 19.499 24.0 L 21.499 24.0 C 22.052 24.0 22.499 23.553 22.499 23.0 L 22.499 7.0 C 22.499 6.447 22.052 6.0 21.499 6.0 L 19.499 6.0 C 18.946001 6.0 18.499 6.447 18.499 7.0 L 18.499 13.455 L 8.84 6.115 C 8.705 6.039 8.55 6.0 8.4 6.0 C 8.245 6.0 8.086 6.04 7.944 6.123 C 7.669 6.286 7.5 6.579 7.5 6.899 L 7.5 23.102 z " fill="#dedede"/>
<rect fill="none" height="30" width="30" y="0"/>
</svg>
