<?xml version="1.0" encoding="UTF-8"?>
<svg xmlns="http://www.w3.org/2000/svg" xmlns:xlink="http://www.w3.org/1999/xlink" baseProfile="tiny" contentScriptType="text/ecmascript" contentStyleType="text/css" height="30px" preserveAspectRatio="xMidYMid meet" version="1.1" viewBox="0 0 30 30" width="30px" x="0px" y="0px" zoomAndPan="magnify">
<path d="M 15.0 29.0 C 7.28 29.0 1.0 22.72 1.0 15.0 C 1.0 7.2800007 7.28 1.0 15.0 1.0 C 22.72 1.0 29.0 7.28 29.0 15.0 C 29.0 22.72 22.72 29.0 15.0 29.0 L 15.0 29.0 z " fill-opacity="0.15" stroke-opacity="0.15"/>
<rect fill="none" height="30" width="30"/>
<path d="M 15.0 1.0 C 7.82 1.0 2.0 6.82 2.0 14.0 C 2.0 21.18 7.82 27.0 15.0 27.0 C 22.18 27.0 28.0 21.18 28.0 14.0 C 28.0 6.8199997 22.18 1.0 15.0 1.0 z M 15.705 23.299 C 13.936 23.299 12.289 22.810999 10.873 21.967 C 11.976 22.436998 13.18 22.699999 14.449 22.699999 C 19.970001 22.699999 23.150002 18.758 23.150002 14.024999 C 23.150002 10.844998 20.415 7.5369987 16.925001 7.5369987 C 13.519001 7.5369987 11.109001 9.874999 10.975001 13.249998 L 10.970001 13.249998 L 10.970001 14.013998 L 13.673001 14.013998 L 8.640001 20.848999 L 3.5170012 14.015999 L 6.234001 14.015999 C 6.2320013 13.949999 6.2260013 13.884999 6.2260013 13.8169985 C 6.2260013 8.580998 10.4660015 4.3359985 15.705002 4.3359985 C 20.941002 4.3359985 25.185001 8.580998 25.185001 13.8169985 C 25.185001 19.052998 20.941 23.299 15.705 23.299 z " fill-opacity="0.3" stroke-opacity="0.3"/>
<path d="M 15.0 2.0 C 7.82 2.0 2.0 7.82 2.0 15.0 C 2.0 22.18 7.82 28.0 15.0 28.0 C 22.18 28.0 28.0 22.18 28.0 15.0 C 28.0 7.8199997 22.18 2.0 15.0 2.0 z M 15.705 24.299 C 13.936 24.299 12.289 23.810999 10.873 22.967 C 11.976 23.436998 13.18 23.699999 14.449 23.699999 C 19.970001 23.699999 23.150002 19.758 23.150002 15.024999 C 23.150002 11.844998 20.415 8.536999 16.925001 8.536999 C 13.519001 8.536999 11.109001 10.874999 10.975001 14.249998 L 10.970001 14.249998 L 10.970001 15.013998 L 13.673001 15.013998 L 8.640001 21.848999 L 3.5170012 15.015999 L 6.234001 15.015999 C 6.2320013 14.949999 6.2260013 14.884999 6.2260013 14.8169985 C 6.2260013 9.580998 10.4660015 5.3359985 15.705002 5.3359985 C 20.941002 5.3359985 25.185001 9.580998 25.185001 14.8169985 C 25.185001 20.052998 20.941 24.299 15.705 24.299 z " fill="#dedede"/>
</svg>
