<?xml version="1.0" encoding="UTF-8"?>
<svg xmlns="http://www.w3.org/2000/svg" xmlns:xlink="http://www.w3.org/1999/xlink" baseProfile="tiny" contentScriptType="text/ecmascript" contentStyleType="text/css" height="30px" preserveAspectRatio="xMidYMid meet" version="1.1" viewBox="0 0 30 30" width="30px" x="0px" y="0px" zoomAndPan="magnify">
<path d="M 18.549 8.819 C 18.557 8.825 20.63 10.543 20.63 10.543 C 20.831999 10.747 21.352999 11.173 22.162998 11.173 C 22.533998 11.173 22.908998 11.081 23.276 10.899 L 27.536999 9.307 C 27.578 9.292 27.616999 9.275001 27.654999 9.254 C 28.279999 8.922999 29.255 8.013 28.940998 6.7019997 C 27.76 1.741 23.869 1.0 21.655 1.0 C 20.383001 1.0 19.435001 1.242 19.445 1.242 C 19.445 1.242 19.445 1.242 19.446 1.2409999 C 14.372 2.191 10.192999 6.049 8.889999 7.366 C 8.858 7.392 8.826 7.419 8.797 7.449 L 6.953 9.294 C 6.91 9.337 6.871 9.384 6.838 9.433 C 5.055 11.315 2.0699997 15.018999 1.2549996 19.377998 C 1.2179997 19.521997 0.35099965 22.939999 2.0429997 25.759998 C 3.0059998 27.363998 4.5719995 28.434998 6.7009997 28.941998 C 6.862 28.98 7.027 29.0 7.189 29.0 C 8.505 29.0 9.179 27.794 9.252 27.656 C 9.272 27.619 9.289 27.581 9.304 27.541 L 10.9 23.278 C 11.516999 22.032999 10.962999 21.028 10.528 20.612 L 8.749 18.621 C 8.686999 18.511 7.8809996 16.808 12.104 12.450001 C 12.104 12.450001 12.358 12.199 12.371 12.187 C 15.487 9.166 17.254 8.714001 18.029 8.714001 C 18.389 8.715 18.545 8.816 18.549 8.819 z M 29.0 20.0 C 29.0 16.141 25.859 13.0 22.0 13.0 C 18.141 13.0 15.0 16.141 15.0 20.0 C 15.0 22.143 15.97 24.061 17.49 25.346 L 15.8 27.6 C 15.407001 28.123001 15.325 28.711 15.575 29.212 C 15.825 29.713 16.345 30.0 17.0 30.0 L 27.0 30.0 C 27.655 30.0 28.175 29.713 28.425 29.212 C 28.675 28.711 28.592999 28.123 28.199999 27.601 L 26.508999 25.346 C 28.03 24.061 29.0 22.143 29.0 20.0 z " fill-opacity="0.15"/>
<g>
<g fill-opacity="0.3" stroke-opacity="0.3">
<path d="M 19.143 7.01 L 21.314 8.812 C 21.314 8.812 21.893 9.497001 22.873999 8.982 L 27.188 7.3710003 C 27.188 7.3710003 28.185999 6.8430004 27.969 5.934 C 26.421999 -0.5580001 19.630001 1.2249999 19.630001 1.2249999 C 14.766001 2.135 10.748001 5.893 9.512001 7.1619997 L 9.504 7.156 L 7.66 9.001 L 7.669 9.01 C 6.11 10.635 3.0350003 14.297001 2.223 18.631 C 2.223 18.631 0.444 25.424 6.933 26.969002 C 7.843 27.186 8.368 26.191002 8.368 26.191002 L 9.983 21.876001 C 10.497 20.894001 9.815 20.315 9.815 20.315 L 7.936 18.213001 C 8.12 18.372002 5.899 16.416 11.398 10.744001 L 11.398 10.742002 L 11.672 10.469002 L 11.674 10.470002 C 17.348 4.969 19.301 7.189 19.143 7.01 z M 25.699 24.932 C 24.624 25.604 23.358 26.0 22.0 26.0 C 20.642 26.0 19.376 25.604 18.301 24.932 L 16.6 27.2 C 16.27 27.64 16.45 28.0 17.0 28.0 L 27.0 28.0 C 27.55 28.0 27.73 27.64 27.4 27.2 L 25.699 24.932 z M 22.0 25.0 C 25.313 25.0 28.0 22.313 28.0 19.0 C 28.0 15.687 25.313 13.0 22.0 13.0 C 18.687 13.0 16.0 15.687 16.0 19.0 C 16.0 22.313 18.687 25.0 22.0 25.0 z M 22.0 16.5 C 23.381 16.5 24.5 17.619 24.5 19.0 C 24.5 20.381 23.381 21.5 22.0 21.5 C 20.619 21.5 19.5 20.381 19.5 19.0 C 19.5 17.619 20.619 16.5 22.0 16.5 z "/>
</g>
</g>
<g>
<g>
<path d="M 19.143 8.01 L 21.314 9.812 C 21.314 9.812 21.893 10.497001 22.873999 9.982 L 27.188 8.371 C 27.188 8.371 28.185999 7.8430004 27.969 6.934 C 26.421999 0.4419999 19.630001 2.225 19.630001 2.225 C 14.766001 3.135 10.748001 6.893 9.512001 8.162 L 9.504 8.156 L 7.66 10.001 L 7.6689997 10.01 C 6.1099997 11.635 3.0349998 15.297001 2.2229996 19.631 C 2.2229996 19.631 0.44399953 26.424 6.9329996 27.969002 C 7.8429995 28.186 8.368 27.191002 8.368 27.191002 L 9.983 22.876001 C 10.497 21.894001 9.815 21.315 9.815 21.315 L 7.936 19.213001 C 8.12 19.372002 5.899 17.416 11.398 11.744001 L 11.398 11.742002 L 11.672 11.469002 L 11.674 11.470002 C 17.348 5.969 19.301 8.189 19.143 8.01 z M 22.0 26.0 C 25.313 26.0 28.0 23.313 28.0 20.0 C 28.0 16.687 25.313 14.0 22.0 14.0 C 18.687 14.0 16.0 16.687 16.0 20.0 C 16.0 23.313 18.687 26.0 22.0 26.0 z M 22.0 17.5 C 23.381 17.5 24.5 18.619 24.5 20.0 C 24.5 21.381 23.381 22.5 22.0 22.5 C 20.619 22.5 19.5 21.381 19.5 20.0 C 19.5 18.619 20.619 17.5 22.0 17.5 z M 25.699 25.932 C 24.624 26.604 23.358 27.0 22.0 27.0 C 20.642 27.0 19.376 26.604 18.301 25.932 L 16.6 28.2 C 16.27 28.64 16.45 29.0 17.0 29.0 L 27.0 29.0 C 27.55 29.0 27.73 28.64 27.4 28.2 L 25.699 25.932 z " fill="#dedede"/>
</g>
</g>
<rect fill="none" height="30" width="30"/>
</svg>
