<?xml version="1.0" encoding="UTF-8"?>
<svg xmlns="http://www.w3.org/2000/svg" xmlns:xlink="http://www.w3.org/1999/xlink" baseProfile="tiny" contentScriptType="text/ecmascript" contentStyleType="text/css" height="57px" preserveAspectRatio="xMidYMid meet" version="1.1" viewBox="0 0 67 57" width="67px" x="0px" y="0px" zoomAndPan="magnify">
<rect fill="#ffffff" fill-opacity="0.70588235" fill-rule="nonzero" height="48" ry="8.2174387" stroke="none" width="48" x="9.5" y="5.5"/>
<rect color="#000000" display="inline" fill="#040cff" fill-opacity="0.58823528999999997" fill-rule="nonzero" height="48" ry="8.2174387" stroke="none" visibility="visible" width="48" x="9.5" y="5.5"/>
<defs>
<linearGradient gradientUnits="userSpaceOnUse" x1="34" x2="34" xlink:actuate="onLoad" xlink:show="other" xlink:type="simple" y1="46" y2="12.0005">
<stop offset="0" stop-color="#d0cbc5"/>
<stop offset="0.5031" stop-color="#fafcef"/>
<stop offset="0.9693" stop-color="#ffffff"/>
<stop offset="1" stop-color="#ffffff"/>
</linearGradient>
</defs>
<path d="M 49.500023 29.497805 C 49.500023 29.495604 49.500023 29.495604 49.500023 29.494904 C 49.500023 20.663631 42.33857 13.499996 33.50148 13.499996 L 33.49998 13.499996 L 33.49998 13.499996 C 29.1138 13.499996 25.142162 15.267996 22.251257 18.126904 C 22.231615 18.145817 22.207617 18.165457 22.186523 18.185816 C 22.066525 18.30727 21.958887 18.44036 21.8418 18.564724 C 19.156708 21.425816 17.49998 25.263634 17.49998 29.494907 C 17.49998 29.495634 17.49998 29.495634 17.49998 29.497808 C 17.49998 29.497808 17.49998 29.499306 17.49998 29.500006 C 17.49998 38.33564 24.663616 45.500008 33.499985 45.500008 L 33.499985 45.500008 L 33.501484 45.500008 C 39.40039 45.500008 44.540028 42.298553 47.313847 37.545097 C 48.69494 35.180008 49.50003 32.436005 49.50003 29.500008 C 49.50003 29.49928 49.50003 29.497808 49.50003 29.497808 z M 32.09639 15.571986 C 32.198933 15.629446 32.265118 15.706532 32.240387 15.834531 C 32.09639 16.564713 29.617842 18.97344 28.88475 19.235985 C 28.154568 19.497805 27.866568 19.451984 27.366203 19.118896 C 26.661478 18.649076 25.129114 19.902897 26.07675 20.344349 C 26.397478 20.494894 26.975658 20.54362 27.90075 20.859983 C 29.3662 21.366163 29.792389 22.238894 28.94366 22.467983 C 24.696386 23.616348 26.682568 24.94362 25.073112 26.553802 C 24.246206 27.38362 24.30293 27.715984 23.7182 27.910892 C 23.00111 28.149437 22.88693 27.10653 22.211292 27.07671 C 21.9982 27.06507 20.425838 27.09998 19.721111 27.10798 C 20.782202 20.977797 25.830202 16.197433 32.096382 15.571978 z M 47.48838 29.294888 C 47.236744 29.62798 46.812016 29.966888 46.30002 29.872343 C 45.412743 29.710888 44.83747 27.408342 43.881836 28.129795 C 42.289837 29.332706 46.33129 31.337795 46.33129 31.96907 C 46.33129 32.60034 45.476746 33.529797 45.105835 33.826523 C 44.553112 34.273796 44.652744 35.98725 44.652744 35.98725 C 44.652744 37.192345 43.841835 38.63598 43.428017 39.187256 C 43.00983 39.74071 41.19965 41.801804 40.145836 40.5298 C 39.361835 39.581436 40.022923 37.63453 39.790928 35.55089 C 39.70802 34.805435 39.84984 32.67889 36.65129 32.293438 C 33.80911 31.951618 34.050564 29.880348 34.238197 28.830893 C 34.49565 27.384346 34.65347 26.529076 35.873108 26.232347 C 36.560383 26.064348 38.614925 25.79962 40.04765 26.364712 C 40.721104 26.63162 41.800377 26.522528 41.965466 25.632347 C 42.141468 24.67889 41.505104 24.619984 39.974197 24.189438 C 38.588017 23.800348 37.28838 24.963984 36.16474 24.962528 C 35.664375 24.962528 35.689102 24.537077 35.695652 23.945805 C 35.70729 23.354528 37.87238 21.82944 38.09929 21.657804 C 38.53929 21.321802 39.822197 21.457075 39.849106 21.457075 C 41.265102 21.502895 40.95674 20.542166 39.9982 20.496347 C 38.322563 20.414898 38.446926 19.534891 38.42584 19.270164 C 38.404747 19.004711 38.66947 18.329802 39.961113 18.298529 C 40.258568 18.29053 41.168385 18.254889 41.83384 18.27962 C 45.21202 20.793074 47.42366 24.78362 47.488388 29.294891 z M 24.006931 39.759624 C 24.11093 38.44617 23.749475 36.035988 23.31675 35.73999 C 21.94584 34.80908 21.998203 35.080353 21.877478 31.42726 C 21.812016 29.401808 25.246931 29.977808 25.986568 30.782171 C 26.695658 31.55308 26.578568 32.675987 28.637476 33.538536 C 29.22293 33.78072 30.308022 34.47526 29.996748 35.09708 C 29.686205 35.719624 28.998203 35.953808 29.06002 37.092716 C 29.160383 38.92326 27.68693 38.778538 27.347294 40.024353 C 27.128386 40.827263 26.884748 41.434532 26.745838 41.754536 C 25.750204 41.205444 24.835293 40.5269 24.00693 39.75963 z " fill="#ffffff" fill-opacity="1" stroke-opacity="0.29999999999999999"/>
</svg>
