<?xml version="1.0" encoding="UTF-8"?>
<svg xmlns="http://www.w3.org/2000/svg" xmlns:xlink="http://www.w3.org/1999/xlink" baseProfile="tiny" contentScriptType="text/ecmascript" contentStyleType="text/css" height="57px" preserveAspectRatio="xMidYMid meet" version="1.1" viewBox="0 0 67 57" width="67px" x="0px" y="0px" zoomAndPan="magnify">
<rect fill="#ffffff" fill-opacity="0.70588235" fill-rule="nonzero" height="48" ry="8.2174387" stroke="none" width="48" x="9.5" y="5.5"/>
<rect fill="#469fff" fill-opacity="0.58823529" fill-rule="nonzero" height="48" ry="8.2174387" stroke="none" width="48" x="9.5" y="5.5"/>
<rect fill="none" height="57" width="67"/>
<path d="M 38.283 44.133 C 38.219 44.08 38.154 44.028 38.092 43.973 C 38.154 44.025 38.219 44.08 38.283 44.133 z " fill-opacity="0.15"/>
<path d="M 41.33 45.215 C 41.027 45.215 40.734 45.176 40.447 45.123 C 40.734 45.178 41.027 45.215 41.33 45.215 z " fill-opacity="0.15"/>
<path d="M 39.33 44.777 C 39.105003 44.676 38.892 44.554 38.685 44.423 C 38.893 44.557 39.105 44.676 39.33 44.777 z " fill-opacity="0.15"/>
<path d="M 40.188 45.064 C 39.979 45.013 39.778 44.947 39.58 44.871 C 39.775 44.949 39.979 45.014 40.188 45.064 z " fill-opacity="0.15"/>
<defs>
<linearGradient gradientTransform="matrix(1 0 0 -1 -258 -291)" gradientUnits="userSpaceOnUse" x1="294.5" x2="294.5" xlink:actuate="onLoad" xlink:show="other" xlink:type="simple" y1="-338.1128" y2="-300">
<stop offset="0" stop-color="#d0cbc5"/>
<stop offset="0.5031" stop-color="#fafcef"/>
<stop offset="1" stop-color="#ffffff"/>
</linearGradient>
</defs>
<g>
<g transform="matrix(0.70164706,0,0,0.70164706,7.648357,7.6836047)">
<path d="M 58.023 34.0 L 40.977 34.0 C 38.781 34.0 37.0 35.941 37.0 38.053 L 37.0 48.473 C 37.0 50.586 38.781 52.526 40.977 52.526 L 58.592003 52.526 L 62.0 56.0 L 62.0 38.053 C 62.0 35.941 60.221 34.0 58.023 34.0 z M 56.531 47.895 L 50.92 47.895 C 50.450993 47.895 50.067997 47.506 50.067997 47.028 C 50.067997 46.547 50.450996 46.16 50.92 46.16 L 56.531 46.16 C 57.002 46.16 57.383 46.549 57.383 47.028 C 57.383 47.506 57.002 47.895 56.531 47.895 z M 56.531 43.842 L 42.398 43.842 C 41.926 43.842 41.545 43.453 41.545 42.973 C 41.545 42.494 41.926 42.106 42.398 42.106 L 56.531 42.106 C 57.002 42.106 57.383 42.497997 57.383 42.973 C 57.383 43.451 57.002 43.842 56.531 43.842 z M 56.531 39.789 L 42.398 39.789 C 41.926 39.789 41.545 39.4 41.545 38.92199 C 41.545 38.44399 41.926 38.053 42.398 38.053 L 56.531 38.053 C 57.002 38.053 57.383 38.44399 57.383 38.92199 C 57.383 39.4 57.002 39.789 56.531 39.789 z M 55.0 32.0 L 55.0 21.937 C 54.191 21.797 53.459 21.349 53.0 20.659 C 52.445 21.491 51.504 22.0 50.5 22.0 C 49.975 22.0 49.455 21.861 49.0 21.598 C 48.307 21.198 47.811 20.551 47.602 19.778 C 47.412 19.063 47.487 18.32 47.815 17.664 C 46.246 17.567 45.0 16.262 45.0 14.67 C 45.0 13.078 46.246 11.773 47.814 11.676 C 47.551 11.154 47.459 10.575 47.525 10.0 L 18.0 10.0 C 14.131 10.0 11.0 13.352 11.0 17.0 L 11.0 48.0 L 17.0 42.0 L 35.0 42.0 L 35.0 38.053 C 35.0 34.771 37.738 32.0 40.977 32.0 z M 20.625 17.0 L 45.5 17.0 C 46.328 17.0 47.0 17.672 47.0 18.5 C 47.0 19.329 46.328 20.0 45.5 20.0 L 20.625 20.0 C 19.797 20.0 19.125 19.328 19.125 18.5 C 19.125 17.672 19.797 17.0 20.625 17.0 z M 30.5 34.0 L 20.625 34.0 C 19.797 34.0 19.125 33.328 19.125 32.5 C 19.125 31.672 19.797 31.0 20.625 31.0 L 30.5 31.0 C 31.328 31.0 32.0 31.672 32.0 32.5 C 32.0 33.328 31.328 34.0 30.5 34.0 z M 20.625 27.0 C 19.797 27.0 19.125 26.328 19.125 25.5 C 19.125 24.672 19.797 24.0 20.625 24.0 L 45.5 24.0 C 46.328 24.0 47.0 24.672 47.0 25.5 C 47.0 26.328 46.328 27.0 45.5 27.0 z " fill="#ffffff" fill-opacity="1"/>
</g>
<path d="M 40.45164 18.080557 C 40.45164 18.468569 40.76527 18.782206 41.15329 18.782206 L 43.44627 18.782206 L 42.300476 20.767866 C 42.106117 21.103956 42.221188 21.53266 42.55658 21.726316 C 42.66744 21.790865 42.788124 21.820335 42.9074 21.820335 C 43.150173 21.820335 43.38592 21.694038 43.51573 21.469513 L 44.66152 19.48385 L 45.808716 21.469513 C 45.93922 21.694738 46.17427 21.820335 46.41704 21.820335 C 46.53632 21.820335 46.65701 21.790165 46.76646 21.725616 C 47.102547 21.53266 47.217613 21.103254 47.023964 20.767166 L 45.87678 18.781506 L 48.16976 18.781506 C 48.557777 18.781506 48.871407 18.46787 48.871407 18.07986 C 48.871407 17.691849 48.557777 17.37821 48.16976 17.37821 L 45.87678 17.37821 L 47.023964 15.39255 C 47.21762 15.057164 47.102543 14.628457 46.76646 14.434802 C 46.43177 14.241144 46.001663 14.356922 45.80871 14.691602 L 44.66151 16.677263 L 43.515724 14.691601 C 43.32137 14.354814 42.89126 14.240444 42.556572 14.434801 C 42.22049 14.628456 42.10541 15.057864 42.300472 15.393251 L 43.446262 17.378912 L 41.15328 17.378912 C 40.765263 17.378912 40.45163 17.692549 40.45163 18.08056 z " fill="#fa664b" fill-opacity="1"/>
</g>
</svg>
