<?xml version="1.0" encoding="UTF-8"?>
<svg xmlns="http://www.w3.org/2000/svg" xmlns:xlink="http://www.w3.org/1999/xlink" baseProfile="tiny" contentScriptType="text/ecmascript" contentStyleType="text/css" height="23px" preserveAspectRatio="xMidYMid meet" version="1.1" viewBox="0 0 25 23" width="25px" x="0px" y="0px" zoomAndPan="magnify">
<path color="#000000" d="M 11.5 11.500001 C 11.50073 13.286815 10.547894 14.938211 9.000589 15.831829 C 7.4532847 16.725447 5.5467153 16.725447 3.9994104 15.831829 C 2.4521058 14.938211 1.4992712 13.286815 1.5000005 11.500001 C 1.4992712 9.713186 2.4521058 8.0617895 3.99941 7.168172 C 5.546715 6.2745547 7.4532847 6.2745547 9.000589 7.168172 C 10.547894 8.0617895 11.50073 9.713186 11.5 11.500001 z " display="inline" fill="#ffffff" fill-opacity="0.11764706" fill-rule="nonzero" stroke="none" visibility="visible"/>
<rect fill="none" height="23" width="25"/>
<defs>
<linearGradient gradientUnits="userSpaceOnUse" x1="12.5" x2="12.5" xlink:actuate="onLoad" xlink:show="other" xlink:type="simple" y1="22" y2="1.0005">
<stop offset="0" stop-color="#195b19"/>
<stop offset="1" stop-color="#9bd22d"/>
</linearGradient>
</defs>
<path color="#000000" d="M 10.852331 11.500001 C 10.852967 13.055362 10.023555 14.492847 8.67668 15.270711 C 7.3298025 16.048574 5.6701984 16.048574 4.323322 15.270711 C 2.9764445 14.492847 2.147034 13.055362 2.147669 11.500001 C 2.147034 9.94464 2.9764445 8.5071535 4.323321 7.7292895 C 5.670198 6.9514256 7.3298016 6.9514256 8.676679 7.7292895 C 10.023555 8.5071535 10.852966 9.944639 10.852331 11.500001 z " display="inline" fill="#ffffff" fill-opacity="0.11764706" fill-rule="nonzero" stroke="none" visibility="visible"/>
<path color="#000000" d="M 12.15 11.5 C 12.150825 13.5191 11.07412 15.385177 9.3256645 16.394966 C 7.5772104 17.404757 5.4227877 17.404757 3.674333 16.394966 C 1.9258792 15.385177 0.8491761 13.5191 0.8500003 11.5 C 0.8491761 9.480899 1.9258792 7.614821 3.6743329 6.6050334 C 5.4227877 5.595246 7.5772114 5.595246 9.3256645 6.6050334 C 11.07412 7.614821 12.150825 9.480899 12.15 11.5 z " display="inline" fill="#ffffff" fill-opacity="0.11764706" fill-rule="nonzero" stroke="none" visibility="visible"/>
<path color="#000000" d="M 10.204517 11.176167 C 10.205058 12.500023 9.4991 13.723547 8.352695 14.385632 C 7.206292 15.047716 5.7937083 15.047716 4.6473055 14.385632 C 3.5009012 13.723548 2.7949426 12.500023 2.795483 11.176167 C 2.7949426 9.852309 3.5009012 8.628784 4.647305 7.9667 C 5.793708 7.304615 7.206292 7.304615 8.352695 7.9667 C 9.4991 8.628784 10.205058 9.85231 10.204517 11.176168 z " display="inline" fill="#ffffff" fill-opacity="1" fill-rule="nonzero" stroke="#c8c8c8" stroke-opacity="1" stroke-width="0.64766836000000005" visibility="visible"/>
</svg>
