<?xml version="1.0" encoding="UTF-8"?>
<svg xmlns="http://www.w3.org/2000/svg" xmlns:xlink="http://www.w3.org/1999/xlink" baseProfile="tiny" contentScriptType="text/ecmascript" contentStyleType="text/css" height="30px" preserveAspectRatio="xMidYMid meet" version="1.1" viewBox="0 0 30 30" width="30px" x="0px" y="0px" zoomAndPan="magnify">
<rect color="#000000" display="inline" fill="#353535" fill-opacity="0.58823529" fill-rule="nonzero" height="27.533897" ry="4.7137108" stroke="none" visibility="visible" width="27.533897" x="1.2330513" y="1.2330513"/>
<g transform="matrix(0.66666667,0,0,0.66666667,4.9999999,-4.0000001)">
<path d="M 25.0 28.0 C 25.0 27.447 24.553 27.0 24.0 27.0 C 23.447 27.0 23.0 27.447 23.0 28.0 C 23.0 32.411 19.411 36.0 15.0 36.0 C 10.589001 36.0 7.0 32.411 7.0 28.0 C 7.0 27.447 6.553 27.0 6.0 27.0 C 5.447 27.0 5.0 27.447 5.0 28.0 C 5.0 32.829 8.441 36.869 13.0 37.799 L 13.0 40.0 L 11.0 40.0 C 10.4470005 40.0 10.0 40.448 10.0 41.0 C 10.0 41.553 10.447 42.0 11.0 42.0 L 19.0 42.0 C 19.553 42.0 20.0 41.553 20.0 41.0 C 20.0 40.448 19.553 40.0 19.0 40.0 L 17.0 40.0 L 17.0 37.799 C 21.559 36.869 25.0 32.829 25.0 28.0 z " fill="#dedede"/>
<path d="M 15.0 34.0 C 18.146 34.0 20.721 31.58 20.975 28.5 L 21.0 28.5 L 21.0 21.0 C 21.0 17.687 18.314 15.0 15.0 15.0 C 11.686 15.0 9.0 17.687 9.0 21.0 L 9.0 28.5 L 9.025 28.5 C 9.279 31.58 11.854 34.0 15.0 34.0 z " fill="#dedede"/>
</g>
</svg>
