<?xml version="1.0" encoding="UTF-8"?>
<svg xmlns="http://www.w3.org/2000/svg" xmlns:xlink="http://www.w3.org/1999/xlink" baseProfile="tiny" contentScriptType="text/ecmascript" contentStyleType="text/css" height="10px" preserveAspectRatio="xMidYMid meet" version="1.1" viewBox="0 0 10 10" width="10px" x="0px" y="0px" zoomAndPan="magnify">
<path d="M 9.133172 5.0 C 7.2200823 5.0 5.6658597 3.207 5.6658597 1.0 L 5.6658597 0.0 L 3.9322035 0.0 L 3.9322035 1.0 C 3.9322035 4.301 6.2717724 7.0 9.133172 7.0 L 10.0 7.0 L 10.0 5.0 L 9.133172 5.0 z " fill="#141414" fill-opacity="0.4" stroke-opacity="0.4"/>
<path d="M 4.0 0.0 L 4.0 1.0 C 4.0 3.758 6.242 6.0 9.0 6.0 L 10.0 6.0 L 10.0 0.0 L 4.0 0.0 z " fill="#8c8c8c" fill-opacity="0.3" stroke-opacity="0.3"/>
<path d="M 3.999 0.0 C 3.999 2.762 6.238 5.0 8.999001 5.0 L 9.999001 5.0 L 9.999001 0.0 L 3.999 0.0 z " fill="#8c8c8c"/>
<rect fill="none" height="10" width="10" x="0"/>
<defs>
<linearGradient gradientUnits="userSpaceOnUse" x1="6.9998" x2="6.9998" xlink:actuate="onLoad" xlink:show="other" xlink:type="simple" y1="5" y2="-44">
<stop offset="0" stop-color="#464646"/>
<stop offset="0.3281" stop-color="#4a4a4a"/>
<stop offset="0.6787" stop-color="#575757"/>
<stop offset="0.8957" stop-color="#636363"/>
<stop offset="0.9306" stop-color="#666666"/>
<stop offset="0.9613" stop-color="#717171"/>
<stop offset="0.9902" stop-color="#838383"/>
<stop offset="1" stop-color="#8b8b8b"/>
</linearGradient>
</defs>
</svg>
