<?xml version="1.0" encoding="UTF-8"?>
<svg xmlns="http://www.w3.org/2000/svg" xmlns:xlink="http://www.w3.org/1999/xlink" baseProfile="tiny" contentScriptType="text/ecmascript" contentStyleType="text/css" height="51px" preserveAspectRatio="xMidYMid meet" version="1.1" viewBox="8.309 0 15.691 51" width="15.691px" x="0px" y="0px" zoomAndPan="magnify">
<defs>
<linearGradient gradientTransform="translate(-686.0132,1409.1914)" gradientUnits="userSpaceOnUse" x1="667.06708" x2="1001.2087" xlink:actuate="onLoad" xlink:show="other" xlink:type="simple" y1="-1402.1782" y2="-1402.1782">
<stop offset="0" stop-color="#2e2e2e"/>
<stop offset="0.5" stop-color="#636363"/>
<stop offset="0.865" stop-color="#2e2e2e"/>
<stop offset="1" stop-color="#2e2e2e"/>
</linearGradient>
</defs>
<rect fill="none" height="38.574154" width="16" x="8.309" y="-1.4210855e-014"/>
<path d="M 15.309 -2.4797604E-8 L 15.309 42.0 L 15.309 43.0 C 15.309 43.6895 15.462125 44.339462 15.71525 44.9375 C 15.968375 45.535538 16.32525 46.078625 16.77775 46.53125 C 17.23025 46.983875 17.773376 47.34047 18.3715 47.59375 C 18.969624 47.84703 19.619 48.0 20.309 48.0 L 20.684 48.0 L 24.309 48.0 L 24.309 51.0 L 20.309 51.0 C 15.893 51.0 12.309 47.412 12.309 43.0 L 12.309 42.0 L 12.309 0.0 z " fill="#646464" fill-opacity="0.19607843"/>
<path d="M 24.309 -2.4797604E-8 L 24.309 42.0 L 24.309 48.0 L 20.684 48.0 L 20.309 48.0 C 19.619 48.0 18.969624 47.84703 18.3715 47.59375 C 17.773376 47.34047 17.23025 46.983875 16.77775 46.53125 C 16.32525 46.078625 15.968375 45.535538 15.71525 44.9375 C 15.462125 44.339462 15.309 43.6895 15.309 43.0 L 15.309 42.0 L 15.309 0.0 z " fill="#2e2e2e" fill-opacity="0.78431374"/>
<path d="M 15.309 -2.4797604E-8 L 15.309 42.0 L 15.309 43.0 C 15.309 43.6895 15.462125 44.339462 15.71525 44.9375 C 15.968375 45.535538 16.32525 46.078625 16.77775 46.53125 C 17.23025 46.983875 17.773376 47.34047 18.3715 47.59375 C 18.969624 47.84703 19.619 48.0 20.309 48.0 L 20.684 48.0 L 24.309 48.0 L 24.309 49.0 L 24.309 50.0 L 20.309 50.0 C 16.448 50.0 13.309 46.857 13.309 43.0 L 13.309 42.0 L 13.309 0.0 z " fill="#646464" fill-opacity="0.19607843"/>
<path d="M 24.309 48.0 L 24.309 49.0 L 20.309 49.0 C 16.996 49.0 14.309 46.309 14.309 43.0 L 14.309 42.0 L 14.309 0.0 L 15.309 0.0 L 15.309 42.0 L 15.309 43.0 C 15.309 45.758 17.549 48.0 20.309 48.0 z " fill="#646464" fill-opacity="0.19607843"/>
</svg>
