<?xml version="1.0" encoding="UTF-8"?>
<svg xmlns="http://www.w3.org/2000/svg" xmlns:xlink="http://www.w3.org/1999/xlink" baseProfile="tiny" contentScriptType="text/ecmascript" contentStyleType="text/css" height="38px" preserveAspectRatio="xMidYMid meet" version="1.1" viewBox="0 0 7 38" width="7px" x="0px" y="0px" zoomAndPan="magnify">
<rect fill="none" height="38" width="7"/>
<path d="M 6.979 38.0 L 7.0 38.0 L 7.0 0.0 L 6.979 0.0 L 5.981 0.0 C 5.988 0.229 6.0 38.0 6.0 38.0 L 6.979 38.0 z " fill="none"/>
<linearGradient gradientTransform="matrix(-1 0 0 -1 46.5254 -18.7695)" gradientUnits="userSpaceOnUse" id="SVGID_1_" x1="43.5254" x2="43.5254" xlink:actuate="onLoad" xlink:show="other" xlink:type="simple" y1="-16.9541" y2="-56.7478">
<stop offset="0" stop-color="#e74441"/>
<stop offset="1" stop-color="#e74441"/>
</linearGradient>
<path d="M 0.0 0.0 L 0.0 38.0 L 5.981 38.0 L 6.0 38.0 C 6.0 38.0 5.988 0.229 5.981 0.0 L 0.0 0.0 z " fill="url(#SVGID_1_)"/>
<linearGradient gradientTransform="matrix(-1 0 0 -1 46.5254 -18.7695)" gradientUnits="userSpaceOnUse" id="SVGID_2_" x1="39.5254" x2="40.5254" xlink:actuate="onLoad" xlink:show="other" xlink:type="simple" y1="-37.7695" y2="-37.7695">
<stop offset="0" stop-color="#e74441"/>
<stop offset="1" stop-color="#e74441"/>
</linearGradient>
<path d="M 6.0 38.0 L 7.0 38.0 C 7.0 38.0 6.998 0.229 6.997 0.0 L 6.0 0.0 L 6.0 38.0 z " fill="url(#SVGID_2_)" fill-opacity="0.1"/>
</svg>
