<?xml version="1.0" encoding="UTF-8"?>
<svg xmlns="http://www.w3.org/2000/svg" xmlns:xlink="http://www.w3.org/1999/xlink" baseProfile="tiny" contentScriptType="text/ecmascript" contentStyleType="text/css" height="30px" preserveAspectRatio="xMidYMid meet" version="1.1" viewBox="0 0 30 30" width="30px" x="0px" y="0px" zoomAndPan="magnify">
<path d="M 5.0 18.0 C 3.897 18.0 3.0 17.104 3.0 16.0 L 3.0 14.0 C 3.0 12.897 3.897 12.0 5.0 12.0 C 11.666667 12.0 18.333332 12.0 25.0 12.0 C 26.102 12.0 27.0 12.897 27.0 14.0 L 27.0 16.0 C 27.0 17.104 26.102 18.0 25.0 18.0 C 18.333332 18.0 11.666667 18.0 5.0 18.0 z " fill-opacity="0.15" stroke-opacity="0.15"/>
<path d="M 25.0 12.0 C 18.333332 12.0 11.666667 12.0 5.0 12.0 C 4.45 12.0 4.0 12.45 4.0 13.0 L 4.0 15.0 C 4.0 15.55 4.45 16.0 5.0 16.0 C 11.666667 16.0 18.333332 16.0 25.0 16.0 C 25.549 16.0 26.0 15.55 26.0 15.0 L 26.0 13.0 C 26.0 12.45 25.549 12.0 25.0 12.0 z " fill-opacity="0.3" stroke-opacity="0.3"/>
<path d="M 25.0 13.0 C 18.333332 13.0 11.666667 13.0 5.0 13.0 C 4.45 13.0 4.0 13.45 4.0 14.0 L 4.0 16.0 C 4.0 16.55 4.45 17.0 5.0 17.0 C 11.666667 17.0 18.333332 17.0 25.0 17.0 C 25.549 17.0 26.0 16.55 26.0 16.0 L 26.0 14.0 C 26.0 13.45 25.549 13.0 25.0 13.0 z " fill="#dedede"/>
<rect fill="none" height="30" width="30"/>
</svg>
