<?xml version="1.0" encoding="UTF-8"?>
<svg xmlns="http://www.w3.org/2000/svg" xmlns:xlink="http://www.w3.org/1999/xlink" baseProfile="tiny" contentScriptType="text/ecmascript" contentStyleType="text/css" height="30px" preserveAspectRatio="xMidYMid meet" version="1.1" viewBox="0 0 30 30" width="30px" x="0px" y="0px" zoomAndPan="magnify">
<path d="M 9.0 26.0 C 8.74 26.0 8.484 25.898 8.293 25.707 L 3.2930002 20.707 C 2.9020002 20.316 2.9020002 19.684 3.2930002 19.293001 L 8.293 14.293001 C 8.484 14.102 8.74 14.0 9.0 14.0 C 9.129 14.0 9.259 14.025 9.383 14.076 C 9.757 14.23 10.0 14.596 10.0 15.0 L 10.0 17.0 L 26.0 17.0 C 26.553 17.0 27.0 17.447 27.0 18.0 L 27.0 22.0 C 27.0 22.553 26.553 23.0 26.0 23.0 L 10.0 23.0 L 10.0 25.0 C 10.0 25.404 9.757 25.77 9.383 25.924 C 9.259 25.975 9.129 26.0 9.0 26.0 L 9.0 26.0 z M 21.0 16.0 C 20.871 16.0 20.741 15.975 20.617 15.924 C 20.243 15.77 20.0 15.404 20.0 15.0 L 20.0 13.0 L 4.0 13.0 C 3.447 13.0 3.0 12.552 3.0 12.0 L 3.0 8.0 C 3.0 7.448 3.447 7.0 4.0 7.0 L 20.0 7.0 L 20.0 5.0 C 20.0 4.596 20.243 4.231 20.617 4.076 C 20.741 4.025 20.871 4.0 21.0 4.0 C 21.26 4.0 21.516 4.102 21.707 4.293 L 26.707 9.293 C 27.098001 9.684 27.098001 10.316 26.707 10.707001 L 21.707 15.707001 C 21.516 15.898 21.26 16.0 21.0 16.0 L 21.0 16.0 z " fill-opacity="0.15" stroke-opacity="0.15"/>
<path d="M 21.0 14.0 L 26.0 9.0 L 21.0 4.0 L 21.0 7.0 L 4.0 7.0 L 4.0 11.0 L 21.0 11.0 L 21.0 14.0 z M 9.0 14.0 L 4.0 19.0 L 9.0 24.0 L 9.0 21.0 L 26.0 21.0 L 26.0 17.0 L 9.0 17.0 L 9.0 14.0 z " fill-opacity="0.3" stroke-opacity="0.3"/>
<path d="M 21.0 15.0 L 26.0 10.0 L 21.0 5.0 L 21.0 8.0 L 4.0 8.0 L 4.0 12.0 L 21.0 12.0 L 21.0 15.0 z M 9.0 15.0 L 4.0 20.0 L 9.0 25.0 L 9.0 22.0 L 26.0 22.0 L 26.0 18.0 L 9.0 18.0 L 9.0 15.0 z " fill="#dedede"/>
<rect fill="none" height="30" width="30"/>
</svg>
