<?xml version="1.0" encoding="UTF-8"?>
<svg xmlns="http://www.w3.org/2000/svg" xmlns:xlink="http://www.w3.org/1999/xlink" baseProfile="tiny" contentScriptType="text/ecmascript" contentStyleType="text/css" height="52px" preserveAspectRatio="xMidYMid meet" version="1.1" viewBox="0 0 52 52" width="52px" x="0px" y="0px" zoomAndPan="magnify">
<defs>
<defs>
<linearGradient gradientTransform="translate(-1065,-1511)" gradientUnits="userSpaceOnUse" x1="1090.998" x2="1090.998" xlink:actuate="onLoad" xlink:show="other" xlink:type="simple" y1="1556.4971" y2="1517.5039">
<stop offset="0" stop-color="#d0cbc5"/>
<stop offset="0.5031" stop-color="#fafcef"/>
<stop offset="0.9693" stop-color="#ffffff"/>
<stop offset="1" stop-color="#ffffff"/>
</linearGradient>
</defs>
</defs>
<path d="M 39.611 22.497 L 10.899 22.497 C 7.834 22.497 6.1800003 23.226 5.54 25.383 C 5.154 26.682 2.064 38.633 1.2129998 41.958 C 1.1759999 42.104 1.1419998 42.236 1.1129998 42.348 C 0.5809998 44.434 2.0499997 46.497 4.0499997 46.497 C 4.0499997 46.497 15.699999 46.497 23.696 46.497 L 33.517998 46.497 C 34.518 46.497 36.518 46.497 37.123997 44.497 C 37.885 41.993 38.890995 38.249 40.638996 31.353 C 40.826996 30.625 41.015995 29.868 41.214996 29.073 C 41.411995 28.288 41.615 27.482 41.83 26.624 C 41.907997 26.314 41.955 26.039 41.997997 25.768 C 42.17 24.682 42.073 23.903 41.74 23.387 C 41.337 22.756 40.6 22.497 39.610996 22.497 z M 3.0009956 27.111 C 3.0199957 27.041 3.0369956 26.976 3.0549955 26.908 C 3.1529956 26.541 3.2419956 26.21 3.3179955 25.922 C 3.3339956 25.865002 3.3489954 25.809 3.3629956 25.755 C 3.3809955 25.692 3.3959956 25.632002 3.4119956 25.574 C 3.4309957 25.507002 3.4479957 25.443 3.4649956 25.383 C 3.4769957 25.338 3.4889956 25.293 3.5009956 25.251 C 3.5179956 25.191002 3.5309956 25.141 3.5449955 25.090002 C 3.5549955 25.059002 3.5639956 25.026005 3.5709956 24.997002 C 3.5919957 24.924002 3.6089957 24.861002 3.6239955 24.812002 C 4.904995 20.497002 9.260996 20.497002 10.899996 20.497002 L 23.129 20.497002 C 23.128 20.485 23.126 20.475 23.125 20.462 L 23.07 18.876 C 23.068 18.801 23.07 18.726 23.076 18.651 C 23.213 17.002998 24.131 16.278 25.004 15.912999 L 19.8 15.912999 C 19.8 14.808999 18.904 13.912999 17.8 13.912999 L 6.799999 13.912999 C 5.695999 13.912999 4.799999 14.808999 4.799999 15.912999 L 3.003 15.912999 C 1.899 15.912999 1.003 16.809 1.003 17.912998 L 1.003 34.767 C 1.136 34.247 1.2720001 33.732 1.4070001 33.205997 C 1.992 30.956997 2.574 28.726995 3.001 27.110998 z M 50.95 18.198 C 50.902 16.866 50.003 16.911 48.894 16.743 C 47.597 16.544 47.136 15.446 46.515 14.442 C 45.83 13.338 45.325 12.526 45.529 11.359 C 45.447 10.914 45.466 10.44 45.646 9.879 C 45.698 9.715 45.741 9.569 45.777 9.431 C 45.663 9.199 45.435 8.988 45.043 8.758 C 44.383 8.373 43.691 8.031 43.018 7.672 C 41.961 7.111 41.497 8.076 40.903 8.817 C 39.965 9.993 38.541 9.633 37.215 9.739 C 36.094 9.827 35.149 9.743 34.363 8.884 C 33.568 8.009 33.199 7.511 32.06 8.163 C 31.456 8.5130005 30.872002 8.903 30.275002 9.27 C 29.964 9.461 29.788002 9.657001 29.683002 9.860001 C 29.775002 10.142 29.910002 10.443001 30.037004 10.776001 C 30.225002 11.255001 30.221004 11.685001 30.122002 12.094001 C 30.418 13.3550005 29.486002 14.310001 28.973 15.429001 C 28.893002 15.603001 28.811 15.762001 28.725002 15.913001 C 28.239002 16.784 27.645002 17.293 26.584002 17.521002 C 25.599 17.736002 25.146002 17.899002 25.067 18.817 C 25.084002 19.345 25.106 19.874 25.123 20.402 C 25.124 20.438 25.133 20.463 25.135 20.496 L 30.789 20.496 C 30.766 20.25 30.749 20.001 30.749 19.749 C 30.749 19.581 30.766 19.415 30.773 19.249 C 30.759998 19.083 30.749 18.917 30.749 18.749 C 30.749 17.747 30.963 16.788 31.346 15.913 C 32.466 13.337 35.051 11.497 38.0 11.497 C 41.951 11.497 45.251 14.798 45.251 18.749 C 45.251 18.917 45.234 19.083 45.227 19.249 C 45.239 19.415 45.251 19.581 45.251 19.749 C 45.251 21.234 44.785 22.626 43.993 23.786 C 44.165 24.715002 44.097 25.812 43.769 27.109 C 43.456 28.359 43.162003 29.529 42.88 30.63 C 43.075 30.693 43.283 30.688002 43.513 30.544 C 44.111 30.356 45.894 29.372 46.426003 28.552 C 46.257004 28.128 46.015003 27.723 45.937004 27.286 C 45.871 26.907 45.865005 26.547998 45.929005 26.206 C 45.818005 25.49 45.919006 24.846 46.33001 24.242 C 46.838005 23.495998 47.05901 22.408 47.68401 21.784998 C 48.647007 20.826998 50.747005 21.072 50.991005 19.766 C 50.98201 19.245 50.967007 18.723 50.950005 18.197998 z M 32.750004 19.749998 C 32.750004 20.004995 32.791004 20.249998 32.828003 20.496998 L 37.6 20.496998 L 37.6 17.913998 C 37.6 16.809998 36.704 15.913998 35.6 15.913998 L 33.62 15.913998 C 33.077 16.738998 32.752 17.712996 32.752 18.749998 C 32.752 18.840998 32.761997 18.930998 32.767998 19.020998 C 32.775997 19.115995 32.783997 19.294998 32.775997 19.391 C 32.759 19.568998 32.749996 19.658998 32.749996 19.749998 z " fill="#c2c2c2" fill-opacity="1" stroke-opacity="0.29999999999999999"/>
<rect fill="none" height="52" stroke-opacity="0.3" width="52" x="0" y="0"/>
</svg>
