<?xml version="1.0" encoding="UTF-8"?>
<svg xmlns="http://www.w3.org/2000/svg" xmlns:xlink="http://www.w3.org/1999/xlink" baseProfile="tiny" contentScriptType="text/ecmascript" contentStyleType="text/css" height="30px" preserveAspectRatio="xMidYMid meet" version="1.1" viewBox="0 0 30 30" width="30px" x="0px" y="0px" zoomAndPan="magnify">
<path d="M 19.0 29.0 C 17.346 29.0 16.0 27.654 16.0 26.0 L 16.0 19.0 C 16.0 17.346 17.346 16.0 19.0 16.0 L 26.0 16.0 C 27.654 16.0 29.0 17.346 29.0 19.0 L 29.0 26.0 C 29.0 27.654 27.654 29.0 26.0 29.0 z M 5.0 29.0 C 3.346 29.0 2.0 27.654 2.0 26.0 L 2.0 19.0 C 2.0 17.346 3.346 16.0 5.0 16.0 C 7.7160783 15.620218 9.304133 15.91995 12.0 16.0 C 13.654 16.0 15.0 17.346 15.0 19.0 L 15.0 26.0 C 15.0 27.654 13.654 29.0 12.0 29.0 z M 19.0 15.0 C 17.346 15.0 16.0 13.654 16.0 12.0 L 16.0 5.0 C 16.0 3.346 17.346 2.0 19.0 2.0 L 26.0 2.0 C 27.654 2.0 29.0 3.346 29.0 5.0 L 29.0 12.0 C 29.0 13.654 27.654 15.0 26.0 15.0 z " fill-opacity="0.15" stroke-opacity="0.15"/>
<path d="M 26.0 2.0 L 19.0 2.0 C 17.899 2.0 17.0 2.9 17.0 4.0 L 17.0 11.0 C 17.0 12.1 17.899 13.0 19.0 13.0 L 26.0 13.0 C 27.101 13.0 28.0 12.1 28.0 11.0 L 28.0 4.0 C 28.0 2.9 27.101 2.0 26.0 2.0 z M 26.0 16.0 L 19.0 16.0 C 17.899 16.0 17.0 16.9 17.0 18.0 L 17.0 25.0 C 17.0 26.1 17.899 27.0 19.0 27.0 L 26.0 27.0 C 27.101 27.0 28.0 26.1 28.0 25.0 L 28.0 18.0 C 28.0 16.9 27.101 16.0 26.0 16.0 z M 12.0 16.0 L 5.0 16.0 C 3.899 16.0 3.0 16.9 3.0 18.0 L 3.0 25.0 C 3.0 26.1 3.899 27.0 5.0 27.0 L 12.0 27.0 C 13.101 27.0 14.0 26.1 14.0 25.0 L 14.0 18.0 C 14.0 16.9 13.101 16.0 12.0 16.0 z " fill-opacity="0.3" stroke-opacity="0.3"/>
<path d="M 26.0 3.0 L 19.0 3.0 C 17.899 3.0 17.0 3.9 17.0 5.0 L 17.0 12.0 C 17.0 13.1 17.899 14.0 19.0 14.0 L 26.0 14.0 C 27.101 14.0 28.0 13.1 28.0 12.0 L 28.0 5.0 C 28.0 3.9 27.101 3.0 26.0 3.0 z M 26.0 17.0 L 19.0 17.0 C 17.899 17.0 17.0 17.9 17.0 19.0 L 17.0 26.0 C 17.0 27.1 17.899 28.0 19.0 28.0 L 26.0 28.0 C 27.101 28.0 28.0 27.1 28.0 26.0 L 28.0 19.0 C 28.0 17.9 27.101 17.0 26.0 17.0 z M 12.0 17.0 L 5.0 17.0 C 3.899 17.0 3.0 17.9 3.0 19.0 L 3.0 26.0 C 3.0 27.1 3.899 28.0 5.0 28.0 L 12.0 28.0 C 13.101 28.0 14.0 27.1 14.0 26.0 L 14.0 19.0 C 14.0 17.9 13.101 17.0 12.0 17.0 z " fill="#dedede"/>
<rect fill="none" height="30" width="30"/>
<path d="M 12.0 2.0 L 5.0 2.0 C 3.899 2.0 3.0 2.9 3.0 4.0 L 3.0 11.0 C 3.0 12.1 3.899 13.0 5.0 13.0 L 12.0 13.0 C 13.101 13.0 14.0 12.1 14.0 11.0 L 14.0 4.0 C 14.0 2.9 13.101 2.0 12.0 2.0 z " fill-opacity="0.3" stroke-opacity="0.3"/>
<path d="M 5.0 15.0 C 3.346 15.0 2.0 13.654 2.0 12.0 L 2.0 5.0 C 2.0 3.346 3.346 2.0 5.0 2.0 L 12.0 2.0 C 13.654 2.0 15.0 3.346 15.0 5.0 L 15.0 12.0 C 15.0 13.654 13.654 15.0 12.0 15.0 z " fill-opacity="0.15" stroke-opacity="0.15"/>
<path d="M 12.000001 3.000001 L 5.0 3.000001 C 3.899 3.000001 3.0 3.9 3.0 5.0 L 3.0 12.0 C 3.0 13.1 3.899 14.0 5.0 14.0 L 12.000001 14.0 C 13.101001 14.0 14.000001 13.1 14.000001 12.0 L 14.000001 5.0 C 14.000001 3.9 13.101001 3.000001 12.000001 3.000001 z " fill="#dedede"/>
</svg>
