<?xml version="1.0" encoding="UTF-8"?>
<svg xmlns="http://www.w3.org/2000/svg" xmlns:xlink="http://www.w3.org/1999/xlink" baseProfile="tiny" contentScriptType="text/ecmascript" contentStyleType="text/css" height="30px" preserveAspectRatio="xMidYMid meet" version="1.1" viewBox="0 0 30 30" width="30px" x="0px" y="0px" zoomAndPan="magnify">
<path d="M 15.0 1.0 C 7.82 1.0 2.0 6.82 2.0 14.0 C 2.0 21.18 7.82 27.0 15.0 27.0 C 22.18 27.0 28.0 21.18 28.0 14.0 C 28.0 6.82 22.18 1.0 15.0 1.0 z M 17.0 23.0 C 17.0 23.551 16.55 24.0 16.0 24.0 L 14.0 24.0 C 13.45 24.0 13.0 23.551 13.0 23.0 L 13.0 14.0 C 13.0 13.451 12.55 13.0 12.0 13.0 L 11.0 13.0 C 10.45 13.0 10.0 12.551 10.0 12.0 C 10.0 11.451 10.45 11.0 11.0 11.0 L 16.0 11.0 C 16.55 11.0 17.0 11.451 17.0 12.0 L 17.0 23.0 z M 15.002 9.0 C 13.621 9.0 12.5 7.879 12.5 6.5 C 12.5 5.12 13.621 4.0 15.002 4.0 C 16.382 4.0 17.5 5.12 17.5 6.5 C 17.5 7.879 16.382 9.0 15.002 9.0 z " fill-opacity="0.3" stroke-opacity="0.3"/>
<path d="M 15.0 29.0 C 7.28 29.0 1.0 22.721 1.0 15.0 C 1.0 7.28 7.28 1.0 15.0 1.0 C 22.72 1.0 29.0 7.28 29.0 15.0 C 29.0 22.721 22.72 29.0 15.0 29.0 L 15.0 29.0 z " fill-opacity="0.15" stroke-opacity="0.15"/>
<path d="M 15.0 2.0 C 7.82 2.0 2.0 7.82 2.0 15.0 C 2.0 22.18 7.82 28.0 15.0 28.0 C 22.18 28.0 28.0 22.18 28.0 15.0 C 28.0 7.82 22.18 2.0 15.0 2.0 z M 17.0 24.0 C 17.0 24.551 16.55 25.0 16.0 25.0 L 14.0 25.0 C 13.45 25.0 13.0 24.551 13.0 24.0 L 13.0 15.0 C 13.0 14.451 12.55 14.0 12.0 14.0 L 11.0 14.0 C 10.45 14.0 10.0 13.551 10.0 13.0 C 10.0 12.451 10.45 12.0 11.0 12.0 L 16.0 12.0 C 16.55 12.0 17.0 12.451 17.0 13.0 L 17.0 24.0 z M 15.002 10.0 C 13.621 10.0 12.5 8.879 12.5 7.5 C 12.5 6.12 13.621 5.0 15.002 5.0 C 16.382 5.0 17.5 6.12 17.5 7.5 C 17.5 8.879 16.382 10.0 15.002 10.0 z " fill="#dedede"/>
<rect fill="none" height="30" width="30"/>
</svg>
