<?xml version="1.0" encoding="UTF-8"?>
<svg xmlns="http://www.w3.org/2000/svg" xmlns:xlink="http://www.w3.org/1999/xlink" baseProfile="tiny" contentScriptType="text/ecmascript" contentStyleType="text/css" height="30px" preserveAspectRatio="xMidYMid meet" version="1.1" viewBox="0 0 30 30" width="30px" x="0px" y="0px" zoomAndPan="magnify">
<path d="M 24.707 16.293 C 24.516 16.102 24.26 16.0 24.0 16.0 C 23.871 16.0 23.741 16.025 23.617 16.076 C 23.243 16.231 23.0 16.596 23.0 17.0 L 23.0 18.0 L 21.0 18.0 C 20.091 18.0 19.562 17.732 18.985 16.98 L 17.484 15.0 L 18.980999 13.025 C 19.563 12.268 20.091 12.0 21.0 12.0 L 23.0 12.0 L 23.0 13.0 C 23.0 13.405 23.243 13.768 23.617 13.924 C 23.741 13.975 23.871 14.0 24.0 14.0 C 24.26 14.0 24.516 13.898 24.707 13.707 L 28.707 9.707 C 29.098001 9.316 29.098001 8.684 28.707 8.292999 L 24.707 4.2929993 C 24.516 4.102 24.26 4.0 24.0 4.0 C 23.871 4.0 23.741 4.025 23.617 4.076 C 23.243 4.23 23.0 4.596 23.0 5.0 L 23.0 6.0 L 21.0 6.0 C 18.221 6.0 15.934999 7.141 14.203 9.396 L 13.721 10.033 L 13.235 9.39 C 11.507 7.141 9.221 6.0 6.441 6.0 L 2.0 6.0 C 1.447 6.0 1.0 6.447 1.0 7.0 L 1.0 11.0 C 1.0 11.5529995 1.447 12.0 2.0 12.0 L 6.441 12.0 C 7.35 12.0 7.8789997 12.268 8.456 13.02 L 9.957 15.0 L 8.46 16.975 C 7.879 17.733 7.351 18.0 6.441 18.0 L 2.0 18.0 C 1.447 18.0 1.0 18.447 1.0 19.0 L 1.0 23.0 C 1.0 23.553 1.447 24.0 2.0 24.0 L 6.441 24.0 C 9.22 24.0 11.5060005 22.859 13.238 20.604 L 13.72 19.967001 L 14.206 20.61 C 15.935 22.86 18.221 24.0 21.0 24.0 L 23.0 24.0 L 23.0 25.0 C 23.0 25.404 23.243 25.768 23.617 25.924 C 23.741 25.975 23.871 26.0 24.0 26.0 C 24.26 26.0 24.516 25.898 24.707 25.707 L 28.707 21.707 C 29.098001 21.316 29.098001 20.684 28.707 20.293001 L 24.707 16.293 z " fill-opacity="0.15" stroke-opacity="0.15"/>
<path d="M 9.253 11.416 L 9.329 11.517 L 11.798 8.259001 C 10.628 7.033 8.945 6.0 6.441 6.0 L 2.0 6.0 L 2.0 10.0 L 6.441 10.0 C 7.666 10.0 8.485 10.416 9.253 11.416 z M 24.0 18.0 L 21.0 18.0 C 19.775 18.0 18.956 17.584 18.188 16.584 L 18.112 16.482 L 15.643 19.74 C 16.813 20.967 18.496 22.0 21.0 22.0 L 24.0 22.0 L 24.0 24.0 L 28.0 20.0 L 24.0 16.0 L 24.0 18.0 z M 21.0 10.0 L 24.0 10.0 L 24.0 12.0 L 28.0 8.0 L 24.0 4.0 L 24.0 6.0 L 21.0 6.0 C 18.0 6.0 16.168 7.479 15.0 9.0 L 9.253 16.584 C 8.485 17.584 7.666 18.0 6.441 18.0 L 2.0 18.0 L 2.0 22.0 L 6.441 22.0 C 9.441 22.0 11.273 20.521 12.441 19.0 L 18.188 11.416 C 18.956 10.416 19.775 10.0 21.0 10.0 z " fill-opacity="0.3" stroke-opacity="0.3"/>
<path d="M 9.253 12.416 L 9.329 12.517 L 11.798 9.259001 C 10.628 8.033 8.945 7.0 6.441 7.0 L 2.0 7.0 L 2.0 11.0 L 6.441 11.0 C 7.666 11.0 8.485 11.416 9.253 12.416 z M 24.0 19.0 L 21.0 19.0 C 19.775 19.0 18.956 18.584 18.188 17.584 L 18.112 17.482 L 15.643 20.74 C 16.813 21.967 18.496 23.0 21.0 23.0 L 24.0 23.0 L 24.0 25.0 L 28.0 21.0 L 24.0 17.0 L 24.0 19.0 z M 21.0 11.0 L 24.0 11.0 L 24.0 13.0 L 28.0 9.0 L 24.0 5.0 L 24.0 7.0 L 21.0 7.0 C 18.0 7.0 16.168 8.479 15.0 10.0 L 9.253 17.584 C 8.485 18.584 7.666 19.0 6.441 19.0 L 2.0 19.0 L 2.0 23.0 L 6.441 23.0 C 9.441 23.0 11.273 21.521 12.441 20.0 L 18.188 12.416 C 18.956 11.416 19.775 11.0 21.0 11.0 z " fill="#dedede"/>
<rect fill="none" height="30" width="30"/>
</svg>
