<?xml version="1.0" encoding="UTF-8"?>
<svg xmlns="http://www.w3.org/2000/svg" xmlns:xlink="http://www.w3.org/1999/xlink" baseProfile="tiny" contentScriptType="text/ecmascript" contentStyleType="text/css" height="26px" preserveAspectRatio="xMidYMid meet" version="1.1" viewBox="0 0 78 26" width="78px" x="0px" y="0px" zoomAndPan="magnify">
<defs/>
<rect fill="none" height="26" width="78"/>
<path d="M 38.84375 11.78125 C 38.82244 11.790689 38.801586 11.801118 38.78125 11.8125 L 28.6875 14.34375 L 28.5 14.375 L 28.5 14.40625 C 27.701895 14.508906 27.0625 15.141945 27.0625 15.96875 C 27.0625 16.425085 27.230768 16.815844 27.53125 17.125 C 27.831732 17.434156 28.35292 17.66177 28.875 17.53125 L 38.96875 15.0 L 49.0625 17.53125 C 49.12342 17.549578 49.186428 17.56008 49.25 17.5625 C 50.11376 17.5625 50.84375 16.833565 50.84375 15.96875 C 50.84375 15.5288925 50.62118 15.105996 50.34375 14.84375 C 50.066315 14.581504 49.761497 14.456 49.4375 14.375 L 39.15625 11.8125 C 39.055458 11.780143 38.948956 11.769493 38.84375 11.78125 z " fill="#dedede" fill-opacity="1" stroke-opacity="0.72000002"/>
</svg>
