<?xml version="1.0" encoding="UTF-8"?>
<svg xmlns="http://www.w3.org/2000/svg" xmlns:xlink="http://www.w3.org/1999/xlink" baseProfile="tiny" contentScriptType="text/ecmascript" contentStyleType="text/css" height="30px" preserveAspectRatio="xMidYMid meet" version="1.1" viewBox="0 0 30 30" width="30px" x="0px" y="0px" zoomAndPan="magnify">
<path d="M 15.0 24.0 C 8.375999 24.0 2.9259996 17.98 1.4139996 16.135 C 0.8569996 15.457001 0.8569996 14.545 1.4139996 13.865 C 2.927 12.021 8.377 6.0 15.0 6.0 C 21.625 6.0 27.071999 12.021 28.586 13.867001 C 29.143 14.545 29.143 15.457001 28.586 16.135 C 27.073 17.98 21.625 24.0 15.0 24.0 L 15.0 24.0 z M 17.334 10.578 C 18.918 11.418 20.0 13.085 20.0 15.0 C 20.0 16.916 18.918 18.584 17.33 19.424 C 20.072 18.567 22.527 16.436 23.949 15.0 C 22.528 13.566 20.073 11.436 17.334 10.578 L 17.334 10.578 z M 6.05 15.0 C 7.472 16.436 9.927 18.564 12.669001 19.422 C 11.082 18.582 10.0 16.916 10.0 15.0 C 10.0 13.084 11.084 11.417 12.668 10.578 C 9.927 11.435 7.472 13.564 6.05 15.0 L 6.05 15.0 z M 15.0 14.0 C 14.4470005 14.0 14.0 14.449 14.0 15.0 C 14.0 15.5529995 14.447 16.0 15.0 16.0 C 15.551 16.0 16.0 15.553 16.0 15.0 C 16.0 14.449 15.551 14.0 15.0 14.0 L 15.0 14.0 z " fill-opacity="0.15" stroke-opacity="0.15"/>
<path d="M 27.813 13.5 C 26.393 11.768 21.204 6.0 15.0 6.0 C 8.799 6.0 3.607 11.768 2.188 13.5 C 1.938 13.805 1.938 14.195 2.188 14.5 C 3.607 16.232 8.799 22.0 15.0 22.0 C 21.203 22.0 26.393 16.232 27.813 14.5 C 28.063 14.195 28.063 13.804 27.813 13.5 z M 15.0 19.8 C 10.546 19.8 6.4490004 15.940999 4.667 13.998999 C 6.448 12.059 10.547 8.2 15.0 8.2 C 19.453 8.2 23.550999 12.058 25.332 13.999 C 23.551 15.941 19.454 19.8 15.0 19.8 z M 15.0 10.0 C 12.793 10.0 11.0 11.794 11.0 14.0 C 11.0 16.207 12.793 18.0 15.0 18.0 C 17.205 18.0 19.0 16.207 19.0 14.0 C 19.0 11.794 17.206 10.0 15.0 10.0 z M 15.0 16.0 C 13.896 16.0 13.0 15.104 13.0 14.0 C 13.0 12.898 13.896 12.0 15.0 12.0 C 16.102 12.0 17.0 12.898 17.0 14.0 C 17.0 15.103 16.102 16.0 15.0 16.0 z " fill-opacity="0.3" stroke-opacity="0.3"/>
<path d="M 27.813 14.5 C 26.393 12.767 21.204 7.0 15.0 7.0 C 8.799 7.0 3.607 12.767 2.188 14.5 C 1.938 14.805 1.938 15.195 2.188 15.5 C 3.607 17.232 8.799 23.0 15.0 23.0 C 21.203 23.0 26.393 17.232 27.813 15.5 C 28.063 15.195 28.063 14.804 27.813 14.5 z M 15.0 20.8 C 10.546 20.8 6.4490004 16.941 4.667 14.998999 C 6.448 13.058 10.547 9.2 15.0 9.2 C 19.453 9.2 23.550999 13.058 25.332 14.999 C 23.551 16.941 19.454 20.8 15.0 20.8 z M 15.0 11.0 C 12.793 11.0 11.0 12.794 11.0 15.0 C 11.0 17.207 12.793 19.0 15.0 19.0 C 17.205 19.0 19.0 17.207 19.0 15.0 C 19.0 12.794 17.206 11.0 15.0 11.0 z M 15.0 17.0 C 13.896 17.0 13.0 16.104 13.0 15.0 C 13.0 13.898 13.896 13.0 15.0 13.0 C 16.102 13.0 17.0 13.898 17.0 15.0 C 17.0 16.103 16.102 17.0 15.0 17.0 z " fill="#dedede"/>
<rect fill="none" height="30" width="30"/>
</svg>
