<?xml version="1.0" encoding="UTF-8"?>
<svg xmlns="http://www.w3.org/2000/svg" xmlns:xlink="http://www.w3.org/1999/xlink" baseProfile="tiny" contentScriptType="text/ecmascript" contentStyleType="text/css" height="30px" preserveAspectRatio="xMidYMid meet" version="1.1" viewBox="0 0 30 30" width="30px" x="0px" y="0px" zoomAndPan="magnify">
<defs/>
<path d="M 23.23 18.121 C 22.129 18.121 21.117 18.517 20.293 19.176 L 17.407999 15.412001 L 23.778 6.939001 C 26.248 3.027 23.506 1.175 23.506 1.175 L 15.0 12.271 L 6.492 1.176 C 6.492 1.176 3.75 3.0279999 6.219 6.94 L 12.59 15.413 L 9.703 19.178 C 8.883 18.52 7.869 18.122 6.769 18.122 C 4.039 18.122 1.8280001 20.518 1.8280001 23.475 C 1.8280001 26.43 4.039 28.825 6.769 28.825 C 9.4939995 28.825 11.707001 26.43 11.707001 23.475 C 11.707001 23.325 11.6970005 23.175001 11.686001 23.03 L 15.0 18.621 L 18.313 23.027 C 18.303 23.173 18.293 23.322 18.293 23.472 C 18.293 26.427 20.505999 28.822 23.230999 28.822 C 25.960999 28.822 28.169998 26.427 28.169998 23.472 C 28.169998 20.517 25.960999 18.121 23.229998 18.121 z M 9.194998 23.971 C 9.184998 24.037 9.171998 24.106 9.157998 24.172 C 9.141998 24.25 9.118999 24.326 9.096998 24.402 C 9.037998 24.597 8.969998 24.787 8.881998 24.959 C 8.449998 25.813 7.668998 26.390999 6.768998 26.390999 C 5.4039984 26.390999 4.2979984 25.084 4.2979984 23.473 C 4.2979984 21.859999 5.4029984 20.555 6.768998 20.555 C 7.545998 20.555 8.231998 20.989 8.6849985 21.653 C 8.764998 21.772 8.836999 21.899 8.903998 22.032999 C 8.911999 22.050999 8.919998 22.068998 8.928998 22.089998 C 8.983998 22.206999 9.032998 22.328 9.073998 22.456999 C 9.093999 22.519999 9.108998 22.581999 9.124998 22.644999 C 9.149998 22.738998 9.175998 22.833998 9.190998 22.933998 C 9.2179985 23.107998 9.237998 23.287998 9.237998 23.472998 C 9.237998 23.642998 9.218998 23.808998 9.194998 23.970997 z M 23.229998 26.390997 C 22.321999 26.390997 21.536997 25.804996 21.106998 24.937998 C 21.024998 24.771997 20.958998 24.593998 20.904 24.411999 C 20.880999 24.331999 20.856998 24.253998 20.841 24.171999 C 20.824999 24.109 20.815 24.039 20.805 23.976 C 20.782 23.812 20.762001 23.646 20.762001 23.476 C 20.762001 23.289 20.782001 23.111 20.809002 22.937 C 20.825003 22.838 20.850002 22.746 20.872002 22.654 C 20.891 22.588 20.904001 22.521 20.925001 22.456999 C 20.966002 22.329998 21.016 22.210999 21.069 22.095999 L 21.098 22.032 C 21.161 21.901 21.234999 21.776 21.314999 21.657 C 21.767998 20.994 22.453999 20.559 23.230999 20.559 C 24.595999 20.559 25.702 21.864 25.702 23.477 C 25.701 25.084 24.596 26.390999 23.23 26.390999 z " fill="#ffffff"/>
</svg>
