<?xml version="1.0" encoding="UTF-8"?>
<svg xmlns="http://www.w3.org/2000/svg" xmlns:xlink="http://www.w3.org/1999/xlink" baseProfile="tiny" contentScriptType="text/ecmascript" contentStyleType="text/css" height="30px" preserveAspectRatio="xMidYMid meet" version="1.1" viewBox="0 0 30 30" width="30px" x="0px" y="0px" zoomAndPan="magnify">
<path d="M 25.5 29.0 C 24.565 29.0 23.687 28.635 23.025 27.975 L 18.633 23.584 C 16.897 24.512 14.966 25.0 13.0 25.0 C 6.383 25.0 1.0 19.617 1.0 13.0 C 1.0 12.172875 1.08411 11.365031 1.244225 10.584572 C 1.40434 9.804113 1.640461 9.051039 1.944484 8.333453 C 2.248508 7.615867 2.620434 6.9337697 3.052158 6.295264 C 3.483883 5.656758 3.975406 5.061844 4.518625 4.518625 C 5.061844 3.9754064 5.656758 3.483883 6.295264 3.052158 C 6.93377 2.6204336 7.615867 2.2485075 8.333453 1.9444844 C 9.051039 1.6404608 9.804113 1.4043398 10.584572 1.2442245 C 10.779687 1.2041955 10.650942 2.331503 10.444367 4.044323 C 10.237797 5.757143 4.995776 7.928357 4.8796015 10.230379 C 4.7634263 12.532401 5.578183 17.380486 6.044483 19.108065 C 6.510784 20.835642 13.365921 20.078308 14.906779 20.067797 C 16.444868 20.057304 19.596289 16.482101 20.038237 14.750584 C 20.259209 13.884825 21.900274 11.891005 21.560904 10.589239 C 21.221537 9.287476 18.6475 6.8981056 18.57387 5.74972 C 18.426607 3.4529483 10.230118 3.450628 10.000578 1.744372 C 9.771038 0.03811601 15.220313 1.2041957 15.415428 1.2442245 C 16.195887 1.4043401 16.94896 1.6404608 17.666548 1.9444844 C 18.384134 2.2485075 19.06623 2.6204336 19.704737 3.052158 C 20.343245 3.483883 20.938156 3.9754064 21.481377 4.518625 C 22.024595 5.0618434 22.51612 5.656758 22.947844 6.2952633 C 23.379568 6.933769 23.751492 7.615867 24.055515 8.333452 C 24.35954 9.051038 24.59566 9.804112 24.755775 10.584571 C 24.915892 11.365031 25.0 12.172875 25.0 13.0 C 25.0 14.965 24.513 16.896 23.584 18.634 L 27.974998 23.024998 C 29.339 24.388 29.339 26.608995 27.974998 27.973995 C 27.313 28.635 26.435 29.0 25.5 29.0 z " fill-opacity="0.15"/>
<path d="M 27.268 22.732 L 22.334 17.798 C 23.384 16.113 24.0 14.131 24.0 12.0 C 24.0 5.924 19.075 1.0 13.0 1.0 C 6.924999 1.0 2.0 5.925 2.0 12.0 C 2.0 18.074 6.925 23.0 13.0 23.0 C 15.131 23.0 17.114 22.383 18.799 21.334 L 23.733 26.268 C 24.71 27.245 26.292 27.245 27.268 26.268 C 28.244 25.291 28.244 23.709 27.268 22.732 z M 13.0 19.5 C 8.864 19.5 5.5 16.135 5.5 12.0 C 5.5 7.864 8.864 4.5 13.0 4.5 C 17.136 4.5 20.5 7.864 20.5 12.0 C 20.5 16.135 17.136 19.5 13.0 19.5 z " fill-opacity="0.3"/>
<path d="M 27.268 23.732 L 22.334 18.798 C 23.384 17.113 24.0 15.131 24.0 13.0 C 24.0 6.924 19.075 2.0 13.0 2.0 C 6.924999 2.0 2.0 6.925 2.0 13.0 C 2.0 19.074 6.925 24.0 13.0 24.0 C 15.131 24.0 17.114 23.383 18.799 22.334 L 23.733 27.268 C 24.71 28.245 26.292 28.245 27.268 27.268 C 28.244 26.291 28.244 24.709 27.268 23.732 z M 13.0 20.5 C 8.864 20.5 5.5 17.135 5.5 13.0 C 5.5 8.864 8.864 5.5 13.0 5.5 C 17.136 5.5 20.5 8.864 20.5 13.0 C 20.5 17.135 17.136 20.5 13.0 20.5 z " fill="#dedede"/>
<rect fill="none" height="30" width="30"/>
</svg>
