<?xml version="1.0" encoding="UTF-8"?>
<svg xmlns="http://www.w3.org/2000/svg" xmlns:xlink="http://www.w3.org/1999/xlink" baseProfile="tiny" contentScriptType="text/ecmascript" contentStyleType="text/css" height="30px" preserveAspectRatio="xMidYMid meet" version="1.1" viewBox="0 0 30 30" width="30px" x="0px" y="0px" zoomAndPan="magnify">
<defs/>
<rect color="#000000" display="inline" fill="#353535" fill-opacity="0.58823529" fill-rule="nonzero" height="27.533897" ry="4.7137108" stroke="none" visibility="visible" width="27.533897" x="1.2330513" y="1.2330513"/>
<path d="M 6.67068 21.187496 C 5.882964 21.187496 5.242797 20.547329 5.242797 19.759613 C 5.242797 18.971897 5.8829646 18.33173 6.67068 18.33173 C 7.458396 18.33173 8.098563 18.971897 8.098563 19.759613 C 8.098563 20.547329 7.4583955 21.187496 6.67068 21.187496 z M 6.67068 16.427887 C 5.882964 16.427887 5.242797 15.786529 5.242797 15.000003 C 5.242797 14.213477 5.8829646 13.57212 6.67068 13.57212 C 7.458396 13.57212 8.098563 14.213477 8.098563 15.000003 C 8.098563 15.786529 7.4583955 16.427887 6.67068 16.427887 z M 6.67068 11.668275 C 5.882964 11.668273 5.242797 11.026915 5.242797 10.240389 C 5.242797 9.453863 5.8829646 8.812506 6.67068 8.812506 C 7.458397 8.812506 8.098563 9.452673 8.098563 10.240389 C 8.098563 11.028105 7.4583955 11.668273 6.67068 11.668275 z M 23.329319 21.187496 L 11.430292 21.187496 C 10.642576 21.187496 10.002408 20.547329 10.002408 19.759613 C 10.002408 18.971897 10.642576 18.33173 11.430292 18.33173 L 23.329319 18.33173 C 24.117035 18.33173 24.757202 18.971897 24.757202 19.759613 C 24.757202 20.547329 24.117035 21.187496 23.329319 21.187496 z M 23.329319 16.427887 L 11.430292 16.427887 C 10.642576 16.427887 10.002408 15.786529 10.002408 15.000003 C 10.002408 14.213477 10.642576 13.57212 11.430292 13.57212 L 23.329319 13.57212 C 24.117035 13.57212 24.757202 14.213477 24.757202 15.000003 C 24.757202 15.786529 24.117035 16.427887 23.329319 16.427887 z M 23.329319 11.668275 L 11.430292 11.668275 C 10.642576 11.668275 10.002408 11.026917 10.002408 10.240392 C 10.002408 9.453866 10.642576 8.812508 11.430292 8.812508 L 23.329319 8.812508 C 24.117035 8.812508 24.757202 9.453865 24.757202 10.240391 C 24.757202 11.0269165 24.117035 11.668274 23.329319 11.668274 z " fill="#ffffff"/>
<rect fill="none" height="30" width="30"/>
</svg>
