<?xml version="1.0" encoding="UTF-8"?>
<svg xmlns="http://www.w3.org/2000/svg" xmlns:xlink="http://www.w3.org/1999/xlink" baseProfile="tiny" contentScriptType="text/ecmascript" contentStyleType="text/css" height="30px" preserveAspectRatio="xMidYMid meet" version="1.1" viewBox="0 0 30 30" width="30px" x="0px" y="0px" zoomAndPan="magnify">
<path d="M 5.0 27.033895 C 3.346 27.033895 2.0 25.54872 2.0 23.723694 C 2.0 21.89867 3.346 20.413494 5.0 20.413494 L 25.0 20.413494 C 26.654 20.413494 28.0 21.89867 28.0 23.723694 C 28.0 25.54872 26.654 27.033895 25.0 27.033895 z M 5.0 18.3102 C 3.346 18.3102 2.0 16.825024 2.0 15.0 C 2.0 13.174978 3.346 11.689801 5.0 11.689801 L 25.0 11.689801 C 26.654 11.689801 28.0 13.174978 28.0 15.0 C 28.0 16.825024 26.654 18.3102 25.0 18.3102 z M 5.0 9.586297 C 3.346 9.586297 2.0 8.10112 2.0 6.276097 C 2.0 4.451073 3.346 2.965897 5.0 2.965897 L 25.0 2.965897 C 26.654 2.965897 28.0 4.4510736 28.0 6.2760973 C 28.0 8.101121 26.654 9.586297 25.0 9.586297 z " fill-opacity="0.15" stroke-opacity="0.15"/>
<path d="M 5.0 7.335583 L 25.0 7.335583 C 26.1 7.335583 27.0 6.3525333 27.0 5.151027 C 27.0 3.9495225 26.1 2.966472 25.0 2.966472 L 5.0 2.966472 C 3.9 2.966472 3.0 3.9495225 3.0 5.1510277 C 3.0 6.352534 3.9 7.335583 5.0 7.335583 z M 25.0 11.612445 L 5.0 11.612445 C 3.9 11.612445 3.0 12.596587 3.0 13.797001 C 3.0 14.997414 3.9 15.981556 5.0 15.981556 L 25.0 15.981556 C 26.1 15.981556 27.0 14.998506 27.0 13.797 C 27.0 12.595495 26.099 11.612445 25.0 11.612445 z M 25.0 20.258003 L 5.0 20.258003 C 3.9 20.258003 3.0 21.241056 3.0 22.44256 C 3.0 23.644066 3.9 24.627111 5.0 24.627111 L 25.0 24.627111 C 26.1 24.627111 27.0 23.644064 27.0 22.442558 C 27.0 21.241053 26.099 20.258 25.0 20.258 z " fill-opacity="0.3" stroke-opacity="0.3"/>
<path d="M 5.0 8.538584 L 25.0 8.538584 C 26.1 8.538584 27.0 7.5555334 27.0 6.3540277 C 27.0 5.1525226 26.1 4.1694727 25.0 4.1694727 L 5.0 4.1694727 C 3.9 4.1694727 3.0 5.152522 3.0 6.3540277 C 3.0 7.5555334 3.9 8.538584 5.0 8.538584 z M 25.0 12.815444 L 5.0 12.815444 C 3.9 12.815444 3.0 13.798494 3.0 15.0 C 3.0 16.200413 3.9 17.184555 5.0 17.184555 L 25.0 17.184555 C 26.1 17.184555 27.0 16.201506 27.0 14.999999 C 27.0 13.799586 26.099 12.815443 25.0 12.815443 z M 25.0 21.461395 L 5.0 21.461395 C 3.9 21.461395 3.0 22.444448 3.0 23.645952 C 3.0 24.847458 3.9 25.83051 5.0 25.83051 L 25.0 25.83051 C 26.1 25.83051 27.0 24.847458 27.0 23.645952 C 27.0 22.444448 26.099 21.461395 25.0 21.461395 z " fill="#dedede"/>
<rect fill="none" height="30" width="30"/>
</svg>
