<?xml version="1.0" encoding="UTF-8"?>
<svg xmlns="http://www.w3.org/2000/svg" xmlns:xlink="http://www.w3.org/1999/xlink" baseProfile="tiny" contentScriptType="text/ecmascript" contentStyleType="text/css" height="30px" preserveAspectRatio="xMidYMid meet" version="1.1" viewBox="0 0 30 30" width="30px" x="0px" y="0px" zoomAndPan="magnify">
<path color="#000000" d="M 19.1875 7.375 C 14.794102 7.375 7.876096 15.3125 7.876096 15.3125 C 7.876096 15.3125 14.794101 23.28125 19.1875 23.28125 C 23.580898 23.28125 27.15625 19.705898 27.15625 15.3125 C 27.15625 10.919102 23.580898 7.375 19.1875 7.375 z " display="inline" fill="none" stroke="#000000" stroke-dasharray="none" stroke-linecap="round" stroke-linejoin="round" stroke-miterlimit="4" stroke-opacity="0.3137255" stroke-width="3.16488433" transform="matrix(0.94790192,0,0,0.94790192,0.74829047,0.46477053)" visibility="visible"/>
<path d="M 16.338306 10.084978 C 16.15592 10.104968 15.985542 10.185671 15.854537 10.314132 L 14.683307 11.485362 C 14.525518 11.639352 14.436547 11.8505 14.436547 12.070977 C 14.436547 12.291453 14.525517 12.502603 14.683307 12.656592 L 16.796612 14.744437 L 14.683306 16.832285 C 14.525517 16.986277 14.436546 17.19742 14.436546 17.417898 C 14.436546 17.638376 14.5255165 17.849522 14.683306 18.003511 L 15.854536 19.174744 C 16.008526 19.332533 16.219675 19.421503 16.440151 19.421503 C 16.660627 19.421503 16.871777 19.332533 17.025766 19.174744 L 19.113611 17.061436 L 21.201456 19.174744 C 21.355448 19.332533 21.566591 19.421503 21.787071 19.421503 C 22.007547 19.421503 22.218697 19.332533 22.372686 19.174744 L 23.543917 18.003511 C 23.701704 17.849522 23.790676 17.638376 23.790676 17.417898 C 23.790676 17.197422 23.701706 16.986277 23.543917 16.832285 L 21.43061 14.744438 L 23.54392 12.656593 C 23.701706 12.502604 23.790678 12.291454 23.790678 12.070978 C 23.790678 11.850501 23.701708 11.639353 23.54392 11.485363 L 22.372688 10.314133 C 22.218697 10.156344 22.007551 10.067373 21.787071 10.067373 C 21.566595 10.067373 21.35545 10.156343 21.201458 10.314133 L 19.113611 12.427439 L 17.025768 10.314133 C 16.84477 10.134913 16.590637 10.050202 16.338306 10.084979 z " fill="#0b0b0b" fill-opacity="0.31372549"/>
<path color="#000000" d="M 27.145708 15.326036 C 27.145708 19.719437 23.584156 23.28099 19.190758 23.28099 C 14.797359 23.28099 7.878704 15.326037 7.878704 15.326037 C 7.878704 15.326037 14.797359 7.371088 19.190758 7.371088 C 23.584156 7.371088 27.145708 10.93264 27.145708 15.326037 z " display="inline" fill="none" stroke="#dedede" stroke-dasharray="none" stroke-linecap="round" stroke-linejoin="round" stroke-miterlimit="4" stroke-opacity="1" stroke-width="2.10992289" transform="matrix(0.94790192,0,0,0.94790192,0.74829047,0.46477053)" visibility="visible"/>
<path d="M 21.937431 10.870481 L 19.254396 13.5527 L 16.571363 10.8704815 L 15.419278 12.022566 L 18.101498 14.705599 L 15.418465 17.388634 L 16.570549 18.540718 L 19.253582 15.857683 L 21.936617 18.540716 L 23.0887 17.388632 L 20.40648 14.705599 L 23.089516 12.02338 z " fill="#dedede"/>
<rect fill="none" height="30" width="30"/>
</svg>
