<?xml version="1.0" encoding="UTF-8"?>
<svg xmlns="http://www.w3.org/2000/svg" xmlns:xlink="http://www.w3.org/1999/xlink" baseProfile="tiny" contentScriptType="text/ecmascript" contentStyleType="text/css" height="30px" preserveAspectRatio="xMidYMid meet" version="1.1" viewBox="0 0 30 30" width="30px" x="0px" y="0px" zoomAndPan="magnify">
<g>
<rect fill="none" height="30" width="30"/>
</g>
<rect fill="none" height="30.002" width="30" y="-0.001"/>
<path d="M 6.837 6.5 L 6.603 6.503 L 7.603 6.4989996 L 0.501 6.4989996 L 1.444 8.025 C 1.918 8.790999 2.35 9.733999 2.731 10.827999 L 2.932 11.405999 L 3.0449998 11.784999 C 3.307 12.6589985 3.539 13.635999 3.738 14.685999 L 3.847 15.252999 L 3.91 15.658999 C 4.056 16.564999 4.1759996 17.55 4.264 18.585 L 4.301 19.009 L 4.336 19.564 C 4.402 20.611 4.436 21.57 4.436 22.5 L 4.436 23.5 L 6.5959997 23.5 L 6.5959997 23.15 C 6.899 23.369 7.266 23.5 7.664 23.5 L 27.663 23.5 C 28.673 23.5 29.495 22.68 29.495 21.668 L 29.495 6.5 L 6.837 6.5 z " fill-opacity="0.15"/>
<path d="M 27.412 6.503 L 8.212 6.503 C 7.774 6.503 7.414 6.863 7.414 7.303 L 7.414 20.905 C 7.414 21.343 7.774 21.704 8.212 21.704 L 27.412 21.704 C 27.853 21.704 28.213 21.343 28.213 20.905 L 28.213 7.303 C 28.213 6.863 27.854 6.503 27.412 6.503 z M 15.779 18.988 C 14.519 19.320002 13.652 19.308 13.065001 19.301 C 12.477 19.311 11.608001 19.321 10.347 18.988 C 9.832 18.855 9.389 18.677 9.014 18.461 L 9.024 18.406 C 9.116 18.033 9.561 17.808 9.561 17.808 C 10.221 17.417 10.877 17.16 10.877 17.16 C 11.594 16.869 11.712 16.271 11.734 16.183 C 11.791 15.954 11.843 15.712001 11.759 15.630001 C 11.349999 15.274001 11.191999 14.424001 11.191999 14.424001 C 11.181 14.400001 11.174999 14.375001 11.165999 14.354001 C 10.962999 14.547001 10.91 13.931001 10.837 13.709002 C 10.72 13.323002 10.749 13.234001 10.749 13.234001 C 10.731 12.944001 10.941999 13.044002 10.941999 13.044002 L 10.959 13.066002 C 10.808 12.658002 10.759 12.4400015 10.771 12.145002 C 10.788 11.589003 10.588 11.328002 11.125 10.461002 C 11.125 10.461002 11.204 10.320003 11.385 10.313003 C 11.565001 10.304003 11.501 10.2090025 11.565001 10.090003 C 11.629001 9.970003 11.675 9.836003 12.003 9.876003 C 12.335 9.917004 12.478001 9.505003 13.47 9.8270035 C 14.466001 10.152003 14.704 10.197003 14.878 10.460004 C 15.439 11.312004 15.306001 11.513004 15.302 12.071004 C 15.302 12.431004 15.188 12.675004 15.156 13.076004 L 15.173 13.055004 C 15.173 13.055004 15.389 12.973004 15.354 13.258004 C 15.354 13.258004 15.318 13.444004 15.23 13.726005 C 15.150001 13.994004 15.046 14.579004 14.845 14.329004 C 14.834001 14.360004 14.824 14.392004 14.814 14.425004 C 14.814 14.425004 14.652 15.275004 14.245 15.631004 C 14.163 15.713004 14.215 15.955005 14.27 16.184004 C 14.290999 16.260004 14.495 16.760004 14.900999 17.036003 C 14.972999 17.087004 15.053999 17.126003 15.145999 17.161003 C 15.145999 17.161003 15.801999 17.419004 16.461998 17.809004 C 16.461998 17.809004 16.905 18.034004 16.996998 18.407003 L 17.016998 18.507004 C 16.664 18.701 16.258 18.863 15.779 18.988 z M 25.813 18.504 L 19.415 18.504 C 18.974 18.504 18.616 18.149 18.616 17.703 C 18.616 17.259998 18.973 16.904 19.415 16.904 L 25.813 16.904 C 26.254 16.904 26.616 17.259 26.616 17.703 C 26.615 18.148 26.254 18.504 25.813 18.504 z M 25.813 15.306 L 19.415 15.306 C 18.974 15.306 18.616 14.946 18.616 14.504 C 18.616 14.061 18.973 13.705 19.415 13.705 L 25.813 13.705 C 26.254 13.705 26.616 14.061 26.616 14.504 C 26.615 14.946 26.254 15.306 25.813 15.306 z M 25.813 12.103 L 19.415 12.103 C 18.974 12.103 18.616 11.745 18.616 11.304 C 18.616 10.863 18.973 10.505 19.415 10.505 L 25.813 10.505 C 26.254 10.505 26.616 10.863 26.616 11.304 C 26.616 11.745 26.254 12.103 25.813 12.103 z " fill-opacity="0.3"/>
<path d="M 27.412 7.303 L 8.212 7.303 C 7.774 7.303 7.414 7.663 7.414 8.102 L 7.414 21.704 C 7.414 22.145 7.774 22.505 8.212 22.505 L 27.412 22.505 C 27.853 22.505 28.213 22.146002 28.213 21.704 L 28.213 8.102 C 28.213 7.663 27.854 7.303 27.412 7.303 z M 15.779 19.791 C 14.519 20.119 13.652 20.111 13.065001 20.1 C 12.477 20.114 11.608001 20.12 10.347 19.791 C 9.832 19.652 9.389 19.478 9.014 19.262 L 9.024 19.207 C 9.116 18.834002 9.561 18.611 9.561 18.611 C 10.221 18.22 10.877 17.963 10.877 17.963 C 11.594 17.67 11.712 17.072 11.734 16.984 C 11.791 16.751999 11.843 16.508999 11.759 16.432999 C 11.349999 16.075998 11.191999 15.223999 11.191999 15.223999 C 11.181 15.202999 11.174999 15.178999 11.165999 15.153999 C 10.962999 15.348999 10.91 14.731999 10.837 14.508999 C 10.72 14.123999 10.749 14.0339985 10.749 14.0339985 C 10.731 13.745998 10.941999 13.845999 10.941999 13.845999 L 10.959 13.866999 C 10.808 13.458999 10.759 13.239999 10.771 12.943998 C 10.788 12.387999 10.588 12.128999 11.125 11.259998 C 11.125 11.259998 11.204 11.119998 11.385 11.112998 C 11.565001 11.104998 11.501 11.008998 11.565001 10.890998 C 11.629001 10.769998 11.675 10.637998 12.003 10.677998 C 12.335 10.716997 12.478001 10.303998 13.47 10.627997 C 14.466001 10.952997 14.704 10.996998 14.878 11.259997 C 15.439 12.110997 15.306001 12.312998 15.302 12.872997 C 15.302 13.230997 15.188 13.474998 15.156 13.874997 L 15.173 13.856998 C 15.173 13.856998 15.389 13.772998 15.354 14.058997 C 15.354 14.058997 15.318 14.242997 15.23 14.527997 C 15.150001 14.793997 15.046 15.379997 14.845 15.127997 C 14.834001 15.162997 14.824 15.190997 14.814 15.223997 C 14.814 15.223997 14.652 16.075996 14.245 16.432997 C 14.163 16.510996 14.215 16.750998 14.27 16.983995 C 14.290999 17.057997 14.495 17.557997 14.900999 17.837996 C 14.972999 17.884998 15.053999 17.925997 15.145999 17.962996 C 15.145999 17.962996 15.801999 18.218998 16.461998 18.610998 C 16.461998 18.610998 16.905 18.833998 16.996998 19.207 L 17.016998 19.307 C 16.664 19.504 16.258 19.666 15.779 19.791 z M 25.813 19.307 L 19.415 19.307 C 18.974 19.307 18.616 18.946 18.616 18.504 C 18.616 18.062 18.973 17.703 19.415 17.703 L 25.813 17.703 C 26.254 17.703 26.616 18.061998 26.616 18.504 C 26.616 18.946 26.254 19.307 25.813 19.307 z M 25.813 16.104 L 19.415 16.104 C 18.974 16.104 18.616 15.749001 18.616 15.307 C 18.616 14.862 18.973 14.505 19.415 14.505 L 25.813 14.505 C 26.254 14.505 26.616 14.862 26.616 15.307 C 26.615 15.748 26.254 16.104 25.813 16.104 z M 25.813 12.903 L 19.415 12.903 C 18.974 12.903 18.616 12.547 18.616 12.103 C 18.616 11.662 18.973 11.304 19.415 11.304 L 25.813 11.304 C 26.254 11.304 26.616 11.662 26.616 12.103 C 26.615 12.547 26.254 12.903 25.813 12.903 z " fill="#dedede"/>
<path d="M 3.677 9.5 L 6.603 9.5 L 6.603 6.5 L 2.295 6.5 C 2.806 7.326 3.271 8.333 3.677 9.5 z " fill-opacity="0.2"/>
<path d="M 4.724 13.5 L 6.6029997 13.5 L 6.6029997 10.5 L 4.005 10.5 C 4.281 11.424 4.521 12.431 4.724 13.5 z " fill-opacity="0.2"/>
<path d="M 5.267 17.5 L 6.603 17.5 L 6.603 14.5 L 4.902 14.5 C 5.056 15.458 5.176 16.463 5.267 17.5 z " fill-opacity="0.2"/>
<path d="M 5.441 21.5 L 6.601 21.5 L 6.601 18.5 L 5.34 18.5 C 5.402 19.477 5.441 20.475 5.441 21.5 z " fill-opacity="0.2"/>
<path d="M 3.677 10.5 L 6.603 10.5 L 6.603 7.5 L 2.295 7.5 C 2.806 8.326 3.271 9.333 3.677 10.5 z " fill="#dedede"/>
<path d="M 4.724 14.5 L 6.6029997 14.5 L 6.6029997 11.5 L 4.005 11.5 C 4.281 12.424 4.521 13.431 4.724 14.5 z " fill="#dedede"/>
<path d="M 5.267 18.5 L 6.603 18.5 L 6.603 15.5 L 4.902 15.5 C 5.056 16.457 5.176 17.463 5.267 18.5 z " fill="#dedede"/>
<path d="M 5.441 22.5 L 6.601 22.5 L 6.601 19.5 L 5.34 19.5 C 5.402 20.477 5.441 21.475 5.441 22.5 z " fill="#dedede"/>
</svg>
