<?xml version="1.0" encoding="UTF-8"?>
<svg xmlns="http://www.w3.org/2000/svg" xmlns:xlink="http://www.w3.org/1999/xlink" baseProfile="tiny" contentScriptType="text/ecmascript" contentStyleType="text/css" height="30px" preserveAspectRatio="xMidYMid meet" version="1.1" viewBox="0 0 30 30" width="30px" x="0px" y="0px" zoomAndPan="magnify">
<path d="M 7.0 26.0 L 23.0 26.0 L 24.0 7.0 L 6.0 7.0 L 7.0 26.0 z M 18.0 11.0 C 18.0 10.4470005 18.447 10.0 19.0 10.0 C 19.553 10.0 20.0 10.447 20.0 11.0 L 20.0 21.0 C 20.0 21.553 19.553 22.0 19.0 22.0 C 18.447 22.0 18.0 21.553 18.0 21.0 L 18.0 11.0 z M 14.0 11.0 C 14.0 10.4470005 14.447 10.0 15.0 10.0 C 15.553 10.0 16.0 10.447 16.0 11.0 L 16.0 21.0 C 16.0 21.553 15.553 22.0 15.0 22.0 C 14.447 22.0 14.0 21.553 14.0 21.0 L 14.0 11.0 z M 10.0 11.0 C 10.0 10.4470005 10.447 10.0 11.0 10.0 C 11.553 10.0 12.0 10.447 12.0 11.0 L 12.0 21.0 C 12.0 21.553 11.553 22.0 11.0 22.0 C 10.447 22.0 10.0 21.553 10.0 21.0 L 10.0 11.0 z M 24.0 3.0 L 18.5 3.0 L 18.5 2.0 C 18.5 1.174 17.827 0.5 17.0 0.5 L 13.0 0.5 C 12.173 0.5 11.5 1.174 11.5 2.0 L 11.5 3.0 L 6.0 3.0 C 5.447 3.0 5.0 3.448 5.0 4.0 L 5.0 5.0 L 25.0 5.0 L 25.0 4.0 C 25.0 3.448 24.551 3.0 24.0 3.0 z M 17.0 3.0 L 13.0 3.0 L 13.0 2.0 L 17.0 2.0 L 17.0 3.0 z " fill-opacity="0.3" stroke-opacity="0.3"/>
<path d="M 24.0 3.0 L 19.5 3.0 C 19.5 1.621 18.379 0.5 17.0 0.5 L 13.0 0.5 C 11.621 0.5 10.5 1.621 10.5 3.0 L 6.0 3.0 C 4.897 3.0 4.0 3.897 4.0 5.0 L 4.0 6.0 C 4.0 6.553 4.447 7.0 5.0 7.0 L 6.0 7.0 C 5.726 7.0 5.463 7.112 5.274 7.312 C 5.0850005 7.512 4.987 7.778 5.001 8.053 L 6.001 27.053 C 6.029 27.584 6.468 28.0 7.0 28.0 L 23.0 28.0 C 23.532 28.0 23.971 27.584 23.999 27.053 L 24.999 8.053 C 25.013 7.7789993 24.914 7.511 24.726 7.3119993 C 24.537998 7.112999 24.274 7.0 24.0 7.0 L 25.0 7.0 C 25.553 7.0 26.0 6.553 26.0 6.0 L 26.0 5.0 C 26.0 3.897 25.103 3.0 24.0 3.0 z " fill-opacity="0.15" stroke-opacity="0.15"/>
<path d="M 7.0 27.0 L 23.0 27.0 L 24.0 8.0 L 6.0 8.0 z M 24.0 4.0 L 18.5 4.0 L 18.5 3.0 C 18.5 2.174 17.827 1.5 17.0 1.5 L 13.0 1.5 C 12.173 1.5 11.5 2.174 11.5 3.0 L 11.5 4.0 L 6.0 4.0 C 5.447 4.0 5.0 4.448 5.0 5.0 L 5.0 6.0 L 25.0 6.0 L 25.0 5.0 C 25.0 4.448 24.551 4.0 24.0 4.0 z M 17.0 4.0 L 13.0 4.0 L 13.0 3.0 L 17.0 3.0 z " fill="#dedede"/>
<rect fill="none" height="30" width="30"/>
</svg>
