<?xml version="1.0" encoding="UTF-8"?>
<svg xmlns="http://www.w3.org/2000/svg" xmlns:xlink="http://www.w3.org/1999/xlink" baseProfile="tiny" contentScriptType="text/ecmascript" contentStyleType="text/css" height="30px" preserveAspectRatio="xMidYMid meet" version="1.1" viewBox="0 0 30 30" width="30px" x="0px" y="0px" zoomAndPan="magnify">
<rect fill="none" height="30" width="30"/>
<path d="M 17.5 28.0 C 16.947 28.0 16.5 27.553 16.5 27.0 L 16.5 22.0 L 13.5 22.0 L 13.5 27.0 C 13.5 27.553 13.053 28.0 12.5 28.0 L 7.0 28.0 C 5.897 28.0 5.0 27.103 5.0 26.0 L 5.0 18.914 L 4.457 19.456999 C 4.262 19.652 4.006 19.75 3.75 19.75 C 3.494 19.75 3.238 19.652 3.043 19.457 L 1.293 17.707 C 0.90199995 17.316 0.90199995 16.684 1.293 16.293001 L 5.0 12.586 L 5.0 7.0 C 5.0 6.447 5.447 6.0 6.0 6.0 L 9.0 6.0 C 9.5529995 6.0 10.0 6.447 10.0 7.0 L 10.0 7.586 L 14.292 3.2929997 C 14.488 3.098 14.744 3.0 15.0 3.0 C 15.256 3.0 15.512 3.098 15.707 3.293 L 28.707 16.293 C 29.098001 16.684 29.098001 17.316 28.707 17.706999 L 26.957 19.456999 C 26.762001 19.651999 26.506 19.749998 26.25 19.749998 C 25.994 19.749998 25.738 19.651999 25.543 19.456999 L 25.0 18.914 L 25.0 26.0 C 25.0 27.103 24.104 28.0 23.0 28.0 L 17.5 28.0 z " fill-opacity="0.15"/>
<path d="M 6.0 17.621 L 6.0 25.0 C 6.0 25.553 6.447 26.0 7.0 26.0 L 12.5 26.0 L 12.5 20.0 L 17.5 20.0 L 17.5 26.0 L 23.0 26.0 C 23.553 26.0 24.0 25.553 24.0 25.0 L 24.0 17.621 L 15.0 8.621 L 6.0 17.621 z M 15.0 3.0 L 9.0 9.0 L 9.0 6.0 L 6.0 6.0 L 6.0 12.0 L 2.0 16.0 L 3.75 17.75 L 15.0 6.5 L 26.25 17.75 L 28.0 16.0 L 15.0 3.0 z " fill-opacity="0.3"/>
<path d="M 6.0 18.621 L 6.0 26.0 C 6.0 26.553 6.447 27.0 7.0 27.0 L 12.5 27.0 L 12.5 21.0 L 17.5 21.0 L 17.5 27.0 L 23.0 27.0 C 23.553 27.0 24.0 26.553 24.0 26.0 L 24.0 18.621 L 15.0 9.621 L 6.0 18.621 z M 15.0 4.0 L 9.0 10.0 L 9.0 7.0 L 6.0 7.0 L 6.0 13.0 L 2.0 17.0 L 3.75 18.75 L 15.0 7.5 L 26.25 18.75 L 28.0 17.0 L 15.0 4.0 z " fill="#dedede"/>
</svg>
