<?xml version="1.0" encoding="UTF-8"?>
<svg xmlns="http://www.w3.org/2000/svg" xmlns:xlink="http://www.w3.org/1999/xlink" baseProfile="tiny" contentScriptType="text/ecmascript" contentStyleType="text/css" height="70px" preserveAspectRatio="xMidYMid meet" version="1.1" viewBox="0 0 70 70" width="70px" x="0px" y="0px" zoomAndPan="magnify">
<rect color="#000000" display="inline" fill="#646464" fill-opacity="0.58823532" fill-rule="nonzero" height="48" ry="8.2174387" stroke="none" visibility="visible" width="48" x="11" y="11"/>
<path d="M 51.817585 24.429668 L 49.51544 24.429668 L 50.666214 22.436045 C 50.860016 22.099146 50.745304 21.668663 50.407196 21.473648 C 50.070297 21.279238 49.639816 21.395159 49.444195 21.73206 L 48.295235 23.725681 L 47.14447 21.73206 C 46.94885 21.393951 46.518368 21.279238 46.182068 21.473648 C 45.844563 21.66806 45.729244 22.099148 45.923656 22.436045 L 47.074425 24.429667 L 44.772278 24.429667 C 44.382248 24.429667 44.06829 24.744831 44.06829 25.134258 C 44.06829 25.523685 44.38285 25.83885 44.772278 25.83885 L 47.074425 25.83885 L 45.923656 27.832474 C 45.729244 28.16937 45.844555 28.599854 46.182068 28.794868 C 46.293156 28.85826 46.41391 28.88906 46.53346 28.88906 C 46.776173 28.88906 47.013447 28.762268 47.144466 28.53646 L 48.295235 26.542837 L 49.446003 28.53646 C 49.577023 28.76287 49.81249 28.88906 50.057014 28.88906 C 50.175953 28.88906 50.29731 28.858269 50.408405 28.794868 C 50.745907 28.600456 50.86123 28.16937 50.666817 27.832474 L 49.51605 25.83885 L 51.81819 25.83885 C 52.20822 25.83885 52.52218 25.523685 52.52218 25.134258 C 52.52218 24.744831 52.207016 24.429667 51.81759 24.429667 z " fill="#fa664b"/>
<defs>
<linearGradient gradientUnits="userSpaceOnUse" x1="35.0015" x2="35.0015" xlink:actuate="onLoad" xlink:show="other" xlink:type="simple" y1="54" y2="16.0005">
<stop offset="0" stop-color="#d0cbc5"/>
<stop offset="0.5031" stop-color="#fafcef"/>
<stop offset="0.9693" stop-color="#ffffff"/>
<stop offset="1" stop-color="#ffffff"/>
</linearGradient>
<linearGradient gradientUnits="userSpaceOnUse" id="linearGradient3873" x1="48.095646" x2="48.095646" y1="28.576271" y2="67.175903">
<stop offset="0" stop-color="#fcfcfc" stop-opacity="1"/>
<stop offset="1" stop-color="#fcfcfc" stop-opacity="0.78431374"/>
</linearGradient>
<linearGradient gradientTransform="matrix(0.57962,0,0,0.57962,11.260244,4.0746601)" gradientUnits="userSpaceOnUse" id="linearGradient3873" x1="48.095646" x2="48.095646" y1="28.576271" y2="67.175903">
<stop offset="0" stop-color="#fcfcfc" stop-opacity="1"/>
<stop offset="1" stop-color="#fcfcfc" stop-opacity="0.78431374"/>
</linearGradient>
</defs>
<path color="#000000" d="M 43.03125 25.0625 C 40.743305 23.904062 38.16542 23.0625 35.21875 23.0625 C 27.217587 23.0625 20.71875 28.049038 20.71875 34.1875 C 20.71875 37.41557 22.510494 40.31317 25.375 42.34375 L 24.34375 45.625 L 29.03125 44.5625 L 29.625 44.4375 C 31.345074 44.98989 33.237385 45.28125 35.21875 45.28125 C 43.219913 45.28125 49.71875 40.32596 49.71875 34.1875 C 49.71875 32.355957 48.99197 30.678883 47.96875 29.15625 C 47.805267 29.393824 47.604153 29.594643 47.375 29.71875 C 47.10871 29.86297 46.824375 29.9375 46.53125 29.9375 C 46.232162 29.9375 45.90988 29.83223 45.65625 29.6875 C 45.25847 29.45766 44.986767 29.084778 44.875 28.65625 C 44.742584 27.997374 44.98767 27.479574 45.21875 26.90625 L 44.78125 26.90625 C 44.28761 26.90625 43.853153 26.696901 43.53125 26.375 C 43.209347 26.053099 43.0 25.618643 43.0 25.125 C 43.0 25.09968 43.03014 25.08752 43.03125 25.0625 z " display="inline" fill="#ffffff" fill-opacity="1" fill-rule="nonzero" stroke="none" visibility="visible"/>
</svg>
