<?xml version="1.0" encoding="UTF-8"?>
<svg xmlns="http://www.w3.org/2000/svg" xmlns:xlink="http://www.w3.org/1999/xlink" baseProfile="tiny" contentScriptType="text/ecmascript" contentStyleType="text/css" height="30px" preserveAspectRatio="xMidYMid meet" version="1.1" viewBox="-0.002 0 30 30" width="30px" x="0px" y="0px" zoomAndPan="magnify">
<path d="M 1.623 18.927 C 1.743 18.976 1.871 19.0 1.998 19.0 C 2.263 19.0 2.522 18.895 2.7150002 18.697 L 6.715 14.586 C 6.8970003 14.399 6.998 14.149 6.998 13.889 L 6.998 12.0 C 6.998 11.468 7.466 11.0 7.998 11.0 L 22.998001 11.0 L 22.998001 12.0 C 22.998001 12.404 23.241001 12.77 23.615002 12.924 C 23.739 12.976 23.869 13.0 23.998 13.0 C 24.258 13.0 24.514 12.898 24.705 12.707 L 28.705 8.707 C 29.096 8.316 29.096 7.684 28.705 7.2929997 L 24.705 3.2929997 C 24.514 3.102 24.258 3.0 23.998 3.0 C 23.869 3.0 23.738998 3.024 23.615 3.076 C 23.241 3.23 22.998 3.596 22.998 4.0 L 22.998 5.0 L 7.997999 5.0 C 4.138999 5.0 0.9979992 8.141 0.9979992 12.0 L 0.9979992 18.0 C 0.998 18.407 1.245 18.773 1.623 18.927 z " fill-opacity="0.15" stroke-opacity="0.15"/>
<path d="M 28.375 11.073 C 28.253 11.024 28.125 11.0 27.998 11.0 C 27.733 11.0 27.473999 11.105 27.280998 11.303 L 23.280998 15.4140005 C 23.098999 15.601001 22.997997 15.851001 22.997997 16.111 L 22.997997 15.0 C 22.997997 14.4470005 22.550997 14.0 21.997997 14.0 L 19.997997 14.0 C 19.842997 14.0 19.688997 14.036 19.550997 14.105 L 15.550997 16.105 C 15.211997 16.275 14.997997 16.621 14.997997 17.0 L 14.997997 18.5 C 14.997997 18.679 15.049997 18.85 15.137998 19.0 L 6.9979973 19.0 L 6.9979973 18.0 C 6.9979973 17.596 6.7549973 17.23 6.380997 17.076 C 6.257 17.024 6.127 17.0 5.998 17.0 C 5.738 17.0 5.4820004 17.102 5.2910004 17.293 L 1.2910004 21.293 C 0.90000033 21.684 0.90000033 22.316 1.2910004 22.706999 L 5.2910004 26.706999 C 5.482 26.898 5.738 27.0 5.998 27.0 C 6.1270003 27.0 6.257 26.976 6.381 26.924 C 6.755 26.77 6.998 26.404 6.998 26.0 L 6.998 25.0 L 17.998001 25.0 L 17.998001 27.0 C 17.998001 27.553 18.445002 28.0 18.998001 28.0 L 21.998001 28.0 C 22.551 28.0 22.998001 27.553 22.998001 27.0 L 22.998001 24.92 C 26.385002 24.432 28.998001 21.519001 28.998001 18.0 L 28.998001 12.0 C 28.998 11.593 28.751 11.227 28.375 11.073 z " fill-opacity="0.15" stroke-opacity="0.15"/>
<rect fill="none" height="30" width="30"/>
<path d="M 5.998 11.0 C 5.998 9.916 6.914 9.0 7.998 9.0 L 23.998001 9.0 L 23.998001 11.0 L 27.998001 7.0 L 23.998001 3.0 L 23.998001 5.0 L 7.998001 5.0 C 4.698001 5.0 1.9980011 7.7 1.9980011 11.0 L 1.9980011 17.0 L 5.998001 12.889 L 5.998001 11.0 z M 5.998 17.0 L 1.9980001 21.0 L 5.998 25.0 L 5.998 23.0 L 17.998001 23.0 L 17.998001 19.0 L 5.998001 19.0 L 5.998001 17.0 z M 23.998 17.0 C 23.998 17.721 23.588 18.361 22.998 18.713 L 22.998 22.909 C 25.824999 22.429 27.998 19.959 27.998 17.0 L 27.998 11.0 L 23.998 15.111 L 23.998 17.0 z M 15.998 16.0 L 15.998 17.5 L 18.998001 16.5 L 18.998001 26.0 L 21.998001 26.0 L 21.998001 14.0 L 19.998001 14.0 L 15.998 16.0 z " fill-opacity="0.3" stroke-opacity="0.3"/>
<path d="M 5.998 12.0 C 5.998 10.916 6.914 10.0 7.998 10.0 L 23.998001 10.0 L 23.998001 12.0 L 27.998001 8.0 L 23.998001 4.0 L 23.998001 6.0 L 7.998001 6.0 C 4.698001 6.0 1.9980011 8.7 1.9980011 12.0 L 1.9980011 18.0 L 5.998001 13.889 L 5.998001 12.0 z M 5.998 18.0 L 1.9980001 22.0 L 5.998 26.0 L 5.998 24.0 L 17.998001 24.0 L 17.998001 20.0 L 5.998001 20.0 L 5.998001 18.0 z M 23.998 18.0 C 23.998 18.721 23.588 19.361 22.998 19.713 L 22.998 23.909 C 25.824999 23.429 27.998 20.959 27.998 18.0 L 27.998 12.0 L 23.998 16.111 L 23.998 18.0 z M 15.998 17.0 L 15.998 18.5 L 18.998001 17.5 L 18.998001 27.0 L 21.998001 27.0 L 21.998001 15.0 L 19.998001 15.0 L 15.998 17.0 z " fill="#dedede"/>
</svg>
