<?xml version="1.0" encoding="UTF-8"?>
<svg xmlns="http://www.w3.org/2000/svg" xmlns:xlink="http://www.w3.org/1999/xlink" baseProfile="tiny" contentScriptType="text/ecmascript" contentStyleType="text/css" height="30px" preserveAspectRatio="xMidYMid meet" version="1.1" viewBox="0 0 30 30" width="30px" x="0px" y="0px" zoomAndPan="magnify">
<defs/>
<path d="M 5.403 16.471 C 4.85 16.471 4.403 16.024 4.403 15.471001 C 4.403 14.918001 4.85 14.471001 5.403 14.471001 L 9.5 14.471001 L 9.5 12.471001 L 5.403 12.471001 C 4.85 12.471001 4.403 12.024001 4.403 11.471001 C 4.403 10.918001 4.85 10.471001 5.403 10.471001 L 9.5 10.471001 L 9.5 9.5 C 9.5 9.123 9.611 8.773 9.794 8.471 L 5.403 8.471 C 4.85 8.471 4.403 8.024 4.403 7.4709997 C 4.403 6.9179997 4.85 6.4709997 5.403 6.4709997 L 15.595 6.4709997 C 16.148 6.4709997 16.595001 6.9179997 16.595001 7.4709997 C 16.595001 7.481 16.589 7.49 16.589 7.4999995 L 19.499 7.4999995 L 19.499 6.4999995 L 14.499001 1.4999995 L 2.4990005 1.4999995 C 1.9500005 1.4999995 1.4990005 1.9499996 1.4990005 2.4999995 L 1.4990005 20.5 C 1.4990005 21.05 1.9500005 21.5 2.4990005 21.5 L 9.499001 21.5 L 9.499001 16.471 L 5.403 16.471 z " fill="#ffffff"/>
<path d="M 23.5 8.5 L 11.5 8.5 C 10.951 8.5 10.5 8.95 10.5 9.5 L 10.5 27.5 C 10.5 28.05 10.951 28.5 11.5 28.5 L 27.5 28.5 C 28.051 28.5 28.5 28.05 28.5 27.5 L 28.5 13.5 L 23.5 8.5 z M 24.596 23.471 L 14.403 23.471 C 13.85 23.471 13.403 23.024 13.403 22.471 C 13.403 21.918001 13.849999 21.471 14.403 21.471 L 24.595001 21.471 C 25.148 21.471 25.595001 21.918001 25.595001 22.471 C 25.595001 23.024 25.148 23.471 24.596 23.471 z M 24.596 19.472 L 14.403 19.472 C 13.85 19.472 13.403 19.025 13.403 18.472 C 13.403 17.918 13.849999 17.472 14.403 17.472 L 24.595001 17.472 C 25.148 17.472 25.595001 17.918 25.595001 18.472 C 25.596 19.024 25.148 19.472 24.596 19.472 z M 24.596 15.471001 L 14.403 15.471001 C 13.85 15.471001 13.403 15.024001 13.403 14.471001 C 13.403 13.918001 13.849999 13.471001 14.403 13.471001 L 24.595001 13.471001 C 25.148 13.471001 25.595001 13.918 25.595001 14.471001 C 25.596 15.024 25.148 15.471001 24.596 15.471001 z " fill="#ffffff"/>
</svg>
