<?xml version="1.0" encoding="UTF-8"?>
<svg xmlns="http://www.w3.org/2000/svg" xmlns:xlink="http://www.w3.org/1999/xlink" baseProfile="tiny" contentScriptType="text/ecmascript" contentStyleType="text/css" height="30px" preserveAspectRatio="xMidYMid meet" version="1.1" viewBox="0 0 30 30" width="30px" x="0px" y="0px" zoomAndPan="magnify">
<rect fill="none" height="30" width="30"/>
<path d="M 8.0 26.0 C 4.1400003 26.0 1.0 22.859 1.0 19.0 L 1.0 14.0 C 1.0 10.141 4.1400003 7.0 8.0 7.0 L 21.0 7.0 L 21.0 5.0 C 21.0 4.612 21.225 4.259 21.576 4.094 C 21.711 4.031 21.855 4.0 22.0 4.0 C 22.229 4.0 22.457 4.079 22.641 4.232 L 28.639 9.232 C 28.867 9.422 29.0 9.703 29.0 10.0 C 29.0 10.297 28.867 10.578 28.639 10.768 L 22.640999 15.768 C 22.457 15.921 22.229 16.0 22.0 16.0 C 21.855 16.0 21.711 15.969 21.576 15.906 C 21.225 15.742 21.0 15.388 21.0 15.0 L 21.0 13.0 L 8.0 13.0 C 7.467 13.0 7.0 13.468 7.0 14.0 L 7.0 19.0 C 7.0 19.533 7.467 20.0 8.0 20.0 L 12.0 20.0 C 13.102 20.0 14.0 20.896 14.0 22.0 L 14.0 24.0 C 14.0 25.104 13.102 26.0 12.0 26.0 L 8.0 26.0 z " fill-opacity="0.15" stroke-opacity="0.15"/>
<path d="M 28.0 9.0 L 22.0 4.0 L 22.0 7.0 L 8.0 7.0 C 4.699 7.0 2.0 9.7 2.0 13.0 L 2.0 18.0 C 2.0 21.301 4.699 24.0 8.0 24.0 L 12.0 24.0 C 12.549 24.0 13.0 23.551 13.0 23.0 L 13.0 21.0 C 13.0 20.451 12.549 20.0 12.0 20.0 L 8.0 20.0 C 6.916 20.0 6.0 19.084 6.0 18.0 L 6.0 13.0 C 6.0 11.917 6.916 11.0 8.0 11.0 L 22.0 11.0 L 22.0 14.0 L 28.0 9.0 z " fill-opacity="0.3" stroke-opacity="0.3"/>
<path d="M 28.0 10.0 L 22.0 5.0 L 22.0 8.0 L 8.0 8.0 C 4.699 8.0 2.0 10.7 2.0 14.0 L 2.0 19.0 C 2.0 22.301 4.699 25.0 8.0 25.0 L 12.0 25.0 C 12.549 25.0 13.0 24.551 13.0 24.0 L 13.0 22.0 C 13.0 21.451 12.549 21.0 12.0 21.0 L 8.0 21.0 C 6.916 21.0 6.0 20.084 6.0 19.0 L 6.0 14.0 C 6.0 12.916 6.916 12.0 8.0 12.0 L 22.0 12.0 L 22.0 15.0 L 28.0 10.0 z " fill="#dedede"/>
</svg>
