<?xml version="1.0" encoding="UTF-8"?>
<svg xmlns="http://www.w3.org/2000/svg" xmlns:xlink="http://www.w3.org/1999/xlink" baseProfile="tiny" contentScriptType="text/ecmascript" contentStyleType="text/css" height="30px" preserveAspectRatio="xMidYMid meet" version="1.1" viewBox="0 0 30 30" width="30px" x="0px" y="0px" zoomAndPan="magnify">
<g>
<path d="M 21.655 29.0 C 20.369001 29.0 19.416 28.753 19.376001 28.742 C 14.876001 27.903 11.047001 24.701 9.372002 23.105 L 9.367002 23.108 L 8.797002 22.55 L 6.2460017 19.998 L 6.2820015 19.962 C 4.4900017 17.951 1.9880013 14.546 1.2400017 10.5529995 C 1.2180017 10.478 0.3500017 7.0599995 2.0430017 4.2399993 C 3.0060017 2.6359992 4.5720015 1.5649993 6.7010016 1.0579994 C 6.862 1.02 7.027 1.0 7.189 1.0 C 8.505 1.0 9.179 2.2059999 9.252 2.3439999 L 9.281 2.3999999 L 10.899 6.722 C 11.516 7.967 10.962 8.972 10.527 9.3880005 L 8.748 11.379001 C 8.686 11.489 7.881 13.192 12.115 17.560001 L 12.37 17.813002 C 15.486 20.834002 17.253 21.286001 18.028 21.286001 C 18.388 21.286001 18.545 21.184002 18.546999 21.183 L 20.63 19.457 C 20.831999 19.253 21.352999 18.827002 22.162998 18.827002 C 22.533998 18.827002 22.908998 18.919 23.276 19.101002 L 27.597 20.715002 L 27.655 20.745003 C 28.28 21.076002 29.255001 21.986002 28.941 23.298002 C 27.76 28.259 23.869 29.0 21.655 29.0 L 21.655 29.0 z " fill-opacity="0.15" stroke-opacity="0.15"/>
<path d="M 27.969 22.066 C 26.421999 28.558 19.630001 26.775 19.630001 26.775 C 14.766001 25.865 10.748001 22.106998 9.512001 20.838 L 9.504001 20.842999 L 7.66 18.999 L 7.6689997 18.99 C 6.1099997 17.365 3.0349998 13.702999 2.2229996 9.3689995 C 2.2229996 9.3689995 0.44399953 2.5759993 6.9329996 1.0309992 C 7.843 0.814 8.367 1.81 8.367 1.81 L 9.981999 6.125 C 10.495999 7.107 9.813999 7.686 9.813999 7.686 L 7.936 9.787 C 8.12 9.627999 5.899 11.584 11.398 17.256 L 11.398 17.258001 L 11.672 17.531002 L 11.674 17.530003 C 17.348 23.031002 19.300999 20.810003 19.143 20.990002 L 21.314 19.188002 C 21.314 19.188002 21.893 18.503002 22.873999 19.018002 L 27.188 20.629002 C 27.188 20.63 28.186 21.158 27.969 22.066 z " fill-opacity="0.3" stroke-opacity="0.3"/>
<path d="M 27.969 23.066 C 26.421999 29.558 19.630001 27.775 19.630001 27.775 C 14.766001 26.865 10.748001 23.106998 9.512001 21.838 L 9.504001 21.842999 L 7.66 19.999 L 7.6689997 19.99 C 6.1099997 18.365 3.0349998 14.702999 2.2229996 10.3689995 C 2.2229996 10.3689995 0.44399953 3.5759993 6.9329996 2.0309992 C 7.843 1.814 8.367 2.81 8.367 2.81 L 9.981999 7.125 C 10.495999 8.107 9.813999 8.686 9.813999 8.686 L 7.9349995 10.788 C 8.1189995 10.629 5.898 12.585 11.396999 18.257 L 11.396999 18.259 L 11.671 18.532001 L 11.672999 18.531002 C 17.347 24.032001 19.3 21.811003 19.141998 21.991001 L 21.312998 20.189001 C 21.312998 20.189001 21.891998 19.504002 22.872997 20.019001 L 27.186996 21.630001 C 27.188 21.63 28.186 22.158 27.969 23.066 z " fill="#dedede"/>
<rect fill="none" height="30" width="30"/>
</g>
</svg>
