<?xml version="1.0" encoding="UTF-8"?>
<svg xmlns="http://www.w3.org/2000/svg" xmlns:xlink="http://www.w3.org/1999/xlink" baseProfile="tiny" contentScriptType="text/ecmascript" contentStyleType="text/css" height="70px" preserveAspectRatio="xMidYMid meet" version="1.1" viewBox="0 0 70 70" width="70px" x="0px" y="0px" zoomAndPan="magnify">
<rect color="#000000" display="inline" fill="#646464" fill-opacity="0.58823532" fill-rule="nonzero" height="48" ry="8.2174387" stroke="none" visibility="visible" width="48" x="11" y="11"/>
<path d="M 39.66433 26.22012 L 42.362488 28.46552 C 42.362488 28.46552 43.08278 29.313702 44.304337 28.674994 L 49.670517 26.6692 C 49.670517 26.6692 50.909714 26.014322 50.642178 24.882437 C 48.717228 16.81222 40.26996 19.023811 40.26996 19.023811 C 34.21877 20.158638 29.22156 24.833923 27.68175 26.409748 L 27.675049 26.405348 L 25.37967 28.701462 L 25.39143 28.709562 C 23.453257 30.732262 19.629091 35.285538 18.617008 40.6745 C 18.617008 40.6745 16.40615 49.121765 24.47563 51.047447 C 25.608252 51.31572 26.261662 50.080193 26.261662 50.080193 L 28.269665 44.70887 C 28.907637 43.488785 28.05725 42.76996 28.05725 42.76996 L 25.72295 40.156307 C 25.953005 40.351814 23.189432 37.921196 30.02927 30.865273 L 30.02927 30.862272 L 30.37104 30.522709 L 30.37324 30.52344 C 37.427696 23.682867 39.85758 26.446436 39.664276 26.220062 z M 46.42841 33.44577 L 41.44369 42.060616 L 44.76659 42.060616 L 44.76659 43.290993 C 44.76659 45.784084 42.721844 47.80458 40.197884 47.80458 C 37.67392 47.80458 35.629173 45.784084 35.629173 43.290993 L 35.629173 42.060616 C 35.629173 41.610065 35.25433 41.2411 34.797897 41.2411 L 33.135345 41.2411 C 32.678917 41.2411 32.30407 41.610065 32.30407 42.060616 L 32.30407 43.290993 C 32.30407 47.59584 35.83865 51.085587 40.19715 51.085587 C 44.555656 51.085587 48.08876 47.595844 48.08876 43.290993 L 48.08876 42.060616 L 51.413868 42.060616 L 46.428413 33.44577 z " fill="#ffffff" fill-opacity="1" stroke-opacity="0.3"/>
<defs>
<linearGradient gradientUnits="userSpaceOnUse" x1="35.5005" x2="35.5005" xlink:actuate="onLoad" xlink:show="other" xlink:type="simple" y1="57" y2="13.001">
<stop offset="0" stop-color="#d0cbc5"/>
<stop offset="0.5031" stop-color="#fafcef"/>
<stop offset="0.9693" stop-color="#ffffff"/>
<stop offset="1" stop-color="#ffffff"/>
</linearGradient>
</defs>
</svg>
