<?xml version="1.0" encoding="UTF-8"?>
<svg xmlns="http://www.w3.org/2000/svg" xmlns:xlink="http://www.w3.org/1999/xlink" baseProfile="tiny" contentScriptType="text/ecmascript" contentStyleType="text/css" height="30px" preserveAspectRatio="xMidYMid meet" version="1.1" viewBox="0 0 30 30" width="30px" x="0px" y="0px" zoomAndPan="magnify">
<defs/>
<g>
<path d="M 22.0 8.501 C 22.0 8.777 21.776 9.001 21.5 9.001 L 8.5 9.001 C 8.224 9.001 8.0 8.777 8.0 8.501 L 8.0 8.501 C 8.0 8.225 8.224 8.001 8.5 8.001 L 21.5 8.001 C 21.776 8.001 22.0 8.225 22.0 8.501 L 22.0 8.501 z " fill="#ffffff"/>
<path d="M 22.0 12.501 C 22.0 12.777 21.776 13.001 21.5 13.001 L 8.5 13.001 C 8.224 13.001 8.0 12.777 8.0 12.501 L 8.0 12.501 C 8.0 12.225 8.224 12.001 8.5 12.001 L 21.5 12.001 C 21.776 12.001 22.0 12.225 22.0 12.501 L 22.0 12.501 z " fill="#ffffff"/>
<path d="M 22.0 16.501 C 22.0 16.776999 21.776 17.001 21.5 17.001 L 8.5 17.001 C 8.224 17.001 8.0 16.776999 8.0 16.501 L 8.0 16.501 C 8.0 16.225 8.224 16.001 8.5 16.001 L 21.5 16.001 C 21.776 16.001 22.0 16.225 22.0 16.501 L 22.0 16.501 z " fill="#ffffff"/>
<path d="M 25.0 2.001 L 5.0 2.001 C 4.449 2.001 4.0 2.452 4.0 3.001 L 4.0 27.001999 C 4.0 27.550999 4.449 28.001999 5.0 28.001999 L 25.0 28.001999 C 25.549 28.001999 26.0 27.550999 26.0 27.001999 L 26.0 3.001 C 26.0 2.452 25.549 2.001 25.0 2.001 z M 24.0 12.500999 C 24.0 13.322 24.0 15.679999 24.0 16.501 C 24.0 17.88 22.879 19.001 21.5 19.001 C 21.5 19.001 19.5 19.003 18.5 19.003 C 17.5 19.003 17.0 19.5 17.0 20.501 C 17.0 21.88 15.879 23.001 14.5 23.001 L 8.5 23.001 C 7.121 23.001 6.0 21.88 6.0 20.501 C 6.0 19.68 6.0 9.322 6.0 8.501 C 6.0 7.122 7.121 6.001 8.5 6.001 L 21.5 6.001 C 22.879 6.001 24.0 7.1219997 24.0 8.500999 C 24.0 9.322 24.0 11.679999 24.0 12.500999 z " fill="#ffffff"/>
<path d="M 15.0 20.501 C 15.0 20.776999 14.776 21.001 14.5 21.001 L 8.5 21.001 C 8.224 21.001 8.0 20.776999 8.0 20.501 L 8.0 20.501 C 8.0 20.225 8.224 20.001 8.5 20.001 L 14.5 20.001 C 14.776 20.001 15.0 20.225 15.0 20.501 L 15.0 20.501 z " fill="#ffffff"/>
</g>
</svg>
