<?xml version="1.0" encoding="UTF-8"?>
<svg xmlns="http://www.w3.org/2000/svg" xmlns:xlink="http://www.w3.org/1999/xlink" baseProfile="tiny" contentScriptType="text/ecmascript" contentStyleType="text/css" height="30px" preserveAspectRatio="xMidYMid meet" version="1.1" viewBox="0 0 30 30" width="30px" x="0px" y="0px" zoomAndPan="magnify">
<rect fill="none" height="30" width="30"/>
<path d="M 23.268 28.75 C 22.829 28.75 22.401 28.621 22.032 28.379 C 21.529999 28.049 21.185999 27.543 21.064999 26.953 C 20.943998 26.365 21.058998 25.764 21.390999 25.262 C 23.404999 22.205 24.470999 18.657 24.470999 14.999999 C 24.470999 11.343999 23.404999 7.794999 21.390999 4.7389994 C 21.058998 4.2369995 20.943998 3.6349993 21.064999 3.0479994 C 21.185999 2.4589994 21.529999 1.9519994 22.031998 1.6219994 C 22.400997 1.3799994 22.828999 1.2509995 23.267998 1.2509995 C 24.027998 1.2509995 24.730997 1.6299994 25.148998 2.2629995 C 27.648998 6.0579996 28.970999 10.462999 28.970999 15.000999 C 28.970999 19.539999 27.648998 23.944 25.148998 27.738998 C 24.731 28.373 24.028 28.75 23.268 28.75 L 23.268 28.75 z M 14.319 26.076 C 13.821 26.076 13.321 25.859001 12.836 25.435 L 8.338 21.5 L 4.0 21.5 C 2.346 21.5 1.0 20.154 1.0 18.5 L 1.0 11.5 C 1.0 9.846 2.346 8.5 4.0 8.5 L 8.337999 8.5 L 12.837 4.564 C 13.321 4.139 13.821 3.923 14.319 3.923 C 15.155 3.924 16.0 4.566 16.0 6.0 L 16.0 24.0 C 16.0 24.539 15.881 24.992 15.648 25.348 C 15.346 25.81 14.862 26.076 14.319 26.076 L 14.319 26.076 z M 19.278 24.759 C 18.897 24.759 18.516 24.659 18.182 24.474 C 17.657 24.179 17.278 23.699001 17.113998 23.12 C 16.951998 22.542002 17.022 21.934 17.314999 21.411001 C 18.411 19.454 18.988998 17.237001 18.988998 14.999001 C 18.988998 12.761001 18.411 10.544001 17.314999 8.587 C 17.022 8.063 16.951998 7.456 17.113998 6.878 C 17.278 6.3 17.657 5.82 18.18 5.526 C 18.516 5.339 18.895 5.24 19.278 5.24 C 20.094 5.24 20.848 5.6809998 21.244999 6.3929996 C 22.711998 9.018 23.488998 11.996 23.488998 14.999 C 23.488998 18.005 22.711998 20.980999 21.242998 23.608 C 20.846 24.318 20.094 24.759 19.278 24.759 L 19.278 24.759 z " fill-opacity="0.15" stroke-opacity="0.15"/>
<path d="M 13.495 4.317 L 8.714 8.5 L 4.0 8.5 C 2.9 8.5 2.0 9.4 2.0 10.5 L 2.0 17.5 C 2.0 18.602 2.9 19.5 4.0 19.5 L 8.714001 19.5 L 13.495001 23.684 C 14.323 24.408 15.0 24.101 15.0 23.0 L 15.0 5.0 C 15.0 3.9 14.323 3.593 13.495 4.317 z M 24.313 1.813 C 23.934 1.237 23.159 1.078 22.583 1.457 C 22.005001 1.837 21.847 2.612 22.226 3.1890001 C 24.348999 6.41 25.472 10.149 25.472 14.0 C 25.472 17.854 24.349 21.592 22.226 24.813 C 21.847 25.389 22.005 26.164999 22.583 26.545 C 22.794 26.684 23.032 26.75 23.269001 26.75 C 23.675001 26.75 24.074001 26.553 24.314001 26.189 C 26.707 22.556 27.972 18.342999 27.972 13.999999 C 27.971 9.658 26.706 5.443 24.313 1.813 z M 20.37 5.881 C 20.034 5.277 19.27 5.064 18.669 5.4 C 18.067001 5.737 17.853 6.499 18.189001 7.101 C 19.367 9.207 19.990002 11.593 19.990002 14.0 C 19.990002 16.408 19.367002 18.795 18.189001 20.9 C 17.853 21.501999 18.068 22.263 18.669 22.601 C 18.862001 22.708 19.071001 22.759 19.278 22.759 C 19.716 22.759 20.141 22.529001 20.369999 22.12 C 21.756998 19.641 22.488998 16.835001 22.488998 13.999001 C 22.489 11.166 21.756 8.358 20.37 5.881 z " fill-opacity="0.3" stroke-opacity="0.3"/>
<path d="M 13.495 5.316 L 8.714 9.5 L 4.0 9.5 C 2.9 9.5 2.0 10.4 2.0 11.5 L 2.0 18.5 C 2.0 19.6 2.9 20.5 4.0 20.5 L 8.714001 20.5 L 13.495001 24.684 C 14.323 25.408 15.0 25.099 15.0 24.0 L 15.0 6.0 C 15.0 4.9 14.323 4.593 13.495 5.316 z M 24.313 2.813 C 23.934 2.237 23.159 2.078 22.583 2.457 C 22.005001 2.837 21.847 3.612 22.226 4.1879997 C 24.348999 7.41 25.472 11.149 25.472 15.0 C 25.472 18.852 24.349 22.592 22.226 25.813 C 21.847 26.389 22.005 27.164999 22.583 27.545 C 22.794 27.684 23.032 27.75 23.269001 27.75 C 23.675001 27.75 24.074001 27.553 24.314001 27.187 C 26.707 23.556 27.972 19.341 27.972 14.999001 C 27.971 10.658 26.706 6.443 24.313 2.813 z M 20.37 6.881 C 20.034 6.277 19.27 6.063 18.669 6.4 C 18.068 6.737 17.853 7.499 18.189001 8.1 C 19.367 10.207001 19.990002 12.592001 19.990002 15.0 C 19.990002 17.408 19.367002 19.795 18.189001 21.9 C 17.853 22.501999 18.068 23.263 18.669 23.601 C 18.862001 23.708 19.071001 23.759 19.278 23.759 C 19.716 23.759 20.141 23.529001 20.369999 23.12 C 21.756998 20.641 22.488998 17.833 22.488998 14.999001 C 22.489 12.166 21.756 9.358 20.37 6.881 z " fill="#dedede"/>
</svg>
