<?xml version="1.0" encoding="UTF-8"?>
<svg xmlns="http://www.w3.org/2000/svg" xmlns:xlink="http://www.w3.org/1999/xlink" baseProfile="tiny" contentScriptType="text/ecmascript" contentStyleType="text/css" height="62px" preserveAspectRatio="xMidYMid meet" version="1.1" viewBox="0 0 54 62" width="54px" x="0px" y="0px" zoomAndPan="magnify">
<defs/>
<linearGradient gradientUnits="userSpaceOnUse" x1="27.0005" x2="27.0005" xlink:actuate="onLoad" xlink:show="other" xlink:type="simple" y1="65.5" y2="50.9227">
<stop offset="0" stop-color="#53cfff"/>
<stop offset="1" stop-color="#3f72b1"/>
</linearGradient>
<linearGradient gradientUnits="userSpaceOnUse" x1="26.9995" x2="26.9995" xlink:actuate="onLoad" xlink:show="other" xlink:type="simple" y1="15.5" y2="49.0152">
<stop offset="0" stop-color="#192d81"/>
<stop offset="0.2109" stop-color="#193185"/>
<stop offset="0.4237" stop-color="#183d91"/>
<stop offset="0.6373" stop-color="#1651a5"/>
<stop offset="0.8503" stop-color="#146dc1"/>
<stop offset="1" stop-color="#1286d9"/>
</linearGradient>
<linearGradient gradientUnits="userSpaceOnUse" x1="26.9995" x2="26.9995" xlink:actuate="onLoad" xlink:show="other" xlink:type="simple" y1="-0.25" y2="49.4326">
<stop offset="0" stop-color="#0f0f0f"/>
<stop offset="1" stop-color="#141416"/>
</linearGradient>
<linearGradient gradientUnits="userSpaceOnUse" x1="26.9995" x2="26.9995" xlink:actuate="onLoad" xlink:show="other" xlink:type="simple" y1="-0.25" y2="50.0229">
<stop offset="0" stop-color="#ffffff"/>
<stop offset="1" stop-color="#3f94ff"/>
</linearGradient>
<linearGradient gradientTransform="translate(-0.18548091,6.1145396)" gradientUnits="userSpaceOnUse" x1="26.9995" x2="26.9995" xlink:actuate="onLoad" xlink:show="other" xlink:type="simple" y1="11.2651" y2="35.2797">
<stop offset="0" stop-color="#234c9d"/>
<stop offset="0.2452" stop-color="#2763ae"/>
<stop offset="0.758" stop-color="#329fdb"/>
<stop offset="1" stop-color="#38bdf2"/>
</linearGradient>
<path d="M 52.0 31.0 C 52.0 44.80712 40.80712 56.0 27.0 56.0 C 13.19288 56.0 2.0000007 44.80712 2.0000007 31.0 C 2.0000007 17.19288 13.19288 5.9999995 27.0 5.9999995 C 40.807117 5.9999995 52.0 17.19288 52.0 31.0 z " fill="none" stroke="#ffffff" stroke-dasharray="none" stroke-miterlimit="4" stroke-opacity="1" stroke-width="2.017"/>
<path d="M 27.033224 19.50449 C 21.466866 19.50449 16.327585 21.321472 12.148865 24.355198 L 14.840011 27.644375 C 18.29255 25.17181 22.459528 23.62427 27.033224 23.62427 C 31.600853 23.62427 35.77328 25.17123 39.22644 27.644375 L 41.85114 24.355198 C 37.67657 21.321032 32.59174 19.50449 27.033224 19.50449 z M 27.033224 28.109509 C 23.543186 28.109509 20.332779 29.18734 17.664051 30.999998 L 20.55454 34.621414 C 22.411016 33.324165 24.600933 32.395405 27.033224 32.395405 C 29.471884 32.395405 31.656616 33.31607 33.511906 34.621414 L 36.402397 31.0 C 33.729233 29.186365 30.523338 28.10951 27.033224 28.10951 z M 27.033224 36.880653 C 25.661686 36.880653 24.423143 37.347828 23.312136 38.043495 L 27.033224 42.495514 L 30.687866 38.043495 C 29.594301 37.348427 28.398668 36.880653 27.033224 36.880653 z " fill="#ffffff" fill-opacity="1" fill-rule="nonzero" stroke="none"/>
</svg>
