<?xml version="1.0" encoding="UTF-8"?>
<svg xmlns="http://www.w3.org/2000/svg" xmlns:xlink="http://www.w3.org/1999/xlink" baseProfile="tiny" contentScriptType="text/ecmascript" contentStyleType="text/css" height="96px" preserveAspectRatio="xMidYMid meet" version="1.1" viewBox="0 0 96 96" width="96px" x="0px" y="0px" zoomAndPan="magnify">
<defs>
<linearGradient id="linearGradient3814">
<stop offset="0" stop-color="#ffffff" stop-opacity="1"/>
<stop offset="1" stop-color="#ffffff" stop-opacity="0.78431374"/>
</linearGradient>
<linearGradient>
<stop offset="0" stop-color="#008dd1" stop-opacity="1"/>
<stop offset="1" stop-color="#007cd1" stop-opacity="1"/>
</linearGradient>
<linearGradient gradientTransform="matrix(0,1,-1,0,96,0)" gradientUnits="userSpaceOnUse" id="linearGradient3810" x1="8" x2="88" y1="48" y2="48">
<stop offset="0" stop-color="#008dd1" stop-opacity="1"/>
<stop offset="1" stop-color="#007cd1" stop-opacity="1"/>
</linearGradient>
<linearGradient gradientUnits="userSpaceOnUse" id="linearGradient3820" x1="48.152542" x2="48.152542" y1="20.355932" y2="74.05085">
<stop offset="0" stop-color="#ffffff" stop-opacity="1"/>
<stop offset="1" stop-color="#ffffff" stop-opacity="0.78431374"/>
</linearGradient>
<linearGradient gradientTransform="matrix(0,1,-1,0,96,0)" gradientUnits="userSpaceOnUse" id="linearGradient3824" x1="21" x2="75" y1="47" y2="47">
<stop offset="0" stop-color="#008dd1" stop-opacity="1"/>
<stop offset="1" stop-color="#007cd1" stop-opacity="1"/>
</linearGradient>
</defs>
<path d="M 88.0 49.0 C 88.0 78.633 77.637 89.0 48.0 89.0 C 18.365 89.0 8.0 78.633 8.0 49.0 C 8.0 19.365 18.365 9.0 48.0 9.0 C 77.637 9.0 88.0 19.365 88.0 49.0 z " fill-opacity="0.4"/>
<linearGradient gradientTransform="matrix(1 0 0 -1 0.0449 95.7598)" gradientUnits="userSpaceOnUse" x1="47.9556" x2="47.9556" y1="87.7598" y2="7.7603">
<stop offset="0" stop-color="#0077cd"/>
<stop offset="1" stop-color="#003f9a"/>
</linearGradient>
<path d="M 48.0 88.0 C 18.367004 88.0 8.0 77.637 8.0 48.0 C 8.0 18.365 18.367 8.0 48.0 8.0 C 77.635 8.0 88.0 18.365 88.0 48.0 C 88.0 77.637 77.635 88.0 48.0 88.0 z " fill="url(#linearGradient3810)" fill-opacity="1"/>
<linearGradient gradientTransform="matrix(1 0 0 -1 0.0449 95.7598)" gradientUnits="userSpaceOnUse" id="SVGID_2_" x1="47.9556" x2="47.9556" y1="87.5068" y2="8.2622">
<stop offset="0" stop-color="#ffffff"/>
<stop offset="1" stop-color="#ffffff" stop-opacity="0"/>
</linearGradient>
<path d="M 48.0 8.0 C 18.365 8.0 8.0 18.365 8.0 48.0 C 8.0 77.633 18.365 88.0 48.0 88.0 C 77.637 88.0 88.0 77.633 88.0 48.0 C 88.0 18.365 77.637 8.0 48.0 8.0 z M 48.0 87.0 C 18.842 87.0 9.0 77.158 9.0 48.0 C 9.0 18.842005 18.842 9.0 48.0 9.0 C 77.158005 9.0 87.0 18.842 87.0 48.0 C 87.0 77.158005 77.158 87.0 48.0 87.0 z " fill="url(#SVGID_2_)" fill-opacity="0.25"/>
<rect fill="none" height="96" width="96"/>
<path d="M 48.0 19.0 C 31.458 19.0 18.0 32.458 18.0 49.0 C 18.0 65.542 31.458 79.0 48.0 79.0 C 64.542 79.0 78.0 65.542 78.0 49.0 C 78.0 32.458 64.542 19.0 48.0 19.0 z M 37.928 41.327 L 31.198002 40.14 C 34.475 33.952 40.977 30.0 48.0 30.0 C 55.023 30.0 61.523 33.952 64.805 40.14 L 58.076 41.327 C 55.707 38.202 52.014 36.333 48.004 36.333 C 43.988 36.333 40.297 38.201 37.928 41.327 z M 53.5 67.188 L 53.5 60.408005 C 56.878 58.785004 59.357 55.74601 60.271 52.110004 L 66.833 50.95501 C 65.979 58.743 60.848 64.99 53.5 67.188 z M 35.729 52.107 C 36.643 55.741997 39.123 58.781 42.5 60.404 L 42.5 67.174 C 35.157 64.925995 29.896 58.549995 29.113 50.941994 L 35.729 52.107 z " fill-opacity="0.05"/>
<path d="M 48.0 20.0 C 32.010002 20.0 19.0 33.009 19.0 49.0 C 19.0 64.99 32.010002 78.0 48.0 78.0 C 63.99 78.0 77.0 64.99 77.0 49.0 C 77.0 33.009 63.99 20.0 48.0 20.0 z M 38.373 42.42 L 30.299 40.997 C 30.052 40.954 29.914 40.842 29.867 40.752 C 29.853 40.726 29.82 40.663 29.894 40.504997 C 33.189 33.516 40.296 29.0 48.0 29.0 C 55.703 29.0 62.811 33.516 66.104996 40.505 C 66.17899 40.662003 66.145996 40.725 66.129 40.752003 C 66.082 40.842003 65.942 40.953003 65.697 40.997 L 57.624 42.421 C 55.469 39.25 51.9 37.333 48.0 37.333 C 44.1 37.333 40.531 39.25 38.373 42.42 z M 52.957 68.375 C 52.909 68.387 52.866 68.395 52.828 68.395 C 52.613 68.395 52.5 68.12399 52.5 67.854 L 52.5 59.756996 C 56.096 58.258995 58.698 55.064995 59.439 51.24 L 67.326 49.849 C 67.382 49.836 67.435 49.83 67.488 49.83 C 67.64 49.83 67.771 49.874996 67.841 49.948 C 67.85999 49.969 67.918 50.029 67.904 50.212997 C 67.273 59.1 61.406 66.229 52.957 68.375 z M 43.5 59.757 L 43.5 67.85401 C 43.5 68.123 43.391 68.38901 43.184 68.38901 C 43.147 68.38901 43.103996 68.382 43.054996 68.37001 C 34.620995 66.18001 28.591995 58.89101 28.052998 50.23001 C 28.040998 50.05101 28.101995 49.99001 28.122995 49.963013 C 28.200996 49.880013 28.345997 49.830013 28.509996 49.830013 C 28.562996 49.830013 28.617996 49.835014 28.674995 49.849014 L 36.560997 51.240013 C 37.301 55.063 39.902 58.259 43.5 59.757 z " fill-opacity="0.05"/>
<path d="M 48.0 21.0 C 32.561 21.0 20.0 33.561 20.0 49.0 C 20.0 64.439 32.561 77.0 48.0 77.0 C 63.439 77.0 76.0 64.439 76.0 49.0 C 76.0 33.561 63.439 21.0 48.0 21.0 z M 38.855 43.521 L 30.125 41.982 C 29.604 41.89 29.186 41.608997 28.98 41.212 C 28.799 40.865997 28.804 40.474 28.991 40.079 C 32.449 32.741 39.91 28.0 48.0 28.0 C 56.089 28.0 63.551 32.741 67.01 40.079 C 67.196 40.475 67.199005 40.867 67.022 41.212 C 66.815 41.609 66.399 41.890003 65.876 41.982 L 57.147 43.522003 C 55.223 40.304005 51.786 38.334003 48.001 38.334003 C 44.216 38.334003 40.779 40.303 38.855 43.521 z M 53.203 69.346 C 53.075 69.377 52.948997 69.395004 52.828 69.395004 C 52.07 69.395004 51.5 68.733 51.5 67.85401 L 51.5 59.069004 C 55.318 57.750004 58.049 54.387005 58.566 50.381004 L 67.152 48.867004 C 67.265 48.846004 67.379 48.83701 67.488 48.83701 C 67.926 48.83701 68.31 48.992004 68.572 49.27401 C 68.816 49.53801 68.929 49.887005 68.902 50.293007 C 68.24 59.607 62.078 67.089 53.203 69.346 z M 44.5 59.068 L 44.5 67.853 C 44.5 68.728 43.934 69.384995 43.184 69.384995 C 43.060997 69.384995 42.934 69.367 42.804996 69.33399 C 33.950996 67.03399 27.620996 59.380993 27.054996 50.288994 C 27.029997 49.89299 27.146996 49.540993 27.394997 49.275993 C 27.663996 48.992992 28.068996 48.82999 28.509996 48.82999 C 28.620996 48.82999 28.734997 48.839993 28.847996 48.85799 L 37.434 50.374992 C 37.95 54.387 40.682 57.746 44.5 59.068 z " fill-opacity="0.1"/>
<path d="M 48.0 22.0 C 33.088 22.0 21.0 34.088 21.0 49.0 C 21.0 63.912 33.088 76.0 48.0 76.0 C 62.912 76.0 75.0 63.912 75.0 49.0 C 75.0 34.088 62.912 22.0 48.0 22.0 z M 67.914 39.652 C 68.62 41.151 67.682 42.678 66.049 42.966 L 56.615005 44.63 C 55.01701 41.489 51.763004 39.333 48.000008 39.333 C 44.237007 39.333 40.980007 41.489 39.38501 44.63 L 29.95101 42.967003 C 28.32001 42.679005 27.380009 41.152004 28.08601 39.653004 C 31.607 32.183 39.209 27.0 48.0 27.0 C 56.79 27.0 64.393 32.183 67.914 39.652 z M 29.021 47.879 L 38.359 49.525 C 38.588 53.763 41.539 57.269 45.5 58.329 L 45.5 67.853004 C 45.5 69.508 44.157 70.719 42.553 70.304 C 33.791 68.029 26.675 60.279 26.057 50.355003 C 25.953 48.702 27.391 47.592 29.021 47.879 z M 50.5 67.854 L 50.5 58.33 C 54.461 57.269 57.411 53.766003 57.641 49.527 L 66.979 47.881 C 68.612 47.593 70.018 48.706 69.90099 50.36 C 69.173 60.59 62.20499 68.09 53.452995 70.315 C 51.844 70.723 50.5 69.512 50.5 67.854 z " fill-opacity="0.1"/>
<linearGradient gradientTransform="matrix(1 0 0 -1 108.2998 -510.666)" gradientUnits="userSpaceOnUse" x1="-60.2998" x2="-60.2998" y1="-537.6982" y2="-605.3701">
<stop offset="0" stop-color="#fafcef"/>
<stop offset="0.3232" stop-color="#fafcef"/>
<stop offset="1" stop-color="#b2aeaa"/>
</linearGradient>
<path d="M 48.0 20.0 C 33.088 20.0 21.0 32.088 21.0 47.0 C 21.0 61.912 33.088 74.0 48.0 74.0 C 62.912 74.0 75.0 61.912 75.0 47.0 C 75.0 32.088 62.912 20.0 48.0 20.0 z M 67.914 37.652 C 68.62 39.151 67.682 40.678 66.049 40.966 L 56.615005 42.63 C 55.01701 39.489 51.763004 37.333 48.000008 37.333 C 44.237007 37.333 40.980007 39.489 39.38501 42.63 L 29.95101 40.967003 C 28.32001 40.679005 27.380009 39.152004 28.08601 37.653004 C 31.607 30.183 39.209 25.0 48.0 25.0 C 56.79 25.0 64.393 30.183 67.914 37.652 z M 29.021 45.879 L 38.359 47.526 C 38.588 51.764 41.539 55.27 45.5 56.329 L 45.5 65.853004 C 45.5 67.508 44.157 68.719 42.553 68.304 C 33.791 66.029 26.675 58.279 26.057 48.353 C 25.953 46.702 27.391 45.592 29.021 45.879 z M 50.5 65.854 L 50.5 56.33 C 54.461 55.269 57.411 51.766003 57.641 47.527 L 66.979 45.881 C 68.612 45.593 70.018 46.706 69.90099 48.36 C 69.173 58.59 62.20499 66.09 53.452995 68.315 C 51.844 68.723 50.5 67.512 50.5 65.854 z " fill="url(#linearGradient3824)" fill-opacity="1"/>
<path d="M 48.0 20.0 C 33.088 20.0 21.0 32.088 21.0 47.0 C 21.0 61.912 33.088 74.0 48.0 74.0 C 62.912 74.0 75.0 61.912 75.0 47.0 C 75.0 32.088 62.912 20.0 48.0 20.0 z M 67.914 37.652 C 68.62 39.151 67.682 40.678 66.049 40.966 L 56.615005 42.63 C 55.01701 39.489 51.763004 37.333 48.000008 37.333 C 44.237007 37.333 40.980007 39.489 39.38501 42.63 L 29.95101 40.967003 C 28.32001 40.679005 27.380009 39.152004 28.08601 37.653004 C 31.607 30.183 39.209 25.0 48.0 25.0 C 56.79 25.0 64.393 30.183 67.914 37.652 z M 29.021 45.879 L 38.359 47.526 C 38.588 51.764 41.539 55.27 45.5 56.329 L 45.5 65.853004 C 45.5 67.508 44.157 68.719 42.553 68.304 C 33.791 66.029 26.675 58.279 26.057 48.353 C 25.953 46.702 27.391 45.592 29.021 45.879 z M 50.5 65.854 L 50.5 56.33 C 54.461 55.269 57.411 51.766003 57.641 47.527 L 66.979 45.881 C 68.612 45.593 70.018 46.706 69.90099 48.36 C 69.173 58.59 62.20499 66.09 53.452995 68.315 C 51.844 68.723 50.5 67.512 50.5 65.854 z " fill="url(#linearGradient3820)" fill-opacity="1"/>
<linearGradient gradientTransform="matrix(1 0 0 -1 108.2998 -510.666)" gradientUnits="userSpaceOnUse" x1="-60.2998" x2="-60.2998" y1="-506.625" y2="-602.9039">
<stop offset="0" stop-color="#ffffff"/>
<stop offset="0.3232" stop-color="#ffffff"/>
<stop offset="1" stop-color="#fafcef"/>
</linearGradient>
<linearGradient gradientTransform="matrix(1,0,0,-1,108.2998,-510.666)" gradientUnits="userSpaceOnUse" x1="-60.2993" x2="-60.2993" y1="-550.5498" y2="-560.4799">
<stop offset="0" stop-color="#ffffff"/>
<stop offset="1" stop-color="#ffffff" stop-opacity="0"/>
</linearGradient>
</svg>
