<?xml version="1.0" encoding="UTF-8"?>
<svg xmlns="http://www.w3.org/2000/svg" xmlns:xlink="http://www.w3.org/1999/xlink" baseProfile="tiny" contentScriptType="text/ecmascript" contentStyleType="text/css" height="96px" preserveAspectRatio="xMidYMid meet" version="1.1" viewBox="0 0 96 96" width="96px" x="0px" y="0px" zoomAndPan="magnify">
<defs>
<linearGradient id="linearGradient6">
<stop offset="0" stop-color="#fcfcfc" stop-opacity="1"/>
<stop offset="1" stop-color="#fcfcfc" stop-opacity="0.78431374"/>
</linearGradient>
<linearGradient xlink:actuate="onLoad" xlink:show="other" xlink:type="simple">
<stop offset="0" stop-color="#01a0f3" stop-opacity="1"/>
<stop offset="1" stop-color="#01a0f3" stop-opacity="0"/>
</linearGradient>
<linearGradient gradientUnits="userSpaceOnUse" id="linearGradient3814" x1="47.887409" x2="47.887409" xlink:actuate="onLoad" xlink:show="other" xlink:type="simple" y1="12.20339" y2="85.438919">
<stop offset="0" stop-color="#55d261" stop-opacity="1"/>
<stop offset="1" stop-color="#04c379" stop-opacity="1"/>
</linearGradient>
<linearGradient gradientUnits="userSpaceOnUse" id="linearGradient3825" x1="45.869114" x2="45.869114" y1="28.381071" y2="67.860016">
<stop offset="0" stop-color="#fcfcfc" stop-opacity="1"/>
<stop offset="1" stop-color="#fcfcfc" stop-opacity="0.78431374"/>
</linearGradient>
<linearGradient gradientUnits="userSpaceOnUse" x1="45.869114" x2="45.869114" xlink:actuate="onLoad" xlink:show="other" xlink:type="simple" y1="28.381071" y2="67.860016">
<stop offset="0" stop-color="#01a0f3" stop-opacity="1"/>
<stop offset="1" stop-color="#0189f3" stop-opacity="1"/>
</linearGradient>
<linearGradient gradientUnits="userSpaceOnUse" id="linearGradient3843" x1="23.002001" x2="73.000999" xlink:actuate="onLoad" xlink:show="other" xlink:type="simple" y1="48.228001" y2="48.228001">
<stop offset="0" stop-color="#55d261" stop-opacity="1"/>
<stop offset="1" stop-color="#04c379" stop-opacity="1"/>
</linearGradient>
<linearGradient gradientUnits="userSpaceOnUse" id="linearGradient3843" x1="23.002001" x2="73.000999" xlink:actuate="onLoad" xlink:show="other" xlink:type="simple" y1="48.228001" y2="48.228001">
<stop offset="0" stop-color="#55d261" stop-opacity="1"/>
<stop offset="1" stop-color="#04c379" stop-opacity="1"/>
</linearGradient>
<linearGradient gradientUnits="userSpaceOnUse" id="linearGradient3825" x1="45.869114" x2="45.869114" y1="28.381071" y2="67.860016">
<stop offset="0" stop-color="#fcfcfc" stop-opacity="1"/>
<stop offset="1" stop-color="#fcfcfc" stop-opacity="0.78431374"/>
</linearGradient>
<linearGradient gradientUnits="userSpaceOnUse" id="linearGradient3869" x1="48.095646" x2="48.095646" xlink:actuate="onLoad" xlink:show="other" xlink:type="simple" y1="28.576271" y2="67.175903">
<stop offset="0" stop-color="#55d261" stop-opacity="1"/>
<stop offset="1" stop-color="#04c379" stop-opacity="1"/>
</linearGradient>
<linearGradient gradientUnits="userSpaceOnUse" id="linearGradient3873" x1="48.095646" x2="48.095646" y1="28.576271" y2="67.175903">
<stop offset="0" stop-color="#fcfcfc" stop-opacity="1"/>
<stop offset="1" stop-color="#fcfcfc" stop-opacity="0.78431374"/>
</linearGradient>
</defs>
<path d="M 88.023 49.0 C 88.023 78.633 77.66 89.0 48.023003 89.0 C 18.388002 89.0 8.023003 78.633 8.023003 49.0 C 8.023003 19.365 18.388002 9.0 48.023003 9.0 C 77.66 9.0 88.023 19.365 88.023 49.0 z " fill-opacity="0.4"/>
<linearGradient gradientTransform="matrix(1 0 0 -1 -300.9004 -120.5996)" gradientUnits="userSpaceOnUse" x1="348.9238" x2="348.9238" xlink:actuate="onLoad" xlink:show="other" xlink:type="simple" y1="-204.3115" y2="-128.2644">
<stop offset="0" stop-color="#02598b"/>
<stop offset="0.253" stop-color="#026d98"/>
<stop offset="0.7688" stop-color="#01a1bb"/>
<stop offset="1" stop-color="#00bacc"/>
</linearGradient>
<path color="#000000" d="M 47.96875 27.59375 C 40.46408 27.59375 33.592785 29.903198 28.5 33.8125 C 23.399714 37.727562 20.03125 43.392105 20.03125 49.71875 C 20.03125 55.649002 23.151573 60.821995 27.6875 64.65625 L 26.46875 68.59375 C 26.46859 68.604164 26.46859 68.614586 26.46875 68.625 C 26.47135 68.6174 26.49715 68.56095 26.46875 68.65625 C 26.45682 68.68697 26.446392 68.71826 26.4375 68.75 C 26.4298 68.77611 26.40653 68.81129 26.40625 68.8125 C 26.40345 68.82361 26.41015 68.82834 26.40625 68.84375 C 26.40609 68.854164 26.40609 68.864586 26.40625 68.875 C 26.39579 68.92051 26.37538 68.99761 26.375 69.0 C 26.37494 69.00037 26.34424 69.11117 26.34375 69.125 C 26.343256 69.13883 26.343836 69.15008 26.34375 69.15625 C 26.34358 69.1686 26.34375 69.17929 26.34375 69.1875 C 26.34495 69.17328 26.37514 69.186 26.375 69.1875 C 26.374718 69.1905 26.34365 69.31289 26.34375 69.34375 C 26.343798 69.35918 26.343716 69.36419 26.34375 69.375 C 26.33249 69.7557 26.32748 69.10133 26.34375 69.5625 C 26.343716 69.57314 26.343803 69.57832 26.34375 69.59375 C 26.343689 69.61156 26.34225 69.64603 26.34375 69.6875 C 26.34485 69.71791 26.37487 69.74874 26.375 69.75 C 26.37503 69.7503 26.34406 69.7558 26.34375 69.75 C 26.34375 69.7583 26.34357 69.76859 26.34375 69.78125 C 26.34384 69.78755 26.343222 69.79821 26.34375 69.8125 C 26.344278 69.82679 26.37494 69.93713 26.375 69.9375 C 26.375984 69.9434 26.46382 70.37056 26.40625 70.125 C 26.42636 70.21077 26.42982 70.1879 26.4375 70.21875 C 26.4452 70.2496 26.46788 70.30964 26.46875 70.3125 C 26.54411 70.560295 26.39305 70.10179 26.53125 70.46875 C 26.53235 70.47155 26.57825 70.6255 26.59375 70.65625 C 26.65245 70.78585 26.61872 70.70614 26.625 70.71875 C 26.6313 70.73136 26.64855 70.76586 26.65625 70.78125 C 26.66395 70.79664 26.68132 70.8002 26.6875 70.8125 C 26.6937 70.8248 26.64267 70.75973 26.6875 70.84375 C 26.6889 70.84635 26.76568 70.97684 26.78125 71.0 C 26.78905 71.01158 26.80722 71.0234 26.8125 71.03125 C 26.8165 71.03925 26.83618 71.04703 26.84375 71.0625 C 26.85155 71.07514 26.86606 71.07949 26.875 71.09375 C 26.8782 71.10025 26.8716 71.11824 26.875 71.125 C 26.8792 71.1335 26.8681 71.14292 26.875 71.15625 C 26.88692 71.17242 26.88513 71.12668 26.90625 71.15625 C 26.90875 71.16085 26.90195 71.17972 26.90625 71.1875 C 26.91055 71.1953 26.89541 71.20093 26.90625 71.21875 C 26.91709 71.23657 26.99988 71.343605 27.0 71.34375 C 27.000118 71.343895 27.10288 71.44958 27.125 71.46875 C 27.14712 71.48792 27.14583 71.49195 27.15625 71.5 C 27.17709 71.5161 27.17892 71.52521 27.1875 71.53125 C 27.16119 71.50443 27.23617 71.55234 27.25 71.5625 C 27.2592 71.5693 27.22193 71.53785 27.28125 71.59375 C 27.3043 71.61694 27.403944 71.71684 27.40625 71.71875 C 27.40659 71.71903 27.43319 71.71565 27.4375 71.71875 C 27.4391 71.72035 27.46044 71.74216 27.46875 71.75 C 27.47065 71.7518 27.49133 71.7428 27.5 71.75 C 27.5061 71.7562 27.4934 71.77465 27.5 71.78125 C 27.5066 71.78785 27.52011 71.80173 27.53125 71.8125 C 27.53775 71.817 27.55908 71.8102 27.5625 71.8125 C 27.5665 71.8162 27.5556 71.83751 27.5625 71.84375 C 27.5677 71.84725 27.58987 71.84115 27.59375 71.84375 C 27.59875 71.84815 27.58555 71.86812 27.59375 71.875 C 27.60555 71.8849 27.65826 71.91661 27.6875 71.9375 C 27.6955 71.9429 27.70716 71.96097 27.71875 71.96875 C 27.74192 71.98431 27.872368 72.06108 27.875 72.0625 C 27.875166 72.06259 27.977348 72.1169 28.0 72.125 C 28.01132 72.129 28.0241 72.1227 28.03125 72.125 C 28.03835 72.1273 28.05751 72.1235 28.0625 72.125 C 28.0702 72.1279 28.08175 72.1205 28.09375 72.125 C 28.1073 72.1314 28.10798 72.14837 28.125 72.15625 C 28.14932 72.16751 28.17084 72.14865 28.1875 72.15625 C 28.19916 72.16155 28.21808 72.18724 28.21875 72.1875 C 28.325186 72.22828 28.27089 72.21527 28.28125 72.21875 C 28.29161 72.22225 28.30081 72.21485 28.3125 72.21875 C 28.33587 72.22655 28.2813 72.22095 28.375 72.25 C 28.3779 72.250885 28.46915 72.27357 28.5 72.28125 C 28.53085 72.28895 28.51573 72.30126 28.5625 72.3125 C 28.395046 72.27227 28.744102 72.34273 28.75 72.34375 C 28.7654 72.34765 28.76567 72.33985 28.78125 72.34375 C 28.78905 72.34565 28.80165 72.37243 28.8125 72.375 C 28.82335 72.3776 28.968006 72.37492 28.96875 72.375 C 28.97025 72.37516 29.078913 72.40624 29.09375 72.40625 C 29.10859 72.406265 29.10957 72.4063 29.125 72.40625 C 29.15586 72.406136 29.15326 72.40613 29.15625 72.40625 C 29.291576 72.41175 29.20584 72.40623 29.21875 72.40625 C 29.23166 72.40627 29.23457 72.40626 29.25 72.40625 C 29.28086 72.406235 29.19241 72.40985 29.34375 72.40625 C 29.35473 72.40628 29.35957 72.406204 29.375 72.40625 C 29.40586 72.40634 29.52827 72.37527 29.53125 72.375 C 29.531624 72.37497 29.643187 72.3778 29.65625 72.375 C 29.66931 72.3722 29.68164 72.3764 29.6875 72.375 C 29.69922 72.3722 29.71073 72.34575 29.71875 72.34375 C 29.72175 72.34329 29.844181 72.3203 29.875 72.3125 C 29.89041 72.3086 29.89529 72.3153 29.90625 72.3125 L 37.9375 70.5 L 38.34375 70.40625 C 41.354187 71.27846 44.58677 71.8125 47.96875 71.8125 C 55.47404 71.8125 62.34597 69.4933 67.4375 65.59375 C 72.53677 61.68827 75.90625 56.04541 75.90625 49.71875 C 75.90625 43.392105 72.53779 37.727562 67.4375 33.8125 C 62.344715 29.903198 55.47342 27.59375 47.96875 27.59375 z " display="inline" fill="#000000" fill-opacity="0.07843137" fill-rule="nonzero" stroke="none" stroke-width="0" visibility="visible"/>
<path d="M 88.023 48.0 C 88.023 77.633 77.66 88.0 48.023003 88.0 C 18.388002 88.0 8.023003 77.633 8.023003 48.0 C 8.023003 18.365 18.388002 8.0 48.023003 8.0 C 77.66 8.0 88.023 18.365 88.023 48.0 z " fill="url(#linearGradient3814)" fill-opacity="1"/>
<path color="#000000" d="M 47.96875 27.59375 C 40.46408 27.59375 33.592785 29.903198 28.5 33.8125 C 23.399714 37.727562 20.03125 43.392105 20.03125 49.71875 C 20.03125 55.649002 23.151573 60.821995 27.6875 64.65625 L 26.46875 68.59375 C 26.46859 68.604164 26.46859 68.614586 26.46875 68.625 C 26.47135 68.6174 26.49715 68.56095 26.46875 68.65625 C 26.45682 68.68697 26.446392 68.71826 26.4375 68.75 C 26.4298 68.77611 26.40653 68.81129 26.40625 68.8125 C 26.40345 68.82361 26.41015 68.82834 26.40625 68.84375 C 26.40609 68.854164 26.40609 68.864586 26.40625 68.875 C 26.39579 68.92051 26.37538 68.99761 26.375 69.0 C 26.37494 69.00037 26.34424 69.11117 26.34375 69.125 C 26.343256 69.13883 26.343836 69.15008 26.34375 69.15625 C 26.34358 69.1686 26.34375 69.17929 26.34375 69.1875 C 26.34495 69.17328 26.37514 69.186 26.375 69.1875 C 26.374718 69.1905 26.34365 69.31289 26.34375 69.34375 C 26.343798 69.35918 26.343716 69.36419 26.34375 69.375 C 26.33249 69.7557 26.32748 69.10133 26.34375 69.5625 C 26.343716 69.57314 26.343803 69.57832 26.34375 69.59375 C 26.343689 69.61156 26.34225 69.64603 26.34375 69.6875 C 26.34485 69.71791 26.37487 69.74874 26.375 69.75 C 26.37503 69.7503 26.34406 69.7558 26.34375 69.75 C 26.34375 69.7583 26.34357 69.76859 26.34375 69.78125 C 26.34384 69.78755 26.343222 69.79821 26.34375 69.8125 C 26.344278 69.82679 26.37494 69.93713 26.375 69.9375 C 26.375984 69.9434 26.46382 70.37056 26.40625 70.125 C 26.42636 70.21077 26.42982 70.1879 26.4375 70.21875 C 26.4452 70.2496 26.46788 70.30964 26.46875 70.3125 C 26.54411 70.560295 26.39305 70.10179 26.53125 70.46875 C 26.53235 70.47155 26.57825 70.6255 26.59375 70.65625 C 26.65245 70.78585 26.61872 70.70614 26.625 70.71875 C 26.6313 70.73136 26.64855 70.76586 26.65625 70.78125 C 26.66395 70.79664 26.68132 70.8002 26.6875 70.8125 C 26.6937 70.8248 26.64267 70.75973 26.6875 70.84375 C 26.6889 70.84635 26.76568 70.97684 26.78125 71.0 C 26.78905 71.01158 26.80722 71.0234 26.8125 71.03125 C 26.8165 71.03925 26.83618 71.04703 26.84375 71.0625 C 26.85155 71.07514 26.86606 71.07949 26.875 71.09375 C 26.8782 71.10025 26.8716 71.11824 26.875 71.125 C 26.8792 71.1335 26.8681 71.14292 26.875 71.15625 C 26.88692 71.17242 26.88513 71.12668 26.90625 71.15625 C 26.90875 71.16085 26.90195 71.17972 26.90625 71.1875 C 26.91055 71.1953 26.89541 71.20093 26.90625 71.21875 C 26.91709 71.23657 26.99988 71.343605 27.0 71.34375 C 27.000118 71.343895 27.10288 71.44958 27.125 71.46875 C 27.14712 71.48792 27.14583 71.49195 27.15625 71.5 C 27.17709 71.5161 27.17892 71.52521 27.1875 71.53125 C 27.16119 71.50443 27.23617 71.55234 27.25 71.5625 C 27.2592 71.5693 27.22193 71.53785 27.28125 71.59375 C 27.3043 71.61694 27.403944 71.71684 27.40625 71.71875 C 27.40659 71.71903 27.43319 71.71565 27.4375 71.71875 C 27.4391 71.72035 27.46044 71.74216 27.46875 71.75 C 27.47065 71.7518 27.49133 71.7428 27.5 71.75 C 27.5061 71.7562 27.4934 71.77465 27.5 71.78125 C 27.5066 71.78785 27.52011 71.80173 27.53125 71.8125 C 27.53775 71.817 27.55908 71.8102 27.5625 71.8125 C 27.5665 71.8162 27.5556 71.83751 27.5625 71.84375 C 27.5677 71.84725 27.58987 71.84115 27.59375 71.84375 C 27.59875 71.84815 27.58555 71.86812 27.59375 71.875 C 27.60555 71.8849 27.65826 71.91661 27.6875 71.9375 C 27.6955 71.9429 27.70716 71.96097 27.71875 71.96875 C 27.74192 71.98431 27.872368 72.06108 27.875 72.0625 C 27.875166 72.06259 27.977348 72.1169 28.0 72.125 C 28.01132 72.129 28.0241 72.1227 28.03125 72.125 C 28.03835 72.1273 28.05751 72.1235 28.0625 72.125 C 28.0702 72.1279 28.08175 72.1205 28.09375 72.125 C 28.1073 72.1314 28.10798 72.14837 28.125 72.15625 C 28.14932 72.16751 28.17084 72.14865 28.1875 72.15625 C 28.19916 72.16155 28.21808 72.18724 28.21875 72.1875 C 28.325186 72.22828 28.27089 72.21527 28.28125 72.21875 C 28.29161 72.22225 28.30081 72.21485 28.3125 72.21875 C 28.33587 72.22655 28.2813 72.22095 28.375 72.25 C 28.3779 72.250885 28.46915 72.27357 28.5 72.28125 C 28.53085 72.28895 28.51573 72.30126 28.5625 72.3125 C 28.395046 72.27227 28.744102 72.34273 28.75 72.34375 C 28.7654 72.34765 28.76567 72.33985 28.78125 72.34375 C 28.78905 72.34565 28.80165 72.37243 28.8125 72.375 C 28.82335 72.3776 28.968006 72.37492 28.96875 72.375 C 28.97025 72.37516 29.078913 72.40624 29.09375 72.40625 C 29.10859 72.406265 29.10957 72.4063 29.125 72.40625 C 29.15586 72.406136 29.15326 72.40613 29.15625 72.40625 C 29.291576 72.41175 29.20584 72.40623 29.21875 72.40625 C 29.23166 72.40627 29.23457 72.40626 29.25 72.40625 C 29.28086 72.406235 29.19241 72.40985 29.34375 72.40625 C 29.35473 72.40628 29.35957 72.406204 29.375 72.40625 C 29.40586 72.40634 29.52827 72.37527 29.53125 72.375 C 29.531624 72.37497 29.643187 72.3778 29.65625 72.375 C 29.66931 72.3722 29.68164 72.3764 29.6875 72.375 C 29.69922 72.3722 29.71073 72.34575 29.71875 72.34375 C 29.72175 72.34329 29.844181 72.3203 29.875 72.3125 C 29.89041 72.3086 29.89529 72.3153 29.90625 72.3125 L 37.9375 70.5 L 38.34375 70.40625 C 41.354187 71.27846 44.58677 71.8125 47.96875 71.8125 C 55.47404 71.8125 62.34597 69.4933 67.4375 65.59375 C 72.53677 61.68827 75.90625 56.04541 75.90625 49.71875 C 75.90625 43.392105 72.53779 37.727562 67.4375 33.8125 C 62.344715 29.903198 55.47342 27.59375 47.96875 27.59375 z " display="inline" fill="#000000" fill-opacity="0.05882353" fill-rule="nonzero" stroke="none" stroke-width="0" visibility="visible"/>
<path color="#000000" d="M 47.96875 26.53125 C 40.23784 26.53125 33.14747 28.897532 27.84375 32.96875 C 22.531048 37.046864 18.96875 43.007164 18.96875 49.71875 C 18.96875 55.780506 22.02539 61.034874 26.46875 65.0 L 25.4375 68.28125 C 25.427004 68.29159 25.416588 68.302 25.40625 68.3125 C 25.42887 68.23658 25.299908 68.92197 25.3125 68.84375 C 25.32509 68.76554 25.24765 69.422935 25.25 69.34375 C 25.2523 69.26456 25.28918 69.95382 25.28125 69.875 C 25.27335 69.79618 25.393082 70.45213 25.375 70.375 C 25.35692 70.29787 25.527925 70.949135 25.5 70.875 C 25.47208 70.80086 25.756046 71.41364 25.71875 71.34375 C 25.68145 71.27386 26.04604 71.87697 26.0 71.8125 C 25.95396 71.74803 26.397757 72.24546 26.34375 72.1875 C 26.28974 72.12954 26.779814 72.61297 26.71875 72.5625 C 26.65769 72.51203 27.19209 72.91713 27.125 72.875 C 27.05791 72.83287 27.665733 73.15808 27.59375 73.125 C 27.52177 73.09192 28.138163 73.304726 28.0625 73.28125 C 27.98684 73.25778 28.671818 73.41972 28.59375 73.40625 C 28.51568 73.39278 29.172905 73.47199 29.09375 73.46875 C 29.01459 73.46555 29.703907 73.46175 29.625 73.46875 C 29.54609 73.47575 30.202328 73.35779 30.125 73.375 C 30.135416 73.37505 30.145834 73.37505 30.15625 73.375 L 38.1875 71.5625 L 38.375 71.53125 C 41.39147 72.37486 44.59931 72.875 47.96875 72.875 C 55.70108 72.875 62.792206 70.497894 68.09375 66.4375 C 73.40448 62.37007 76.96875 56.430233 76.96875 49.71875 C 76.96875 43.007164 73.40645 37.046867 68.09375 32.96875 C 62.79003 28.897532 55.69966 26.53125 47.96875 26.53125 z " display="inline" fill="#000000" fill-opacity="0.05882353" fill-rule="nonzero" stroke="none" stroke-width="0" visibility="visible"/>
<path color="#000000" d="M 47.96875 28.625 C 40.67247 28.625 34.019783 30.867687 29.125 34.625 C 24.227713 38.384235 21.0625 43.75173 21.0625 49.71875 C 21.0625 55.53046 24.178352 60.64817 28.84375 64.375 L 27.4375 68.90625 C 27.4373 68.916664 27.4373 68.927086 27.4375 68.9375 C 27.4358 68.9432 27.40758 69.02542 27.40625 69.03125 C 27.40495 69.03705 27.37595 69.150345 27.375 69.15625 C 27.374048 69.16215 27.375565 69.27529 27.375 69.28125 C 27.374435 69.28725 27.375177 69.40027 27.375 69.40625 C 27.374823 69.41225 27.374788 69.52527 27.375 69.53125 C 27.375212 69.53725 27.374401 69.6503 27.375 69.65625 C 27.375599 69.66225 27.374016 69.775345 27.375 69.78125 C 27.375984 69.78715 27.40488 69.90042 27.40625 69.90625 C 27.40765 69.91205 27.43576 70.02553 27.4375 70.03125 C 27.4392 70.03695 27.46664 70.1194 27.46875 70.125 C 27.47085 70.1306 27.52878 70.24455 27.53125 70.25 C 27.53375 70.2555 27.59093 70.36972 27.59375 70.375 C 27.59655 70.3803 27.6531 70.46367 27.65625 70.46875 C 27.65945 70.47385 27.71527 70.55763 27.71875 70.5625 C 27.72225 70.5674 27.77746 70.68287 27.78125 70.6875 C 27.78505 70.6921 27.87092 70.74562 27.875 70.75 C 27.8791 70.7544 27.96439 70.83965 27.96875 70.84375 C 27.97315 70.84785 28.05789 70.93369 28.0625 70.9375 C 28.0671 70.9413 28.1514 70.99649 28.15625 71.0 C 28.16115 71.0035 28.24493 71.09057 28.25 71.09375 C 28.2551 71.09695 28.33849 71.1534 28.34375 71.15625 C 28.34905 71.15905 28.463312 71.185 28.46875 71.1875 C 28.47415 71.19 28.588161 71.24786 28.59375 71.25 C 28.59935 71.2521 28.68179 71.27948 28.6875 71.28125 C 28.6932 71.28305 28.80668 71.3111 28.8125 71.3125 C 28.8183 71.3139 28.931602 71.34273 28.9375 71.34375 C 28.9434 71.34475 29.05655 71.37437 29.0625 71.375 C 29.0685 71.37563 29.18152 71.374756 29.1875 71.375 C 29.1935 71.375244 29.306519 71.375145 29.3125 71.375 C 29.3185 71.374855 29.43154 71.375534 29.4375 71.375 C 29.4435 71.374466 29.556587 71.34467 29.5625 71.34375 C 29.5684 71.342834 29.68166 71.3138 29.6875 71.3125 L 37.71875 69.5 L 38.3125 69.375 C 41.312828 70.27466 44.574997 70.78125 47.96875 70.78125 C 55.26483 70.78125 61.918114 68.52981 66.8125 64.78125 C 71.70945 61.03073 74.875 55.68574 74.875 49.71875 C 74.875 43.75173 71.709785 38.384235 66.8125 34.625 C 61.917717 30.867687 55.26503 28.625 47.96875 28.625 z " display="inline" fill="#000000" fill-opacity="0.05882353" fill-rule="nonzero" stroke="none" stroke-width="0" visibility="visible"/>
<linearGradient gradientTransform="matrix(1 0 0 -1 -300.9004 -120.5996)" gradientUnits="userSpaceOnUse" id="SVGID_2_" x1="348.877" x2="348.877" xlink:actuate="onLoad" xlink:show="other" xlink:type="simple" y1="-128.8535" y2="-208.0991">
<stop offset="0" stop-color="#ffffff"/>
<stop offset="1" stop-color="#ffffff" stop-opacity="0"/>
</linearGradient>
<path color="#000000" d="M 47.977 30.545954 C 34.172848 30.545954 22.977001 39.12213 22.977001 49.712624 C 22.977001 55.281906 26.080936 60.28979 31.022978 63.793083 L 29.24137 69.454 L 37.287346 67.643654 L 38.32183 67.41377 C 41.289417 68.3668 44.558617 68.87929 47.977005 68.87929 C 61.78116 68.87929 72.977005 60.303112 72.977005 49.712624 C 72.977005 39.12213 61.78116 30.545956 47.977005 30.545956 z " display="inline" fill="#000000" fill-opacity="0.11764706" fill-rule="nonzero" stroke="none" stroke-width="0" visibility="visible"/>
<path d="M 47.977 8.0 C 18.342 8.0 7.977001 18.365 7.977001 48.0 C 7.977001 77.633 18.342 88.0 47.977 88.0 C 77.613 88.0 87.977005 77.633 87.977005 48.0 C 87.977 18.365 77.613 8.0 47.977 8.0 z M 47.977 87.0 C 18.819 87.0 8.977001 77.158 8.977001 48.0 C 8.977001 18.842005 18.819 9.0 47.977 9.0 C 77.135 9.0 86.977005 18.842 86.977005 48.0 C 86.977 77.159 77.134 87.0 47.977 87.0 z " fill="url(#SVGID_2_)" fill-opacity="0.25"/>
<path color="#000000" d="M 47.96875 29.4375 C 40.840454 29.4375 34.361732 31.64526 29.625 35.28125 C 24.888268 38.91724 21.875 44.0395 21.875 49.71875 C 21.875 55.4304 25.001926 60.488472 29.78125 64.125 L 28.21875 69.15625 C 28.1084 69.5266 28.202429 69.9277 28.465876 70.21042 C 28.729322 70.49314 29.12279 70.61521 29.5 70.53125 L 37.53125 68.71875 L 38.34375 68.53125 C 41.326782 69.44781 44.57786 69.96875 47.96875 69.96875 C 55.096226 69.96875 61.575478 67.75304 66.3125 64.125 C 71.04952 60.496964 74.0625 55.398 74.0625 49.71875 C 74.0625 44.0395 71.04923 38.91724 66.3125 35.28125 C 61.575768 31.64526 55.09705 29.4375 47.96875 29.4375 z " display="inline" fill="#000000" fill-opacity="0.05882353" fill-rule="nonzero" stroke="none" stroke-width="0" visibility="visible"/>
<linearGradient gradientTransform="matrix(-1 0 0 -1 6719.4023 -120.5996)" gradientUnits="userSpaceOnUse" x1="6671.4004" x2="6671.4004" xlink:actuate="onLoad" xlink:show="other" xlink:type="simple" y1="-152.3267" y2="-186.4955">
<stop offset="0" stop-color="#fafcef"/>
<stop offset="0.3232" stop-color="#fafcef"/>
<stop offset="1" stop-color="#d0cbc5"/>
</linearGradient>
<linearGradient gradientTransform="matrix(1 0 0 -1 -300.9004 -120.5996)" gradientUnits="userSpaceOnUse" x1="348.9014" x2="348.9014" xlink:actuate="onLoad" xlink:show="other" xlink:type="simple" y1="-188.7227" y2="-168.521">
<stop offset="0" stop-color="#000000"/>
<stop offset="1" stop-color="#000000" stop-opacity="0"/>
</linearGradient>
<linearGradient gradientTransform="matrix(1 0 0 -1 -300.9004 -120.5996)" gradientUnits="userSpaceOnUse" x1="348.8955" x2="348.8955" xlink:actuate="onLoad" xlink:show="other" xlink:type="simple" y1="-187.458" y2="-172.9541">
<stop offset="0" stop-color="#000000"/>
<stop offset="1" stop-color="#000000" stop-opacity="0"/>
</linearGradient>
<rect fill="none" height="96" width="96"/>
<path color="#000000" d="M 47.977005 28.545977 C 34.17285 28.545977 22.977005 37.122154 22.977005 47.712646 C 22.977005 53.28193 26.08094 58.289814 31.022982 61.793106 L 29.241373 67.454025 L 37.28735 65.64368 L 38.32183 65.413795 C 41.289417 66.36682 44.558617 66.87931 47.977005 66.87931 C 61.78116 66.87931 72.977005 58.303135 72.977005 47.712646 C 72.977005 37.122154 61.78116 28.545979 47.977005 28.545979 z " display="inline" fill="url(#linearGradient3869)" fill-opacity="1" fill-rule="nonzero" stroke="none" stroke-width="0" visibility="visible"/>
<path color="#000000" d="M 47.977005 28.545977 C 34.17285 28.545977 22.977005 37.122154 22.977005 47.712646 C 22.977005 53.28193 26.08094 58.289814 31.022982 61.793106 L 29.241373 67.454025 L 37.28735 65.64368 L 38.32183 65.413795 C 41.289417 66.36682 44.558617 66.87931 47.977005 66.87931 C 61.78116 66.87931 72.977005 58.303135 72.977005 47.712646 C 72.977005 37.122154 61.78116 28.545979 47.977005 28.545979 z " display="inline" fill="url(#linearGradient3873)" fill-opacity="1" fill-rule="nonzero" stroke="none" stroke-width="0" visibility="visible"/>
</svg>
