<?xml version="1.0" encoding="UTF-8"?>
<svg xmlns="http://www.w3.org/2000/svg" xmlns:xlink="http://www.w3.org/1999/xlink" baseProfile="tiny" contentScriptType="text/ecmascript" contentStyleType="text/css" height="96px" preserveAspectRatio="xMidYMid meet" version="1.1" viewBox="0 0 96 96" width="96px" x="0px" y="0px" zoomAndPan="magnify">
<defs>
<linearGradient id="linearGradient3804">
<stop offset="0" stop-color="#ffffff" stop-opacity="1"/>
<stop offset="1" stop-color="#ffffff" stop-opacity="0.78431374"/>
</linearGradient>
<linearGradient>
<stop offset="0" stop-color="#efaf33" stop-opacity="1"/>
<stop offset="1" stop-color="#efa233" stop-opacity="1"/>
</linearGradient>
<linearGradient gradientTransform="matrix(0,1,-1,0,96,0)" gradientUnits="userSpaceOnUse" id="linearGradient3800" x1="8" x2="88" y1="48" y2="48">
<stop offset="0" stop-color="#efaf33" stop-opacity="1"/>
<stop offset="1" stop-color="#efa233" stop-opacity="1"/>
</linearGradient>
<linearGradient gradientUnits="userSpaceOnUse" id="linearGradient3810" x1="42.649574" x2="42.649574" y1="23.34491" y2="75.386696">
<stop offset="0" stop-color="#ffffff" stop-opacity="1"/>
<stop offset="1" stop-color="#ffffff" stop-opacity="0.78431374"/>
</linearGradient>
<linearGradient gradientTransform="matrix(0,1,-1,0,96,0)" gradientUnits="userSpaceOnUse" id="linearGradient3814" x1="42.649574" x2="42.649574" y1="23.34491" y2="75.386696">
<stop offset="0" stop-color="#efaf33" stop-opacity="1"/>
<stop offset="1" stop-color="#efa233" stop-opacity="1"/>
</linearGradient>
</defs>
<path d="M 88.0 49.0 C 88.0 78.635 77.639 89.0 48.0 89.0 C 18.365 89.0 8.0 78.635 8.0 49.0 C 8.0 19.367 18.365 9.0 48.0 9.0 C 77.637 9.0 88.0 19.367 88.0 49.0 z " fill-opacity="0.4"/>
<linearGradient gradientTransform="matrix(1 0 0 -1 -177.5996 -203.9004)" gradientUnits="userSpaceOnUse" x1="225.5996" x2="225.5996" y1="-211.9004" y2="-291.9004">
<stop offset="0" stop-color="#fabf37"/>
<stop offset="1" stop-color="#de6f1d"/>
</linearGradient>
<path d="M 48.0 88.0 C 18.367 88.0 8.0 77.637 8.0 48.0 C 8.0 18.365 18.367 8.0 48.0 8.0 C 77.635 8.0 88.0 18.365 88.0 48.0 C 88.0 77.637 77.635 88.0 48.0 88.0 z " fill="url(#linearGradient3800)" fill-opacity="1"/>
<rect fill="none" height="96" width="96"/>
<linearGradient gradientTransform="matrix(1 0 0 -1 -177.5996 -203.9004)" gradientUnits="userSpaceOnUse" id="SVGID_2_" x1="225.5996" x2="225.5996" y1="-212.1533" y2="-291.3984">
<stop offset="0" stop-color="#ffffff"/>
<stop offset="1" stop-color="#ffffff" stop-opacity="0"/>
</linearGradient>
<path d="M 48.0 8.0 C 18.365 8.0 8.0 18.365 8.0 48.0 C 8.0 77.633 18.365 88.0 48.0 88.0 C 77.637 88.0 88.0 77.633 88.0 48.0 C 88.0 18.365 77.637 8.0 48.0 8.0 z M 48.0 87.0 C 18.842 87.0 9.0 77.158 9.0 48.0 C 9.0 18.842005 18.842 9.0 48.0 9.0 C 77.158005 9.0 87.0 18.842 87.0 48.0 C 87.0 77.158005 77.158 87.0 48.0 87.0 z " fill="url(#SVGID_2_)" fill-opacity="0.25"/>
<path d="M 41.01 71.305 C 40.149 71.305 39.450996 70.606 39.450996 69.744 C 39.450996 68.885 40.147995 68.185005 41.009995 68.185005 L 48.804993 68.185005 L 48.804993 65.06801 L 35.29499 65.06801 L 35.29499 30.774 L 60.23399 30.774 L 60.23399 56.755 L 63.35299 56.755 L 63.35299 30.774 C 63.35299 30.203 63.17799 29.3 62.96599 28.77 L 61.65899 25.503 C 61.446987 24.973 60.80599 24.539 60.23299 24.539 L 35.295 24.539 C 34.724 24.539 34.080997 24.974 33.869 25.504 L 32.562 28.771 C 32.35 29.301 32.175 30.203 32.175 30.774 L 32.175 68.185 C 32.175 68.756 32.35 69.66 32.562 70.190994 L 33.869 73.45699 C 34.081 73.98599 34.723 74.42199 35.295 74.42199 L 49.516 74.42199 C 49.065 73.47599 48.805 72.41999 48.805 71.30499 L 41.01 71.30499 z M 70.627 58.834 L 56.078 58.834 L 50.883 53.637 L 50.883 71.305 C 50.883 74.07601 53.138 76.5 56.078 76.5 L 70.627 76.5 C 73.565 76.5 75.824 74.076 75.824 71.305 L 75.824 64.03 C 75.824 61.255 73.564 58.834 70.627 58.834 z M 56.078 69.744 C 54.932 69.744 54.0 68.81201 54.0 67.666 C 54.0 66.52 54.932 65.588 56.078 65.588 C 57.224 65.588 58.156 66.52 58.156 67.666 C 58.156 68.81201 57.225 69.744 56.078 69.744 z M 63.354 69.744 C 62.208 69.744 61.276 68.81201 61.276 67.666 C 61.276 66.52 62.208 65.588 63.354 65.588 C 64.5 65.588 65.432 66.52 65.432 67.666 C 65.432 68.81201 64.5 69.744 63.354 69.744 z M 70.627 69.744 C 69.480995 69.744 68.549 68.81201 68.549 67.666 C 68.549 66.52 69.480995 65.588 70.627 65.588 C 71.773 65.588 72.705 66.52 72.705 67.666 C 72.705 68.81201 71.773 69.744 70.627 69.744 z " fill-opacity="0.3"/>
<path d="M 56.078 78.461 C 54.053 78.461 52.129997 77.726 50.628 76.383 L 35.295 76.383 C 33.486 76.383 31.754995 75.21 31.083998 73.531 L 29.777 70.265 C 29.422998 69.376 29.175 68.094 29.175 67.146 L 29.175 29.735 C 29.175 28.784 29.422998 27.502 29.777 26.617 L 31.083998 23.351 C 31.752998 21.673 33.484997 20.5 35.295 20.5 L 60.233997 20.5 C 62.043 20.5 63.775 21.672 64.445 23.351 L 65.752 26.615 C 66.105995 27.504 66.354 28.787 66.354 29.736 L 66.354 54.796 L 70.627 54.796 C 75.147 54.796 78.824 58.473 78.824 62.990997 L 78.824 70.266 C 78.824 74.785 75.146 78.461 70.627 78.461 L 56.078 78.461 z M 47.883 61.029 L 47.883 45.352 L 57.235 54.709 L 57.235 32.735 L 38.295 32.735 L 38.295 61.029 L 47.883 61.029 z " fill-opacity="0.02"/>
<path d="M 56.078 77.711 C 54.135 77.711 52.316 76.976 50.921997 75.633 L 35.295 75.633 C 33.786 75.633 32.339996 74.654 31.78 73.253 L 30.473 69.987 C 30.156 69.191 29.925 67.997 29.925 67.146 L 29.925 29.735 C 29.925 28.882 30.155 27.689 30.473 26.896 L 31.78 23.63 C 32.338997 22.229 33.784 21.25 35.295 21.25 L 60.233997 21.25 C 61.743996 21.25 63.188995 22.229 63.748997 23.629 L 65.056 26.893 C 65.373 27.689 65.604 28.884 65.604 29.735 L 65.604 55.545 L 70.627 55.545 C 74.733 55.545 78.074 58.885 78.074 62.99 L 78.074 70.265 C 78.074 74.37 74.732994 77.71 70.627 77.71 L 56.078 77.71 z M 48.633 61.779 L 48.633 47.163 L 57.01 55.545 L 57.984997 55.545 L 57.984997 31.985 L 37.545 31.985 L 37.545 61.779 L 48.633 61.779 z " fill-opacity="0.02"/>
<path d="M 56.078 76.961 C 54.175 76.961 52.454 76.162 51.233 74.883 L 35.295 74.883 C 34.103996 74.883 32.919 74.079994 32.476997 72.975 L 31.169998 69.709 C 30.888 69.003 30.676 67.901 30.676 67.146 L 30.676 29.735 C 30.676 28.979 30.888 27.878 31.169998 27.174 L 32.476997 23.908 C 32.917 22.803 34.103 22.0 35.295 22.0 L 60.233997 22.0 C 61.424995 22.0 62.610996 22.802 63.052 23.908 L 64.359 27.173 C 64.641 27.881 64.853004 28.982 64.853004 29.736 L 64.853004 56.296 L 70.62601 56.296 C 74.31901 56.296 77.323006 59.3 77.323006 62.990997 L 77.323006 70.266 C 77.323006 73.957 74.31901 76.961 70.62601 76.961 L 56.078 76.961 z M 41.01 68.766 L 49.383 68.766 L 49.383 68.647 L 41.01 68.647 L 41.01 68.766 z M 70.627 66.049 C 70.309 66.049 70.049 66.309006 70.049 66.62701 C 70.049 66.94501 70.309 67.20501 70.627 67.20501 C 70.945 67.20501 71.205 66.94501 71.205 66.62701 C 71.205 66.309006 70.945 66.049 70.627 66.049 z M 63.354 66.049 C 63.036 66.049 62.776 66.309006 62.776 66.62701 C 62.776 66.94501 63.036 67.20501 63.354 67.20501 C 63.672 67.20501 63.932 66.94501 63.932 66.62701 C 63.932 66.309006 63.672 66.049 63.354 66.049 z M 56.078 66.049 C 55.76 66.049 55.5 66.309006 55.5 66.62701 C 55.5 66.94501 55.76 67.20501 56.078 67.20501 C 56.396 67.20501 56.656 66.94501 56.656 66.62701 C 56.656 66.309006 56.396 66.049 56.078 66.049 z M 49.383 62.529 L 49.383 48.975 L 56.698997 56.295 L 58.733997 56.295 L 58.733997 31.235 L 36.795 31.235 L 36.795 62.529 L 49.383 62.529 z " fill-opacity="0.02"/>
<path d="M 56.078 76.211 C 52.8 76.211 50.133 73.544 50.133 70.266 L 50.133 50.786 L 56.389 57.045 L 70.627 57.045 C 73.906 57.045 76.574 59.712 76.574 62.99 L 76.574 70.265 C 76.574 73.543 73.906 76.21 70.627 76.21 L 56.078 76.21 z M 70.627 65.299 C 69.895 65.299 69.299 65.895004 69.299 66.62701 C 69.299 67.35901 69.895 67.95501 70.627 67.95501 C 71.359 67.95501 71.955 67.35901 71.955 66.62701 C 71.955 65.895004 71.359 65.299 70.627 65.299 z M 63.354 65.299 C 62.622 65.299 62.026 65.895004 62.026 66.62701 C 62.026 67.35901 62.622 67.95501 63.354 67.95501 C 64.086 67.95501 64.682 67.35901 64.682 66.62701 C 64.682 65.895004 64.086 65.299 63.354 65.299 z M 56.078 65.299 C 55.346 65.299 54.75 65.895004 54.75 66.62701 C 54.75 67.35901 55.346 67.95501 56.078 67.95501 C 56.81 67.95501 57.406 67.35901 57.406 66.62701 C 57.406 65.895004 56.811 65.299 56.078 65.299 z M 35.295 74.133 C 34.413 74.133 33.501 73.51601 33.172997 72.69601 L 31.865995 69.43001 C 31.618998 68.811005 31.425997 67.80801 31.425997 67.14601 L 31.425997 29.735 C 31.425997 29.073 31.618998 28.07 31.865995 27.453 L 33.172997 24.186 C 33.499996 23.367 34.411995 22.749 35.295 22.749 L 60.233997 22.749 C 61.116997 22.749 62.028996 23.366 62.356 24.185 L 63.663 27.45 C 63.91 28.070002 64.103 29.073 64.103 29.734 L 64.103 56.463 L 59.483997 56.463 L 59.483997 30.485 L 36.045 30.485 L 36.045 63.279 L 49.555 63.279 L 49.555 67.896 L 41.01 67.896 C 40.564 67.896 40.200996 68.258 40.200996 68.704994 C 40.200996 69.15199 40.563995 69.51599 41.009995 69.51599 L 49.554993 69.51599 L 49.554993 70.26599 C 49.554993 71.23099 49.769993 72.17099 50.193993 73.06099 L 50.70399 74.13299 L 35.295 74.13299 z " fill-opacity="0.02"/>
<linearGradient gradientTransform="matrix(1 0 0 -1 -177.5996 -203.9004)" gradientUnits="userSpaceOnUse" x1="231.6006" x2="231.6006" y1="-279.3613" y2="-227.4004">
<stop offset="0" stop-color="#d0cbc5"/>
<stop offset="0.5031" stop-color="#fafcef"/>
<stop offset="0.9693" stop-color="#ffffff"/>
<stop offset="1" stop-color="#ffffff"/>
</linearGradient>
<path d="M 48.0 68.705 C 48.00026 67.85972 48.571327 67.146 50.0 67.146 L 50.0 64.029015 L 35.29499 64.029015 L 35.29499 29.735004 L 60.23399 29.735004 L 60.23399 55.714005 L 63.35299 55.714005 L 63.35299 29.735004 C 63.35299 27.355013 62.205616 23.500002 60.23299 23.500002 L 35.295 23.500002 C 32.818085 23.500002 32.175 27.723473 32.175 29.735004 L 32.175 67.146 C 32.175 69.59151 32.927975 73.383 35.295 73.383 L 50.0 73.383 L 50.0 70.266 C 48.624615 70.42787 47.999737 69.55069 48.0 68.705 z M 70.627 57.795 L 56.078 57.795 L 50.883 52.598003 L 50.883 70.26601 C 50.883 73.037 53.138 75.461006 56.078 75.461006 L 70.627 75.461006 C 73.565 75.461006 75.824 73.037 75.824 70.26601 L 75.824 62.990005 C 75.824 60.216007 73.564 57.79501 70.627 57.79501 z M 56.078 68.705 C 54.932 68.705 54.0 67.773 54.0 66.627 C 54.0 65.480995 54.932 64.548996 56.078 64.548996 C 57.224 64.548996 58.156 65.480995 58.156 66.627 C 58.156 67.773 57.225 68.705 56.078 68.705 z M 63.354 68.705 C 62.208 68.705 61.276 67.773 61.276 66.627 C 61.276 65.480995 62.208 64.548996 63.354 64.548996 C 64.5 64.548996 65.432 65.480995 65.432 66.627 C 65.432 67.773 64.5 68.705 63.354 68.705 z M 70.627 68.705 C 69.480995 68.705 68.549 67.773 68.549 66.627 C 68.549 65.480995 69.48099 64.548996 70.627 64.548996 C 71.773 64.548996 72.705 65.480995 72.705 66.627 C 72.705 67.773 71.773 68.705 70.627 68.705 z " fill="url(#linearGradient3814)" fill-opacity="1"/>
<path d="M 48.0 68.705 C 48.00026 67.85972 48.571327 67.146 50.0 67.146 L 50.0 64.029015 L 35.29499 64.029015 L 35.29499 29.735004 L 60.23399 29.735004 L 60.23399 55.714005 L 63.35299 55.714005 L 63.35299 29.735004 C 63.35299 27.355013 62.205616 23.500002 60.23299 23.500002 L 35.295 23.500002 C 32.818085 23.500002 32.175 27.723473 32.175 29.735004 L 32.175 67.146 C 32.175 69.59151 32.927975 73.383 35.295 73.383 L 50.0 73.383 L 50.0 70.266 C 48.624615 70.42787 47.999737 69.55069 48.0 68.705 z M 70.627 57.795 L 56.078 57.795 L 50.883 52.598003 L 50.883 70.26601 C 50.883 73.037 53.138 75.461006 56.078 75.461006 L 70.627 75.461006 C 73.565 75.461006 75.824 73.037 75.824 70.26601 L 75.824 62.990005 C 75.824 60.216007 73.564 57.79501 70.627 57.79501 z M 56.078 68.705 C 54.932 68.705 54.0 67.773 54.0 66.627 C 54.0 65.480995 54.932 64.548996 56.078 64.548996 C 57.224 64.548996 58.156 65.480995 58.156 66.627 C 58.156 67.773 57.225 68.705 56.078 68.705 z M 63.354 68.705 C 62.208 68.705 61.276 67.773 61.276 66.627 C 61.276 65.480995 62.208 64.548996 63.354 64.548996 C 64.5 64.548996 65.432 65.480995 65.432 66.627 C 65.432 67.773 64.5 68.705 63.354 68.705 z M 70.627 68.705 C 69.480995 68.705 68.549 67.773 68.549 66.627 C 68.549 65.480995 69.48099 64.548996 70.627 64.548996 C 71.773 64.548996 72.705 65.480995 72.705 66.627 C 72.705 67.773 71.773 68.705 70.627 68.705 z " fill="url(#linearGradient3810)" fill-opacity="1"/>
</svg>
