<?xml version="1.0" encoding="UTF-8"?>
<svg xmlns="http://www.w3.org/2000/svg" xmlns:xlink="http://www.w3.org/1999/xlink" baseProfile="tiny" contentScriptType="text/ecmascript" contentStyleType="text/css" height="96px" preserveAspectRatio="xMidYMid meet" version="1.1" viewBox="0 0 96 96" width="96px" x="0px" y="0px" zoomAndPan="magnify">
<defs>
<linearGradient>
<stop offset="0" stop-color="#26a5f3" stop-opacity="1"/>
<stop offset="1" stop-color="#2697f3" stop-opacity="1"/>
</linearGradient>
<linearGradient>
<stop offset="0" stop-color="#9faebc" stop-opacity="1"/>
<stop offset="1" stop-color="#899cad" stop-opacity="1"/>
</linearGradient>
<linearGradient gradientTransform="matrix(0,1,-1,0,96,0)" gradientUnits="userSpaceOnUse" x1="8" x2="88" y1="48" y2="48">
<stop offset="0" stop-color="#9faebc" stop-opacity="1"/>
<stop offset="1" stop-color="#899cad" stop-opacity="1"/>
</linearGradient>
<linearGradient gradientTransform="matrix(0,1,-1,0,96,0)" gradientUnits="userSpaceOnUse" id="linearGradient3860" x1="8" x2="88" y1="48" y2="48">
<stop offset="0" stop-color="#26a5f3" stop-opacity="1"/>
<stop offset="1" stop-color="#2697f3" stop-opacity="1"/>
</linearGradient>
</defs>
<path d="M 88.0 49.0 C 88.0 78.635 77.639 89.0 48.0 89.0 C 18.366 89.0 8.0 78.635 8.0 49.0 C 8.0 19.367 18.366 9.0 48.0 9.0 C 77.637 9.0 88.0 19.367 88.0 49.0 z " fill-opacity="0.4" stroke-opacity="0.4"/>
<linearGradient gradientUnits="userSpaceOnUse" x1="48.0005" x2="48.0005" xlink:actuate="onLoad" xlink:show="other" xlink:type="simple" y1="88" y2="8.0005">
<stop offset="0" stop-color="#3d465b"/>
<stop offset="1" stop-color="#a1b2c0"/>
</linearGradient>
<path d="M 8.0 48.0 C 8.0 18.365 18.361 8.0 48.0 8.0 C 77.634 8.0 88.0 18.365 88.0 48.0 C 88.0 77.633 77.634 88.0 48.0 88.0 C 18.363 88.0 8.0 77.633 8.0 48.0 z " fill="url(#linearGradient3860)" fill-opacity="1"/>
<linearGradient gradientTransform="matrix(1 0 0 1 193.9253 -815.8408)" gradientUnits="userSpaceOnUse" id="SVGID_2_" x1="-145.9253" x2="-145.9253" xlink:actuate="onLoad" xlink:show="other" xlink:type="simple" y1="824.0938" y2="903.3385">
<stop offset="0" stop-color="#ffffff"/>
<stop offset="1" stop-color="#ffffff" stop-opacity="0"/>
</linearGradient>
<path d="M 48.0 8.0 C 18.366 8.0 8.0 18.367 8.0 48.0 C 8.0 77.635 18.366 88.0 48.0 88.0 C 77.639 88.0 88.0 77.635 88.0 48.0 C 88.0 18.367 77.637 8.0 48.0 8.0 z M 48.0 87.0 C 18.842 87.0 9.0 77.158 9.0 48.0 C 9.0 18.842005 18.842 9.0 48.0 9.0 C 77.159 9.0 87.0 18.842 87.0 48.0 C 87.0 77.158005 77.159 87.0 48.0 87.0 z " fill="url(#SVGID_2_)" fill-opacity="0.15"/>
<linearGradient gradientTransform="matrix(0.95325904,0,0,0.95325904,-4.6912532,5.6457946)" gradientUnits="userSpaceOnUse" id="SVGID_3_" x1="34.8496" x2="61.3034" xlink:actuate="onLoad" xlink:show="other" xlink:type="simple" y1="19.9487" y2="72.3524">
<stop offset="0" stop-color="#ffffff"/>
<stop offset="1" stop-color="#ffffff"/>
</linearGradient>
<path d="M 26.239143 28.624104 C 26.00464 29.09406 25.813036 29.906237 25.813036 30.43053 L 25.813036 68.56089 C 25.813036 69.08518 26.00464 69.89736 26.239143 70.36732 L 28.196184 74.28045 L 53.934177 74.28045 L 55.89122 70.36732 C 56.12572 69.89736 56.31733 69.08518 56.31733 68.56089 L 56.31733 30.43053 C 56.31733 29.906237 56.12572 29.09406 55.89122 28.624104 L 53.934177 24.710974 L 28.196184 24.710974 L 26.239143 28.624104 z " fill="url(#SVGID_3_)"/>
<path d="M 28.196184 80.0 C 26.742464 80.0 25.435549 79.19259 24.787329 77.893295 L 22.828382 73.97922 C 22.326015 72.97257 22.0 71.59416 22.0 70.46741 L 22.0 32.337048 C 22.0 31.210297 22.326015 29.831882 22.828382 28.82524 L 24.785423 24.912111 C 25.4365 23.611866 26.74437 22.804457 28.196184 22.804457 L 53.934177 22.804457 C 55.387897 22.804457 56.694813 23.611866 57.34494 24.911158 L 59.301983 28.825235 C 59.806255 29.83188 60.130363 31.210293 60.130363 32.337044 L 60.130363 70.46741 C 60.130363 71.59416 59.806255 72.97257 59.301983 73.97921 L 57.344936 77.892334 C 56.693863 79.19259 55.38599 80.0 53.934177 80.0 L 28.196184 80.0 z " fill-opacity="0.02000002"/>
<path d="M 28.196184 79.046745 C 27.10661 79.046745 26.125706 78.44142 25.639544 77.46719 L 23.680595 73.55311 C 23.24591 72.68088 22.95326 71.44164 22.95326 70.46741 L 22.95326 32.337048 C 22.95326 31.362816 23.24591 30.12358 23.681553 29.252302 L 25.638592 25.339172 C 26.127611 24.363035 27.106611 23.757715 28.196186 23.757715 L 53.93418 23.757715 C 55.02566 23.757715 56.00466 24.363035 56.49082 25.337269 L 58.449768 29.251348 C 58.884453 30.12358 59.177105 31.362818 59.177105 32.337048 L 59.177105 70.46741 C 59.177105 71.441635 58.884453 72.68088 58.448814 73.55216 L 56.49177 77.46529 C 56.004658 78.44142 55.02566 79.046745 53.934177 79.046745 L 28.196184 79.046745 z " fill-opacity="0.05"/>
<path d="M 28.196184 78.09348 C 27.4698 78.09348 26.816818 77.690254 26.49271 77.041084 L 24.533764 73.127 C 24.164852 72.38728 23.90652 71.293884 23.90652 70.46741 L 23.90652 32.337048 C 23.90652 31.510572 24.164852 30.417185 24.533764 29.678408 L 26.490808 25.76528 C 26.81682 25.114204 27.4698 24.710976 28.196186 24.710976 L 53.93418 24.710976 C 54.660564 24.710976 55.31355 25.114204 55.63956 25.763374 L 57.596603 29.677456 C 57.96647 30.417185 58.22385 31.510572 58.22385 32.337048 L 58.22385 70.46741 C 58.22385 71.293884 57.96647 72.38727 57.596603 73.126045 L 55.63956 77.03918 C 55.313545 77.69025 54.660564 78.093475 53.93418 78.093475 L 28.196188 78.093475 z " fill-opacity="0.05"/>
<path d="M 28.196184 77.14022 C 27.8349 77.14022 27.505072 76.936226 27.343018 76.61307 L 25.385977 72.69994 C 25.086653 72.09844 24.859776 71.13946 24.859776 70.46741 L 24.859776 32.337048 C 24.859776 31.665 25.08665 30.706022 25.386929 30.104515 L 27.343967 26.191387 C 27.505068 25.868233 27.834896 25.664236 28.196182 25.664236 L 53.934177 25.664236 C 54.29546 25.664236 54.625286 25.868233 54.787346 26.191387 L 56.744385 30.104515 C 57.045612 30.706022 57.270584 31.665 57.270584 32.337048 L 57.270584 70.46741 C 57.270584 71.13946 57.045612 72.098434 56.74343 72.699936 L 54.78639 76.613075 C 54.62529 76.93622 54.295464 77.14022 53.934177 77.14022 L 28.196184 77.14022 z " fill-opacity="0.1"/>
<path d="M 26.239143 30.530622 C 26.00464 31.00058 25.813036 31.812756 25.813036 32.337048 L 25.813036 70.46741 C 25.813036 70.9917 26.00464 71.80388 26.239143 72.273834 L 28.196184 76.186966 L 53.934177 76.186966 L 55.89122 72.273834 C 56.12572 71.80388 56.31733 70.9917 56.31733 70.46741 L 56.31733 32.337048 C 56.31733 31.812754 56.12572 31.000578 55.89122 30.53062 L 53.934177 26.617493 L 28.196184 26.617493 L 26.239143 30.53062 z " fill-opacity="0.15"/>
<linearGradient gradientUnits="userSpaceOnUse" x1="34.8496" x2="61.3034" xlink:actuate="onLoad" xlink:show="other" xlink:type="simple" y1="19.9487" y2="72.3524">
<stop offset="0" stop-color="#cfcfcf"/>
<stop offset="0.26" stop-color="#f7f7f7"/>
<stop offset="0.74" stop-color="#f7f7f7"/>
<stop offset="1" stop-color="#878787"/>
</linearGradient>
<path d="M 25.813036 30.43053 C 25.813036 43.140648 25.813036 68.56089 25.813036 68.56089 C 26.04178 70.63833 26.110723 74.28044 28.196184 74.28044 L 53.934177 74.28044 C 56.021095 74.28044 56.31733 70.606125 56.31733 68.56088 L 56.31733 30.430525 C 56.08858 28.353085 56.01964 24.710968 53.934177 24.710968 L 28.196184 24.710968 C 26.109264 24.710968 25.813036 28.385286 25.813036 30.430525 z " fill="#ffffff" fill-opacity="1"/>
<linearGradient gradientTransform="matrix(0.45454545,0,0,1,23.181818,0)" gradientUnits="userSpaceOnUse" x1="47.9995" x2="47.9995" xlink:actuate="onLoad" xlink:show="other" xlink:type="simple" y1="66" y2="69">
<stop offset="0" stop-color="#808184"/>
<stop offset="1" stop-color="#ffffff"/>
</linearGradient>
<path d="M 39.64631 71.39459 C 39.29415 71.11003 39.12635 70.4847 39.12635 69.95908 C 39.12635 69.433464 39.294155 68.808136 39.646313 68.523575 C 40.4235 67.89556 41.642235 67.89556 42.41943 68.523575 C 42.771587 68.808136 42.93939 69.433464 42.93939 69.95908 C 42.93939 70.4847 42.771584 71.11003 42.419422 71.39459 C 41.64224 72.022606 40.423496 72.022606 39.64631 71.39459 z " fill="#cbcbcb" fill-opacity="1"/>
<linearGradient gradientUnits="userSpaceOnUse" x1="48.0005" x2="48.0005" xlink:actuate="onLoad" xlink:show="other" xlink:type="simple" y1="68.5" y2="66.5">
<stop offset="0" stop-color="#323233"/>
<stop offset="1" stop-color="#5a5b5c"/>
</linearGradient>
<linearGradient gradientUnits="userSpaceOnUse" x1="48.0005" x2="48.0005" xlink:actuate="onLoad" xlink:show="other" xlink:type="simple" y1="68.5" y2="66.5">
<stop offset="0" stop-color="#ffffff" stop-opacity="0"/>
<stop offset="1" stop-color="#ffffff"/>
</linearGradient>
<linearGradient gradientUnits="userSpaceOnUse" x1="48.0005" x2="48.0005" xlink:actuate="onLoad" xlink:show="other" xlink:type="simple" y1="71.9014" y2="19.8005">
<stop offset="0" stop-color="#ffffff" stop-opacity="0"/>
<stop offset="1" stop-color="#ffffff"/>
</linearGradient>
<linearGradient gradientUnits="userSpaceOnUse" x1="47.9995" x2="47.9995" xlink:actuate="onLoad" xlink:show="other" xlink:type="simple" y1="66.583" y2="72.0836">
<stop offset="0" stop-color="#000000" stop-opacity="0.06"/>
<stop offset="1" stop-color="#000000" stop-opacity="0.2"/>
</linearGradient>
<linearGradient gradientUnits="userSpaceOnUse" x1="47.9995" x2="47.9995" xlink:actuate="onLoad" xlink:show="other" xlink:type="simple" y1="8.2393" y2="88.2878">
<stop offset="0" stop-color="#a1b2c0"/>
<stop offset="1" stop-color="#3d465b"/>
</linearGradient>
<path d="M 54.41081 63.7946 C 54.41081 65.36748 53.12391 66.65437 51.551033 66.65437 L 30.579332 66.65437 C 29.006454 66.65437 27.719557 65.36748 27.719557 63.7946 L 27.719557 31.38379 C 27.719557 29.810911 29.006454 28.524012 30.579332 28.524012 L 51.551033 28.524012 C 53.123913 28.524012 54.41081 29.810911 54.41081 31.38379 L 54.41081 63.7946 z " fill="#4195dc" fill-opacity="1"/>
<rect fill="none" height="96" width="96"/>
<path color="#000000" d="M 62.263676 24.429111 C 61.98734 24.788908 61.84401 25.233234 61.85801 25.686687 L 61.8783 45.097977 L 56.746586 39.966255 C 56.379303 39.582535 55.87232 39.36385 55.341167 39.360027 C 54.810013 39.35613 54.299946 39.567577 53.92718 39.94597 C 53.55776 40.32067 53.354053 40.827885 53.36168 41.354015 C 53.36928 41.880142 53.587627 42.381245 53.967747 42.745087 L 62.446243 51.223583 C 63.219204 51.985325 64.46332 51.97624 65.225075 51.203293 L 73.68329 42.745083 C 74.187256 42.250225 74.38686 41.522976 74.20612 40.840187 C 74.02539 40.1574 73.492134 39.62414 72.80933 39.443405 C 72.12655 39.262672 71.3993 39.462276 70.904434 39.966244 L 65.77272 45.097965 L 65.79301 25.686676 C 65.811295 24.875334 65.3289 24.136225 64.57886 23.82632 C 63.828808 23.51642 62.965405 23.699492 62.40567 24.28712 C 62.35596 24.332 62.30857 24.37938 62.26369 24.429104 z " display="inline" fill="#000000" fill-opacity="0.15686275" fill-rule="nonzero" stroke="none" visibility="visible"/>
<path color="#000000" d="M 63.25 21.96875 C 62.747425 22.075315 62.279552 22.346802 61.90625 22.71875 C 61.89594 22.72902 61.88516 22.73955 61.875 22.75 C 61.8685 22.7567 61.85022 22.7432 61.84375 22.75 C 61.78678 22.8037 61.74066 22.8786 61.6875 22.9375 C 61.676785 22.947613 61.666363 22.958036 61.65625 22.96875 C 61.282124 23.455868 61.081696 24.068138 61.09375 24.6875 L 61.09375 24.71875 L 61.125 42.28125 L 57.3125 38.4375 C 57.3065 38.4312 57.28733 38.4437 57.28125 38.4375 C 56.76672 37.9105 56.06077 37.630157 55.34375 37.625 C 54.628674 37.6198 53.931133 37.87344 53.40625 38.40625 C 52.892723 38.927116 52.614456 39.616173 52.625 40.34375 C 52.63526 41.05378 52.908516 41.764668 53.4375 42.28125 C 53.4438 42.28735 53.4312 42.30644 53.4375 42.3125 L 61.90625 50.75 C 62.96921 51.797527 64.69298 51.822548 65.75 50.75 L 74.21875 42.28125 C 74.91534 41.597248 75.22104 40.609364 74.96875 39.65625 C 74.71678 38.704365 73.9519 37.939465 73.0 37.6875 C 72.04689 37.435215 71.059006 37.74091 70.375 38.4375 L 66.53125 42.28125 L 66.53125 24.71875 L 66.53125 24.6875 C 66.54383 23.590836 65.918495 22.524902 64.875 22.09375 C 64.32877 21.868069 63.769196 21.858662 63.25 21.96875 z " display="inline" fill="#000000" fill-opacity="0.15686275" fill-rule="nonzero" stroke="none" visibility="visible"/>
<path color="#000000" d="M 62.263676 23.42924 C 61.98734 23.789036 61.84401 24.233362 61.85801 24.686811 L 61.8783 44.0981 L 56.746586 38.966377 C 56.379303 38.582657 55.87232 38.36397 55.341167 38.36015 C 54.810013 38.35625 54.299946 38.5677 53.92718 38.94609 C 53.55776 39.320793 53.354053 39.828007 53.36168 40.354137 C 53.36928 40.88027 53.587627 41.381367 53.967747 41.74521 L 62.446243 50.223705 C 63.219204 50.985447 64.46332 50.976364 65.225075 50.203415 L 73.68329 41.745205 C 74.187256 41.250347 74.38686 40.523094 74.20612 39.84031 C 74.02539 39.15752 73.492134 38.624264 72.80933 38.443527 C 72.12655 38.26279 71.3993 38.4624 70.904434 38.96637 L 65.77272 44.098087 L 65.79301 24.686798 C 65.811295 23.875456 65.3289 23.136345 64.57886 22.82644 C 63.828808 22.516542 62.965405 22.699615 62.40567 23.28724 C 62.35596 23.33212 62.30857 23.3795 62.26369 23.429226 z " display="inline" fill="#00e4e8" fill-opacity="1" fill-rule="nonzero" stroke="none" visibility="visible"/>
</svg>
