<?xml version="1.0" encoding="UTF-8"?>
<svg xmlns="http://www.w3.org/2000/svg" xmlns:xlink="http://www.w3.org/1999/xlink" baseProfile="tiny" contentScriptType="text/ecmascript" contentStyleType="text/css" height="96px" preserveAspectRatio="xMidYMid meet" version="1.1" viewBox="0 0 96 96" width="96px" x="0px" y="0px" zoomAndPan="magnify">
<defs>
<linearGradient id="linearGradient3801">
<stop offset="0" stop-color="#96d68b" stop-opacity="1"/>
<stop offset="1" stop-color="#79d68b" stop-opacity="1"/>
</linearGradient>
<linearGradient gradientTransform="matrix(0,1,-1,0,96.087998,-0.0879985)" gradientUnits="userSpaceOnUse" id="linearGradient3807" x1="8.087997" x2="88.088" y1="48" y2="48">
<stop offset="0" stop-color="#96d68b" stop-opacity="1"/>
<stop offset="1" stop-color="#79d68b" stop-opacity="1"/>
</linearGradient>
</defs>
<path d="M 88.0 49.0 C 88.0 78.635 77.639 89.0 48.0 89.0 C 18.367 89.0 8.0 78.635 8.0 49.0 C 8.0 19.367 18.367 9.0 48.0 9.0 C 77.637 9.0 88.0 19.367 88.0 49.0 z " fill-opacity="0.4"/>
<linearGradient gradientTransform="matrix(1 0 0 -1 -335.7793 -1565.3066)" gradientUnits="userSpaceOnUse" id="SVGID_1_" x1="383.7793" x2="383.7793" xlink:actuate="onLoad" xlink:show="other" xlink:type="simple" y1="-1573.5591" y2="-1652.8037">
<stop offset="0" stop-color="#ffffff"/>
<stop offset="1" stop-color="#ffffff" stop-opacity="0"/>
</linearGradient>
<path d="M 48.0 8.0 C 18.367 8.0 8.0 18.367 8.0 48.0 C 8.0 77.635 18.367 88.0 48.0 88.0 C 77.639 88.0 88.0 77.635 88.0 48.0 C 88.0 18.367 77.637 8.0 48.0 8.0 z M 48.0 87.0 C 18.842 87.0 9.0 77.158 9.0 48.0 C 9.0 18.842005 18.842 9.0 48.0 9.0 C 77.16 9.0 87.0 18.842 87.0 48.0 C 87.0 77.158005 77.16 87.0 48.0 87.0 z " fill="url(#SVGID_1_)" fill-opacity="0.15"/>
<path d="M 88.088 48.0 C 88.088 77.635 77.727 88.0 48.087997 88.0 C 18.454998 88.0 8.087997 77.635 8.087997 48.0 C 8.087997 18.368 18.454998 8.0 48.087997 8.0 C 77.725 8.0 88.088 18.367 88.088 48.0 z " fill-opacity="0.4"/>
<linearGradient gradientTransform="matrix(1 0 0 -1 -529.7051 -749.4648)" gradientUnits="userSpaceOnUse" x1="577.793" x2="577.793" xlink:actuate="onLoad" xlink:show="other" xlink:type="simple" y1="-837.4648" y2="-757.4648">
<stop offset="0" stop-color="#3d465b"/>
<stop offset="1" stop-color="#a1b2c0"/>
</linearGradient>
<path d="M 48.088 88.0 C 18.453001 88.0 8.088001 77.639 8.088001 48.0 C 8.088001 18.367 18.453001 8.0 48.088 8.0 C 77.721 8.0 88.088 18.367 88.088 48.0 C 88.088 77.637 77.721 88.0 48.087997 88.0 z " fill="url(#linearGradient3807)" fill-opacity="1"/>
<linearGradient gradientTransform="matrix(1 0 0 -1 -335.7793 -1565.3066)" gradientUnits="userSpaceOnUse" id="SVGID_3_" x1="383.8672" x2="383.8672" xlink:actuate="onLoad" xlink:show="other" xlink:type="simple" y1="-1573.5591" y2="-1652.8037">
<stop offset="0" stop-color="#ffffff"/>
<stop offset="1" stop-color="#ffffff" stop-opacity="0"/>
</linearGradient>
<path d="M 48.088 8.0 C 18.455002 8.0 8.088001 18.367 8.088001 48.0 C 8.088001 77.635 18.455002 88.0 48.088 88.0 C 77.727005 88.0 88.088 77.635 88.088 48.0 C 88.088 18.367 77.725 8.0 48.088 8.0 z M 48.088 87.0 C 18.93 87.0 9.088001 77.158 9.088001 48.0 C 9.088001 18.842005 18.93 9.0 48.088 9.0 C 77.248 9.0 87.088 18.842 87.088 48.0 C 87.088 77.158005 77.248 87.0 48.088 87.0 z " fill="url(#SVGID_3_)" fill-opacity="0.15"/>
<path d="M 52.972 75.25 C 45.41 75.25 35.629 71.463 29.289 67.707 L 29.103 67.613 C 23.835 64.648 22.412 61.691 22.14 59.73 L 22.122 59.578 L 22.117 59.422 C 22.23 57.721 23.429 56.586 25.034 56.586 C 25.347 56.586 25.555 56.629 25.555 56.629 L 26.11 56.731003 L 26.566 57.088 C 27.038 57.483 29.474 59.469 33.104 61.344 C 37.529 63.633003 41.862 64.793 45.98 64.793 C 47.33 64.793 48.665 64.664 49.962 64.409996 C 49.067997 63.360996 46.837 61.245995 41.309 57.507996 C 35.689 53.700996 29.648998 50.241997 27.932 49.27399 L 27.46 49.01 L 27.158998 48.553997 C 26.599998 47.708996 26.537998 46.695995 26.995 45.845997 C 27.845 44.263996 29.849998 44.132996 32.006 44.132996 C 33.798 44.132996 36.131 44.282997 38.389 44.427994 C 40.125 44.538994 41.892 44.652992 43.405 44.698994 C 42.548 44.13999 41.675 43.594994 41.08 43.22599 C 36.143997 40.149994 30.551 36.66299 29.474 32.616993 C 29.026 30.928991 29.381 28.974993 30.447998 27.256992 C 31.697 25.245993 34.492996 22.582993 40.719 21.320992 C 42.371 20.942991 44.163 20.748993 46.026997 20.748993 C 58.536995 20.748993 71.787994 30.04499 73.067 31.852991 L 73.938 33.08599 L 73.69 33.25999 C 73.784004 33.55299 73.85401 33.82899 73.903 34.04299 C 74.2 34.98899 74.086 35.89699 73.555 36.61299 C 73.081 37.256992 72.337 37.62599 71.516 37.62599 C 70.743 37.62599 70.077 37.282993 69.825 37.13499 C 61.899 33.12199 54.234997 31.69099 50.09399 31.69099 C 49.028996 31.69099 48.323994 31.78299 47.876995 31.87999 C 48.691994 32.92999 51.386993 35.46799 60.150993 41.34599 L 62.006992 42.58399 C 69.885994 47.82599 71.55699 49.000988 71.619 50.899982 C 71.642 51.725983 71.338 52.508987 70.758995 53.10499 C 69.57099 54.33399 67.59699 54.70699 62.312996 54.70699 C 61.738995 54.70699 61.132996 54.702988 60.49699 54.69499 C 68.968994 59.75599 69.69399 63.83399 68.68299 66.44699 C 65.69499 74.37499 58.07599 74.926 54.819992 75.15999 C 54.483994 75.18299 54.268993 75.19899 54.08499 75.21899 C 53.645 75.244 53.311 75.25 52.972 75.25 z " fill-opacity="0.05"/>
<path d="M 52.972 74.5 C 45.552 74.5 35.923 70.764 29.672 67.062 L 29.443 66.945 C 24.467 64.144 23.131 61.422 22.883 59.629 L 22.872002 59.553 L 22.867002 59.397 C 22.952002 58.153 23.842005 57.336 25.034002 57.336 C 25.261002 57.336 25.412004 57.365 25.412004 57.365 L 25.792002 57.435 L 26.103004 57.677 C 26.581003 58.079 29.049004 60.093 32.759003 62.009 C 37.292004 64.354996 41.74 65.542 45.980003 65.542 C 47.764004 65.542 49.522003 65.325 51.207005 64.897 C 50.936005 64.297005 49.48201 62.127003 41.729004 56.883003 C 36.091003 53.065 30.025003 49.592003 28.300003 48.618004 L 27.986004 48.442005 L 27.786003 48.137005 C 27.381002 47.525005 27.332005 46.799004 27.656004 46.197006 C 28.248005 45.095005 29.699003 44.880005 32.007004 44.880005 C 33.780003 44.880005 36.111004 45.030006 38.365005 45.174004 C 40.616005 45.319004 42.945007 45.469 44.694004 45.469 C 45.147003 45.469 45.514004 45.458 45.813004 45.442 C 44.643005 44.561 42.616005 43.296 41.477005 42.588 C 36.66 39.587 31.2 36.185 30.199 32.424 C 29.804 30.934 30.127 29.195 31.085 27.653 C 32.256 25.768 34.904 23.266 40.868 22.056 C 42.479 21.687 44.221 21.499 46.027 21.499 C 58.283 21.499 71.212 30.53 72.453 32.286 L 72.89101 32.904 L 72.79001 32.974 C 72.97301 33.420998 73.100006 33.902 73.17201 34.212997 C 73.40601 34.969 73.33801 35.643997 72.95101 36.168 C 72.62001 36.618 72.097015 36.876 71.51301 36.876 C 70.92701 36.876 70.40201 36.605 70.20301 36.489 C 62.12901 32.399998 54.31501 30.940998 50.09001 30.940998 C 47.901012 30.940998 47.060013 31.311 46.804012 31.464998 C 47.044018 32.518997 49.596012 35.174 59.728012 41.970997 L 61.587013 43.208996 C 69.30101 48.339996 70.81702 49.473995 70.86401 50.924995 C 70.88401 51.545994 70.653015 52.13599 70.21701 52.584995 C 69.21001 53.623997 67.28801 53.957996 62.31001 53.957996 C 60.90401 53.957996 59.305008 53.932995 57.529007 53.899 C 68.44101 59.623997 68.824005 63.992996 67.978004 66.175995 C 65.156006 73.662 57.871 74.186 54.758003 74.41 C 54.476 74.431 54.222004 74.449 54.006004 74.468994 C 53.617 74.494 53.298 74.5 52.972 74.5 z " fill-opacity="0.05"/>
<path d="M 52.972 73.75 C 45.702 73.75 36.07 69.97901 30.054 66.416 L 29.786 66.277 C 25.103 63.64 23.851002 61.148 23.626 59.523 L 23.615002 59.447 L 23.62 59.369 C 23.673 58.599 24.241 58.086 25.034 58.086 C 25.181 58.086 25.28 58.104 25.28 58.104 L 25.475 58.139 L 25.641 58.27 C 26.108002 58.663 28.627 60.721 32.415 62.676003 C 37.056 65.076004 41.620003 66.293 45.98 66.293 C 47.848 66.293 49.689 66.064 51.456 65.609 C 51.671 65.541 51.982 65.4 52.013 65.191 C 52.083 64.709 51.576 62.638 42.149 56.263 C 36.484 52.427 30.399002 48.943 28.669004 47.965 L 28.512005 47.877 L 28.412004 47.726 C 28.158005 47.342 28.122002 46.914 28.316002 46.556 C 28.677002 45.882 29.677002 45.632 32.006 45.632 C 33.756 45.632 36.074 45.78 38.316 45.925 C 40.58 46.071 42.921 46.222 44.693 46.222 C 46.663 46.222 47.213 46.031 47.358 45.951 C 47.363003 45.947 47.368 45.947 47.372 45.945 C 47.034 45.171 44.063004 43.32 41.873 41.954 C 37.174 39.025 31.848 35.705 30.923 32.232998 C 30.581 30.941998 30.872 29.417995 31.722 28.049995 C 32.815 26.288998 35.316 23.947998 41.017 22.791998 C 42.586 22.433998 44.276997 22.249998 46.027 22.249998 C 58.029 22.249998 70.636 31.016 71.841 32.719997 L 71.82201 32.732 C 72.14001 33.187 72.365005 34.058 72.44101 34.382 L 72.44101 34.382 C 72.50501 34.594 72.70501 35.238 72.34601 35.722 C 72.156006 35.982 71.85901 36.125 71.51301 36.125 L 71.51301 36.125 C 71.09901 36.125 70.69701 35.907 70.58201 35.841 C 62.36001 31.676 54.39701 30.19 50.090008 30.19 C 47.174007 30.19 46.350006 30.819998 46.167007 31.013 C 46.043007 31.142998 46.03101 31.245998 46.036007 31.336998 C 46.007008 33.667 55.329006 39.921 59.311005 42.592 L 61.171005 43.832 C 68.27501 48.559 70.08 49.875 70.115005 50.949 C 70.128006 51.369 69.976006 51.754 69.677 52.06 C 68.859 52.908 66.929 53.206 62.308 53.206 C 60.662003 53.206 58.748 53.171 56.597004 53.132 C 55.826004 53.118 55.023003 53.103 54.19101 53.089 C 67.914 59.48 67.966 64.124 67.27701 65.905 C 64.62301 72.948 57.673008 73.45 54.70401 73.663 C 54.41401 73.684006 54.15401 73.702 53.93301 73.724 C 53.594 73.744 53.285 73.75 52.972 73.75 z " fill-opacity="0.05"/>
<path d="M 71.317 33.153 C 70.254 31.648 54.649 20.47 41.254 23.527 C 32.951 25.211 31.099005 29.636002 31.736002 32.04 C 33.34 38.068 51.178 44.701 47.815 46.603 C 45.415 47.956 27.576002 44.972 29.127005 47.314 C 31.729002 48.78 37.479004 52.133 42.658005 55.643 C 49.515003 60.278 55.393005 65.172 51.73201 66.336 C 44.242004 68.256 37.152008 65.923996 32.159004 63.34 C 28.485004 61.444 25.933004 59.42 25.246004 58.842 C 25.246004 58.842 24.504004 58.719 24.456003 59.42 C 24.660004 60.885 25.824003 63.135 30.242002 65.623 L 30.259005 65.609 C 36.145004 69.154 46.469 73.324005 53.950005 72.976 C 56.50301 72.726 63.938004 72.878 66.670006 65.633995 C 67.45801 63.596996 65.913 58.695995 50.61001 52.285995 C 62.43601 52.39899 69.518005 52.992996 69.45601 50.971996 C 69.42701 50.06 64.421005 46.846996 58.98101 43.212997 L 58.98101 43.212997 C 52.47101 38.845997 45.34301 33.853996 45.37601 31.374996 C 45.19401 27.999996 58.61801 28.890997 71.05201 35.192 C 71.05201 35.192 72.20201 35.87 71.81201 34.6 C 71.762 34.196 71.325 33.158 71.317 33.153 z " fill-opacity="0.2" stroke-opacity="0.2"/>
<linearGradient gradientTransform="matrix(0.98 -0.1991 0.1991 0.98 -1151.9639 -338.5869)" gradientUnits="userSpaceOnUse" x1="1099.1934" x2="1099.1934" xlink:actuate="onLoad" xlink:show="other" xlink:type="simple" y1="643.7588" y2="593.2748">
<stop offset="0" stop-color="#d0cbc5"/>
<stop offset="0.5031" stop-color="#fafcef"/>
<stop offset="0.9693" stop-color="#ffffff"/>
<stop offset="1" stop-color="#ffffff"/>
</linearGradient>
<path d="M 71.229 33.153 C 70.16599 31.648 54.560997 20.47 41.165997 23.527 C 32.862995 25.211 31.010998 29.636002 31.647997 32.04 C 33.251995 38.068 51.089996 44.701 47.726997 46.603 C 45.326996 47.956 27.487995 44.972 29.038998 47.314 C 31.640997 48.781 37.391 52.134 42.57 55.643997 C 49.428 60.279 55.306 65.173 51.645 66.337 C 44.154 68.257 37.065 65.924995 32.072 63.341 C 28.398 61.445 25.846 59.421 25.158998 58.843 C 25.158998 58.843 24.416998 58.719997 24.368998 59.421 C 24.572998 60.886 25.736998 63.136 30.154997 65.624 L 30.171995 65.61 C 36.058 69.155 46.381996 73.325 53.863 72.977 C 56.416 72.727 63.851 72.879 66.583 65.634995 C 67.371 63.597996 65.826 58.696995 50.523003 52.286995 C 62.349003 52.399994 69.431 52.993996 69.369 50.972996 C 69.34001 50.060997 64.334 46.847996 58.894005 43.213997 L 58.894005 43.213997 C 52.384003 38.846996 45.256004 33.854996 45.289005 31.375996 C 45.10801 28.000996 58.53101 28.891996 70.96501 35.192997 C 70.96501 35.192997 72.115005 35.871 71.725006 34.601 C 71.673 34.196 71.236 33.158 71.229 33.153 z " fill="#ffffff" fill-opacity="1"/>
<rect fill="none" height="96" width="96"/>
</svg>
