<?xml version="1.0" encoding="UTF-8"?>
<svg xmlns="http://www.w3.org/2000/svg" xmlns:xlink="http://www.w3.org/1999/xlink" baseProfile="tiny" contentScriptType="text/ecmascript" contentStyleType="text/css" height="96px" preserveAspectRatio="xMidYMid meet" version="1.1" viewBox="0 0 96 96" width="96px" x="0px" y="0px" zoomAndPan="magnify">
<defs>
<linearGradient>
<stop offset="0" stop-color="#f4f4f4" stop-opacity="1"/>
<stop offset="1" stop-color="#eeeeee" stop-opacity="1"/>
</linearGradient>
<linearGradient gradientTransform="matrix(0,1,-1,0,95.25,0.75)" gradientUnits="userSpaceOnUse" id="linearGradient3800" x1="7.25" x2="87.25" y1="48" y2="48">
<stop offset="0" stop-color="#fafafa" stop-opacity="1"/>
<stop offset="1" stop-color="#f0f0f0" stop-opacity="1"/>
</linearGradient>
</defs>
<rect fill="none" height="96" width="96"/>
<path d="M 7.25 49.0 C 7.25 78.635 17.611 89.0 47.25 89.0 C 76.884 89.0 87.25 78.635 87.25 49.0 C 87.25 19.367 76.884 9.0 47.25 9.0 C 17.613 9.0 7.25 19.367 7.25 49.0 z " fill-opacity="0.4" stroke-opacity="0.4"/>
<linearGradient gradientTransform="matrix(-1 0 0 1 7974.0742 -815.8408)" gradientUnits="userSpaceOnUse" x1="7926.8242" x2="7926.8242" y1="823.5039" y2="903.5039">
<stop offset="0" stop-color="#ffffff"/>
<stop offset="1" stop-color="#cccac6"/>
</linearGradient>
<path d="M 47.25 8.0 C 17.615 8.0 7.25 18.361 7.25 48.0 C 7.25 77.634 17.615 88.0 47.25 88.0 C 76.883 88.0 87.25 77.634 87.25 48.0 C 87.25 18.363 76.883 8.0 47.25 8.0 z " fill="url(#linearGradient3800)" fill-opacity="1"/>
<linearGradient gradientTransform="matrix(-1 0 0 1 7974.0742 -815.8408)" gradientUnits="userSpaceOnUse" id="SVGID_2_" x1="7926.8242" x2="7926.8242" y1="824.0938" y2="903.3385">
<stop offset="0" stop-color="#ffffff"/>
<stop offset="1" stop-color="#ffffff" stop-opacity="0"/>
</linearGradient>
<path d="M 7.25 48.0 C 7.25 77.635 17.611 88.0 47.25 88.0 C 76.884 88.0 87.25 77.635 87.25 48.0 C 87.25 18.367 76.884 8.0 47.25 8.0 C 17.613 8.0 7.25 18.367 7.25 48.0 z M 8.25 48.0 C 8.25 18.842 18.091 9.0 47.25 9.0 C 76.408005 9.0 86.25 18.842 86.25 48.0 C 86.25 77.158005 76.408 87.0 47.25 87.0 C 18.091 87.0 8.25 77.158 8.25 48.0 z " fill="url(#SVGID_2_)" fill-opacity="0.15"/>
<linearGradient gradientUnits="userSpaceOnUse" x1="38.2974" x2="38.2974" y1="77.3066" y2="26.1631">
<stop offset="0" stop-color="#195b19"/>
<stop offset="1" stop-color="#9bd22d"/>
</linearGradient>
<path d="M 50.366 56.873 L 39.284 76.432 C 38.742 77.389 37.853 77.389 37.311 76.432 L 26.229 56.873 C 25.686 55.916 26.143 55.133 27.243 55.133 L 32.923 55.133 L 32.923 40.773 C 32.923 40.223 33.373 39.773 33.923 39.773 L 42.675 39.773 C 43.225 39.773 43.675 40.223 43.675 40.773 L 43.675 55.132 L 49.354 55.132 C 50.453 55.133 50.908 55.916 50.366 56.873 z " fill="#6db029" fill-opacity="1"/>
<linearGradient gradientUnits="userSpaceOnUse" x1="59.8242" x2="59.8242" y1="55.6689" y2="18.2935">
<stop offset="0" stop-color="#003f9a"/>
<stop offset="1" stop-color="#0077cd"/>
</linearGradient>
<path d="M 70.88 40.152 L 65.2 40.152 L 65.2 54.511 C 65.2 55.061 64.75 55.511 64.2 55.511 L 55.448 55.511 C 54.898 55.511 54.448 55.061 54.448 54.511 L 54.448 40.152 L 48.77 40.152 C 47.67 40.152 47.213 39.369 47.756 38.412 L 58.838 18.853 C 59.381 17.895998 60.268 17.895998 60.811 18.853 L 71.894 38.412 C 72.436 39.369 71.98 40.152 70.88 40.152 z " fill="#0076d9" fill-opacity="1"/>
<path d="M 43.674 40.773 C 43.674 40.223 43.224 39.773 42.674 39.773 L 33.922 39.773 C 33.372 39.773 32.922 40.223 32.922 40.773 L 32.922 43.636997 C 32.922 43.087 33.372 42.636997 33.922 42.636997 L 42.674 42.636997 C 43.224 42.636997 43.674 43.087 43.674 43.636997 L 43.674 40.773 z M 26.229 56.873 L 26.885 58.030003 C 26.995 58.009003 27.114 57.997 27.242 57.997 L 32.922 57.997 L 32.922 55.133003 L 27.242 55.133003 C 26.143 55.133 25.686 55.916 26.229 56.873 z M 49.353 55.133 L 43.674 55.133 L 43.674 57.997 L 49.353 57.997 C 49.482 57.997 49.6 58.01 49.711 58.03 L 50.366 56.872997 C 50.908 55.916 50.453 55.133 49.353 55.133 z M 71.894 38.412 L 60.811 18.854 C 60.268 17.897 59.381 17.897 58.838 18.854 L 47.756 38.412 C 47.277 39.257 47.578 39.963997 48.412 40.119 L 58.837997 21.718 C 59.380997 20.761 60.268 20.761 60.810997 21.718 L 71.239 40.119 C 72.071 39.964 72.372 39.257 71.894 38.412 z " fill-opacity="0.05" stroke-opacity="0.05"/>
<path d="M 43.674 40.773 C 43.674 40.223 43.224 39.773 42.674 39.773 L 33.922 39.773 C 33.372 39.773 32.922 40.223 32.922 40.773 L 32.922 42.607 C 32.922 42.057 33.372 41.607 33.922 41.607 L 42.674 41.607 C 43.224 41.607 43.674 42.057 43.674 42.607 L 43.674 40.773 z M 26.132 55.629 C 26.162 55.699 26.188 55.77 26.229 55.843 L 26.885 57.0 C 26.995 56.979 27.114 56.967 27.242 56.967 L 32.922 56.967 L 32.922 55.133 L 27.242 55.133 C 26.702 55.133 26.32 55.323 26.132 55.629 z M 71.894 38.412 L 60.811 18.854 C 60.268 17.897 59.381 17.897 58.838 18.854 L 47.756 38.412 C 47.717 38.481 47.691 38.549 47.661 38.615 C 47.804 38.851 48.056 39.022 48.412 39.088997 L 58.837997 20.687998 C 59.380997 19.730995 60.268 19.730995 60.810997 20.687998 L 71.239 39.088997 C 71.594 39.022995 71.846 38.851997 71.989 38.615997 C 71.959 38.549 71.933 38.481 71.894 38.412 z M 49.353 55.133 L 43.674 55.133 L 43.674 56.967 L 49.353 56.967 C 49.482 56.967 49.6 56.98 49.711 57.0 L 50.366 55.843 C 50.408 55.769997 50.432003 55.698997 50.463 55.629 C 50.275 55.323 49.893 55.133 49.353 55.133 z " fill-opacity="0.2" stroke-opacity="0.2"/>
</svg>
