<?xml version="1.0" encoding="UTF-8"?>
<svg xmlns="http://www.w3.org/2000/svg" xmlns:xlink="http://www.w3.org/1999/xlink" baseProfile="tiny" contentScriptType="text/ecmascript" contentStyleType="text/css" height="96px" preserveAspectRatio="xMidYMid meet" version="1.1" viewBox="0 0 96 96" width="96px" x="0px" y="0px" zoomAndPan="magnify">
<defs>
<linearGradient>
<stop offset="0" stop-color="#ffffff" stop-opacity="1"/>
<stop offset="1" stop-color="#ffffff" stop-opacity="0.78431374"/>
</linearGradient>
<linearGradient>
<stop offset="0" stop-color="#4fd7ff" stop-opacity="1"/>
<stop offset="1" stop-color="#4fc6ff" stop-opacity="1"/>
</linearGradient>
<linearGradient gradientTransform="matrix(0,1,-1,0,96.176001,-0.038001)" gradientUnits="userSpaceOnUse" id="linearGradient3788" x1="8.107002" x2="88.107" y1="48.069" y2="48.069">
<stop offset="0" stop-color="#4fd7ff" stop-opacity="1"/>
<stop offset="1" stop-color="#4fc6ff" stop-opacity="1"/>
</linearGradient>
<linearGradient gradientTransform="matrix(0.81500208,0,0,0.81500208,8.7097013,8.8451829)" gradientUnits="userSpaceOnUse" id="linearGradient3798" x1="56.381321" x2="56.381321" y1="25.788567" y2="68.314171">
<stop offset="0" stop-color="#ffffff" stop-opacity="1"/>
<stop offset="1" stop-color="#ffffff" stop-opacity="0.78431374"/>
</linearGradient>
<linearGradient gradientTransform="matrix(0,0.81500208,-0.81500208,0,87.093342,8.814212)" gradientUnits="userSpaceOnUse" id="linearGradient3802" x1="56.381321" x2="56.381321" y1="25.788567" y2="68.314171">
<stop offset="0" stop-color="#4fd7ff" stop-opacity="1"/>
<stop offset="1" stop-color="#4fc6ff" stop-opacity="1"/>
</linearGradient>
</defs>
<path d="M 88.107 49.046 C 88.107 78.681 77.744 89.046005 48.107 89.046005 C 18.472002 89.046005 8.107002 78.68101 8.107002 49.046005 C 8.107002 19.413006 18.472002 9.046005 48.107 9.046005 C 77.744 9.046 88.107 19.412 88.107 49.046 z " fill-opacity="0.4"/>
<rect fill="none" height="96" width="96" x="0.107" y="0.069"/>
<linearGradient gradientTransform="matrix(1 0 0 -1 -1433.1973 -2438.3027)" gradientUnits="userSpaceOnUse" x1="1481.3047" x2="1481.3047" y1="-2454.2925" y2="-2522.6479">
<stop offset="0" stop-color="#5ae6ff"/>
<stop offset="0.0038" stop-color="#5ae6ff"/>
<stop offset="1" stop-color="#23b7ff"/>
</linearGradient>
<path d="M 48.107 88.069 C 18.474005 88.069 8.106998 77.706 8.106998 48.069 C 8.106998 18.434 18.474 8.069 48.107 8.069 C 77.741 8.069 88.106995 18.434 88.106995 48.069 C 88.106995 77.70599 77.74 88.069 48.106995 88.069 z " fill="url(#linearGradient3788)" fill-opacity="1"/>
<linearGradient gradientTransform="matrix(1 0 0 -1 -1433.1973 -2438.3027)" gradientUnits="userSpaceOnUse" id="SVGID_2_" x1="1481.2578" x2="1481.2578" y1="-2446.6206" y2="-2525.8662">
<stop offset="0" stop-color="#ffffff"/>
<stop offset="1" stop-color="#ffffff" stop-opacity="0"/>
</linearGradient>
<path d="M 48.06 8.069 C 18.425 8.069 8.061001 18.435 8.061001 48.069 C 8.061001 77.702 18.425 88.069 48.06 88.069 C 77.697 88.069 88.06 77.702 88.06 48.069 C 88.061 18.436 77.697 8.069 48.06 8.069 z M 48.06 87.069 C 18.902 87.069 9.061001 77.227 9.061001 48.069 C 9.061001 18.911003 18.902 9.069 48.06 9.069 C 77.219 9.069 87.06 18.911 87.06 48.069 C 87.06 77.227005 77.219 87.069 48.06 87.069 z " fill="url(#SVGID_2_)" fill-opacity="0.25"/>
<path d="M 72.15925 46.26356 C 70.395584 46.564297 67.83403 46.249702 66.47705 45.687355 C 69.29614 45.45345 71.205696 44.173077 71.93919 42.432236 C 70.924515 43.059788 67.769646 43.74031 66.02962 43.091568 C 65.9416 42.681625 65.84543 42.292866 65.7517 41.94079 C 64.42569 37.063 59.88124 33.132248 55.121628 33.60739 C 55.505493 33.451725 55.893433 33.30747 56.287895 33.17544 C 56.811123 32.988804 59.886127 32.48595 59.400387 31.401182 C 58.991257 30.443556 55.235725 32.120827 54.52749 32.340065 C 55.461483 31.989616 57.005096 31.384884 57.169727 30.31071 C 55.741028 30.507944 54.334335 31.184397 53.248753 32.16892 C 53.640766 31.747562 53.939873 31.234112 54.00263 30.679096 C 50.18434 33.12166 47.956947 38.038563 46.15253 42.812847 C 44.736057 41.43712 43.47769 40.3548 42.35299 39.751698 C 39.194855 38.058937 35.414875 36.290382 29.485737 34.08499 C 29.303177 36.049145 30.454773 38.66123 33.774277 40.397995 C 33.056255 40.299385 31.740849 40.516987 30.691938 40.766376 C 31.118189 43.018227 32.517544 44.872353 36.30812 45.76886 C 34.575424 45.882145 33.679737 46.27742 32.87044 47.12584 C 33.65855 48.692276 35.585213 50.53418 39.043262 50.1552 C 35.19401 51.815357 37.47357 54.892807 40.60644 54.432335 C 35.264915 59.956417 26.840237 59.54647 22.004011 54.929485 C 34.631653 72.155365 62.085007 65.11538 66.173874 48.525196 C 69.242355 48.549644 71.04025 47.46325 72.15925 46.26357 z " fill="#231f20" fill-opacity="0.1" stroke-opacity="0.1"/>
<path d="M 71.74033 46.681656 C 69.97667 46.98239 67.41593 46.668617 66.05895 46.10545 C 68.87805 45.871544 70.78678 44.591175 71.52027 42.851147 C 70.50641 43.47788 67.35154 44.15841 65.6115 43.509663 C 65.52348 43.099724 65.42732 42.710968 65.33277 42.358887 C 64.00676 37.4811 59.46231 33.550346 54.702698 34.02549 C 55.086563 33.869823 55.475323 33.72557 55.86978 33.593536 C 56.392197 33.406902 59.4672 32.904045 58.98309 31.819277 C 58.572327 30.861652 54.815983 32.538925 54.11019 32.758976 C 55.04418 32.408527 56.5878 31.803797 56.751617 30.728807 C 55.322098 30.92604 53.91785 31.60249 52.83227 32.587013 C 53.222656 32.165657 53.521763 31.652206 53.585335 31.09719 C 49.767048 33.539753 47.53965 38.457474 45.735233 43.23176 C 44.317944 41.856033 43.06039 40.7729 41.93569 40.169796 C 38.776745 38.477036 34.99758 36.70848 29.067629 34.50309 C 28.885883 36.467243 30.03748 39.079323 33.356987 40.816093 C 32.63897 40.718292 31.323557 40.935085 30.274649 41.184475 C 30.700891 43.436325 32.100254 45.290455 35.890827 46.18696 C 34.158134 46.300243 33.262444 46.69552 32.453148 47.543938 C 33.240437 49.10956 35.16792 50.95309 38.625973 50.5733 C 34.77672 52.232643 37.05628 55.310905 40.189144 54.849617 C 34.84762 60.374516 26.422943 59.96539 21.585909 55.347584 C 34.214363 72.57428 61.6669 65.53348 65.75658 48.944115 C 68.82588 48.966934 70.62296 47.88135 71.740326 46.681667 z " fill="#231f20" fill-opacity="0.1" stroke-opacity="0.1"/>
<path d="M 72.15925 47.09975 C 70.395584 47.401302 67.83403 47.08671 66.47705 46.523544 C 69.29614 46.290455 71.205696 45.00927 71.93919 43.26924 C 70.924515 43.895977 67.769646 44.576504 66.02962 43.92776 C 65.9416 43.51863 65.84543 43.12906 65.7517 42.776978 C 64.42569 37.89919 59.88124 33.96925 55.121628 34.444397 C 55.505493 34.28873 55.893433 34.14366 56.287895 34.01163 C 56.811123 33.824997 59.886127 33.32214 59.400387 32.237373 C 58.991257 31.279743 55.235725 32.95702 54.52749 33.17707 C 55.461483 32.82662 57.005096 32.22189 57.169727 31.1469 C 55.741028 31.34413 54.334335 32.020584 53.248753 33.005104 C 53.640766 32.583748 53.939873 32.070297 54.00263 31.516094 C 50.18434 33.957844 47.956947 38.875565 46.15253 43.649845 C 44.736057 42.27412 43.47769 41.190987 42.35299 40.588696 C 39.194855 38.895123 35.414875 37.126568 29.485737 34.92199 C 29.303177 36.88533 30.454773 39.49741 33.774277 41.23418 C 33.056255 41.13638 31.740849 41.353985 30.691938 41.60256 C 31.118189 43.854412 32.517544 45.70854 36.30812 46.605858 C 34.575424 46.71833 33.679737 47.113605 32.87044 47.96202 C 33.65855 49.528458 35.585213 51.37199 39.043262 50.991383 C 35.19401 52.651543 37.47357 55.72899 40.60644 55.268513 C 35.264915 60.79341 26.840237 60.382656 22.004011 55.76648 C 34.631653 72.99236 62.085007 65.95238 66.173874 49.3622 C 69.242355 49.385822 71.04025 48.29943 72.15925 47.09975 z " fill="#231f20" fill-opacity="0.1" stroke-opacity="0.1"/>
<path d="M 72.57408 45.844646 C 70.81205 46.1462 68.250496 45.831608 66.8927 45.26844 C 69.71179 45.03535 71.62053 43.75416 72.35484 42.014137 C 71.3418 42.64169 68.185295 43.3214 66.44527 42.67347 C 66.358055 42.263527 66.261894 41.873955 66.16735 41.521873 C 64.84134 36.644085 60.29689 32.714146 55.537277 33.189293 C 55.92196 33.033627 56.310715 32.888557 56.703545 32.756527 C 57.22596 32.56989 60.302593 32.067036 59.81848 30.982267 C 59.408535 30.02464 55.653008 31.701914 54.945583 31.921965 C 55.877945 31.571512 57.420746 30.966782 57.58619 29.891794 C 56.158302 30.089024 54.750797 30.76629 53.665215 31.749998 C 54.056416 31.328642 54.356335 30.815191 54.41828 30.26099 C 50.600807 32.702736 48.372593 37.620457 46.568993 42.39474 C 45.151703 41.019016 43.894157 39.936695 42.76864 39.33359 C 39.610504 37.640015 35.83053 35.871464 29.901386 33.66688 C 29.718826 35.630222 30.87124 38.242306 34.190742 39.979073 C 33.471912 39.88127 32.15731 40.098877 31.108406 40.347458 C 31.533836 42.599304 32.933197 44.45343 36.72377 45.350754 C 34.99189 45.463223 34.096207 45.85931 33.28609 46.706917 C 34.0742 48.27335 36.00168 50.11607 39.458916 49.73628 C 35.60966 51.397255 37.89004 54.473885 41.02209 54.014225 C 35.68138 59.539124 27.256706 59.128365 22.419666 54.51219 C 35.04812 71.73808 62.500656 64.69809 66.58871 48.10709 C 69.66126 48.13154 71.45834 47.045143 72.57408 45.844643 z " fill="url(#linearGradient3802)" fill-opacity="1"/>
<path d="M 72.57408 45.844646 C 70.81205 46.1462 68.250496 45.831608 66.8927 45.26844 C 69.71179 45.03535 71.62053 43.75416 72.35484 42.014137 C 71.3418 42.64169 68.185295 43.3214 66.44527 42.67347 C 66.358055 42.263527 66.261894 41.873955 66.16735 41.521873 C 64.84134 36.644085 60.29689 32.714146 55.537277 33.189293 C 55.92196 33.033627 56.310715 32.888557 56.703545 32.756527 C 57.22596 32.56989 60.302593 32.067036 59.81848 30.982267 C 59.408535 30.02464 55.653008 31.701914 54.945583 31.921965 C 55.877945 31.571512 57.420746 30.966782 57.58619 29.891794 C 56.158302 30.089024 54.750797 30.76629 53.665215 31.749998 C 54.056416 31.328642 54.356335 30.815191 54.41828 30.26099 C 50.600807 32.702736 48.372593 37.620457 46.568993 42.39474 C 45.151703 41.019016 43.894157 39.936695 42.76864 39.33359 C 39.610504 37.640015 35.83053 35.871464 29.901386 33.66688 C 29.718826 35.630222 30.87124 38.242306 34.190742 39.979073 C 33.471912 39.88127 32.15731 40.098877 31.108406 40.347458 C 31.533836 42.599304 32.933197 44.45343 36.72377 45.350754 C 34.99189 45.463223 34.096207 45.85931 33.28609 46.706917 C 34.0742 48.27335 36.00168 50.11607 39.458916 49.73628 C 35.60966 51.397255 37.89004 54.473885 41.02209 54.014225 C 35.68138 59.539124 27.256706 59.128365 22.419666 54.51219 C 35.04812 71.73808 62.500656 64.69809 66.58871 48.10709 C 69.66126 48.13154 71.45834 47.045143 72.57408 45.844643 z " fill="url(#linearGradient3798)" fill-opacity="1"/>
</svg>
