<?xml version="1.0" encoding="UTF-8"?>
<svg xmlns="http://www.w3.org/2000/svg" xmlns:xlink="http://www.w3.org/1999/xlink" baseProfile="tiny" contentScriptType="text/ecmascript" contentStyleType="text/css" height="96px" preserveAspectRatio="xMidYMid meet" version="1.1" viewBox="0 0 96 96" width="96px" x="0px" y="0px" zoomAndPan="magnify">
<defs>
<linearGradient id="linearGradient3944">
<stop offset="0" stop-color="#ff9d44" stop-opacity="1"/>
<stop offset="1" stop-color="#ffa93c" stop-opacity="1"/>
</linearGradient>
<linearGradient gradientUnits="userSpaceOnUse" x1="47.457626" x2="47.457626" y1="8.8591671" y2="62.151615">
<stop offset="0" stop-color="#4230c7" stop-opacity="1"/>
<stop offset="1" stop-color="#3091b1" stop-opacity="1"/>
</linearGradient>
<linearGradient>
<stop offset="0" stop-color="#f5f7f7" stop-opacity="1"/>
<stop offset="1" stop-color="#eaeeee" stop-opacity="1"/>
</linearGradient>
<linearGradient>
<stop offset="0" stop-color="#62d5fa" stop-opacity="1"/>
<stop offset="1" stop-color="#1dc2f8" stop-opacity="1"/>
</linearGradient>
<linearGradient gradientTransform="translate(6,0)" gradientUnits="userSpaceOnUse" x1="47.457626" x2="47.457626" y1="8.8591671" y2="62.151615">
<stop offset="0" stop-color="#62d5fa" stop-opacity="1"/>
<stop offset="1" stop-color="#1dc2f8" stop-opacity="1"/>
</linearGradient>
<linearGradient gradientUnits="userSpaceOnUse" x1="47.050846" x2="47.050846" y1="10.576271" y2="88.278755">
<stop offset="0" stop-color="#8a03a8" stop-opacity="1"/>
<stop offset="1" stop-color="#760398" stop-opacity="1"/>
</linearGradient>
<linearGradient gradientTransform="matrix(0,1,-1,0,96,0)" gradientUnits="userSpaceOnUse" x1="8" x2="88" y1="48" y2="48">
<stop offset="0" stop-color="#f5f7f7" stop-opacity="1"/>
<stop offset="1" stop-color="#eaeeee" stop-opacity="1"/>
</linearGradient>
<linearGradient gradientUnits="userSpaceOnUse" id="linearGradient3895" x1="48.898232" x2="48.898232" y1="8.9180031" y2="81.834465">
<stop offset="0" stop-color="#62d5fa" stop-opacity="1"/>
<stop offset="1" stop-color="#1dc2f8" stop-opacity="1"/>
</linearGradient>
<linearGradient gradientUnits="userSpaceOnUse" x1="47.457626" x2="47.457626" y1="8.8591671" y2="62.151615">
<stop offset="0" stop-color="#62d5fa" stop-opacity="1"/>
<stop offset="1" stop-color="#1dc2f8" stop-opacity="1"/>
</linearGradient>
<linearGradient gradientUnits="userSpaceOnUse" x1="47.457626" x2="47.457626" y1="8.8591671" y2="62.151615">
<stop offset="0" stop-color="#62d5fa" stop-opacity="1"/>
<stop offset="1" stop-color="#1dc2f8" stop-opacity="1"/>
</linearGradient>
<linearGradient gradientUnits="userSpaceOnUse" x1="47.457626" x2="47.457626" y1="8.8591671" y2="62.151615">
<stop offset="0" stop-color="#62d5fa" stop-opacity="1"/>
<stop offset="1" stop-color="#1dc2f8" stop-opacity="1"/>
</linearGradient>
<linearGradient gradientUnits="userSpaceOnUse" id="linearGradient3071" x1="47.457626" x2="47.457626" y1="8.8591671" y2="62.151615">
<stop offset="0" stop-color="#62d5fa" stop-opacity="1"/>
<stop offset="1" stop-color="#1dc2f8" stop-opacity="1"/>
</linearGradient>
<linearGradient gradientUnits="userSpaceOnUse" id="linearGradient3936" x1="48.898232" x2="48.898232" y1="8.9180031" y2="81.834465">
<stop offset="0" stop-color="#4230c7" stop-opacity="1"/>
<stop offset="1" stop-color="#1ca8d9" stop-opacity="1"/>
</linearGradient>
<linearGradient gradientUnits="userSpaceOnUse" id="linearGradient3938" x1="47.457626" x2="47.457626" y1="8.8591671" y2="62.151615">
<stop offset="0" stop-color="#62d5fa" stop-opacity="1"/>
<stop offset="1" stop-color="#1dc2f8" stop-opacity="1"/>
</linearGradient>
<linearGradient gradientTransform="matrix(0,-1,1,0,-10e-7,95.999999)" gradientUnits="userSpaceOnUse" id="linearGradient3950" x1="7.999998" x2="88" y1="48" y2="48">
<stop offset="0" stop-color="#ff9d44" stop-opacity="1"/>
<stop offset="1" stop-color="#ffa93c" stop-opacity="1"/>
</linearGradient>
<linearGradient gradientUnits="userSpaceOnUse" x1="48.898232" x2="48.898232" y1="8.9180031" y2="81.834465">
<stop offset="0" stop-color="#4230c7" stop-opacity="1"/>
<stop offset="1" stop-color="#3091b1" stop-opacity="1"/>
</linearGradient>
<linearGradient gradientUnits="userSpaceOnUse" x1="47.457626" x2="47.457626" y1="8.8591671" y2="62.151615">
<stop offset="0" stop-color="#62d5fa" stop-opacity="1"/>
<stop offset="1" stop-color="#1dc2f8" stop-opacity="1"/>
</linearGradient>
<linearGradient gradientUnits="userSpaceOnUse" id="linearGradient4066" x1="48.898232" x2="48.898232" y1="8.9180031" y2="81.834465">
<stop offset="0" stop-color="#4230c7" stop-opacity="1"/>
<stop offset="1" stop-color="#1ca8d9" stop-opacity="1"/>
</linearGradient>
<linearGradient gradientUnits="userSpaceOnUse" id="linearGradient4068" x1="47.457626" x2="47.457626" y1="8.8591671" y2="62.151615">
<stop offset="0" stop-color="#62d5fa" stop-opacity="1"/>
<stop offset="1" stop-color="#1dc2f8" stop-opacity="1"/>
</linearGradient>
<linearGradient gradientUnits="userSpaceOnUse" id="linearGradient4070" x1="48.898232" x2="48.898232" y1="8.9180031" y2="81.834465">
<stop offset="0" stop-color="#62d5fa" stop-opacity="1"/>
<stop offset="1" stop-color="#1dc2f8" stop-opacity="1"/>
</linearGradient>
<linearGradient gradientUnits="userSpaceOnUse" id="linearGradient4072" x1="47.457626" x2="47.457626" y1="8.8591671" y2="62.151615">
<stop offset="0" stop-color="#62d5fa" stop-opacity="1"/>
<stop offset="1" stop-color="#1dc2f8" stop-opacity="1"/>
</linearGradient>
</defs>
<path d="M 88.0 49.0 C 88.0 78.633 77.637 89.0 48.0 89.0 C 18.365 89.0 8.0 78.633 8.0 49.0 C 8.0 19.365 18.365 9.0 48.0 9.0 C 77.637 9.0 88.0 19.365 88.0 49.0 z " fill-opacity="0.4"/>
<linearGradient gradientUnits="userSpaceOnUse" x1="48.0005" x2="48.0005" y1="64.0918" y2="7.2435">
<stop offset="0" stop-color="#cee6f4"/>
<stop offset="0.6319" stop-color="#00a5db"/>
<stop offset="1" stop-color="#0049b5"/>
</linearGradient>
<linearGradient gradientUnits="userSpaceOnUse" x1="63.8428" x2="61.5986" y1="50.6309" y2="66.3398">
<stop offset="0" stop-color="#509600"/>
<stop offset="1" stop-color="#005600"/>
</linearGradient>
<linearGradient gradientUnits="userSpaceOnUse" x1="47.3193" x2="42.1094" y1="54.7568" y2="92.3372">
<stop offset="0" stop-color="#509600"/>
<stop offset="1" stop-color="#005600"/>
</linearGradient>
<linearGradient gradientUnits="userSpaceOnUse" id="SVGID_4_" x1="47.9995" x2="47.9995" y1="8" y2="88.0005">
<stop offset="0" stop-color="#ffffff"/>
<stop offset="1" stop-color="#ffffff" stop-opacity="0"/>
</linearGradient>
<path d="M 88.0 48.0 C 88.0 77.632996 77.637 88.0 48.0 88.0 C 18.365 88.0 8.0 77.633 8.0 48.0 C 8.0 18.365 18.365 8.0 48.0 8.0 C 77.637 8.0 88.0 18.365 88.0 48.0 z " fill="url(#linearGradient3950)" fill-opacity="1"/>
<path d="M 48.0 8.0 C 18.365 8.0 8.0 18.365 8.0 48.0 C 8.0 77.633 18.365 88.0 48.0 88.0 C 77.637 88.0 88.0 77.633 88.0 48.0 C 88.0 18.365 77.637 8.0 48.0 8.0 z M 48.0 87.0 C 18.842 87.0 9.0 77.16 9.0 48.0 C 9.0 18.842 18.842 9.0 48.0 9.0 C 77.16 9.0 87.0 18.842 87.0 48.0 C 87.0 77.16 77.16 87.0 48.0 87.0 z " fill="url(#SVGID_4_)" fill-opacity="0.15" stroke-opacity="0.15"/>
<linearGradient gradientUnits="userSpaceOnUse" x1="48.6455" x2="42.878" y1="51.7813" y2="75.7812">
<stop offset="0" stop-color="#509600"/>
<stop offset="1" stop-color="#005600"/>
</linearGradient>
<linearGradient gradientUnits="userSpaceOnUse" x1="62.5205" x2="62.5205" y1="69.875" y2="89.8709">
<stop offset="0" stop-color="#509600"/>
<stop offset="1" stop-color="#005600"/>
</linearGradient>
<linearGradient gradientUnits="userSpaceOnUse" x1="38.4907" x2="38.4907" y1="25.3394" y2="36.6677">
<stop offset="0" stop-color="#ffffff"/>
<stop offset="1" stop-color="#ffffff" stop-opacity="0"/>
</linearGradient>
<radialGradient cx="980.3281" cy="-307.4312" gradientTransform="matrix(0.8148,0,0,0.3704,-765.7714,144.8726)" gradientUnits="userSpaceOnUse" r="13.5">
<stop offset="0" stop-color="#ffffff" stop-opacity="0.8"/>
<stop offset="0.9" stop-color="#ffffff" stop-opacity="0"/>
<stop offset="1" stop-color="#ffffff" stop-opacity="0"/>
</radialGradient>
<linearGradient gradientTransform="matrix(1.5451253,0,0,1.6712296,-29.689648,-20.002163)" gradientUnits="userSpaceOnUse" x1="62.3027" x2="62.3027" y1="27.8599" y2="42.4968">
<stop offset="0" stop-color="#ffffff"/>
<stop offset="0.6054" stop-color="#ffffff" stop-opacity="0"/>
<stop offset="1" stop-color="#ffffff" stop-opacity="0"/>
</linearGradient>
<radialGradient cx="1051.0938" cy="-295.3555" gradientTransform="matrix(1.2593 0 0 0.4343 -1260.6432 160.4788)" gradientUnits="userSpaceOnUse" r="8.7356">
<stop offset="0" stop-color="#ffffff" stop-opacity="0.45"/>
<stop offset="0.9" stop-color="#ffffff" stop-opacity="0"/>
<stop offset="1" stop-color="#ffffff" stop-opacity="0"/>
</radialGradient>
<rect fill="none" height="96" width="96"/>
<g transform="translate(-5.308108,0.50225993)">
<g transform="matrix(-0.37853624,-0.10142848,-0.1390725,0.51902563,79.587588,27.466583)">
<path color="#000000" d="M -1.70666 15.312881 C -1.70666 39.15754 -1.70666 63.0022 -1.70666 86.84686 C 31.983198 86.84686 65.673065 86.84686 99.362915 86.84686 C 99.362915 62.32395 99.362915 37.801052 99.362915 13.278145 C 65.67306 13.278145 31.9832 13.278145 -1.7066498 13.278145 L -1.7066498 14.295517 L -1.7066498 15.31289 z " display="inline" fill="#ffffff" fill-opacity="1" fill-rule="nonzero" stroke="#dadada" stroke-opacity="0.26595746" stroke-width="1" visibility="visible"/>
<path color="#000000" d="M 1.1505466 15.893191 L 96.5021 15.893191 L 96.5021 84.206894 L 1.1505432 84.206894 z " display="inline" fill="url(#linearGradient4066)" fill-opacity="1" fill-rule="nonzero" stroke="none" visibility="visible"/>
<path d="M 85.1875 55.034294 C 83.807106 55.034294 83.072876 55.027992 82.4375 55.188004 C 81.79975 55.346317 79.78046 56.07378 79.25 56.154194 C 78.719536 56.234604 77.53664 56.076073 76.15625 56.637287 C 74.77825 57.196823 72.78664 57.435226 71.40625 57.51564 C 70.025856 57.59605 68.323265 58.226894 67.15625 58.547707 C 65.988045 58.866844 64.0625 59.579773 64.0625 59.579773 C 64.0625 59.579773 60.03347 60.63495 58.125 60.875343 C 56.21296 61.11574 52.59993 61.67443 51.75 61.995243 C 51.20523 62.199627 49.573704 62.835438 48.75 63.224937 C 46.315826 64.37668 40.079277 69.20939 36.15625 73.0625 L 96.5 73.0625 L 96.5 58.613586 C 94.89885 58.389324 92.73732 58.059822 91.875 57.735233 C 90.60189 57.25611 89.34375 56.703167 89.34375 56.703167 C 89.34375 56.703167 88.04519 56.145626 87.40625 55.824814 C 86.7709 55.505676 86.5655 55.034294 85.1875 55.034294 z " fill="#555850" fill-opacity="1"/>
<path d="M 3.1875 64.71353 C 2.492453 64.77958 1.8274548 64.860115 1.15625 64.93867 L 1.15625 84.21876 L 96.5 84.21876 L 96.5 75.97048 C 92.434784 75.79627 82.13996 75.589615 81.3125 75.47926 C 79.80214 75.280014 74.88481 74.14974 73.25 73.88283 C 71.61519 73.614655 69.728004 73.280304 67.96875 72.87994 C 66.209496 72.47831 64.97499 72.20536 64.21875 71.938446 C 63.46463 71.67027 61.449905 71.54414 59.4375 71.344894 C 57.839924 71.185745 49.190636 70.064674 44.5 69.33911 C 43.284264 69.15177 48.821556 65.23247 48.331223 65.12282 C 45.942295 64.58774 32.538467 67.60025 31.28125 67.33333 C 30.024033 67.06516 29.005136 66.93589 28.0 66.80118 C 26.994864 66.667725 25.350414 66.60277 23.96875 66.5351 C 22.584957 66.46806 18.8125 66.596504 18.8125 66.596504 C 18.8125 66.596504 11.391518 65.40044 8.625 65.00006 C 7.0274186 64.76887 4.7542353 64.71729 3.1875 64.71353 z " fill="#555850" fill-opacity="1"/>
<path d="M 96.5 65.70038 C 78.33614 66.67568 34.54359 75.53192 15.125 84.21875 L 96.5 84.21875 L 96.5 78.63384 C 96.48226 78.46447 96.47318 78.31159 96.5 78.163536 L 96.5 65.70038 z " fill="#537055" fill-opacity="1"/>
<path d="M 87.8125 54.3125 C 87.79824 54.551304 87.73479 54.732906 87.71875 54.96875 L 87.78125 54.96875 C 87.7951 54.761375 87.79988 54.521908 87.8125 54.3125 z " fill="url(#linearGradient4068)"/>
<g transform="translate(70.82847,36.534391)">
<path color="#000000" d="M -60.06157 -6.998259 L -62.060448 -7.680303 L -63.964016 -6.866044 L -63.692295 -8.463284 L -65.342354 -9.532024 L -63.175545 -9.837132 L -62.291763 -11.311916 L -61.224304 -9.903236 L -59.028034 -9.74596 L -60.535133 -8.5702505 z " display="inline" fill="#f6fa29" fill-opacity="0.79787239" fill-rule="nonzero" stroke="none" visibility="visible"/>
<path color="#000000" d="M -63.95405 4.5464773 L -65.031746 4.373772 L -65.83778 4.9233503 L -65.945625 4.1224585 L -66.91136 3.7332034 L -65.9003 3.4109225 L -65.69113 2.6207736 L -64.958435 3.2224874 L -63.863415 3.1234074 L -64.42165 3.8175704 z " display="inline" fill="#f6fa29" fill-opacity="0.79787239" fill-rule="nonzero" stroke="none" visibility="visible"/>
<path color="#000000" d="M -49.681606 -14.379325 L -50.528515 -14.494951 L -51.139236 -14.051671 L -51.250187 -14.674841 L -52.01695 -14.961472 L -51.238598 -15.23099 L -51.101776 -15.851412 L -50.509785 -15.394822 L -49.658455 -15.491632 L -50.070934 -14.9399185 z " display="inline" fill="#f6fa29" fill-opacity="0.79787239" fill-rule="nonzero" stroke="none" visibility="visible"/>
<path color="#000000" d="M 14.933614 -9.64787 L 13.320044 -10.328459 L 11.636574 -9.744866 L 12.025444 -11.074388 L 10.744204 -12.061749 L 12.598104 -12.202853 L 13.489734 -13.396669 L 14.246604 -12.154358 L 16.078915 -11.90481 L 14.692795 -10.995917 z " display="inline" fill="#f6fa29" fill-opacity="0.79787239" fill-rule="nonzero" stroke="none" visibility="visible"/>
<path color="#000000" d="M -4.269305 4.7357354 L -4.8031554 3.9468265 L -5.9968853 3.8203135 L -5.1330957 3.2062325 L -5.3370056 2.3391316 L -4.2692957 2.7485185 L -3.2015958 2.3391314 L -3.4055057 3.2062323 L -2.5417056 3.8203135 L -3.7354455 3.9468265 z " display="inline" fill="#f6fa29" fill-opacity="0.79787239" fill-rule="nonzero" stroke="none" visibility="visible"/>
<path color="#000000" d="M -56.68808 11.927537 L -58.07085 11.304034 L -59.55901 11.781322 L -59.17324 10.629525 L -60.255512 9.744782 L -58.634323 9.656443 L -57.815033 8.632355 L -57.198853 9.729551 L -55.610233 9.98137 L -56.850605 10.747815 z " display="inline" fill="#f6fa29" fill-opacity="0.79787239" fill-rule="nonzero" stroke="none" visibility="visible"/>
</g>
</g>
<g transform="matrix(0.39123427,0,0,0.53747539,28.896762,21.092639)">
<path color="#000000" d="M -1.70666 15.312881 C -1.70666 39.15754 -1.70666 63.0022 -1.70666 86.84686 C 31.983198 86.84686 65.673065 86.84686 99.362915 86.84686 C 99.362915 62.32395 99.362915 37.801052 99.362915 13.278145 C 65.67306 13.278145 31.9832 13.278145 -1.7066498 13.278145 L -1.7066498 14.295517 L -1.7066498 15.31289 z " display="inline" fill="#ffffff" fill-opacity="1" fill-rule="nonzero" stroke="#dadada" stroke-opacity="0.26595746" stroke-width="1" visibility="visible"/>
<path color="#000000" d="M 1.1505466 15.893191 L 96.5021 15.893191 L 96.5021 84.206894 L 1.1505432 84.206894 z " display="inline" fill="url(#linearGradient4070)" fill-opacity="1" fill-rule="nonzero" stroke="none" visibility="visible"/>
<path d="M 82.45867 48.73071 C 80.74529 48.73071 79.833954 48.72231 79.04531 48.938168 C 78.25372 49.151833 75.74733 50.133656 75.08891 50.242188 C 74.43049 50.350716 72.96225 50.136757 71.24888 50.894196 C 69.538475 51.649376 67.066444 51.971138 65.35307 52.079666 C 63.639698 52.188194 61.5264 53.039608 60.077877 53.472595 C 58.627872 53.90332 56.237843 54.865524 56.237843 54.865524 C 56.237843 54.865524 51.23692 56.289642 48.868084 56.614094 C 46.494816 56.93855 42.010242 57.692585 40.955288 58.12557 C 40.279106 58.401413 38.25402 59.25954 37.23162 59.78523 C 34.21027 61.339676 26.469322 67.86216 21.599972 73.06251 L 96.5 73.06251 L 96.5 53.56151 C 94.51262 53.258823 91.82968 52.81411 90.759346 52.376034 C 89.17914 51.72938 87.6175 50.983105 87.6175 50.983105 C 87.6175 50.983105 86.0057 50.230618 85.21263 49.797634 C 84.42402 49.36691 84.169075 48.73071 82.45867 48.73071 z " fill="#5aa800" fill-opacity="1"/>
<path d="M 3.1875 56.897213 C 2.492453 56.989735 1.8274548 57.10254 1.15625 57.21257 L 1.15625 84.21875 L 96.5 84.21875 L 96.5 72.665146 C 92.434784 72.421135 82.13996 72.131676 81.3125 71.9771 C 79.80214 71.698 74.88481 70.1148 73.25 69.74091 C 71.61519 69.36528 69.728004 68.89695 67.96875 68.336136 C 66.209496 67.77356 64.97499 67.391235 64.21875 67.01736 C 63.46463 66.64173 61.449905 66.46506 59.4375 66.18596 C 57.839924 65.96304 49.190636 64.392715 44.5 63.3764 C 43.284264 63.113983 42.334084 62.870605 41.84375 62.717014 C 39.454823 61.967506 32.538467 60.940716 31.28125 60.56684 C 30.024033 60.19121 29.005136 60.01014 28.0 59.82145 C 26.994864 59.634506 25.350414 59.54353 23.96875 59.44875 C 22.584957 59.35484 18.8125 59.53476 18.8125 59.53476 C 18.8125 59.53476 11.391518 57.859394 8.625 57.29858 C 7.0274186 56.974728 4.7542353 56.90248 3.1875 56.897217 z " fill="#5aa800" fill-opacity="1"/>
<path d="M 1.15625 54.638172 L 1.15625 67.73232 C 45.139545 60.544975 60.117676 74.63672 93.46875 72.4983 C 93.53653 72.365685 95.17602 72.23501 96.5 72.10523 L 96.5 71.61389 C 94.22662 71.37019 90.60256 71.12689 89.75 70.97515 C 88.03499 70.67322 82.45007 68.94751 80.59375 68.54303 C 78.73743 68.13666 76.591385 67.62659 74.59375 67.01988 C 72.59612 66.41128 71.17121 65.99947 70.3125 65.595 C 69.4562 65.18863 67.19133 64.98796 64.90625 64.68603 C 63.09221 64.44486 53.263695 62.739216 47.9375 61.639736 C 46.557037 61.355846 45.463024 61.11802 44.90625 60.951862 C 42.193634 60.14102 34.333817 59.02248 32.90625 58.618008 C 31.478685 58.211636 30.360077 58.011433 29.21875 57.8073 C 28.077421 57.60507 26.193872 57.51677 24.625 57.41423 C 23.05371 57.312637 18.78125 57.5125 18.78125 57.5125 C 18.78125 57.5125 10.36012 55.68709 7.21875 55.08038 C 5.4441204 54.73764 2.9310384 54.646988 1.15625 54.638176 z " fill="#269d29" fill-opacity="1"/>
<path d="M 96.5 74.375 C 78.336136 74.89343 34.54359 79.60112 15.125 84.21875 L 96.5 84.21875 L 96.5 81.25 C 96.48226 81.15997 96.47318 81.078705 96.5 81.0 L 96.5 74.375 z " fill="#269d29" fill-opacity="1"/>
<path d="M 38.827263 29.415615 C 38.827263 29.415615 39.03826 29.541655 38.876263 29.577787 C 38.716263 29.613918 38.67726 29.577787 38.651264 29.669378 C 38.626263 29.759289 38.452263 29.884485 38.403263 29.8055 C 38.352264 29.72315 38.06526 29.61308 38.005264 29.61308 C 37.941265 29.61308 37.915264 29.478638 37.817265 29.434105 C 37.717266 29.387884 37.629265 29.32235 37.56527 29.360165 C 37.50427 29.396296 37.30127 29.568546 37.30127 29.486202 C 37.30127 29.403852 37.05327 29.341675 37.21727 29.331593 C 37.37927 29.321512 37.62927 29.241682 37.44227 29.161022 C 37.253273 29.080362 37.06727 28.914827 37.202267 28.842562 C 37.343266 28.770302 37.278267 28.634176 37.315266 28.561916 C 37.352264 28.489656 37.442265 28.461926 37.579266 28.461926 C 37.718266 28.461926 37.829266 28.408146 37.677265 28.327484 C 37.529266 28.245134 37.253265 28.107336 37.167267 28.117418 C 37.08127 28.129179 36.75527 28.272028 36.804268 28.199768 C 36.855267 28.129189 37.09327 28.073729 37.13027 28.045158 C 37.167267 28.019108 37.193268 27.981298 37.028267 27.945168 C 36.86627 27.909037 36.669266 28.081291 36.592266 28.055243 C 36.518265 28.027512 36.278267 28.027512 36.330265 27.936764 C 36.379265 27.846853 36.254265 27.772913 36.416264 27.746025 C 36.580265 27.719975 36.717262 27.663675 36.55327 27.582172 C 36.39127 27.501513 36.09227 27.628393 36.028267 27.501513 C 35.967266 27.375473 35.83127 27.2091 35.632267 27.274641 C 35.431267 27.33682 35.255272 27.55529 35.130272 27.472942 C 35.00727 27.390593 34.982273 27.310772 34.718273 27.346903 C 34.458275 27.383034 34.396275 27.537643 34.218273 27.501513 C 34.044273 27.465382 34.095272 27.319176 33.919273 27.36539 C 33.745274 27.409922 33.620274 27.455301 33.671272 27.582176 C 33.72227 27.709898 33.446274 27.936768 33.446274 27.936768 C 33.446274 27.936768 33.671272 27.709898 33.571274 27.628393 C 33.471275 27.546883 33.245274 27.664524 33.157272 27.719984 C 33.071274 27.772924 32.821274 28.072895 32.684273 28.06281 C 32.547268 28.05441 32.422268 28.06281 32.371273 28.14516 C 32.322273 28.22582 31.986273 28.678728 31.822273 28.661922 C 31.660273 28.644272 31.560274 28.606462 31.560274 28.561932 C 31.560274 28.515722 32.046272 28.019121 31.421274 27.782167 C 31.421274 27.782167 31.196274 27.835947 31.185274 27.737637 C 31.171274 27.635963 30.773273 27.473795 30.435274 27.709906 L 30.310274 27.572104 C 30.310274 27.572104 30.236275 27.365398 29.787273 27.265408 C 29.338274 27.167097 29.558273 27.103235 29.312273 27.067104 C 29.060272 27.030973 28.785273 26.95703 28.624273 26.975513 C 28.462273 26.994843 28.186274 27.175497 28.163277 27.093994 C 28.136276 27.011644 28.001278 26.877205 28.001278 26.877205 C 28.001278 26.877205 28.149277 26.660418 27.901278 26.624287 C 27.649279 26.586477 27.524279 26.758728 27.42628 26.722597 C 27.324282 26.688147 27.17628 26.531857 27.063278 26.560427 C 26.950281 26.586477 26.65128 26.751163 26.67628 26.83267 C 26.701279 26.91333 26.526278 27.041054 26.526278 27.041054 C 26.526278 27.041054 26.413279 27.011644 26.438278 26.884764 C 26.463278 26.757885 26.239277 26.776371 26.202278 26.766285 C 26.167278 26.757885 26.126278 26.794016 25.977283 26.87636 C 25.827278 26.95703 25.588284 27.04021 25.629284 27.130959 C 25.664284 27.219189 25.527279 27.29313 25.438278 27.329262 C 25.352287 27.365393 25.292278 27.429253 25.280277 27.465385 C 25.266277 27.501516 24.989277 27.555296 24.952278 27.67377 C 24.917278 27.79225 24.942278 27.944336 24.815277 27.962822 C 24.690277 27.980473 24.329277 28.062813 24.317274 28.172888 C 24.305275 28.281282 24.329273 28.389675 24.452274 28.335058 C 24.581274 28.281279 24.917274 28.188852 24.815275 28.252708 C 24.715275 28.316568 24.629274 28.371187 24.403275 28.435045 C 24.178274 28.497225 24.016275 28.569487 24.016275 28.505625 C 24.016275 28.443445 24.041275 28.407314 23.893276 28.381266 C 23.743273 28.353535 23.532276 28.479576 23.481276 28.453526 C 23.430275 28.425795 23.493275 28.363615 23.518276 28.327486 C 23.543276 28.289677 23.655275 28.235895 23.481276 28.225815 C 23.305275 28.215734 23.081276 28.161955 23.081276 28.281275 C 23.081276 28.399752 23.056276 28.561922 22.993277 28.498062 C 22.932276 28.435883 22.891275 28.335888 22.891275 28.307323 C 22.891275 28.281273 22.731276 28.381264 22.705275 28.335054 C 22.679276 28.288845 22.641275 28.144316 22.580275 28.144316 C 22.517275 28.144316 22.428274 28.206495 22.406275 28.298925 C 22.379274 28.388836 22.355274 28.469498 22.193274 28.469498 C 22.03127 28.469498 22.031275 28.515707 22.168274 28.615704 C 22.305275 28.714014 22.393272 28.625784 22.543274 28.698053 C 22.693275 28.770313 22.777275 28.870308 22.555273 28.91484 C 22.330275 28.959372 22.379274 28.90644 22.194273 28.852661 C 22.005274 28.798882 22.005274 28.661922 21.881273 28.644278 C 21.754274 28.626627 21.508272 28.734188 21.457273 28.833336 C 21.406273 28.933327 21.568274 28.959375 21.770273 28.953493 C 21.969275 28.943413 22.145273 29.024073 21.895273 29.041723 C 21.645273 29.059374 21.483273 28.997192 21.319271 28.959373 C 21.157272 28.924923 21.057274 28.871143 20.956272 28.987104 C 20.858273 29.107262 20.956272 29.087095 20.745272 29.13331 C 20.532272 29.177841 20.546272 29.22322 20.634272 29.269436 C 20.722271 29.315645 20.734272 29.422361 20.921272 29.422361 C 21.108273 29.422361 21.234272 29.434122 21.157272 29.477821 C 21.085272 29.52403 20.796272 29.503872 20.745272 29.586214 C 20.694271 29.668564 20.583271 29.776953 20.759272 29.83073 C 20.933271 29.88367 20.907272 30.030716 20.820272 30.047518 C 20.734272 30.066847 20.634272 30.002987 20.498272 30.121458 C 20.359272 30.239937 20.422272 30.265984 20.123272 30.239937 C 19.824272 30.212206 19.598272 30.286146 19.498272 30.356733 C 19.398272 30.428993 18.912271 30.719727 18.785273 30.66343 C 18.662273 30.60965 18.512272 30.510502 18.435272 30.530666 C 18.361273 30.547476 18.386272 30.673512 18.412271 30.711323 C 18.435272 30.745773 18.211271 30.82812 18.324272 30.845764 C 18.435272 30.863415 18.549273 30.873495 18.586271 30.891985 C 18.623272 30.910475 18.586271 30.965925 18.523272 31.00038 C 18.46227 31.038189 18.361269 31.10037 18.361269 31.136503 C 18.361269 31.172634 18.328268 31.277668 18.28727 31.291111 C 18.111269 31.346571 17.87527 31.481852 18.111269 31.571758 C 18.351269 31.66335 18.601269 31.654108 18.53727 31.726368 C 18.47427 31.798628 18.27327 31.772577 18.25027 31.852407 C 18.225271 31.934757 18.162271 32.007015 18.111267 31.980127 C 18.062267 31.952396 18.074266 31.870052 18.062267 31.82552 C 18.048267 31.780989 18.025267 31.63478 17.888268 31.725529 C 17.749268 31.81544 17.798267 31.906187 17.736267 31.933914 C 17.673267 31.959965 17.650267 31.971724 17.576267 31.971724 C 17.500267 31.971724 17.400267 31.943993 17.349268 31.988533 C 17.300268 32.03475 17.275269 32.043995 17.175268 31.906183 C 17.075268 31.771742 16.775269 31.906183 16.800268 31.997774 C 16.825268 32.087685 16.663265 32.260777 16.612268 32.250694 C 16.563269 32.240616 15.540268 32.48681 16.091269 32.795185 C 16.638268 33.10356 16.950268 33.15818 16.874268 33.38253 C 16.800268 33.61024 17.05027 33.76317 17.36227 33.943825 C 17.673271 34.126163 17.59827 34.362274 17.41127 34.426136 C 17.22327 34.488316 17.21427 34.768967 17.524273 34.779045 C 17.837273 34.787445 18.061272 34.732834 18.149273 34.832825 C 18.235273 34.932816 18.66127 35.01348 18.809273 34.922733 C 18.95927 34.832825 19.14727 34.72443 19.372272 34.678215 C 19.597273 34.633686 19.895271 34.443783 19.75927 34.33371 C 19.622272 34.225315 19.497272 34.044655 19.497272 34.044655 C 19.497272 34.044655 19.886272 34.034576 19.997272 33.953064 C 20.108273 33.872395 20.19627 34.016926 20.38427 34.035416 C 20.572268 34.054745 20.77327 33.91694 20.88427 34.009365 C 20.99527 34.099274 21.472267 34.009365 21.472267 33.973236 C 21.472267 33.937107 21.558268 33.62705 21.58127 33.746365 C 21.60827 33.863163 21.81927 33.98248 21.89527 33.942986 C 21.969269 33.906857 22.106268 33.854755 22.03227 33.808544 C 21.95627 33.762333 21.78227 33.690067 21.90727 33.636288 C 22.03227 33.582508 21.97027 33.508568 22.04627 33.46403 C 22.12027 33.419502 22.169271 33.32959 22.26927 33.40185 C 22.371271 33.47243 22.58227 33.427902 22.642271 33.54638 C 22.70627 33.664856 22.63227 33.80938 22.792273 33.80098 C 22.954271 33.7909 23.130276 33.600998 23.192276 33.627045 C 23.256275 33.654774 23.430273 33.564865 23.442276 33.646374 C 23.456276 33.728725 23.215273 33.88921 23.391275 33.88921 C 23.565275 33.88921 23.791275 33.75477 23.928276 33.66402 C 24.065275 33.57243 24.215273 33.43715 24.178276 33.536297 C 24.141275 33.636288 23.729273 33.85476 23.928276 33.916935 C 24.127275 33.982475 24.354273 33.78081 24.416273 33.834583 C 24.478273 33.888363 24.652273 34.01692 24.791273 34.00852 C 24.928276 34.00012 25.238272 33.97239 25.389273 33.898445 C 25.389273 33.898445 25.438272 34.26144 25.901276 34.29925 C 25.901276 34.29925 25.989275 34.63368 26.553276 34.514362 C 26.553276 34.514362 26.412275 34.588303 26.553276 34.78661 C 26.553276 34.78661 25.926275 34.714348 25.803276 34.941216 C 25.803276 34.941216 25.539276 35.06894 25.940275 35.16809 C 25.940275 35.16809 26.003275 35.376476 26.176275 35.36051 C 26.350275 35.341183 26.412275 35.42269 26.490273 35.45042 C 26.562273 35.47647 26.750269 35.39664 26.875269 35.36807 C 27.000269 35.3395 27.051268 35.268078 27.150272 35.34034 C 27.248272 35.41428 28.935272 35.91172 29.134272 34.797527 C 29.134272 34.797527 29.509272 34.55133 29.52127 34.29001 C 29.53527 34.027004 29.683271 34.188335 29.93527 34.055576 C 30.183273 33.917774 30.28327 34.055576 30.222271 34.136246 C 30.159271 34.216915 30.009272 34.353035 30.120272 34.444626 C 30.233273 34.534534 30.63227 34.705948 30.63227 34.542934 C 30.63227 34.379925 30.72027 34.316063 30.659271 34.236237 C 30.596272 34.153885 30.419271 34.08163 30.682272 34.02785 C 30.942272 33.97407 30.969273 33.937943 31.034271 33.96399 C 31.095272 33.99172 31.245272 33.93794 31.331272 33.817783 C 31.419271 33.702667 31.394272 33.64721 31.507273 33.61108 C 31.620275 33.57327 31.820272 33.97407 31.931273 33.774933 C 32.044273 33.57327 31.783272 33.428745 31.956272 33.37581 C 32.132275 33.320347 32.267273 33.411938 32.267273 33.411938 L 32.119274 33.754765 C 32.119274 33.754765 32.217274 33.763165 32.293274 33.708553 C 32.369274 33.653934 32.443275 33.63629 32.443275 33.555626 C 32.443275 33.471596 32.457275 33.4111 32.457275 33.355644 C 32.457275 33.301865 32.531277 33.24725 32.645275 33.291782 C 32.756275 33.338 32.833275 33.391773 32.745274 33.47244 C 32.657272 33.55647 32.757275 33.590916 32.905273 33.654774 C 33.057274 33.718636 33.057274 33.572433 33.180275 33.556465 C 33.305275 33.537136 33.479275 33.43799 33.41827 33.320354 C 33.35527 33.201878 33.27027 33.131294 33.40427 33.02206 C 33.54327 32.913666 33.51927 33.011982 33.66827 32.96828 C 33.81827 32.92375 33.81827 32.769978 33.830265 32.61537 C 33.844265 32.460766 33.992264 32.55823 34.066265 32.47757 C 34.142265 32.3969 34.117264 32.315395 34.291264 32.341446 C 34.469265 32.369175 34.305264 32.425476 34.268265 32.522102 C 34.231266 32.62377 34.305264 32.685955 34.379265 32.776703 C 34.455265 32.868294 34.893265 32.850643 34.803265 32.686794 C 34.715263 32.522945 34.567265 32.433876 34.742264 32.433876 C 34.916264 32.433876 34.916264 32.552357 35.117264 32.504456 C 35.316265 32.461605 35.441265 32.451515 35.553265 32.36161 C 35.664265 32.27002 35.729263 32.207 35.81527 32.28767 C 35.90527 32.37002 36.24327 32.29775 36.290268 32.29775 C 36.339268 32.29775 36.429268 32.333878 36.45427 32.37001 C 36.47727 32.40782 36.73927 32.55235 36.950268 32.41622 C 37.165268 32.28178 37.290268 32.18851 37.151268 32.027184 C 37.014267 31.863333 37.090267 31.808714 36.92627 31.79947 C 36.76427 31.79107 36.428265 31.935596 36.38927 31.79947 C 36.35027 31.665031 36.45327 31.691078 36.59027 31.637299 C 36.727276 31.583519 36.65427 31.428915 36.428276 31.382698 C 36.203274 31.338167 36.01427 31.292788 36.102276 31.202042 C 36.190277 31.11045 36.454273 31.093647 36.579273 31.029787 C 36.704273 30.967607 36.765274 30.839048 36.876274 30.829803 C 36.989273 30.819723 37.190273 30.793673 37.128273 30.839884 C 37.066273 30.886105 36.876274 30.98441 36.864273 31.039867 C 36.852272 31.093647 36.788273 31.210442 37.102276 31.210442 C 37.413273 31.210442 37.475273 31.202042 37.52627 31.338161 C 37.57727 31.472603 37.614273 31.601164 37.837273 31.500332 C 38.064274 31.402021 38.13827 31.338161 37.991272 31.23649 C 37.837273 31.13818 37.65127 31.074318 37.82727 31.03987 C 38.00327 31.00206 38.14927 30.876019 38.16327 30.95752 C 38.17727 31.039019 37.86427 31.25581 38.10027 31.282698 C 38.338264 31.308748 38.575268 31.202038 38.55127 31.084396 C 38.52427 30.9676 38.37327 30.567635 38.686268 30.45924 C 39.000267 30.350845 39.036266 30.42311 39.02427 30.46764 C 39.012268 30.51386 39.08727 30.713837 39.27427 30.665941 C 39.462265 30.62141 39.33727 30.649132 39.52427 30.649132 C 39.71127 30.649132 39.874268 30.576872 39.823265 30.466797 C 39.776264 30.358402 39.561264 30.28782 39.735264 30.213877 C 39.911263 30.141617 40.075264 29.960957 40.048264 29.797106 C 40.025265 29.633253 40.011265 29.498814 39.925262 29.516459 C 39.83726 29.533268 39.724262 29.598808 39.700264 29.55259 C 39.671265 29.506369 39.837265 29.416464 39.749264 29.252613 C 39.661263 29.09044 39.601265 29.061874 39.401264 29.01818 C 39.200264 28.97196 39.137264 29.128256 39.001263 29.083721 C 38.862263 29.035822 38.97626 28.918188 39.08726 28.856009 C 39.200256 28.792149 39.200256 28.692158 39.10126 28.629137 C 39.001263 28.565277 38.814262 28.619057 38.96226 28.482931 C 39.112263 28.346807 38.890263 28.184639 38.714256 28.264462 C 38.538258 28.346811 38.552258 28.402266 38.575256 28.50898 C 38.600258 28.619057 38.950256 28.646782 38.751255 28.746777 C 38.552254 28.845087 38.814255 28.891302 38.649254 28.945078 C 38.489254 28.998857 38.239254 29.089603 38.389256 29.153461 C 38.54026 29.217321 38.353256 29.516455 38.82726 29.415625 z " fill="#e9f3fa" fill-opacity="0.35106381"/>
<path d="M 55.587364 34.38291 C 55.587364 34.38291 55.409676 34.234104 55.575005 34.21956 C 55.740337 34.20501 55.771233 34.243057 55.819138 34.15802 C 55.86395 34.07522 56.06017 33.97453 56.091076 34.057323 C 56.121975 34.142353 56.375378 34.28445 56.435635 34.2934 C 56.498985 34.3001 56.489716 34.435493 56.574696 34.490314 C 56.665855 34.547375 56.732304 34.62122 56.803375 34.59325 C 56.872906 34.56528 57.107765 34.42542 57.090767 34.50374 C 57.073776 34.582058 57.29936 34.67604 57.138668 34.66374 C 56.97643 34.65255 56.713757 34.700657 56.87909 34.801357 C 57.041325 34.904293 57.183475 35.087784 57.03669 35.140373 C 56.882183 35.192963 56.91308 35.332817 56.859 35.39771 C 56.80492 35.4626 56.71067 35.47826 56.580883 35.46148 C 56.444912 35.44582 56.32439 35.48386 56.45109 35.581192 C 56.577793 35.67853 56.812656 35.845238 56.900726 35.845238 C 56.985706 35.84744 57.337997 35.74902 57.27156 35.812798 C 57.20821 35.87658 56.960987 35.897827 56.91773 35.922447 C 56.876007 35.944817 56.84202 35.97727 56.99344 36.032093 C 57.14486 36.086914 57.37664 35.944824 57.44616 35.979504 C 57.50951 36.014183 57.74437 36.045513 57.67175 36.126076 C 57.60222 36.208866 57.70729 36.296143 57.541958 36.300613 C 57.376637 36.307312 57.231388 36.342003 57.37045 36.442703 C 57.50951 36.541164 57.83244 36.456135 57.861805 36.58704 C 57.892704 36.71571 57.988506 36.892487 58.197094 36.853325 C 58.41187 36.818645 58.62819 36.628437 58.7348 36.724655 C 58.833687 36.818634 58.839867 36.901432 59.105633 36.899197 C 59.3683 36.894695 59.464104 36.75486 59.627888 36.811928 C 59.791676 36.868988 59.709778 37.00437 59.887466 36.979755 C 60.068245 36.957386 60.201126 36.929417 60.182587 36.80074 C 60.160957 36.672073 60.486973 36.486347 60.486973 36.486347 C 60.486973 36.486347 60.211945 36.67879 60.287647 36.77054 C 60.366447 36.862278 60.616764 36.77504 60.712563 36.73362 C 60.81145 36.69223 61.12666 36.43153 61.256447 36.458385 C 61.389324 36.484116 61.51294 36.490826 61.582466 36.419224 C 61.648907 36.347614 62.083088 35.94931 62.2376 35.986225 C 62.395203 36.023144 62.481728 36.071255 62.469368 36.11489 C 62.45701 36.15853 61.868317 36.582573 62.421467 36.88802 C 62.421467 36.88802 62.653236 36.86229 62.64242 36.95963 C 62.630062 37.060326 62.9839 37.267315 63.36709 37.07934 L 63.45516 37.228146 C 63.45516 37.228146 63.482967 37.438488 63.89552 37.590656 C 64.30807 37.74282 64.07939 37.776386 64.312706 37.842396 C 64.55066 37.910645 64.797874 38.014698 64.958565 38.016933 C 65.123886 38.019135 65.436005 37.879314 65.442184 37.959873 C 65.44839 38.042664 65.54726 38.19147 65.54726 38.19147 C 65.54726 38.19147 65.35103 38.38392 65.58279 38.44881 C 65.82074 38.51706 65.98143 38.36378 66.067955 38.411892 C 66.15912 38.457764 66.26727 38.62559 66.38471 38.613285 C 66.499054 38.604286 66.83125 38.48014 66.82507 38.399586 C 66.821976 38.319027 67.02129 38.21609 67.02129 38.21609 C 67.02129 38.21609 67.12328 38.25748 67.07227 38.378323 C 67.015114 38.498035 67.2376 38.506992 67.27468 38.522655 C 67.30558 38.533844 67.35348 38.504757 67.518814 38.444336 C 67.68105 38.385036 67.936 38.33469 67.91746 38.240704 C 67.9051 38.15119 68.05652 38.096375 68.149216 38.072876 C 68.241936 38.049377 68.317635 37.994568 68.339264 37.960995 C 68.36089 37.927425 68.640564 37.908405 68.707 37.79876 C 68.76725 37.68688 68.77961 37.539185 68.909424 37.53695 C 69.033035 37.534748 69.403854 37.50003 69.44403 37.394855 C 69.47957 37.291924 69.48266 37.183395 69.34668 37.220318 C 69.21069 37.257236 68.86151 37.30312 68.975845 37.254997 C 69.08709 37.204647 69.18753 37.163258 69.419304 37.128567 C 69.65417 37.09836 69.830315 37.048016 69.817955 37.108425 C 69.802505 37.169964 69.766975 37.202404 69.90604 37.2438 C 70.04509 37.291912 70.283035 37.19569 70.32477 37.225903 C 70.369576 37.258354 70.29232 37.31317 70.25833 37.343384 C 70.22589 37.378063 70.10382 37.414986 70.2707 37.446316 C 70.439125 37.478767 70.64461 37.56044 70.67244 37.444115 C 70.70333 37.327755 70.76668 37.17335 70.81149 37.244957 C 70.85629 37.313206 70.87174 37.412792 70.865585 37.44187 C 70.85938 37.4676 71.040184 37.389282 71.05254 37.43737 C 71.06799 37.483242 71.07417 37.62981 71.13133 37.638763 C 71.19159 37.645462 71.29358 37.595123 71.336845 37.510094 C 71.384735 37.42729 71.427986 37.350094 71.584076 37.37024 C 71.74477 37.39261 71.752495 37.34674 71.644325 37.232616 C 71.53307 37.118496 71.42956 37.195698 71.29977 37.10843 C 71.16688 37.018917 71.10972 36.90927 71.3353 36.89697 C 71.56399 36.87907 71.50372 36.92494 71.67369 37.002144 C 71.8452 37.078224 71.812744 37.210247 71.93018 37.24269 C 72.04762 37.275143 72.31646 37.2013 72.38908 37.11179 C 72.46169 37.022278 72.31029 36.976406 72.110954 36.95627 C 71.91473 36.942837 71.760216 36.842144 72.01206 36.85557 C 72.259285 36.869003 72.401436 36.95179 72.55285 37.00661 C 72.70427 37.06144 72.78771 37.126328 72.9144 37.026752 C 73.03801 36.92382 72.93912 36.92829 73.15544 36.91039 C 73.37176 36.89249 73.37022 36.84662 73.294495 36.79291 C 73.221886 36.73809 73.234215 36.63291 73.05038 36.60942 C 72.8696 36.585922 72.74908 36.559082 72.83251 36.52662 C 72.91749 36.49194 73.19098 36.54676 73.26051 36.471798 C 73.33003 36.396828 73.46601 36.308445 73.30531 36.233482 C 73.14771 36.16188 73.20642 36.022022 73.29601 36.015305 C 73.38564 36.008606 73.46752 36.083553 73.6313 35.985096 C 73.79199 35.888878 73.73946 35.85419 74.020676 35.916847 C 74.30807 35.980618 74.54603 35.939228 74.66036 35.882156 C 74.77471 35.825096 75.31551 35.604683 75.426765 35.671814 C 75.53182 35.742306 75.65854 35.85531 75.73731 35.846355 C 75.81304 35.839657 75.819214 35.713215 75.80066 35.674053 C 75.78521 35.637135 76.02626 35.586784 75.91809 35.554337 C 75.816124 35.524128 75.70641 35.499516 75.67396 35.478256 C 75.64307 35.455887 75.6925 35.407764 75.76204 35.379795 C 75.831566 35.351826 75.94592 35.303703 75.95209 35.267906 C 75.96139 35.233227 76.01543 35.13476 76.06025 35.12805 C 76.24413 35.0956 76.50988 34.99491 76.2982 34.878548 C 76.08651 34.75883 75.83931 34.736454 75.92118 34.67492 C 75.99998 34.61338 76.18694 34.66373 76.22866 34.58765 C 76.27346 34.51157 76.35227 34.45003 76.39399 34.482475 C 76.43262 34.514927 76.40329 34.59212 76.40329 34.637993 C 76.40949 34.681633 76.39709 34.82596 76.55162 34.755474 C 76.70922 34.684982 76.68142 34.59212 76.74785 34.571983 C 76.81737 34.554085 76.8421 34.548492 76.91627 34.556324 C 76.98888 34.565323 77.078514 34.604435 77.140305 34.567513 C 77.2021 34.530594 77.225266 34.523872 77.288635 34.670444 C 77.355064 34.812534 77.6811 34.720795 77.67491 34.629055 C 77.67491 34.537304 77.87423 34.39074 77.919044 34.4064 C 77.966934 34.42206 79.02381 34.31019 78.55872 33.943195 C 78.09673 33.576214 77.8047 33.484467 77.934494 33.276363 C 78.058105 33.064903 77.852615 32.884766 77.58993 32.671066 C 77.330345 32.455128 77.457054 32.235832 77.65327 32.19668 C 77.852585 32.15976 77.92831 31.888994 77.62855 31.840885 C 77.324165 31.795015 77.09392 31.818504 77.03058 31.712215 C 76.97032 31.602571 76.571686 31.473904 76.40944 31.542149 C 76.24102 31.612638 76.03242 31.693193 75.799126 31.707739 C 75.570435 31.72564 75.23515 31.87109 75.343315 31.994165 C 75.44838 32.11612 75.53027 32.306324 75.53027 32.306324 C 75.53027 32.306324 75.14709 32.267162 75.020386 32.332054 C 74.893684 32.396946 74.8427 32.247025 74.6619 32.205624 C 74.48422 32.164223 74.25708 32.271633 74.170555 32.168705 C 74.08248 32.06801 73.59422 32.097095 73.58806 32.131786 C 73.57876 32.166477 73.42272 32.45513 73.4258 32.337654 C 73.428894 32.220177 73.2512 32.08032 73.166214 32.106052 C 73.084335 32.131794 72.94063 32.16759 73.000885 32.220173 C 73.067314 32.274994 73.21876 32.36674 73.08586 32.403664 C 72.94989 32.440582 72.9916 32.520023 72.91126 32.55247 C 72.826294 32.587162 72.75676 32.66883 72.67949 32.587162 C 72.59452 32.50437 72.38128 32.521152 72.3473 32.399193 C 72.31331 32.277237 72.41991 32.145214 72.25922 32.135147 C 72.098526 32.125076 71.882195 32.28619 71.828125 32.252625 C 71.774025 32.217934 71.58399 32.282833 71.59017 32.202274 C 71.596375 32.121716 71.86829 31.994165 71.695244 31.97291 C 71.526825 31.95054 71.276505 32.05347 71.11891 32.123955 C 70.9644 32.195564 70.78671 32.307446 70.84387 32.217934 C 70.904144 32.123955 71.35686 31.963955 71.17917 31.878925 C 71.00148 31.791655 70.73262 31.957245 70.68164 31.899065 C 70.63683 31.837524 70.49468 31.69096 70.35871 31.685366 C 70.22583 31.674175 69.91217 31.662996 69.74839 31.713335 C 69.74839 31.713335 69.78703 31.357544 69.34357 31.263556 C 69.34357 31.263556 69.337364 30.92902 68.75796 30.974895 C 68.75796 30.974895 68.91247 30.920076 68.82439 30.710848 C 68.82439 30.710848 69.41617 30.857416 69.59077 30.653788 C 69.59077 30.653788 69.87816 30.562038 69.511955 30.417711 C 69.511955 30.417711 69.49959 30.207365 69.32498 30.204012 C 69.15039 30.200712 69.110214 30.112263 69.040695 30.07758 C 68.97426 30.040659 68.77184 30.09772 68.64514 30.10779 C 68.51535 30.11898 68.44891 30.18163 68.36701 30.09879 C 68.29131 30.01599 66.761635 29.323425 66.305824 30.378502 C 66.305824 30.378502 65.88091 30.570946 65.8083 30.821566 C 65.7326 31.075544 65.62752 30.899885 65.349396 30.996107 C 65.074356 31.099041 65.00792 30.952467 65.08672 30.881985 C 65.168625 30.811495 65.349396 30.698494 65.25823 30.59556 C 65.16706 30.494862 64.82405 30.278925 64.78388 30.435566 C 64.743706 30.592205 64.64482 30.645908 64.68499 30.730942 C 64.7267 30.818213 64.88122 30.909958 64.61238 30.930096 C 64.34662 30.952477 64.31108 30.982685 64.253914 30.947996 C 64.20293 30.915556 64.04223 30.947996 63.930984 31.05317 C 63.819733 31.153864 63.829006 31.210926 63.71003 31.232183 C 63.591053 31.253443 63.48907 30.840586 63.336105 31.020721 C 63.1785 31.201975 63.399456 31.374277 63.215588 31.403368 C 63.03481 31.435818 62.923557 31.329529 62.923557 31.329529 L 63.149147 31.01737 C 63.149147 31.01737 63.054897 30.99723 62.96837 31.039751 C 62.8803 31.083391 62.806133 31.09234 62.7845 31.170658 C 62.76596 31.251219 62.73969 31.308273 62.72424 31.36086 C 62.71188 31.41345 62.6269 31.45708 62.52801 31.40002 C 62.429123 31.34073 62.367317 31.280304 62.47393 31.212055 C 62.57591 31.141565 62.48938 31.095695 62.35959 31.015139 C 62.22671 30.934578 62.191174 31.07668 62.067562 31.078909 C 61.94086 31.081108 61.75081 31.154999 61.780167 31.278065 C 61.81262 31.400017 61.879055 31.479458 61.722996 31.568966 C 61.560757 31.656237 61.608654 31.564466 61.454147 31.589106 C 61.293457 31.612606 61.26101 31.761406 61.21002 31.910217 C 61.162117 32.05679 61.041595 31.944908 60.94735 32.015392 C 60.8531 32.08364 60.85928 32.166435 60.69704 32.118324 C 60.531715 32.070213 60.70324 32.035534 60.76348 31.946024 C 60.820652 31.854275 60.76348 31.78379 60.71559 31.68869 C 60.66151 31.587994 60.231968 31.551073 60.278316 31.72114 C 60.326218 31.891205 60.44983 31.996376 60.278316 31.972881 C 60.109898 31.952742 60.136173 31.839739 59.927574 31.858759 C 59.725163 31.87443 59.601555 31.86995 59.471764 31.943789 C 59.341976 32.017628 59.263176 32.070217 59.196728 31.98071 C 59.130287 31.8912 58.782635 31.916939 58.737827 31.912458 C 58.689926 31.905758 58.611126 31.859869 58.592587 31.822948 C 58.577145 31.781548 58.357723 31.611486 58.118233 31.715538 C 57.877193 31.820707 57.73504 31.892319 57.830833 32.066856 C 57.925083 32.243637 57.840134 32.285034 57.996162 32.316364 C 58.150673 32.342094 58.515324 32.245872 58.51842 32.384613 C 58.52462 32.517754 58.43035 32.48083 58.286644 32.51552 C 58.138317 32.55021 58.1754 32.710197 58.385532 32.781803 C 58.591034 32.853413 58.76563 32.92166 58.65747 32.995502 C 58.552402 33.073822 58.289734 33.059273 58.15376 33.105152 C 58.017788 33.151024 57.92817 33.267384 57.815372 33.26291 C 57.702576 33.258408 57.501713 33.258408 57.57434 33.221508 C 57.64387 33.18459 57.85246 33.111862 57.875637 33.059273 C 57.903446 33.008923 57.98998 32.901516 57.682495 32.864597 C 57.381195 32.825436 57.317844 32.825436 57.2993 32.687817 C 57.28385 32.550198 57.27767 32.423767 57.036633 32.4909 C 56.792503 32.559147 56.704433 32.610615 56.824947 32.726974 C 56.94856 32.843334 57.11543 32.928368 56.936195 32.938435 C 56.758503 32.954105 56.582363 33.05815 56.588547 32.977596 C 56.597847 32.894794 56.950108 32.723614 56.727608 32.669907 C 56.502018 32.615086 56.243984 32.69005 56.23934 32.805286 C 56.23934 32.922764 56.290333 33.32779 55.961224 33.394924 C 55.629025 33.460934 55.610477 33.385925 55.632114 33.344574 C 55.656834 33.300934 55.629013 33.09731 55.435883 33.119686 C 55.24274 33.139828 55.369442 33.128685 55.188667 33.104015 C 55.00789 33.081635 54.830204 33.131985 54.85338 33.243874 C 54.875008 33.355755 55.06815 33.451984 54.8812 33.500088 C 54.69115 33.5482 54.488735 33.703716 54.476376 33.864838 C 54.460926 34.02707 54.443924 34.16021 54.530457 34.153496 C 54.621616 34.148994 54.745228 34.098675 54.75913 34.146797 C 54.773037 34.194916 54.593807 34.26092 54.638615 34.43099 C 54.686504 34.598812 54.737495 34.634617 54.922913 34.701744 C 55.10987 34.772236 55.207214 34.630142 55.330826 34.688324 C 55.454437 34.752094 55.315376 34.85056 55.191765 34.898663 C 55.065063 34.94678 55.043434 35.043 55.122234 35.11684 C 55.207214 35.19069 55.403446 35.16048 55.224213 35.274597 C 55.044983 35.388718 55.227314 35.574448 55.414265 35.517387 C 55.607403 35.460327 55.607403 35.405502 55.610493 35.299213 C 55.610493 35.18733 55.278294 35.11796 55.49306 35.04523 C 55.710922 34.97474 55.46524 34.898663 55.641396 34.86622 C 55.809814 34.833767 56.075573 34.776707 55.94269 34.69615 C 55.82059 34.613403 56.0709 34.343754 55.587276 34.382915 z " fill="#d5ecf9" fill-opacity="0.89361704"/>
<path d="M 87.8125 54.3125 C 87.79824 54.551304 87.73479 54.732906 87.71875 54.96875 L 87.78125 54.96875 C 87.7951 54.761375 87.79988 54.521908 87.8125 54.3125 z " fill="url(#linearGradient4072)"/>
</g>
</g>
</svg>
