<?xml version="1.0" encoding="UTF-8"?>
<svg xmlns="http://www.w3.org/2000/svg" xmlns:xlink="http://www.w3.org/1999/xlink" baseProfile="tiny" contentScriptType="text/ecmascript" contentStyleType="text/css" height="96px" preserveAspectRatio="xMidYMid meet" version="1.1" viewBox="0 0 96 96" width="96px" x="0px" y="0px" zoomAndPan="magnify">
<defs>
<linearGradient>
<stop offset="0" stop-color="#d6dfe2" stop-opacity="1"/>
<stop offset="1" stop-color="#c4d1d6" stop-opacity="1"/>
</linearGradient>
<linearGradient>
<stop offset="0" stop-color="#ffffff" stop-opacity="1"/>
<stop offset="1" stop-color="#ffffff" stop-opacity="0.78431374"/>
</linearGradient>
<linearGradient>
<stop offset="0" stop-color="#46d4fc" stop-opacity="1"/>
<stop offset="1" stop-color="#46b1fc" stop-opacity="1"/>
</linearGradient>
<linearGradient gradientUnits="userSpaceOnUse" id="linearGradient3826" x1="48.271187" x2="48.271187" y1="8.1355934" y2="87.14875">
<stop offset="0" stop-color="#46d4fc" stop-opacity="1"/>
<stop offset="1" stop-color="#46b1fc" stop-opacity="1"/>
</linearGradient>
<linearGradient gradientTransform="matrix(0.66071887,0,0,0.66071887,14.065812,15.190326)" gradientUnits="userSpaceOnUse" x1="45.428997" x2="45.428997" y1="19.829666" y2="87.520874">
<stop offset="0" stop-color="#ffffff" stop-opacity="1"/>
<stop offset="1" stop-color="#ffffff" stop-opacity="0.78431374"/>
</linearGradient>
<linearGradient gradientTransform="matrix(0.66071887,0,0,0.66071887,14.065811,15.190326)" gradientUnits="userSpaceOnUse" x1="45.428997" x2="45.428997" y1="19.829666" y2="87.520874">
<stop offset="0" stop-color="#46d4fc" stop-opacity="1"/>
<stop offset="1" stop-color="#46b1fc" stop-opacity="1"/>
</linearGradient>
<linearGradient gradientUnits="userSpaceOnUse" x1="87.585358" x2="87.585358" y1="8.7741842" y2="92.062881">
<stop offset="0" stop-color="#d6dfe2" stop-opacity="1"/>
<stop offset="1" stop-color="#c4d1d6" stop-opacity="1"/>
</linearGradient>
<linearGradient gradientTransform="matrix(0.66071887,0,0,0.66071887,14.065811,15.190326)" gradientUnits="userSpaceOnUse" id="linearGradient3894" x1="45.428997" x2="45.428997" y1="19.829666" y2="87.520874">
<stop offset="0" stop-color="#46d4fc" stop-opacity="1"/>
<stop offset="1" stop-color="#46b1fc" stop-opacity="1"/>
</linearGradient>
<linearGradient gradientTransform="matrix(0.66071887,0,0,0.66071887,14.065812,15.190326)" gradientUnits="userSpaceOnUse" id="linearGradient3896" x1="45.428997" x2="45.428997" y1="19.829666" y2="87.520874">
<stop offset="0" stop-color="#ffffff" stop-opacity="1"/>
<stop offset="1" stop-color="#ffffff" stop-opacity="0.78431374"/>
</linearGradient>
<linearGradient gradientUnits="userSpaceOnUse" x1="48.271187" x2="48.271187" y1="8.1355934" y2="87.14875">
<stop offset="0" stop-color="#46d4fc" stop-opacity="1"/>
<stop offset="1" stop-color="#46b1fc" stop-opacity="1"/>
</linearGradient>
<linearGradient gradientTransform="matrix(1.000024,0,0,1,-0.00161411,0)" gradientUnits="userSpaceOnUse" x1="67.1875" x2="88" y1="47.671875" y2="47.671875">
<stop offset="0" stop-color="#d6dfe2" stop-opacity="1"/>
<stop offset="1" stop-color="#c4d1d6" stop-opacity="1"/>
</linearGradient>
</defs>
<rect fill="none" height="96" width="96"/>
<path d="M 88.0 49.0 C 88.0 78.635 77.637 89.0 48.0 89.0 C 18.365 89.0 8.0 78.635 8.0 49.0 C 8.0 19.367 18.365 9.0 48.0 9.0 C 77.637 9.0 88.0 19.367 88.0 49.0 z " fill-opacity="0.4" stroke-opacity="0.4"/>
<linearGradient gradientUnits="userSpaceOnUse" x1="48.0005" x2="48.0005" xlink:actuate="onLoad" xlink:show="other" xlink:type="simple" y1="88" y2="8.0005">
<stop offset="0" stop-color="#02598b"/>
<stop offset="0.253" stop-color="#026d98"/>
<stop offset="0.7688" stop-color="#01a1bb"/>
<stop offset="1" stop-color="#00bacc"/>
</linearGradient>
<path d="M 88.0 48.0 C 88.0 77.635 77.637 88.0 48.0 88.0 C 18.365 88.0 8.0 77.635 8.0 48.0 C 8.0 18.367 18.365 8.0 48.0 8.0 C 77.637 8.0 88.0 18.367 88.0 48.0 z " fill="url(#linearGradient3826)" fill-opacity="1"/>
<rect fill="none" height="80" width="80" x="7.953" y="8"/>
<linearGradient gradientUnits="userSpaceOnUse" id="SVGID_2_" x1="47.9995" x2="47.9995" xlink:actuate="onLoad" xlink:show="other" xlink:type="simple" y1="8.2534" y2="87.4985">
<stop offset="0" stop-color="#ffffff"/>
<stop offset="1" stop-color="#ffffff" stop-opacity="0"/>
</linearGradient>
<path d="M 48.0 8.0 C 18.365 8.0 8.0 18.367 8.0 48.0 C 8.0 77.635 18.365 88.0 48.0 88.0 C 77.637 88.0 88.0 77.635 88.0 48.0 C 88.0 18.367 77.637 8.0 48.0 8.0 z M 48.0 87.0 C 18.842 87.0 9.0 77.159 9.0 48.0 C 9.0 18.842 18.842 9.0 48.0 9.0 C 77.158005 9.0 87.0 18.842 87.0 48.0 C 87.0 77.159 77.158 87.0 48.0 87.0 z " fill="url(#SVGID_2_)" fill-opacity="0.25" stroke-opacity="0.25"/>
<radialGradient cx="47.9995" cy="33.5469" gradientUnits="userSpaceOnUse" r="35.5926" xlink:actuate="onLoad" xlink:show="other" xlink:type="simple">
<stop offset="0" stop-color="#fdfef9"/>
<stop offset="0.2121" stop-color="#fdfef9"/>
<stop offset="1" stop-color="#d0cbc5"/>
</radialGradient>
<g transform="translate(2.1697955,0.385927)">
<path d="M 66.049194 66.84533 C 65.373276 66.11193 64.56919 65.49019 63.75055 65.061386 C 61.652763 63.8384 59.428787 62.75548 57.14138 61.842365 C 55.98776 61.381844 55.070023 60.44825 54.415913 59.06801 C 54.264606 58.75086 54.15559 58.42315 54.10009 58.1212 C 54.16352 58.05182 54.224304 57.98047 54.283108 57.90713 C 54.700684 57.389786 55.078613 56.797123 55.440025 56.0961 C 55.96331 55.072647 56.256016 54.085533 56.532856 53.130795 C 57.8761 52.341896 58.34851 50.67028 58.585052 49.833145 L 58.602234 49.76839 C 58.639893 49.63427 58.693413 49.46975 58.762787 49.253693 L 58.786575 49.17903 C 59.037643 48.39674 59.38188 47.325054 59.538475 46.311512 C 59.785587 44.702 59.423508 43.665333 59.003296 43.032364 C 59.003296 43.032364 59.190937 42.036 59.208115 41.94218 C 59.350166 41.171783 59.419544 40.468113 59.421524 39.79088 C 59.422184 39.55434 59.430725 39.316483 59.438705 39.103725 C 59.473064 38.40601 58.860577 34.839447 58.172768 33.33631 C 57.578117 32.033375 56.67426 30.411308 54.961674 29.418913 C 53.80013 28.744976 52.618103 28.387527 51.47572 28.042631 L 51.403694 28.020832 C 51.19755 27.95872 50.993393 27.896618 50.792538 27.833183 C 50.498516 27.739365 50.20119 27.640257 49.86885 27.527931 C 48.247444 26.98416 46.570538 26.422548 44.647182 26.422548 C 44.392147 26.422548 44.13777 26.432447 43.882072 26.454268 C 42.94253 26.532888 42.199223 26.80445 41.541805 27.044949 C 41.323765 27.1249 41.099125 27.207483 40.890335 27.25836 C 40.843426 27.25636 40.789906 27.25306 40.717884 27.24846 C 40.532887 27.23723 40.3459 27.227982 40.159576 27.227982 C 39.82063 27.227982 39.512074 27.257051 39.215412 27.31586 C 37.41429 27.671328 36.629356 29.029106 36.312874 29.618467 C 34.805775 30.176111 34.1107 31.441393 33.7288 32.137787 L 33.637623 32.300983 C 32.532238 34.28777 32.034718 38.374973 32.06115 38.81435 C 32.06445 38.87712 32.06515 39.00596 32.06645 39.22664 L 32.068447 39.48696 C 32.073746 40.33202 32.079678 40.667004 32.093555 40.832844 C 32.095554 41.725475 32.185394 42.62075 32.359165 43.49884 C 31.871555 44.483315 31.837198 45.76511 32.25411 47.40435 C 32.26798 47.45919 32.31556 47.69044 32.31622 47.693085 C 32.805153 50.02079 33.28747 51.895916 34.546143 52.874443 C 34.793255 53.746593 35.060184 54.64649 35.492294 55.58141 C 35.968674 56.615433 36.472797 57.42944 37.064804 58.113285 C 37.036404 58.231556 36.84875 58.94248 36.84875 58.94248 C 36.669697 59.6772 36.31159 60.323383 35.812084 60.811 C 35.24056 61.371952 34.3955 61.726757 33.325798 62.17605 L 33.261707 62.203136 C 33.015263 62.30687 32.76881 62.410603 32.52765 62.5183 L 32.18671 62.6696 C 30.253448 63.525894 28.254774 64.41126 26.452332 65.741295 C 25.954811 66.10996 25.550451 66.67819 25.213486 67.45255 C 66.39241 67.45255 24.913883 67.381874 66.41196 67.381874 C 66.29435 67.16582 66.17872 66.98478 66.049225 66.84537 z " fill-opacity="0.02999998" stroke-opacity="0.02999998"/>
<path d="M 65.91771 67.852264 C 65.81001 67.628944 65.69769 67.43734 65.56356 67.29263 C 64.939186 66.615395 64.18794 66.03595 63.417545 65.631584 C 61.349503 64.42577 59.155254 63.35673 56.89625 62.45485 C 55.583405 61.93024 54.547394 60.886303 53.819283 59.350796 C 53.58539 58.858555 53.43937 58.341877 53.40501 57.893906 C 53.531208 57.766388 53.655422 57.632927 53.76973 57.491528 C 54.16021 57.007885 54.513695 56.45288 54.85264 55.7948 C 55.364037 54.79447 55.64947 53.81 55.92631 52.8546 L 55.9785 52.675545 C 57.260956 52.094772 57.718178 50.476013 57.948105 49.660686 L 57.967262 49.589325 C 58.010876 49.434055 58.074303 49.239803 58.158875 48.976837 C 58.403343 48.21569 58.738323 47.173077 58.886986 46.211067 C 59.12484 44.66102 58.752193 43.736015 58.302246 43.1929 C 58.3888 42.733707 58.53614 41.951412 58.559925 41.82257 C 58.69405 41.092476 58.760784 40.42713 58.762768 39.78888 C 58.763428 39.54375 58.77197 39.29797 58.78061 39.07134 C 58.807037 38.533512 58.22891 35.04227 57.57414 33.610497 C 57.0198 32.397415 56.18531 30.889656 54.632614 29.990416 C 53.538467 29.356129 52.39344 29.00991 51.28674 28.674925 C 51.053505 28.604883 50.82159 28.534851 50.593647 28.462835 C 50.29632 28.367697 49.996357 28.267263 49.66666 28.15626 C 48.092175 27.628344 46.465485 27.083252 44.64719 27.083252 C 44.411312 27.083252 44.174774 27.092451 43.937576 27.112322 C 43.085907 27.18368 42.391495 27.437395 41.769756 27.664682 C 41.490273 27.767096 41.225983 27.86356 40.957733 27.920382 C 40.876465 27.920382 40.795197 27.91508 40.67759 27.907831 C 40.5058 27.89726 40.332695 27.888672 40.159584 27.888672 C 39.866222 27.888672 39.598633 27.913122 39.343597 27.963991 C 37.77968 28.272549 37.13482 29.481005 36.8593 29.998346 C 36.830887 30.051208 36.80446 30.10406 36.78001 30.15956 C 35.338985 30.579117 34.69809 31.745949 34.306946 32.458202 L 34.215763 32.62206 C 33.19165 34.462826 32.69743 38.378902 32.721878 38.77996 C 32.725777 38.85462 32.72648 39.01848 32.72778 39.22132 L 32.72978 39.482964 C 32.73438 40.26922 32.74035 40.676224 32.754887 40.799774 C 32.754887 41.739323 32.85598 42.680843 33.056175 43.601227 C 32.542797 44.455536 32.491264 45.650776 32.895622 47.241787 C 32.907513 47.286057 32.963673 47.556953 32.963673 47.556953 C 33.445335 49.850307 33.91907 51.687107 35.12026 52.47204 C 35.379257 53.38846 35.646847 54.33659 36.0935 55.304543 C 36.59829 56.400017 37.139416 57.23913 37.78163 57.919006 C 37.75917 58.055775 37.70829 58.290993 37.59861 58.69469 C 37.56095 58.834103 37.52527 58.96691 37.492233 59.098392 C 37.284107 59.9527 36.863888 60.7079 36.27585 61.28273 C 35.612488 61.932217 34.680874 62.32336 33.57615 62.78785 C 33.315166 62.89753 33.05352 63.00721 32.79584 63.122173 L 32.455574 63.27281 C 30.554026 64.11457 28.587725 64.98606 26.846731 66.272484 C 26.39414 66.606804 26.0281 67.15717 25.72417 67.92691 C 64.47389 67.92691 30.92315 67.85225 65.91769 67.85225 z " fill-opacity="0.05" stroke-opacity="0.05"/>
<path d="M 65.406975 68.3108 C 65.315125 68.08219 65.21272 67.88596 65.07728 67.7406 C 64.50444 67.118866 63.806717 66.58237 63.08389 66.20311 C 61.04491 65.01382 58.88039 63.95931 56.64981 63.06932 C 55.17707 62.48062 54.023457 61.326344 53.222 59.636227 C 52.896927 58.953705 52.722496 58.228893 52.73703 57.631603 C 52.77205 57.592625 52.81896 57.54769 52.877106 57.488228 C 53.006607 57.358067 53.137432 57.223934 53.254375 57.077923 C 53.61645 56.628635 53.946148 56.11129 54.26263 55.49418 C 54.74562 54.55001 55.019817 53.6032 55.29005 52.67225 C 55.33894 52.502445 55.38717 52.334618 55.43673 52.168777 C 56.641216 51.85494 57.085228 50.28243 57.310528 49.484276 L 57.33101 49.409615 C 57.37924 49.238483 57.44994 49.021774 57.52923 48.775986 C 57.76709 48.03466 58.09282 47.01979 58.2329 46.11197 C 58.461506 44.626675 58.07961 43.831165 57.588036 43.406326 C 57.588036 43.406326 57.87545 41.888653 57.908485 41.703655 C 58.034683 41.011223 58.09811 40.38552 58.100098 39.78823 C 58.100754 39.533855 58.109295 39.280136 58.118595 39.038975 C 58.138416 38.635933 57.58804 35.235214 56.970924 33.88537 C 56.458206 32.76149 55.690453 31.36737 54.29964 30.562618 C 53.271564 29.967308 52.16552 29.632324 51.09317 29.30857 C 50.857296 29.237211 50.62208 29.165855 50.392147 29.093178 C 50.08359 28.996058 49.773712 28.890997 49.45657 28.784622 C 47.93493 28.271904 46.359116 27.74399 44.64719 27.74399 C 44.429813 27.74399 44.211777 27.75259 43.993076 27.77108 C 43.229942 27.83517 42.584423 28.070389 42.00563 28.281816 C 41.70633 28.390837 41.423546 28.494568 41.14802 28.564602 C 41.105743 28.575842 41.041645 28.580462 40.957733 28.580462 C 40.856644 28.580462 40.75423 28.573862 40.637943 28.566591 C 40.47937 28.557392 40.319477 28.548752 40.159584 28.548752 C 39.909832 28.548752 39.683865 28.569233 39.471115 28.612185 C 38.214428 28.859953 37.693783 29.837156 37.44271 30.307589 C 37.36607 30.452284 37.31255 30.593018 37.272907 30.721855 C 37.241856 30.727158 37.211456 30.732435 37.18239 30.738377 C 35.849052 31.021164 35.268948 32.078316 34.884407 32.777355 L 34.79257 32.942535 C 33.868217 34.604244 33.358807 38.392143 33.380608 38.74299 C 33.385906 38.838787 33.38651 39.06872 33.388508 39.3416 L 33.38981 39.477707 C 33.393707 40.11728 33.398407 40.624058 33.414917 40.798485 C 33.414917 41.78692 33.532524 42.772713 33.76378 43.735386 C 33.759777 43.74068 33.75588 43.745953 33.75123 43.749912 C 33.2134 44.443665 33.142044 45.53187 33.53451 47.075314 C 33.551033 47.140724 33.57613 47.260975 33.609173 47.419548 C 34.08489 49.686474 34.554 51.492214 35.681187 52.030704 C 35.705635 52.114616 35.729427 52.199852 35.75255 52.28442 C 36.004944 53.17903 36.265263 54.10404 36.691433 55.026405 C 37.21406 56.160866 37.771706 56.99601 38.44564 57.653427 C 38.50048 57.886658 38.31482 58.568527 38.23421 58.865845 C 38.197212 59.001953 38.16285 59.130795 38.1318 59.254345 C 37.8946 60.228245 37.411617 61.092464 36.736366 61.753185 C 35.983147 62.491207 34.964977 62.918697 33.856293 63.3845 C 33.591343 63.496822 33.324413 63.60848 33.061447 63.72543 L 32.72382 63.875412 C 30.854645 64.70263 28.92138 65.55892 27.23721 66.80372 C 26.843422 67.093765 26.513723 67.63424 26.246792 68.3868 C 68.09578 68.3868 27.728128 68.310814 65.40692 68.310814 z " fill-opacity="0.1" stroke-opacity="0.1"/>
<path d="M 64.869804 68.742256 C 64.802414 68.5196 64.71718 68.32402 64.591644 68.188576 C 64.070335 67.62299 63.425476 67.128784 62.75154 66.77398 C 60.74163 65.601204 58.60685 64.56057 56.406 63.682472 C 54.7727 63.030342 53.50148 61.764404 52.626022 59.91968 C 52.2362 59.10105 52.037987 58.21568 52.082256 57.49021 C 52.090157 57.354763 52.178055 57.254337 52.40865 57.021763 C 52.522953 56.90812 52.637917 56.790516 52.74099 56.662334 C 53.073326 56.25005 53.37924 55.769043 53.67458 55.19224 C 54.1318 54.298943 54.39807 53.378563 54.65575 52.487915 C 54.74759 52.17077 54.836124 51.862213 54.93259 51.560265 C 54.95373 51.561565 54.97422 51.561565 54.9947 51.561565 C 56.037975 51.561565 56.451584 50.09213 56.67491 49.30323 L 56.696053 49.22724 C 56.74626 49.050167 56.818943 48.826187 56.90087 48.571808 C 57.132786 47.850964 57.449272 46.86451 57.58075 46.0102 C 57.76839 44.787212 57.52525 44.01615 56.85792 43.715523 C 56.91672 43.39838 57.197533 41.923653 57.259636 41.58206 C 57.379887 40.927288 57.438698 40.339252 57.440018 39.78359 C 57.44068 39.521942 57.44922 39.25898 57.45918 39.00328 C 57.47173 38.756832 56.961 35.447952 56.37097 34.15757 C 55.8979 33.122223 55.197536 31.842413 53.96926 31.131475 C 53.00725 30.573832 51.93689 30.250738 50.902863 29.93756 C 50.663685 29.86554 50.425167 29.792862 50.193253 29.719522 C 49.881393 29.621073 49.56821 29.51536 49.251728 29.408983 C 47.777016 28.916082 46.25273 28.404686 44.647182 28.404686 C 44.446987 28.404686 44.24811 28.412586 44.048573 28.429136 C 43.371338 28.485956 42.79519 28.696728 42.23754 28.900229 C 41.920395 29.017174 41.62043 29.126854 41.31055 29.20482 C 41.21276 29.229927 41.1011 29.24182 40.95839 29.24182 C 40.8388 29.24182 40.719208 29.23452 40.598957 29.22728 C 40.452934 29.21868 40.30692 29.21076 40.16024 29.21076 C 39.954098 29.21076 39.770416 29.22728 39.59929 29.260971 C 38.650497 29.447954 38.260017 30.181353 38.02612 30.619408 C 37.91512 30.827536 37.87085 31.031698 37.83451 31.195553 C 37.82461 31.241802 37.81403 31.290031 37.80346 31.33034 C 37.75787 31.33624 37.70369 31.34024 37.662064 31.343552 C 37.53983 31.35345 37.422222 31.36403 37.31981 31.386492 C 36.28248 31.606512 35.827908 32.43373 35.46253 33.098415 L 35.370014 33.26557 C 34.51109 34.809013 34.027443 38.49317 34.03999 38.707912 C 34.04659 38.8242 34.04789 39.13011 34.05056 39.47567 C 34.05386 40.020763 34.05786 40.585014 34.07567 40.80041 C 34.07567 41.860867 34.217724 42.914055 34.498528 43.938828 C 34.41528 43.99962 34.33996 44.072952 34.273884 44.158184 C 33.87481 44.67156 33.841778 45.600533 34.176765 46.91801 C 34.193947 46.988052 34.221035 47.116886 34.256714 47.28603 C 34.801147 49.87671 35.288097 51.350773 36.222355 51.517933 C 36.279835 51.71417 36.33534 51.911064 36.39018 52.10796 C 36.635303 52.977463 36.889023 53.877365 37.29272 54.752815 C 37.78826 55.828465 38.31089 56.6101 38.93923 57.213337 C 39.280823 57.541058 39.04495 58.408577 38.8725 59.041546 C 38.836823 59.172367 38.80378 59.29724 38.77471 59.413536 C 38.507786 60.506363 37.96269 61.480263 37.19956 62.228195 C 36.356483 63.054096 35.28215 63.506023 34.145058 63.983067 C 33.872837 64.09737 33.59996 64.21168 33.329067 64.331924 L 32.9921 64.48125 C 31.154638 65.29459 29.255074 66.136345 27.630363 67.33687 C 27.20486 67.65137 26.92009 68.4145 26.790592 68.82349 C 70.15239 68.82349 25.196692 68.74222 64.8698 68.74222 z " fill-opacity="0.2" stroke-opacity="0.2"/>
<path d="M 64.30093 69.15784 C 64.26855 68.94707 64.20445 68.742905 64.10469 68.63653 C 63.62633 68.11654 63.044235 67.67518 62.417873 67.344826 C 60.416557 66.176674 58.312828 65.15586 56.159546 64.29693 C 54.252712 63.535774 52.89956 62.041233 52.02807 60.204437 C 51.6356 59.37986 51.366028 58.36235 51.421528 57.45122 C 51.455227 56.90084 51.905174 56.647125 52.225624 56.24871 C 52.56259 55.83114 52.841415 55.369297 53.08588 54.892258 C 53.788223 53.520603 54.018818 52.045883 54.553997 50.62996 C 55.378574 51.63756 55.911777 49.5662 56.059776 49.04754 C 56.396744 47.866177 57.66136 44.659046 56.5051 44.28838 C 56.334637 44.23354 56.18399 44.29368 56.069687 44.425148 C 56.091496 44.141697 56.417225 42.512363 56.609493 41.465794 C 56.710583 40.91013 56.777317 40.34984 56.779297 39.7836 C 56.779957 39.513367 56.788494 39.24313 56.79912 38.971577 C 56.80182 38.920708 56.336613 35.673267 55.76972 34.434418 C 55.296646 33.400394 54.656406 32.29567 53.63758 31.704988 C 52.525593 31.060793 51.206795 30.736376 49.992393 30.351175 C 48.102737 29.751242 46.124542 28.918076 44.102745 29.08788 C 43.15263 29.167831 42.37365 29.617117 41.471764 29.845724 C 40.892315 29.993065 40.30956 29.793524 39.725483 29.909157 C 39.132156 30.026102 38.872498 30.433764 38.608204 30.929966 C 38.47408 31.181698 38.48531 31.476376 38.357788 31.72481 C 38.189964 32.045918 37.747944 31.969278 37.45657 32.032043 C 36.645206 32.20449 36.31485 32.927975 35.947487 33.586716 C 35.15 35.01915 34.694763 38.584393 34.699387 38.669624 C 34.715908 38.95968 34.704685 40.38419 34.736385 40.80044 C 34.736385 41.980484 34.927338 43.20678 35.328392 44.39409 C 34.217064 44.19389 34.694763 46.274494 34.816994 46.754173 C 34.964996 47.333626 35.700375 51.664635 36.67824 50.744255 C 37.077312 51.99764 37.33565 53.266876 37.89264 54.47467 C 38.26925 55.293964 38.740337 56.105328 39.39578 56.734997 C 40.117283 57.42611 39.621742 58.73499 39.41626 59.569477 C 39.126205 60.755463 38.538822 61.839046 37.662052 62.697983 C 36.514385 63.822533 35.027767 64.29957 33.59665 64.93452 C 31.712936 65.770325 29.687834 66.635864 28.022823 67.86679 C 27.775717 68.04915 27.496231 68.71517 27.35946 69.22655 C 68.52946 69.22655 29.444084 69.15783 64.30091 69.15783 z " fill-opacity="0.3" stroke-opacity="0.3"/>
<path d="M 60.976852 66.06568 C 58.975533 64.89753 58.313496 64.495155 56.16021 63.63556 C 54.253372 62.874413 52.900223 61.379864 52.028736 59.543068 C 51.63627 58.71849 51.366695 57.700985 51.422195 56.789852 C 51.455894 56.23947 51.90584 55.985756 52.22629 55.58734 C 52.563263 55.169765 52.842083 54.707924 53.086548 54.230885 C 53.78889 52.859234 54.01948 51.38451 54.554665 49.968582 C 55.37924 50.976185 55.91244 48.90483 56.060444 48.38617 C 56.39741 47.204803 57.662025 43.997673 56.505768 43.62701 C 56.335304 43.57217 56.184654 43.63231 56.07035 43.76378 C 56.092155 43.480328 56.417892 41.851 56.61016 40.80442 C 56.71125 40.248756 56.777985 39.688465 56.779964 39.122227 C 56.780624 38.851994 56.789165 38.581757 56.799786 38.310204 C 56.802486 38.259335 56.33728 35.011894 55.770386 33.773045 C 55.29731 32.73902 54.65707 31.634298 53.638245 31.043615 C 52.526257 30.399414 51.20746 30.075 49.993057 29.689802 C 48.1034 29.08987 46.12521 28.256702 44.10341 28.426506 C 43.153297 28.506456 42.374306 28.955744 41.472427 29.184353 C 40.89298 29.331692 40.310223 29.132153 39.726147 29.247784 C 39.13282 29.364729 38.87316 29.772396 38.608868 30.268597 C 38.474743 30.52033 38.485973 30.81501 38.358448 31.06344 C 38.190628 31.38455 37.748608 31.307907 37.45723 31.370676 C 36.645863 31.54312 36.315502 32.26661 35.948147 32.925346 C 35.15066 34.357784 34.695423 37.92302 34.70005 38.00826 C 34.71657 38.298313 34.70535 39.722824 34.73705 40.139076 C 34.73705 41.31912 34.928 42.545418 35.329052 43.732723 C 34.217724 43.532524 34.695423 45.61313 34.817657 46.09281 C 34.96566 46.67226 35.70104 51.003273 36.6789 50.082893 C 37.077976 51.336277 37.336315 52.60552 37.893303 53.813313 C 38.269913 54.632607 38.741005 55.44397 39.39644 56.07363 C 40.117943 56.764744 39.6224 58.073624 39.41692 58.90811 C 39.126865 60.0941 38.53949 61.17768 37.662712 62.036617 C 36.51504 63.161167 35.044285 63.674545 33.59731 64.273155 C 29.262997 66.06569 26.44437 68.58699 26.61946 68.708565 C 66.264366 68.708565 25.376043 68.708565 64.94116 68.708565 C 65.110306 68.59096 62.298286 66.72641 60.97685 66.06569 z " fill="url(#linearGradient3894)" fill-opacity="1"/>
<path d="M 60.976852 66.06568 C 58.975533 64.89753 58.313496 64.495155 56.16021 63.63556 C 54.253372 62.874413 52.900223 61.379864 52.028736 59.543068 C 51.63627 58.71849 51.366695 57.700985 51.422195 56.789852 C 51.455894 56.23947 51.90584 55.985756 52.22629 55.58734 C 52.563263 55.169765 52.842083 54.707924 53.086548 54.230885 C 53.78889 52.859234 54.01948 51.38451 54.554665 49.968582 C 55.37924 50.976185 55.91244 48.90483 56.060444 48.38617 C 56.39741 47.204803 57.662025 43.997673 56.505768 43.62701 C 56.335304 43.57217 56.184654 43.63231 56.07035 43.76378 C 56.092155 43.480328 56.417892 41.851 56.61016 40.80442 C 56.71125 40.248756 56.777985 39.688465 56.779964 39.122227 C 56.780624 38.851994 56.789165 38.581757 56.799786 38.310204 C 56.802486 38.259335 56.33728 35.011894 55.770386 33.773045 C 55.29731 32.73902 54.65707 31.634298 53.638245 31.043615 C 52.526257 30.399414 51.20746 30.075 49.993057 29.689802 C 48.1034 29.08987 46.12521 28.256702 44.10341 28.426506 C 43.153297 28.506456 42.374306 28.955744 41.472427 29.184353 C 40.89298 29.331692 40.310223 29.132153 39.726147 29.247784 C 39.13282 29.364729 38.87316 29.772396 38.608868 30.268597 C 38.474743 30.52033 38.485973 30.81501 38.358448 31.06344 C 38.190628 31.38455 37.748608 31.307907 37.45723 31.370676 C 36.645863 31.54312 36.315502 32.26661 35.948147 32.925346 C 35.15066 34.357784 34.695423 37.92302 34.70005 38.00826 C 34.71657 38.298313 34.70535 39.722824 34.73705 40.139076 C 34.73705 41.31912 34.928 42.545418 35.329052 43.732723 C 34.217724 43.532524 34.695423 45.61313 34.817657 46.09281 C 34.96566 46.67226 35.70104 51.003273 36.6789 50.082893 C 37.077976 51.336277 37.336315 52.60552 37.893303 53.813313 C 38.269913 54.632607 38.741005 55.44397 39.39644 56.07363 C 40.117943 56.764744 39.6224 58.073624 39.41692 58.90811 C 39.126865 60.0941 38.53949 61.17768 37.662712 62.036617 C 36.51504 63.161167 35.044285 63.674545 33.59731 64.273155 C 29.262997 66.06569 26.44437 68.58699 26.61946 68.708565 C 66.27573 68.708565 46.773594 68.708565 64.94116 68.708565 C 65.110306 68.59096 62.298286 66.72641 60.97685 66.06569 z " fill="url(#linearGradient3896)" fill-opacity="1"/>
</g>
<radialGradient cx="47.8164" cy="68.2734" gradientUnits="userSpaceOnUse" r="9.2964" xlink:actuate="onLoad" xlink:show="other" xlink:type="simple">
<stop offset="0" stop-color="#000000" stop-opacity="0.5"/>
<stop offset="0.4" stop-color="#000000" stop-opacity="0.5"/>
<stop offset="1" stop-color="#595959" stop-opacity="0"/>
</radialGradient>
<rect fill="none" height="96" width="96"/>
</svg>
