<?xml version="1.0" encoding="UTF-8"?>
<svg xmlns="http://www.w3.org/2000/svg" xmlns:xlink="http://www.w3.org/1999/xlink" baseProfile="tiny" contentScriptType="text/ecmascript" contentStyleType="text/css" height="96px" preserveAspectRatio="xMidYMid meet" version="1.1" viewBox="0 0 96 96" width="96px" x="0px" y="0px" zoomAndPan="magnify">
<defs>
<linearGradient id="linearGradient4078">
<stop offset="0" stop-color="#ffd018" stop-opacity="1"/>
<stop offset="1" stop-color="#ffbe18" stop-opacity="1"/>
</linearGradient>
<linearGradient>
<stop offset="0" stop-color="#d5f6ff" stop-opacity="1"/>
<stop offset="1" stop-color="#0088aa" stop-opacity="1"/>
</linearGradient>
<linearGradient gradientTransform="matrix(1.0515857,0,0,1.01708,-253.45339,-715.60427)" gradientUnits="userSpaceOnUse" x1="254.83009" x2="358.8096" y1="763.97272" y2="763.97272">
<stop offset="0" stop-color="#f7f8f9"/>
<stop offset="1" stop-color="#d0d1d2"/>
</linearGradient>
<linearGradient gradientTransform="matrix(0.7261569,0,0,0.74770351,-174.61605,-527.27145)" gradientUnits="userSpaceOnUse" x1="254.83009" x2="358.8096" y1="763.97272" y2="763.97272">
<stop offset="0" stop-color="#f7f8f9"/>
<stop offset="1" stop-color="#d0d1d2"/>
</linearGradient>
<linearGradient gradientTransform="matrix(1,0,0,-1,-1.3115644,98.868328)" gradientUnits="userSpaceOnUse" x1="61.075901" x2="34.694302" y1="57.299801" y2="41.540901">
<stop offset="0" stop-color="#ffffff"/>
<stop offset="1" stop-color="#ffffff" stop-opacity="0.2"/>
</linearGradient>
<linearGradient gradientTransform="matrix(1,0,0,-1,1.0534719,96.841079)" gradientUnits="userSpaceOnUse" x1="61.075901" x2="34.694302" y1="57.299801" y2="41.540901">
<stop offset="0" stop-color="#ffffff"/>
<stop offset="1" stop-color="#ffffff" stop-opacity="0.2"/>
</linearGradient>
<linearGradient gradientTransform="matrix(1,0,0,-1,-2.4150126,95.9258)" gradientUnits="userSpaceOnUse" x1="34.720501" x2="60.039902" y1="56.8027" y2="41.976002">
<stop offset="0" stop-color="#ffffff"/>
<stop offset="1" stop-color="#ffffff" stop-opacity="0.2"/>
</linearGradient>
<linearGradient gradientTransform="matrix(1,0,0,-1,-2.5350845,97.20939)" gradientUnits="userSpaceOnUse" x1="34.720501" x2="60.039902" y1="56.8027" y2="41.976002">
<stop offset="0" stop-color="#ffffff"/>
<stop offset="1" stop-color="#ffffff" stop-opacity="0.2"/>
</linearGradient>
<linearGradient gradientTransform="matrix(1,0,0,-1,0.1597,95.9258)" gradientUnits="userSpaceOnUse" x1="63.148201" x2="61.403599" y1="26.3545" y2="22.778099">
<stop offset="0" stop-color="#ffffff"/>
<stop offset="1" stop-color="#a3a3a3"/>
</linearGradient>
<linearGradient gradientTransform="matrix(1,0,0,-1,0.1597,95.9258)" gradientUnits="userSpaceOnUse" x1="63.148201" x2="61.403599" y1="26.3545" y2="22.778099">
<stop offset="0" stop-color="#ffffff"/>
<stop offset="1" stop-color="#a3a3a3"/>
</linearGradient>
<linearGradient gradientTransform="matrix(1,0,0,-1,0.1597,95.9258)" gradientUnits="userSpaceOnUse" x1="62.543701" x2="64.113503" y1="40.8223" y2="37.072102">
<stop offset="0" stop-color="#ffffff"/>
<stop offset="1" stop-color="#a3a3a3"/>
</linearGradient>
<linearGradient gradientTransform="matrix(1,0,0,-1,0.1597,95.9258)" gradientUnits="userSpaceOnUse" x1="62.543701" x2="64.113503" y1="40.8223" y2="37.072102">
<stop offset="0" stop-color="#ffffff"/>
<stop offset="1" stop-color="#a3a3a3"/>
</linearGradient>
<linearGradient gradientTransform="matrix(1,0,0,-1,0.1597,95.9258)" gradientUnits="userSpaceOnUse" x1="45.003201" x2="45.003201" y1="40.209" y2="23.3596">
<stop offset="0" stop-color="#c2de91"/>
<stop offset="1" stop-color="#7b9e56"/>
</linearGradient>
<linearGradient gradientTransform="matrix(1,0,0,-1,0.1597,95.9258)" gradientUnits="userSpaceOnUse" x1="45.003201" x2="45.003201" y1="40.209" y2="23.3596">
<stop offset="0" stop-color="#c2de91"/>
<stop offset="1" stop-color="#7b9e56"/>
</linearGradient>
<linearGradient gradientTransform="matrix(1,0,0,-1,0.1597,95.9258)" gradientUnits="userSpaceOnUse" x1="45.003201" x2="45.003201" y1="40.209" y2="23.3596">
<stop offset="0" stop-color="#c2de91"/>
<stop offset="1" stop-color="#7b9e56"/>
</linearGradient>
<linearGradient gradientTransform="matrix(1,0,0,-1,0.1597,95.9258)" gradientUnits="userSpaceOnUse" x1="45.003201" x2="45.003201" y1="40.209" y2="23.3596">
<stop offset="0" stop-color="#c2de91"/>
<stop offset="1" stop-color="#7b9e56"/>
</linearGradient>
<linearGradient gradientTransform="matrix(1,0,0,-1,0.1597,95.9258)" gradientUnits="userSpaceOnUse" x1="45.003201" x2="45.003201" y1="40.209" y2="23.3596">
<stop offset="0" stop-color="#c2de91"/>
<stop offset="1" stop-color="#7b9e56"/>
</linearGradient>
<linearGradient gradientTransform="matrix(1,0,0,-1,0.1597,95.9258)" gradientUnits="userSpaceOnUse" x1="45.003201" x2="45.003201" y1="40.209" y2="23.3596">
<stop offset="0" stop-color="#c2de91"/>
<stop offset="1" stop-color="#7b9e56"/>
</linearGradient>
<linearGradient gradientTransform="matrix(1,0,0,-1,8.6194701,63.557984)" gradientUnits="userSpaceOnUse" x1="82.677498" x2="82.677498" y1="37.415001" y2="54.1577">
<stop offset="0" stop-color="#ffffff" stop-opacity="0.3"/>
<stop offset="1" stop-color="#ffffff"/>
</linearGradient>
<linearGradient gradientTransform="matrix(1,0,0,-1,-53.620329,92.86676)" gradientUnits="userSpaceOnUse" x1="82.677498" x2="82.677498" y1="37.415001" y2="54.1577">
<stop offset="0" stop-color="#ffffff" stop-opacity="0.3"/>
<stop offset="1" stop-color="#ffffff"/>
</linearGradient>
<linearGradient gradientTransform="matrix(1,0,0,-1,8.6194701,63.557984)" gradientUnits="userSpaceOnUse" x1="82.677498" x2="82.677498" y1="37.415001" y2="54.1577">
<stop offset="0" stop-color="#ffffff" stop-opacity="0.3"/>
<stop offset="1" stop-color="#ffffff"/>
</linearGradient>
<linearGradient gradientTransform="matrix(1,0,0,-1,-15.367455,78.154116)" gradientUnits="userSpaceOnUse" x1="82.677498" x2="82.677498" y1="37.415001" y2="54.1577">
<stop offset="0" stop-color="#ffffff" stop-opacity="0.3"/>
<stop offset="1" stop-color="#ffffff"/>
</linearGradient>
<linearGradient gradientTransform="matrix(1,0,0,-1,8.6194701,63.557984)" gradientUnits="userSpaceOnUse" x1="82.677498" x2="82.677498" y1="37.415001" y2="54.1577">
<stop offset="0" stop-color="#ffffff" stop-opacity="0.3"/>
<stop offset="1" stop-color="#ffffff"/>
</linearGradient>
<linearGradient gradientTransform="matrix(1,0,0,-1,-18.309984,107.94722)" gradientUnits="userSpaceOnUse" x1="82.677498" x2="82.677498" y1="37.415001" y2="54.1577">
<stop offset="0" stop-color="#ffffff" stop-opacity="0.3"/>
<stop offset="1" stop-color="#ffffff"/>
</linearGradient>
<linearGradient gradientTransform="matrix(1,0,0,1.0147106,0,-1.118872)" gradientUnits="userSpaceOnUse" x1="25.749846" x2="83.267105" y1="23.186441" y2="82.169495">
<stop offset="0" stop-color="#d5f6ff" stop-opacity="1"/>
<stop offset="1" stop-color="#0088aa" stop-opacity="1"/>
</linearGradient>
<linearGradient gradientTransform="matrix(1,0,0,-1,-111.07647,38.974359)" gradientUnits="userSpaceOnUse" x1="167.8877" x2="206.12601" y1="-45.7896" y2="-7.5511999">
<stop offset="0" stop-color="#ffffff"/>
<stop offset="1" stop-color="#e6e6e6"/>
</linearGradient>
<linearGradient gradientTransform="matrix(0.7653472,0,0,-0.76412837,-94.891385,27.599019)" gradientUnits="userSpaceOnUse" x1="167.8877" x2="206.12601" y1="-45.7896" y2="-7.5511999">
<stop offset="0" stop-color="#ffffff"/>
<stop offset="1" stop-color="#e6e6e6"/>
</linearGradient>
<linearGradient gradientTransform="translate(-403.6621,-424.4971)" gradientUnits="userSpaceOnUse" x1="424.97461" x2="424.97461" y1="441.32709" y2="432.9834">
<stop offset="0" stop-color="#d0cbc5"/>
<stop offset="1" stop-color="#fafcef"/>
</linearGradient>
<linearGradient gradientTransform="matrix(0,1,-1,0,96,0)" gradientUnits="userSpaceOnUse" id="linearGradient4084" x1="8" x2="88" y1="48" y2="48">
<stop offset="0" stop-color="#ffd018" stop-opacity="1"/>
<stop offset="1" stop-color="#ffbe18" stop-opacity="1"/>
</linearGradient>
</defs>
<path d="M 88.0 49.0 C 88.0 78.633 77.637 89.0 48.0 89.0 C 18.365 89.0 8.0 78.633 8.0 49.0 C 8.0 19.365 18.365 9.0 48.0 9.0 C 77.637 9.0 88.0 19.365 88.0 49.0 z " fill-opacity="0.4"/>
<linearGradient gradientUnits="userSpaceOnUse" x1="47.9995" x2="47.9995" y1="8" y2="88.0005">
<stop offset="0" stop-color="#00aad4" stop-opacity="1"/>
<stop offset="1" stop-color="#2ad4ff" stop-opacity="1"/>
</linearGradient>
<path d="M 48.0 88.0 C 18.367 88.0 8.0 77.637 8.0 48.0 C 8.0 18.365 18.367 8.0 48.0 8.0 C 77.635 8.0 88.0 18.365 88.0 48.0 C 88.0 77.637 77.635 88.0 48.0 88.0 z " fill="url(#linearGradient4084)" fill-opacity="1"/>
<rect fill="none" height="96" width="96"/>
<linearGradient gradientUnits="userSpaceOnUse" id="SVGID_2_" x1="47.9995" x2="47.9995" y1="8.2534" y2="87.4985">
<stop offset="0" stop-color="#ffffff"/>
<stop offset="1" stop-color="#ffffff" stop-opacity="0"/>
</linearGradient>
<path d="M 48.0 8.0 C 18.365 8.0 8.0 18.365 8.0 48.0 C 8.0 77.633 18.365 88.0 48.0 88.0 C 77.637 88.0 88.0 77.633 88.0 48.0 C 88.0 18.365 77.637 8.0 48.0 8.0 z M 48.0 87.0 C 18.842 87.0 9.0 77.158 9.0 48.0 C 9.0 18.842005 18.842 9.0 48.0 9.0 C 77.158005 9.0 87.0 18.842 87.0 48.0 C 87.0 77.158005 77.158 87.0 48.0 87.0 z " fill="url(#SVGID_2_)" fill-opacity="0.25" stroke-opacity="0.25"/>
<linearGradient gradientTransform="matrix(0.7071 -0.7071 0.7071 0.7071 -208.9813 3059.7412)" gradientUnits="userSpaceOnUse" x1="2309.3584" x2="2344.3584" y1="-1947.9287" y2="-1947.9287">
<stop offset="0" stop-color="#58595b"/>
<stop offset="1" stop-color="#000000"/>
</linearGradient>
<linearGradient gradientTransform="matrix(0.7071 -0.7071 0.7071 0.7071 -208.9813 3059.7412)" gradientUnits="userSpaceOnUse" x1="2309.3584" x2="2313.3604" y1="-1957.9277" y2="-1957.9277">
<stop offset="0" stop-color="#58595b"/>
<stop offset="1" stop-color="#000000"/>
</linearGradient>
<linearGradient gradientUnits="userSpaceOnUse" x1="54.292" x2="59.292" y1="10.3501" y2="38.934">
<stop offset="0" stop-color="#58595b"/>
<stop offset="1" stop-color="#000000"/>
</linearGradient>
<linearGradient gradientUnits="userSpaceOnUse" x1="32.5508" x2="42.1758" y1="12.6343" y2="45.1342">
<stop offset="0" stop-color="#58595b"/>
<stop offset="1" stop-color="#000000"/>
</linearGradient>
<linearGradient gradientUnits="userSpaceOnUse" x1="57.1484" x2="60.063" y1="35.2275" y2="38.1421">
<stop offset="0" stop-color="#ffffff"/>
<stop offset="0.7362" stop-color="#ffffff" stop-opacity="0"/>
<stop offset="1" stop-color="#ffffff" stop-opacity="0"/>
</linearGradient>
<linearGradient gradientUnits="userSpaceOnUse" x1="44.6177" x2="38.0733" y1="37.2412" y2="43.7856">
<stop offset="0" stop-color="#ffffff"/>
<stop offset="0.7362" stop-color="#ffffff" stop-opacity="0"/>
<stop offset="1" stop-color="#ffffff" stop-opacity="0"/>
</linearGradient>
<linearGradient gradientUnits="userSpaceOnUse" x1="47.9995" x2="47.9995" y1="45.5" y2="53.8766">
<stop offset="0" stop-color="#ffffff"/>
<stop offset="1" stop-color="#6d6e70"/>
</linearGradient>
<g transform="matrix(2.1485709,0,0,2.1485709,3.4092931,-0.4498018)">
<path d="M 32.996 8.497 C 33.573994 8.507998 34.156 8.5 34.733 8.485 C 34.728996 8.712 34.717 9.172998 34.712997 9.398998 C 34.12 9.485998 33.524002 9.572998 32.929996 9.659998 C 32.946 9.369 32.98 8.787 32.996 8.497 z " fill="#f9f4b7"/>
<path d="M 8.094 11.669 C 7.289 10.306 9.045 8.606 10.432 9.361 C 11.588 9.879 11.329 11.28 11.515 12.284 C 12.936001 11.189 14.126 8.8740015 16.241001 9.4330015 C 15.124002 10.599002 13.745001 11.475 12.594001 12.6050005 C 14.092001 13.228002 15.660001 13.669002 17.174 14.251 C 16.704 14.5580015 16.207 14.9730015 15.594999 14.821 C 14.219999 14.474 12.952999 13.817 11.684999 13.202 C 11.865999 14.205998 12.582001 15.44 11.712 16.324 C 10.6259985 17.499 8.373 16.463999 8.677 14.858998 C 8.912 13.412998 10.703 13.541998 11.535 12.619998 C 10.382 12.507 8.707 12.964 8.094 11.669 M 9.115 9.946 C 8.348 10.418 8.414 11.894 9.45 11.9470005 C 10.174 12.129001 10.945 11.436999 10.686 10.717001 C 10.674 9.905 9.738 9.769 9.115 9.946 M 9.381 14.489 C 9.412 15.104 9.308 16.045 10.197 16.09 C 11.209999 16.536 12.011 14.855 11.120998 14.323 C 10.578 13.851 9.931 14.3 9.381 14.489 z " fill="#f9f4b7"/>
<path d="M 27.65 9.414 C 28.247 9.356999 28.843 9.301 29.445 9.244 C 29.452 9.500999 29.468 10.018 29.472 10.275 C 28.909 10.357 28.347 10.436999 27.784 10.52 C 27.738 10.154 27.692 9.784 27.65 9.414 z " fill="#f9f4b7"/>
<path d="M 24.988 10.237 C 25.358004 9.644 26.160004 9.784 26.746 9.606002 C 26.795 9.882002 26.892 10.429002 26.941 10.702002 C 26.244 10.701 25.119 11.344 24.988 10.237 z " fill="#f9f4b7"/>
<path d="M 22.516 10.324 C 23.113 10.237 23.705 10.146 24.303 10.052 C 24.338 10.302 24.404 10.804 24.438002 11.053 C 23.845 11.158 23.256002 11.268002 22.663002 11.378 C 22.623 11.113 22.55 10.588 22.516 10.324 z " fill="#f9f4b7"/>
<path d="M 19.904 10.77 C 20.481997 10.665002 21.063 10.559 21.641 10.454 C 21.683 10.722 21.768 11.258 21.81 11.522 C 21.217 11.593 20.627 11.669002 20.034 11.745 C 20.004 11.503 19.939 11.016 19.904 10.77 z " fill="#f9f4b7"/>
<path d="M 17.308 11.192 C 17.92 11.101001 18.529 11.007 19.138 10.901 C 19.589 12.223 18.19 12.09 17.316 12.167 C 17.316 11.921 17.312 11.438 17.308 11.191999 z " fill="#f9f4b7"/>
<path d="M 14.792 12.612 C 14.106 11.185 16.907 10.849001 16.678999 12.375 C 16.052 12.454 15.42 12.533 14.792 12.612 z " fill="#f9f4b7"/>
<linearGradient gradientTransform="translate(-403.6621,-424.4971)" gradientUnits="userSpaceOnUse" x1="424.97461" x2="424.97461" y1="441.32709" y2="432.9834">
<stop offset="0" stop-color="#d0cbc5"/>
<stop offset="1" stop-color="#fafcef"/>
</linearGradient>
<path d="M 83.41463 44.29731 C 83.41463 52.716747 76.879074 59.542053 68.81706 59.542053 C 60.755054 59.542053 54.219505 52.716747 54.219505 44.29731 C 54.219505 35.877872 60.755054 29.052568 68.81706 29.052568 C 76.879074 29.052568 83.41463 35.877872 83.41463 44.29731 z " fill="#ffffff" fill-opacity="1" fill-rule="nonzero" stroke="none" transform="matrix(0.47825696,0,0,0.4579536,-3.2195943,0.28609827)"/>
<path d="M 32.996 8.497 C 32.98 8.787 32.946 9.369 32.931 9.66 C 33.525 9.573 34.121 9.486 34.714 9.399 C 34.718 9.172 34.73 8.711 34.734 8.485001 C 34.156 8.5 33.574 8.508 32.996 8.497 M 8.094 11.669 C 8.705998 12.964 10.382 12.507 11.533 12.62 C 10.701 13.542 8.91 13.413 8.675 14.859 C 8.371 16.463 10.6240015 17.499 11.71 16.324 C 12.581 15.44 11.864 14.205998 11.683 13.202 C 12.950998 13.8169985 14.2179985 14.474 15.5929985 14.820999 C 16.205 14.971999 16.702 14.556999 17.172 14.250999 C 15.657999 13.669999 14.089999 13.228999 12.591999 12.6050005 C 13.744 11.474999 15.122999 10.598999 16.238998 9.433001 C 14.124 8.872999 12.933998 11.188999 11.513 12.283999 C 11.327998 11.28 11.585999 9.879 10.429998 9.360999 C 9.045 8.605 7.289 10.305 8.094 11.669 M 27.65 9.414 C 27.691 9.7839985 27.738 10.153998 27.785 10.52 C 28.348 10.436999 28.909 10.356998 29.473 10.275 C 29.469 10.018 29.452 9.500999 29.446 9.244 C 28.844 9.301 28.247 9.357 27.65 9.414 M 24.988 10.237 C 25.119 11.342999 26.244 10.700999 26.940998 10.700999 C 26.89 10.43 26.795 9.882 26.744 9.606 C 26.16 9.784 25.358 9.645 24.988 10.237 M 22.516 10.324 C 22.55 10.588 22.623 11.113 22.662 11.378 C 23.255 11.268002 23.844 11.158 24.437 11.053 C 24.402 10.804002 24.337 10.302 24.302 10.052 C 23.705 10.146 23.112 10.237 22.516 10.324 M 19.904 10.77 C 19.939 11.016002 20.004002 11.503 20.035002 11.745002 C 20.628002 11.670002 21.218002 11.594002 21.81 11.522002 C 21.768002 11.257002 21.683 10.721004 21.642002 10.454002 C 21.063 10.559 20.481 10.664 19.904 10.77 M 17.308 11.192 C 17.311 11.437 17.315998 11.921001 17.315998 12.167002 C 18.19 12.0910015 19.587996 12.224002 19.138 10.901002 C 18.529 11.008 17.92 11.103 17.308 11.192 M 14.792001 12.612 C 15.420001 12.533 16.052 12.454 16.678999 12.375 C 16.907 10.85 14.107 11.185 14.792 12.612 z M 30.1 9.046 C 30.084 9.337 30.049 9.917998 30.034 10.209 C 30.628 10.122 31.224 10.035 31.818 9.948 C 31.822 9.721 31.834002 9.261 31.838 9.035 C 31.259 9.05 30.678 9.057 30.1 9.046 " fill="#ffffff" fill-opacity="1"/>
<g>
<g transform="matrix(0.46542565,0,0,0.46542565,-1.5867724,0.20934929)">
<path d="M 39.765766 44.728767 C 39.765766 48.263344 36.30482 51.128685 32.03553 51.128685 C 27.76624 51.128685 24.305294 48.263344 24.305294 44.728767 C 24.305294 41.19419 27.766235 38.328857 32.03553 38.328857 C 36.30482 38.328857 39.765766 41.194195 39.765766 44.728767 z " fill="#ffffff" fill-opacity="1" fill-rule="nonzero" stroke="none" transform="matrix(1.0980563,-0.32161138,0.28108313,0.95968343,-16.253109,10.66812)"/>
<path d="M 41.27586 52.27923 C 41.27586 55.932945 37.49297 58.89487 32.82653 58.89487 C 28.160095 58.89487 24.377205 55.932945 24.377205 52.27923 C 24.377205 48.62551 28.160095 45.663586 32.82653 45.663586 C 37.49297 45.663586 41.275856 48.62551 41.275856 52.27923 z " fill="#ffffff" fill-opacity="1" fill-rule="nonzero" stroke="none" transform="matrix(0.93280506,-0.36038137,0.39171887,1.0139185,-18.632529,8.2260537)"/>
</g>
<path d="M 43.57696 54.58032 C 43.57696 56.089462 42.401848 57.312862 40.95227 57.312862 C 39.502697 57.312862 38.327587 56.089462 38.327587 54.58032 C 38.327587 53.071175 39.502697 51.84777 40.95227 51.84777 C 42.401848 51.84777 43.57696 53.071175 43.57696 54.58032 z " fill="#ffffff" fill-opacity="1" fill-rule="nonzero" stroke="none" transform="matrix(0.49604576,0,0,0.49604576,-2.9211035,-1.3782352)"/>
<path d="M 43.57696 54.58032 C 43.57696 56.089462 42.401848 57.312862 40.95227 57.312862 C 39.502697 57.312862 38.327587 56.089462 38.327587 54.58032 C 38.327587 53.071175 39.502697 51.84777 40.95227 51.84777 C 42.401848 51.84777 43.57696 53.071175 43.57696 54.58032 z " fill="#ffffff" fill-opacity="1" fill-rule="nonzero" stroke="none" transform="matrix(0.60443256,0,0,0.49604577,-5.9741555,3.6252848)"/>
<path d="M 43.57696 54.58032 C 43.57696 56.089462 42.401848 57.312862 40.95227 57.312862 C 39.502697 57.312862 38.327587 56.089462 38.327587 54.58032 C 38.327587 53.071175 39.502697 51.84777 40.95227 51.84777 C 42.401848 51.84777 43.57696 53.071175 43.57696 54.58032 z " fill="#ffffff" fill-opacity="1" fill-rule="nonzero" stroke="none" transform="matrix(0.44504022,0,0,0.49604577,4.9042108,3.3575378)"/>
</g>
<path d="M 29.219 10.871 C 29.643 10.8 30.069 10.725 30.494 10.66 C 30.519 11.128 30.547 11.599998 30.574 12.072 C 30.594 12.396998 30.632 13.042998 30.655 13.367 C 33.868 13.907 36.676 16.536 36.941 19.79 C 37.411 23.178 34.991997 26.625 31.639996 27.493 C 28.242998 28.506 24.329 26.738 22.926998 23.54 C 20.811998 19.48 23.828 13.885001 28.513 13.529001 L 28.543 13.521001 C 28.415998 13.634001 28.161 13.865001 28.033998 13.982001 L 27.672998 14.178001 C 26.12 14.744001 24.693 15.703001 23.902 17.172 C 24.022 17.191 24.257 17.229 24.376 17.247002 C 24.061 17.361002 23.740002 17.467 23.421 17.568 C 22.793 19.188002 22.582 20.964 23.082 22.647 C 23.337 23.202 23.613 23.75 23.926 24.278 C 24.397 24.799 24.885 25.3 25.416 25.758 C 25.76 26.018 26.102003 26.275 26.465 26.509 C 28.896 27.834002 32.157 27.453 34.137 25.523 C 34.473 25.207 34.8 24.881998 35.112 24.541998 C 35.451 24.084995 35.756 23.601995 36.033 23.110998 C 36.572 21.408 36.637 19.500998 35.879 17.853998 C 35.421997 16.88 34.704 16.045 33.927 15.305 C 33.471992 14.992002 33.003 14.701 32.531998 14.421001 C 31.315 13.651001 29.322998 15.022 28.672998 13.455002 C 29.093 13.115002 29.280998 12.650002 29.235998 12.0580015 C 29.229 11.763 29.221 11.17 29.219 10.871 M 29.606 13.205 C 30.087002 13.092 30.165 12.794 29.837002 12.3099985 C 29.349 12.42 29.271 12.718 29.606 13.205 z " fill="#010000"/>
<path d="M 29.606 13.205 C 29.271002 12.718 29.348 12.42 29.837002 12.309999 C 30.165 12.794 30.088 13.092 29.606 13.205 z " fill="#ca7623"/>
<path d="M 28.544 13.522 L 28.671 13.458 C 29.321 15.025002 31.313002 13.654 32.531002 14.425 C 32.789 15.365 32.896004 16.332 33.016003 17.299 C 32.843002 17.17 32.495003 16.91 32.318 16.781 C 31.864 16.49 31.398 16.218 30.935 15.939 C 30.03 15.063 28.874 14.538 27.673 14.179 L 28.034 13.983 C 28.162 13.866 28.417 13.636 28.544 13.521999 z " fill="#e32d1a"/>
<path d="M 24.375 17.249 C 24.727 17.155 25.432 16.962 25.781 16.868 C 25.523 17.653 25.265 18.442 24.988 19.223 C 24.957 19.31 24.899 19.48 24.867 19.567 C 24.148 20.523 23.554 21.557 23.08 22.648 C 22.579 20.964 22.791 19.19 23.419 17.57 C 23.74 17.469 24.06 17.363 24.375 17.249 z " fill="#e32d1a"/>
<path d="M 35.878 17.857 C 36.636997 19.503 36.571 21.41 36.031 23.114 C 35.407997 23.287 34.768 23.43 34.178 23.71 C 33.803997 23.934002 33.448997 24.183 33.082996 24.42 C 31.742996 23.937 30.644997 23.038 29.793997 21.932 C 29.881996 21.827 30.063995 21.611 30.151997 21.505 C 31.419996 22.505 33.121998 22.165997 34.480995 21.554 C 35.431 20.565 36.078 19.243 35.878 17.857 z " fill="#e32d1a"/>
<path d="M 26.571 22.415 C 27.099 21.509 27.938 20.844004 28.693 20.131 C 28.408 20.902 28.112 21.671 27.856998 22.457 C 27.979998 23.397 28.308 24.296 28.781998 25.123 C 30.206997 26.559002 32.453 26.434002 34.136 25.526 C 32.156 27.456 28.893995 27.838 26.461998 26.511002 C 26.502 25.149 26.398 23.774 26.571 22.415 z " fill="#e32d1a"/>
<path d="M 23.902 17.174 C 24.691 15.705 26.121 14.746 27.673 14.18 C 28.874 14.538 30.029 15.064 30.935 15.9400015 C 29.232002 15.343 26.652 14.761002 25.782 16.869 C 25.431002 16.964 24.726002 17.156002 24.376 17.251 C 24.256 17.23 24.021 17.192 23.902 17.174 z " fill="#fcd876"/>
<path d="M 32.53 14.425 C 33.0 14.704 33.468998 14.995 33.925 15.309 C 33.701 16.082 33.474 16.853 33.228 17.616 L 33.016 17.3 C 32.896 16.331999 32.788 15.365 32.53 14.424999 z " fill="#a93a37"/>
<path d="M 11.903 17.208 C 14.052 16.335001 16.008999 17.914 18.128 17.997 C 18.725 18.058 19.322 18.106 19.923 18.163 C 19.962 18.699 20.0 19.239 20.073 19.775 C 20.177 20.504 20.655 21.304 20.235 22.014 C 19.553 22.694 18.556 23.114 18.317 24.124 C 18.949 24.83 18.984 25.74 18.622002 26.583 C 19.334002 27.176 20.016005 27.799 20.698002 28.426 C 21.257002 27.886 21.703 27.252 22.034002 26.557 C 22.435 26.686 22.840002 26.814 23.241005 26.95 C 23.286003 27.524 23.341003 28.102 23.398005 28.676 C 24.045002 29.11 24.669004 29.572 25.301004 30.028 C 25.335005 31.35 25.135002 32.694 24.372002 33.812 C 23.945002 34.246 23.494 34.658 23.039 35.07 C 23.043 35.331 23.055002 35.855 23.059002 36.116 C 22.528002 36.312 21.992002 36.509003 21.449 36.675003 C 20.89 36.701004 20.328 36.705 19.765 36.701004 C 19.053 36.398003 18.309002 36.194004 17.538002 36.120003 C 16.879002 36.554 16.140001 37.275 15.277002 36.893 C 13.629004 36.241 11.822002 35.938 10.304003 34.995003 C 8.941003 33.918003 8.082003 32.396004 7.5580025 30.784002 C 7.0070024 30.81 6.4600024 30.830002 5.9090023 30.838003 C 5.7630024 30.755005 5.4740024 30.585005 5.331002 30.498005 C 3.9210024 29.589005 4.333002 27.655005 5.312002 26.579002 C 5.5660024 26.394005 5.820002 26.209002 6.075002 26.023005 C 7.1260023 24.807005 7.6390023 23.225002 8.540002 21.892002 C 8.917002 20.377005 8.991002 18.440002 10.720002 17.746002 C 11.106 17.552 11.502 17.374 11.903 17.208 M 9.226999 20.973 C 9.492999 21.505 10.039999 21.792 10.575001 22.004 C 11.384001 21.278 12.432001 20.429 13.595001 20.613 C 12.840001 21.228998 11.727001 21.342 10.991001 22.033 C 9.8930025 22.834 9.720001 24.658 10.814001 25.533998 C 12.274001 26.551 14.512001 26.557 15.798001 25.259 C 17.369 23.79 17.574 21.142998 15.814001 19.738 C 17.304 19.495998 16.045002 17.91 15.174001 17.797 C 12.809 16.743 9.292 18.228 9.227 20.973 M 17.015 18.533 C 16.841 19.061 16.678999 19.594002 16.525 20.13 C 18.605 22.377 16.637 26.316 13.712998 26.567995 C 12.464998 26.609997 10.955 26.559998 10.160998 25.450996 C 9.363998 24.388996 10.476998 22.845997 9.405998 21.908997 C 8.697998 22.637997 8.165998 23.505997 7.729998 24.415997 C 7.487998 25.080996 7.329998 25.790997 6.928998 26.387997 C 6.031998 26.964996 4.9139977 27.588997 4.979998 28.811996 C 4.8 29.816 5.937 30.122 6.68 30.356 C 7.366 29.85 7.597 29.152 7.235 28.37 C 7.019 28.298 6.5839996 28.158 6.364 28.087002 C 6.453 27.611002 6.896 27.098 7.42 27.403002 C 7.951 29.287004 8.271 31.262 9.246 32.996002 C 9.935 34.619003 11.707001 35.254 13.313 35.657 C 13.136 35.001003 12.959 34.347 12.785 33.694 C 13.871 32.237 16.683 32.527 17.246 34.291 C 17.211 34.703 17.142 35.526 17.107 35.937 C 17.92 35.993 18.617 35.703 19.099 35.053 C 19.203 35.31 19.414 35.824 19.518003 36.076 C 20.381004 36.121 21.244003 36.076 22.099 35.951 C 22.091002 35.423 22.079 34.893 22.072 34.365 C 24.002 34.215 24.403 31.885004 24.784 30.408 C 20.943 31.47 16.958 30.514004 13.186002 29.627 C 13.853002 29.03 14.496 28.411 15.166 27.825 C 17.458 25.262 19.018 22.032 19.337 18.623 C 18.563 18.586 17.79 18.556002 17.015 18.533 M 19.526 20.459002 C 19.155996 20.923002 18.933 21.592 18.967 22.181002 C 19.707998 22.196 20.108 20.882002 19.526 20.459002 M 16.706999 26.689 C 17.894 26.701 18.668 25.56 17.919998 24.544 C 17.479998 25.239 17.063995 25.949 16.706999 26.689 M 15.931999 28.071 C 15.985999 28.789 15.496999 29.925 16.509998 30.175 C 17.218 29.858002 17.784998 29.290998 18.496998 29.004002 C 19.440998 28.963 19.987995 29.846 20.680998 30.318 C 21.312998 30.556002 22.008995 30.174002 22.403996 29.691 L 22.083998 30.288 C 22.761995 30.238 23.435995 30.171 24.109997 30.099 C 23.829996 29.76 23.546995 29.412 23.282995 29.061 C 23.116997 29.166 22.785 29.378 22.618998 29.484 C 22.916998 28.649002 23.170998 27.63 22.310995 27.026 C 21.936996 27.528002 21.768995 28.238 21.224997 28.592 C 20.42 28.829 19.739 28.223 19.118 27.825 C 18.274 26.705 16.869 27.539 15.932 28.071 M 14.399 29.374 C 14.781 30.273 16.067 29.182 15.505 28.498 C 14.997 28.261 14.596 29.008 14.399 29.374 M 17.435 30.172 C 18.325 30.28 19.219 30.346 20.116 30.341003 C 19.542 29.322 18.07 29.069 17.435 30.172 M 12.966999 34.026 C 13.109999 34.253 13.390999 34.703 13.529999 34.929 C 14.307999 35.619 15.293999 36.315 16.407 36.062 C 16.997 35.48 16.788 34.623 16.796 33.899 L 16.6 33.928 C 15.64 32.852 13.891001 32.966 12.967001 34.026 z " fill="#020201"/>
<path d="M 13.444 19.613 C 14.068 19.213 14.797 19.205004 15.497 19.349 C 15.592999 19.62 15.785998 20.161 15.882 20.432 C 15.247 20.398 14.625999 20.47 14.014 20.636002 C 13.872 20.38 13.587 19.87 13.444 19.613 z " fill="#020201"/>
<path d="M 28.293 16.937 C 29.287 16.684 30.318 16.79 31.286 17.111 C 31.231998 18.172 31.194 19.233 31.194 20.298 C 30.847 20.698 30.501 21.103 30.155 21.506 C 30.066 21.612 29.884 21.827 29.797 21.933 C 29.149 22.107 28.502 22.281 27.859 22.458 C 28.114 21.672 28.411 20.902 28.696 20.132 C 27.941002 20.845 27.1 21.51 26.573002 22.416 C 26.400002 23.776 26.503002 25.149 26.466002 26.514 C 26.105 26.28 25.761002 26.023 25.417002 25.763 C 25.563002 24.89 25.741 24.022 25.954002 23.16 C 25.579002 21.936 25.330002 20.672 25.345003 19.388 C 25.464005 19.264 25.703005 19.019 25.824003 18.893 C 27.125004 18.259 28.577003 18.259 29.974005 18.494 C 29.438 17.948 28.879 17.427 28.293 16.937 z " fill="#f9b859"/>
<path d="M 25.82 18.892 C 26.513 18.095 27.338 17.413 28.293 16.936 C 28.879 17.427 29.438 17.949 29.973 18.492 C 28.574 18.258 27.123 18.258 25.82 18.892 z " fill="#e32e1a"/>
<path d="M 31.286 17.11 C 31.402 17.143002 31.637 17.208 31.757 17.242 C 32.192 17.529 32.615 17.831 33.024 18.152 C 32.431 18.877 31.818996 19.59 31.194996 20.297 C 31.192995 19.231 31.231997 18.171 31.285995 17.11 z " fill="#e32e1a"/>
<path d="M 33.023 18.151 C 33.969997 19.05 34.152 20.368 34.483 21.553 C 33.123997 22.165 31.419998 22.505 30.152998 21.504 C 30.499998 21.1 30.846998 20.695 31.192995 20.296 C 31.818 19.591 32.43 18.877 33.023 18.151 z " fill="#fedd73"/>
<path d="M 27.857 22.457 C 28.502 22.279 29.148 22.105 29.795 21.932 C 30.647 23.038002 31.745 23.937 33.085 24.420002 C 31.825 25.293 30.245996 25.251 28.782 25.122002 C 28.309 24.296 27.981 23.397 27.857 22.457 z " fill="#fedd73"/>
<path d="M 17.015 18.533 C 17.789 18.555 18.563 18.586 19.337 18.624 C 19.017 22.033 17.457 25.262 15.165 27.825 C 15.015 27.644 14.707 27.282 14.557 27.1 C 13.387 27.078 12.181 27.372 11.056 26.922 C 9.642 26.556004 8.775 25.321 7.731 24.414 C 8.167 23.505 8.698 22.636002 9.407 21.907 C 10.478 22.844002 9.365 24.387 10.162 25.449 C 10.955 26.558 12.466 26.608002 13.714 26.567 C 16.637 26.313002 18.606 22.375002 16.526 20.129002 C 16.679 19.594 16.842 19.063 17.015 18.533 z " fill="#b8cc11"/>
<path d="M 23.082 22.649 C 23.555 21.558 24.148 20.524 24.869 19.568 C 24.488 21.128 23.994 22.669 23.926 24.28 C 23.613 23.752 23.336 23.204 23.082 22.649 z " fill="#b34441"/>
<path d="M 19.526 20.459 C 20.108 20.882 19.707 22.196 18.967 22.181 C 18.933 21.592 19.155998 20.923 19.526 20.459 z " fill="#f1f1f1"/>
<path d="M 13.764 22.306 C 13.467 21.044 14.901 20.244 15.955999 20.931 C 16.388 22.219 14.708 22.566 13.764 22.306 z "/>
<path d="M 34.179 23.71 C 34.769 23.431 35.408 23.287 36.032 23.113997 C 35.755 23.603996 35.451 24.087996 35.112003 24.544996 C 34.773003 24.506996 34.094 24.435995 33.752003 24.397997 C 33.859 24.225 34.071 23.88 34.179 23.71 z " fill="#a83530"/>
<path d="M 6.931 26.388 C 7.331 25.791 7.489 25.081 7.732001 24.416 C 8.776 25.322 9.643001 26.558 11.056 26.924 C 12.181 27.373 13.387 27.079 14.556999 27.102 C 14.706999 27.283 15.014999 27.646 15.165999 27.827 C 14.495999 28.413 13.853001 29.032 13.185999 29.629 C 16.957 30.517 20.943998 31.472 24.783997 30.411 C 24.402996 31.887 24.001995 34.217 22.072 34.367 C 22.079998 34.896 22.092 35.426003 22.099 35.954 C 21.242998 36.078003 20.381 36.123 19.516998 36.078003 C 19.412998 35.825005 19.200998 35.311005 19.096998 35.055004 C 18.569998 34.624004 17.888 34.482 17.243998 34.292004 C 16.680998 32.528004 13.868998 32.238003 12.783998 33.695004 C 12.6139965 33.854004 12.270998 34.174004 12.101996 34.337 C 11.130998 33.934 10.156998 33.524998 9.243998 32.996 C 8.268996 31.263 7.949997 29.288998 7.417997 27.404 C 6.893996 27.096 6.450997 27.611 6.361997 28.087 C 6.581997 28.159 7.016997 28.299 7.232997 28.37 C 7.594997 29.151 7.363997 29.849998 6.677997 30.356998 C 5.934997 30.123 4.797997 29.815998 4.978997 28.811998 C 4.917 27.589 6.034 26.965 6.931 26.388 z " fill="#b8cc11" fill-opacity="1"/>
<path d="M 15.932 28.071 C 16.868 27.539 18.274 26.705 19.118 27.825996 C 18.016 28.332996 16.938 28.988997 16.511 30.175997 C 15.497 29.926 15.986 28.789 15.932 28.071 z " fill="#e2191d" fill-opacity="1"/>
<path d="M 22.312 27.025 C 23.17 27.629 22.916 28.649 22.62 29.483 C 22.578 29.517 22.489 29.586 22.447 29.624 L 22.405 29.691 C 22.012 30.174 21.315 30.556 20.683 30.318 C 19.99 29.846 19.443 28.963 18.499 29.005 C 17.786 29.292002 17.221 29.859 16.512001 30.176 C 16.939 28.989 18.018002 28.333 19.12 27.826 C 19.740004 28.222 20.422 28.831 21.226004 28.593 C 21.769 28.238 21.938 27.528 22.312 27.025 z " fill="#e2191d"/>
<path d="M 14.399 29.374 C 14.596 29.008 14.997 28.261 15.505 28.498 C 16.067 29.182 14.781 30.273 14.399 29.374 z " fill="#f0f0f0"/>
<path d="M 9.246 32.996 C 10.159 33.524 11.133 33.933 12.104 34.336 C 12.273 34.174 12.617002 33.854 12.786 33.694 C 12.96 34.347 13.137 35.001 13.314 35.657 C 11.708 35.254 9.936 34.619003 9.246 32.996002 z " fill="#b8cc11" fill-opacity="1"/>
<path d="M 12.967 34.026 C 13.891 32.964 15.64 32.852 16.598999 33.927 C 15.508999 34.033 14.449999 34.339 13.528999 34.928 C 13.391 34.703 13.109 34.253 12.967 34.026 z " fill="#b8cc11" fill-opacity="1"/>
<path d="M 13.529 34.929 C 14.449 34.339 15.509001 34.034 16.599 33.929 L 16.795 33.899 C 16.787 34.624 16.996 35.481007 16.406 36.062004 C 15.293 36.314 14.307 35.62 13.529 34.929 z " fill="#b8cc11" fill-opacity="1"/>
<path d="M 17.246 34.291 C 17.89 34.48 18.571 34.623 19.099 35.055 C 18.617 35.704 17.92 35.994 17.107 35.939 C 17.142 35.525 17.212 34.703 17.246 34.291 z " fill="#b8cc11" fill-opacity="1"/>
</g>
</svg>
