<?xml version="1.0" encoding="UTF-8"?>
<svg xmlns="http://www.w3.org/2000/svg" xmlns:xlink="http://www.w3.org/1999/xlink" baseProfile="tiny" contentScriptType="text/ecmascript" contentStyleType="text/css" height="96px" preserveAspectRatio="xMidYMid meet" version="1.1" viewBox="0 0 96 96" width="96px" x="0px" y="0px" zoomAndPan="magnify">
<defs>
<linearGradient gradientUnits="userSpaceOnUse" x1="59" x2="59" y1="65.9912" y2="8.2842">
<stop offset="0" stop-color="#ffffff" stop-opacity="1"/>
<stop offset="1" stop-color="#ffffff" stop-opacity="0.78431374"/>
</linearGradient>
<linearGradient gradientUnits="userSpaceOnUse" x1="59" x2="59" y1="65.991203" y2="8.2841997">
<stop offset="0" stop-color="#62a63d" stop-opacity="1"/>
<stop offset="1" stop-color="#82bc45" stop-opacity="1"/>
</linearGradient>
<linearGradient gradientTransform="translate(24.000002,27.253007)" gradientUnits="userSpaceOnUse" id="linearGradient2235" x1="19.940901" x2="24" y1="10.918805" y2="22.750927">
<stop offset="0" stop-color="#cccccc" stop-opacity="1"/>
<stop offset="1" stop-color="#9b9b9b" stop-opacity="1"/>
</linearGradient>
<linearGradient id="linearGradient2235">
<stop offset="0" stop-color="#cccccc" stop-opacity="1"/>
<stop offset="1" stop-color="#9b9b9b" stop-opacity="1"/>
</linearGradient>
<linearGradient gradientUnits="userSpaceOnUse" id="linearGradient2309" x1="6.7230334" x2="37.804565" y1="37.683041" y2="29.096745">
<stop offset="0" stop-color="#ffffff" stop-opacity="1"/>
<stop offset="1" stop-color="#ffffff" stop-opacity="0"/>
</linearGradient>
<linearGradient id="linearGradient2309">
<stop offset="0" stop-color="#ffffff" stop-opacity="1"/>
<stop offset="1" stop-color="#ffffff" stop-opacity="0"/>
</linearGradient>
<linearGradient gradientTransform="translate(24.000002,27.253007)" gradientUnits="userSpaceOnUse" id="linearGradient2276" x1="37.535713" x2="9.9285688" y1="34.196426" y2="20.089285">
<stop offset="0" stop-color="#babdb6" stop-opacity="1"/>
<stop offset="1" stop-color="#8f9488" stop-opacity="1"/>
</linearGradient>
<linearGradient id="linearGradient2276">
<stop offset="0" stop-color="#babdb6" stop-opacity="1"/>
<stop offset="1" stop-color="#8f9488" stop-opacity="1"/>
</linearGradient>
<radialGradient cx="24" cy="36.75" fx="24" fy="36.75" gradientTransform="matrix(1,0,0,0.3,0,25.725)" gradientUnits="userSpaceOnUse" id="linearGradient2286" r="22.5">
<stop offset="0" stop-color="#555753"/>
<stop offset="1" stop-color="#555753" stop-opacity="0"/>
</radialGradient>
<linearGradient id="linearGradient2286">
<stop offset="0" stop-color="#555753"/>
<stop offset="1" stop-color="#555753" stop-opacity="0"/>
</linearGradient>
<radialGradient cx="24" cy="36.75" fx="24" fy="36.75" gradientTransform="matrix(1,0,0,0.3,0,25.725)" gradientUnits="userSpaceOnUse" id="linearGradient2286" r="22.5">
<stop offset="0" stop-color="#555753"/>
<stop offset="1" stop-color="#555753" stop-opacity="0"/>
</radialGradient>
</defs>
<path d="M 88.0 49.0 C 88.0 78.633 77.637 89.0 48.0 89.0 C 18.365 89.0 8.0 78.633 8.0 49.0 C 8.0 19.365 18.365 9.0 48.0 9.0 C 77.637 9.0 88.0 19.365 88.0 49.0 z " fill-opacity="0.4" stroke-opacity="0.4"/>
<linearGradient gradientUnits="userSpaceOnUse" id="SVGID_1_" x1="48.0005" x2="48.0005" y1="90.2266" y2="2.3359">
<stop offset="0" stop-color="#45bdcc" stop-opacity="1"/>
<stop offset="1" stop-color="#63e1da" stop-opacity="1"/>
</linearGradient>
<path d="M 88.0 48.0 C 88.0 77.633 77.637 88.0 48.0 88.0 C 18.365 88.0 8.0 77.633 8.0 48.0 C 8.0 18.365 18.365 8.0 48.0 8.0 C 77.637 8.0 88.0 18.365 88.0 48.0 z " fill="url(#SVGID_1_)"/>
<path color="#000000" d="M 29.1875 38.65625 C 28.743824 38.692432 28.348991 39.060036 28.28125 39.5 L 24.5625 64.6875 C 24.47118 65.26048 24.982342 65.85151 25.5625 65.84375 L 42.59375 65.84375 C 42.85782 65.84995 43.122787 65.7463 43.3125 65.5625 L 44.03125 64.84375 C 45.059956 65.59139 46.484474 65.96875 48.0 65.96875 C 49.515526 65.96875 50.940044 65.59139 51.96875 64.84375 L 52.6875 65.5625 C 52.877213 65.74629 53.14218 65.849976 53.40625 65.84375 L 70.4375 65.84375 C 71.01766 65.85155 71.52882 65.26048 71.4375 64.6875 L 67.71875 39.5 C 67.64486 39.03027 67.19422 38.650043 66.71875 38.65625 L 29.28125 38.65625 C 29.25002 38.65475 29.21873 38.65475 29.1875 38.65625 z " display="block" fill="#3e79c9" fill-opacity="1" stroke="none" stroke-width="1" visibility="visible"/>
<linearGradient gradientUnits="userSpaceOnUse" id="SVGID_2_" x1="47.9995" x2="47.9995" y1="8.5449" y2="89.2398">
<stop offset="0" stop-color="#ffffff"/>
<stop offset="1" stop-color="#ffffff" stop-opacity="0"/>
</linearGradient>
<path d="M 48.0 8.0 C 18.365 8.0 8.0 18.365 8.0 48.0 C 8.0 77.633 18.365 88.0 48.0 88.0 C 77.637 88.0 88.0 77.633 88.0 48.0 C 88.0 18.365 77.637 8.0 48.0 8.0 z M 48.0 87.0 C 18.841 87.0 9.0 77.158 9.0 48.0 C 9.0 18.841 18.841 9.0 48.0 9.0 C 77.159 9.0 87.0 18.841 87.0 48.0 C 87.0 77.158 77.159 87.0 48.0 87.0 z " fill="url(#SVGID_2_)" fill-opacity="0.25" stroke-opacity="0.25"/>
<radialGradient cx="165.7061" cy="-826.2407" gradientTransform="matrix(0.7071 -0.7071 0.198 0.198 115.4226 349.7662)" gradientUnits="userSpaceOnUse" r="24.5063">
<stop offset="0" stop-color="#ffffff" stop-opacity="0.16"/>
<stop offset="0.8" stop-color="#ffffff" stop-opacity="0.02"/>
<stop offset="1" stop-color="#ffffff" stop-opacity="0"/>
</radialGradient>
<linearGradient gradientUnits="userSpaceOnUse" x1="47.0801" x2="88" y1="68.5977" y2="68.5977">
<stop offset="0" stop-color="#005897"/>
<stop offset="1" stop-color="#00a9cc"/>
</linearGradient>
<linearGradient gradientUnits="userSpaceOnUse" x1="78.4609" x2="71.7707" y1="79.543" y2="72.8527">
<stop offset="0" stop-color="#ffffff"/>
<stop offset="1" stop-color="#6d6e70"/>
</linearGradient>
<rect fill="none" height="96" width="96"/>
<linearGradient gradientUnits="userSpaceOnUse" x1="59" x2="59" y1="65.9912" y2="8.2842">
<stop offset="0" stop-color="#ffffff" stop-opacity="1"/>
<stop offset="1" stop-color="#ffffff" stop-opacity="0.78431374"/>
</linearGradient>
<linearGradient gradientUnits="userSpaceOnUse" x1="59" x2="59" y1="65.748" y2="57.1592">
<stop offset="0" stop-color="#000000"/>
<stop offset="1" stop-color="#000000" stop-opacity="0"/>
</linearGradient>
<path d="M 26.000002 63.75301 C 31.666668 63.75301 40.0 62.25301 43.0 63.75301 C 46.0 61.25301 50.0 61.25301 53.0 63.75301 C 56.0 62.25301 65.0 63.75301 70.0 63.75301 L 69.5 61.25301 C 62.5 58.75301 53.0 55.75301 48.0 60.25301 C 43.0 55.75301 33.500004 58.75301 26.500004 61.25301 L 26.000004 63.75301 z " fill="#9d9d9d" fill-opacity="1" fill-rule="evenodd" stroke="none" stroke-dasharray="none" stroke-linecap="butt" stroke-linejoin="miter" stroke-miterlimit="4" stroke-opacity="1" stroke-width="1"/>
<path d="M 26.500002 61.25301 C 33.0 58.75301 44.0 56.25301 48.0 60.25301 C 52.0 56.25301 63.0 58.75301 69.5 61.25301 L 66.5 37.75301 C 61.0 35.25301 51.5 33.25301 48.0 36.25301 C 44.0 33.25301 36.000004 35.25301 29.500004 37.75301 L 26.500004 61.25301 z " fill="#ffffff" fill-opacity="1" fill-rule="evenodd" stroke="none"/>
</svg>
