<?xml version="1.0" encoding="UTF-8"?>
<svg xmlns="http://www.w3.org/2000/svg" xmlns:xlink="http://www.w3.org/1999/xlink" baseProfile="tiny" contentScriptType="text/ecmascript" contentStyleType="text/css" height="96px" preserveAspectRatio="xMidYMid meet" version="1.1" viewBox="0 0 96 96" width="96px" x="0px" y="0px" zoomAndPan="magnify">
<defs/>
<rect fill="none" height="96" width="96"/>
<rect fill="none" height="96" width="96"/>
<path d="M 88.023 49.0 C 88.023 78.633 77.658005 89.0 48.023003 89.0 C 18.388002 89.0 8.023003 78.633 8.023003 49.0 C 8.023003 19.366 18.389004 9.0 48.023003 9.0 C 77.658 9.0 88.023 19.365 88.023 49.0 z " fill-opacity="0.4"/>
<linearGradient gradientTransform="matrix(1 0 0 1 -545.1992 -744.8008)" gradientUnits="userSpaceOnUse" x1="593.2002" x2="593.2002" y1="752.8105" y2="832.7881">
<stop offset="0" stop-color="#72caef"/>
<stop offset="0.0364" stop-color="#72caef"/>
<stop offset="0.187" stop-color="#68c1e8"/>
<stop offset="0.4418" stop-color="#4ea9d6"/>
<stop offset="0.7674" stop-color="#2381b9"/>
<stop offset="1" stop-color="#0061a1"/>
</linearGradient>
<path d="M 8.0 47.988 C 8.0 77.622 18.365 87.988 48.0 87.988 C 77.637 87.988 88.0 77.622 88.0 47.988 C 88.0 19.004 78.074 8.459 49.908 8.01 L 46.092003 8.01 C 17.928 8.459 8.0 19.004 8.0 47.988 z " fill="#2ca4ee" fill-opacity="1"/>
<path d="M 59.52 65.471 C 59.52 66.034004 59.379 66.596 59.114 67.094 L 56.958004 71.124 C 56.097004 72.721 54.138004 73.377 52.495003 72.621 L 51.065 72.171005 L 51.065 72.171005 C 51.065 72.175 50.577003 72.08501 50.050003 72.20601 C 48.957005 73.09201 47.766003 73.83401 46.502003 74.41501 C 46.154003 74.84101 46.025 75.32201 46.023003 75.32701 L 46.004 75.41001 L 45.776 76.933014 C 45.713 78.61901 44.26 80.04601 42.475 80.10301 L 37.9 80.248 C 36.095 80.303 34.546 78.93701 34.375 77.139 L 34.042 75.645 C 33.971 75.47099 33.805 75.118 33.514 74.809 C 32.833 74.553 32.214 74.272995 31.625 73.958 C 31.038 73.645 30.471 73.286 29.85 72.838 C 29.294 72.744995 28.793 72.88 28.787 72.881 L 27.35 73.445 C 26.699 73.805 25.842 73.92 25.023 73.729 C 24.124 73.519 23.365002 72.97199 22.884 72.19 L 20.476002 68.312 C 20.138002 67.767 19.959002 67.14 19.959002 66.5 C 19.959002 65.381 20.503002 64.332 21.416002 63.692 L 22.505005 62.696003 L 22.505005 62.696003 C 22.505005 62.69 22.847004 62.291004 23.001003 61.747 C 22.876003 60.913 22.813004 60.065 22.813004 59.229 C 22.813004 58.713 22.837004 58.192 22.885004 57.678 C 22.693005 57.127003 22.307005 56.745003 22.302004 56.74 L 22.234003 56.679 L 21.088003 55.765 C 20.157003 55.198997 19.532003 54.079 19.532003 52.9 C 19.532003 52.337 19.673004 51.776997 19.940002 51.279 L 20.325005 50.552 L 22.106005 47.239 C 22.532003 46.435997 23.253002 45.845997 24.135002 45.581997 C 24.935 45.338997 25.795002 45.396996 26.556002 45.746 L 28.055002 46.216 C 28.426004 46.255 28.786003 46.23 29.089005 46.148 C 30.129002 45.316 31.270002 44.613 32.483 44.05 C 32.883003 43.607 33.030003 43.05 33.032 43.044 L 33.276 41.44 C 33.336002 39.755997 34.79 38.327 36.579 38.266 L 37.405003 38.237 L 41.155003 38.122 C 42.076004 38.094997 42.952003 38.428997 43.621 39.060997 C 44.229004 39.635 44.606003 40.413 44.681004 41.246 L 45.011005 42.716 C 45.068005 42.864 45.258007 43.3 45.619007 43.65 C 46.31701 43.921 46.91301 44.191 47.438007 44.474003 C 47.96301 44.754 48.51201 45.097004 49.10801 45.519 C 49.505005 45.605 49.893005 45.564 50.092007 45.531 L 50.326008 45.402 L 50.48401 45.402 L 51.701008 44.925 C 52.363007 44.562 53.22601 44.448997 54.051006 44.646 C 54.942005 44.859 55.696007 45.408 56.174007 46.191 L 58.576008 50.06 C 58.916008 50.602997 59.09601 51.229996 59.09601 51.872997 C 59.09601 52.99 58.550007 54.039 57.63701 54.679996 L 56.51801 55.707996 C 56.41301 55.844 56.166008 56.192997 56.04401 56.625996 C 56.17801 57.465996 56.24501 58.327995 56.24501 59.188995 C 56.24501 59.696995 56.22301 60.206997 56.17801 60.708996 C 56.37201 61.256996 56.74901 61.636997 56.75301 61.640995 L 57.96201 62.597996 C 58.896 63.169 59.52 64.288 59.52 65.471 z M 31.355 59.238 C 31.355 63.782 35.052 67.478 39.597 67.478 C 44.142 67.478 47.839 63.782 47.839 59.238 C 47.839 54.691 44.142 50.994 39.597 50.994 C 35.052 50.994 31.355 54.691 31.355 59.238 z " fill-opacity="0.07"/>
<path d="M 58.77 65.471 C 58.77 65.911 58.661 66.35 58.453 66.742004 L 56.297 70.770004 C 55.618 72.02801 54.097 72.534004 52.81 71.94 L 51.293003 71.457 C 51.256004 71.45 50.497 71.284004 49.702003 71.524 C 48.583004 72.448006 47.354004 73.212006 46.046005 73.79801 C 45.48301 74.402 45.299004 75.137 45.297005 75.145004 L 45.275005 75.25001 L 45.039005 76.82201 C 44.984005 78.18701 43.870007 79.310005 42.45501 79.355 L 37.880005 79.499 C 36.458004 79.542 35.259007 78.478 35.124004 77.068 L 34.764004 75.421 C 34.764004 75.432 34.524 74.718 33.930004 74.164 C 33.223003 73.902 32.583004 73.619 31.981005 73.297005 C 31.385004 72.97901 30.805004 72.608 30.162004 72.137 C 29.347004 71.944 28.597004 72.158005 28.588003 72.159004 L 27.082005 72.746 C 26.507004 73.059006 25.840004 73.148 25.198004 72.998 C 24.495005 72.833 23.903004 72.407 23.527004 71.797005 L 21.117004 67.91601 C 20.849 67.49 20.71 67.0 20.71 66.501 C 20.71 65.623 21.134 64.809 21.846998 64.309 L 23.009998 63.254 L 23.047 63.212 C 23.047 63.212 23.585 62.616997 23.766 61.782 C 23.631998 60.936996 23.564 60.08 23.564 59.229996 C 23.564 58.688995 23.592 58.139996 23.647 57.598995 C 23.415998 56.770996 22.833 56.209995 22.827 56.203995 L 22.74 56.124996 L 21.558 55.180996 C 20.77 54.696995 20.284 53.826996 20.284 52.901997 C 20.284 52.462997 20.394 52.025 20.603 51.633995 L 20.989 50.904995 L 22.768 47.595993 C 23.101 46.96899 23.664 46.50799 24.352 46.300995 C 24.98 46.111996 25.65 46.15599 26.245 46.429996 L 27.898 46.952995 C 27.961 46.959995 28.696 47.076996 29.449 46.819996 C 30.51 45.958996 31.678 45.235996 32.926 44.672997 C 33.555 44.056995 33.758 43.234997 33.76 43.226997 L 33.781 43.130997 L 34.017 41.553 C 34.067997 40.19 35.185 39.065 36.602997 39.018 L 37.430996 38.989 L 41.178997 38.873997 C 41.898 38.852997 42.580997 39.111996 43.104996 39.608 C 43.583996 40.059 43.875996 40.663 43.932995 41.313 L 44.288994 42.932 C 44.288994 42.926 44.549995 43.726997 45.217995 44.298 C 45.710995 44.486 46.399994 44.768 47.081993 45.135 C 47.762993 45.497 48.366993 45.909 48.788994 46.211 C 49.45499 46.399 50.098995 46.298004 50.35099 46.244003 L 50.520992 46.15 L 50.62699 46.15 L 51.97599 45.622 C 52.55999 45.309 53.23199 45.221 53.87699 45.375 C 54.57099 45.541 55.16099 45.969 55.533993 46.58 L 57.93999 50.455 C 58.20599 50.88 58.34599 51.371 58.34599 51.871 C 58.34599 52.747 57.91999 53.562004 57.20499 54.062004 L 55.966 55.2 C 55.966 55.205 55.455 55.789 55.281 56.597 C 55.425 57.447 55.497 58.32 55.497 59.193 C 55.497 59.722 55.470997 60.261 55.416996 60.794003 C 55.653996 61.617004 56.226997 62.175003 56.231995 62.182003 L 57.49699 63.188004 C 58.283 63.673 58.77 64.542 58.77 65.471 z M 30.605 59.238 C 30.605 64.195 34.638 68.228 39.597 68.228 C 44.554 68.228 48.589 64.195 48.589 59.238 C 48.589 54.279 44.556 50.244 39.597 50.244 C 34.638 50.244 30.605 54.277 30.605 59.238 z " fill-opacity="0.07"/>
<path d="M 58.02 65.471 C 58.02 65.789 57.94 66.106 57.791 66.389 L 55.636 70.416 C 55.142 71.333 54.011 71.691 53.085003 71.24 L 51.521004 70.741 L 51.433 70.718994 C 51.424004 70.716995 50.4 70.477 49.332 70.854 C 48.198 71.807 46.948 72.585 45.61 73.17 C 44.807 73.956 44.569 74.963 44.567 74.973 L 44.542 75.09 L 44.297 76.709 C 44.251 77.773 43.448 78.572 42.431 78.605 L 37.857 78.749 C 36.82 78.781 35.942997 77.982 35.868 76.955 L 35.496 75.258 C 35.494 75.251 35.187 74.24301 34.322 73.508 C 33.593 73.246 32.942997 72.96001 32.336 72.635 C 31.735998 72.315 31.148 71.936005 30.492 71.447 C 29.397 71.134 28.383 71.438 28.371998 71.441 L 26.761995 72.066 C 26.338997 72.308 25.846996 72.379005 25.365995 72.268005 C 24.860998 72.15001 24.433998 71.842 24.163998 71.40401 L 21.752998 67.521 C 21.561998 67.212006 21.461 66.861 21.461 66.5 C 21.461 65.849 21.777998 65.255 22.314 64.897 L 23.515 63.807003 L 23.592 63.727 C 23.596998 63.721 24.334 62.93 24.529 61.79 C 24.387 60.941 24.316 60.081 24.316 59.228 C 24.316 58.665 24.347 58.099 24.409 57.541 C 24.146 56.406 23.35 55.661 23.342 55.653 L 23.247002 55.567 L 21.991 54.561 C 21.401 54.214 21.037 53.584 21.037 52.897 C 21.037 52.582 21.117 52.266 21.267 51.985 L 21.655 51.254 L 23.432 47.95 C 23.671 47.5 24.077002 47.167 24.572 47.018 C 25.042 46.874 25.537 46.914 25.974 47.127003 L 27.676 47.666004 C 27.903 47.709003 28.864 47.855003 29.83 47.478004 C 30.897 46.597004 32.08 45.866005 33.350998 45.30201 C 34.235996 44.507008 34.492996 43.405006 34.495 43.39201 L 34.517 43.292007 L 34.762997 41.660007 C 34.805996 40.598007 35.612995 39.798008 36.631996 39.76301 L 37.460995 39.73401 L 41.205994 39.62001 C 41.72599 39.603012 42.217995 39.79301 42.594994 40.14801 C 42.950993 40.48601 43.161995 40.93501 43.194992 41.41901 L 43.56399 43.11101 L 43.567993 43.110012 C 43.569992 43.11801 43.899994 44.21001 44.842995 44.95201 C 45.380993 45.15501 46.061996 45.43101 46.731995 45.79101 C 47.399994 46.14701 47.998993 46.55801 48.458996 46.89001 C 49.437996 47.20801 50.37899 47.013012 50.629 46.950012 L 50.720997 46.898018 L 50.775997 46.898018 L 52.302 46.300014 C 52.733 46.058018 53.228996 45.987015 53.709 46.103016 C 54.209 46.222015 54.633 46.530018 54.9 46.968018 L 57.31 50.84902 C 57.501003 51.158016 57.603 51.509014 57.603 51.870014 C 57.603 52.519016 57.285 53.113014 56.747 53.47302 L 55.465 54.643017 C 55.46 54.64702 54.718 55.442017 54.526 56.587017 C 54.677 57.440018 54.755 58.315018 54.755 59.18802 C 54.755 59.739017 54.726 60.29602 54.665 60.84802 C 54.936 61.97302 55.715 62.712017 55.724 62.72102 L 57.078 63.80102 C 57.657 64.15 58.02 64.782 58.02 65.471 z M 29.855 59.238 C 29.855 64.609 34.224 68.979 39.597 68.979 C 44.968 68.978 49.339 64.60899 49.339 59.237995 C 49.339 53.86499 44.968 49.493996 39.597 49.493996 C 34.226 49.493996 29.855 53.865 29.855 59.238 z " fill-opacity="0.07"/>
<path d="M 77.697 40.277 C 77.697 40.8 77.566 41.322 77.318 41.787 L 75.88 44.457 L 75.579994 45.027 C 75.149994 45.812 74.464 46.37 73.63899 46.609 C 72.90499 46.822 72.11799 46.765 71.42199 46.445 L 70.31999 46.103 C 70.10299 46.082 69.92399 46.093 69.79799 46.115 C 68.94399 46.799004 68.011986 47.379 67.025986 47.843 C 66.886986 48.038 66.802986 48.253 66.77399 48.364 L 66.588 49.6 C 66.518 51.149 65.163994 52.469 63.518 52.53 L 59.804996 52.647 C 58.129997 52.698 56.687996 51.432 56.519997 49.764 L 56.261997 48.619 C 56.19 48.457 56.097996 48.308 55.996 48.185 C 55.442997 47.97 54.970997 47.753 54.516 47.506 C 54.067 47.271 53.62 46.991 53.125 46.64 C 52.812 46.607 52.544 46.677 52.541 46.677 L 51.445 47.110996 C 50.841 47.438995 50.047 47.543995 49.288 47.365997 C 48.452 47.167995 47.745 46.657997 47.296 45.928997 L 45.705997 43.365997 L 45.354996 42.810997 C 45.032997 42.289997 44.862995 41.701996 44.862995 41.105995 C 44.862995 40.074997 45.362995 39.099995 46.202995 38.499996 L 47.059994 37.716995 C 47.194992 37.526997 47.272995 37.354996 47.317993 37.229996 C 47.221992 36.56 47.171993 35.880997 47.171993 35.209995 C 47.171993 34.816994 47.18899 34.424995 47.221992 34.039997 C 47.11999 33.803997 46.95999 33.601997 46.87899 33.519997 L 45.953995 32.781998 C 45.098995 32.253998 44.519997 31.213997 44.519997 30.119995 C 44.519997 29.583998 44.657997 29.051996 44.915997 28.581997 L 45.207996 28.027996 L 46.653996 25.339996 C 47.041996 24.600996 47.71199 24.047997 48.536995 23.795996 C 49.278996 23.568996 50.077995 23.618996 50.782993 23.936996 L 51.944992 24.298996 C 52.16899 24.317995 52.346992 24.298996 52.477993 24.270996 C 53.295994 23.624996 54.194992 23.069996 55.149994 22.617996 C 55.313995 22.410995 55.413994 22.160995 55.444992 22.044996 L 55.630993 20.797997 C 55.69799 19.261995 57.087994 17.911997 58.722992 17.867996 L 62.41299 17.752996 C 62.86699 17.739996 63.30699 17.817995 63.71899 17.987995 L 63.80699 18.022997 L 64.48499 18.522997 L 65.148994 19.130997 L 65.2 19.206997 C 65.482994 19.639996 65.658 20.137997 65.70599 20.652996 L 65.94199 21.743996 C 66.00299 21.892996 66.11199 22.101995 66.27 22.271996 C 66.648994 22.422997 67.167 22.642996 67.704 22.929996 C 68.129 23.154997 68.55399 23.414995 69.023994 23.746996 C 69.19399 23.770996 69.35999 23.763996 69.477 23.748997 L 69.674 23.632998 L 69.870995 23.629995 L 70.76399 23.279997 C 72.17299 22.520996 74.023994 23.035995 74.90999 24.440996 L 76.86899 27.598995 C 77.18199 28.102997 77.347984 28.684996 77.347984 29.281996 C 77.347984 30.311996 76.84998 31.285995 76.01598 31.885996 L 75.18999 32.643997 C 75.111984 32.733997 74.97499 32.930996 74.89499 33.162 C 74.997986 33.841 75.04799 34.53 75.04799 35.212997 C 75.04799 35.594 75.03099 35.981 74.998985 36.365997 C 75.125984 36.662 75.331985 36.871 75.333984 36.873997 L 76.25598 37.607 C 77.119 38.137 77.697 39.18 77.697 40.277 z M 54.938 35.234 C 54.938 38.67 57.731 41.463 61.165 41.463 C 64.603004 41.463 67.397 38.668 67.397 35.234 C 67.397 31.798 64.600006 29.005 61.165005 29.005 C 57.73 29.006 54.938 31.8 54.938 35.234 z " fill-opacity="0.07"/>
<path d="M 76.947 40.277 C 76.947 40.679 76.845 41.079 76.656 41.433 L 75.22 44.101 L 74.915 44.678997 C 74.587 45.278996 74.061005 45.704 73.429 45.887997 C 72.866 46.052 72.267 46.006996 71.734 45.762997 L 70.474 45.366997 C 70.474 45.371 69.986 45.282 69.464 45.42 C 68.575 46.149 67.597 46.761997 66.546 47.236 C 66.179 47.66 66.049995 48.16 66.048 48.166 L 65.847 49.484 C 65.786 50.713 64.771 51.732 63.49 51.777 L 59.781 51.894 C 58.488003 51.933 57.394 50.967003 57.265003 49.687 L 56.976 48.384 L 56.976 48.384 C 56.976 48.393997 56.814003 47.925 56.427 47.545 C 55.835003 47.323 55.338 47.099 54.871 46.846996 C 54.408 46.602997 53.94 46.307995 53.418003 45.927 C 52.856003 45.81 52.349003 45.949997 52.342003 45.952 L 51.172005 46.41 C 50.648006 46.69 50.041004 46.768 49.459003 46.633 C 48.819004 46.482 48.276005 46.092 47.935005 45.534 L 46.345005 42.97 L 45.991005 42.409 C 45.744003 42.011 45.616005 41.559 45.616005 41.104 C 45.616005 40.309 45.998005 39.567 46.64201 39.106 L 47.623005 38.215 L 47.623005 38.215 C 47.623005 38.209 47.952003 37.817 48.085007 37.277 C 47.97801 36.59 47.924007 35.894 47.924007 35.206 C 47.924007 34.779003 47.945007 34.353 47.986008 33.937 C 47.812008 33.377 47.419006 32.993 47.41401 32.988 L 46.42801 32.193 C 45.715008 31.749 45.27401 30.958 45.27401 30.116 C 45.27401 29.706 45.37801 29.301 45.57801 28.939 L 45.87601 28.374 L 47.31901 25.691 C 47.61401 25.127 48.130013 24.703 48.762012 24.509 C 49.331013 24.334002 49.940018 24.372002 50.481014 24.615002 L 51.803013 25.034002 C 51.821014 25.032 52.317013 25.110004 52.828014 24.950005 C 53.675014 24.264002 54.609013 23.686005 55.611015 23.225002 C 56.031013 22.792002 56.172016 22.238005 56.174015 22.231005 L 56.376015 20.904003 C 56.434013 19.686005 57.479015 18.645002 58.746017 18.610004 L 62.439014 18.496002 C 62.788013 18.485004 63.126015 18.548002 63.439014 18.677002 L 64.042015 19.120005 L 64.57501 19.614002 C 64.80001 19.956 64.933014 20.348 64.96501 20.760002 L 65.22501 21.949 C 65.22901 21.962002 65.40801 22.512 65.862015 22.910002 C 66.28201 23.074 66.80901 23.294004 67.35201 23.585 C 67.78701 23.814 68.22501 24.09 68.723015 24.445002 C 69.13502 24.549002 69.540016 24.500002 69.737015 24.465002 L 69.889015 24.375002 L 70.02402 24.373 L 71.08702 23.956 C 72.14202 23.363 73.58302 23.732 74.28002 24.838 L 76.23502 27.990002 C 76.47502 28.375002 76.60202 28.820002 76.60202 29.277002 C 76.60202 30.070002 76.22102 30.81 75.58102 31.271002 L 74.67001 32.099003 L 74.626015 32.146004 C 74.626015 32.148003 74.26701 32.548004 74.13101 33.105003 C 74.24401 33.798004 74.30201 34.505005 74.30201 35.207005 C 74.30201 35.62101 74.281006 36.042004 74.24101 36.461006 C 74.416016 37.016006 74.805016 37.397007 74.80901 37.400005 L 75.78902 38.185005 C 76.506 38.639 76.947 39.432 76.947 40.277 z M 54.188 35.234 C 54.188 39.083 57.317 42.213 61.165 42.213 C 65.017 42.213 68.147 39.081 68.147 35.234 C 68.147 31.387 65.014 28.255 61.165005 28.255 C 57.316 28.256 54.188 31.387 54.188 35.234 z " fill-opacity="0.07"/>
<path d="M 76.197 40.277 C 76.197 40.554 76.128 40.833 75.996 41.079 L 74.560005 43.746 L 74.25101 44.330997 C 74.02201 44.748997 73.658005 45.041996 73.22001 45.17 C 72.81401 45.288 72.38601 45.25 72.00801 45.065 L 70.69501 44.650997 C 70.69101 44.650997 69.91201 44.475 69.101006 44.747997 C 68.19701 45.51 67.189 46.137997 66.101006 46.615997 C 65.503006 47.219 65.32201 47.983 65.32001 47.990997 L 65.31401 47.990997 L 65.10501 49.375996 C 65.05601 50.303997 64.35101 50.998997 63.46001 51.029995 L 59.755013 51.146996 C 58.845013 51.173996 58.07601 50.474995 58.005013 49.57299 L 57.706013 48.220993 C 57.705013 48.21699 57.474014 47.45499 56.823013 46.894993 C 56.203014 46.665993 55.69401 46.441994 55.227013 46.187992 C 54.75101 45.937992 54.288013 45.64099 53.740013 45.234993 C 52.927013 45.009995 52.177013 45.220993 52.134014 45.23299 L 50.853016 45.730995 C 50.482018 45.941994 50.049015 46.001995 49.630016 45.904995 C 49.187016 45.800995 48.810017 45.529995 48.571014 45.14299 L 46.979015 42.575993 L 46.622017 42.01099 C 46.451015 41.735992 46.36202 41.424995 46.36202 41.108994 C 46.36202 40.539993 46.63902 40.01699 47.108017 39.698994 L 48.128017 38.772995 C 48.131016 38.770996 48.68702 38.168995 48.84702 37.303993 C 48.732018 36.61299 48.67202 35.907993 48.67202 35.210995 C 48.67202 34.76699 48.69402 34.318996 48.74302 33.879993 C 48.53502 33.024994 47.93402 32.455994 47.92902 32.449993 L 47.89202 32.414993 L 46.85702 31.583994 C 46.33902 31.277994 46.021023 30.725994 46.021023 30.120996 C 46.021023 29.837994 46.09302 29.557997 46.230022 29.307997 L 46.536022 28.729996 L 47.65002 26.651997 L 47.974026 26.057997 C 48.181023 25.662996 48.53702 25.367996 48.97602 25.233995 C 49.38802 25.106997 49.82202 25.139996 50.20502 25.323996 L 51.57302 25.757998 C 51.75702 25.791998 52.47102 25.898998 53.19702 25.623997 C 54.055023 24.913998 55.01002 24.321997 56.03702 23.862995 C 56.70402 23.253998 56.897022 22.422997 56.89902 22.413998 L 57.11402 21.027 C 57.160023 20.106998 57.882023 19.391998 58.76202 19.37 L 62.45902 19.255 C 62.91402 19.24 63.350018 19.405998 63.684017 19.723 C 63.735016 19.772 63.784016 19.823 63.829018 19.877 L 63.84902 19.818 L 63.886017 19.947 C 64.07602 20.203 64.19102 20.506 64.21402 20.826998 L 64.48702 22.114998 L 64.50702 22.184998 C 64.50802 22.188995 64.75502 23.010998 65.47402 23.575998 C 65.93302 23.752998 66.46202 23.971998 66.995026 24.256998 C 67.43002 24.485998 67.87502 24.77 68.38902 25.142998 C 69.09602 25.365995 69.78503 25.238998 70.010025 25.185995 L 70.09802 25.132998 L 70.16702 25.131998 L 71.357025 24.664995 C 72.15803 24.220997 73.150024 24.468998 73.64203 25.248997 L 75.59503 28.395996 C 75.76103 28.662996 75.84903 28.969995 75.84903 29.287996 C 75.84903 29.849997 75.56803 30.381996 75.10903 30.694996 L 74.16303 31.555996 L 74.08704 31.632996 C 74.08404 31.635996 73.51804 32.236996 73.366035 33.102997 C 73.48804 33.799995 73.55003 34.511 73.55003 35.215996 C 73.55003 35.654995 73.52603 36.098995 73.479034 36.534996 C 73.69003 37.380997 74.28304 37.942 74.28903 37.94799 L 75.36003 38.810993 C 75.879 39.115 76.197 39.67 76.197 40.277 z M 53.438 35.234 C 53.438 39.497 56.905 42.963 61.165 42.963 C 65.429 42.963 68.897 39.495003 68.897 35.234 C 68.897 30.973 65.428 27.505 61.165005 27.505 C 56.902 27.506 53.438 30.973 53.438 35.234 z " fill-opacity="0.07"/>
<linearGradient gradientTransform="matrix(1 0 0 1 -545.1992 -744.8008)" gradientUnits="userSpaceOnUse" id="SVGID_2_" x1="593.2002" x2="593.2002" y1="744.8008" y2="889.4663">
<stop offset="0" stop-color="#ffffff"/>
<stop offset="1" stop-color="#000000"/>
</linearGradient>
<path d="M 48.0 7.979 C 18.365 7.979 8.0 18.344 8.0 47.979 C 8.0 77.611 18.365 87.97901 48.0 87.97901 C 77.637 87.97901 88.0 77.61201 88.0 47.979004 C 88.0 18.344 77.637 7.979 48.0 7.979 z M 48.0 87.002 C 18.841 87.002 9.0 77.154 9.0 47.979 C 9.0 18.803 18.841 8.956 48.0 8.956 C 77.158005 8.956 87.0 18.803 87.0 47.978 C 87.0 77.154 77.158 87.002 48.0 87.002 z " fill="url(#SVGID_2_)" fill-opacity="0.25"/>
<rect fill="none" height="96" width="96"/>
<path d="M 40.352 41.404 L 37.442 41.492 L 36.612 41.521 C 35.956 41.542 35.448 42.084 35.469 42.74 L 35.188 44.576 C 35.188 44.568 35.186 44.56 35.186 44.56 C 35.186 44.56 34.879 45.963 33.713 46.951 C 32.445 47.5 31.253002 48.232 30.175 49.137 C 28.781002 49.733 27.402 49.391003 27.402 49.391003 C 27.402 49.391003 27.408 49.391003 27.414 49.391003 L 25.644 48.83 C 25.073 48.521004 24.352 48.74 24.047 49.312 L 23.651 50.042 L 22.273 52.608 L 21.884 53.342003 C 21.575 53.919003 21.792 54.632004 22.367998 54.94 L 23.815998 56.1 L 23.801998 56.1 C 23.801998 56.1 24.833998 57.036003 25.124998 58.507004 C 24.954 59.944004 24.999998 61.385 25.246998 62.785004 C 25.046995 64.258 24.088997 65.247 24.088997 65.247 C 24.088997 65.247 24.099997 65.247 24.103996 65.247 L 22.728996 66.493004 C 22.171995 66.83501 22.003996 67.568 22.345997 68.121 L 22.786997 68.827 L 24.320995 71.302 L 24.760998 72.01 C 25.099998 72.56201 25.833998 72.735 26.385998 72.389 L 28.107998 71.716 C 28.105995 71.719 28.105995 71.72401 28.105995 71.72401 C 28.105995 71.72401 29.392998 71.313 30.793997 71.767006 C 31.374996 72.20701 31.981997 72.617004 32.642998 72.97301 C 33.294 73.32101 33.969 73.60401 34.649 73.84401 C 35.8 74.75401 36.172997 76.05101 36.172997 76.05101 C 36.172997 76.05101 36.175995 76.04401 36.175995 76.03901 L 36.568996 77.85201 C 36.590996 78.50301 37.132996 79.02001 37.788 78.99802 L 38.618 78.96902 L 41.53 78.88002 L 42.36 78.85402 C 43.014 78.833015 43.526 78.28802 43.505 77.63502 L 43.782 75.805016 C 43.788 75.80901 43.791 75.81101 43.791 75.81101 C 43.791 75.81101 44.077 74.51001 45.149 73.53201 C 46.501003 72.95501 47.766003 72.169014 48.901 71.196014 C 50.262 70.66101 51.569 70.99001 51.569 70.99001 C 51.569 70.99001 51.561 70.98101 51.561 70.97901 L 53.327 71.542015 C 53.903 71.85101 54.62 71.638016 54.931 71.06201 L 55.324 70.33001 L 56.697 67.767006 L 57.093 67.034004 C 57.397003 66.45801 57.184 65.73801 56.608 65.43001 L 55.166 64.27601 L 55.169 64.27601 C 55.169 64.27601 54.150997 63.35201 53.86 61.895008 C 54.032 60.452007 53.979 59.007008 53.718 57.604008 C 53.92 56.12301 54.884003 55.126007 54.884003 55.126007 C 54.884003 55.126007 54.878 55.126007 54.876003 55.126007 L 56.243004 53.882008 C 56.803005 53.53801 56.972004 52.80901 56.628 52.25401 L 56.188004 51.54501 L 54.659004 49.07501 L 54.215004 48.368008 C 53.871 47.808006 53.146004 47.640007 52.586 47.98401 L 50.864 48.659008 C 50.869003 48.654007 50.873 48.654007 50.873 48.654007 C 50.873 48.654007 49.508 49.091007 48.063 48.570007 C 47.514 48.17201 46.948 47.78801 46.332 47.460007 C 45.713 47.126007 45.073 46.863007 44.433 46.62401 C 43.195004 45.71101 42.806004 44.32401 42.806004 44.32401 C 42.806004 44.32401 42.804005 44.33201 42.800003 44.334007 L 42.409004 42.52501 C 42.387005 41.87401 41.839005 41.35701 41.19 41.37801 L 40.352 41.404 z M 50.047 60.238 C 50.047 66.033 45.35 70.728 39.555 70.729 C 33.762 70.729 29.065 66.034 29.065 60.237995 C 29.065 54.44099 33.762 49.743996 39.555 49.743996 C 45.35 49.744 50.047 54.441 50.047 60.238 z " fill-opacity="0.3"/>
<linearGradient gradientUnits="userSpaceOnUse" x1="39.5269" x2="39.5269" y1="77.875" y2="18.6286">
<stop offset="0" stop-color="#d0cbc5"/>
<stop offset="0.5031" stop-color="#fafcef"/>
<stop offset="0.9693" stop-color="#ffffff"/>
<stop offset="1" stop-color="#ffffff"/>
</linearGradient>
<path d="M 40.393 40.404 L 37.485 40.492 L 36.653 40.521 C 35.998 40.542 35.487 41.084 35.507 41.74 L 35.229 43.576 C 35.229 43.568 35.223 43.56 35.223 43.56 C 35.223 43.56 34.92 44.963 33.753 45.951 C 32.488 46.5 31.294 47.232 30.217 48.137 C 28.821 48.733 27.442 48.391003 27.442 48.391003 C 27.442 48.391003 27.449 48.391003 27.455 48.391003 L 25.685 47.83 C 25.112 47.521004 24.392 47.74 24.088 48.312 L 23.692 49.042 L 22.313 51.608 L 21.924 52.342003 C 21.615 52.919003 21.83 53.632004 22.408 53.94 L 23.856998 55.1 L 23.842 55.1 C 23.842 55.1 24.875 56.036003 25.165 57.507004 C 24.994 58.944004 25.04 60.385 25.286 61.785004 C 25.083 63.258003 24.129 64.247 24.129 64.247 C 24.129 64.247 24.14 64.247 24.144 64.247 L 22.769 65.493004 C 22.212 65.83401 22.043 66.568 22.386 67.12 L 22.828 67.827 L 24.362 70.302 L 24.8 71.01 C 25.14 71.56201 25.876 71.735 26.427 71.389 L 28.15 70.716 C 28.144 70.719 28.142 70.72401 28.142 70.72401 C 28.142 70.72401 29.433 70.313 30.83 70.767006 C 31.416 71.20701 32.018 71.617004 32.684 71.97301 C 33.332996 72.32101 34.008 72.60401 34.69 72.84401 C 35.838997 73.75401 36.211 75.05101 36.211 75.05101 C 36.211 75.05101 36.212997 75.04401 36.212997 75.03901 L 36.608997 76.85201 C 36.630997 77.50301 37.173996 78.02001 37.826996 77.99802 L 38.659996 77.96902 L 41.569996 77.88002 L 42.403996 77.85402 C 43.055996 77.833015 43.569996 77.28802 43.546997 76.63502 L 43.822 74.805016 C 43.828 74.80901 43.830997 74.81101 43.830997 74.81101 C 43.830997 74.81101 44.113 73.51001 45.189 72.53201 C 46.542 71.95501 47.806 71.169014 48.943 70.196014 C 50.302 69.66101 51.611 69.99001 51.611 69.99001 C 51.611 69.99001 51.601 69.98101 51.601 69.97901 L 53.368 70.542015 C 53.941 70.85101 54.66 70.638016 54.972 70.06201 L 55.363 69.33001 L 56.733997 66.767006 L 57.128 66.034004 C 57.438 65.45801 57.226997 64.73801 56.649 64.43001 L 55.205 63.27601 L 55.206997 63.27601 C 55.206997 63.27601 54.198 62.35201 53.899 60.895008 C 54.067 59.453007 54.022 58.008007 53.76 56.606007 C 53.956997 55.12401 54.92 54.127007 54.92 54.127007 C 54.92 54.127007 54.915997 54.127007 54.914 54.127007 L 56.282997 52.883007 C 56.845997 52.539005 57.012997 51.81101 56.669 51.25501 L 56.225 50.54601 L 54.694 48.076008 L 54.256 47.369007 C 53.913 46.808006 53.184 46.64201 52.625 46.986008 L 50.904 47.660007 C 50.908 47.65601 50.912 47.65601 50.912 47.65601 C 50.912 47.65601 49.546997 48.092007 48.102997 47.572006 C 47.553997 47.173008 46.985996 46.789005 46.372 46.461006 C 45.752 46.127007 45.110996 45.863007 44.473 45.625008 C 43.235 44.71201 42.841 43.32501 42.841 43.32501 C 42.841 43.32501 42.841 43.333008 42.839 43.335007 L 42.443 41.527008 C 42.427 40.875008 41.878 40.35901 41.226 40.37901 L 40.393 40.404 z M 50.09 59.238 C 50.09 65.033 45.391 69.728 39.598 69.729 C 33.803 69.729 29.105 65.034 29.105 59.237995 C 29.105 53.44099 33.803 48.743996 39.598 48.743996 C 45.391 48.744 50.09 53.441 50.09 59.238 z " fill="#ffffff" fill-opacity="1"/>
<path d="M 61.581 21.021 L 59.236 21.092 L 58.562 21.113998 C 58.037 21.127998 57.621 21.571 57.636 22.093998 L 57.412003 23.579998 C 57.412003 23.572 57.405003 23.563995 57.405003 23.563995 C 57.405003 23.563995 57.160004 24.698996 56.221 25.495996 C 55.194 25.940996 54.233 26.532995 53.362 27.266996 C 52.231 27.746996 51.121 27.465996 51.121 27.465996 C 51.121 27.465996 51.127 27.465996 51.128 27.465996 L 49.696 27.012997 C 49.235 26.764996 48.656 26.940996 48.409 27.408997 L 48.088 27.997995 L 46.976 30.070995 L 46.661003 30.661997 C 46.413 31.124996 46.587 31.705996 47.051003 31.953997 L 48.223003 32.892 L 48.212 32.892 C 48.212 32.892 49.044003 33.648 49.279003 34.833 C 49.142 35.994 49.179005 37.16 49.381004 38.293 C 49.21201 39.481 48.443005 40.284 48.443005 40.284 C 48.443005 40.284 48.453003 40.282 48.457005 40.282 L 47.346004 41.288 C 46.895004 41.565 46.76001 42.156 47.033005 42.602 L 47.390003 43.172 L 48.633003 45.168 L 48.982 45.741 C 49.259003 46.187 49.853 46.326 50.304 46.047 L 51.695 45.505 C 51.691 45.505 51.689 45.51 51.689 45.51 C 51.689 45.51 52.728 45.182003 53.863 45.546 C 54.326 45.9 54.823997 46.234 55.357 46.522003 C 55.880997 46.805004 56.424 47.030003 56.976 47.227005 C 57.904 47.960007 58.209 49.01001 58.209 49.01001 C 58.209 49.01001 58.211 49.00301 58.211 48.997005 L 58.524 50.460007 C 58.546 50.991005 58.983 51.404007 59.51 51.389008 L 60.184 51.368008 L 62.53 51.29501 L 63.206997 51.27401 C 63.728996 51.254005 64.148994 50.815006 64.129 50.292007 L 64.353 48.81001 C 64.35899 48.812008 64.363 48.82101 64.363 48.82101 C 64.363 48.82101 64.593 47.769012 65.46 46.97601 C 66.551 46.50901 67.572 45.87401 68.49 45.083008 C 69.595 44.65701 70.646 44.917007 70.646 44.917007 L 70.63799 44.911007 L 72.06799 45.36401 C 72.53199 45.620007 73.11299 45.444008 73.35899 44.977005 L 73.68299 44.383003 L 74.78699 42.309 L 75.10199 41.719 C 75.34999 41.258003 75.17599 40.674004 74.70899 40.426003 L 73.54399 39.491 L 73.55499 39.491 C 73.55499 39.491 72.72499 38.741 72.494 37.566 C 72.627 36.4 72.59 35.232 72.381 34.103 C 72.543 32.902 73.32 32.097 73.32 32.097 C 73.32 32.097 73.31 32.097 73.308 32.097 L 74.418 31.089 C 74.87 30.816 75.0 30.222 74.726 29.78 L 74.370995 29.206 L 73.133 27.206 L 72.77799 26.638 C 72.496994 26.189 71.92099 26.052 71.466995 26.33 L 70.07099 26.872 C 70.07499 26.868 70.078995 26.868 70.078995 26.868 C 70.078995 26.868 68.979 27.222 67.809 26.802 C 67.367 26.478 66.909 26.167 66.409996 25.906 C 65.91499 25.635 65.398994 25.425 64.88 25.225 C 63.875996 24.492 63.555996 23.373 63.555996 23.373 L 63.553997 23.379002 L 63.240997 21.912004 C 63.220997 21.392002 62.78 20.974005 62.254 20.991005 L 61.581 21.021 z M 69.419 36.234 C 69.419 40.92 65.623 44.713 60.941 44.713 C 56.253 44.713 52.461 40.918 52.461 36.234 C 52.461 31.55 56.254 27.755 60.941 27.755 C 65.623 27.756 69.419 31.553 69.419 36.234 z " fill-opacity="0.3"/>
<linearGradient gradientUnits="userSpaceOnUse" x1="61.1104" x2="61.1103" y1="78.375" y2="19.3749">
<stop offset="0" stop-color="#d0cbc5"/>
<stop offset="0.5031" stop-color="#fafcef"/>
<stop offset="0.9693" stop-color="#ffffff"/>
<stop offset="1" stop-color="#ffffff"/>
</linearGradient>
<path d="M 61.811 20.021 L 59.457 20.092 L 58.787003 20.113998 C 58.263004 20.127998 57.85 20.571 57.866 21.093998 L 57.639 22.579998 C 57.639 22.572 57.637 22.563995 57.637 22.563995 C 57.637 22.563995 57.393 23.698996 56.449 24.495996 C 55.428 24.940996 54.462 25.532995 53.591 26.266996 C 52.46 26.746996 51.35 26.465996 51.35 26.465996 C 51.35 26.465996 51.356 26.465996 51.362 26.465996 L 49.925 26.012997 C 49.466 25.764996 48.882 25.940996 48.637 26.408997 L 48.317 26.997995 L 47.205 29.070995 L 46.893 29.661997 C 46.637 30.124996 46.815 30.705996 47.283 30.953997 L 48.45 31.891996 L 48.44 31.891996 C 48.44 31.891996 49.270004 32.647995 49.505 33.832996 C 49.368 34.993996 49.408 36.159996 49.609 37.292995 C 49.439003 38.480995 48.671 39.283997 48.671 39.283997 C 48.671 39.283997 48.677 39.282 48.679 39.282 L 47.57 40.286 C 47.118 40.565 46.982 41.155 47.257 41.601997 L 47.618 42.171997 L 48.856 44.167995 L 49.21 44.740997 C 49.483997 45.186996 50.077 45.325996 50.523 45.046997 L 51.918 44.504997 C 51.912 44.504997 51.91 44.51 51.91 44.51 C 51.91 44.51 52.952 44.182 54.083 44.546 C 54.555 44.9 55.042 45.233997 55.586 45.522 C 56.106 45.805 56.65 46.03 57.199997 46.227 C 58.131996 46.960003 58.428 48.01 58.428 48.01 C 58.428 48.01 58.428 48.003 58.428 47.997 L 58.749996 49.460003 C 58.768 49.991 59.209995 50.404003 59.729996 50.389004 L 60.409996 50.368004 L 62.757996 50.295 L 63.43399 50.274 C 63.957993 50.254 64.37499 49.815 64.357994 49.292004 L 64.58199 47.810005 C 64.58799 47.812004 64.589 47.821007 64.589 47.821007 C 64.589 47.821007 64.819 46.769005 65.681 45.97601 C 66.775 45.509007 67.8 44.874004 68.72 44.083004 C 69.816 43.657005 70.875 43.917004 70.875 43.917004 L 70.866 43.911003 L 72.296 44.364 C 72.760994 44.620003 73.332 44.444004 73.588 43.977 L 73.899994 43.387 L 75.019 41.313 L 75.333 40.721 C 75.58 40.26 75.407 39.678 74.937 39.43 L 73.774994 38.494 L 73.77899 38.494 C 73.77899 38.494 72.95899 37.744 72.71999 36.57 C 72.85899 35.404 72.815994 34.236 72.606995 33.105 C 72.76299 31.905 73.551994 31.101 73.551994 31.101 C 73.551994 31.101 73.54199 31.101 73.53999 31.101 L 74.647 30.093 C 75.092 29.818 75.232994 29.226 74.95899 28.783 L 74.60299 28.209002 L 73.36499 26.209002 L 73.010994 25.64 C 72.728 25.193 72.14199 25.056002 71.685 25.333002 L 70.301994 25.875002 C 70.30599 25.871002 70.312 25.871002 70.312 25.871002 C 70.312 25.871002 69.201 26.225002 68.038994 25.806002 C 67.59999 25.48 67.14099 25.170002 66.64299 24.910002 C 66.13699 24.639002 65.62399 24.428 65.10999 24.23 C 64.09799 23.496002 63.788994 22.377 63.788994 22.377 C 63.788994 22.377 63.786995 22.384 63.783993 22.384 L 63.470993 20.916 C 63.456 20.4 63.009 19.984 62.486 20.0 L 61.811 20.021 z M 69.646 35.234 C 69.646 39.92 65.851006 43.713 61.164 43.713 C 56.482 43.713 52.687 39.918 52.687 35.234 C 52.687 30.55 56.482 26.755 61.164 26.755 C 65.852 26.756 69.646 30.553 69.646 35.234 z " fill="#ffffff" fill-opacity="1"/>
</svg>
