<?xml version="1.0" encoding="UTF-8"?>
<svg xmlns="http://www.w3.org/2000/svg" xmlns:xlink="http://www.w3.org/1999/xlink" baseProfile="tiny" contentScriptType="text/ecmascript" contentStyleType="text/css" height="96" preserveAspectRatio="xMidYMid meet" version="1.1" viewBox="0 0 96 96" width="96" x="0" y="0" zoomAndPan="magnify">
<defs>
<linearGradient id="linearGradient3788">
<stop offset="0" stop-color="#007fcb" stop-opacity="1"/>
<stop offset="1" stop-color="#006bcb" stop-opacity="1"/>
</linearGradient>
<linearGradient gradientTransform="matrix(0,1,-1,0,96,0)" gradientUnits="userSpaceOnUse" id="linearGradient3794" x1="8" x2="88" y1="48" y2="48">
<stop offset="0" stop-color="#007fcb" stop-opacity="1"/>
<stop offset="1" stop-color="#006bcb" stop-opacity="1"/>
</linearGradient>
</defs>
<rect fill="none" height="96" width="96"/>
<path d="M 88.0 49.0 C 88.0 78.635 77.639 89.0 48.0 89.0 C 18.367 89.0 8.0 78.635 8.0 49.0 C 8.0 19.367 18.367 9.0 48.0 9.0 C 77.637 9.0 88.0 19.367 88.0 49.0 z " fill-opacity="0.4" stroke-opacity="0.4"/>
<linearGradient gradientTransform="matrix(1 0 0 1 193.9283 -815.8533)" gradientUnits="userSpaceOnUse" x1="-145.9253" x2="-145.9253" y1="823.5039" y2="903.5039">
<stop offset="0" stop-color="#0077cd"/>
<stop offset="1" stop-color="#003f9a"/>
</linearGradient>
<path d="M 48.0 88.0 C 18.365 88.0 8.0 77.639 8.0 48.0 C 8.0 18.367 18.365 8.0 48.0 8.0 C 77.633 8.0 88.0 18.367 88.0 48.0 C 88.0 77.637 77.633 88.0 48.0 88.0 z " fill="url(#linearGradient3794)" fill-opacity="1"/>
<linearGradient gradientTransform="matrix(1 0 0 1 193.9283 -815.8533)" gradientUnits="userSpaceOnUse" id="SVGID_2_" x1="-145.9253" x2="-145.9253" y1="824.0938" y2="903.3385">
<stop offset="0" stop-color="#ffffff"/>
<stop offset="1" stop-color="#ffffff" stopOpacity="0"/>
</linearGradient>
<path d="M 48.0 8.0 C 18.367 8.0 8.0 18.367 8.0 48.0 C 8.0 77.635 18.367 88.0 48.0 88.0 C 77.639 88.0 88.0 77.635 88.0 48.0 C 88.0 18.367 77.637 8.0 48.0 8.0 z M 48.0 87.0 C 18.842 87.0 9.0 77.158 9.0 48.0 C 9.0 18.842 18.842 9.0 48.0 9.0 C 77.16 9.0 87.0 18.842 87.0 48.0 C 87.0 77.158 77.16 87.0 48.0 87.0 z " fill="url(#SVGID_2_)" fill-opacity="0.15" stroke-opacity="0.15"/>
<path d="M 69.656 77.0 C 68.587 77.0 67.582 76.584 66.827 75.828 L 54.805 63.807 C 54.239 63.241 53.926 62.487 53.926 61.686 L 53.926 61.513 L 51.823 59.41 L 51.052 64.383 C 50.435 68.363 47.817 68.672 47.029 68.672 C 45.883 68.672 44.253 68.153 42.987 65.681 L 37.764 55.467 L 26.483 57.226 C 26.05 57.293 25.635 57.327 25.25 57.327 C 22.466 57.327 21.5031 55.526 21.274 54.973 C 20.8871 54.039 20.5691 52.142 22.779 49.933 L 30.821 41.9 L 25.596 31.7 C 24.6431 29.837 24.571 28.222 25.381 26.898 C 26.056 25.7941 27.225 25.161 28.589 25.161 C 29.439 25.161 30.374 25.419 31.367 25.927 L 41.566 31.152 L 49.6 23.11 C 50.781 21.927 52.006 21.327 53.245 21.327 C 54.325 21.327 55.305 21.777 56.004 22.593 C 56.872 23.608 57.173 25.027 56.895 26.812 L 55.137 38.093 L 65.35 43.313 C 68.427 44.886 68.437 47.062 68.298 47.924 C 68.161 48.786 67.471 50.849 64.055 51.379 L 58.758 52.2 L 60.999 54.4419 L 61.172 54.4419 C 61.9719 54.4419 62.7249 54.7539 63.2909 55.3209 L 75.3129 67.3419 C 76.0689 68.0969 76.4849 69.1009 76.4849 70.1699 C 76.4849 71.2389 76.068 72.244 75.313 73.0 L 72.485 75.828 C 71.729 76.584 70.725 77.0 69.656 77.0 L 69.656 77.0 z " fill-opacity="0.05" stroke-opacity="0.05"/>
<path d="M 69.656 75.0 C 69.121 75.0 68.619 74.792 68.242 74.414 L 56.219 62.393 C 56.031 62.205 55.926 61.952 55.926 61.686 L 55.926 60.685 L 50.451 55.209 L 49.076 64.076 C 48.726 66.335 47.644 66.672 47.03 66.672 C 46.176 66.672 45.414 66.032 44.768 64.77 L 38.887 53.268 L 26.177 55.249 C 25.845 55.301 25.534 55.326 25.252 55.326 C 23.804 55.326 23.2971 54.625 23.125 54.207 C 22.886 53.63 22.8771 52.664 24.196 51.347 L 33.268 42.285 L 27.379 30.788 C 26.765 29.589 26.668 28.631 27.0901 27.942 C 27.2681 27.65 27.701 27.161 28.5921 27.161 C 29.123 27.161 29.7511 27.345 30.459 27.707 L 41.955 33.596 L 51.016 24.523 C 51.809 23.73 52.559 23.327 53.246 23.327 C 53.732 23.327 54.172 23.528 54.485 23.894 C 54.957 24.445 55.103 25.323 54.919 26.504 L 52.939 39.215 L 64.441 45.094 C 66.188 45.987 66.43 46.953 66.325 47.606 C 66.221 48.259 65.688 49.101 63.75 49.402 L 54.559 50.829 L 60.172 56.441 L 61.173 56.442 C 61.438 56.442 61.692 56.547 61.879 56.735 L 73.901 68.756 C 74.278 69.1339 74.487 69.6359 74.487 70.1699 C 74.487 70.7039 74.278 71.2059 73.901 71.5849 L 71.073 74.4129 C 70.691 74.792 70.189 75.0 69.656 75.0 L 69.656 75.0 z " fill-opacity="0.1" stroke-opacity="0.1"/>
<path d="M 51.722 25.23 L 42.146 34.818 L 30.002 28.597 C 28.046 27.596 27.267 28.376 28.268 30.332 L 34.489 42.477 L 24.902 52.055 C 23.349 53.606 23.854 54.599 26.023 54.261 L 39.448 52.168 L 45.658 64.314 C 46.658 66.268 47.752 66.092 48.088 63.923 L 49.764 53.108 L 56.926 60.27 L 56.926 61.685 L 68.947 73.706 L 68.948 73.706 L 68.9489 73.706 C 69.3399 74.097 69.9719 74.097 70.3629 73.706 L 73.1909 70.878 C 73.5819 70.487 73.5819 69.854 73.1909 69.463 L 72.4839 68.756 C 72.4819 68.755 72.4819 68.755 72.4819 68.755 L 61.169 57.443 L 59.754 57.441 L 52.455 50.143 L 63.594 48.414 C 65.764 48.078 65.94 46.984 63.984 45.985 L 51.838 39.776 L 53.93 26.349 C 54.268 24.18 53.273 23.676 51.722 25.23 z " fill-opacity="0.1" stroke-opacity="0.1"/>
<linearGradient gradientTransform="matrix(0.7071 -0.7072 0.7072 0.7072 -669.4779 -1623.7386)" gradientUnits="userSpaceOnUse" x1="-675.0557" x2="-675.0557" y1="1652.1016" y2="1740.1243">
<stop offset="0" stop-color="#fafcef"/>
<stop offset="0.3232" stop-color="#fafcef"/>
<stop offset="1" stop-color="#d0cbc5"/>
</linearGradient>
<path d="M 50.238 23.902 L 40.661 33.49 L 28.518 27.27 C 26.562 26.269 25.783 27.049 26.784 29.005 L 33.005 41.15 L 23.418 50.727 C 21.865 52.2789 22.37 53.272 24.539 52.9339 L 37.964 50.84 L 44.174 62.9859 C 45.174 64.9409 46.268 64.7649 46.604 62.595 L 48.2809 51.781 L 55.4429 58.9429 L 55.4429 60.3569 L 67.4639 72.3779 L 67.4649 72.3779 L 67.4649 72.3779 C 67.8559 72.7689 68.4879 72.7689 68.8789 72.3779 L 71.7069 69.5499 C 72.0979 69.159 72.0979 68.5269 71.7069 68.136 L 71.0 67.43 C 70.999 67.429 70.998 67.429 70.998 67.428 L 59.686 56.115 L 58.271 56.114 L 50.972 48.816 L 62.11 47.087 C 64.28 46.751 64.456 45.657 62.501 44.658 L 50.355 38.449 L 52.447 25.022 C 52.783 22.853 51.79 22.349 50.238 23.902 z " fill="#ffffff" fill-opacity="1"/>
</svg>
