<?xml version="1.0" encoding="UTF-8"?>
<svg xmlns="http://www.w3.org/2000/svg" xmlns:xlink="http://www.w3.org/1999/xlink" baseProfile="tiny" contentScriptType="text/ecmascript" contentStyleType="text/css" height="96px" preserveAspectRatio="xMidYMid meet" version="1.1" viewBox="0 0 96 96" width="96px" x="0px" y="0px" zoomAndPan="magnify">
<defs>
<linearGradient id="linearGradient3963">
<stop offset="0" stop-color="#60c787" stop-opacity="1"/>
<stop offset="1" stop-color="#13c26f" stop-opacity="1"/>
</linearGradient>
<linearGradient>
<stop offset="0" stop-color="#6d93d1" stop-opacity="1"/>
<stop offset="1" stop-color="#3c6197" stop-opacity="1"/>
</linearGradient>
<linearGradient gradientTransform="matrix(0,1,-1,0,96.143818,1.8e-7)" gradientUnits="userSpaceOnUse" x1="8" x2="88" y1="48" y2="48">
<stop offset="0" stop-color="#6d93d1" stop-opacity="1"/>
<stop offset="1" stop-color="#477ac5" stop-opacity="1"/>
</linearGradient>
<linearGradient gradientTransform="matrix(0,1,-1,0,96.143816,-0.1438165)" gradientUnits="userSpaceOnUse" id="linearGradient3969" x1="8.143819" x2="88.143814" y1="48" y2="48">
<stop offset="0" stop-color="#60c787" stop-opacity="1"/>
<stop offset="1" stop-color="#13c26f" stop-opacity="1"/>
</linearGradient>
</defs>
<path d="M 88.0 49.0 C 88.0 78.633 77.637 89.0 48.0 89.0 C 18.365 89.0 8.0 78.633 8.0 49.0 C 8.0 19.365 18.365 9.0 48.0 9.0 C 77.636 9.0 88.0 19.365 88.0 49.0 z " fill-opacity="0.4" stroke-opacity="0.4"/>
<rect fill="none" height="96" width="96"/>
<linearGradient gradientUnits="userSpaceOnUse" x1="47.9995" x2="47.9995" y1="8.5449" y2="89.2398">
<stop offset="0" stop-color="#00bacc"/>
<stop offset="0.2312" stop-color="#01a1bb"/>
<stop offset="0.747" stop-color="#026d98"/>
<stop offset="1" stop-color="#02598b"/>
</linearGradient>
<path d="M 8.143817 48.0 C 8.143817 18.367004 18.506817 8.0 48.143818 8.0 C 77.77882 8.0 88.143814 18.366999 88.143814 48.0 C 88.143814 77.635 77.77882 88.0 48.143814 88.0 C 18.507814 88.0 8.143814 77.635 8.143814 48.000004 z " fill="url(#linearGradient3969)" fill-opacity="1"/>
<linearGradient gradientUnits="userSpaceOnUse" id="SVGID_2_" x1="47.9995" x2="47.9995" y1="8.2534" y2="87.4985">
<stop offset="0" stop-color="#ffffff"/>
<stop offset="1" stop-color="#ffffff" stop-opacity="0"/>
</linearGradient>
<path d="M 48.0 8.0 C 18.365 8.0 8.0 18.365 8.0 48.0 C 8.0 77.633 18.365 88.0 48.0 88.0 C 77.636 88.0 88.0 77.633 88.0 48.0 C 88.0 18.365 77.636 8.0 48.0 8.0 z M 48.0 87.0 C 18.842 87.0 9.0 77.159 9.0 48.0 C 9.0 18.842 18.842 9.0 48.0 9.0 C 77.158005 9.0 87.0 18.842 87.0 48.0 C 87.0 77.159 77.158 87.0 48.0 87.0 z " fill="url(#SVGID_2_)" fill-opacity="0.25" stroke-opacity="0.25"/>
<path d="M 36.146 47.29 L 36.146 46.456 C 36.139 46.613 36.131 46.905 36.146 47.29 z " fill="#f16522"/>
<linearGradient gradientUnits="userSpaceOnUse" x1="47.9995" x2="47.9995" y1="27.8447" y2="77.9766">
<stop offset="0" stop-color="#fafcef"/>
<stop offset="0.3232" stop-color="#fafcef"/>
<stop offset="1" stop-color="#d0cbc5"/>
</linearGradient>
<path d="M 57.587 52.66 L 57.587 52.353 C 57.583 52.44 57.583 52.543 57.587 52.66 z " fill="#ffffff"/>
<g transform="matrix(1.5788816,0,0,1.5788816,13.983696,16.642774)">
<g>
<rect fill="none" height="15" width="20" x="20" y="6"/>
</g>
<rect fill="none" height="16" width="17" x="4" y="21"/>
<linearGradient gradientTransform="matrix(1,0,0,-1,-216,-152)" gradientUnits="userSpaceOnUse" x1="228.5" x2="228.5" y1="-185.2104" y2="-176.7886">
<stop offset="0" stop-color="#d0cbc5"/>
<stop offset="0.5031" stop-color="#fafcef"/>
<stop offset="0.9693" stop-color="#ffffff"/>
<stop offset="1" stop-color="#ffffff"/>
</linearGradient>
<linearGradient gradientTransform="matrix(1,0,0,-1,-216,-152)" gradientUnits="userSpaceOnUse" x1="227.8945" x2="227.8945" y1="-172.022" y2="-159.8101">
<stop offset="0" stop-color="#d0cbc5"/>
<stop offset="0.5031" stop-color="#fafcef"/>
<stop offset="0.9693" stop-color="#ffffff"/>
<stop offset="1" stop-color="#ffffff"/>
</linearGradient>
<rect fill="none" height="17" width="20" x="19" y="20"/>
<linearGradient gradientTransform="matrix(1,0,0,-1,-216,-152)" gradientUnits="userSpaceOnUse" x1="245.002" x2="245.002" y1="-186.5737" y2="-174.42529">
<stop offset="0" stop-color="#d0cbc5"/>
<stop offset="0.5031" stop-color="#fafcef"/>
<stop offset="0.9693" stop-color="#ffffff"/>
<stop offset="1" stop-color="#ffffff"/>
</linearGradient>
<path d="M 32.64391 6.8932753 L 30.326694 8.117819 L 32.64391 9.342363 L 32.64391 8.53228 C 33.92391 8.53228 34.97996 9.438908 34.97996 10.566907 L 35.90308 10.566907 C 35.90308 8.986907 34.436905 7.7033577 32.64391 7.7033577 L 32.64391 6.893275 z M 24.05326 7.1570225 C 23.725262 7.1570225 23.469248 7.3945193 23.469248 7.6845183 L 23.469248 8.475762 L 29.893394 8.475762 C 29.796394 8.379763 29.723843 8.249819 29.723843 8.117819 C 29.723843 7.932818 29.84527 7.7616796 30.025269 7.6656795 L 30.891869 7.21354 C 30.81387 7.17854 30.722124 7.157023 30.62812 7.157023 L 24.05326 7.157023 z M 12.46719 7.4396095 C 11.507189 7.4206095 10.837346 7.5843234 10.809346 7.5903225 C 9.032345 8.024324 8.710559 9.756263 8.793558 10.642263 L 8.793558 11.584221 L 8.397936 11.584221 C 7.9489355 11.584221 7.6443706 11.932465 7.6443706 12.375464 L 7.6443706 18.83729 C 7.6443706 19.28129 7.949936 19.647373 8.397936 19.647373 L 16.461086 19.647373 C 16.909084 19.647373 17.290009 19.282291 17.290009 18.83729 L 17.290009 12.375465 C 17.290009 11.9324665 16.909084 11.584222 16.461086 11.584222 L 16.140821 11.584222 L 16.140821 10.642265 C 16.223822 9.756266 15.901031 8.023325 14.125033 7.5903254 C 14.095034 7.5833254 13.427189 7.4216123 12.46719 7.4396124 z M 12.297638 8.645317 C 12.356638 8.643317 12.410191 8.6463175 12.46719 8.645317 C 12.525189 8.6463175 12.575743 8.642317 12.636742 8.645317 C 13.343741 8.6463175 13.835447 8.756351 13.842446 8.758352 C 15.031446 9.047353 14.931276 10.399071 14.916277 10.548071 L 14.916277 11.584223 L 10.018101 11.584223 L 10.018101 10.604588 L 10.018101 10.548067 C 10.003091 10.396067 9.90293 9.048348 11.091931 8.758348 C 11.096931 8.757348 11.590634 8.649314 12.297636 8.645313 z M 23.469246 9.003257 L 23.469246 14.786873 L 23.864868 14.786873 C 24.193863 14.786873 24.46772 15.024369 24.46772 15.314369 C 24.46772 15.404369 24.47152 15.493118 24.48656 15.578117 L 27.086363 15.578117 L 27.086363 11.094402 C 27.086363 10.5124035 27.614225 10.039411 28.273228 10.039411 L 31.230972 10.039411 L 31.230972 9.210488 L 30.83535 9.003258 L 23.469246 9.003258 z M 28.273226 10.566906 C 27.945227 10.566906 27.670374 10.804402 27.670374 11.094402 L 27.670374 11.885646 L 35.4321 11.885646 L 35.4321 11.094402 L 34.979958 11.094402 C 34.649956 11.094402 34.377106 10.856906 34.377106 10.566906 L 28.273224 10.566906 z M 27.670372 12.413141 L 27.670372 16.708466 L 29.139826 17.480871 C 29.318825 17.57587 29.441252 17.74801 29.441252 17.93301 C 29.441252 18.11801 29.318825 18.289148 29.139826 18.385149 L 28.065994 18.969164 C 28.128994 18.990164 28.204222 18.988005 28.273224 18.988005 L 34.848083 18.988005 C 35.176083 18.988005 35.4321 18.750507 35.4321 18.460508 L 35.4321 12.413144 L 27.670374 12.413144 z M 12.467189 13.731884 C 13.066189 13.731884 13.559858 14.211715 13.559858 14.805715 C 13.559858 15.2017145 13.336523 15.541833 13.013523 15.728832 L 13.013523 17.556229 L 11.920853 17.556229 L 11.920853 15.728832 C 11.596852 15.541832 11.374517 15.203715 11.374517 14.805715 C 11.374517 14.211715 11.866187 13.731884 12.467188 13.731884 z M 22.866394 15.314372 C 22.866394 17.007372 24.430634 18.38515 26.351635 18.38515 L 26.351635 19.25175 L 28.838402 17.93301 L 26.351635 16.63311 L 26.351635 17.49971 C 24.978634 17.49971 23.864868 16.52437 23.864868 15.31437 L 22.866394 15.31437 z M 26.069046 22.05878 L 23.488085 26.259909 L 28.63117 26.259909 L 27.78341 24.846973 C 28.314407 24.553974 28.923124 24.394835 29.573128 24.394835 C 31.636126 24.394835 33.322117 26.062986 33.322117 28.124983 L 35.18719 28.124983 C 35.18719 25.026983 32.672127 22.51092 29.573128 22.51092 C 28.565128 22.51092 27.61877 22.780645 26.803776 23.245646 L 26.069048 22.05878 z M 7.7385664 24.413673 C 7.459566 24.413673 7.22991 24.668848 7.22991 24.978848 L 7.22991 32.269596 C 7.22991 32.579597 7.4595666 32.83477 7.7385664 32.83477 L 17.120457 32.83477 C 17.399456 32.83477 17.629114 32.579597 17.629114 32.269596 L 17.629114 30.310326 L 18.40152 30.310326 C 18.68052 30.310326 18.910175 30.055151 18.910175 29.745152 L 18.910175 27.503294 C 18.911175 27.194294 18.68052 26.93812 18.40152 26.93812 L 17.629114 26.93812 L 17.629114 24.97885 C 17.629114 24.66885 17.399458 24.413675 17.120457 24.413675 L 7.7385654 24.413675 z M 8.247222 25.544024 L 16.630638 25.544024 L 16.630638 31.704422 L 8.247221 31.704422 L 8.247221 25.544024 z M 8.7558775 26.090359 L 8.7558775 31.158087 L 16.12198 31.158087 L 16.12198 26.090359 L 8.7558775 26.090359 z M 23.959064 28.124985 C 23.959064 31.221985 26.474129 33.739048 29.573128 33.739048 C 30.58413 33.739048 31.524483 33.453484 32.34248 32.98548 L 33.077206 34.191185 L 35.65817 29.990057 L 30.496244 29.990057 L 31.362844 31.402992 C 30.830845 31.694994 30.223127 31.855133 29.573126 31.855133 C 27.510128 31.855133 25.824137 30.185984 25.824137 28.124983 L 23.959063 28.124983 z " fill="#ffffff" fill-opacity="1"/>
</g>
</svg>
