<?xml version="1.0" encoding="UTF-8"?>
<svg xmlns="http://www.w3.org/2000/svg" xmlns:xlink="http://www.w3.org/1999/xlink" baseProfile="tiny" contentScriptType="text/ecmascript" contentStyleType="text/css" height="96px" preserveAspectRatio="xMidYMid meet" version="1.1" viewBox="0 0 96 96" width="96px" x="0px" y="0px" zoomAndPan="magnify">
<defs>
<linearGradient id="linearGradient3810">
<stop offset="0" stop-color="#ffffff" stop-opacity="1"/>
<stop offset="1" stop-color="#ffffff" stop-opacity="0.78431374"/>
</linearGradient>
<linearGradient>
<stop offset="0" stop-color="#793ac5" stop-opacity="1"/>
<stop offset="1" stop-color="#623ac5" stop-opacity="1"/>
</linearGradient>
<linearGradient gradientTransform="matrix(0,1,-1,0,96,0)" gradientUnits="userSpaceOnUse" id="linearGradient3806" x1="8" x2="88" y1="48" y2="48">
<stop offset="0" stop-color="#793ac5" stop-opacity="1"/>
<stop offset="1" stop-color="#623ac5" stop-opacity="1"/>
</linearGradient>
<linearGradient gradientUnits="userSpaceOnUse" id="linearGradient3816" x1="48.536369" x2="48.536369" y1="29.67141" y2="70.657822">
<stop offset="0" stop-color="#ffffff" stop-opacity="1"/>
<stop offset="1" stop-color="#ffffff" stop-opacity="0.78431374"/>
</linearGradient>
<linearGradient gradientTransform="matrix(0,1,-1,0,96,0)" gradientUnits="userSpaceOnUse" id="linearGradient3820" x1="48.536369" x2="48.536369" y1="29.67141" y2="70.657822">
<stop offset="0" stop-color="#793ac5" stop-opacity="1"/>
<stop offset="1" stop-color="#623ac5" stop-opacity="1"/>
</linearGradient>
</defs>
<path d="M 88.0 49.0 C 88.0 78.633 77.637 89.0 48.0 89.0 C 18.365 89.0 8.0 78.633 8.0 49.0 C 8.0 19.365 18.365 9.0 48.0 9.0 C 77.637 9.0 88.0 19.365 88.0 49.0 z " fill-opacity="0.4"/>
<linearGradient gradientTransform="matrix(1 0 0 -1 0.0449 95.7598)" gradientUnits="userSpaceOnUse" x1="47.9556" x2="47.9556" y1="87.7598" y2="7.7603">
<stop offset="0" stop-color="#a14ddb"/>
<stop offset="0.0364" stop-color="#a14ddb"/>
<stop offset="0.2205" stop-color="#9949d3"/>
<stop offset="0.505" stop-color="#833cbe"/>
<stop offset="0.8523" stop-color="#60299d"/>
<stop offset="1" stop-color="#4f1f8c"/>
</linearGradient>
<path d="M 48.0 88.0 C 18.367 88.0 8.0 77.637 8.0 48.0 C 8.0 18.365 18.367 8.0 48.0 8.0 C 77.635 8.0 88.0 18.365 88.0 48.0 C 88.0 77.637 77.635 88.0 48.0 88.0 z " fill="url(#linearGradient3806)" fill-opacity="1"/>
<linearGradient gradientTransform="matrix(1 0 0 -1 0.0449 95.7598)" gradientUnits="userSpaceOnUse" id="SVGID_2_" x1="47.9556" x2="47.9556" y1="87.5068" y2="8.2622">
<stop offset="0" stop-color="#ffffff"/>
<stop offset="1" stop-color="#ffffff" stop-opacity="0"/>
</linearGradient>
<path d="M 48.0 8.0 C 18.365 8.0 8.0 18.365 8.0 48.0 C 8.0 77.633 18.365 88.0 48.0 88.0 C 77.637 88.0 88.0 77.633 88.0 48.0 C 88.0 18.365 77.637 8.0 48.0 8.0 z M 48.0 87.0 C 18.842 87.0 9.0 77.158 9.0 48.0 C 9.0 18.842005 18.842 9.0 48.0 9.0 C 77.158005 9.0 87.0 18.842 87.0 48.0 C 87.0 77.158005 77.158 87.0 48.0 87.0 z " fill="url(#SVGID_2_)" fill-opacity="0.25"/>
<rect fill="none" height="96" width="96"/>
<path d="M 60.906 78.912 C 60.581997 78.912 60.265 78.879005 59.904 78.810005 C 59.75 78.79301 59.224 78.732 58.623 78.49801 C 58.281 78.379005 57.975 78.19601 57.807 78.09501 C 57.66 78.02701 57.42 77.90201 57.162 77.726006 C 57.021 77.634 56.849 77.496 56.767 77.424 C 56.64 77.316 56.531 77.22 56.413 77.103004 C 55.476 76.189 54.87 75.019005 54.654 73.740005 C 53.812 73.66401 53.013 73.37501 52.325 72.90001 C 51.837 73.12701 51.312 73.25201 50.779 73.26101 L 49.503 73.28501 C 49.441 73.29701 49.285 73.306015 49.125 73.306015 C 48.719 73.306015 48.34 73.304016 47.941 73.29601 C 47.707 73.304016 47.318 73.306015 46.906 73.306015 C 46.744003 73.306015 46.586 73.29601 46.431004 73.279015 C 34.08701 73.09101 27.327003 71.501015 26.101004 71.183014 C 20.831003 69.81602 20.128004 64.542015 20.101004 64.318016 C 17.308004 49.919018 19.816004 39.07802 20.171003 37.666016 C 20.273005 37.047016 21.189005 32.482018 26.099005 31.213017 C 27.320004 30.897017 34.035004 29.311016 46.497 29.109016 C 46.632 29.095016 46.768 29.088017 46.905003 29.088017 C 47.309 29.088017 47.692 29.092016 48.087 29.098017 C 48.327003 29.092016 48.714 29.088017 49.124 29.088017 C 49.277 29.088017 49.43 29.098017 49.578 29.113016 C 61.969 29.306017 68.711 30.896015 69.935 31.213017 C 74.728 32.455017 75.73 36.856014 75.896 37.846016 C 76.103 38.678017 78.24 47.807014 76.558 60.408016 C 76.496 60.853016 76.361 61.287018 76.158 61.689014 C 76.49799 62.367016 76.676 63.115013 76.672 63.886013 C 76.67 65.20501 76.147 66.443016 75.197 67.36501 L 74.576 67.97701 C 73.870995 68.66201 73.004 69.11501 72.07 69.29701 C 71.871 70.24201 71.394 71.10601 70.683 71.78901 L 70.1 72.375 C 69.223 73.209 68.143 73.699 67.005 73.789 C 66.785995 75.045 66.186 76.199005 65.258995 77.111 C 64.63699 77.709 63.945995 78.156 63.196995 78.455 C 63.006996 78.553 62.680996 78.648 62.272995 78.717 C 61.963997 78.799 61.506996 78.901 60.949997 78.91 C 60.942997 78.91 60.936996 78.91 60.933 78.91 L 60.906 78.91 L 60.906 78.912 z M 44.663 53.785 L 48.751 51.305 L 44.677 48.719 L 44.663 53.785 z " fill-opacity="0.02"/>
<path d="M 60.902 76.912 C 60.64 76.912 60.386 76.887 60.089 76.83 C 59.874 76.805 59.452 76.752 58.981 76.568 C 58.673 76.461 58.407 76.293 58.275997 76.214005 C 58.150997 76.156006 57.935997 76.04801 57.712 75.893005 C 57.683 75.87601 57.546 75.78001 57.419 75.66901 C 57.31 75.57201 57.218 75.49301 57.118 75.397 C 56.132 74.43201 55.579 73.130005 55.569 71.737 C 55.417 71.755 55.262 71.762 55.106 71.762 C 54.093 71.762 53.143 71.382 52.415 70.692 C 51.925 71.04801 51.349 71.253 50.759003 71.264 L 49.484 71.288 C 49.365 71.303 49.248 71.309006 49.127003 71.309006 C 48.729004 71.309006 48.354004 71.30701 47.963 71.299 C 47.688 71.30701 47.311 71.309006 46.908 71.309006 C 46.785 71.309006 46.666 71.301 46.547 71.288 C 34.205 71.096 27.561 69.527 26.352 69.219 C 21.733002 68.020004 21.12 63.395 21.096 63.198 C 18.301 48.768 20.854 38.043 21.155 36.868004 C 21.208 36.492004 21.966002 32.317005 26.352 31.182005 C 27.555 30.869003 34.184 29.305002 46.563004 29.109003 C 46.676003 29.096004 46.792004 29.088003 46.909004 29.088003 C 47.307003 29.088003 47.682003 29.092005 48.07301 29.098003 C 48.348007 29.092005 48.725006 29.088003 49.12801 29.088003 C 49.243008 29.088003 49.35701 29.096004 49.471004 29.108004 C 61.84401 29.305004 68.483 30.870005 69.69 31.182005 C 73.957 32.287003 74.795006 36.262 74.920006 37.048004 C 74.99801 37.336 77.285 46.423004 75.57001 59.275 C 75.50201 59.788 75.299 60.269 74.99401 60.677 C 75.44101 61.325 75.67801 62.085003 75.67601 62.882004 C 75.67401 63.933 75.25801 64.915 74.50401 65.65 L 73.87901 66.267 C 73.139015 66.986 72.18401 67.38 71.17802 67.394 C 71.15102 68.415 70.73102 69.363 69.99402 70.074 L 69.39402 70.673 C 68.61902 71.410995 67.64402 71.809 66.62702 71.809 C 66.44902 71.809 66.273026 71.794 66.10102 71.772 C 66.08602 73.116 65.55402 74.424995 64.56002 75.405 C 64.03902 75.905 63.45902 76.282 62.83102 76.532 C 62.585026 76.655 62.25102 76.716 62.064026 76.744995 C 61.77502 76.823 61.394024 76.909 60.937023 76.91499 C 60.93 76.912 60.902 76.912 60.902 76.912 z M 43.655 54.563 L 50.644997 50.326 L 43.678997 45.904 L 43.655 54.563 z " fill-opacity="0.05"/>
<path d="M 60.885 74.912 C 60.676 74.912 60.475 74.885 60.275997 74.846 C 60.011997 74.813 59.69 74.772 59.337997 74.635 C 59.108 74.553 58.906 74.43 58.798996 74.362 C 58.630997 74.28 58.458996 74.196 58.28099 74.071 C 58.231995 74.043 58.149994 73.983 58.073994 73.916 C 57.973995 73.834 57.899994 73.769 57.819992 73.68701 C 57.01499 72.9 56.56599 71.839005 56.56399 70.706 C 56.56399 70.182 56.657993 69.669 56.839993 69.191 C 56.337994 69.56201 55.735992 69.763 55.102993 69.763 C 54.32799 69.763 53.60099 69.464 53.053993 68.92301 L 52.710995 68.593 C 52.657993 68.542 52.606995 68.488 52.561996 68.431 C 52.561996 68.431 52.4 68.277 52.392 68.269 C 52.336 68.361 52.276997 68.447 52.206997 68.524994 C 51.815 68.98399 51.277996 69.25399 50.730995 69.26299 L 49.400993 69.28999 C 49.30899 69.30399 49.213993 69.311 49.117992 69.311 C 48.72499 69.311 48.35799 69.307 47.972992 69.3 C 47.663994 69.307 47.29299 69.311 46.89899 69.311 C 46.80099 69.311 46.70599 69.30299 46.61199 69.28999 C 34.345993 69.10199 27.785992 67.55799 26.593992 67.24899 C 22.624992 66.21999 22.099993 62.248993 22.077991 62.078995 C 19.31599 47.805996 21.817991 37.268997 22.112991 36.115997 C 22.202991 35.526997 22.930992 32.097996 26.59299 31.150995 C 27.778992 30.842997 34.31799 29.298998 46.623993 29.108995 C 46.713993 29.095997 46.805992 29.088997 46.89699 29.088997 C 47.289993 29.088997 47.66099 29.092997 48.04299 29.098995 C 48.353992 29.092997 48.72399 29.088997 49.11499 29.088997 C 49.208992 29.088997 49.30099 29.095997 49.38699 29.108995 C 61.68199 29.298998 68.234985 30.842997 69.42499 31.150995 C 73.08699 32.099 73.81299 35.528996 73.91899 36.206997 C 74.14299 37.073997 76.21199 45.804996 74.564995 58.144997 C 74.482994 58.761997 74.117 59.303 73.586 59.609997 L 73.791 59.804996 C 74.356 60.364 74.666 61.097996 74.664 61.879997 C 74.662 62.658997 74.352005 63.388996 73.793 63.934 L 73.162 64.557 C 72.600006 65.1 71.877 65.395 71.11 65.395 C 70.699 65.395 70.297 65.309 69.93 65.148994 C 70.084 65.505 70.166 65.898994 70.164 66.295 C 70.162 67.077995 69.85 67.81 69.285 68.353 L 68.674 68.963 C 68.096 69.513 67.371 69.806 66.61301 69.806 C 65.94101 69.806 65.30401 69.582 64.79101 69.17 C 65.39601 70.701 65.06401 72.485 63.84401 73.690994 C 63.42201 74.09499 62.95501 74.398 62.44801 74.601 C 62.243008 74.701 61.97001 74.744 61.84401 74.763 C 61.62601 74.824 61.305008 74.908 60.909008 74.912 C 60.902008 74.912 60.898006 74.912 60.89201 74.912 L 60.885 74.912 L 60.885 74.912 z M 42.647 55.344 L 52.537 49.344 L 42.681 43.087 L 42.647 55.344 z " fill-opacity="0.05"/>
<path d="M 60.883 72.912 C 60.738 72.912 60.6 72.891 60.461 72.865005 C 60.19 72.828 59.948997 72.801 59.695 72.70101 C 59.545 72.648 59.414 72.568 59.32 72.512 C 59.31 72.506004 59.24 72.463 59.23 72.459 C 59.107 72.4 58.98 72.342 58.849 72.25 C 58.806 72.225 58.765 72.193 58.728 72.16 C 58.644 72.09001 58.582 72.039 58.521 71.976006 C 57.906 71.37301 57.564 70.564 57.562 69.70101 C 57.56 68.832 57.902 68.017006 58.523 67.40401 C 58.728 67.20901 58.927 67.09901 59.072 67.019005 L 59.162 66.97 C 59.433 66.802 59.766 66.664 60.131 66.578 C 60.246 66.539 60.393 66.537 60.473 66.535 L 60.612 66.518005 C 60.735 66.504005 60.86 66.494 60.983 66.494 C 61.018 66.494 61.152996 66.5 61.19 66.504005 C 61.479 66.52501 61.754 66.621 61.956997 66.69201 C 61.950996 66.68801 61.948 66.68601 61.955 66.68601 C 61.974 66.68601 62.059 66.707016 62.153 66.74701 C 62.194 66.76501 62.235 66.78401 62.274 66.80401 C 62.323 66.82201 62.372997 66.84301 62.42 66.86801 C 62.696 67.014015 62.942 67.19801 63.155 67.41101 C 63.184 67.44001 63.215 67.474014 63.239 67.50901 L 63.239 67.50901 C 63.301 67.572014 63.35 67.64001 63.391 67.71201 C 64.403 68.99101 64.309 70.83102 63.149 71.97601 C 62.825996 72.28801 62.470997 72.515015 62.084 72.67101 C 61.953 72.73402 61.791 72.75901 61.692 72.77301 C 61.421 72.84301 61.184 72.90901 60.899 72.91301 C 60.893 72.912 60.887 72.912 60.883 72.912 z M 66.619 67.805 C 66.11301 67.805 65.639 67.614 65.27901 67.264 C 65.27901 67.264 64.605 66.594 64.591 66.58 C 63.585003 65.617004 62.255005 65.088005 60.841003 65.088005 C 59.423004 65.088005 58.087 65.621 57.079 66.590004 L 56.445004 67.213005 C 56.083004 67.56801 55.605003 67.76201 55.099003 67.76201 C 54.589005 67.76201 54.113003 67.56701 53.753 67.211006 L 53.403004 66.87301 C 53.376003 66.84601 53.35 66.82001 53.327003 66.79101 L 53.112003 66.57801 C 52.563004 66.05701 52.393 65.24201 52.696003 64.51701 L 52.698 64.51901 C 52.716003 64.47601 52.737003 64.433014 52.761 64.39401 C 52.857 64.195015 52.984 64.02301 53.138 63.879013 L 53.757 63.267017 C 55.661 61.422012 58.175 60.410015 60.841 60.410015 C 63.529 60.410015 66.058 61.437016 67.964 63.305016 C 67.987 63.330017 68.010994 63.354015 68.032 63.381016 L 68.602 63.944016 C 68.96 64.29501 69.167 64.78702 69.165 65.293015 C 69.163 65.804016 68.96 66.278015 68.594 66.63602 L 67.969 67.25802 C 67.594 67.615 67.119 67.805 66.619 67.805 z M 49.118 67.311 C 48.73 67.311 48.37 67.307 47.991 67.300995 C 47.649 67.30699 47.286 67.311 46.899 67.311 C 46.833 67.311 46.766003 67.30299 46.704 67.291 C 34.497 67.109 28.022003 65.584 26.845003 65.279 C 23.532003 64.422 23.089005 61.099 23.072002 60.959 C 20.328005 46.761 22.842005 36.31 23.084002 35.362 C 23.170002 34.832 23.772 31.913 26.846 31.118 C 28.02 30.813 34.481003 29.291 46.715 29.106 C 46.776 29.094 46.838 29.088 46.901 29.088 C 47.288 29.088 47.651 29.092 48.030003 29.098 C 48.372 29.092 48.733 29.088 49.120003 29.088 C 49.183 29.088 49.247 29.095 49.308 29.106 C 61.527 29.291 68.0 30.813 69.178 31.118 C 72.25 31.914 72.852005 34.837 72.936005 35.363 C 73.147 36.198997 75.207 44.819 73.58 57.012 C 73.533005 57.368 73.297005 57.671 72.963005 57.807 C 72.842 57.856 72.71501 57.878 72.59001 57.878 C 72.367004 57.878 72.148 57.804996 71.967 57.661 C 68.797005 55.137 64.961006 53.803 60.873 53.803 C 56.194 53.803 51.78 55.587 48.446 58.830997 L 47.782 59.482 C 47.286 59.969997 47.011997 60.615 47.016 61.296 C 47.018 61.979996 47.291 62.622 47.782 63.107 L 48.442 63.751 C 48.946 64.247 49.608997 64.52 50.316 64.52 C 50.411 64.52 50.501 64.514 50.588997 64.505 C 50.615997 64.503 50.643997 64.503 50.671 64.503 C 50.941 64.503 51.198 64.609 51.387997 64.805 C 51.594997 65.02 51.698997 65.315 51.664997 65.612 C 51.657 65.687996 51.650997 65.764 51.650997 65.844 C 51.650997 65.913 51.663 65.981 51.671997 66.048004 C 51.711 66.331 51.632996 66.65401 51.445995 66.872 C 51.259995 67.091 50.995995 67.255005 50.710995 67.262 C 50.710995 67.262 49.616993 67.284004 49.311996 67.29 C 49.249 67.303 49.186 67.311 49.118 67.311 z M 41.739 40.333 C 41.712 40.333 41.692 40.339 41.682 40.344 L 41.642 55.99 L 41.738 56.064003 L 54.335 48.419003 C 54.330997 48.416004 54.343 48.304 54.339 48.300003 L 41.799 40.342003 L 41.739 40.333 z M 71.115 63.395 C 70.609 63.395 70.133 63.203 69.772995 62.852 L 69.190994 62.276 C 69.16799 62.256 69.144 62.235 69.12299 62.213 C 66.91599 60.041 63.972992 58.846 60.833992 58.846 C 57.720993 58.846 54.790993 60.026 52.583992 62.168 L 51.956993 62.795 C 51.585995 63.151997 51.110992 63.344 50.604992 63.344 C 50.09899 63.344 49.622993 63.152996 49.26499 62.803 L 48.99699 62.539 C 48.965992 62.513996 48.93599 62.488 48.90699 62.458996 L 48.61599 62.173996 C 48.01999 61.581997 47.88899 60.689995 48.28999 59.944996 C 48.33699 59.854996 48.43599 59.661995 48.61399 59.483997 L 49.25499 58.854996 C 50.05399 58.077995 50.92399 57.38599 51.84499 56.791996 C 54.52099 55.076996 57.62699 54.168995 60.833992 54.168995 C 61.825993 54.168995 62.82099 54.258995 63.796993 54.43399 C 63.82999 54.437996 63.874992 54.451996 63.90599 54.45499 C 64.314995 54.531994 64.730995 54.626995 65.13699 54.73299 C 65.19599 54.747993 65.284996 54.77399 65.37699 54.804993 C 65.800995 54.927994 66.12899 55.025993 66.44899 55.136993 C 66.56599 55.177994 66.677986 55.224995 66.78699 55.27199 L 67.26699 55.464993 C 67.42199 55.527992 67.579994 55.587994 67.73399 55.65599 C 67.978 55.772995 68.19299 55.884995 68.40399 55.995995 L 68.565994 56.075996 C 68.713 56.147995 68.86299 56.221996 69.004 56.304996 C 69.201 56.415997 69.406 56.546997 69.61 56.679996 L 69.869 56.839996 C 69.97901 56.903996 70.09001 56.970997 70.199005 57.046997 C 70.455 57.226997 70.69701 57.409996 70.934006 57.597996 L 71.02601 57.664 C 71.13301 57.744 71.24201 57.822 71.34601 57.909996 C 71.518005 58.04499 71.700005 58.212997 71.88301 58.380997 L 72.14301 58.616997 C 72.17802 58.642 72.21101 58.67 72.24601 58.700996 C 72.35601 58.803 72.43101 58.870995 72.49601 58.944996 L 73.09501 59.522995 C 73.463005 59.882996 73.66201 60.362995 73.66001 60.874996 C 73.66001 61.384995 73.459015 61.860996 73.09501 62.214996 L 72.45701 62.844 C 72.096 63.201 71.619 63.395 71.115 63.395 z " fill-opacity="0.1"/>
<path d="M 67.9 63.656 C 68.252 64.0 68.254 64.568 67.9 64.911995 L 67.261 65.547 C 66.9 65.893 66.322 65.889 65.974 65.547 L 65.33 64.911995 L 65.33 64.911995 L 65.33 64.908 C 62.862003 62.491997 58.862003 62.482 56.381 64.867 L 55.74 65.5 C 55.386 65.848 54.806 65.848 54.457 65.5 L 54.096 65.152 C 54.1 65.152 54.1 65.152 54.104 65.152 L 53.815 64.867 C 53.546997 64.611 53.483 64.226 53.621 63.903996 C 53.621 63.893997 53.630997 63.88599 53.64 63.876995 C 53.679 63.784996 53.734 63.692997 53.818 63.61499 L 54.135 63.298992 L 54.459003 62.98299 C 58.01 59.54299 63.728004 59.55099 67.265 63.01999 L 67.265 63.021988 L 67.265 63.02599 L 67.9 63.656 z M 62.576 67.268 C 62.533 67.223 62.492 67.178 62.451 67.139 C 62.445 67.131 62.445 67.121 62.441 67.118 C 62.293003 66.968994 62.119003 66.84699 61.941 66.751 L 61.947 66.755 C 62.105003 66.843994 62.256 66.958 62.394 67.087 C 62.367 67.064995 62.334 67.059 62.31 67.029 C 62.138 66.888 61.961 66.759 61.773003 66.675 C 61.722004 66.654 61.67 66.654 61.625004 66.64101 C 61.445004 66.578 61.264004 66.51601 61.078003 66.50101 C 60.918003 66.48401 60.756004 66.51601 60.599003 66.52701 C 60.515003 66.546005 60.437004 66.52701 60.359 66.55201 C 60.115 66.61101 59.88 66.69801 59.668 66.83101 C 59.518 66.91901 59.354 66.989006 59.223 67.11601 C 58.338 67.987015 58.338 69.39901 59.223 70.264015 C 59.278 70.319016 59.328 70.360016 59.379 70.403015 C 59.374996 70.403015 59.374996 70.39702 59.374996 70.39702 C 59.483997 70.48902 59.616997 70.52602 59.731995 70.59402 C 59.837994 70.653015 59.936996 70.72702 60.048996 70.76802 C 60.206997 70.82902 60.380997 70.84202 60.542995 70.86402 C 60.650997 70.88002 60.762997 70.91102 60.876995 70.91102 C 61.064995 70.90702 61.241997 70.85202 61.425995 70.806015 C 61.520996 70.78401 61.618996 70.78401 61.706993 70.74301 C 61.97399 70.639015 62.219994 70.47601 62.437992 70.265015 C 63.284992 69.431015 63.29299 68.11501 62.51799 67.236015 C 62.541 67.25 62.559 67.254 62.576 67.268 z M 71.748 58.609 C 71.693 58.546 71.629 58.492 71.566 58.435 C 71.566 58.441 71.574005 58.445 71.578 58.449 C 71.625 58.492 71.676 58.537003 71.719 58.582 C 71.598 58.469 71.47901 58.367 71.36 58.258 C 71.145004 58.061 70.934 57.858 70.711 57.68 C 70.584 57.576 70.452995 57.485 70.319 57.387 C 70.096 57.211 69.869 57.037003 69.635 56.873 C 69.481 56.768 69.328 56.685 69.18 56.59 C 68.955 56.447 68.735 56.301 68.504 56.172 C 68.322 56.067 68.125 55.979 67.938 55.883 C 67.739 55.778 67.535 55.672 67.33199 55.572 C 67.103 55.469997 66.86399 55.386 66.632996 55.291 C 66.461 55.227 66.293 55.145 66.120995 55.082 C 65.81899 54.977 65.509995 54.885 65.198 54.797 C 65.09 54.766003 64.987 54.725 64.882996 54.701 C 64.49999 54.599 64.11099 54.512 63.723995 54.439 C 63.69099 54.435 63.65599 54.424 63.620995 54.418 C 59.792995 53.732 55.75399 54.473 52.384995 56.635 C 51.524994 57.19 50.716995 57.83 49.956993 58.569 L 49.741993 58.78 L 49.318993 59.194 C 49.254993 59.258 49.20999 59.34 49.170994 59.42 C 48.986996 59.76 49.027992 60.176003 49.31599 60.463 L 49.606995 60.748 C 49.604996 60.744 49.604996 60.737 49.60099 60.729 L 49.960995 61.086 C 50.313995 61.43 50.893993 61.43 51.247993 61.086 L 51.887993 60.448997 C 56.85099 55.630997 64.882996 55.64 69.82399 60.499996 L 69.83199 60.499996 L 70.468994 61.134995 C 70.826 61.480995 71.40299 61.480995 71.76199 61.134995 L 72.4 60.5 C 72.754 60.156 72.754 59.588 72.4 59.242 L 71.748 58.609 z M 50.646 64.844 C 50.646 64.987 50.668 65.123 50.687 65.262 C 50.168 65.272 49.652 65.285 49.113 65.293 L 49.113 65.309 C 48.732 65.309 48.378 65.307 48.004997 65.298996 C 47.634 65.307 47.275997 65.309 46.895996 65.309 L 46.895996 65.293 C 36.250996 65.146996 29.604996 63.962997 27.090996 63.313 C 24.399996 62.614 24.061996 59.838 24.061996 59.838 C 21.243996 45.247 24.061996 34.562004 24.061996 34.562004 C 24.061996 34.562004 24.399996 31.783005 27.090996 31.087004 C 29.604996 30.435003 36.250996 29.253004 46.895996 29.105003 L 46.895996 29.089005 C 47.276997 29.089005 47.633995 29.093002 48.004997 29.099005 C 48.378 29.093002 48.733997 29.089005 49.113 29.089005 L 49.113 29.105003 C 59.758 29.253004 66.404 30.435003 68.924 31.087004 C 71.612 31.782003 71.951 34.562004 71.951 34.562004 C 71.951 34.562004 74.254 43.365005 72.584 55.879005 C 69.277 53.244007 65.186 51.803005 60.867 51.803005 C 55.918 51.803005 51.26 53.694004 47.743 57.116005 L 47.075 57.771004 C 46.386 58.450005 46.007 59.343 46.011 60.302 C 46.015003 61.259003 46.394 62.152 47.075 62.822 L 47.739 63.468 C 48.425003 64.146 49.343 64.519005 50.311 64.519005 C 50.432 64.519005 50.548 64.51301 50.665 64.503006 C 50.654 64.615 50.646 64.729 50.646 64.844 z M 42.315 55.902 L 54.85 48.274 C 55.167 48.081 55.37 47.741 55.37 47.370003 C 55.378 46.999004 55.186 46.651 54.87 46.458004 L 42.33 38.499004 C 42.15 38.390003 41.942997 38.333004 41.735996 38.333004 C 41.555996 38.333004 41.374996 38.374004 41.210995 38.460003 C 40.856995 38.653004 40.638996 39.013004 40.638996 39.405003 L 40.638996 54.99 C 40.638996 55.379 40.853996 55.74 41.202995 55.929 C 41.548 56.117 41.976 56.107 42.315 55.902 z " fill-opacity="0.1"/>
<linearGradient gradientTransform="matrix(1 0 0 1 24.9897 -507.8809)" gradientUnits="userSpaceOnUse" x1="23.0093" x2="23.0093" y1="544.3457" y2="593.1316">
<stop offset="0" stop-color="#fafcef"/>
<stop offset="0.3232" stop-color="#fafcef"/>
<stop offset="1" stop-color="#d0cbc5"/>
</linearGradient>
<path d="M 67.898 63.463 C 68.252 63.807003 68.254005 64.375 67.898 64.719 L 67.261 65.356 C 66.898 65.701004 66.322 65.696 65.972 65.356 L 65.33 64.719 L 65.33 64.719 L 65.33 64.715004 C 62.86 62.299004 58.862003 62.289005 56.381 64.676 L 55.737 65.309006 C 55.383 65.65501 54.803 65.65501 54.453 65.309006 L 54.094997 64.961006 C 54.099 64.961006 54.099 64.961006 54.101 64.961006 L 53.814 64.676 C 53.543 64.420006 53.482 64.035 53.617 63.711 C 53.617 63.701004 53.629 63.695004 53.637 63.684 C 53.676003 63.592003 53.731003 63.500004 53.815 63.422 L 54.133003 63.106 L 54.455 62.791 C 58.008003 59.353 63.723 59.36 67.262 62.828 L 67.262 62.832 L 67.262 62.836 L 67.898 63.463 z M 62.576 67.074 C 62.531 67.029 62.492 66.986 62.451 66.945 C 62.443 66.937 62.443 66.927 62.441 66.923996 C 62.291 66.77599 62.119003 66.65299 61.941 66.557 L 61.945004 66.561 C 62.105003 66.648994 62.254 66.764 62.394005 66.895 C 62.367004 66.870995 62.334003 66.864 62.308006 66.836 C 62.13801 66.697 61.961006 66.566 61.773006 66.482 C 61.722008 66.461 61.67001 66.461 61.623005 66.445 C 61.445004 66.381996 61.264004 66.322 61.076004 66.308 C 60.918003 66.289 60.756004 66.322 60.599003 66.334 C 60.515003 66.353 60.435 66.334 60.357 66.356 C 60.113003 66.416 59.879 66.50201 59.666 66.635 C 59.518 66.723 59.353 66.795006 59.221 66.920006 C 58.336 67.79101 58.336 69.20501 59.221 70.06801 C 59.276 70.12301 59.326 70.16401 59.379 70.20901 C 59.375 70.20901 59.375 70.20101 59.375 70.20101 C 59.482 70.29301 59.615 70.33 59.73 70.398 C 59.836 70.457 59.937 70.531006 60.047 70.57201 C 60.207 70.633 60.379 70.646 60.543 70.66801 C 60.651 70.684006 60.761 70.71501 60.875 70.71501 C 61.063 70.713005 61.242 70.656006 61.424 70.61 C 61.521 70.588 61.617 70.588 61.705 70.547 C 61.971996 70.443 62.219997 70.28 62.438 70.069 C 63.283 69.235 63.293 67.92 62.516 67.041 C 62.539 67.057 62.557 67.061 62.576 67.074 z M 71.746 58.416 C 71.691 58.355 71.627 58.301 71.566 58.242 C 71.566 58.25 71.572 58.252 71.57601 58.256 C 71.623 58.301 71.676 58.344 71.719 58.389 C 71.598 58.278 71.47901 58.174 71.36 58.067 C 71.143 57.871 70.932 57.666 70.711 57.487 C 70.584 57.383 70.452995 57.295 70.319 57.194 C 70.094 57.018 69.869 56.844 69.633 56.68 C 69.481 56.576 69.32601 56.494 69.178 56.399 C 68.955 56.256 68.733 56.11 68.504 55.981003 C 68.32 55.875004 68.123 55.787003 67.938 55.69 C 67.737 55.586 67.535 55.479004 67.33199 55.381004 C 67.103 55.279003 66.86199 55.193005 66.631 55.098003 C 66.459 55.035004 66.293 54.952003 66.120995 54.891003 C 65.81699 54.787003 65.509995 54.694004 65.198 54.606003 C 65.09 54.576004 64.985 54.535004 64.882996 54.51 C 64.49799 54.408 64.10899 54.319 63.723995 54.246 C 63.69099 54.244003 63.653996 54.234 63.619995 54.226 C 59.793995 53.538 55.752995 54.281 52.38599 56.441 C 51.525993 56.996 50.715996 57.636 49.955994 58.375 L 49.742992 58.586 L 49.319992 59.002 C 49.25399 59.066 49.21099 59.148 49.16999 59.226997 C 48.98799 59.567 49.02699 59.983 49.31599 60.268 L 49.604992 60.553 C 49.602993 60.548996 49.602993 60.543 49.59899 60.534996 L 49.957993 60.893997 C 50.311993 61.238 50.89199 61.238 51.24499 60.893997 L 51.88399 60.255997 C 56.84899 55.436996 64.88199 55.445995 69.82199 60.307995 L 69.828995 60.307995 L 70.468 60.94099 C 70.824 61.288994 71.40099 61.288994 71.758995 60.94099 L 72.40099 60.307995 C 72.75499 59.962994 72.75499 59.395996 72.40099 59.046993 L 71.746 58.416 z M 50.646 64.65 C 50.646 64.795 50.667 64.929 50.687 65.07 C 50.168 65.08 49.652 65.093 49.111 65.099 L 49.111 65.117 C 48.732 65.117 48.376 65.113 48.005 65.106995 C 47.634003 65.11299 47.275 65.117 46.896 65.117 L 46.896 65.1 C 36.251 64.955 29.605 63.769997 27.089 63.121 C 24.400002 62.424 24.06 59.644997 24.06 59.644997 C 21.242 45.055996 24.06 34.37199 24.06 34.37199 C 24.06 34.37199 24.400002 31.592997 27.089 30.896994 C 29.605 30.244991 36.251 29.062994 46.896 28.914991 L 46.896 28.898993 C 47.275 28.898993 47.634 28.901993 48.005 28.908993 C 48.376 28.901993 48.734 28.898993 49.111 28.898993 L 49.111 28.914991 C 59.757 29.062994 66.404 30.244991 68.924 30.896994 C 71.60999 31.591991 71.949 34.37199 71.949 34.37199 C 71.949 34.37199 74.254 43.173996 72.582 55.687996 C 69.277 53.053 65.186005 51.609997 60.867 51.609997 C 55.918 51.609997 51.26 53.504 47.743 56.922997 L 47.075 57.578995 C 46.386 58.256996 46.005 59.149994 46.009003 60.110996 C 46.013004 61.066 46.394 61.959995 47.075005 62.629997 L 47.73901 63.275997 C 48.423004 63.955 49.342007 64.329994 50.311005 64.329994 C 50.432003 64.329994 50.546005 64.32099 50.665005 64.311 C 50.652 64.424 50.646 64.535 50.646 64.65 z M 42.313 55.711 L 54.85 48.083 C 55.167 47.89 55.368 47.549 55.368 47.178 C 55.376 46.807003 55.186 46.460003 54.87 46.266003 L 42.33 38.308 C 42.15 38.198 41.942997 38.141003 41.733997 38.141003 C 41.555996 38.141003 41.372997 38.182003 41.211 38.268 C 40.857 38.461 40.636997 38.822 40.636997 39.213 L 40.636997 54.799004 C 40.636997 55.186005 40.853996 55.547005 41.202995 55.738003 C 41.548 55.926 41.976 55.914 42.313 55.711 z " fill="url(#linearGradient3820)" fill-opacity="1.0"/>
<path d="M 67.898 63.463 C 68.252 63.807003 68.254005 64.375 67.898 64.719 L 67.261 65.356 C 66.898 65.701004 66.322 65.696 65.972 65.356 L 65.33 64.719 L 65.33 64.719 L 65.33 64.715004 C 62.86 62.299004 58.862003 62.289005 56.381 64.676 L 55.737 65.309006 C 55.383 65.65501 54.803 65.65501 54.453 65.309006 L 54.094997 64.961006 C 54.099 64.961006 54.099 64.961006 54.101 64.961006 L 53.814 64.676 C 53.543 64.420006 53.482 64.035 53.617 63.711 C 53.617 63.701004 53.629 63.695004 53.637 63.684 C 53.676003 63.592003 53.731003 63.500004 53.815 63.422 L 54.133003 63.106 L 54.455 62.791 C 58.008003 59.353 63.723 59.36 67.262 62.828 L 67.262 62.832 L 67.262 62.836 L 67.898 63.463 z M 62.576 67.074 C 62.531 67.029 62.492 66.986 62.451 66.945 C 62.443 66.937 62.443 66.927 62.441 66.923996 C 62.291 66.77599 62.119003 66.65299 61.941 66.557 L 61.945004 66.561 C 62.105003 66.648994 62.254 66.764 62.394005 66.895 C 62.367004 66.870995 62.334003 66.864 62.308006 66.836 C 62.13801 66.697 61.961006 66.566 61.773006 66.482 C 61.722008 66.461 61.67001 66.461 61.623005 66.445 C 61.445004 66.381996 61.264004 66.322 61.076004 66.308 C 60.918003 66.289 60.756004 66.322 60.599003 66.334 C 60.515003 66.353 60.435 66.334 60.357 66.356 C 60.113003 66.416 59.879 66.50201 59.666 66.635 C 59.518 66.723 59.353 66.795006 59.221 66.920006 C 58.336 67.79101 58.336 69.20501 59.221 70.06801 C 59.276 70.12301 59.326 70.16401 59.379 70.20901 C 59.375 70.20901 59.375 70.20101 59.375 70.20101 C 59.482 70.29301 59.615 70.33 59.73 70.398 C 59.836 70.457 59.937 70.531006 60.047 70.57201 C 60.207 70.633 60.379 70.646 60.543 70.66801 C 60.651 70.684006 60.761 70.71501 60.875 70.71501 C 61.063 70.713005 61.242 70.656006 61.424 70.61 C 61.521 70.588 61.617 70.588 61.705 70.547 C 61.971996 70.443 62.219997 70.28 62.438 70.069 C 63.283 69.235 63.293 67.92 62.516 67.041 C 62.539 67.057 62.557 67.061 62.576 67.074 z M 71.746 58.416 C 71.691 58.355 71.627 58.301 71.566 58.242 C 71.566 58.25 71.572 58.252 71.57601 58.256 C 71.623 58.301 71.676 58.344 71.719 58.389 C 71.598 58.278 71.47901 58.174 71.36 58.067 C 71.143 57.871 70.932 57.666 70.711 57.487 C 70.584 57.383 70.452995 57.295 70.319 57.194 C 70.094 57.018 69.869 56.844 69.633 56.68 C 69.481 56.576 69.32601 56.494 69.178 56.399 C 68.955 56.256 68.733 56.11 68.504 55.981003 C 68.32 55.875004 68.123 55.787003 67.938 55.69 C 67.737 55.586 67.535 55.479004 67.33199 55.381004 C 67.103 55.279003 66.86199 55.193005 66.631 55.098003 C 66.459 55.035004 66.293 54.952003 66.120995 54.891003 C 65.81699 54.787003 65.509995 54.694004 65.198 54.606003 C 65.09 54.576004 64.985 54.535004 64.882996 54.51 C 64.49799 54.408 64.10899 54.319 63.723995 54.246 C 63.69099 54.244003 63.653996 54.234 63.619995 54.226 C 59.793995 53.538 55.752995 54.281 52.38599 56.441 C 51.525993 56.996 50.715996 57.636 49.955994 58.375 L 49.742992 58.586 L 49.319992 59.002 C 49.25399 59.066 49.21099 59.148 49.16999 59.226997 C 48.98799 59.567 49.02699 59.983 49.31599 60.268 L 49.604992 60.553 C 49.602993 60.548996 49.602993 60.543 49.59899 60.534996 L 49.957993 60.893997 C 50.311993 61.238 50.89199 61.238 51.24499 60.893997 L 51.88399 60.255997 C 56.84899 55.436996 64.88199 55.445995 69.82199 60.307995 L 69.828995 60.307995 L 70.468 60.94099 C 70.824 61.288994 71.40099 61.288994 71.758995 60.94099 L 72.40099 60.307995 C 72.75499 59.962994 72.75499 59.395996 72.40099 59.046993 L 71.746 58.416 z M 50.646 64.65 C 50.646 64.795 50.667 64.929 50.687 65.07 C 50.168 65.08 49.652 65.093 49.111 65.099 L 49.111 65.117 C 48.732 65.117 48.376 65.113 48.005 65.106995 C 47.634003 65.11299 47.275 65.117 46.896 65.117 L 46.896 65.1 C 36.251 64.955 29.605 63.769997 27.089 63.121 C 24.400002 62.424 24.06 59.644997 24.06 59.644997 C 21.242 45.055996 24.06 34.37199 24.06 34.37199 C 24.06 34.37199 24.400002 31.592997 27.089 30.896994 C 29.605 30.244991 36.251 29.062994 46.896 28.914991 L 46.896 28.898993 C 47.275 28.898993 47.634 28.901993 48.005 28.908993 C 48.376 28.901993 48.734 28.898993 49.111 28.898993 L 49.111 28.914991 C 59.757 29.062994 66.404 30.244991 68.924 30.896994 C 71.60999 31.591991 71.949 34.37199 71.949 34.37199 C 71.949 34.37199 74.254 43.173996 72.582 55.687996 C 69.277 53.053 65.186005 51.609997 60.867 51.609997 C 55.918 51.609997 51.26 53.504 47.743 56.922997 L 47.075 57.578995 C 46.386 58.256996 46.005 59.149994 46.009003 60.110996 C 46.013004 61.066 46.394 61.959995 47.075005 62.629997 L 47.73901 63.275997 C 48.423004 63.955 49.342007 64.329994 50.311005 64.329994 C 50.432003 64.329994 50.546005 64.32099 50.665005 64.311 C 50.652 64.424 50.646 64.535 50.646 64.65 z M 42.313 55.711 L 54.85 48.083 C 55.167 47.89 55.368 47.549 55.368 47.178 C 55.376 46.807003 55.186 46.460003 54.87 46.266003 L 42.33 38.308 C 42.15 38.198 41.942997 38.141003 41.733997 38.141003 C 41.555996 38.141003 41.372997 38.182003 41.211 38.268 C 40.857 38.461 40.636997 38.822 40.636997 39.213 L 40.636997 54.799004 C 40.636997 55.186005 40.853996 55.547005 41.202995 55.738003 C 41.548 55.926 41.976 55.914 42.313 55.711 z " fill="url(#linearGradient3816)" fill-opacity="1"/>
</svg>
