<?xml version="1.0" encoding="UTF-8"?>
<svg xmlns="http://www.w3.org/2000/svg" xmlns:xlink="http://www.w3.org/1999/xlink" baseProfile="tiny" contentScriptType="text/ecmascript" contentStyleType="text/css" height="96px" preserveAspectRatio="xMidYMid meet" version="1.1" viewBox="0 0 96 96" width="96px" x="0px" y="0px" zoomAndPan="magnify">
<defs>
<linearGradient id="linearGradient3795">
<stop offset="0" stop-color="#fdfdfd" stop-opacity="1"/>
<stop offset="1" stop-color="#f6f6f6" stop-opacity="1"/>
</linearGradient>
<linearGradient gradientTransform="matrix(0,1,-1,0,96,0)" gradientUnits="userSpaceOnUse" id="linearGradient3801" x1="8" x2="88" y1="48" y2="48">
<stop offset="0" stop-color="#fdfdfd" stop-opacity="1"/>
<stop offset="1" stop-color="#f6f6f6" stop-opacity="1"/>
</linearGradient>
</defs>
<rect fill="none" height="96" width="96"/>
<path d="M 88.0 49.0 C 88.0 78.635 77.639 89.0 48.0 89.0 C 18.367 89.0 8.0 78.635 8.0 49.0 C 8.0 19.367 18.367 9.0 48.0 9.0 C 77.637 9.0 88.0 19.367 88.0 49.0 z " fill-opacity="0.4" stroke-opacity="0.4"/>
<rect fill="none" height="80" width="80" x="8" y="8"/>
<linearGradient gradientUnits="userSpaceOnUse" x1="48.0005" x2="48.0005" y1="88" y2="8.9989">
<stop offset="0" stop-color="#cccac6"/>
<stop offset="1" stop-color="#ffffff"/>
</linearGradient>
<path d="M 48.0 88.0 C 18.365 88.0 8.0 77.639 8.0 48.0 C 8.0 18.367 18.365 8.0 48.0 8.0 C 77.633 8.0 88.0 18.367 88.0 48.0 C 88.0 77.637 77.633 88.0 48.0 88.0 z " fill="url(#linearGradient3801)" fill-opacity="1"/>
<path d="M 37.393 56.838 L 33.481003 59.039 C 31.612003 56.262 30.516005 52.922 30.516005 49.328003 C 30.516005 39.678 38.368004 31.828005 48.016003 31.828005 C 49.395004 31.828005 50.729004 32.004 52.016003 32.307003 L 52.016003 23.129002 C 50.711 22.932 49.375004 22.828 48.016003 22.828 C 33.405003 22.828 21.516005 34.715 21.516005 49.328003 C 21.516005 54.523003 23.032003 59.365 25.623005 63.459003 L 22.043003 65.47301 C 21.084003 66.01201 21.070004 66.91801 22.012005 67.48701 L 37.354004 76.74501 C 38.29501 77.31301 39.069004 76.87801 39.07301 75.77801 L 39.130005 57.85801 C 39.133 56.758 38.352 56.299 37.393 56.838 z M 73.959 33.52 C 74.918 32.981 74.932 32.075 73.988 31.506 L 58.646 22.25 C 57.705 21.682 56.931 22.117 56.927 23.217 L 56.87 41.135 C 56.865997 42.234997 57.647 42.694 58.606 42.155 L 62.702 39.851997 C 64.477 42.581997 65.515 45.831997 65.515 49.329 C 65.515 58.976997 57.665 66.828995 48.015 66.828995 C 46.638 66.828995 45.302 66.65099 44.015 66.34899 L 44.015 75.52699 C 45.32 75.72599 46.656 75.829994 48.015 75.829994 C 62.628 75.829994 74.515 63.94099 74.515 49.32999 C 74.515 44.233994 73.064 39.47599 70.562 35.431995 L 73.959 33.52 z " fill="#ffffff" fill-opacity="0.6" stroke-opacity="0.6"/>
<linearGradient gradientTransform="matrix(1 0 0 1 193.9253 -815.8408)" gradientUnits="userSpaceOnUse" x1="-145.9253" x2="-145.9253" y1="824.0938" y2="903.3385">
<stop offset="0" stop-color="#ffffff"/>
<stop offset="1" stop-color="#ffffff" stop-opacity="0"/>
</linearGradient>
<path d="M 48.0 8.0 C 18.367 8.0 8.0 18.367 8.0 48.0 C 8.0 77.635 18.367 88.0 48.0 88.0 C 77.639 88.0 88.0 77.635 88.0 48.0 C 88.0 18.367 77.637 8.0 48.0 8.0 z M 48.0 87.0 C 18.842 87.0 9.0 77.158 9.0 48.0 C 9.0 18.842005 18.842 9.0 48.0 9.0 C 77.16 9.0 87.0 18.842 87.0 48.0 C 87.0 77.158005 77.16 87.0 48.0 87.0 z " fill="#007ae4" fill-opacity="0" stroke-opacity="0.3"/>
<linearGradient gradientUnits="userSpaceOnUse" x1="59.3516" x2="59.3516" y1="76.3496" y2="14.4258">
<stop offset="0" stop-color="#003f9a"/>
<stop offset="1" stop-color="#0077cd"/>
</linearGradient>
<path d="M 74.516 47.831 C 74.516 62.442 62.629 74.331 48.016 74.331 C 46.657 74.331 45.321 74.227005 44.016 74.028 L 44.016 64.85 C 45.303 65.153 46.639 65.33 48.016 65.33 C 57.666 65.33 65.516 57.478 65.516 47.83 C 65.516 44.334003 64.479 41.084003 62.703 38.353 L 58.607 40.656 C 57.648 41.195004 56.866997 40.736004 56.871 39.636 L 56.928 21.718002 C 56.932 20.618002 57.705 20.183002 58.647 20.751003 L 73.989 30.007004 C 74.932 30.575005 74.919 31.482004 73.96 32.021004 L 70.564 33.931004 C 73.064 37.978 74.516 42.735 74.516 47.831 z " fill="#007ae4" fill-opacity="1"/>
<linearGradient gradientUnits="userSpaceOnUse" x1="36.6655" x2="36.6655" y1="77.5283" y2="15.2152">
<stop offset="0" stop-color="#195b19"/>
<stop offset="1" stop-color="#9bd22d"/>
</linearGradient>
<path d="M 39.072 74.28 C 39.067997 75.38 38.295 75.815 37.352997 75.247 L 22.010998 65.989 C 21.069998 65.421 21.082998 64.514 22.041998 63.975 L 25.621998 61.961 C 23.03 57.866997 21.514996 53.025 21.514996 47.83 C 21.514996 33.217 33.404 21.329998 48.015 21.329998 C 49.374 21.329998 50.71 21.433998 52.015 21.631 L 52.015 30.808998 C 50.728 30.506 49.394 30.329998 48.015 30.329998 C 38.367 30.329998 30.515 38.179996 30.515 47.83 C 30.515 51.424 31.611 54.764 33.48 57.541 L 37.392 55.34 C 38.351 54.801 39.132 55.26 39.128 56.36 L 39.072 74.28 z " fill="#76b529" fill-opacity="1"/>
<path d="M 52.016 26.129 L 52.016 21.632 C 50.711 21.435 49.375 21.331 48.016 21.331 C 33.405 21.331 21.516 33.218 21.516 47.831 C 21.516 48.584 21.557 49.328003 21.62 50.065 C 22.772 36.507004 34.167 25.828005 48.016 25.828005 C 49.375 25.828 50.711 25.932 52.016 26.129 z M 22.043 63.976 C 21.084 64.515 21.07 65.421005 22.012 65.990005 L 24.157 67.284004 L 25.624 66.46001 C 24.927 65.35901 24.315 64.200005 23.782 62.99901 L 22.043 63.976 z M 56.928 26.217 C 56.932003 25.117 57.705 24.682 58.647003 25.25 L 71.844 33.211998 L 73.959 32.023 C 74.918 31.484 74.932 30.578 73.988 30.009 L 58.646 20.752998 C 57.705 20.184998 56.931 20.62 56.927 21.719995 L 56.87 39.637997 C 56.87 39.693996 56.879997 39.74 56.884 39.790997 L 56.928 26.217 z M 37.393 55.341 L 33.481003 57.542 C 32.012 55.36 31.032003 52.828 30.674004 50.102 C 30.580004 50.833 30.516005 51.573 30.516005 52.329 C 30.516005 55.923004 31.612003 59.263 33.481003 62.04 L 37.393 59.839 C 38.305 59.327 39.045 59.723 39.116 60.705 L 39.13 56.361 C 39.133 55.261 38.352 54.802 37.393 55.341 z M 70.563 38.43 C 72.69601 41.877 74.055 45.845 74.413 50.096 C 74.477005 49.349 74.517 48.595 74.517 47.831 C 74.517 44.132 73.744 40.615 72.367 37.415 L 70.563 38.43 z M 48.016 65.331 C 46.639 65.331 45.303 65.153 44.016 64.851 L 44.016 69.348 C 45.303 69.651 46.639 69.828 48.016 69.828 C 57.666 69.828 65.516 61.976 65.516 52.328003 C 65.516 51.556004 65.457 50.798004 65.36 50.052 C 64.262 58.653 56.912 65.331 48.016 65.331 z " fill-opacity="0.05" stroke-opacity="0.05"/>
</svg>
