<?xml version="1.0" encoding="UTF-8"?>
<svg xmlns="http://www.w3.org/2000/svg" xmlns:xlink="http://www.w3.org/1999/xlink" baseProfile="tiny" contentScriptType="text/ecmascript" contentStyleType="text/css" height="96px" preserveAspectRatio="xMidYMid meet" version="1.1" viewBox="0 0 96 96" width="96px" x="0px" y="0px" zoomAndPan="magnify">
<defs>
<linearGradient id="linearGradient3812">
<stop offset="0" stop-color="#6eb428" stop-opacity="1"/>
<stop offset="1" stop-color="#3aad2f" stop-opacity="1"/>
</linearGradient>
<linearGradient gradientTransform="matrix(0,1,-1,0,96,0)" gradientUnits="userSpaceOnUse" id="linearGradient3818" x1="8" x2="88" y1="48" y2="48">
<stop offset="0" stop-color="#6eb428" stop-opacity="1"/>
<stop offset="1" stop-color="#3aad2f" stop-opacity="1"/>
</linearGradient>
</defs>
<path d="M 88.0 48.0 C 88.0 77.635 77.639 88.0 48.0 88.0 C 18.368 88.0 8.0 77.637 8.0 48.0 C 8.0 18.367 18.368 8.0 48.0 8.0 C 77.637 8.0 88.0 18.368 88.0 48.0 z " fill-opacity="0.4"/>
<linearGradient gradientTransform="matrix(1 0 0 -1 -1663.7969 -3058.1191)" gradientUnits="userSpaceOnUse" x1="1711.7959" x2="1711.7959" y1="-3065.7847" y2="-3145.7847">
<stop offset="0" stop-color="#afd13e"/>
<stop offset="1" stop-color="#19592d"/>
</linearGradient>
<path d="M 48.0 88.0 C 18.365 88.0 8.0 77.639 8.0 48.0 C 8.0 18.368 18.363 8.0 48.0 8.0 C 77.633 8.0 88.0 18.368 88.0 48.0 C 88.0 77.637 77.632 88.0 48.0 88.0 z " fill="url(#linearGradient3818)" fill-opacity="1"/>
<linearGradient gradientTransform="matrix(1 0 0 -1 -1663.7969 -3058.1191)" gradientUnits="userSpaceOnUse" id="SVGID_2_" x1="1711.7959" x2="1711.7959" y1="-3066.3745" y2="-3145.6172">
<stop offset="0" stop-color="#ffffff"/>
<stop offset="1" stop-color="#ffffff" stop-opacity="0"/>
</linearGradient>
<path d="M 48.0 8.0 C 18.368 8.0 8.0 18.367 8.0 48.0 C 8.0 77.635 18.367 88.0 48.0 88.0 C 77.639 88.0 88.0 77.637 88.0 48.0 C 88.0 18.368 77.637 8.0 48.0 8.0 z M 48.0 87.0 C 18.842 87.0 9.0 77.158 9.0 47.999 C 9.0 18.841 18.842 8.999001 48.0 8.999001 C 77.16 8.999001 87.0 18.841 87.0 47.999 C 87.0 77.158 77.16 87.0 48.0 87.0 z " fill="url(#SVGID_2_)" fill-opacity="0.15"/>
<rect fill="none" height="96" width="96"/>
<path d="M 26.765 75.231 L 26.752 74.722 C 26.648998 74.656 26.551998 74.587 26.456 74.508 C 25.391 73.65401 24.946 72.19701 25.344 70.883 L 28.927 59.115005 L 18.92 50.949 C 17.852 50.075 17.422 48.601 17.852 47.279 C 18.296 45.911 19.551 44.986 20.973 44.975 L 33.208 44.856 L 36.911 32.609 C 37.326 31.232 38.562 30.276 39.985 30.235 C 41.452 30.235 42.706 31.097 43.192 32.431 L 47.645 44.743 L 59.351 44.669 C 60.773003 44.669 61.999 45.536 62.484 46.877 C 62.963 48.163 62.586 49.643 61.548 50.558 L 52.142 58.933 L 55.414997 70.774 C 55.767 72.092 55.294 73.527 54.233 74.349 C 53.667 74.789 52.989 75.031 52.263996 75.039 C 51.560997 75.039 50.929996 74.85 50.372997 74.466 L 40.601 67.886 C 40.601 67.886 30.309998 74.693 30.305998 74.696 L 30.305998 75.081 L 29.007998 75.233 L 26.765 75.233 z " fill-opacity="0.05" stroke-opacity="0.05"/>
<path d="M 27.203 74.78 L 27.193 74.46 C 27.033998 74.376 26.881 74.274 26.735 74.157 C 25.814 73.416 25.429 72.154 25.773 71.013 L 29.446 58.955 L 19.204998 50.601 C 18.28 49.844 17.907995 48.565 18.278996 47.418003 C 18.665997 46.234 19.747995 45.433 20.974998 45.425003 L 33.539997 45.300003 L 37.341995 32.737003 C 37.698994 31.544004 38.768997 30.719004 39.998997 30.682005 L 39.998997 30.682005 C 41.265995 30.682005 42.348995 31.429005 42.768997 32.583004 L 47.327995 45.191 L 59.353996 45.117 C 60.578995 45.117 61.640995 45.865 62.056995 47.026 C 62.472996 48.142 62.146996 49.423 61.249996 50.212 L 51.634995 58.776 L 54.976994 70.891 C 55.28799 72.032 54.87899 73.275 53.958992 73.988 C 53.470993 74.372 52.87899 74.577 52.25399 74.589 C 51.64999 74.589 51.10799 74.419 50.62699 74.093994 L 40.603992 67.342 L 30.069992 74.309 C 30.001991 74.356 29.928991 74.398994 29.854992 74.438 L 29.854992 74.67999 L 28.980991 74.77799 L 27.203 74.77799 z " fill-opacity="0.05" stroke-opacity="0.05"/>
<path d="M 27.641 74.333 L 27.636002 74.165 C 27.415 74.078 27.209002 73.959 27.015 73.806 C 26.237 73.182 25.911 72.112 26.202002 71.144 L 29.963 58.800995 L 19.488 50.250996 C 18.706 49.610996 18.392 48.527996 18.707 47.557995 C 19.032 46.557995 19.944 45.882996 20.978 45.874996 L 33.875 45.749996 L 37.771 32.869995 C 38.074 31.863997 38.974 31.166996 40.01 31.135996 L 40.01 31.135996 C 41.078 31.135996 41.989 31.764996 42.344997 32.739994 L 47.011 45.646996 L 59.353996 45.568996 C 60.384995 45.568996 61.279995 46.200996 61.634995 47.181995 C 61.984993 48.126995 61.708996 49.210995 60.948994 49.87899 L 51.120995 58.631996 L 54.540993 71.01299 C 54.802994 71.98 54.45499 73.034 53.679993 73.635994 C 53.26799 73.95699 52.775993 74.131 52.247993 74.14099 C 51.737995 74.14099 51.28099 73.99999 50.880993 73.72399 L 40.603992 66.80399 L 29.820992 73.937 C 29.687992 74.024994 29.54799 74.099 29.403992 74.158 L 29.403992 74.282 L 28.952991 74.334 L 27.641 74.334 z " fill-opacity="0.05" stroke-opacity="0.05"/>
<path d="M 28.079 73.883 L 28.078 73.834 C 27.797 73.768 27.532 73.64 27.297 73.454 C 26.661 72.942 26.396 72.067 26.635 71.273 L 30.484 58.643 L 19.773 49.9 C 19.133 49.378 18.877 48.492 19.135 47.695 C 19.401 46.881 20.142 46.33 20.983 46.326 L 34.212 46.196 L 38.202 32.999 C 38.45 32.178 39.183 31.609 40.024 31.585 C 40.024 31.585 40.024 31.585 40.024 31.585 C 40.894997 31.585 41.634 32.099003 41.922997 32.893 L 46.698 46.098 L 59.358997 46.02 C 60.197 46.02 60.922997 46.535 61.213997 47.335 C 61.497 48.108997 61.275 48.997 60.652996 49.543 L 50.615997 58.48 L 54.108 71.131 C 54.323 71.923 54.041996 72.788994 53.402996 73.279 C 53.070995 73.542 52.668995 73.681 52.242996 73.689 C 51.828995 73.689 51.457996 73.578 51.136 73.355 L 40.608 66.26 L 29.572998 73.560005 C 29.381998 73.686005 29.172 73.77701 28.954 73.83 L 28.954 73.883 L 28.079 73.883 z " fill-opacity="0.05" stroke-opacity="0.05"/>
<path d="M 28.506 73.432 C 28.168 73.432 27.847 73.32 27.577 73.103 C 27.082 72.70699 26.879 72.023994 27.065 71.404 L 31.002 58.486 L 20.058 49.552 C 19.562 49.15 19.363 48.457 19.565 47.835003 C 19.769 47.207005 20.34 46.780003 20.987 46.775 L 34.548 46.643 L 38.635 33.129 C 38.826004 32.494003 39.389004 32.054 40.039 32.035 C 40.039 32.035 40.039 32.035 40.04 32.035 C 40.711 32.035 41.280003 32.440998 41.501 33.047 L 46.384 46.548 L 59.363 46.468 C 60.013 46.468 60.566 46.868 60.791 47.488 C 61.014 48.087997 60.842 48.78 60.359 49.2 L 50.109 58.332 L 53.677 71.254 C 53.845 71.871994 53.624 72.541 53.13 72.926994 C 52.870003 73.12699 52.562 73.23399 52.237 73.23899 L 52.235 73.23899 C 51.919 73.23899 51.635 73.149994 51.391 72.982994 L 40.611 65.71999 L 29.325 73.188 C 29.081 73.34699 28.803 73.432 28.517 73.432 L 28.506 72.981 L 28.506 73.432 z " fill-opacity="0.05" stroke-opacity="0.05"/>
<path d="M 60.063 48.864 L 49.602 58.18 L 53.243 71.372 C 53.364 71.819 53.21 72.297005 52.856 72.573 C 52.67 72.713 52.448 72.787994 52.229 72.792 C 52.024 72.794 51.817 72.731 51.645 72.614 L 40.613 65.18 L 29.078 72.81 C 28.905 72.926 28.711 72.980995 28.516 72.980995 C 28.287 72.98399 28.054998 72.91 27.856998 72.752 C 27.503998 72.469 27.36 71.983 27.495998 71.534 L 31.517998 58.330997 L 20.339996 49.205 C 19.985996 48.917 19.844995 48.421997 19.988997 47.975 C 20.134996 47.53 20.531996 47.23 20.988997 47.226997 L 34.879997 47.090996 L 39.061996 33.258995 C 39.198997 32.805996 39.592995 32.498997 40.048996 32.485996 L 40.069996 32.485996 C 40.515995 32.480995 40.918995 32.769997 41.075996 33.201996 L 46.064995 47.001995 L 59.363995 46.91999 C 59.80899 46.91299 60.205994 47.203995 60.365993 47.640995 C 60.525 48.071 60.4 48.567 60.063 48.864 z " fill-opacity="0.05" stroke-opacity="0.05"/>
<linearGradient gradientTransform="matrix(1 0 0 -1 -300.9004 -120.5996)" gradientUnits="userSpaceOnUse" x1="341.0879" x2="341.0879" y1="-193.5801" y2="-153.085">
<stop offset="0" stop-color="#cccac6"/>
<stop offset="1" stop-color="#ffffff"/>
</linearGradient>
<path d="M 60.066 48.864 L 49.604 58.18 L 53.247 71.372 C 53.368 71.819 53.214 72.297005 52.858 72.573 C 52.672 72.713 52.452003 72.787994 52.231003 72.792 C 52.028004 72.794 51.821003 72.731 51.647003 72.614 L 40.616 65.18 L 29.081 72.81 C 28.908 72.926 28.714 72.980995 28.519 72.980995 C 28.29 72.98399 28.059002 72.91 27.86 72.752 C 27.508 72.469 27.363 71.983 27.499 71.534 L 31.522 58.330997 L 20.345 49.205 C 19.991 48.917 19.849998 48.421997 19.994 47.975 C 20.138 47.53 20.536 47.23 20.994 47.226997 L 34.884 47.090996 L 39.067 33.258995 C 39.205 32.805996 39.597996 32.498997 40.054996 32.485996 L 40.075996 32.485996 C 40.520996 32.480995 40.924995 32.769997 41.080997 33.201996 L 46.071 47.001995 L 59.369 46.91999 C 59.814 46.91299 60.211 47.203995 60.371 47.640995 C 60.527 48.071 60.404 48.567 60.066 48.864 z " fill="#f4f4f4" fill-opacity="1"/>
<path d="M 54.173 43.984 L 54.164 43.213 C 53.293003 42.391003 52.975 41.224003 53.299 40.129 L 54.604 35.85 L 50.935 32.854004 C 49.985 32.081005 49.602 30.772003 49.984 29.598003 C 50.38 28.373005 51.509003 27.545004 52.796 27.539003 L 57.119003 27.496004 L 58.446003 23.108004 C 58.814003 21.878004 59.923004 21.025003 61.204 20.987003 C 61.204 20.987003 61.204 20.987003 61.205 20.987003 C 62.530003 20.987003 63.656 21.761003 64.087006 22.958004 L 65.703 27.428003 L 69.847 27.402004 C 71.097 27.402004 72.224 28.189005 72.655 29.360004 C 73.079 30.518003 72.743 31.839005 71.818 32.648003 L 68.344 35.74 L 69.551 40.104 C 69.871 41.293 69.457 42.54 68.496 43.282 C 67.988 43.668003 67.367004 43.887 66.743004 43.901 C 66.742004 43.901 66.742004 43.901 66.742004 43.901 C 66.109 43.901 65.521 43.726 65.031006 43.394 L 61.512005 41.023003 L 58.148006 43.249004 L 58.148006 43.740005 L 56.734005 43.986004 L 54.173 43.986004 z " fill-opacity="0.05" stroke-opacity="0.05"/>
<path d="M 54.667 43.484 L 54.661 42.985 C 54.645 42.974 54.631 42.962 54.616 42.95 C 53.814003 42.303 53.487 41.252 53.778 40.269 L 55.179 35.672 L 51.25 32.464 C 50.458 31.819 50.14 30.729 50.458 29.75 C 50.787 28.73 51.727 28.042 52.796 28.037 L 57.489 27.991 L 58.923004 23.251 C 59.230003 22.227 60.152004 21.517002 61.217003 21.485 C 61.217003 21.485 61.217003 21.485 61.218 21.485 C 62.321003 21.485 63.256004 22.129 63.614 23.126 L 65.35 27.929 L 69.847 27.901 C 70.886 27.901 71.824 28.556002 72.182 29.531 C 72.536 30.495 72.256 31.596 71.486 32.27 L 67.777 35.572 L 69.066 40.236 C 69.334 41.229 68.988 42.267 68.188 42.885 C 67.76601 43.205997 67.25 43.387997 66.729004 43.4 L 66.729004 43.4 C 66.204 43.4 65.716 43.254 65.309006 42.978996 L 61.513004 40.421 C 58.991005 42.089996 58.021004 42.732 57.646004 42.978996 L 57.646004 43.317997 L 56.689003 43.484997 L 54.667 43.484997 z " fill-opacity="0.05" stroke-opacity="0.05"/>
<path d="M 55.161 42.984 L 55.158 42.717003 C 55.078 42.67 55.0 42.617004 54.926003 42.558 C 54.284004 42.04 54.025 41.2 54.258003 40.412003 L 55.756004 35.498 L 51.568005 32.078003 C 50.935005 31.563004 50.680004 30.690002 50.935005 29.906002 C 51.19801 29.092005 51.947006 28.542002 52.799004 28.538002 L 57.862003 28.488005 L 59.402004 23.397003 C 59.647003 22.579002 60.382004 22.012005 61.23201 21.987003 C 61.23201 21.987003 61.23201 21.987003 61.23301 21.987003 C 62.113007 21.987003 62.85801 22.502005 63.144005 23.297005 L 65.00001 28.432005 L 69.851006 28.402002 C 70.67901 28.402002 71.427 28.925003 71.713005 29.705002 C 71.996 30.477 71.773 31.357002 71.157005 31.895002 L 67.213005 35.406 L 68.58501 40.370003 C 68.799 41.165 68.522 41.996 67.883 42.491 C 67.546005 42.747 67.134 42.892 66.719 42.901 L 66.719 42.901 C 66.301 42.901 65.914 42.785 65.590004 42.566 L 61.51701 39.821003 C 61.51701 39.821003 57.174007 42.695004 57.147007 42.711 L 57.147007 42.899 L 56.647007 42.986004 L 55.161 42.986004 z " fill-opacity="0.05" stroke-opacity="0.05"/>
<path d="M 55.655 42.484 L 55.654 42.399 C 55.505 42.346 55.364 42.267 55.235 42.166 C 54.755 41.778 54.561 41.147 54.737 40.555 L 56.332 35.323 L 51.884003 31.691002 C 51.409004 31.305002 51.219 30.649002 51.410004 30.061005 C 51.606003 29.453005 52.165005 29.041002 52.801003 29.038002 L 58.235 28.984 L 59.881 23.541 C 60.065 22.929 60.614 22.505 61.247 22.486 C 61.247 22.486 61.247 22.486 61.248 22.486 C 61.905003 22.486 62.460003 22.871 62.674 23.465 L 64.651 28.933 L 69.855 28.9 C 70.473 28.9 71.031006 29.292 71.246 29.876 C 71.458 30.454 71.291 31.114 70.83 31.517 L 66.65 35.238 L 68.105 40.502 C 68.26501 41.1 68.05801 41.723 67.579 42.094 C 67.328 42.285 67.020004 42.393 66.71 42.4 C 66.71 42.4 66.71 42.4 66.709 42.4 C 66.399 42.4 66.113 42.314 65.872 42.15 L 61.521004 39.218 L 56.951004 42.240997 C 56.857 42.304996 56.756004 42.357 56.648003 42.395996 L 56.648003 42.483 L 55.655 42.483 z " fill-opacity="0.05" stroke-opacity="0.05"/>
<path d="M 56.146 41.984 C 55.927 41.984 55.719 41.911 55.545 41.774 C 55.226 41.516003 55.098 41.095 55.216 40.698 L 56.907 35.148003 L 52.2 31.304 C 51.885 31.047 51.758 30.609 51.886 30.215 C 52.016003 29.813 52.384003 29.54 52.803 29.538 L 58.607 29.481 L 60.36 23.686 C 60.482 23.28 60.844 22.999 61.262 22.987 L 61.263 22.987 C 61.697 22.987 62.064 23.248 62.203 23.636002 L 64.301 29.437002 L 69.858 29.402002 C 70.268005 29.402002 70.633 29.662004 70.776 30.050003 C 70.918 30.435003 70.807 30.874002 70.501 31.142002 L 66.086 35.073 L 67.623 40.636 C 67.73 41.035 67.594 41.451 67.273 41.699 C 67.107 41.825 66.904 41.896 66.699005 41.901 L 66.699005 41.901 C 66.495 41.901 66.310005 41.844 66.15101 41.737 L 61.52401 38.618 L 56.67501 41.826 C 56.52401 41.929 56.34101 41.985 56.151012 41.985 L 56.14601 41.485 L 56.146 41.984 z " fill-opacity="0.05" stroke-opacity="0.05"/>
<path d="M 70.171 30.766 L 65.520996 34.907 L 67.14 40.77 C 67.194 40.968 67.125 41.181 66.967 41.303 C 66.885 41.366 66.786 41.399 66.689 41.401 C 66.598 41.402 66.506004 41.374 66.429 41.322 L 61.527 38.017 L 56.4 41.409 C 56.324 41.461 56.237003 41.485 56.151 41.485 C 56.048 41.486 55.946 41.453 55.857 41.382 C 55.701004 41.256 55.637 41.04 55.697 40.841 L 57.485 34.973 L 52.517 30.917 C 52.36 30.789 52.297 30.568 52.362003 30.37 C 52.425003 30.172998 52.602005 30.039 52.805004 30.037998 L 58.979004 29.976995 L 60.838005 23.829998 C 60.89901 23.628998 61.074005 23.492 61.276005 23.485998 L 61.285004 23.485998 C 61.48301 23.483995 61.663 23.611998 61.732 23.804 L 63.95 29.938 L 69.86 29.901 C 70.058 29.898 70.234 30.027 70.305 30.221 C 70.376 30.413 70.321 30.634 70.171 30.766 z " fill-opacity="0.05" stroke-opacity="0.05"/>
<linearGradient gradientTransform="matrix(1 0 0 -1 -300.9004 -120.5996)" gradientUnits="userSpaceOnUse" x1="362.2363" x2="362.2363" y1="-162.084" y2="-144.0859">
<stop offset="0" stop-color="#cccac6"/>
<stop offset="1" stop-color="#ffffff"/>
</linearGradient>
<path d="M 70.171 30.766 L 65.520996 34.907 L 67.14 40.77 C 67.194 40.968 67.125 41.181 66.967 41.303 C 66.885 41.366 66.786 41.399 66.689 41.401 C 66.598 41.402 66.506004 41.374 66.429 41.322 L 61.527 38.017 L 56.4 41.409 C 56.324 41.461 56.237003 41.485 56.151 41.485 C 56.048 41.486 55.946 41.453 55.857 41.382 C 55.701004 41.256 55.637 41.04 55.697 40.841 L 57.485 34.973 L 52.517 30.917 C 52.36 30.789 52.297 30.568 52.362003 30.37 C 52.425003 30.172998 52.602005 30.039 52.805004 30.037998 L 58.979004 29.976995 L 60.838005 23.829998 C 60.89901 23.628998 61.074005 23.492 61.276005 23.485998 L 61.285004 23.485998 C 61.48301 23.483995 61.663 23.611998 61.732 23.804 L 63.95 29.938 L 69.86 29.901 C 70.058 29.898 70.234 30.027 70.305 30.221 C 70.376 30.413 70.321 30.634 70.171 30.766 z " fill="#f4f4f4" fill-opacity="1"/>
</svg>
