<?xml version="1.0" encoding="UTF-8"?>
<svg xmlns="http://www.w3.org/2000/svg" xmlns:xlink="http://www.w3.org/1999/xlink" baseProfile="tiny" contentScriptType="text/ecmascript" contentStyleType="text/css" height="96px" preserveAspectRatio="xMidYMid meet" version="1.1" viewBox="0 0 96 96" width="96px" x="0px" y="0px" zoomAndPan="magnify">
<defs>
<linearGradient id="linearGradient3825">
<stop offset="0" stop-color="#aab9c4" stop-opacity="1"/>
<stop offset="1" stop-color="#a1b2bd" stop-opacity="1"/>
</linearGradient>
<linearGradient gradientTransform="matrix(0,1,-1,0,96,0)" gradientUnits="userSpaceOnUse" id="linearGradient3831" x1="8" x2="88" y1="48" y2="48">
<stop offset="0" stop-color="#aab9c4" stop-opacity="1"/>
<stop offset="1" stop-color="#a1b2bd" stop-opacity="1"/>
</linearGradient>
</defs>
<path d="M 88.0 49.0 C 88.0 78.634 77.639 89.0 48.0 89.0 C 18.365 89.0 8.0 78.634 8.0 49.0 C 8.0 19.365995 18.365 9.0 48.0 9.0 C 77.637 9.0 88.0 19.366 88.0 49.0 z " fill-opacity="0.4" stroke-opacity="0.4"/>
<linearGradient gradientTransform="matrix(1 0 0 1 193.9253 -815.8408)" gradientUnits="userSpaceOnUse" x1="-145.9253" x2="-145.9253" y1="903.8408" y2="823.8408">
<stop offset="0" stop-color="#596275"/>
<stop offset="1" stop-color="#b2c3ce"/>
</linearGradient>
<path d="M 48.0 88.0 C 18.366 88.0 8.0 77.639 8.0 48.0 C 8.0 18.365 18.366 8.0 48.0 8.0 C 77.634 8.0 88.0 18.365 88.0 48.0 C 88.0 77.637 77.634 88.0 48.0 88.0 z " fill="url(#linearGradient3831)" fill-opacity="1.0"/>
<linearGradient gradientTransform="matrix(1 0 0 1 193.9253 -815.8408)" gradientUnits="userSpaceOnUse" id="SVGID_2_" x1="-145.9253" x2="-145.9253" y1="824.0938" y2="903.3385">
<stop offset="0" stop-color="#ffffff"/>
<stop offset="1" stop-color="#ffffff" stop-opacity="0"/>
</linearGradient>
<path d="M 48.0 8.0 C 18.365 8.0 8.0 18.366 8.0 48.0 C 8.0 77.634 18.365 88.0 48.0 88.0 C 77.639 88.0 88.0 77.634 88.0 48.0 C 88.0 18.365995 77.637 8.0 48.0 8.0 z M 48.0 87.0 C 18.842 87.0 9.0 77.159 9.0 48.0 C 9.0 18.842 18.842 9.0 48.0 9.0 C 77.158005 9.0 87.0 18.842 87.0 48.0 C 87.0 77.159 77.158 87.0 48.0 87.0 z " fill="url(#SVGID_2_)" fill-opacity="0.15"/>
<path d="M 47.646 49.148 C 47.714 49.074997 47.789 49.003 47.865 48.934 C 48.062 48.735996 48.375 48.216 48.349003 47.929996 C 48.339005 47.809 48.251003 47.435 47.646004 46.851 L 47.646004 49.148 z " fill-opacity="0.02"/>
<linearGradient gradientUnits="userSpaceOnUse" x1="28" x2="28" y1="48" y2="8">
<stop offset="0" stop-color="#b80568"/>
<stop offset="1" stop-color="#ff3f77"/>
</linearGradient>
<path d="M 48.0 8.0 C 18.365 8.0 8.0 18.367 8.0 48.0 L 48.0 48.0 L 48.0 8.0 z " fill="#e53b66" fill-opacity="1"/>
<path d="M 48.81356 7.8983054 C 48.47356 7.8983054 48.14756 7.9073057 47.81356 7.9103055 L 47.81356 87.888306 C 48.14756 87.890305 48.47356 87.89831 48.81356 87.89831 L 48.81356 7.8983054 z " fill-opacity="0.2" stroke-opacity="0.2"/>
<path d="M 7.9103055 48.01695 C 7.906306 48.351948 7.8983054 48.67695 7.8983054 49.01695 L 87.89831 49.01695 C 87.89831 48.67695 87.888306 48.351948 87.88631 48.01695 L 7.9103055 48.01695 z " fill-opacity="0.2" stroke-opacity="0.2"/>
<rect fill="none" height="80" width="80" x="8" y="8"/>
<path d="M 40.539 75.086 C 33.191 75.086 27.385002 70.782 27.320002 65.289 C 27.285002 62.401 28.797 59.754 31.578 57.833 C 33.996 56.16 37.172 55.216 40.519 55.177 L 40.73 55.176003 C 42.22 55.176003 43.662 55.35 45.031 55.693 L 45.031 27.319 C 45.031 26.512 45.363 25.727 45.941 25.166 C 46.504997 24.62 47.247997 24.319 48.031 24.319 C 49.209 24.352 59.543 24.718 68.379 27.399 C 69.652 27.786 70.508 28.939 70.508 30.27 L 70.508 40.754 C 70.508 41.694 70.059 42.592003 69.307 43.155003 C 68.787 43.542004 68.149 43.754 67.508 43.754 C 67.225 43.754 66.939995 43.713 66.663994 43.633003 C 62.288994 42.336 57.513992 41.640003 53.960995 41.271004 L 53.960995 64.618004 C 53.960995 64.678 53.958996 64.73701 53.95499 64.795006 C 53.958996 64.869 53.960995 64.938 53.960995 65.007 C 54.026997 70.468 48.105995 74.994 40.759995 75.08501 L 40.539 75.086 z " fill-opacity="0.05" stroke-opacity="0.05"/>
<path d="M 40.539 74.086 C 33.746 74.086 28.379002 70.216995 28.320002 65.277 C 28.289 62.733 29.648 60.381 32.146 58.656 C 34.402 57.094 37.38 56.214 40.531 56.177 L 40.736 56.176003 C 42.593 56.176003 44.396 56.469 46.031 57.031 L 46.031 27.319 C 46.031 26.781 46.252 26.257 46.637997 25.883 C 47.012997 25.519 47.506996 25.319 48.031 25.319 C 49.222 25.353 59.412 25.724 68.088 28.356 C 68.938 28.614 69.508 29.382 69.508 30.27 L 69.508 40.754 C 69.508 41.38 69.20899 41.979 68.70699 42.355003 C 68.35899 42.614 67.93599 42.754 67.508 42.754 C 67.31899 42.754 67.129 42.727 66.94399 42.673 C 62.130993 41.246 56.85599 40.527 52.96199 40.167 L 52.96199 64.617004 C 52.96199 64.676 52.95799 64.733 52.95399 64.79 C 52.95999 64.868004 52.96199 64.936005 52.96199 65.006004 C 53.02299 69.922005 47.54399 74.00001 40.74899 74.08401 L 40.539 74.086 L 40.539 74.086 z " fill-opacity="0.05" stroke-opacity="0.05"/>
<path d="M 40.539 73.086 C 34.299004 73.086 29.371002 69.651 29.320002 65.266 C 29.293 63.066 30.498 61.01 32.715 59.479 C 34.809 58.03 37.59 57.212 40.543 57.177 L 40.74 57.176003 C 43.017 57.176003 45.191 57.645004 47.031 58.516003 L 47.031 27.319 C 47.031 27.048 47.14 26.79 47.334 26.601 C 47.522 26.42 47.772 26.319 48.031 26.319 C 48.040997 26.319 48.051 26.319 48.06 26.319 C 49.178997 26.352 59.241997 26.717 67.798 29.313 C 68.21999 29.441 68.507 29.83 68.507 30.27 L 68.507 40.754 C 68.507 41.069 68.35899 41.366 68.106995 41.556 C 67.93099 41.686 67.71999 41.754 67.507 41.754 C 67.410995 41.754 67.31799 41.74 67.224 41.713 C 61.742 40.088 55.66 39.378 51.96 39.076 L 51.96 64.617004 C 51.96 64.670006 51.955997 64.721 51.948 64.771 C 51.955997 64.861 51.96 64.93301 51.96 65.005005 C 52.013 69.37701 46.978 73.006004 40.733 73.08301 L 40.539 73.086 z " fill-opacity="0.1" stroke-opacity="0.1"/>
<path d="M 67.508 30.271 C 59.154003 27.736 49.356003 27.359 48.03101 27.32 L 48.03101 28.172 L 48.03101 37.842 L 48.03101 60.237 C 46.13501 58.938 43.486008 58.143 40.554005 58.178 C 34.85701 58.246 30.273005 61.414 30.320004 65.255005 C 30.365004 69.09601 35.023003 72.15201 40.722004 72.086006 C 46.423004 72.01601 51.007004 68.850006 50.960003 65.008 C 50.960003 64.87701 50.939003 64.748 50.927 64.619 L 50.960003 64.619 L 50.960003 37.999 C 54.761 38.265 61.468 38.964 67.507 40.755 L 67.507 30.271 z " fill-opacity="0.1" stroke-opacity="0.1"/>
<linearGradient gradientUnits="userSpaceOnUse" x1="48.9136" x2="48.9136" y1="30.1836" y2="95.7186">
<stop offset="0" stop-color="#fafcef"/>
<stop offset="0.3232" stop-color="#fafcef"/>
<stop offset="1" stop-color="#d0cbc5"/>
</linearGradient>
<path d="M 67.508 27.653 C 59.154003 25.118 49.356003 24.741 48.03101 24.702 L 48.03101 25.554 L 48.03101 35.224 L 48.03101 57.619 C 46.13501 56.32 43.486008 55.525 40.554005 55.56 C 34.85701 55.628 30.273005 58.796 30.320004 62.636997 C 30.365004 66.478 35.023003 69.534 40.722004 69.468 C 46.423004 69.398 51.007004 66.231995 50.960003 62.389996 C 50.960003 62.258995 50.939003 62.129997 50.927 62.000996 L 50.960003 62.000996 L 50.960003 35.382 C 54.761 35.648 61.468 36.347 67.507 38.138 L 67.507 27.653 z " fill="#ffffff" fill-opacity="1"/>
<linearGradient gradientUnits="userSpaceOnUse" x1="39.7266" x2="39.7266" y1="70.2188" y2="61.4994">
<stop offset="0" stop-color="#000000"/>
<stop offset="1" stop-color="#000000" stop-opacity="0"/>
</linearGradient>
<linearGradient gradientUnits="userSpaceOnUse" id="SVGID_6_" x1="50.0303" x2="50.0303" y1="58.3984" y2="58.3289">
<stop offset="0" stop-color="#000000"/>
<stop offset="1" stop-color="#000000" stop-opacity="0"/>
</linearGradient>
<path d="M 50.047 58.394 L 50.047 58.005 L 50.014 58.005 C 50.025 58.134 50.047 58.263 50.047 58.394 z " fill="url(#SVGID_6_)" fill-opacity="0.1" stroke-opacity="0.1"/>
<linearGradient gradientUnits="userSpaceOnUse" x1="59.2344" x2="59.2344" y1="37.3037" y2="31.3271">
<stop offset="0" stop-color="#000000"/>
<stop offset="1" stop-color="#000000" stop-opacity="0"/>
</linearGradient>
<rect fill="none" height="96" width="96"/>
</svg>
