<?xml version="1.0" encoding="UTF-8"?>
<svg xmlns="http://www.w3.org/2000/svg" xmlns:xlink="http://www.w3.org/1999/xlink" baseProfile="tiny" contentScriptType="text/ecmascript" contentStyleType="text/css" height="96px" preserveAspectRatio="xMidYMid meet" version="1.1" viewBox="0 0 96 96" width="96px" x="0px" y="0px" zoomAndPan="magnify">
<defs>
<linearGradient id="linearGradient3800">
<stop offset="0" stop-color="#ffffff" stop-opacity="1"/>
<stop offset="1" stop-color="#ffffff" stop-opacity="0.78431374"/>
</linearGradient>
<linearGradient>
<stop offset="0" stop-color="#efe000" stop-opacity="1"/>
<stop offset="1" stop-color="#eecd00" stop-opacity="1"/>
</linearGradient>
<linearGradient gradientUnits="userSpaceOnUse" id="linearGradient3796" x1="48.294189" x2="48.294189" y1="12.20339" y2="87.074913">
<stop offset="0" stop-color="#efe000" stop-opacity="1"/>
<stop offset="1" stop-color="#eecd00" stop-opacity="1"/>
</linearGradient>
<linearGradient gradientUnits="userSpaceOnUse" id="linearGradient3806" x1="47.997627" x2="47.997627" y1="27.433924" y2="72.387268">
<stop offset="0" stop-color="#ffffff" stop-opacity="1"/>
<stop offset="1" stop-color="#ffffff" stop-opacity="0.78431374"/>
</linearGradient>
<linearGradient gradientUnits="userSpaceOnUse" id="linearGradient3810" x1="47.997627" x2="47.997627" y1="27.433924" y2="72.387268">
<stop offset="0" stop-color="#efe000" stop-opacity="1"/>
<stop offset="1" stop-color="#eecd00" stop-opacity="1"/>
</linearGradient>
</defs>
<path d="M 87.977 48.977 C 87.977 78.611 77.614 88.977005 47.976997 88.977005 C 18.341995 88.977005 7.9769974 78.61101 7.9769974 48.977005 C 7.9769974 19.343004 18.341995 8.977005 47.976997 8.977005 C 77.613 8.977 87.977 19.343 87.977 48.977 z " fill-opacity="0.4"/>
<rect fill="none" height="96" width="96" x="-0.023"/>
<linearGradient gradientTransform="matrix(1 0 0 1 -710.3984 -1489.6016)" gradientUnits="userSpaceOnUse" x1="758.4219" x2="758.4219" y1="1505.5244" y2="1573.8799">
<stop offset="0" stop-color="#6fa519"/>
<stop offset="1" stop-color="#064c00"/>
</linearGradient>
<path d="M 88.023 48.0 C 88.023 77.633 77.66 88.0 48.023003 88.0 C 18.388002 88.0 8.023003 77.633 8.023003 48.0 C 8.023003 18.366 18.388002 8.0 48.023003 8.0 C 77.66 8.0 88.023 18.366 88.023 48.0 z " fill="url(#linearGradient3796)" fill-opacity="1"/>
<linearGradient gradientTransform="matrix(1 0 0 1 -710.3984 -1489.6016)" gradientUnits="userSpaceOnUse" id="SVGID_2_" x1="758.376" x2="758.376" y1="1497.8516" y2="1577.0972">
<stop offset="0" stop-color="#ffffff"/>
<stop offset="1" stop-color="#ffffff" stop-opacity="0"/>
</linearGradient>
<path d="M 47.977 8.0 C 18.342 8.0 7.977001 18.366 7.977001 48.0 C 7.977001 77.633 18.342 88.0 47.977 88.0 C 77.613 88.0 87.977005 77.633 87.977005 48.0 C 87.977 18.366 77.613 8.0 47.977 8.0 z M 47.977 87.0 C 18.819 87.0 8.977001 77.158 8.977001 48.0 C 8.977001 18.842005 18.819 9.0 47.977 9.0 C 77.135 9.0 86.977005 18.842 86.977005 48.0 C 86.977005 77.158005 77.135 87.0 47.977 87.0 z " fill="url(#SVGID_2_)" fill-opacity="0.25"/>
<path d="M 48.001 26.395 C 38.344 26.395 30.487 34.251 30.487 43.907 C 30.487 51.150997 42.272 75.475 48.001 75.475 C 53.729 75.475 65.512 51.151 65.512 43.907 C 65.512 34.25 57.656 26.395 48.001 26.395 z M 40.463 46.129 C 41.994 47.199 43.677 48.335003 44.493 48.779003 C 44.791 48.943005 45.133 49.029003 45.474 49.029003 C 45.947 49.029003 46.406 48.865 46.767 48.570004 C 47.833 47.704 51.442997 44.556004 54.495 41.875004 L 45.032997 52.882004 L 40.463 46.129 z " fill-opacity="0.07"/>
<path d="M 48.001 26.908 C 38.627 26.908 31.001 34.534 31.001 43.907 C 31.001 51.494003 42.961 74.961 48.001 74.961 C 53.041 74.961 64.998 51.494 64.998 43.907 C 64.998 34.534 57.373 26.908 48.001 26.908 z M 44.825 53.492 L 39.494 45.537003 C 39.39 45.385 39.384 45.19 39.475 45.042004 C 39.532997 44.952003 39.587997 44.92 39.625 44.910004 C 41.511 46.257004 43.793 47.814003 44.736 48.329 C 44.962 48.451004 45.216 48.517 45.472 48.517 C 45.826 48.517 46.171 48.392 46.443 48.172 C 47.797 47.072 53.294 42.255 56.548 39.381 C 56.569 39.375 56.589 39.372 56.61 39.372 C 56.665 39.372 56.729 39.412003 56.772 39.468 C 56.893 39.638 56.884 39.879 56.753 40.033 L 45.148 53.537 C 45.118 53.57 45.071 53.608997 44.989 53.611 C 44.946 53.609 44.88 53.574 44.825 53.492 z " fill-opacity="0.1"/>
<path d="M 48.0 27.42 C 38.909 27.42 31.514 34.816 31.514 43.906 C 31.514 51.899 43.685 74.448 48.0 74.448 C 52.314 74.448 64.486 51.900997 64.486 43.906 C 64.486 34.816 57.09 27.42 48.0 27.42 z M 44.396 53.779 L 39.065 45.821 C 38.851 45.502 38.841 45.089 39.041 44.77 C 39.193 44.526 39.418 44.389 39.671 44.389 C 39.716 44.389 39.763 44.396 39.804 44.404 C 41.649 45.726 44.036 47.361 44.985 47.878 C 45.134 47.96 45.304 48.003 45.475 48.003 C 45.711 48.003 45.941 47.921 46.121 47.774 C 47.472004 46.679996 52.939003 41.889 56.257004 38.956997 C 56.264004 38.952995 56.270004 38.948 56.278004 38.941 C 56.384003 38.887997 56.501003 38.858997 56.614 38.858997 C 56.835003 38.858997 57.046 38.974 57.19 39.169 C 57.45 39.531 57.432003 40.034 57.145004 40.365997 L 45.541004 53.865997 C 45.395004 54.035995 45.195004 54.12 44.957005 54.12 C 44.74 54.109 44.531 53.98 44.396 53.779 z " fill-opacity="0.15"/>
<path d="M 48.001 27.933 C 39.192 27.933 32.026 35.1 32.026 43.907 C 32.026 52.269 44.409 73.935 48.001 73.935 C 51.591 73.935 63.973 52.268997 63.973 43.907 C 63.973 35.1 56.807 27.933 48.001 27.933 z M 44.921 54.635 C 44.547 54.609997 44.193 54.399 43.971 54.063 L 38.64 46.106 C 38.317 45.621 38.301 44.990997 38.604 44.501 C 38.85 44.105 39.239 43.879 39.671 43.879 C 39.777 43.879 39.883003 43.895996 39.998 43.927 L 40.037003 43.943996 C 41.879 45.263996 44.29 46.918995 45.228004 47.428997 C 45.305004 47.470997 45.389004 47.491997 45.473003 47.491997 C 45.589005 47.491997 45.702003 47.452995 45.796005 47.376995 C 47.167004 46.264996 52.741005 41.377995 55.940006 38.552994 C 55.951008 38.546993 55.961006 38.532993 55.975006 38.520992 C 56.172005 38.406994 56.389008 38.347992 56.60801 38.347992 C 56.994007 38.347992 57.356007 38.540993 57.602005 38.87099 C 58.002007 39.423992 57.96901 40.19299 57.533005 40.701992 L 45.93 54.199 C 45.696 54.476 45.36 54.635 44.925 54.635 L 44.921 54.635 z " fill-opacity="0.15"/>
<linearGradient gradientTransform="matrix(1 0 0 1 -355.1992 -744.8008)" gradientUnits="userSpaceOnUse" x1="403.1992" x2="403.1992" y1="772.2197" y2="817.1963">
<stop offset="0" stop-color="#f9faee"/>
<stop offset="0.3232" stop-color="#f9faee"/>
<stop offset="1" stop-color="#cfcbc5"/>
</linearGradient>
<path d="M 48.001 27.42 C 39.46 27.42 32.54 34.343 32.54 42.881 C 32.54 51.42 44.91 72.397 48.001 72.397 C 51.089 72.397 63.459 51.419003 63.459 42.881004 C 63.459 34.343006 56.541 27.42 48.001 27.42 z M 57.918 40.008 L 46.321 53.504 C 45.987 53.9 45.503 54.123 45.001 54.123 C 44.958 54.123 44.924 54.123 44.888 54.121 C 44.347 54.086 43.852 53.785004 43.544 53.324 L 38.212997 45.366 C 37.78 44.717003 37.756996 43.870003 38.171 43.204 C 38.505997 42.667004 39.061996 42.343 39.671997 42.343 C 39.834995 42.343 39.984997 42.367 40.143997 42.410004 L 40.243996 42.438004 L 40.335995 42.501003 C 42.347996 43.943005 44.62899 45.493004 45.474995 45.953003 C 46.790993 44.886 52.056995 40.273003 55.59399 37.15 L 55.626995 37.123 L 55.65599 37.092003 C 55.944996 36.908005 56.274994 36.81 56.610996 36.81 C 57.157997 36.81 57.673996 37.08 58.022995 37.547 C 58.555 38.286 58.518 39.317 57.918 40.008 z " fill="url(#linearGradient3810)" fill-opacity="1"/>
<path d="M 48.001 27.42 C 39.46 27.42 32.54 34.343 32.54 42.881 C 32.54 51.42 44.91 72.397 48.001 72.397 C 51.089 72.397 63.459 51.419003 63.459 42.881004 C 63.459 34.343006 56.541 27.42 48.001 27.42 z M 57.918 40.008 L 46.321 53.504 C 45.987 53.9 45.503 54.123 45.001 54.123 C 44.958 54.123 44.924 54.123 44.888 54.121 C 44.347 54.086 43.852 53.785004 43.544 53.324 L 38.212997 45.366 C 37.78 44.717003 37.756996 43.870003 38.171 43.204 C 38.505997 42.667004 39.061996 42.343 39.671997 42.343 C 39.834995 42.343 39.984997 42.367 40.143997 42.410004 L 40.243996 42.438004 L 40.335995 42.501003 C 42.347996 43.943005 44.62899 45.493004 45.474995 45.953003 C 46.790993 44.886 52.056995 40.273003 55.59399 37.15 L 55.626995 37.123 L 55.65599 37.092003 C 55.944996 36.908005 56.274994 36.81 56.610996 36.81 C 57.157997 36.81 57.673996 37.08 58.022995 37.547 C 58.555 38.286 58.518 39.317 57.918 40.008 z " fill="url(#linearGradient3806)" fill-opacity="1"/>
</svg>
