<?xml version="1.0" encoding="UTF-8"?>
<svg xmlns="http://www.w3.org/2000/svg" xmlns:xlink="http://www.w3.org/1999/xlink" baseProfile="tiny" contentScriptType="text/ecmascript" contentStyleType="text/css" height="96px" preserveAspectRatio="xMidYMid meet" version="1.1" viewBox="0 0 96 96" width="96px" x="0px" y="0px" zoomAndPan="magnify">
<defs>
<linearGradient id="linearGradient3848">
<stop offset="0" stop-color="#00c8e9" stop-opacity="1"/>
<stop offset="1" stop-color="#46b1fc" stop-opacity="1"/>
</linearGradient>
<linearGradient gradientUnits="userSpaceOnUse" id="linearGradient3854" x1="47.864407" x2="47.864407" y1="8.9491529" y2="87.458092">
<stop offset="0" stop-color="#00c8e9" stop-opacity="1"/>
<stop offset="1" stop-color="#46b1fc" stop-opacity="1"/>
</linearGradient>
</defs>
<rect fill="none" height="96" width="96"/>
<path d="M 88.0 49.0 C 88.0 78.635 77.637 89.0 48.0 89.0 C 18.365 89.0 8.0 78.635 8.0 49.0 C 8.0 19.367 18.365 9.0 48.0 9.0 C 77.637 9.0 88.0 19.367 88.0 49.0 z " fill-opacity="0.4" stroke-opacity="0.4"/>
<linearGradient gradientTransform="matrix(1 0 0 -1 -258 -251)" gradientUnits="userSpaceOnUse" x1="306" x2="306" xlink:actuate="onLoad" xlink:show="other" xlink:type="simple" y1="-339" y2="-259">
<stop offset="0" stop-color="#02598b"/>
<stop offset="0.253" stop-color="#026d98"/>
<stop offset="0.7688" stop-color="#01a1bb"/>
<stop offset="1" stop-color="#00bacc"/>
</linearGradient>
<path d="M 88.0 48.0 C 88.0 77.635 77.637 88.0 48.0 88.0 C 18.365 88.0 8.0 77.635 8.0 48.0 C 8.0 18.367 18.365 8.0 48.0 8.0 C 77.637 8.0 88.0 18.367 88.0 48.0 z " fill="url(#linearGradient3854)" fill-opacity="1"/>
<rect fill="none" height="80" width="80" x="7.953" y="8"/>
<path d="M 79.412 77.502 C 78.31201 76.309 77.01601 75.305 75.70101 74.615 C 72.482 72.739 69.07201 71.078995 65.564 69.676994 C 64.060005 69.076 62.851 67.83099 61.972004 65.978 C 61.853004 65.728 61.755005 65.478 61.681004 65.23399 C 62.341003 64.409996 62.939003 63.469994 63.509003 62.36499 C 64.291 60.833996 64.761 59.323994 65.128006 58.059994 C 67.23801 56.602993 67.978004 53.991993 68.34501 52.69099 L 68.36801 52.60099 C 68.418015 52.421993 68.487015 52.206993 68.60001 51.856995 L 68.639015 51.733994 C 69.030014 50.520992 69.56302 48.858994 69.80901 47.251995 C 70.19801 44.730995 69.666016 43.013996 69.06501 41.944996 C 69.15301 41.485996 69.28901 40.76099 69.30501 40.668995 C 69.531006 39.442993 69.64101 38.319996 69.645004 37.233994 C 69.645004 36.887993 69.659004 36.541992 69.66901 36.23999 C 69.73201 34.944996 68.72301 29.356997 67.66301 27.046991 C 66.70201 24.941994 65.23401 22.312992 62.39401 20.667994 C 60.534008 19.588991 58.68901 19.031994 56.90701 18.492994 L 56.8 18.459 C 56.493 18.367 56.19 18.275 55.891 18.18 C 55.452 18.04 55.006 17.893 54.504 17.723 C 51.975 16.875 49.357 16.0 46.285 16.0 C 45.871 16.0 45.458 16.016 45.044 16.052 C 43.489 16.182 42.245 16.636 41.232 17.006 C 40.987 17.096 40.736 17.19 40.497 17.258 L 40.397 17.252 C 40.096 17.234 39.794 17.219 39.493 17.219 C 38.917 17.219 38.386 17.27 37.871 17.37 C 34.936996 17.949 33.546997 20.016 32.967 21.043 C 30.579998 22.077 29.443998 24.148 28.888 25.162998 L 28.749 25.409998 C 26.974998 28.598995 26.19 35.011997 26.238 35.806 C 26.242998 35.89 26.242998 36.06 26.245 36.385 L 26.248 36.776997 C 26.257 38.137997 26.266 38.614 26.286 38.81 C 26.289 40.114 26.41 41.425 26.646 42.715996 C 25.936 44.377995 25.909 46.438995 26.558 48.992996 C 26.574 49.056995 26.62 49.277996 26.644 49.394997 C 27.397 52.978996 28.139002 55.876995 30.121 57.603996 C 30.492 58.89899 30.892 60.184 31.521 61.545 C 32.195 63.01 32.899 64.187996 33.713 65.205 C 33.621 65.557 33.513 65.966 33.510002 65.976006 C 33.284 66.906006 32.836002 67.718 32.212 68.328 C 31.483002 69.042 30.284002 69.547005 28.759005 70.18701 L 28.662004 70.228004 C 28.284002 70.386 27.906002 70.546005 27.536003 70.71001 L 27.018003 70.939 C 24.043003 72.256004 20.968002 73.62 18.152004 75.699005 C 17.354004 76.29001 16.699005 77.157005 16.144005 78.30801 C 22.386 85.184 32.579 88.0 48.0 88.0 C 63.486 88.0 73.70101 85.161 79.934 78.23 C 79.758 77.939 79.589 77.691 79.412 77.502 z " fill-opacity="0.02" stroke-opacity="0.02"/>
<path d="M 78.677 78.18 C 77.655 77.071 76.438 76.129 75.198 75.481 C 72.022995 73.629005 68.657 71.991005 65.195 70.608 C 63.449 69.912 62.06 68.499 61.07 66.41 C 60.841 65.93101 60.675 65.434006 60.591 64.977005 C 60.687 64.872 60.779 64.76401 60.868 64.65301 C 61.5 63.870007 62.072 62.973007 62.619 61.912006 C 63.411 60.362007 63.854 58.869007 64.272 57.424007 C 66.305 56.230007 67.020004 53.70001 67.378006 52.433006 L 67.40401 52.335007 C 67.461006 52.132008 67.54201 51.883007 67.646 51.556007 L 67.68301 51.44301 C 68.06201 50.25901 68.58301 48.63801 68.82101 47.10301 C 69.19501 44.667007 68.646 43.099007 68.01101 42.140007 C 68.01101 42.140007 68.29401 40.632008 68.32101 40.49101 C 68.536 39.32501 68.64001 38.26001 68.644005 37.23401 C 68.644005 36.87701 68.658005 36.51701 68.66901 36.195007 C 68.72201 35.13801 67.79401 29.741009 66.753006 27.466007 C 65.853004 25.494007 64.48501 23.039007 61.894005 21.537006 C 60.136005 20.517006 58.347004 19.976006 56.618004 19.454006 L 56.51 19.421003 C 56.197 19.327003 55.889004 19.233006 55.584003 19.137005 C 55.139004 18.995005 54.689003 18.845003 54.186005 18.675003 C 51.734 17.85 49.195 17.0 46.285 17.0 C 45.898 17.0 45.514 17.016 45.127 17.048 C 43.705 17.167 42.58 17.578 41.585 17.942 C 41.254997 18.063 40.915 18.188 40.599 18.266 C 40.528 18.262 40.447 18.256998 40.337997 18.249998 C 40.058 18.231998 39.775 18.218998 39.492996 18.218998 C 38.979996 18.218998 38.512997 18.263998 38.063995 18.351995 C 35.337994 18.890997 34.149994 20.945995 33.670994 21.836998 C 31.389994 22.681995 30.337994 24.596 29.759996 25.649998 L 29.621994 25.895998 C 27.948994 28.903996 27.195992 35.088997 27.235994 35.754 C 27.240992 35.849 27.241997 36.044 27.243994 36.378 L 27.246994 36.773 C 27.254992 38.051 27.263994 38.558 27.284994 38.81 C 27.287994 40.161 27.423994 41.515 27.686996 42.844997 C 26.948994 44.333996 26.896994 46.275 27.527994 48.754997 C 27.548994 48.837997 27.620996 49.188995 27.621994 49.192997 C 28.361994 52.714996 29.091991 55.553997 30.996994 57.034996 C 31.370996 58.354996 31.774994 59.716995 32.428993 61.131996 C 33.149994 62.696995 33.91299 63.929996 34.80899 64.964 C 34.765995 65.143 34.481995 66.218994 34.481995 66.218994 C 34.210995 67.33099 33.668995 68.30899 32.912994 69.047 C 32.047993 69.897 30.768991 70.434 29.149994 71.113 L 29.052994 71.154 C 28.679996 71.31 28.306992 71.467 27.941994 71.631 L 27.425991 71.85999 C 24.499992 73.15699 21.474993 74.496994 18.746994 76.508995 C 17.993994 77.06699 17.381994 77.926994 16.871994 79.1 C 23.168 85.404 33.171 88.0 48.0 88.0 C 62.909 88.0 72.938 85.373 79.227 78.992 C 79.048 78.665 78.873 78.391 78.677 78.18 z " fill-opacity="0.03" stroke-opacity="0.03"/>
<path d="M 48.0 88.0 C 62.337 88.0 72.152 85.562 78.47901 79.704 C 78.315 79.366005 78.145004 79.07601 77.942 78.857 C 76.998 77.832 75.86 76.955 74.694 76.342 C 71.565 74.517006 68.244 72.9 64.825 71.534004 C 62.837997 70.740005 61.269997 69.16 60.167995 66.836006 C 59.813995 66.091 59.592995 65.310005 59.540997 64.631004 C 59.730995 64.439 59.92 64.235 60.092995 64.023 C 60.684994 63.291004 61.21899 62.451004 61.731995 61.455 C 62.505993 59.941 62.938995 58.451 63.356995 57.005 L 63.436996 56.734 C 65.377 55.855 66.07 53.404 66.417 52.171 L 66.446 52.063 C 66.511 51.829 66.608 51.535 66.735 51.136 C 67.106 49.985 67.612 48.407 67.838 46.95 C 68.198 44.603 67.634 43.204 66.952995 42.382 C 67.08399 41.688 67.30699 40.503 67.342995 40.309 C 67.546 39.204 67.648 38.196 67.649994 37.231 C 67.65199 36.86 67.66499 36.487 67.676994 36.145 C 67.716995 35.331 66.841995 30.046 65.851 27.879002 C 65.012 26.043 63.748997 23.761002 61.4 22.400002 C 59.744 21.439 58.01 20.916002 56.336 20.409002 C 55.982 20.303 55.632 20.197002 55.287 20.088003 C 54.837 19.943005 54.383 19.792004 53.884 19.624002 C 51.499 18.825 49.037 18.0 46.285 18.0 C 45.928 18.0 45.57 18.014 45.211 18.044 C 43.921997 18.152 42.871 18.536 41.93 18.88 C 41.507 19.035002 41.107 19.182 40.701 19.268002 C 40.578 19.268002 40.455 19.259 40.277 19.248 C 40.017 19.232 39.755 19.219002 39.493 19.219002 C 39.049 19.219002 38.644 19.256002 38.258 19.333002 C 35.891 19.800003 34.915 21.629002 34.498 22.412004 C 34.455 22.492002 34.415 22.572002 34.378 22.656002 C 32.197002 23.291002 31.227 25.056002 30.635002 26.135002 L 30.497002 26.383 C 28.947002 29.169 28.199 35.096 28.236002 35.703003 C 28.242002 35.816 28.243002 36.064003 28.245005 36.371 L 28.248005 36.767 C 28.255005 37.956 28.264004 38.573 28.286003 38.759003 C 28.286003 40.181004 28.439005 41.607 28.742002 42.999 C 27.965002 44.292 27.887005 46.101 28.499002 48.509003 C 28.517002 48.576004 28.602003 48.986004 28.602003 48.986004 C 29.331003 52.458004 30.048002 55.238003 31.866005 56.425003 C 32.258003 57.812004 32.663002 59.247 33.339005 60.712 C 34.103004 62.370003 34.922005 63.640003 35.894005 64.669 C 35.860004 64.876 35.783005 65.232 35.617004 65.843 C 35.560005 66.054 35.506004 66.255005 35.456005 66.454 C 35.141006 67.747 34.505005 68.89 33.615005 69.76 C 32.611004 70.74301 31.201006 71.335 29.529003 72.038 C 29.134005 72.204 28.738005 72.37 28.348003 72.544 L 27.833006 72.772995 C 24.955006 74.046 21.979006 75.366 19.344006 77.312 C 18.659006 77.81799 18.105003 78.65199 17.645006 79.815994 C 23.973 85.596 33.755 88.0 48.0 88.0 z " fill-opacity="0.05" stroke-opacity="0.05"/>
<path d="M 48.0 88.0 C 61.762 88.0 71.361 85.76 77.705 80.398 C 77.566 80.051 77.411 79.754005 77.206 79.535 C 76.339005 78.594 75.283005 77.782005 74.189 77.208 C 71.103004 75.408 67.827 73.812 64.451004 72.465 C 62.222004 71.574 60.47601 69.827 59.263004 67.27 C 58.771004 66.237 58.506004 65.139 58.529003 64.23499 C 58.582005 64.175995 58.652004 64.107994 58.741005 64.01799 C 58.937004 63.82099 59.13501 63.61899 59.312004 63.39699 C 59.859005 62.71699 60.359005 61.93399 60.83701 61.00099 C 61.567005 59.57099 61.98301 58.13999 62.39201 56.729992 C 62.466007 56.47399 62.539005 56.21899 62.615005 55.96799 C 64.437004 55.492992 65.10901 53.11299 65.451004 51.90499 L 65.482 51.791992 C 65.554 51.532993 65.662 51.20499 65.782005 50.832993 C 66.142006 49.71099 66.635 48.17499 66.84701 46.80099 C 67.19301 44.55299 66.615005 43.34899 65.87001 42.70599 C 65.87001 42.70599 66.30601 40.40899 66.35401 40.12899 C 66.54501 39.08099 66.641014 38.13399 66.64501 37.229992 C 66.64501 36.844994 66.65901 36.46099 66.67201 36.096992 C 66.70201 35.485992 65.86901 30.338991 64.93601 28.295992 C 64.16001 26.594992 62.998013 24.484991 60.893013 23.266993 C 59.336018 22.366993 57.663013 21.858994 56.039013 21.369991 C 55.682014 21.261992 55.32601 21.153994 54.978012 21.043991 C 54.511013 20.896994 54.04101 20.737991 53.56201 20.576992 C 51.262 19.799 48.876 19.0 46.285 19.0 C 45.956 19.0 45.626 19.014 45.295 19.041 C 44.14 19.139 43.163 19.494 42.287 19.814 C 41.834 19.978 41.406 20.135 40.989 20.242 C 40.925 20.259 40.828 20.265 40.701 20.265 C 40.548 20.265 40.393 20.255 40.217 20.244 C 39.976997 20.229002 39.735 20.217 39.493 20.217 C 39.115 20.217 38.773 20.248 38.451 20.314 C 36.549 20.689 35.761 22.168 35.381 22.879002 C 35.265 23.099 35.184 23.312002 35.124 23.506002 C 35.077 23.515003 35.031 23.523005 34.987 23.531002 C 32.968998 23.959002 32.091 25.559002 31.509 26.617002 L 31.37 26.867002 C 29.971 29.382002 29.2 35.115 29.232998 35.645004 C 29.240995 35.791004 29.242 36.139004 29.244995 36.551003 L 29.246998 36.757004 C 29.252998 37.725 29.259998 38.492004 29.284998 38.756004 C 29.284998 40.252003 29.462996 41.744003 29.812998 43.201004 C 29.806995 43.209003 29.801 43.217003 29.794 43.222004 C 28.98 44.273003 28.871998 45.919003 29.466 48.255005 C 29.491 48.355003 29.529 48.536003 29.579 48.776005 C 30.299 52.207005 31.009 54.940006 32.715 55.755005 C 32.752 55.882004 32.788002 56.011005 32.823 56.140003 C 33.205 57.494003 33.599003 58.894005 34.244003 60.289 C 35.035004 62.006 35.879 63.27 36.899 64.265 C 36.982 64.618996 36.701 65.65 36.579 66.101 C 36.523003 66.306 36.471 66.501 36.424004 66.688995 C 36.065 68.162994 35.334003 69.46999 34.312004 70.46999 C 33.172005 71.58699 31.631004 72.23399 29.953005 72.938995 C 29.552004 73.10899 29.148005 73.27899 28.750004 73.45599 L 28.239004 73.68399 C 25.410004 74.93599 22.484003 76.23099 19.935003 78.11599 C 19.339005 78.55499 18.840006 79.372986 18.436005 80.51199 C 24.781 85.789 34.34 88.0 48.0 88.0 z " fill-opacity="0.1" stroke-opacity="0.1"/>
<path d="M 48.0 88.0 C 61.188 88.0 70.551 85.939 76.893 81.051 C 76.79 80.714005 76.662 80.418 76.471 80.213005 C 75.682 79.358 74.706 78.60901 73.686 78.07201 C 70.645 76.297005 67.413994 74.72201 64.082 73.392006 C 61.609 72.406006 59.686 70.490005 58.361 67.698006 C 57.771 66.45901 57.47 65.119 57.538 64.021 C 57.55 63.816 57.684 63.664005 58.032 63.312004 C 58.205 63.140003 58.379 62.961 58.534996 62.76701 C 59.03799 62.144005 59.500996 61.415005 59.94799 60.542007 C 60.639996 59.190006 61.042995 57.79701 61.432995 56.44901 C 61.571995 55.97001 61.70499 55.50201 61.85099 55.04501 C 61.882996 55.04701 61.913994 55.04701 61.944996 55.04701 C 63.525 55.04701 64.149994 52.82301 64.488 51.62901 L 64.520996 51.51501 C 64.59699 51.24601 64.70699 50.908012 64.83099 50.52301 C 65.18199 49.43101 65.660995 47.93901 65.85899 46.64601 C 66.144 44.79401 65.774994 43.62701 64.76499 43.172012 C 64.85499 42.693012 65.27899 40.460014 65.37299 39.943012 C 65.55599 38.95301 65.644 38.06201 65.645 37.22201 C 65.646996 36.82601 65.659996 36.427013 65.673996 36.040012 C 65.69399 35.66701 64.92 30.659012 64.02799 28.706013 C 63.310993 27.140013 62.25199 25.202011 60.39299 24.126013 C 58.935993 23.282013 57.316994 22.793013 55.75099 22.319014 C 55.388992 22.210014 55.026993 22.100014 54.677994 21.989014 C 54.20499 21.840014 53.730995 21.680014 53.251995 21.518011 C 51.021 20.773 48.715 20.0 46.285 20.0 C 45.982 20.0 45.681 20.012 45.379 20.037 C 44.354 20.123 43.482 20.441 42.638 20.75 C 42.158 20.927 41.704 21.093 41.235 21.211 C 41.087 21.249 40.918 21.268 40.702 21.268 C 40.521 21.268 40.34 21.256 40.158 21.246 C 39.937 21.233 39.716 21.222 39.494 21.222 C 39.182 21.222 38.904 21.246 38.645 21.297 C 37.209 21.580002 36.618 22.691002 36.264 23.353 C 36.096 23.668 36.029 23.978 35.974 24.226 C 35.959 24.295 35.943 24.369 35.927 24.429 C 35.858 24.439 35.775997 24.445 35.712997 24.45 C 35.527996 24.464998 35.35 24.48 35.194996 24.515 C 33.624996 24.847 32.936996 26.099 32.383995 27.105 L 32.243996 27.359 C 30.943996 29.695 30.211996 35.271 30.230995 35.595 C 30.240995 35.771 30.242994 36.234 30.246996 36.757 C 30.251995 37.582 30.257996 38.437 30.284996 38.762 C 30.284996 40.367 30.499996 41.961 30.924995 43.512 C 30.798996 43.605 30.684996 43.715 30.584995 43.844 C 29.980995 44.621 29.930996 46.027 30.437996 48.021004 C 30.463997 48.127003 30.504995 48.322 30.558996 48.579 C 31.382996 52.500004 32.119995 54.730003 33.533997 54.984 C 33.621 55.281 33.705 55.579 33.788 55.877003 C 34.158997 57.193 34.543 58.555004 35.154 59.88 C 35.904 61.508 36.695 62.692 37.646 63.604 C 38.163 64.1 37.806 65.414 37.545 66.372 C 37.490997 66.569 37.441 66.759 37.397 66.935005 C 36.993 68.589005 36.168 70.064 35.013 71.19501 C 33.737 72.44501 32.111 73.130005 30.39 73.851006 C 29.978 74.02501 29.565 74.19701 29.155 74.379005 L 28.645 74.605 C 25.863998 75.836006 22.988998 77.111 20.53 78.927 C 19.886 79.404 19.454998 80.558 19.259 81.177 C 25.598 85.977 34.92 88.0 48.0 88.0 z " fill-opacity="0.2" stroke-opacity="0.2"/>
<path d="M 48.0 88.0 C 60.605 88.0 69.713 86.115 76.031 81.68 C 75.982 81.362 75.884995 81.052 75.734 80.891 C 75.009 80.104 74.129 79.436 73.181 78.936 C 70.152 77.168 66.967 75.62299 63.708 74.324 C 60.822 73.172 58.774 70.91 57.455 68.13 C 56.86 66.881996 56.453003 65.341995 56.537003 63.962997 C 56.588 63.129997 57.268 62.746 57.754 62.143997 C 58.265003 61.511 58.687 60.811996 59.056 60.089996 C 60.119 58.014996 60.468 55.782 61.279 53.639996 C 62.527 55.163994 63.334 52.028996 63.558 51.243996 C 64.068 49.455997 65.982 44.601997 64.232 44.040997 C 63.974003 43.957996 63.746 44.048996 63.573 44.247997 C 63.605003 43.818996 64.099 41.351997 64.39 39.768997 C 64.542 38.928 64.644 38.080997 64.645996 37.224 C 64.647995 36.814 64.660995 36.406 64.675995 35.995 C 64.68099 35.918 63.97599 31.002998 63.117996 29.127998 C 62.400997 27.562998 61.431995 25.891 59.890995 24.996998 C 58.206993 24.020998 56.210995 23.530998 54.372993 22.947 C 51.513992 22.04 48.518993 20.779 45.458992 21.036 C 44.020992 21.156 42.84199 21.837 41.476994 22.183 C 40.599995 22.405998 39.717995 22.103 38.833992 22.279 C 37.935993 22.456 37.54299 23.072 37.14299 23.824 C 36.93999 24.205 36.95699 24.65 36.76399 25.027 C 36.509987 25.512 35.84099 25.395998 35.39999 25.492 C 34.17199 25.752998 33.67199 26.846998 33.11599 27.845 C 31.908989 30.013 31.21999 35.409 31.22699 35.538 C 31.25199 35.976 31.23499 38.133 31.28299 38.762997 C 31.28299 40.548996 31.57199 42.404995 32.17899 44.201996 C 30.49699 43.897995 31.21999 47.047997 31.40499 47.772995 C 31.62899 48.649994 32.74199 55.205994 34.22199 53.811996 C 34.82599 55.708996 35.216988 57.629997 36.05999 59.457996 C 36.62999 60.698 37.34299 61.925995 38.33499 62.879 C 39.42699 63.925 38.67699 65.905 38.36599 67.169 C 37.92699 68.964 37.03799 70.605 35.71099 71.903 C 33.97399 73.606 31.723991 74.328 29.557993 75.289 C 26.706991 76.554 23.64199 77.864 21.12199 79.727005 C 20.74799 80.00201 20.32499 81.01 20.11799 81.785 C 26.434 86.145 35.495 88.0 48.0 88.0 z " fill-opacity="0.3" stroke-opacity="0.3"/>
<linearGradient gradientTransform="matrix(1 0 0 -1 -258 -251)" gradientUnits="userSpaceOnUse" id="SVGID_2_" x1="306" x2="306" xlink:actuate="onLoad" xlink:show="other" xlink:type="simple" y1="-259.2529" y2="-338.4985">
<stop offset="0" stop-color="#ffffff"/>
<stop offset="1" stop-color="#ffffff" stop-opacity="0"/>
</linearGradient>
<path d="M 48.0 8.0 C 18.365 8.0 8.0 18.367 8.0 48.0 C 8.0 77.635 18.365 88.0 48.0 88.0 C 77.637 88.0 88.0 77.635 88.0 48.0 C 88.0 18.367 77.637 8.0 48.0 8.0 z M 48.0 87.0 C 18.842 87.0 9.0 77.159 9.0 48.0 C 9.0 18.842 18.842 9.0 48.0 9.0 C 77.158005 9.0 87.0 18.842 87.0 48.0 C 87.0 77.159 77.158 87.0 48.0 87.0 z " fill="url(#SVGID_2_)" fill-opacity="0.25" stroke-opacity="0.25"/>
<radialGradient cx="306" cy="-284.5469" gradientTransform="matrix(1 0 0 -1 -258 -251)" gradientUnits="userSpaceOnUse" r="35.5921" xlink:actuate="onLoad" xlink:show="other" xlink:type="simple">
<stop offset="0" stop-color="#fdfef9"/>
<stop offset="0.2121" stop-color="#fdfef9"/>
<stop offset="1" stop-color="#d0cbc5"/>
</radialGradient>
<path d="M 71.0 77.0 C 67.971 75.232 66.969 74.623 63.71 73.322 C 60.823997 72.17 58.775 69.908 57.457 67.128 C 56.863 65.88 56.455 64.34 56.539 62.961 C 56.59 62.128 57.271 61.744 57.756 61.141 C 58.266 60.509 58.688 59.810997 59.059 59.087997 C 60.122 57.011997 60.471 54.779 61.280003 52.636997 C 62.528004 54.162 63.336 51.027996 63.559 50.241997 C 64.069 48.454 65.983 43.598995 64.233 43.039 C 63.975 42.955997 63.748 43.046997 63.575 43.246 C 63.608 42.816 64.1 40.351 64.391 38.767 C 64.544 37.925 64.645 37.078 64.649 36.219997 C 64.649 35.811996 64.663 35.401997 64.678 34.990997 C 64.682 34.914 63.979 29.998997 63.120003 28.123997 C 62.404003 26.559998 61.435 24.887997 59.892 23.992996 C 58.209003 23.017996 56.213 22.525995 54.375 21.943996 C 51.515 21.035995 48.521 19.773996 45.461 20.031996 C 44.023 20.152996 42.844 20.832996 41.479 21.177996 C 40.602 21.400995 39.72 21.099997 38.836 21.273996 C 37.938 21.451996 37.545 22.068996 37.144997 22.818996 C 36.942 23.200996 36.958996 23.646996 36.765995 24.021996 C 36.511993 24.507996 35.842995 24.392996 35.401997 24.486996 C 34.173996 24.748997 33.673996 25.843996 33.117996 26.840996 C 31.910995 29.008995 31.221996 34.404995 31.228996 34.533997 C 31.253996 34.972996 31.236996 37.129 31.284996 37.758995 C 31.284996 39.54499 31.573996 41.401997 32.180996 43.19799 C 30.498997 42.894993 31.221996 46.043995 31.406996 46.769993 C 31.630997 47.64699 32.743996 54.201992 34.223995 52.80899 C 34.827995 54.70499 35.21899 56.625996 36.061996 58.45499 C 36.631996 59.693993 37.344997 60.922993 38.337 61.875996 C 39.428997 62.921997 38.678997 64.90299 38.367996 66.16599 C 37.928997 67.96099 37.039997 69.60099 35.712997 70.90099 C 33.976 72.60199 31.749998 73.37999 29.559998 74.286 C 23.001 77.0 18.735 80.816 19.0 81.0 C 20.171 81.813 22.459 83.244 23.744 83.857 C 29.842 86.763 36.779 87.613 43.456 87.883 C 51.003 88.191 58.829 87.982 66.17 86.041 C 68.994 85.295 71.754 84.254 74.279 82.776 C 74.838 82.453 76.468 81.368 77.0 81.0 C 77.256 80.822 73.0 78.0 71.0 77.0 z " fill="#ffffff" fill-opacity="1"/>
<path d="M 33.632 45.479 L 33.299 44.418 L 32.124 44.207 C 32.085 44.402 32.084 44.754 32.133 45.209 L 33.632 45.479 z M 62.977 44.0 L 63.881 45.418 C 63.979 44.915 64.018 44.534 63.999 44.281 L 62.977 43.0 L 62.977 44.0 z M 62.211 29.541 C 62.897 31.041 63.519997 34.917 63.654 35.879 C 63.66 35.598003 63.664 35.315 63.675 35.027 C 63.597 34.418 62.939 30.133 62.21 28.541 C 61.615997 27.243 60.761 25.652 59.392 24.859 C 58.137997 24.131 56.629997 23.676 55.174 23.236002 C 54.804 23.125002 54.437 23.013002 54.073 22.898005 C 53.592 22.746002 53.106 22.582005 52.616997 22.419004 C 50.539 21.721 48.389 21.0 46.285 21.0 C 46.039 21.0 45.793 21.01 45.547 21.029 C 44.789 21.092 44.077 21.353 43.325 21.629 C 42.818 21.815 42.295 22.006 41.726 22.15 C 41.413 22.228 41.087 22.265 40.701 22.265 C 40.48 22.265 40.26 22.252 40.039 22.241 C 39.857 22.23 39.676003 22.219 39.493 22.219 C 39.34 22.219 39.185 22.227 39.031 22.257 C 38.630997 22.336 38.425 22.549 38.029 23.292 C 37.99 23.364 37.96 23.503 37.927 23.65 C 37.875 23.885 37.811996 24.181 37.655 24.484 C 37.212997 25.336 36.337 25.404 35.867 25.439 C 35.777 25.447 35.689 25.450998 35.611 25.464998 C 34.969 25.603 34.632 26.160995 34.138 27.064 L 33.992 27.328 C 33.002 29.106998 32.306 33.721 32.231 34.546997 C 32.237 34.726997 32.240997 35.048996 32.245 35.427 C 32.362 34.362 33.039997 30.038998 33.992 28.328 L 34.138 28.064 C 34.632 27.164 34.969 26.603 35.611 26.466 C 35.689 26.449 35.777 26.445 35.867 26.441 C 36.337 26.404 37.213 26.336 37.655 25.484 C 37.812 25.181 37.876 24.884998 37.927 24.65 C 37.959 24.504 37.99 24.365 38.029 24.293 C 38.425 23.549 38.631 23.336 39.031 23.258 C 39.185 23.229 39.339996 23.219 39.493 23.219 C 39.676 23.219 39.857 23.231 40.039 23.241 C 40.26 23.254 40.480003 23.266998 40.701 23.266998 C 41.088 23.266998 41.413 23.229998 41.726 23.149998 C 42.294003 23.003998 42.818 22.813995 43.325 22.628998 C 44.077 22.353998 44.789 22.093998 45.547 22.030998 C 45.793 22.01 46.039 22.0 46.285 22.0 C 48.389 22.0 50.539 22.723 52.618 23.42 C 53.107 23.583 53.593 23.746 54.074 23.899 C 54.435 24.014 54.803 24.127 55.175003 24.237 C 56.631004 24.678 58.139004 25.133 59.393 25.862 C 60.762 26.652 61.617 28.244 62.211 29.541 z " fill="#ffffff" fill-opacity="0.2" stroke-opacity="0.2"/>
<radialGradient cx="305.8164" cy="-319.2729" gradientTransform="matrix(1 0 0 -1 -258 -251)" gradientUnits="userSpaceOnUse" r="9.2964" xlink:actuate="onLoad" xlink:show="other" xlink:type="simple">
<stop offset="0" stop-color="#000000" stop-opacity="0.5"/>
<stop offset="0.4" stop-color="#000000" stop-opacity="0.5"/>
<stop offset="1" stop-color="#595959" stop-opacity="0"/>
</radialGradient>
<path d="M 38.889 63.104 C 38.889 63.104 44.348 68.028 47.097 68.028 C 47.097 68.028 48.431 68.112 49.599 67.862 C 50.765 67.612 56.349 63.194 56.349 63.194 C 56.349 63.194 54.161 76.789 47.421997 76.772 C 40.447 76.754 38.889 63.104 38.889 63.104 z " fill="#e4e4e4" fill-opacity="1" stroke-opacity="0.3"/>
<path d="M 55.9 61.773 C 54.558 62.817997 50.943 64.793 49.976 65.0 C 48.808 65.25 47.474003 65.166 47.474003 65.166 C 45.314003 65.166 41.117004 63.227 39.571003 61.924 C 39.882004 62.552 39.94 63.255 39.874004 63.947 C 41.567005 65.347 45.065 68.027 47.097004 68.027 C 47.097004 68.027 48.431004 68.111 49.599003 67.861 C 50.495003 67.669 53.980003 65.033 55.556004 63.812 C 55.536003 63.5 55.523003 63.191 55.540005 62.9 C 55.568 62.445 55.715 62.084 55.9 61.773 z " fill="#ffffff" fill-opacity="0.05" stroke-opacity="0.05"/>
<path d="M 49.6 66.82 C 48.432 67.07 47.098 66.986 47.098 66.986 C 45.067 66.986 39.942 63.255 39.875 63.947 C 41.568 65.347 45.066 68.027 47.098 68.027 C 47.098 68.027 48.432 68.111 49.6 67.861 C 50.496 67.669 53.981 65.033 55.557 63.812 C 55.537 63.502 50.496 66.629 49.6 66.82 z " fill="#ffffff" fill-opacity="0.1" stroke-opacity="0.1"/>
<rect fill="none" height="96" width="96"/>
<path d="M 50.666 82.0 C 47.542 82.0 45.0 79.458 45.0 76.334 L 45.0 63.961 C 45.0 62.459 45.611 60.993 46.676 59.94 L 52.957 53.66 C 54.031 52.589 55.454 52.0 56.963 52.0 L 77.334 52.0 C 80.458 52.0 83.0 54.543 83.0 57.668 L 83.0 76.334 C 83.0 79.458 80.458 82.0 77.334 82.0 L 50.666 82.0 z " fill-opacity="0.02" stroke-opacity="0.02"/>
<path d="M 50.666 81.0 C 48.093 81.0 46.0 78.907 46.0 76.334 L 46.0 63.961 C 46.0 62.724 46.503 61.518 47.379 60.650997 L 53.664 54.366997 C 54.549 53.485 55.72 53.0 56.963 53.0 L 77.334 53.0 C 79.907 53.0 82.0 55.094 82.0 57.668 L 82.0 76.334 C 82.0 78.907 79.907 81.0 77.334 81.0 L 50.666 81.0 z " fill-opacity="0.05" stroke-opacity="0.05"/>
<path d="M 50.666 80.0 C 48.645 80.0 47.0 78.355 47.0 76.334 L 47.0 63.961 C 47.0 62.989 47.395 62.042 48.082 61.362 L 54.371 55.073997 C 55.066 54.381 55.987 54.0 56.963 54.0 L 77.334 54.0 C 79.355 54.0 81.0 55.646 81.0 57.668 L 81.0 76.334 C 81.0 78.355 79.355 80.0 77.334 80.0 L 50.666 80.0 z " fill-opacity="0.05" stroke-opacity="0.05"/>
<path d="M 50.666 79.0 C 49.196 79.0 48.0 77.804 48.0 76.334 L 48.0 63.961 C 48.0 63.254997 48.286 62.566 48.785 62.073 L 55.078 55.781 C 55.584 55.277 56.253 55.0 56.963 55.0 L 77.334 55.0 C 78.804 55.0 80.0 56.197 80.0 57.668 L 80.0 76.334 C 80.0 77.804 78.804 79.0 77.334 79.0 L 50.666 79.0 z M 75.0 61.0 L 64.003 61.0 L 69.0 61.0 L 75.0 61.0 z " fill-opacity="0.1" stroke-opacity="0.1"/>
<path d="M 65.0 65.0 L 69.0 65.0 L 69.0 62.0 L 65.0 62.0 L 65.0 65.0 z M 65.0 69.0 L 69.0 69.0 L 69.0 66.0 L 65.0 66.0 L 65.0 69.0 z M 70.0 69.0 L 74.0 69.0 L 74.0 66.0 L 70.0 66.0 L 70.0 69.0 z M 70.0 65.0 L 74.0 65.0 L 74.0 62.0 L 70.0 62.0 L 70.0 65.0 z M 77.334 56.0 L 56.963 56.0 C 56.521 56.0 56.099003 56.176 55.785 56.488 L 49.488 62.785 C 49.174 63.096 49.0 63.52 49.0 63.961 L 49.0 76.334 C 49.0 77.254 49.746 78.0 50.666 78.0 L 77.334 78.0 C 78.256 78.0 79.0 77.254 79.0 76.334 L 79.0 57.668 C 79.0 56.746 78.256 56.0 77.334 56.0 z M 76.0 70.0 C 76.0 70.55 75.55 71.0 75.0 71.0 L 64.0 71.0 C 63.45 71.0 63.0 70.55 63.0 70.0 L 63.0 61.0 C 63.0 60.45 63.45 60.0 64.0 60.0 L 75.0 60.0 C 75.55 60.0 76.0 60.45 76.0 61.0 L 76.0 70.0 z " fill-opacity="0.1" stroke-opacity="0.1"/>
<linearGradient gradientTransform="translate(0,2)" gradientUnits="userSpaceOnUse" x1="64" x2="64" xlink:actuate="onLoad" xlink:show="other" xlink:type="simple" y1="76" y2="54">
<stop offset="0" stop-color="#d0cbc5"/>
<stop offset="0.6768" stop-color="#fafcef"/>
<stop offset="1" stop-color="#fafcef"/>
</linearGradient>
<path d="M 65.0 65.0 L 69.0 65.0 L 69.0 62.0 L 65.0 62.0 L 65.0 65.0 z M 65.0 69.0 L 69.0 69.0 L 69.0 66.0 L 65.0 66.0 L 65.0 69.0 z M 70.0 69.0 L 74.0 69.0 L 74.0 66.0 L 70.0 66.0 L 70.0 69.0 z M 70.0 65.0 L 74.0 65.0 L 74.0 62.0 L 70.0 62.0 L 70.0 65.0 z M 77.334 56.0 L 56.963 56.0 C 56.521 56.0 56.099003 56.176 55.785 56.488 L 49.488 62.785 C 49.174 63.096 49.0 63.52 49.0 63.961 L 49.0 76.334 C 49.0 77.254 49.746 78.0 50.666 78.0 L 77.334 78.0 C 78.256 78.0 79.0 77.254 79.0 76.334 L 79.0 57.668 C 79.0 56.746 78.256 56.0 77.334 56.0 z M 76.0 70.0 C 76.0 70.55 75.55 71.0 75.0 71.0 L 64.0 71.0 C 63.45 71.0 63.0 70.55 63.0 70.0 L 63.0 61.0 C 63.0 60.45 63.45 60.0 64.0 60.0 L 75.0 60.0 C 75.55 60.0 76.0 60.45 76.0 61.0 L 76.0 70.0 z " fill="#ffffff" fill-opacity="1"/>
<linearGradient gradientUnits="userSpaceOnUse" x1="64" x2="64" xlink:actuate="onLoad" xlink:show="other" xlink:type="simple" y1="76" y2="60">
<stop offset="0" stop-color="#000000"/>
<stop offset="1" stop-color="#000000" stop-opacity="0"/>
</linearGradient>
</svg>
