<?xml version="1.0" encoding="UTF-8"?>
<svg xmlns="http://www.w3.org/2000/svg" xmlns:xlink="http://www.w3.org/1999/xlink" baseProfile="tiny" contentScriptType="text/ecmascript" contentStyleType="text/css" height="96px" preserveAspectRatio="xMidYMid meet" version="1.1" viewBox="0 0.088 96 96" width="96px" x="0px" y="0px" zoomAndPan="magnify">
<defs>
<linearGradient id="linearGradient3914">
<stop offset="0" stop-color="#025cae" stop-opacity="1"/>
<stop offset="1" stop-color="#0252ae" stop-opacity="1"/>
</linearGradient>
<linearGradient gradientTransform="matrix(0,1,-1,0,96,0)" gradientUnits="userSpaceOnUse" id="linearGradient3920" x1="8" x2="88" y1="48" y2="48">
<stop offset="0" stop-color="#025cae" stop-opacity="1"/>
<stop offset="1" stop-color="#0252ae" stop-opacity="1"/>
</linearGradient>
</defs>
<path d="M 88.0 49.0 C 88.0 78.633 77.637 89.0 48.0 89.0 C 18.365 89.0 8.0 78.633 8.0 49.0 C 8.0 19.365 18.365 9.0 48.0 9.0 C 77.637 9.0 88.0 19.365 88.0 49.0 z " fill-opacity="0.4" stroke-opacity="0.4"/>
<linearGradient gradientUnits="userSpaceOnUse" x1="47.9995" x2="47.9995" y1="8.5449" y2="89.2398">
<stop offset="0" stop-color="#00bacc"/>
<stop offset="0.2312" stop-color="#01a1bb"/>
<stop offset="0.747" stop-color="#026d98"/>
<stop offset="1" stop-color="#02598b"/>
</linearGradient>
<path d="M 48.0 88.0 C 18.367 88.0 8.0 77.637 8.0 48.0 C 8.0 18.365 18.367 8.0 48.0 8.0 C 77.635 8.0 88.0 18.365 88.0 48.0 C 88.0 77.637 77.635 88.0 48.0 88.0 z " fill="url(#linearGradient3920)" fill-opacity="1"/>
<rect fill="none" height="96" width="96"/>
<linearGradient gradientUnits="userSpaceOnUse" id="SVGID_2_" x1="47.9761" x2="47.9761" y1="8.2534" y2="87.4985">
<stop offset="0" stop-color="#ffffff"/>
<stop offset="1" stop-color="#ffffff" stop-opacity="0"/>
</linearGradient>
<path d="M 47.977 8.0 C 18.359 8.0 8.0 18.365 8.0 48.0 C 8.0 77.633 18.359 88.0 47.977 88.0 C 77.596 88.0 87.954 77.633 87.954 48.0 C 87.953 18.365 77.596 8.0 47.977 8.0 z M 47.977 87.0 C 18.836 87.0 9.0 77.158 9.0 48.0 C 9.0 18.842005 18.836 9.0 47.977 9.0 C 77.11801 9.0 86.955 18.842 86.955 48.0 C 86.955 77.158005 77.117 87.0 47.977 87.0 z " fill="url(#SVGID_2_)" fill-opacity="0.25" stroke-opacity="0.25"/>
<path d="M 42.6 80.0 C 40.702 80.0 39.097 78.518 38.948 76.624 L 38.917 76.238 L 35.871 74.976 L 35.573 75.23 C 34.91 75.793 34.067 76.101 33.197998 76.101 C 32.228996 76.101 31.283998 75.71 30.604998 75.031 L 22.968998 67.394 C 21.629995 66.056 21.540998 63.875996 22.766 62.433 L 23.026 62.127 L 21.759998 59.080997 L 21.37 59.05 C 19.48 58.896 18.0 57.293 18.0 55.399 L 18.0 44.6 C 18.0 42.705 19.479 41.101997 21.366 40.948 L 21.763 40.917 L 23.023 37.872 L 22.769 37.574 C 21.540998 36.126 21.629 33.945 22.968 32.606003 L 30.605 24.970003 C 31.283 24.291002 32.228 23.901005 33.197 23.901005 C 34.066 23.901005 34.909 24.209003 35.567997 24.768003 L 35.872 25.027004 L 38.917 23.763004 L 38.947 23.375004 C 39.097 21.481 40.701 20.0 42.6 20.0 L 53.4 20.0 C 55.298 20.0 56.903 21.483 57.052 23.376 L 57.083 23.762 L 60.13 25.023998 L 60.428 24.77 C 61.091 24.207 61.935 23.898998 62.804 23.898998 C 63.773003 23.898998 64.716 24.288998 65.396 24.968998 L 73.031006 32.605 C 74.37 33.942 74.45901 36.122 73.23401 37.566 L 72.97401 37.871 L 74.240005 40.917 L 74.630005 40.948 C 76.52 41.1 78.0 42.703 78.0 44.6 L 78.0 55.4 C 78.0 57.296997 76.52 58.900997 74.63 59.052 L 74.238 59.082996 L 72.976 62.130997 L 73.229 62.428997 C 74.45799 63.874996 74.370995 66.057 73.031 67.396 L 65.394 75.032 C 64.715996 75.712 63.773 76.102 62.803997 76.102 C 61.933 76.102 61.090996 75.793 60.433 75.234 L 60.128 74.975 L 57.083 76.239 L 57.052 76.63 C 56.903 78.52 55.299 80.0 53.4 80.0 L 42.6 80.0 z " fill-opacity="0.05" stroke-opacity="0.05"/>
<path d="M 42.6 78.965 C 41.237 78.965 40.086 77.90199 39.979 76.543 L 39.897 75.524 L 35.682 73.777 L 34.902 74.442 C 34.426 74.845 33.823 75.066 33.198 75.066 C 32.502003 75.066 31.824 74.787 31.337002 74.299 L 23.7 66.662 C 22.739 65.702 22.677 64.138 23.555 63.1 L 24.225 62.315 L 22.473 58.1 L 21.453 58.019 C 20.096 57.908 19.035 56.756 19.035 55.398003 L 19.035 44.6 C 19.035 43.240997 20.096 42.09 21.449 41.979 L 22.476 41.897 L 24.222 37.682 L 23.556 36.902 C 22.675 35.862 22.738 34.298 23.699 33.338 L 31.337 25.701 C 31.823 25.214 32.501 24.935 33.197 24.935 C 33.821 24.935 34.426 25.156 34.898 25.556 L 35.683 26.225 L 39.898 24.475 L 39.978 23.456 C 40.085 22.100002 41.237 21.036 42.599 21.036 L 53.4 21.036 C 54.763 21.036 55.914 22.1 56.021 23.459002 L 56.103 24.477 L 60.32 26.224 L 61.099 25.559 C 61.573997 25.157 62.178 24.935 62.804 24.935 C 63.499 24.935 64.177 25.214 64.664 25.702 L 72.3 33.338 C 73.26 34.298 73.323006 35.862 72.445 36.9 L 71.775 37.685 L 73.527 41.9 L 74.547 41.981003 C 75.902 42.089005 76.965 43.241 76.965 44.601 L 76.965 55.401 C 76.965 56.762 75.90199 57.914 74.547 58.022 L 73.524994 58.103 L 71.77799 62.322 L 72.44199 63.101 C 73.325 64.14 73.260994 65.705 72.300995 66.665 L 64.663994 74.302 C 64.17799 74.788 63.499992 75.068 62.804993 75.068 C 62.179993 75.068 61.574993 74.847 61.101994 74.447 L 60.316994 73.777 L 56.103992 75.527 L 56.02199 76.54801 C 55.914993 77.90301 54.763992 78.966 53.400993 78.966 L 42.6 78.966 z " fill-opacity="0.05" stroke-opacity="0.05"/>
<path d="M 42.6 77.932 C 41.774 77.932 41.074997 77.286 41.01 76.462 L 40.878 74.811 L 35.491997 72.58099 L 34.229996 73.65599 C 33.942997 73.89899 33.575996 74.03299 33.196995 74.03299 C 32.774994 74.03299 32.361996 73.86399 32.067993 73.56899 L 24.430992 65.93199 C 23.846992 65.34999 23.809992 64.40099 24.342993 63.77199 L 25.420992 62.505993 L 23.185991 57.120995 L 21.534992 56.988995 C 20.712992 56.921993 20.067991 56.222996 20.067991 55.39899 L 20.067991 44.6 C 20.067991 43.775997 20.712994 43.077 21.532991 43.01 L 23.188992 42.877 L 25.418991 37.493 L 24.342993 36.231 C 23.809994 35.601 23.846992 34.650997 24.430992 34.069 L 32.067993 26.432 C 32.36199 26.138 32.774994 25.969 33.196995 25.969 C 33.575996 25.969 33.942993 26.103 34.228996 26.345 L 35.493996 27.424 L 40.879 25.188 L 41.01 23.539 C 41.073997 22.716 41.774 22.071 42.6 22.071 L 53.4 22.071 C 54.226 22.071 54.925003 22.717 54.99 23.54 L 55.123 25.190998 L 60.509003 27.421995 L 61.771004 26.345997 C 62.058 26.101995 62.424004 25.969995 62.805004 25.969995 C 63.227005 25.969995 63.639004 26.137997 63.933 26.432997 L 71.569 34.069996 C 72.153 34.652996 72.19 35.601997 71.657 36.230995 L 70.578995 37.49699 L 72.814995 42.880993 L 74.465 43.012993 C 75.286995 43.07799 75.932 43.777992 75.932 44.601994 L 75.932 55.401993 C 75.932 56.226994 75.287 56.92599 74.465 56.991993 L 72.812 57.123993 L 70.58099 62.511993 L 71.65499 63.772995 C 72.19 64.40399 72.15299 65.353 71.56899 65.936 L 63.93299 73.572 C 63.638992 73.867 63.22699 74.036 62.804993 74.036 L 62.804993 74.036 C 62.423992 74.036 62.05799 73.90199 61.77199 73.66 L 60.505993 72.58199 L 55.12199 74.815994 L 54.98999 76.466995 C 54.925995 77.287994 54.22599 77.935 53.399994 77.935 L 42.6 77.935 z " fill-opacity="0.1" stroke-opacity="0.1"/>
<path d="M 74.381 55.959 C 74.663994 55.936 74.897 55.684 74.897 55.399 L 74.897 44.6 C 74.897 44.317 74.66499 44.065 74.381 44.041 L 72.575 43.896 C 72.292 43.875 71.986 43.634 71.896 43.365 L 69.586 37.798 C 69.458 37.544 69.505 37.158 69.688995 36.942 L 70.867 35.559 C 71.051994 35.342003 71.038994 35.0 70.838 34.799004 L 63.200996 27.162004 C 62.999996 26.961002 62.657997 26.947002 62.441 27.132002 L 61.058 28.31 C 60.841 28.495 60.455 28.541002 60.203 28.413002 L 54.635 26.104002 C 54.364 26.013002 54.126 25.708002 54.104 25.423002 L 53.959 23.618002 C 53.936 23.334002 53.686 23.102 53.4 23.102 L 42.6 23.102 C 42.317 23.102 42.065 23.334002 42.041 23.618002 L 41.896 25.423002 C 41.874 25.707005 41.634 26.012005 41.365 26.103004 L 35.799004 28.412004 C 35.544003 28.540005 35.158005 28.494003 34.942005 28.309002 L 33.560005 27.131002 C 33.342007 26.946005 33.001007 26.960005 32.800007 27.161003 L 25.162 34.8 C 24.961 35.001 24.947 35.343 25.133 35.56 L 26.311 36.942997 C 26.495 37.158997 26.541 37.545 26.414 37.798996 L 24.106 43.365997 C 24.016 43.636 23.709002 43.874996 23.425 43.896996 L 21.619 44.041996 C 21.336002 44.064995 21.103 44.314995 21.103 44.601 L 21.103 55.400997 C 21.103 55.685 21.335 55.936996 21.619 55.961 L 23.425 56.105 C 23.708 56.127 24.014002 56.367 24.104002 56.637 L 26.414 62.205 C 26.542002 62.458 26.495 62.844 26.311 63.06 L 25.133 64.442 C 24.947 64.659004 24.961 65.001 25.162 65.202 L 32.8 72.84001 C 33.001 73.041 33.342 73.055 33.56 72.869 L 34.942 71.691 C 35.158997 71.507 35.545 71.461 35.798996 71.588005 L 41.365 73.897 C 41.635 73.98801 41.873997 74.29301 41.895996 74.578 L 42.040997 76.383 C 42.063995 76.666 42.316 76.899 42.6 76.899 L 53.4 76.899 C 53.685 76.899 53.935 76.667 53.959 76.383 L 54.104 74.578 C 54.126 74.293 54.365 73.98801 54.635 73.896 L 60.203 71.588005 C 60.455997 71.46001 60.842 71.506004 61.058 71.691 L 62.441 72.869 C 62.657997 73.055 63.0 73.041 63.200996 72.84001 L 70.838 65.203 C 71.038994 65.00201 71.051994 64.66 70.867 64.443 L 69.688995 63.06 C 69.503 62.843 69.45899 62.457 69.586 62.205 L 71.896 56.637 C 71.98599 56.367 72.292 56.127003 72.575 56.105 L 74.381 55.959 z " fill-opacity="0.1" stroke-opacity="0.1"/>
<linearGradient gradientUnits="userSpaceOnUse" x1="48.0005" x2="48.0005" y1="74.8623" y2="21.0693">
<stop offset="0" stop-color="#d0cbc5"/>
<stop offset="0.9943" stop-color="#fafcef"/>
<stop offset="1" stop-color="#fafcef"/>
</linearGradient>
<path d="M 74.381 42.007 L 72.575 41.863 C 72.292 41.84 71.986 41.6 71.896 41.330997 L 69.586 35.763996 C 69.458 35.509995 69.505 35.124996 69.688995 34.908997 L 70.867 33.525997 C 71.051994 33.309 71.038994 32.966995 70.838 32.766 L 63.200996 25.128998 C 62.999996 24.927998 62.657997 24.914995 62.441 25.098995 L 61.058 26.277998 C 60.841 26.461998 60.455 26.509 60.203 26.381 L 54.635 24.072 C 54.364 23.981 54.126 23.676 54.104 23.391998 L 53.959 21.586998 C 53.936 21.302998 53.686 21.070995 53.4 21.070995 L 42.6 21.070995 C 42.317 21.070995 42.065 21.302998 42.041 21.586998 L 41.896 23.391998 C 41.874 23.676 41.634 23.981 41.365 24.072 L 35.799004 26.381 C 35.544003 26.509 35.158005 26.461998 34.942005 26.277998 L 33.560005 25.099998 C 33.342007 24.915998 33.001007 24.929 32.800007 25.13 L 25.162006 32.767998 C 24.961006 32.968998 24.947006 33.310997 25.133007 33.527996 L 26.311008 34.910995 C 26.495008 35.126995 26.541006 35.511997 26.414007 35.765995 L 24.106009 41.331993 C 24.016006 41.601994 23.709007 41.84199 23.425009 41.86299 L 21.619007 42.00799 C 21.336006 42.03099 21.103006 42.28199 21.103006 42.566994 L 21.103006 53.367992 C 21.103006 53.651993 21.335009 53.902992 21.619007 53.92699 L 23.425009 54.071995 C 23.708008 54.09399 24.014008 54.333996 24.104008 54.602993 L 26.414007 60.170994 C 26.542007 60.424995 26.495008 60.809994 26.311008 61.025993 L 25.133007 62.408993 C 24.947006 62.62599 24.961006 62.967995 25.162006 63.16899 L 32.800007 70.80599 C 33.001007 71.00699 33.342007 71.02099 33.560005 70.83599 L 34.942005 69.65799 C 35.159004 69.47299 35.54501 69.42699 35.799004 69.55499 L 41.365005 71.86399 C 41.63501 71.95399 41.874004 72.26 41.896004 72.54399 L 42.041004 74.34899 C 42.064003 74.634 42.31601 74.86599 42.600006 74.86599 L 53.4 74.86599 C 53.685 74.86599 53.935 74.63499 53.959 74.34899 L 54.104 72.54399 C 54.126 72.260994 54.365 71.954 54.635 71.86299 L 60.203 69.55499 C 60.455997 69.426 60.842 69.47299 61.058 69.65699 L 62.441 70.83599 C 62.657997 71.02099 63.0 71.00699 63.200996 70.80599 L 70.838 63.16899 C 71.038994 62.96799 71.051994 62.62599 70.867 62.408993 L 69.688995 61.025993 C 69.503 60.80899 69.45899 60.423992 69.586 60.170994 L 71.896 54.602993 C 71.98599 54.332993 72.292 54.09399 72.575 54.071995 L 74.381 53.92699 C 74.663994 53.904995 74.897 53.652996 74.897 53.367996 L 74.897 42.566 C 74.896 42.281 74.664 42.029 74.381 42.007 z M 47.999 71.241 C 35.165 71.241 24.725 60.796997 24.725 47.961 C 24.725 35.129 35.165 24.69 47.999 24.69 C 60.834 24.69 71.275 35.129 71.275 47.961 C 71.275 60.797 60.834 71.241 47.999 71.241 z " fill="#ffffff" fill-opacity="1"/>
<radialGradient cx="48.7134" cy="34.4663" gradientTransform="matrix(0.9927 0 0 0.9942 0.2586 0.4849)" gradientUnits="userSpaceOnUse" r="30.5592">
<stop offset="0" stop-color="#00bacc"/>
<stop offset="0.2312" stop-color="#01a1bb"/>
<stop offset="0.747" stop-color="#026d98"/>
<stop offset="1" stop-color="#02598b"/>
</radialGradient>
<path d="M 69.5 47.995 C 69.5 59.875 59.876 69.5 47.999 69.5 C 36.125 69.5 26.5 59.875 26.5 47.995 C 26.5 36.126 36.125 26.499998 47.999 26.499998 C 59.876 26.5 69.5 36.126 69.5 47.995 z " fill="#0277b6" fill-opacity="1"/>
<linearGradient gradientUnits="userSpaceOnUse" x1="47.9712" x2="47.9712" y1="72.7461" y2="61.007">
<stop offset="0" stop-color="#ffffff"/>
<stop offset="1" stop-color="#ffffff" stop-opacity="0"/>
</linearGradient>
<radialGradient cx="47.7783" cy="41.3755" gradientTransform="matrix(1 0 0 0.9023 0 4.0442)" gradientUnits="userSpaceOnUse" r="24.9072">
<stop offset="0" stop-color="#ffffff"/>
<stop offset="0.3232" stop-color="#ffffff"/>
<stop offset="1" stop-color="#d0cbc5"/>
</radialGradient>
<path d="M 29.728 43.77 L 30.138 44.18 L 30.138 45.168 L 30.578 45.168 L 30.578 43.293 L 31.876 41.996 L 32.73 41.996 L 35.289 39.435 L 36.788 39.435 L 37.199 39.029 L 37.199 37.732 L 36.754 37.732 L 36.754 37.394997 L 38.872 37.394997 L 39.426006 36.847996 L 39.426006 36.462997 L 38.785007 35.823 L 38.785007 34.066 L 38.086006 34.765 L 37.367004 34.765 L 37.367004 33.777 L 36.311005 33.777 L 35.528004 34.562 L 35.1 34.562 L 35.1 35.841 L 33.955997 36.984 L 33.955997 35.928 L 33.037 35.928 L 33.037 35.212 L 31.926996 35.212 L 31.926996 34.782 L 33.683 33.027 L 34.298 33.027 L 35.251 32.072 L 36.07 32.072 L 36.891 31.252996 L 37.673 31.252996 L 38.438 32.021 L 38.117 32.343 L 37.332 32.343 L 37.332 32.787 L 38.256 33.708 L 38.868 33.708 L 39.415 33.162 L 39.415 32.565 L 40.353 32.565 L 40.744 32.17 L 38.801 30.224997 L 38.009 30.224997 L 38.356 29.870996 L 39.636997 29.870996 L 40.44 29.071997 L 40.813 28.707996 L 42.291 28.707996 L 42.623 28.374996 L 39.255 28.374996 C 38.226 28.832996 37.244 29.366997 36.313 29.974997 L 36.313 30.201996 L 37.642 30.201996 L 37.404 30.442995 L 36.487 30.442995 L 35.598 31.329994 L 36.151 31.329994 L 35.698 31.782991 L 34.861 31.782991 L 34.519 31.440992 L 35.017 30.941992 L 34.953003 30.941992 C 30.774002 34.14399 27.810003 38.83499 26.851002 44.22899 L 27.308002 43.772987 L 29.728 43.772987 z M 51.144 36.927982 L 51.678 36.927982 L 52.043003 36.562984 L 52.043003 36.293983 L 52.219 36.117985 L 52.219 35.695984 L 51.823 35.695984 L 51.455 36.001984 L 51.455 36.274982 L 51.143 36.590984 L 51.143 36.927982 z M 52.912003 36.308987 L 52.748 36.308987 L 52.402 36.654987 L 52.402 37.03499 L 53.592 37.03499 L 53.924 36.70599 L 53.924 36.34199 L 53.051 35.46899 L 53.279 35.23799 L 53.279 34.964993 L 52.687 34.964993 L 52.98 34.67499 L 52.547 34.67499 L 52.264 34.93899 L 52.264 35.39099 L 52.911 36.03899 L 52.911 36.308987 z M 50.804 28.244987 L 43.818 28.244987 L 42.976 29.092987 L 41.033 29.092987 L 41.033 30.011988 L 42.976 30.011988 L 42.976 31.391989 L 43.949 31.391989 L 43.388 31.954988 L 42.722 31.954988 L 42.722 34.320988 L 43.806 34.320988 L 45.023 33.105988 L 45.865 33.105988 L 47.94 31.032988 L 48.705997 31.032988 L 51.214996 28.52799 L 50.806 28.242 z M 63.272 47.605003 L 63.272 44.418003 L 63.972 44.418003 L 63.972 47.384003 L 65.913 49.326004 L 67.275 49.326004 L 69.454 47.14901 C 69.44 46.706 69.431 46.254 69.386 45.815 L 67.892 45.815 L 66.509995 44.433 L 66.98799 43.954 L 68.24999 45.218 L 69.29499 45.218 C 68.99599 42.865997 68.31099 40.647 67.31499 38.599 L 67.31499 38.96 L 66.799995 38.96 L 66.799995 39.401 L 68.1 40.699 L 68.1 41.550003 L 67.004 41.550003 L 66.63 41.182003 L 66.63 40.391003 L 65.54 39.267 L 66.63 38.172 L 67.106995 38.172 C 65.951996 35.929 64.41799 33.928 62.582993 32.234 L 62.04399 32.77 L 61.68599 32.77 L 61.23399 32.317 L 61.89399 32.34 L 61.89399 31.693 L 61.49799 31.302 L 57.52999 31.302 L 55.04699 33.782 L 55.04699 34.934 L 56.33199 34.934 L 56.99599 35.597 L 57.66499 35.597 L 58.11599 35.148 L 58.11599 33.364994 L 58.96399 32.517994 L 59.53799 32.517994 L 58.56799 33.485992 L 58.56799 34.25199 L 59.94899 34.25199 L 59.94899 34.630993 L 58.49899 36.07799 C 58.49899 36.07799 56.45899 36.15499 56.536987 36.07799 C 56.614983 35.998993 56.266987 35.55199 56.266987 35.55199 L 55.547985 35.55199 L 53.690987 37.40699 L 52.480988 37.40699 L 52.480988 37.96999 L 53.057987 37.96999 L 53.057987 39.53799 L 51.282986 39.53799 L 51.282986 41.242996 L 51.677982 41.637997 L 52.819984 41.637997 L 54.449986 40.007996 L 54.449986 39.402996 L 56.061985 39.402996 L 57.458984 40.799995 L 58.037983 40.220997 L 56.743984 38.926 L 57.559982 38.926 L 58.667984 40.032997 L 58.667984 40.699997 L 59.880985 40.699997 L 59.880985 40.254 L 60.391987 40.254 L 61.873985 41.735996 L 63.152985 41.735996 L 63.152985 42.846996 L 62.367985 43.629997 L 59.742985 43.629997 L 59.742985 42.949997 L 56.502983 42.949997 L 56.502983 41.928 L 51.967983 41.928 L 49.034985 44.862 L 49.034985 50.216 L 51.113983 52.297 L 56.127983 52.297 L 56.127983 54.547 L 57.391983 55.808 L 57.391983 64.2 L 58.56798 65.376 L 60.08498 65.376 L 63.16298 62.299 L 63.16298 60.583 L 64.80998 58.935 L 64.80998 55.16 L 68.039986 51.931 L 68.039986 50.113 L 65.777985 50.113 L 63.271996 47.605 z M 61.481995 40.255 L 60.983994 39.763 L 61.001995 39.305 L 61.733994 38.568 L 63.494995 38.568 L 64.69499 39.772 L 64.69499 40.256 L 61.48199 40.256 z M 40.026993 54.207 L 40.026993 53.485 L 38.25799 53.485 L 35.185993 50.411 L 31.629992 50.411 L 31.059994 50.983 L 29.745996 50.983 L 29.013994 50.251 L 29.013994 48.478 L 28.226994 48.478 L 28.226994 47.121 L 27.722994 47.121 L 27.034994 47.812004 L 26.508995 47.812004 C 26.508995 47.875004 26.500996 47.93401 26.500996 47.997005 C 26.500996 48.331005 26.535995 48.650005 26.549995 48.98201 L 26.797997 49.230007 L 27.340994 49.230007 L 29.697994 51.583008 L 30.336994 51.583008 L 30.336994 53.314003 L 29.922997 53.732 L 29.922997 57.155003 L 32.012993 59.245003 L 32.602993 59.245003 L 33.70499 60.347004 L 33.70499 64.02901 C 34.721992 64.938 35.824993 65.75101 37.004993 66.45601 L 37.78099 66.45601 L 37.78099 65.49701 L 39.278996 63.99801 L 39.278996 62.46201 L 40.67699 61.06601 L 41.410995 61.06601 L 41.410995 57.97801 L 42.962997 56.42701 L 42.962997 54.94201 L 40.762997 54.94201 L 40.027 54.206 z " fill="#ffffff" fill-opacity="1"/>
<path d="M 58.329 36.085 C 58.217 36.087997 58.065 36.093 57.895 36.098 C 58.066 36.093 58.221 36.088 58.329 36.085 z " fill-opacity="0.1" stroke-opacity="0.1"/>
<path d="M 56.166 35.837 C 56.233 36.003 56.357 36.064003 56.543 36.09 C 56.533 36.088 56.529 36.084 56.535 36.079 C 56.613 36.0 56.265 35.553 56.265 35.553 L 56.062 35.553 C 56.068 35.561996 56.072 35.571 56.08 35.579 L 56.068 35.59 L 56.166 35.837 z " fill-opacity="0.1" stroke-opacity="0.1"/>
<polygon fill-opacity="0.1" points="34.064,33.041 34.074,33.026 34.049,33.026 " stroke-opacity="0.1"/>
<path d="M 56.535 36.079 C 56.517 36.095997 56.606 36.105 56.748 36.109997 L 56.434 35.796 C 56.509 35.915 56.572 36.041 56.535 36.079 z "/>
<polygon points="34.822,32.499 34.859,32.536 35.696,32.536 36.149,32.082 35.597,32.082 35.608,32.071 35.252,32.071 "/>
<polygon points="68.09,45.816 66.988,44.711 66.888,44.812 67.893,45.816 "/>
<path d="M 67.75 40.351 C 67.871 40.635 67.991 40.918003 68.1 41.207 L 68.1 40.701 L 67.75 40.351 z "/>
<path d="M 57.92 36.098 C 58.243 36.089 58.497 36.079 58.497 36.079 L 59.567997 35.008 L 58.566 35.008 L 58.566 34.253 L 58.566 34.243 L 58.566 33.669 L 58.114 34.122 L 58.114 35.149 L 58.114 35.903 L 57.92 36.098 z "/>
<polygon points="29.746,51.737 30.336,51.737 30.336,51.581 29.697,51.581 29.014,50.898 29.014,51.006 "/>
<rect height="0.563" width="0.577" x="52.479" y="38.164"/>
<polygon points="59.568,35.008 59.947,34.632 59.947,34.253 58.566,34.253 58.566,35.008 "/>
<path d="M 65.914 49.327 L 63.973 47.385 L 63.973 48.14 L 65.914 50.081 L 67.276 50.081 L 69.455 47.906 C 69.446 47.664 69.441 47.42 69.428 47.177 L 67.277 49.327003 L 65.914 49.327003 z "/>
<path d="M 56.266 35.553 C 56.266 35.553 56.356 35.67 56.434 35.796 L 56.747997 36.11 C 57.027996 36.12 57.525997 36.109 57.92 36.098 L 58.114 35.904 L 58.114 35.15 L 57.663 35.599 L 56.994 35.599 L 56.33 34.936 L 55.045 34.936 L 55.045 35.691 L 55.41 35.691 L 55.547 35.553 L 56.266 35.553 z "/>
<polygon points="63.495,39.323 64.424,40.255 64.695,40.255 64.695,39.771 63.495,38.567 61.734,38.567 61.002,39.305   60.984,39.763 61.142,39.918 61.734,39.323 "/>
<polygon points="52.913,36.306 52.913,36.036 52.422,35.545 52.266,35.69 52.266,36.143 52.588,36.466 52.749,36.306 "/>
<polygon points="61.685,32.771 61.893,32.771 61.893,32.45 61.779,32.339 61.232,32.318 "/>
<polygon points="58.566,33.487 59.536,32.519 58.962,32.519 58.114,33.366 58.114,34.122 58.566,33.669 "/>
<path d="M 67.75 40.351 L 67.115 39.718 L 66.8 39.718 L 66.8 40.158 L 68.100006 41.457 L 68.100006 41.207 C 67.991 40.918 67.871 40.635 67.75 40.351 z "/>
<polygon points="51.678,36.925 51.455,36.925 51.455,37.026 51.144,37.342 51.144,37.681 51.678,37.681 52.043,37.315   52.043,37.046 52.219,36.869 52.219,36.45 52.043,36.45 52.043,36.56 "/>
<path d="M 65.54 39.269 L 65.912 39.651 L 66.630005 38.93 L 67.107 38.93 C 66.974 38.67 66.818 38.426 66.673004 38.174 L 66.63 38.174 L 65.54 39.269 z "/>
<path d="M 66.988 43.956 L 66.51 44.435 L 66.887 44.812 L 66.988 44.711 L 68.09 45.816 L 69.27 45.816 C 69.242 45.615997 69.2 45.42 69.167 45.219 L 68.25 45.219 L 66.988 43.956 z "/>
<rect height="0.755" width="0.7" x="63.272" y="44.419"/>
<polygon points="56.127,54.547 56.127,55.301 57.391,56.563 57.391,55.808 "/>
<polygon points="51.113,52.297 49.034,50.216 49.034,50.971 51.113,53.053 56.127,53.053 56.127,52.297 "/>
<polygon points="63.161,61.338 64.809,59.689 64.809,58.935 63.161,60.583 "/>
<polygon points="53.283,41.928 54.447,40.765 54.447,40.158 56.06,40.158 57.457,41.555 58.036,40.977 57.659,40.6 57.457,40.801   56.06,39.403 54.447,39.403 54.447,40.009 52.817,41.639 51.676,41.639 51.281,41.244 51.281,42.001 51.588,42.307 51.967,41.928   "/>
<polygon points="58.667,40.788 58.667,41.457 59.88,41.457 59.88,41.011 60.391,41.011 61.873,42.492 63.152,42.492 63.152,41.737   61.873,41.737 60.391,40.255 59.88,40.255 59.88,40.701 58.667,40.701 58.667,40.034 57.559,38.927 56.742,38.927 57.496,39.682   57.559,39.682 "/>
<polygon points="64.809,55.916 68.039,52.688 68.039,51.932 64.809,55.16 "/>
<polygon points="53.689,37.408 53.926,37.174 53.926,37.093 53.73,36.899 53.594,37.032 52.913,37.032 52.913,37.06 52.749,37.06   52.403,37.408 52.403,37.789 52.479,37.789 52.479,37.408 "/>
<polygon points="58.566,65.376 57.391,64.2 57.391,64.957 58.566,66.132 59.471,66.132 61.226,64.869 63.161,63.054 63.161,62.299   60.083,65.376 "/>
<polygon points="35.289,39.436 32.73,41.996 31.876,41.996 30.578,43.293 30.578,44.048 31.876,42.752 32.73,42.752 35.289,40.191   36.788,40.191 37.199,39.784 37.199,39.029 36.788,39.436 "/>
<polygon points="32.602,59.243 32.012,59.243 29.922,57.153 29.922,57.908 32.012,60 32.602,60 33.703,61.1 33.703,60.345 "/>
<path d="M 29.746 51.737 L 29.014 51.006 L 29.014 50.899 L 27.34 49.229004 L 26.797 49.229004 L 26.549002 48.981003 C 26.543 48.842003 26.531002 48.703003 26.524002 48.567 L 26.508 48.567 C 26.508 48.629 26.500002 48.69 26.500002 48.752003 C 26.500002 49.085003 26.535002 49.406 26.549002 49.736004 L 26.797 49.98301 L 27.34 49.98301 L 29.697 52.336006 L 30.336 52.336006 L 30.336 51.738007 L 29.746 51.738007 z "/>
<polygon points="36.754,37.395 36.754,37.732 37.199,37.732 37.199,38.15 38.872,38.15 39.426,37.603 39.426,37.217 39.238,37.03   38.872,37.395 "/>
<polygon points="39.416,32.564 39.416,33.161 38.869,33.707 38.257,33.707 37.645,33.098 37.333,33.098 37.333,33.543   38.257,34.461 38.388,34.461 38.785,34.065 38.785,34.461 38.869,34.461 39.416,33.916 39.416,33.319 40.354,33.319 40.744,32.925   40.369,32.547 40.354,32.564 "/>
<polygon points="40.381,29.127 39.637,29.869 38.355,29.869 38.009,30.224 38.801,30.224 39.203,30.625 39.637,30.625   40.439,29.825 40.813,29.459 41.035,29.459 41.035,29.127 "/>
<polygon points="41.41,58.729 42.962,57.18 42.962,56.424 41.41,57.975 "/>
<rect height="0.754" width="0.44" x="30.138" y="45.168"/>
<polygon points="39.277,62.459 39.277,63.215 40.676,61.816 41.41,61.816 41.41,61.063 40.676,61.063 "/>
<path d="M 37.641 30.198 L 37.197 30.198 C 37.060997 30.277 36.926 30.357 36.793 30.439 L 37.403 30.439 L 37.641 30.198 z "/>
<polygon points="36.149,32.082 35.696,32.536 34.859,32.536 34.822,32.499 34.299,33.026 33.684,33.026 31.928,34.781   31.928,35.211 32.255,35.211 33.684,33.781 34.299,33.781 35.252,32.825 36.071,32.825 36.893,32.008 37.675,32.008 38.011,32.342   38.118,32.342 38.439,32.02 37.675,31.252 36.893,31.252 36.071,32.071 35.608,32.071 35.597,32.082 "/>
<path d="M 29.728 43.77 L 27.307 43.77 L 27.041 44.036 C 26.969 44.349 26.906 44.664 26.85 44.983 L 27.307 44.525 L 29.728 44.525 L 30.138 44.934 L 30.138 44.18 L 29.728 43.77 z "/>
<polygon points="37.779,66.25 39.277,64.75 39.277,63.995 37.779,65.494 "/>
<polygon points="50.806,28.997 50.744,28.997 48.708,31.03 47.942,31.03 45.867,33.103 45.025,33.103 43.809,34.317 42.725,34.317   42.725,35.072 43.809,35.072 45.025,33.856 45.867,33.856 47.942,31.786 48.708,31.786 51.217,29.28 "/>
<rect height="0.755" width="1.943" x="41.035" y="30.009"/>
<polygon points="43.951,31.389 42.979,31.389 42.979,31.951 43.391,31.951 "/>
</svg>
