<?xml version="1.0" encoding="UTF-8"?>
<svg xmlns="http://www.w3.org/2000/svg" xmlns:xlink="http://www.w3.org/1999/xlink" baseProfile="tiny" contentScriptType="text/ecmascript" contentStyleType="text/css" height="96px" preserveAspectRatio="xMidYMid meet" version="1.1" viewBox="0 0 96 96" width="96px" x="0px" y="0px" zoomAndPan="magnify">
<defs>
<linearGradient id="linearGradient3864">
<stop offset="0" stop-color="#121b48" stop-opacity="1"/>
<stop offset="1" stop-color="#121b32" stop-opacity="1"/>
</linearGradient>
<linearGradient gradientTransform="matrix(0,1,-1,0,96,0)" gradientUnits="userSpaceOnUse" id="linearGradient3870" x1="8" x2="88" y1="48" y2="48">
<stop offset="0" stop-color="#121b48" stop-opacity="1"/>
<stop offset="1" stop-color="#121b32" stop-opacity="1"/>
</linearGradient>
</defs>
<rect fill="none" height="96" width="96"/>
<path d="M 88.0 49.0 C 88.0 78.635 77.637 89.0 48.0 89.0 C 18.365 89.0 8.0 78.635 8.0 49.0 C 8.0 19.367 18.365 9.0 48.0 9.0 C 77.637 9.0 88.0 19.367 88.0 49.0 z " fill-opacity="0.4"/>
<linearGradient gradientTransform="matrix(1 0 0 -1 -902.7012 -618.7988)" gradientUnits="userSpaceOnUse" x1="950.7012" x2="950.7012" y1="-706.7988" y2="-626.7988">
<stop offset="0" stop-color="#000000"/>
<stop offset="1" stop-color="#58595b"/>
</linearGradient>
<path d="M 48.0 88.0 C 18.365 88.0 8.0 77.637 8.0 48.0 C 8.0 18.365 18.365 8.0 48.0 8.0 C 77.633 8.0 88.0 18.365 88.0 48.0 C 88.0 77.637 77.633 88.0 48.0 88.0 z " fill="url(#linearGradient3870)" fill-opacity="1"/>
<linearGradient gradientTransform="matrix(1 0 0 -1 -902.7012 -618.7988)" gradientUnits="userSpaceOnUse" id="SVGID_2_" x1="950.7002" x2="950.7002" y1="-627.0532" y2="-706.2983">
<stop offset="0" stop-color="#ffffff"/>
<stop offset="1" stop-color="#ffffff" stop-opacity="0"/>
</linearGradient>
<path d="M 48.0 8.0 C 18.365 8.0 8.0 18.367 8.0 48.0 C 8.0 77.635 18.365 88.0 48.0 88.0 C 77.637 88.0 88.0 77.635 88.0 48.0 C 88.0 18.367 77.637 8.0 48.0 8.0 z M 48.0 87.0 C 18.842 87.0 9.0 77.159 9.0 48.0 C 9.0 18.842 18.842 9.0 48.0 9.0 C 77.158005 9.0 87.0 18.842 87.0 48.0 C 87.0 77.159 77.158 87.0 48.0 87.0 z " fill="url(#SVGID_2_)" fill-opacity="0.25"/>
<rect fill="none" height="96" width="96"/>
<g fill-opacity="0.3" stroke-opacity="0.3">
<path d="M 71.895 66.017 C 68.405 61.932 64.822 60.075996 67.854 60.168 C 70.884995 60.261 73.825 61.653 72.355 58.961 C 70.884995 56.269997 63.813995 52.081997 60.782997 50.318 C 60.167995 50.629 59.399 51.071 58.545 51.661 C 60.322 52.239 68.22 56.705 66.593994 56.448 C 65.86299 56.721996 61.654995 57.362 63.757996 59.740997 C 66.503 63.033997 64.307 62.12 62.019997 60.929996 C 59.73299 59.73999 60.191 60.563995 61.837 63.948997 C 63.483 67.335 60.648 64.59 57.353996 62.393997 C 54.060997 60.198 55.981995 62.21 55.707996 64.223 C 55.434 66.236 55.158997 66.419 54.061996 64.955 C 52.964996 63.491005 51.957996 58.642 51.957996 58.642 C 52.173996 58.210003 53.979996 55.902 55.632996 54.042004 C 53.87199 55.731003 52.055996 57.981003 50.585995 60.909004 C 50.585995 60.909004 51.963993 64.993004 53.524994 68.429 C 55.08699 71.864 57.841995 73.534004 58.209995 73.534004 C 58.577995 73.534004 58.944996 71.58501 58.853996 70.471 C 58.762997 69.356995 56.189995 67.129 60.598995 70.657 C 65.007996 74.185 68.132 75.671 67.856 74.464 C 68.315994 71.493 63.170994 65.273994 66.479 66.38699 C 69.782 67.502 75.386 70.102 71.895 66.017 z "/>
<path d="M 38.964 53.521 C 38.964 53.521 39.33 62.852 39.33 62.944 C 39.33 63.035 50.583 68.159 51.224003 68.433 L 50.675003 61.114 C 49.668 61.205 40.702 55.441 38.964 53.521 z "/>
<path d="M 54.187 38.317 C 54.187 38.317 63.416 38.729 63.506 38.732 C 63.598 38.734 68.444 50.109 68.702 50.756004 L 61.398003 50.027004 C 60.417 46.463 56.339 40.468 54.187 38.317 z "/>
<path d="M 50.484 61.397 C 45.555 58.878 41.149 55.851997 37.388 52.402 C 34.113 49.398 31.303 46.053 29.037 42.463 C 24.015 34.501 23.150002 27.846 23.012 25.355 L 23.0 25.122 L 23.232 25.127 C 26.279 25.192 34.26 25.768 42.544 29.688 C 46.684 31.646 50.326 34.181 53.37 37.219 C 56.952 40.795 59.745 45.115 61.671 50.057003 L 61.765 50.298004 L 61.511 50.348003 C 60.224 50.597004 57.874996 52.275 55.528 54.622 C 53.092 57.058 51.277 59.602 50.791 61.266003 L 50.718 61.516003 L 50.484 61.397 z M 34.916 36.284 C 33.696 37.951 34.179 39.519 34.576 40.307 C 35.342 41.823997 36.942 42.884 38.469 42.884 C 39.423 42.884 40.264 42.466 40.901 41.675 C 41.991 40.313 42.247 38.848 41.624 37.55 C 40.95 36.149 39.379 35.207 37.715 35.207 C 36.674 35.207 35.707 35.579 34.916 36.284 z "/>
</g>
<path d="M 67.527 76.878 C 66.073 76.878 63.948 75.86 61.046 73.772 C 60.896 74.051994 60.725 74.296 60.534 74.502 C 59.921 75.169 59.095 75.536 58.207 75.536 C 55.959 75.536 52.425 72.265 50.792 68.673 C 49.332 65.46 48.002 61.637997 47.751 60.902996 L 47.341 59.680996 L 47.904 58.563995 C 49.142 56.092995 50.71 53.846996 52.57 51.87199 L 51.849 51.636993 L 56.841 48.192993 C 57.697 47.601994 58.592 47.064995 59.428 46.64199 L 60.884003 45.906994 L 62.29 46.724995 C 67.614 49.82299 73.286 53.408997 74.987 56.52399 C 75.894 58.177994 75.986 59.637993 75.26 60.863995 C 74.858 61.541996 74.26 62.03799 73.519005 62.323994 C 73.747 62.574993 73.964005 62.821995 74.175 63.067993 C 74.999 64.03299 76.716 66.03999 75.693 68.26 C 75.47901 68.72299 74.612 70.23399 72.408 70.23399 C 71.738 70.23399 70.99 70.08499 70.221 69.869 C 70.652 71.05599 70.958 72.315994 70.864 73.522995 C 70.905 74.241 70.655 75.02899 70.160995 75.648 C 69.531 76.44 68.596 76.878 67.527 76.878 z M 55.838 57.45 C 56.494 57.502 57.111 57.745 57.815 58.143 C 57.856003 58.068 57.899 57.993 57.946003 57.917 C 58.469 57.081 59.342003 56.545 60.326004 56.437 C 60.333004 56.416 60.339005 56.393 60.346004 56.372 C 60.47601 55.94 60.674004 55.536003 60.939003 55.165 C 60.094 54.699 59.351 54.311 58.770004 54.026 L 57.874004 55.036 C 57.165 55.833 56.439 56.702 55.838 57.45 z " fill-opacity="0.07" stroke-opacity="0.07"/>
<path d="M 67.527 76.128 C 66.132 76.128 63.845 74.942 60.72 72.602 C 60.534 73.196 60.287003 73.662994 59.982 73.994995 C 59.512 74.506 58.881 74.786995 58.207 74.786995 C 56.444 74.786995 53.119 71.98 51.475 68.36299 C 50.028004 65.17799 48.710003 61.387993 48.461 60.66099 L 48.152004 59.73999 L 48.574005 58.90199 C 49.96201 56.133987 51.771004 53.65599 53.95501 51.53499 L 53.523006 51.39399 L 57.26701 48.80999 C 58.098007 48.23599 58.963005 47.71799 59.76701 47.30999 L 60.859005 46.75899 L 61.914005 47.37299 C 67.148 50.41799 72.718 53.92999 74.33 56.882988 C 74.617004 57.405987 75.492004 59.002987 74.616005 60.481987 C 74.256004 61.087982 73.520004 61.80599 72.051 61.857983 C 72.552 62.371983 73.081 62.939987 73.607 63.554985 C 74.764 64.90898 75.736 66.37798 75.013 67.94698 C 74.847 68.306984 74.168 69.483986 72.409 69.483986 C 71.466 69.483986 70.28 69.137985 68.922 68.66199 C 69.628 70.25899 70.237 71.93399 70.117 73.46499 C 70.148 74.095985 69.958 74.70199 69.576 75.179985 C 69.09 75.79 68.362 76.128 67.527 76.128 z M 55.576 58.19 C 56.364 58.19 57.089 58.539 58.214 59.267 C 58.264 58.953 58.379 58.637997 58.581 58.316 C 59.031 57.595997 59.822 57.167 60.697 57.167 C 60.778004 57.167 60.86 57.17 60.941 57.177 C 60.962 56.98 61.004 56.782997 61.062 56.589996 C 61.248 55.971996 61.602 55.429996 62.119 54.967995 C 60.306 53.936996 58.491 53.009995 57.848 52.799995 L 57.449 52.66999 L 58.269 53.459995 L 57.312 54.53799 C 56.225 55.762993 55.047 57.214996 54.367 58.113995 C 54.394 58.228996 54.423 58.34399 54.451 58.460995 C 54.791 58.285 55.176 58.19 55.576 58.19 z " fill-opacity="0.07" stroke-opacity="0.07"/>
<path d="M 67.527 75.378 C 65.79 75.378 62.43 72.999 60.244 71.293 C 60.127 72.077 59.894 72.982 59.431 73.486 C 59.106 73.84 58.671 74.036 58.207 74.036 C 56.866 74.036 53.735 71.523 52.157 68.052 C 50.716003 64.880005 49.416 61.135 49.17 60.417 L 48.962 59.797 L 49.243 59.238 C 50.619 56.494 52.419 54.046997 54.591 51.962 L 55.112 51.462997 L 57.23 53.501 L 56.751 54.04 C 55.495 55.454 54.16 57.124 53.557 57.945 C 53.703 58.584 53.873 59.258 54.054 59.902 C 54.107 59.788 54.175 59.675 54.262 59.565 C 54.576 59.168 55.056 58.94 55.576 58.94 C 56.257 58.94 56.96 59.329 58.184 60.146 C 58.534 60.379 58.879 60.619 59.214 60.856 C 58.85 59.895 58.835 59.323 59.216 58.712997 C 59.529 58.213997 60.082 57.915997 60.696 57.915997 C 61.009 57.915997 61.326 57.980995 61.743 58.144997 C 61.617 57.616997 61.673 57.157997 61.779 56.803997 C 62.05 55.902996 62.753 55.315 63.522 54.914 C 61.559 53.749996 58.990997 52.381996 58.078 52.085 L 55.195 51.147 L 57.691 49.424 C 58.495 48.869 59.33 48.368 60.103996 47.976 L 60.831997 47.608997 L 61.534996 48.018 C 66.38 50.836 72.13699 54.431 73.67 57.239 C 73.932 57.717 74.626 58.987 73.969 60.094997 C 73.571 60.766 72.867004 61.107 71.879005 61.107 C 71.34801 61.107 70.755005 61.018 70.06801 60.914997 C 70.047005 60.912 70.02701 60.908997 70.00601 60.906 C 70.889015 61.738 71.96401 62.787 73.03301 64.039 C 74.183014 65.385 74.84401 66.511 74.32801 67.630005 C 74.17601 67.961006 73.68201 68.731 72.40601 68.731 C 71.264015 68.731 69.60401 68.12 67.682014 67.413 C 67.61801 67.39 67.555016 67.366005 67.49301 67.343 C 67.570015 67.512 67.64601 67.677 67.71601 67.827 C 68.56601 69.663 69.52001 71.72301 69.362015 73.453 C 69.39601 73.91901 69.264015 74.361 68.987015 74.708 C 68.647 75.141 68.128 75.378 67.527 75.378 z " fill-opacity="0.07" stroke-opacity="0.07"/>
<path d="M 67.527 74.628 C 65.745 74.628 61.412003 71.272995 60.127 70.244 C 59.982 70.128 59.805 69.98599 59.612 69.83299 C 59.609 70.81899 59.397 72.41499 58.879 72.97799 C 58.696 73.17699 58.456997 73.28699 58.206997 73.28699 C 57.337997 73.28699 54.407997 71.191986 52.839996 67.74199 C 51.279995 64.31099 49.886997 60.19299 49.872 60.15199 L 49.772 59.85499 L 49.913 59.57499 C 51.252 56.90699 53.001 54.52799 55.109997 52.50399 L 56.19 53.54299 C 54.729 55.187992 53.212997 57.11199 52.752 57.78299 C 53.078 59.26799 53.897 62.48999 54.659 63.50699 C 54.735 63.60899 54.803 63.69499 54.861 63.76899 C 54.892 63.60399 54.925 63.39299 54.963 63.12299 C 55.038 62.57199 54.897 61.97699 54.783 61.49899 C 54.648003 60.92899 54.531 60.43599 54.85 60.03099 C 55.024 59.81099 55.282 59.69099 55.576004 59.69099 C 56.01 59.69099 56.542004 59.95299 57.768005 60.770992 C 58.555004 61.29499 59.317005 61.85099 59.998005 62.34899 C 60.350006 62.604992 60.737003 62.887993 61.092007 63.13599 L 61.004005 62.95599 C 59.80901 60.49999 59.447006 59.75899 59.852005 59.11099 C 60.029003 58.828987 60.33701 58.66699 60.697006 58.66699 C 61.074005 58.66699 61.525005 58.828987 62.36401 59.265987 C 62.96201 59.57699 63.412006 59.79199 63.752007 59.940987 C 63.605007 59.744987 63.418007 59.505985 63.181007 59.221985 C 62.520008 58.473984 62.285007 57.728985 62.49801 57.022984 C 62.82901 55.925983 64.12101 55.388985 65.19701 55.064983 C 63.35701 53.88098 59.565006 51.78298 58.311005 51.374985 L 56.870003 50.905983 L 58.118004 50.044983 C 58.896004 49.507984 59.701004 49.024982 60.444004 48.648983 L 60.807003 48.465984 L 61.159004 48.670982 C 65.549 51.224987 71.553 54.929985 73.013 57.602985 C 73.363 58.242985 73.713 59.061985 73.325 59.716984 C 72.94299 60.361984 72.143 60.361984 71.881 60.361984 C 71.398994 60.361984 70.821 60.273983 70.152 60.173985 C 69.454 60.068985 68.664 59.948982 67.885 59.920982 C 68.186005 60.229984 68.593 60.610985 68.972 60.966988 C 69.915 61.848988 71.206 63.057987 72.465 64.53099 C 73.619 65.88199 73.951 66.663994 73.648994 67.32099 C 73.535 67.56899 73.22099 67.98499 72.409 67.98499 L 72.409 67.98499 C 71.40099 67.98499 69.72099 67.367 67.944 66.71299 C 67.347 66.49299 66.762 66.27699 66.237 66.10099 C 66.214 66.09299 66.191 66.08499 66.17 66.07899 C 66.321 66.59898 66.728 67.47499 67.043 68.15699 C 67.86 69.92299 68.784 71.91699 68.611 73.45499 C 68.656 73.830986 68.528 74.08999 68.404 74.24499 C 68.263 74.419 67.997 74.628 67.527 74.628 z " fill-opacity="0.07" stroke-opacity="0.07"/>
<path d="M 50.043 70.19 C 49.653 70.024 46.496 68.587006 43.787 67.345 C 36.469997 63.991 36.33 63.927 36.33 61.943 C 36.323 61.736 35.642 44.38 35.642 44.38 L 41.189 50.509003 C 42.489 51.945004 49.288 56.271004 50.975 57.082 L 53.783997 56.825 L 53.673996 60.134003 L 54.585995 72.136 L 50.043 70.19 z " fill-opacity="0.07" stroke-opacity="0.07"/>
<path d="M 50.338 69.501 C 49.961 69.34 46.812 67.908 44.099003 66.664 C 37.08 63.446003 37.08 63.446003 37.08 61.943 C 37.073 61.715 36.472 46.415 36.472 46.415 L 40.632 51.012 C 42.098 52.631 49.417 57.245003 50.845 57.847 L 53.004 57.65 L 52.922 60.109 L 53.743 70.961 L 50.338 69.501 z " fill-opacity="0.07" stroke-opacity="0.07"/>
<path d="M 50.633 68.812 C 50.26 68.653 47.061 67.198 44.412 65.982994 C 37.83 62.964993 37.83 62.964993 37.83 61.943993 C 37.823 61.70999 37.303 48.450993 37.303 48.450993 L 40.075996 51.51499 C 41.624996 53.226994 49.480995 58.20999 50.744995 58.609993 L 52.22599 58.47399 L 52.171993 60.082993 L 52.901993 69.784 L 50.633 68.812 z " fill-opacity="0.07" stroke-opacity="0.07"/>
<path d="M 50.929 68.122 C 50.585 67.976 47.515 66.581 44.724 65.301 C 38.58 62.484 38.58 62.484 38.58 61.944004 C 38.573997 61.707005 38.133 50.486004 38.133 50.486004 L 39.52 52.018005 C 41.156 53.826004 49.499 59.174004 50.689 59.368004 L 51.448 59.299004 L 51.422997 60.059 L 52.063995 68.61 L 50.929 68.122 z " fill-opacity="0.07" stroke-opacity="0.07"/>
<path d="M 59.051 51.809 L 58.504997 49.822 C 57.706997 46.921997 53.927 41.3 52.066 39.44 L 46.597 33.976997 C 46.597 33.976997 63.411 34.726997 63.617 34.734997 C 65.562004 34.775997 65.623 34.916996 68.8 42.319996 C 69.972 45.05199 71.33 48.243996 71.489006 48.644997 L 73.324005 53.233997 L 59.051 51.809 z " fill-opacity="0.07" stroke-opacity="0.07"/>
<path d="M 59.638 51.113 L 59.229 49.622997 C 58.388 46.567 54.557 40.867996 52.596 38.907997 L 48.494 34.810997 C 48.494 34.810997 63.386 35.476 63.587 35.483 C 65.062996 35.513996 65.062996 35.513996 68.109 42.614 C 69.282 45.347 70.635 48.53 70.792 48.921 L 72.168 52.362 L 59.638 51.113 z " fill-opacity="0.07" stroke-opacity="0.07"/>
<path d="M 60.225 50.418 L 59.953 49.425 C 59.067 46.207 55.188 40.439 53.127 38.378 L 50.393 35.647 C 50.393 35.647 63.367996 36.226 63.56 36.233 C 64.564995 36.254 64.564995 36.254 67.421 42.911 C 68.568 45.584 69.943 48.817 70.096 49.2 L 71.014 51.495003 L 60.225 50.418 z " fill-opacity="0.07" stroke-opacity="0.07"/>
<path d="M 60.812 49.723 L 60.676 49.227 C 59.73 45.791 55.766 39.956 53.656 37.848 L 52.289 36.482 C 52.289 36.482 63.337997 36.975 63.53 36.982 C 64.063995 36.993 64.063995 36.993 66.729996 43.205997 C 67.938 46.019997 69.257 49.123997 69.398 49.476997 L 69.856995 50.623997 L 60.812 49.723 z " fill-opacity="0.07" stroke-opacity="0.07"/>
<path d="M 49.125 63.073 C 43.951 60.428 39.321 57.246 35.361 53.613003 C 31.89 50.430004 28.909 46.881004 26.501 43.064003 C 21.105 34.51 20.169 27.247002 20.016998 24.521004 L 19.829 21.047005 L 23.301998 21.127005 C 26.541998 21.198004 35.029 21.811005 43.827995 25.977003 C 48.276997 28.081003 52.200996 30.812004 55.490997 34.096004 C 59.368996 37.968006 62.387997 42.635 64.468994 47.967003 L 65.85899 51.552 L 62.089993 52.293003 C 61.811993 52.377003 60.164993 53.228004 57.649994 55.743004 C 55.413994 57.980003 53.955994 60.136005 53.670994 61.109005 L 52.581993 64.828 L 49.125 63.073 z M 37.178 37.338 C 37.115 37.507 37.121 37.69 37.255 37.956 C 37.519 38.478 38.124 38.884003 38.469 38.884003 C 38.469 38.884003 38.469 38.885 38.47 38.885 C 38.475 38.885 38.508 38.863003 38.563 38.795 C 38.793 38.507004 39.043 38.108 38.919 37.85 C 38.743 37.483 38.225 37.207 37.713997 37.207 C 37.524 37.207 37.345 37.25 37.178 37.338 z " fill-opacity="0.07" stroke-opacity="0.07"/>
<path d="M 49.465 62.404 C 44.352 59.791 39.778 56.647 35.868 53.06 C 32.447 49.921997 29.509 46.424995 27.135 42.664 C 21.833 34.257996 20.914 27.145998 20.765 24.478998 L 20.62 21.815 L 23.283 21.876 C 26.473 21.945 34.833 22.548 43.505997 26.653 C 47.879 28.721 51.731995 31.403 54.961 34.625 C 58.765 38.424 61.727997 43.004 63.768997 48.238 L 64.835 50.987 L 61.944 51.555 C 61.655 51.611 59.894 52.435 57.118 55.211 C 55.032 57.297997 53.318 59.636 52.949 60.897 L 52.114 63.749 L 49.465 62.404 z M 36.599 36.815 C 36.323 37.294 36.319 37.767 36.585 38.294 C 36.958 39.032 37.803 39.634 38.468 39.634 C 38.656 39.634 38.885 39.59 39.146 39.264 C 39.948 38.263 39.681 37.706 39.593 37.524 C 39.291 36.896 38.518 36.456997 37.712997 36.456997 C 37.313 36.457 36.931 36.58 36.599 36.815 z " fill-opacity="0.07" stroke-opacity="0.07"/>
<linearGradient gradientUnits="userSpaceOnUse" x1="54.2627" x2="70.7257" y1="54.4063" y2="70.8693">
<stop offset="0" stop-color="#d0cbc5"/>
<stop offset="0.5031" stop-color="#fafcef"/>
<stop offset="0.9693" stop-color="#ffffff"/>
<stop offset="1" stop-color="#ffffff"/>
</linearGradient>
<path d="M 71.895 65.017 C 68.405 60.932 64.822 59.075996 67.854 59.168 C 70.884995 59.261 73.825 60.653 72.355 57.961 C 70.884995 55.269997 63.813995 51.081997 60.782997 49.318 C 60.167995 49.629 59.399 50.071 58.545 50.661 C 60.322 51.239 68.22 55.705 66.593994 55.448 C 65.86299 55.721996 61.654995 56.362 63.757996 58.740997 C 66.503 62.033997 64.307 61.12 62.019997 59.929996 C 59.73299 58.73999 60.191 59.563995 61.837 62.948997 C 63.483 66.335 60.648 63.589996 57.353996 61.393997 C 54.060997 59.198 55.981995 61.21 55.707996 63.222996 C 55.434 65.23599 55.158997 65.419 54.061996 63.95499 C 52.964996 62.49099 51.957996 57.64199 51.957996 57.64199 C 52.173996 57.209995 53.979996 54.901993 55.632996 53.041996 C 53.87199 54.730995 52.055996 56.980995 50.585995 59.908997 C 50.585995 59.908997 51.963993 63.992996 53.524994 67.42899 C 55.08699 70.86399 57.841995 72.534 58.209995 72.534 C 58.577995 72.534 58.944996 70.585 58.853996 69.47099 C 58.762997 68.35699 56.189995 66.12899 60.598995 69.65699 C 65.007996 73.18499 68.132 74.67099 67.856 73.46399 C 68.315994 70.49299 63.170994 64.27399 66.479 65.38699 C 69.782 66.502 75.386 69.102 71.895 65.017 z " fill="#ea6733" fill-opacity="1"/>
<linearGradient gradientUnits="userSpaceOnUse" x1="45.0942" x2="45.0942" y1="67.4326" y2="52.5205">
<stop offset="0" stop-color="#d0cbc5"/>
<stop offset="0.5031" stop-color="#fafcef"/>
<stop offset="0.9693" stop-color="#ffffff"/>
<stop offset="1" stop-color="#ffffff"/>
</linearGradient>
<path d="M 38.964 52.521 C 38.964 52.521 39.33 61.852 39.33 61.944 C 39.33 62.035 50.583 67.159 51.224003 67.433 L 50.675003 60.114 C 49.668 60.205 40.702 54.441 38.964 52.521 z " fill="#f0f0f0" fill-opacity="1"/>
<linearGradient gradientUnits="userSpaceOnUse" x1="61.4443" x2="61.4443" y1="49.7559" y2="37.3179">
<stop offset="0" stop-color="#d0cbc5"/>
<stop offset="0.5031" stop-color="#fafcef"/>
<stop offset="0.9693" stop-color="#ffffff"/>
<stop offset="1" stop-color="#ffffff"/>
</linearGradient>
<path d="M 54.187 37.317 C 54.187 37.317 63.416 37.729 63.506 37.732 C 63.598 37.734 68.444 49.109 68.702 49.756004 L 61.398003 49.027004 C 60.417 45.462 56.339 39.468 54.187 37.317 z " fill="#f0f0f0" fill-opacity="1"/>
<path d="M 49.805 61.735 C 44.753 59.153 40.235 56.048 36.375 52.507 C 33.002 49.414 30.107 45.967 27.77 42.263 C 22.561 34.005 21.661 27.046 21.515 24.437 L 21.414 22.584 L 23.267 22.626 C 26.409 22.694 34.642 23.287 43.186 27.331 C 47.481003 29.363 51.265 31.995998 54.431 35.156 C 58.16 38.879997 61.067 43.372997 63.07 48.51 L 63.812 50.422997 L 61.8 50.82 C 61.152 50.945 59.166 52.104 56.587997 54.682 C 54.388996 56.882 52.636997 59.294 52.229996 60.687 L 51.64899 62.671 L 49.805 61.735 z M 36.035 36.301 C 35.549 37.041 35.509 37.824997 35.915 38.630997 C 36.419003 39.629997 37.517 40.382996 38.468 40.382996 C 38.966003 40.382996 39.379 40.170994 39.731003 39.733997 C 40.460003 38.824997 40.641003 37.970997 40.270004 37.198997 C 39.841003 36.305996 38.813004 35.705997 37.713005 35.705997 C 37.101 35.707 36.522 35.912 36.035 36.301 z " fill-opacity="0.07" stroke-opacity="0.07"/>
<path d="M 50.145 61.066 C 45.154 58.515003 40.692 55.45 36.882 51.955 C 33.558 48.906 30.705 45.51 28.404 41.863003 C 23.287998 33.753 22.405998 26.946005 22.264 24.396004 L 22.207 23.353004 L 23.249 23.377005 C 26.343 23.443005 34.451 24.028004 42.864 28.010004 C 47.080997 30.005005 50.794 32.588005 53.9 35.688004 C 57.554996 39.338005 60.405 43.744003 62.37 48.784004 L 62.788 49.861004 L 61.655 50.084003 C 60.740997 50.261 58.601 51.608 56.057 54.152004 C 53.740997 56.468 51.955 58.951004 51.509 60.47601 L 51.182 61.593006 L 50.145 61.066 z M 35.475 35.792 C 34.595997 37.045 34.863 38.209 35.246 38.969 C 35.879 40.223003 37.234997 41.134003 38.469 41.134003 C 39.198 41.134003 39.82 40.821003 40.316 40.205 C 40.950996 39.412003 41.577 38.188004 40.947 36.875 C 40.396 35.728 39.095997 34.957 37.713997 34.957 C 36.887 34.957 36.115 35.245 35.475 35.792 z " fill-opacity="0.07" stroke-opacity="0.07"/>
<linearGradient gradientUnits="userSpaceOnUse" x1="42.3823" x2="42.3823" y1="60.5156" y2="24.1221">
<stop offset="0" stop-color="#d0cbc5"/>
<stop offset="0.5031" stop-color="#fafcef"/>
<stop offset="0.9693" stop-color="#ffffff"/>
<stop offset="1" stop-color="#ffffff"/>
</linearGradient>
<path d="M 50.484 60.397 C 45.555 57.878 41.149 54.851997 37.388 51.402 C 34.113 48.398 31.303 45.053 29.037 41.463 C 24.015 33.501 23.150002 26.846 23.012 24.355 L 23.0 24.122 L 23.232 24.127 C 26.279 24.192 34.26 24.768 42.544 28.688 C 46.684 30.646 50.326 33.181 53.37 36.219 C 56.952 39.795 59.745 44.115 61.671 49.057003 L 61.765 49.298004 L 61.511 49.348003 C 60.224 49.597004 57.874996 51.275 55.528 53.622 C 53.092 56.058 51.277 58.602 50.791 60.266003 L 50.718 60.516003 L 50.484 60.397 z M 34.916 35.284 C 33.696 36.951 34.179 38.519 34.576 39.307 C 35.342 40.823997 36.942 41.884 38.469 41.884 C 39.423 41.884 40.264 41.466 40.901 40.675 C 41.991 39.313 42.247 37.848 41.624 36.55 C 40.95 35.149 39.379 34.207 37.715 34.207 C 36.674 34.207 35.707 34.579 34.916 35.284 z " fill="#f0f0f0" fill-opacity="1"/>
</svg>
