<?xml version="1.0" encoding="UTF-8"?>
<svg xmlns="http://www.w3.org/2000/svg" xmlns:xlink="http://www.w3.org/1999/xlink" baseProfile="tiny" contentScriptType="text/ecmascript" contentStyleType="text/css" height="96px" preserveAspectRatio="xMidYMid meet" version="1.1" viewBox="0 0 96 96" width="96px" x="0px" y="0px" zoomAndPan="magnify">
<defs>
<linearGradient gradientTransform="matrix(1 0 0 -1 -300.9004 -120.5996)" gradientUnits="userSpaceOnUse" x1="348.9004" x2="348.9004" y1="-208.7109" y2="-172.7109">
<stop offset="0" stop-color="#02598b"/>
<stop offset="0.253" stop-color="#026d98"/>
<stop offset="0.7688" stop-color="#01a1bb"/>
<stop offset="1" stop-color="#00bacc"/>
</linearGradient>
<linearGradient gradientUnits="userSpaceOnUse" id="SVGID_9_" x1="8.0371" x2="87.9619" y1="52.1113" y2="52.1113">
<stop offset="0" stop-color="#02598b"/>
<stop offset="0.253" stop-color="#026d98"/>
<stop offset="0.7688" stop-color="#01a1bb"/>
<stop offset="1" stop-color="#00bacc"/>
</linearGradient>
<linearGradient gradientUnits="userSpaceOnUse" id="linearGradient3230" x1="8.0371" x2="87.9619" y1="52.1113" y2="52.1113">
<stop offset="0" stop-color="#02598b"/>
<stop offset="0.253" stop-color="#026d98"/>
<stop offset="0.7688" stop-color="#01a1bb"/>
<stop offset="1" stop-color="#00bacc"/>
</linearGradient>
</defs>
<path d="M 88.0 49.0 C 88.0 78.633 77.637 89.0 48.0 89.0 C 18.365 89.0 8.0 78.633 8.0 49.0 C 8.0 19.365 18.365 9.0 48.0 9.0 C 77.637 9.0 88.0 19.365 88.0 49.0 z " fill-opacity="0.4"/>
<rect fill="none" height="96" width="96"/>
<linearGradient gradientTransform="matrix(1 0 0 1 -407.875 -1314.041)" gradientUnits="userSpaceOnUse" x1="455.874" x2="455.874" y1="1402.042" y2="1322.042">
<stop offset="0" stop-color="#000000"/>
<stop offset="1" stop-color="#58595b"/>
</linearGradient>
<path d="M 88.0 48.0 C 88.0 77.634 77.639 88.0 48.0 88.0 C 18.365 88.0 8.0 77.634 8.0 48.0 C 8.0 18.365995 18.365 8.0 48.0 8.0 C 77.637 8.0 88.0 18.366 88.0 48.0 z " fill="#282829" fill-opacity="1"/>
<linearGradient gradientTransform="matrix(1 0 0 1 -407.875 -1314.041)" gradientUnits="userSpaceOnUse" id="SVGID_2_" x1="455.875" x2="455.875" y1="1322.293" y2="1401.5376">
<stop offset="0" stop-color="#ffffff"/>
<stop offset="1" stop-color="#ffffff" stop-opacity="0"/>
</linearGradient>
<path d="M 48.0 8.0 C 18.365 8.0 8.0 18.366 8.0 48.0 C 8.0 77.634 18.365 88.0 48.0 88.0 C 77.639 88.0 88.0 77.634 88.0 48.0 C 88.0 18.365995 77.637 8.0 48.0 8.0 z M 48.0 87.0 C 18.842 87.0 9.0 77.158 9.0 48.0 C 9.0 18.842005 18.842 9.0 48.0 9.0 C 77.158005 9.0 87.0 18.842 87.0 48.0 C 87.0 77.158005 77.158 87.0 48.0 87.0 z " fill="url(#SVGID_2_)" fill-opacity="0.15"/>
<linearGradient gradientUnits="userSpaceOnUse" x1="11" x2="85" y1="29.4419" y2="29.4419">
<stop offset="0" stop-color="#ffffff" stop-opacity="0.4"/>
<stop offset="0.2424" stop-color="#ffffff" stop-opacity="0.5"/>
<stop offset="0.5091" stop-color="#ffffff"/>
<stop offset="0.7939" stop-color="#ffffff" stop-opacity="0.5"/>
<stop offset="1" stop-color="#ffffff" stop-opacity="0.4"/>
</linearGradient>
<path d="M 48.938 24.292 L 48.0 24.292 L 48.0 31.782 L 48.938 31.782 L 48.938 24.292 z M 37.701 28.973 L 36.765 28.973 L 36.765 31.782 L 37.701 31.782 L 37.701 28.973 z M 32.083 28.973 L 31.146 28.973 L 31.146 31.782 L 32.083 31.782 L 32.083 28.973 z M 82.645 28.973 L 81.708 28.973 L 81.708 31.782 L 82.645 31.782 L 82.645 28.973 z M 43.319 28.973 L 42.381 28.973 L 42.381 31.782 L 43.319 31.782 L 43.319 28.973 z M 60.174 28.973 L 59.236 28.973 L 59.236 31.782 L 60.174 31.782 L 60.174 28.973 z M 71.407 28.973 L 70.47 28.973 L 70.47 31.782 L 71.407 31.782 L 71.407 28.973 z M 53.616 31.782 L 54.553 31.782 L 54.553 28.973 L 53.616 28.973 L 53.616 31.782 z M 77.023 21.484 L 76.085 21.484 L 76.085 31.782 L 77.023 31.782 L 77.023 21.484 z M 65.79 28.973 L 64.853004 28.973 L 64.853004 31.782 L 65.79 31.782 L 65.79 28.973 z M 26.465 28.973 L 25.529 28.973 L 25.529 31.782 L 26.465 31.782 L 26.465 28.973 z M 35.829 37.4 L 36.765 37.4 L 36.765 34.592003 L 35.829 34.592003 L 35.829 37.4 z M 69.534 37.4 L 70.47099 37.4 L 70.47099 34.592003 L 69.534 34.592003 L 69.534 37.4 z M 52.682 37.4 L 53.618 37.4 L 53.618 34.592003 L 52.682 34.592003 L 52.682 37.4 z M 58.298 37.4 L 59.236 37.4 L 59.236 34.592003 L 58.298 34.592003 L 58.298 37.4 z M 63.918 37.4 L 64.854 37.4 L 64.854 34.592003 L 63.917995 34.592003 L 63.917995 37.4 z M 11.0 32.72 C 11.033 33.036003 11.073 33.344 11.112 33.656 L 84.891 33.656 C 84.928 33.344 84.965 33.036003 85.0 32.72 L 11.0 32.72 z M 75.15 36.464 L 77.023 36.464 L 77.023 34.592 L 75.15 34.592 L 75.15 36.464 z M 80.771 37.4 L 81.708 37.4 L 81.708 34.592003 L 80.771 34.592003 L 80.771 37.4 z M 13.358 37.4 L 14.294 37.4 L 14.294 34.592003 L 13.358 34.592003 L 13.358 37.4 z M 18.039 36.464 L 19.911 36.464 L 19.911 34.592 L 18.039 34.592 L 18.039 36.464 z M 20.847 21.484 L 19.911 21.484 L 19.911 31.782 L 20.847 31.782 L 20.847 21.484 z M 15.23 28.973 L 14.294 28.973 L 14.294 31.782 L 15.23 31.782 L 15.23 28.973 z M 30.21 37.4 L 31.146 37.4 L 31.146 34.592003 L 30.21 34.592003 L 30.21 37.4 z M 41.445 37.4 L 42.381 37.4 L 42.381 34.592003 L 41.445 34.592003 L 41.445 37.4 z M 47.064 36.464 L 48.938 36.464 L 48.938 34.592 L 47.064 34.592 L 47.064 36.464 z M 24.593 37.4 L 25.529 37.4 L 25.529 34.592003 L 24.593 34.592003 L 24.593 37.4 z " fill="#b0b0b3" fill-opacity="1"/>
<rect fill="#ffffff" fill-opacity="0.2" height="2.81" width="3.745" x="21.785" y="40.208"/>
<rect fill="#ffffff" fill-opacity="0.2" height="0.936" width="0.937" x="21.785" y="40.208"/>
<rect fill="#ffffff" fill-opacity="0.2" height="0.936" width="0.936" x="22.721" y="41.145"/>
<rect fill="#ffffff" fill-opacity="0.2" height="0.936" width="0.936" x="23.657" y="40.208"/>
<rect fill="#ffffff" fill-opacity="0.2" height="0.938" width="0.937" x="21.785" y="42.081"/>
<rect fill="#ffffff" fill-opacity="0.2" height="0.938" width="1.872" x="23.657" y="42.081"/>
<rect fill="#ffffff" fill-opacity="0.2" height="2.81" width="3.743" x="68.6" y="40.208"/>
<rect fill="#ffffff" fill-opacity="0.2" height="0.938" width="0.936" x="71.407" y="42.081"/>
<rect fill="#ffffff" fill-opacity="0.2" height="0.936" width="0.938" x="70.471" y="41.145"/>
<rect fill="#ffffff" fill-opacity="0.2" height="0.938" width="1.871" x="68.6" y="42.081"/>
<rect fill="#ffffff" fill-opacity="0.2" height="0.936" width="0.936" x="71.407" y="40.208"/>
<rect fill="#ffffff" fill-opacity="0.2" height="0.936" width="1.871" x="68.6" y="40.208"/>
<path d="M 32.0 9.421 L 32.0 86.578995 C 34.162 87.036995 36.494 87.379 39.0 87.61099 L 39.0 8.389 C 36.494 8.621 34.162 8.963 32.0 9.421 z " fill-opacity="0.1"/>
<path d="M 33.0 9.215 L 33.0 86.785 C 34.58 87.087006 36.244 87.331 38.0 87.517006 L 38.0 8.482 C 36.244 8.669 34.58 8.913 33.0 9.215 z " fill-opacity="0.2"/>
<path d="M 33.5 9.12 L 33.5 86.880005 C 34.777 87.11101 36.111 87.30501 37.5 87.462006 L 37.5 8.538 C 36.111 8.695 34.777 8.889 33.5 9.12 z " fill-opacity="0.3"/>
<linearGradient gradientTransform="matrix(1 0 0 1 -601.8008 -498.1992)" gradientUnits="userSpaceOnUse" x1="637.2998" x2="637.2998" y1="585.5986" y2="506.8018">
<stop offset="0" stop-color="#900058"/>
<stop offset="1" stop-color="#ff3f7c"/>
</linearGradient>
<path d="M 34.0 9.037 L 34.0 86.963005 C 34.969 87.129005 35.969 87.274 37.0 87.399 L 37.0 8.602 C 35.969 8.727 34.969 8.871 34.0 9.037 z " fill="#fa664b" fill-opacity="1"/>
<linearGradient gradientTransform="matrix(1 0 0 1 -601.8008 -498.1992)" gradientUnits="userSpaceOnUse" x1="636.2998" x2="636.2998" y1="585.3271" y2="507.0732">
<stop offset="0" stop-color="#ff3f7c" stop-opacity="0"/>
<stop offset="0.497" stop-color="#ff3f7c"/>
<stop offset="1" stop-color="#e63174"/>
</linearGradient>
<linearGradient gradientTransform="matrix(1 0 0 1 -601.8008 -498.1992)" gradientUnits="userSpaceOnUse" x1="638.2998" x2="638.2998" y1="585.5986" y2="506.8018">
<stop offset="0" stop-color="#ff3f7c" stop-opacity="0"/>
<stop offset="0.497" stop-color="#ff3f7c"/>
<stop offset="1" stop-color="#e63174"/>
</linearGradient>
<linearGradient gradientTransform="matrix(1 0 0 1 -601.8008 -498.1992)" gradientUnits="userSpaceOnUse" x1="637.2998" x2="637.2998" y1="515.2002" y2="506.8018">
<stop offset="0" stop-color="#ff3366" stop-opacity="0"/>
<stop offset="1" stop-color="#ff99b9"/>
</linearGradient>
<path d="M 87.932 52.111 C 86.997 78.685 76.264 88.111 48.0 88.111 C 19.743 88.111 9.0060005 78.687 8.068001 52.122 C 20.25 52.122 70.875 52.111 87.932 52.111 z " fill="#025cae" fill-opacity="1"/>
<path d="M 87.962 51.111 L 87.893 53.111 L 8.107994 53.111 L 8.036994 51.111 L 87.962 51.111 z " fill="url(#linearGradient3230)" fill-opacity="0.2"/>
<radialGradient cx="614.3555" cy="728.125" gradientTransform="matrix(1 0 0 1 -563.3809 -667.6191)" gradientUnits="userSpaceOnUse" id="SVGID_10_" r="5.9905">
<stop offset="0" stop-color="#fafcef"/>
<stop offset="0.3232" stop-color="#fafcef"/>
<stop offset="1" stop-color="#d0cbc5"/>
</radialGradient>
<path d="M 55.866 64.404 L 55.562 64.101 L 55.573 63.823 L 56.022003 63.373997 L 57.098003 63.373997 L 57.836 64.105995 L 57.836 64.40399 L 55.866 64.40399 z M 50.617 61.986 L 50.516 61.986 L 50.303997 62.198 L 50.303997 62.433 L 51.034996 62.433 L 51.234997 62.230003 L 51.234997 62.007004 L 50.701996 61.472004 L 50.840996 61.331005 L 50.840996 61.165005 L 50.478996 61.165005 L 50.657997 60.984005 L 50.392 60.984005 L 50.219997 61.148006 L 50.219997 61.424007 L 50.615997 61.820007 L 50.615997 61.986 L 50.617 61.986 z M 50.083 62.143 L 50.083 61.980003 L 50.193 61.870003 L 50.193 61.615 L 49.951 61.615 L 49.723 61.802 L 49.723 61.968 L 49.531 62.162003 L 49.531 62.368004 L 49.861 62.368004 L 50.083 62.143 z " fill="url(#SVGID_10_)"/>
<radialGradient cx="613.7959" cy="723.6152" gradientTransform="matrix(1 0 0 1 -563.3809 -667.6191)" gradientUnits="userSpaceOnUse" id="SVGID_11_" r="19.6943">
<stop offset="0" stop-color="#fafcef"/>
<stop offset="0.3232" stop-color="#fafcef"/>
<stop offset="1" stop-color="#d0cbc5"/>
</radialGradient>
<path d="M 49.326 57.053 L 45.045 57.053 L 44.528 57.573 L 43.337 57.573 L 43.337 58.136 L 44.528 58.136 L 44.528 58.981003 L 45.125 58.981003 L 44.781 59.323 L 44.372997 59.323 L 44.372997 60.772003 L 45.038 60.772003 L 45.782997 60.028004 L 46.298996 60.028004 L 47.570995 58.76 L 48.038994 58.76 L 49.577995 57.228 L 49.326 57.053 z " fill="url(#SVGID_11_)"/>
<path d="M 48.09 87.611 C 38.992 87.611 31.59 80.209 31.59 71.108 C 31.59 62.011 38.992 54.611 48.09 54.611 C 57.189 54.611 64.59 62.011 64.59 71.108 C 64.59 80.209 57.188 87.611 48.09 87.611 L 48.09 87.611 z " fill-opacity="0.02"/>
<path d="M 48.09 87.096 C 39.276 87.096 32.106 79.924 32.106 71.109 C 32.106 62.299 39.276 55.128 48.09 55.128 C 56.903 55.128 64.074 62.300003 64.074 71.109 C 64.074 79.924 56.902 87.096 48.09 87.096 L 48.09 87.096 z " fill-opacity="0.02"/>
<path d="M 48.09 86.58 C 39.56 86.58 32.621002 79.639 32.621002 71.108 C 32.621002 62.581 39.559 55.642 48.090004 55.642 C 56.619003 55.642 63.55901 62.58 63.55901 71.108 C 63.559 79.639 56.619 86.58 48.09 86.58 L 48.09 86.58 z " fill-opacity="0.05"/>
<path d="M 48.09 86.064 C 39.845 86.064 33.137 79.35401 33.137 71.108 C 33.137 62.865 39.845 56.158 48.09 56.158 C 56.334 56.158 63.043 62.865 63.043 71.108 C 63.043 79.354 56.334 86.064 48.09 86.064 L 48.09 86.064 z " fill-opacity="0.05"/>
<path d="M 48.09 85.549 C 40.13 85.549 33.652 79.07101 33.652 71.109 C 33.652 63.149 40.129 56.674 48.09 56.674 C 56.051 56.674 62.528 63.149 62.528 71.109 C 62.527 79.071 56.051 85.549 48.09 85.549 L 48.09 85.549 z " fill-opacity="0.15"/>
<path d="M 62.012 71.108 C 62.012 78.79801 55.781 85.033005 48.09 85.033005 C 40.402 85.033005 34.168 78.799 34.168 71.108 C 34.168 63.422 40.402 57.189003 48.09 57.189003 C 55.78 57.189 62.012 63.423 62.012 71.108 z " fill-opacity="0.15"/>
<radialGradient cx="598.8184" cy="738.8555" gradientTransform="matrix(0.9927 0 0 0.9942 -545.9585 -673.0683)" gradientUnits="userSpaceOnUse" r="19.7883">
<stop offset="0" stop-color="#00bacc"/>
<stop offset="0.2312" stop-color="#01a1bb"/>
<stop offset="0.747" stop-color="#026d98"/>
<stop offset="1" stop-color="#02598b"/>
</radialGradient>
<path d="M 62.012 70.077 C 62.012 77.767006 55.781 84.00201 48.09 84.00201 C 40.402 84.00201 34.168 77.768005 34.168 70.077 C 34.168 62.391003 40.402 56.158005 48.09 56.158005 C 55.78 56.158 62.012 62.392 62.012 70.077 z " fill="#0277b6" fill-opacity="1"/>
<path d="M 53.281 61.893 C 53.273 61.901 53.323997 61.908 53.411 61.911003 L 53.221 61.719 C 53.267 61.791 53.306 61.867 53.281 61.893 z "/>
<polygon points="60.311,67.815 59.639,67.143 59.578,67.203 60.189,67.815 "/>
<path d="M 60.104 64.491 C 60.18 64.661995 60.25 64.834 60.316 65.009995 L 60.316 64.703995 L 60.104 64.491 z "/>
<path d="M 54.126 61.902 C 54.321 61.895 54.475 61.892 54.475 61.892 L 55.129 61.239 L 54.52 61.239 L 54.52 60.779003 L 54.52 60.773003 L 54.52 60.425003 L 54.246 60.700005 L 54.246 61.32301 L 54.246 61.782005 L 54.126 61.902 z "/>
<rect height="0.34" width="0.35" x="50.815" y="63.161"/>
<polygon points="55.129,61.239 55.357,61.013 55.357,60.779 54.52,60.779 54.52,61.239 "/>
<path d="M 59.69 70.938 L 58.433 69.681 L 58.433 70.169 L 59.69 71.427 L 60.573 71.427 L 61.983997 70.020004 C 61.976997 69.864006 61.970997 69.705 61.963997 69.546005 L 60.572 70.938 L 59.69 70.938 z "/>
<path d="M 53.118 61.571 C 53.118 61.571 53.173 61.643 53.221 61.717 L 53.411 61.909 C 53.584 61.916 53.887 61.908 54.127 61.901 L 54.245 61.784 L 54.245 61.325 L 53.971 61.596 L 53.562 61.596 L 53.16 61.194 L 52.376 61.194 L 52.376 61.653 L 52.597 61.653 L 52.681 61.571 L 53.118 61.571 L 53.118 61.571 z "/>
<polygon points="57.517,63.863 58.081,64.433 58.246,64.433 58.246,64.136 57.517,63.406 56.445,63.406 56,63.854 55.988,64.133   56.084,64.226 56.445,63.863 "/>
<polygon points="51.078,62.029 51.078,61.863 50.779,61.565 50.684,61.654 50.684,61.929 50.883,62.129 50.98,62.029 "/>
<polygon points="56.415,59.879 56.541,59.879 56.541,59.683 56.472,59.617 56.139,59.603 "/>
<polygon points="54.52,60.316 55.106,59.727 54.76,59.727 54.243,60.241 54.243,60.701 54.52,60.426 "/>
<path d="M 60.104 64.491 L 59.72 64.103 L 59.526 64.103 L 59.526 64.37299 L 60.318 65.161995 L 60.318 65.01 C 60.249 64.834 60.18 64.662 60.104 64.491 z "/>
<polygon points="50.328,62.406 50.193,62.406 50.193,62.467 50.004,62.659 50.004,62.864 50.328,62.864 50.551,62.646   50.551,62.479 50.656,62.373 50.656,62.116 50.551,62.116 50.551,62.184 "/>
<path d="M 58.762 63.83 L 58.986 64.064 L 59.425 63.624004 L 59.712997 63.624004 C 59.632996 63.467003 59.537 63.317005 59.449997 63.164005 L 59.424995 63.164005 L 58.762 63.83 z "/>
<path d="M 59.639 66.682 L 59.351 66.975 L 59.579 67.204 L 59.640003 67.143 L 60.312004 67.815994 L 61.030003 67.815994 C 61.014004 67.69299 60.988003 67.574 60.969 67.452995 L 60.408 67.452995 L 59.639 66.682 z "/>
<rect height="0.459" width="0.426" x="57.381" y="66.965"/>
<polygon points="53.354,74.319 53.354,74.807 54.17,75.626 54.17,75.136 "/>
<polygon points="50.105,72.863 48.76,71.516 48.76,72.004 50.105,73.35 53.354,73.35 53.354,72.863 "/>
<polygon points="57.907,78.717 58.974,77.649 58.974,77.16 57.907,78.229 "/>
<polygon points="51.304,65.449 52.01,64.74 52.01,64.373 52.993,64.373 53.844,65.223 54.194,64.871 53.966,64.643 53.844,64.765   52.993,63.914 52.01,63.914 52.01,64.283 51.021,65.274 50.327,65.274 50.087,65.035 50.087,65.494 50.272,65.679 50.502,65.449 "/>
<polygon points="54.581,64.757 54.581,65.162 55.315,65.162 55.315,64.891 55.627,64.891 56.527,65.794 57.309,65.794   57.309,65.334 56.527,65.334 55.627,64.433 55.315,64.433 55.315,64.704 54.581,64.704 54.581,64.297 53.904,63.622 53.408,63.622   53.867,64.083 53.904,64.083 "/>
<polygon points="58.974,75.207 61.066,73.117 61.066,72.626 58.974,74.716 "/>
<polygon points="51.553,62.7 51.695,62.559 51.695,62.508 51.576,62.389 51.495,62.471 51.078,62.471 51.078,62.489 50.98,62.489   50.77,62.7 50.77,62.932 50.815,62.932 50.815,62.7 "/>
<polygon points="54.934,81.331 54.17,80.568 54.17,81.06 54.934,81.822 55.52,81.822 56.653,81.004 57.907,79.83 57.907,79.34   55.914,81.331 "/>
<polygon points="49.8,57.584 49.76,57.584 48.522,58.82 48.056,58.82 46.795,60.079 46.281,60.079 45.541,60.819 44.882,60.819   44.882,61.28 45.541,61.28 46.281,60.538 46.795,60.538 48.056,59.281 48.522,59.281 50.047,57.755 "/>
<linearGradient gradientTransform="matrix(1 0 0 1 -563.3809 -667.6191)" gradientUnits="userSpaceOnUse" x1="611.457" x2="611.457" y1="731.7793" y2="747.4413">
<stop offset="0" stop-color="#fafcef"/>
<stop offset="0.3232" stop-color="#fafcef"/>
<stop offset="1" stop-color="#d0cbc5"/>
</linearGradient>
<path d="M 50.127 62.908 L 50.473 62.908 L 50.709 62.672 L 50.709 62.497 L 50.822 62.385 L 50.822 62.112003 L 50.566 62.112003 L 50.328 62.309 L 50.328 62.487003 L 50.127 62.69 L 50.127 62.908 z M 51.271 62.508 L 51.166 62.508 L 50.943 62.733 L 50.943 62.978996 L 51.714 62.978996 L 51.928 62.765995 L 51.928 62.528996 L 51.36 61.965996 L 51.509 61.812996 L 51.509 61.636997 L 51.128 61.636997 L 51.315 61.449997 L 51.037 61.449997 L 50.851997 61.618996 L 50.851997 61.911995 L 51.270996 62.331993 L 51.271 62.508 L 51.271 62.508 z M 36.258 67.341 L 36.525 67.607 L 36.525 68.248 L 36.810997 68.248 L 36.810997 67.034004 L 37.65 66.19401 L 38.203 66.19401 L 39.861 64.53601 L 40.83 64.53601 L 41.097 64.27201 L 41.097 63.43201 L 40.809 63.43201 L 40.809 63.214012 L 42.182003 63.214012 L 42.538 62.860012 L 42.538 62.61201 L 42.123 62.19701 L 42.123 61.05901 L 41.669003 61.51101 L 41.206 61.51101 L 41.206 60.87201 L 40.522003 60.87201 L 40.014004 61.37901 L 39.737003 61.37901 L 39.737003 62.20701 L 38.998005 62.946007 L 38.998005 62.26301 L 38.403004 62.26301 L 38.403004 61.798008 L 37.683 61.798008 L 37.683 61.521008 L 38.820004 60.384007 L 39.219 60.384007 L 39.835003 59.765007 L 40.368004 59.765007 L 40.898003 59.23401 L 41.404003 59.23401 L 41.899 59.73201 L 41.691 59.94201 L 41.184 59.94201 L 41.184 60.230007 L 41.783 60.82501 L 42.179 60.82501 L 42.533 60.47101 L 42.533 60.084007 L 43.139 60.084007 L 43.394 59.827007 L 42.136 58.56701 L 41.622 58.56701 L 41.848003 58.33801 L 42.676003 58.33801 L 43.197 57.819008 L 43.439003 57.584007 L 44.395004 57.584007 L 44.609005 57.368008 L 42.428005 57.368008 C 41.763004 57.66401 41.127007 58.008007 40.52401 58.403008 L 40.52401 58.551006 L 41.384007 58.551006 L 41.230007 58.706005 L 40.63801 58.706005 L 40.062008 59.280006 L 40.419006 59.280006 L 40.126007 59.57301 L 39.583008 59.57301 L 39.363007 59.352005 L 39.68601 59.030006 L 39.64401 59.030006 C 36.937008 61.100006 35.01801 64.13801 34.39801 67.634 L 34.69401 67.337006 L 36.258 67.337006 z M 57.98 69.825 L 57.98 67.76199 L 58.433 67.76199 L 58.433 69.68199 L 59.69 70.938995 L 60.573 70.938995 L 61.983997 69.531 C 61.971996 69.243 61.967 68.95 61.937996 68.668 L 60.969997 68.668 L 60.075996 67.773 L 60.386 67.462006 L 61.201996 68.28001 L 61.879997 68.28001 C 61.685 66.758 61.241997 65.32001 60.596996 63.994007 L 60.596996 64.228004 L 60.262997 64.228004 L 60.262997 64.51301 L 61.104996 65.35401 L 61.104996 65.90801 L 60.395996 65.90801 L 60.154995 65.666016 L 60.154995 65.154015 L 59.450996 64.42502 L 60.154995 63.71602 L 60.462994 63.71602 C 59.715992 62.26302 58.720993 60.969017 57.532993 59.871017 L 57.182995 60.218018 L 56.951996 60.218018 L 56.657997 59.92402 L 57.086 59.94202 L 57.086 59.522022 L 56.830997 59.269024 L 54.26 59.269024 L 52.654 60.875023 L 52.654 61.618023 L 53.486 61.618023 L 53.915 62.048023 L 54.349 62.048023 L 54.642 61.75902 L 54.642 60.605022 L 55.191 60.056023 L 55.560997 60.056023 L 54.935 60.68302 L 54.935 61.17702 L 55.828 61.17702 L 55.828 61.424023 L 54.889 62.362022 C 54.889 62.362022 53.569 62.410023 53.618 62.362022 C 53.67 62.30902 53.444 62.020023 53.444 62.020023 L 52.979 62.020023 L 51.778 63.221024 L 50.99 63.221024 L 50.99 63.586025 L 51.364 63.586025 L 51.364 64.60003 L 50.216003 64.60003 L 50.216003 65.70503 L 50.471004 65.96103 L 51.209003 65.96103 L 52.262005 64.90403 L 52.262005 64.51203 L 53.310005 64.51203 L 54.214005 65.41603 L 54.589005 65.04103 L 53.752003 64.202034 L 54.279003 64.202034 L 54.999004 64.91904 L 54.999004 65.352036 L 55.78101 65.352036 L 55.78101 65.06403 L 56.113007 65.06403 L 57.071007 66.02303 L 57.90101 66.02303 L 57.90101 66.74403 L 57.39301 67.25104 L 55.69201 67.25104 L 55.69201 66.80904 L 53.59401 66.80904 L 53.59401 66.14703 L 50.65701 66.14703 L 48.75801 68.04704 L 48.75801 71.51404 L 50.10501 72.86304 L 53.352013 72.86304 L 53.352013 74.31804 L 54.169018 75.13404 L 54.169018 80.56704 L 54.933018 81.33104 L 55.913013 81.33104 L 57.906013 79.34004 L 57.906013 78.22804 L 58.971012 77.16104 L 58.971012 74.71904 L 61.06401 72.62704 L 61.06401 71.45104 L 59.60001 71.45104 L 57.98 69.825 z M 56.82 65.065 L 56.498 64.748 L 56.511 64.450005 L 56.986 63.974003 L 58.126 63.974003 L 58.901 64.75 L 58.901 65.064 L 56.82 65.064 z M 42.928 74.099 L 42.928 73.633 L 41.782 73.633 L 39.793003 71.642 L 37.49 71.642 L 37.120003 72.013 L 36.271004 72.013 L 35.797005 71.538 L 35.797005 70.389 L 35.287006 70.389 L 35.287006 69.512 L 34.96201 69.512 L 34.514004 69.958 L 34.175003 69.958 C 34.175003 69.998 34.169003 70.036 34.169003 70.077 C 34.169003 70.292 34.192 70.50101 34.202003 70.71501 L 34.361004 70.87501 L 34.714005 70.87501 L 36.241005 72.39901 L 36.654003 72.39901 L 36.654003 73.52001 L 36.386 73.791016 L 36.386 76.00802 L 37.738003 77.362015 L 38.121 77.362015 L 38.833004 78.07501 L 38.833004 80.459015 C 39.493004 81.04801 40.206005 81.572014 40.96901 82.030014 L 41.474007 82.030014 L 41.474007 81.40701 L 42.444008 80.44001 L 42.444008 79.44401 L 43.349007 78.54201 L 43.826008 78.54201 L 43.826008 76.54 L 44.829006 75.536 L 44.829006 74.574005 L 43.404007 74.574005 L 42.928 74.099 z M 49.909 57.286 L 45.385 57.286 L 44.840004 57.835 L 43.58 57.835 L 43.58 58.432 L 44.839 58.432 L 44.839 59.325 L 45.469 59.325 L 45.104 59.686 L 44.675 59.686 L 44.675 61.22 L 45.376 61.22 L 46.165 60.433 L 46.711 60.433 L 48.054 59.092003 L 48.55 59.092003 L 50.173 57.469 L 49.909 57.286 z " fill="#ffffff" fill-opacity="1"/>
<linearGradient gradientTransform="matrix(1 0 0 1 -563.3809 -667.6191)" gradientUnits="userSpaceOnUse" x1="611.4531" x2="611.4531" y1="753.7246" y2="746.1217">
<stop offset="0" stop-color="#ffffff"/>
<stop offset="1" stop-color="#ffffff" stop-opacity="0"/>
</linearGradient>
</svg>
