<?xml version="1.0" encoding="UTF-8"?>
<svg xmlns="http://www.w3.org/2000/svg" xmlns:xlink="http://www.w3.org/1999/xlink" baseProfile="tiny" contentScriptType="text/ecmascript" contentStyleType="text/css" height="96px" preserveAspectRatio="xMidYMid meet" version="1.1" viewBox="0 0 96 96" width="96px" x="0px" y="0px" zoomAndPan="magnify">
<defs>
<linearGradient id="linearGradient4007">
<stop offset="0" stop-color="#ffffff" stop-opacity="1"/>
<stop offset="1" stop-color="#ffffff" stop-opacity="0.78431374"/>
</linearGradient>
<linearGradient>
<stop offset="0" stop-color="#ffc91b" stop-opacity="1"/>
<stop offset="1" stop-color="#ffb71b" stop-opacity="1"/>
</linearGradient>
<linearGradient>
<stop offset="0" stop-color="#d5f6ff" stop-opacity="1"/>
<stop offset="1" stop-color="#0088aa" stop-opacity="1"/>
</linearGradient>
<linearGradient gradientTransform="matrix(1.0515857,0,0,1.01708,-253.45339,-715.60427)" gradientUnits="userSpaceOnUse" x1="254.83009" x2="358.8096" y1="763.97272" y2="763.97272">
<stop offset="0" stop-color="#f7f8f9"/>
<stop offset="1" stop-color="#d0d1d2"/>
</linearGradient>
<linearGradient gradientTransform="matrix(0.7261569,0,0,0.74770351,-174.61605,-527.27145)" gradientUnits="userSpaceOnUse" x1="254.83009" x2="358.8096" y1="763.97272" y2="763.97272">
<stop offset="0" stop-color="#f7f8f9"/>
<stop offset="1" stop-color="#d0d1d2"/>
</linearGradient>
<linearGradient gradientTransform="matrix(1,0,0,-1,-1.3115644,98.868328)" gradientUnits="userSpaceOnUse" x1="61.075901" x2="34.694302" y1="57.299801" y2="41.540901">
<stop offset="0" stop-color="#ffffff"/>
<stop offset="1" stop-color="#ffffff" stop-opacity="0.2"/>
</linearGradient>
<linearGradient gradientTransform="matrix(1,0,0,-1,1.0534719,96.841079)" gradientUnits="userSpaceOnUse" x1="61.075901" x2="34.694302" y1="57.299801" y2="41.540901">
<stop offset="0" stop-color="#ffffff"/>
<stop offset="1" stop-color="#ffffff" stop-opacity="0.2"/>
</linearGradient>
<linearGradient gradientTransform="matrix(1,0,0,-1,-2.4150126,95.9258)" gradientUnits="userSpaceOnUse" x1="34.720501" x2="60.039902" y1="56.8027" y2="41.976002">
<stop offset="0" stop-color="#ffffff"/>
<stop offset="1" stop-color="#ffffff" stop-opacity="0.2"/>
</linearGradient>
<linearGradient gradientTransform="matrix(1,0,0,-1,-2.5350845,97.20939)" gradientUnits="userSpaceOnUse" x1="34.720501" x2="60.039902" y1="56.8027" y2="41.976002">
<stop offset="0" stop-color="#ffffff"/>
<stop offset="1" stop-color="#ffffff" stop-opacity="0.2"/>
</linearGradient>
<linearGradient gradientTransform="matrix(1,0,0,-1,0.1597,95.9258)" gradientUnits="userSpaceOnUse" x1="63.148201" x2="61.403599" y1="26.3545" y2="22.778099">
<stop offset="0" stop-color="#ffffff"/>
<stop offset="1" stop-color="#a3a3a3"/>
</linearGradient>
<linearGradient gradientTransform="matrix(1,0,0,-1,0.1597,95.9258)" gradientUnits="userSpaceOnUse" x1="63.148201" x2="61.403599" y1="26.3545" y2="22.778099">
<stop offset="0" stop-color="#ffffff"/>
<stop offset="1" stop-color="#a3a3a3"/>
</linearGradient>
<linearGradient gradientTransform="matrix(1,0,0,-1,0.1597,95.9258)" gradientUnits="userSpaceOnUse" x1="62.543701" x2="64.113503" y1="40.8223" y2="37.072102">
<stop offset="0" stop-color="#ffffff"/>
<stop offset="1" stop-color="#a3a3a3"/>
</linearGradient>
<linearGradient gradientTransform="matrix(1,0,0,-1,0.1597,95.9258)" gradientUnits="userSpaceOnUse" x1="62.543701" x2="64.113503" y1="40.8223" y2="37.072102">
<stop offset="0" stop-color="#ffffff"/>
<stop offset="1" stop-color="#a3a3a3"/>
</linearGradient>
<linearGradient gradientTransform="matrix(1,0,0,-1,0.1597,95.9258)" gradientUnits="userSpaceOnUse" x1="45.003201" x2="45.003201" y1="40.209" y2="23.3596">
<stop offset="0" stop-color="#c2de91"/>
<stop offset="1" stop-color="#7b9e56"/>
</linearGradient>
<linearGradient gradientTransform="matrix(1,0,0,-1,0.1597,95.9258)" gradientUnits="userSpaceOnUse" x1="45.003201" x2="45.003201" y1="40.209" y2="23.3596">
<stop offset="0" stop-color="#c2de91"/>
<stop offset="1" stop-color="#7b9e56"/>
</linearGradient>
<linearGradient gradientTransform="matrix(1,0,0,-1,0.1597,95.9258)" gradientUnits="userSpaceOnUse" x1="45.003201" x2="45.003201" y1="40.209" y2="23.3596">
<stop offset="0" stop-color="#c2de91"/>
<stop offset="1" stop-color="#7b9e56"/>
</linearGradient>
<linearGradient gradientTransform="matrix(1,0,0,-1,0.1597,95.9258)" gradientUnits="userSpaceOnUse" x1="45.003201" x2="45.003201" y1="40.209" y2="23.3596">
<stop offset="0" stop-color="#c2de91"/>
<stop offset="1" stop-color="#7b9e56"/>
</linearGradient>
<linearGradient gradientTransform="matrix(1,0,0,-1,0.1597,95.9258)" gradientUnits="userSpaceOnUse" x1="45.003201" x2="45.003201" y1="40.209" y2="23.3596">
<stop offset="0" stop-color="#c2de91"/>
<stop offset="1" stop-color="#7b9e56"/>
</linearGradient>
<linearGradient gradientTransform="matrix(1,0,0,-1,0.1597,95.9258)" gradientUnits="userSpaceOnUse" x1="45.003201" x2="45.003201" y1="40.209" y2="23.3596">
<stop offset="0" stop-color="#c2de91"/>
<stop offset="1" stop-color="#7b9e56"/>
</linearGradient>
<linearGradient gradientTransform="matrix(1,0,0,-1,8.6194701,63.557984)" gradientUnits="userSpaceOnUse" x1="82.677498" x2="82.677498" y1="37.415001" y2="54.1577">
<stop offset="0" stop-color="#ffffff" stop-opacity="0.3"/>
<stop offset="1" stop-color="#ffffff"/>
</linearGradient>
<linearGradient gradientTransform="matrix(1,0,0,-1,-53.620329,92.86676)" gradientUnits="userSpaceOnUse" x1="82.677498" x2="82.677498" y1="37.415001" y2="54.1577">
<stop offset="0" stop-color="#ffffff" stop-opacity="0.3"/>
<stop offset="1" stop-color="#ffffff"/>
</linearGradient>
<linearGradient gradientTransform="matrix(1,0,0,-1,8.6194701,63.557984)" gradientUnits="userSpaceOnUse" x1="82.677498" x2="82.677498" y1="37.415001" y2="54.1577">
<stop offset="0" stop-color="#ffffff" stop-opacity="0.3"/>
<stop offset="1" stop-color="#ffffff"/>
</linearGradient>
<linearGradient gradientTransform="matrix(1,0,0,-1,-15.367455,78.154116)" gradientUnits="userSpaceOnUse" x1="82.677498" x2="82.677498" y1="37.415001" y2="54.1577">
<stop offset="0" stop-color="#ffffff" stop-opacity="0.3"/>
<stop offset="1" stop-color="#ffffff"/>
</linearGradient>
<linearGradient gradientTransform="matrix(1,0,0,-1,8.6194701,63.557984)" gradientUnits="userSpaceOnUse" x1="82.677498" x2="82.677498" y1="37.415001" y2="54.1577">
<stop offset="0" stop-color="#ffffff" stop-opacity="0.3"/>
<stop offset="1" stop-color="#ffffff"/>
</linearGradient>
<linearGradient gradientTransform="matrix(1,0,0,-1,-18.309984,107.94722)" gradientUnits="userSpaceOnUse" x1="82.677498" x2="82.677498" y1="37.415001" y2="54.1577">
<stop offset="0" stop-color="#ffffff" stop-opacity="0.3"/>
<stop offset="1" stop-color="#ffffff"/>
</linearGradient>
<linearGradient gradientTransform="matrix(1,0,0,1.0147106,0,-1.118872)" gradientUnits="userSpaceOnUse" x1="25.749846" x2="83.267105" y1="23.186441" y2="82.169495">
<stop offset="0" stop-color="#d5f6ff" stop-opacity="1"/>
<stop offset="1" stop-color="#0088aa" stop-opacity="1"/>
</linearGradient>
<linearGradient gradientTransform="matrix(1,0,0,-1,-111.07647,38.974359)" gradientUnits="userSpaceOnUse" x1="167.8877" x2="206.12601" y1="-45.7896" y2="-7.5511999">
<stop offset="0" stop-color="#ffffff"/>
<stop offset="1" stop-color="#e6e6e6"/>
</linearGradient>
<linearGradient gradientTransform="matrix(0.7653472,0,0,-0.76412837,-94.891385,27.599019)" gradientUnits="userSpaceOnUse" x1="167.8877" x2="206.12601" y1="-45.7896" y2="-7.5511999">
<stop offset="0" stop-color="#ffffff"/>
<stop offset="1" stop-color="#e6e6e6"/>
</linearGradient>
<linearGradient gradientTransform="matrix(0,1,-1,0,96,0)" gradientUnits="userSpaceOnUse" id="linearGradient3991" x1="8" x2="88" y1="48" y2="48">
<stop offset="0" stop-color="#ffc91b" stop-opacity="1"/>
<stop offset="1" stop-color="#ffb71b" stop-opacity="1"/>
</linearGradient>
<linearGradient gradientUnits="userSpaceOnUse" id="linearGradient3999" x1="57.21619" x2="57.21619" y1="10.090867" y2="88.407104">
<stop offset="0" stop-color="#ffc91b" stop-opacity="1"/>
<stop offset="1" stop-color="#ffb71b" stop-opacity="1"/>
</linearGradient>
<linearGradient gradientTransform="matrix(0.80353298,0,0,0.80353298,8.4354981,8.7445983)" gradientUnits="userSpaceOnUse" id="linearGradient3232" x1="57.21619" x2="57.21619" y1="10.090867" y2="88.407104">
<stop offset="0" stop-color="#ffc91b" stop-opacity="1"/>
<stop offset="1" stop-color="#ffb71b" stop-opacity="1"/>
</linearGradient>
<linearGradient gradientUnits="userSpaceOnUse" id="linearGradient4013" x1="37.877453" x2="37.877453" y1="25.348614" y2="71.011734">
<stop offset="0" stop-color="#ffffff" stop-opacity="1"/>
<stop offset="1" stop-color="#ffffff" stop-opacity="0.78431374"/>
</linearGradient>
<linearGradient gradientUnits="userSpaceOnUse" id="linearGradient4021" x1="40.342747" x2="40.342747" y1="24.849596" y2="71.168167">
<stop offset="0" stop-color="#ffffff" stop-opacity="1"/>
<stop offset="1" stop-color="#ffffff" stop-opacity="0.78431374"/>
</linearGradient>
</defs>
<path d="M 88.0 49.0 C 88.0 78.633 77.637 89.0 48.0 89.0 C 18.365 89.0 8.0 78.633 8.0 49.0 C 8.0 19.365 18.365 9.0 48.0 9.0 C 77.637 9.0 88.0 19.365 88.0 49.0 z " fill-opacity="0.4"/>
<linearGradient gradientUnits="userSpaceOnUse" x1="47.9995" x2="47.9995" y1="8" y2="88.0005">
<stop offset="0" stop-color="#00aad4" stop-opacity="1"/>
<stop offset="1" stop-color="#2ad4ff" stop-opacity="1"/>
</linearGradient>
<path d="M 48.0 88.0 C 18.367 88.0 8.0 77.637 8.0 48.0 C 8.0 18.365 18.367 8.0 48.0 8.0 C 77.635 8.0 88.0 18.365 88.0 48.0 C 88.0 77.637 77.635 88.0 48.0 88.0 z " fill="url(#linearGradient3991)" fill-opacity="1"/>
<rect fill="none" height="96" width="96"/>
<linearGradient gradientUnits="userSpaceOnUse" id="SVGID_2_" x1="47.9995" x2="47.9995" y1="8.2534" y2="87.4985">
<stop offset="0" stop-color="#ffffff"/>
<stop offset="1" stop-color="#ffffff" stop-opacity="0"/>
</linearGradient>
<path d="M 48.0 8.0 C 18.365 8.0 8.0 18.365 8.0 48.0 C 8.0 77.633 18.365 88.0 48.0 88.0 C 77.637 88.0 88.0 77.633 88.0 48.0 C 88.0 18.365 77.637 8.0 48.0 8.0 z M 48.0 87.0 C 18.842 87.0 9.0 77.158 9.0 48.0 C 9.0 18.842005 18.842 9.0 48.0 9.0 C 77.158005 9.0 87.0 18.842 87.0 48.0 C 87.0 77.158005 77.158 87.0 48.0 87.0 z " fill="url(#SVGID_2_)" fill-opacity="0.25" stroke-opacity="0.25"/>
<linearGradient gradientTransform="matrix(0.7071 -0.7071 0.7071 0.7071 -208.9813 3059.7412)" gradientUnits="userSpaceOnUse" x1="2309.3584" x2="2344.3584" y1="-1947.9287" y2="-1947.9287">
<stop offset="0" stop-color="#58595b"/>
<stop offset="1" stop-color="#000000"/>
</linearGradient>
<linearGradient gradientTransform="matrix(0.7071 -0.7071 0.7071 0.7071 -208.9813 3059.7412)" gradientUnits="userSpaceOnUse" x1="2309.3584" x2="2313.3604" y1="-1957.9277" y2="-1957.9277">
<stop offset="0" stop-color="#58595b"/>
<stop offset="1" stop-color="#000000"/>
</linearGradient>
<linearGradient gradientUnits="userSpaceOnUse" x1="54.292" x2="59.292" y1="10.3501" y2="38.934">
<stop offset="0" stop-color="#58595b"/>
<stop offset="1" stop-color="#000000"/>
</linearGradient>
<linearGradient gradientUnits="userSpaceOnUse" x1="32.5508" x2="42.1758" y1="12.6343" y2="45.1342">
<stop offset="0" stop-color="#58595b"/>
<stop offset="1" stop-color="#000000"/>
</linearGradient>
<linearGradient gradientUnits="userSpaceOnUse" x1="57.1484" x2="60.063" y1="35.2275" y2="38.1421">
<stop offset="0" stop-color="#ffffff"/>
<stop offset="0.7362" stop-color="#ffffff" stop-opacity="0"/>
<stop offset="1" stop-color="#ffffff" stop-opacity="0"/>
</linearGradient>
<linearGradient gradientUnits="userSpaceOnUse" x1="44.6177" x2="38.0733" y1="37.2412" y2="43.7856">
<stop offset="0" stop-color="#ffffff"/>
<stop offset="0.7362" stop-color="#ffffff" stop-opacity="0"/>
<stop offset="1" stop-color="#ffffff" stop-opacity="0"/>
</linearGradient>
<linearGradient gradientUnits="userSpaceOnUse" x1="47.9995" x2="47.9995" y1="45.5" y2="53.8766">
<stop offset="0" stop-color="#ffffff"/>
<stop offset="1" stop-color="#6d6e70"/>
</linearGradient>
<path d="M 52.17903 25.060406 L 29.239435 25.060406 C 27.042616 25.060406 26.618021 29.02568 26.371986 30.795305 L 26.371986 65.2047 C 26.371986 67.45217 27.063574 70.93959 29.239435 70.93959 L 52.17903 70.93959 C 54.58722 70.93959 55.046635 67.41659 55.046482 65.2047 L 55.046238 61.771526 L 55.046238 40.097195 L 55.046238 30.7953 C 55.046238 28.661833 53.8492 25.060402 52.17903 25.060402 z M 41.98716 68.07214 C 41.2281 68.60396 39.965908 68.60373 39.20669 68.07214 C 38.79008 67.78044 38.68482 67.147 38.68482 66.63841 C 38.68482 66.12982 38.79008 65.49639 39.20669 65.20468 C 39.96591 64.67309 41.228104 64.67287 41.98716 65.20468 C 42.4036 65.496445 42.508076 66.12994 42.508076 66.63841 C 42.508076 67.14688 42.403595 67.78037 41.987156 68.07214 z M 52.17878 62.337242 L 29.239428 62.337242 L 29.239428 30.7953 L 52.179024 30.7953 L 52.178783 40.0972 L 52.178783 61.77153 z " fill="url(#linearGradient4013)" fill-opacity="1" stroke-opacity="0.29999999999999999"/>
<rect fill="url(#linearGradient3232)" fill-opacity="1" fill-rule="nonzero" height="22.089081" stroke="#fcce00" stroke-dasharray="none" stroke-linejoin="round" stroke-miterlimit="4" stroke-opacity="1" stroke-width="0" width="7.4359279" x="51.632278" y="39.883652"/>
<path d="M 68.496124 40.90012 L 48.122147 40.90012 C 48.122147 40.277584 47.6128 39.768234 46.99026 39.768234 L 43.594597 39.768234 C 42.97206 39.768234 42.46271 40.277584 42.46271 40.90012 L 41.330822 40.90012 C 40.708286 40.90012 40.198936 41.40947 40.198936 42.03201 L 40.198936 60.142212 C 40.198936 60.76476 40.708286 61.274105 41.330822 61.274105 L 68.49613 61.274105 C 69.118675 61.274105 69.62802 60.76476 69.62802 60.14221 L 69.62802 42.032005 C 69.62802 41.409466 69.11867 40.900116 68.49613 40.900116 z M 45.292427 45.427658 C 44.666496 45.427658 44.16054 44.921703 44.16054 44.295773 C 44.16054 43.669838 44.666496 43.16388 45.292427 43.16388 C 45.91836 43.16388 46.424316 43.669838 46.424316 44.295773 C 46.424316 44.921707 45.91836 45.427658 45.292427 45.427658 z M 54.913475 58.727345 C 50.693794 58.727345 47.27323 55.307915 47.27323 51.0871 C 47.27323 46.867424 50.693798 43.446857 54.91348 43.446857 C 59.134285 43.446857 62.55372 46.867424 62.55372 51.0871 C 62.55372 55.307915 59.13428 58.727345 54.913475 58.727345 z M 67.36423 44.295776 L 62.836678 44.295776 L 62.836678 42.597942 L 67.36423 42.597942 L 67.36423 44.295776 z M 54.91347 44.861725 C 51.481583 44.861725 48.688084 47.655228 48.688084 51.087112 C 48.688084 54.518997 51.481583 57.312496 54.91347 57.312496 C 58.345356 57.312496 61.13885 54.518997 61.13885 51.087112 C 61.13885 47.655228 58.345352 44.861725 54.91347 44.861725 z M 54.91347 55.048714 C 52.728924 55.048714 50.95186 53.27165 50.95186 51.087105 C 50.95186 48.90256 52.728924 47.1255 54.91347 47.1255 C 57.09801 47.1255 58.875076 48.902565 58.875076 51.087105 C 58.875076 53.27165 57.098007 55.048714 54.913464 55.048714 z " fill="url(#linearGradient4021)" fill-opacity="1"/>
</svg>
