<?xml version="1.0" encoding="UTF-8"?>
<svg xmlns="http://www.w3.org/2000/svg" xmlns:xlink="http://www.w3.org/1999/xlink" baseProfile="tiny" contentScriptType="text/ecmascript" contentStyleType="text/css" height="96px" preserveAspectRatio="xMidYMid meet" version="1.1" viewBox="0 0 96 96" width="96px" x="0px" y="0px" zoomAndPan="magnify">
<defs>
<linearGradient id="linearGradient4238">
<stop offset="0" stop-color="#ffffff" stop-opacity="1"/>
<stop offset="1" stop-color="#ffffff" stop-opacity="0.78431374"/>
</linearGradient>
<linearGradient>
<stop offset="0" stop-color="#952ec9" stop-opacity="1"/>
<stop offset="1" stop-color="#842ec9" stop-opacity="1"/>
</linearGradient>
<linearGradient xlink:actuate="onLoad" xlink:show="other" xlink:type="simple">
<stop offset="0" stop-color="#d5f6ff" stop-opacity="1"/>
<stop offset="1" stop-color="#0088aa" stop-opacity="1"/>
</linearGradient>
<linearGradient gradientTransform="matrix(1.0515857,0,0,1.01708,-253.45339,-715.60427)" gradientUnits="userSpaceOnUse" x1="254.83009" x2="358.8096" xlink:actuate="onLoad" xlink:show="other" xlink:type="simple" y1="763.97272" y2="763.97272">
<stop offset="0" stop-color="#f7f8f9"/>
<stop offset="1" stop-color="#d0d1d2"/>
</linearGradient>
<linearGradient gradientTransform="matrix(0.7261569,0,0,0.74770351,-174.61605,-527.27145)" gradientUnits="userSpaceOnUse" x1="254.83009" x2="358.8096" xlink:actuate="onLoad" xlink:show="other" xlink:type="simple" y1="763.97272" y2="763.97272">
<stop offset="0" stop-color="#f7f8f9"/>
<stop offset="1" stop-color="#d0d1d2"/>
</linearGradient>
<linearGradient gradientTransform="matrix(1,0,0,-1,-1.3115644,98.868328)" gradientUnits="userSpaceOnUse" x1="61.075901" x2="34.694302" xlink:actuate="onLoad" xlink:show="other" xlink:type="simple" y1="57.299801" y2="41.540901">
<stop offset="0" stop-color="#ffffff"/>
<stop offset="1" stop-color="#ffffff" stop-opacity="0.2"/>
</linearGradient>
<linearGradient gradientTransform="matrix(1,0,0,-1,1.0534719,96.841079)" gradientUnits="userSpaceOnUse" x1="61.075901" x2="34.694302" xlink:actuate="onLoad" xlink:show="other" xlink:type="simple" y1="57.299801" y2="41.540901">
<stop offset="0" stop-color="#ffffff"/>
<stop offset="1" stop-color="#ffffff" stop-opacity="0.2"/>
</linearGradient>
<linearGradient gradientTransform="matrix(1,0,0,-1,-2.4150126,95.9258)" gradientUnits="userSpaceOnUse" x1="34.720501" x2="60.039902" xlink:actuate="onLoad" xlink:show="other" xlink:type="simple" y1="56.8027" y2="41.976002">
<stop offset="0" stop-color="#ffffff"/>
<stop offset="1" stop-color="#ffffff" stop-opacity="0.2"/>
</linearGradient>
<linearGradient gradientTransform="matrix(1,0,0,-1,-2.5350845,97.20939)" gradientUnits="userSpaceOnUse" x1="34.720501" x2="60.039902" xlink:actuate="onLoad" xlink:show="other" xlink:type="simple" y1="56.8027" y2="41.976002">
<stop offset="0" stop-color="#ffffff"/>
<stop offset="1" stop-color="#ffffff" stop-opacity="0.2"/>
</linearGradient>
<linearGradient gradientTransform="matrix(1,0,0,-1,0.1597,95.9258)" gradientUnits="userSpaceOnUse" x1="63.148201" x2="61.403599" xlink:actuate="onLoad" xlink:show="other" xlink:type="simple" y1="26.3545" y2="22.778099">
<stop offset="0" stop-color="#ffffff"/>
<stop offset="1" stop-color="#a3a3a3"/>
</linearGradient>
<linearGradient gradientTransform="matrix(1,0,0,-1,0.1597,95.9258)" gradientUnits="userSpaceOnUse" x1="63.148201" x2="61.403599" xlink:actuate="onLoad" xlink:show="other" xlink:type="simple" y1="26.3545" y2="22.778099">
<stop offset="0" stop-color="#ffffff"/>
<stop offset="1" stop-color="#a3a3a3"/>
</linearGradient>
<linearGradient gradientTransform="matrix(1,0,0,-1,0.1597,95.9258)" gradientUnits="userSpaceOnUse" x1="62.543701" x2="64.113503" xlink:actuate="onLoad" xlink:show="other" xlink:type="simple" y1="40.8223" y2="37.072102">
<stop offset="0" stop-color="#ffffff"/>
<stop offset="1" stop-color="#a3a3a3"/>
</linearGradient>
<linearGradient gradientTransform="matrix(1,0,0,-1,0.1597,95.9258)" gradientUnits="userSpaceOnUse" x1="62.543701" x2="64.113503" xlink:actuate="onLoad" xlink:show="other" xlink:type="simple" y1="40.8223" y2="37.072102">
<stop offset="0" stop-color="#ffffff"/>
<stop offset="1" stop-color="#a3a3a3"/>
</linearGradient>
<linearGradient gradientTransform="matrix(1,0,0,-1,0.1597,95.9258)" gradientUnits="userSpaceOnUse" x1="45.003201" x2="45.003201" xlink:actuate="onLoad" xlink:show="other" xlink:type="simple" y1="40.209" y2="23.3596">
<stop offset="0" stop-color="#c2de91"/>
<stop offset="1" stop-color="#7b9e56"/>
</linearGradient>
<linearGradient gradientTransform="matrix(1,0,0,-1,0.1597,95.9258)" gradientUnits="userSpaceOnUse" x1="45.003201" x2="45.003201" xlink:actuate="onLoad" xlink:show="other" xlink:type="simple" y1="40.209" y2="23.3596">
<stop offset="0" stop-color="#c2de91"/>
<stop offset="1" stop-color="#7b9e56"/>
</linearGradient>
<linearGradient gradientTransform="matrix(1,0,0,-1,0.1597,95.9258)" gradientUnits="userSpaceOnUse" x1="45.003201" x2="45.003201" xlink:actuate="onLoad" xlink:show="other" xlink:type="simple" y1="40.209" y2="23.3596">
<stop offset="0" stop-color="#c2de91"/>
<stop offset="1" stop-color="#7b9e56"/>
</linearGradient>
<linearGradient gradientTransform="matrix(1,0,0,-1,0.1597,95.9258)" gradientUnits="userSpaceOnUse" x1="45.003201" x2="45.003201" xlink:actuate="onLoad" xlink:show="other" xlink:type="simple" y1="40.209" y2="23.3596">
<stop offset="0" stop-color="#c2de91"/>
<stop offset="1" stop-color="#7b9e56"/>
</linearGradient>
<linearGradient gradientTransform="matrix(1,0,0,-1,0.1597,95.9258)" gradientUnits="userSpaceOnUse" x1="45.003201" x2="45.003201" xlink:actuate="onLoad" xlink:show="other" xlink:type="simple" y1="40.209" y2="23.3596">
<stop offset="0" stop-color="#c2de91"/>
<stop offset="1" stop-color="#7b9e56"/>
</linearGradient>
<linearGradient gradientTransform="matrix(1,0,0,-1,0.1597,95.9258)" gradientUnits="userSpaceOnUse" x1="45.003201" x2="45.003201" xlink:actuate="onLoad" xlink:show="other" xlink:type="simple" y1="40.209" y2="23.3596">
<stop offset="0" stop-color="#c2de91"/>
<stop offset="1" stop-color="#7b9e56"/>
</linearGradient>
<linearGradient gradientTransform="matrix(1,0,0,-1,8.6194701,63.557984)" gradientUnits="userSpaceOnUse" x1="82.677498" x2="82.677498" xlink:actuate="onLoad" xlink:show="other" xlink:type="simple" y1="37.415001" y2="54.1577">
<stop offset="0" stop-color="#ffffff" stop-opacity="0.3"/>
<stop offset="1" stop-color="#ffffff"/>
</linearGradient>
<linearGradient gradientTransform="matrix(1,0,0,-1,-53.620329,92.86676)" gradientUnits="userSpaceOnUse" x1="82.677498" x2="82.677498" xlink:actuate="onLoad" xlink:show="other" xlink:type="simple" y1="37.415001" y2="54.1577">
<stop offset="0" stop-color="#ffffff" stop-opacity="0.3"/>
<stop offset="1" stop-color="#ffffff"/>
</linearGradient>
<linearGradient gradientTransform="matrix(1,0,0,-1,8.6194701,63.557984)" gradientUnits="userSpaceOnUse" x1="82.677498" x2="82.677498" xlink:actuate="onLoad" xlink:show="other" xlink:type="simple" y1="37.415001" y2="54.1577">
<stop offset="0" stop-color="#ffffff" stop-opacity="0.3"/>
<stop offset="1" stop-color="#ffffff"/>
</linearGradient>
<linearGradient gradientTransform="matrix(1,0,0,-1,-15.367455,78.154116)" gradientUnits="userSpaceOnUse" x1="82.677498" x2="82.677498" xlink:actuate="onLoad" xlink:show="other" xlink:type="simple" y1="37.415001" y2="54.1577">
<stop offset="0" stop-color="#ffffff" stop-opacity="0.3"/>
<stop offset="1" stop-color="#ffffff"/>
</linearGradient>
<linearGradient gradientTransform="matrix(1,0,0,-1,8.6194701,63.557984)" gradientUnits="userSpaceOnUse" x1="82.677498" x2="82.677498" xlink:actuate="onLoad" xlink:show="other" xlink:type="simple" y1="37.415001" y2="54.1577">
<stop offset="0" stop-color="#ffffff" stop-opacity="0.3"/>
<stop offset="1" stop-color="#ffffff"/>
</linearGradient>
<linearGradient gradientTransform="matrix(1,0,0,-1,-18.309984,107.94722)" gradientUnits="userSpaceOnUse" x1="82.677498" x2="82.677498" xlink:actuate="onLoad" xlink:show="other" xlink:type="simple" y1="37.415001" y2="54.1577">
<stop offset="0" stop-color="#ffffff" stop-opacity="0.3"/>
<stop offset="1" stop-color="#ffffff"/>
</linearGradient>
<linearGradient gradientTransform="matrix(1,0,0,1.0147106,0,-1.118872)" gradientUnits="userSpaceOnUse" x1="25.749846" x2="83.267105" xlink:actuate="onLoad" xlink:show="other" xlink:type="simple" y1="23.186441" y2="82.169495">
<stop offset="0" stop-color="#d5f6ff" stop-opacity="1"/>
<stop offset="1" stop-color="#0088aa" stop-opacity="1"/>
</linearGradient>
<linearGradient gradientTransform="matrix(1,0,0,-1,-111.07647,38.974359)" gradientUnits="userSpaceOnUse" x1="167.8877" x2="206.12601" xlink:actuate="onLoad" xlink:show="other" xlink:type="simple" y1="-45.7896" y2="-7.5511999">
<stop offset="0" stop-color="#ffffff"/>
<stop offset="1" stop-color="#e6e6e6"/>
</linearGradient>
<linearGradient gradientTransform="matrix(0.7653472,0,0,-0.76412837,-94.891385,27.599019)" gradientUnits="userSpaceOnUse" x1="167.8877" x2="206.12601" xlink:actuate="onLoad" xlink:show="other" xlink:type="simple" y1="-45.7896" y2="-7.5511999">
<stop offset="0" stop-color="#ffffff"/>
<stop offset="1" stop-color="#e6e6e6"/>
</linearGradient>
<linearGradient gradientTransform="translate(-539.0039,-672.0039)" gradientUnits="userSpaceOnUse" x1="560.46289" x2="560.46289" xlink:actuate="onLoad" xlink:show="other" xlink:type="simple" y1="696.76459" y2="681.48602">
<stop offset="0" stop-color="#ffffff"/>
<stop offset="0.0382" stop-color="#fffef3"/>
<stop offset="0.2134" stop-color="#fdf9c1"/>
<stop offset="0.3867" stop-color="#fcf698"/>
<stop offset="0.5547" stop-color="#fbf378"/>
<stop offset="0.716" stop-color="#fbf161"/>
<stop offset="0.8677" stop-color="#faef53"/>
<stop offset="1" stop-color="#faef4e"/>
</linearGradient>
<linearGradient gradientTransform="translate(-539.0039,-672.0039)" gradientUnits="userSpaceOnUse" x1="559.10352" x2="559.10352" xlink:actuate="onLoad" xlink:show="other" xlink:type="simple" y1="707.21191" y2="697.83112">
<stop offset="0" stop-color="#ffffff"/>
<stop offset="0.0807" stop-color="#fefbd3"/>
<stop offset="0.1851" stop-color="#fcf7a1"/>
<stop offset="0.2886" stop-color="#faf478"/>
<stop offset="0.3888" stop-color="#f9f158"/>
<stop offset="0.4851" stop-color="#f9f041"/>
<stop offset="0.5756" stop-color="#f8ee33"/>
<stop offset="0.6545" stop-color="#f8ee2e"/>
<stop offset="1" stop-color="#fab529"/>
</linearGradient>
<linearGradient gradientTransform="matrix(0,1,-1,0,96,0)" gradientUnits="userSpaceOnUse" id="linearGradient4090" x1="8" x2="88" y1="48" y2="48">
<stop offset="0" stop-color="#952ec9" stop-opacity="1"/>
<stop offset="1" stop-color="#842ec9" stop-opacity="1"/>
</linearGradient>
<linearGradient gradientTransform="translate(-539.0039,-672.0039)" gradientUnits="userSpaceOnUse" x1="560.46289" x2="560.46289" xlink:actuate="onLoad" xlink:show="other" xlink:type="simple" y1="696.76459" y2="681.48602">
<stop offset="0" stop-color="#ffffff"/>
<stop offset="0.0382" stop-color="#fffef3"/>
<stop offset="0.2134" stop-color="#fdf9c1"/>
<stop offset="0.3867" stop-color="#fcf698"/>
<stop offset="0.5547" stop-color="#fbf378"/>
<stop offset="0.716" stop-color="#fbf161"/>
<stop offset="0.8677" stop-color="#faef53"/>
<stop offset="1" stop-color="#faef4e"/>
</linearGradient>
<linearGradient gradientTransform="translate(-539.0039,-672.0039)" gradientUnits="userSpaceOnUse" x1="559.10352" x2="559.10352" xlink:actuate="onLoad" xlink:show="other" xlink:type="simple" y1="707.21191" y2="697.83112">
<stop offset="0" stop-color="#ffffff"/>
<stop offset="0.0807" stop-color="#fefbd3"/>
<stop offset="0.1851" stop-color="#fcf7a1"/>
<stop offset="0.2886" stop-color="#faf478"/>
<stop offset="0.3888" stop-color="#f9f158"/>
<stop offset="0.4851" stop-color="#f9f041"/>
<stop offset="0.5756" stop-color="#f8ee33"/>
<stop offset="0.6545" stop-color="#f8ee2e"/>
<stop offset="1" stop-color="#fab529"/>
</linearGradient>
<linearGradient gradientUnits="userSpaceOnUse" id="linearGradient4244" x1="45.695122" x2="45.695122" y1="23.336802" y2="81.271309">
<stop offset="0" stop-color="#ffffff" stop-opacity="1"/>
<stop offset="1" stop-color="#ffffff" stop-opacity="0.78431374"/>
</linearGradient>
</defs>
<path d="M 88.0 49.0 C 88.0 78.633 77.637 89.0 48.0 89.0 C 18.365 89.0 8.0 78.633 8.0 49.0 C 8.0 19.365 18.365 9.0 48.0 9.0 C 77.637 9.0 88.0 19.365 88.0 49.0 z " fill-opacity="0.4"/>
<linearGradient gradientUnits="userSpaceOnUse" x1="47.9995" x2="47.9995" xlink:actuate="onLoad" xlink:show="other" xlink:type="simple" y1="8" y2="88.0005">
<stop offset="0" stop-color="#00aad4" stop-opacity="1"/>
<stop offset="1" stop-color="#2ad4ff" stop-opacity="1"/>
</linearGradient>
<path d="M 48.0 88.0 C 18.367 88.0 8.0 77.637 8.0 48.0 C 8.0 18.365 18.367 8.0 48.0 8.0 C 77.635 8.0 88.0 18.365 88.0 48.0 C 88.0 77.637 77.635 88.0 48.0 88.0 z " fill="url(#linearGradient4090)" fill-opacity="1"/>
<rect fill="none" height="96" width="96"/>
<linearGradient gradientUnits="userSpaceOnUse" id="SVGID_2_" x1="47.9995" x2="47.9995" xlink:actuate="onLoad" xlink:show="other" xlink:type="simple" y1="8.2534" y2="87.4985">
<stop offset="0" stop-color="#ffffff"/>
<stop offset="1" stop-color="#ffffff" stop-opacity="0"/>
</linearGradient>
<path d="M 48.0 8.0 C 18.365 8.0 8.0 18.365 8.0 48.0 C 8.0 77.633 18.365 88.0 48.0 88.0 C 77.637 88.0 88.0 77.633 88.0 48.0 C 88.0 18.365 77.637 8.0 48.0 8.0 z M 48.0 87.0 C 18.842 87.0 9.0 77.158 9.0 48.0 C 9.0 18.842005 18.842 9.0 48.0 9.0 C 77.158005 9.0 87.0 18.842 87.0 48.0 C 87.0 77.158005 77.158 87.0 48.0 87.0 z " fill="url(#SVGID_2_)" fill-opacity="0.25" stroke-opacity="0.25"/>
<linearGradient gradientTransform="matrix(0.7071 -0.7071 0.7071 0.7071 -208.9813 3059.7412)" gradientUnits="userSpaceOnUse" x1="2309.3584" x2="2344.3584" xlink:actuate="onLoad" xlink:show="other" xlink:type="simple" y1="-1947.9287" y2="-1947.9287">
<stop offset="0" stop-color="#58595b"/>
<stop offset="1" stop-color="#000000"/>
</linearGradient>
<linearGradient gradientTransform="matrix(0.7071 -0.7071 0.7071 0.7071 -208.9813 3059.7412)" gradientUnits="userSpaceOnUse" x1="2309.3584" x2="2313.3604" xlink:actuate="onLoad" xlink:show="other" xlink:type="simple" y1="-1957.9277" y2="-1957.9277">
<stop offset="0" stop-color="#58595b"/>
<stop offset="1" stop-color="#000000"/>
</linearGradient>
<linearGradient gradientUnits="userSpaceOnUse" x1="54.292" x2="59.292" xlink:actuate="onLoad" xlink:show="other" xlink:type="simple" y1="10.3501" y2="38.934">
<stop offset="0" stop-color="#58595b"/>
<stop offset="1" stop-color="#000000"/>
</linearGradient>
<linearGradient gradientUnits="userSpaceOnUse" x1="32.5508" x2="42.1758" xlink:actuate="onLoad" xlink:show="other" xlink:type="simple" y1="12.6343" y2="45.1342">
<stop offset="0" stop-color="#58595b"/>
<stop offset="1" stop-color="#000000"/>
</linearGradient>
<linearGradient gradientUnits="userSpaceOnUse" x1="57.1484" x2="60.063" xlink:actuate="onLoad" xlink:show="other" xlink:type="simple" y1="35.2275" y2="38.1421">
<stop offset="0" stop-color="#ffffff"/>
<stop offset="0.7362" stop-color="#ffffff" stop-opacity="0"/>
<stop offset="1" stop-color="#ffffff" stop-opacity="0"/>
</linearGradient>
<linearGradient gradientUnits="userSpaceOnUse" x1="44.6177" x2="38.0733" xlink:actuate="onLoad" xlink:show="other" xlink:type="simple" y1="37.2412" y2="43.7856">
<stop offset="0" stop-color="#ffffff"/>
<stop offset="0.7362" stop-color="#ffffff" stop-opacity="0"/>
<stop offset="1" stop-color="#ffffff" stop-opacity="0"/>
</linearGradient>
<linearGradient gradientUnits="userSpaceOnUse" x1="47.9995" x2="47.9995" xlink:actuate="onLoad" xlink:show="other" xlink:type="simple" y1="45.5" y2="53.8766">
<stop offset="0" stop-color="#ffffff"/>
<stop offset="1" stop-color="#6d6e70"/>
</linearGradient>
<path d="M 45.71875 22.0625 C 45.34459 22.052065 44.975662 22.067392 44.59375 22.09375 C 38.90908 22.622995 34.377766 28.754887 36.0625 35.3125 C 34.9049 34.675716 33.825527 34.13457 32.5625 34.03125 C 22.557396 32.865215 18.456118 45.252888 24.5625 51.28125 C 29.089573 55.72398 41.20954 54.03125 50.6875 54.03125 L 60.6875 54.03125 C 64.37326 54.03125 67.84095 54.45507 70.6875 54.03125 C 79.21661 52.55315 76.282906 38.38701 67.4375 41.5625 C 71.01994 33.735535 60.59336 27.895456 55.75 33.5 C 55.94768 26.460716 51.33116 22.219028 45.71875 22.0625 z M 64.71875 55.71875 C 64.65124 56.254936 64.8167 57.057568 64.90625 57.59375 C 65.176254 59.33304 65.5292 61.61552 65.84375 63.21875 C 65.55125 66.02774 65.07375 67.915474 64.78125 70.59375 C 66.08537 73.938934 67.366325 77.26878 68.625 80.75 C 68.198845 77.53287 67.51707 73.93893 67.0 70.59375 C 67.31455 67.91548 67.7567 66.16722 68.09375 63.625 C 67.71169 60.679955 67.270805 58.12493 66.84375 55.71875 L 64.71875 55.71875 z M 56.6875 56.0625 C 56.088318 57.777256 55.473557 59.58872 54.9375 61.6875 C 55.41041 63.499203 56.02741 64.74758 56.46875 66.65625 C 55.74328 69.04019 54.785423 71.61357 54.1875 73.90625 C 55.953503 71.42536 57.76398 69.04019 59.59375 66.65625 C 59.18335 64.74758 58.4729 63.408077 58.0625 61.40625 C 58.50384 60.263706 59.027412 58.645744 59.40625 57.40625 C 59.531895 57.024136 59.78221 56.44461 59.6875 56.0625 L 56.6875 56.0625 z M 45.09375 56.59375 C 44.971817 57.077553 45.307014 57.79744 45.46875 58.28125 C 45.95641 59.8506 46.58812 61.897152 47.15625 63.34375 C 46.627945 65.87831 45.747047 67.58339 45.21875 70.0 C 47.574154 73.01836 49.882923 76.04639 52.15625 79.1875 C 51.386555 76.28468 50.152622 73.01836 49.21875 70.0 C 49.78688 67.5834 50.578728 66.0126 51.1875 63.71875 C 50.49746 61.06144 49.70882 58.76485 48.9375 56.59375 L 45.09375 56.59375 z M 31.9375 58.34375 L 30.375 61.03125 L 31.25 61.53125 L 32.78125 58.84375 L 31.9375 58.34375 z M 43.0 59.46875 L 41.4375 62.15625 L 42.3125 62.65625 L 43.84375 59.96875 L 43.0 59.46875 z M 37.4375 60.53125 L 35.90625 63.21875 L 36.75 63.71875 L 38.3125 61.03125 L 37.4375 60.53125 z M 27.3125 61.1875 L 25.75 63.875 L 26.625 64.375 L 28.1875 61.6875 L 27.3125 61.1875 z M 33.125 63.5625 L 31.59375 66.25 L 32.4375 66.75 L 34.0 64.0625 L 33.125 63.5625 z M 35.9375 66.15625 L 34.375 68.84375 L 35.25 69.34375 L 36.8125 66.65625 L 35.9375 66.15625 z M 29.75 67.15625 L 28.1875 69.84375 L 29.0625 70.34375 L 30.625 67.65625 L 29.75 67.15625 z M 25.28125 67.4375 L 23.75 70.125 L 24.59375 70.625 L 26.15625 67.9375 L 25.28125 67.4375 z M 40.46875 68.15625 L 38.90625 70.84375 L 39.78125 71.34375 L 41.34375 68.65625 L 40.46875 68.15625 z M 34.125 71.53125 L 32.59375 74.21875 L 33.46875 74.71875 L 35.0 72.03125 L 34.125 71.53125 z " fill="url(#linearGradient4244)" fill-opacity="1"/>
</svg>
