<?xml version="1.0" encoding="UTF-8"?>
<svg xmlns="http://www.w3.org/2000/svg" xmlns:xlink="http://www.w3.org/1999/xlink" baseProfile="tiny" contentScriptType="text/ecmascript" contentStyleType="text/css" height="44px" preserveAspectRatio="xMidYMid meet" version="1.1" viewBox="0 0 44 44" width="44px" x="0px" y="0px" zoomAndPan="magnify">
<defs>
<linearGradient>
<stop offset="0" stop-color="#ffffff" stop-opacity="1"/>
<stop offset="1" stop-color="#ffffff" stop-opacity="0.78431374"/>
</linearGradient>
<linearGradient gradientTransform="translate(-314.915,-471.0859)" gradientUnits="userSpaceOnUse" x1="336.915" x2="336.915" y1="474.498" y2="508.007">
<stop offset="0" stop-color="#0078d0"/>
<stop offset="1" stop-color="#003d9d"/>
</linearGradient>
<linearGradient gradientTransform="translate(-314.915,-471.0859)" gradientUnits="userSpaceOnUse" x1="336.915" x2="336.915" y1="474.8682" y2="511.1891">
<stop offset="0" stop-color="#ffffff"/>
<stop offset="1" stop-color="#ffffff" stop-opacity="0"/>
</linearGradient>
<linearGradient gradientTransform="translate(-314.915,-471.0859)" gradientUnits="userSpaceOnUse" x1="325.498" x2="344.9172" y1="481.2295" y2="504.5583">
<stop offset="0" stop-color="#ffffff"/>
<stop offset="1" stop-color="#e6e2d8"/>
</linearGradient>
<linearGradient gradientTransform="translate(-314.915,-471.0859)" gradientUnits="userSpaceOnUse" x1="336.9766" x2="336.9766" y1="489.9971" y2="486.1289">
<stop offset="0" stop-color="#ffffff"/>
<stop offset="1" stop-color="#e6e2d8"/>
</linearGradient>
<linearGradient gradientTransform="translate(-314.915,-471.0859)" gradientUnits="userSpaceOnUse" x1="336.9766" x2="336.9766" y1="505.4082" y2="495.3548">
<stop offset="0" stop-color="#ffffff"/>
<stop offset="1" stop-color="#e6e2d8"/>
</linearGradient>
<linearGradient gradientTransform="translate(-314.915,-471.0859)" gradientUnits="userSpaceOnUse" x1="336.9658" x2="336.9658" y1="485.0732" y2="488.129">
<stop offset="0" stop-color="#ffffff"/>
<stop offset="0.474" stop-color="#fdfdfd"/>
<stop offset="0.6447" stop-color="#f6f6f6"/>
<stop offset="0.7665" stop-color="#ebebeb"/>
<stop offset="0.8649" stop-color="#dadada"/>
<stop offset="0.9481" stop-color="#c4c4c4"/>
<stop offset="1" stop-color="#b2b2b2"/>
</linearGradient>
<linearGradient gradientTransform="translate(-314.915,-471.0859)" gradientUnits="userSpaceOnUse" id="linearGradient3115" x1="336.915" x2="336.915" y1="474.8682" y2="511.1891">
<stop offset="0" stop-color="#ffffff"/>
<stop offset="1" stop-color="#ffffff" stop-opacity="0"/>
</linearGradient>
<linearGradient gradientTransform="translate(-314.915,-471.0859)" gradientUnits="userSpaceOnUse" x1="336.91501" x2="336.91501" y1="474.49799" y2="508.00699">
<stop offset="0" stop-color="#5f8de7" stop-opacity="1"/>
<stop offset="1" stop-color="#3c7ae7" stop-opacity="1"/>
</linearGradient>
<linearGradient gradientTransform="translate(-330.25741,-489.69111)" gradientUnits="userSpaceOnUse" x1="336.91501" x2="336.91501" y1="474.49799" y2="508.00699">
<stop offset="0" stop-color="#5f8de7" stop-opacity="1"/>
<stop offset="1" stop-color="#3c7ae7" stop-opacity="1"/>
</linearGradient>
<linearGradient gradientTransform="matrix(0,1,-1,0,44.0005,5e-4)" gradientUnits="userSpaceOnUse" id="linearGradient3916" x1="3.6670001" x2="40.333" y1="22.0005" y2="22.0005">
<stop offset="0" stop-color="#5f8de7" stop-opacity="1"/>
<stop offset="1" stop-color="#3c7ae7" stop-opacity="1"/>
</linearGradient>
<linearGradient gradientUnits="userSpaceOnUse" x1="13.122" x2="30.997" y1="23.655" y2="23.655">
<stop offset="0" stop-color="#ffffff" stop-opacity="1"/>
<stop offset="1" stop-color="#ffffff" stop-opacity="0.78431374"/>
</linearGradient>
<linearGradient gradientUnits="userSpaceOnUse" id="linearGradient3927" x1="21.954842" x2="21.954842" y1="14.558492" y2="32.825378">
<stop offset="0" stop-color="#ffffff" stop-opacity="1"/>
<stop offset="1" stop-color="#ffffff" stop-opacity="0.78431374"/>
</linearGradient>
<linearGradient gradientTransform="translate(-314.915,-471.0859)" gradientUnits="userSpaceOnUse" id="linearGradient3931" x1="21.954842" x2="21.954842" y1="14.558492" y2="32.825378">
<stop offset="0" stop-color="#5f8de7" stop-opacity="1"/>
<stop offset="1" stop-color="#3c7ae7" stop-opacity="1"/>
</linearGradient>
</defs>
<g>
<path d="M 17.979 7.559 C 18.599 7.22 23.437 10.576 25.696 11.499001 C 26.309 11.684001 27.624 11.599001 28.231 11.776001 C 28.91 11.973001 30.674 13.186001 30.674 13.186001 C 30.674 13.186001 29.038 12.669001 28.508 12.803 C 28.245 12.871 27.788 12.926001 27.653 13.489 C 27.929 13.887 28.018 14.246 28.2 14.452001 C 28.505 14.796 29.315 15.289 29.747002 15.444 C 30.706 15.857 31.395002 15.667 31.732002 15.942 C 31.923002 16.096 31.911003 16.554 31.803 16.715 C 31.587002 17.037 31.600002 17.47 30.532 17.677 C 30.266 17.738 29.626 17.523 29.352 17.433 C 28.854002 17.109 28.186 16.857 27.754002 16.852 C 27.14 16.843 25.942 17.305 25.320002 17.331 C 24.979002 17.348 24.204002 17.351002 23.983002 17.092 C 23.637 16.689001 23.828 15.592001 23.362 15.329 C 22.696 14.844001 21.793 15.229 21.408 15.533001 C 20.997002 15.720001 20.387 16.474 20.174002 16.851002 C 20.021002 17.129002 19.986002 17.712002 20.072002 18.018002 C 20.174002 18.375002 20.547005 19.013002 20.837002 19.221 C 21.360004 19.594 22.583002 20.084002 23.212002 20.201 C 23.877005 20.326 25.257002 20.448 25.927002 20.484 C 26.991 20.54 30.206 20.61 30.206 20.61 C 30.206 20.61 29.536 20.773 29.087002 20.852 C 28.454002 20.963 26.342005 20.694 25.662004 21.074 C 25.615002 21.195002 25.950005 21.366 26.073002 21.422 C 27.091002 21.868 29.238005 22.507 30.226002 23.026 C 31.148005 23.512 32.997 24.612 33.651 25.424002 C 35.246 26.831 35.459 28.089 35.363003 29.093002 C 35.31 29.650002 35.114 30.924002 34.956 31.464005 C 34.719 32.251003 33.891003 34.415 33.891003 34.415 C 33.891003 34.415 34.593 30.914 33.961 30.16 C 34.182003 30.792 33.213 32.133 32.690002 32.56 C 31.953005 33.432003 30.282 34.153 29.433002 34.462 C 28.382002 34.84 26.261002 35.31 25.185 35.438004 C 24.384 35.534004 22.788002 35.629005 21.989002 35.575005 C 21.159002 35.519005 19.844002 35.52401 18.695002 35.060005 C 18.132002 34.928005 17.043 34.487003 16.467001 34.408005 C 16.103 34.359005 15.226001 34.157005 14.992001 34.443005 C 14.697 34.797005 15.146001 36.463005 15.146001 36.463005 C 15.146001 36.463005 14.718 35.881004 14.579 34.817005 C 14.537001 34.557007 14.534 33.98901 14.425 33.73901 C 14.212 33.245007 13.362 32.565006 13.106 32.091007 C 12.888 31.699009 12.576 30.777008 12.661 30.330008 C 12.734 29.924007 12.729 29.434008 13.482 28.923008 C 14.839001 28.080008 17.91 28.644009 17.91 28.644009 C 17.91 28.644009 15.139 28.67401 14.341 29.088009 C 14.035999 29.24701 13.5 29.397009 13.417 30.120008 C 13.394 30.333008 13.526 30.804008 13.656 30.974009 C 13.821 31.19501 14.493 31.89601 14.719 32.056007 C 15.358 32.49801 16.499 33.10801 17.155 33.309006 C 18.133 33.806007 19.743 33.890007 20.587 33.890007 C 20.552 33.37401 19.916 32.296005 19.935 31.352009 C 19.916 30.359009 20.432 30.204006 20.432 30.204006 C 20.432 30.204006 20.499 31.644009 20.963 32.345005 C 21.292 32.805004 22.322 33.468006 22.885 33.547005 C 24.856 33.75301 24.989 33.342003 26.105 33.066006 C 27.273 32.569004 28.55 31.759008 29.025 31.011003 C 29.519 30.235004 30.103 28.468006 29.794 27.596004 C 29.713 27.367004 29.457998 26.867004 29.225998 26.859003 C 28.551 26.826004 27.836 28.060003 27.170998 28.644005 C 27.249998 27.889006 28.072998 27.054005 28.230995 26.206003 C 28.030996 25.546003 26.528996 24.970003 25.866997 24.768003 C 25.083996 24.531006 23.650995 24.205006 22.833996 24.107006 C 22.108995 24.019009 20.525995 24.043009 19.765997 23.955006 C 19.257996 23.892006 18.339994 23.901005 17.773994 23.541006 C 17.372995 23.342009 17.050997 23.329006 16.842997 22.927006 C 16.317995 22.081003 16.352995 20.219006 15.629994 19.874006 C 14.906995 20.165009 12.698995 22.167006 11.308994 22.684006 C 11.788994 21.485006 13.659994 19.514006 14.276995 18.157003 C 13.418995 17.846004 10.183994 19.607006 8.924994 19.390003 C 10.313994 18.312006 13.522995 16.801004 14.447994 15.619005 C 13.620995 14.908005 9.401995 15.236005 8.614994 14.556006 C 10.091994 13.920006 14.701994 13.952005 15.903994 13.236006 C 14.462994 12.636005 10.364994 12.190006 9.076994 11.280005 C 9.198994 10.559006 20.825993 12.152005 22.300997 12.139006 C 21.494 11.383 18.102 8.33 17.979 7.559 z "/>
<path d="M 25.364 13.708 C 25.364 13.708 25.881 14.052 26.032 14.192 C 26.158 14.314 26.47 14.733001 26.47 14.733001 L 27.576 14.423 C 27.576 14.423 26.854 14.074 26.597 13.985001 C 26.303 13.89 25.364 13.708 25.364 13.708 z " fill="#ffffff"/>
</g>
<rect fill="none" height="44" width="44" x="0" y="0"/>
<path d="M 40.333 22.458 C 40.333 36.04 35.584 40.792 22.0 40.792 C 8.417 40.792 3.667 36.04 3.667 22.458 C 3.667 8.875999 8.417 4.125 22.0 4.125 C 35.584 4.125 40.333 8.875999 40.333 22.458 z " fill-opacity="0.4"/>
<path d="M 22.0005 40.3335 C 8.4185 40.3335 3.6665 35.5845 3.6665 22.0005 C 3.6665 8.4175 8.4185 3.6674995 22.0005 3.6674995 C 35.5835 3.6674995 40.3335 8.4175 40.3335 22.0005 C 40.3335 35.5845 35.5835 40.3335 22.0005 40.3335 z " fill="url(#linearGradient3916)" fill-opacity="1"/>
<path d="M 13.122 34.834 C 12.754 34.834 12.394 34.684 12.138 34.419 C 11.879998 34.154 11.738 33.792 11.747 33.424 L 12.205 15.153 C 12.225 14.4019985 12.829 13.813 13.58 13.813 L 16.156 13.813 C 18.26 9.330999 21.19 8.976999 22.052 8.976999 C 22.914 8.976999 25.845 9.330999 27.947 13.813 L 30.54 13.813 C 31.298 13.813 31.915 14.429998 31.915 15.188 L 32.371002 33.404 C 32.381 33.779 32.238003 34.144 31.98 34.408 C 31.718002 34.679 31.359 34.834 30.998 34.834 L 13.122002 34.834 z M 24.023 13.813 C 23.501 13.072 22.825 12.363998 22.053 12.347 C 21.281002 12.363 20.604002 13.071 20.080002 13.813 L 24.023 13.813 z " fill-opacity="0.05"/>
<path d="M 13.122 34.375 C 12.8759985 34.375 12.637 34.273 12.466 34.1 C 12.294 33.921997 12.198998 33.682 12.205998 33.435997 L 12.664 15.164997 C 12.676999 14.663997 13.08 14.270997 13.580998 14.270997 L 16.452 14.270997 C 18.448 9.789997 21.234 9.434998 22.053 9.434998 C 22.873 9.434998 25.66 9.788998 27.654 14.270998 L 30.541 14.270998 C 31.047 14.270998 31.458 14.682998 31.458 15.187998 L 31.915 33.416 C 31.921 33.668 31.826 33.914 31.654 34.09 C 31.476002 34.272 31.238 34.375 30.999 34.375 L 13.122 34.375 z M 24.863 14.271 C 24.167004 13.112 23.238 11.909 22.054 11.889 C 20.867 11.906 19.938004 13.111 19.239 14.271 L 24.863 14.271 z " fill-opacity="0.1"/>
<path d="M 13.122 33.917 C 12.998 33.917 12.88 33.868 12.794 33.777 C 12.707999 33.689 12.660998 33.57 12.664 33.447 L 13.122 15.175999 C 13.127999 14.926999 13.330998 14.728999 13.58 14.728999 L 16.751 14.728999 C 18.642 10.247999 21.276 9.893 22.051 9.893 C 22.827 9.893 25.464 10.247 27.352 14.729 L 30.54 14.729 C 30.793 14.729 30.998 14.934 30.998 15.188 L 31.454 33.428 C 31.457998 33.550003 31.411 33.68 31.325 33.768 C 31.238998 33.858 31.122 33.916 30.998 33.916 L 13.122 33.917 L 13.122 33.917 z M 25.648 14.73 C 25.583 14.601998 25.515 14.478 25.447 14.36 C 24.671 13.006 23.582 11.451 22.054 11.429998 C 20.525003 11.446999 19.433 13.004998 18.655 14.36 C 18.588 14.478 18.52 14.601 18.454 14.73 L 25.648 14.73 z " fill-opacity="0.2"/>
<path d="M 30.996 33.438 L 30.54 15.242001 L 30.54 15.188001 L 27.045002 15.188001 C 25.496002 11.299001 23.326002 10.351999 22.052002 10.351999 C 20.836002 10.351999 18.632002 11.247001 17.059002 15.188 L 13.58 15.188 L 13.122 33.459 L 30.998 33.459 L 30.995998 33.438 z M 17.731 15.188 C 17.883 14.84 18.057 14.483 18.258 14.132 C 19.084002 12.694 20.293 10.987 22.055 10.972 C 23.812 10.992001 25.021 12.698 25.846 14.132 C 26.047 14.483 26.221 14.84 26.372004 15.188 L 17.731005 15.188 z " fill-opacity="0.2"/>
<path d="M 22.0 3.667 C 8.417 3.667 3.667 8.417 3.667 22.0 C 3.667 35.582 8.418 40.334 22.0 40.334 C 35.584 40.334 40.333 35.582 40.333 22.0 C 40.333 8.417 35.584 3.667 22.0 3.667 z M 22.0 39.875 C 8.636 39.875 4.125 35.365 4.125 22.0 C 4.125 8.636 8.636 4.125 22.0 4.125 C 35.363 4.125 39.875 8.636 39.875 22.0 C 39.875 35.365 35.363 39.875 22.0 39.875 z " fill="url(#linearGradient3115)" fill-opacity="0.25"/>
<path d="M 30.539 14.52 L 30.997 32.79 L 13.122 32.79 L 13.580999 14.52 z " fill="url(#linearGradient3931)" fill-opacity="1"/>
<path d="M 30.539 14.52 L 30.997 32.79 L 13.122 32.79 L 13.580999 14.52 z " fill="url(#linearGradient3927)" fill-opacity="1"/>
<path d="M 18.009 14.54 C 16.823 15.718 16.365004 16.741 16.354 16.767 C 16.182 17.153 16.766 17.366 16.918 17.019 L 16.918 17.018002 C 16.918 17.018002 16.95 16.948002 17.029 16.804 C 17.254 16.398998 17.837 15.486999 18.921 14.54 L 18.009 14.54 z " fill="#231f20" fill-opacity="0.3"/>
<path d="M 26.109 14.54 L 25.203 14.54 C 25.682 15.029 26.370996 15.491 27.2 17.019 C 27.360998 17.374 27.940998 17.165 27.765 16.767 C 27.755 16.74 27.296 15.718 26.109 14.54 z " fill="#231f20" fill-opacity="0.3"/>
<circle cx="16.628" cy="16.972" fill="#1a1a1a" r="0.458"/>
<circle cx="27.504" cy="16.972" fill="#1a1a1a" r="0.458"/>
<path d="M 27.775 16.772 C 26.261 10.976 23.543 9.682999 22.052 9.682999 C 20.631 9.682999 17.862 10.900999 16.327 16.772 C 16.22 17.178 16.826 17.309 16.925 16.929 C 17.042 16.474998 17.431 14.905999 18.257 13.462999 C 19.083 12.025001 20.292 10.317999 22.054 10.303 C 23.812 10.323001 25.021 12.028999 25.846 13.462999 C 26.67 14.903999 27.059 16.473999 27.176 16.929 C 27.273 17.304 27.88 17.174 27.775 16.772 z " fill="#f0f0f0" fill-opacity="1"/>
<rect fill="none" height="44" width="44" x="0" y="0"/>
<g transform="matrix(0.7525405,0,0,0.7525405,24.340752,26.065327)">
<path d="M 6.5905514 0.0 L 4.570866 0.0 C 4.2519684 0.0 4.003937 0.28346455 4.003937 0.5669291 L 4.003937 2.586614 C 4.003937 2.905512 4.2519684 3.1535437 4.5708656 3.1535437 L 6.5905504 3.1535437 C 6.874015 3.1535437 7.1574793 2.905512 7.1574793 2.586614 L 7.1574793 0.5669291 C 7.15748 0.28346455 6.874016 0.0 6.5905514 0.0 z M 6.5905514 4.003937 L 4.5708666 4.003937 C 4.251969 4.003937 4.0039377 4.2519684 4.0039377 4.5708656 L 4.0039377 6.5905504 C 4.0039377 6.909448 4.2519693 7.1574793 4.5708666 7.1574793 L 6.5905514 7.1574793 C 6.874016 7.1574793 7.15748 6.909448 7.15748 6.5905504 L 7.15748 4.5708656 C 7.15748 4.251968 6.874016 4.003937 6.5905514 4.003937 z M 2.5866146 4.003937 L 0.5669296 4.003937 C 0.24803148 4.003937 0.0 4.2519684 0.0 4.570866 L 0.0 6.5905514 C 0.0 6.909449 0.24803148 7.15748 0.5669291 7.15748 L 2.586614 7.15748 C 2.905512 7.15748 3.1535437 6.909448 3.1535437 6.590551 L 3.1535437 4.570866 C 3.1535437 4.2519684 2.905512 4.0039372 2.586614 4.0039372 z " fill="#467fe7" fill-opacity="1" fill-rule="nonzero" stroke="none"/>
<path d="M 2.586614 0.0 L 0.5669291 0.0 C 0.24803148 0.0 0.0 0.28346455 0.0 0.5669291 L 0.0 2.586614 C 0.0 2.9055114 0.24803148 3.153543 0.5669291 3.153543 L 2.586614 3.153543 C 2.905512 3.153543 3.1535437 2.9055114 3.1535437 2.5866137 L 3.1535437 0.5669284 C 3.1535432 0.28346455 2.905512 0.0 2.586614 0.0 z " fill="#467fe7" fill-opacity="1" fill-rule="nonzero" stroke="none"/>
</g>
</svg>
