<?xml version="1.0" encoding="UTF-8"?>
<svg xmlns="http://www.w3.org/2000/svg" xmlns:xlink="http://www.w3.org/1999/xlink" baseProfile="tiny" contentScriptType="text/ecmascript" contentStyleType="text/css" height="96px" preserveAspectRatio="xMidYMid meet" version="1.1" viewBox="0 0 96 96" width="96px" x="0px" y="0px" zoomAndPan="magnify">
<defs>
<linearGradient id="linearGradient3792">
<stop offset="0" stop-color="#0078cb" stop-opacity="1"/>
<stop offset="1" stop-color="#0063cb" stop-opacity="1"/>
</linearGradient>
<linearGradient gradientTransform="matrix(0,1,-1,0,96,0)" gradientUnits="userSpaceOnUse" id="linearGradient3798" x1="8" x2="88" y1="48" y2="48">
<stop offset="0" stop-color="#0078cb" stop-opacity="1"/>
<stop offset="1" stop-color="#0063cb" stop-opacity="1"/>
</linearGradient>
</defs>
<path d="M 88.0 49.0 C 88.0 78.635 77.639 89.0 48.0 89.0 C 18.366 89.0 8.0 78.635 8.0 49.0 C 8.0 19.367 18.366 9.0 48.0 9.0 C 77.637 9.0 88.0 19.367 88.0 49.0 z " fill-opacity="0.4" stroke-opacity="0.4"/>
<linearGradient gradientTransform="matrix(1 0 0 1 193.9253 -815.8408)" gradientUnits="userSpaceOnUse" x1="-145.9253" x2="-145.9253" y1="903.8408" y2="823.8408">
<stop offset="0" stop-color="#003d9d"/>
<stop offset="1" stop-color="#0078d0"/>
</linearGradient>
<path d="M 48.0 88.0 C 18.365 88.0 8.0 77.639 8.0 48.0 C 8.0 18.366 18.365 8.0 48.0 8.0 C 77.633 8.0 88.0 18.366 88.0 48.0 C 88.0 77.637 77.633 88.0 48.0 88.0 z " fill="url(#linearGradient3798)" fill-opacity="1"/>
<linearGradient gradientTransform="matrix(1 0 0 1 193.9253 -815.8408)" gradientUnits="userSpaceOnUse" id="SVGID_2_" x1="-145.9253" x2="-145.9253" y1="824.0938" y2="903.3385">
<stop offset="0" stop-color="#ffffff"/>
<stop offset="1" stop-color="#ffffff" stop-opacity="0"/>
</linearGradient>
<path d="M 48.0 8.0 C 18.366 8.0 8.0 18.367 8.0 48.0 C 8.0 77.635 18.366 88.0 48.0 88.0 C 77.639 88.0 88.0 77.635 88.0 48.0 C 88.0 18.367 77.637 8.0 48.0 8.0 z M 48.0 87.0 C 18.842 87.0 9.0 77.158 9.0 48.0 C 9.0 18.842005 18.842 9.0 48.0 9.0 C 77.16 9.0 87.0 18.842 87.0 48.0 C 87.0 77.158005 77.16 87.0 48.0 87.0 z " fill="url(#SVGID_2_)" fill-opacity="0.15"/>
<rect fill="none" height="96" width="96"/>
<path d="M 57.004 74.178 C 54.15 74.178 51.494003 72.645004 50.071003 70.176 L 48.0 66.588 L 45.929 70.17799 C 44.506 72.645 41.85 74.17799 38.996 74.17799 C 37.596 74.17799 36.214 73.80699 34.999 73.104 C 33.15 72.038994 31.829 70.314 31.274 68.24899 C 30.721 66.18199 31.004 64.02599 32.071 62.178993 L 34.143 58.589993 L 30.0 58.589993 C 25.589 58.589993 22.0 55.00099 22.0 50.589993 C 22.0 46.178993 25.589 42.589993 30.0 42.589993 L 34.143 42.589993 L 32.071 39.0 C 29.867 35.179 31.179998 30.277 35.0 28.072 C 36.216 27.371 37.598 27.0 38.996 27.0 C 41.85 27.0 44.505997 28.534 45.928997 31.002 L 48.0 34.589 L 50.071 31.0 C 51.497 28.532 54.153 27.0 57.004 27.0 C 58.404 27.0 59.786 27.371 61.001 28.074 C 62.848 29.139 64.17 30.863998 64.725 32.93 C 65.279 34.996 64.996 37.151 63.928997 39.0 L 61.857 42.589 L 66.0 42.589 C 70.411 42.589 74.0 46.178 74.0 50.589 C 74.0 55.0 70.411 58.589 66.0 58.589 L 61.857 58.589 L 63.928 62.178 C 66.131 65.998 64.818 70.901 60.998997 73.106 C 59.783 73.807 58.402 74.178 57.004 74.178 L 57.004 74.178 z " fill-opacity="0.02" stroke-opacity="0.02"/>
<path d="M 57.004 73.178 C 54.506 73.178 52.182003 71.836 50.938004 69.676 L 48.0 64.588 L 45.062 69.67799 C 43.817 71.83599 41.492 73.17799 38.996 73.17799 C 37.771004 73.17799 36.562004 72.854 35.499 72.23899 C 33.883 71.30599 32.726 69.79799 32.24 67.98899 C 31.757002 66.18199 32.004 64.29599 32.937 62.67799 L 35.875 57.58899 L 30.0 57.58899 C 26.141 57.58899 23.0 54.44899 23.0 50.58899 C 23.0 46.72899 26.141 43.58899 30.0 43.58899 L 35.875 43.58899 L 32.938 38.5 C 31.009 35.157 32.159 30.867 35.501 28.938 C 36.564 28.324 37.773 28.0 38.996 28.0 C 41.493 28.0 43.817 29.342 45.061996 31.502 L 48.0 36.589 L 50.938 31.5 C 52.185 29.341 54.509 28.0 57.004 28.0 C 58.228996 28.0 59.437996 28.325 60.501 28.939 C 62.117 29.872 63.273 31.381 63.759 33.189 C 64.243 34.996 63.996 36.882 63.063 38.5 L 60.125 43.589 L 66.0 43.589 C 69.859 43.589 73.0 46.729 73.0 50.589 C 73.0 54.449 69.859 57.589 66.0 57.589 L 60.125 57.589 L 63.063 62.678 C 64.991 66.021 63.842 70.311005 60.5 72.241 C 59.436 72.854 58.227 73.178 57.004 73.178 L 57.004 73.178 z " fill-opacity="0.05" stroke-opacity="0.05"/>
<path d="M 57.004 72.178 C 54.863003 72.178 52.871 71.028 51.803 69.176 L 48.0 62.588 L 44.196 69.178 C 43.129 71.028 41.134 72.178 38.996 72.178 C 37.947 72.178 36.911 71.9 36.0 71.373 C 34.614 70.573 33.621 69.279 33.207 67.72901 C 32.792 66.179 33.004 64.563 33.803 63.177 L 37.608 56.588 L 30.0 56.588 C 26.691 56.588 24.0 53.897003 24.0 50.588 C 24.0 47.279 26.691 44.588 30.0 44.588 L 37.607 44.588 L 33.803 38.0 C 32.151 35.134 33.135002 31.458 36.0 29.804 C 36.912 29.278 37.947 29.0 38.996 29.0 C 41.135 29.0 43.129 30.15 44.196 32.001 L 48.0 38.589 L 51.803 32.0 C 52.872 30.149 54.865 29.0 57.004 29.0 C 58.053 29.0 59.089 29.278 60.0 29.805 C 61.385 30.604 62.378 31.898 62.793 33.448 C 63.207 34.997 62.996 36.614 62.196 38.0 L 58.392 44.588 L 66.0 44.588 C 69.309 44.588 72.0 47.279 72.0 50.588 C 72.0 53.897003 69.309 56.588 66.0 56.588 L 58.393 56.588 L 62.197 63.177 C 63.85 66.042 62.865 69.719 60.001003 71.372 C 59.088 71.899 58.052 72.178 57.004 72.178 L 57.004 72.178 z " fill-opacity="0.05" stroke-opacity="0.05"/>
<path d="M 57.004 71.178 C 55.221 71.178 53.56 70.22 52.67 68.677 L 48.0 60.588 L 43.33 68.678 C 42.439003 70.22 40.779003 71.178 38.996 71.178 C 38.123 71.178 37.26 70.946 36.500004 70.507 C 34.112003 69.129005 33.292004 66.065 34.67 63.678005 L 39.340004 55.589005 L 30.0 55.589005 C 27.243 55.589005 25.0 53.346004 25.0 50.589005 C 25.0 47.832005 27.243 45.589005 30.0 45.589005 L 39.34 45.589005 L 34.67 37.5 C 33.292 35.113 34.112 32.048 36.5 30.67 C 37.26 30.232 38.123 30.0 38.996 30.0 C 40.78 30.0 42.439 30.958 43.33 32.501 L 48.0 40.59 L 52.67 32.501 C 53.56 30.959 55.220997 30.001 57.004 30.001 C 57.877 30.001 58.74 30.233 59.499996 30.672 C 61.886997 32.05 62.706997 35.114 61.33 37.502 L 56.659996 45.59 L 66.0 45.59 C 68.757 45.59 71.0 47.833 71.0 50.59 C 71.0 53.347 68.757 55.59 66.0 55.59 L 56.66 55.59 L 61.33 63.679 C 62.707 66.066 61.887 69.130005 59.5 70.509 C 58.74 70.945 57.877 71.178 57.004 71.178 L 57.004 71.178 z " fill-opacity="0.1" stroke-opacity="0.1"/>
<path d="M 66.0 46.589 L 54.928 46.589 L 60.464 37.0 C 61.568 35.087 60.913 32.641 59.0 31.536 C 57.088 30.432 54.639 31.087 53.536 33.0 L 48.0 42.59 L 42.464 33.0 C 41.36 31.087 38.913 30.432 37.0 31.536 C 35.086 32.64 34.432 35.087 35.536 37.0 L 41.072 46.588 L 30.0 46.588 C 27.791 46.588 26.0 48.379 26.0 50.588 C 26.0 52.797 27.791 54.588 30.0 54.588 L 41.072 54.588 L 35.536 64.177 C 34.432 66.089005 35.086 68.536 37.0 69.64 C 37.63 70.004 38.317 70.177 38.996 70.177 C 40.379 70.177 41.723 69.46 42.463997 68.177 L 48.0 58.588 L 53.536 68.178 C 54.276 69.461 55.621 70.178 57.004 70.178 C 57.682 70.178 58.37 70.005005 58.999996 69.641 C 60.91299 68.537 61.567997 66.09 60.463997 64.178 L 54.928 54.589 L 66.0 54.589 C 68.209 54.589 70.0 52.798 70.0 50.589 C 70.0 48.38 68.209 46.589 66.0 46.589 z " fill-opacity="0.1" stroke-opacity="0.1"/>
<linearGradient gradientUnits="userSpaceOnUse" x1="48.0005" x2="48.0005" y1="67.5889" y2="28.4116">
<stop offset="0" stop-color="#d0cbc5"/>
<stop offset="0.6768" stop-color="#fafcef"/>
<stop offset="1" stop-color="#fafcef"/>
</linearGradient>
<path d="M 66.0 44.0 L 54.928 44.0 L 60.464 34.412 C 61.568 32.499 60.913 30.052998 59.0 28.947998 C 57.088 27.843998 54.639 28.499 53.536 30.412 L 48.0 40.0 L 42.464 30.412 C 41.36 28.499 38.913 27.843998 37.0 28.947998 C 35.086 30.051998 34.432 32.498997 35.536 34.412 L 41.072 44.0 L 30.0 44.0 C 27.791 44.0 26.0 45.791 26.0 48.0 C 26.0 50.209 27.791 52.0 30.0 52.0 L 41.072 52.0 L 35.536 61.588 C 34.432 63.502003 35.086 65.947 37.0 67.053 C 37.63 67.416 38.317 67.589005 38.996 67.589005 C 40.379 67.589005 41.723 66.871 42.463997 65.588005 L 48.0 56.0 L 53.536 65.588 C 54.276 66.870995 55.621 67.589 57.004 67.589 C 57.682 67.589 58.37 67.416 58.999996 67.05299 C 60.91299 65.94799 61.567997 63.501995 60.463997 61.587994 L 54.928 52.0 L 66.0 52.0 C 68.209 52.0 70.0 50.209 70.0 48.0 C 70.0 45.791 68.209 44.0 66.0 44.0 z " fill="#ffffff" fill-opacity="1"/>
</svg>
