<?xml version="1.0" encoding="UTF-8"?>
<svg xmlns="http://www.w3.org/2000/svg" xmlns:xlink="http://www.w3.org/1999/xlink" baseProfile="tiny" contentScriptType="text/ecmascript" contentStyleType="text/css" height="96px" preserveAspectRatio="xMidYMid meet" version="1.1" viewBox="0 0 96 96" width="96px" x="0px" y="0px" zoomAndPan="magnify">
<defs>
<linearGradient id="linearGradient4005">
<stop offset="0" stop-color="#ffffff" stop-opacity="1"/>
<stop offset="1" stop-color="#ffffff" stop-opacity="0.78431374"/>
</linearGradient>
<linearGradient>
<stop offset="0" stop-color="#80d229" stop-opacity="1"/>
<stop offset="1" stop-color="#71c504" stop-opacity="1"/>
</linearGradient>
<linearGradient>
<stop offset="0" stop-color="#3455b6" stop-opacity="1"/>
<stop offset="1" stop-color="#344db6" stop-opacity="1"/>
</linearGradient>
<linearGradient>
<stop offset="0" stop-color="#d5f6ff" stop-opacity="1"/>
<stop offset="1" stop-color="#0088aa" stop-opacity="1"/>
</linearGradient>
<linearGradient gradientTransform="matrix(1.0515857,0,0,1.01708,-253.45339,-715.60427)" gradientUnits="userSpaceOnUse" x1="254.83009" x2="358.8096" y1="763.97272" y2="763.97272">
<stop offset="0" stop-color="#f7f8f9"/>
<stop offset="1" stop-color="#d0d1d2"/>
</linearGradient>
<linearGradient gradientTransform="matrix(0.7261569,0,0,0.74770351,-174.61605,-527.27145)" gradientUnits="userSpaceOnUse" x1="254.83009" x2="358.8096" y1="763.97272" y2="763.97272">
<stop offset="0" stop-color="#f7f8f9"/>
<stop offset="1" stop-color="#d0d1d2"/>
</linearGradient>
<linearGradient gradientTransform="matrix(1,0,0,-1,-1.3115644,98.868328)" gradientUnits="userSpaceOnUse" x1="61.075901" x2="34.694302" y1="57.299801" y2="41.540901">
<stop offset="0" stop-color="#ffffff"/>
<stop offset="1" stop-color="#ffffff" stop-opacity="0.2"/>
</linearGradient>
<linearGradient gradientTransform="matrix(1,0,0,-1,1.0534719,96.841079)" gradientUnits="userSpaceOnUse" x1="61.075901" x2="34.694302" y1="57.299801" y2="41.540901">
<stop offset="0" stop-color="#ffffff"/>
<stop offset="1" stop-color="#ffffff" stop-opacity="0.2"/>
</linearGradient>
<linearGradient gradientTransform="matrix(1,0,0,-1,-2.4150126,95.9258)" gradientUnits="userSpaceOnUse" x1="34.720501" x2="60.039902" y1="56.8027" y2="41.976002">
<stop offset="0" stop-color="#ffffff"/>
<stop offset="1" stop-color="#ffffff" stop-opacity="0.2"/>
</linearGradient>
<linearGradient gradientTransform="matrix(1,0,0,-1,-2.5350845,97.20939)" gradientUnits="userSpaceOnUse" x1="34.720501" x2="60.039902" y1="56.8027" y2="41.976002">
<stop offset="0" stop-color="#ffffff"/>
<stop offset="1" stop-color="#ffffff" stop-opacity="0.2"/>
</linearGradient>
<linearGradient gradientTransform="matrix(1,0,0,-1,0.1597,95.9258)" gradientUnits="userSpaceOnUse" x1="63.148201" x2="61.403599" y1="26.3545" y2="22.778099">
<stop offset="0" stop-color="#ffffff"/>
<stop offset="1" stop-color="#a3a3a3"/>
</linearGradient>
<linearGradient gradientTransform="matrix(1,0,0,-1,0.1597,95.9258)" gradientUnits="userSpaceOnUse" x1="63.148201" x2="61.403599" y1="26.3545" y2="22.778099">
<stop offset="0" stop-color="#ffffff"/>
<stop offset="1" stop-color="#a3a3a3"/>
</linearGradient>
<linearGradient gradientTransform="matrix(1,0,0,-1,0.1597,95.9258)" gradientUnits="userSpaceOnUse" x1="62.543701" x2="64.113503" y1="40.8223" y2="37.072102">
<stop offset="0" stop-color="#ffffff"/>
<stop offset="1" stop-color="#a3a3a3"/>
</linearGradient>
<linearGradient gradientTransform="matrix(1,0,0,-1,0.1597,95.9258)" gradientUnits="userSpaceOnUse" x1="62.543701" x2="64.113503" y1="40.8223" y2="37.072102">
<stop offset="0" stop-color="#ffffff"/>
<stop offset="1" stop-color="#a3a3a3"/>
</linearGradient>
<linearGradient gradientTransform="matrix(1,0,0,-1,0.1597,95.9258)" gradientUnits="userSpaceOnUse" x1="45.003201" x2="45.003201" y1="40.209" y2="23.3596">
<stop offset="0" stop-color="#c2de91"/>
<stop offset="1" stop-color="#7b9e56"/>
</linearGradient>
<linearGradient gradientTransform="matrix(1,0,0,-1,0.1597,95.9258)" gradientUnits="userSpaceOnUse" x1="45.003201" x2="45.003201" y1="40.209" y2="23.3596">
<stop offset="0" stop-color="#c2de91"/>
<stop offset="1" stop-color="#7b9e56"/>
</linearGradient>
<linearGradient gradientTransform="matrix(1,0,0,-1,0.1597,95.9258)" gradientUnits="userSpaceOnUse" x1="45.003201" x2="45.003201" y1="40.209" y2="23.3596">
<stop offset="0" stop-color="#c2de91"/>
<stop offset="1" stop-color="#7b9e56"/>
</linearGradient>
<linearGradient gradientTransform="matrix(1,0,0,-1,0.1597,95.9258)" gradientUnits="userSpaceOnUse" x1="45.003201" x2="45.003201" y1="40.209" y2="23.3596">
<stop offset="0" stop-color="#c2de91"/>
<stop offset="1" stop-color="#7b9e56"/>
</linearGradient>
<linearGradient gradientTransform="matrix(1,0,0,-1,0.1597,95.9258)" gradientUnits="userSpaceOnUse" x1="45.003201" x2="45.003201" y1="40.209" y2="23.3596">
<stop offset="0" stop-color="#c2de91"/>
<stop offset="1" stop-color="#7b9e56"/>
</linearGradient>
<linearGradient gradientTransform="matrix(1,0,0,-1,0.1597,95.9258)" gradientUnits="userSpaceOnUse" x1="45.003201" x2="45.003201" y1="40.209" y2="23.3596">
<stop offset="0" stop-color="#c2de91"/>
<stop offset="1" stop-color="#7b9e56"/>
</linearGradient>
<linearGradient gradientTransform="matrix(1,0,0,-1,8.6194701,63.557984)" gradientUnits="userSpaceOnUse" x1="82.677498" x2="82.677498" y1="37.415001" y2="54.1577">
<stop offset="0" stop-color="#ffffff" stop-opacity="0.3"/>
<stop offset="1" stop-color="#ffffff"/>
</linearGradient>
<linearGradient gradientTransform="matrix(1,0,0,-1,-53.620329,92.86676)" gradientUnits="userSpaceOnUse" x1="82.677498" x2="82.677498" y1="37.415001" y2="54.1577">
<stop offset="0" stop-color="#ffffff" stop-opacity="0.3"/>
<stop offset="1" stop-color="#ffffff"/>
</linearGradient>
<linearGradient gradientTransform="matrix(1,0,0,-1,8.6194701,63.557984)" gradientUnits="userSpaceOnUse" x1="82.677498" x2="82.677498" y1="37.415001" y2="54.1577">
<stop offset="0" stop-color="#ffffff" stop-opacity="0.3"/>
<stop offset="1" stop-color="#ffffff"/>
</linearGradient>
<linearGradient gradientTransform="matrix(1,0,0,-1,-15.367455,78.154116)" gradientUnits="userSpaceOnUse" x1="82.677498" x2="82.677498" y1="37.415001" y2="54.1577">
<stop offset="0" stop-color="#ffffff" stop-opacity="0.3"/>
<stop offset="1" stop-color="#ffffff"/>
</linearGradient>
<linearGradient gradientTransform="matrix(1,0,0,-1,8.6194701,63.557984)" gradientUnits="userSpaceOnUse" x1="82.677498" x2="82.677498" y1="37.415001" y2="54.1577">
<stop offset="0" stop-color="#ffffff" stop-opacity="0.3"/>
<stop offset="1" stop-color="#ffffff"/>
</linearGradient>
<linearGradient gradientTransform="matrix(1,0,0,-1,-18.309984,107.94722)" gradientUnits="userSpaceOnUse" x1="82.677498" x2="82.677498" y1="37.415001" y2="54.1577">
<stop offset="0" stop-color="#ffffff" stop-opacity="0.3"/>
<stop offset="1" stop-color="#ffffff"/>
</linearGradient>
<linearGradient gradientTransform="matrix(1,0,0,1.0147106,0,-1.118872)" gradientUnits="userSpaceOnUse" x1="25.749846" x2="83.267105" y1="23.186441" y2="82.169495">
<stop offset="0" stop-color="#d5f6ff" stop-opacity="1"/>
<stop offset="1" stop-color="#0088aa" stop-opacity="1"/>
</linearGradient>
<linearGradient gradientTransform="matrix(1,0,0,-1,-111.07647,38.974359)" gradientUnits="userSpaceOnUse" x1="167.8877" x2="206.12601" y1="-45.7896" y2="-7.5511999">
<stop offset="0" stop-color="#ffffff"/>
<stop offset="1" stop-color="#e6e6e6"/>
</linearGradient>
<linearGradient gradientTransform="matrix(0.7653472,0,0,-0.76412837,-94.891385,27.599019)" gradientUnits="userSpaceOnUse" x1="167.8877" x2="206.12601" y1="-45.7896" y2="-7.5511999">
<stop offset="0" stop-color="#ffffff"/>
<stop offset="1" stop-color="#e6e6e6"/>
</linearGradient>
<linearGradient gradientTransform="matrix(0,1,-1,0,96,0)" gradientUnits="userSpaceOnUse" x1="8" x2="88" y1="48" y2="48">
<stop offset="0" stop-color="#3455b6" stop-opacity="1"/>
<stop offset="1" stop-color="#344db6" stop-opacity="1"/>
</linearGradient>
<linearGradient gradientTransform="matrix(0,1,-1,0,96,0)" gradientUnits="userSpaceOnUse" id="linearGradient4027" x1="8" x2="88" y1="48" y2="48">
<stop offset="0" stop-color="#80d229" stop-opacity="1"/>
<stop offset="1" stop-color="#71c504" stop-opacity="1"/>
</linearGradient>
<linearGradient gradientUnits="userSpaceOnUse" id="linearGradient4011" x1="47.315483" x2="47.315483" y1="31.518965" y2="66.359978">
<stop offset="0" stop-color="#ffffff" stop-opacity="1"/>
<stop offset="1" stop-color="#ffffff" stop-opacity="0.78431374"/>
</linearGradient>
</defs>
<path d="M 88.0 49.0 C 88.0 78.633 77.637 89.0 48.0 89.0 C 18.365 89.0 8.0 78.633 8.0 49.0 C 8.0 19.365 18.365 9.0 48.0 9.0 C 77.637 9.0 88.0 19.365 88.0 49.0 z " fill-opacity="0.4"/>
<linearGradient gradientUnits="userSpaceOnUse" x1="47.9995" x2="47.9995" y1="8" y2="88.0005">
<stop offset="0" stop-color="#00aad4" stop-opacity="1"/>
<stop offset="1" stop-color="#2ad4ff" stop-opacity="1"/>
</linearGradient>
<path d="M 8.0 48.0 C 8.0 18.367 18.363 8.0 48.0 8.0 C 77.635 8.0 88.0 18.367 88.0 48.0 C 88.0 77.635 77.635 88.0 48.0 88.0 C 18.363 88.0 8.0 77.635 8.0 48.0 z " fill="url(#linearGradient4027)" fill-opacity="1"/>
<rect fill="none" height="96" width="96"/>
<linearGradient gradientUnits="userSpaceOnUse" id="SVGID_2_" x1="47.9995" x2="47.9995" y1="8.2534" y2="87.4985">
<stop offset="0" stop-color="#ffffff"/>
<stop offset="1" stop-color="#ffffff" stop-opacity="0"/>
</linearGradient>
<path d="M 48.0 8.0 C 18.365 8.0 8.0 18.365 8.0 48.0 C 8.0 77.633 18.365 88.0 48.0 88.0 C 77.637 88.0 88.0 77.633 88.0 48.0 C 88.0 18.365 77.637 8.0 48.0 8.0 z M 48.0 87.0 C 18.842 87.0 9.0 77.158 9.0 48.0 C 9.0 18.842005 18.842 9.0 48.0 9.0 C 77.158005 9.0 87.0 18.842 87.0 48.0 C 87.0 77.158005 77.158 87.0 48.0 87.0 z " fill="url(#SVGID_2_)" fill-opacity="0.25" stroke-opacity="0.25"/>
<linearGradient gradientTransform="matrix(0.7071 -0.7071 0.7071 0.7071 -208.9813 3059.7412)" gradientUnits="userSpaceOnUse" x1="2309.3584" x2="2344.3584" y1="-1947.9287" y2="-1947.9287">
<stop offset="0" stop-color="#58595b"/>
<stop offset="1" stop-color="#000000"/>
</linearGradient>
<linearGradient gradientTransform="matrix(0.7071 -0.7071 0.7071 0.7071 -208.9813 3059.7412)" gradientUnits="userSpaceOnUse" x1="2309.3584" x2="2313.3604" y1="-1957.9277" y2="-1957.9277">
<stop offset="0" stop-color="#58595b"/>
<stop offset="1" stop-color="#000000"/>
</linearGradient>
<linearGradient gradientUnits="userSpaceOnUse" x1="54.292" x2="59.292" y1="10.3501" y2="38.934">
<stop offset="0" stop-color="#58595b"/>
<stop offset="1" stop-color="#000000"/>
</linearGradient>
<linearGradient gradientUnits="userSpaceOnUse" x1="32.5508" x2="42.1758" y1="12.6343" y2="45.1342">
<stop offset="0" stop-color="#58595b"/>
<stop offset="1" stop-color="#000000"/>
</linearGradient>
<linearGradient gradientUnits="userSpaceOnUse" x1="57.1484" x2="60.063" y1="35.2275" y2="38.1421">
<stop offset="0" stop-color="#ffffff"/>
<stop offset="0.7362" stop-color="#ffffff" stop-opacity="0"/>
<stop offset="1" stop-color="#ffffff" stop-opacity="0"/>
</linearGradient>
<linearGradient gradientUnits="userSpaceOnUse" x1="44.6177" x2="38.0733" y1="37.2412" y2="43.7856">
<stop offset="0" stop-color="#ffffff"/>
<stop offset="0.7362" stop-color="#ffffff" stop-opacity="0"/>
<stop offset="1" stop-color="#ffffff" stop-opacity="0"/>
</linearGradient>
<linearGradient gradientUnits="userSpaceOnUse" x1="47.9995" x2="47.9995" y1="45.5" y2="53.8766">
<stop offset="0" stop-color="#ffffff"/>
<stop offset="1" stop-color="#6d6e70"/>
</linearGradient>
<path d="M 48.71875 31.5 C 47.797245 31.486618 46.867706 31.549538 45.96875 31.65625 C 41.468624 32.32327 42.027023 31.897324 35.40625 34.40625 C 32.773396 35.456684 30.776806 36.641808 26.46875 36.34375 L 26.0625 39.34375 C 28.037798 39.220745 29.2415 38.620396 30.53125 38.40625 C 34.19647 37.205273 36.872643 36.64156 38.5625 35.8125 C 42.066338 35.138256 41.62121 34.49719 48.03125 34.1875 C 49.481064 34.322075 54.316208 34.047176 59.75 36.59375 C 62.106735 37.285343 63.654922 38.57895 67.4375 38.6875 C 72.14697 38.298306 70.3871 38.30474 71.6875 37.875 L 70.84375 35.4375 C 69.89142 35.425938 69.69218 35.88134 67.90625 35.84375 C 66.30438 35.955193 65.5281 35.65082 64.125 35.40625 C 61.33872 34.711765 58.988068 33.45927 56.53125 32.96875 C 54.240513 32.08867 51.48327 31.540148 48.71875 31.5 z M 49.28125 36.71875 C 47.3873 36.75496 45.436214 37.03612 43.40625 37.46875 C 38.137848 38.84037 30.846045 40.96574 24.9375 42.0625 L 24.9375 45.1875 L 37.53125 48.53125 C 42.368793 49.687344 48.698727 50.704144 54.09375 49.40625 C 51.74371 52.95838 46.8508 56.705357 40.46875 60.625 C 36.962288 62.75629 31.16504 64.7798 28.21875 61.90625 C 22.649004 57.41355 29.236095 54.206287 29.0 54.34375 C 29.03469 57.485 29.929268 58.6384 32.25 57.59375 C 33.57576 56.95131 33.69275 54.58494 32.8125 53.125 C 31.153263 51.479893 27.486698 51.626865 25.90625 53.0 C 23.964268 54.776787 23.354095 57.224255 24.125 60.1875 C 24.994602 62.385357 26.25065 63.88679 28.03125 64.875 C 30.073242 65.65924 32.47154 65.5093 34.875 65.3125 C 37.283714 64.947876 40.503975 63.808025 42.75 62.34375 C 46.771297 60.43383 49.342983 57.342896 52.71875 54.90625 L 59.96875 48.15625 C 60.23153 47.65127 57.312607 55.16671 55.9375 62.90625 C 55.784138 65.02598 55.904964 65.14422 57.0 66.34375 C 61.08662 65.388794 64.61099 59.914585 65.96875 55.1875 C 64.81108 54.97046 63.501675 54.933136 62.5 52.53125 C 61.638412 50.14816 62.078545 48.266903 62.71875 47.34375 C 64.241905 45.788338 65.29693 45.360004 66.71875 45.09375 L 72.21875 43.75 L 70.5625 40.75 C 68.893936 40.958363 68.07373 41.8126 65.1875 41.03125 C 61.222187 39.844795 60.257504 39.656487 54.84375 37.46875 C 53.03115 36.888535 51.1752 36.68261 49.28125 36.71875 z M 44.90625 39.5625 C 44.630203 39.886646 44.197857 42.851673 46.0625 44.28125 C 47.434914 44.848457 50.17375 45.123955 51.90625 43.9375 C 52.647846 43.574326 52.65149 41.388496 52.46875 39.71875 C 54.64413 40.03422 56.944855 40.00044 58.9375 40.90625 C 62.0158 42.081135 64.60585 42.83939 65.90625 43.3125 C 63.213406 44.30511 59.445274 46.121456 55.9375 46.9375 C 52.193626 47.626266 47.710552 48.046352 43.78125 47.375 C 40.160057 46.755753 32.531452 44.97004 28.90625 43.8125 C 34.2813 41.425137 40.867603 40.682457 44.90625 39.5625 z " fill="url(#linearGradient4011)" fill-opacity="1" stroke="none"/>
</svg>
