<?xml version="1.0" encoding="UTF-8"?>
<svg xmlns="http://www.w3.org/2000/svg" xmlns:xlink="http://www.w3.org/1999/xlink" baseProfile="tiny" contentScriptType="text/ecmascript" contentStyleType="text/css" height="96px" preserveAspectRatio="xMidYMid meet" version="1.1" viewBox="0 0 96 96" width="96px" x="0px" y="0px" zoomAndPan="magnify">
<defs>
<linearGradient id="linearGradient3800">
<stop offset="0" stop-color="#ffffff" stop-opacity="1"/>
<stop offset="1" stop-color="#ffffff" stop-opacity="0.78431374"/>
</linearGradient>
<linearGradient>
<stop offset="0" stop-color="#54be00" stop-opacity="1"/>
<stop offset="1" stop-color="#59ab00" stop-opacity="1"/>
</linearGradient>
<linearGradient gradientTransform="matrix(0,1,-1,0,96.023001,-0.0230015)" gradientUnits="userSpaceOnUse" id="linearGradient3796" x1="8.023003" x2="88.023" y1="48" y2="48">
<stop offset="0" stop-color="#54be00" stop-opacity="1"/>
<stop offset="1" stop-color="#59ab00" stop-opacity="1"/>
</linearGradient>
<linearGradient gradientUnits="userSpaceOnUse" id="linearGradient3806" x1="52.041489" x2="52.041489" y1="24.533314" y2="69.585419">
<stop offset="0" stop-color="#ffffff" stop-opacity="1"/>
<stop offset="1" stop-color="#ffffff" stop-opacity="0.78431374"/>
</linearGradient>
<linearGradient gradientTransform="matrix(0,1,-1,0,96.023001,-0.0230015)" gradientUnits="userSpaceOnUse" id="linearGradient3810" x1="52.041489" x2="52.041489" y1="24.533314" y2="69.585419">
<stop offset="0" stop-color="#54be00" stop-opacity="1"/>
<stop offset="1" stop-color="#59ab00" stop-opacity="1"/>
</linearGradient>
</defs>
<path d="M 88.0 48.977 C 88.0 78.611 77.637 88.977005 48.0 88.977005 C 18.365 88.977005 8.0 78.61101 8.0 48.977005 C 8.0 19.343004 18.365 8.977005 48.0 8.977005 C 77.637 8.977 88.0 19.343 88.0 48.977 z " fill-opacity="0.4"/>
<rect fill="none" height="96" width="96"/>
<linearGradient gradientTransform="matrix(1 0 0 1 -355.1992 -744.8008)" gradientUnits="userSpaceOnUse" x1="403.2227" x2="403.2227" y1="760.7246" y2="829.0801">
<stop offset="0" stop-color="#6fa519"/>
<stop offset="1" stop-color="#064c00"/>
</linearGradient>
<path d="M 48.023 88.0 C 18.39 88.0 8.022999 77.637 8.022999 48.000004 C 8.022999 18.365004 18.39 8.000004 48.023 8.000004 C 77.657 8.000004 88.022995 18.365004 88.022995 48.000004 C 88.022995 77.637 77.657 88.0 48.022995 88.0 z " fill="url(#linearGradient3796)" fill-opacity="1"/>
<linearGradient gradientTransform="matrix(1 0 0 1 -355.1992 -744.8008)" gradientUnits="userSpaceOnUse" id="SVGID_2_" x1="403.1768" x2="403.1768" y1="753.0527" y2="832.2983">
<stop offset="0" stop-color="#ffffff"/>
<stop offset="1" stop-color="#ffffff" stop-opacity="0"/>
</linearGradient>
<path d="M 47.977 8.0 C 18.342 8.0 7.977001 18.366 7.977001 48.0 C 7.977001 77.633 18.342 88.0 47.977 88.0 C 77.613 88.0 87.977005 77.633 87.977005 48.0 C 87.977 18.366 77.613 8.0 47.977 8.0 z M 47.977 87.0 C 18.819 87.0 8.977001 77.158 8.977001 48.0 C 8.977001 18.842005 18.819 9.0 47.977 9.0 C 77.135 9.0 86.977005 18.842 86.977005 48.0 C 86.977005 77.158005 77.135 87.0 47.977 87.0 z " fill="url(#SVGID_2_)" fill-opacity="0.25"/>
<path d="M 74.883 68.829 L 72.713005 66.661 L 72.713005 65.14 C 72.713005 64.036 71.817 63.14 70.713005 63.14 L 67.20101 63.14 L 67.20101 60.576 L 68.564 61.939 C 69.05801 62.439 69.717 62.712 70.420006 62.712 C 71.12501 62.712 71.783005 62.441 72.271 61.943996 L 73.922005 60.290997 C 74.427 59.797997 74.703 59.139996 74.703 58.436996 C 74.705 57.726 74.432 57.066 73.936005 56.582996 L 70.434006 53.077995 C 72.02601 49.333996 71.176 44.936996 68.270004 42.035995 C 66.371 40.130997 63.840004 39.081997 61.14901 39.081997 C 60.721004 39.081997 60.29501 39.108997 59.87101 39.162 L 59.87101 35.601 C 59.87101 34.497997 58.975006 33.601 57.87101 33.601 L 57.263004 33.601 L 57.263004 31.577995 C 57.263004 30.473995 56.367004 29.577995 55.263004 29.577995 L 55.263004 25.365995 C 55.263004 24.262997 54.367004 23.365995 53.263004 23.365995 L 51.340004 23.365995 C 50.236004 23.365995 49.340004 24.262997 49.340004 25.365995 L 49.340004 29.600998 L 48.53101 29.600998 C 47.428005 29.600998 46.53101 30.497995 46.53101 31.600998 L 46.53101 52.118996 L 45.94 52.118996 L 45.94 45.26 C 45.94 44.587 45.604 43.962997 45.041 43.588997 C 44.713 43.373997 44.332 43.26 43.94 43.26 C 43.668 43.26 43.402 43.315 43.152 43.421997 L 36.723 46.179996 C 35.988 46.494995 35.512 47.216995 35.512 48.018 L 35.512 56.712 L 33.972 56.712 C 32.868 56.712 31.972 57.608997 31.972 58.712 L 31.972 59.358 L 26.626 59.358 C 25.522 59.358 24.626 60.254997 24.626 61.358 L 24.626 66.661995 L 22.458 68.83199 C 21.885 69.40499 21.714 70.26299 22.024 71.01299 C 22.334 71.76299 23.059 72.246 23.872 72.246 L 73.468 72.246 C 74.281006 72.246 75.005005 71.76299 75.317 71.01299 C 75.627 70.259 75.457 69.402 74.883 68.829 z M 56.92 49.16 C 56.92 48.029 57.358 46.966 58.156 46.165 C 58.956997 45.366 60.018997 44.926003 61.151997 44.926003 C 62.282997 44.926003 63.344997 45.365 64.144 46.163 C 64.945 46.966003 65.385994 48.031 65.385994 49.160004 C 65.385994 50.287003 64.94699 51.349003 64.145996 52.152004 C 63.344997 52.951004 62.282997 53.390003 61.151997 53.390003 C 60.020996 53.390003 58.958996 52.952003 58.159996 52.156 C 57.359 51.354 56.92 50.291 56.92 49.16 z " fill-opacity="0.07"/>
<path d="M 74.529 69.184 L 72.215 66.870995 L 72.215 65.143 C 72.215 64.314995 71.54099 63.643 70.715 63.643 L 67.038994 63.643 C 66.923996 63.643 66.81 63.655 66.702995 63.679996 L 66.702995 59.368996 L 68.922 61.587997 C 69.32 61.991997 69.856 62.214996 70.424 62.214996 C 70.994 62.214996 71.52799 61.992996 71.92 61.595997 L 73.576 59.937996 C 73.982 59.540997 74.20699 59.004997 74.20699 58.437996 C 74.20899 57.863995 73.98799 57.331997 73.58799 56.937996 L 69.84299 53.189995 C 71.542984 49.552994 70.792984 45.254993 67.92199 42.39199 C 66.11499 40.580994 63.71299 39.583996 61.153988 39.583996 C 60.549988 39.583996 59.954987 39.639996 59.370987 39.748997 C 59.37499 39.712997 59.37499 39.677 59.37499 39.639996 L 59.37499 35.604996 C 59.37499 34.778996 58.702988 34.104996 57.87499 34.104996 L 56.765987 34.104996 L 56.765987 31.58 C 56.765987 30.753 56.092987 30.08 55.265987 30.08 L 54.765987 30.08 L 54.765987 25.368 C 54.765987 24.541 54.092987 23.868 53.265987 23.868 L 51.343987 23.868 C 50.517982 23.868 49.843987 24.541 49.843987 25.368 L 49.843987 30.103 L 48.53499 30.103 C 47.70899 30.103 47.03499 30.777 47.03499 31.603 L 47.03499 52.659 C 46.92799 52.635 46.81299 52.621 46.69899 52.621 L 45.44199 52.621 L 45.44199 45.26 C 45.44199 44.754997 45.18999 44.287 44.76699 44.007 C 44.520992 43.846 44.235992 43.76 43.94299 43.76 C 43.737988 43.76 43.53899 43.801 43.34999 43.882 L 36.92199 46.641 C 36.36999 46.876 36.01399 47.417 36.01399 48.018 L 36.01399 57.212 L 33.973988 57.212 C 33.146988 57.212 32.473988 57.885 32.473988 58.712 L 32.473988 59.897 C 32.36699 59.873 32.252987 59.858 32.13899 59.858 L 26.625988 59.858 C 25.797989 59.858 25.125988 60.532 25.125988 61.358 L 25.125988 66.868996 L 22.812988 69.184 C 22.381989 69.614 22.252989 70.255 22.487988 70.819 C 22.719988 71.382 23.263988 71.746 23.874989 71.746 L 73.470985 71.746 C 74.07799 71.746 74.622986 71.383 74.85599 70.819 C 75.08899 70.255 74.959 69.613 74.529 69.184 z M 56.42 49.16 C 56.42 47.896 56.912 46.707 57.804996 45.81 C 58.700996 44.916 59.888996 44.424 61.154995 44.424 C 62.41999 44.424 63.60799 44.916 64.50199 45.808 C 65.397995 46.705 65.89199 47.896 65.89199 49.159 C 65.89199 50.419 65.39799 51.607 64.50399 52.505 C 63.60799 53.401 62.41999 53.891003 61.15499 53.891003 C 59.89099 53.891003 58.70299 53.401 57.80699 52.509003 C 56.912 51.613 56.42 50.424 56.42 49.16 z " fill-opacity="0.1"/>
<path d="M 74.176 69.536 L 71.713005 67.075005 L 71.713005 65.14001 C 71.713005 64.587006 71.26601 64.14001 70.713005 64.14001 L 67.037 64.14001 C 66.687004 64.14001 66.381004 64.32001 66.201004 64.59301 L 66.201004 58.57301 C 66.201004 58.31501 66.105 58.07501 65.93 57.88701 L 69.276 61.23101 C 69.581 61.54201 69.989 61.71001 70.422005 61.71001 C 70.859 61.71001 71.26501 61.54101 71.566 61.23601 L 73.226006 59.574013 C 73.537 59.269012 73.705 58.864017 73.705 58.429012 C 73.707 57.991013 73.537 57.582012 73.231 57.283012 L 69.233 53.282013 C 71.046005 49.760017 70.397 45.56301 67.563 42.735012 C 65.852005 41.02001 63.576004 40.075012 61.151005 40.075012 C 60.175003 40.075012 59.223003 40.227013 58.324005 40.52201 C 58.658005 40.35401 58.873005 40.01001 58.873005 39.62801 L 58.873005 35.6 C 58.873005 35.049 58.426006 34.6 57.873005 34.6 L 56.265003 34.6 L 56.265003 31.576998 C 56.265003 31.025995 55.816 30.576998 55.265003 30.576998 L 54.265003 30.576998 L 54.265003 25.364998 C 54.265003 24.812998 53.816 24.364998 53.265003 24.364998 L 51.342003 24.364998 C 50.789 24.364998 50.342003 24.812998 50.342003 25.364998 L 50.342003 30.6 L 48.533005 30.6 C 47.981007 30.6 47.533005 31.049 47.533005 31.6 L 47.533005 53.57 C 47.354004 53.299 47.047005 53.119 46.697006 53.119 L 44.94 53.119 L 44.94 45.26 C 44.94 44.922997 44.772 44.612 44.491997 44.425 C 44.327995 44.317 44.137997 44.26 43.94 44.26 C 43.803 44.26 43.669 44.287 43.544 44.341 L 37.117 47.1 C 36.75 47.255997 36.513 47.618 36.513 48.018 L 36.513 57.712 L 33.973 57.712 C 33.42 57.712 32.973 58.16 32.973 58.712 L 32.973 60.809 C 32.793 60.538 32.487 60.358 32.138 60.358 L 26.627 60.358 C 26.074 60.358 25.627 60.807 25.627 61.358 L 25.627 67.076 L 23.166 69.538994 C 22.879 69.826 22.795 70.25399 22.949 70.62899 C 23.104002 71.00399 23.468 71.24599 23.873 71.24599 L 73.469 71.24599 C 73.875 71.24599 74.239 71.00399 74.393005 70.62899 C 74.54701 70.25399 74.463 69.822 74.176 69.536 z M 64.854 52.859 C 63.865997 53.847 62.549995 54.39 61.154995 54.39 C 59.758995 54.39 58.441994 53.847 57.453995 52.861 C 56.465996 51.871 55.920994 50.556 55.920994 49.16 C 55.920994 47.764 56.465992 46.447 57.451992 45.458 C 58.437992 44.471 59.754993 43.926 61.15499 43.926 C 62.55099 43.926 63.86599 44.470997 64.85199 45.456997 C 65.84199 46.448997 66.38699 47.766 66.38699 49.159996 C 66.389 50.553 65.843 51.867 64.854 52.859 z M 59.691 58.121 C 59.451 58.121 59.217003 58.208 59.039 58.365 C 58.975 58.421997 58.916 58.485996 58.867 58.556 C 58.826 58.226 58.623 57.939 58.328 57.788 C 58.771 57.936 59.229 58.046 59.691 58.121 z M 65.068 57.441 C 64.933 57.441 64.802 57.466003 64.679 57.519 C 64.605 57.549 64.531 57.572 64.453 57.601 C 64.731 57.493 65.011 57.375 65.276 57.241 L 65.748 57.712 C 65.564 57.538 65.324 57.441 65.068 57.441 z M 61.172 58.236 C 61.506 58.236 61.838 58.214 62.17 58.173 C 61.84 58.213 61.506 58.236 61.172 58.236 z M 62.436 58.135 C 62.68 58.1 62.92 58.059 63.162003 58.004 C 62.92 58.059 62.68 58.102 62.436 58.135 z M 63.471 57.924 C 63.688 57.866 63.905 57.801 64.117004 57.727 C 63.902 57.801 63.688 57.866 63.471 57.924 z " fill-opacity="0.15"/>
<path d="M 73.822 69.891 L 71.215 67.285 L 71.215 65.143 C 71.215 64.868 70.99 64.643 70.715 64.643 L 67.038994 64.643 C 66.76399 64.643 66.538994 64.868 66.538994 65.143 L 66.538994 66.992 L 65.702995 66.992 L 65.702995 58.578995 C 65.702995 58.443996 65.647995 58.316994 65.55699 58.224995 L 65.42199 58.089996 C 65.32599 57.993996 65.19899 57.943996 65.06799 57.943996 C 65.00399 57.943996 64.93499 57.957996 64.87499 57.983 C 63.686993 58.484997 62.435993 58.739 61.15399 58.739 C 60.729992 58.739 60.28899 58.705 59.762993 58.629 C 59.73999 58.626 59.713993 58.623997 59.692993 58.623997 C 59.573994 58.623997 59.456993 58.666996 59.36499 58.746 C 59.256992 58.841 59.192993 58.976997 59.192993 59.123997 L 59.192993 66.989 L 58.374992 66.989 L 58.374992 58.684 C 58.374992 58.469 58.23999 58.28 58.03699 58.21 C 56.64399 57.731 55.41399 56.967 54.380993 55.934 C 50.64699 52.199997 50.64699 46.121 54.379993 42.39 C 55.413994 41.357 56.64699 40.591 58.036995 40.111 C 58.23999 40.043 58.374996 39.853 58.374996 39.638 L 58.374996 35.605 C 58.374996 35.329 58.151997 35.105 57.874996 35.105 L 55.765995 35.105 L 55.765995 31.58 C 55.765995 31.304 55.540997 31.08 55.265995 31.08 L 53.765995 31.08 L 53.765995 25.368 C 53.765995 25.093 53.540997 24.868 53.265995 24.868 L 51.34399 24.868 C 51.068993 24.868 50.84399 25.093 50.84399 25.368 L 50.84399 31.104 L 48.534996 31.104 C 48.259995 31.104 48.034996 31.328 48.034996 31.604 L 48.034996 66.988 L 47.198997 66.988 L 47.198997 54.119 C 47.198997 53.843 46.975 53.619 46.698997 53.619 L 44.442997 53.619 L 44.442997 45.26 C 44.442997 45.092 44.357 44.935997 44.216995 44.843 C 44.133995 44.788 44.03799 44.76 43.942997 44.76 C 43.876995 44.76 43.808 44.774 43.746 44.801 L 37.317997 47.559 C 37.132996 47.639 37.013996 47.818996 37.013996 48.018 L 37.013996 58.212 L 33.973995 58.212 C 33.698994 58.212 33.473995 58.435997 33.473995 58.712 L 33.473995 66.986 L 32.64 66.986 L 32.64 61.357 C 32.64 61.080997 32.416 60.857 32.14 60.857 L 26.627 60.857 C 26.351 60.857 26.127 61.080997 26.127 61.357 L 26.127 67.279 L 23.521 69.888 C 23.377 70.033 23.334 70.245 23.413 70.433 C 23.491 70.621 23.673 70.743 23.876 70.743 L 73.471 70.743 C 73.672 70.743 73.856 70.620995 73.932 70.433 C 74.009 70.247 73.965 70.031 73.822 69.891 z M 55.086 55.227 C 56.709 56.846 58.863 57.739 61.152 57.739 C 62.629 57.739 64.078 57.354004 65.371 56.628 L 69.633 60.890003 C 69.843 61.103004 70.123 61.218 70.424 61.218 C 70.725006 61.218 71.004005 61.103 71.211006 60.892 L 72.87501 59.226 C 73.088005 59.019 73.20701 58.74 73.20701 58.439003 C 73.20701 58.136 73.09001 57.855003 72.879005 57.648003 L 68.617004 53.382004 C 70.521 50.027004 69.969 45.848003 67.211006 43.098003 C 65.59601 41.477005 63.443005 40.585003 61.152008 40.585003 C 58.863007 40.585003 56.709007 41.477 55.086006 43.098003 C 51.742 46.438 51.742 51.88 55.086 55.227 z M 57.098 45.104 C 58.18 44.022 59.621 43.425 61.155 43.425 C 62.685997 43.425 64.127 44.022 65.209 45.104 C 66.293 46.19 66.892 47.631 66.892 49.16 C 66.892 50.683 66.293 52.127 65.211 53.215 C 64.127 54.296 62.687 54.893 61.155 54.893 C 59.625 54.893 58.184 54.296 57.098 53.215 C 56.016 52.13 55.42 50.692 55.42 49.16 C 55.42 47.63 56.016 46.189 57.098 45.104 z " fill-opacity="0.15"/>
<linearGradient gradientTransform="matrix(1 0 0 1 -355.1992 -744.8008)" gradientUnits="userSpaceOnUse" x1="403.8701" x2="403.8701" y1="769.166" y2="814.043">
<stop offset="0" stop-color="#f6faed"/>
<stop offset="0.3232" stop-color="#f6faed"/>
<stop offset="1" stop-color="#d5cbc5"/>
</linearGradient>
<path d="M 70.713 66.488 L 70.713 64.14 L 67.036995 64.14 L 67.036995 66.488 L 65.201 66.488 L 65.201 57.576 L 65.065994 57.441 C 63.82999 57.962 62.499992 58.236 61.151993 58.236 C 60.657993 58.236 60.171993 58.189 59.69099 58.121 L 59.69099 66.486 L 57.874992 66.486 L 57.874992 57.681 C 56.442993 57.191 55.12899 56.386 54.024994 55.285 C 50.094994 51.351 50.094994 44.96 54.022995 41.032 C 55.126995 39.929996 56.442993 39.126 57.874996 38.636 L 57.874996 34.601 L 55.265995 34.601 L 55.265995 30.578 L 53.265995 30.578 L 53.265995 24.366 L 51.342995 24.366 L 51.342995 30.601 L 48.534996 30.601 L 48.534996 66.486 L 46.698997 66.486 L 46.698997 53.119 L 43.941 53.119 L 43.941 44.26 L 37.512997 47.018 L 37.512997 57.712 L 33.972996 57.712 L 33.972996 66.486 L 32.137997 66.486 L 32.137997 60.357 L 26.625996 60.357 L 26.625996 66.486 L 23.871996 69.243 L 73.468 69.243 L 70.713 66.488 z M 55.439 53.872 C 57.019 55.449 59.084 56.236 61.154 56.236 C 62.648 56.236 64.138 55.816 65.451 54.996 L 69.99 59.533997 C 70.226 59.775 70.620995 59.775 70.856995 59.533997 L 72.524994 57.862995 C 72.76699 57.62899 72.76699 57.233994 72.524994 56.99699 L 67.98999 52.456993 C 69.95099 49.335995 69.58399 45.16799 66.85699 42.44699 C 65.28499 40.87099 63.217987 40.08199 61.153988 40.08199 C 59.08399 40.08199 57.01899 40.87099 55.438988 42.44699 C 52.287 45.602 52.287 50.717 55.439 53.872 z M 61.154 41.926 C 62.814 41.926 64.382996 42.573997 65.56 43.751 C 66.734 44.928 67.385994 46.494 67.385994 48.16 C 67.385994 49.824 66.731995 51.39 65.56 52.568 C 64.381996 53.743 62.814 54.39 61.154 54.39 C 59.484 54.39 57.922 53.741 56.744 52.568 C 55.566 51.388 54.92 49.824 54.92 48.16 C 54.92 46.494 55.57 44.928 56.744 43.751 C 57.92 42.574 59.484 41.926 61.154 41.926 z " fill="url(#linearGradient3810)" fill-opacity="1"/>
<path d="M 70.713 66.488 L 70.713 64.14 L 67.036995 64.14 L 67.036995 66.488 L 65.201 66.488 L 65.201 57.576 L 65.065994 57.441 C 63.82999 57.962 62.499992 58.236 61.151993 58.236 C 60.657993 58.236 60.171993 58.189 59.69099 58.121 L 59.69099 66.486 L 57.874992 66.486 L 57.874992 57.681 C 56.442993 57.191 55.12899 56.386 54.024994 55.285 C 50.094994 51.351 50.094994 44.96 54.022995 41.032 C 55.126995 39.929996 56.442993 39.126 57.874996 38.636 L 57.874996 34.601 L 55.265995 34.601 L 55.265995 30.578 L 53.265995 30.578 L 53.265995 24.366 L 51.342995 24.366 L 51.342995 30.601 L 48.534996 30.601 L 48.534996 66.486 L 46.698997 66.486 L 46.698997 53.119 L 43.941 53.119 L 43.941 44.26 L 37.512997 47.018 L 37.512997 57.712 L 33.972996 57.712 L 33.972996 66.486 L 32.137997 66.486 L 32.137997 60.357 L 26.625996 60.357 L 26.625996 66.486 L 23.871996 69.243 L 73.468 69.243 L 70.713 66.488 z M 55.439 53.872 C 57.019 55.449 59.084 56.236 61.154 56.236 C 62.648 56.236 64.138 55.816 65.451 54.996 L 69.99 59.533997 C 70.226 59.775 70.620995 59.775 70.856995 59.533997 L 72.524994 57.862995 C 72.76699 57.62899 72.76699 57.233994 72.524994 56.99699 L 67.98999 52.456993 C 69.95099 49.335995 69.58399 45.16799 66.85699 42.44699 C 65.28499 40.87099 63.217987 40.08199 61.153988 40.08199 C 59.08399 40.08199 57.01899 40.87099 55.438988 42.44699 C 52.287 45.602 52.287 50.717 55.439 53.872 z M 61.154 41.926 C 62.814 41.926 64.382996 42.573997 65.56 43.751 C 66.734 44.928 67.385994 46.494 67.385994 48.16 C 67.385994 49.824 66.731995 51.39 65.56 52.568 C 64.381996 53.743 62.814 54.39 61.154 54.39 C 59.484 54.39 57.922 53.741 56.744 52.568 C 55.566 51.388 54.92 49.824 54.92 48.16 C 54.92 46.494 55.57 44.928 56.744 43.751 C 57.92 42.574 59.484 41.926 61.154 41.926 z " fill="url(#linearGradient3806)" fill-opacity="1"/>
</svg>
