<?xml version="1.0" encoding="UTF-8"?>
<svg xmlns="http://www.w3.org/2000/svg" xmlns:xlink="http://www.w3.org/1999/xlink" baseProfile="tiny" contentScriptType="text/ecmascript" contentStyleType="text/css" height="96px" preserveAspectRatio="xMidYMid meet" version="1.1" viewBox="0 0 96 96" width="96px" x="0px" y="0px" zoomAndPan="magnify">
<path d="M 48.0 9.0 C 18.365 9.0 8.0 19.367 8.0 49.0 C 8.0 78.635 18.365 89.0 48.0 89.0 C 77.637 89.0 88.0 78.635 88.0 49.0 C 88.0 19.367 77.637 9.0 48.0 9.0 z M 34.5 77.0 C 29.807 77.0 26.0 73.194 26.0 68.5 C 26.0 63.806 29.807 60.0 34.5 60.0 C 39.195 60.0 43.0 63.806 43.0 68.5 C 43.0 73.194 39.195 77.0 34.5 77.0 z " fill-opacity="0.4"/>
<linearGradient gradientUnits="userSpaceOnUse" x1="47.9995" x2="47.9995" y1="8.5449" y2="89.2398">
<stop offset="0" stop-color="#ffffff"/>
<stop offset="1" stop-color="#cccac6"/>
</linearGradient>
<path d="M 48.0 8.0 C 18.365 8.0 8.0 18.367 8.0 48.0 C 8.0 77.635 18.365 88.0 48.0 88.0 C 77.637 88.0 88.0 77.635 88.0 48.0 C 88.0 18.367 77.637 8.0 48.0 8.0 z M 34.5 76.0 C 29.807 76.0 26.0 72.194 26.0 67.5 C 26.0 62.806 29.807 59.0 34.5 59.0 C 39.195 59.0 43.0 62.806 43.0 67.5 C 43.0 72.194 39.195 76.0 34.5 76.0 z " fill="url(#linearGradient3879)" fill-opacity="1"/>
<path d="M 34.5 58.0 C 29.262 58.0 25.0 62.262 25.0 67.5 C 25.0 72.738 29.262 77.0 34.5 77.0 C 39.738 77.0 44.0 72.738 44.0 67.5 C 44.0 62.262 39.738 58.0 34.5 58.0 z M 34.5 76.0 C 29.807 76.0 26.0 72.194 26.0 67.5 C 26.0 62.806 29.807 59.0 34.5 59.0 C 39.195 59.0 43.0 62.806 43.0 67.5 C 43.0 72.194 39.195 76.0 34.5 76.0 z " fill="url(#SVGID_2_)"/>
<path d="M 48.0 8.0 C 18.365 8.0 8.0 18.367 8.0 48.0 C 8.0 77.635 18.365 88.0 48.0 88.0 C 77.637 88.0 88.0 77.635 88.0 48.0 C 88.0 18.367 77.637 8.0 48.0 8.0 z M 48.0 87.0 C 18.842 87.0 9.0 77.158 9.0 48.0 C 9.0 18.842005 18.842 9.0 48.0 9.0 C 77.158005 9.0 87.0 18.842 87.0 48.0 C 87.0 77.158005 77.158 87.0 48.0 87.0 z " fill="url(#SVGID_3_)" fill-opacity="0.25" stroke-opacity="0.25"/>
<rect fill="none" height="96" width="96"/>
<path d="M 48.0 8.0 C 18.365 8.0 8.0 18.367 8.0 48.0 C 8.0 77.635 18.365 88.0 48.0 88.0 C 77.637 88.0 88.0 77.635 88.0 48.0 C 88.0 18.367 77.637 8.0 48.0 8.0 z M 48.0 87.0 C 18.842 87.0 9.0 77.158 9.0 48.0 C 9.0 18.842005 18.842 9.0 48.0 9.0 C 77.158005 9.0 87.0 18.842 87.0 48.0 C 87.0 77.158005 77.158 87.0 48.0 87.0 z " fill="url(#SVGID_3_)" fill-opacity="0.25" stroke-opacity="0.25"/>
<path d="M 34.5 58.0 C 29.262 58.0 25.0 62.262 25.0 67.5 C 25.0 72.738 29.262 77.0 34.5 77.0 C 39.738 77.0 44.0 72.738 44.0 67.5 C 44.0 62.262 39.738 58.0 34.5 58.0 z M 34.5 76.0 C 29.807 76.0 26.0 72.194 26.0 67.5 C 26.0 62.806 29.807 59.0 34.5 59.0 C 39.195 59.0 43.0 62.806 43.0 67.5 C 43.0 72.194 39.195 76.0 34.5 76.0 z " fill="#d9d9d9" fill-opacity="1"/>
<path d="M 74.035 52.0 C 79.572 52.0 83.0 46.809 83.0 42.0 C 83.0 36.953 78.295 32.0 73.5 32.0 C 70.801 32.0 67.82 33.725 66.084 36.291 C 64.428 38.735 64.082 41.494 65.109 44.057 C 67.186 49.254 70.273 52.0 74.035 52.0 L 74.035 52.0 z " fill-opacity="0.05" stroke-opacity="0.05"/>
<path d="M 74.035 51.5 C 79.26401 51.5 82.5 46.568 82.5 42.0 C 82.5 37.205 78.043 32.5 73.5 32.5 C 70.961 32.5 68.146 34.137 66.498 36.571 C 64.939 38.873 64.609 41.466 65.572 43.871 C 67.566 48.861 70.494 51.5 74.035 51.5 L 74.035 51.5 z " fill-opacity="0.1" stroke-opacity="0.1"/>
<path d="M 74.035 51.0 C 78.955 51.0 82.0 46.328 82.0 42.0 C 82.0 37.458 77.791 33.0 73.5 33.0 C 71.119 33.0 68.471 34.548 66.912 36.852 C 65.44701 39.012 65.139 41.44 66.037 43.686 C 67.949 48.471 70.717 51.0 74.035 51.0 L 74.035 51.0 z " fill-opacity="0.2" stroke-opacity="0.2"/>
<path d="M 66.5 43.26072 C 68.039 47.01469 70.43 50.09322 74.035 50.09322 C 78.57001 50.09322 81.5 45.840477 81.5 41.796608 C 81.5 37.752743 77.643 33.5 73.5 33.5 C 69.357 33.5 64.5 38.38036 66.5 43.26072 z " fill-opacity="0.3" stroke-opacity="0.3"/>
<linearGradient gradientTransform="matrix(-1 0 0 1 4370 0)" gradientUnits="userSpaceOnUse" x1="4296.2324" x2="4296.2324" y1="33.0508" y2="48.8997">
<stop offset="0" stop-color="#00a9cc"/>
<stop offset="1" stop-color="#005897"/>
</linearGradient>
<path d="M 66.5 43.0 C 68.039 46.846 70.43 49.0 74.035 49.0 C 78.57001 49.0 81.5 45.643 81.5 41.5 C 81.5 37.357 77.643 33.0 73.5 33.0 C 69.357 33.0 64.5 38.0 66.5 43.0 z " fill="#00b0dc" fill-opacity="1"/>
<linearGradient gradientTransform="matrix(-1 0 0 1 4370 0)" gradientUnits="userSpaceOnUse" x1="4296.1504" x2="4296.1504" y1="34.0283" y2="42.9433">
<stop offset="0" stop-color="#ffffff"/>
<stop offset="1" stop-color="#ffffff" stop-opacity="0"/>
</linearGradient>
<linearGradient gradientTransform="matrix(-1 0 0 1 4370 0)" gradientUnits="userSpaceOnUse" x1="4296.2285" x2="4296.2285" y1="39.1592" y2="49.931">
<stop offset="0" stop-color="#0087b6"/>
<stop offset="1" stop-color="#004678"/>
</linearGradient>
<path d="M 26.5 41.0 C 31.221 41.0 36.0 38.252 36.0 33.0 C 36.0 28.037 31.963 24.0 27.0 24.0 C 21.953 24.0 17.0 28.705 17.0 33.5 C 17.0 39.035 22.117 41.0 26.5 41.0 L 26.5 41.0 z " fill-opacity="0.05" stroke-opacity="0.05"/>
<path d="M 26.5 40.5 C 30.973 40.5 35.5 37.924 35.5 33.0 C 35.5 28.312 31.687 24.5 27.0 24.5 C 22.207 24.5 17.5 28.958 17.5 33.5 C 17.5 38.666 22.35 40.5 26.5 40.5 L 26.5 40.5 z " fill-opacity="0.1" stroke-opacity="0.1"/>
<path d="M 26.5 40.0 C 30.725 40.0 35.0 37.596 35.0 33.0 C 35.0 28.589 31.412 25.0 27.0 25.0 C 22.459 25.0 18.0 29.211 18.0 33.5 C 18.0 38.298 22.58 40.0 26.5 40.0 L 26.5 40.0 z " fill-opacity="0.2" stroke-opacity="0.2"/>
<path d="M 18.5 33.5 C 18.5 37.643 22.357 39.5 26.5 39.5 C 30.643 39.5 34.5 37.143 34.5 33.0 C 34.5 28.856998 31.143 25.5 27.0 25.5 C 22.857 25.5 18.5 29.357 18.5 33.5 z " fill-opacity="0.3" stroke-opacity="0.3"/>
<linearGradient gradientTransform="matrix(-1 0 0 1 4370 0)" gradientUnits="userSpaceOnUse" x1="4343.5" x2="4343.5" y1="25.0444" y2="38.9122">
<stop offset="0" stop-color="#ff1c22"/>
<stop offset="0.2324" stop-color="#f01a20"/>
<stop offset="0.6788" stop-color="#c8161a"/>
<stop offset="1" stop-color="#a81216"/>
</linearGradient>
<path d="M 18.5 33.0 C 18.5 37.143 22.357 39.0 26.5 39.0 C 30.643 39.0 34.5 36.643 34.5 32.5 C 34.5 28.356998 31.143 25.0 27.0 25.0 C 22.857 25.0 18.5 28.857 18.5 33.0 z " fill="#e93939" fill-opacity="1"/>
<linearGradient gradientTransform="matrix(-1 0 0 1 4370 0)" gradientUnits="userSpaceOnUse" x1="4343.5713" x2="4343.5713" y1="26.022" y2="32.9559">
<stop offset="0" stop-color="#ffffff"/>
<stop offset="1" stop-color="#ffffff" stop-opacity="0"/>
</linearGradient>
<linearGradient gradientTransform="matrix(-1 0 0 1 4370 0)" gradientUnits="userSpaceOnUse" x1="4343.5" x2="4343.5" y1="30.957" y2="38.9492">
<stop offset="0" stop-color="#d3171c"/>
<stop offset="1" stop-color="#8c0f12"/>
</linearGradient>
<path d="M 52.068 34.137 C 56.951 34.137 62.0 31.069 62.0 25.932 C 62.0 19.435 58.268 16.0 51.205 16.0 C 46.07 16.0 43.0 21.05 43.0 25.932 C 43.0 30.763 46.729 34.137 52.068 34.137 L 52.068 34.137 z " fill-opacity="0.05" stroke-opacity="0.05"/>
<path d="M 52.068 33.704 C 56.738 33.704 61.568 30.797 61.568 25.932 C 61.568 19.717 57.984 16.432 51.205 16.432 C 46.340004 16.432 43.432003 21.262 43.432003 25.932 C 43.432 30.508 46.982 33.704 52.068 33.704 L 52.068 33.704 z " fill-opacity="0.1" stroke-opacity="0.1"/>
<path d="M 52.068 33.272 C 56.525 33.272 61.136 30.526 61.136 25.931 C 61.136 19.914 57.794003 16.863 51.204 16.863 C 46.608 16.863 43.862003 21.474 43.862003 25.931 C 43.863 30.254 47.238 33.272 52.068 33.272 L 52.068 33.272 z " fill-opacity="0.2" stroke-opacity="0.2"/>
<path d="M 44.295 25.59302 C 44.295 29.717512 47.775 32.23083 52.067997 32.23083 C 56.360996 32.23083 60.705 29.717514 60.705 25.59302 C 60.705 21.468529 58.976 17.296 51.205 17.296 C 46.912 17.296 44.295 21.46853 44.295 25.59302 z " fill-opacity="0.3" stroke-opacity="0.3"/>
<linearGradient gradientTransform="matrix(-1 0 0 1 4370 0)" gradientUnits="userSpaceOnUse" x1="4317.5" x2="4317.5" y1="16.9097" y2="31.4537">
<stop offset="0" stop-color="#9bd22d"/>
<stop offset="1" stop-color="#195b19"/>
</linearGradient>
<path d="M 44.295 25.5 C 44.295 29.793 47.775 31.546 52.067997 31.546 C 56.360996 31.546 60.705 29.793 60.705 25.5 C 60.705 21.207 58.976 16.863 51.205 16.863 C 46.912 16.863 44.295 21.207 44.295 25.5 z " fill="#7fb52e" fill-opacity="1"/>
<linearGradient gradientTransform="matrix(-1 0 0 1 4370 0)" gradientUnits="userSpaceOnUse" x1="4318.0996" x2="4318.0996" y1="17.6133" y2="24.5927">
<stop offset="0" stop-color="#ffffff"/>
<stop offset="1" stop-color="#ffffff" stop-opacity="0"/>
</linearGradient>
<linearGradient gradientTransform="matrix(-1 0 0 1 4370 0)" gradientUnits="userSpaceOnUse" x1="4317.5" x2="4317.5" y1="23.9233" y2="32.3557">
<stop offset="0" stop-color="#5b9823"/>
<stop offset="1" stop-color="#134213"/>
</linearGradient>
<defs>
<linearGradient id="linearGradient3873">
<stop offset="0" stop-color="#f7f7f7" stop-opacity="1"/>
<stop offset="1" stop-color="#f0f0f0" stop-opacity="1"/>
</linearGradient>
<linearGradient gradientUnits="userSpaceOnUse" id="SVGID_2_" x1="34.5" x2="34.5" y1="58.1299" y2="77.2948">
<stop offset="0" stop-color="#cccac6"/>
<stop offset="1" stop-color="#ffffff"/>
</linearGradient>
<linearGradient gradientUnits="userSpaceOnUse" id="linearGradient3879" x1="48.271187" x2="48.271187" y1="9.7627115" y2="87.887474">
<stop offset="0" stop-color="#f7f7f7" stop-opacity="1"/>
<stop offset="1" stop-color="#f0f0f0" stop-opacity="1"/>
</linearGradient>
</defs>
<defs>
<linearGradient gradientUnits="userSpaceOnUse" id="SVGID_3_" x1="47.9995" x2="47.9995" y1="8.2534" y2="87.4985">
<stop offset="0" stop-color="#ffffff"/>
<stop offset="1" stop-color="#ffffff" stop-opacity="0"/>
</linearGradient>
</defs>
</svg>
