<?xml version="1.0" encoding="UTF-8"?>
<svg xmlns="http://www.w3.org/2000/svg" xmlns:xlink="http://www.w3.org/1999/xlink" baseProfile="tiny" contentScriptType="text/ecmascript" contentStyleType="text/css" height="96px" preserveAspectRatio="xMidYMid meet" version="1.1" viewBox="0 0 96 96" width="96px" x="0px" y="0px" zoomAndPan="magnify">
<defs>
<linearGradient id="linearGradient3894">
<stop offset="0" stop-color="#efaf33" stop-opacity="1"/>
<stop offset="1" stop-color="#efa233" stop-opacity="1"/>
</linearGradient>
<linearGradient gradientTransform="matrix(0,1,-1,0,96,0)" gradientUnits="userSpaceOnUse" id="linearGradient3900" x1="8" x2="88" y1="48" y2="48">
<stop offset="0" stop-color="#efaf33" stop-opacity="1"/>
<stop offset="1" stop-color="#efa233" stop-opacity="1"/>
</linearGradient>
</defs>
<rect fill="none" height="96" width="96"/>
<path d="M 88.0 49.0 C 88.0 78.633 77.637 89.0 48.0 89.0 C 18.365 89.0 8.0 78.633 8.0 49.0 C 8.0 19.365 18.365 9.0 48.0 9.0 C 77.637 9.0 88.0 19.365 88.0 49.0 z " fill-opacity="0.4"/>
<linearGradient gradientUnits="userSpaceOnUse" x1="47.9995" x2="47.9995" y1="8" y2="88.0005">
<stop offset="0" stop-color="#fabf37"/>
<stop offset="1" stop-color="#de6f1d"/>
</linearGradient>
<path d="M 48.0 88.0 C 18.367 88.0 8.0 77.637 8.0 48.0 C 8.0 18.365 18.367 8.0 48.0 8.0 C 77.635 8.0 88.0 18.365 88.0 48.0 C 88.0 77.637 77.635 88.0 48.0 88.0 z " fill="url(#linearGradient3900)" fill-opacity="1"/>
<linearGradient gradientUnits="userSpaceOnUse" id="SVGID_2_" x1="47.9995" x2="47.9995" y1="8.2534" y2="87.4985">
<stop offset="0" stop-color="#ffffff"/>
<stop offset="1" stop-color="#ffffff" stop-opacity="0"/>
</linearGradient>
<path d="M 48.0 8.0 C 18.365 8.0 8.0 18.365 8.0 48.0 C 8.0 77.633 18.365 88.0 48.0 88.0 C 77.637 88.0 88.0 77.633 88.0 48.0 C 88.0 18.365 77.637 8.0 48.0 8.0 z M 48.0 87.0 C 18.842 87.0 9.0 77.158 9.0 48.0 C 9.0 18.842005 18.842 9.0 48.0 9.0 C 77.158005 9.0 87.0 18.842 87.0 48.0 C 87.0 77.158005 77.158 87.0 48.0 87.0 z " fill="url(#SVGID_2_)" fill-opacity="0.25" stroke-opacity="0.25"/>
<linearGradient gradientUnits="userSpaceOnUse" id="SVGID_3_" x1="34.8491" x2="61.3029" y1="21.9487" y2="74.3524">
<stop offset="0" stop-color="#a6a6a6"/>
<stop offset="0.26" stop-color="#f7f7f7"/>
<stop offset="0.74" stop-color="#f7f7f7"/>
<stop offset="1" stop-color="#878787"/>
</linearGradient>
<path d="M 32.447 26.105 C 32.201 26.598 32.0 27.45 32.0 28.0 L 32.0 68.0 C 32.0 68.55 32.201 69.402 32.447 69.895 L 34.5 74.0 L 61.5 74.0 L 63.553 69.895 C 63.799 69.402 64.0 68.55 64.0 68.0 L 64.0 28.0 C 64.0 27.45 63.799 26.598 63.553 26.105 L 61.5 22.0 L 34.5 22.0 L 32.447 26.105 z " fill="url(#SVGID_3_)"/>
<path d="M 34.5 80.0 C 32.975 80.0 31.604 79.153 30.924 77.79 L 28.869 73.684 C 28.342 72.628 28.0 71.182 28.0 70.0 L 28.0 30.0 C 28.0 28.818 28.342 27.372 28.869 26.316 L 30.922 22.211 C 31.605 20.847 32.977 20.0 34.5 20.0 L 61.5 20.0 C 63.025 20.0 64.395996 20.847 65.078 22.21 L 67.131004 26.315998 C 67.66 27.372 68.0 28.818 68.0 30.0 L 68.0 70.0 C 68.0 71.182 67.66 72.628 67.131 73.684 L 65.077995 77.789 C 64.395 79.153 63.023 80.0 61.5 80.0 L 34.5 80.0 z " fill-opacity="0.02"/>
<path d="M 34.5 79.0 C 33.357 79.0 32.328 78.365 31.818 77.343 L 29.763 73.237 C 29.307 72.322 29.0 71.022 29.0 70.0 L 29.0 30.0 C 29.0 28.978 29.307 27.678 29.764 26.764 L 31.817 22.659 C 32.33 21.635 33.357 21.0 34.5 21.0 L 61.5 21.0 C 62.645 21.0 63.672 21.635 64.182 22.657 L 66.237 26.763 C 66.693 27.678 67.0 28.978 67.0 30.0 L 67.0 70.0 C 67.0 71.022 66.693 72.322 66.236 73.236 L 64.183 77.341 C 63.672 78.365 62.645 79.0 61.5 79.0 L 34.5 79.0 z " fill-opacity="0.05"/>
<path d="M 34.5 78.0 C 33.738 78.0 33.053 77.577 32.713 76.896 L 30.658 72.79 C 30.271 72.014 30.0 70.867 30.0 70.0 L 30.0 30.0 C 30.0 29.133 30.271 27.986 30.658 27.211 L 32.711002 23.106 C 33.053 22.423 33.738 22.0 34.5 22.0 L 61.5 22.0 C 62.262 22.0 62.947 22.423 63.289 23.104 L 65.342 27.21 C 65.73 27.986 66.0 29.133 66.0 30.0 L 66.0 70.0 C 66.0 70.867 65.73 72.014 65.342 72.789 L 63.289 76.894005 C 62.947 77.577 62.262 78.0 61.5 78.0 L 34.5 78.0 z " fill-opacity="0.05"/>
<path d="M 34.5 77.0 C 34.121 77.0 33.775 76.786 33.605 76.447 L 31.552 72.342 C 31.238 71.711 31.0 70.705 31.0 70.0 L 31.0 30.0 C 31.0 29.295 31.238 28.289 31.553 27.658 L 33.606 23.553 C 33.775 23.214 34.121 23.0 34.5 23.0 L 61.5 23.0 C 61.879 23.0 62.225 23.214 62.395 23.553 L 64.448 27.658 C 64.764 28.289 65.0 29.295 65.0 30.0 L 65.0 70.0 C 65.0 70.705 64.764 71.711 64.447 72.342 L 62.393997 76.44701 C 62.225 76.786 61.879 77.0 61.5 77.0 L 34.5 77.0 z " fill-opacity="0.1"/>
<path d="M 32.447 28.105 C 32.201 28.598 32.0 29.45 32.0 30.0 L 32.0 70.0 C 32.0 70.55 32.201 71.402 32.447 71.895 L 34.5 76.0 L 61.5 76.0 L 63.553 71.895 C 63.799 71.402 64.0 70.55 64.0 70.0 L 64.0 30.0 C 64.0 29.45 63.799 28.598 63.553 28.105 L 61.5 24.0 L 34.5 24.0 L 32.447 28.105 z " fill-opacity="0.15"/>
<linearGradient gradientUnits="userSpaceOnUse" x1="34.8491" x2="61.3029" y1="21.9487" y2="74.3524">
<stop offset="0" stop-color="#cfcfcf"/>
<stop offset="0.26" stop-color="#f7f7f7"/>
<stop offset="0.74" stop-color="#f7f7f7"/>
<stop offset="1" stop-color="#878787"/>
</linearGradient>
<path d="M 32.0 28.0 L 32.0 68.0 C 32.0 70.192474 32.312283 74.0 34.5 74.0 L 61.5 74.0 C 63.689247 74.0 64.0 70.14552 64.0 68.0 L 64.0 28.0 C 64.0 25.807528 63.687717 22.0 61.5 22.0 L 34.5 22.0 C 32.310753 22.0 32.0 25.85448 32.0 28.0 z " fill="#ffffff" fill-opacity="1"/>
<linearGradient gradientTransform="matrix(0.97743013,0,0,1.3333333,1.0364152,-23.666667)" gradientUnits="userSpaceOnUse" x1="47.9995" x2="47.9995" y1="68" y2="71">
<stop offset="0" stop-color="#808184"/>
<stop offset="1" stop-color="#ffffff"/>
</linearGradient>
<linearGradient gradientUnits="userSpaceOnUse" x1="48.0005" x2="48.0005" y1="70.5" y2="68.5">
<stop offset="0" stop-color="#323233"/>
<stop offset="1" stop-color="#5a5b5c"/>
</linearGradient>
<linearGradient gradientUnits="userSpaceOnUse" x1="48.0005" x2="48.0005" y1="70.5" y2="68.5">
<stop offset="0" stop-color="#ffffff" stop-opacity="0"/>
<stop offset="1" stop-color="#ffffff"/>
</linearGradient>
<linearGradient gradientUnits="userSpaceOnUse" x1="48.0005" x2="48.0005" y1="73.9014" y2="21.8005">
<stop offset="0" stop-color="#ffffff" stop-opacity="0"/>
<stop offset="1" stop-color="#ffffff"/>
</linearGradient>
<linearGradient gradientUnits="userSpaceOnUse" x1="47.9995" x2="47.9995" y1="68.583" y2="74.0836">
<stop offset="0" stop-color="#000000" stop-opacity="0.06"/>
<stop offset="1" stop-color="#000000" stop-opacity="0.2"/>
</linearGradient>
<linearGradient gradientUnits="userSpaceOnUse" id="SVGID_10_" x1="48.0005" x2="48.0005" y1="29" y2="22">
<stop offset="0" stop-color="#fdfdfe" stop-opacity="0.06"/>
<stop offset="1" stop-color="#fdfdfe" stop-opacity="0.8"/>
</linearGradient>
<path d="M 63.553 26.105 L 61.5 22.0 L 34.5 22.0 L 32.447 26.105 C 32.201 26.598 32.0 27.45 32.0 28.0 L 32.0 29.0 C 32.0 28.45 32.201 27.598 32.447 27.105 L 34.5 23.0 L 61.5 23.0 L 63.553 27.105 C 63.799 27.598 64.0 28.45 64.0 29.0 L 64.0 28.0 C 64.0 27.45 63.799 26.598 63.553 26.105 z " fill="url(#SVGID_10_)"/>
<linearGradient gradientUnits="userSpaceOnUse" x1="47.9995" x2="47.9995" y1="10.7285" y2="50.8138">
<stop offset="0" stop-color="#c25100"/>
<stop offset="1" stop-color="#a82400"/>
</linearGradient>
<path d="M 62.0 63.0 C 62.0 64.65 60.65 66.0 59.0 66.0 L 37.0 66.0 C 35.35 66.0 34.0 64.65 34.0 63.0 L 34.0 29.0 C 34.0 27.35 35.35 26.0 37.0 26.0 L 59.0 26.0 C 60.65 26.0 62.0 27.35 62.0 29.0 L 62.0 63.0 z " fill="#b63b00" fill-opacity="1"/>
<linearGradient gradientUnits="userSpaceOnUse" x1="47.9995" x2="47.9995" y1="-15.5259" y2="73.031">
<stop offset="0" stop-color="#c25100"/>
<stop offset="1" stop-color="#a82400"/>
</linearGradient>
<linearGradient gradientUnits="userSpaceOnUse" x1="48.0005" x2="48.0005" y1="47" y2="27">
<stop offset="0" stop-color="#fdfdfe" stop-opacity="0.06"/>
<stop offset="0.1" stop-color="#fdfdfe" stop-opacity="0.06"/>
<stop offset="1" stop-color="#fdfdfe" stop-opacity="0.25"/>
</linearGradient>
<path d="M 52.0 55.0 C 46.486 55.0 42.0 50.514 42.0 45.0 L 42.0 36.0 C 42.0 30.486 46.486 26.0 52.0 26.0 L 73.758 26.0 L 76.879 22.879 C 77.445 22.313 78.199 22.0 79.0 22.0 C 79.398 22.0 79.787 22.077 80.154 22.23 C 81.273 22.693 82.0 23.781 82.0 25.0 L 82.0 45.0 C 82.0 50.514 77.514 55.0 72.0 55.0 L 52.0 55.0 z " fill-opacity="0.05"/>
<path d="M 52.0 54.0 C 47.037 54.0 43.0 49.963 43.0 45.0 L 43.0 36.0 C 43.0 31.037 47.037 27.0 52.0 27.0 L 74.172 27.0 L 77.586 23.586 C 77.965 23.208 78.465 23.0 79.0 23.0 C 79.266 23.0 79.525 23.052 79.768 23.153 C 80.514 23.462 81.0 24.187 81.0 25.0 L 81.0 45.0 C 81.0 49.963 76.963 54.0 72.0 54.0 L 52.0 54.0 z " fill-opacity="0.1"/>
<path d="M 52.0 53.0 C 47.59 53.0 44.0 49.411 44.0 45.0 L 44.0 36.0 C 44.0 31.589 47.59 28.0 52.0 28.0 L 74.586 28.0 L 78.293 24.293 C 78.484 24.102 78.74 24.0 79.0 24.0 C 79.129 24.0 79.26 24.024 79.383 24.076 C 79.758 24.23 80.0 24.596 80.0 25.0 L 80.0 45.0 C 80.0 49.411 76.412 53.0 72.0 53.0 L 52.0 53.0 z " fill-opacity="0.1"/>
<path d="M 75.0 29.0 L 52.0 29.0 C 48.15 29.0 45.0 32.15 45.0 36.0 L 45.0 45.0 C 45.0 48.85 48.15 52.0 52.0 52.0 L 72.0 52.0 C 75.85 52.0 79.0 48.85 79.0 45.0 L 79.0 25.0 L 75.0 29.0 z " fill-opacity="0.3"/>
<linearGradient gradientUnits="userSpaceOnUse" x1="62" x2="62" y1="26.3037" y2="49.4892">
<stop offset="0" stop-color="#fafcef"/>
<stop offset="0.3232" stop-color="#fafcef"/>
<stop offset="1" stop-color="#d0cbc5"/>
</linearGradient>
<path d="M 75.0 28.0 L 52.0 28.0 C 48.15 28.0 45.0 31.15 45.0 35.0 L 45.0 44.0 C 45.0 47.85 48.15 51.0 52.0 51.0 L 72.0 51.0 C 75.85 51.0 79.0 47.85 79.0 44.0 L 79.0 24.0 L 75.0 28.0 z " fill="#ffffff" fill-opacity="1"/>
<path d="M 75.0 28.0 L 52.0 28.0 C 48.15 28.0 45.0 31.15 45.0 35.0 L 45.0 36.0 C 45.0 32.15 48.15 29.0 52.0 29.0 L 75.0 29.0 L 79.0 25.0 L 79.0 24.0 L 75.0 28.0 z " fill="#ffffff"/>
<linearGradient gradientUnits="userSpaceOnUse" x1="62" x2="62" y1="32" y2="48">
<stop offset="0" stop-color="#ec8624"/>
<stop offset="1" stop-color="#bf5619"/>
</linearGradient>
<path d="M 62.0 44.0 C 60.896 44.0 60.0 44.896 60.0 46.0 C 60.0 47.104 60.896 48.0 62.0 48.0 C 63.105 48.0 64.0 47.104 64.0 46.0 C 64.0 44.896 63.105 44.0 62.0 44.0 z M 63.5 42.0 L 64.0 32.0 L 60.0 32.0 L 60.5 42.0 L 63.5 42.0 z " fill="#e3833a" fill-opacity="1"/>
<path d="M 46.596405 70.86183 C 46.22698 70.56332 46.05085 69.907326 46.05085 69.355934 C 46.05085 68.80454 46.227425 68.14855 46.59685 67.85004 C 47.412148 67.19123 48.69055 67.19123 49.50585 67.85004 C 49.875275 68.14855 50.05085 68.80454 50.05085 69.355934 C 50.05085 69.907326 49.87492 70.56333 49.505497 70.86183 C 48.6902 71.520645 47.4117 71.520645 46.596405 70.86183 z " fill="#cbcbcb" fill-opacity="1"/>
</svg>
