<?xml version="1.0" encoding="UTF-8"?>
<svg xmlns="http://www.w3.org/2000/svg" xmlns:xlink="http://www.w3.org/1999/xlink" baseProfile="tiny" contentScriptType="text/ecmascript" contentStyleType="text/css" height="96px" preserveAspectRatio="xMidYMid meet" version="1.1" viewBox="0 0 96 96" width="96px" x="0px" y="0px" zoomAndPan="magnify">
<defs>
<linearGradient id="linearGradient3828">
<stop offset="0" stop-color="#0087d9" stop-opacity="1"/>
<stop offset="1" stop-color="#0071da" stop-opacity="1"/>
</linearGradient>
<linearGradient gradientTransform="matrix(0,1,-1,0,96,0)" gradientUnits="userSpaceOnUse" id="linearGradient3834" x1="8" x2="88" y1="48" y2="48">
<stop offset="0" stop-color="#0087d9" stop-opacity="1"/>
<stop offset="1" stop-color="#0071da" stop-opacity="1"/>
</linearGradient>
</defs>
<path d="M 88.0 48.0 C 88.0 77.635 77.639 88.0 48.0 88.0 C 18.368 88.0 8.0 77.637 8.0 48.0 C 8.0 18.367 18.368 8.0 48.0 8.0 C 77.637 8.0 88.0 18.368 88.0 48.0 z " fill-opacity="0.4"/>
<linearGradient gradientTransform="matrix(1 0 0 -1 -2265.5977 -3556.3184)" gradientUnits="userSpaceOnUse" x1="2313.5967" x2="2313.5967" xlink:actuate="onLoad" xlink:show="other" xlink:type="simple" y1="-3563.9849" y2="-3643.9849">
<stop offset="0" stop-color="#0077cd"/>
<stop offset="1" stop-color="#003f9a"/>
</linearGradient>
<path d="M 48.0 88.0 C 18.365 88.0 8.0 77.639 8.0 48.0 C 8.0 18.368 18.363 8.0 48.0 8.0 C 77.633 8.0 88.0 18.368 88.0 48.0 C 88.0 77.637 77.632 88.0 48.0 88.0 z " fill="url(#linearGradient3834)" fill-opacity="1"/>
<linearGradient gradientTransform="matrix(1 0 0 -1 -2265.5977 -3556.3184)" gradientUnits="userSpaceOnUse" id="SVGID_8_" x1="2313.5967" x2="2313.5967" xlink:actuate="onLoad" xlink:show="other" xlink:type="simple" y1="-3564.5747" y2="-3643.8174">
<stop offset="0" stop-color="#ffffff"/>
<stop offset="1" stop-color="#ffffff" stop-opacity="0"/>
</linearGradient>
<path d="M 48.0 8.0 C 18.368 8.0 8.0 18.367 8.0 48.0 C 8.0 77.635 18.367 88.0 48.0 88.0 C 77.639 88.0 88.0 77.637 88.0 48.0 C 88.0 18.368 77.637 8.0 48.0 8.0 z M 48.0 87.0 C 18.842 87.0 9.0 77.158 9.0 47.999 C 9.0 18.841 18.842 8.999001 48.0 8.999001 C 77.16 8.999001 87.0 18.841 87.0 47.999 C 87.0 77.158 77.16 87.0 48.0 87.0 z " fill="url(#SVGID_8_)" fill-opacity="0.15"/>
<linearGradient gradientUnits="userSpaceOnUse" x1="25.5552" x2="78.8002" xlink:actuate="onLoad" xlink:show="other" xlink:type="simple" y1="13.2251" y2="66.4701">
<stop offset="0" stop-color="#0089f0"/>
<stop offset="0.1888" stop-color="#0081e7" stop-opacity="0.8112"/>
<stop offset="0.4967" stop-color="#006ccf" stop-opacity="0.5033"/>
<stop offset="0.8832" stop-color="#004aa7" stop-opacity="0.1168"/>
<stop offset="1" stop-color="#003f9a" stop-opacity="0"/>
</linearGradient>
<rect fill="none" height="96" width="96"/>
<path d="M 26.467 73.73 L 26.454 73.21001 C 26.349 73.143005 26.249 73.07001 26.151 72.989006 C 25.063 72.116005 24.606998 70.62701 25.014 69.284004 L 28.677 57.254005 L 18.447 48.908005 C 17.356 48.015003 16.916 46.509007 17.356 45.157005 C 17.81 43.759007 19.092 42.813004 20.546 42.801006 L 33.052002 42.680008 L 36.838 30.161009 C 37.262 28.753006 38.526 27.776009 39.98 27.734009 C 41.48 27.734009 42.762 28.615007 43.258 29.979008 L 47.81 42.564007 L 59.776997 42.488007 C 61.229996 42.488007 62.483 43.375008 62.978996 44.74601 C 63.469 46.060005 63.083996 47.57301 62.021996 48.51001 L 52.407997 57.071007 L 55.753 69.174 C 56.113 70.522 55.629997 71.989006 54.545 72.83 C 53.967 73.279 53.273 73.526 52.532 73.535 C 51.812996 73.535 51.168 73.341 50.598 72.949005 L 40.609 66.22301 C 40.609 66.22301 30.089 73.18101 30.085 73.18301 L 30.085 73.57901 L 28.758 73.73201 L 26.466002 73.73201 L 26.467 73.73 L 26.467 73.73 z " fill-opacity="0.05"/>
<path d="M 26.915 73.27 L 26.905 72.94299 C 26.742 72.856995 26.586 72.75299 26.437 72.632 C 25.496 71.876 25.102 70.586 25.454 69.42 L 29.208 57.093 L 18.74 48.552 C 17.794 47.778 17.414 46.469997 17.793 45.297997 C 18.189 44.087997 19.295 43.269997 20.549 43.261 L 33.392998 43.135 L 37.279 30.293 C 37.645 29.074 38.738 28.23 39.995 28.192 L 39.995 28.192 C 41.289997 28.192 42.397 28.956 42.827 30.135 L 47.488 43.023 L 59.78 42.948 C 61.032997 42.948 62.118 43.712997 62.544 44.898 C 62.969 46.041 62.636 47.349 61.718 48.156 L 51.889 56.908997 L 55.306 69.294 C 55.625 70.46 55.205 71.732 54.265 72.461 C 53.767 72.853 53.161 73.063 52.523 73.074 C 51.905 73.074 51.351 72.899994 50.858997 72.568 L 40.614 65.666 L 29.846998 72.788 C 29.777 72.836 29.703 72.880005 29.627 72.920006 L 29.627 73.16701 L 28.733 73.268005 L 26.916 73.268005 L 26.916 73.27 z " fill-opacity="0.05"/>
<path d="M 27.362 72.813 L 27.357 72.642006 C 27.131 72.55301 26.92 72.43101 26.722 72.27601 C 25.926 71.63601 25.593 70.54301 25.891 69.55401 L 29.735 56.93601 L 19.027 48.197006 C 18.228 47.543007 17.907 46.43401 18.229 45.444008 C 18.562 44.42201 19.494 43.731007 20.551 43.723007 L 33.735 43.59501 L 37.717 30.429008 C 38.027 29.40001 38.947 28.68801 40.006 28.65701 L 40.006 28.65701 C 41.097 28.65701 42.028 29.300009 42.393 30.29601 L 47.163 43.49001 L 59.780003 43.410007 C 60.834003 43.410007 61.749004 44.056007 62.111004 45.05901 C 62.46901 46.025005 62.187004 47.133007 61.409004 47.81601 L 51.36401 56.763004 L 54.860004 69.420006 C 55.129005 70.408005 54.772003 71.48601 53.980003 72.102005 C 53.559 72.42901 53.055004 72.607 52.515003 72.617004 C 51.994003 72.617004 51.526005 72.47301 51.118004 72.192 L 40.613003 65.118004 L 29.590004 72.409004 C 29.454004 72.499 29.311005 72.575005 29.164003 72.637 L 29.164003 72.761 L 28.704004 72.817 L 27.362 72.813 L 27.362 72.813 z " fill-opacity="0.05"/>
<path d="M 27.81 72.353 L 27.809 72.30299 C 27.521 72.23599 27.251 72.106 27.01 71.913994 C 26.36 71.39099 26.089 70.496 26.334 69.685 L 30.268 56.773 L 19.319 47.837 C 18.665 47.303 18.403 46.397 18.667 45.58 C 18.938 44.748997 19.696 44.185 20.556 44.182 L 34.079 44.049 L 38.157997 30.559 C 38.410995 29.72 39.159996 29.138 40.019997 29.114 L 40.019997 29.114 C 40.909996 29.114 41.665997 29.639 41.961 30.451 L 46.842 43.95 L 59.785 43.87 C 60.641 43.87 61.384 44.396 61.681 45.214 C 61.971 46.005 61.744 46.913 61.108 47.471 L 50.848 56.609 L 54.417 69.54 C 54.637 70.35 54.35 71.234 53.696 71.734 C 53.356 72.004 52.946 72.146 52.51 72.154 C 52.087 72.154 51.706997 72.041 51.379 71.812 L 40.615997 64.561 L 29.336 72.023994 C 29.141 72.15199 28.926 72.246 28.704 72.3 L 28.704 72.354 L 27.81 72.353 L 27.81 72.353 z " fill-opacity="0.05"/>
<path d="M 28.246 71.892 C 27.901 71.892 27.573 71.778 27.297 71.557 C 26.791 71.153 26.583 70.453 26.774 69.82 L 30.798 56.615 L 19.611 47.483 C 19.104 47.071 18.9 46.363 19.107 45.726997 C 19.316 45.083996 19.899 44.648 20.561 44.643 L 34.423 44.506996 L 38.601 30.693996 C 38.796 30.044996 39.372 29.594995 40.036003 29.575996 C 40.036003 29.575996 40.036003 29.575996 40.037003 29.575996 C 40.723003 29.575996 41.305004 29.990995 41.531 30.609997 L 46.522003 44.410995 L 59.79 44.328995 C 60.455 44.328995 61.02 44.738995 61.25 45.372993 C 61.478 45.984993 61.302 46.691994 60.809 47.122993 L 50.33 56.456 L 53.977 69.665 C 54.149 70.297005 53.921 70.981 53.415 71.377 C 53.15 71.58 52.837 71.69 52.501 71.694 L 52.5 71.694 C 52.179 71.694 51.887 71.60401 51.638 71.432 L 40.618 64.009 L 29.081 71.64101 C 28.831 71.80501 28.547 71.89101 28.255 71.89101 L 28.243002 71.43001 L 28.243002 71.89101 L 28.246 71.89101 z " fill-opacity="0.05"/>
<path d="M 60.504 46.777 L 49.811 56.3 L 53.535 69.785 C 53.657 70.241 53.501 70.73 53.138 71.01199 C 52.949 71.15699 52.721 71.232994 52.497 71.23699 C 52.287003 71.23899 52.076 71.17399 51.9 71.05399 L 40.623 63.45499 L 28.832 71.256 C 28.655 71.37299 28.457 71.43 28.258 71.43 C 28.024002 71.434 27.787 71.359 27.584002 71.197 C 27.223 70.907 27.076002 70.41 27.215002 69.952 L 31.326002 56.45499 L 19.900002 47.126995 C 19.538002 46.831997 19.394 46.325996 19.541002 45.868996 C 19.690002 45.413994 20.096004 45.10799 20.563002 45.103996 L 34.763 44.964996 L 39.038 30.824997 C 39.178 30.361998 39.58 30.047997 40.047 30.034996 L 40.068 30.034996 C 40.524 30.029997 40.936 30.324997 41.096 30.766996 L 46.196 44.873997 L 59.79 44.789997 C 60.245003 44.782997 60.651 45.08 60.815 45.525997 C 60.978 45.967 60.85 46.474 60.504 46.777 z " fill-opacity="0.05"/>
<path d="M 60.508 47.8 L 49.813 57.323 L 53.539 70.808 C 53.663 71.264 53.505 71.753 53.140003 72.035 C 52.951004 72.17899 52.727005 72.256 52.499004 72.26 C 52.291004 72.26199 52.08001 72.19699 51.902004 72.077 L 40.62801 64.478 L 28.836006 72.279 C 28.659006 72.395 28.461006 72.452 28.261003 72.452 C 28.027006 72.45699 27.791006 72.381 27.587006 72.218 C 27.227003 71.92999 27.079006 71.43099 27.218006 70.97399 L 31.330006 57.47699 L 19.905006 48.147987 C 19.543009 47.85399 19.399006 47.34799 19.546007 46.890987 C 19.693008 46.435986 20.100008 46.13099 20.568008 46.125988 L 34.76701 45.98599 L 39.042007 31.846989 C 39.183006 31.384989 39.585007 31.070988 40.05201 31.056988 L 40.07301 31.056988 C 40.528008 31.051989 40.94101 31.347988 41.100006 31.788988 L 46.200005 45.89499 L 59.794006 45.81099 C 60.24901 45.80399 60.655006 46.10199 60.818005 46.54899 C 60.979 46.989 60.854 47.496 60.508 47.8 z " fill-opacity="0.2"/>
<path d="M 74.09 30.61 L 68.42999 35.652 L 70.40099 42.788 C 70.468 43.029003 70.384995 43.288 70.19299 43.436 C 70.091 43.513 69.97299 43.554 69.85199 43.556 C 69.74099 43.558 69.62899 43.523 69.53899 43.461 L 63.566982 39.439 L 57.32699 43.568 C 57.23599 43.63 57.128983 43.657 57.022987 43.657 C 56.89499 43.659 56.773987 43.619003 56.66699 43.532 C 56.47699 43.379 56.396988 43.117 56.47299 42.874 L 58.64599 35.729 L 52.599987 30.791 C 52.407986 30.636 52.328987 30.366 52.40999 30.127 C 52.486988 29.886002 52.703987 29.723 52.95099 29.722 L 60.467987 29.649 L 62.731987 22.164 C 62.802982 21.919 63.015987 21.753 63.262985 21.747 L 63.277985 21.747 C 63.513985 21.743 63.733986 21.9 63.822983 22.134 L 66.51898 29.600998 L 73.71198 29.556995 C 73.95498 29.551998 74.16998 29.709995 74.25498 29.945995 C 74.339 30.179 74.273 30.448 74.09 30.61 z " fill-opacity="0.2"/>
<linearGradient gradientUnits="userSpaceOnUse" x1="39.167" x2="39.167" xlink:actuate="onLoad" xlink:show="other" xlink:type="simple" y1="71.4307" y2="30.0356">
<stop offset="0" stop-color="#d9941b"/>
<stop offset="1" stop-color="#facf4a"/>
</linearGradient>
<path d="M 59.486 46.777 L 48.79 56.301 L 52.516003 69.786 C 52.640003 70.242 52.483 70.730995 52.118004 71.01299 C 51.928005 71.15799 51.704 71.23399 51.47601 71.23799 C 51.269005 71.23999 51.057007 71.17499 50.879005 71.05499 L 39.605003 63.455994 L 27.813004 71.257 C 27.636003 71.37299 27.438004 71.431 27.238005 71.431 C 27.004004 71.435 26.768003 71.359 26.564005 71.196 C 26.204002 70.908 26.056004 70.409 26.195004 69.952 L 30.307005 56.45499 L 18.882004 47.126995 C 18.520004 46.831997 18.376003 46.325996 18.524004 45.869995 C 18.671003 45.414993 19.078005 45.106995 19.546003 45.104996 L 33.745003 44.964996 L 38.020004 30.824997 C 38.162003 30.361998 38.563004 30.047997 39.030003 30.034996 L 39.051003 30.034996 C 39.506004 30.029997 39.919003 30.324997 40.078003 30.766996 L 45.179 44.873997 L 58.773003 44.789997 C 59.227 44.782997 59.633003 45.08 59.797 45.526997 C 59.957 45.967 59.831 46.474 59.486 46.777 z " fill="#f4d84f" fill-opacity="1"/>
<path d="M 54.615 45.484 L 54.606003 44.545 C 53.544003 43.545 53.158005 42.124 53.550003 40.79 L 55.138004 35.583 L 50.674004 31.935 C 49.518005 30.994 49.047005 29.399 49.518005 27.971 C 49.997005 26.48 51.370007 25.471 52.94101 25.463 L 58.202007 25.413 L 59.815006 20.07 C 60.26701 18.571 61.616005 17.533 63.175007 17.487 C 63.175007 17.487 63.175007 17.487 63.176006 17.487 C 64.787 17.487 66.159004 18.43 66.68301 19.888 L 68.65101 25.33 L 73.70001 25.296 C 75.223015 25.296 76.59501 26.254 77.11701 27.681 C 77.63501 29.091 77.22501 30.697 76.10001 31.682 L 71.86901 35.448 L 73.34001 40.76 C 73.72801 42.208 73.22601 43.726 72.05501 44.629 C 71.434006 45.1 70.67701 45.365997 69.921005 45.381996 C 69.920006 45.381996 69.920006 45.381996 69.920006 45.381996 C 69.145004 45.381996 68.43001 45.171 67.83301 44.764996 L 63.551006 41.87899 L 59.45501 44.587994 L 59.45501 45.185993 L 57.73301 45.485992 L 54.615005 45.485992 L 54.615005 45.484 z " fill-opacity="0.05"/>
<path d="M 55.217 44.874 L 55.211 44.268 C 55.19 44.255 55.171 44.24 55.156 44.226 C 54.178 43.437 53.776997 42.157 54.132 40.961 L 55.842 35.365 L 51.057 31.459002 C 50.094 30.675 49.704 29.348 50.094 28.154 C 50.490997 26.914 51.636997 26.075 52.94 26.070002 L 58.652 26.014002 L 60.395 20.243002 C 60.772 18.994 61.892 18.131002 63.192 18.091002 C 63.192 18.091002 63.192 18.091002 63.193 18.091002 C 64.536 18.091002 65.671 18.877 66.107 20.091002 L 68.224 25.937002 L 73.699 25.904 C 74.963 25.904 76.105 26.701002 76.541 27.888 C 76.973 29.062 76.629 30.403 75.694 31.223 L 71.179 35.243 L 72.746 40.92 C 73.072 42.128 72.653 43.393 71.677 44.146 C 71.162 44.535 70.533005 44.759 69.901 44.773 L 69.901 44.773 C 69.264 44.773 68.668 44.594997 68.17301 44.259 L 63.553005 41.143997 C 60.484005 43.177 59.299004 43.957996 58.846004 44.259 L 58.846004 44.671 L 57.679005 44.874996 L 55.217 44.874 L 55.217 44.874 z " fill-opacity="0.05"/>
<path d="M 55.818 44.267 L 55.815 43.941 C 55.715004 43.884 55.623 43.818996 55.534004 43.747997 C 54.751003 43.117996 54.433 42.094997 54.720005 41.136 L 56.540005 35.153 L 51.444004 30.991 C 50.674004 30.363998 50.360004 29.3 50.674004 28.345 C 50.994003 27.355 51.905003 26.686 52.942005 26.679 L 59.104004 26.619 L 60.982 20.422 C 61.280003 19.426 62.17 18.734 63.208004 18.704 L 63.208004 18.704 C 64.284004 18.704 65.189 19.331 65.535 20.3 L 67.796005 26.551 L 73.702 26.513 C 74.711006 26.513 75.62 27.151 75.969 28.099 C 76.316 29.039 76.044 30.11 75.291 30.765 L 70.492004 35.04 L 72.162 41.083 C 72.420006 42.051 72.084 43.063 71.304 43.666 C 70.894 43.978 70.394 44.155 69.891 44.164 L 69.891 44.164 C 69.38 44.164 68.910995 44.024 68.513 43.756 L 63.557 40.415 C 63.557 40.415 58.271 43.914 58.234 43.933 L 58.234 44.162003 L 57.627003 44.268 L 55.820004 44.268 L 55.818 44.267 L 55.818 44.267 z " fill-opacity="0.05"/>
<path d="M 56.419 43.657 L 56.419 43.555 C 56.235 43.49 56.065 43.394 55.906 43.271 C 55.323997 42.797 55.086 42.03 55.301 41.309 L 57.243 34.941 L 51.828 30.517998 C 51.251 30.048998 51.016 29.248997 51.252 28.533998 C 51.490997 27.794 52.173 27.291998 52.945 27.288998 L 59.56 27.222998 L 61.562996 20.595997 C 61.785995 19.851995 62.456997 19.334995 63.226997 19.313995 C 63.226997 19.313995 63.226997 19.313995 63.227997 19.313995 C 64.02599 19.313995 64.703995 19.781998 64.961 20.504995 L 67.367 27.161997 L 73.704994 27.120996 C 74.45899 27.120996 75.14099 27.598995 75.398994 28.308996 C 75.66 29.011995 75.454 29.814997 74.895 30.306995 L 69.806 34.835995 L 71.574 41.244995 C 71.768 41.972996 71.517 42.729996 70.936 43.181995 C 70.631 43.413994 70.253 43.546997 69.876 43.555996 C 69.876 43.555996 69.876 43.555996 69.875 43.555996 C 69.495 43.555996 69.151 43.450996 68.857 43.249996 L 63.558 39.680996 L 58.0 43.363 C 57.886 43.439 57.761 43.503 57.628 43.55 L 57.628 43.656 L 56.419 43.657 L 56.419 43.657 z " fill-opacity="0.05"/>
<path d="M 57.019 43.049 C 56.751 43.049 56.498 42.959 56.285 42.793 C 55.899 42.479 55.741 41.968 55.883 41.482 L 57.946 34.726 L 52.215 30.046995 C 51.831 29.733995 51.675 29.199997 51.833 28.720997 C 51.991 28.230995 52.437 27.899998 52.949 27.894997 L 60.013 27.825996 L 62.146 20.770996 C 62.298 20.276997 62.738 19.934996 63.249 19.919996 L 63.251 19.919996 C 63.777 19.919996 64.223 20.236996 64.395996 20.710997 L 66.948 27.771996 L 73.711 27.729996 C 74.214 27.729996 74.657 28.048996 74.828995 28.519997 C 75.007 28.987995 74.87 29.521996 74.496994 29.848995 L 69.12 34.633995 L 70.994 41.407997 C 71.12499 41.892 70.961 42.399 70.564995 42.699997 C 70.365 42.854996 70.118 42.941 69.87 42.945995 L 69.87 42.945995 C 69.621994 42.945995 69.392 42.876995 69.198 42.747993 L 63.565 38.950993 L 57.662 42.85699 C 57.481 42.98199 57.26 43.04999 57.025 43.04999 L 57.020996 42.43999 L 57.020996 43.049 L 57.019 43.049 z " fill-opacity="0.05"/>
<path d="M 74.09 29.393 L 68.42999 34.435 L 70.40099 41.572 C 70.468 41.812 70.384995 42.071 70.19299 42.219997 C 70.091 42.297997 69.97299 42.337997 69.85199 42.339996 C 69.74099 42.340996 69.62899 42.305996 69.53899 42.243996 L 63.566982 38.21899 L 57.32699 42.347996 C 57.23599 42.411995 57.128983 42.44099 57.022987 42.44099 C 56.89499 42.441994 56.773987 42.401993 56.66699 42.31599 C 56.47699 42.16299 56.396988 41.900993 56.47299 41.657993 L 58.64599 34.512993 L 52.599987 29.574991 C 52.407986 29.419992 52.328987 29.149994 52.40999 28.910994 C 52.486988 28.669994 52.703987 28.506994 52.95099 28.505993 L 60.467987 28.432993 L 62.731987 20.947992 C 62.802982 20.702991 63.015987 20.536991 63.262985 20.530993 L 63.277985 20.530993 C 63.513985 20.526993 63.733986 20.683992 63.822983 20.917992 L 66.51898 28.38499 L 73.71198 28.34099 C 73.95498 28.33799 74.16998 28.49399 74.25498 28.72999 C 74.339 28.961 74.273 29.231 74.09 29.393 z " fill-opacity="0.05"/>
<linearGradient gradientTransform="matrix(1 0 0 -1 -902.7012 -618.7988)" gradientUnits="userSpaceOnUse" x1="966.0352" x2="966.0352" xlink:actuate="onLoad" xlink:show="other" xlink:type="simple" y1="-661.2393" y2="-639.3291">
<stop offset="0" stop-color="#d9941b"/>
<stop offset="1" stop-color="#facf4a"/>
</linearGradient>
<path d="M 74.09 29.393 L 68.42999 34.435 L 70.40099 41.572 C 70.468 41.812 70.384995 42.071 70.19299 42.219997 C 70.091 42.297997 69.97299 42.337997 69.85199 42.339996 C 69.74099 42.340996 69.62899 42.305996 69.53899 42.243996 L 63.566982 38.21899 L 57.32699 42.347996 C 57.23599 42.411995 57.128983 42.44099 57.022987 42.44099 C 56.89499 42.441994 56.773987 42.401993 56.66699 42.31599 C 56.47699 42.16299 56.396988 41.900993 56.47299 41.657993 L 58.64599 34.512993 L 52.599987 29.574991 C 52.407986 29.419992 52.328987 29.149994 52.40999 28.910994 C 52.486988 28.669994 52.703987 28.506994 52.95099 28.505993 L 60.467987 28.432993 L 62.731987 20.947992 C 62.802982 20.702991 63.015987 20.536991 63.262985 20.530993 L 63.277985 20.530993 C 63.513985 20.526993 63.733986 20.683992 63.822983 20.917992 L 66.51898 28.38499 L 73.71198 28.34099 C 73.95498 28.33799 74.16998 28.49399 74.25498 28.72999 C 74.339 28.961 74.273 29.231 74.09 29.393 z " fill="#f4d84f" fill-opacity="1"/>
</svg>
