<?xml version="1.0" encoding="UTF-8"?>
<svg xmlns="http://www.w3.org/2000/svg" xmlns:xlink="http://www.w3.org/1999/xlink" baseProfile="tiny" contentScriptType="text/ecmascript" contentStyleType="text/css" height="96px" preserveAspectRatio="xMidYMid meet" version="1.1" viewBox="0 0 96 96" width="96px" x="0px" y="0px" zoomAndPan="magnify">
<defs>
<linearGradient>
<stop offset="0" stop-color="#878787" stop-opacity="1"/>
<stop offset="1" stop-color="#7b7b7b" stop-opacity="1"/>
</linearGradient>
<linearGradient>
<stop offset="0" stop-color="#d5f6ff" stop-opacity="1"/>
<stop offset="1" stop-color="#0088aa" stop-opacity="1"/>
</linearGradient>
<linearGradient gradientTransform="matrix(1.0515857,0,0,1.01708,-253.45339,-715.60427)" gradientUnits="userSpaceOnUse" x1="254.83009" x2="358.8096" y1="763.97272" y2="763.97272">
<stop offset="0" stop-color="#f7f8f9"/>
<stop offset="1" stop-color="#d0d1d2"/>
</linearGradient>
<linearGradient gradientTransform="matrix(0.7261569,0,0,0.74770351,-174.61605,-527.27145)" gradientUnits="userSpaceOnUse" x1="254.83009" x2="358.8096" y1="763.97272" y2="763.97272">
<stop offset="0" stop-color="#f7f8f9"/>
<stop offset="1" stop-color="#d0d1d2"/>
</linearGradient>
<linearGradient gradientTransform="matrix(1,0,0,-1,-1.3115644,98.868328)" gradientUnits="userSpaceOnUse" x1="61.075901" x2="34.694302" y1="57.299801" y2="41.540901">
<stop offset="0" stop-color="#ffffff"/>
<stop offset="1" stop-color="#ffffff" stop-opacity="0.2"/>
</linearGradient>
<linearGradient gradientTransform="matrix(1,0,0,-1,1.0534719,96.841079)" gradientUnits="userSpaceOnUse" x1="61.075901" x2="34.694302" y1="57.299801" y2="41.540901">
<stop offset="0" stop-color="#ffffff"/>
<stop offset="1" stop-color="#ffffff" stop-opacity="0.2"/>
</linearGradient>
<linearGradient gradientTransform="matrix(1,0,0,-1,-2.4150126,95.9258)" gradientUnits="userSpaceOnUse" x1="34.720501" x2="60.039902" y1="56.8027" y2="41.976002">
<stop offset="0" stop-color="#ffffff"/>
<stop offset="1" stop-color="#ffffff" stop-opacity="0.2"/>
</linearGradient>
<linearGradient gradientTransform="matrix(1,0,0,-1,-2.5350845,97.20939)" gradientUnits="userSpaceOnUse" x1="34.720501" x2="60.039902" y1="56.8027" y2="41.976002">
<stop offset="0" stop-color="#ffffff"/>
<stop offset="1" stop-color="#ffffff" stop-opacity="0.2"/>
</linearGradient>
<linearGradient gradientTransform="matrix(1,0,0,-1,0.1597,95.9258)" gradientUnits="userSpaceOnUse" x1="63.148201" x2="61.403599" y1="26.3545" y2="22.778099">
<stop offset="0" stop-color="#ffffff"/>
<stop offset="1" stop-color="#a3a3a3"/>
</linearGradient>
<linearGradient gradientTransform="matrix(1,0,0,-1,0.1597,95.9258)" gradientUnits="userSpaceOnUse" x1="63.148201" x2="61.403599" y1="26.3545" y2="22.778099">
<stop offset="0" stop-color="#ffffff"/>
<stop offset="1" stop-color="#a3a3a3"/>
</linearGradient>
<linearGradient gradientTransform="matrix(1,0,0,-1,0.1597,95.9258)" gradientUnits="userSpaceOnUse" x1="62.543701" x2="64.113503" y1="40.8223" y2="37.072102">
<stop offset="0" stop-color="#ffffff"/>
<stop offset="1" stop-color="#a3a3a3"/>
</linearGradient>
<linearGradient gradientTransform="matrix(1,0,0,-1,0.1597,95.9258)" gradientUnits="userSpaceOnUse" x1="62.543701" x2="64.113503" y1="40.8223" y2="37.072102">
<stop offset="0" stop-color="#ffffff"/>
<stop offset="1" stop-color="#a3a3a3"/>
</linearGradient>
<linearGradient gradientTransform="matrix(1,0,0,-1,0.1597,95.9258)" gradientUnits="userSpaceOnUse" x1="45.003201" x2="45.003201" y1="40.209" y2="23.3596">
<stop offset="0" stop-color="#c2de91"/>
<stop offset="1" stop-color="#7b9e56"/>
</linearGradient>
<linearGradient gradientTransform="matrix(1,0,0,-1,0.1597,95.9258)" gradientUnits="userSpaceOnUse" x1="45.003201" x2="45.003201" y1="40.209" y2="23.3596">
<stop offset="0" stop-color="#c2de91"/>
<stop offset="1" stop-color="#7b9e56"/>
</linearGradient>
<linearGradient gradientTransform="matrix(1,0,0,-1,0.1597,95.9258)" gradientUnits="userSpaceOnUse" x1="45.003201" x2="45.003201" y1="40.209" y2="23.3596">
<stop offset="0" stop-color="#c2de91"/>
<stop offset="1" stop-color="#7b9e56"/>
</linearGradient>
<linearGradient gradientTransform="matrix(1,0,0,-1,0.1597,95.9258)" gradientUnits="userSpaceOnUse" x1="45.003201" x2="45.003201" y1="40.209" y2="23.3596">
<stop offset="0" stop-color="#c2de91"/>
<stop offset="1" stop-color="#7b9e56"/>
</linearGradient>
<linearGradient gradientTransform="matrix(1,0,0,-1,0.1597,95.9258)" gradientUnits="userSpaceOnUse" x1="45.003201" x2="45.003201" y1="40.209" y2="23.3596">
<stop offset="0" stop-color="#c2de91"/>
<stop offset="1" stop-color="#7b9e56"/>
</linearGradient>
<linearGradient gradientTransform="matrix(1,0,0,-1,0.1597,95.9258)" gradientUnits="userSpaceOnUse" x1="45.003201" x2="45.003201" y1="40.209" y2="23.3596">
<stop offset="0" stop-color="#c2de91"/>
<stop offset="1" stop-color="#7b9e56"/>
</linearGradient>
<linearGradient gradientTransform="matrix(1,0,0,-1,8.6194701,63.557984)" gradientUnits="userSpaceOnUse" x1="82.677498" x2="82.677498" y1="37.415001" y2="54.1577">
<stop offset="0" stop-color="#ffffff" stop-opacity="0.3"/>
<stop offset="1" stop-color="#ffffff"/>
</linearGradient>
<linearGradient gradientTransform="matrix(1,0,0,-1,-53.620329,92.86676)" gradientUnits="userSpaceOnUse" x1="82.677498" x2="82.677498" y1="37.415001" y2="54.1577">
<stop offset="0" stop-color="#ffffff" stop-opacity="0.3"/>
<stop offset="1" stop-color="#ffffff"/>
</linearGradient>
<linearGradient gradientTransform="matrix(1,0,0,-1,8.6194701,63.557984)" gradientUnits="userSpaceOnUse" x1="82.677498" x2="82.677498" y1="37.415001" y2="54.1577">
<stop offset="0" stop-color="#ffffff" stop-opacity="0.3"/>
<stop offset="1" stop-color="#ffffff"/>
</linearGradient>
<linearGradient gradientTransform="matrix(1,0,0,-1,-15.367455,78.154116)" gradientUnits="userSpaceOnUse" x1="82.677498" x2="82.677498" y1="37.415001" y2="54.1577">
<stop offset="0" stop-color="#ffffff" stop-opacity="0.3"/>
<stop offset="1" stop-color="#ffffff"/>
</linearGradient>
<linearGradient gradientTransform="matrix(1,0,0,-1,8.6194701,63.557984)" gradientUnits="userSpaceOnUse" x1="82.677498" x2="82.677498" y1="37.415001" y2="54.1577">
<stop offset="0" stop-color="#ffffff" stop-opacity="0.3"/>
<stop offset="1" stop-color="#ffffff"/>
</linearGradient>
<linearGradient gradientTransform="matrix(1,0,0,-1,-18.309984,107.94722)" gradientUnits="userSpaceOnUse" x1="82.677498" x2="82.677498" y1="37.415001" y2="54.1577">
<stop offset="0" stop-color="#ffffff" stop-opacity="0.3"/>
<stop offset="1" stop-color="#ffffff"/>
</linearGradient>
<linearGradient gradientTransform="matrix(1,0,0,1.0147106,0,-1.118872)" gradientUnits="userSpaceOnUse" x1="25.749846" x2="83.267105" y1="23.186441" y2="82.169495">
<stop offset="0" stop-color="#d5f6ff" stop-opacity="1"/>
<stop offset="1" stop-color="#0088aa" stop-opacity="1"/>
</linearGradient>
<linearGradient gradientTransform="matrix(1,0,0,-1,-111.07647,38.974359)" gradientUnits="userSpaceOnUse" x1="167.8877" x2="206.12601" y1="-45.7896" y2="-7.5511999">
<stop offset="0" stop-color="#ffffff"/>
<stop offset="1" stop-color="#e6e6e6"/>
</linearGradient>
<linearGradient gradientTransform="matrix(0.7653472,0,0,-0.76412837,-94.891385,27.599019)" gradientUnits="userSpaceOnUse" x1="167.8877" x2="206.12601" y1="-45.7896" y2="-7.5511999">
<stop offset="0" stop-color="#ffffff"/>
<stop offset="1" stop-color="#e6e6e6"/>
</linearGradient>
<linearGradient gradientTransform="matrix(0,1,-1,0,96,0)" gradientUnits="userSpaceOnUse" id="linearGradient3988" x1="8" x2="88" y1="48" y2="48">
<stop offset="0" stop-color="#878787" stop-opacity="1"/>
<stop offset="1" stop-color="#7b7b7b" stop-opacity="1"/>
</linearGradient>
</defs>
<path d="M 88.0 49.0 C 88.0 78.633 77.637 89.0 48.0 89.0 C 18.365 89.0 8.0 78.633 8.0 49.0 C 8.0 19.365 18.365 9.0 48.0 9.0 C 77.637 9.0 88.0 19.365 88.0 49.0 z " fill-opacity="0.4"/>
<linearGradient gradientUnits="userSpaceOnUse" x1="47.9995" x2="47.9995" y1="8" y2="88.0005">
<stop offset="0" stop-color="#00aad4" stop-opacity="1"/>
<stop offset="1" stop-color="#2ad4ff" stop-opacity="1"/>
</linearGradient>
<path d="M 48.0 88.0 C 18.367 88.0 8.0 77.637 8.0 48.0 C 8.0 18.365 18.367 8.0 48.0 8.0 C 77.635 8.0 88.0 18.365 88.0 48.0 C 88.0 77.637 77.635 88.0 48.0 88.0 z " fill="url(#linearGradient3988)" fill-opacity="1"/>
<rect fill="none" height="96" width="96"/>
<linearGradient gradientUnits="userSpaceOnUse" id="SVGID_2_" x1="47.9995" x2="47.9995" y1="8.2534" y2="87.4985">
<stop offset="0" stop-color="#ffffff"/>
<stop offset="1" stop-color="#ffffff" stop-opacity="0"/>
</linearGradient>
<path d="M 48.0 8.0 C 18.365 8.0 8.0 18.365 8.0 48.0 C 8.0 77.633 18.365 88.0 48.0 88.0 C 77.637 88.0 88.0 77.633 88.0 48.0 C 88.0 18.365 77.637 8.0 48.0 8.0 z M 48.0 87.0 C 18.842 87.0 9.0 77.158 9.0 48.0 C 9.0 18.842005 18.842 9.0 48.0 9.0 C 77.158005 9.0 87.0 18.842 87.0 48.0 C 87.0 77.158005 77.158 87.0 48.0 87.0 z " fill="url(#SVGID_2_)" fill-opacity="0.25" stroke-opacity="0.25"/>
<linearGradient gradientTransform="matrix(0.7071 -0.7071 0.7071 0.7071 -208.9813 3059.7412)" gradientUnits="userSpaceOnUse" x1="2309.3584" x2="2344.3584" y1="-1947.9287" y2="-1947.9287">
<stop offset="0" stop-color="#58595b"/>
<stop offset="1" stop-color="#000000"/>
</linearGradient>
<linearGradient gradientTransform="matrix(0.7071 -0.7071 0.7071 0.7071 -208.9813 3059.7412)" gradientUnits="userSpaceOnUse" x1="2309.3584" x2="2313.3604" y1="-1957.9277" y2="-1957.9277">
<stop offset="0" stop-color="#58595b"/>
<stop offset="1" stop-color="#000000"/>
</linearGradient>
<linearGradient gradientUnits="userSpaceOnUse" x1="54.292" x2="59.292" y1="10.3501" y2="38.934">
<stop offset="0" stop-color="#58595b"/>
<stop offset="1" stop-color="#000000"/>
</linearGradient>
<linearGradient gradientUnits="userSpaceOnUse" x1="32.5508" x2="42.1758" y1="12.6343" y2="45.1342">
<stop offset="0" stop-color="#58595b"/>
<stop offset="1" stop-color="#000000"/>
</linearGradient>
<linearGradient gradientUnits="userSpaceOnUse" x1="57.1484" x2="60.063" y1="35.2275" y2="38.1421">
<stop offset="0" stop-color="#ffffff"/>
<stop offset="0.7362" stop-color="#ffffff" stop-opacity="0"/>
<stop offset="1" stop-color="#ffffff" stop-opacity="0"/>
</linearGradient>
<linearGradient gradientUnits="userSpaceOnUse" x1="44.6177" x2="38.0733" y1="37.2412" y2="43.7856">
<stop offset="0" stop-color="#ffffff"/>
<stop offset="0.7362" stop-color="#ffffff" stop-opacity="0"/>
<stop offset="1" stop-color="#ffffff" stop-opacity="0"/>
</linearGradient>
<linearGradient gradientUnits="userSpaceOnUse" x1="47.9995" x2="47.9995" y1="45.5" y2="53.8766">
<stop offset="0" stop-color="#ffffff"/>
<stop offset="1" stop-color="#6d6e70"/>
</linearGradient>
<g stroke="#c5c5c5" stroke-dasharray="1.00019803999999990, 3.00059413000000010" stroke-dashoffset="0" stroke-miterlimit="4" stroke-opacity="1" stroke-width="1.00019803999999990" transform="matrix(2.2020439,0,0,1.8946926,0.43625143,7.0202393)">
<rect fill="#545454" fill-opacity="1" fill-rule="nonzero" height="19.462763" stroke="#c5c5c5" stroke-dasharray="1.00019803999999990, 3.00059413000000010" stroke-dashoffset="0" stroke-linecap="round" stroke-linejoin="round" stroke-miterlimit="4" stroke-opacity="1" stroke-width="1.00019803999999990" width="25.928581" x="8.5536013" y="11.590492"/>
</g>
<path color="#000000" d="M 26.738228 37.919415 L 26.738228 53.785297 L 28.831764 53.785297 L 28.831764 46.743404 L 31.27134 46.743404 C 31.81202 46.743412 32.19266 46.762154 32.43057 46.812614 C 32.754974 46.891914 33.06857 47.043312 33.382175 47.245163 C 33.695763 47.447025 34.058384 47.795948 34.4549 48.300583 C 34.851395 48.80523 35.34738 49.52903 35.960167 50.48063 L 38.071003 53.7853 L 40.7009 53.7853 L 37.94989 49.459816 C 37.40198 48.616352 36.81516 47.9113 36.202393 47.34898 C 35.914013 47.08946 35.49445 46.83714 34.93935 46.570393 C 36.46047 46.361336 37.58509 45.871113 38.31323 45.099728 C 39.04134 44.328358 39.403233 43.369545 39.40325 42.244907 C 39.403236 41.372612 39.185524 40.578167 38.745773 39.85724 C 38.306007 39.136337 37.716293 38.63675 36.980976 38.35197 C 36.24563 38.067226 35.175797 37.919437 33.762814 37.919422 L 26.738224 37.919422 z M 28.831764 39.68423 L 33.849327 39.68423 C 35.02441 39.684242 35.88301 39.927914 36.42732 40.41091 C 36.971596 40.89394 37.240494 41.495182 37.24051 42.24492 C 37.240494 42.75678 37.106407 43.24484 36.82526 43.68098 C 36.54409 44.11714 36.137493 44.43435 35.596825 44.632587 C 35.05612 44.83085 34.30638 44.92673 33.347572 44.926723 L 28.831764 44.926723 L 28.831764 39.684235 z " display="inline" fill="#ffffff" fill-opacity="1" fill-rule="nonzero" stroke="none" visibility="visible"/>
<path color="#000000" d="M 42.70792 37.919415 L 42.70792 53.785297 L 44.801456 53.785297 L 44.801456 47.331673 L 48.867416 47.331673 C 51.10945 47.33168 52.66374 46.863808 53.521637 45.930218 C 54.37951 44.99664 54.80196 43.852554 54.80198 42.504433 C 54.80196 41.718647 54.638317 40.997734 54.317524 40.34169 C 53.996704 39.685673 53.580738 39.183197 53.05448 38.81912 C 52.528202 38.45507 51.877937 38.204914 51.09936 38.075134 C 50.544247 37.97422 49.72961 37.91943 48.67709 37.91942 L 42.707916 37.91942 z M 44.80145 39.80533 L 48.850105 39.80533 C 49.8017 39.80534 50.469265 39.850037 50.822525 39.943745 C 51.370407 40.09515 51.802242 40.405865 52.137474 40.878048 C 52.47269 41.350258 52.63922 41.910408 52.639233 42.573635 C 52.63922 43.48921 52.360943 44.197144 51.791435 44.70178 C 51.2219 45.206425 50.25732 45.46307 48.90201 45.463062 L 44.801453 45.463062 L 44.801453 39.80533 z " display="inline" fill="#ffffff" fill-opacity="1" fill-rule="nonzero" stroke="none" visibility="visible"/>
<path color="#000000" d="M 61.342117 40.73964 L 61.342117 45.047825 L 57.016632 45.047825 L 57.016632 46.86453 L 61.342117 46.86453 L 61.342117 51.224617 L 63.17612 51.224617 L 63.17612 46.86453 L 67.48431 46.86453 L 67.48431 45.047825 L 63.17612 45.047825 L 63.17612 40.73964 L 61.342117 40.73964 z " display="inline" fill="#ffffff" fill-opacity="1" fill-rule="nonzero" stroke="none" visibility="visible"/>
</svg>
