<?xml version="1.0" encoding="UTF-8"?>
<svg xmlns="http://www.w3.org/2000/svg" xmlns:xlink="http://www.w3.org/1999/xlink" baseProfile="tiny" contentScriptType="text/ecmascript" contentStyleType="text/css" height="96px" preserveAspectRatio="xMidYMid meet" version="1.1" viewBox="0 0 96 96" width="96px" x="0px" y="0px" zoomAndPan="magnify">
<defs>
<linearGradient id="linearGradient3848">
<stop offset="0" stop-color="#f5cd3c" stop-opacity="1"/>
<stop offset="1" stop-color="#f5b93c" stop-opacity="1"/>
</linearGradient>
<linearGradient gradientTransform="matrix(0,1,-1,0,96,0)" gradientUnits="userSpaceOnUse" id="linearGradient3854" x1="8" x2="88" y1="48" y2="48">
<stop offset="0" stop-color="#f5cd3c" stop-opacity="1"/>
<stop offset="1" stop-color="#f5b93c" stop-opacity="1"/>
</linearGradient>
</defs>
<path d="M 88.0 49.0 C 88.0 78.633 77.637 89.0 48.0 89.0 C 18.365 89.0 8.0 78.633 8.0 49.0 C 8.0 19.365 18.365 9.0 48.0 9.0 C 77.637 9.0 88.0 19.365 88.0 49.0 z " fill-opacity="0.4"/>
<linearGradient gradientUnits="userSpaceOnUse" x1="47.9995" x2="47.9995" y1="8" y2="88.0005">
<stop offset="0" stop-color="#f9d641"/>
<stop offset="1" stop-color="#d68612"/>
</linearGradient>
<path d="M 48.0 88.0 C 18.367 88.0 8.0 77.637 8.0 48.0 C 8.0 18.365 18.367 8.0 48.0 8.0 C 77.635 8.0 88.0 18.365 88.0 48.0 C 88.0 77.637 77.635 88.0 48.0 88.0 z " fill="url(#linearGradient3854)" fill-opacity="1"/>
<path d="M 32.0 33.0 C 29.242 33.0 27.0 30.757 27.0 28.0 L 27.0 27.0 C 27.0 26.748 27.023 26.491 27.072 26.235 C 27.645 23.381 30.662 18.0 38.0 18.0 L 39.734 18.0 L 40.017 17.527 C 40.006 17.353 40.0 17.178 40.0 17.0 C 40.0 12.589001 43.588 9.0 48.0 9.0 C 52.41 9.0 56.0 12.589 56.0 17.0 C 56.0 17.178 55.994 17.353 55.98 17.527 L 56.266 18.0 L 58.0 18.0 C 65.34 18.0 68.35401 23.374 68.922 26.215 C 68.973 26.481 69.0 26.744 69.0 27.0 L 69.0 28.0 C 69.0 30.757 66.756 33.0 64.0 33.0 L 32.0 33.0 z " fill="#1a0900" fill-opacity="0.02"/>
<path d="M 32.0 32.0 C 29.793 32.0 28.0 30.206 28.0 28.0 L 28.0 27.0 C 28.0 26.808 28.02 26.612 28.055 26.423 C 28.57 23.85 31.309 19.0 38.0 19.0 L 40.301 19.0 L 41.045 17.761 C 41.014 17.508 41.0 17.257 41.0 17.0 C 41.0 13.141 44.141 10.0 48.0 10.0 C 51.859 10.0 55.0 13.141 55.0 17.0 C 55.0 17.257 54.984 17.508 54.955 17.761 L 55.699 19.0 L 58.0 19.0 C 64.691 19.0 67.428 23.848 67.941 26.411 C 67.98 26.611 68.0 26.808 68.0 27.0 L 68.0 28.0 C 68.0 30.206 66.205 32.0 64.0 32.0 L 32.0 32.0 z " fill="#1a0900" fill-opacity="0.05"/>
<path d="M 32.0 31.0 C 30.346 31.0 29.0 29.654 29.0 28.0 L 29.0 27.0 C 29.0 26.87 29.014 26.738 29.037 26.61 C 29.496 24.322 31.957 20.0 38.0 20.0 L 40.867 20.0 L 42.086 17.969 C 42.027 17.645 42.0 17.324 42.0 17.0 C 42.0 13.691 44.691 11.0 48.0 11.0 C 51.309 11.0 54.0 13.691 54.0 17.0 C 54.0 17.324 53.971 17.645 53.914 17.969 L 55.133 20.0 L 58.0 20.0 C 64.043 20.0 66.504 24.322 66.961 26.607 C 66.986 26.738 67.0 26.87 67.0 27.0 L 67.0 28.0 C 67.0 29.654 65.654 31.0 64.0 31.0 L 32.0 31.0 z " fill="#1a0900" fill-opacity="0.05"/>
<path d="M 32.0 30.0 C 30.896 30.0 30.0 29.103 30.0 28.0 L 30.0 27.0 C 30.0 26.935 30.006 26.868 30.02 26.804 C 30.42 24.797 32.605 21.0 38.0 21.0 L 41.434 21.0 L 43.147 18.146 C 43.047 17.754 43.0 17.376 43.0 17.0 C 43.0 14.243 45.242 12.0 48.0 12.0 C 50.756 12.0 53.0 14.243 53.0 17.0 C 53.0 17.376 52.951 17.754 52.854 18.146 L 54.566 21.0 L 58.0 21.0 C 63.395 21.0 65.578 24.797 65.98 26.804 C 65.992 26.868 66.0 26.935 66.0 27.0 L 66.0 28.0 C 66.0 29.103 65.102 30.0 64.0 30.0 L 32.0 30.0 z M 48.0 16.0 C 47.447 16.0 47.0 16.448 47.0 17.0 C 47.0 17.552 47.447 18.0 48.0 18.0 C 48.551 18.0 49.0 17.552 49.0 17.0 C 49.0 16.448 48.551 16.0 48.0 16.0 L 48.0 16.0 z " fill="#1a0900" fill-opacity="0.1"/>
<path d="M 58.0 22.0 C 55.58 22.0 54.473 22.0 54.0 22.0 L 51.77 18.284 C 51.908 17.879 52.0 17.452 52.0 17.0 C 52.0 14.791 50.209 13.0 48.0 13.0 C 45.791 13.0 44.0 14.791 44.0 17.0 C 44.0 17.452 44.092 17.879 44.229 18.284 L 42.0 22.0 C 41.525 22.0 40.42 22.0 38.0 22.0 C 32.0 22.0 31.0 27.0 31.0 27.0 L 31.0 28.0 C 31.0 28.55 31.449 29.0 32.0 29.0 L 64.0 29.0 C 64.549 29.0 65.0 28.55 65.0 28.0 L 65.0 27.0 C 65.0 27.0 64.0 22.0 58.0 22.0 z M 48.0 15.0 C 49.104 15.0 50.0 15.896 50.0 17.0 C 50.0 18.104 49.104 19.0 48.0 19.0 C 46.895 19.0 46.0 18.104 46.0 17.0 C 46.0 15.896 46.895 15.0 48.0 15.0 z " fill="#1a0900" fill-opacity="0.15"/>
<path d="M 48.0 88.0 C 64.404 88.0 74.895004 84.814 81.0 76.954 L 81.0 27.0 C 81.0 23.691 78.309 21.0 75.0 21.0 L 21.0 21.0 C 17.691 21.0 15.0 23.691 15.0 27.0 L 15.0 76.953 C 21.105 84.814 31.596 88.0 48.0 88.0 z " fill="#1a0900" fill-opacity="0.02"/>
<path d="M 48.0 88.0 C 63.539 88.0 73.773 85.142 80.0 78.158 L 80.0 27.0 C 80.0 24.243 77.756 22.0 75.0 22.0 L 21.0 22.0 C 18.242 22.0 16.0 24.243 16.0 27.0 L 16.0 78.157 C 22.227 85.142 32.461 88.0 48.0 88.0 z " fill="#1a0900" fill-opacity="0.05"/>
<path d="M 75.0 23.0 L 21.0 23.0 C 18.793 23.0 17.0 24.794 17.0 27.0 L 17.0 79.218 C 23.301 85.435 33.268 88.0 48.0 88.0 C 62.732 88.0 72.697 85.435 79.0 79.218 L 79.0 27.0 C 79.0 24.794 77.205 23.0 75.0 23.0 z " fill="#1a0900" fill-opacity="0.05"/>
<path d="M 75.0 24.0 L 21.0 24.0 C 19.346 24.0 18.0 25.346 18.0 27.0 L 18.0 80.146 C 24.338 85.69 34.023 88.0 48.0 88.0 C 61.975 88.0 71.662 85.691 78.0 80.147 L 78.0 27.0 C 78.0 25.346 76.654 24.0 75.0 24.0 z " fill="#1a0900" fill-opacity="0.1"/>
<linearGradient gradientUnits="userSpaceOnUse" id="SVGID_2_" x1="47.9995" x2="47.9995" y1="8.2534" y2="87.4985">
<stop offset="0" stop-color="#ffffff"/>
<stop offset="1" stop-color="#ffffff" stop-opacity="0"/>
</linearGradient>
<path d="M 48.0 8.0 C 18.365 8.0 8.0 18.365 8.0 48.0 C 8.0 77.633 18.365 88.0 48.0 88.0 C 77.637 88.0 88.0 77.633 88.0 48.0 C 88.0 18.365 77.637 8.0 48.0 8.0 z M 48.0 87.0 C 18.842 87.0 9.0 77.158 9.0 48.0 C 9.0 18.842005 18.842 9.0 48.0 9.0 C 77.158005 9.0 87.0 18.842 87.0 48.0 C 87.0 77.158005 77.158 87.0 48.0 87.0 z " fill="url(#SVGID_2_)" fill-opacity="0.25" stroke-opacity="0.25"/>
<rect fill="none" height="96" width="96"/>
<linearGradient gradientUnits="userSpaceOnUse" x1="47.9995" x2="47.9995" y1="24" y2="87.8013">
<stop offset="0" stop-color="#ffffff"/>
<stop offset="1" stop-color="#e6e2d8"/>
</linearGradient>
<path d="M 75.0 24.0 L 21.0 24.0 C 19.9 24.0 19.0 24.9 19.0 26.0 L 19.0 80.962006 C 25.342 85.914 34.736 88.0 48.0 88.0 C 61.264 88.0 70.658005 85.914 77.0 80.963 L 77.0 26.0 C 77.0 24.9 76.1 24.0 75.0 24.0 z " fill="#ffffff" fill-opacity="1"/>
<path d="M 28.0 26.0 L 28.0 28.0 C 28.0 30.206 29.793 32.0 32.0 32.0 L 64.0 32.0 C 66.205 32.0 68.0 30.206 68.0 28.0 L 68.0 26.0 C 68.0 25.806 67.98 25.61 67.939 25.406 C 67.91 25.257 67.787 24.72 67.49 24.0 L 28.51 24.0 C 28.225 24.684 28.1 25.209 28.057 25.417 C 28.02 25.608 28.0 25.805 28.0 26.0 z " fill-opacity="0.02" stroke-opacity="0.02"/>
<path d="M 29.0 26.0 L 29.0 28.0 C 29.0 29.654 30.346 31.0 32.0 31.0 L 64.0 31.0 C 65.654 31.0 67.0 29.654 67.0 28.0 L 67.0 26.0 C 67.0 25.87 66.986 25.739 66.959 25.603 C 66.928 25.448 66.781 24.818 66.395996 24.0 L 29.604 24.0 C 29.219 24.818 29.071 25.45 29.038 25.611 C 29.012 25.739 29.0 25.87 29.0 26.0 z " fill-opacity="0.05" stroke-opacity="0.05"/>
<path d="M 30.0 26.0 L 30.0 28.0 C 30.0 29.103 30.896 30.0 32.0 30.0 L 64.0 30.0 C 65.102 30.0 66.0 29.103 66.0 28.0 L 66.0 26.0 C 66.0 25.934 65.992 25.867 65.98 25.802 C 65.96001 25.705 65.791 24.947 65.273 24.0 L 30.727 24.0 C 30.207 24.946 30.039 25.705 30.02 25.802 C 30.006 25.867 30.0 25.934 30.0 26.0 z " fill-opacity="0.1" stroke-opacity="0.1"/>
<path d="M 31.0 26.0 L 31.0 28.0 C 31.0 28.55 31.449 29.0 32.0 29.0 L 64.0 29.0 C 64.549 29.0 65.0 28.55 65.0 28.0 L 65.0 26.0 C 65.0 26.0 64.811 25.062 64.111 24.0 L 31.889 24.0 C 31.189 25.063 31.0 26.0 31.0 26.0 z " fill-opacity="0.2" stroke-opacity="0.2"/>
<linearGradient gradientUnits="userSpaceOnUse" x1="47.9995" x2="47.9995" y1="12" y2="27.9502">
<stop offset="0" stop-color="#ffffff"/>
<stop offset="0.3292" stop-color="#525254"/>
<stop offset="0.5891" stop-color="#ffffff"/>
<stop offset="0.7674" stop-color="#e0e0e0"/>
<stop offset="1" stop-color="#4f5052"/>
</linearGradient>
<path d="M 58.0 21.0 C 55.58 21.0 54.473 21.0 54.0 21.0 L 51.77 17.284 C 51.908 16.879 52.0 16.452 52.0 16.0 C 52.0 13.791 50.209 12.0 48.0 12.0 C 45.791 12.0 44.0 13.791 44.0 16.0 C 44.0 16.452 44.092 16.879 44.229 17.284 L 42.0 21.0 C 41.525 21.0 40.42 21.0 38.0 21.0 C 32.0 21.0 31.0 26.0 31.0 26.0 L 31.0 27.0 C 31.0 27.55 31.449 28.0 32.0 28.0 L 64.0 28.0 C 64.549 28.0 65.0 27.55 65.0 27.0 L 65.0 26.0 C 65.0 26.0 64.0 21.0 58.0 21.0 z M 48.0 14.0 C 49.104 14.0 50.0 14.896 50.0 16.0 C 50.0 17.104 49.104 18.0 48.0 18.0 C 46.895 18.0 46.0 17.104 46.0 16.0 C 46.0 14.896 46.895 14.0 48.0 14.0 z " fill="#d4d4d4" fill-opacity="1"/>
<linearGradient gradientUnits="userSpaceOnUse" x1="48.0044" x2="48.0044" y1="12.5" y2="27.4533">
<stop offset="0" stop-color="#d1d1d1"/>
<stop offset="0.326" stop-color="#6d6e70"/>
<stop offset="0.7" stop-color="#ffffff"/>
<stop offset="1" stop-color="#808184"/>
</linearGradient>
<linearGradient gradientUnits="userSpaceOnUse" x1="47.9995" x2="47.9995" y1="13.5" y2="18.4844">
<stop offset="0" stop-color="#6d6e70"/>
<stop offset="0.376" stop-color="#808184"/>
<stop offset="1" stop-color="#ffffff"/>
</linearGradient>
<path d="M 48.0 13.5 C 46.621 13.5 45.5 14.621 45.5 16.0 C 45.5 17.379 46.621 18.5 48.0 18.5 C 49.379 18.5 50.5 17.379 50.5 16.0 C 50.5 14.621 49.379 13.5 48.0 13.5 z M 48.0 18.0 C 46.895 18.0 46.0 17.104 46.0 16.0 C 46.0 14.896 46.895 14.0 48.0 14.0 C 49.104 14.0 50.0 14.896 50.0 16.0 C 50.0 17.104 49.104 18.0 48.0 18.0 z " fill="#e7e7e7" fill-opacity="1"/>
<linearGradient gradientUnits="userSpaceOnUse" x1="47.9995" x2="47.9995" y1="37" y2="73.0005">
<stop offset="0" stop-color="#0078d0"/>
<stop offset="1" stop-color="#003d9d"/>
</linearGradient>
<path d="M 50.0 37.0 L 50.0 44.0 L 33.0 44.0 C 31.744 44.0 31.0 44.746 31.0 46.0 L 31.0 53.0 L 73.0 53.0 L 50.0 37.0 z M 46.0 73.0 L 46.0 66.0 L 63.0 66.0 C 64.256 66.0 65.0 65.254 65.0 64.0 L 65.0 57.0 L 23.0 57.0 L 46.0 73.0 z " fill="#007ee7" fill-opacity="1"/>
</svg>
