<?xml version="1.0" encoding="UTF-8"?>
<svg xmlns="http://www.w3.org/2000/svg" xmlns:xlink="http://www.w3.org/1999/xlink" baseProfile="tiny" contentScriptType="text/ecmascript" contentStyleType="text/css" height="96px" preserveAspectRatio="xMidYMid meet" version="1.1" viewBox="0 0 96 96" width="96px" x="0px" y="0px" zoomAndPan="magnify">
<defs>
<linearGradient id="linearGradient3835">
<stop offset="0" stop-color="#ffffff" stop-opacity="1"/>
<stop offset="1" stop-color="#ffffff" stop-opacity="0.78431374"/>
</linearGradient>
<linearGradient>
<stop offset="0" stop-color="#ffaf30" stop-opacity="1"/>
<stop offset="1" stop-color="#ff9830" stop-opacity="1"/>
</linearGradient>
<linearGradient gradientTransform="matrix(0,1,-1,0,96,0)" gradientUnits="userSpaceOnUse" id="linearGradient3858" x1="8" x2="88" y1="48" y2="48">
<stop offset="0" stop-color="#ffaf30" stop-opacity="1"/>
<stop offset="1" stop-color="#ff9830" stop-opacity="1"/>
</linearGradient>
<linearGradient gradientUnits="userSpaceOnUse" id="linearGradient3841" x1="41.56292" x2="41.56292" y1="27.283428" y2="70.574257">
<stop offset="0" stop-color="#ffffff" stop-opacity="1"/>
<stop offset="1" stop-color="#ffffff" stop-opacity="0.78431374"/>
</linearGradient>
<linearGradient gradientTransform="matrix(0,1,-1,0,96,0)" gradientUnits="userSpaceOnUse" id="linearGradient3845" x1="41.56292" x2="41.56292" y1="27.283428" y2="70.574257">
<stop offset="0" stop-color="#ffaf30" stop-opacity="1"/>
<stop offset="1" stop-color="#ff9830" stop-opacity="1"/>
</linearGradient>
</defs>
<path d="M 88.0 49.0 C 88.0 78.633 77.637 89.0 48.0 89.0 C 18.365 89.0 8.0 78.633 8.0 49.0 C 8.0 19.365 18.365 9.0 48.0 9.0 C 77.637 9.0 88.0 19.365 88.0 49.0 z " fill-opacity="0.4"/>
<linearGradient gradientTransform="matrix(1 0 0 -1 -300.9004 -120.5996)" gradientUnits="userSpaceOnUse" x1="348.8994" x2="348.8994" y1="-128.5996" y2="-208.5996">
<stop offset="0" stop-color="#f9d641"/>
<stop offset="1" stop-color="#d68612"/>
</linearGradient>
<path d="M 48.0 88.0 C 18.367004 88.0 8.0 77.637 8.0 48.0 C 8.0 18.365 18.367 8.0 48.0 8.0 C 77.635 8.0 88.0 18.365 88.0 48.0 C 88.0 77.637 77.635 88.0 48.0 88.0 z " fill="url(#linearGradient3858)" fill-opacity="1"/>
<path d="M 32.78125 27.0 C 32.125206 27.00598 31.540916 27.416227 31.3125 28.03125 L 29.0 34.25 C 28.924252 34.42827 28.881884 34.61893 28.875 34.8125 L 28.875 37.71875 C 28.871883 38.142387 29.038795 38.549576 29.338362 38.84914 C 29.637924 39.148705 30.045116 39.315617 30.46875 39.3125 L 53.65625 39.3125 C 54.0788 39.312748 54.48389 39.14396 54.78125 38.84375 L 55.5 38.125 L 55.875 38.125 L 55.875 55.1875 L 45.625 55.1875 L 45.625 53.90625 L 47.75 50.90625 C 47.945377 50.643753 48.05456 50.32713 48.0625 50.0 L 48.0625 46.59375 C 48.065617 46.170113 47.898705 45.762924 47.59914 45.46336 C 47.299576 45.163795 46.892387 44.996883 46.46875 45.0 L 36.625 45.0 C 36.201363 44.996883 35.794174 45.163795 35.49461 45.46336 C 35.195045 45.762924 35.028133 46.170113 35.03125 46.59375 L 35.03125 49.6875 C 35.03265 50.02535 35.14216 50.35388 35.34375 50.625 L 37.9375 54.125 L 37.9375 55.1875 L 34.375 55.1875 C 33.94585 55.1842 33.533768 55.355373 33.233265 55.66177 C 32.93276 55.968166 32.769615 56.383495 32.78125 56.8125 L 32.875 63.3125 C 32.885796 64.18315 33.598057 64.88145 34.46875 64.875 L 37.625 64.875 L 37.625 65.21875 C 37.32789 65.286316 37.056606 65.43823 36.84375 65.65625 C 36.18732 65.39459 35.55368 65.28125 35.21875 65.28125 C 34.701607 65.28125 34.00408 65.30991 33.21875 65.8125 C 32.574516 66.22477 32.168983 66.74863 31.8125 67.28125 C 31.456018 67.81387 31.185446 68.33873 31.03125 69.0 C 30.93351 69.41988 30.82279 69.96784 30.8125 70.625 C 30.80232 71.27496 30.86321 72.05265 31.40625 72.84375 L 31.40625 72.875 C 31.97469 73.675446 32.702454 74.00992 33.3125 74.25 C 33.917606 74.48814 34.405743 74.60651 34.84375 74.65625 C 34.85215 74.6572 34.86668 74.65535 34.875 74.65625 C 35.14906 74.68649 35.569546 74.75 36.03125 74.75 C 36.536064 74.75 37.015255 74.54876 37.5 74.375 C 37.762516 74.93061 38.323 75.28396 38.9375 75.28125 L 44.96875 75.28125 C 45.52253 75.27397 46.032192 74.97765 46.3125 74.5 L 46.46875 74.25 C 46.5768 74.32319 46.743073 74.46496 46.75 74.46875 C 47.5535 74.91002 48.21935 74.9375 48.71875 74.9375 C 49.082287 74.9375 49.758907 74.96356 50.625 74.59375 C 50.635563 74.58348 50.64598 74.57306 50.65625 74.5625 C 50.460705 74.65139 50.67059 74.5539 50.71875 74.53125 C 50.76691 74.50859 50.830498 74.47655 50.90625 74.4375 C 51.057755 74.35941 51.276676 74.24056 51.5 74.09375 C 51.946648 73.800125 52.5186 73.40805 52.90625 72.53125 C 53.19414 71.87954 53.27112 71.312355 53.28125 70.65625 C 53.29138 70.000145 53.23752 69.33291 52.875 68.59375 C 52.61391 68.06407 52.28041 67.610435 51.84375 67.15625 C 51.40709 66.702065 50.94545 66.24709 50.15625 65.96875 C 49.59402 65.77124 49.081753 65.71875 48.53125 65.71875 C 48.08389 65.71875 47.650463 65.87886 47.21875 66.03125 C 46.99756 65.77942 46.70211 65.60434 46.375 65.53125 L 46.375 64.9375 L 65.53125 64.9375 C 65.95489 64.94061 66.362076 64.773705 66.66164 64.47414 C 66.961205 64.174576 67.12811 63.767387 67.125 63.34375 L 67.125 30.09375 C 67.12811 29.670116 66.961205 29.262924 66.66164 28.963362 C 66.362076 28.663795 65.95489 28.496883 65.53125 28.5 L 56.09375 28.5 C 56.05043 27.66598 55.36634 27.009253 54.53125 27.0 L 32.78125 27.0 z " fill-opacity="0.07000002" stroke-opacity="0.07000002"/>
<linearGradient gradientTransform="matrix(1 0 0 -1 -300.9004 -120.5996)" gradientUnits="userSpaceOnUse" id="SVGID_2_" x1="348.8994" x2="348.8994" y1="-128.8535" y2="-208.0986">
<stop offset="0" stop-color="#ffffff"/>
<stop offset="1" stop-color="#ffffff" stop-opacity="0"/>
</linearGradient>
<path d="M 48.0 8.0 C 18.365 8.0 8.0 18.365 8.0 48.0 C 8.0 77.633 18.365 88.0 48.0 88.0 C 77.637 88.0 88.0 77.633 88.0 48.0 C 88.0 18.365 77.637 8.0 48.0 8.0 z M 48.0 87.0 C 18.842 87.0 9.0 77.158 9.0 48.0 C 9.0 18.842005 18.842 9.0 48.0 9.0 C 77.158005 9.0 87.0 18.842 87.0 48.0 C 87.0 77.158005 77.158 87.0 48.0 87.0 z " fill="url(#SVGID_2_)" fill-opacity="0.25"/>
<rect fill="none" height="96" width="96"/>
<linearGradient gradientTransform="matrix(1 0 0 -1 -300.9004 -120.5996)" gradientUnits="userSpaceOnUse" x1="348.8994" x2="348.8994" y1="-144.5996" y2="-208.4009">
<stop offset="0" stop-color="#ffffff"/>
<stop offset="1" stop-color="#e6e2d8"/>
</linearGradient>
<linearGradient gradientTransform="matrix(1 0 0 -1 -300.9004 -120.5996)" gradientUnits="userSpaceOnUse" x1="348.8994" x2="348.8994" y1="-132.5996" y2="-148.5498">
<stop offset="0" stop-color="#ffffff"/>
<stop offset="0.3292" stop-color="#525254"/>
<stop offset="0.5891" stop-color="#ffffff"/>
<stop offset="0.7674" stop-color="#e0e0e0"/>
<stop offset="1" stop-color="#4f5052"/>
</linearGradient>
<linearGradient gradientTransform="matrix(1 0 0 -1 -300.9004 -120.5996)" gradientUnits="userSpaceOnUse" x1="348.9043" x2="348.9043" y1="-133.0996" y2="-148.0529">
<stop offset="0" stop-color="#d1d1d1"/>
<stop offset="0.326" stop-color="#6d6e70"/>
<stop offset="0.7" stop-color="#ffffff"/>
<stop offset="1" stop-color="#808184"/>
</linearGradient>
<linearGradient gradientTransform="matrix(1 0 0 -1 -300.9004 -120.5996)" gradientUnits="userSpaceOnUse" x1="348.8994" x2="348.8994" y1="-134.0996" y2="-139.084">
<stop offset="0" stop-color="#6d6e70"/>
<stop offset="0.376" stop-color="#808184"/>
<stop offset="1" stop-color="#ffffff"/>
</linearGradient>
<path d="M 38.927 73.68999 L 38.427 72.27399 L 37.823 72.27399 C 37.538 72.749985 37.337 72.87099 37.26 72.916985 C 36.975 73.08898 36.588997 73.16898 36.043 73.16898 C 35.669 73.16898 35.284 73.12998 35.042 73.10298 C 34.59 73.05397 33.189 72.68998 32.676 71.95398 C 32.205997 71.28298 32.402 70.03798 32.560997 69.35498 C 32.716995 68.68598 33.416996 67.54998 34.053 67.14298 C 34.402996 66.91899 34.881996 66.87198 35.220997 66.87198 C 35.497997 66.87198 36.020996 66.90398 36.407 67.11998 C 36.803997 67.34298 37.166996 67.93998 37.444996 68.52398 L 37.956997 68.52398 L 37.956997 66.77398 L 39.206997 66.77398 L 39.206997 63.27398 L 34.47 63.27398 L 34.362 56.77398 L 39.542 56.77398 L 39.542 53.60598 L 36.625 49.68898 L 36.625 46.606987 L 46.458 46.606987 L 46.458 50.011986 L 44.042 53.427982 L 44.042 56.773987 L 57.458 56.773987 L 57.458 36.523987 L 54.853 36.523987 L 53.645 37.731987 L 30.458 37.731987 L 30.458 34.804985 L 32.771 28.606989 L 54.542 28.606989 L 54.542 30.106989 L 65.542 30.106989 L 65.542 63.356987 L 44.792 63.356987 L 44.792 67.10699 L 46.042 67.10699 L 46.042 68.85699 L 46.369 68.85699 C 46.682 68.359985 47.119 67.75499 47.506 67.53699 C 47.757 67.39499 48.103 67.32299 48.533 67.32299 C 48.928 67.32299 49.346 67.38499 49.625 67.483 C 50.331 67.732 51.187 68.711 51.465 69.275 C 51.799 69.956 51.751 71.293 51.478 71.911 C 51.161 72.628006 50.015 73.125 50.004 73.130005 C 49.559 73.32001 48.966003 73.342 48.732 73.342 C 48.379 73.342 47.881 73.299 47.515003 73.098 C 47.42001 73.046 47.164 72.906 46.824005 72.275 L 45.805004 72.275 L 44.972004 73.691 L 38.927 73.691 z " fill-opacity="0.07000002" stroke-opacity="0.07000002"/>
<linearGradient gradientTransform="translate(-1e-6,-9.2915003)" gradientUnits="userSpaceOnUse" x1="48.0005" x2="48.0005" y1="80.083" y2="36.5005">
<stop offset="0" stop-color="#546170"/>
<stop offset="0.0121" stop-color="#546170"/>
<stop offset="1" stop-color="#8c9ea8"/>
</linearGradient>
<path d="M 33.292 27.2085 L 53.792 27.2085 L 53.792 28.7085 L 64.792 28.7085 L 64.792 60.4585 L 44.042 60.4585 L 44.042 65.708496 L 45.292 65.708496 L 45.292 67.458496 L 46.792 67.458496 C 46.792 67.458496 47.486 66.2615 47.875 66.0415 C 48.201 65.8565 49.021 65.9165 49.375 66.0415 C 49.848 66.208496 50.57 67.0095 50.792 67.458496 C 51.013 67.90749 50.994 69.001495 50.792 69.458496 C 50.653 69.7715 50.022 70.156494 49.708 70.2915 C 49.287 70.472496 48.277 70.5125 47.875 70.2915 C 47.637 70.1605 47.292 69.375496 47.292 69.375496 L 45.375 69.375496 L 44.542 70.7915 L 39.458 70.7915 L 38.958 69.375496 L 37.375 69.375496 C 37.375 69.375496 37.068 70.0095 36.875 70.125496 C 36.5 70.351494 35.561 70.25649 35.125 70.208496 C 34.625 70.153496 33.58 69.7885 33.292 69.375496 C 33.005 68.96549 33.179 67.862495 33.292 67.375496 C 33.411 66.863495 34.016 65.90849 34.458 65.625496 C 34.792 65.4115 35.696 65.432495 36.042 65.625496 C 36.425 65.84049 36.958 67.125496 36.958 67.125496 L 38.708 67.125496 L 38.708 65.375496 L 39.958 65.375496 L 39.958 60.375496 L 35.208 60.375496 L 35.125 55.375496 L 40.292 55.375496 L 40.292 51.208496 L 37.375 47.291496 L 37.375 45.208496 L 45.708 45.208496 L 45.708 47.625496 L 43.292 51.041496 L 43.292 55.375496 L 58.208 55.375496 L 58.208 33.625496 L 54.542 33.625496 L 53.334 34.833496 L 31.208 34.833496 L 31.208 32.791496 L 33.292 27.208496 z " fill="url(#linearGradient3845)" fill-opacity="1"/>
<path d="M 33.292 27.2085 L 53.792 27.2085 L 53.792 28.7085 L 64.792 28.7085 L 64.792 60.4585 L 44.042 60.4585 L 44.042 65.708496 L 45.292 65.708496 L 45.292 67.458496 L 46.792 67.458496 C 46.792 67.458496 47.486 66.2615 47.875 66.0415 C 48.201 65.8565 49.021 65.9165 49.375 66.0415 C 49.848 66.208496 50.57 67.0095 50.792 67.458496 C 51.013 67.90749 50.994 69.001495 50.792 69.458496 C 50.653 69.7715 50.022 70.156494 49.708 70.2915 C 49.287 70.472496 48.277 70.5125 47.875 70.2915 C 47.637 70.1605 47.292 69.375496 47.292 69.375496 L 45.375 69.375496 L 44.542 70.7915 L 39.458 70.7915 L 38.958 69.375496 L 37.375 69.375496 C 37.375 69.375496 37.068 70.0095 36.875 70.125496 C 36.5 70.351494 35.561 70.25649 35.125 70.208496 C 34.625 70.153496 33.58 69.7885 33.292 69.375496 C 33.005 68.96549 33.179 67.862495 33.292 67.375496 C 33.411 66.863495 34.016 65.90849 34.458 65.625496 C 34.792 65.4115 35.696 65.432495 36.042 65.625496 C 36.425 65.84049 36.958 67.125496 36.958 67.125496 L 38.708 67.125496 L 38.708 65.375496 L 39.958 65.375496 L 39.958 60.375496 L 35.208 60.375496 L 35.125 55.375496 L 40.292 55.375496 L 40.292 51.208496 L 37.375 47.291496 L 37.375 45.208496 L 45.708 45.208496 L 45.708 47.625496 L 43.292 51.041496 L 43.292 55.375496 L 58.208 55.375496 L 58.208 33.625496 L 54.542 33.625496 L 53.334 34.833496 L 31.208 34.833496 L 31.208 32.791496 L 33.292 27.208496 z " fill="url(#linearGradient3841)" fill-opacity="1"/>
</svg>
