<?xml version="1.0" encoding="UTF-8"?>
<svg xmlns="http://www.w3.org/2000/svg" xmlns:xlink="http://www.w3.org/1999/xlink" baseProfile="tiny" contentScriptType="text/ecmascript" contentStyleType="text/css" height="96px" preserveAspectRatio="xMidYMid meet" version="1.1" viewBox="0 0 96 96" width="96px" x="0px" y="0px" zoomAndPan="magnify">
<defs>
<linearGradient>
<stop offset="0" stop-color="#f05842" stop-opacity="1"/>
<stop offset="1" stop-color="#f04242" stop-opacity="1"/>
</linearGradient>
<linearGradient>
<stop offset="0" stop-color="#d5f6ff" stop-opacity="1"/>
<stop offset="1" stop-color="#0088aa" stop-opacity="1"/>
</linearGradient>
<linearGradient gradientTransform="matrix(1.0515857,0,0,1.01708,-253.45339,-715.60427)" gradientUnits="userSpaceOnUse" x1="254.83009" x2="358.8096" y1="763.97272" y2="763.97272">
<stop offset="0" stop-color="#f7f8f9"/>
<stop offset="1" stop-color="#d0d1d2"/>
</linearGradient>
<linearGradient gradientTransform="matrix(0.7261569,0,0,0.74770351,-174.61605,-527.27145)" gradientUnits="userSpaceOnUse" x1="254.83009" x2="358.8096" y1="763.97272" y2="763.97272">
<stop offset="0" stop-color="#f7f8f9"/>
<stop offset="1" stop-color="#d0d1d2"/>
</linearGradient>
<linearGradient gradientTransform="matrix(1,0,0,-1,-1.3115644,98.868328)" gradientUnits="userSpaceOnUse" x1="61.075901" x2="34.694302" y1="57.299801" y2="41.540901">
<stop offset="0" stop-color="#ffffff"/>
<stop offset="1" stop-color="#ffffff" stop-opacity="0.2"/>
</linearGradient>
<linearGradient gradientTransform="matrix(1,0,0,-1,1.0534719,96.841079)" gradientUnits="userSpaceOnUse" x1="61.075901" x2="34.694302" y1="57.299801" y2="41.540901">
<stop offset="0" stop-color="#ffffff"/>
<stop offset="1" stop-color="#ffffff" stop-opacity="0.2"/>
</linearGradient>
<linearGradient gradientTransform="matrix(1,0,0,-1,-2.4150126,95.9258)" gradientUnits="userSpaceOnUse" x1="34.720501" x2="60.039902" y1="56.8027" y2="41.976002">
<stop offset="0" stop-color="#ffffff"/>
<stop offset="1" stop-color="#ffffff" stop-opacity="0.2"/>
</linearGradient>
<linearGradient gradientTransform="matrix(1,0,0,-1,-2.5350845,97.20939)" gradientUnits="userSpaceOnUse" x1="34.720501" x2="60.039902" y1="56.8027" y2="41.976002">
<stop offset="0" stop-color="#ffffff"/>
<stop offset="1" stop-color="#ffffff" stop-opacity="0.2"/>
</linearGradient>
<linearGradient gradientTransform="matrix(1,0,0,-1,0.1597,95.9258)" gradientUnits="userSpaceOnUse" x1="63.148201" x2="61.403599" y1="26.3545" y2="22.778099">
<stop offset="0" stop-color="#ffffff"/>
<stop offset="1" stop-color="#a3a3a3"/>
</linearGradient>
<linearGradient gradientTransform="matrix(1,0,0,-1,0.1597,95.9258)" gradientUnits="userSpaceOnUse" x1="63.148201" x2="61.403599" y1="26.3545" y2="22.778099">
<stop offset="0" stop-color="#ffffff"/>
<stop offset="1" stop-color="#a3a3a3"/>
</linearGradient>
<linearGradient gradientTransform="matrix(1,0,0,-1,0.1597,95.9258)" gradientUnits="userSpaceOnUse" x1="62.543701" x2="64.113503" y1="40.8223" y2="37.072102">
<stop offset="0" stop-color="#ffffff"/>
<stop offset="1" stop-color="#a3a3a3"/>
</linearGradient>
<linearGradient gradientTransform="matrix(1,0,0,-1,0.1597,95.9258)" gradientUnits="userSpaceOnUse" x1="62.543701" x2="64.113503" y1="40.8223" y2="37.072102">
<stop offset="0" stop-color="#ffffff"/>
<stop offset="1" stop-color="#a3a3a3"/>
</linearGradient>
<linearGradient gradientTransform="matrix(1,0,0,-1,0.1597,95.9258)" gradientUnits="userSpaceOnUse" x1="45.003201" x2="45.003201" y1="40.209" y2="23.3596">
<stop offset="0" stop-color="#c2de91"/>
<stop offset="1" stop-color="#7b9e56"/>
</linearGradient>
<linearGradient gradientTransform="matrix(1,0,0,-1,0.1597,95.9258)" gradientUnits="userSpaceOnUse" x1="45.003201" x2="45.003201" y1="40.209" y2="23.3596">
<stop offset="0" stop-color="#c2de91"/>
<stop offset="1" stop-color="#7b9e56"/>
</linearGradient>
<linearGradient gradientTransform="matrix(1,0,0,-1,0.1597,95.9258)" gradientUnits="userSpaceOnUse" x1="45.003201" x2="45.003201" y1="40.209" y2="23.3596">
<stop offset="0" stop-color="#c2de91"/>
<stop offset="1" stop-color="#7b9e56"/>
</linearGradient>
<linearGradient gradientTransform="matrix(1,0,0,-1,0.1597,95.9258)" gradientUnits="userSpaceOnUse" x1="45.003201" x2="45.003201" y1="40.209" y2="23.3596">
<stop offset="0" stop-color="#c2de91"/>
<stop offset="1" stop-color="#7b9e56"/>
</linearGradient>
<linearGradient gradientTransform="matrix(1,0,0,-1,0.1597,95.9258)" gradientUnits="userSpaceOnUse" x1="45.003201" x2="45.003201" y1="40.209" y2="23.3596">
<stop offset="0" stop-color="#c2de91"/>
<stop offset="1" stop-color="#7b9e56"/>
</linearGradient>
<linearGradient gradientTransform="matrix(1,0,0,-1,0.1597,95.9258)" gradientUnits="userSpaceOnUse" x1="45.003201" x2="45.003201" y1="40.209" y2="23.3596">
<stop offset="0" stop-color="#c2de91"/>
<stop offset="1" stop-color="#7b9e56"/>
</linearGradient>
<linearGradient gradientTransform="matrix(1,0,0,-1,8.6194701,63.557984)" gradientUnits="userSpaceOnUse" x1="82.677498" x2="82.677498" y1="37.415001" y2="54.1577">
<stop offset="0" stop-color="#ffffff" stop-opacity="0.3"/>
<stop offset="1" stop-color="#ffffff"/>
</linearGradient>
<linearGradient gradientTransform="matrix(1,0,0,-1,-53.620329,92.86676)" gradientUnits="userSpaceOnUse" x1="82.677498" x2="82.677498" y1="37.415001" y2="54.1577">
<stop offset="0" stop-color="#ffffff" stop-opacity="0.3"/>
<stop offset="1" stop-color="#ffffff"/>
</linearGradient>
<linearGradient gradientTransform="matrix(1,0,0,-1,8.6194701,63.557984)" gradientUnits="userSpaceOnUse" x1="82.677498" x2="82.677498" y1="37.415001" y2="54.1577">
<stop offset="0" stop-color="#ffffff" stop-opacity="0.3"/>
<stop offset="1" stop-color="#ffffff"/>
</linearGradient>
<linearGradient gradientTransform="matrix(1,0,0,-1,-15.367455,78.154116)" gradientUnits="userSpaceOnUse" x1="82.677498" x2="82.677498" y1="37.415001" y2="54.1577">
<stop offset="0" stop-color="#ffffff" stop-opacity="0.3"/>
<stop offset="1" stop-color="#ffffff"/>
</linearGradient>
<linearGradient gradientTransform="matrix(1,0,0,-1,8.6194701,63.557984)" gradientUnits="userSpaceOnUse" x1="82.677498" x2="82.677498" y1="37.415001" y2="54.1577">
<stop offset="0" stop-color="#ffffff" stop-opacity="0.3"/>
<stop offset="1" stop-color="#ffffff"/>
</linearGradient>
<linearGradient gradientTransform="matrix(1,0,0,-1,-18.309984,107.94722)" gradientUnits="userSpaceOnUse" x1="82.677498" x2="82.677498" y1="37.415001" y2="54.1577">
<stop offset="0" stop-color="#ffffff" stop-opacity="0.3"/>
<stop offset="1" stop-color="#ffffff"/>
</linearGradient>
<linearGradient gradientTransform="matrix(1,0,0,1.0147106,0,-1.118872)" gradientUnits="userSpaceOnUse" x1="25.749846" x2="83.267105" y1="23.186441" y2="82.169495">
<stop offset="0" stop-color="#d5f6ff" stop-opacity="1"/>
<stop offset="1" stop-color="#0088aa" stop-opacity="1"/>
</linearGradient>
<linearGradient gradientTransform="matrix(1,0,0,-1,-111.07647,38.974359)" gradientUnits="userSpaceOnUse" x1="167.8877" x2="206.12601" y1="-45.7896" y2="-7.5511999">
<stop offset="0" stop-color="#ffffff"/>
<stop offset="1" stop-color="#e6e6e6"/>
</linearGradient>
<linearGradient gradientTransform="matrix(0.7653472,0,0,-0.76412837,-94.891385,27.599019)" gradientUnits="userSpaceOnUse" x1="167.8877" x2="206.12601" y1="-45.7896" y2="-7.5511999">
<stop offset="0" stop-color="#ffffff"/>
<stop offset="1" stop-color="#e6e6e6"/>
</linearGradient>
<linearGradient gradientTransform="matrix(0,1,-1,0,96,0)" gradientUnits="userSpaceOnUse" id="linearGradient4040" x1="8" x2="88" y1="48" y2="48">
<stop offset="0" stop-color="#f05842" stop-opacity="1"/>
<stop offset="1" stop-color="#f02d42" stop-opacity="1"/>
</linearGradient>
<linearGradient gradientTransform="matrix(0,1,-1,0,95.999954,-7.55e-5)" gradientUnits="userSpaceOnUse" id="linearGradient4040" x1="8.0000153" x2="88.000015" y1="47.999939" y2="47.999939">
<stop offset="0" stop-color="#1b2a38" stop-opacity="1"/>
<stop offset="1" stop-color="#111822" stop-opacity="1"/>
</linearGradient>
<linearGradient gradientTransform="matrix(0,1,-1,0,170.03384,65.89829)" gradientUnits="userSpaceOnUse" id="linearGradient4040" x1="8.0000153" x2="88.000015" y1="47.999939" y2="47.999939">
<stop offset="0" stop-color="#1b2a38" stop-opacity="1"/>
<stop offset="1" stop-color="#111822" stop-opacity="1"/>
</linearGradient>
<linearGradient gradientTransform="matrix(0,1,-1,0,96,0)" gradientUnits="userSpaceOnUse" id="linearGradient4014" x1="8" x2="88" y1="48" y2="48">
<stop offset="0" stop-color="#1b2a38" stop-opacity="1"/>
<stop offset="1" stop-color="#111822" stop-opacity="1"/>
</linearGradient>
</defs>
<path d="M 88.0 49.0 C 88.0 78.633 77.637 89.0 48.0 89.0 C 18.365 89.0 8.0 78.633 8.0 49.0 C 8.0 19.365 18.365 9.0 48.0 9.0 C 77.637 9.0 88.0 19.365 88.0 49.0 z " fill-opacity="0.4"/>
<linearGradient gradientUnits="userSpaceOnUse" x1="47.9995" x2="47.9995" y1="8" y2="88.0005">
<stop offset="0" stop-color="#00aad4" stop-opacity="1"/>
<stop offset="1" stop-color="#2ad4ff" stop-opacity="1"/>
</linearGradient>
<path d="M 8.0 48.0 C 8.0 18.367 18.363 8.0 48.0 8.0 C 77.635 8.0 88.0 18.367 88.0 48.0 C 88.0 77.635 77.635 88.0 48.0 88.0 C 18.363 88.0 8.0 77.635 8.0 48.0 z " fill="url(#linearGradient4014)" fill-opacity="1"/>
<rect fill="none" height="96" width="96"/>
<linearGradient gradientUnits="userSpaceOnUse" id="SVGID_2_" x1="47.9995" x2="47.9995" y1="8.2534" y2="87.4985">
<stop offset="0" stop-color="#ffffff"/>
<stop offset="1" stop-color="#ffffff" stop-opacity="0"/>
</linearGradient>
<path d="M 48.0 8.0 C 18.365 8.0 8.0 18.365 8.0 48.0 C 8.0 77.633 18.365 88.0 48.0 88.0 C 77.637 88.0 88.0 77.633 88.0 48.0 C 88.0 18.365 77.637 8.0 48.0 8.0 z M 48.0 87.0 C 18.842 87.0 9.0 77.158 9.0 48.0 C 9.0 18.842005 18.842 9.0 48.0 9.0 C 77.158005 9.0 87.0 18.842 87.0 48.0 C 87.0 77.158005 77.158 87.0 48.0 87.0 z " fill="url(#SVGID_2_)" fill-opacity="0.25" stroke-opacity="0.25"/>
<linearGradient gradientTransform="matrix(0.7071 -0.7071 0.7071 0.7071 -208.9813 3059.7412)" gradientUnits="userSpaceOnUse" x1="2309.3584" x2="2344.3584" y1="-1947.9287" y2="-1947.9287">
<stop offset="0" stop-color="#58595b"/>
<stop offset="1" stop-color="#000000"/>
</linearGradient>
<linearGradient gradientTransform="matrix(0.7071 -0.7071 0.7071 0.7071 -208.9813 3059.7412)" gradientUnits="userSpaceOnUse" x1="2309.3584" x2="2313.3604" y1="-1957.9277" y2="-1957.9277">
<stop offset="0" stop-color="#58595b"/>
<stop offset="1" stop-color="#000000"/>
</linearGradient>
<linearGradient gradientUnits="userSpaceOnUse" x1="54.292" x2="59.292" y1="10.3501" y2="38.934">
<stop offset="0" stop-color="#58595b"/>
<stop offset="1" stop-color="#000000"/>
</linearGradient>
<linearGradient gradientUnits="userSpaceOnUse" x1="32.5508" x2="42.1758" y1="12.6343" y2="45.1342">
<stop offset="0" stop-color="#58595b"/>
<stop offset="1" stop-color="#000000"/>
</linearGradient>
<linearGradient gradientUnits="userSpaceOnUse" x1="57.1484" x2="60.063" y1="35.2275" y2="38.1421">
<stop offset="0" stop-color="#ffffff"/>
<stop offset="0.7362" stop-color="#ffffff" stop-opacity="0"/>
<stop offset="1" stop-color="#ffffff" stop-opacity="0"/>
</linearGradient>
<linearGradient gradientUnits="userSpaceOnUse" x1="44.6177" x2="38.0733" y1="37.2412" y2="43.7856">
<stop offset="0" stop-color="#ffffff"/>
<stop offset="0.7362" stop-color="#ffffff" stop-opacity="0"/>
<stop offset="1" stop-color="#ffffff" stop-opacity="0"/>
</linearGradient>
<linearGradient gradientUnits="userSpaceOnUse" x1="47.9995" x2="47.9995" y1="45.5" y2="53.8766">
<stop offset="0" stop-color="#ffffff"/>
<stop offset="1" stop-color="#6d6e70"/>
</linearGradient>
<path color="#000000" d="M 41.703125 10.078125 C 40.406193 10.168115 39.161125 10.282124 37.953125 10.421875 C 37.050034 12.269346 35.953476 14.533028 34.703125 17.203123 C 34.84394 16.366734 34.921875 15.653011 34.921875 15.078125 C 35.05104 13.492158 35.138542 12.069459 35.203125 10.796875 C 34.75846 10.875215 34.328938 10.965354 33.890625 11.046875 C 33.70958 13.236312 33.083363 16.986324 32.046875 22.296877 C 32.004524 22.512856 31.954144 22.723928 31.890623 22.984377 C 29.390984 27.674513 26.80116 31.300957 24.078123 33.828125 L 23.796877 33.671875 C 23.514196 26.154943 23.286182 20.455711 23.109377 16.609375 C 23.077616 15.908501 23.040483 15.238662 22.984377 14.578125 C 20.863754 15.694018 19.047596 17.00271 17.515623 18.515623 C 16.477016 19.567991 15.52097 20.77962 14.671875 22.109377 C 15.0191345 24.254345 15.440156 26.400331 15.921875 28.578123 C 17.390322 35.32325 18.227615 41.466316 18.453123 46.984375 C 18.20856 46.603237 17.952984 46.191776 17.703123 45.796875 C 17.0933 43.776833 16.182812 40.8413 14.921875 36.984375 C 13.760456 33.402718 12.727526 30.36537 11.859375 27.859377 C 11.349072 29.273829 10.918486 30.78666 10.546875 32.390625 C 10.709918 33.47158 10.961808 34.821194 11.328125 36.421875 C 10.889815 35.839684 10.47354 35.26363 10.046875 34.734375 C 9.613857 37.041332 9.294651 39.53409 9.109375 42.203125 C 11.154826 45.086025 12.288511 46.754738 12.484375 47.171875 C 13.274181 48.786427 14.90314 52.446304 17.359377 58.171875 C 17.289503 58.888622 17.234377 59.45228 17.234377 59.828125 C 17.234377 61.135647 17.564203 62.733868 18.234377 64.640625 C 18.411182 66.40445 17.367628 68.441185 15.109375 70.734375 C 14.825639 71.019165 14.180291 71.754654 13.140625 72.953125 C 14.342276 75.43159 15.805788 77.51183 17.515623 79.234375 C 23.338598 85.02136 33.458126 87.921875 47.890625 87.921875 C 62.323128 87.921875 72.44634 85.02136 78.234375 79.234375 C 84.02136 73.4474 86.890625 63.35649 86.890625 48.921875 C 86.890625 36.618465 84.808266 27.438046 80.609375 21.390623 C 80.6729 22.493813 80.74872 23.664623 80.828125 24.890623 C 80.828125 27.033478 80.53174 31.657911 79.984375 38.796875 C 78.376175 33.88864 76.660774 28.450788 74.828125 22.453123 C 74.785774 22.348312 73.96015 19.636044 72.359375 14.359375 C 71.28795 13.820485 70.14576 13.339524 68.921875 12.890625 C 69.27973 14.367542 69.68537 15.941376 70.140625 17.640623 C 69.55621 16.632723 68.85837 15.479909 68.015625 14.140625 C 67.574135 13.450337 67.14092 12.786992 66.734375 12.171875 C 66.06632 11.974951 65.38122 11.783005 64.671875 11.609375 C 67.685 16.565252 70.328896 21.486076 72.609375 26.359377 C 75.475334 36.35371 76.95104 41.564613 77.015625 42.015625 C 77.2009 43.1781 77.66756 47.28339 78.453125 54.328125 C 75.74174 65.80362 72.50025 73.061325 68.734375 76.109375 C 64.886986 79.21355 57.005688 80.765625 45.078125 80.765625 C 36.960903 80.765625 31.289228 74.89244 28.078123 63.140625 C 26.518627 57.374825 25.735403 51.186123 25.671877 44.546875 C 26.409803 42.98314 27.411484 40.42676 28.703123 36.890625 C 30.039228 34.22794 31.805014 30.793446 34.015625 26.609377 C 37.98054 19.08186 40.55018 13.579319 41.703125 10.078125 z " display="inline" fill="#252525" fill-opacity="1" fill-rule="nonzero" stroke="none" stroke-width="1.23500001" visibility="visible"/>
<path color="#000000" d="M 46.203125 23.265623 C 45.286823 23.297173 44.453613 23.732328 43.671875 24.546871 L 45.734375 38.703125 C 42.97849 39.57107 41.186115 41.210987 40.328125 43.609375 C 40.35799 41.957653 40.327164 40.26876 40.265625 38.578125 C 40.253857 38.502106 40.246143 38.43311 40.234375 38.328125 C 40.221676 38.229473 40.203125 38.170498 40.203125 38.140625 C 40.179596 38.023872 40.118324 37.961742 39.984375 37.984375 L 39.578125 38.046875 C 39.29213 38.100266 39.014942 38.156963 38.734375 38.203125 C 38.452904 38.243855 38.180298 38.295116 37.953125 38.359375 C 37.719624 38.429066 37.556637 38.50843 37.421875 38.578125 C 37.281593 38.647816 37.217175 38.702755 37.234375 38.796875 C 37.228073 39.3924 37.193115 40.089653 37.140625 40.890625 C 37.099895 41.691593 36.985603 42.49681 36.828125 43.296875 C 36.26156 42.37372 35.83149 41.603428 35.515625 40.984375 C 35.224197 40.358986 34.98422 39.83272 34.796875 39.359375 C 34.785107 39.300545 34.704353 39.246143 34.546875 39.234375 C 34.38306 39.222614 34.14537 39.236675 33.859375 39.265625 C 33.590572 39.294582 33.304287 39.338135 32.953125 39.390625 C 32.596535 39.443115 32.199623 39.513863 31.796877 39.578125 C 31.469246 39.630615 31.13398 39.670116 30.765623 39.734375 C 30.397268 39.792297 30.043903 39.877106 29.734377 39.953125 C 29.424849 40.029144 29.163095 40.108994 28.953123 40.203125 C 28.76035 40.302685 28.666475 40.431507 28.671877 40.578125 C 28.666475 40.823395 28.650105 41.1083 28.609377 41.453125 C 28.586744 41.797047 28.556356 42.14184 28.515623 42.515625 C 28.463137 42.88398 28.411863 43.286324 28.359377 43.671875 C 28.306885 44.057423 28.236135 44.40132 28.171877 44.734375 C 27.557344 43.822987 27.11412 43.03321 26.828123 42.390625 C 26.548464 41.754375 26.323015 41.21544 26.171877 40.765625 C 26.124817 40.724895 26.072165 40.714893 25.984377 40.703125 C 25.908344 40.685925 25.7709 40.666473 25.578123 40.671875 C 25.379011 40.678177 25.118168 40.713135 24.796877 40.765625 C 24.474676 40.806355 24.06728 40.87077 23.546877 40.953125 L 22.515623 41.140625 C 21.673923 41.28091 21.057426 41.377106 20.671877 41.453125 C 20.286324 41.540916 20.131144 41.70152 20.171877 41.953125 C 20.177277 41.999275 20.160194 42.028774 20.171877 42.046875 C 20.189026 42.069504 20.203123 42.111664 20.203123 42.140625 C 21.143476 44.70093 22.186377 47.16921 23.296877 49.546875 C 24.395609 51.91983 25.560146 54.279343 26.828123 56.640625 C 26.897816 56.792675 27.091955 56.865677 27.390623 56.859375 C 27.688389 56.847694 27.979628 56.812595 28.265623 56.765625 C 29.288332 56.596287 30.005072 56.462883 30.390623 56.328125 C 30.776178 56.18241 30.939976 56.04487 30.921877 55.921875 C 31.184338 54.478313 31.4166 53.0566 31.609377 51.671875 C 31.796722 50.293484 31.920116 48.926174 31.984377 47.546875 C 32.469482 48.83295 33.027 50.103165 33.640625 51.359375 C 34.24873 52.61559 34.864506 53.882656 35.484375 55.203125 C 35.566826 55.348835 35.75445 55.428177 36.046875 55.421875 C 36.34464 55.410107 36.621822 55.368855 36.890625 55.328125 C 37.9251 55.152542 38.64956 55.019142 39.046875 54.890625 C 39.432423 54.73857 39.596226 54.607464 39.578125 54.484375 C 39.795338 52.474255 39.98176 50.470963 40.109375 48.484375 C 40.72119 50.281807 42.062145 51.49351 44.109375 52.140625 L 43.953125 53.828125 L 47.015625 54.328125 L 47.546875 52.890625 L 55.703125 52.953125 C 55.668724 53.250885 55.68959 53.528072 55.765625 53.796875 C 55.782818 53.872894 55.812317 53.945934 55.859375 54.015625 C 56.02862 54.343163 56.27632 54.541977 56.609375 54.640625 C 57.61398 54.927525 58.447308 54.66439 59.078125 53.828125 C 59.130627 53.22627 58.995457 52.639168 58.703125 52.078125 C 60.378372 51.10248 61.47121 49.82856 61.984375 48.265625 C 61.914684 49.634064 61.886524 50.75953 61.859375 51.609375 C 61.836754 52.532528 61.832703 53.200382 61.890625 53.609375 C 61.937683 54.01846 62.0597 54.230324 62.234375 54.265625 C 62.433395 54.328976 62.6313 54.360756 62.859375 54.390625 C 63.09288 54.419594 63.387264 54.473995 63.703125 54.515625 C 63.982788 54.550022 64.360214 54.607616 64.828125 54.671875 C 65.288795 54.736137 65.74065 54.761578 66.203125 54.796875 C 66.65293 54.831264 67.05214 54.83989 67.390625 54.828125 C 67.73002 54.816357 67.89925 54.755085 67.921875 54.609375 L 68.109375 53.046875 C 69.00447 53.992653 69.68852 55.00521 70.109375 56.109375 C 70.1854 56.27862 70.28841 56.367092 70.453125 56.390625 C 70.52825 56.395126 70.64254 56.40873 70.765625 56.390625 C 71.496 56.308266 72.163765 56.187157 72.765625 56.046875 C 73.361145 55.906593 73.98084 55.75142 74.640625 55.546875 C 74.76371 55.528774 74.81635 55.453503 74.828125 55.359375 C 74.83988 55.271584 74.818115 55.176777 74.765625 55.078125 C 74.42623 54.346844 74.0692 53.677692 73.671875 53.046875 C 73.269135 52.40429 72.88941 51.810856 72.515625 51.296875 C 73.6207 51.02165 74.528435 50.4737 75.234375 49.609375 C 75.94756 48.744053 76.38535 47.56241 76.578125 46.078125 C 76.69488 45.160313 76.59235 44.24714 76.265625 43.359375 C 75.93257 42.47686 75.39592 41.657593 74.671875 40.921875 C 73.95236 40.185165 73.04957 39.56728 71.921875 39.046875 C 70.79418 38.52104 69.48271 38.17172 68.015625 37.984375 C 67.30878 37.896595 66.638725 37.832176 65.984375 37.796875 C 65.32912 37.756145 64.74301 37.756145 64.234375 37.796875 C 63.7375 37.825836 63.326057 37.884815 63.015625 37.984375 C 62.7061 38.083935 62.53915 38.20733 62.515625 38.359375 C 62.497524 38.50509 62.470325 38.72963 62.453125 39.015625 C 62.429596 39.296192 62.41415 39.627785 62.390625 39.984375 C 62.368084 40.3473 62.346226 40.723824 62.328125 41.109375 C 62.321823 41.477737 62.334427 41.799847 62.328125 42.109375 C 62.282875 42.9203 62.242947 43.67572 62.203125 44.390625 C 62.189545 44.32283 62.159634 44.270004 62.140625 44.203125 C 61.56863 42.00023 60.210423 40.586235 58.078125 39.984375 L 64.015625 28.109377 L 63.953125 27.953123 C 62.462505 27.258047 60.887905 27.043888 59.234375 27.265623 L 59.140625 27.390623 L 55.359375 39.015625 L 48.859375 38.453125 C 49.385212 33.421036 49.08854 28.512571 47.984375 23.703123 C 47.972614 23.667835 47.950836 23.646025 47.921875 23.640623 C 47.32352 23.377934 46.752907 23.246693 46.203125 23.265623 z M 45.859375 41.171875 C 47.03956 41.142914 48.06298 41.54121 48.921875 42.359375 C 49.769005 43.165775 50.205418 44.147938 50.234375 45.328125 C 50.264244 46.502884 49.853275 47.53173 49.046875 48.390625 C 48.234135 49.243183 47.258312 49.674164 46.078125 49.703125 C 44.90337 49.73751 43.87452 49.364136 43.015625 48.546875 C 42.15673 47.735046 41.700836 46.72163 41.671875 45.546875 C 41.642914 44.365784 42.041206 43.36909 42.859375 42.515625 C 43.671207 41.663063 44.684616 41.207176 45.859375 41.171875 z M 54.703125 44.796875 C 55.38101 44.779675 55.962585 44.991547 56.453125 45.453125 C 56.94457 45.92013 57.21627 46.49399 57.234375 47.171875 C 57.252476 47.84976 57.014786 48.436768 56.546875 48.921875 C 56.07987 49.412415 55.506912 49.685024 54.828125 49.703125 C 54.15024 49.721226 53.568665 49.483536 53.078125 49.015625 C 52.587585 48.554047 52.346226 47.97476 52.328125 47.296875 C 52.310024 46.61899 52.516464 46.037415 52.984375 45.546875 C 53.45138 45.061768 54.02524 44.814075 54.703125 44.796875 z M 68.984375 46.296875 C 69.18349 46.278774 69.41255 46.299175 69.640625 46.328125 C 70.14836 46.393295 70.55985 46.561615 70.921875 46.859375 C 71.277565 47.16981 71.42272 47.595303 71.359375 48.109375 C 71.27249 48.82255 70.99301 49.34653 70.484375 49.703125 C 69.97664 50.054283 69.30254 50.213505 68.484375 50.171875 L 68.984375 46.296875 z " display="inline" fill="#ffffff" fill-opacity="1" fill-rule="nonzero" stroke="none" stroke-width="1.23500001" visibility="visible"/>
<path color="#000000" d="M 67.203125 59.265625 C 66.59855 59.265625 66.06914 59.37811 65.609375 59.578125 C 65.149605 59.780853 64.765366 60.03355 64.453125 60.359375 C 64.14359 60.687912 63.92491 61.067142 63.765625 61.484375 C 63.60815 61.901604 63.515625 62.32396 63.515625 62.765625 C 63.515625 63.431656 63.619965 64.0075 63.828125 64.484375 C 64.035385 64.96314 64.3411 65.33291 64.703125 65.640625 C 65.06243 65.94653 65.463585 66.18784 65.953125 66.328125 C 66.44276 66.46751 66.96264 66.515625 67.515625 66.515625 C 67.7618 66.515625 68.00449 66.51422 68.234375 66.484375 C 68.46426 66.454506 68.6847 66.43317 68.859375 66.390625 C 69.032234 66.34808 69.16335 66.286865 69.265625 66.234375 C 69.36608 66.184685 69.421875 66.15453 69.421875 66.109375 C 69.44811 65.93913 69.463554 65.721924 69.484375 65.453125 C 69.50429 65.186134 69.52786 64.909424 69.54688 64.640625 C 69.56407 64.373634 69.56902 64.13547 69.578125 63.921875 C 69.58813 63.710094 69.609375 63.575356 69.609375 63.515625 C 69.609375 63.412445 69.59804 63.332176 69.578125 63.296875 C 69.55731 63.263393 69.455734 63.252476 69.328125 63.234375 C 69.25934 63.226173 69.14909 63.206825 68.984375 63.203125 L 68.609375 63.203125 C 68.45551 63.203125 68.289055 63.199524 68.140625 63.203125 C 67.992195 63.208527 67.85746 63.244804 67.734375 63.265625 C 67.61129 63.288246 67.52553 63.293736 67.453125 63.328125 C 67.38072 63.36253 67.328125 63.400635 67.328125 63.453125 C 67.328125 63.488422 67.32453 63.539204 67.328125 63.578125 C 67.33263 63.61523 67.35027 63.671024 67.359375 63.734375 C 67.36658 63.798634 67.35397 63.884815 67.359375 63.984375 C 67.362976 64.08665 67.390625 64.20552 67.390625 64.359375 L 67.390625 64.609375 C 67.390625 64.69536 67.37747 64.76524 67.359375 64.859375 C 67.0779 64.76434 66.87151 64.63275 66.765625 64.421875 C 66.65974 64.211 66.609375 64.00233 66.609375 63.796875 C 66.609375 63.66836 66.63296 63.517757 66.671875 63.359375 C 66.708984 63.201897 66.76524 63.062157 66.859375 62.921875 C 66.95441 62.779785 67.09819 62.641006 67.265625 62.546875 C 67.43034 62.456364 67.637215 62.421875 67.890625 62.421875 C 68.12775 62.421875 68.32733 62.45089 68.453125 62.484375 C 68.579834 62.517864 68.67149 62.515625 68.765625 62.515625 C 68.89414 62.515625 68.953125 62.457542 68.953125 62.328125 C 68.953125 62.252094 68.96213 62.1278 68.953125 61.953125 C 68.94402 61.780266 68.93455 61.57659 68.921875 61.359375 C 68.9092 61.142258 68.8802 60.933006 68.859375 60.703125 C 68.83856 60.47333 68.826744 60.27181 68.79688 60.078125 C 68.767006 59.88707 68.71079 59.70664 68.671875 59.578125 C 68.63296 59.449604 68.62067 59.400623 68.578125 59.390625 C 68.42608 59.365276 68.222885 59.323124 68.015625 59.296875 C 67.80566 59.273342 67.53347 59.265625 67.203125 59.265625 z M 30.890623 59.359375 C 30.75034 59.355675 30.611988 59.383427 30.484377 59.390625 C 30.356762 59.398724 30.256945 59.419724 30.171877 59.453125 C 30.086803 59.48751 30.046877 59.531536 30.046877 59.609375 C 30.030584 59.83021 30.020124 60.028927 30.015623 60.234375 C 30.011126 60.43892 30.015623 60.66074 30.015623 60.890625 C 30.015623 61.139515 30.011126 61.412125 30.015623 61.671875 C 30.020124 61.93162 30.029676 62.1757 30.046877 62.421875 C 30.046877 62.550396 30.106766 62.609375 30.234377 62.609375 L 30.703123 62.609375 L 31.046877 62.609375 C 31.157291 62.609375 31.271158 62.621616 31.390623 62.640625 C 31.450356 63.202663 31.512486 63.77833 31.546877 64.359375 C 31.581264 64.937706 31.598083 65.53381 31.640623 66.171875 C 31.649626 66.297676 31.677786 66.38296 31.703123 66.421875 C 31.728464 66.45898 31.768394 66.49661 31.828123 66.515625 C 31.998274 66.53191 32.172028 66.53777 32.359375 66.546875 C 32.546722 66.55588 32.760403 66.546875 33.015625 66.546875 C 33.262703 66.546875 33.464565 66.54907 33.609375 66.515625 C 33.75418 66.48023 33.842175 66.42216 33.859375 66.328125 C 33.893764 66.01217 33.918736 65.6639 33.953125 65.328125 C 33.98753 64.99054 34.01701 64.68157 34.046875 64.359375 C 34.076744 64.03446 34.118904 63.70878 34.140625 63.421875 C 34.16145 63.13045 34.162773 62.89452 34.171875 62.671875 L 35.328125 62.671875 C 35.396004 62.671875 35.427784 62.646484 35.453125 62.609375 C 35.479378 62.570457 35.506523 62.510143 35.515625 62.453125 C 35.54097 61.933624 35.546875 61.43142 35.546875 60.921875 C 35.546875 60.69923 35.551376 60.491463 35.546875 60.296875 C 35.542377 60.101383 35.532825 59.892708 35.515625 59.671875 C 35.498425 59.56055 35.438545 59.471226 35.328125 59.453125 C 34.672867 59.401535 34.014065 59.396927 33.328125 59.390625 C 32.642097 59.386227 31.946224 59.390625 31.265623 59.390625 C 31.155209 59.390625 31.030909 59.364777 30.890623 59.359375 z M 41.078125 59.359375 C 40.993053 59.359375 40.866512 59.387024 40.734375 59.390625 C 40.603058 59.396027 40.486988 59.404675 40.359375 59.421875 C 40.23176 59.439976 40.136475 59.447266 40.046875 59.484375 C 39.957275 59.523296 39.890625 59.571938 39.890625 59.640625 L 39.890625 63.140625 C 39.813698 63.047405 39.776917 62.984375 39.734375 62.984375 C 39.70813 62.984375 39.664585 62.994804 39.609375 63.015625 C 39.554165 63.03635 39.484745 63.07185 39.390625 63.140625 C 39.450356 62.554054 39.476276 61.973003 39.484375 61.359375 C 39.492577 60.747475 39.484375 60.158314 39.484375 59.640625 C 39.484375 59.50405 39.432636 59.453125 39.296875 59.453125 C 39.152065 59.453125 38.92433 59.447723 38.609375 59.453125 C 38.29532 59.45673 37.92471 59.453125 37.515625 59.453125 C 37.413353 59.453125 37.276382 59.478973 37.140625 59.484375 C 37.004868 59.487976 36.888714 59.497616 36.765625 59.515625 C 36.641632 59.533825 36.538197 59.539204 36.453125 59.578125 C 36.368053 59.617046 36.328125 59.667404 36.328125 59.734375 C 36.336327 59.981457 36.323624 60.339344 36.328125 60.765625 C 36.332623 61.191902 36.365284 61.683247 36.390625 62.296875 L 36.546875 66.140625 C 36.546875 66.19312 36.548275 66.235756 36.578125 66.265625 C 36.60799 66.294586 36.700512 66.30911 36.828125 66.328125 C 36.955734 66.342606 37.1576 66.35397 37.421875 66.359375 C 37.68615 66.362976 38.038666 66.359375 38.515625 66.359375 L 38.765625 66.359375 C 38.842556 66.359375 38.885246 66.342606 38.953125 66.328125 C 39.021904 66.31637 39.098083 66.32133 39.140625 66.296875 C 39.182255 66.27064 39.195023 66.223465 39.203125 66.171875 C 39.23751 65.95104 39.265625 65.756424 39.265625 65.578125 C 39.265625 65.39983 39.271526 65.20297 39.296875 65.015625 C 39.347553 65.11608 39.416496 65.171875 39.484375 65.171875 C 39.501575 65.171875 39.545116 65.14829 39.609375 65.109375 C 39.673634 65.07046 39.782974 64.967026 39.953125 64.796875 C 39.970325 64.908195 39.993904 65.0334 40.015625 65.171875 C 40.037346 65.31126 40.052784 65.4709 40.078125 65.609375 C 40.104366 65.75328 40.119804 65.864006 40.140625 65.984375 C 40.16145 66.102936 40.185925 66.196846 40.203125 66.265625 C 40.22031 66.32265 40.258865 66.377045 40.296875 66.390625 C 40.334885 66.40238 40.362144 66.41277 40.421875 66.421875 C 40.75403 66.44993 41.137314 66.44402 41.515625 66.453125 C 41.89394 66.46223 42.1979 66.484375 42.453125 66.484375 C 42.56354 66.484375 42.623425 66.42858 42.640625 66.328125 C 42.708504 65.747986 42.76249 65.23402 42.796875 64.796875 C 42.831264 64.35883 42.842175 63.93424 42.859375 63.546875 C 42.875664 63.158607 42.886124 62.80199 42.890625 62.421875 C 42.895126 62.043564 42.921875 61.60039 42.921875 61.140625 L 42.921875 59.640625 C 42.921875 59.580982 42.837498 59.552734 42.671875 59.515625 C 42.50625 59.476704 42.317535 59.442696 42.109375 59.421875 C 41.901215 59.401054 41.684395 59.396027 41.484375 59.390625 C 41.285267 59.387024 41.155056 59.359375 41.078125 59.359375 z M 53.890625 59.359375 C 53.680656 59.362976 53.48789 59.366177 53.359375 59.390625 C 53.23176 59.41867 53.165485 59.459515 53.109375 59.515625 C 53.051456 59.571735 53.015625 59.665165 53.015625 59.765625 C 52.997524 60.082394 52.99427 60.399506 52.984375 60.734375 C 52.975273 61.070152 52.953125 61.412174 52.953125 61.734375 C 52.953125 62.507195 52.985756 63.26115 53.015625 63.984375 C 53.045498 64.70842 53.065117 65.41749 53.109375 66.140625 C 53.133896 66.209404 53.213184 66.268394 53.328125 66.328125 C 53.443066 66.38613 53.58233 66.44183 53.734375 66.484375 C 53.888233 66.52609 54.0366 66.557304 54.203125 66.578125 C 54.36694 66.598946 54.51211 66.609375 54.640625 66.609375 C 55.13569 66.609375 55.6084 66.53544 56.078125 66.390625 C 56.54513 66.24582 56.966103 66.014465 57.328125 65.703125 C 57.691055 65.3936 57.982292 65.02664 58.203125 64.546875 C 58.42396 64.06638 58.546875 63.46752 58.546875 62.796875 C 58.546875 62.284615 58.449356 61.81781 58.265625 61.390625 C 58.08371 60.964344 57.82015 60.599163 57.484375 60.296875 C 57.14679 59.996403 56.74621 59.775 56.265625 59.609375 C 55.78505 59.443745 55.23615 59.359375 54.640625 59.359375 C 54.33472 59.359375 54.096073 59.353973 53.890625 59.359375 z M 60.734375 59.484375 C 60.274605 59.484375 59.93439 59.514297 59.734375 59.546875 C 59.53346 59.583984 59.453125 59.676075 59.453125 59.828125 C 59.453125 60.942245 59.471275 62.017403 59.515625 63.078125 C 59.558167 64.13975 59.603096 65.15636 59.671875 66.109375 C 59.686363 66.25418 59.716755 66.33542 59.765625 66.390625 C 59.809975 66.44673 59.890244 66.47717 59.984375 66.484375 C 60.18077 66.50247 60.408504 66.532394 60.671875 66.546875 C 60.93525 66.558685 61.176605 66.546875 61.421875 66.546875 C 61.509663 66.546875 61.6131 66.56902 61.734375 66.578125 C 61.852936 66.58723 61.99443 66.58723 62.109375 66.578125 C 62.22432 66.56902 62.308266 66.53053 62.390625 66.484375 C 62.470264 66.43649 62.515625 66.367805 62.515625 66.265625 C 62.515625 66.04479 62.510223 65.73268 62.515625 65.328125 C 62.519222 64.92538 62.527863 64.47944 62.546875 63.984375 C 62.589417 62.589687 62.627956 61.53635 62.640625 60.859375 C 62.653297 60.182396 62.662876 59.830364 62.671875 59.796875 C 62.671875 59.720856 62.641865 59.67411 62.609375 59.640625 C 62.57589 59.607136 62.516006 59.565884 62.421875 59.546875 C 62.165745 59.513393 61.89356 59.494373 61.609375 59.484375 C 61.32338 59.475273 61.033043 59.484375 60.734375 59.484375 z M 47.109375 59.515625 C 46.428776 59.515625 45.883022 59.526054 45.453125 59.546875 C 45.023228 59.566795 44.672573 59.597183 44.421875 59.640625 C 44.17027 59.684975 44.016006 59.741665 43.921875 59.796875 C 43.828655 59.854805 43.765625 59.908344 43.765625 59.984375 C 43.765625 60.043205 43.784206 60.224625 43.796875 60.484375 C 43.809544 60.74413 43.83855 61.04718 43.859375 61.421875 C 43.881096 61.79476 43.896538 62.221157 43.921875 62.671875 C 43.948124 63.1244 43.985756 63.578484 44.015625 64.015625 C 44.045486 64.45277 44.074986 64.8462 44.109375 65.234375 C 44.143764 65.622734 44.168736 65.95695 44.203125 66.203125 C 44.211224 66.29543 44.237144 66.369385 44.296875 66.421875 C 44.356613 66.473465 44.460945 66.49571 44.609375 66.515625 C 44.7578 66.53554 44.952423 66.54057 45.203125 66.546875 C 45.45473 66.550476 45.803185 66.546875 46.203125 66.546875 C 46.636738 66.546875 46.98868 66.55955 47.265625 66.546875 C 47.542572 66.5333 47.75996 66.51063 47.921875 66.484375 C 48.082973 66.45904 48.201366 66.420494 48.265625 66.390625 C 48.329884 66.36076 48.351276 66.33942 48.359375 66.296875 C 48.385624 66.12763 48.412773 65.94021 48.421875 65.765625 C 48.430077 65.59186 48.421875 65.41072 48.421875 65.171875 C 48.421875 65.103004 48.41145 65.035965 48.390625 64.984375 C 48.369816 64.932785 48.319447 64.890625 48.234375 64.890625 C 48.02169 64.890625 47.8384 64.908295 47.671875 64.921875 C 47.50625 64.933685 47.32797 64.953125 47.140625 64.953125 L 46.921875 64.953125 C 46.853096 64.953125 46.802258 64.93816 46.734375 64.921875 C 46.734375 64.82865 46.729874 64.70983 46.734375 64.609375 C 46.737976 64.5071 46.757526 64.435394 46.765625 64.359375 L 47.265625 64.359375 C 47.84486 64.359375 48.180546 64.283195 48.265625 64.171875 C 48.308155 64.10129 48.370285 63.998276 48.421875 63.828125 C 48.472553 63.657974 48.498425 63.519142 48.515625 63.390625 C 48.515625 63.21323 48.444824 63.109375 48.265625 63.109375 C 48.188698 63.109375 48.111137 63.103973 48.046875 63.109375 C 47.983524 63.112076 47.899143 63.131523 47.796875 63.140625 C 47.694603 63.146927 47.548103 63.162773 47.390625 63.171875 C 47.233147 63.179073 47.04305 63.164677 46.796875 63.171875 L 46.796875 62.921875 C 46.796875 62.81055 46.787773 62.708504 46.796875 62.640625 C 47.281982 62.640625 47.64216 62.654675 47.859375 62.671875 C 48.076584 62.68811 48.233994 62.703125 48.328125 62.703125 C 48.361614 62.703125 48.402447 62.623276 48.453125 62.453125 C 48.503803 62.28479 48.566833 62.046192 48.609375 61.765625 C 48.651917 61.48325 48.673256 61.155277 48.703125 60.796875 C 48.732086 60.437572 48.734375 60.07782 48.734375 59.703125 C 48.734375 59.575516 48.676205 59.509323 48.546875 59.515625 L 47.109375 59.515625 z M 55.515625 63.046875 C 56.08762 63.104794 56.359375 63.42734 56.359375 64.015625 C 56.359375 64.16043 56.323544 64.29245 56.265625 64.421875 C 56.205887 64.547676 56.131947 64.64115 56.046875 64.734375 C 55.963615 64.82668 55.873325 64.89702 55.765625 64.953125 C 55.66064 65.00833 55.57035 65.03967 55.484375 65.046875 C 55.475273 64.93736 55.453125 64.84389 55.453125 64.734375 L 55.453125 64.390625 C 55.453125 63.93991 55.492096 63.497593 55.515625 63.046875 z " display="inline" fill="#8fd900" fill-opacity="1" fill-rule="nonzero" stroke="none" stroke-width="1.23500001" visibility="visible"/>
<path color="#000000" d="M 45.953125 42.640625 C 44.477077 42.640625 43.296875 43.852077 43.296875 45.328125 C 43.296875 46.804173 44.477077 47.984375 45.953125 47.984375 C 47.429173 47.984375 48.640625 46.804173 48.640625 45.328125 C 48.640625 43.852077 47.429173 42.640625 45.953125 42.640625 z " display="inline" fill="#8fd900" fill-opacity="1" fill-rule="nonzero" stroke="none" stroke-width="1.23500001" visibility="visible"/>
</svg>
