<?xml version="1.0" encoding="UTF-8"?>
<svg xmlns="http://www.w3.org/2000/svg" xmlns:xlink="http://www.w3.org/1999/xlink" baseProfile="tiny" contentScriptType="text/ecmascript" contentStyleType="text/css" height="96px" preserveAspectRatio="xMidYMid meet" version="1.1" viewBox="0 0 96 96" width="96px" x="0px" y="0px" zoomAndPan="magnify">
<defs>
<linearGradient id="linearGradient3806">
<stop offset="0" stop-color="#ffffff" stop-opacity="1"/>
<stop offset="1" stop-color="#ffffff" stop-opacity="0.78431374"/>
</linearGradient>
<linearGradient id="linearGradient3782">
<stop offset="0" stop-color="#1bab45" stop-opacity="1"/>
<stop offset="1" stop-color="#1b8e45" stop-opacity="1"/>
</linearGradient>
<linearGradient gradientTransform="matrix(0,1,-1,0,96.023001,-0.0230015)" gradientUnits="userSpaceOnUse" id="linearGradient3788" x1="8.023003" x2="88.023" y1="48" y2="48">
<stop offset="0" stop-color="#1bab45" stop-opacity="1"/>
<stop offset="1" stop-color="#1b8e45" stop-opacity="1"/>
</linearGradient>
<linearGradient gradientUnits="userSpaceOnUse" id="linearGradient3812" x1="47.897469" x2="47.897469" y1="22.593603" y2="70.503868">
<stop offset="0" stop-color="#ffffff" stop-opacity="1"/>
<stop offset="1" stop-color="#ffffff" stop-opacity="0.78431374"/>
</linearGradient>
<linearGradient gradientUnits="userSpaceOnUse" id="linearGradient3816" x1="47.897469" x2="47.897469" y1="22.593603" y2="70.503868">
<stop offset="0" stop-color="#1bab45" stop-opacity="1"/>
<stop offset="1" stop-color="#1b8e45" stop-opacity="1"/>
</linearGradient>
</defs>
<path d="M 88.0 48.977 C 88.0 78.612 77.637 88.977005 48.0 88.977005 C 18.365 88.977005 8.0 78.61201 8.0 48.977005 C 8.0 19.344006 18.365 8.977005 48.0 8.977005 C 77.637 8.977 88.0 19.343 88.0 48.977 z " fill-opacity="0.4"/>
<linearGradient gradientTransform="matrix(1 0 0 1 -805.3984 -1394.6016)" gradientUnits="userSpaceOnUse" x1="853.4219" x2="853.4219" y1="1410.5244" y2="1478.8799">
<stop offset="0" stop-color="#6fa519"/>
<stop offset="1" stop-color="#064c00"/>
</linearGradient>
<path d="M 48.023 88.0 C 18.39 88.0 8.022999 77.637 8.022999 48.000004 C 8.022999 18.365004 18.39 8.000004 48.023 8.000004 C 77.657 8.000004 88.022995 18.365004 88.022995 48.000004 C 88.022995 77.637 77.657 88.0 48.022995 88.0 z " fill="url(#linearGradient3788)" fill-opacity="1"/>
<linearGradient gradientTransform="matrix(1 0 0 1 -805.3984 -1394.6016)" gradientUnits="userSpaceOnUse" id="SVGID_2_" x1="853.376" x2="853.376" y1="1402.8516" y2="1482.0972">
<stop offset="0" stop-color="#ffffff"/>
<stop offset="1" stop-color="#ffffff" stop-opacity="0"/>
</linearGradient>
<path d="M 47.977 8.0 C 18.342 8.0 7.977001 18.366 7.977001 48.0 C 7.977001 77.633 18.342 88.0 47.977 88.0 C 77.613 88.0 87.977005 77.633 87.977005 48.0 C 87.977 18.366 77.613 8.0 47.977 8.0 z M 47.977 87.0 C 18.819 87.0 8.977001 77.158 8.977001 48.0 C 8.977001 18.842005 18.819 9.0 47.977 9.0 C 77.135 9.0 86.977005 18.842 86.977005 48.0 C 86.977005 77.158005 77.135 87.0 47.977 87.0 z " fill="url(#SVGID_2_)" fill-opacity="0.25"/>
<rect fill="none" height="96" width="96" x="-0.023"/>
<path d="M 71.703 34.17 C 71.649 34.17 71.57 34.170998 71.566 34.178997 C 71.47701 34.173 71.388 34.17 71.3 34.17 L 70.755005 34.17 L 70.755005 30.91299 C 70.755005 26.089993 66.177 21.207993 57.425003 21.207993 L 39.434998 21.207993 C 30.683998 21.207993 26.103992 26.089993 26.103992 30.91299 L 26.103992 34.17 L 25.746992 34.17 C 25.646992 34.17 25.548992 34.174 25.452991 34.183 C 25.355991 34.175 25.257992 34.17 25.159992 34.17 C 23.081993 34.17 21.390993 35.858994 21.390993 37.935997 L 21.390993 43.829 C 21.390993 45.906 23.080992 47.595997 25.159992 47.595997 C 25.483992 47.595997 25.798992 47.555996 26.104992 47.476997 L 26.104992 65.036995 C 26.104992 66.76599 27.07346 68.43758 28.461992 69.252 C 39.945435 75.987465 56.917534 75.98745 68.400986 69.252 C 69.78951 68.43758 70.758 66.768 70.758 65.037 L 70.758 47.477005 C 71.064 47.556004 71.379005 47.596004 71.702995 47.596004 C 73.781 47.596004 75.47099 45.907005 75.47099 43.829006 L 75.47099 37.936005 C 75.47 35.86 73.781 34.17 71.703 34.17 z M 33.639004 37.086 C 33.639004 36.708 33.935005 36.400997 34.300003 36.400997 L 62.565002 36.400997 C 62.928 36.400997 63.224003 36.707996 63.224003 37.086 L 63.224003 50.075996 L 33.639004 50.075996 z M 59.33 55.43599 C 19.776669 99.798645 39.553333 77.617325 59.33 55.43599 z " fill-opacity="0.07000002" stroke-opacity="0.07000002"/>
<path d="M 71.703 34.67 C 71.662 34.67 71.602005 34.67 71.531006 34.677998 C 71.45501 34.672997 71.37701 34.67 71.30201 34.67 L 70.25601 34.67 L 70.25601 30.91299 C 70.25601 26.338993 65.85001 21.707993 57.42601 21.707993 L 39.434998 21.707993 C 31.011993 21.707993 26.603992 26.338995 26.603992 30.91299 L 26.603992 34.67 L 25.746992 34.67 C 25.646992 34.67 25.548992 34.675 25.452991 34.684998 C 25.355991 34.675 25.257992 34.67 25.158989 34.67 C 23.356989 34.67 21.889992 36.135 21.889992 37.935997 L 21.889992 43.829 C 21.889992 45.629997 23.355991 47.095997 25.158993 47.095997 C 25.667992 47.095997 26.158993 46.979996 26.603992 46.76 L 26.603992 65.037994 C 26.603992 66.687004 27.632832 68.211334 28.960993 68.963 C 40.257088 75.35595 56.60449 75.35701 67.89999 68.963 C 69.22793 68.211296 70.25599 66.689995 70.25599 65.037994 L 70.25599 46.759003 C 70.70099 46.979004 71.19399 47.095 71.70299 47.095 C 73.50399 47.095 74.969986 45.63 74.969986 43.828003 L 74.969986 37.935 C 74.97 36.136 73.504 34.67 71.703 34.67 z M 33.139004 37.086 C 33.139004 36.433 33.660004 35.900997 34.300003 35.900997 L 62.565002 35.900997 C 63.206 35.900997 63.724003 36.433 63.724003 37.086 L 63.724003 50.575996 L 33.139004 50.575996 z M 59.33 56.93599 C 19.776669 100.96532 39.553333 78.95065 59.33 56.93599 z M 61.391006 59.466 C 20.463669 83.822 40.927338 71.644 61.391006 59.466 z " fill-opacity="0.1" stroke-opacity="0.1"/>
<path d="M 71.703 35.17 C 71.668 35.17 71.611 35.17 71.545006 35.181 C 71.46501 35.174 71.383 35.17 71.30201 35.17 L 69.75601 35.17 L 69.75601 30.912994 C 69.75601 26.586994 65.52201 22.207994 57.42601 22.207994 L 39.435 22.207994 C 31.339996 22.207994 27.103996 26.586994 27.103996 30.912994 L 27.103996 35.17 L 25.746996 35.17 C 25.645996 35.17 25.548996 35.177 25.453997 35.188 C 25.356997 35.177 25.258995 35.17 25.159996 35.17 C 23.633995 35.17 22.390997 36.411 22.390997 37.935997 L 22.390997 43.829 C 22.390997 45.354 23.632996 46.595997 25.159996 46.595997 C 25.916996 46.595997 26.604996 46.289997 27.104996 45.795 L 27.104996 65.037994 C 27.104996 66.615 28.197794 67.96539 29.461996 68.649994 C 40.582455 74.67204 56.28053 74.67204 67.400986 68.65 C 68.66519 67.9654 69.758 66.615 69.758 65.038 L 69.758 45.79501 C 70.258 46.29 70.94601 46.596004 71.702995 46.596004 C 73.228 46.596004 74.47099 45.355003 74.47099 43.829006 L 74.47099 37.936005 C 74.47 36.411 73.229 35.17 71.703 35.17 z M 37.121 60.622 C 37.121 61.531 36.379997 62.271 35.469994 62.271 C 34.559 62.271 33.816994 61.531 33.816994 60.622 C 33.816994 59.709003 34.55899 58.966003 35.469994 58.966003 C 36.379 58.966 37.121 59.709 37.121 60.622 z M 63.041 60.622 C 63.041 61.531 62.301 62.271 61.391 62.271 C 60.482 62.271 59.743 61.531 59.743 60.622 C 59.743 59.709003 60.482 58.966003 61.391 58.966003 C 62.301 58.966 63.041 59.709 63.041 60.622 z M 32.639 37.086 C 32.639 36.157 33.384 35.400997 34.3 35.400997 L 62.565 35.400997 C 63.48 35.400997 64.224 36.157 64.224 37.086 L 64.224 51.075996 L 32.639 51.075996 z " fill-opacity="0.15" stroke-opacity="0.15"/>
<path d="M 71.703 35.67 C 71.647 35.67 71.594 35.675 71.597 35.69 C 71.5 35.677 71.401 35.67 71.302 35.67 L 69.256004 35.67 L 69.256004 30.912994 C 69.256004 26.835 65.193 22.707994 57.426003 22.707994 L 39.435 22.707994 C 31.668 22.707994 27.603996 26.835 27.603996 30.912994 L 27.603996 35.67 L 25.746996 35.67 C 25.645996 35.67 25.548996 35.678997 25.454996 35.692 C 25.357996 35.678 25.258995 35.67 25.159996 35.67 C 23.908997 35.67 22.890997 36.686993 22.890997 37.935997 L 22.890997 43.829 C 22.890997 45.079 23.908997 46.095997 25.159996 46.095997 C 26.409996 46.095997 27.425997 45.079 27.425997 43.829 L 27.425997 38.435997 L 27.604998 38.435997 L 27.604998 65.036995 C 27.604998 66.52699 28.765957 67.69473 29.961998 68.30699 C 40.9224 73.917656 55.9406 73.917656 66.901 68.30699 C 68.09704 67.69473 69.258 66.52799 69.258 65.036995 L 69.258 38.436996 L 69.436005 38.436996 L 69.436005 43.83 C 69.436005 45.08 70.454 46.096996 71.706 46.096996 C 72.956 46.096996 73.973 45.08 73.973 43.83 L 73.973 37.936996 C 73.97 36.687 72.953 35.67 71.703 35.67 z M 37.621 60.622 C 37.621 61.809 36.656 62.771 35.469994 62.771 C 34.282993 62.771 33.316994 61.806 33.316994 60.622 C 33.316994 59.434 34.282993 58.466003 35.469994 58.466003 C 36.655 58.466 37.621 59.434 37.621 60.622 z M 63.541 60.622 C 63.541 61.809 62.576 62.771 61.391 62.771 C 60.205997 62.771 59.243 61.806 59.243 60.622 C 59.243 59.434 60.206 58.466003 61.391 58.466003 C 62.578 58.466 63.541 59.434 63.541 60.622 z M 32.139 37.086 C 32.139 35.880997 33.109 34.900997 34.3 34.900997 L 62.565 34.900997 C 63.754 34.900997 64.724 35.880997 64.724 37.086 L 64.724 51.575996 L 32.139 51.575996 z " fill-opacity="0.15" stroke-opacity="0.15"/>
<path d="M 71.703 35.17 C 71.64401 35.17 71.59001 35.182 71.531006 35.185997 C 71.45701 35.176 71.379005 35.17 71.30201 35.17 L 68.75601 35.17 L 68.75601 34.580994 L 68.75601 29.912994 C 68.75601 26.173994 64.930016 22.207994 57.42601 22.207994 L 47.93 22.207994 L 47.85 22.207994 L 39.434 22.207994 C 31.928991 22.207994 28.102991 26.173994 28.102991 29.912994 L 28.102991 34.580994 L 28.102991 35.17 L 25.745993 35.17 C 25.644993 35.17 25.549994 35.182 25.455992 35.198 C 25.357992 35.182 25.258991 35.17 25.157991 35.17 C 24.18399 35.17 23.388992 35.963997 23.388992 36.935997 L 23.388992 42.829 C 23.388992 43.801 24.183992 44.595997 25.157991 44.595997 C 26.129992 44.595997 26.923994 43.801 26.923994 42.829 L 26.923994 36.935997 L 28.102997 36.935997 L 28.102997 56.651997 L 28.102997 64.036995 C 28.102997 65.45799 29.33763 66.3914 30.459995 66.923996 C 41.28294 72.05978 55.576035 72.05976 66.39899 66.923996 C 67.52136 66.3914 68.756 65.45799 68.756 64.036995 L 68.756 56.651993 L 68.756 36.937 L 69.934 36.937 L 69.934 42.83 C 69.934 43.802 70.729 44.597 71.704 44.597 C 72.674995 44.597 73.47099 43.802 73.47099 42.83 L 73.47099 36.937 C 73.47 35.964 72.674 35.17 71.703 35.17 z M 37.530006 25.744 L 59.33 25.744 C 60.625 25.744 61.685 26.803 61.685 28.099998 C 61.685 29.395 60.624 30.455996 59.33 30.455996 L 37.530006 30.455996 C 36.236008 30.455996 35.175007 29.394997 35.175007 28.099998 C 35.174 26.803 36.235 25.744 37.530003 25.744 z M 35.469 62.271 C 34.004 62.271 32.815998 61.083 32.815998 59.622 C 32.815998 58.152 34.004 56.966003 35.469 56.966003 C 36.933 56.966003 38.120003 58.154003 38.120003 59.622 C 38.121 61.084003 36.933 62.271 35.469 62.271 z M 61.391003 62.271 C 59.927 62.271 58.743004 61.083 58.743004 59.622 C 58.743004 58.152 59.929005 56.966003 61.391003 56.966003 C 62.853 56.966003 64.041 58.154003 64.041 59.622 C 64.041 61.084003 62.854 62.271 61.391003 62.271 z M 65.224 51.076 L 31.639 51.076 L 31.639 36.086 C 31.639 34.611 32.836 33.400997 34.3 33.400997 L 62.565 33.400997 C 64.025 33.400997 65.224 34.610996 65.224 36.086 z " fill="url(#linearGradient3816)" fill-opacity="1.0" stroke="none" stroke-opacity="1"/>
<path d="M 71.703 35.17 C 71.64401 35.17 71.59001 35.182 71.531006 35.185997 C 71.45701 35.176 71.379005 35.17 71.30201 35.17 L 68.75601 35.17 L 68.75601 34.580994 L 68.75601 29.912994 C 68.75601 26.173994 64.930016 22.207994 57.42601 22.207994 L 47.93 22.207994 L 47.85 22.207994 L 39.434 22.207994 C 31.928991 22.207994 28.102991 26.173994 28.102991 29.912994 L 28.102991 34.580994 L 28.102991 35.17 L 25.745993 35.17 C 25.644993 35.17 25.549994 35.182 25.455992 35.198 C 25.357992 35.182 25.258991 35.17 25.157991 35.17 C 24.18399 35.17 23.388992 35.963997 23.388992 36.935997 L 23.388992 42.829 C 23.388992 43.801 24.183992 44.595997 25.157991 44.595997 C 26.129992 44.595997 26.923994 43.801 26.923994 42.829 L 26.923994 36.935997 L 28.102997 36.935997 L 28.102997 56.651997 L 28.102997 64.036995 C 28.102997 65.45799 29.33763 66.3914 30.459995 66.923996 C 41.28294 72.05978 55.576035 72.05976 66.39899 66.923996 C 67.52136 66.3914 68.756 65.45799 68.756 64.036995 L 68.756 56.651993 L 68.756 36.937 L 69.934 36.937 L 69.934 42.83 C 69.934 43.802 70.729 44.597 71.704 44.597 C 72.674995 44.597 73.47099 43.802 73.47099 42.83 L 73.47099 36.937 C 73.47 35.964 72.674 35.17 71.703 35.17 z M 37.530006 25.744 L 59.33 25.744 C 60.625 25.744 61.685 26.803 61.685 28.099998 C 61.685 29.395 60.624 30.455996 59.33 30.455996 L 37.530006 30.455996 C 36.236008 30.455996 35.175007 29.394997 35.175007 28.099998 C 35.174 26.803 36.235 25.744 37.530003 25.744 z M 35.469 62.271 C 34.004 62.271 32.815998 61.083 32.815998 59.622 C 32.815998 58.152 34.004 56.966003 35.469 56.966003 C 36.933 56.966003 38.120003 58.154003 38.120003 59.622 C 38.121 61.084003 36.933 62.271 35.469 62.271 z M 61.391003 62.271 C 59.927 62.271 58.743004 61.083 58.743004 59.622 C 58.743004 58.152 59.929005 56.966003 61.391003 56.966003 C 62.853 56.966003 64.041 58.154003 64.041 59.622 C 64.041 61.084003 62.854 62.271 61.391003 62.271 z M 65.224 51.076 L 31.639 51.076 L 31.639 36.086 C 31.639 34.611 32.836 33.400997 34.3 33.400997 L 62.565 33.400997 C 64.025 33.400997 65.224 34.610996 65.224 36.086 z " fill="url(#linearGradient3812)" fill-opacity="1" stroke="none" stroke-opacity="1"/>
</svg>
