<?xml version="1.0" encoding="UTF-8"?>
<svg xmlns="http://www.w3.org/2000/svg" xmlns:xlink="http://www.w3.org/1999/xlink" baseProfile="tiny" contentScriptType="text/ecmascript" contentStyleType="text/css" height="96px" preserveAspectRatio="xMidYMid meet" version="1.1" viewBox="0 0 96 96" width="96px" x="0px" y="0px" zoomAndPan="magnify">
<defs>
<linearGradient id="linearGradient3806">
<stop offset="0" stop-color="#ffffff" stop-opacity="1"/>
<stop offset="1" stop-color="#ffffff" stop-opacity="0.78431374"/>
</linearGradient>
<linearGradient>
<stop offset="0" stop-color="#55abe6" stop-opacity="1"/>
<stop offset="1" stop-color="#559ce6" stop-opacity="1"/>
</linearGradient>
<linearGradient gradientTransform="matrix(0,1,-1,0,96,0)" gradientUnits="userSpaceOnUse" id="linearGradient3802" x1="8" x2="88" y1="48" y2="48">
<stop offset="0" stop-color="#55abe6" stop-opacity="1"/>
<stop offset="1" stop-color="#559ce6" stop-opacity="1"/>
</linearGradient>
<linearGradient gradientUnits="userSpaceOnUse" id="linearGradient3812" x1="47.975845" x2="47.975845" y1="27.168207" y2="69.316284">
<stop offset="0" stop-color="#ffffff" stop-opacity="1"/>
<stop offset="1" stop-color="#ffffff" stop-opacity="0.78431374"/>
</linearGradient>
<linearGradient gradientTransform="matrix(0,1,-1,0,96,0)" gradientUnits="userSpaceOnUse" id="linearGradient3816" x1="47.975845" x2="47.975845" y1="27.168207" y2="69.316284">
<stop offset="0" stop-color="#55abe6" stop-opacity="1"/>
<stop offset="1" stop-color="#559ce6" stop-opacity="1"/>
</linearGradient>
</defs>
<path d="M 88.0 49.0 C 88.0 78.633 77.637 89.0 48.0 89.0 C 18.365 89.0 8.0 78.633 8.0 49.0 C 8.0 19.365 18.365 9.0 48.0 9.0 C 77.637 9.0 88.0 19.365 88.0 49.0 z " fill-opacity="0.4"/>
<linearGradient gradientTransform="matrix(1 0 0 1 -601.8008 -498.1992)" gradientUnits="userSpaceOnUse" x1="649.8008" x2="649.8008" xlink:actuate="onLoad" xlink:show="other" xlink:type="simple" y1="506.1992" y2="586.1992">
<stop offset="0" stop-color="#a7b7c2"/>
<stop offset="1" stop-color="#555e70"/>
</linearGradient>
<path d="M 48.0 88.0 C 18.367 88.0 8.0 77.637 8.0 48.0 C 8.0 18.365 18.367 8.0 48.0 8.0 C 77.635 8.0 88.0 18.365 88.0 48.0 C 88.0 77.637 77.635 88.0 48.0 88.0 z " fill="url(#linearGradient3802)" fill-opacity="1"/>
<linearGradient gradientTransform="matrix(1 0 0 1 -601.8008 -498.1992)" gradientUnits="userSpaceOnUse" id="SVGID_2_" x1="649.8008" x2="649.8008" xlink:actuate="onLoad" xlink:show="other" xlink:type="simple" y1="506.4531" y2="585.6982">
<stop offset="0" stop-color="#ffffff"/>
<stop offset="1" stop-color="#ffffff" stop-opacity="0"/>
</linearGradient>
<path d="M 48.0 8.0 C 18.365 8.0 8.0 18.365 8.0 48.0 C 8.0 77.633 18.365 88.0 48.0 88.0 C 77.637 88.0 88.0 77.633 88.0 48.0 C 88.0 18.365 77.637 8.0 48.0 8.0 z M 48.0 87.0 C 18.842 87.0 9.0 77.158 9.0 48.0 C 9.0 18.842005 18.842 9.0 48.0 9.0 C 77.158005 9.0 87.0 18.842 87.0 48.0 C 87.0 77.158005 77.158 87.0 48.0 87.0 z " fill="url(#SVGID_2_)" fill-opacity="0.25"/>
<rect fill="none" height="96" width="96"/>
<path d="M 49.989 72.225 L 49.989 61.004 L 46.01 61.004 L 46.01 72.225 L 34.531 72.225 C 31.915998 72.225 29.787998 70.097 29.787998 67.480995 L 29.787998 55.846 L 26.731 58.893 L 19.775 51.916 L 30.097 41.624 L 30.097 29.671 L 40.163 29.671 L 40.163 31.591 L 48.005 23.775 L 76.224 51.906 L 69.26 58.89 L 66.211 55.851 L 66.211 67.48 C 66.211 70.096 64.083 72.22401 61.468 72.22401 L 49.989 72.22401 z " fill-opacity="0.05" stroke-opacity="0.05"/>
<path d="M 50.489 71.725 L 50.489 60.504 L 45.51 60.504 L 45.51 71.725 L 34.531 71.725 C 32.190998 71.725 30.287998 69.821 30.287998 67.480995 L 30.287998 54.642 L 26.731998 58.185997 L 20.481998 51.917995 L 30.596998 41.831993 L 30.596998 30.171 L 39.663 30.171 L 39.663 32.795998 L 48.004997 24.481998 L 75.517 51.908997 L 69.258995 58.184 L 65.711 54.648 L 65.711 67.48 C 65.711 69.82 63.808 71.72401 61.468 71.72401 L 50.489 71.72401 z " fill-opacity="0.05" stroke-opacity="0.05"/>
<path d="M 50.989 71.225 L 50.989 60.004 L 45.01 60.004 L 45.01 71.225 L 34.531 71.225 C 32.467 71.225 30.787998 69.545 30.787998 67.480995 L 30.787998 53.438 L 26.732998 57.479 L 21.188995 51.918 L 31.096996 42.04 L 31.096996 30.671 L 39.16299 30.671 L 39.16299 34.0 L 48.004993 25.187 L 74.81 51.908 L 69.258 57.476 L 65.211 53.443 L 65.211 67.48 C 65.211 69.54401 63.532 71.22401 61.468 71.22401 L 50.989 71.22401 z " fill-opacity="0.05" stroke-opacity="0.05"/>
<path d="M 51.489 70.725 L 51.489 59.504 L 44.51 59.504 L 44.51 70.725 L 34.531 70.725 C 32.743 70.725 31.287998 69.27 31.287998 67.480995 L 31.287998 52.977 L 47.983 36.368004 L 48.704 37.056004 L 64.712 52.996 L 64.712 67.48 C 64.712 69.269005 63.256996 70.72401 61.469 70.72401 L 51.489 70.72401 z M 21.896 51.92 L 31.597 42.247 L 31.597 31.171 L 38.663 31.171 L 38.663 35.204 L 48.005 25.892998 L 74.104 51.91 L 69.258 56.769 L 48.996 36.571 L 48.996 36.879 L 47.94 35.65 L 47.004997 36.585003 L 47.004997 36.565 L 26.734 56.771 L 21.896 51.92 z " fill-opacity="0.05" stroke-opacity="0.05"/>
<path d="M 51.989 70.225 L 51.989 59.004 L 44.01 59.004 L 44.01 70.225 L 34.531 70.225 C 33.017998 70.225 31.787998 68.994995 31.787998 67.480995 L 31.787998 53.186 L 47.99 37.066 L 48.358 37.418003 L 64.212 53.205 L 64.212 67.48 C 64.212 68.994 62.982 70.22401 61.469 70.22401 L 51.989 70.22401 z M 22.604 51.92 L 32.098 42.455 L 32.098 31.671 L 38.164 31.671 L 38.164 36.408 L 48.006 26.599 L 73.396 51.91 L 69.256004 56.062 L 48.496 35.367 L 48.496 35.53 L 47.969 34.916 L 47.505997 35.379 L 47.505997 35.362003 L 26.735 56.064 L 22.604 51.92 z " fill-opacity="0.05" stroke-opacity="0.05"/>
<path d="M 48.006 27.305 L 37.664 37.612 L 37.664 32.170998 L 32.598 32.170998 L 32.598 42.662 C 29.432 45.817997 23.311 51.921997 23.311 51.921997 L 26.737 55.358 L 47.99 34.172 L 47.996 34.179 L 47.996 33.808 L 47.999 33.808 L 47.999 34.179 L 48.006 34.172 L 69.256 55.356003 L 72.69 51.913 L 48.006 27.305 z M 47.998 37.778 L 47.995003 37.778 L 47.989 37.772 L 32.288 53.393 L 32.288 67.48 C 32.288 68.714005 33.299 69.72401 34.531 69.72401 L 43.51 69.72401 L 43.51 58.504 L 52.489 58.504 L 52.489 69.725 L 61.468 69.725 C 62.698997 69.725 63.711 68.715 63.711 67.480995 L 63.711 53.412 L 48.004997 37.772 L 47.998 37.778 z " fill-opacity="0.05" stroke-opacity="0.05"/>
<linearGradient gradientTransform="matrix(1 0 0 -1 -300.9004 -120.5996)" gradientUnits="userSpaceOnUse" x1="348.9004" x2="348.9004" xlink:actuate="onLoad" xlink:show="other" xlink:type="simple" y1="-190.1191" y2="-147.6987">
<stop offset="0" stop-color="#d0cbc5"/>
<stop offset="0.5031" stop-color="#fafcef"/>
<stop offset="0.9693" stop-color="#ffffff"/>
<stop offset="1" stop-color="#ffffff"/>
</linearGradient>
<path d="M 48.006 27.099 L 37.664 37.406 L 37.664 31.964998 L 32.598 31.964998 L 32.598 42.455997 C 29.432 45.611996 23.311 51.714996 23.311 51.714996 L 26.737 55.152996 L 47.99 33.966 L 47.996 33.973 L 47.996 33.602 L 47.999 33.602 L 47.999 33.973 L 48.006 33.966 L 69.256 55.151 L 72.69 51.706 L 48.006 27.099 z M 47.998 37.572 L 47.995003 37.572 L 47.989 37.566 L 32.288 53.188 L 32.288 67.274 C 32.288 68.508 33.299 69.520004 34.531 69.520004 L 43.51 69.520004 L 43.51 58.297 L 52.489 58.297 L 52.489 69.52 L 61.468 69.52 C 62.698997 69.52 63.711 68.508 63.711 67.273994 L 63.711 53.205 L 48.006 37.566 L 47.998 37.572 z " fill="url(#linearGradient3816)" fill-opacity="1.0"/>
<path d="M 48.006 27.099 L 37.664 37.406 L 37.664 31.964998 L 32.598 31.964998 L 32.598 42.455997 C 29.432 45.611996 23.311 51.714996 23.311 51.714996 L 26.737 55.152996 L 47.99 33.966 L 47.996 33.973 L 47.996 33.602 L 47.999 33.602 L 47.999 33.973 L 48.006 33.966 L 69.256 55.151 L 72.69 51.706 L 48.006 27.099 z M 47.998 37.572 L 47.995003 37.572 L 47.989 37.566 L 32.288 53.188 L 32.288 67.274 C 32.288 68.508 33.299 69.520004 34.531 69.520004 L 43.51 69.520004 L 43.51 58.297 L 52.489 58.297 L 52.489 69.52 L 61.468 69.52 C 62.698997 69.52 63.711 68.508 63.711 67.273994 L 63.711 53.205 L 48.006 37.566 L 47.998 37.572 z " fill="url(#linearGradient3812)" fill-opacity="1"/>
</svg>
