<?xml version="1.0" encoding="UTF-8"?>
<svg xmlns="http://www.w3.org/2000/svg" xmlns:xlink="http://www.w3.org/1999/xlink" baseProfile="tiny" contentScriptType="text/ecmascript" contentStyleType="text/css" height="96px" preserveAspectRatio="xMidYMid meet" version="1.1" viewBox="0 0 96 96" width="96px" x="0px" y="0px" zoomAndPan="magnify">
<defs>
<linearGradient>
<stop offset="0" stop-color="#ffffff" stop-opacity="1"/>
<stop offset="1" stop-color="#ffffff" stop-opacity="0.78431374"/>
</linearGradient>
<linearGradient>
<stop offset="0" stop-color="#f8953b" stop-opacity="1"/>
<stop offset="1" stop-color="#f87c00" stop-opacity="1"/>
</linearGradient>
<linearGradient>
<stop offset="0" stop-color="#d5f6ff" stop-opacity="1"/>
<stop offset="1" stop-color="#0088aa" stop-opacity="1"/>
</linearGradient>
<linearGradient gradientTransform="matrix(1.0515857,0,0,1.01708,-253.45339,-715.60427)" gradientUnits="userSpaceOnUse" x1="254.83009" x2="358.8096" y1="763.97272" y2="763.97272">
<stop offset="0" stop-color="#f7f8f9"/>
<stop offset="1" stop-color="#d0d1d2"/>
</linearGradient>
<linearGradient gradientTransform="matrix(0.7261569,0,0,0.74770351,-174.61605,-527.27145)" gradientUnits="userSpaceOnUse" x1="254.83009" x2="358.8096" y1="763.97272" y2="763.97272">
<stop offset="0" stop-color="#f7f8f9"/>
<stop offset="1" stop-color="#d0d1d2"/>
</linearGradient>
<linearGradient gradientTransform="matrix(1,0,0,-1,-1.3115644,98.868328)" gradientUnits="userSpaceOnUse" x1="61.075901" x2="34.694302" y1="57.299801" y2="41.540901">
<stop offset="0" stop-color="#ffffff"/>
<stop offset="1" stop-color="#ffffff" stop-opacity="0.2"/>
</linearGradient>
<linearGradient gradientTransform="matrix(1,0,0,-1,1.0534719,96.841079)" gradientUnits="userSpaceOnUse" x1="61.075901" x2="34.694302" y1="57.299801" y2="41.540901">
<stop offset="0" stop-color="#ffffff"/>
<stop offset="1" stop-color="#ffffff" stop-opacity="0.2"/>
</linearGradient>
<linearGradient gradientTransform="matrix(1,0,0,-1,-2.4150126,95.9258)" gradientUnits="userSpaceOnUse" x1="34.720501" x2="60.039902" y1="56.8027" y2="41.976002">
<stop offset="0" stop-color="#ffffff"/>
<stop offset="1" stop-color="#ffffff" stop-opacity="0.2"/>
</linearGradient>
<linearGradient gradientTransform="matrix(1,0,0,-1,-2.5350845,97.20939)" gradientUnits="userSpaceOnUse" x1="34.720501" x2="60.039902" y1="56.8027" y2="41.976002">
<stop offset="0" stop-color="#ffffff"/>
<stop offset="1" stop-color="#ffffff" stop-opacity="0.2"/>
</linearGradient>
<linearGradient gradientTransform="matrix(1,0,0,-1,0.1597,95.9258)" gradientUnits="userSpaceOnUse" x1="63.148201" x2="61.403599" y1="26.3545" y2="22.778099">
<stop offset="0" stop-color="#ffffff"/>
<stop offset="1" stop-color="#a3a3a3"/>
</linearGradient>
<linearGradient gradientTransform="matrix(1,0,0,-1,0.1597,95.9258)" gradientUnits="userSpaceOnUse" x1="63.148201" x2="61.403599" y1="26.3545" y2="22.778099">
<stop offset="0" stop-color="#ffffff"/>
<stop offset="1" stop-color="#a3a3a3"/>
</linearGradient>
<linearGradient gradientTransform="matrix(1,0,0,-1,0.1597,95.9258)" gradientUnits="userSpaceOnUse" x1="62.543701" x2="64.113503" y1="40.8223" y2="37.072102">
<stop offset="0" stop-color="#ffffff"/>
<stop offset="1" stop-color="#a3a3a3"/>
</linearGradient>
<linearGradient gradientTransform="matrix(1,0,0,-1,0.1597,95.9258)" gradientUnits="userSpaceOnUse" x1="62.543701" x2="64.113503" y1="40.8223" y2="37.072102">
<stop offset="0" stop-color="#ffffff"/>
<stop offset="1" stop-color="#a3a3a3"/>
</linearGradient>
<linearGradient gradientTransform="matrix(1,0,0,-1,0.1597,95.9258)" gradientUnits="userSpaceOnUse" x1="45.003201" x2="45.003201" y1="40.209" y2="23.3596">
<stop offset="0" stop-color="#c2de91"/>
<stop offset="1" stop-color="#7b9e56"/>
</linearGradient>
<linearGradient gradientTransform="matrix(1,0,0,-1,0.1597,95.9258)" gradientUnits="userSpaceOnUse" x1="45.003201" x2="45.003201" y1="40.209" y2="23.3596">
<stop offset="0" stop-color="#c2de91"/>
<stop offset="1" stop-color="#7b9e56"/>
</linearGradient>
<linearGradient gradientTransform="matrix(1,0,0,-1,0.1597,95.9258)" gradientUnits="userSpaceOnUse" x1="45.003201" x2="45.003201" y1="40.209" y2="23.3596">
<stop offset="0" stop-color="#c2de91"/>
<stop offset="1" stop-color="#7b9e56"/>
</linearGradient>
<linearGradient gradientTransform="matrix(1,0,0,-1,0.1597,95.9258)" gradientUnits="userSpaceOnUse" x1="45.003201" x2="45.003201" y1="40.209" y2="23.3596">
<stop offset="0" stop-color="#c2de91"/>
<stop offset="1" stop-color="#7b9e56"/>
</linearGradient>
<linearGradient gradientTransform="matrix(1,0,0,-1,0.1597,95.9258)" gradientUnits="userSpaceOnUse" x1="45.003201" x2="45.003201" y1="40.209" y2="23.3596">
<stop offset="0" stop-color="#c2de91"/>
<stop offset="1" stop-color="#7b9e56"/>
</linearGradient>
<linearGradient gradientTransform="matrix(1,0,0,-1,0.1597,95.9258)" gradientUnits="userSpaceOnUse" x1="45.003201" x2="45.003201" y1="40.209" y2="23.3596">
<stop offset="0" stop-color="#c2de91"/>
<stop offset="1" stop-color="#7b9e56"/>
</linearGradient>
<linearGradient gradientTransform="matrix(1,0,0,-1,8.6194701,63.557984)" gradientUnits="userSpaceOnUse" x1="82.677498" x2="82.677498" y1="37.415001" y2="54.1577">
<stop offset="0" stop-color="#ffffff" stop-opacity="0.3"/>
<stop offset="1" stop-color="#ffffff"/>
</linearGradient>
<linearGradient gradientTransform="matrix(1,0,0,-1,-53.620329,92.86676)" gradientUnits="userSpaceOnUse" x1="82.677498" x2="82.677498" y1="37.415001" y2="54.1577">
<stop offset="0" stop-color="#ffffff" stop-opacity="0.3"/>
<stop offset="1" stop-color="#ffffff"/>
</linearGradient>
<linearGradient gradientTransform="matrix(1,0,0,-1,8.6194701,63.557984)" gradientUnits="userSpaceOnUse" x1="82.677498" x2="82.677498" y1="37.415001" y2="54.1577">
<stop offset="0" stop-color="#ffffff" stop-opacity="0.3"/>
<stop offset="1" stop-color="#ffffff"/>
</linearGradient>
<linearGradient gradientTransform="matrix(1,0,0,-1,-15.367455,78.154116)" gradientUnits="userSpaceOnUse" x1="82.677498" x2="82.677498" y1="37.415001" y2="54.1577">
<stop offset="0" stop-color="#ffffff" stop-opacity="0.3"/>
<stop offset="1" stop-color="#ffffff"/>
</linearGradient>
<linearGradient gradientTransform="matrix(1,0,0,-1,8.6194701,63.557984)" gradientUnits="userSpaceOnUse" x1="82.677498" x2="82.677498" y1="37.415001" y2="54.1577">
<stop offset="0" stop-color="#ffffff" stop-opacity="0.3"/>
<stop offset="1" stop-color="#ffffff"/>
</linearGradient>
<linearGradient gradientTransform="matrix(1,0,0,-1,-18.309984,107.94722)" gradientUnits="userSpaceOnUse" x1="82.677498" x2="82.677498" y1="37.415001" y2="54.1577">
<stop offset="0" stop-color="#ffffff" stop-opacity="0.3"/>
<stop offset="1" stop-color="#ffffff"/>
</linearGradient>
<linearGradient gradientTransform="matrix(1,0,0,1.0147106,0,-1.118872)" gradientUnits="userSpaceOnUse" x1="25.749846" x2="83.267105" y1="23.186441" y2="82.169495">
<stop offset="0" stop-color="#d5f6ff" stop-opacity="1"/>
<stop offset="1" stop-color="#0088aa" stop-opacity="1"/>
</linearGradient>
<linearGradient gradientTransform="matrix(1,0,0,-1,-111.07647,38.974359)" gradientUnits="userSpaceOnUse" x1="167.8877" x2="206.12601" y1="-45.7896" y2="-7.5511999">
<stop offset="0" stop-color="#ffffff"/>
<stop offset="1" stop-color="#e6e6e6"/>
</linearGradient>
<linearGradient gradientTransform="matrix(0.7653472,0,0,-0.76412837,-94.891385,27.599019)" gradientUnits="userSpaceOnUse" x1="167.8877" x2="206.12601" y1="-45.7896" y2="-7.5511999">
<stop offset="0" stop-color="#ffffff"/>
<stop offset="1" stop-color="#e6e6e6"/>
</linearGradient>
<linearGradient gradientTransform="matrix(0,1,-1,0,96,0)" gradientUnits="userSpaceOnUse" id="linearGradient3990" x1="8" x2="88" y1="48" y2="48">
<stop offset="0" stop-color="#4155f8" stop-opacity="1"/>
<stop offset="1" stop-color="#233cf7" stop-opacity="1"/>
</linearGradient>
<linearGradient gradientUnits="userSpaceOnUse" x1="48.604347" x2="48.604347" y1="27.84745" y2="69.941635">
<stop offset="0" stop-color="#ffffff" stop-opacity="1"/>
<stop offset="1" stop-color="#ffffff" stop-opacity="0.78431374"/>
</linearGradient>
<linearGradient gradientUnits="userSpaceOnUse" x1="48.604347" x2="48.604347" y1="27.84745" y2="69.941635">
<stop offset="0" stop-color="#ffffff" stop-opacity="1"/>
<stop offset="1" stop-color="#ffffff" stop-opacity="0.78431374"/>
</linearGradient>
<linearGradient gradientTransform="matrix(1.8172693,-2.7688355,2.6152919,1.9238406,-1335.7979,-4240.604)" gradientUnits="userSpaceOnUse" x1="-798.31403" x2="-796.39362" y1="1085.3008" y2="1085.3008">
<stop offset="0" stop-color="#fdfdfe"/>
<stop offset="0.4848" stop-color="#fdfdfe"/>
<stop offset="0.9538" stop-color="#fdfdfe"/>
<stop offset="1" stop-color="#fdfdfe"/>
</linearGradient>
<linearGradient gradientTransform="matrix(0.7196,-1.0964,1.0356,0.7618,-525.3546,-1676.1742)" gradientUnits="userSpaceOnUse" x1="-798.31403" x2="-796.39362" y1="1085.3008" y2="1085.3008">
<stop offset="0" stop-color="#fdfdfe"/>
<stop offset="0.4848" stop-color="#fdfdfe"/>
<stop offset="0.9538" stop-color="#fdfdfe"/>
<stop offset="1" stop-color="#fdfdfe"/>
</linearGradient>
<linearGradient gradientTransform="matrix(1.7791359,-2.7966148,2.6415559,1.8834344,-1327.1457,-4300.0188)" gradientUnits="userSpaceOnUse" x1="-829.68799" x2="-827.97748" y1="1076.9609" y2="1076.9609">
<stop offset="0" stop-color="#fdfdfe" stop-opacity="0.78431374"/>
<stop offset="1" stop-color="#fdfdfe" stop-opacity="1"/>
</linearGradient>
<linearGradient gradientTransform="matrix(0.7045,-1.1074,1.046,0.7458,-521.9285,-1699.7012)" gradientUnits="userSpaceOnUse" x1="-829.68799" x2="-827.97748" y1="1076.9609" y2="1076.9609">
<stop offset="0" stop-color="#fdfdfe" stop-opacity="0.78431374"/>
<stop offset="1" stop-color="#fdfdfe" stop-opacity="1"/>
</linearGradient>
<linearGradient gradientTransform="matrix(1.2611,0,0,1.3351,-614.4789,-1192.0131)" gradientUnits="userSpaceOnUse" x1="504.41019" x2="504.41019" y1="913.26562" y2="906.10162">
<stop offset="0" stop-color="#5f87d9"/>
<stop offset="0.1919" stop-color="#507ac3"/>
<stop offset="0.5315" stop-color="#3a66a1"/>
<stop offset="0.8131" stop-color="#2c5a8c"/>
<stop offset="1" stop-color="#275685"/>
</linearGradient>
<linearGradient gradientTransform="matrix(1.2611,0,0,1.3351,-614.4789,-1192.0131)" gradientUnits="userSpaceOnUse" x1="504.41019" x2="504.41019" y1="914.56842" y2="904.79883">
<stop offset="0" stop-color="#3c3c3c"/>
<stop offset="1" stop-color="#292929"/>
</linearGradient>
<linearGradient gradientTransform="matrix(1.2611,0,0,1.3351,-614.4789,-1192.0131)" gradientUnits="userSpaceOnUse" x1="504.41019" x2="504.41019" y1="914.56842" y2="904.79883">
<stop offset="0" stop-color="#3c3c3c"/>
<stop offset="1" stop-color="#292929"/>
</linearGradient>
<linearGradient gradientTransform="matrix(3.1847669,0,0,3.3716457,-1560.8714,-3017.9092)" gradientUnits="userSpaceOnUse" x1="504.41019" x2="504.41019" y1="913.26562" y2="906.10162">
<stop offset="0" stop-color="#5f87d9"/>
<stop offset="0.1919" stop-color="#507ac3"/>
<stop offset="0.5315" stop-color="#3a66a1"/>
<stop offset="0.8131" stop-color="#2c5a8c"/>
<stop offset="1" stop-color="#275685"/>
</linearGradient>
<linearGradient gradientTransform="matrix(1.7791359,-2.7966148,2.6415559,1.8834344,-1327.1457,-4300.0188)" gradientUnits="userSpaceOnUse" x1="-829.68799" x2="-827.97748" y1="1076.9609" y2="1076.9609">
<stop offset="0" stop-color="#fdfdfe" stop-opacity="0.78431374"/>
<stop offset="1" stop-color="#fdfdfe" stop-opacity="1"/>
</linearGradient>
<linearGradient gradientTransform="matrix(3.6690654,0,0,3.8843623,-1802.7197,-3484.5554)" gradientUnits="userSpaceOnUse" id="linearGradient4089" x1="504.41019" x2="504.41019" y1="913.26562" y2="906.10162">
<stop offset="0" stop-color="#fdfdfe" stop-opacity="0.78431374"/>
<stop offset="1" stop-color="#fdfdfe" stop-opacity="1"/>
</linearGradient>
</defs>
<path d="M 88.0 49.0 C 88.0 78.633 77.637 89.0 48.0 89.0 C 18.365 89.0 8.0 78.633 8.0 49.0 C 8.0 19.365 18.365 9.0 48.0 9.0 C 77.637 9.0 88.0 19.365 88.0 49.0 z " fill-opacity="0.4"/>
<linearGradient gradientUnits="userSpaceOnUse" x1="47.9995" x2="47.9995" y1="8" y2="88.0005">
<stop offset="0" stop-color="#00aad4" stop-opacity="1"/>
<stop offset="1" stop-color="#2ad4ff" stop-opacity="1"/>
</linearGradient>
<path d="M 48.0 88.0 C 18.367 88.0 8.0 77.637 8.0 48.0 C 8.0 18.365 18.367 8.0 48.0 8.0 C 77.635 8.0 88.0 18.365 88.0 48.0 C 88.0 77.637 77.635 88.0 48.0 88.0 z " fill="url(#linearGradient3990)" fill-opacity="1"/>
<rect fill="none" height="96" width="96"/>
<linearGradient gradientUnits="userSpaceOnUse" id="SVGID_2_" x1="47.9995" x2="47.9995" y1="8.2534" y2="87.4985">
<stop offset="0" stop-color="#ffffff"/>
<stop offset="1" stop-color="#ffffff" stop-opacity="0"/>
</linearGradient>
<path d="M 48.0 8.0 C 18.365 8.0 8.0 18.365 8.0 48.0 C 8.0 77.633 18.365 88.0 48.0 88.0 C 77.637 88.0 88.0 77.633 88.0 48.0 C 88.0 18.365 77.637 8.0 48.0 8.0 z M 48.0 87.0 C 18.842 87.0 9.0 77.158 9.0 48.0 C 9.0 18.842005 18.842 9.0 48.0 9.0 C 77.158005 9.0 87.0 18.842 87.0 48.0 C 87.0 77.158005 77.158 87.0 48.0 87.0 z " fill="url(#SVGID_2_)" fill-opacity="0.25" stroke-opacity="0.25"/>
<linearGradient gradientTransform="matrix(0.7071 -0.7071 0.7071 0.7071 -208.9813 3059.7412)" gradientUnits="userSpaceOnUse" x1="2309.3584" x2="2344.3584" y1="-1947.9287" y2="-1947.9287">
<stop offset="0" stop-color="#58595b"/>
<stop offset="1" stop-color="#000000"/>
</linearGradient>
<linearGradient gradientTransform="matrix(0.7071 -0.7071 0.7071 0.7071 -208.9813 3059.7412)" gradientUnits="userSpaceOnUse" x1="2309.3584" x2="2313.3604" y1="-1957.9277" y2="-1957.9277">
<stop offset="0" stop-color="#58595b"/>
<stop offset="1" stop-color="#000000"/>
</linearGradient>
<linearGradient gradientUnits="userSpaceOnUse" x1="54.292" x2="59.292" y1="10.3501" y2="38.934">
<stop offset="0" stop-color="#58595b"/>
<stop offset="1" stop-color="#000000"/>
</linearGradient>
<linearGradient gradientUnits="userSpaceOnUse" x1="32.5508" x2="42.1758" y1="12.6343" y2="45.1342">
<stop offset="0" stop-color="#58595b"/>
<stop offset="1" stop-color="#000000"/>
</linearGradient>
<linearGradient gradientUnits="userSpaceOnUse" x1="57.1484" x2="60.063" y1="35.2275" y2="38.1421">
<stop offset="0" stop-color="#ffffff"/>
<stop offset="0.7362" stop-color="#ffffff" stop-opacity="0"/>
<stop offset="1" stop-color="#ffffff" stop-opacity="0"/>
</linearGradient>
<linearGradient gradientUnits="userSpaceOnUse" x1="44.6177" x2="38.0733" y1="37.2412" y2="43.7856">
<stop offset="0" stop-color="#ffffff"/>
<stop offset="0.7362" stop-color="#ffffff" stop-opacity="0"/>
<stop offset="1" stop-color="#ffffff" stop-opacity="0"/>
</linearGradient>
<linearGradient gradientUnits="userSpaceOnUse" x1="47.9995" x2="47.9995" y1="45.5" y2="53.8766">
<stop offset="0" stop-color="#ffffff"/>
<stop offset="1" stop-color="#6d6e70"/>
</linearGradient>
<path d="M 48.0 24.125 C 34.28209 24.125 23.125 35.28209 23.125 49.0 C 23.125 62.71791 34.28209 73.875 48.0 73.875 C 61.71791 73.875 72.875 62.71791 72.875 49.0 C 72.875 35.28209 61.71791 24.125 48.0 24.125 z M 48.0 27.1875 C 60.06275 27.1875 69.8125 36.93725 69.8125 49.0 C 69.8125 61.06275 60.06275 70.8125 48.0 70.8125 C 35.93725 70.8125 26.1875 61.06275 26.1875 49.0 C 26.1875 36.93725 35.93725 27.1875 48.0 27.1875 z M 48.0 27.46875 C 36.115578 27.46875 26.46875 37.115578 26.46875 49.0 C 26.46875 60.884422 36.115578 70.53125 48.0 70.53125 C 59.884422 70.53125 69.53125 60.884422 69.53125 49.0 C 69.53125 37.115578 59.884422 27.46875 48.0 27.46875 z M 48.0 28.9375 C 59.0961 28.9375 68.0625 37.9039 68.0625 49.0 C 68.0625 60.0961 59.0961 69.0625 48.0 69.0625 C 36.9039 69.0625 27.9375 60.0961 27.9375 49.0 C 27.9375 37.9039 36.9039 28.9375 48.0 28.9375 z M 48.0 29.65625 C 37.36987 29.65625 28.75 38.289585 28.75 48.96875 C 28.75 59.65029 37.3658 68.34375 48.0 68.34375 C 58.626587 68.34375 67.25 59.653152 67.25 48.96875 C 67.25 38.28934 58.625137 29.65625 48.0 29.65625 z M 48.0 32.78125 C 56.909573 32.78125 64.125 40.00145 64.125 48.96875 C 64.125 57.936047 56.90771 65.21875 48.0 65.21875 C 39.084167 65.21875 31.875 57.936447 31.875 48.96875 C 31.875 40.001053 39.082302 32.78125 48.0 32.78125 z M 48.0 35.09375 C 40.357937 35.09375 34.1875 41.284904 34.1875 48.96875 C 34.1875 56.652596 40.357937 62.875 48.0 62.875 C 55.64207 62.875 61.8125 56.652596 61.8125 48.96875 C 61.8125 41.284904 55.64207 35.09375 48.0 35.09375 z M 46.21875 42.65625 C 46.487995 42.65816 46.76761 42.74807 47.0 42.90625 C 47.625526 43.331024 47.762707 44.186974 47.34375 44.8125 L 45.21875 47.9375 C 44.79688 48.57175 43.969273 48.762707 43.34375 48.34375 C 42.721134 47.918976 42.57813 47.063023 43.0 46.4375 L 45.09375 43.25 C 45.303223 42.937237 45.59455 42.754417 45.9375 42.6875 C 46.023235 42.670773 46.129 42.655613 46.21875 42.65625 z M 58.5625 52.59375 C 58.845715 52.56583 59.108116 52.57546 59.3125 52.71875 C 60.13877 53.297726 59.833813 55.114147 58.6875 56.78125 C 57.53537 58.448345 55.94836 59.357315 55.125 58.78125 C 54.301636 58.20809 54.60369 56.377117 55.75 54.71875 C 56.61191 53.464066 57.71286 52.677486 58.5625 52.59375 z " fill="url(#linearGradient4089)"/>
</svg>
