<?xml version="1.0" encoding="UTF-8"?>
<svg xmlns="http://www.w3.org/2000/svg" xmlns:xlink="http://www.w3.org/1999/xlink" baseProfile="tiny" contentScriptType="text/ecmascript" contentStyleType="text/css" height="96px" preserveAspectRatio="xMidYMid meet" version="1.1" viewBox="0 0 96 96" width="96px" x="0px" y="0px" zoomAndPan="magnify">
<defs>
<linearGradient>
<stop offset="0" stop-color="#ffffff" stop-opacity="1"/>
<stop offset="1" stop-color="#ffffff" stop-opacity="0.78431374"/>
</linearGradient>
<linearGradient>
<stop offset="0" stop-color="#8cec67" stop-opacity="1"/>
<stop offset="1" stop-color="#a6cc51" stop-opacity="1"/>
</linearGradient>
<linearGradient gradientTransform="matrix(0,1,-1,0,96,0)" gradientUnits="userSpaceOnUse" id="linearGradient3871" x1="8" x2="88" y1="48" y2="48">
<stop offset="0" stop-color="#6fec67" stop-opacity="1"/>
<stop offset="1" stop-color="#57e254" stop-opacity="1"/>
</linearGradient>
<linearGradient gradientUnits="userSpaceOnUse" id="linearGradient3840" x1="42.962547" x2="42.962547" y1="29.382021" y2="63.55294">
<stop offset="0" stop-color="#ffffff" stop-opacity="1"/>
<stop offset="1" stop-color="#ffffff" stop-opacity="0.78431374"/>
</linearGradient>
<linearGradient gradientTransform="matrix(0,1,-1,0,96,0)" gradientUnits="userSpaceOnUse" id="linearGradient3871" x1="30.352377" x2="63.304058" y1="59.076935" y2="59.076935">
<stop offset="0" stop-color="#6fec67" stop-opacity="1"/>
<stop offset="1" stop-color="#9dd91f" stop-opacity="1"/>
</linearGradient>
<linearGradient gradientTransform="matrix(0,1,-1,0,96,0)" gradientUnits="userSpaceOnUse" id="linearGradient3859" x1="36.688854" x2="36.688854" y1="30.046803" y2="63.649094">
<stop offset="0" stop-color="#6fec67" stop-opacity="1"/>
<stop offset="1" stop-color="#57e254" stop-opacity="1"/>
</linearGradient>
</defs>
<path d="M 88.0 49.0 C 88.0 78.633 77.637 89.0 48.0 89.0 C 18.365 89.0 8.0 78.633 8.0 49.0 C 8.0 19.365 18.365 9.0 48.0 9.0 C 77.637 9.0 88.0 19.365 88.0 49.0 z " fill-opacity="0.4"/>
<linearGradient gradientTransform="matrix(1 0 0 1 -134.5557 -1267.2754)" gradientUnits="userSpaceOnUse" x1="182.5557" x2="182.5557" y1="1275.2744" y2="1355.2744">
<stop offset="0" stop-color="#f9d641"/>
<stop offset="1" stop-color="#d68612"/>
</linearGradient>
<path d="M 48.0 88.0 C 18.367 88.0 8.0 77.637 8.0 48.0 C 8.0 18.365 18.367 8.0 48.0 8.0 C 77.635 8.0 88.0 18.365 88.0 48.0 C 88.0 77.637 77.635 88.0 48.0 88.0 z " fill="url(#linearGradient3871)" fill-opacity="1.0"/>
<linearGradient gradientTransform="matrix(1 0 0 1 -134.5557 -1267.2754)" gradientUnits="userSpaceOnUse" id="SVGID_2_" x1="182.5557" x2="182.5557" y1="1275.5273" y2="1354.7729">
<stop offset="0" stop-color="#ffffff"/>
<stop offset="1" stop-color="#ffffff" stop-opacity="0"/>
</linearGradient>
<path d="M 48.0 8.0 C 18.365 8.0 8.0 18.365 8.0 48.0 C 8.0 77.633 18.365 88.0 48.0 88.0 C 77.637 88.0 88.0 77.633 88.0 48.0 C 88.0 18.365 77.637 8.0 48.0 8.0 z M 48.0 87.0 C 18.842 87.0 9.0 77.158 9.0 48.0 C 9.0 18.842005 18.842 9.0 48.0 9.0 C 77.158005 9.0 87.0 18.842 87.0 48.0 C 87.0 77.158005 77.158 87.0 48.0 87.0 z " fill="url(#SVGID_2_)" fill-opacity="0.25" stroke-opacity="0.25"/>
<rect fill="none" height="96" width="96"/>
<linearGradient gradientTransform="matrix(1 0 0 1 -134.5557 -1267.2754)" gradientUnits="userSpaceOnUse" x1="182.5557" x2="182.5557" y1="1291.2744" y2="1355.0762">
<stop offset="0" stop-color="#ffffff"/>
<stop offset="1" stop-color="#e6e2d8"/>
</linearGradient>
<linearGradient gradientTransform="matrix(1 0 0 1 -134.5557 -1267.2754)" gradientUnits="userSpaceOnUse" x1="182.5557" x2="182.5557" y1="1279.2744" y2="1295.2246">
<stop offset="0" stop-color="#ffffff"/>
<stop offset="0.3292" stop-color="#525254"/>
<stop offset="0.5891" stop-color="#ffffff"/>
<stop offset="0.7674" stop-color="#e0e0e0"/>
<stop offset="1" stop-color="#4f5052"/>
</linearGradient>
<linearGradient gradientTransform="matrix(1 0 0 1 -134.5557 -1267.2754)" gradientUnits="userSpaceOnUse" x1="182.5605" x2="182.5605" y1="1279.7744" y2="1294.7277">
<stop offset="0" stop-color="#d1d1d1"/>
<stop offset="0.326" stop-color="#6d6e70"/>
<stop offset="0.7" stop-color="#ffffff"/>
<stop offset="1" stop-color="#808184"/>
</linearGradient>
<linearGradient gradientTransform="matrix(1 0 0 1 -134.5557 -1267.2754)" gradientUnits="userSpaceOnUse" x1="182.5557" x2="182.5557" y1="1280.7744" y2="1285.7588">
<stop offset="0" stop-color="#6d6e70"/>
<stop offset="0.376" stop-color="#808184"/>
<stop offset="1" stop-color="#ffffff"/>
</linearGradient>
<path d="M 27.72392 68.27608 C 24.6183 68.27608 22.091677 65.75058 22.091677 62.643833 L 22.091677 42.367756 C 22.091677 40.25116 23.177572 37.628784 24.674623 36.131733 L 30.500616 30.306866 C 32.02132 28.78616 34.58512 27.72392 36.73551 27.72392 L 68.276085 27.72392 C 71.38058 27.72392 73.90833 30.250544 73.90833 33.356163 L 73.90833 62.643837 C 73.90833 65.75058 71.380585 68.276085 68.276085 68.276085 L 27.72392 68.276085 z " fill-opacity="0.05" stroke-opacity="0.5"/>
<path d="M 27.72392 67.149635 C 25.238974 67.149635 23.218124 65.12991 23.218124 62.64384 L 23.218124 42.367756 C 23.218124 40.553047 24.18687 38.213413 25.471022 36.928135 L 31.297016 31.103268 C 32.60257 29.797712 34.889263 28.850368 36.73551 28.850368 L 68.276085 28.850368 C 70.7599 28.850368 72.78188 30.871218 72.78188 33.356163 L 72.78188 62.643837 C 72.78188 65.12991 70.7599 67.149635 68.276085 67.149635 L 27.72392 67.149635 z " fill-opacity="0.05" stroke-opacity="0.5"/>
<path d="M 27.72392 66.023186 C 25.8619 66.023186 24.344572 64.50699 24.344572 62.643837 L 24.344572 42.367756 C 24.344572 40.842545 25.18941 38.802544 26.267422 37.724533 L 32.093414 31.899666 C 33.190575 30.80363 35.185516 29.976818 36.73551 29.976818 L 68.276085 29.976818 C 70.13923 29.976818 71.65543 31.49302 71.65543 33.356167 L 71.65543 62.643837 C 71.65543 64.50698 70.13924 66.023186 68.276085 66.023186 L 27.72392 66.023186 z M 49.12645 37.86196 C 47.883976 37.86196 46.87355 38.872387 46.87355 40.11486 L 46.87355 50.252895 L 46.87355 40.114857 C 46.87355 38.872383 47.88398 37.86196 49.12645 37.86196 L 62.643837 37.86196 C 63.887436 37.86196 64.896736 38.872383 64.896736 40.114857 C 64.896736 38.872383 63.887436 37.86196 62.643837 37.86196 L 49.12645 37.86196 z " fill-opacity="0.1" stroke-opacity="0.5"/>
<path d="M 48.0 40.114857 L 48.0 44.057423 L 54.758698 44.057423 L 54.758698 38.988407 L 49.12645 38.988407 C 48.51591 38.988407 48.0 39.50432 48.0 40.114857 z M 48.0 50.2529 C 48.0 50.86456 48.515915 51.37935 49.12645 51.37935 L 54.758698 51.37935 L 54.758698 46.31033 L 48.0 46.31033 L 48.0 50.252903 z M 68.27608 31.103266 L 36.73551 31.103266 C 35.496414 31.103266 33.766193 31.819689 32.889816 32.696064 L 27.063822 38.522057 C 26.18857 39.39731 25.471024 41.12866 25.471024 42.367752 L 25.471024 62.64383 C 25.471024 63.882923 26.484829 64.89673 27.72392 64.89673 L 68.27608 64.89673 C 69.515175 64.89673 70.52898 63.882923 70.52898 62.64383 L 70.52898 33.356163 C 70.52898 32.11707 69.515175 31.103266 68.27608 31.103266 z M 66.02318 50.2529 C 66.02318 52.11154 64.50247 53.632248 62.64383 53.632248 L 49.12645 53.632248 C 47.268936 53.632248 45.7471 52.11154 45.7471 50.2529 L 45.7471 40.114857 C 45.7471 38.257343 47.268936 36.735508 49.12645 36.735508 L 62.643837 36.735508 C 64.50248 36.735508 66.023186 38.256214 66.023186 40.114857 L 66.023186 50.2529 z M 57.011593 51.37935 L 62.643837 51.37935 C 63.253246 51.37935 63.770287 50.864563 63.770287 50.2529 L 63.770287 46.31033 L 57.011593 46.31033 L 57.011593 51.379345 z M 62.643837 38.988407 L 57.011593 38.988407 L 57.011593 44.057423 L 63.770287 44.057423 L 63.770287 40.114857 C 63.770287 39.50432 63.253246 38.988407 62.643837 38.988407 z " fill-opacity="0.1" stroke-opacity="0.5"/>
<linearGradient gradientTransform="matrix(1.126449,0,0,1.126449,-6.069551,-15.081143)" gradientUnits="userSpaceOnUse" x1="48.0005" x2="48.0005" y1="81.8379" y2="29.3603">
<stop offset="0" stop-color="#3d465b"/>
<stop offset="1" stop-color="#a1b2c0"/>
</linearGradient>
<path d="M 48.0 38.988407 L 48.0 42.93098 L 54.758698 42.93098 L 54.758698 37.86196 L 49.12645 37.86196 C 48.51591 37.86196 48.0 38.377872 48.0 38.988407 z M 48.0 49.12645 C 48.0 49.738113 48.515915 50.2529 49.12645 50.2529 L 54.758698 50.2529 L 54.758698 45.183876 L 48.0 45.183876 L 48.0 49.12645 z M 68.27608 29.976816 L 36.73551 29.976816 C 35.496414 29.976816 33.766193 30.693235 32.889816 31.569614 L 27.063822 37.395607 C 26.18857 38.271984 25.471024 40.00221 25.471024 41.241302 L 25.471024 61.51738 C 25.471024 62.756474 26.484829 63.77028 27.72392 63.77028 L 68.27608 63.77028 C 69.515175 63.77028 70.52898 62.756474 70.52898 61.51738 L 70.52898 32.229713 C 70.52898 30.99062 69.515175 29.976816 68.27608 29.976816 z M 66.02318 49.12645 C 66.02318 50.98509 64.50247 52.505795 62.64383 52.505795 L 49.12645 52.505795 C 47.268936 52.505795 45.7471 50.98509 45.7471 49.12645 L 45.7471 38.988407 C 45.7471 37.12977 47.268936 35.60906 49.12645 35.60906 L 62.643837 35.60906 C 64.50248 35.60906 66.023186 37.129765 66.023186 38.988407 L 66.023186 49.12645 z M 57.011593 50.2529 L 62.643837 50.2529 C 63.253246 50.2529 63.770287 49.738113 63.770287 49.12645 L 63.770287 45.183876 L 57.011593 45.183876 L 57.011593 50.2529 z M 62.643837 37.86196 L 57.011593 37.86196 L 57.011593 42.930984 L 63.770287 42.930984 L 63.770287 38.98841 C 63.770287 38.377876 63.253246 37.86196 62.643837 37.86196 z " fill="url(#linearGradient3859)" fill-opacity="1"/>
<path d="M 48.0 38.988407 L 48.0 42.93098 L 54.758698 42.93098 L 54.758698 37.86196 L 49.12645 37.86196 C 48.51591 37.86196 48.0 38.377872 48.0 38.988407 z M 48.0 49.12645 C 48.0 49.738113 48.515915 50.2529 49.12645 50.2529 L 54.758698 50.2529 L 54.758698 45.183876 L 48.0 45.183876 L 48.0 49.12645 z M 68.27608 29.976816 L 36.735508 29.976816 C 35.49641 29.976816 33.76619 30.693235 32.889812 31.569614 L 27.063818 37.395607 C 26.188566 38.271984 25.47102 40.00221 25.47102 41.241302 L 25.47102 61.51738 C 25.47102 62.756474 26.484825 63.77028 27.723915 63.77028 L 68.27608 63.77028 C 69.515175 63.77028 70.52898 62.756474 70.52898 61.51738 L 70.52898 32.229713 C 70.52898 30.99062 69.515175 29.976816 68.27608 29.976816 z M 66.02318 49.12645 C 66.02318 50.98509 64.50247 52.505795 62.64383 52.505795 L 49.12645 52.505795 C 47.268936 52.505795 45.7471 50.98509 45.7471 49.12645 L 45.7471 38.988407 C 45.7471 37.12977 47.268936 35.60906 49.12645 35.60906 L 62.643837 35.60906 C 64.50248 35.60906 66.023186 37.129765 66.023186 38.988407 L 66.023186 49.12645 z M 57.011597 50.2529 L 62.64384 50.2529 C 63.25325 50.2529 63.77029 49.738113 63.77029 49.12645 L 63.77029 45.183876 L 57.011597 45.183876 L 57.011597 50.2529 z M 62.64384 37.86196 L 57.011597 37.86196 L 57.011597 42.930984 L 63.77029 42.930984 L 63.77029 38.98841 C 63.77029 38.377876 63.25325 37.86196 62.64384 37.86196 z " fill="url(#linearGradient3840)" fill-opacity="1"/>
</svg>
