<?xml version="1.0" encoding="UTF-8"?>
<svg xmlns="http://www.w3.org/2000/svg" xmlns:xlink="http://www.w3.org/1999/xlink" baseProfile="tiny" contentScriptType="text/ecmascript" contentStyleType="text/css" height="96px" preserveAspectRatio="xMidYMid meet" version="1.1" viewBox="0 0 96 96" width="96px" x="0px" y="0px" zoomAndPan="magnify">
<defs>
<linearGradient id="linearGradient3862">
<stop offset="0" stop-color="#f8f8f8" stop-opacity="1"/>
<stop offset="1" stop-color="#f8f8f8" stop-opacity="0.78431374"/>
</linearGradient>
<linearGradient>
<stop offset="0" stop-color="#e92431" stop-opacity="1"/>
<stop offset="1" stop-color="#e92431" stop-opacity="0"/>
</linearGradient>
<linearGradient gradientTransform="translate(-0.40677963,0.40678)" gradientUnits="userSpaceOnUse" id="SVGID_3_-7" x1="47.9995" x2="47.9995" y1="8.5448999" y2="89.239799">
<stop offset="0" stop-color="#ffffff"/>
<stop offset="1" stop-color="#ffffff" stop-opacity="0"/>
</linearGradient>
<linearGradient gradientUnits="userSpaceOnUse" x1="47.981495" x2="47.981495" y1="8.8814144" y2="87.856812">
<stop offset="0" stop-color="#e93b4a" stop-opacity="1"/>
<stop offset="1" stop-color="#e90317" stop-opacity="1"/>
</linearGradient>
<linearGradient gradientTransform="translate(80.135593,-38.237288)" gradientUnits="userSpaceOnUse" x1="47.981495" x2="47.981495" y1="8.8814144" y2="87.856812">
<stop offset="0" stop-color="#e93b4a" stop-opacity="1"/>
<stop offset="1" stop-color="#e90317" stop-opacity="1"/>
</linearGradient>
<linearGradient gradientTransform="matrix(0,1,-1,0,96.000006,0.8135622)" gradientUnits="userSpaceOnUse" id="linearGradient3861" x1="7.5932236" x2="87.593224" y1="48.406784" y2="48.406784">
<stop offset="0" stop-color="#e93b4a" stop-opacity="1"/>
<stop offset="1" stop-color="#e90317" stop-opacity="1"/>
</linearGradient>
<linearGradient gradientUnits="userSpaceOnUse" id="linearGradient3868" x1="50.388561" x2="50.388561" y1="23.694704" y2="72.021332">
<stop offset="0" stop-color="#f8f8f8" stop-opacity="1"/>
<stop offset="1" stop-color="#f8f8f8" stop-opacity="0.78431374"/>
</linearGradient>
<linearGradient gradientTransform="matrix(0,1,-1,0,96.000006,0.8135622)" gradientUnits="userSpaceOnUse" id="linearGradient3872" x1="50.388561" x2="50.388561" y1="23.694704" y2="72.021332">
<stop offset="0" stop-color="#e93b4a" stop-opacity="1"/>
<stop offset="1" stop-color="#e90317" stop-opacity="1"/>
</linearGradient>
</defs>
<linearGradient gradientUnits="userSpaceOnUse" x1="48.0005" x2="48.0005" y1="87.4551" y2="6.7612">
<stop offset="0" stop-color="#b51429"/>
<stop offset="1" stop-color="#e21f2a"/>
</linearGradient>
<path d="M 87.59322 49.40678 C 87.59322 79.03978 77.230225 89.406784 47.593224 89.406784 C 17.958223 89.406784 7.593224 79.03979 7.593224 49.406784 C 7.593224 19.771784 17.958223 9.406784 47.593224 9.406784 C 77.230225 9.406784 87.59322 19.771784 87.59322 49.406784 z " fill-opacity="0.4"/>
<path d="M 47.593224 88.406784 C 17.960224 88.406784 7.59322 78.04379 7.59322 48.406788 C 7.59322 18.771788 17.960217 8.406788 47.59322 8.406788 C 77.22822 8.406788 87.593216 18.771786 87.593216 48.406788 C 87.593216 78.043785 77.22822 88.406784 47.593216 88.406784 z " fill="url(#linearGradient3861)" fill-opacity="1"/>
<path d="M 19.59322 82.10678 L 19.59322 14.7067795 C 11.03422 20.694778 7.59322 31.35678 7.59322 48.40678 C 7.59322 65.45578 11.03422 76.11778 19.59322 82.10678 z " fill="#c01926" fill-opacity="1"/>
<path d="M 47.59322 8.40678 C 17.95822 8.40678 7.59322 18.77178 7.59322 48.40678 C 7.59322 78.03978 17.95822 88.406784 47.59322 88.406784 C 77.23022 88.406784 87.593216 78.03979 87.593216 48.406784 C 87.593216 18.771784 77.23022 8.406784 47.593216 8.406784 z M 47.593216 87.406784 C 18.433216 87.406784 8.593216 77.56478 8.593216 48.406784 C 8.593216 19.248789 18.433216 9.406784 47.593216 9.406784 C 76.75122 9.406784 86.593216 19.248783 86.593216 48.406784 C 86.593216 77.56479 76.75121 87.406784 47.593216 87.406784 z " fill="url(#SVGID_3_-7)" fill-opacity="0.25" stroke-opacity="0.25"/>
<rect fill="none" height="96" width="96" x="-0.40677968" y="0.40678024"/>
<path d="M 48.0 78.0 C 45.793 78.0 44.0 76.206 44.0 74.0 L 44.0 61.0 L 42.873 61.0 C 42.428 62.724 40.859 64.0 39.0 64.0 L 35.0 64.0 C 32.793 64.0 31.0 62.206 31.0 60.0 L 31.0 36.0 C 31.0 33.794 32.793 32.0 35.0 32.0 L 44.0 32.0 L 44.0 26.0 C 44.0 23.794 45.793 22.0 48.0 22.0 L 52.0 22.0 C 54.205 22.0 56.0 23.794 56.0 26.0 L 56.0 32.0 L 65.0 32.0 C 67.205 32.0 69.0 33.794 69.0 36.0 L 69.0 60.0 C 69.0 62.206 67.205 64.0 65.0 64.0 L 61.0 64.0 C 59.139 64.0 57.57 62.724 57.127 61.0 L 56.0 61.0 L 56.0 74.0 C 56.0 76.206 54.205 78.0 52.0 78.0 L 48.0 78.0 z M 57.0 49.0 L 57.0 44.0 L 56.0 44.0 L 56.0 49.0 L 57.0 49.0 z M 44.0 49.0 L 44.0 44.0 L 43.0 44.0 L 43.0 49.0 L 44.0 49.0 z " fill-opacity="0.02"/>
<path d="M 48.0 75.0 C 47.447 75.0 47.0 74.553 47.0 74.0 L 47.0 58.0 L 40.0 58.0 L 40.0 60.0 C 40.0 60.553 39.553 61.0 39.0 61.0 L 35.0 61.0 C 34.447 61.0 34.0 60.553 34.0 60.0 L 34.0 36.0 C 34.0 35.447 34.447 35.0 35.0 35.0 L 47.0 35.0 L 47.0 26.0 C 47.0 25.447 47.447 25.0 48.0 25.0 L 52.0 25.0 C 52.553 25.0 53.0 25.447 53.0 26.0 L 53.0 35.0 L 65.0 35.0 C 65.553 35.0 66.0 35.447 66.0 36.0 L 66.0 60.0 C 66.0 60.553 65.553 61.0 65.0 61.0 L 61.0 61.0 C 60.447 61.0 60.0 60.553 60.0 60.0 L 60.0 58.0 L 53.0 58.0 L 53.0 74.0 C 53.0 74.553 52.553 75.0 52.0 75.0 L 48.0 75.0 z M 60.0 52.0 L 60.0 41.0 L 53.0 41.0 L 53.0 52.0 L 60.0 52.0 z M 47.0 52.0 L 47.0 41.0 L 40.0 41.0 L 40.0 52.0 L 47.0 52.0 z " fill-opacity="0.1"/>
<linearGradient gradientUnits="userSpaceOnUse" x1="50" x2="50" y1="24" y2="72.0005">
<stop offset="0" stop-color="#fafcef"/>
<stop offset="0.3232" stop-color="#fafcef"/>
<stop offset="1" stop-color="#d0cbc5"/>
</linearGradient>
<path d="M 52.0 34.0 L 52.0 24.0 L 48.0 24.0 L 48.0 34.0 L 35.0 34.0 L 35.0 58.0 L 39.0 58.0 L 39.0 55.0 L 48.0 55.0 L 48.0 72.0 L 52.0 72.0 L 52.0 55.0 L 61.0 55.0 L 61.0 58.0 L 65.0 58.0 L 65.0 34.0 L 52.0 34.0 z M 39.0 51.0 L 39.0 38.0 L 48.0 38.0 L 48.0 51.0 L 39.0 51.0 z M 61.0 51.0 L 52.0 51.0 L 52.0 38.0 L 61.0 38.0 L 61.0 51.0 z " fill="url(#linearGradient3872)" fill-opacity="1"/>
<path d="M 52.0 34.0 L 52.0 24.0 L 48.0 24.0 L 48.0 34.0 L 35.0 34.0 L 35.0 58.0 L 39.0 58.0 L 39.0 55.0 L 48.0 55.0 L 48.0 72.0 L 52.0 72.0 L 52.0 55.0 L 61.0 55.0 L 61.0 58.0 L 65.0 58.0 L 65.0 34.0 L 52.0 34.0 z M 39.0 51.0 L 39.0 38.0 L 48.0 38.0 L 48.0 51.0 L 39.0 51.0 z M 61.0 51.0 L 52.0 51.0 L 52.0 38.0 L 61.0 38.0 L 61.0 51.0 z " fill="url(#linearGradient3868)" fill-opacity="1"/>
<linearGradient gradientUnits="userSpaceOnUse" x1="8" x2="20" y1="48" y2="48">
<stop offset="0" stop-color="#000000" stop-opacity="0.15"/>
<stop offset="1" stop-color="#000000" stop-opacity="0.25"/>
</linearGradient>
<linearGradient gradientUnits="userSpaceOnUse" x1="47.9995" x2="47.9995" y1="8.5449" y2="89.2398">
<stop offset="0" stop-color="#ffffff"/>
<stop offset="1" stop-color="#ffffff" stop-opacity="0"/>
</linearGradient>
<radialGradient cx="165.7051" cy="-826.2383" gradientTransform="matrix(0.7071 -0.7071 0.198 0.198 115.4226 349.7662)" gradientUnits="userSpaceOnUse" r="24.5059">
<stop offset="0" stop-color="#ffffff" stop-opacity="0.25"/>
<stop offset="0.8" stop-color="#ffffff" stop-opacity="0.04"/>
<stop offset="1" stop-color="#ffffff" stop-opacity="0"/>
</radialGradient>
<radialGradient cx="74.374" cy="73.7646" gradientUnits="userSpaceOnUse" r="33.96">
<stop offset="0" stop-color="#f08884"/>
<stop offset="1" stop-color="#b51429"/>
</radialGradient>
<linearGradient gradientUnits="userSpaceOnUse" x1="78.4609" x2="71.7707" y1="79.543" y2="72.8527">
<stop offset="0" stop-color="#ffffff"/>
<stop offset="1" stop-color="#9c9787"/>
</linearGradient>
<rect fill="none" height="96" width="96"/>
<linearGradient gradientUnits="userSpaceOnUse" x1="20.5" x2="20.5" y1="82.373" y2="13.6265">
<stop offset="0" stop-color="#ffffff" stop-opacity="0.15"/>
<stop offset="1" stop-color="#ffffff" stop-opacity="0.25"/>
</linearGradient>
<linearGradient gradientUnits="userSpaceOnUse" x1="18.5" x2="18.5" y1="80.9375" y2="15.063">
<stop offset="0" stop-color="#000000" stop-opacity="0.1"/>
<stop offset="1" stop-color="#000000" stop-opacity="0.2"/>
</linearGradient>
</svg>
