<?xml version="1.0" encoding="UTF-8"?>
<svg xmlns="http://www.w3.org/2000/svg" xmlns:xlink="http://www.w3.org/1999/xlink" baseProfile="tiny" contentScriptType="text/ecmascript" contentStyleType="text/css" height="96px" preserveAspectRatio="xMidYMid meet" version="1.1" viewBox="0 0 96 96" width="96px" x="0px" y="0px" zoomAndPan="magnify">
<defs/>
<path d="M 88.0 49.0 C 88.0 78.633 77.637 89.0 48.0 89.0 C 18.365 89.0 8.0 78.633 8.0 49.0 C 8.0 19.365 18.365 9.0 48.0 9.0 C 77.637 9.0 88.0 19.365 88.0 49.0 z " fill-opacity="0.4"/>
<rect fill="none" height="96" width="96"/>
<linearGradient gradientTransform="matrix(1 0 0 1 -284.5742 -1477.3418)" gradientUnits="userSpaceOnUse" x1="332.5742" x2="332.5742" y1="1565.3418" y2="1485.3418">
<stop offset="0" stop-color="#000000"/>
<stop offset="1" stop-color="#58595b"/>
</linearGradient>
<path d="M 88.0 48.0 C 88.0 77.634 77.639 88.0 48.0 88.0 C 18.365 88.0 8.0 77.634 8.0 48.0 C 8.0 18.366 18.365 8.0 48.0 8.0 C 77.637 8.0 88.0 18.366 88.0 48.0 z " fill="#282829" fill-opacity="1"/>
<linearGradient gradientTransform="matrix(1 0 0 1 -478.5 -661.5)" gradientUnits="userSpaceOnUse" x1="486.9824" x2="566.0176" y1="687.915" y2="687.915">
<stop offset="0" stop-color="#ffffff" stop-opacity="0.4"/>
<stop offset="0.2424" stop-color="#ffffff" stop-opacity="0.5"/>
<stop offset="0.5091" stop-color="#ffffff"/>
<stop offset="0.7939" stop-color="#ffffff" stop-opacity="0.5"/>
<stop offset="1" stop-color="#ffffff" stop-opacity="0.4"/>
</linearGradient>
<path d="M 44.883 19.807 C 45.504 19.807 46.02 19.608 46.43 19.209 C 46.379 20.213 46.178 20.938 45.826 21.383 C 45.474 21.828 44.951 22.051 44.256 22.051 C 43.795 22.051 43.402 22.006 43.078 21.915998 L 43.078 22.783 C 43.57 22.877 44.027 22.924 44.448997 22.924 C 45.539 22.924 46.360996 22.523 46.915997 21.72 C 47.470997 20.917 47.747997 19.752 47.747997 18.224998 C 47.747997 16.642998 47.526997 15.542998 47.086 14.925999 C 46.645 14.309 46.002 14.0 45.158 14.0 C 44.338 14.0 43.71 14.271 43.273003 14.812 C 42.837 15.353001 42.621 16.106 42.621 17.071 C 42.621 17.946 42.812004 18.621 43.197 19.095 C 43.584 19.569 44.145 19.807 44.883 19.807 z M 44.217 15.31 C 44.44 14.996 44.756 14.838 45.17 14.838 C 45.455 14.838 45.692997 14.93 45.889 15.113 C 46.082 15.296 46.229 15.569 46.327 15.93 C 46.426 16.291 46.476 16.732 46.476 17.251 C 46.476 17.798 46.358997 18.221 46.122997 18.52 C 45.886997 18.819002 45.553997 18.968 45.115 18.968 C 44.705 18.968 44.394997 18.82 44.192 18.523 C 43.986996 18.226 43.883 17.746 43.883 17.082 C 43.887 16.215 43.997 15.624 44.217 15.31 z M 49.0 24.83 L 48.0 24.83 L 48.0 32.83 L 49.0 32.83 L 49.0 24.83 z M 37.0 29.83 L 36.0 29.83 L 36.0 32.83 L 37.0 32.83 L 37.0 29.83 z M 31.0 29.83 L 30.0 29.83 L 30.0 32.83 L 31.0 32.83 L 31.0 29.83 z M 85.0 29.83 L 84.0 29.83 L 84.0 32.83 L 85.0 32.83 L 85.0 29.83 z M 43.0 29.83 L 42.0 29.83 L 42.0 32.83 L 43.0 32.83 L 43.0 29.83 z M 61.0 29.83 L 60.0 29.83 L 60.0 32.83 L 61.0 32.83 L 61.0 29.83 z M 73.0 29.83 L 72.0 29.83 L 72.0 32.83 L 73.0 32.83 L 73.0 29.83 z M 54.0 32.83 L 55.0 32.83 L 55.0 29.830002 L 54.0 29.830002 L 54.0 32.83 z M 79.0 21.83 L 78.0 21.83 L 78.0 32.83 L 79.0 32.83 L 79.0 21.83 z M 67.0 29.83 L 66.0 29.83 L 66.0 32.83 L 67.0 32.83 L 67.0 29.83 z M 25.0 29.83 L 24.0 29.83 L 24.0 32.83 L 25.0 32.83 L 25.0 29.83 z M 49.359 19.045 C 49.117 19.428 48.996 19.897 48.996 20.451 C 48.996 21.232 49.230003 21.84 49.701004 22.273 C 50.173004 22.707 50.822 22.923 51.650005 22.923 C 52.490005 22.923 53.146004 22.707 53.619007 22.276 C 54.092007 21.845 54.328007 21.236 54.328007 20.451 C 54.328007 19.299 53.85101 18.572 52.898006 18.271 C 53.752007 17.951 54.181007 17.279 54.181007 16.255 C 54.181007 15.543999 53.953007 14.989999 53.502007 14.593999 C 53.053 14.198 52.443 14.0 51.674 14.0 C 50.897 14.0 50.282 14.198 49.831 14.595 C 49.38 14.992001 49.154003 15.545 49.154003 16.256 C 49.154003 17.283 49.578003 17.955 50.425003 18.272 C 49.957 18.404 49.602 18.662 49.359 19.045 z M 50.391 16.361 C 50.391 15.877 50.497997 15.502 50.712997 15.236 C 50.928 14.97 51.24 14.838 51.650997 14.838 C 52.513996 14.838 52.945995 15.346001 52.945995 16.361 C 52.945995 16.841 52.83699 17.215 52.611996 17.483 C 52.388996 17.751 52.068996 17.884 51.650997 17.884 C 51.250996 17.884 50.937996 17.748 50.719 17.477 C 50.5 17.206 50.391 16.834 50.391 16.361 z M 50.613 19.139 C 50.851 18.858 51.197 18.717 51.65 18.717 C 52.094997 18.717 52.441 18.863 52.689 19.155998 C 52.937 19.448996 53.062 19.844995 53.062 20.344995 C 53.062 21.504995 52.589 22.084995 51.65 22.084995 C 51.193 22.084995 50.845 21.935995 50.609 21.636995 C 50.374 21.337996 50.255 20.907995 50.255 20.344995 C 50.256 19.822 50.375 19.42 50.613 19.139 z M 35.0 38.83 L 36.0 38.83 L 36.0 35.83 L 35.0 35.83 L 35.0 38.83 z M 71.0 38.83 L 72.0 38.83 L 72.0 35.83 L 71.0 35.83 L 71.0 38.83 z M 53.0 38.83 L 54.0 38.83 L 54.0 35.83 L 53.0 35.83 L 53.0 38.83 z M 59.0 38.83 L 60.0 38.83 L 60.0 35.83 L 59.0 35.83 L 59.0 38.83 z M 65.0 38.83 L 66.0 38.83 L 66.0 35.83 L 65.0 35.83 L 65.0 38.83 z M 8.482 33.83 C 8.517 34.169003 8.56 34.498 8.601001 34.83 L 87.398 34.83 C 87.438995 34.498 87.482 34.169003 87.517 33.83 L 8.482 33.83 z M 77.0 37.83 L 79.0 37.83 L 79.0 35.83 L 77.0 35.83 L 77.0 37.83 z M 83.0 38.83 L 84.0 38.83 L 84.0 35.83 L 83.0 35.83 L 83.0 38.83 z M 11.0 38.83 L 12.0 38.83 L 12.0 35.83 L 11.0 35.83 L 11.0 38.83 z M 16.0 37.83 L 18.0 37.83 L 18.0 35.83 L 16.0 35.83 L 16.0 37.83 z M 19.0 21.83 L 18.0 21.83 L 18.0 32.83 L 19.0 32.83 L 19.0 21.83 z M 13.0 29.83 L 12.0 29.83 L 12.0 32.83 L 13.0 32.83 L 13.0 29.83 z M 29.0 38.83 L 30.0 38.83 L 30.0 35.83 L 29.0 35.83 L 29.0 38.83 z M 41.0 38.83 L 42.0 38.83 L 42.0 35.83 L 41.0 35.83 L 41.0 38.83 z M 47.0 37.83 L 49.0 37.83 L 49.0 35.83 L 47.0 35.83 L 47.0 37.83 z M 23.0 38.83 L 24.0 38.83 L 24.0 35.83 L 23.0 35.83 L 23.0 38.83 z " fill="#b0b0b3" fill-opacity="1"/>
<linearGradient gradientTransform="matrix(1 0 0 1 -478.5 -661.5)" gradientUnits="userSpaceOnUse" x1="514" x2="514" y1="747.3203" y2="670.1016">
<stop offset="0" stop-color="#900058"/>
<stop offset="1" stop-color="#ff3f7c"/>
</linearGradient>
<path d="M 34.0 9.037 L 34.0 85.384 C 34.969 85.55 35.969 85.696 37.0 85.821 L 37.0 8.602 C 35.969 8.727 34.969 8.871 34.0 9.037 z " fill="#fa664b" fill-opacity="1"/>
<linearGradient gradientTransform="matrix(1 0 0 1 -478.5 -661.5)" gradientUnits="userSpaceOnUse" x1="513" x2="513" y1="747.0479" y2="670.373">
<stop offset="0" stop-color="#ff3f7c" stop-opacity="0"/>
<stop offset="0.497" stop-color="#ff3f7c"/>
<stop offset="1" stop-color="#e63174"/>
</linearGradient>
<linearGradient gradientTransform="matrix(1 0 0 1 -478.5 -661.5)" gradientUnits="userSpaceOnUse" x1="515" x2="515" y1="747.3203" y2="670.1016">
<stop offset="0" stop-color="#ff3f7c" stop-opacity="0"/>
<stop offset="0.497" stop-color="#ff3f7c"/>
<stop offset="1" stop-color="#e63174"/>
</linearGradient>
<linearGradient gradientTransform="matrix(1 0 0 1 -478.5 -661.5)" gradientUnits="userSpaceOnUse" x1="514" x2="514" y1="678.5" y2="670.1016">
<stop offset="0" stop-color="#ff3366" stop-opacity="0"/>
<stop offset="1" stop-color="#ff99b9"/>
</linearGradient>
<linearGradient gradientTransform="matrix(1 0 0 1 -478.5 -661.5)" gradientUnits="userSpaceOnUse" x1="526.5" x2="526.5" y1="695.751" y2="749.7511">
<stop offset="0" stop-color="#0872c4"/>
<stop offset="1" stop-color="#0751ae"/>
</linearGradient>
<path d="M 8.111 53.0 C 9.283 78.807 20.1 88.0 48.0 88.0 C 75.904 88.0 86.718 78.807 87.889 53.0 L 8.111 53.0 z " fill="#0061d4" fill-opacity="1"/>
<path d="M 56.549 85.0 C 55.71 85.0 54.942 84.605 54.43 83.913 C 52.742 82.137 50.458 81.156006 47.993 81.15 C 45.63 81.156 43.39 82.093 41.687 83.794 C 41.208 84.383 40.466 84.732 39.689 84.732 C 38.219997 84.732 37.025 83.537 37.025 82.068 C 37.025 81.045 37.608997 80.38 37.726 80.257 C 40.442997 77.41901 44.088997 75.857 47.995 75.857 C 51.969 75.857 55.661 77.47 58.393997 80.4 C 58.735996 80.834 59.208996 81.56201 59.208996 82.338005 C 59.212 83.807 58.018 85.0 56.549 85.0 L 56.549 85.0 z M 62.279 78.879 C 61.267 78.879 60.616 78.365 60.439 78.208 C 57.089 74.705 52.691 72.801 47.994 72.79 C 43.359 72.801 39.004997 74.656 35.736 78.014 C 35.293 78.537 34.548 78.879 33.791 78.879 C 32.322 78.879 31.129 77.684 31.129 76.213 C 31.129 75.109 31.799 74.419 32.027 74.216995 C 36.267 69.884995 41.937 67.49899 47.996 67.49899 C 53.937004 67.49899 59.547 69.83199 63.797 74.07199 C 64.134 74.33399 64.94 75.01699 64.94 76.21299 C 64.939 77.684 63.746 78.879 62.279 78.879 L 62.279 78.879 z M 67.984 72.75 C 67.24 72.75 66.630005 72.406 66.402 72.258 L 66.308 72.19701 L 66.228 72.115005 C 61.346996 67.086006 54.870995 64.30801 47.992996 64.295006 C 41.180996 64.309006 34.781 67.01201 29.971996 71.91 C 29.657995 72.269005 28.973995 72.75 28.014996 72.75 C 26.544996 72.75 25.350996 71.553 25.350996 70.082 C 25.350996 69.332 25.666996 68.631004 26.244995 68.105 C 32.005 62.248 39.743 59.0 47.995 59.0 C 56.102997 59.0 63.727997 62.148 69.512 67.875 L 70.28 67.875 L 70.27 68.74 C 70.52 69.156 70.648994 69.613 70.648994 70.082 C 70.648 71.553 69.453 72.75 67.984 72.75 L 67.984 72.75 z " fill-opacity="0.1"/>
<linearGradient gradientTransform="matrix(1 0 0 1 -478.5 -661.5)" gradientUnits="userSpaceOnUse" x1="526.501" x2="526.501" y1="719.499" y2="743.499">
<stop offset="0" stop-color="#fafcef"/>
<stop offset="0.3232" stop-color="#fafcef"/>
<stop offset="1" stop-color="#d0cbc5"/>
</linearGradient>
<path d="M 47.995 74.857 C 44.368 74.857 40.977997 76.308 38.448997 78.95101 C 38.406 78.996 38.025 79.41901 38.025 80.068 C 38.025 80.984 38.773 81.732 39.689 81.732 C 40.189 81.732 40.658 81.496 40.939 81.128006 C 42.835 79.212006 45.34 78.15401 47.995 78.149 C 50.76 78.155 53.335 79.284004 55.201 81.274 C 55.523 81.736 56.016 82.0 56.549 82.0 C 57.467 82.0 58.212 81.257 58.212 80.34 C 58.212 79.848 57.817997 79.283 57.663 79.08299 C 55.123 76.359 51.689 74.857 47.995 74.857 z M 63.135 72.824 C 59.069 68.744995 53.694 66.499 47.996 66.499 C 42.195 66.499 36.753 68.803 32.712997 72.945 C 32.651997 72.993 32.128998 73.443 32.128998 74.213 C 32.128998 75.131 32.874996 75.879 33.790997 75.879 C 34.269997 75.879 34.725 75.662 35.019997 75.315994 C 38.476997 71.76499 43.086 69.798 47.997997 69.78999 C 52.975 69.800995 57.619995 71.80899 61.107 75.46299 C 61.154 75.50499 61.58 75.87899 62.279 75.87899 C 63.193 75.87899 63.939 75.13099 63.939 74.21299 C 63.939 73.452 63.384 73.016 63.135 72.824 z M 69.266 67.044 L 69.268 66.875 L 69.102 66.875 C 69.09 66.861 69.08099 66.854 69.069 66.848 C 63.445 61.145 55.963 58.0 47.995 58.0 C 40.012 58.0 32.518997 61.15 26.918 66.848 C 26.554998 67.178 26.352 67.618 26.352 68.082 C 26.352 69.003 27.098 69.75 28.016 69.75 C 28.807 69.75 29.232998 69.244 29.244 69.227 C 34.246 64.123 40.905 61.309 47.997 61.295 C 55.148003 61.309 61.851 64.169 66.94701 69.419 C 66.99801 69.451 67.45501 69.75 67.98401 69.75 C 68.90401 69.75 69.64801 69.003 69.64801 68.082 C 69.648 67.719 69.516 67.357 69.266 67.044 z " fill="#ffffff" fill-opacity="1"/>
<path d="M 42.18 50.367 L 43.403 50.367 L 43.403 46.437 L 45.674 46.437 L 45.674 45.583 L 43.403 45.583 L 43.403 42.686 L 46.315 42.686 L 46.315 41.83 L 42.18 41.83 L 42.18 50.367 z M 53.08 41.83 L 50.773003 46.146004 L 48.48 41.83 L 47.513 41.83 L 47.513 50.367 L 48.711 50.367 L 48.711 44.211 L 50.456997 47.459 L 51.061996 47.459 L 52.796 44.211 L 52.796 50.366997 L 54.0 50.366997 L 54.0 41.83 L 53.08 41.83 z " fill="#b0b0b3" fill-opacity="1"/>
<linearGradient gradientTransform="matrix(1 0 0 1 -284.5742 -1477.3418)" gradientUnits="userSpaceOnUse" id="SVGID_9_" x1="332.5752" x2="332.5752" y1="1485.5928" y2="1564.8374">
<stop offset="0" stop-color="#ffffff"/>
<stop offset="1" stop-color="#ffffff" stop-opacity="0"/>
</linearGradient>
<path d="M 48.0 8.0 C 18.365 8.0 8.0 18.366 8.0 48.0 C 8.0 77.634 18.365 88.0 48.0 88.0 C 77.639 88.0 88.0 77.634 88.0 48.0 C 88.0 18.366 77.637 8.0 48.0 8.0 z M 48.0 87.0 C 18.842 87.0 9.0 77.158 9.0 48.0 C 9.0 18.842005 18.842 9.0 48.0 9.0 C 77.158005 9.0 87.0 18.842 87.0 48.0 C 87.0 77.158005 77.158 87.0 48.0 87.0 z " fill="url(#SVGID_9_)" fill-opacity="0.15"/>
<rect fill="#ffffff" fill-opacity="0.2" height="3" width="4" x="70" y="41.83"/>
<rect fill="#ffffff" fill-opacity="0.2" height="1" width="1" x="73" y="43.83"/>
<rect fill="#ffffff" fill-opacity="0.2" height="1" width="1" x="72" y="42.83"/>
<rect fill="#ffffff" fill-opacity="0.2" height="1" width="2" x="70" y="43.83"/>
<rect fill="#ffffff" fill-opacity="0.2" height="1" width="1" x="73" y="41.83"/>
<rect fill="#ffffff" fill-opacity="0.2" height="1" width="2" x="70" y="41.83"/>
</svg>
