<?xml version="1.0" encoding="UTF-8"?>
<svg xmlns="http://www.w3.org/2000/svg" xmlns:xlink="http://www.w3.org/1999/xlink" baseProfile="tiny" contentScriptType="text/ecmascript" contentStyleType="text/css" height="96px" preserveAspectRatio="xMidYMid meet" version="1.1" viewBox="0 0 96 96" width="96px" x="0px" y="0px" zoomAndPan="magnify">
<defs/>
<path d="M 88.0 49.0 C 88.0 78.633 77.637 89.0 48.0 89.0 C 18.366 89.0 8.0 78.633 8.0 49.0 C 8.0 19.364 18.366 9.0 48.0 9.0 C 77.637 9.0 88.0 19.364 88.0 49.0 z " fill-opacity="0.4"/>
<linearGradient gradientTransform="matrix(1 0 0 1 -1625.5 -1772.5)" gradientUnits="userSpaceOnUse" x1="1673.501" x2="1673.501" xlink:actuate="onLoad" xlink:show="other" xlink:type="simple" y1="1780.499" y2="1860.499">
<stop offset="0" stop-color="#cd8ecd"/>
<stop offset="1" stop-color="#692a69"/>
</linearGradient>
<path d="M 88.0 48.0 C 88.0 77.633 77.637 88.0 48.0 88.0 C 18.366 88.0 8.0 77.633 8.0 48.0 C 8.0 18.365 18.366 8.0 48.0 8.0 C 77.637 8.0 88.0 18.365 88.0 48.0 z " fill="#8e3fad" fill-opacity="1"/>
<rect fill="none" height="96" width="96"/>
<path d="M 48.0 8.0 C 18.366 8.0 8.0 18.365 8.0 48.0 C 8.0 61.184 10.059999 70.546 14.947 76.887 L 16.091 73.786 L 12.177 72.318 L 12.987 70.16 L 14.022 70.54801 L 14.621 68.952 L 17.482 70.023 L 18.827 66.378006 L 14.651999 64.813 L 15.461 62.656 L 16.494999 63.043003 L 17.093998 61.446003 L 20.214998 62.617004 L 21.354998 59.528004 L 17.011 57.9 L 17.82 55.742 L 18.855 56.13 L 19.454 54.533 L 22.742 55.766003 L 23.562998 53.54 L 23.562998 51.45 L 19.409998 49.893 L 20.218998 47.734 L 21.252998 48.123 L 21.851995 46.525 L 23.562998 47.167 L 23.562998 42.753 L 22.051998 42.186996 L 22.861998 40.028996 L 23.562998 40.290997 L 23.562998 21.966 L 24.771996 21.966 L 33.537 21.966 L 34.745 21.966 L 37.131 26.462 L 46.517 29.924 L 46.515 28.648 L 43.206 28.613 L 43.206 21.966 L 44.416 21.966 L 54.086 21.966 L 55.295 21.966 L 55.295 33.164 L 84.199 43.83 L 82.095 49.531 L 86.454 51.134003 L 82.635 61.521004 L 81.588005 61.135 L 81.003006 62.729004 L 77.676 61.505005 L 76.155 65.630005 L 80.431 67.203 L 76.614 77.589005 L 75.566 77.204 L 74.981 78.797005 L 71.737 77.605 L 68.921 85.237 C 82.716 80.478 88.001 69.148 88.001 48.0 C 88.0 18.365 77.637 8.0 48.0 8.0 z " fill="none"/>
<polygon fill-opacity="0.3" points="23.562,57.895 23.562,56.073 22.741,55.766 22.15,57.365 "/>
<g fill="#ffffff" fill-opacity="1">
<linearGradient gradientTransform="matrix(1,0,0,-1,-272.5996,-298.9004)" gradientUnits="userSpaceOnUse" x1="294.54391" x2="296.26169" xlink:actuate="onLoad" xlink:show="other" xlink:type="simple" y1="-355.20209" y2="-354.582">
<stop offset="0" stop-color="#dcdcdc"/>
<stop offset="1" stop-color="#ffffff"/>
</linearGradient>
<polygon fill="#ffffff" fill-opacity="1" points="22.741,55.766 22.15,57.365 23.562,57.895 23.562,56.073 23.562,53.54 "/>
<linearGradient gradientTransform="matrix(1,0,0,-1,-272.5996,-298.9004)" gradientUnits="userSpaceOnUse" x1="314.2666" x2="318.63211" xlink:actuate="onLoad" xlink:show="other" xlink:type="simple" y1="-335.6138" y2="-334.03781">
<stop offset="0" stop-color="#dcdcdc"/>
<stop offset="1" stop-color="#ffffff"/>
</linearGradient>
<polygon fill="#ffffff" fill-opacity="1" points="46.528,44.163 46.516,31.737 38.326,28.715 " transform="matrix(1.1709618,0,0,1.2001614,-7.9545107,-6.3229093)"/>
<linearGradient gradientTransform="matrix(1,0,0,-1,-272.5996,-298.9004)" gradientUnits="userSpaceOnUse" x1="291.1387" x2="339.79459" xlink:actuate="onLoad" xlink:show="other" xlink:type="simple" y1="-371.75339" y2="-354.18881">
<stop offset="0" stop-color="#dcdcdc"/>
<stop offset="1" stop-color="#ffffff"/>
</linearGradient>
<path d="M 52.75163 34.16244 L 55.294 59.439 C 55.449997 58.068 58.188 59.115 59.222 59.439 C 59.605 59.56 60.113 59.277 60.129 59.740997 C 60.329 59.740997 60.531 59.740997 60.733 59.740997 C 60.742 60.034996 61.103 59.976 61.337 60.044 C 62.75 60.343 63.853 60.953 65.266 61.252 C 65.33 61.591 65.602 61.724 65.869995 61.857 C 65.869995 61.958 65.869995 62.058 65.869995 62.157997 C 65.669 62.157997 65.466995 62.157997 65.266 62.157997 C 65.165 62.157997 65.063995 62.157997 64.964 62.157997 C 64.954994 61.865 64.593994 61.923996 64.36 61.857 C 64.259 61.857 64.159004 61.857 64.058 61.857 C 64.048996 61.562 63.688 61.621 63.454 61.553997 C 63.252 61.553997 63.051 61.553997 62.85 61.553997 C 62.497 61.602997 62.312 61.487995 62.245 61.252 C 62.044 61.252 61.844 61.252 61.641 61.252 C 61.632 60.958 61.271 61.018 61.037 60.951 C 60.836 60.951 60.634 60.951 60.432 60.951 C 60.424 60.656 60.062 60.716 59.828 60.648 C 59.726997 60.648 59.626 60.648 59.526 60.648 C 57.929 60.431 54.203632 46.19976 53.210632 45.37976 L 52.448544 61.14722 L 54.086 61.554 L 46.531 61.554 L 45.32 61.554 L 31.575272 31.422085 L 29.880152 57.892982 L 31.721 61.554 L 24.772 61.554 L 23.563002 61.554 L 23.563002 60.911 C 23.316 60.71 23.119 60.448 23.004 60.145 L 22.397 59.917 L 21.355 59.526 L 20.215 62.614 L 19.625 64.215004 L 21.374 64.87 C 21.656 64.691 21.988 64.588005 22.346 64.588005 C 23.353 64.588005 24.17 65.40301 24.17 66.41 C 24.17 67.41701 23.354 68.233 22.346 68.233 C 21.569 68.233 20.906 67.744 20.645 67.057 L 19.871 66.767 L 18.828 66.376 L 17.483002 70.021 L 16.892002 71.620995 L 18.901005 72.37499 C 19.183002 72.19599 19.515003 72.092 19.873005 72.092 C 20.880005 72.092 21.696005 72.907 21.696005 73.913994 C 21.696005 74.92099 20.880005 75.73699 19.873005 75.73699 C 19.095003 75.73699 18.433002 75.24799 18.171003 74.56299 L 17.135004 74.17499 L 16.093004 73.78299 L 14.949004 76.88499 C 15.048004 77.012985 15.150004 77.13599 15.251004 77.261986 C 15.804005 77.94898 16.384005 78.60699 17.007004 79.219986 C 17.098003 79.20499 17.191004 79.19798 17.285004 79.19798 C 18.291004 79.19798 19.108004 80.013985 19.108004 81.02098 C 19.108004 81.028984 19.106005 81.03598 19.106005 81.041985 C 25.447002 85.93598 34.812004 87.99699 48.002003 87.99699 C 55.815 87.99699 62.277 87.26799 67.57601 85.66299 L 70.691 77.21899 L 70.249 77.055984 L 74.068 66.66998 L 74.522 66.83698 L 76.631004 61.118984 L 76.270004 60.985985 L 80.088005 50.599983 L 80.462006 50.736984 L 82.56601 45.034985 z M 49.552 79.687 C 49.544 79.391 49.182 79.451 48.948 79.384 C 48.746 79.384 48.545 79.384 48.344 79.384 C 48.334 79.09 47.974 79.149994 47.74 79.08099 C 47.539 79.08099 47.336 79.08099 47.136 79.08099 C 47.127 78.786995 46.766 78.84699 46.532 78.77899 C 45.409996 78.592995 44.633 78.05899 43.51 77.87299 C 43.342 77.438 43.038 77.135994 42.605 76.966995 C 42.605 76.867 42.605 76.766 42.605 76.66599 C 42.653 76.313 42.538 76.12799 42.302 76.05999 C 42.405 75.45499 42.24 75.11499 41.698 75.15499 C 40.564 75.42999 38.483997 75.81899 37.164997 75.45699 C 35.031 74.871994 34.604996 73.05 35.351997 70.01799 C 36.062996 70.37799 36.641 69.43299 37.164997 69.41299 C 37.94 69.38399 38.095997 69.802986 38.977997 70.01799 C 39.011 71.75199 36.076996 71.93399 36.560997 73.34199 C 37.229996 75.289986 39.897995 73.85499 42.302 73.64499 C 42.705 73.64499 43.108 73.64499 43.51 73.64499 C 43.573997 73.983986 43.845997 74.11499 44.115 74.248985 C 44.115 74.44998 44.115 74.651985 44.115 74.85298 C 44.115 74.95498 44.115 75.05398 44.115 75.15598 C 43.624996 74.93898 43.624996 76.580986 44.115 76.36398 C 44.115 76.46498 44.115 76.56398 44.115 76.666985 C 44.178 77.00598 44.449997 77.136986 44.719 77.27098 C 44.989 77.50498 45.403 77.59698 45.928997 77.57298 C 45.976997 77.92698 46.478996 77.82898 46.833996 77.875984 C 47.236996 77.875984 47.639996 77.875984 48.042995 77.875984 C 48.092995 78.22998 48.594994 78.12998 48.949997 78.177986 C 50.157997 78.178986 50.763996 78.78198 51.970997 78.78198 C 51.978996 79.07598 52.340996 79.01598 52.574997 79.083984 C 53.303997 78.96098 53.230995 79.63599 54.086 79.38499 C 53.17 80.080986 50.967 79.48999 49.552 79.68699 z M 62.242996 72.43299 C 61.570995 72.19799 61.063995 71.79799 60.129 71.828995 C 60.119 71.535 59.758 71.59499 59.524 71.52699 C 59.323 71.52699 59.121 71.52699 58.92 71.52699 C 58.911 71.232 58.55 71.29299 58.315 71.22499 C 58.115 71.22499 57.913 71.22499 57.711 71.22499 C 57.703 70.92999 57.341 70.99099 57.106 70.92199 C 56.804 70.92199 56.503 70.92199 56.201 70.92199 C 55.848 70.97199 55.663 70.85599 55.597 70.61999 C 55.396 70.61999 55.195 70.61999 54.992 70.61999 C 54.944 70.26599 54.442 70.36599 54.087 70.317986 C 53.885 70.317986 53.685 70.317986 53.483 70.317986 C 53.131 70.36699 52.945004 70.25198 52.879 70.01698 C 52.677 70.01698 52.476 70.01698 52.274 70.01698 C 52.266003 69.720985 51.905003 69.78198 51.67 69.71398 C 51.468 69.71398 51.266003 69.71398 51.065 69.71398 C 51.057003 69.41998 50.695004 69.47998 50.461 69.41098 C 50.359 69.41098 50.259003 69.41098 50.159004 69.41098 C 48.361004 68.99198 46.756004 68.38298 46.834003 66.08798 C 45.002003 66.31598 43.467003 66.52198 41.696003 66.08798 C 41.686005 64.87798 42.944004 65.389984 43.811005 65.181984 C 45.401005 64.79998 47.717003 63.960983 48.646004 64.87898 C 49.140003 65.36798 48.376003 66.14298 48.646004 67.29698 C 48.718 68.13098 49.770004 67.985985 50.157005 68.50598 C 50.259007 68.50598 50.35801 68.50598 50.460007 68.50598 C 50.55401 68.915985 51.217007 68.75698 51.67001 68.80798 C 52.071007 68.80798 52.475006 68.80798 52.87801 68.80798 C 52.92701 69.16198 53.429005 69.06298 53.784004 69.109985 C 54.086 69.109985 54.389004 69.109985 54.69 69.109985 C 54.699 69.403984 55.06 69.34399 55.294003 69.41199 C 55.495003 69.41199 55.698 69.41199 55.899 69.41199 C 55.907 69.705986 56.268 69.64599 56.503 69.71499 C 57.232 69.59099 57.159 70.26699 58.014004 70.01699 C 58.023003 70.31099 58.384003 70.25199 58.618004 70.31799 C 58.71901 70.31799 58.820004 70.31799 58.921005 70.31799 C 58.929005 70.61299 59.290005 70.551994 59.525005 70.620995 C 59.626007 70.620995 59.727005 70.620995 59.828007 70.620995 C 59.83701 70.91499 60.197006 70.855 60.432007 70.923 C 60.534008 70.923 60.634007 70.923 60.734005 70.923 C 60.744003 71.216 61.105003 71.157 61.339005 71.225 C 61.440006 71.225 61.540005 71.225 61.641003 71.225 C 61.644 71.824 62.464005 71.609 62.243004 72.433 z " fill="#ffffff" fill-opacity="1"/>
</g>
<path d="M 18.169 74.565 C 18.43 75.25 19.093 75.739006 19.871 75.739006 C 20.878 75.739006 21.694 74.924 21.694 73.91601 C 21.694 72.90901 20.878 72.09401 19.871 72.09401 C 19.513 72.09401 19.18 72.198006 18.899 72.37601 L 16.89 71.62301 L 14.021999 70.54801 L 12.987 70.16001 L 12.176999 72.31801 L 16.091 73.78601 L 17.133 74.17701 L 18.169 74.565 z " fill="#a377b0"/>
<path d="M 20.643 67.06 C 20.904 67.746994 21.567 68.235 22.344 68.235 C 23.351 68.235 24.168 67.419 24.168 66.413 C 24.168 65.405 23.352 64.590004 22.344 64.590004 C 21.986 64.590004 21.654 64.694 21.372 64.873 L 19.623 64.217 L 16.494 63.044003 L 15.459999 62.657 L 14.650999 64.814 L 18.826 66.379005 L 19.869 66.770004 L 20.643 67.06 z " fill="#a377b0"/>
<path d="M 23.002 60.146 C 23.117 60.45 23.315 60.71 23.562 60.911 L 23.562 57.894 L 22.15 57.366 L 18.854 56.13 L 17.819 55.742 L 17.01 57.9 L 21.352 59.528 L 22.395 59.919 L 23.002 60.146 z " fill="#a377b0"/>
<polygon fill="#a377b0" points="23.562,48.988 21.252,48.122 20.217,47.733 19.409,49.893 23.562,51.45 "/>
<polygon fill="#a377b0" points="22.86,40.028 22.051,42.187 23.562,42.753 23.562,40.29 "/>
<polygon fill="#622172" points="80.462,50.74 80.088,50.603 76.27,60.988 76.631,61.122 77.676,61.505 81.003,62.729 81.588,61.135   84.821,52.344 "/>
<polygon fill="#622172" points="74.521,66.84 74.067,66.672 70.247,77.058 70.69,77.221 71.736,77.604 74.981,78.798 75.566,77.204   78.799,68.413 "/>
<polygon fill-opacity="0.3" points="47.726,32.183 47.724,30.372 46.515,29.925 46.516,31.737 "/>
<polygon fill-opacity="0.3" points="24.771,49.441 24.771,47.62 23.562,47.166 23.562,48.988 "/>
<polygon fill-opacity="0.3" points="24.494,38.819 23.896,40.416 24.771,40.744 24.771,38.924 "/>
<linearGradient gradientTransform="matrix(1 0 0 -1 -272.5996 -298.9004)" gradientUnits="userSpaceOnUse" id="SVGID_5_" x1="285.8613" x2="334.4274" xlink:actuate="onLoad" xlink:show="other" xlink:type="simple" y1="-356.7114" y2="-339.1792">
<stop offset="0" stop-color="#ffffff"/>
<stop offset="1" stop-color="#ffffff"/>
</linearGradient>
<polygon fill="url(#SVGID_5_)" points="23.783,56.157 24.771,53.48 24.771,51.902 24.24,51.703 23.562,53.54 23.562,56.073 "/>
<polygon fill-opacity="0.3" points="46.528,44.163 47.738,46.443 47.726,32.183 46.516,31.737 "/>
<linearGradient gradientTransform="matrix(1 0 0 -1 -272.5996 -298.9004)" gradientUnits="userSpaceOnUse" id="SVGID_6_" x1="283.7969" x2="332.3403" xlink:actuate="onLoad" xlink:show="other" xlink:type="simple" y1="-350.9609" y2="-333.437">
<stop offset="0" stop-color="#ffffff"/>
<stop offset="1" stop-color="#ffffff"/>
</linearGradient>
<polygon fill="url(#SVGID_6_)" points="46.528,44.163 47.738,46.443 47.726,32.183 46.516,31.737 "/>
<path d="M 24.705 57.675 C 24.727 57.675 24.749 57.682 24.772 57.683 L 24.772 53.48 L 23.785 56.156 L 23.563 56.073 L 23.563 57.893997 L 23.733 57.956997 C 24.013 57.781 24.346 57.675 24.705 57.675 z " fill-opacity="0.3"/>
<linearGradient gradientTransform="matrix(1 0 0 -1 -272.5996 -298.9004)" gradientUnits="userSpaceOnUse" id="SVGID_7_" x1="286.4746" x2="335.0464" xlink:actuate="onLoad" xlink:show="other" xlink:type="simple" y1="-358.4155" y2="-340.8813">
<stop offset="0" stop-color="#ffffff"/>
<stop offset="1" stop-color="#ffffff"/>
</linearGradient>
<path d="M 24.705 57.675 C 24.727 57.675 24.749 57.682 24.772 57.683 L 24.772 53.48 L 23.785 56.156 L 23.563 56.073 L 23.563 57.893997 L 23.733 57.956997 C 24.013 57.781 24.346 57.675 24.705 57.675 z " fill="url(#SVGID_7_)"/>
<path d="M 24.705 61.322 C 24.271 61.322 23.876 61.164997 23.562 60.911 L 23.562 61.554 L 24.771 61.554 L 24.771 61.315 C 24.749 61.315 24.727 61.322 24.705 61.322 z " fill-opacity="0.3"/>
<linearGradient gradientTransform="matrix(1 0 0 -1 -272.5996 -298.9004)" gradientUnits="userSpaceOnUse" id="SVGID_8_" x1="288.2148" x2="336.7682" xlink:actuate="onLoad" xlink:show="other" xlink:type="simple" y1="-363.2197" y2="-345.6922">
<stop offset="0" stop-color="#ffffff"/>
<stop offset="1" stop-color="#ffffff"/>
</linearGradient>
<path d="M 24.705 61.322 C 24.271 61.322 23.876 61.164997 23.562 60.911 L 23.562 61.554 L 24.771 61.554 L 24.771 61.315 C 24.749 61.315 24.727 61.322 24.705 61.322 z " fill="url(#SVGID_8_)"/>
<polygon fill-opacity="0.3" points="32.999,37.117 45.32,61.554 46.529,61.554 33.006,34.733 "/>
<linearGradient gradientTransform="matrix(1 0 0 -1 -272.5996 -298.9004)" gradientUnits="userSpaceOnUse" id="SVGID_9_" x1="285.835" x2="334.3848" xlink:actuate="onLoad" xlink:show="other" xlink:type="simple" y1="-356.6216" y2="-339.0952">
<stop offset="0" stop-color="#ffffff"/>
<stop offset="1" stop-color="#ffffff"/>
</linearGradient>
<polygon fill="url(#SVGID_9_)" points="32.999,37.117 45.32,61.554 46.529,61.554 33.006,34.733 "/>
<path d="M 24.771 61.314 L 24.771 57.682 C 24.748 57.681 24.728 57.674 24.704 57.674 C 24.346 57.674 24.013 57.778 23.731 57.957 L 23.561 57.894 L 23.561 60.911 C 23.874 61.164 24.269 61.32 24.705002 61.32 C 24.727 61.322 24.749 61.315 24.771 61.314 z " fill="#a377b0"/>
<polygon fill="#a377b0" points="24.771,51.902 24.771,49.441 23.562,48.988 23.562,51.45 24.24,51.703 "/>
<polygon fill="#a377b0" points="24.771,40.744 23.896,40.416 23.562,40.29 23.562,42.753 24.771,43.206 "/>
<linearGradient gradientTransform="matrix(1 0 0 -1 -272.5996 -298.9004)" gradientUnits="userSpaceOnUse" x1="300.0371" x2="317.6361" xlink:actuate="onLoad" xlink:show="other" xlink:type="simple" y1="-321.3081" y2="-351.2253">
<stop offset="0" stop-color="#b23d88"/>
<stop offset="1" stop-color="#622172"/>
</linearGradient>
<polygon fill="#661077" fill-opacity="1" points="23.562,61.554 31.721,61.554 31.797,34.733 45.32,61.554 54.084,61.554 54.084,21.966 43.205,21.966 43.205,28.614 46.514,28.648 46.529,46.443 33.534,21.966 23.562,21.966 "/>
<path d="M 17.284 79.2 C 17.189 79.2 17.097 79.208 17.006 79.221 C 17.664 79.87 18.366 80.474 19.105 81.045 C 19.105 81.036 19.107 81.03 19.107 81.022995 C 19.106 80.016 18.29 79.2 17.284 79.2 z " fill="#a377b0"/>
<linearGradient gradientTransform="matrix(1 0 0 1 -1625.5 -1772.5)" gradientUnits="userSpaceOnUse" id="SVGID_11_" x1="1673.5" x2="1673.5" xlink:actuate="onLoad" xlink:show="other" xlink:type="simple" y1="1780.752" y2="1859.9974">
<stop offset="0" stop-color="#ffffff"/>
<stop offset="1" stop-color="#ffffff"/>
</linearGradient>
<path d="M 48.0 8.0 C 18.366 8.0 8.0 18.365 8.0 48.0 C 8.0 77.633 18.366 88.0 48.0 88.0 C 77.637 88.0 88.0 77.633 88.0 48.0 C 88.0 18.365 77.637 8.0 48.0 8.0 z M 48.0 87.0 C 18.842 87.0 9.0 77.157 9.0 48.0 C 9.0 18.842 18.842 9.0 48.0 9.0 C 77.157 9.0 87.0 18.842 87.0 48.0 C 87.0 77.157 77.157 87.0 48.0 87.0 z " fill="url(#SVGID_11_)" fill-opacity="0.25"/>
<g>
<path d="M 59.016 60.889 C 57.521 60.689 55.974 60.482 55.004997 59.684 C 54.96 59.647 54.936996 59.588997 54.942997 59.532 C 54.986996 59.149 55.232 58.691 56.151997 58.691 C 56.969 58.691 58.047997 59.045 58.761997 59.28 L 59.094 59.386997 C 59.148 59.405 59.216 59.412 59.303 59.412 C 59.357 59.412 59.567997 59.4 59.616997 59.4 C 59.941 59.4 60.109997 59.551 60.121 59.844997 C 60.123997 59.921 60.074997 59.99 60.001 60.013996 C 59.655 60.125996 59.505 60.355995 59.515 60.752995 C 59.517 60.802994 59.497 60.852993 59.459 60.884995 C 59.427 60.91299 59.387 60.928993 59.344 60.928993 C 59.339 60.931 59.016 60.889 59.016 60.889 z " fill="#e5cae5"/>
<path d="M 64.785 62.442 C 64.691 62.442 64.616005 62.370003 64.614006 62.276 C 64.61201 62.228 64.601006 62.206 64.36301 62.176003 C 64.284004 62.165 64.203 62.155003 64.133 62.134003 L 63.879 62.141003 C 63.786003 62.141003 63.712 62.067 63.708 61.975 C 63.706 61.926003 63.695 61.904003 63.456 61.873 C 63.377003 61.862 63.297 61.852 63.227 61.831 L 62.669003 61.838 C 62.577003 61.838 62.500004 61.765 62.498 61.672 C 62.496 61.624 62.485 61.601 62.247 61.57 C 62.168003 61.56 62.087 61.549 62.017 61.528 L 61.461 61.536 C 61.369003 61.536 61.292004 61.462997 61.29 61.37 C 61.288 61.322 61.277 61.3 61.039 61.268997 C 60.959 61.257996 60.879 61.247997 60.809 61.226997 L 60.252003 61.234997 C 60.158 61.234997 60.083004 61.160995 60.08 61.067 C 60.079 61.018997 60.068 60.997 59.83 60.967 C 59.75 60.955997 59.669003 60.946 59.6 60.925 L 59.345 60.932 C 59.253 60.932 59.177 60.858 59.174 60.765 C 59.16 60.212 59.403 59.852 59.897 59.692 L 60.555 59.682003 C 60.647 59.682003 60.724 59.756004 60.726 59.848003 C 60.728 59.897003 60.739 59.919003 60.978 59.951004 C 61.057 59.96201 61.137 59.972004 61.207 59.992004 C 61.911 60.140003 62.556 60.374004 63.18 60.599003 C 63.794 60.821003 64.427 61.050003 65.123 61.197 C 65.189 61.213 65.242004 61.265003 65.255005 61.333004 C 65.301 61.572 65.477005 61.672005 65.759 61.812004 C 65.817 61.840004 65.863 61.905003 65.863 61.96901 L 65.863 62.271004 C 65.863 62.366005 65.787 62.443005 65.692 62.443005 L 64.786 62.443005 L 64.786 62.442 z " fill="#cb9bcc"/>
<path d="M 49.938 69.69 C 48.27 69.301 46.498 68.691 46.48 66.393005 C 45.516 66.51401 44.603 66.62401 43.699 66.62401 C 42.914 66.62401 42.187 66.53901 41.475 66.365005 C 41.399 66.34601 41.345 66.27801 41.345 66.200005 C 41.342003 65.873 41.422 65.634 41.589 65.465004 C 41.85 65.201004 42.259 65.18101 42.69 65.18101 L 42.922 65.18101 C 43.137 65.18101 43.382 65.17601 43.593 65.12601 C 43.844 65.06501 44.115 64.994 44.396004 64.91801 C 45.300003 64.67701 46.325005 64.40401 47.17 64.40401 C 47.808 64.40401 48.271004 64.55601 48.587 64.869 C 48.909 65.187004 48.812 65.594 48.709003 66.023 C 48.616005 66.41 48.513004 66.847 48.633003 67.369 C 48.671 67.76501 48.931004 67.883 49.353004 68.04401 C 49.637005 68.15201 49.930004 68.26501 50.116005 68.51501 C 50.137005 68.54401 50.14901 68.58101 50.14901 68.61801 L 50.14901 69.523 C 50.14901 69.57601 50.126007 69.625 50.086006 69.658005 C 50.055008 69.68201 50.01701 69.69501 49.979008 69.69501 C 49.965 69.695 49.951 69.693 49.938 69.69 z " fill="#e5cae5"/>
<path d="M 62.065 72.717 C 62.044 72.717 62.025997 72.714005 62.007 72.707 C 61.817 72.641 61.639 72.561 61.462 72.481 C 61.037003 72.291 60.635 72.111 60.050003 72.111 C 60.050003 72.111 59.951004 72.113 59.949 72.113 C 59.905003 72.113 59.863003 72.096 59.832 72.067 C 59.798 72.036 59.779 71.99301 59.778 71.947 C 59.776 71.898 59.765 71.875 59.527 71.845 C 59.447 71.834 59.367 71.824 59.296 71.803 L 58.74 71.811005 C 58.647003 71.811005 58.571003 71.73701 58.568 71.645004 C 58.567 71.596 58.556 71.573006 58.318 71.54301 C 58.238 71.531006 58.157 71.522 58.088 71.50101 L 57.530003 71.50801 C 57.438004 71.50801 57.362003 71.43601 57.359 71.34201 C 57.358 71.29301 57.346 71.27101 57.108 71.24101 C 57.028 71.23001 56.948 71.22001 56.879 71.19901 L 56.02 71.20602 C 55.928 71.20602 55.852 71.13302 55.849 71.03902 C 55.848 70.99202 55.837 70.96902 55.598 70.93902 C 55.518 70.92702 55.439 70.918015 55.369 70.89602 L 54.812 70.90302 C 54.727 70.90302 54.655 70.84002 54.642 70.75602 C 54.627003 70.65102 54.508003 70.62802 54.179 70.61802 C 54.077 70.61502 53.975 70.611015 53.882 70.60002 L 53.3 70.603 C 53.207 70.603 53.131 70.53 53.128 70.438 C 53.127 70.38899 53.115997 70.366 52.879997 70.335 C 52.799995 70.326 52.719 70.315 52.649 70.295 L 52.091 70.302 C 51.998 70.302 51.923 70.228004 51.919 70.135 C 51.918 70.086 51.907 70.063 51.67 70.033005 C 51.591 70.023 51.511 70.012 51.441 69.992004 L 50.883 69.99901 C 50.79 69.99901 50.714 69.92601 50.711 69.83201 C 50.71 69.78501 50.698 69.76201 50.462 69.73101 C 50.383 69.72101 50.302 69.71001 50.231 69.68901 L 49.976997 69.696014 C 49.882996 69.696014 49.804996 69.62002 49.804996 69.52502 L 49.804996 68.62 C 49.804996 68.524 49.882996 68.448006 49.976997 68.448006 L 50.278996 68.448006 C 50.358997 68.448006 50.428997 68.503006 50.445995 68.58101 C 50.46899 68.68001 50.562996 68.739006 50.96199 68.739006 L 51.217995 68.73701 C 51.318996 68.73701 51.417995 68.740005 51.506996 68.75101 L 52.695995 68.75001 C 52.781994 68.75001 52.853996 68.81301 52.865993 68.89801 C 52.880993 69.00401 53.01499 69.02601 53.32999 69.03501 C 53.431995 69.03701 53.532993 69.042015 53.624992 69.05301 L 54.51099 69.05201 C 54.602993 69.05201 54.679993 69.12501 54.681995 69.21701 C 54.68399 69.26701 54.694996 69.28901 54.931995 69.31901 C 55.011997 69.33001 55.090996 69.34001 55.161995 69.36101 L 55.719994 69.35401 C 55.813995 69.35401 55.888992 69.427 55.89199 69.520004 C 55.893993 69.568 55.904995 69.591 56.14199 69.621 C 56.207996 69.631004 56.272995 69.639 56.332996 69.653 C 56.390995 69.645 56.442997 69.641 56.492996 69.641 C 56.77399 69.641 56.948997 69.761 57.089996 69.857 C 57.216995 69.945 57.316 70.014 57.491997 70.014 C 57.576996 70.014 57.675995 69.998 57.785995 69.965 C 57.80199 69.96 57.817997 69.95799 57.833996 69.95799 C 57.869995 69.95799 57.90599 69.96999 57.935997 69.99099 C 57.978996 70.02199 58.004 70.07099 58.005997 70.12499 C 58.006996 70.17299 58.018 70.19499 58.256996 70.22599 C 58.335995 70.23699 58.414997 70.24599 58.485996 70.26699 L 58.740997 70.25999 C 58.835 70.25999 58.909996 70.333984 58.913 70.42699 C 58.914 70.47498 58.925 70.49699 59.163 70.526985 C 59.241997 70.53799 59.323 70.54799 59.393 70.569984 L 59.648 70.56198 C 59.740997 70.56198 59.817 70.63598 59.819 70.72798 C 59.821 70.776985 59.832 70.79998 60.07 70.82998 C 60.15 70.83998 60.228 70.85098 60.299 70.87098 L 60.555 70.863976 C 60.648 70.863976 60.724 70.93697 60.727 71.029976 C 60.728 71.07797 60.739 71.099976 60.977 71.13197 C 61.057003 71.141975 61.137 71.15298 61.207 71.17297 L 61.461 71.16698 C 61.556004 71.16698 61.631 71.24297 61.633003 71.336975 C 61.633003 71.502975 61.712 71.56197 61.876003 71.671974 C 62.091003 71.81497 62.385 72.01097 62.230003 72.58997 C 62.217003 72.63697 62.187004 72.67597 62.146004 72.696976 C 62.12 72.711 62.092 72.717 62.065 72.717 z " fill="#cb9bcc"/>
<path d="M 38.276 75.886 C 37.756 75.886 37.305 75.834 36.937 75.733 C 34.812 75.152 34.197 73.357 35.002 70.088005 C 35.015 70.038 35.05 69.995 35.098 69.97301 C 35.12 69.963005 35.144 69.95801 35.169 69.95801 C 35.195 69.95801 35.223 69.964005 35.246 69.977005 C 35.330997 70.020004 35.412 70.04001 35.498997 70.04001 C 35.748997 70.04001 35.999996 69.865005 36.243996 69.69601 C 36.48999 69.52401 36.722996 69.36201 36.974995 69.353004 L 37.057995 69.351006 C 37.494995 69.351006 37.75399 69.491005 38.03099 69.63801 C 38.249996 69.754005 38.474995 69.87501 38.835995 69.963005 C 38.910995 69.982 38.964996 70.049 38.965996 70.12601 C 38.984997 71.09201 38.196995 71.60701 37.501995 72.063 C 36.781994 72.535 36.351994 72.851006 36.538994 73.397 C 36.751995 74.015 37.187992 74.291 37.955994 74.291 C 38.545994 74.291 39.259995 74.131 40.01699 73.96 C 40.701996 73.806 41.408993 73.647 42.103996 73.585 C 42.108997 73.585 42.113995 73.585 42.118996 73.585 C 42.182995 73.585 42.241997 73.621 42.270996 73.679 C 42.303 73.742004 42.293995 73.818 42.247997 73.869 C 42.19 73.934006 42.08 74.021 41.951996 74.12 C 41.710995 74.306 41.307995 74.616005 41.325996 74.836006 C 41.335995 74.953 41.476997 75.05301 41.595997 75.116005 C 41.658997 75.149 41.693996 75.218 41.684 75.289 C 41.675 75.36 41.623997 75.418 41.553997 75.434 C 40.858 75.602 39.505 75.886 38.276 75.886 L 38.276 75.886 z " fill="#e5cae5"/>
<path d="M 52.328 80.019 C 51.968 80.019 51.584 79.996994 51.2 79.974 C 50.824 79.952 50.445 79.929 50.094 79.929 C 49.823 79.929 49.595 79.943 49.398003 79.97 C 49.389004 79.971 49.382004 79.972 49.374004 79.972 C 49.334003 79.972 49.296005 79.957 49.265003 79.93 C 49.228004 79.9 49.204 79.85401 49.203003 79.804 C 49.201004 79.755 49.19 79.734 48.953003 79.702 C 48.873 79.691 48.793003 79.681 48.723003 79.661 L 48.166004 79.667 C 48.07301 79.667 47.998005 79.595 47.995003 79.501 C 47.993004 79.454 47.982 79.431 47.744003 79.401 C 47.663 79.39 47.583004 79.38 47.514004 79.359 L 46.958004 79.366005 C 46.865005 79.366005 46.789005 79.29201 46.786003 79.199005 C 46.785004 79.15101 46.773003 79.129005 46.534004 79.09901 C 46.45501 79.087006 46.375004 79.078 46.305004 79.05701 C 45.745003 78.96501 45.255005 78.77901 44.780003 78.59901 C 44.301003 78.41701 43.846 78.24501 43.301003 78.15501 C 43.241 78.145004 43.191 78.10401 43.169003 78.04801 C 43.017 77.657005 42.753 77.392006 42.36 77.239006 C 42.295 77.214005 42.252 77.15101 42.252 77.08001 L 42.252 76.77801 C 42.303 76.40301 42.148 76.35901 42.073 76.338005 C 41.989 76.314 41.936996 76.231 41.952 76.145004 C 42.001 75.852005 41.981 75.643005 41.892 75.538 C 41.834 75.47 41.739 75.436005 41.598 75.436005 C 41.598 75.436005 41.52 75.44 41.516 75.44 C 41.487 75.44 41.459 75.432 41.434 75.419 C 41.155 75.268 41.003 75.082 40.985996 74.865 C 40.953995 74.459 41.410995 74.106995 41.744995 73.85 C 41.85099 73.768 41.943996 73.699 41.991997 73.644 C 42.024 73.606995 42.072 73.586 42.122 73.586 L 43.33 73.586 C 43.411 73.586 43.482 73.645 43.498997 73.725 C 43.543995 73.964 43.718 74.062 43.998997 74.202 C 44.056995 74.23 44.104996 74.297 44.104996 74.35999 L 44.104996 75.26699 C 44.104996 75.32599 44.076996 75.37899 44.027996 75.41099 C 43.999996 75.429985 43.966995 75.43799 43.932995 75.43799 C 43.910995 75.43799 43.88599 75.43399 43.86499 75.42399 C 43.817993 75.43399 43.737995 75.58699 43.737995 75.86999 C 43.737995 76.15599 43.817997 76.30899 43.851994 76.32399 C 43.874992 76.31299 43.902992 76.30899 43.927994 76.30899 C 43.960995 76.30899 43.993996 76.31699 44.020992 76.33399 C 44.069992 76.36599 44.104992 76.41599 44.104992 76.47499 L 44.104992 76.77799 C 44.14699 76.982994 44.319992 77.08099 44.59999 77.21999 C 44.85099 77.426 45.165993 77.51499 45.58699 77.51499 C 45.63699 77.51499 45.74399 77.510994 45.74599 77.510994 C 45.83199 77.510994 45.90399 77.574 45.91599 77.659 C 45.931988 77.765 46.06599 77.786995 46.382988 77.797 C 46.48399 77.8 46.584988 77.80299 46.675987 77.814995 L 47.862988 77.813 C 47.948982 77.813 48.02099 77.876 48.032986 77.962 C 48.047985 78.065994 48.166985 78.089 48.496983 78.098 C 48.59799 78.101 48.70199 78.105 48.793987 78.118 C 48.796986 78.118 48.79799 78.118 48.800987 78.118 C 49.405987 78.118 49.878983 78.273994 50.335987 78.426994 C 50.789986 78.578 51.216988 78.72099 51.792988 78.72099 C 51.88699 78.72099 51.961987 78.79399 51.96399 78.88799 C 51.96599 78.93499 51.97699 78.95899 52.21599 78.98899 C 52.280987 78.996994 52.34599 79.00599 52.404987 79.01999 C 52.463985 79.01099 52.515987 79.00699 52.565987 79.00699 C 52.84799 79.00699 53.022987 79.12799 53.160988 79.22399 C 53.288982 79.31199 53.389988 79.38099 53.563988 79.38099 C 53.648987 79.38099 53.74999 79.36299 53.85999 79.330986 C 53.87499 79.32599 53.89199 79.32398 53.90799 79.32398 C 53.97099 79.32398 54.03099 79.358986 54.05999 79.417984 C 54.09799 79.49198 54.07599 79.581985 54.01099 79.63198 C 53.66 79.9 53.141 80.019 52.328 80.019 z " fill="#cb9bcc"/>
</g>
</svg>
