<?xml version="1.0" encoding="UTF-8"?>
<svg xmlns="http://www.w3.org/2000/svg" xmlns:xlink="http://www.w3.org/1999/xlink" baseProfile="tiny" contentScriptType="text/ecmascript" contentStyleType="text/css" height="96px" preserveAspectRatio="xMidYMid meet" version="1.1" viewBox="0 0 96 96" width="96px" x="0px" y="0px" zoomAndPan="magnify">
<defs>
<linearGradient id="linearGradient3824">
<stop offset="0" stop-color="#de008b" stop-opacity="1"/>
<stop offset="1" stop-color="#d5006d" stop-opacity="1"/>
</linearGradient>
<linearGradient gradientTransform="matrix(0,1,-1,0,96,0)" gradientUnits="userSpaceOnUse" id="linearGradient3830" x1="8" x2="88" y1="48" y2="48">
<stop offset="0" stop-color="#de008b" stop-opacity="1"/>
<stop offset="1" stop-color="#d5006d" stop-opacity="1"/>
</linearGradient>
</defs>
<rect fill="none" height="96" width="96"/>
<path d="M 88.0 49.0 C 88.0 78.633 77.637 89.0 48.0 89.0 C 18.365 89.0 8.0 78.633 8.0 49.0 C 8.0 19.365 18.365 9.0 48.0 9.0 C 77.637 9.0 88.0 19.365 88.0 49.0 z " fill-opacity="0.4"/>
<linearGradient gradientUnits="userSpaceOnUse" x1="47.9995" x2="47.9995" y1="7.4448" y2="80.5548">
<stop offset="0" stop-color="#ff3fae"/>
<stop offset="1" stop-color="#900074"/>
</linearGradient>
<path d="M 48.0 88.0 C 18.367004 88.0 8.0 77.637 8.0 48.0 C 8.0 18.365 18.367 8.0 48.0 8.0 C 77.635 8.0 88.0 18.365 88.0 48.0 C 88.0 77.637 77.635 88.0 48.0 88.0 z " fill="url(#linearGradient3830)" fill-opacity="1"/>
<linearGradient gradientUnits="userSpaceOnUse" id="SVGID_2_" x1="47.9995" x2="47.9995" y1="8.2534" y2="87.4985">
<stop offset="0" stop-color="#ffffff"/>
<stop offset="1" stop-color="#ffffff" stop-opacity="0"/>
</linearGradient>
<path d="M 48.0 8.0 C 18.365 8.0 8.0 18.365 8.0 48.0 C 8.0 77.633 18.365 88.0 48.0 88.0 C 77.637 88.0 88.0 77.633 88.0 48.0 C 88.0 18.365 77.637 8.0 48.0 8.0 z M 48.0 87.0 C 18.842 87.0 9.0 77.158 9.0 48.0 C 9.0 18.842005 18.842 9.0 48.0 9.0 C 77.158005 9.0 87.0 18.842 87.0 48.0 C 87.0 77.158005 77.158 87.0 48.0 87.0 z " fill="url(#SVGID_2_)" fill-opacity="0.25" stroke-opacity="0.25"/>
<path d="M 30.885 79.0 C 26.397 79.0 22.799 76.837 21.498 73.35401 C 19.623 68.34001 23.191002 62.493004 29.623 60.041004 C 31.379002 59.374004 33.234 59.016003 35.0 59.002003 L 35.0 30.573 C 35.0 27.651 37.139 24.914 39.975 24.206 L 60.092 19.179 C 60.553 19.061 61.035 19.0 61.514 19.0 C 64.59 19.0 67.0 21.448 67.0 24.573 L 67.0 62.457 C 67.0 62.628 66.988 62.797 66.969 62.964 C 66.774 67.028 63.319 71.074 58.379 72.959 C 56.59 73.64 54.689 74.0 52.885 74.0 C 49.28 74.0 46.247997 72.604 44.522 70.249 C 43.417 73.478 40.385 76.431 36.379 77.959 C 34.59 78.64 32.689 79.0 30.885 79.0 L 30.885 79.0 z M 45.0 59.92 C 46.523 57.851997 48.83 56.107 51.623 55.039997 C 53.379 54.372997 55.234 54.014996 57.0 54.000996 L 57.0 38.198 L 45.0 41.198 L 45.0 59.92 z " fill-opacity="0.02"/>
<path d="M 30.885 78.0 C 26.822 78.0 23.586 76.086 22.434 73.004 C 20.754 68.512 24.069 63.227997 29.981 60.976 C 31.657 60.338997 33.427998 60.002 35.106 60.002 C 35.409 60.002 35.708 60.013 36.001 60.032997 L 36.001 30.572998 C 36.001 28.094995 37.815 25.775995 40.218 25.176998 L 60.335 20.148998 C 60.721 20.05 61.119 20.0 61.514 20.0 C 64.029 20.0 66.0 22.009 66.0 24.573 L 66.0 62.457 C 66.0 62.587 65.992 62.715 65.977 62.842 C 65.795 66.561 62.595997 70.28 58.024 72.025 C 56.346 72.663 54.568 73.0 52.885 73.0 C 48.822 73.0 45.586 71.086 44.434 68.004 C 44.161 67.269 44.018 66.511 44.0 65.749 L 44.0 67.457 C 44.0 67.587 43.992 67.71501 43.977 67.842 C 43.795 71.561005 40.596 75.28001 36.024 77.025 C 34.346 77.663 32.568 78.0 30.885 78.0 L 30.885 78.0 z M 44.0 65.422 C 44.086 61.641 47.176 57.808 51.98 55.975 C 53.656 55.337997 55.427 55.001 57.105 55.001 C 57.408 55.001 57.707 55.012 58.0 55.032 L 58.0 36.917 L 44.0 40.417 L 44.0 65.422 z " fill-opacity="0.05"/>
<path d="M 30.885 77.0 C 27.252 77.0 24.373 75.335 23.371 72.654 C 21.885 68.683 24.945 63.964 30.336 61.91 C 31.899 61.316 33.547 61.002 35.106 61.002 C 35.761997 61.002 36.395 61.055 37.001 61.16 L 37.001 30.573 C 37.001 28.541 38.489 26.638 40.46 26.147 L 60.577 21.118 C 60.885 21.04 61.201 21.0 61.514 21.0 C 63.469 21.0 65.0 22.569 65.0 24.573 L 65.0 62.457 C 65.0 62.545 64.994 62.632 64.982 62.718 C 64.814 66.123 61.88 69.483 57.666 71.09001 C 56.102 71.686 54.447 72.0 52.885 72.0 C 49.252 72.0 46.372997 70.335 45.371 67.654 C 43.885 63.685 46.945 58.966 52.336 56.909 C 53.899 56.315 55.546997 56.001 57.106 56.001 C 57.761997 56.001 58.395 56.054 59.001 56.159 L 59.001 35.636 L 43.001 39.636 L 43.001 67.457 C 43.001 67.545 42.995 67.632 42.983 67.718 C 42.815 71.123 39.880997 74.483 35.667 76.09001 C 34.102 76.686 32.447 77.0 30.885 77.0 L 30.885 77.0 z " fill-opacity="0.1"/>
<path d="M 30.885 76.0 C 27.68 76.0 25.16 74.584 24.309 72.305 C 23.018 68.857 25.823 64.701004 30.694 62.845 C 32.141 62.294003 33.667 62.002003 35.106 62.002003 C 36.147 62.002003 37.126 62.149 38.001 62.435 L 38.001 30.573 C 38.001 29.012 39.187 27.495 40.7 27.118 L 60.819 22.088 C 61.051 22.029 61.283 22.0 61.514 22.0 C 62.932 22.0 64.0 23.106 64.0 24.573 L 64.0 62.457 C 64.0 62.514 63.996 62.569 63.986 62.624 C 63.863 65.614 61.144 68.693 57.31 70.155 C 55.857 70.708 54.328 71.0 52.885 71.0 C 49.68 71.0 47.16 69.584 46.309 67.305 C 45.018 63.857 47.823 59.701 52.694 57.844 C 54.141 57.293003 55.667 57.001003 57.106 57.001003 C 58.147 57.001003 59.126 57.148003 60.001 57.434 L 60.001 34.354 L 42.001 38.854 L 42.001 67.457 C 42.001 67.514 41.997 67.569 41.987 67.624 C 41.864 70.614 39.145 73.693 35.311 75.155 C 33.857 75.708 32.328 76.0 30.885 76.0 L 30.885 76.0 z " fill-opacity="0.1"/>
<path d="M 61.061 23.058 L 40.942 28.089 C 39.873 28.354 39.0 29.474 39.0 30.573 L 39.0 63.986 C 37.084 62.797 34.053 62.634 31.049 63.779 C 26.764 65.412 24.166 69.072 25.244 71.955 C 26.322 74.84001 30.668 75.851 34.953 74.221 C 38.56 72.846 40.962997 70.033 40.99 67.457 L 41.0 67.457 L 41.0 38.073 L 61.0 33.073 L 61.0 58.985 C 59.084 57.796 56.053 57.633 53.049 58.778 C 48.764 60.412 46.166 64.072 47.244 66.955 C 48.322 69.84001 52.668 70.851 56.953 69.221 C 60.56 67.846 62.962997 65.033 62.99 62.457 L 63.0 62.457 L 63.0 24.573 C 63.0 23.474 62.127 22.792 61.061 23.058 z " fill-opacity="0.1"/>
<linearGradient gradientUnits="userSpaceOnUse" x1="44" x2="44" y1="21" y2="73.0005">
<stop offset="0" stop-color="#fafcef"/>
<stop offset="0.3232" stop-color="#fafcef"/>
<stop offset="1" stop-color="#d0cbc5"/>
</linearGradient>
<path d="M 61.061 21.058 L 40.942 26.089 C 39.873 26.354 39.0 27.474 39.0 28.573 L 39.0 61.986 C 37.084 60.797 34.053 60.634 31.049 61.779 C 26.764 63.412 24.166 67.072 25.244 69.955 C 26.322 72.84001 30.668 73.851 34.953 72.221 C 38.56 70.846 40.962997 68.033 40.99 65.457 L 41.0 65.457 L 41.0 36.073 L 61.0 31.073002 L 61.0 56.985 C 59.084 55.796 56.053 55.633 53.049 56.778 C 48.764 58.412 46.166 62.072 47.244 64.955 C 48.322 67.84001 52.668 68.851 56.953 67.221 C 60.56 65.846 62.962997 63.033 62.99 60.457 L 63.0 60.457 L 63.0 22.573 C 63.0 21.474 62.127 20.792 61.061 21.058 z " fill="#ffffff" fill-opacity="1"/>
<path d="M 31.049 61.779 C 27.19 63.25 24.709 66.364 25.039 69.075 C 25.332 66.632996 27.658 64.071 31.049 62.778996 C 34.053 61.633995 37.084 61.796997 39.0 62.985996 L 39.0 61.985996 C 37.084 60.797 34.053 60.635 31.049 61.779 z M 53.049 56.778 C 49.19 58.25 46.709 61.364 47.039 64.075 C 47.332 61.632996 49.658 59.070995 53.049004 57.777996 C 56.053005 56.632996 59.084003 56.796 61.000004 57.984997 L 61.000004 56.984997 C 59.084 55.796 56.053 55.634 53.049 56.778 z M 61.061 21.058 L 40.942 26.089 C 39.873 26.354 39.0 27.474 39.0 28.573 L 39.0 29.573 C 39.0 28.473 39.873 27.354 40.941 27.089 L 61.06 22.058 C 62.127 21.792 63.0 22.474 63.0 23.573 L 63.0 22.573 C 63.0 21.474 62.127 20.792 61.061 21.058 z " fill="#ffffff"/>
<path d="M 52.0 57.0 C 45.934 57.0 41.0 52.065 41.0 46.0 L 41.0 37.0 C 41.0 30.935 45.934 26.0 52.0 26.0 L 73.344 26.0 L 76.172005 23.172 C 76.928 22.416 77.932 22.0 79.0 22.0 C 79.533 22.0 80.053 22.104 80.539 22.308 C 82.031 22.925 83.0 24.375 83.0 26.0 L 83.0 46.0 C 83.0 52.065 78.066 57.0 72.0 57.0 L 52.0 57.0 z " fill-opacity="0.02"/>
<path d="M 52.0 56.0 C 46.486 56.0 42.0 51.514 42.0 46.0 L 42.0 37.0 C 42.0 31.486 46.486 27.0 52.0 27.0 L 73.758 27.0 L 76.879 23.879 C 77.445 23.313 78.199 23.0 79.0 23.0 C 79.398 23.0 79.787 23.077 80.152 23.23 C 81.273 23.693 82.0 24.781 82.0 26.0 L 82.0 46.0 C 82.0 51.514 77.514 56.0 72.0 56.0 L 52.0 56.0 z " fill-opacity="0.05"/>
<path d="M 52.0 55.0 C 47.037 55.0 43.0 50.963 43.0 46.0 L 43.0 37.0 C 43.0 32.037 47.037 28.0 52.0 28.0 L 74.172 28.0 L 77.586 24.586 C 77.965 24.208 78.465 24.0 79.0 24.0 C 79.266 24.0 79.525 24.052 79.768 24.153 C 80.514 24.462 81.0 25.187 81.0 26.0 L 81.0 46.0 C 81.0 50.963 76.963 55.0 72.0 55.0 L 52.0 55.0 z " fill-opacity="0.05"/>
<path d="M 52.0 54.0 C 47.59 54.0 44.0 50.411 44.0 46.0 L 44.0 37.0 C 44.0 32.589 47.59 29.0 52.0 29.0 L 74.586 29.0 L 78.293 25.293 C 78.484 25.102 78.74 25.0 79.0 25.0 C 79.129 25.0 79.26 25.024 79.383 25.076 C 79.758 25.23 80.0 25.596 80.0 26.0 L 80.0 46.0 C 80.0 50.411 76.412 54.0 72.0 54.0 L 52.0 54.0 z " fill-opacity="0.1"/>
<path d="M 75.0 30.0 L 52.0 30.0 C 48.15 30.0 45.0 33.15 45.0 37.0 L 45.0 46.0 C 45.0 49.85 48.15 53.0 52.0 53.0 L 72.0 53.0 C 75.85 53.0 79.0 49.85 79.0 46.0 L 79.0 26.0 L 75.0 30.0 z " fill-opacity="0.1"/>
<linearGradient gradientUnits="userSpaceOnUse" x1="62" x2="62" y1="26.3037" y2="49.4892">
<stop offset="0" stop-color="#fafcef"/>
<stop offset="0.3232" stop-color="#fafcef"/>
<stop offset="1" stop-color="#d0cbc5"/>
</linearGradient>
<path d="M 75.0 28.0 L 52.0 28.0 C 48.15 28.0 45.0 31.15 45.0 35.0 L 45.0 44.0 C 45.0 47.85 48.15 51.0 52.0 51.0 L 72.0 51.0 C 75.85 51.0 79.0 47.85 79.0 44.0 L 79.0 24.0 L 75.0 28.0 z " fill="#ffffff" fill-opacity="1"/>
<path d="M 75.0 28.0 L 52.0 28.0 C 48.15 28.0 45.0 31.15 45.0 35.0 L 45.0 36.0 C 45.0 32.15 48.15 29.0 52.0 29.0 L 75.0 29.0 L 79.0 25.0 L 79.0 24.0 L 75.0 28.0 z " fill="#ffffff"/>
<linearGradient gradientUnits="userSpaceOnUse" x1="62" x2="62" y1="32" y2="48">
<stop offset="0" stop-color="#d8299a"/>
<stop offset="1" stop-color="#900074"/>
</linearGradient>
<path d="M 62.0 44.0 C 60.896 44.0 60.0 44.896 60.0 46.0 C 60.0 47.104 60.896 48.0 62.0 48.0 C 63.105 48.0 64.0 47.104 64.0 46.0 C 64.0 44.896 63.105 44.0 62.0 44.0 z M 63.5 42.0 L 64.0 32.0 L 60.0 32.0 L 60.5 42.0 L 63.5 42.0 z " fill="#de008b" fill-opacity="1"/>
</svg>
