<?xml version="1.0" encoding="UTF-8"?>
<svg xmlns="http://www.w3.org/2000/svg" xmlns:xlink="http://www.w3.org/1999/xlink" baseProfile="tiny" contentScriptType="text/ecmascript" contentStyleType="text/css" height="96px" preserveAspectRatio="xMidYMid meet" version="1.1" viewBox="0 0 96 96" width="96px" x="0px" y="0px" zoomAndPan="magnify">
<defs>
<linearGradient id="linearGradient3858">
<stop offset="0" stop-color="#ffffff" stop-opacity="1"/>
<stop offset="1" stop-color="#ffffff" stop-opacity="0.78431374"/>
</linearGradient>
<linearGradient>
<stop offset="0" stop-color="#4ea516" stop-opacity="1"/>
<stop offset="1" stop-color="#3b9741" stop-opacity="1"/>
</linearGradient>
<linearGradient gradientTransform="matrix(0,1,-1,0,95.999977,-2.3740639e-5)" gradientUnits="userSpaceOnUse" id="linearGradient3854" x1="8.0000312" x2="87.999969" y1="47.999977" y2="47.999977">
<stop offset="0" stop-color="#4ea516" stop-opacity="1"/>
<stop offset="1" stop-color="#3b9741" stop-opacity="1"/>
</linearGradient>
<linearGradient gradientUnits="userSpaceOnUse" id="linearGradient3864" x1="35.715179" x2="35.715179" y1="23.321142" y2="71.641884">
<stop offset="0" stop-color="#ffffff" stop-opacity="1"/>
<stop offset="1" stop-color="#ffffff" stop-opacity="0.78431374"/>
</linearGradient>
<linearGradient gradientTransform="matrix(0,1,-1,0,95.999977,-2.3740639e-5)" gradientUnits="userSpaceOnUse" id="linearGradient3868" x1="35.715179" x2="35.715179" y1="23.321142" y2="71.641884">
<stop offset="0" stop-color="#4ea516" stop-opacity="1"/>
<stop offset="1" stop-color="#3b9741" stop-opacity="1"/>
</linearGradient>
</defs>
<path d="M 87.998 49.222 C 87.833 78.85401 77.412 89.162 47.776 88.998 C 18.144 88.832 7.836 78.406 8.002 48.776 C 8.167 19.143 18.59 8.836 48.224 9.002 C 77.859 9.168 88.164 19.59 87.998 49.222 z " fill-opacity="0.4" stroke-opacity="0.4"/>
<linearGradient gradientTransform="matrix(1 0.0056 -0.0056 1 -24.4074 -6.4236)" gradientUnits="userSpaceOnUse" x1="72.71" x2="72.71" y1="24.5405" y2="102.1183">
<stop offset="0" stop-color="#42a519"/>
<stop offset="1" stop-color="#004c00"/>
</linearGradient>
<path d="M 47.777977 87.99798 C 18.145971 87.83298 7.8379784 77.41198 8.001976 47.775974 C 8.167976 18.143978 18.593975 7.835979 48.223976 8.00198 C 77.85698 8.16698 88.16397 18.58998 87.99797 48.22398 C 87.83197 77.85898 77.40997 88.16398 47.77797 87.99798 z " fill="url(#linearGradient3854)" fill-opacity="1"/>
<linearGradient gradientTransform="matrix(1 0.0056 -0.0056 1 -24.4074 -6.4236)" gradientUnits="userSpaceOnUse" id="SVGID_2_" x1="72.71" x2="72.71" y1="14.272" y2="93.5123">
<stop offset="0" stop-color="#ffffff"/>
<stop offset="1" stop-color="#ffffff" stop-opacity="0"/>
</linearGradient>
<path d="M 48.224 8.002 C 18.59 7.836 8.167 18.143 8.002 47.774 C 7.836 77.406 18.144 87.832 47.776 87.998 C 77.412 88.162 87.833 77.853 87.998 48.222 C 88.164 18.588 77.859 8.168 48.224 8.002 z M 47.782 86.998 C 18.626 86.834 8.839 76.938 9.002 47.78 C 9.164 18.625 19.062 8.838 48.217 9.002 C 77.375 9.164 87.160995 19.061 86.998 48.216 C 86.836 77.373 76.939 87.16 47.782 86.998 z " fill="url(#SVGID_2_)" fill-opacity="0.25" stroke-opacity="0.25"/>
<path d="M 63.595 75.776 C 62.425003 75.776 61.176003 75.646 59.881 75.393 C 52.319 73.894 45.815 69.293 40.447 64.991 C 34.398 60.136997 29.188 53.658997 25.377998 46.254997 C 20.784998 37.330997 20.427998 30.482998 24.314 25.898996 C 25.853 24.083996 29.668 21.525995 33.331 21.525995 C 34.933 21.525995 36.306 22.003998 37.41 22.945995 C 37.539 23.056995 37.648 23.167995 37.75 23.286997 C 40.262 26.282995 42.955 29.835997 43.947 33.535995 C 44.653 36.16999 43.565 38.337997 42.769997 39.921 C 42.618996 40.226 42.506996 40.448997 42.403996 40.671 C 41.881996 41.795 41.365997 42.919 40.855995 44.045 C 40.902996 44.142 41.198994 44.717 41.198994 44.717 C 41.769993 45.837997 42.531994 46.983997 43.597992 48.328 C 46.006992 51.277 48.435993 53.552 51.01599 55.271 L 51.12699 55.345 C 51.87599 55.845 53.12999 56.681 53.82199 56.681 C 53.89999 56.681 53.95999 56.669 54.020992 56.643 C 55.379993 56.064003 56.72599 55.458 58.069992 54.842003 C 58.220993 54.773003 58.37099 54.700005 58.519993 54.628 C 59.680992 54.066 60.942993 53.456 62.54299 53.456 C 63.276993 53.456 64.00699 53.591 64.71099 53.856003 C 67.69499 55.214005 70.63899 57.133003 73.77199 59.751003 C 73.85499 59.817005 73.95099 59.908005 74.04299 60.007004 C 75.176994 61.220005 75.71599 62.85 75.59999 64.718 C 75.39499 68.045006 73.17999 71.598 71.19899 73.251 C 69.196 74.927 66.638 75.776 63.595 75.776 L 63.595 75.776 z M 33.33 27.526 C 31.887 27.526 29.642002 28.893 28.89 29.779 C 26.725002 32.333 27.339 36.952 30.713 43.51 C 34.143 50.171 38.807 55.981 44.204 60.309 C 49.001003 64.158 54.752003 68.26 61.042 69.505 C 61.943 69.683 62.795 69.772995 63.572 69.772995 C 65.187996 69.772995 66.46 69.393 67.353 68.647 C 68.18 67.95699 69.522 65.799995 69.612 64.34799 C 69.619 64.23599 69.615 64.149994 69.609 64.092995 C 67.085 62.01799 64.779 60.502995 62.57 59.467995 C 62.237 59.494995 61.662 59.774994 61.234 59.981995 C 61.007 60.089996 60.788 60.196995 60.565 60.297997 C 59.175003 60.934 57.783 61.561996 56.377003 62.160995 C 55.545 62.515995 54.67 62.696995 53.776 62.696995 C 51.338 62.696995 49.293 61.332996 47.799 60.33699 L 47.688 60.262993 C 44.603 58.207993 41.737 55.533993 38.925 52.089993 C 37.583 50.401993 36.611 48.928993 35.855 47.444992 L 35.729 47.20299 C 35.19 46.164993 34.186 44.229992 35.175 42.04299 C 35.761 40.741993 36.358 39.44199 36.959 38.144993 C 37.102 37.839993 37.254 37.534992 37.407 37.228992 C 37.829 36.387993 38.264 35.51699 38.149 35.088993 C 37.487003 32.61999 35.438004 29.897991 33.475002 27.531994 C 33.439 27.529 33.39 27.526 33.33 27.526 L 33.33 27.526 z " fill-opacity="0.05" stroke-opacity="0.05"/>
<path d="M 63.595 74.776 C 62.489 74.776 61.304 74.653 60.074 74.412 C 52.724003 72.955 46.345 68.43701 41.074 64.211 C 35.133003 59.445 30.013 53.078 26.267002 45.797997 C 21.877005 37.268997 21.476002 30.791996 25.076002 26.546995 C 26.450005 24.924995 30.023005 22.526997 33.33 22.526997 C 34.687 22.526997 35.842003 22.923996 36.761 23.707996 C 36.845 23.780996 36.92 23.856997 36.99 23.938995 C 39.426003 26.844995 42.038 30.283997 42.980003 33.796 C 43.587 36.062996 42.638004 37.954 41.876003 39.474 C 41.724003 39.779 41.605003 40.016 41.496 40.251 C 40.912003 41.507 40.336 42.765 39.767 44.025 C 39.813004 44.219 40.048 44.673996 40.167004 44.901997 L 40.308 45.172997 C 40.909004 46.351 41.704 47.549995 42.814003 48.948 C 45.293003 51.983 47.797005 54.327 50.460003 56.101 L 50.571003 56.176 C 51.759003 56.969 52.9 57.68 53.821003 57.68 C 54.034004 57.68 54.227 57.642 54.413 57.563 C 55.780003 56.979 57.134003 56.37 58.485 55.75 C 58.659 55.67 58.83 55.588 59.001 55.505 C 60.045 55.0 61.171 54.455 62.543 54.455 C 63.157 54.455 63.768 54.568 64.357 54.791 C 67.219 56.096 70.069 57.961 73.130005 60.518 C 73.19 60.567 73.25101 60.624 73.310005 60.688 C 74.253006 61.696 74.700005 63.069 74.601006 64.656 C 74.420006 67.592995 72.40401 70.942 70.55801 72.483 C 68.74 74.005 66.397 74.776 63.595 74.776 L 63.595 74.776 z M 33.33 26.526 C 31.530005 26.526 29.007002 28.095 28.127005 29.132 C 25.676004 32.024 26.246002 37.015 29.824003 43.967 C 33.316 50.752 38.072 56.673 43.578003 61.088997 C 48.47 65.013 54.347004 69.198 60.848003 70.486 C 61.814003 70.675 62.731003 70.772 63.573 70.772 C 65.429 70.772 66.918 70.315 67.996 69.413 C 68.96501 68.60401 70.501 66.197 70.611 64.409004 C 70.629 64.115005 70.612 63.725006 70.441 63.481003 C 67.708 61.213 65.213005 59.578003 62.820004 58.481003 L 62.818005 58.481003 C 62.805004 58.481003 62.681004 58.456 62.54501 58.456 C 62.091007 58.456 61.492004 58.745003 60.800007 59.081 C 60.581005 59.186 60.36701 59.289 60.15101 59.388 C 58.76901 60.021 57.38401 60.646 55.986008 61.242 C 55.279007 61.544 54.536007 61.697 53.778008 61.697 C 51.64201 61.697 49.820007 60.481003 48.356007 59.505 L 48.245007 59.431 C 45.24601 57.433 42.451008 54.826 39.701008 51.457 C 38.40701 49.827 37.472008 48.411 36.74801 46.991 L 36.619007 46.742 C 36.09401 45.73 35.300007 44.2 36.08901 42.454 C 36.674007 41.156 37.26801 39.859 37.869007 38.565 C 38.007008 38.270004 38.154007 37.975 38.303005 37.678 C 38.85701 36.574 39.332005 35.624 39.119003 34.829 C 38.391003 32.119003 36.172005 29.197002 34.073 26.683002 C 33.855 26.555 33.555 26.526 33.33 26.526 L 33.33 26.526 z " fill-opacity="0.1" stroke-opacity="0.1"/>
<path d="M 63.595 73.776 L 63.595 73.776 C 62.553 73.776 61.433 73.66 60.266003 73.43 C 53.129 72.015 46.876003 67.581 41.700005 63.43 C 35.870003 58.751 30.841003 52.496 27.158005 45.34 C 22.970003 37.205 22.527004 31.099 25.840004 27.192 C 27.143003 25.655 30.471004 23.525 33.331005 23.525 C 34.444004 23.525 35.380005 23.841 36.112003 24.466 C 36.154003 24.502 36.193005 24.542 36.229004 24.584 C 38.590004 27.401 41.124004 30.729 42.014004 34.053 C 42.524 35.95 41.70501 37.583 40.98301 39.023003 C 40.848007 39.293003 40.713005 39.561 40.589005 39.829 C 39.992004 41.113003 39.402004 42.399 38.821003 43.689003 C 38.640003 44.088 38.878 44.585003 39.281 45.361004 L 39.418003 45.629005 C 40.049004 46.867004 40.881004 48.119007 42.031 49.569004 C 44.58 52.69 47.158 55.10101 49.906 56.933 L 50.017 57.007004 C 51.622 58.078003 53.294003 59.126003 54.806004 58.482 C 56.181004 57.894 57.542004 57.281 58.902004 56.659004 C 59.099003 56.568005 59.294003 56.474003 59.487003 56.381004 C 60.428 55.926003 61.401005 55.45501 62.544003 55.45501 C 63.037003 55.45501 63.529003 55.547005 64.005005 55.72601 C 66.746 56.978004 69.50101 58.789005 72.491005 61.285004 C 72.523 61.311005 72.553 61.340004 72.581 61.370003 C 73.331 62.173004 73.685 63.287003 73.60401 64.594 C 73.442 67.226 71.565 70.34001 69.91701 71.71501 C 68.283 73.083 66.156 73.776 63.595 73.776 L 63.595 73.776 z M 33.33 25.526 C 31.188002 25.526 28.412004 27.25 27.364002 28.486 C 24.626003 31.716 25.154003 37.079 28.935 44.425 C 32.491 51.334 37.337 57.367 42.951 61.87 C 47.938 65.869995 53.94 70.139 60.653 71.469 C 64.059 72.137 66.814 71.705 68.636 70.182 C 69.789 69.219 71.478004 66.58 71.608 64.472 C 71.653 63.743 71.501 63.174 71.156 62.778 C 68.325 60.421 65.733 58.717 63.233997 57.574 C 63.045 57.505 62.797997 57.458 62.544 57.458 C 61.858997 57.458 61.164 57.795 60.358 58.185 C 60.151997 58.285 59.945 58.384003 59.733997 58.481003 C 58.358997 59.111004 56.982 59.731003 55.590996 60.325005 C 55.007996 60.574005 54.396996 60.700005 53.775997 60.700005 C 51.944996 60.700005 50.331997 59.625004 48.908997 58.676006 L 48.797 58.6 C 45.881 56.657 43.159 54.114 40.475 50.827 C 39.230003 49.259 38.33 47.899 37.637 46.539 L 37.505 46.285 C 37.017 45.344 36.409 44.171 36.998 42.869 C 37.582 41.573 38.176003 40.28 38.774 38.989 C 38.907 38.704 39.050003 38.417 39.195004 38.129 C 39.811005 36.899 40.394005 35.735996 40.083004 34.573 C 39.300003 31.652998 36.959003 28.576998 34.755005 25.942995 C 34.4 25.666 33.921 25.526 33.33 25.526 L 33.33 25.526 z " fill-opacity="0.2" stroke-opacity="0.2"/>
<path d="M 71.85 62.055 C 69.35 59.967 66.574 58.002 63.650997 56.664 C 62.051 56.059 60.759 56.911003 59.318996 57.57 C 57.951996 58.196 56.582996 58.812 55.199997 59.403 C 53.087 60.305 51.143 58.961 49.351997 57.767 C 46.259 55.705 43.591995 53.061996 41.248997 50.192997 C 40.227997 48.907997 39.274 47.547997 38.526997 46.083996 C 38.049995 45.145996 37.479996 44.228996 37.908997 43.278996 C 38.491997 41.985996 39.083996 40.695995 39.680996 39.408997 C 40.428997 37.796 41.542995 36.159996 41.047997 34.312996 C 40.182995 31.085997 37.566 27.738997 35.461 25.227997 C 33.122997 23.231997 28.219995 25.927998 26.600998 27.838997 C 22.589998 32.568996 25.621998 40.171997 28.045998 44.881996 C 31.516998 51.626995 36.400997 57.897995 42.324997 62.649994 C 47.614 66.89299 53.682 71.106 60.457996 72.44899 C 63.443996 73.03599 66.827995 72.99599 69.27699 70.94899 C 71.206 69.339 73.975 64.327 71.85 62.055 " fill-opacity="0.2" stroke-opacity="0.2"/>
<linearGradient gradientTransform="matrix(1 0.0056 -0.0056 1 -24.4074 -6.4236)" gradientUnits="userSpaceOnUse" x1="73.3945" x2="73.3945" y1="35.7573" y2="96.0258">
<stop offset="0" stop-color="#fafcef"/>
<stop offset="0.3232" stop-color="#fafcef"/>
<stop offset="1" stop-color="#b2aeaa"/>
</linearGradient>
<path d="M 71.85 60.923 C 71.662 60.765 71.473 60.607 71.284 60.454 C 69.291 58.833 67.328995 57.548 65.61 56.588997 C 64.897 56.191 64.217 55.843 63.605 55.563995 L 63.603 55.567997 C 63.245 55.407997 62.847 55.313995 62.429 55.313995 C 62.054 55.309994 61.692 55.381996 61.361 55.508995 C 61.243 55.56599 61.124 55.619995 61.011 55.670994 C 57.758003 57.168995 56.476 57.75099 54.177 58.715996 C 52.913 58.965996 48.699 56.965996 43.963 52.195995 C 43.492 51.716995 43.06 51.250996 42.647003 50.793995 C 42.58 50.715996 42.508003 50.639996 42.441 50.563995 C 42.049004 50.122993 41.682003 49.688995 41.344 49.268997 C 41.295 49.21 41.249 49.151997 41.201 49.090996 C 40.507 48.217995 39.921 47.397995 39.44 46.645996 C 39.414 46.602997 39.386 46.563995 39.362 46.520996 C 39.126 46.145996 38.912 45.786995 38.724 45.446995 C 38.715 45.42699 38.705997 45.409996 38.697 45.393993 C 38.316 44.692993 38.038 44.069992 37.849 43.539993 C 37.843 43.525993 37.839 43.512993 37.835 43.498993 C 37.740997 43.234993 37.672 42.992992 37.624 42.77999 L 37.624 42.77999 C 37.931 42.09399 39.139 39.41099 40.744 35.998993 C 40.772 35.937992 40.803 35.877995 40.833 35.816994 C 41.519 34.396996 41.024 33.123993 40.957 32.871994 C 40.847 32.611996 40.732 32.353992 40.613 32.090996 C 39.711 30.131996 38.46 28.049995 36.938 25.992996 C 36.667 25.625996 36.404 25.258995 36.114 24.894997 C 35.900997 24.624996 35.683 24.361996 35.461 24.095997 C 34.953 23.661997 34.299 23.396996 33.58 23.392998 C 33.470997 23.390997 33.360996 23.398998 33.255997 23.410995 C 33.068996 23.445995 32.869995 23.490995 32.663 23.535995 C 30.978 23.920998 28.599998 24.695995 26.946 26.334995 C 26.702 26.572998 26.487 26.834995 26.285 27.105995 C 26.222 27.191998 26.163 27.279997 26.105 27.363997 C 25.97 27.564997 25.845 27.771996 25.731 27.986996 C 25.676998 28.088997 25.619 28.187996 25.568 28.291996 C 25.436998 28.568996 25.318998 28.857996 25.218 29.158997 C 25.161 29.330996 25.116 29.508995 25.069998 29.687996 C 25.031998 29.833996 24.993998 29.980995 24.961998 30.130997 C 24.915998 30.349997 24.874 30.569996 24.841995 30.796995 C 24.830996 30.878998 24.822998 30.964996 24.813995 31.046995 C 24.222998 35.99 26.848995 42.970997 32.137997 50.404 C 34.289 53.412 36.014996 55.636 38.160995 57.791 C 40.178997 59.914 43.252995 62.301003 45.619995 64.035 C 56.552994 72.0 65.546 73.545006 69.631 69.496 C 71.14 68.002 71.992 65.66 72.444 63.955 C 72.51 63.695004 72.57 63.451 72.622 63.228 C 72.633 63.13 72.64 63.029 72.64 62.929 C 72.645 62.153 72.342 61.448 71.85 60.923 z " fill="url(#linearGradient3868)" fill-opacity="1"/>
<path d="M 71.85 60.923 C 71.662 60.765 71.473 60.607 71.284 60.454 C 69.291 58.833 67.328995 57.548 65.61 56.588997 C 64.897 56.191 64.217 55.843 63.605 55.563995 L 63.603 55.567997 C 63.245 55.407997 62.847 55.313995 62.429 55.313995 C 62.054 55.309994 61.692 55.381996 61.361 55.508995 C 61.243 55.56599 61.124 55.619995 61.011 55.670994 C 57.758003 57.168995 56.476 57.75099 54.177 58.715996 C 52.913 58.965996 48.699 56.965996 43.963 52.195995 C 43.492 51.716995 43.06 51.250996 42.647003 50.793995 C 42.58 50.715996 42.508003 50.639996 42.441 50.563995 C 42.049004 50.122993 41.682003 49.688995 41.344 49.268997 C 41.295 49.21 41.249 49.151997 41.201 49.090996 C 40.507 48.217995 39.921 47.397995 39.44 46.645996 C 39.414 46.602997 39.386 46.563995 39.362 46.520996 C 39.126 46.145996 38.912 45.786995 38.724 45.446995 C 38.715 45.42699 38.705997 45.409996 38.697 45.393993 C 38.316 44.692993 38.038 44.069992 37.849 43.539993 C 37.843 43.525993 37.839 43.512993 37.835 43.498993 C 37.740997 43.234993 37.672 42.992992 37.624 42.77999 L 37.624 42.77999 C 37.931 42.09399 39.139 39.41099 40.744 35.998993 C 40.772 35.937992 40.803 35.877995 40.833 35.816994 C 41.519 34.396996 41.024 33.123993 40.957 32.871994 C 40.847 32.611996 40.732 32.353992 40.613 32.090996 C 39.711 30.131996 38.46 28.049995 36.938 25.992996 C 36.667 25.625996 36.404 25.258995 36.114 24.894997 C 35.900997 24.624996 35.683 24.361996 35.461 24.095997 C 34.953 23.661997 34.299 23.396996 33.58 23.392998 C 33.470997 23.390997 33.360996 23.398998 33.255997 23.410995 C 33.068996 23.445995 32.869995 23.490995 32.663 23.535995 C 30.978 23.920998 28.599998 24.695995 26.946 26.334995 C 26.702 26.572998 26.487 26.834995 26.285 27.105995 C 26.222 27.191998 26.163 27.279997 26.105 27.363997 C 25.97 27.564997 25.845 27.771996 25.731 27.986996 C 25.676998 28.088997 25.619 28.187996 25.568 28.291996 C 25.436998 28.568996 25.318998 28.857996 25.218 29.158997 C 25.161 29.330996 25.116 29.508995 25.069998 29.687996 C 25.031998 29.833996 24.993998 29.980995 24.961998 30.130997 C 24.915998 30.349997 24.874 30.569996 24.841995 30.796995 C 24.830996 30.878998 24.822998 30.964996 24.813995 31.046995 C 24.222998 35.99 26.848995 42.970997 32.137997 50.404 C 34.289 53.412 36.014996 55.636 38.160995 57.791 C 40.178997 59.914 43.252995 62.301003 45.619995 64.035 C 56.552994 72.0 65.546 73.545006 69.631 69.496 C 71.14 68.002 71.992 65.66 72.444 63.955 C 72.51 63.695004 72.57 63.451 72.622 63.228 C 72.633 63.13 72.64 63.029 72.64 62.929 C 72.645 62.153 72.342 61.448 71.85 60.923 z " fill="url(#linearGradient3864)" fill-opacity="1"/>
<linearGradient gradientTransform="matrix(1,0.0056,-0.0056,1,-24.4074,-6.4236)" gradientUnits="userSpaceOnUse" x1="50.5039" x2="56.9414" y1="24.6123" y2="38.4844">
<stop offset="0" stop-color="#ffffff"/>
<stop offset="1" stop-color="#ffffff" stop-opacity="0"/>
</linearGradient>
<linearGradient gradientTransform="matrix(1 0.0056 -0.0056 1 -24.4074 -6.4236)" gradientUnits="userSpaceOnUse" x1="77.6738" x2="57.462" y1="53.9404" y2="66.3266">
<stop offset="0" stop-color="#b2aeaa" stop-opacity="0"/>
<stop offset="0.3067" stop-color="#b2aeaa" stop-opacity="0"/>
<stop offset="1" stop-color="#b2aeaa"/>
</linearGradient>
<linearGradient gradientTransform="matrix(0.54 0.8417 -0.695 0.4458 -311.072 -1457.9016)" gradientUnits="userSpaceOnUse" x1="1439.4219" x2="1439.4219" y1="613.7324" y2="618.7273">
<stop offset="0" stop-color="#ffffff"/>
<stop offset="1" stop-color="#ffffff" stop-opacity="0"/>
</linearGradient>
<linearGradient gradientTransform="matrix(1 0.0056 -0.0056 1 -24.4074 -6.4236)" gradientUnits="userSpaceOnUse" x1="81.8936" x2="62.1737" y1="31.3486" y2="79.4852">
<stop offset="0" stop-color="#fafcef"/>
<stop offset="0.3232" stop-color="#fafcef"/>
<stop offset="1" stop-color="#b2aeaa"/>
</linearGradient>
<linearGradient gradientTransform="matrix(1 0.0056 -0.0056 1 -24.4074 -6.4236)" gradientUnits="userSpaceOnUse" x1="87.5742" x2="93.0909" y1="70.5176" y2="73.9121">
<stop offset="0" stop-color="#b2aeaa" stop-opacity="0"/>
<stop offset="0.3067" stop-color="#b2aeaa" stop-opacity="0"/>
<stop offset="1" stop-color="#b2aeaa"/>
</linearGradient>
<linearGradient gradientTransform="matrix(0.839 0.5443 -0.4495 0.6927 -357.0174 -872.0851)" gradientUnits="userSpaceOnUse" x1="862.1895" x2="862.1895" y1="662.8809" y2="667.8773">
<stop offset="0" stop-color="#ffffff"/>
<stop offset="1" stop-color="#ffffff" stop-opacity="0"/>
</linearGradient>
<linearGradient gradientTransform="matrix(1 0.0056 -0.0056 1 -24.4074 -6.4236)" gradientUnits="userSpaceOnUse" x1="55.4004" x2="64.7744" y1="35.4692" y2="46.7305">
<stop offset="0" stop-color="#b2aeaa" stop-opacity="0"/>
<stop offset="0.3067" stop-color="#b2aeaa" stop-opacity="0"/>
<stop offset="1" stop-color="#b2aeaa"/>
</linearGradient>
<linearGradient gradientTransform="matrix(1 0.0056 -0.0056 1 -24.4074 -6.4236)" gradientUnits="userSpaceOnUse" x1="85.4141" x2="83.8118" y1="59.4902" y2="68.3621">
<stop offset="0" stop-color="#ffffff"/>
<stop offset="1" stop-color="#ffffff" stop-opacity="0"/>
</linearGradient>
<rect fill="none" height="96" width="96"/>
</svg>
