<?xml version="1.0" encoding="UTF-8"?>
<svg xmlns="http://www.w3.org/2000/svg" xmlns:xlink="http://www.w3.org/1999/xlink" baseProfile="tiny" contentScriptType="text/ecmascript" contentStyleType="text/css" height="96px" preserveAspectRatio="xMidYMid meet" version="1.1" viewBox="0 0 96 96" width="96px" x="0px" y="0px" zoomAndPan="magnify">
<defs>
<linearGradient id="linearGradient3805">
<stop offset="0" stop-color="#1178cb" stop-opacity="1"/>
<stop offset="1" stop-color="#116ccb" stop-opacity="1"/>
</linearGradient>
<linearGradient id="linearGradient3797">
<stop offset="0" stop-color="#ffffff" stop-opacity="1"/>
<stop offset="1" stop-color="#ffffff" stop-opacity="0.78431374"/>
</linearGradient>
<linearGradient gradientTransform="matrix(1,0,0,-1,-665.875,-1566.041)" gradientUnits="userSpaceOnUse" x1="713.874" x2="713.874" y1="-1573.7036" y2="-1653.7036">
<stop offset="0" stop-color="#0077cd"/>
<stop offset="1" stop-color="#003f9a"/>
</linearGradient>
<linearGradient gradientTransform="matrix(1,0,0,-1,-665.875,-1566.041)" gradientUnits="userSpaceOnUse" x1="713.874" x2="713.874" y1="-1574.2935" y2="-1653.5381">
<stop offset="0" stop-color="#ffffff"/>
<stop offset="1" stop-color="#ffffff" stop-opacity="0"/>
</linearGradient>
<linearGradient gradientTransform="matrix(1,0,0,-1,-665.875,-1566.041)" gradientUnits="userSpaceOnUse" id="linearGradient3033" x1="713.874" x2="713.874" y1="-1574.2935" y2="-1653.5381">
<stop offset="0" stop-color="#ffffff"/>
<stop offset="1" stop-color="#ffffff" stop-opacity="0"/>
</linearGradient>
<linearGradient gradientUnits="userSpaceOnUse" id="linearGradient3803" x1="41.59322" x2="41.59322" y1="25.915255" y2="71.948463">
<stop offset="0" stop-color="#ffffff" stop-opacity="1"/>
<stop offset="1" stop-color="#ffffff" stop-opacity="0.78431374"/>
</linearGradient>
<linearGradient gradientTransform="matrix(0,1,-1,0,96,0)" gradientUnits="userSpaceOnUse" id="linearGradient3811" x1="8" x2="88" y1="48" y2="48">
<stop offset="0" stop-color="#1178cb" stop-opacity="1"/>
<stop offset="1" stop-color="#116ccb" stop-opacity="1"/>
</linearGradient>
<linearGradient gradientUnits="userSpaceOnUse" id="linearGradient3815" x1="41.59322" x2="41.59322" y1="25.915255" y2="71.948463">
<stop offset="0" stop-color="#1178cb" stop-opacity="1"/>
<stop offset="1" stop-color="#116ccb" stop-opacity="1"/>
</linearGradient>
</defs>
<path d="M 88.0 49.0 C 88.0 78.635 77.639 89.0 48.0 89.0 C 18.367 89.0 8.0 78.635 8.0 49.0 C 8.0 19.367 18.367 9.0 48.0 9.0 C 77.637 9.0 88.0 19.367 88.0 49.0 z " fill-opacity="0.4"/>
<path d="M 48.0 88.0 C 18.365 88.0 8.0 77.639 8.0 48.0 C 8.0 18.367 18.365 8.0 48.0 8.0 C 77.633 8.0 88.0 18.367 88.0 48.0 C 88.0 77.637 77.633 88.0 48.0 88.0 z " fill="url(#linearGradient3811)" fill-opacity="1"/>
<path d="M 48.0 8.0 C 18.367 8.0 8.0 18.367 8.0 48.0 C 8.0 77.635 18.367 88.0 48.0 88.0 C 77.639 88.0 88.0 77.635 88.0 48.0 C 88.0 18.367 77.637 8.0 48.0 8.0 z M 48.0 87.0 C 18.842 87.0 9.0 77.158 9.0 48.0 C 9.0 18.842005 18.842 9.0 48.0 9.0 C 77.16 9.0 87.0 18.842 87.0 48.0 C 87.0 77.158005 77.16 87.0 48.0 87.0 z " fill="url(#linearGradient3033)" fill-opacity="0.15"/>
<path d="M 61.642 72.981 C 61.49 72.981 61.323 72.938 61.182 72.866005 L 48.208 65.285 L 38.296 65.289 C 36.075 65.289 32.79 65.145004 29.856005 63.918003 C 26.021 62.316 24.0 57.348 24.0 53.183 C 24.0 44.122 34.893 43.42 38.227 43.42 C 38.856003 43.42 39.229 43.442997 39.229 43.442997 L 55.397 43.528996 C 55.742 43.53099 56.063 43.729996 56.208 44.05199 C 56.354 44.373993 56.304 44.750996 56.073 45.01699 L 50.566 51.500996 C 50.389004 51.698997 50.142 51.82299 49.872 51.82299 C 49.862003 51.82299 48.378 51.744995 48.378 51.744995 C 48.066 51.734997 47.782 51.553993 47.627003 51.275993 C 47.479004 50.998993 47.481003 50.666992 47.632004 50.388992 L 49.216003 47.629993 L 40.077003 47.629993 C 40.007004 47.62899 39.654003 47.60799 39.075005 47.60799 C 36.495003 47.60799 28.077003 48.03799 28.077003 53.623993 C 28.077003 55.941994 29.297005 59.464993 31.809004 60.455994 C 34.033005 61.340992 36.660004 61.473995 38.033005 61.473995 C 38.67701 61.473995 39.089005 61.439995 39.100006 61.438995 C 39.100006 61.438995 49.411007 61.32999 49.41301 61.32999 C 49.582005 61.32999 49.736008 61.360992 49.876007 61.446995 L 57.29001 65.81 L 55.01801 63.162 C 54.78901 62.893 54.73701 62.521 54.87701 62.199997 C 55.01701 61.892 55.318012 61.676 55.67501 61.665997 C 55.73301 61.664997 61.92001 61.397995 65.53501 57.512997 C 67.39201 55.529995 68.26401 52.899 68.153015 49.697 C 67.681015 36.664 61.179016 36.509 60.902016 36.509 L 33.559 36.509 C 33.188 36.509 32.857 36.289997 32.718 35.945 C 32.579 35.607 32.664997 35.214 32.927998 34.956 L 40.851997 27.275002 C 41.018997 27.111002 41.247 27.019 41.482 27.019 L 43.519997 27.019 C 43.848995 27.019 44.144997 27.2 44.312996 27.486 C 44.467995 27.778 44.460995 28.13 44.284996 28.403 L 42.182995 31.814 C 45.290997 31.872 56.706993 32.005 60.793995 32.005 C 64.673996 32.005 71.99999 35.877003 71.99999 50.536003 C 71.99999 60.26 64.77999 63.555004 61.833992 64.493004 L 64.632996 69.23801 C 64.83099 69.592 64.784 70.02401 64.508995 70.314 L 62.302994 72.696 C 62.122 72.884 61.883 72.981 61.642 72.981 z " fill-opacity="0.3" stroke-opacity="0.3"/>
<rect fill="none" height="96" width="96"/>
<path d="M 61.642 74.231 C 61.137997 74.231 60.608997 74.101006 60.153 73.867004 L 47.6 66.535 L 38.297997 66.539 C 35.887997 66.539 32.300995 66.379 28.987995 64.995 C 24.236996 63.009003 21.749996 57.046 21.749996 52.182003 C 21.749996 41.035004 34.360996 40.169003 38.226997 40.169003 C 38.948 40.169003 39.374996 40.197 39.374996 40.197 L 55.408997 40.279003 C 56.637997 40.283005 57.758995 41.01 58.261997 42.132004 C 58.767 43.246 58.575996 44.567005 57.773 45.492004 L 52.281 51.957005 C 51.648 52.671005 50.774 53.07301 49.872997 53.07301 C 49.863 53.07301 48.261997 52.992004 48.261997 52.992004 C 47.205 52.959003 46.205 52.339005 45.664997 51.375004 C 45.242996 50.589005 45.160995 49.694004 45.415997 48.881004 L 40.061996 48.881004 L 39.906 48.876003 C 39.764 48.870003 39.482 48.858 39.074997 48.858 C 38.178997 48.858 30.326996 48.964 30.326996 52.624 C 30.326996 54.223 31.204996 56.799 32.635994 57.364 C 34.515995 58.112 36.823994 58.223 38.032993 58.223 C 38.540993 58.223 38.87599 58.199 38.91799 58.196 C 39.03599 58.189 49.326992 58.079 49.41299 58.079 C 50.01499 58.079 50.56599 58.23 51.05399 58.528 L 53.12999 59.75 C 53.70399 58.939 54.60899 58.443 55.61299 58.415 C 55.652992 58.413 60.96099 58.125 63.887993 54.979 C 65.315994 53.453 65.993 51.366 65.90299 48.773 C 65.51799 38.109 60.92599 37.759 60.879993 37.757 L 33.559994 37.757 C 32.262993 37.757 31.113997 36.982 30.631994 35.782 C 30.147997 34.603 30.429996 33.253002 31.354994 32.347 L 39.28799 24.658 C 39.862995 24.093 40.663994 23.767 41.483994 23.767 L 43.521996 23.767 C 44.652996 23.767 45.673996 24.356 46.254997 25.343 C 46.83 26.42 46.795 27.664 46.177 28.619 C 50.823 28.68 57.76 28.752 60.796 28.752 C 65.45 28.752 74.252 33.094997 74.252 49.532997 C 74.252 58.547997 68.834 62.761997 65.1 64.595 L 66.574 67.093 C 67.276 68.343 67.1 69.852005 66.143 70.861 L 63.955 73.223 C 63.338 73.867 62.498 74.231 61.642 74.231 z " fill-opacity="0.07" stroke-opacity="0.07"/>
<path d="M 61.642 73.481 C 61.255997 73.481 60.849 73.381004 60.496 73.200005 L 47.802 65.785 L 38.296997 65.789 C 35.950996 65.789 32.463997 65.635 29.276997 64.303 C 24.827995 62.444 22.499996 56.799 22.499996 52.183 C 22.499996 41.732 34.536995 40.92 38.226997 40.92 C 38.916996 40.92 39.325996 40.947 39.325996 40.947 L 55.405 41.030003 C 56.341 41.033 57.194 41.586 57.577 42.44 C 57.963 43.29 57.817 44.297 57.206 45.002003 L 51.709 51.474003 C 51.225 52.020004 50.559 52.326004 49.872 52.326004 C 49.862 52.326004 48.298996 52.246 48.298996 52.246 C 47.493996 52.221 46.729996 51.747 46.317997 51.012 C 45.92 50.27 45.92 49.402 46.312996 48.678 L 46.624996 48.134003 L 40.061996 48.134003 L 39.930996 48.13 C 39.789997 48.124 39.497 48.112 39.075996 48.112 C 37.49 48.112 29.577995 48.33 29.577995 52.627 C 29.577995 54.446 30.544994 57.348 32.360996 58.065 C 34.356995 58.858997 36.771996 58.976997 38.033997 58.976997 C 38.587997 58.976997 38.948997 58.949997 38.976 58.948 C 39.039 58.943996 49.259 58.832996 49.414 58.832996 C 49.876 58.832996 50.296 58.946995 50.663 59.171997 L 53.427 60.798996 C 53.448997 60.73299 53.475 60.667995 53.503 60.603996 C 53.896 59.740997 54.71 59.194996 55.635 59.168995 C 55.682 59.166996 61.277 58.89199 64.438995 55.493996 C 66.006996 53.817997 66.752 51.550995 66.655 48.750996 C 66.237 37.165997 60.957 37.011993 60.904 37.011993 L 33.559 37.011993 C 32.57 37.011993 31.693998 36.420994 31.326998 35.506992 C 30.957998 34.608994 31.173998 33.57799 31.878998 32.886993 L 39.809 25.199991 C 40.247 24.769993 40.858997 24.520992 41.483 24.520992 L 43.520996 24.520992 C 44.382996 24.520992 45.16299 24.971992 45.606995 25.727991 C 46.04499 26.548992 46.014996 27.492992 45.543995 28.219994 L 44.84399 29.355991 C 49.623993 29.421991 57.554993 29.505993 60.79499 29.505993 C 65.189995 29.505993 73.50099 33.692993 73.50099 49.536995 C 73.50099 58.575996 67.90399 62.57999 64.03199 64.26599 L 65.92599 67.47699 C 66.46199 68.43099 66.32599 69.57999 65.597984 70.34699 L 63.403984 72.716 C 62.934 73.205 62.295 73.481 61.642 73.481 z " fill-opacity="0.07" stroke-opacity="0.07"/>
<path d="M 61.642 72.731 C 61.372997 72.731 61.087997 72.661 60.838997 72.533005 L 48.004997 65.035 L 38.296997 65.039 C 36.016 65.039 32.628998 64.891 29.566998 63.61 C 25.420998 61.878 23.250998 56.549 23.250998 52.182 C 23.250998 42.427 34.713997 41.669 38.227997 41.669 C 38.886997 41.669 39.277996 41.694 39.277996 41.694 L 55.4 41.78 C 56.043003 41.782 56.629 42.161 56.891003 42.747 C 57.157 43.331997 57.058 44.025997 56.638004 44.51 L 51.136005 50.988 C 50.800007 51.365997 50.343006 51.575 49.870007 51.575 C 49.86001 51.575 48.336006 51.496 48.336006 51.496 C 47.784008 51.478 47.254005 51.152 46.970005 50.644 C 46.696007 50.132 46.69801 49.535 46.970005 49.034 L 47.918007 47.383 L 40.060005 47.383 L 39.957005 47.379 C 39.812004 47.372997 39.509003 47.360996 39.07301 47.360996 C 36.669006 47.360996 28.825005 47.740997 28.825005 52.625996 C 28.825005 54.581997 29.860004 57.883995 32.083004 58.76099 C 34.194004 59.60099 36.716003 59.72599 38.03101 59.72599 C 38.636005 59.72599 39.025005 59.694996 39.036007 59.693993 C 39.091007 59.69099 49.409008 59.581993 49.411007 59.581993 C 49.737007 59.581993 50.01701 59.656994 50.26701 59.810993 L 54.125008 62.081993 C 54.002007 61.70299 54.020008 61.28599 54.187008 60.901993 C 54.45701 60.30899 55.016006 59.935993 55.652008 59.91899 C 55.708008 59.916992 61.58901 59.652992 64.98401 56.00499 C 66.69201 54.18099 67.505005 51.73199 67.40101 48.72499 C 66.95601 36.40399 61.147007 36.26199 60.90001 36.26199 L 33.559 36.26199 C 32.878 36.26199 32.274998 35.85599 32.022 35.22699 C 31.768 34.60899 31.917 33.89899 32.403 33.42299 L 40.33 25.738989 C 40.631 25.44299 41.053 25.270988 41.482 25.270988 L 43.520004 25.270988 C 44.11401 25.270988 44.652004 25.583988 44.960003 26.107988 C 45.26 26.670988 45.237003 27.313988 44.914 27.811989 L 43.513 30.086988 C 47.751 30.150988 57.166 30.25599 60.795 30.25599 C 64.931 30.25599 72.751 34.285988 72.751 49.536987 C 72.751 58.86099 66.467 62.559982 62.945 63.899982 L 65.28 67.85799 C 65.649 68.51598 65.554 69.302986 65.053 69.831985 L 62.853 72.206985 C 62.529 72.543 62.091 72.731 61.642 72.731 z " fill-opacity="0.07" stroke-opacity="0.07"/>
<linearGradient gradientUnits="userSpaceOnUse" x1="48.0005" x2="48.0005" y1="71.9814" y2="26.019">
<stop offset="0" stop-color="#d0cbc5"/>
<stop offset="0.5031" stop-color="#fafcef"/>
<stop offset="0.9693" stop-color="#ffffff"/>
<stop offset="1" stop-color="#ffffff"/>
</linearGradient>
<path d="M 61.642 71.981 C 61.49 71.981 61.323 71.938 61.182 71.866005 L 48.208 64.285 L 38.296 64.289 C 36.075 64.289 32.79 64.145004 29.856005 62.918003 C 26.021 61.316 24.0 56.348 24.0 52.183 C 24.0 43.122 34.893 42.42 38.227 42.42 C 38.856003 42.42 39.229 42.443996 39.229 42.443996 L 55.397 42.529995 C 55.742 42.53099 56.063 42.730995 56.208 43.052994 C 56.354 43.374992 56.304 43.751995 56.073 44.01699 L 50.566 50.501995 C 50.389004 50.699997 50.142 50.823994 49.872 50.823994 C 49.862003 50.823994 48.378 50.745995 48.378 50.745995 C 48.066 50.735996 47.782 50.554993 47.627003 50.276993 C 47.479004 49.999992 47.481003 49.66799 47.632004 49.38999 L 49.216003 46.630993 L 40.077003 46.630993 C 40.007004 46.629993 39.654003 46.608994 39.075005 46.608994 C 36.495003 46.608994 28.077003 47.038994 28.077003 52.623993 C 28.077003 54.941994 29.297005 58.464993 31.809004 59.455994 C 34.033005 60.340992 36.660004 60.473995 38.033005 60.473995 C 38.67701 60.473995 39.089005 60.439995 39.100006 60.438995 C 39.100006 60.438995 49.411007 60.32999 49.41301 60.32999 C 49.582005 60.32999 49.736008 60.360992 49.876007 60.446995 L 57.29001 64.81 L 55.01801 62.162 C 54.78901 61.893 54.73701 61.521 54.87701 61.199997 C 55.01701 60.892 55.318012 60.676 55.67501 60.665997 C 55.73301 60.664997 61.92001 60.397995 65.53501 56.512997 C 67.39201 54.529995 68.26401 51.899 68.153015 48.697 C 67.681015 35.664 61.179016 35.509 60.902016 35.509 L 33.559 35.509 C 33.188 35.509 32.857 35.289997 32.718 34.945 C 32.579 34.607 32.664997 34.214 32.927998 33.956 L 40.851997 26.275002 C 41.018997 26.111002 41.247 26.019 41.482 26.019 L 43.519997 26.019 C 43.848995 26.019 44.144997 26.2 44.312996 26.486 C 44.467995 26.778 44.460995 27.13 44.284996 27.403 L 42.182995 30.814 C 45.290997 30.872 56.706993 31.005 60.793995 31.005 C 64.673996 31.005 71.99999 34.877 71.99999 49.536 C 71.99999 59.26 64.77999 62.555 61.833992 63.493 L 64.632996 68.238 C 64.83099 68.592 64.784 69.024 64.508995 69.314 L 62.302994 71.696 C 62.122 71.884 61.883 71.981 61.642 71.981 z " fill="url(#linearGradient3815)" fill-opacity="1"/>
<path d="M 61.642 71.981 C 61.49 71.981 61.323 71.938 61.182 71.866005 L 48.208 64.285 L 38.296 64.289 C 36.075 64.289 32.79 64.145004 29.856005 62.918003 C 26.021 61.316 24.0 56.348 24.0 52.183 C 24.0 43.122 34.893 42.42 38.227 42.42 C 38.856003 42.42 39.229 42.443996 39.229 42.443996 L 55.397 42.529995 C 55.742 42.53099 56.063 42.730995 56.208 43.052994 C 56.354 43.374992 56.304 43.751995 56.073 44.01699 L 50.566 50.501995 C 50.389004 50.699997 50.142 50.823994 49.872 50.823994 C 49.862003 50.823994 48.378 50.745995 48.378 50.745995 C 48.066 50.735996 47.782 50.554993 47.627003 50.276993 C 47.479004 49.999992 47.481003 49.66799 47.632004 49.38999 L 49.216003 46.630993 L 40.077003 46.630993 C 40.007004 46.629993 39.654003 46.608994 39.075005 46.608994 C 36.495003 46.608994 28.077003 47.038994 28.077003 52.623993 C 28.077003 54.941994 29.297005 58.464993 31.809004 59.455994 C 34.033005 60.340992 36.660004 60.473995 38.033005 60.473995 C 38.67701 60.473995 39.089005 60.439995 39.100006 60.438995 C 39.100006 60.438995 49.411007 60.32999 49.41301 60.32999 C 49.582005 60.32999 49.736008 60.360992 49.876007 60.446995 L 57.29001 64.81 L 55.01801 62.162 C 54.78901 61.893 54.73701 61.521 54.87701 61.199997 C 55.01701 60.892 55.318012 60.676 55.67501 60.665997 C 55.73301 60.664997 61.92001 60.397995 65.53501 56.512997 C 67.39201 54.529995 68.26401 51.899 68.153015 48.697 C 67.681015 35.664 61.179016 35.509 60.902016 35.509 L 33.559 35.509 C 33.188 35.509 32.857 35.289997 32.718 34.945 C 32.579 34.607 32.664997 34.214 32.927998 33.956 L 40.851997 26.275002 C 41.018997 26.111002 41.247 26.019 41.482 26.019 L 43.519997 26.019 C 43.848995 26.019 44.144997 26.2 44.312996 26.486 C 44.467995 26.778 44.460995 27.13 44.284996 27.403 L 42.182995 30.814 C 45.290997 30.872 56.706993 31.005 60.793995 31.005 C 64.673996 31.005 71.99999 34.877 71.99999 49.536 C 71.99999 59.26 64.77999 62.555 61.833992 63.493 L 64.632996 68.238 C 64.83099 68.592 64.784 69.024 64.508995 69.314 L 62.302994 71.696 C 62.122 71.884 61.883 71.981 61.642 71.981 z " fill="url(#linearGradient3803)" fill-opacity="1"/>
</svg>
