<?xml version="1.0" encoding="UTF-8"?>
<svg xmlns="http://www.w3.org/2000/svg" xmlns:xlink="http://www.w3.org/1999/xlink" baseProfile="tiny" contentScriptType="text/ecmascript" contentStyleType="text/css" height="96px" preserveAspectRatio="xMidYMid meet" version="1.1" viewBox="0 0 96 96" width="96px" x="0px" y="0px" zoomAndPan="magnify">
<defs>
<linearGradient id="linearGradient3801">
<stop offset="0" stop-color="#ffffff" stop-opacity="1"/>
<stop offset="1" stop-color="#ffffff" stop-opacity="0.78431374"/>
</linearGradient>
<linearGradient>
<stop offset="0" stop-color="#00a1ff" stop-opacity="1"/>
<stop offset="1" stop-color="#0089ff" stop-opacity="1"/>
</linearGradient>
<linearGradient gradientTransform="matrix(1,0,0,-1,-64.0742,-1067.8408)" gradientUnits="userSpaceOnUse" x1="112.0742" x2="112.0742" y1="-1075.5039" y2="-1155.5039">
<stop offset="0" stop-color="#0077cd"/>
<stop offset="1" stop-color="#003f9a"/>
</linearGradient>
<linearGradient gradientTransform="matrix(1,0,0,-1,-64.0742,-1067.8408)" gradientUnits="userSpaceOnUse" x1="112.0742" x2="112.0742" y1="-1076.0938" y2="-1155.3384">
<stop offset="0" stop-color="#ffffff"/>
<stop offset="1" stop-color="#ffffff" stop-opacity="0"/>
</linearGradient>
<linearGradient gradientTransform="matrix(1,0,0,-1,-64.0742,-1067.8408)" gradientUnits="userSpaceOnUse" id="linearGradient3024" x1="112.0742" x2="112.0742" y1="-1076.0938" y2="-1155.3384">
<stop offset="0" stop-color="#ffffff"/>
<stop offset="1" stop-color="#ffffff" stop-opacity="0"/>
</linearGradient>
<linearGradient gradientTransform="matrix(0,1,-1,0,96,0)" gradientUnits="userSpaceOnUse" id="linearGradient3795" x1="8" x2="88" y1="48" y2="48">
<stop offset="0" stop-color="#00a1ff" stop-opacity="1"/>
<stop offset="1" stop-color="#0089ff" stop-opacity="1"/>
</linearGradient>
<linearGradient gradientUnits="userSpaceOnUse" id="linearGradient3807" x1="47.089558" x2="47.089558" y1="22.111702" y2="74.104919">
<stop offset="0" stop-color="#ffffff" stop-opacity="1"/>
<stop offset="1" stop-color="#ffffff" stop-opacity="0.78431374"/>
</linearGradient>
<linearGradient gradientTransform="matrix(0,1,-1,0,96,0)" gradientUnits="userSpaceOnUse" id="linearGradient3811" x1="47.089558" x2="47.089558" y1="22.111702" y2="74.104919">
<stop offset="0" stop-color="#00a1ff" stop-opacity="1"/>
<stop offset="1" stop-color="#0089ff" stop-opacity="1"/>
</linearGradient>
</defs>
<path d="M 88.0 49.0 C 88.0 78.635 77.639 89.0 48.0 89.0 C 18.367 89.0 8.0 78.635 8.0 49.0 C 8.0 19.367 18.367 9.0 48.0 9.0 C 77.637 9.0 88.0 19.367 88.0 49.0 z " fill-opacity="0.4" stroke-opacity="0.4"/>
<path d="M 48.0 88.0 C 18.365 88.0 8.0 77.639 8.0 48.0 C 8.0 18.367 18.365 8.0 48.0 8.0 C 77.633 8.0 88.0 18.367 88.0 48.0 C 88.0 77.637 77.633 88.0 48.0 88.0 z " fill="url(#linearGradient3795)" fill-opacity="1"/>
<path d="M 48.0 8.0 C 18.367 8.0 8.0 18.367 8.0 48.0 C 8.0 77.635 18.367 88.0 48.0 88.0 C 77.639 88.0 88.0 77.635 88.0 48.0 C 88.0 18.367 77.637 8.0 48.0 8.0 z M 48.0 87.0 C 18.842 87.0 9.0 77.158 9.0 48.0 C 9.0 18.842 18.842 9.0 48.0 9.0 C 77.16 9.0 87.0 18.842 87.0 48.0 C 87.0 77.158 77.16 87.0 48.0 87.0 z " fill="url(#linearGradient3024)" fill-opacity="0.15"/>
<path d="M 47.072 78.0 C 46.711 78.0 46.352997 77.936 46.011 77.807 C 44.851 77.367 44.072 76.24 44.072 75.0 L 44.072 60.813 L 39.662 64.343 C 39.131 64.768 38.465 65.0 37.787 65.0 C 36.986 65.0 36.232 64.687 35.666 64.121 L 31.953 60.406 C 31.330002 59.782 31.012 58.922 31.082 58.045 C 31.152 57.168003 31.603 56.369003 32.316 55.854004 L 42.123 48.785004 L 32.111 40.129005 C 31.482 39.586006 31.105 38.798004 31.076 37.967007 C 31.045 37.14201 31.363 36.328007 31.953 35.73901 L 35.666 32.025005 C 36.232 31.459003 36.986 31.146006 37.787 31.146006 C 38.586 31.146006 39.34 31.457006 39.906 32.023006 L 44.072 36.187008 L 44.072 23.0 C 44.072 21.762 44.849 20.635 46.005997 20.195 C 46.352 20.065 46.711 20.0 47.072 20.0 C 47.928997 20.0 48.747997 20.367 49.317 21.008 L 64.17 37.721 C 65.211 38.893 65.17 40.688 64.076 41.809 L 57.061996 48.997 L 64.076 56.189003 C 65.17 57.312004 65.211 59.109 64.17 60.279003 L 49.314 76.994 C 48.748 77.633 47.93 78.0 47.072 78.0 L 47.072 78.0 z " fill-opacity="0.05" stroke-opacity="0.05"/>
<path d="M 47.072 77.0 C 46.83 77.0 46.592 76.956 46.363 76.87 C 45.59 76.57601 45.072 75.824005 45.072 75.0 L 45.072 58.73 L 39.037 63.562 C 38.684 63.846 38.24 64.0 37.787 64.0 C 37.252 64.0 36.75 63.793 36.372997 63.414 L 32.659996 59.699 C 32.243996 59.283 32.032997 58.709 32.079994 58.125 C 32.126995 57.54 32.427994 57.008 32.901993 56.664 L 43.733994 48.853 L 32.76499 39.371 C 32.344994 39.009003 32.094994 38.483 32.075993 37.93 C 32.054993 37.38 32.266994 36.837 32.659992 36.445 L 36.372993 32.731 C 36.749992 32.353 37.251995 32.145 37.786995 32.145 C 38.319996 32.145 38.821995 32.352 39.198994 32.729 L 45.071995 38.6 L 45.071995 23.0 C 45.071995 22.176 45.589996 21.424 46.360996 21.131 C 46.592 21.044 46.83 21.0 47.072 21.0 C 47.643997 21.0 48.189 21.244 48.569 21.672 L 63.423 38.385 C 64.116 39.166 64.089 40.364 63.36 41.112003 L 55.666 48.998005 L 63.36 56.891006 C 64.089 57.639008 64.117004 58.835007 63.423 59.61701 L 48.566 76.329 C 48.189 76.756 47.645 77.0 47.072 77.0 L 47.072 77.0 z M 52.787 59.027 L 53.529 58.284 L 52.787 57.541 L 52.787 59.027 z M 52.787 40.457 L 53.529 39.715 L 52.787 38.972 L 52.787 40.457 z " fill-opacity="0.1" stroke-opacity="0.1"/>
<path d="M 47.072 76.0 C 46.953 76.0 46.834 75.979 46.717 75.936 C 46.33 75.788994 46.072 75.41499 46.072 75.0 L 46.072 56.648 L 38.412 62.781 C 38.229 62.928 38.008 63.0 37.787 63.0 C 37.529 63.0 37.273 62.902 37.08 62.707 L 33.366997 58.992 C 33.159996 58.785 33.052998 58.497 33.075996 58.205 C 33.098995 57.912003 33.251995 57.644 33.487995 57.475 L 45.344994 48.926003 L 33.42 38.615 C 33.209 38.433 33.084 38.172 33.073997 37.894 C 33.064 37.616 33.17 37.347 33.366997 37.151 L 37.08 33.437 C 37.275 33.242 37.531 33.144 37.787 33.144 C 38.043 33.144 38.299 33.242 38.494 33.437 L 46.072 41.012 L 46.072 23.0 C 46.072 22.585 46.33 22.213 46.717 22.065 C 46.834 22.021 46.953 22.0 47.072 22.0 C 47.352997 22.0 47.627 22.117 47.82 22.336 L 62.676 39.05 C 63.025997 39.443 63.011997 40.037 62.645 40.412 L 54.27 48.996 L 62.645 57.587 C 63.012 57.962997 63.026 58.559 62.676 58.948997 L 47.82 75.664 C 47.627 75.883 47.354 76.0 47.072 76.0 L 47.072 76.0 z M 51.787 61.441 L 54.942997 58.285004 L 51.787 55.125004 L 51.787 61.441 z M 51.787 42.871 L 54.942997 39.715 L 51.787 36.559 L 51.787 42.871 z " fill-opacity="0.1" stroke-opacity="0.1"/>
<path d="M 61.93 39.715 L 47.072 23.0 L 47.072 43.426003 L 37.787 34.145004 L 34.073997 37.859005 L 46.956997 48.997005 L 34.073997 58.286003 L 37.787 62.0 L 47.072 54.568 L 47.072 75.0 L 61.93 58.285 L 52.873 48.996 L 61.93 39.715 z M 50.787 34.145 L 56.357 39.715 L 50.787 45.285 L 50.787 34.145 z M 56.357 58.285 L 50.787 63.855 L 50.787 52.711 L 56.357 58.285 z " fill-opacity="0.3" stroke-opacity="0.3"/>
<path d="M 61.93 38.713 L 47.072 21.999 L 47.072 42.425003 L 37.787 33.144005 L 34.073997 36.85801 L 46.956997 47.997005 L 34.073997 57.285004 L 37.787 61.0 L 47.072 53.566 L 47.072 73.999 L 61.93 57.284 L 52.873 47.996002 L 61.93 38.713 z M 56.357002 38.713 L 50.787003 44.283 L 50.787003 33.143 L 56.357002 38.713 z M 56.357002 57.284 L 50.787003 62.853 L 50.787003 51.709 L 56.357002 57.284 z " fill="url(#linearGradient3811)" fill-opacity="1"/>
<path d="M 61.93 38.713 L 47.072 21.999 L 47.072 42.425003 L 37.787 33.144005 L 34.073997 36.85801 L 46.956997 47.997005 L 34.073997 57.285004 L 37.787 61.0 L 47.072 53.566 L 47.072 73.999 L 61.93 57.284 L 52.873 47.996002 L 61.93 38.713 z M 56.357002 38.713 L 50.787003 44.283 L 50.787003 33.143 L 56.357002 38.713 z M 56.357002 57.284 L 50.787003 62.853 L 50.787003 51.709 L 56.357002 57.284 z " fill="url(#linearGradient3807)" fill-opacity="1"/>
<rect fill="none" height="96" width="96"/>
</svg>
