<?xml version="1.0" encoding="UTF-8"?>
<svg xmlns="http://www.w3.org/2000/svg" xmlns:xlink="http://www.w3.org/1999/xlink" baseProfile="tiny" contentScriptType="text/ecmascript" contentStyleType="text/css" height="96px" preserveAspectRatio="xMidYMid meet" version="1.1" viewBox="0 0 96 96" width="96px" x="0px" y="0px" zoomAndPan="magnify">
<defs>
<linearGradient gradientUnits="userSpaceOnUse" id="linearGradient3817" x1="59" x2="59" y1="65.9912" y2="8.2842">
<stop offset="0" stop-color="#ffffff" stop-opacity="1"/>
<stop offset="1" stop-color="#ffffff" stop-opacity="0.78431374"/>
</linearGradient>
<linearGradient gradientUnits="userSpaceOnUse" id="linearGradient3819" x1="59" x2="59" y1="65.991203" y2="8.2841997">
<stop offset="0" stop-color="#62a63d" stop-opacity="1"/>
<stop offset="1" stop-color="#82bc45" stop-opacity="1"/>
</linearGradient>
</defs>
<path d="M 88.0 49.0 C 88.0 78.633 77.637 89.0 48.0 89.0 C 18.365 89.0 8.0 78.633 8.0 49.0 C 8.0 19.365 18.365 9.0 48.0 9.0 C 77.637 9.0 88.0 19.365 88.0 49.0 z " fill-opacity="0.4" stroke-opacity="0.4"/>
<linearGradient gradientUnits="userSpaceOnUse" id="SVGID_1_" x1="48.0005" x2="48.0005" y1="90.2266" y2="2.3359">
<stop offset="0" stop-color="#62a63d" stop-opacity="1"/>
<stop offset="1" stop-color="#82bc45" stop-opacity="1"/>
</linearGradient>
<path d="M 88.0 48.0 C 88.0 77.633 77.637 88.0 48.0 88.0 C 18.365 88.0 8.0 77.633 8.0 48.0 C 8.0 18.365 18.365 8.0 48.0 8.0 C 77.637 8.0 88.0 18.365 88.0 48.0 z " fill="url(#SVGID_1_)"/>
<linearGradient gradientUnits="userSpaceOnUse" id="SVGID_2_" x1="47.9995" x2="47.9995" y1="8.5449" y2="89.2398">
<stop offset="0" stop-color="#ffffff"/>
<stop offset="1" stop-color="#ffffff" stop-opacity="0"/>
</linearGradient>
<path d="M 48.0 8.0 C 18.365 8.0 8.0 18.365 8.0 48.0 C 8.0 77.633 18.365 88.0 48.0 88.0 C 77.637 88.0 88.0 77.633 88.0 48.0 C 88.0 18.365 77.637 8.0 48.0 8.0 z M 48.0 87.0 C 18.841 87.0 9.0 77.158 9.0 48.0 C 9.0 18.841 18.841 9.0 48.0 9.0 C 77.159 9.0 87.0 18.841 87.0 48.0 C 87.0 77.158 77.159 87.0 48.0 87.0 z " fill="url(#SVGID_2_)" fill-opacity="0.25" stroke-opacity="0.25"/>
<radialGradient cx="165.7061" cy="-826.2407" gradientTransform="matrix(0.7071 -0.7071 0.198 0.198 115.4226 349.7662)" gradientUnits="userSpaceOnUse" r="24.5063">
<stop offset="0" stop-color="#ffffff" stop-opacity="0.16"/>
<stop offset="0.8" stop-color="#ffffff" stop-opacity="0.02"/>
<stop offset="1" stop-color="#ffffff" stop-opacity="0"/>
</radialGradient>
<linearGradient gradientUnits="userSpaceOnUse" x1="47.0801" x2="88" y1="68.5977" y2="68.5977">
<stop offset="0" stop-color="#005897"/>
<stop offset="1" stop-color="#00a9cc"/>
</linearGradient>
<linearGradient gradientUnits="userSpaceOnUse" x1="78.4609" x2="71.7707" y1="79.543" y2="72.8527">
<stop offset="0" stop-color="#ffffff"/>
<stop offset="1" stop-color="#6d6e70"/>
</linearGradient>
<rect fill="none" height="96" width="96"/>
<path d="M 51.251 71.699 C 50.806 71.699 50.357 71.596 49.953 71.404 C 48.918 70.904 48.251 69.843 48.251 68.699 L 48.25 11.0 C 48.25 10.194 48.581 9.411 49.158 8.849 C 49.723 8.302 50.465 8.0 51.25 8.0 C 57.456 8.173 62.614 8.831 67.048004 10.0130005 C 68.36 10.363001 69.275 11.555 69.275 12.912001 L 69.275 68.699 C 69.275 69.845 68.637 70.874 67.61 71.385994 C 67.195 71.591 66.734 71.699 66.275 71.699 C 65.623 71.699 64.977005 71.480995 64.459 71.087 L 58.636 66.659 L 53.118 71.048 C 52.593 71.467 51.93 71.699 51.251 71.699 L 51.251 71.699 z " fill-opacity="0.05" stroke-opacity="0.05"/>
<path d="M 51.251 70.699 C 50.953 70.699 50.654 70.631 50.385 70.502 C 49.695 70.168 49.251 69.461 49.251 68.699 L 49.25 11.0 C 49.25 10.463 49.471 9.940001 49.855 9.566 C 50.23 9.201 50.727 9.0 51.25 9.0 C 57.367 9.171 62.434 9.818 66.79 10.979 C 67.664 11.212 68.274 12.007 68.274 12.912 L 68.274 68.699 C 68.274 69.464 67.848 70.148994 67.164 70.491 C 66.889 70.627 66.582 70.699 66.274 70.699 C 65.839005 70.699 65.409004 70.55299 65.063 70.291 L 58.621 65.392 L 52.495003 70.265 C 52.146 70.544 51.703 70.699 51.251 70.699 L 51.251 70.699 z " fill-opacity="0.05" stroke-opacity="0.05"/>
<path d="M 51.251 69.699 C 51.104 69.699 50.955 69.666 50.816 69.599 C 50.469997 69.432 50.251 69.081 50.251 68.699 L 50.25 11.0 C 50.25 10.73 50.359 10.471 50.553 10.283 C 50.74 10.101 50.99 10.0 51.25 10.0 C 51.26 10.0 51.269 10.0 51.278 10.0 C 57.262 10.168 62.252 10.804 66.531 11.945 C 66.969 12.061999 67.273994 12.458 67.273994 12.910999 L 67.273994 68.698 C 67.273994 69.078 67.05799 69.426 66.717995 69.594 C 66.576996 69.664 66.424995 69.698 66.273994 69.698 C 66.059 69.698 65.84599 69.629 65.66799 69.494 L 58.60699 64.12499 L 51.87299 69.480995 C 51.693 69.625 51.473 69.699 51.251 69.699 L 51.251 69.699 z " fill-opacity="0.1" stroke-opacity="0.1"/>
<path d="M 51.25 11.0 L 51.251 68.699005 L 58.594 62.85701 L 66.275 68.698006 L 66.275 12.912 C 62.01 11.775 57.027 11.162 51.25 11.0 z " fill-opacity="0.1" stroke-opacity="0.1"/>
<linearGradient gradientUnits="userSpaceOnUse" id="SVGID_6_" x1="59" x2="59" y1="65.9912" y2="8.2842">
<stop offset="0" stop-color="#ffffff" stop-opacity="1"/>
<stop offset="1" stop-color="#ffffff" stop-opacity="0.78431374"/>
</linearGradient>
<path d="M 51.0 8.041 L 51.001 65.749 L 59.0 59.907 L 67.0 65.748 L 67.0 10.158001 C 62.518 8.875 57.217 8.2 51.0 8.041 z " fill="url(#linearGradient3819)" fill-opacity="1"/>
<linearGradient gradientUnits="userSpaceOnUse" x1="59" x2="59" y1="65.748" y2="57.1592">
<stop offset="0" stop-color="#000000"/>
<stop offset="1" stop-color="#000000" stop-opacity="0"/>
</linearGradient>
<path d="M 51.0 8.041 L 51.001 65.749 L 59.0 59.907 L 67.0 65.748 L 67.0 10.158001 C 62.518 8.875 57.217 8.2 51.0 8.041 z " fill="url(#linearGradient3817)"/>
</svg>
