<?xml version="1.0" encoding="UTF-8"?>
<svg xmlns="http://www.w3.org/2000/svg" xmlns:xlink="http://www.w3.org/1999/xlink" baseProfile="tiny" contentScriptType="text/ecmascript" contentStyleType="text/css" height="96px" preserveAspectRatio="xMidYMid meet" version="1.1" viewBox="0 0 96 96" width="96px" x="0px" y="0px" zoomAndPan="magnify">
<defs>
<linearGradient id="linearGradient3820">
<stop offset="0" stop-color="#ffffff" stop-opacity="1"/>
<stop offset="1" stop-color="#ffffff" stop-opacity="0.78431374"/>
</linearGradient>
<linearGradient>
<stop offset="0" stop-color="#eb4d9e" stop-opacity="1"/>
<stop offset="1" stop-color="#de4d9e" stop-opacity="1"/>
</linearGradient>
<linearGradient gradientTransform="matrix(0,1,-1,0,96,0)" gradientUnits="userSpaceOnUse" id="linearGradient3816" x1="8" x2="88" y1="48" y2="48">
<stop offset="0" stop-color="#eb4d9e" stop-opacity="1"/>
<stop offset="1" stop-color="#de4d9e" stop-opacity="1"/>
</linearGradient>
<linearGradient gradientUnits="userSpaceOnUse" id="linearGradient3820" x1="61.079" x2="76.416" y1="57.6695" y2="57.6695">
<stop offset="0" stop-color="#ffffff" stop-opacity="1"/>
<stop offset="1" stop-color="#ffffff" stop-opacity="0.78431374"/>
</linearGradient>
<linearGradient gradientUnits="userSpaceOnUse" id="linearGradient3820" x1="17.798" x2="59.219002" y1="43.5375" y2="43.5375">
<stop offset="0" stop-color="#ffffff" stop-opacity="1"/>
<stop offset="1" stop-color="#ffffff" stop-opacity="0.78431374"/>
</linearGradient>
<linearGradient gradientUnits="userSpaceOnUse" id="linearGradient3831" x1="38.848846" x2="38.848846" y1="27.673092" y2="73.245392">
<stop offset="0" stop-color="#ffffff" stop-opacity="1"/>
<stop offset="1" stop-color="#ffffff" stop-opacity="0.78431374"/>
</linearGradient>
<linearGradient gradientTransform="matrix(0,1,-1,0,96,0)" gradientUnits="userSpaceOnUse" id="linearGradient3835" x1="38.848846" x2="38.848846" y1="27.673092" y2="73.245392">
<stop offset="0" stop-color="#eb4d9e" stop-opacity="1"/>
<stop offset="1" stop-color="#de4d9e" stop-opacity="1"/>
</linearGradient>
</defs>
<rect fill="none" height="96" width="96"/>
<path d="M 88.0 49.0 C 88.0 78.635 77.637 89.0 48.0 89.0 C 18.365 89.0 8.0 78.635 8.0 49.0 C 8.0 19.367 18.365 9.0 48.0 9.0 C 77.637 9.0 88.0 19.367 88.0 49.0 z " fill-opacity="0.4"/>
<linearGradient gradientTransform="matrix(1 0 0 -1 -902.7012 -618.7988)" gradientUnits="userSpaceOnUse" x1="950.7012" x2="950.7012" xlink:actuate="onLoad" xlink:show="other" xlink:type="simple" y1="-706.7988" y2="-626.7988">
<stop offset="0" stop-color="#900074"/>
<stop offset="1" stop-color="#ff3fae"/>
</linearGradient>
<path d="M 8.0 48.0 C 8.0 18.365 18.363 8.0 48.0 8.0 C 77.635 8.0 88.0 18.365 88.0 48.0 C 88.0 77.633 77.635 88.0 48.0 88.0 C 18.363 88.0 8.0 77.633 8.0 48.0 z " fill="url(#linearGradient3816)" fill-opacity="1"/>
<linearGradient gradientTransform="matrix(1 0 0 -1 -902.7012 -618.7988)" gradientUnits="userSpaceOnUse" id="SVGID_2_" x1="950.7002" x2="950.7002" xlink:actuate="onLoad" xlink:show="other" xlink:type="simple" y1="-627.0532" y2="-706.2983">
<stop offset="0" stop-color="#ffffff"/>
<stop offset="1" stop-color="#ffffff" stop-opacity="0"/>
</linearGradient>
<path d="M 48.0 8.0 C 18.365 8.0 8.0 18.367 8.0 48.0 C 8.0 77.635 18.365 88.0 48.0 88.0 C 77.637 88.0 88.0 77.635 88.0 48.0 C 88.0 18.367 77.637 8.0 48.0 8.0 z M 48.0 87.0 C 18.842 87.0 9.0 77.159 9.0 48.0 C 9.0 18.842 18.842 9.0 48.0 9.0 C 77.158005 9.0 87.0 18.842 87.0 48.0 C 87.0 77.159 77.158 87.0 48.0 87.0 z " fill="url(#SVGID_2_)" fill-opacity="0.25"/>
<rect fill="none" height="96" width="96"/>
<path d="M 38.628 52.5 C 36.469997 52.5 34.718 54.251 34.718 56.408 C 34.718 58.564 36.469 60.321 38.628 60.321 C 40.783997 60.321 42.539 58.564 42.539 56.407997 C 42.539 54.251 40.784 52.5 38.628 52.5 z M 38.505 44.682 C 35.035 44.682 31.794 46.07 29.371002 48.597 C 29.330002 48.642 28.966002 49.046 28.966002 49.668 C 28.966002 50.545 29.683002 51.259 30.56 51.259 C 31.037 51.259 31.486002 51.031 31.755 50.681 C 33.571 48.849 35.965 47.838 38.505 47.833 C 41.151 47.838 43.611 48.914 45.397003 50.82 C 45.708004 51.261 46.176003 51.515 46.686005 51.515 C 47.565006 51.515 48.278004 50.801 48.278004 49.924 C 48.278004 49.454 47.903004 48.913 47.756004 48.721 C 45.325 46.118 42.038 44.682 38.505 44.682 z M 52.99 42.736 C 49.098003 38.834 43.956 36.684 38.506 36.684 C 32.956 36.684 27.749 38.887997 23.884 42.851 C 23.827002 42.898 23.326 43.325996 23.326 44.064 C 23.326 44.946 24.04 45.658 24.916 45.658 C 25.374 45.658 25.809 45.453 26.091 45.123 C 29.397 41.724003 33.808 39.844 38.506 39.834 C 43.266 39.844 47.713 41.764 51.051003 45.261 C 51.095 45.301003 51.501003 45.658 52.172 45.658 C 53.047 45.658 53.76 44.945 53.76 44.065 C 53.759 43.337 53.229 42.918 52.99 42.736 z M 58.854 37.205 C 58.854 37.205 58.673 37.024 58.665 37.017 C 53.287003 31.561005 46.127 28.555002 38.505 28.555002 C 30.868 28.555002 23.701 31.569002 18.339 37.017 C 17.99 37.334003 17.797 37.751003 17.797 38.199 C 17.797 39.081 18.51 39.795 19.389 39.795 C 20.145 39.795 20.555 39.311 20.562 39.293003 C 25.349 34.412003 31.719 31.719004 38.504 31.705004 C 45.348 31.720003 51.759 34.454 56.635 39.477005 C 56.683 39.508003 57.119 39.794006 57.629 39.794006 C 58.508 39.794006 59.219997 39.08001 59.219997 38.19801 C 59.22 37.85 58.854 37.205 58.854 37.205 z " fill-opacity="0.3"/>
<path d="M 38.628 61.445 C 35.356 61.445 32.692997 58.783 32.692997 55.509 C 32.692997 52.238 35.355995 49.576 38.628 49.576 C 41.900997 49.576 44.565 52.238 44.565 55.509 C 44.565 58.783 41.902 61.445 38.628 61.445 z M 46.687 52.64 C 45.535 52.64 44.478 52.095 43.785 51.148 C 42.463 49.765 40.567 48.962997 38.502 48.959 C 36.527 48.964 34.650997 49.752 33.222 51.182 C 32.653 51.911 31.639 52.387 30.561 52.387 C 28.565 52.387 26.941002 50.762 26.941002 48.768 C 26.941002 47.432003 27.670002 46.549 27.895002 46.31 C 30.711002 43.371 34.478004 41.756 38.506004 41.756 C 42.605003 41.756 46.416004 43.419 49.238007 46.441 C 49.960007 47.355003 50.306007 48.210003 50.306007 49.027 C 50.306 51.019 48.682 52.64 46.687 52.64 z M 24.917 46.785 C 22.923 46.785 21.3 45.158 21.3 43.165 C 21.3 41.546 22.375 40.571 22.59 40.393 C 26.73 36.132 32.4 33.759003 38.506 33.759003 C 44.479 33.759003 50.121 36.107 54.39 40.372 C 55.591 41.284 55.786 42.513 55.788 43.161003 C 55.788 45.159004 54.163 46.785004 52.17 46.785004 C 50.829 46.785004 49.942997 46.090004 49.705 45.875004 C 46.665997 42.703003 42.698997 40.970005 38.501 40.960003 C 34.359 40.969 30.468 42.629 27.543 45.637 C 26.947 46.342 25.954 46.785 24.917 46.785 z M 57.629 40.919 C 56.644 40.919 55.846 40.476 55.547 40.285 L 55.428 40.203 L 55.307003 40.108 C 50.738003 35.407 44.79 32.842 38.501003 32.829 C 32.278004 32.843 26.427002 35.314 22.029003 39.789997 C 21.620005 40.287 20.650003 40.919 19.388002 40.919 C 17.393002 40.919 15.769003 39.294 15.769003 37.298 C 15.769003 36.276 16.198004 35.322 16.977003 34.615 C 22.665005 28.828 30.318005 25.628002 38.503 25.628002 C 46.671 25.628002 54.341003 28.848 60.109 34.695004 L 60.515 35.093 L 60.528 35.121 L 61.113 35.714 L 60.909 35.893 C 61.134 36.411003 61.246 36.881 61.247 37.295 C 61.249 39.294 59.624 40.919 57.629 40.919 z " fill-opacity="0.07"/>
<path d="M 38.628 60.771 C 35.727997 60.771 33.366997 58.411 33.366997 55.509 C 33.366997 52.611 35.727997 50.249 38.628 50.249 C 41.529 50.249 43.888 52.61 43.888 55.509003 C 43.889 58.41 41.529 60.771 38.628 60.771 z M 46.687 51.966 C 45.754 51.966 44.894 51.522 44.332 50.748 C 42.847 49.187 40.756 48.289 38.503 48.282 C 36.345 48.29 34.301003 49.146 32.745003 50.703003 C 32.256004 51.326004 31.424004 51.710003 30.561005 51.710003 C 28.936005 51.710003 27.618002 50.389004 27.618002 48.767 C 27.618002 47.68 28.206 46.967003 28.388002 46.773003 C 31.073002 43.97 34.665 42.432003 38.506004 42.432003 C 42.417004 42.432003 46.05201 44.018 48.744003 46.903004 C 49.169003 47.444004 49.631004 48.208004 49.631004 49.029003 C 49.629 50.646 48.312 51.966 46.687 51.966 z M 24.917 46.109 C 23.294 46.109 21.977 44.788 21.977 43.163 C 21.977 41.845 22.848 41.056004 23.022 40.911003 C 27.07 36.750004 32.586 34.432003 38.506 34.432003 C 44.3 34.432003 49.771 36.711 53.914 40.849003 C 54.890003 41.594 55.111 42.523003 55.112 43.160004 C 55.112 44.786003 53.794 46.108 52.172 46.108 C 51.071 46.108 50.349 45.543003 50.156 45.369003 C 47.013 42.086 42.891003 40.294003 38.504 40.283005 C 34.177 40.294006 30.112 42.026005 27.061 45.162006 C 26.571 45.744 25.758 46.109 24.917 46.109 z M 57.629 40.245 C 56.822 40.245 56.16 39.875 55.911003 39.718 L 55.848003 39.677 L 55.728004 39.581997 C 51.071003 34.783997 44.975006 32.167995 38.501007 32.156 C 32.09501 32.169 26.071009 34.711 21.547009 39.317997 C 21.194006 39.744995 20.413006 40.243996 19.388006 40.243996 C 17.765009 40.243996 16.446007 38.922997 16.446007 37.298996 C 16.446007 36.467995 16.796007 35.692997 17.432009 35.115997 C 23.010006 29.442995 30.502008 26.302998 38.504005 26.302998 C 46.490005 26.302998 53.98901 29.450998 59.627007 35.168 L 59.95701 35.492 L 59.972008 35.515 L 60.13001 35.679 L 60.07901 35.724 C 60.29601 36.129 60.57101 36.744 60.57301 37.295 C 60.573 38.922 59.253 40.245 57.629 40.245 z " fill-opacity="0.07"/>
<path d="M 38.628 60.097 C 36.1 60.097 34.043 58.038 34.043 55.509 C 34.043 52.983 36.1 50.925 38.628 50.925 C 41.157 50.925 43.213997 52.983 43.213997 55.509 C 43.215 58.038 41.158 60.097 38.628 60.097 z M 46.687 51.29 C 45.97 51.29 45.312 50.946 44.876 50.349 C 43.205 48.586 40.943 47.615 38.503 47.608 C 36.149 47.615 33.921 48.552 32.234997 50.254997 C 31.888996 50.717 31.240995 51.032997 30.559998 51.032997 C 29.307997 51.032997 28.290997 50.016 28.290997 48.766 C 28.290997 47.903 28.779997 47.337997 28.878996 47.235 C 31.431995 44.571 34.847996 43.107 38.504 43.107 C 42.226 43.107 45.686996 44.619003 48.247 47.361004 C 48.539 47.731003 48.955997 48.369003 48.955997 49.026005 C 48.956 50.274 47.939 51.29 46.687 51.29 z M 24.917 45.432 C 23.667 45.432 22.651 44.414 22.651 43.163 C 22.651 42.146 23.318 41.540997 23.453 41.431 C 27.408 37.371 32.772 35.11 38.507 35.11 C 44.122 35.11 49.423 37.317 53.437 41.328 C 53.725 41.548 54.435 42.139 54.439 43.164 C 54.439 44.415997 53.421 45.433 52.173 45.433 C 51.314 45.433 50.756 45.001 50.606 44.866997 C 47.363 41.472996 43.080997 39.618996 38.507 39.608997 C 33.995 39.618996 29.758 41.424995 26.577 44.692997 C 26.193 45.145 25.56 45.432 24.917 45.432 z M 57.629 39.569 C 57.001003 39.569 56.475 39.274 56.275 39.149 L 56.211 39.106003 L 56.151 39.047005 C 51.43 34.180004 45.162003 31.493004 38.505 31.481005 C 31.913002 31.494003 25.721 34.10801 21.067 38.845005 C 20.823002 39.137005 20.229002 39.570004 19.39 39.570004 C 18.14 39.570004 17.122002 38.551003 17.122002 37.299004 C 17.122002 36.661003 17.394 36.064003 17.887 35.617004 C 23.355 30.056004 30.686 26.979004 38.505 26.979004 C 46.308 26.979004 53.64 30.057005 59.147003 35.644005 L 59.144005 35.646004 C 59.221004 35.723003 59.404003 35.898003 59.404003 35.898003 L 59.441 35.972004 C 59.578003 36.213005 59.895 36.82301 59.897003 37.298004 C 59.897 38.551 58.88 39.569 57.629 39.569 z " fill-opacity="0.07"/>
<linearGradient gradientTransform="matrix(1 0 0 1 -601.8008 -498.1992)" gradientUnits="userSpaceOnUse" x1="640.3086" x2="640.3086" xlink:actuate="onLoad" xlink:show="other" xlink:type="simple" y1="557.6201" y2="525.8545">
<stop offset="0" stop-color="#d0cbc5"/>
<stop offset="0.5031" stop-color="#fafcef"/>
<stop offset="0.9693" stop-color="#ffffff"/>
<stop offset="1" stop-color="#ffffff"/>
</linearGradient>
<path d="M 66.808 75.564 C 64.42 75.564 62.62 73.746 62.62 71.33501 C 62.62 68.93201 64.381996 67.18901 66.808 67.18901 C 69.21 67.18901 70.954 68.93201 70.954 71.33501 C 70.954 73.746 69.172 75.564 66.808 75.564 L 66.808 75.564 z M 64.785 66.001 C 64.101006 66.001 63.546005 65.445 63.546005 64.762 L 63.546005 63.203003 C 63.546005 59.576004 65.489006 57.375004 67.837006 55.072 L 67.91401 54.995003 C 69.40501 53.504 70.58301 52.327003 70.58301 50.647003 C 70.58301 48.357 69.366005 47.336 66.64001 47.336 C 64.854004 47.336 63.084007 47.795 61.438007 48.293003 C 61.32301 48.328003 61.202007 48.347004 61.08001 48.347004 C 60.814007 48.347004 60.55201 48.259003 60.340004 48.102005 C 60.028004 47.873005 59.840004 47.499004 59.840004 47.109005 L 59.840004 44.034004 C 59.840004 43.486004 60.207005 42.99601 60.73301 42.84401 C 62.356007 42.37101 64.80401 41.741005 67.315 41.741005 C 73.886 41.741005 77.656006 44.895004 77.656006 50.395004 C 77.656006 54.16301 75.255005 56.639004 73.13701 58.824005 L 72.71501 59.26001 C 70.572014 61.48901 70.029015 62.19101 70.029015 63.45501 L 70.029015 64.76101 C 70.029015 65.44601 69.472015 66.00001 68.790016 66.00001 L 64.785 66.001 L 64.785 66.001 z " fill-opacity="0.1"/>
<path d="M 66.808 74.945 C 64.774 74.945 63.24 73.393 63.24 71.335 C 63.24 69.29 64.741 67.808 66.808 67.808 C 68.852 67.808 70.334 69.291 70.334 71.335 C 70.334 73.394 68.818 74.945 66.808 74.945 L 66.808 74.945 z M 64.785 65.382 C 64.443 65.382 64.166 65.105 64.166 64.762 L 64.166 63.203003 C 64.166 59.81 65.945 57.796 68.270004 55.514004 L 68.353004 55.432003 C 69.882 53.904003 71.203 52.584003 71.203 50.649 C 71.203 48.003 69.711006 46.717003 66.64 46.717003 C 64.773 46.717003 62.95 47.191 61.258 47.702003 C 61.198 47.720005 61.139 47.728004 61.079 47.728004 C 60.947 47.728004 60.817 47.687004 60.71 47.606003 C 60.551 47.489 60.459 47.304005 60.459 47.109 L 60.459 44.034 C 60.459 43.759 60.641 43.515 60.905 43.438 C 62.490997 42.975 64.882996 42.36 67.313 42.36 C 73.58099 42.36 77.034 45.214 77.034 50.395 C 77.034 53.911 74.726 56.292 72.688995 58.394 L 72.268 58.829 C 70.106 61.077003 69.408 61.932003 69.408 63.456 L 69.408 64.762 C 69.408 65.105 69.132 65.382 68.788994 65.382 L 64.785 65.382 z " fill-opacity="0.1"/>
<path d="M 66.808 68.427 C 65.081 68.427 63.858997 69.65 63.858997 71.334 C 63.858997 73.02 65.082 74.325 66.808 74.325 C 68.536 74.325 69.715 73.019 69.715 71.334 C 69.715 69.649 68.535 68.427 66.808 68.427 z M 67.313 42.98 C 65.208 42.98 63.1 43.443 61.079 44.034 L 61.079 47.109 C 62.891003 46.56 64.744 46.096 66.64 46.096 C 69.715 46.096 71.823 47.362 71.823 50.648003 C 71.823 52.881004 70.306 54.355003 68.705 55.957 C 66.473 58.147 64.786 60.043 64.786 63.203 L 64.786 64.762 L 68.79 64.762 L 68.79 63.456 C 68.79 61.644 69.716 60.591 71.823 58.401 C 73.929 56.21 76.416 53.892 76.416 50.395 C 76.414 44.834 72.285 42.98 67.313 42.98 z " fill-opacity="0.3"/>
<linearGradient gradientTransform="matrix(1 0 0 -1 -300.9004 -120.5996)" gradientUnits="userSpaceOnUse" x1="369.6465" x2="369.6465" xlink:actuate="onLoad" xlink:show="other" xlink:type="simple" y1="-164.3071" y2="-211.9392">
<stop offset="0" stop-color="#f8fbee"/>
<stop offset="0.3232" stop-color="#f8fbee"/>
<stop offset="1" stop-color="#d2cbc5"/>
</linearGradient>
<path d="M 38.5 27.65625 C 30.863 27.65625 23.70375 30.677 18.34375 36.125 C 17.99475 36.441 17.8125 36.8645 17.8125 37.3125 C 17.8125 38.1945 18.497 38.90625 19.375 38.90625 C 20.132 38.90625 20.5555 38.42425 20.5625 38.40625 C 25.3495 33.52525 31.716 30.8265 38.5 30.8125 C 45.344 30.8275 51.749 33.539497 56.625 38.5625 C 56.673 38.592495 57.115 38.90625 57.625 38.90625 C 58.504 38.90625 59.21875 38.1945 59.21875 37.3125 C 59.21975 36.964497 58.84375 36.3125 58.84375 36.3125 C 58.84375 36.3125 58.66425 36.132 58.65625 36.125 C 53.27825 30.669 46.122 27.65625 38.5 27.65625 z M 38.5 35.78125 C 32.95 35.78125 27.74 37.9735 23.875 41.9375 C 23.818003 41.9845 23.3125 42.42025 23.3125 43.15625 C 23.3125 44.03525 24.02925 44.75 24.90625 44.75 C 25.36325 44.75 25.81175 44.54975 26.09375 44.21875 C 29.39975 40.82175 33.802 38.9495 38.5 38.9375 C 43.26 38.9495 47.724495 40.879 51.0625 44.375 C 51.106495 44.416 51.516502 44.75 52.1875 44.75 C 53.0625 44.75 53.75 44.03325 53.75 43.15625 C 53.749 42.42825 53.239 42.02775 53.0 41.84375 C 49.108006 37.94175 43.95 35.78125 38.5 35.78125 z M 67.3125 42.0 C 65.2075 42.0 63.11475 42.4725 61.09375 43.0625 L 61.09375 46.125 C 62.90575 45.577 64.729 45.125 66.625 45.125 C 69.7 45.125 71.8125 46.36925 71.8125 49.65625 C 71.8125 51.88825 70.31975 53.36775 68.71875 54.96875 C 66.48675 57.15875 64.78125 59.05975 64.78125 62.21875 L 64.78125 63.78125 L 68.78125 63.78125 L 68.78125 62.46875 C 68.78125 60.65675 69.7055 59.59725 71.8125 57.40625 C 73.9185 55.21525 76.40625 52.90325 76.40625 49.40625 C 76.40425 43.84425 72.2845 42.0 67.3125 42.0 z M 38.5 43.78125 C 35.03 43.78125 31.797998 45.1615 29.375 47.6875 C 29.334 47.731495 28.96875 48.15925 28.96875 48.78125 C 28.96875 49.65825 29.6845 50.34375 30.5625 50.34375 C 31.0395 50.34375 31.481003 50.132248 31.75 49.78125 C 33.565 47.94825 35.96 46.942497 38.5 46.9375 C 41.146 46.9425 43.620247 48.00325 45.40625 49.90625 C 45.71725 50.34925 46.177498 50.625 46.6875 50.625 C 47.5665 50.625 48.28125 49.90825 48.28125 49.03125 C 48.28125 48.55725 47.897 48.0065 47.75 47.8125 C 45.318996 45.213505 42.033 43.78125 38.5 43.78125 z M 38.625 51.59375 C 36.466995 51.59375 34.71875 53.343994 34.71875 55.5 C 34.71875 57.657 36.466995 59.40625 38.625 59.40625 C 40.780994 59.40625 42.53125 57.656998 42.53125 55.5 C 42.53125 53.343994 40.781 51.59375 38.625 51.59375 z M 66.8125 67.4375 C 65.0855 67.4375 63.84375 68.65975 63.84375 70.34375 C 63.84375 72.02775 65.0865 73.34375 66.8125 73.34375 C 68.5405 73.34375 69.71875 72.02775 69.71875 70.34375 C 69.71875 68.65875 68.5395 67.4375 66.8125 67.4375 z " fill="url(#linearGradient3835)" fill-opacity="1"/>
<path d="M 38.5 27.65625 C 30.863 27.65625 23.70375 30.677 18.34375 36.125 C 17.99475 36.441 17.8125 36.8645 17.8125 37.3125 C 17.8125 38.1945 18.497 38.90625 19.375 38.90625 C 20.132 38.90625 20.5555 38.42425 20.5625 38.40625 C 25.3495 33.52525 31.716 30.8265 38.5 30.8125 C 45.344 30.8275 51.749 33.539497 56.625 38.5625 C 56.673 38.592495 57.115 38.90625 57.625 38.90625 C 58.504 38.90625 59.21875 38.1945 59.21875 37.3125 C 59.21975 36.964497 58.84375 36.3125 58.84375 36.3125 C 58.84375 36.3125 58.66425 36.132 58.65625 36.125 C 53.27825 30.669 46.122 27.65625 38.5 27.65625 z M 38.5 35.78125 C 32.95 35.78125 27.74 37.9735 23.875 41.9375 C 23.818003 41.9845 23.3125 42.42025 23.3125 43.15625 C 23.3125 44.03525 24.02925 44.75 24.90625 44.75 C 25.36325 44.75 25.81175 44.54975 26.09375 44.21875 C 29.39975 40.82175 33.802 38.9495 38.5 38.9375 C 43.26 38.9495 47.724495 40.879 51.0625 44.375 C 51.106495 44.416 51.516502 44.75 52.1875 44.75 C 53.0625 44.75 53.75 44.03325 53.75 43.15625 C 53.749 42.42825 53.239 42.02775 53.0 41.84375 C 49.108006 37.94175 43.95 35.78125 38.5 35.78125 z M 67.3125 42.0 C 65.2075 42.0 63.11475 42.4725 61.09375 43.0625 L 61.09375 46.125 C 62.90575 45.577 64.729 45.125 66.625 45.125 C 69.7 45.125 71.8125 46.36925 71.8125 49.65625 C 71.8125 51.88825 70.31975 53.36775 68.71875 54.96875 C 66.48675 57.15875 64.78125 59.05975 64.78125 62.21875 L 64.78125 63.78125 L 68.78125 63.78125 L 68.78125 62.46875 C 68.78125 60.65675 69.7055 59.59725 71.8125 57.40625 C 73.9185 55.21525 76.40625 52.90325 76.40625 49.40625 C 76.40425 43.84425 72.2845 42.0 67.3125 42.0 z M 38.5 43.78125 C 35.03 43.78125 31.797998 45.1615 29.375 47.6875 C 29.334 47.731495 28.96875 48.15925 28.96875 48.78125 C 28.96875 49.65825 29.6845 50.34375 30.5625 50.34375 C 31.0395 50.34375 31.481003 50.132248 31.75 49.78125 C 33.565 47.94825 35.96 46.942497 38.5 46.9375 C 41.146 46.9425 43.620247 48.00325 45.40625 49.90625 C 45.71725 50.34925 46.177498 50.625 46.6875 50.625 C 47.5665 50.625 48.28125 49.90825 48.28125 49.03125 C 48.28125 48.55725 47.897 48.0065 47.75 47.8125 C 45.318996 45.213505 42.033 43.78125 38.5 43.78125 z M 38.625 51.59375 C 36.466995 51.59375 34.71875 53.343994 34.71875 55.5 C 34.71875 57.657 36.466995 59.40625 38.625 59.40625 C 40.780994 59.40625 42.53125 57.656998 42.53125 55.5 C 42.53125 53.343994 40.781 51.59375 38.625 51.59375 z M 66.8125 67.4375 C 65.0855 67.4375 63.84375 68.65975 63.84375 70.34375 C 63.84375 72.02775 65.0865 73.34375 66.8125 73.34375 C 68.5405 73.34375 69.71875 72.02775 69.71875 70.34375 C 69.71875 68.65875 68.5395 67.4375 66.8125 67.4375 z " fill="url(#linearGradient3831)" fill-opacity="1"/>
</svg>
