<?xml version="1.0" encoding="UTF-8"?>
<svg xmlns="http://www.w3.org/2000/svg" xmlns:xlink="http://www.w3.org/1999/xlink" baseProfile="tiny" contentScriptType="text/ecmascript" contentStyleType="text/css" height="96px" preserveAspectRatio="xMidYMid meet" version="1.1" viewBox="0 0 96 96" width="96px" x="0px" y="0px" zoomAndPan="magnify">
<defs>
<linearGradient id="linearGradient3796">
<stop offset="0" stop-color="#1784bd" stop-opacity="1"/>
<stop offset="1" stop-color="#1770bd" stop-opacity="1"/>
</linearGradient>
<linearGradient gradientTransform="matrix(0,1,-1,0,96,0)" gradientUnits="userSpaceOnUse" id="linearGradient3802" x1="8" x2="88" y1="48" y2="48">
<stop offset="0" stop-color="#1784bd" stop-opacity="1"/>
<stop offset="1" stop-color="#1770bd" stop-opacity="1"/>
</linearGradient>
</defs>
<rect fill="none" height="96" width="96"/>
<path d="M 88.0 49.0 C 88.0 78.635 77.639 89.0 48.0 89.0 C 18.367 89.0 8.0 78.635 8.0 49.0 C 8.0 19.367 18.367 9.0 48.0 9.0 C 77.637 9.0 88.0 19.367 88.0 49.0 z " fill-opacity="0.4"/>
<linearGradient gradientTransform="matrix(1 0 0 -1 -902.7012 -618.7988)" gradientUnits="userSpaceOnUse" x1="950.7012" x2="950.7012" y1="-706.7988" y2="-626.7988">
<stop offset="0" stop-color="#3d465b"/>
<stop offset="1" stop-color="#a1b2c0"/>
</linearGradient>
<path d="M 48.0 88.0 C 18.365 88.0 8.0 77.639 8.0 48.0 C 8.0 18.367 18.365 8.0 48.0 8.0 C 77.633 8.0 88.0 18.367 88.0 48.0 C 88.0 77.637 77.633 88.0 48.0 88.0 z " fill="url(#linearGradient3802)" fill-opacity="1"/>
<linearGradient gradientTransform="matrix(1 0 0 -1 -708.7754 -1434.6406)" gradientUnits="userSpaceOnUse" id="SVGID_2_" x1="756.7744" x2="756.7744" y1="-1442.8931" y2="-1522.1378">
<stop offset="0" stop-color="#ffffff"/>
<stop offset="1" stop-color="#ffffff" stop-opacity="0"/>
</linearGradient>
<path d="M 48.0 8.0 C 18.367 8.0 8.0 18.367 8.0 48.0 C 8.0 77.635 18.367 88.0 48.0 88.0 C 77.639 88.0 88.0 77.635 88.0 48.0 C 88.0 18.367 77.637 8.0 48.0 8.0 z M 48.0 87.0 C 18.842 87.0 9.0 77.158 9.0 48.0 C 9.0 18.841 18.842 9.0 48.0 9.0 C 77.16 9.0 87.0 18.842 87.0 48.0 C 87.0 77.158005 77.16 87.0 48.0 87.0 z " fill="url(#SVGID_2_)" fill-opacity="0.15"/>
<path d="M 70.825 45.249 C 72.897 43.171 70.92899 41.765 70.92899 41.765 C 69.94299 40.691 67.522 40.599 67.522 40.599 C 63.667995 40.061 60.634995 37.603 60.634995 37.603 L 52.650993 31.84 C 45.158993 26.885 39.310993 28.709 35.94699 30.803 C 35.22499 29.654 33.958992 28.883 32.499992 28.883 C 30.259993 28.883 28.433992 30.707 28.433992 32.95 C 28.433992 34.408 29.207993 35.673 30.357992 36.394 C 28.259993 39.755 26.440992 45.603 31.393991 53.097 L 37.15699 61.084 C 37.15699 61.084 39.61499 64.113 40.15199 67.969 C 40.15199 67.969 40.243988 70.387 41.31999 71.375 C 41.31999 71.375 42.723988 73.346 44.807987 71.265 L 54.453987 61.627 C 55.120987 63.858997 57.17399 65.502 59.626987 65.502 C 62.620987 65.502 65.05099 63.072 65.05099 60.076 C 65.05099 57.619 63.411987 55.57 61.17399 54.898 L 61.31099 54.764 L 70.825 45.249 z " fill-opacity="0.3" stroke-opacity="0.3"/>
<path d="M 70.825 44.255 C 72.897 42.179 70.92899 40.773003 70.92899 40.773003 C 69.94299 39.699 67.522 39.608 67.522 39.608 C 63.667995 39.067 60.634995 36.613003 60.634995 36.613003 L 52.650993 30.850002 C 45.158993 25.895002 39.310993 27.717005 35.94699 29.811005 C 35.22499 28.662004 33.958992 27.892002 32.499992 27.892002 C 30.259993 27.892002 28.433992 29.713 28.433992 31.957005 C 28.433992 33.416004 29.207993 34.680004 30.357992 35.401 C 28.259993 38.764 26.440992 44.61 31.393991 52.108 L 37.15699 60.091003 C 37.15699 60.091003 39.61499 63.119003 40.15199 66.976006 C 40.15199 66.976006 40.243988 69.393005 41.31999 70.381004 C 41.31999 70.381004 42.723988 72.353004 44.807987 70.276 L 54.453987 60.63 C 55.120987 62.870003 57.17399 64.505005 59.626987 64.505005 C 62.620987 64.505005 65.05099 62.079006 65.05099 59.086006 C 65.05099 56.630005 63.411987 54.581005 61.17399 53.909004 L 61.31099 53.775005 L 70.825 44.255 z " fill-opacity="0.15" stroke-opacity="0.15"/>
<path d="M 42.925 73.269 C 41.158 73.269 40.052 72.064 39.754 71.69199 C 38.345997 70.353 38.141 67.80399 38.114 67.05299 C 37.692 64.107994 35.650997 61.476994 35.561996 61.36499 L 29.739996 53.302994 C 24.780996 45.802994 25.867996 39.727993 27.785995 35.82999 C 26.884996 34.741993 26.393995 33.384995 26.393995 31.957994 C 26.393995 28.590994 29.133995 25.851994 32.500996 25.851994 C 33.928997 25.851994 35.286995 26.341991 36.374996 27.240992 C 38.542995 26.177994 40.840996 25.636992 43.212997 25.636992 C 46.703 25.636992 50.256996 26.817991 53.776997 29.147991 L 61.83 34.95999 C 62.133 35.19699 64.690994 37.137993 67.77 37.581993 C 68.181 37.599995 70.83199 37.775993 72.324 39.281994 C 72.69199 39.575993 73.674 40.534992 73.801994 42.061993 C 73.908 43.35099 73.393 44.573994 72.27 45.699993 L 64.517 53.45499 C 66.144 54.852993 67.094 56.903996 67.094 59.087994 C 67.094 63.202995 63.744003 66.550995 59.626003 66.550995 C 57.441 66.550995 55.392 65.602 53.996 63.977997 L 46.252003 71.722 C 45.222 72.747 44.101 73.269 42.925 73.269 z " fill-opacity="0.07" stroke-opacity="0.07"/>
<path d="M 42.925 72.59 C 41.461 72.59 40.533 71.578 40.284 71.266 C 38.971 70.009 38.81 67.516 38.792 67.029 C 38.332 63.773 36.119 60.972 36.097 60.945 L 30.292 52.903 C 25.394 45.496 26.587 39.546 28.605 35.725 C 27.626 34.718 27.074 33.373997 27.074 31.957998 C 27.074 28.965998 29.508 26.531998 32.501 26.531998 C 33.918 26.531998 35.263 27.082998 36.27 28.058998 C 38.461 26.905 40.796 26.318998 43.213 26.318998 C 46.566 26.318998 49.994003 27.461998 53.402 29.714998 L 61.43 35.511 C 61.572 35.621 64.334 37.788 67.71 38.261 C 67.709 38.261 67.711 38.261 67.714 38.261 C 67.823 38.261 70.459 38.367996 71.84 39.761 C 72.159 40.018997 73.017 40.832996 73.12399 42.119 C 73.21399 43.198 72.76199 44.241 71.786995 45.218 L 63.483994 53.522 C 65.30999 54.771 66.411995 56.831 66.411995 59.087 C 66.411995 62.828 63.368996 65.868996 59.624996 65.868996 C 57.366997 65.868996 55.309 64.769 54.061996 62.944996 L 45.768997 71.239 C 44.872 72.135 43.915 72.59 42.925 72.59 z " fill-opacity="0.07" stroke-opacity="0.07"/>
<path d="M 42.925 71.91 C 41.758 71.91 41.01 71.083 40.815 70.84001 C 39.607 69.677 39.482 67.277 39.473 67.00101 C 38.975 63.458008 36.651 60.548008 36.627 60.520008 L 30.843 52.50401 C 25.996998 45.17601 27.312998 39.34101 29.456 35.58701 C 28.379 34.687008 27.755 33.37301 27.755 31.95801 C 27.755 29.34201 29.884 27.213009 32.5 27.213009 C 33.917 27.213009 35.232 27.83701 36.13 28.91001 C 38.357 27.642 40.737 27.0 43.213 27.0 C 46.43 27.0 49.733 28.103 53.027 30.282 L 61.032 36.062 C 61.091 36.107 64.005005 38.428 67.617004 38.935 C 67.82001 38.938 70.22201 39.061 71.385 40.266003 C 71.619 40.451004 72.36 41.114 72.448006 42.174004 C 72.517006 43.045 72.134 43.907005 71.30701 44.736004 L 62.384007 53.660004 C 64.423004 54.686005 65.73201 56.751003 65.73201 59.08701 C 65.73201 62.450005 62.99201 65.188 59.62701 65.188 C 57.29201 65.188 55.22601 63.881004 54.20401 61.844 L 45.29001 70.758 C 44.523 71.522 43.728 71.91 42.925 71.91 z " fill-opacity="0.07" stroke-opacity="0.07"/>
<linearGradient gradientTransform="matrix(1 0 0 -1 -300.9004 -120.5996)" gradientUnits="userSpaceOnUse" x1="350.9004" x2="350.9004" y1="-191.8271" y2="-148.2793">
<stop offset="0" stop-color="#d0cbc5"/>
<stop offset="0.5031" stop-color="#fafcef"/>
<stop offset="0.9693" stop-color="#ffffff"/>
<stop offset="1" stop-color="#ffffff"/>
</linearGradient>
<path d="M 70.825 44.255 C 72.897 42.179 70.92899 40.773003 70.92899 40.773003 C 69.94299 39.699 67.522 39.608 67.522 39.608 C 63.667995 39.067 60.634995 36.613003 60.634995 36.613003 L 52.650993 30.850002 C 45.158993 25.895002 39.310993 27.717005 35.94699 29.811005 C 35.22499 28.662004 33.958992 27.892002 32.499992 27.892002 C 30.259993 27.892002 28.433992 29.713 28.433992 31.957005 C 28.433992 33.416004 29.207993 34.680004 30.357992 35.401 C 28.259993 38.764 26.440992 44.61 31.393991 52.108 L 37.15699 60.091003 C 37.15699 60.091003 39.61499 63.119003 40.15199 66.976006 C 40.15199 66.976006 40.243988 69.393005 41.31999 70.381004 C 41.31999 70.381004 42.723988 72.353004 44.807987 70.276 L 54.453987 60.63 C 55.120987 62.870003 57.17399 64.505005 59.626987 64.505005 C 62.620987 64.505005 65.05099 62.079006 65.05099 59.086006 C 65.05099 56.630005 63.411987 54.581005 61.17399 53.909004 L 61.31099 53.775005 L 70.825 44.255 z " fill="#ffffff" fill-opacity="1"/>
<path d="M 61.888 54.188 L 61.312 54.766 L 61.174 54.9 C 63.283 55.534 64.85 57.404003 65.018 59.676003 C 65.042 59.481003 65.050995 59.286003 65.050995 59.086 C 65.051 56.897 63.752 55.043 61.888 54.188 z " fill="#ffffff"/>
</svg>
