<?xml version="1.0" encoding="UTF-8"?>
<svg xmlns="http://www.w3.org/2000/svg" xmlns:xlink="http://www.w3.org/1999/xlink" baseProfile="tiny" contentScriptType="text/ecmascript" contentStyleType="text/css" height="96px" preserveAspectRatio="xMidYMid meet" version="1.1" viewBox="0 0 96 96" width="96px" x="0px" y="0px" zoomAndPan="magnify">
<defs>
<linearGradient id="linearGradient3808">
<stop offset="0" stop-color="#f6f6f6" stop-opacity="1"/>
<stop offset="1" stop-color="#f6f6f6" stop-opacity="0.78431374"/>
</linearGradient>
<linearGradient>
<stop offset="0" stop-color="#76bc24" stop-opacity="1"/>
<stop offset="1" stop-color="#4fbc24" stop-opacity="1"/>
</linearGradient>
<linearGradient gradientTransform="translate(-966.7754,-1943.6406)" gradientUnits="userSpaceOnUse" x1="1014.7754" x2="1014.7754" y1="1951.3027" y2="2031.3027">
<stop offset="0" stop-color="#afd13e"/>
<stop offset="1" stop-color="#19592d"/>
</linearGradient>
<linearGradient gradientTransform="translate(-966.7754,-1943.6406)" gradientUnits="userSpaceOnUse" x1="1014.7754" x2="1014.7754" y1="1951.8926" y2="2031.1372">
<stop offset="0" stop-color="#ffffff"/>
<stop offset="1" stop-color="#ffffff" stop-opacity="0"/>
</linearGradient>
<linearGradient gradientTransform="translate(-966.7754,-1943.6406)" gradientUnits="userSpaceOnUse" id="linearGradient3039" x1="1014.7754" x2="1014.7754" y1="1951.8926" y2="2031.1372">
<stop offset="0" stop-color="#ffffff"/>
<stop offset="1" stop-color="#ffffff" stop-opacity="0"/>
</linearGradient>
<linearGradient gradientTransform="matrix(0,1,-1,0,96,0)" gradientUnits="userSpaceOnUse" id="linearGradient3803" x1="8" x2="88" y1="48" y2="48">
<stop offset="0" stop-color="#76bc24" stop-opacity="1"/>
<stop offset="1" stop-color="#4fbc24" stop-opacity="1"/>
</linearGradient>
<linearGradient gradientUnits="userSpaceOnUse" id="linearGradient3814" x1="47.971924" x2="47.971924" y1="25.77284" y2="72.446159">
<stop offset="0" stop-color="#f6f6f6" stop-opacity="1"/>
<stop offset="1" stop-color="#f6f6f6" stop-opacity="0.78431374"/>
</linearGradient>
<linearGradient gradientTransform="matrix(0,1,-1,0,96,0)" gradientUnits="userSpaceOnUse" id="linearGradient3818" x1="47.971924" x2="47.971924" y1="25.77284" y2="72.446159">
<stop offset="0" stop-color="#76bc24" stop-opacity="1"/>
<stop offset="1" stop-color="#4fbc24" stop-opacity="1"/>
</linearGradient>
</defs>
<path d="M 88.0 49.0 C 88.0 78.635 77.639 89.0 48.0 89.0 C 18.367 89.0 8.0 78.635 8.0 49.0 C 8.0 19.367 18.367 9.0 48.0 9.0 C 77.637 9.0 88.0 19.367 88.0 49.0 z " fill-opacity="0.4"/>
<path d="M 48.0 88.0 C 18.365 88.0 8.0 77.639 8.0 48.0 C 8.0 18.367 18.365 8.0 48.0 8.0 C 77.633 8.0 88.0 18.367 88.0 48.0 C 88.0 77.637 77.633 88.0 48.0 88.0 z " fill="url(#linearGradient3803)" fill-opacity="1"/>
<path d="M 48.0 8.0 C 18.367 8.0 8.0 18.367 8.0 48.0 C 8.0 77.635 18.367 88.0 48.0 88.0 C 77.639 88.0 88.0 77.635 88.0 48.0 C 88.0 18.367 77.637 8.0 48.0 8.0 z M 48.0 87.0 C 18.842 87.0 9.0 77.158 9.0 48.0 C 9.0 18.842005 18.842 9.0 48.0 9.0 C 77.16 9.0 87.0 18.842 87.0 48.0 C 87.0 77.158005 77.16 87.0 48.0 87.0 z " fill="url(#linearGradient3039)" fill-opacity="0.15"/>
<rect fill="none" height="96" width="96"/>
<path d="M 48.0 27.305 C 40.082 27.305 33.662 33.894 33.662 41.642 C 33.662 52.396 45.134 73.9 48.0 73.9 C 50.866 73.9 62.338 52.396004 62.338 41.642 C 62.338 33.894 55.918 27.305 48.0 27.305 z M 48.0 48.81 C 44.05 48.81 40.83 45.593 40.83 41.643 C 40.83 37.69 44.050003 34.475 48.0 34.475 C 51.949997 34.475 55.17 37.691 55.17 41.643 C 55.171 45.593 51.95 48.81 48.0 48.81 z " fill-opacity="0.3"/>
<path d="M 48.0 75.5 C 41.531 75.5 30.458 49.345 30.458 40.04 C 30.458 30.532 38.49 22.5 48.0 22.5 C 57.51 22.5 65.542 30.532 65.542 40.04 C 65.542 49.345 54.469 75.5 48.0 75.5 z M 48.0 36.075 C 45.814 36.075 44.034 37.852 44.034 40.04 C 44.034 42.226 45.814 44.005 48.0 44.005 C 49.055 44.005 50.052 43.591 50.801 42.841 C 51.553997 42.09 51.966 41.096 51.966 40.039 C 51.966 37.852 50.186 36.075 48.0 36.075 z " fill-opacity="0.07" stroke-opacity="0.07"/>
<path d="M 48.0 74.7 C 42.418 74.7 31.261 49.827995 31.261 40.039 C 31.261 30.964996 38.927 23.299995 48.0 23.299995 C 57.073 23.299995 64.739 30.964996 64.739 40.039 C 64.739 49.828 53.582 74.7 48.0 74.7 z M 48.0 35.274 C 45.372 35.274 43.234 37.411 43.234 40.039997 C 43.234 42.666996 45.372 44.805996 48.0 44.805996 C 49.271 44.805996 50.467 44.30899 51.367 43.407997 C 52.271 42.505997 52.765 41.31 52.765 40.039997 C 52.766 37.411 50.628 35.274 48.0 35.274 z " fill-opacity="0.07" stroke-opacity="0.07"/>
<path d="M 48.0 73.099 C 44.132 73.099 32.862 50.097 32.862 40.04 C 32.862 31.835 39.792 24.903 48.0 24.903 C 56.208 24.903 63.141 31.835 63.141 40.04 C 63.141 50.097 51.868 73.099 48.0 73.099 z M 48.0 33.672 C 44.489 33.672 41.633 36.528 41.633 40.04 C 41.633 43.55 44.489 46.408 48.0 46.408 C 49.698 46.408 51.297 45.744 52.5 44.541 C 53.704 43.335 54.367 41.737 54.367 40.041 C 54.367 36.528 51.511 33.672 48.0 33.672 z " fill-opacity="0.07" stroke-opacity="0.07"/>
<linearGradient gradientTransform="matrix(1,0,0,-1,-300.9004,-120.5996)" gradientUnits="userSpaceOnUse" x1="348.9004" x2="348.9004" y1="-192.8965" y2="-146.3027">
<stop offset="0" stop-color="#d0cbc5"/>
<stop offset="0.5031" stop-color="#fafcef"/>
<stop offset="0.9693" stop-color="#ffffff"/>
<stop offset="1" stop-color="#ffffff"/>
</linearGradient>
<path d="M 48.0 25.703 C 40.082 25.703 33.662 32.291 33.662 40.039 C 33.662 50.793 45.134 72.296005 48.0 72.296005 C 50.866 72.296005 62.338 50.792 62.338 40.04 C 62.338 32.292 55.918 25.703 48.0 25.703 z M 48.0 47.207 C 44.05 47.207 40.83 43.99 40.83 40.04 C 40.83 36.088 44.050003 32.872 48.0 32.872 C 51.949997 32.872 55.17 36.088 55.17 40.04 C 55.171 43.991 51.949997 47.207 48.0 47.207 z " fill="url(#linearGradient3818)" fill-opacity="1"/>
<path d="M 48.0 25.703 C 40.082 25.703 33.662 32.291 33.662 40.039 C 33.662 50.793 45.134 72.296005 48.0 72.296005 C 50.866 72.296005 62.338 50.792 62.338 40.04 C 62.338 32.292 55.918 25.703 48.0 25.703 z M 48.0 47.207 C 44.05 47.207 40.83 43.99 40.83 40.04 C 40.83 36.088 44.050003 32.872 48.0 32.872 C 51.949997 32.872 55.17 36.088 55.17 40.04 C 55.171 43.991 51.949997 47.207 48.0 47.207 z " fill="url(#linearGradient3814)" fill-opacity="1"/>
</svg>
