<?xml version="1.0" encoding="UTF-8"?>
<svg xmlns="http://www.w3.org/2000/svg" xmlns:xlink="http://www.w3.org/1999/xlink" baseProfile="tiny" contentScriptType="text/ecmascript" contentStyleType="text/css" height="96px" preserveAspectRatio="xMidYMid meet" version="1.1" viewBox="0 0 96 96" width="96px" x="0px" y="0px" zoomAndPan="magnify">
<defs>
<linearGradient id="linearGradient3812">
<stop offset="0" stop-color="#ffffff" stop-opacity="1"/>
<stop offset="1" stop-color="#ffffff" stop-opacity="0.78431374"/>
</linearGradient>
<linearGradient>
<stop offset="0" stop-color="#0061d4" stop-opacity="1"/>
<stop offset="1" stop-color="#004ccb" stop-opacity="1"/>
</linearGradient>
<linearGradient gradientUnits="userSpaceOnUse" id="linearGradient3808" x1="48.271187" x2="48.271187" y1="10.576271" y2="87.887718">
<stop offset="0" stop-color="#0061d4" stop-opacity="1"/>
<stop offset="1" stop-color="#004ccb" stop-opacity="1"/>
</linearGradient>
<linearGradient gradientUnits="userSpaceOnUse" id="linearGradient3818" x1="47.808662" x2="47.808662" y1="22.834524" y2="67.889435">
<stop offset="0" stop-color="#ffffff" stop-opacity="1"/>
<stop offset="1" stop-color="#ffffff" stop-opacity="0.78431374"/>
</linearGradient>
<linearGradient gradientUnits="userSpaceOnUse" id="linearGradient3822" x1="47.808662" x2="47.808662" y1="22.834524" y2="67.889435">
<stop offset="0" stop-color="#0061d4" stop-opacity="1"/>
<stop offset="1" stop-color="#004ccb" stop-opacity="1"/>
</linearGradient>
</defs>
<rect fill="none" height="96" width="96"/>
<path d="M 88.0 49.0 C 88.0 78.635 77.639 89.0 48.0 89.0 C 18.366 89.0 8.0 78.635 8.0 49.0 C 8.0 19.367 18.366 9.0 48.0 9.0 C 77.637 9.0 88.0 19.367 88.0 49.0 z " fill-opacity="0.4"/>
<linearGradient gradientTransform="matrix(1 0 0 -1 -300.9004 -120.5996)" gradientUnits="userSpaceOnUse" x1="348.9004" x2="348.9004" y1="-208.5996" y2="-128.5996">
<stop offset="0" stop-color="#003d9d"/>
<stop offset="1" stop-color="#0078d0"/>
</linearGradient>
<path d="M 88.0 48.0 C 88.0 77.635 77.639 88.0 48.0 88.0 C 18.366 88.0 8.0 77.635 8.0 48.0 C 8.0 18.367 18.366 8.0 48.0 8.0 C 77.637 8.0 88.0 18.367 88.0 48.0 z " fill="url(#linearGradient3808)" fill-opacity="1"/>
<linearGradient gradientTransform="matrix(1 0 0 -1 -106.9746 -936.4414)" gradientUnits="userSpaceOnUse" id="SVGID_2_" x1="154.9746" x2="154.9746" y1="-944.6938" y2="-1023.9385">
<stop offset="0" stop-color="#ffffff"/>
<stop offset="1" stop-color="#ffffff" stop-opacity="0"/>
</linearGradient>
<path d="M 48.0 8.0 C 18.366 8.0 8.0 18.367 8.0 48.0 C 8.0 77.635 18.366 88.0 48.0 88.0 C 77.639 88.0 88.0 77.635 88.0 48.0 C 88.0 18.367 77.637 8.0 48.0 8.0 z M 48.0 87.0 C 18.842 87.0 9.0 77.158 9.0 48.0 C 9.0 18.842005 18.842 9.0 48.0 9.0 C 77.159 9.0 87.0 18.842 87.0 48.0 C 87.0 77.158005 77.159 87.0 48.0 87.0 z " fill="url(#SVGID_2_)" fill-opacity="0.15"/>
<path d="M 33.02 72.561 C 30.803 72.561 29.0 70.702995 29.0 68.417 L 29.0 66.703 C 29.0 64.418 30.803 62.558 33.02 62.558 L 41.911 62.558 C 40.958 61.253 40.426 59.666004 40.426 58.009003 C 40.426 55.904003 41.275 53.992004 42.648 52.599003 C 42.439 52.771004 42.238 52.953003 42.044 53.146004 C 41.203 54.152004 39.82 54.792004 38.406 54.792004 C 35.692997 54.792004 33.483997 52.584003 33.483997 49.869003 C 33.483997 48.755005 33.857 47.873005 34.217 47.281 C 33.464 47.752003 32.53 48.031 31.593 48.031 C 28.88 48.031 26.672998 45.822 26.672998 43.107 C 26.672998 41.787003 27.179 40.795 27.665 40.146004 C 26.983 40.58701 26.035 40.953003 24.922998 40.953003 C 22.208998 40.953003 20.001 38.743004 20.001 36.027004 C 20.001 34.63501 20.582 33.340004 21.638 32.381004 C 28.587996 25.304005 37.963997 21.385004 47.995 21.385004 C 58.004 21.385004 67.405 25.330004 74.466995 32.493004 C 74.478 32.504005 74.659 32.684006 74.659 32.684006 C 74.772 32.795006 74.823 32.854004 74.918 32.973007 C 75.625 33.873 76.0 34.929 76.0 36.029 C 76.0 38.745 73.792 40.955 71.078 40.955 C 69.887 40.955 68.925 40.503 68.387 40.177 C 69.208 41.224 69.408005 42.304996 69.408005 43.109997 C 69.408005 45.824997 67.202 48.033997 64.490005 48.033997 C 63.296005 48.033997 62.367004 47.625996 61.777004 47.262997 C 62.468 48.279995 62.793003 49.229996 62.793003 50.186996 C 62.793003 52.897995 60.585003 55.102997 57.871 55.102997 C 56.68 55.102997 55.555 54.671 54.671 53.895996 C 55.426003 55.085995 55.863003 56.499996 55.863003 58.01099 C 55.863003 59.666992 55.331 61.254993 54.378 62.559994 L 62.979004 62.559994 C 65.19601 62.559994 67.0 64.41799 67.0 66.704994 L 67.0 68.41899 C 67.0 70.70299 65.195 72.56299 62.979 72.56299 L 33.02 72.56299 L 33.02 72.561 z M 47.996 31.202 C 49.225 31.202 50.441 31.283 51.642 31.441 C 50.439 31.277 49.219997 31.193 47.988 31.191 C 46.879997 31.193 45.779 31.261 44.695 31.394 C 45.779 31.267 46.883 31.202 47.996 31.202 L 47.996 31.202 z " fill-opacity="0.05"/>
<path d="M 33.02 71.561 C 31.356 71.561 30.0 70.15099 30.0 68.417 L 30.0 66.703 C 30.0 64.971 31.354 63.558 33.02 63.558 L 44.358 63.558 C 42.587 62.347004 41.424004 60.312004 41.424004 58.009003 C 41.424004 54.306004 44.44 51.292004 48.145004 51.292004 C 51.850006 51.292004 54.86401 54.306004 54.86401 58.009003 C 54.86401 60.312004 53.702007 62.347004 51.932007 63.558 L 62.979008 63.558 C 64.645004 63.558 66.00001 64.968 66.00001 66.703 L 66.00001 68.417 C 66.00001 70.148 64.645004 71.561 62.979008 71.561 L 33.02 71.561 z M 57.871 54.104 C 56.654 54.104 55.529 53.539 54.776997 52.549 C 52.990997 50.69 50.582996 49.661 47.99 49.657 C 45.502 49.661003 43.137997 50.648003 41.337 52.435 C 40.622 53.287003 39.529 53.792 38.404 53.792 C 36.242 53.792 34.482 52.032 34.482 49.869 C 34.482 48.409 35.275 47.46 35.517 47.203 C 38.824997 43.752 43.253 41.851997 47.994 41.851997 C 52.82 41.851997 57.305 43.810997 60.622 47.367996 C 61.417 48.370995 61.793003 49.297997 61.793003 50.181995 C 61.793 52.346 60.033 54.104 57.871 54.104 L 57.871 54.104 z M 64.49 47.033 C 63.023 47.033 62.061996 46.277 61.803997 46.046 C 58.067997 42.140003 53.183 40.013 47.990997 40.002003 C 42.871 40.013004 38.055996 42.065 34.441 45.779003 C 33.803997 46.533005 32.692997 47.033005 31.589 47.033005 C 29.429 47.033005 27.669 45.273006 27.669 43.109005 C 27.669 41.508003 28.599 40.516006 28.995998 40.164005 C 34.001 35.048004 40.767 32.202003 47.992996 32.202003 C 55.060997 32.202003 61.739 34.973003 66.801994 40.004005 C 68.12599 41.058006 68.40599 42.272007 68.40599 43.109005 C 68.408 45.273 66.65 47.033 64.49 47.033 L 64.49 47.033 z M 71.078 39.955 C 70.027 39.955 69.191 39.512 68.787 39.248 C 68.66 39.163 68.549 39.071003 68.449005 38.97 C 62.968006 33.322002 55.703003 30.205002 47.990005 30.192 C 40.361004 30.206 33.187004 33.236 27.794006 38.722 C 27.320004 39.288 26.275003 39.955 24.922009 39.955 C 22.760006 39.955 21.000008 38.194 21.000008 36.029003 C 21.000008 34.923004 21.465008 33.890003 22.309008 33.123005 C 29.098007 26.214005 38.23501 22.388004 47.99601 22.388004 C 57.73301 22.388004 66.88301 26.227003 73.75601 33.199005 C 73.77501 33.219006 73.793015 33.237003 73.81001 33.258003 L 73.96701 33.409004 C 74.03901 33.479004 74.07101 33.518005 74.13401 33.597004 C 74.697 34.313 75.0 35.156 75.0 36.029 C 75.0 38.194 73.24 39.955 71.078 39.955 L 71.078 39.955 z " fill-opacity="0.05"/>
<path d="M 33.02 70.561 C 31.908 70.561 31.0 69.6 31.0 68.417 L 31.0 66.703 C 31.0 65.521 31.906 64.55801 33.02 64.55801 L 62.979 64.55801 C 64.093 64.55801 65.0 65.521 65.0 66.703 L 65.0 68.417 C 65.0 69.6 64.093 70.561 62.979 70.561 L 33.02 70.561 z M 48.145 63.73 C 44.992 63.73 42.424 61.165 42.424 58.009 C 42.424 54.857 44.99 52.292 48.145 52.292 C 51.298 52.292 53.864 54.856 53.864 58.009 C 53.863 61.165 51.298 63.73 48.145 63.73 L 48.145 63.73 z M 57.871 53.104 C 56.948997 53.104 56.105 52.666 55.543 51.903 C 53.563 49.815 50.883 48.664 47.992 48.659 C 45.218 48.664 42.592 49.766 40.596 51.763 C 40.071 52.41 39.255 52.795 38.405 52.795 C 36.794 52.795 35.483 51.483 35.483 49.872 C 35.483 48.756 36.117996 48.028 36.245 47.894 C 39.358 44.643 43.53 42.855 47.995 42.855 C 52.541 42.855 56.766 44.701 59.891 48.052 C 60.264 48.526997 60.792 49.334 60.792 50.186996 C 60.793 51.794 59.482 53.104 57.871 53.104 L 57.871 53.104 z M 64.49 46.033 C 63.379 46.033 62.663 45.471 62.469997 45.3 C 58.580997 41.231 53.46 39.014 47.991997 39.002 C 42.595997 39.014 37.527996 41.174 33.722996 45.082 C 33.232994 45.659 32.417995 46.033 31.587996 46.033 C 29.978996 46.033 28.667995 44.721 28.667995 43.109 C 28.667995 41.889 29.406996 41.134003 29.656996 40.914 C 34.524994 35.94 41.034996 33.202003 47.991997 33.202003 C 54.816 33.202003 61.257996 35.884003 66.13699 40.754005 C 66.50499 41.040005 67.40499 41.796005 67.40499 43.109005 C 67.408 44.722 66.1 46.033 64.49 46.033 L 64.49 46.033 z M 71.078 38.955 C 70.254005 38.955 69.583 38.573 69.333 38.410004 C 69.271 38.369003 69.21501 38.322 69.163 38.269005 C 63.496 32.430004 55.976 29.206003 47.992004 29.191006 C 40.090004 29.206003 32.664005 32.341007 27.081003 38.020004 C 26.753006 38.410004 25.997004 38.95501 24.922005 38.95501 C 23.311005 38.95501 22.000004 37.64201 22.000004 36.029007 C 22.000004 35.208008 22.350004 34.438007 22.980003 33.862007 C 29.607002 27.121006 38.504005 23.387009 47.994003 23.387009 C 57.463005 23.387009 66.357 27.120008 73.04201 33.900005 L 73.03801 33.904007 C 73.13901 33.99901 73.267006 34.126007 73.267006 34.126007 C 73.299 34.157005 73.314 34.175007 73.341 34.210007 C 73.771 34.754 74.0 35.383 74.0 36.029 C 74.0 37.643 72.689 38.955 71.078 38.955 L 71.078 38.955 z " fill-opacity="0.1"/>
<path d="M 43.424 58.012 C 43.424 60.614 45.541 62.733 48.145 62.733 C 50.747 62.733 52.864 60.614 52.864 58.012 C 52.864 55.408 50.747 53.294003 48.144997 53.294003 C 45.541 53.294 43.424 55.408 43.424 58.012 z M 57.871 52.104 C 58.932 52.104 59.793 51.245 59.793 50.186 C 59.793 49.618 59.339 48.965 59.159 48.735 C 56.226 45.589 52.262 43.856 47.994 43.856 C 43.806 43.856 39.892 45.532 36.971 48.582 C 36.92 48.636 36.483 49.124 36.483 49.873 C 36.483 50.933 37.346 51.796 38.405003 51.796 C 38.981003 51.796 39.522003 51.523003 39.848003 51.099003 C 42.037003 48.886 44.930004 47.665 47.994003 47.661003 C 51.185005 47.667004 54.160004 48.969 56.316 51.267 C 56.689 51.799 57.258 52.104 57.871 52.104 z M 65.479 41.506 C 60.783997 36.795 54.575996 34.202 47.997993 34.202 C 41.299995 34.202 35.01499 36.861 30.348991 41.644 C 30.278994 41.701 29.673994 42.22 29.673994 43.109 C 29.673994 44.17 30.534994 45.033 31.593994 45.033 C 32.145992 45.033 32.671993 44.783 33.012993 44.385 C 37.002995 40.283 42.326992 38.015003 47.997993 38.002003 C 53.741993 38.015003 59.10799 40.332 63.13999 44.554 C 63.194992 44.603 63.68299 45.033 64.49399 45.033 C 65.55099 45.033 66.41199 44.17 66.41199 43.109 C 66.408 42.23 65.766 41.727 65.479 41.506 z M 72.559 34.83 C 72.559 34.83 72.342 34.611 72.33 34.602 C 65.838005 28.017002 57.195 24.387 47.994003 24.387 C 38.775 24.387 30.123005 28.024002 23.654003 34.602 C 23.232 34.985 23.0 35.49 23.0 36.029 C 23.0 37.092 23.861 37.955 24.922 37.955 C 25.835 37.955 26.326 37.371 26.338 37.35 C 32.115 31.457998 39.805 28.207 47.994003 28.191998 C 56.255005 28.207998 63.996 31.509998 69.881004 37.573997 C 69.938 37.610996 70.46501 37.955997 71.078 37.955997 C 72.14101 37.955997 73.0 37.094 73.0 36.03 C 73.0 35.609 72.846 35.193 72.559 34.83 z M 62.979 65.561 L 33.02 65.561 C 32.457 65.561 32.0 66.073 32.0 66.704994 L 32.0 68.41899 C 32.0 69.050995 32.456 69.56199 33.02 69.56199 L 62.979 69.56199 C 63.543 69.56199 64.0 69.05099 64.0 68.41899 L 64.0 66.704994 C 64.0 66.07 63.543 65.561 62.979 65.561 z " fill-opacity="0.1"/>
<linearGradient gradientTransform="matrix(1 0 0 -1 -300.9004 -120.5996)" gradientUnits="userSpaceOnUse" x1="348.9004" x2="348.9004" y1="-188.5996" y2="-143.4277">
<stop offset="0" stop-color="#d0cbc5"/>
<stop offset="0.5031" stop-color="#fafcef"/>
<stop offset="0.9693" stop-color="#ffffff"/>
<stop offset="1" stop-color="#ffffff"/>
</linearGradient>
<path d="M 43.424 56.451 C 43.424 59.055 45.541 61.172 48.145 61.172 C 50.747 61.172 52.864 59.055 52.864 56.451 C 52.864 53.847 50.747 51.734 48.144997 51.734 C 45.541 51.734 43.424 53.85 43.424 56.451 z M 57.871 50.543 C 58.932 50.543 59.793 49.684 59.793 48.626 C 59.793 48.057 59.339 47.405 59.159 47.174 C 56.226 44.029 52.262 42.295 47.994 42.295 C 43.806 42.295 39.892 43.970997 36.971 47.020996 C 36.92 47.074997 36.483 47.562996 36.483 48.311996 C 36.483 49.372 37.346 50.233997 38.405003 50.233997 C 38.981003 50.233997 39.522003 49.962 39.848003 49.538 C 42.037003 47.324997 44.930004 46.103996 47.994003 46.099 C 51.185005 46.105 54.160004 47.407 56.316 49.705 C 56.689 50.238 57.258 50.543 57.871 50.543 z M 65.479 39.946 C 60.783997 35.235 54.575996 32.642 47.997993 32.642 C 41.299995 32.642 35.01499 35.301 30.348991 40.084 C 30.278994 40.141 29.673994 40.66 29.673994 41.549 C 29.673994 42.61 30.534994 43.473 31.593994 43.473 C 32.145992 43.473 32.671993 43.223 33.012993 42.825 C 37.002995 38.723 42.326992 36.455 47.997993 36.442 C 53.741993 36.455 59.10799 38.772003 63.13999 42.994003 C 63.194992 43.043003 63.68299 43.473003 64.49399 43.473003 C 65.55099 43.473003 66.41199 42.610004 66.41199 41.549004 C 66.408 40.671 65.766 40.167 65.479 39.946 z M 72.559 33.271 C 72.559 33.271 72.342 33.052 72.33 33.043 C 65.838005 26.458 57.195 22.828 47.994003 22.828 C 38.775 22.828 30.123005 26.465 23.654003 33.043 C 23.232 33.426 23.0 33.931 23.0 34.47 C 23.0 35.533 23.861 36.396 24.922 36.396 C 25.835 36.396 26.326 35.812 26.338 35.791 C 32.115 29.899 39.805 26.648 47.994003 26.633 C 56.255005 26.649 63.996 29.951 69.881004 36.015 C 69.938 36.052 70.46501 36.397 71.078 36.397 C 72.14101 36.397 73.0 35.535 73.0 34.471 C 73.0 34.05 72.846 33.634 72.559 33.271 z M 62.979 64.0 L 33.02 64.0 C 32.456 64.0 32.0 64.512 32.0 65.145 L 32.0 66.857994 C 32.0 67.488 32.456 68.0 33.02 68.0 L 62.979 68.0 C 63.543 68.0 64.0 67.488 64.0 66.857 L 64.0 65.142006 C 64.0 64.512 63.543 64.0 62.979 64.0 z " fill="url(#linearGradient3822)" fill-opacity="1"/>
<path d="M 43.424 56.451 C 43.424 59.055 45.541 61.172 48.145 61.172 C 50.747 61.172 52.864 59.055 52.864 56.451 C 52.864 53.847 50.747 51.734 48.144997 51.734 C 45.541 51.734 43.424 53.85 43.424 56.451 z M 57.871 50.543 C 58.932 50.543 59.793 49.684 59.793 48.626 C 59.793 48.057 59.339 47.405 59.159 47.174 C 56.226 44.029 52.262 42.295 47.994 42.295 C 43.806 42.295 39.892 43.970997 36.971 47.020996 C 36.92 47.074997 36.483 47.562996 36.483 48.311996 C 36.483 49.372 37.346 50.233997 38.405003 50.233997 C 38.981003 50.233997 39.522003 49.962 39.848003 49.538 C 42.037003 47.324997 44.930004 46.103996 47.994003 46.099 C 51.185005 46.105 54.160004 47.407 56.316 49.705 C 56.689 50.238 57.258 50.543 57.871 50.543 z M 65.479 39.946 C 60.783997 35.235 54.575996 32.642 47.997993 32.642 C 41.299995 32.642 35.01499 35.301 30.348991 40.084 C 30.278994 40.141 29.673994 40.66 29.673994 41.549 C 29.673994 42.61 30.534994 43.473 31.593994 43.473 C 32.145992 43.473 32.671993 43.223 33.012993 42.825 C 37.002995 38.723 42.326992 36.455 47.997993 36.442 C 53.741993 36.455 59.10799 38.772003 63.13999 42.994003 C 63.194992 43.043003 63.68299 43.473003 64.49399 43.473003 C 65.55099 43.473003 66.41199 42.610004 66.41199 41.549004 C 66.408 40.671 65.766 40.167 65.479 39.946 z M 72.559 33.271 C 72.559 33.271 72.342 33.052 72.33 33.043 C 65.838005 26.458 57.195 22.828 47.994003 22.828 C 38.775 22.828 30.123005 26.465 23.654003 33.043 C 23.232 33.426 23.0 33.931 23.0 34.47 C 23.0 35.533 23.861 36.396 24.922 36.396 C 25.835 36.396 26.326 35.812 26.338 35.791 C 32.115 29.899 39.805 26.648 47.994003 26.633 C 56.255005 26.649 63.996 29.951 69.881004 36.015 C 69.938 36.052 70.46501 36.397 71.078 36.397 C 72.14101 36.397 73.0 35.535 73.0 34.471 C 73.0 34.05 72.846 33.634 72.559 33.271 z M 62.979 64.0 L 33.02 64.0 C 32.456 64.0 32.0 64.512 32.0 65.145 L 32.0 66.857994 C 32.0 67.488 32.456 68.0 33.02 68.0 L 62.979 68.0 C 63.543 68.0 64.0 67.488 64.0 66.857 L 64.0 65.142006 C 64.0 64.512 63.543 64.0 62.979 64.0 z " fill="url(#linearGradient3818)" fill-opacity="1"/>
<linearGradient gradientTransform="matrix(1 0 0 -1 -300.9004 -120.5996)" gradientUnits="userSpaceOnUse" x1="348.9004" x2="348.9004" y1="-186.5996" y2="-184.4551">
<stop offset="0" stop-color="#d0cbc5"/>
<stop offset="0.5031" stop-color="#fafcef"/>
<stop offset="0.9693" stop-color="#ffffff"/>
<stop offset="1" stop-color="#ffffff"/>
</linearGradient>
</svg>
