<?xml version="1.0" encoding="UTF-8"?>
<svg xmlns="http://www.w3.org/2000/svg" xmlns:xlink="http://www.w3.org/1999/xlink" baseProfile="tiny" contentScriptType="text/ecmascript" contentStyleType="text/css" height="96px" preserveAspectRatio="xMidYMid meet" version="1.1" viewBox="0 0 96 96" width="96px" x="0px" y="0px" zoomAndPan="magnify">
<defs/>
<rect fill="none" height="96" width="96"/>
<path d="M 88.0 49.0 C 88.0 78.633 77.637 89.0 48.0 89.0 C 18.365 89.0 8.0 78.633 8.0 49.0 C 8.0 19.365 18.365 9.0 48.0 9.0 C 77.637 9.0 88.0 19.365 88.0 49.0 z " fill-opacity="0.4" stroke-opacity="0.4"/>
<linearGradient gradientUnits="userSpaceOnUse" x1="48.0005" x2="48.0005" y1="88" y2="54">
<stop offset="0" stop-color="#b2c3ce"/>
<stop offset="1" stop-color="#596275"/>
</linearGradient>
<path d="M 87.842 54.0 C 86.438 79.047 75.543 88.0 48.0 88.0 C 20.462 88.0 9.563 79.047 8.158 54.0 L 87.842 54.0 z " fill="#2e343c" fill-opacity="1"/>
<linearGradient gradientUnits="userSpaceOnUse" x1="47.9995" x2="47.9995" y1="15.7534" y2="37.9063">
<stop offset="0" stop-color="#ffffff"/>
<stop offset="1" stop-color="#b1b1b1"/>
</linearGradient>
<path d="M 18.0 15.847 C 12.535 20.625 9.561 27.81 8.479 38.0 L 87.522 38.0 C 86.44 27.811 83.466 20.626 78.00101 15.847 L 18.0 15.847 z " fill="#e0e0e0" fill-opacity="1"/>
<linearGradient gradientUnits="userSpaceOnUse" x1="47.9995" x2="47.9995" y1="29.9658" y2="37.9658">
<stop offset="0" stop-color="#bbbdbf" stop-opacity="0"/>
<stop offset="0.65" stop-color="#58595b"/>
<stop offset="1" stop-color="#bbbdbf" stop-opacity="0"/>
</linearGradient>
<linearGradient gradientUnits="userSpaceOnUse" x1="47.9995" x2="47.9995" y1="37.9321" y2="53.9331">
<stop offset="0" stop-color="#939496"/>
<stop offset="1" stop-color="#58595b"/>
</linearGradient>
<path d="M 88.0 48.0 C 88.0 44.384 87.843 41.059 87.518 38.0 L 8.482 38.0 C 8.157 41.058 8.0 44.383 8.0 48.0 C 8.0 50.1 8.059 52.09 8.166 54.0 L 87.835 54.0 C 87.941 52.09 88.0 50.1 88.0 48.0 z " fill="#bdbdbd" fill-opacity="1"/>
<linearGradient gradientUnits="userSpaceOnUse" x1="22" x2="22" y1="33.9995" y2="25.9995">
<stop offset="0" stop-color="#ffffff"/>
<stop offset="1" stop-color="#cccac6"/>
</linearGradient>
<linearGradient gradientUnits="userSpaceOnUse" x1="22" x2="22" y1="33.4995" y2="26.4995">
<stop offset="0" stop-color="#58595b"/>
<stop offset="1" stop-color="#000000"/>
</linearGradient>
<linearGradient gradientUnits="userSpaceOnUse" x1="22" x2="22" y1="32.9995" y2="26.9995">
<stop offset="0" stop-color="#028200"/>
<stop offset="1" stop-color="#43db0b"/>
</linearGradient>
<path d="M 22.0 33.0 C 20.346 33.0 19.0 31.654 19.0 30.0 C 19.0 28.346 20.346 27.0 22.0 27.0 C 23.654 27.0 25.0 28.346 25.0 30.0 C 25.0 31.654 23.654 33.0 22.0 33.0 L 22.0 33.0 z " fill="#2cbb07" fill-opacity="1"/>
<linearGradient gradientUnits="userSpaceOnUse" x1="22" x2="22" y1="32.9995" y2="26.9995">
<stop offset="0" stop-color="#000000"/>
<stop offset="1" stop-color="#58595b"/>
</linearGradient>
<linearGradient gradientUnits="userSpaceOnUse" x1="48.0005" x2="48.0005" y1="48.9995" y2="42.9995">
<stop offset="0" stop-color="#4a4b4d"/>
<stop offset="0.0057" stop-color="#4a4b4d"/>
<stop offset="1" stop-color="#000000"/>
</linearGradient>
<rect fill="#000000" fill-opacity="1" height="6" width="68" x="14" y="43"/>
<linearGradient gradientUnits="userSpaceOnUse" x1="48.0005" x2="48.0005" y1="48.9995" y2="42.9995">
<stop offset="0" stop-color="#939496"/>
<stop offset="1" stop-color="#58595b"/>
</linearGradient>
<path d="M 14.0 43.0 L 14.0 49.0 L 82.0 49.0 L 82.0 43.0 L 14.0 43.0 z M 81.0 48.0 L 15.0 48.0 L 15.0 44.0 L 81.0 44.0 L 81.0 48.0 z " fill="#898989" fill-opacity="1"/>
<linearGradient gradientUnits="userSpaceOnUse" x1="47.9995" x2="47.9995" y1="14.9946" y2="24.9575">
<stop offset="0" stop-color="#cccac6"/>
<stop offset="1" stop-color="#ffffff"/>
</linearGradient>
<linearGradient gradientUnits="userSpaceOnUse" x1="47.9995" x2="47.9995" y1="7.9321" y2="23.9321">
<stop offset="0" stop-color="#747678"/>
<stop offset="1" stop-color="#bbbdbf"/>
</linearGradient>
<path d="M 21.533606 24.40678 L 74.26301 24.40678 C 75.93615 24.40678 77.305084 23.013878 77.305084 21.31144 L 77.305084 15.157905 C 70.87413 10.048534 61.34836 7.8983054 47.898304 7.8983054 C 34.44825 7.8983054 24.922482 10.049565 18.491524 15.157906 L 18.491524 21.31144 C 18.491524 23.013876 19.86046 24.40678 21.533606 24.40678 z " fill="#959799" fill-opacity="1"/>
<linearGradient gradientUnits="userSpaceOnUse" x1="47.9995" x2="47.9995" y1="13.5596" y2="23.9556">
<stop offset="0" stop-color="#58595b"/>
<stop offset="1" stop-color="#000000"/>
</linearGradient>
<linearGradient gradientUnits="userSpaceOnUse" x1="47.9995" x2="47.9995" y1="14.2637" y2="23.9585">
<stop offset="0" stop-color="#58595b"/>
<stop offset="1" stop-color="#000000"/>
</linearGradient>
<path d="M 87.516 58.0 C 87.551 57.67 87.583 57.336 87.614 57.0 L 8.387 57.0 C 8.418 57.336 8.45 57.67 8.485 58.0 L 87.516 58.0 z " fill-opacity="0.05"/>
<path d="M 8.389 57.0 L 87.612 57.0 C 87.642 56.666 87.677 56.34 87.705 56.0 L 8.296 56.0 C 8.323 56.34 8.358 56.666 8.389 57.0 z " fill-opacity="0.15"/>
<path d="M 8.296 56.0 L 87.704 56.0 C 87.73 55.672 87.74899 55.332 87.771 55.0 L 8.229 55.0 C 8.251 55.332 8.27 55.672 8.296 56.0 z " fill-opacity="0.25"/>
<path d="M 8.229 55.0 L 87.772 55.0 C 87.79401 54.668 87.816 54.336 87.83501 54.0 L 8.166 54.0 C 8.185 54.336 8.206 54.668 8.229 55.0 z " fill-opacity="0.4"/>
<linearGradient gradientUnits="userSpaceOnUse" id="SVGID_15_" x1="48" x2="48" y1="87.834" y2="7.9947">
<stop offset="0" stop-color="#ffffff" stop-opacity="0"/>
<stop offset="1" stop-color="#ffffff"/>
</linearGradient>
<path d="M 48.0 8.0 C 18.366 8.0 8.0 18.367 8.0 48.0 C 8.0 77.635 18.366 88.0 48.0 88.0 C 77.639 88.0 88.0 77.635 88.0 48.0 C 88.0 18.367 77.637 8.0 48.0 8.0 z M 48.0 87.0 C 18.842 87.0 9.0 77.158 9.0 48.0 C 9.0 18.841 18.842 9.0 48.0 9.0 C 77.159 9.0 87.0 18.842 87.0 48.0 C 87.0 77.158 77.159 87.0 48.0 87.0 z " fill="url(#SVGID_15_)" fill-opacity="0.25"/>
<linearGradient gradientUnits="userSpaceOnUse" id="SVGID_16_" x1="31.7437" x2="31.7437" y1="57.6943" y2="62.6799">
<stop offset="0" stop-color="#ffffff"/>
<stop offset="1" stop-color="#ffffff" stop-opacity="0"/>
</linearGradient>
<path d="M 37.209 57.951 C 36.109 57.478 35.008 57.74 34.171 57.373 C 33.331997 57.008 32.546997 57.74 31.654997 58.057 C 30.764996 58.37 29.926996 58.212997 28.668997 57.740997 C 27.412996 57.271996 27.988997 58.576996 27.515997 59.731 C 27.043997 60.885 27.307997 60.833 26.833998 61.356 C 26.363998 61.879 25.786997 61.827 25.368998 62.772 C 24.946997 63.712997 25.997995 62.561 27.514996 62.301 C 29.034998 62.037 28.510998 61.565 29.453997 61.775997 C 30.398996 61.984997 30.135996 62.195995 31.233995 61.931995 C 32.335 61.66999 32.597996 62.14299 32.962997 62.665997 C 33.330997 63.188995 33.749996 62.823997 34.483997 62.665997 C 35.217 62.507996 35.635 62.455 36.474 62.507996 C 37.314 62.560997 36.787 61.825996 37.522 61.511997 C 38.255 61.198 38.097 60.255997 38.203 59.364 C 38.31 58.473 37.209 57.951 37.209 57.951 z " fill="url(#SVGID_16_)" fill-opacity="0.3" stroke-opacity="0.3"/>
<radialGradient cx="44.356" cy="62.2031" gradientUnits="userSpaceOnUse" id="SVGID_17_" r="4.7543">
<stop offset="0" stop-color="#ffffff"/>
<stop offset="1" stop-color="#ffffff" stop-opacity="0"/>
</radialGradient>
<path d="M 48.136 59.193 C 47.829 59.289 47.639 59.574 47.35 59.607 C 47.065 59.640003 45.92 58.941 45.014004 58.72 C 44.110004 58.497 43.085003 59.574 42.535004 59.669003 C 41.986004 59.767 41.772003 59.319004 41.483 59.003 C 41.2 58.687 40.463 59.003 40.105003 59.067 C 39.748005 59.13 39.651005 59.512 39.267 59.766003 C 39.103 59.873 38.828003 59.891003 38.533 59.860004 C 38.553 59.995003 38.573 60.133003 38.581 60.270004 C 38.662003 61.165005 39.845 61.452003 39.845 61.452003 C 41.018 61.692005 42.043 61.212 42.94 61.401005 C 43.834003 61.589005 44.455 60.71201 45.263 60.221004 C 46.07 59.735004 46.923 59.717003 48.251 59.926006 C 48.367 59.942005 48.464 59.947006 48.549 59.944008 C 48.515 59.926006 48.48 59.905006 48.448 59.891006 C 48.021 59.701 48.448 59.1 48.136 59.193 z " fill="url(#SVGID_17_)" fill-opacity="0.3" stroke-opacity="0.3"/>
<path d="M 21.0 77.0 C 21.0 77.553 21.378 78.0 21.844 78.0 L 74.157 78.0 C 74.622 78.0 75.0 77.553 75.0 77.0 L 75.0 44.0 L 21.0 44.0 L 21.0 77.0 z " fill-opacity="0.05"/>
<rect fill-opacity="0.25" height="33" width="52.313" x="21.844" y="44"/>
<linearGradient gradientUnits="userSpaceOnUse" x1="47.9995" x2="47.9995" y1="44.1006" y2="75.7994">
<stop offset="0" stop-color="#ffffff"/>
<stop offset="1" stop-color="#cccac6"/>
</linearGradient>
<rect fill="#ffffff" fill-opacity="1" height="32" width="50" x="23" y="44"/>
<linearGradient gradientUnits="userSpaceOnUse" x1="48.0005" x2="48.0005" y1="82.125" y2="44.3649">
<stop offset="0" stop-color="#0c36a4"/>
<stop offset="0.3681" stop-color="#4595d2"/>
<stop offset="1" stop-color="#cde1f2"/>
</linearGradient>
<polygon fill="#55acf1" fill-opacity="1" points="71,52.506 53.805,44 25,44 25,74 71,74 "/>
<linearGradient gradientUnits="userSpaceOnUse" x1="34.6377" x2="38.1722" y1="52.9307" y2="38.4271">
<stop offset="0" stop-color="#96d63a"/>
<stop offset="1" stop-color="#0f581c"/>
</linearGradient>
<path d="M 27.857 51.828 C 28.45 52.211 29.043 52.664 29.043 52.664 C 29.043 52.664 29.635002 53.115 29.932 53.374996 C 30.227 53.630997 30.327002 54.019997 30.969002 54.019997 C 31.610004 54.019997 31.953 54.019997 32.249 53.888996 C 32.547 53.761997 33.484 53.181995 33.731 53.115997 C 33.978 53.052 34.521 53.182 35.164 52.728996 C 35.805996 52.277996 36.742996 52.083996 37.386 52.021996 C 38.03 51.955994 38.821 51.439995 39.359997 51.181995 C 39.904995 50.925995 40.791996 50.34399 40.791996 50.34399 C 40.791996 50.34399 42.668995 49.505993 43.557995 49.312996 C 44.44799 49.119995 46.124996 48.665997 46.520996 48.409996 C 46.775 48.243996 47.372997 47.813995 47.768997 47.526997 C 45.322 46.746 40.811996 45.528996 39.976997 45.356995 C 38.928997 45.139996 37.879997 44.999996 37.488 44.708996 C 37.191 44.493996 36.745 44.277996 36.153 43.999996 L 25.0 43.999996 L 25.0 50.966995 C 25.0 50.967 27.341 51.49 27.857 51.828 z " fill="#7ec921" fill-opacity="1"/>
<linearGradient gradientUnits="userSpaceOnUse" x1="53.1982" x2="54.4552" y1="56.6846" y2="28.6554">
<stop offset="0" stop-color="#96d63a"/>
<stop offset="1" stop-color="#0f581c"/>
</linearGradient>
<path d="M 39.976 45.357 C 40.811 45.529 45.321003 46.746 47.768 47.527 C 48.402 47.728 48.899 47.902 49.156 48.019 C 50.4 48.595 54.007004 49.389 54.662003 49.676003 C 55.317 49.965004 55.841003 50.11 56.366 50.254 C 56.891003 50.397003 57.744 50.467003 58.464 50.539 C 59.186 50.613003 61.153 50.467003 61.153 50.467003 C 61.153 50.467003 65.02 51.762 66.463 52.194004 C 67.318 52.451 71.0 52.506 71.0 52.506 L 71.0 44.0 L 36.151 44.0 C 36.743 44.278 37.189 44.494 37.486 44.709 C 37.879 45.0 38.928 45.14 39.976 45.357 z " fill="#7ec921" fill-opacity="1"/>
<g fill="#e0ebf2" fill-opacity="0.76595747">
<linearGradient gradientTransform="matrix(1 0 0 -1 0 -1420)" gradientUnits="userSpaceOnUse" x1="40.4043" x2="40.4043" y1="-1484.3896" y2="-1479.7006">
<stop offset="0" stop-color="#ffffff" stop-opacity="0.1"/>
<stop offset="1" stop-color="#ffffff" stop-opacity="0"/>
</linearGradient>
<path d="M 37.657 58.506 C 37.657 58.611 37.659 58.715 37.661003 58.819 C 37.623005 58.596 37.685 58.493 37.428 58.518 C 37.143 58.547 36.862 58.625 36.604 58.75 C 36.069 59.006 35.631 59.455 35.375 59.986 C 34.941 60.871 35.056 61.955 36.023 62.379 C 35.667 62.785 35.662 63.43 36.01 63.854 C 36.354 64.268 36.893 64.301 37.365997 64.452 C 37.638996 64.54 37.836 65.249 38.092 65.464005 C 38.557 65.857 39.246 65.843 39.813 65.747 C 40.233 65.677 40.547 65.474 40.814 65.147 C 41.097 64.80701 41.208 64.850006 41.614 64.725006 C 42.046 64.592 42.41 64.313 42.635 63.92001 C 42.774 63.680004 42.778 63.297005 43.052 63.234005 C 43.375 63.15601 43.703 63.095005 44.0 62.945004 C 44.508 62.683 44.84 62.179005 44.979 61.636 C 44.991 61.585003 45.072 61.085003 45.056 61.085003 C 45.206 61.085003 45.492 60.644 45.55 60.534004 C 45.84 60.016003 45.594997 59.388004 45.127 59.067005 C 44.885 58.903004 44.594997 58.825005 44.303 58.825005 C 44.013996 58.825005 43.636 59.063004 43.374996 58.958004 C 42.283997 58.520004 41.074997 58.210003 40.077995 59.054005 C 39.65599 59.41301 39.42699 59.466003 38.990993 59.05201 C 38.62 58.697 38.178 58.506 37.657 58.506 " fill="#e0ebf2" fill-opacity="0.76595747"/>
</g>
<g fill="#e0ebf2" fill-opacity="0.76595746" transform="translate(-5.8983051,-0.61016949)">
<linearGradient gradientTransform="matrix(1,0,0,-1,0,-1420)" gradientUnits="userSpaceOnUse" x1="58.828098" x2="58.828098" y1="-1488.3584" y2="-1482.828">
<stop offset="0" stop-color="#ffffff" stop-opacity="0.1"/>
<stop offset="1" stop-color="#ffffff" stop-opacity="0"/>
</linearGradient>
<path d="M 58.78 61.996 C 58.229 61.996 58.174 62.628998 57.768997 62.718998 C 57.219997 62.837997 56.871 63.155 56.622997 63.650997 C 55.975998 64.05299 54.937996 64.36 54.528996 65.062996 C 54.402996 65.27599 54.381996 65.53 54.490997 65.754 C 54.618996 66.012 54.941998 66.016 55.034996 66.24 C 55.297997 66.886 55.561996 67.300995 56.247997 67.541 C 56.434998 67.607 56.714996 67.645 56.831997 67.822 C 56.921997 67.959 57.008995 68.095 57.129997 68.207 C 57.558 68.582 58.391 68.664 58.886997 68.41 C 59.178997 68.267006 59.167995 68.146 59.463997 68.254005 C 59.739998 68.358 60.024 68.311005 60.292995 68.20701 C 60.807995 68.31601 61.208996 67.936005 61.705994 67.95701 C 62.846992 68.00801 63.416992 67.10901 63.181995 66.031006 C 63.053997 65.44101 63.019997 64.992004 62.635994 64.490005 C 62.322994 64.08201 61.788994 63.578007 61.229996 63.648006 C 60.930996 63.685005 60.946995 63.427006 60.733997 63.214012 C 60.499996 62.984013 60.212997 62.81401 59.905 62.704014 C 59.611 62.599014 59.57 62.683014 59.426 62.421013 C 59.292 62.178 59.072 61.996 58.78 61.996 " fill="#e0ebf2" fill-opacity="0.76595746"/>
</g>
<g fill="#e0ebf2" fill-opacity="0.76595747" stroke-opacity="0.3">
<linearGradient gradientTransform="matrix(1 0 0 -1 0 -1420)" gradientUnits="userSpaceOnUse" x1="64.3555" x2="64.6691" y1="-1489.7007" y2="-1487.6346">
<stop offset="0" stop-color="#ffffff" stop-opacity="0.7"/>
<stop offset="1" stop-color="#ffffff" stop-opacity="0"/>
</linearGradient>
<path d="M 58.98 66.738 C 59.274 66.365 59.622 66.498 59.889 66.826 C 59.925 66.868996 60.408 67.576 60.264 67.06 C 60.228 66.921 60.067 66.715996 60.077 66.576 C 60.095 66.334 60.414 66.826 60.428 66.854996 C 60.606003 67.246 60.953003 66.495995 61.259003 66.80599 C 61.425003 66.97599 61.995003 67.43699 62.076004 66.89599 C 62.150005 66.387985 62.556004 66.67099 62.806004 66.928986 C 62.915005 67.04398 63.086 66.87998 63.226 66.87199 C 63.480003 66.859985 63.574 66.984985 63.762 67.11599 C 64.083 67.34099 64.541 67.32299 64.856 67.06499 C 65.411 66.61799 65.559006 66.89299 66.184006 66.93999 C 66.61101 66.970985 66.811005 66.416985 67.297005 66.525986 C 67.469 66.56499 67.511 66.791985 67.68201 66.845985 C 67.89801 66.917984 68.12401 66.70299 68.29301 66.60599 C 68.80001 66.31299 69.18001 66.57299 69.66701 66.777985 C 69.84001 66.84998 69.91 66.818985 70.06301 66.71498 C 70.34301 66.52398 70.126015 66.86698 70.31001 66.94698 C 70.95301 67.235985 70.17701 67.68898 69.97701 68.02499 C 69.903015 68.14799 69.88101 68.29999 69.72801 68.17699 C 69.501015 67.99499 69.375015 68.32699 69.196014 68.43699 C 68.81201 68.67099 68.38301 67.76499 68.180016 67.89999 C 68.05901 67.98199 68.50601 68.44698 68.209015 68.44698 C 68.00802 68.44698 67.79901 68.20499 67.65601 68.08798 C 67.46101 67.92798 67.42601 67.98098 67.20301 67.96298 C 66.91801 67.94198 67.02101 68.03898 67.09301 68.23998 C 67.28401 68.78498 67.26201 69.165985 66.99401 69.64798 C 66.59701 70.37098 66.32501 70.07598 65.63301 69.95298 C 65.16101 69.86898 65.13501 70.35298 64.94501 70.66198 C 64.62701 71.18198 64.05101 71.12298 63.576008 70.83198 C 63.416008 70.73398 63.431007 70.54898 63.29701 70.435974 C 63.19301 70.35397 63.050007 70.36198 62.953007 70.267975 C 62.875008 70.18797 62.863007 70.05498 62.76901 69.988976 C 62.67201 69.920975 62.237007 69.95397 62.237007 70.10998 C 62.237007 70.19198 62.06601 70.752975 62.035007 70.62598 C 61.99201 70.461975 62.10901 70.352974 61.86601 70.35998 C 61.653008 70.365974 61.507008 70.35998 61.40101 70.15298 C 61.17201 69.70198 60.97401 70.28798 60.81701 69.77798 C 60.77201 69.629974 60.826008 69.64898 60.694008 69.63298 C 60.41301 69.60798 60.480007 69.25598 60.48501 69.06498 C 60.49801 68.61998 59.912006 68.62198 60.09301 68.07898 C 59.56401 68.11598 59.69701 67.64698 59.66201 67.28798 C 59.611 66.744 58.825 67.17 58.98 66.738 z " fill="#e0ebf2" fill-opacity="0.76595747"/>
</g>
<g fill="#e0ebf2" fill-opacity="0.76595747">
<linearGradient gradientTransform="matrix(1 0 0 -1 0 -1420)" gradientUnits="userSpaceOnUse" x1="59.7402" x2="59.7402" y1="-1480.5435" y2="-1472.1798">
<stop offset="0" stop-color="#ffffff" stop-opacity="0.1"/>
<stop offset="1" stop-color="#ffffff" stop-opacity="0"/>
</linearGradient>
<path d="M 58.973 57.0 C 58.601 57.0 58.095 57.119 57.723 57.197 C 57.329 57.279 56.961 57.488 56.741 57.837997 C 56.411 58.358 56.530003 59.453 57.092003 59.790997 C 57.362003 60.444996 58.279003 60.309 58.858 60.441 C 59.249 60.531 59.568 60.369 59.796 60.056 C 60.138 60.136 60.38 60.101 60.708 60.011 C 61.036 60.210003 61.436 60.22 61.777 60.396 C 62.121 60.572 62.549 60.626 62.795 60.251 C 63.284 59.497 62.244003 59.155 62.076 58.63 C 61.91 58.099003 61.934 57.216 61.207 57.148003 C 60.832 57.111004 60.515 57.369003 60.144 57.369003 C 59.736 57.369 59.404 57.0 58.973 57.0 " fill="#e0ebf2" fill-opacity="0.76595747"/>
</g>
<g fill="#e0ebf2" fill-opacity="0.76595747">
<linearGradient gradientTransform="matrix(1 0 0 -1 0 -1420)" gradientUnits="userSpaceOnUse" x1="65.3555" x2="65.3555" y1="-1485.4775" y2="-1477.1128">
<stop offset="0" stop-color="#ffffff" stop-opacity="0.1"/>
<stop offset="1" stop-color="#ffffff" stop-opacity="0"/>
</linearGradient>
<path d="M 64.586 61.934 C 64.213 61.934 63.708 62.053 63.337997 62.130997 C 62.942 62.212997 62.575996 62.421997 62.356 62.769997 C 62.024 63.290997 62.145 64.384995 62.707 64.725 C 62.977 65.379 63.889 65.243 64.471 65.375 C 64.864 65.463 65.181 65.303 65.409004 64.99 C 65.753006 65.072 65.993004 65.034996 66.323006 64.945 C 66.646 65.144 67.049 65.154 67.38901 65.328 C 67.73301 65.506004 68.16601 65.562004 68.41001 65.185005 C 68.89701 64.43101 67.85701 64.087006 67.69101 63.564007 C 67.52201 63.03301 67.54701 62.150005 66.82201 62.08201 C 66.44401 62.04501 66.128006 62.30301 65.759 62.30301 C 65.352 62.303 65.02 61.934 64.586 61.934 " fill="#e0ebf2" fill-opacity="0.76595747"/>
</g>
<g fill="#e0ebf2" fill-opacity="0.76595747" transform="translate(-2.9491525,1.0169492)">
<linearGradient gradientTransform="matrix(1,0,0,-1,0,-1420)" gradientUnits="userSpaceOnUse" x1="35.4263" x2="33.311901" y1="-1485.2441" y2="-1481.786">
<stop offset="0" stop-color="#ffffff" stop-opacity="0.1"/>
<stop offset="1" stop-color="#ffffff" stop-opacity="0"/>
</linearGradient>
<path d="M 33.062 61.666 C 32.499 61.666 31.944 62.211 31.948 62.777 C 31.948 63.072 32.1 63.343002 32.335 63.521 C 32.469997 63.796 32.603 63.96 32.703 64.25 C 32.891 64.793 33.401 65.316 33.972 65.447 C 34.482 65.563995 34.999 65.359 35.511 65.363 C 36.940002 65.379 37.189003 63.828 36.079002 63.068 C 35.829002 62.898003 35.538002 62.804 35.236004 62.779 C 34.989002 62.756 34.837006 62.822 34.636005 62.666 C 34.522007 62.58 34.401005 62.518 34.261005 62.478 C 34.014004 62.406002 34.064007 62.324 33.915005 62.126 C 33.713 61.859 33.4 61.666 33.062 61.666 " fill="#e0ebf2" fill-opacity="0.76595747"/>
</g>
</svg>
