<?xml version="1.0" encoding="UTF-8"?>
<svg xmlns="http://www.w3.org/2000/svg" xmlns:xlink="http://www.w3.org/1999/xlink" baseProfile="tiny" contentScriptType="text/ecmascript" contentStyleType="text/css" height="96px" preserveAspectRatio="xMidYMid meet" version="1.1" viewBox="0 0 96 96" width="96px" x="0px" y="0px" zoomAndPan="magnify">
<defs>
<linearGradient id="linearGradient3802">
<stop offset="0" stop-color="#ffffff" stop-opacity="1"/>
<stop offset="1" stop-color="#ffffff" stop-opacity="0.78431374"/>
</linearGradient>
<linearGradient>
<stop offset="0" stop-color="#8626a8" stop-opacity="1"/>
<stop offset="1" stop-color="#7e26a8" stop-opacity="1"/>
</linearGradient>
<linearGradient gradientTransform="matrix(0,1,-1,0,96,0)" gradientUnits="userSpaceOnUse" id="linearGradient3798" x1="8" x2="88" y1="48" y2="48">
<stop offset="0" stop-color="#8626a8" stop-opacity="1"/>
<stop offset="1" stop-color="#7e26a8" stop-opacity="1"/>
</linearGradient>
<linearGradient gradientUnits="userSpaceOnUse" id="linearGradient3808" x1="53.516949" x2="53.516949" y1="29.678965" y2="68.731438">
<stop offset="0" stop-color="#ffffff" stop-opacity="1"/>
<stop offset="1" stop-color="#ffffff" stop-opacity="0.78431374"/>
</linearGradient>
<linearGradient gradientTransform="matrix(0,1,-1,0,96,0)" gradientUnits="userSpaceOnUse" id="linearGradient3812" x1="53.516949" x2="53.516949" y1="29.678965" y2="68.731438">
<stop offset="0" stop-color="#8626a8" stop-opacity="1"/>
<stop offset="1" stop-color="#7e26a8" stop-opacity="1"/>
</linearGradient>
</defs>
<path d="M 88.0 49.0 C 88.0 78.633 77.637 89.0 48.0 89.0 C 18.365 89.0 8.0 78.633 8.0 49.0 C 8.0 19.365 18.365 9.0 48.0 9.0 C 77.637 9.0 88.0 19.365 88.0 49.0 z " fill-opacity="0.4"/>
<linearGradient gradientTransform="matrix(1 0 0 -1 -300.9004 -120.5996)" gradientUnits="userSpaceOnUse" x1="348.8994" x2="348.8994" xlink:actuate="onLoad" xlink:show="other" xlink:type="simple" y1="-128.5996" y2="-208.5996">
<stop offset="0" stop-color="#b30dac"/>
<stop offset="1" stop-color="#511475"/>
</linearGradient>
<path d="M 48.0 88.0 C 18.367 88.0 8.0 77.637 8.0 48.0 C 8.0 18.365 18.367 8.0 48.0 8.0 C 77.635 8.0 88.0 18.365 88.0 48.0 C 88.0 77.637 77.635 88.0 48.0 88.0 z " fill="url(#linearGradient3798)" fill-opacity="1"/>
<linearGradient gradientTransform="matrix(1 0 0 -1 -300.9004 -120.5996)" gradientUnits="userSpaceOnUse" id="SVGID_2_" x1="348.8994" x2="348.8994" xlink:actuate="onLoad" xlink:show="other" xlink:type="simple" y1="-128.8535" y2="-208.0986">
<stop offset="0" stop-color="#ffffff"/>
<stop offset="1" stop-color="#ffffff" stop-opacity="0"/>
</linearGradient>
<path d="M 48.0 8.0 C 18.365 8.0 8.0 18.365 8.0 48.0 C 8.0 77.633 18.365 88.0 48.0 88.0 C 77.637 88.0 88.0 77.633 88.0 48.0 C 88.0 18.365 77.637 8.0 48.0 8.0 z M 48.0 87.0 C 18.842 87.0 9.0 77.158 9.0 48.0 C 9.0 18.842005 18.842 9.0 48.0 9.0 C 77.158005 9.0 87.0 18.842 87.0 48.0 C 87.0 77.158005 77.158 87.0 48.0 87.0 z " fill="url(#SVGID_2_)" fill-opacity="0.25"/>
<rect fill="none" height="96" width="96"/>
<path d="M 36.5 48.501 L 73.5 48.501 L 53.5 30.501 L 53.5 39.501 L 36.5 39.501 C 35.95 39.501 35.5 39.952 35.5 40.501 L 35.5 47.501 C 35.5 48.052 35.95 48.501 36.5 48.501 z M 59.5 51.501 L 22.5 51.501 L 42.5 69.501 L 42.5 60.501 L 59.5 60.501 C 60.05 60.501 60.5 60.05 60.5 59.501 L 60.5 52.501 C 60.5 51.95 60.05 51.501 59.5 51.501 z " fill-opacity="0.3" stroke-opacity="0.3"/>
<path d="M 16.636 48.251 L 33.762 48.251 C 33.438 47.746 33.25 47.145 33.25 46.501 L 33.25 39.501 C 33.25 37.709 34.708 36.251 36.5 36.251 L 51.25 36.251 L 51.25 24.449 L 79.363 49.751 L 62.238 49.751 C 62.562 50.256 62.75 50.857 62.75 51.501 L 62.75 58.501 C 62.75 60.293 61.292 61.751 59.5 61.751 L 44.75 61.751 L 44.75 73.552 L 16.636 48.251 z " fill-opacity="0.07" stroke-opacity="0.07"/>
<path d="M 18.591 49.001 L 36.5 49.001 C 35.122 49.001 34.0 47.879 34.0 46.501 L 34.0 39.501 C 34.0 38.123 35.122 37.001 36.5 37.001 L 52.0 37.001 L 52.0 26.133 L 77.409 49.001 L 59.5 49.001 C 60.879 49.001 62.0 50.123 62.0 51.501 L 62.0 58.501 C 62.0 59.879 60.879 61.001 59.5 61.001 L 44.0 61.001 L 44.0 71.868 L 18.591 49.001 z " fill-opacity="0.07" stroke-opacity="0.07"/>
<path d="M 20.545 49.751 L 59.5 49.751 C 60.465 49.751 61.25 50.536 61.25 51.501 L 61.25 58.501 C 61.25 59.466 60.465 60.251 59.5 60.251 L 43.25 60.251 L 43.25 70.185 L 20.545 49.751 z M 36.5 48.251 C 35.535 48.251 34.75 47.466 34.75 46.501 L 34.75 39.501 C 34.75 38.536 35.535 37.751 36.5 37.751 L 52.75 37.751 L 52.75 27.817 L 75.455 48.251 L 36.5 48.251 z " fill-opacity="0.07" stroke-opacity="0.07"/>
<linearGradient gradientTransform="matrix(1 0 0 -1 -300.9004 -120.5996)" gradientUnits="userSpaceOnUse" x1="348.9004" x2="348.9004" xlink:actuate="onLoad" xlink:show="other" xlink:type="simple" y1="-189.1006" y2="-150.1006">
<stop offset="0" stop-color="#d0cbc5"/>
<stop offset="0.5031" stop-color="#fafcef"/>
<stop offset="0.9693" stop-color="#ffffff"/>
<stop offset="1" stop-color="#ffffff"/>
</linearGradient>
<path d="M 36.5 47.501 L 73.5 47.501 L 53.5 29.501 L 53.5 38.501 L 36.5 38.501 C 35.95 38.501 35.5 38.952 35.5 39.501 L 35.5 46.501 C 35.5 47.052 35.95 47.501 36.5 47.501 z M 59.5 50.501 L 22.5 50.501 L 42.5 68.501 L 42.5 59.501 L 59.5 59.501 C 60.05 59.501 60.5 59.05 60.5 58.501 L 60.5 51.501 C 60.5 50.95 60.05 50.501 59.5 50.501 z " fill="url(#linearGradient3812)" fill-opacity="1"/>
<path d="M 36.5 47.501 L 73.5 47.501 L 53.5 29.501 L 53.5 38.501 L 36.5 38.501 C 35.95 38.501 35.5 38.952 35.5 39.501 L 35.5 46.501 C 35.5 47.052 35.95 47.501 36.5 47.501 z M 59.5 50.501 L 22.5 50.501 L 42.5 68.501 L 42.5 59.501 L 59.5 59.501 C 60.05 59.501 60.5 59.05 60.5 58.501 L 60.5 51.501 C 60.5 50.95 60.05 50.501 59.5 50.501 z " fill="url(#linearGradient3808)" fill-opacity="1"/>
</svg>
