<?xml version="1.0" encoding="UTF-8"?>
<svg xmlns="http://www.w3.org/2000/svg" xmlns:xlink="http://www.w3.org/1999/xlink" baseProfile="tiny" contentScriptType="text/ecmascript" contentStyleType="text/css" height="96px" preserveAspectRatio="xMidYMid meet" version="1.1" viewBox="0 0 96 96" width="96px" x="0px" y="0px" zoomAndPan="magnify">
<defs>
<linearGradient>
<stop offset="0" stop-color="#ffffff" stop-opacity="1"/>
<stop offset="1" stop-color="#ffffff" stop-opacity="0.78431374"/>
</linearGradient>
<linearGradient>
<stop offset="0" stop-color="#f8953b" stop-opacity="1"/>
<stop offset="1" stop-color="#f87c00" stop-opacity="1"/>
</linearGradient>
<linearGradient>
<stop offset="0" stop-color="#d5f6ff" stop-opacity="1"/>
<stop offset="1" stop-color="#0088aa" stop-opacity="1"/>
</linearGradient>
<linearGradient gradientTransform="matrix(1.0515857,0,0,1.01708,-253.45339,-715.60427)" gradientUnits="userSpaceOnUse" x1="254.83009" x2="358.8096" y1="763.97272" y2="763.97272">
<stop offset="0" stop-color="#f7f8f9"/>
<stop offset="1" stop-color="#d0d1d2"/>
</linearGradient>
<linearGradient gradientTransform="matrix(0.7261569,0,0,0.74770351,-174.61605,-527.27145)" gradientUnits="userSpaceOnUse" x1="254.83009" x2="358.8096" y1="763.97272" y2="763.97272">
<stop offset="0" stop-color="#f7f8f9"/>
<stop offset="1" stop-color="#d0d1d2"/>
</linearGradient>
<linearGradient gradientTransform="matrix(1,0,0,-1,-1.3115644,98.868328)" gradientUnits="userSpaceOnUse" x1="61.075901" x2="34.694302" y1="57.299801" y2="41.540901">
<stop offset="0" stop-color="#ffffff"/>
<stop offset="1" stop-color="#ffffff" stop-opacity="0.2"/>
</linearGradient>
<linearGradient gradientTransform="matrix(1,0,0,-1,1.0534719,96.841079)" gradientUnits="userSpaceOnUse" x1="61.075901" x2="34.694302" y1="57.299801" y2="41.540901">
<stop offset="0" stop-color="#ffffff"/>
<stop offset="1" stop-color="#ffffff" stop-opacity="0.2"/>
</linearGradient>
<linearGradient gradientTransform="matrix(1,0,0,-1,-2.4150126,95.9258)" gradientUnits="userSpaceOnUse" x1="34.720501" x2="60.039902" y1="56.8027" y2="41.976002">
<stop offset="0" stop-color="#ffffff"/>
<stop offset="1" stop-color="#ffffff" stop-opacity="0.2"/>
</linearGradient>
<linearGradient gradientTransform="matrix(1,0,0,-1,-2.5350845,97.20939)" gradientUnits="userSpaceOnUse" x1="34.720501" x2="60.039902" y1="56.8027" y2="41.976002">
<stop offset="0" stop-color="#ffffff"/>
<stop offset="1" stop-color="#ffffff" stop-opacity="0.2"/>
</linearGradient>
<linearGradient gradientTransform="matrix(1,0,0,-1,0.1597,95.9258)" gradientUnits="userSpaceOnUse" x1="63.148201" x2="61.403599" y1="26.3545" y2="22.778099">
<stop offset="0" stop-color="#ffffff"/>
<stop offset="1" stop-color="#a3a3a3"/>
</linearGradient>
<linearGradient gradientTransform="matrix(1,0,0,-1,0.1597,95.9258)" gradientUnits="userSpaceOnUse" x1="63.148201" x2="61.403599" y1="26.3545" y2="22.778099">
<stop offset="0" stop-color="#ffffff"/>
<stop offset="1" stop-color="#a3a3a3"/>
</linearGradient>
<linearGradient gradientTransform="matrix(1,0,0,-1,0.1597,95.9258)" gradientUnits="userSpaceOnUse" x1="62.543701" x2="64.113503" y1="40.8223" y2="37.072102">
<stop offset="0" stop-color="#ffffff"/>
<stop offset="1" stop-color="#a3a3a3"/>
</linearGradient>
<linearGradient gradientTransform="matrix(1,0,0,-1,0.1597,95.9258)" gradientUnits="userSpaceOnUse" x1="62.543701" x2="64.113503" y1="40.8223" y2="37.072102">
<stop offset="0" stop-color="#ffffff"/>
<stop offset="1" stop-color="#a3a3a3"/>
</linearGradient>
<linearGradient gradientTransform="matrix(1,0,0,-1,0.1597,95.9258)" gradientUnits="userSpaceOnUse" x1="45.003201" x2="45.003201" y1="40.209" y2="23.3596">
<stop offset="0" stop-color="#c2de91"/>
<stop offset="1" stop-color="#7b9e56"/>
</linearGradient>
<linearGradient gradientTransform="matrix(1,0,0,-1,0.1597,95.9258)" gradientUnits="userSpaceOnUse" x1="45.003201" x2="45.003201" y1="40.209" y2="23.3596">
<stop offset="0" stop-color="#c2de91"/>
<stop offset="1" stop-color="#7b9e56"/>
</linearGradient>
<linearGradient gradientTransform="matrix(1,0,0,-1,0.1597,95.9258)" gradientUnits="userSpaceOnUse" x1="45.003201" x2="45.003201" y1="40.209" y2="23.3596">
<stop offset="0" stop-color="#c2de91"/>
<stop offset="1" stop-color="#7b9e56"/>
</linearGradient>
<linearGradient gradientTransform="matrix(1,0,0,-1,0.1597,95.9258)" gradientUnits="userSpaceOnUse" x1="45.003201" x2="45.003201" y1="40.209" y2="23.3596">
<stop offset="0" stop-color="#c2de91"/>
<stop offset="1" stop-color="#7b9e56"/>
</linearGradient>
<linearGradient gradientTransform="matrix(1,0,0,-1,0.1597,95.9258)" gradientUnits="userSpaceOnUse" x1="45.003201" x2="45.003201" y1="40.209" y2="23.3596">
<stop offset="0" stop-color="#c2de91"/>
<stop offset="1" stop-color="#7b9e56"/>
</linearGradient>
<linearGradient gradientTransform="matrix(1,0,0,-1,0.1597,95.9258)" gradientUnits="userSpaceOnUse" x1="45.003201" x2="45.003201" y1="40.209" y2="23.3596">
<stop offset="0" stop-color="#c2de91"/>
<stop offset="1" stop-color="#7b9e56"/>
</linearGradient>
<linearGradient gradientTransform="matrix(1,0,0,-1,8.6194701,63.557984)" gradientUnits="userSpaceOnUse" x1="82.677498" x2="82.677498" y1="37.415001" y2="54.1577">
<stop offset="0" stop-color="#ffffff" stop-opacity="0.3"/>
<stop offset="1" stop-color="#ffffff"/>
</linearGradient>
<linearGradient gradientTransform="matrix(1,0,0,-1,-53.620329,92.86676)" gradientUnits="userSpaceOnUse" x1="82.677498" x2="82.677498" y1="37.415001" y2="54.1577">
<stop offset="0" stop-color="#ffffff" stop-opacity="0.3"/>
<stop offset="1" stop-color="#ffffff"/>
</linearGradient>
<linearGradient gradientTransform="matrix(1,0,0,-1,8.6194701,63.557984)" gradientUnits="userSpaceOnUse" x1="82.677498" x2="82.677498" y1="37.415001" y2="54.1577">
<stop offset="0" stop-color="#ffffff" stop-opacity="0.3"/>
<stop offset="1" stop-color="#ffffff"/>
</linearGradient>
<linearGradient gradientTransform="matrix(1,0,0,-1,-15.367455,78.154116)" gradientUnits="userSpaceOnUse" x1="82.677498" x2="82.677498" y1="37.415001" y2="54.1577">
<stop offset="0" stop-color="#ffffff" stop-opacity="0.3"/>
<stop offset="1" stop-color="#ffffff"/>
</linearGradient>
<linearGradient gradientTransform="matrix(1,0,0,-1,8.6194701,63.557984)" gradientUnits="userSpaceOnUse" x1="82.677498" x2="82.677498" y1="37.415001" y2="54.1577">
<stop offset="0" stop-color="#ffffff" stop-opacity="0.3"/>
<stop offset="1" stop-color="#ffffff"/>
</linearGradient>
<linearGradient gradientTransform="matrix(1,0,0,-1,-18.309984,107.94722)" gradientUnits="userSpaceOnUse" x1="82.677498" x2="82.677498" y1="37.415001" y2="54.1577">
<stop offset="0" stop-color="#ffffff" stop-opacity="0.3"/>
<stop offset="1" stop-color="#ffffff"/>
</linearGradient>
<linearGradient gradientTransform="matrix(1,0,0,1.0147106,0,-1.118872)" gradientUnits="userSpaceOnUse" x1="25.749846" x2="83.267105" y1="23.186441" y2="82.169495">
<stop offset="0" stop-color="#d5f6ff" stop-opacity="1"/>
<stop offset="1" stop-color="#0088aa" stop-opacity="1"/>
</linearGradient>
<linearGradient gradientTransform="matrix(1,0,0,-1,-111.07647,38.974359)" gradientUnits="userSpaceOnUse" x1="167.8877" x2="206.12601" y1="-45.7896" y2="-7.5511999">
<stop offset="0" stop-color="#ffffff"/>
<stop offset="1" stop-color="#e6e6e6"/>
</linearGradient>
<linearGradient gradientTransform="matrix(0.7653472,0,0,-0.76412837,-94.891385,27.599019)" gradientUnits="userSpaceOnUse" x1="167.8877" x2="206.12601" y1="-45.7896" y2="-7.5511999">
<stop offset="0" stop-color="#ffffff"/>
<stop offset="1" stop-color="#e6e6e6"/>
</linearGradient>
<linearGradient gradientTransform="matrix(0,1,-1,0,96,0)" gradientUnits="userSpaceOnUse" id="linearGradient3990" x1="8" x2="88" y1="48" y2="48">
<stop offset="0" stop-color="#f8953b" stop-opacity="1"/>
<stop offset="1" stop-color="#f87c00" stop-opacity="1"/>
</linearGradient>
<linearGradient gradientUnits="userSpaceOnUse" x1="48.604347" x2="48.604347" y1="27.84745" y2="69.941635">
<stop offset="0" stop-color="#ffffff" stop-opacity="1"/>
<stop offset="1" stop-color="#ffffff" stop-opacity="0.78431374"/>
</linearGradient>
<linearGradient gradientUnits="userSpaceOnUse" id="linearGradient3231" x1="48.604347" x2="48.604347" y1="27.84745" y2="69.941635">
<stop offset="0" stop-color="#ffffff" stop-opacity="1"/>
<stop offset="1" stop-color="#ffffff" stop-opacity="0.78431374"/>
</linearGradient>
</defs>
<path d="M 88.0 49.0 C 88.0 78.633 77.637 89.0 48.0 89.0 C 18.365 89.0 8.0 78.633 8.0 49.0 C 8.0 19.365 18.365 9.0 48.0 9.0 C 77.637 9.0 88.0 19.365 88.0 49.0 z " fill-opacity="0.4"/>
<linearGradient gradientUnits="userSpaceOnUse" x1="47.9995" x2="47.9995" y1="8" y2="88.0005">
<stop offset="0" stop-color="#00aad4" stop-opacity="1"/>
<stop offset="1" stop-color="#2ad4ff" stop-opacity="1"/>
</linearGradient>
<path d="M 48.0 88.0 C 18.367 88.0 8.0 77.637 8.0 48.0 C 8.0 18.365 18.367 8.0 48.0 8.0 C 77.635 8.0 88.0 18.365 88.0 48.0 C 88.0 77.637 77.635 88.0 48.0 88.0 z " fill="url(#linearGradient3990)" fill-opacity="1"/>
<rect fill="none" height="96" width="96"/>
<linearGradient gradientUnits="userSpaceOnUse" id="SVGID_2_" x1="47.9995" x2="47.9995" y1="8.2534" y2="87.4985">
<stop offset="0" stop-color="#ffffff"/>
<stop offset="1" stop-color="#ffffff" stop-opacity="0"/>
</linearGradient>
<path d="M 48.0 8.0 C 18.365 8.0 8.0 18.365 8.0 48.0 C 8.0 77.633 18.365 88.0 48.0 88.0 C 77.637 88.0 88.0 77.633 88.0 48.0 C 88.0 18.365 77.637 8.0 48.0 8.0 z M 48.0 87.0 C 18.842 87.0 9.0 77.158 9.0 48.0 C 9.0 18.842005 18.842 9.0 48.0 9.0 C 77.158005 9.0 87.0 18.842 87.0 48.0 C 87.0 77.158005 77.158 87.0 48.0 87.0 z " fill="url(#SVGID_2_)" fill-opacity="0.25" stroke-opacity="0.25"/>
<linearGradient gradientTransform="matrix(0.7071 -0.7071 0.7071 0.7071 -208.9813 3059.7412)" gradientUnits="userSpaceOnUse" x1="2309.3584" x2="2344.3584" y1="-1947.9287" y2="-1947.9287">
<stop offset="0" stop-color="#58595b"/>
<stop offset="1" stop-color="#000000"/>
</linearGradient>
<linearGradient gradientTransform="matrix(0.7071 -0.7071 0.7071 0.7071 -208.9813 3059.7412)" gradientUnits="userSpaceOnUse" x1="2309.3584" x2="2313.3604" y1="-1957.9277" y2="-1957.9277">
<stop offset="0" stop-color="#58595b"/>
<stop offset="1" stop-color="#000000"/>
</linearGradient>
<linearGradient gradientUnits="userSpaceOnUse" x1="54.292" x2="59.292" y1="10.3501" y2="38.934">
<stop offset="0" stop-color="#58595b"/>
<stop offset="1" stop-color="#000000"/>
</linearGradient>
<linearGradient gradientUnits="userSpaceOnUse" x1="32.5508" x2="42.1758" y1="12.6343" y2="45.1342">
<stop offset="0" stop-color="#58595b"/>
<stop offset="1" stop-color="#000000"/>
</linearGradient>
<linearGradient gradientUnits="userSpaceOnUse" x1="57.1484" x2="60.063" y1="35.2275" y2="38.1421">
<stop offset="0" stop-color="#ffffff"/>
<stop offset="0.7362" stop-color="#ffffff" stop-opacity="0"/>
<stop offset="1" stop-color="#ffffff" stop-opacity="0"/>
</linearGradient>
<linearGradient gradientUnits="userSpaceOnUse" x1="44.6177" x2="38.0733" y1="37.2412" y2="43.7856">
<stop offset="0" stop-color="#ffffff"/>
<stop offset="0.7362" stop-color="#ffffff" stop-opacity="0"/>
<stop offset="1" stop-color="#ffffff" stop-opacity="0"/>
</linearGradient>
<linearGradient gradientUnits="userSpaceOnUse" x1="47.9995" x2="47.9995" y1="45.5" y2="53.8766">
<stop offset="0" stop-color="#ffffff"/>
<stop offset="1" stop-color="#6d6e70"/>
</linearGradient>
<path d="M 48.90625 27.4375 C 46.60143 27.4375 44.58001 28.029568 42.9375 29.21875 C 41.184498 30.485949 39.82639 32.953884 38.625 36.625 C 37.42042 40.310726 36.49095 45.31345 35.8125 51.65625 C 35.13755 57.977257 34.8125 62.24568 34.8125 64.53125 C 34.8125 65.449165 35.254555 66.47917 36.03125 67.96875 C 36.853325 69.53794 37.978256 70.5625 39.375 70.5625 C 39.942825 70.5625 40.457493 70.35779 40.875 70.03125 C 41.28367 69.71163 41.625 69.18872 41.625 68.65625 C 41.625 68.37151 41.55746 68.13419 41.4375 67.84375 C 40.87521 66.60838 40.5625 64.86235 40.5625 62.59375 C 40.5625 61.033333 40.852467 57.471245 41.4375 52.0 C 42.019665 46.54469 42.731136 42.273556 43.5625 39.21875 C 44.39892 36.135674 45.26123 34.07004 45.96875 33.21875 C 46.739098 32.295357 47.493233 31.9375 48.40625 31.9375 C 49.341377 31.9375 49.89069 32.193653 50.3125 32.78125 C 50.73431 33.368847 51.0 34.395073 51.0 35.875 C 51.0 39.775177 48.9408 42.501408 44.46875 44.40625 C 44.425293 44.42329 44.383457 44.44421 44.34375 44.46875 C 44.20897 44.559643 44.111645 44.630295 44.0 44.6875 C 43.98812 44.6936 43.98116 44.71271 43.96875 44.71875 C 43.564407 44.90898 43.212788 45.098763 42.9375 45.34375 C 42.652393 45.597477 42.375 45.965508 42.375 46.4375 C 42.38004 46.490517 42.39051 46.542873 42.40625 46.59375 C 42.51691 47.174717 42.85723 47.693382 43.34375 48.0625 C 43.768806 48.38571 44.20773 48.65625 44.78125 48.65625 C 45.181618 48.65625 45.491276 48.5327 45.9375 48.375 C 46.383724 48.2173 46.924088 48.00846 47.59375 47.71875 C 48.30452 47.407043 49.185265 47.25 50.21875 47.25 C 51.987377 47.25 53.336987 47.560757 54.28125 48.15625 C 55.231167 48.75468 55.59375 49.411068 55.59375 50.34375 C 55.59375 52.04699 54.684788 53.63259 52.625 55.21875 C 50.588432 56.786182 48.12132 57.59375 45.09375 57.59375 C 44.09884 57.59375 43.311245 57.70548 42.65625 58.03125 C 42.001255 58.357018 41.5 59.04851 41.5 59.78125 C 41.5 60.56879 41.964085 61.336872 42.65625 61.71875 C 43.348415 62.100628 44.211098 62.21875 45.28125 62.21875 C 48.87855 62.21875 52.412018 60.96771 55.84375 58.59375 C 59.296215 56.20507 61.1875 53.41911 61.1875 50.28125 C 61.1875 48.812313 60.795567 47.488907 59.90625 46.5 C 59.895836 46.49979 59.885414 46.49979 59.875 46.5 C 59.06269 45.59801 58.180546 44.96026 57.21875 44.5625 C 56.324345 44.192825 55.26392 43.882015 54.0625 43.625 C 53.794403 43.56803 53.67304 43.514927 53.46875 43.46875 C 55.531803 40.974285 56.65625 38.357677 56.65625 35.6875 C 56.65625 33.383476 55.916164 31.372246 54.46875 29.8125 C 53.01991 28.251312 51.11367 27.4375 48.90625 27.4375 z " fill="url(#linearGradient3231)" fill-opacity="1" stroke="none"/>
</svg>
