<?xml version="1.0" encoding="UTF-8"?>
<svg xmlns="http://www.w3.org/2000/svg" xmlns:xlink="http://www.w3.org/1999/xlink" baseProfile="tiny" contentScriptType="text/ecmascript" contentStyleType="text/css" height="96px" preserveAspectRatio="xMidYMid meet" version="1.1" viewBox="0 0 96 96" width="96px" x="0px" y="0px" zoomAndPan="magnify">
<defs>
<linearGradient id="linearGradient4050">
<stop offset="0" stop-color="#39d273" stop-opacity="1"/>
<stop offset="1" stop-color="#23c05e" stop-opacity="1"/>
</linearGradient>
<linearGradient gradientTransform="matrix(1.0515857,0,0,1.01708,-253.45339,-715.60427)" gradientUnits="userSpaceOnUse" x1="254.83009" x2="358.8096" y1="763.97272" y2="763.97272">
<stop offset="0" stop-color="#f7f8f9"/>
<stop offset="1" stop-color="#d0d1d2"/>
</linearGradient>
<linearGradient gradientTransform="matrix(0.7261569,0,0,0.74770351,-174.61605,-527.27145)" gradientUnits="userSpaceOnUse" x1="254.83009" x2="358.8096" y1="763.97272" y2="763.97272">
<stop offset="0" stop-color="#f7f8f9"/>
<stop offset="1" stop-color="#d0d1d2"/>
</linearGradient>
<linearGradient gradientTransform="matrix(1,0,0,-1,-1.3115644,98.868328)" gradientUnits="userSpaceOnUse" x1="61.075901" x2="34.694302" y1="57.299801" y2="41.540901">
<stop offset="0" stop-color="#ffffff"/>
<stop offset="1" stop-color="#ffffff" stop-opacity="0.2"/>
</linearGradient>
<linearGradient gradientTransform="matrix(1,0,0,-1,1.0534719,96.841079)" gradientUnits="userSpaceOnUse" x1="61.075901" x2="34.694302" y1="57.299801" y2="41.540901">
<stop offset="0" stop-color="#ffffff"/>
<stop offset="1" stop-color="#ffffff" stop-opacity="0.2"/>
</linearGradient>
<linearGradient gradientTransform="matrix(1,0,0,-1,-2.4150126,95.9258)" gradientUnits="userSpaceOnUse" x1="34.720501" x2="60.039902" y1="56.8027" y2="41.976002">
<stop offset="0" stop-color="#ffffff"/>
<stop offset="1" stop-color="#ffffff" stop-opacity="0.2"/>
</linearGradient>
<linearGradient gradientTransform="matrix(1,0,0,-1,-2.5350845,97.20939)" gradientUnits="userSpaceOnUse" x1="34.720501" x2="60.039902" y1="56.8027" y2="41.976002">
<stop offset="0" stop-color="#ffffff"/>
<stop offset="1" stop-color="#ffffff" stop-opacity="0.2"/>
</linearGradient>
<linearGradient gradientTransform="matrix(1,0,0,-1,0.1597,95.9258)" gradientUnits="userSpaceOnUse" x1="63.148201" x2="61.403599" y1="26.3545" y2="22.778099">
<stop offset="0" stop-color="#ffffff"/>
<stop offset="1" stop-color="#a3a3a3"/>
</linearGradient>
<linearGradient gradientTransform="matrix(1,0,0,-1,0.1597,95.9258)" gradientUnits="userSpaceOnUse" x1="63.148201" x2="61.403599" y1="26.3545" y2="22.778099">
<stop offset="0" stop-color="#ffffff"/>
<stop offset="1" stop-color="#a3a3a3"/>
</linearGradient>
<linearGradient gradientTransform="matrix(1,0,0,-1,0.1597,95.9258)" gradientUnits="userSpaceOnUse" x1="62.543701" x2="64.113503" y1="40.8223" y2="37.072102">
<stop offset="0" stop-color="#ffffff"/>
<stop offset="1" stop-color="#a3a3a3"/>
</linearGradient>
<linearGradient gradientTransform="matrix(1,0,0,-1,0.1597,95.9258)" gradientUnits="userSpaceOnUse" x1="62.543701" x2="64.113503" y1="40.8223" y2="37.072102">
<stop offset="0" stop-color="#ffffff"/>
<stop offset="1" stop-color="#a3a3a3"/>
</linearGradient>
<linearGradient gradientTransform="matrix(1,0,0,-1,0.1597,95.9258)" gradientUnits="userSpaceOnUse" x1="45.003201" x2="45.003201" y1="40.209" y2="23.3596">
<stop offset="0" stop-color="#c2de91"/>
<stop offset="1" stop-color="#7b9e56"/>
</linearGradient>
<linearGradient gradientTransform="matrix(1,0,0,-1,0.1597,95.9258)" gradientUnits="userSpaceOnUse" x1="45.003201" x2="45.003201" y1="40.209" y2="23.3596">
<stop offset="0" stop-color="#c2de91"/>
<stop offset="1" stop-color="#7b9e56"/>
</linearGradient>
<linearGradient gradientTransform="matrix(1,0,0,-1,0.1597,95.9258)" gradientUnits="userSpaceOnUse" x1="45.003201" x2="45.003201" y1="40.209" y2="23.3596">
<stop offset="0" stop-color="#c2de91"/>
<stop offset="1" stop-color="#7b9e56"/>
</linearGradient>
<linearGradient gradientTransform="matrix(1,0,0,-1,0.1597,95.9258)" gradientUnits="userSpaceOnUse" x1="45.003201" x2="45.003201" y1="40.209" y2="23.3596">
<stop offset="0" stop-color="#c2de91"/>
<stop offset="1" stop-color="#7b9e56"/>
</linearGradient>
<linearGradient gradientTransform="matrix(1,0,0,-1,0.1597,95.9258)" gradientUnits="userSpaceOnUse" x1="45.003201" x2="45.003201" y1="40.209" y2="23.3596">
<stop offset="0" stop-color="#c2de91"/>
<stop offset="1" stop-color="#7b9e56"/>
</linearGradient>
<linearGradient gradientTransform="matrix(1,0,0,-1,0.1597,95.9258)" gradientUnits="userSpaceOnUse" x1="45.003201" x2="45.003201" y1="40.209" y2="23.3596">
<stop offset="0" stop-color="#c2de91"/>
<stop offset="1" stop-color="#7b9e56"/>
</linearGradient>
<linearGradient gradientTransform="matrix(1,0,0,-1,8.6194701,63.557984)" gradientUnits="userSpaceOnUse" x1="82.677498" x2="82.677498" y1="37.415001" y2="54.1577">
<stop offset="0" stop-color="#ffffff" stop-opacity="0.3"/>
<stop offset="1" stop-color="#ffffff"/>
</linearGradient>
<linearGradient gradientTransform="matrix(1,0,0,-1,-53.620329,92.86676)" gradientUnits="userSpaceOnUse" x1="82.677498" x2="82.677498" y1="37.415001" y2="54.1577">
<stop offset="0" stop-color="#ffffff" stop-opacity="0.3"/>
<stop offset="1" stop-color="#ffffff"/>
</linearGradient>
<linearGradient gradientTransform="matrix(1,0,0,-1,8.6194701,63.557984)" gradientUnits="userSpaceOnUse" x1="82.677498" x2="82.677498" y1="37.415001" y2="54.1577">
<stop offset="0" stop-color="#ffffff" stop-opacity="0.3"/>
<stop offset="1" stop-color="#ffffff"/>
</linearGradient>
<linearGradient gradientTransform="matrix(1,0,0,-1,-15.367455,78.154116)" gradientUnits="userSpaceOnUse" x1="82.677498" x2="82.677498" y1="37.415001" y2="54.1577">
<stop offset="0" stop-color="#ffffff" stop-opacity="0.3"/>
<stop offset="1" stop-color="#ffffff"/>
</linearGradient>
<linearGradient gradientTransform="matrix(1,0,0,-1,8.6194701,63.557984)" gradientUnits="userSpaceOnUse" x1="82.677498" x2="82.677498" y1="37.415001" y2="54.1577">
<stop offset="0" stop-color="#ffffff" stop-opacity="0.3"/>
<stop offset="1" stop-color="#ffffff"/>
</linearGradient>
<linearGradient gradientTransform="matrix(1,0,0,-1,-18.309984,107.94722)" gradientUnits="userSpaceOnUse" x1="82.677498" x2="82.677498" y1="37.415001" y2="54.1577">
<stop offset="0" stop-color="#ffffff" stop-opacity="0.3"/>
<stop offset="1" stop-color="#ffffff"/>
</linearGradient>
<radialGradient cx="18.0361" cy="981.65228" gradientTransform="matrix(1.3036448,0,0,1.0058767,47.559331,-915.96425)" gradientUnits="userSpaceOnUse" r="58.018902" xlink:actuate="onLoad" xlink:show="other" xlink:type="simple">
<stop offset="0" stop-color="#ffffff"/>
<stop offset="1" stop-color="#ffffff" stop-opacity="0"/>
</radialGradient>
<radialGradient cx="18.0361" cy="981.65228" gradientTransform="matrix(0.94991365,0,0,0.73385427,33.51469,-690.38557)" gradientUnits="userSpaceOnUse" r="58.018902" xlink:actuate="onLoad" xlink:show="other" xlink:type="simple">
<stop offset="0" stop-color="#ffffff"/>
<stop offset="1" stop-color="#ffffff" stop-opacity="0"/>
</radialGradient>
<radialGradient cx="-65.707001" cy="636.30078" gradientTransform="matrix(1.2679,0,0,1.2801,129.43987,-755.52527)" gradientUnits="userSpaceOnUse" r="3.125" xlink:actuate="onLoad" xlink:show="other" xlink:type="simple">
<stop offset="0" stop-color="#ffffff"/>
<stop offset="0.3065" stop-color="#ffffff"/>
<stop offset="0.519" stop-color="#ffffff" stop-opacity="0.6406"/>
<stop offset="1" stop-color="#ffffff" stop-opacity="0"/>
</radialGradient>
<radialGradient cx="-65.707001" cy="636.30078" gradientTransform="matrix(1.2679,0,0,1.2801,113.41129,-777.10537)" gradientUnits="userSpaceOnUse" r="3.125" xlink:actuate="onLoad" xlink:show="other" xlink:type="simple">
<stop offset="0" stop-color="#ffffff"/>
<stop offset="0.3065" stop-color="#ffffff"/>
<stop offset="0.519" stop-color="#ffffff" stop-opacity="0.6406"/>
<stop offset="1" stop-color="#ffffff" stop-opacity="0"/>
</radialGradient>
<radialGradient cx="-120.5498" cy="554.99408" gradientTransform="matrix(1.4792,0,0,1.4934,277.01302,-773.04316)" gradientUnits="userSpaceOnUse" r="3.1252" xlink:actuate="onLoad" xlink:show="other" xlink:type="simple">
<stop offset="0" stop-color="#ffffff"/>
<stop offset="0.3065" stop-color="#ffffff"/>
<stop offset="0.519" stop-color="#ffffff" stop-opacity="0.6406"/>
<stop offset="1" stop-color="#ffffff" stop-opacity="0"/>
</radialGradient>
<radialGradient cx="-120.5498" cy="554.99408" gradientTransform="matrix(1.4792,0,0,1.4934,245.84112,-794.25233)" gradientUnits="userSpaceOnUse" r="3.1252" xlink:actuate="onLoad" xlink:show="other" xlink:type="simple">
<stop offset="0" stop-color="#ffffff"/>
<stop offset="0.3065" stop-color="#ffffff"/>
<stop offset="0.519" stop-color="#ffffff" stop-opacity="0.6406"/>
<stop offset="1" stop-color="#ffffff" stop-opacity="0"/>
</radialGradient>
<radialGradient cx="35.338902" cy="786.08978" gradientTransform="matrix(1.0037,0,0,1.0134,25.679928,-709.72734)" gradientUnits="userSpaceOnUse" r="3.1252" xlink:actuate="onLoad" xlink:show="other" xlink:type="simple">
<stop offset="0" stop-color="#ffffff"/>
<stop offset="0.3065" stop-color="#ffffff"/>
<stop offset="0.519" stop-color="#ffffff" stop-opacity="0.6406"/>
<stop offset="1" stop-color="#ffffff" stop-opacity="0"/>
</radialGradient>
<radialGradient cx="35.338902" cy="786.08978" gradientTransform="matrix(1.0037,0,0,1.0134,3.1745708,-728.69169)" gradientUnits="userSpaceOnUse" r="3.1252" xlink:actuate="onLoad" xlink:show="other" xlink:type="simple">
<stop offset="0" stop-color="#ffffff"/>
<stop offset="0.3065" stop-color="#ffffff"/>
<stop offset="0.519" stop-color="#ffffff" stop-opacity="0.6406"/>
<stop offset="1" stop-color="#ffffff" stop-opacity="0"/>
</radialGradient>
<radialGradient cx="60.2813" cy="823.07422" gradientTransform="matrix(0.9546,0,0,0.9638,29.351549,-712.81863)" gradientUnits="userSpaceOnUse" r="3.1245" xlink:actuate="onLoad" xlink:show="other" xlink:type="simple">
<stop offset="0" stop-color="#ffffff"/>
<stop offset="0.3065" stop-color="#ffffff"/>
<stop offset="0.519" stop-color="#ffffff" stop-opacity="0.6406"/>
<stop offset="1" stop-color="#ffffff" stop-opacity="0"/>
</radialGradient>
<radialGradient cx="60.2813" cy="823.07422" gradientTransform="matrix(0.9546,0,0,0.9638,3.4719431,-742.02417)" gradientUnits="userSpaceOnUse" r="3.1245" xlink:actuate="onLoad" xlink:show="other" xlink:type="simple">
<stop offset="0" stop-color="#ffffff"/>
<stop offset="0.3065" stop-color="#ffffff"/>
<stop offset="0.519" stop-color="#ffffff" stop-opacity="0.6406"/>
<stop offset="1" stop-color="#ffffff" stop-opacity="0"/>
</radialGradient>
<linearGradient gradientTransform="matrix(0,1,-1,0,96,0)" gradientUnits="userSpaceOnUse" id="linearGradient4056" x1="8" x2="88" y1="48" y2="48">
<stop offset="0" stop-color="#39d273" stop-opacity="1"/>
<stop offset="1" stop-color="#23c05e" stop-opacity="1"/>
</linearGradient>
</defs>
<path d="M 88.0 49.0 C 88.0 78.633 77.637 89.0 48.0 89.0 C 18.365 89.0 8.0 78.633 8.0 49.0 C 8.0 19.365 18.365 9.0 48.0 9.0 C 77.637 9.0 88.0 19.365 88.0 49.0 z " fill-opacity="0.4"/>
<linearGradient gradientUnits="userSpaceOnUse" x1="47.9995" x2="47.9995" y1="8" y2="88.0005">
<stop offset="0" stop-color="#5fbcd3" stop-opacity="1"/>
<stop offset="1" stop-color="#216778" stop-opacity="1"/>
</linearGradient>
<path d="M 48.0 88.0 C 18.367 88.0 8.0 77.637 8.0 48.0 C 8.0 18.365 18.367 8.0 48.0 8.0 C 77.635 8.0 88.0 18.365 88.0 48.0 C 88.0 77.637 77.635 88.0 48.0 88.0 z " fill="url(#linearGradient4056)" fill-opacity="1"/>
<rect fill="none" height="96" width="96"/>
<linearGradient gradientUnits="userSpaceOnUse" id="SVGID_2_" x1="47.9995" x2="47.9995" y1="8.2534" y2="87.4985">
<stop offset="0" stop-color="#ffffff"/>
<stop offset="1" stop-color="#ffffff" stop-opacity="0"/>
</linearGradient>
<path d="M 48.0 8.0 C 18.365 8.0 8.0 18.365 8.0 48.0 C 8.0 77.633 18.365 88.0 48.0 88.0 C 77.637 88.0 88.0 77.633 88.0 48.0 C 88.0 18.365 77.637 8.0 48.0 8.0 z M 48.0 87.0 C 18.842 87.0 9.0 77.158 9.0 48.0 C 9.0 18.842005 18.842 9.0 48.0 9.0 C 77.158005 9.0 87.0 18.842 87.0 48.0 C 87.0 77.158005 77.158 87.0 48.0 87.0 z " fill="url(#SVGID_2_)" fill-opacity="0.25" stroke-opacity="0.25"/>
<linearGradient gradientTransform="matrix(0.7071 -0.7071 0.7071 0.7071 -208.9813 3059.7412)" gradientUnits="userSpaceOnUse" x1="2309.3584" x2="2344.3584" y1="-1947.9287" y2="-1947.9287">
<stop offset="0" stop-color="#58595b"/>
<stop offset="1" stop-color="#000000"/>
</linearGradient>
<linearGradient gradientTransform="matrix(0.7071 -0.7071 0.7071 0.7071 -208.9813 3059.7412)" gradientUnits="userSpaceOnUse" x1="2309.3584" x2="2313.3604" y1="-1957.9277" y2="-1957.9277">
<stop offset="0" stop-color="#58595b"/>
<stop offset="1" stop-color="#000000"/>
</linearGradient>
<linearGradient gradientUnits="userSpaceOnUse" x1="54.292" x2="59.292" y1="10.3501" y2="38.934">
<stop offset="0" stop-color="#58595b"/>
<stop offset="1" stop-color="#000000"/>
</linearGradient>
<linearGradient gradientUnits="userSpaceOnUse" x1="32.5508" x2="42.1758" y1="12.6343" y2="45.1342">
<stop offset="0" stop-color="#58595b"/>
<stop offset="1" stop-color="#000000"/>
</linearGradient>
<linearGradient gradientUnits="userSpaceOnUse" x1="57.1484" x2="60.063" y1="35.2275" y2="38.1421">
<stop offset="0" stop-color="#ffffff"/>
<stop offset="0.7362" stop-color="#ffffff" stop-opacity="0"/>
<stop offset="1" stop-color="#ffffff" stop-opacity="0"/>
</linearGradient>
<linearGradient gradientUnits="userSpaceOnUse" x1="44.6177" x2="38.0733" y1="37.2412" y2="43.7856">
<stop offset="0" stop-color="#ffffff"/>
<stop offset="0.7362" stop-color="#ffffff" stop-opacity="0"/>
<stop offset="1" stop-color="#ffffff" stop-opacity="0"/>
</linearGradient>
<linearGradient gradientUnits="userSpaceOnUse" x1="47.9995" x2="47.9995" y1="45.5" y2="53.8766">
<stop offset="0" stop-color="#ffffff"/>
<stop offset="1" stop-color="#6d6e70"/>
</linearGradient>
<path d="M 52.3125 28.28125 C 52.172333 28.312874 52.062874 28.422333 52.03125 28.5625 L 49.71875 37.03125 C 48.10441 37.42598 46.624195 38.18088 45.375 39.1875 L 44.15625 38.53125 L 42.15625 37.4375 C 42.01168 37.335617 41.815384 37.3495 41.686592 37.470715 C 41.5578 37.59193 41.532055 37.787025 41.625 37.9375 L 42.6875 39.96875 C 42.69791 39.96919 42.70834 39.96919 42.71875 39.96875 L 43.4375 41.25 C 42.538155 42.44997 41.834526 43.812572 41.46875 45.3125 L 32.96875 47.625 C 32.82992 47.68277 32.739468 47.81838 32.739468 47.96875 C 32.739468 48.11912 32.82992 48.25473 32.96875 48.3125 L 41.46875 50.625 C 41.851807 52.191475 42.60757 53.61314 43.5625 54.84375 L 42.8125 55.9375 L 41.5625 57.84375 C 41.447826 57.98184 41.447998 58.182083 41.562904 58.319973 C 41.677814 58.457867 41.87475 58.494144 42.03125 58.40625 L 44.125 57.5 L 45.625 56.84375 C 46.826775 57.754307 48.17425 58.47196 49.6875 58.84375 L 52.03125 67.375 C 52.08902 67.51383 52.22463 67.60428 52.375 67.60428 C 52.52537 67.60428 52.66098 67.51383 52.71875 67.375 L 55.03125 58.84375 C 56.766926 58.421913 58.31339 57.592186 59.625 56.46875 L 60.90625 57.0 L 63.0 57.90625 C 63.1565 57.994144 63.353436 57.957867 63.468346 57.819973 C 63.583252 57.682083 63.583424 57.48184 63.46875 57.34375 L 62.21875 55.46875 L 62.21875 55.4375 L 61.53125 54.375 C 62.316875 53.25363 62.910484 52.005768 63.25 50.625 L 71.78125 48.28125 C 71.92008 48.22348 72.01053 48.08787 72.01053 47.9375 C 72.01053 47.78713 71.92008 47.65152 71.78125 47.59375 L 63.25 45.28125 C 62.857166 43.672413 62.092037 42.21604 61.09375 40.96875 L 61.71875 40.0625 L 62.96875 38.15625 C 63.083424 38.01816 63.083252 37.817917 62.968346 37.680027 C 62.853436 37.542133 62.6565 37.505856 62.5 37.59375 L 60.40625 38.5 L 59.125 39.0625 C 57.922012 38.144886 56.553562 37.431286 55.03125 37.0625 L 52.71875 28.5625 C 52.67401 28.379456 52.499577 28.258692 52.3125 28.28125 z M 52.34375 41.09375 C 56.142574 41.09375 59.21875 44.140686 59.21875 47.9375 C 59.21875 51.737175 56.140804 54.8125 52.34375 54.8125 C 48.552532 54.8125 45.5 51.73877 45.5 47.9375 C 45.5 44.138763 48.54494 41.09375 52.34375 41.09375 z " fill="#ffffff" fill-opacity="0.90957445" stroke="none" transform="matrix(1.1241263,0,0,1.1241263,-10.876117,-5.8922204)"/>
</svg>
