<?xml version="1.0" encoding="UTF-8"?>
<svg xmlns="http://www.w3.org/2000/svg" xmlns:xlink="http://www.w3.org/1999/xlink" baseProfile="tiny" contentScriptType="text/ecmascript" contentStyleType="text/css" height="96px" preserveAspectRatio="xMidYMid meet" version="1.1" viewBox="0 0 96 96" width="96px" x="0px" y="0px" zoomAndPan="magnify">
<defs>
<linearGradient id="linearGradient3815">
<stop offset="0" stop-color="#0468c5" stop-opacity="1"/>
<stop offset="1" stop-color="#0461c5" stop-opacity="1"/>
</linearGradient>
<linearGradient gradientTransform="matrix(0,1,-1,0,94.5,0.5)" gradientUnits="userSpaceOnUse" id="linearGradient3821" x1="7" x2="87" y1="47.5" y2="47.5">
<stop offset="0" stop-color="#0468c5" stop-opacity="1"/>
<stop offset="1" stop-color="#0461c5" stop-opacity="1"/>
</linearGradient>
</defs>
<linearGradient gradientTransform="matrix(1 0 0 -1 123.4448 270.2754)" gradientUnits="userSpaceOnUse" x1="-76.4448" x2="-76.4448" y1="262.7754" y2="182.7754">
<stop offset="0" stop-color="#2b73b4"/>
<stop offset="1" stop-color="#184291"/>
</linearGradient>
<path d="M 47.0 87.5 C 17.367 87.5 7.0 77.138 7.0 47.5 C 7.0 17.865 17.367 7.5 47.0 7.5 C 76.635 7.5 87.0 17.865 87.0 47.5 C 87.0 77.138 76.635 87.5 47.0 87.5 z " fill="url(#linearGradient3821)" fill-opacity="1"/>
<linearGradient gradientTransform="matrix(1 0 0 -1 123.4448 270.2754)" gradientUnits="userSpaceOnUse" id="SVGID_2_" x1="-76.4448" x2="-76.4448" y1="262.5225" y2="183.2773">
<stop offset="0" stop-color="#ffffff"/>
<stop offset="1" stop-color="#ffffff" stop-opacity="0"/>
</linearGradient>
<path d="M 47.0 7.5 C 17.365 7.5 7.0 17.865 7.0 47.5 C 7.0 77.133 17.365 87.5 47.0 87.5 C 76.638 87.5 87.0 77.133 87.0 47.5 C 87.0 17.865 76.638 7.5 47.0 7.5 z M 47.0 86.5 C 17.842 86.5 8.0 76.658 8.0 47.5 C 8.0 18.342005 17.842 8.5 47.0 8.5 C 76.158005 8.5 86.0 18.342 86.0 47.5 C 86.0 76.658005 76.158 86.5 47.0 86.5 z " fill="url(#SVGID_2_)" fill-opacity="0.25"/>
<rect fill="none" height="80" width="80" x="7" y="7.5"/>
<path d="M 61.0 74.5 C 55.847 74.5 51.313 70.785 50.239 65.770996 L 35.411 59.075996 C 33.771 59.996 31.869 60.5 30.0 60.5 C 23.935 60.5 19.0 55.564 19.0 49.5 C 19.0 43.435 23.935 38.5 30.0 38.5 C 31.869 38.5 33.771 39.003 35.411 39.924 L 50.239 33.228 C 51.313 28.215 55.847 24.5 61.0 24.5 C 67.065 24.5 72.0 29.435 72.0 35.5 C 72.0 41.565 67.065 46.5 61.0 46.5 C 59.13 46.5 57.229 45.997 55.589 45.076 L 45.793 49.5 L 55.588997 53.924 C 57.229 53.003 59.13 52.5 61.0 52.5 C 67.065 52.5 72.0 57.434 72.0 63.5 C 72.0 69.564 67.065 74.5 61.0 74.5 L 61.0 74.5 z " fill-opacity="0.02"/>
<path d="M 61.0 73.5 C 56.127 73.5 51.897 69.844 51.125 65.074 L 35.349 57.948997 C 33.759 58.953 31.881 59.5 30.0 59.5 C 24.486 59.5 20.0 55.014 20.0 49.5 C 20.0 43.986 24.486 39.5 30.0 39.5 C 31.881 39.5 33.759 40.047 35.349 41.05 L 51.125 33.925 C 51.897 29.155 56.127 25.5 61.0 25.5 C 66.515 25.5 71.0 29.986 71.0 35.5 C 71.0 41.014 66.515 45.5 61.0 45.5 C 59.118 45.5 57.241 44.953 55.652 43.95 L 43.362 49.5 L 55.652 55.049 C 57.241 54.047 59.118 53.5 61.0 53.5 C 66.515 53.5 71.0 57.986 71.0 63.5 C 71.0 69.014 66.515 73.5 61.0 73.5 L 61.0 73.5 z " fill-opacity="0.05"/>
<path d="M 61.0 72.5 C 56.391 72.5 52.5 68.918 52.044 64.393 L 35.252 56.809 C 33.73 57.902 31.89 58.5 30.0 58.5 C 25.037 58.5 21.0 54.463 21.0 49.5 C 21.0 44.537 25.037 40.5 30.0 40.5 C 31.89 40.5 33.73 41.097 35.252 42.19 L 52.044 34.607 C 52.5 30.082 56.391 26.5 61.0 26.5 C 65.963 26.5 70.0 30.537 70.0 35.5 C 70.0 40.462997 65.963 44.5 61.0 44.5 C 59.111 44.5 57.271 43.903 55.748 42.81 L 40.934 49.5 L 55.747997 56.189 C 57.271 55.096 59.111 54.5 61.0 54.5 C 65.963 54.5 70.0 58.537 70.0 63.5 C 70.0 68.463 65.963 72.5 61.0 72.5 L 61.0 72.5 z " fill-opacity="0.05"/>
<path d="M 61.0 71.5 C 56.665 71.5 53.125 68.033 53.002 63.729 L 35.115 55.65 C 33.682 56.848 31.89 57.5 30.0 57.5 C 25.589 57.5 22.0 53.91 22.0 49.5 C 22.0 45.089 25.589 41.5 30.0 41.5 C 31.89 41.5 33.682 42.152 35.115 43.35 L 53.002 35.272 C 53.125 30.966 56.665 27.5 61.0 27.5 C 65.411 27.5 69.0 31.089 69.0 35.5 C 69.0 39.911 65.411 43.5 61.0 43.5 C 59.111 43.5 57.318 42.848 55.885 41.65 L 38.502 49.5 L 55.885 57.35 C 57.32 56.153 59.113 55.5 61.0 55.5 C 65.411 55.5 69.0 59.088 69.0 63.5 C 69.0 67.91 65.411 71.5 61.0 71.5 L 61.0 71.5 z " fill-opacity="0.1"/>
<path d="M 61.0 56.5 C 59.077 56.5 57.336 57.275 56.071 58.531 L 36.979 49.908997 C 36.987 49.771 37.0 49.639 37.0 49.5 C 37.0 49.361 36.987 49.229 36.979 49.091 L 56.071 40.469 C 57.336 41.724 59.077 42.5 61.0 42.5 C 64.866 42.5 68.0 39.366 68.0 35.5 C 68.0 31.634 64.866 28.5 61.0 28.5 C 57.133 28.5 54.0 31.634 54.0 35.5 C 54.0 35.638 54.014 35.772 54.021 35.909 L 34.93 44.531 C 33.664 43.276 31.923 42.5 30.0 42.5 C 26.133 42.5 23.0 45.634 23.0 49.5 C 23.0 53.366 26.133 56.5 30.0 56.5 C 31.923 56.5 33.664 55.723 34.93 54.469 L 54.022 63.090004 C 54.014 63.227 54.0 63.361 54.0 63.5 C 54.0 67.365 57.133 70.5 61.0 70.5 C 64.866 70.5 68.0 67.365 68.0 63.5 C 68.0 59.633 64.866 56.5 61.0 56.5 z " fill-opacity="0.1"/>
<linearGradient gradientTransform="matrix(1 0 0 -1 123.4448 270.2754)" gradientUnits="userSpaceOnUse" x1="-77.9448" x2="-77.9448" y1="243.7754" y2="201.7754">
<stop offset="0" stop-color="#f9faee"/>
<stop offset="0.3232" stop-color="#f9faee"/>
<stop offset="1" stop-color="#cfcac4"/>
</linearGradient>
<path d="M 61.0 54.5 C 59.077 54.5 57.336 55.275 56.071 56.531 L 36.979 47.908997 C 36.987 47.772 37.0 47.638 37.0 47.5 C 37.0 47.362 36.987 47.228 36.979 47.091 L 56.071 38.469 C 57.336 39.724 59.077 40.5 61.0 40.5 C 64.866 40.5 68.0 37.366 68.0 33.5 C 68.0 29.634 64.866 26.5 61.0 26.5 C 57.133 26.5 54.0 29.634 54.0 33.5 C 54.0 33.638 54.014 33.772 54.021 33.909 L 34.93 42.531 C 33.664 41.276 31.923 40.5 30.0 40.5 C 26.133 40.5 23.0 43.634 23.0 47.5 C 23.0 51.366 26.133 54.5 30.0 54.5 C 31.923 54.5 33.664 53.723 34.93 52.469 L 54.022 61.090004 C 54.014 61.227 54.0 61.361 54.0 61.5 C 54.0 65.365 57.133 68.5 61.0 68.5 C 64.866 68.5 68.0 65.365 68.0 61.5 C 68.0 57.633 64.866 54.5 61.0 54.5 z " fill="#ffffff" fill-opacity="1"/>
<rect fill="none" height="36.691" width="36.692" x="52.286" y="51.809"/>
<linearGradient gradientTransform="matrix(1 0 0 -1 123.4448 270.2754)" gradientUnits="userSpaceOnUse" x1="-52.7905" x2="-52.7905" y1="216.5" y2="191.2771">
<stop offset="0" stop-color="#00a8cc"/>
<stop offset="1" stop-color="#005896"/>
</linearGradient>
<path d="M 89.0 70.154 C 89.0 83.744 84.247 88.5 70.655 88.5 C 57.060997 88.5 52.308 83.744 52.308 70.154 C 52.308 56.562 57.060997 51.808 70.655 51.808 C 84.247 51.809 89.0 56.563 89.0 70.154 z " fill="#0096e7" fill-opacity="1"/>
<linearGradient gradientTransform="matrix(1 0 0 -1 123.4448 270.2754)" gradientUnits="userSpaceOnUse" id="SVGID_5_" x1="-52.812" x2="-52.812" y1="218.3506" y2="182.0056">
<stop offset="0" stop-color="#ffffff"/>
<stop offset="1" stop-color="#ffffff" stop-opacity="0"/>
</linearGradient>
<path d="M 70.632 51.809 C 57.040005 51.809 52.286003 56.563 52.286003 70.155 C 52.286003 83.746 57.040005 88.502 70.632 88.502 C 84.227005 88.502 88.98 83.746 88.98 70.155 C 88.979 56.563 84.227 51.809 70.632 51.809 z M 70.632 88.041 C 57.259003 88.041 52.745003 83.527 52.745003 70.154 C 52.745003 56.781 57.259003 52.265 70.632 52.265 C 84.005005 52.265 88.521 56.781 88.521 70.154 C 88.521 83.527 84.005 88.041 70.632 88.041 z " fill="url(#SVGID_5_)" fill-opacity="0.25"/>
<path d="M 59.872 76.912 L 57.206 76.912 L 57.206 66.881 L 59.634003 66.881 L 59.735004 68.215 C 59.827003 68.043 59.957005 67.863 60.123005 67.67799 C 60.28801 67.492 60.491005 67.31899 60.729004 67.16 C 60.967003 66.99999 61.247005 66.870995 61.565 66.770996 C 61.882004 66.67 62.243004 66.62299 62.640003 66.62299 C 63.912003 66.62299 64.823006 66.97099 65.366005 67.66799 C 65.911 68.36299 66.18201 69.32199 66.18201 70.54299 L 66.18201 76.912 L 63.516006 76.912 L 63.516006 70.702995 C 63.516006 70.01199 63.370007 69.54099 63.078007 69.288994 C 62.786007 69.036995 62.430008 68.91 62.00301 68.91 C 61.565006 68.91 61.208008 68.99799 60.930008 69.17 C 60.652008 69.342 60.43601 69.582 60.284008 69.887 C 60.132008 70.192 60.02501 70.547005 59.966007 70.95101 C 59.905006 71.355 59.876007 71.783005 59.876007 72.234 L 59.876007 76.912 L 59.872 76.912 z " fill="#ffffff"/>
<path d="M 67.714 69.131 L 67.714 66.881 L 69.464 66.881 L 69.464 66.125 C 69.464 65.555 69.52599 65.004 69.645 64.473 C 69.764 63.944 69.968 63.475 70.260994 63.071 C 70.551994 62.668 70.94799 62.344 71.44599 62.106 C 71.94399 61.869 72.57699 61.747997 73.34599 61.747997 C 73.94399 61.747997 74.43399 61.777996 74.81899 61.837997 C 75.204 61.9 75.47499 61.946 75.634 61.986996 L 75.396 64.077995 C 75.24999 64.050995 75.064995 64.02599 74.837 64.007996 C 74.612 63.986996 74.341 63.979996 74.022995 63.979996 C 73.384 63.979996 72.91499 64.142 72.60999 64.465 C 72.30499 64.79099 72.15299 65.370995 72.15299 66.20699 L 72.15299 66.882996 L 74.799 66.882996 L 74.799 69.133 L 72.153 69.133 L 72.153 76.913994 L 69.465 76.913994 L 69.465 69.133 L 67.714 69.131 L 67.714 69.131 z " fill="#ffffff" fill-opacity="1"/>
<path d="M 78.618 71.896 C 78.618 72.93101 78.841 73.68701 79.285 74.164 C 79.729 74.643 80.37 74.881004 81.20599 74.881004 C 81.76399 74.881004 82.214 74.809006 82.55899 74.662 C 82.90499 74.517006 83.16899 74.385 83.35599 74.264 L 84.37199 76.077 C 84.25298 76.15401 84.09299 76.26 83.89299 76.385 C 83.69399 76.512 83.45199 76.635 83.16499 76.753 C 82.87899 76.872 82.551994 76.977 82.18199 77.063 C 81.81099 77.148994 81.398994 77.19199 80.94799 77.19199 C 79.28999 77.19199 78.03999 76.718994 77.19699 75.77 C 76.35399 74.821 75.93299 73.53 75.93299 71.898994 C 75.93299 71.116 76.04799 70.398994 76.28199 69.75099 C 76.51299 69.10099 76.84599 68.54199 77.27599 68.078995 C 77.70799 67.614 78.232 67.257 78.84799 67.003 C 79.46399 66.751 80.15899 66.626 80.926994 66.626 C 81.41699 66.626 81.868 66.683 82.28099 66.794 C 82.690994 66.907 83.05099 67.035995 83.35499 67.183 C 83.65899 67.33 83.90599 67.472 84.08999 67.611 C 84.275986 67.751 84.39599 67.847 84.44799 67.9 L 83.25399 69.73 C 83.18899 69.691 83.08799 69.62601 82.95599 69.531006 C 82.82199 69.439 82.663994 69.34901 82.478 69.26301 C 82.291 69.17701 82.08199 69.101006 81.851 69.03401 C 81.619 68.96701 81.375 68.93401 81.123 68.93401 C 80.367004 68.93401 79.761 69.17802 79.303 69.669014 C 78.848 70.158 78.618 70.9 78.618 71.896 z " fill="#ffffff"/>
<rect fill="none" height="96" width="96"/>
</svg>
