<?xml version="1.0" encoding="UTF-8"?>
<svg xmlns="http://www.w3.org/2000/svg" xmlns:xlink="http://www.w3.org/1999/xlink" baseProfile="tiny" contentScriptType="text/ecmascript" contentStyleType="text/css" height="96px" preserveAspectRatio="xMidYMid meet" version="1.1" viewBox="0 0 96 96" width="96px" x="0px" y="0px" zoomAndPan="magnify">
<defs>
<linearGradient gradientTransform="matrix(0,1,-1,0,96,0)" gradientUnits="userSpaceOnUse" spreadMethod="pad" x1="8" x2="88" xlink:actuate="onLoad" xlink:show="other" xlink:type="simple" y1="48" y2="48">
<stop offset="0" stop-color="#56bcff" stop-opacity="1"/>
<stop offset="1" stop-color="#30adff" stop-opacity="1"/>
</linearGradient>
<linearGradient>
<stop offset="0" stop-color="#ffffff" stop-opacity="1"/>
<stop offset="1" stop-color="#ffffff" stop-opacity="0.78431374"/>
</linearGradient>
<linearGradient>
<stop offset="0" stop-color="#ffffff" stop-opacity="1"/>
<stop offset="1" stop-color="#ffffff" stop-opacity="0.78431374"/>
</linearGradient>
<linearGradient>
<stop offset="0" stop-color="#000000" stop-opacity="1"/>
<stop offset="1" stop-color="#000000" stop-opacity="0"/>
</linearGradient>
<linearGradient xlink:actuate="onLoad" xlink:show="other" xlink:type="simple">
<stop offset="0" stop-color="#ffffff" stop-opacity="1"/>
<stop offset="1" stop-color="#ffffff" stop-opacity="0.78431374"/>
</linearGradient>
<linearGradient xlink:actuate="onLoad" xlink:show="other" xlink:type="simple">
<stop offset="0" stop-color="#1ac7ea" stop-opacity="1"/>
<stop offset="1" stop-color="#1ab7ea" stop-opacity="1"/>
</linearGradient>
<linearGradient xlink:actuate="onLoad" xlink:show="other" xlink:type="simple">
<stop offset="0" stop-color="#ffffff" stop-opacity="1"/>
<stop offset="1" stop-color="#ffffff" stop-opacity="0.78431374"/>
</linearGradient>
<linearGradient xlink:actuate="onLoad" xlink:show="other" xlink:type="simple">
<stop offset="0" stop-color="#289bf7" stop-opacity="1"/>
<stop offset="1" stop-color="#2888f7" stop-opacity="1"/>
</linearGradient>
<linearGradient xlink:actuate="onLoad" xlink:show="other" xlink:type="simple">
<stop offset="0" stop-color="#d5f6ff" stop-opacity="1"/>
<stop offset="1" stop-color="#0088aa" stop-opacity="1"/>
</linearGradient>
<linearGradient gradientTransform="matrix(1.0515857,0,0,1.01708,-253.45339,-715.60427)" gradientUnits="userSpaceOnUse" x1="254.83009" x2="358.8096" xlink:actuate="onLoad" xlink:show="other" xlink:type="simple" y1="763.97272" y2="763.97272">
<stop offset="0" stop-color="#f7f8f9"/>
<stop offset="1" stop-color="#d0d1d2"/>
</linearGradient>
<linearGradient gradientTransform="matrix(0.7261569,0,0,0.74770351,-174.61605,-527.27145)" gradientUnits="userSpaceOnUse" x1="254.83009" x2="358.8096" xlink:actuate="onLoad" xlink:show="other" xlink:type="simple" y1="763.97272" y2="763.97272">
<stop offset="0" stop-color="#f7f8f9"/>
<stop offset="1" stop-color="#d0d1d2"/>
</linearGradient>
<linearGradient gradientTransform="matrix(1,0,0,-1,-1.3115644,98.868328)" gradientUnits="userSpaceOnUse" x1="61.075901" x2="34.694302" xlink:actuate="onLoad" xlink:show="other" xlink:type="simple" y1="57.299801" y2="41.540901">
<stop offset="0" stop-color="#ffffff"/>
<stop offset="1" stop-color="#ffffff" stop-opacity="0.2"/>
</linearGradient>
<linearGradient gradientTransform="matrix(1,0,0,-1,1.0534719,96.841079)" gradientUnits="userSpaceOnUse" x1="61.075901" x2="34.694302" xlink:actuate="onLoad" xlink:show="other" xlink:type="simple" y1="57.299801" y2="41.540901">
<stop offset="0" stop-color="#ffffff"/>
<stop offset="1" stop-color="#ffffff" stop-opacity="0.2"/>
</linearGradient>
<linearGradient gradientTransform="matrix(1,0,0,-1,-2.4150126,95.9258)" gradientUnits="userSpaceOnUse" x1="34.720501" x2="60.039902" xlink:actuate="onLoad" xlink:show="other" xlink:type="simple" y1="56.8027" y2="41.976002">
<stop offset="0" stop-color="#ffffff"/>
<stop offset="1" stop-color="#ffffff" stop-opacity="0.2"/>
</linearGradient>
<linearGradient gradientTransform="matrix(1,0,0,-1,-2.5350845,97.20939)" gradientUnits="userSpaceOnUse" x1="34.720501" x2="60.039902" xlink:actuate="onLoad" xlink:show="other" xlink:type="simple" y1="56.8027" y2="41.976002">
<stop offset="0" stop-color="#ffffff"/>
<stop offset="1" stop-color="#ffffff" stop-opacity="0.2"/>
</linearGradient>
<linearGradient gradientTransform="matrix(1,0,0,-1,0.1597,95.9258)" gradientUnits="userSpaceOnUse" x1="63.148201" x2="61.403599" xlink:actuate="onLoad" xlink:show="other" xlink:type="simple" y1="26.3545" y2="22.778099">
<stop offset="0" stop-color="#ffffff"/>
<stop offset="1" stop-color="#a3a3a3"/>
</linearGradient>
<linearGradient gradientTransform="matrix(1,0,0,-1,0.1597,95.9258)" gradientUnits="userSpaceOnUse" x1="63.148201" x2="61.403599" xlink:actuate="onLoad" xlink:show="other" xlink:type="simple" y1="26.3545" y2="22.778099">
<stop offset="0" stop-color="#ffffff"/>
<stop offset="1" stop-color="#a3a3a3"/>
</linearGradient>
<linearGradient gradientTransform="matrix(1,0,0,-1,0.1597,95.9258)" gradientUnits="userSpaceOnUse" x1="62.543701" x2="64.113503" xlink:actuate="onLoad" xlink:show="other" xlink:type="simple" y1="40.8223" y2="37.072102">
<stop offset="0" stop-color="#ffffff"/>
<stop offset="1" stop-color="#a3a3a3"/>
</linearGradient>
<linearGradient gradientTransform="matrix(1,0,0,-1,0.1597,95.9258)" gradientUnits="userSpaceOnUse" x1="62.543701" x2="64.113503" xlink:actuate="onLoad" xlink:show="other" xlink:type="simple" y1="40.8223" y2="37.072102">
<stop offset="0" stop-color="#ffffff"/>
<stop offset="1" stop-color="#a3a3a3"/>
</linearGradient>
<linearGradient gradientTransform="matrix(1,0,0,-1,0.1597,95.9258)" gradientUnits="userSpaceOnUse" x1="45.003201" x2="45.003201" xlink:actuate="onLoad" xlink:show="other" xlink:type="simple" y1="40.209" y2="23.3596">
<stop offset="0" stop-color="#c2de91"/>
<stop offset="1" stop-color="#7b9e56"/>
</linearGradient>
<linearGradient gradientTransform="matrix(1,0,0,-1,0.1597,95.9258)" gradientUnits="userSpaceOnUse" x1="45.003201" x2="45.003201" xlink:actuate="onLoad" xlink:show="other" xlink:type="simple" y1="40.209" y2="23.3596">
<stop offset="0" stop-color="#c2de91"/>
<stop offset="1" stop-color="#7b9e56"/>
</linearGradient>
<linearGradient gradientTransform="matrix(1,0,0,-1,0.1597,95.9258)" gradientUnits="userSpaceOnUse" x1="45.003201" x2="45.003201" xlink:actuate="onLoad" xlink:show="other" xlink:type="simple" y1="40.209" y2="23.3596">
<stop offset="0" stop-color="#c2de91"/>
<stop offset="1" stop-color="#7b9e56"/>
</linearGradient>
<linearGradient gradientTransform="matrix(1,0,0,-1,0.1597,95.9258)" gradientUnits="userSpaceOnUse" x1="45.003201" x2="45.003201" xlink:actuate="onLoad" xlink:show="other" xlink:type="simple" y1="40.209" y2="23.3596">
<stop offset="0" stop-color="#c2de91"/>
<stop offset="1" stop-color="#7b9e56"/>
</linearGradient>
<linearGradient gradientTransform="matrix(1,0,0,-1,0.1597,95.9258)" gradientUnits="userSpaceOnUse" x1="45.003201" x2="45.003201" xlink:actuate="onLoad" xlink:show="other" xlink:type="simple" y1="40.209" y2="23.3596">
<stop offset="0" stop-color="#c2de91"/>
<stop offset="1" stop-color="#7b9e56"/>
</linearGradient>
<linearGradient gradientTransform="matrix(1,0,0,-1,0.1597,95.9258)" gradientUnits="userSpaceOnUse" x1="45.003201" x2="45.003201" xlink:actuate="onLoad" xlink:show="other" xlink:type="simple" y1="40.209" y2="23.3596">
<stop offset="0" stop-color="#c2de91"/>
<stop offset="1" stop-color="#7b9e56"/>
</linearGradient>
<linearGradient gradientTransform="matrix(1,0,0,-1,8.6194701,63.557984)" gradientUnits="userSpaceOnUse" x1="82.677498" x2="82.677498" xlink:actuate="onLoad" xlink:show="other" xlink:type="simple" y1="37.415001" y2="54.1577">
<stop offset="0" stop-color="#ffffff" stop-opacity="0.3"/>
<stop offset="1" stop-color="#ffffff"/>
</linearGradient>
<linearGradient gradientTransform="matrix(1,0,0,-1,-53.620329,92.86676)" gradientUnits="userSpaceOnUse" x1="82.677498" x2="82.677498" xlink:actuate="onLoad" xlink:show="other" xlink:type="simple" y1="37.415001" y2="54.1577">
<stop offset="0" stop-color="#ffffff" stop-opacity="0.3"/>
<stop offset="1" stop-color="#ffffff"/>
</linearGradient>
<linearGradient gradientTransform="matrix(1,0,0,-1,8.6194701,63.557984)" gradientUnits="userSpaceOnUse" x1="82.677498" x2="82.677498" xlink:actuate="onLoad" xlink:show="other" xlink:type="simple" y1="37.415001" y2="54.1577">
<stop offset="0" stop-color="#ffffff" stop-opacity="0.3"/>
<stop offset="1" stop-color="#ffffff"/>
</linearGradient>
<linearGradient gradientTransform="matrix(1,0,0,-1,-15.367455,78.154116)" gradientUnits="userSpaceOnUse" x1="82.677498" x2="82.677498" xlink:actuate="onLoad" xlink:show="other" xlink:type="simple" y1="37.415001" y2="54.1577">
<stop offset="0" stop-color="#ffffff" stop-opacity="0.3"/>
<stop offset="1" stop-color="#ffffff"/>
</linearGradient>
<linearGradient gradientTransform="matrix(1,0,0,-1,8.6194701,63.557984)" gradientUnits="userSpaceOnUse" x1="82.677498" x2="82.677498" xlink:actuate="onLoad" xlink:show="other" xlink:type="simple" y1="37.415001" y2="54.1577">
<stop offset="0" stop-color="#ffffff" stop-opacity="0.3"/>
<stop offset="1" stop-color="#ffffff"/>
</linearGradient>
<linearGradient gradientTransform="matrix(1,0,0,-1,-18.309984,107.94722)" gradientUnits="userSpaceOnUse" x1="82.677498" x2="82.677498" xlink:actuate="onLoad" xlink:show="other" xlink:type="simple" y1="37.415001" y2="54.1577">
<stop offset="0" stop-color="#ffffff" stop-opacity="0.3"/>
<stop offset="1" stop-color="#ffffff"/>
</linearGradient>
<linearGradient gradientTransform="matrix(1,0,0,1.0147106,0,-1.118872)" gradientUnits="userSpaceOnUse" x1="25.749846" x2="83.267105" xlink:actuate="onLoad" xlink:show="other" xlink:type="simple" y1="23.186441" y2="82.169495">
<stop offset="0" stop-color="#d5f6ff" stop-opacity="1"/>
<stop offset="1" stop-color="#0088aa" stop-opacity="1"/>
</linearGradient>
<linearGradient gradientTransform="matrix(1,0,0,-1,-111.07647,38.974359)" gradientUnits="userSpaceOnUse" x1="167.8877" x2="206.12601" xlink:actuate="onLoad" xlink:show="other" xlink:type="simple" y1="-45.7896" y2="-7.5511999">
<stop offset="0" stop-color="#ffffff"/>
<stop offset="1" stop-color="#e6e6e6"/>
</linearGradient>
<linearGradient gradientTransform="matrix(0.7653472,0,0,-0.76412837,-94.891385,27.599019)" gradientUnits="userSpaceOnUse" x1="167.8877" x2="206.12601" xlink:actuate="onLoad" xlink:show="other" xlink:type="simple" y1="-45.7896" y2="-7.5511999">
<stop offset="0" stop-color="#ffffff"/>
<stop offset="1" stop-color="#e6e6e6"/>
</linearGradient>
<linearGradient gradientTransform="matrix(0.625,0,0,0.625,-548.0625,-704.9375)" gradientUnits="userSpaceOnUse" x1="910.82812" x2="910.82812" xlink:actuate="onLoad" xlink:show="other" xlink:type="simple" y1="1138.2363" y2="1186.5941">
<stop offset="0" stop-color="#ffffff"/>
<stop offset="1" stop-color="#bbbbbb"/>
</linearGradient>
<linearGradient gradientTransform="matrix(0.625,0,0,0.625,-548.0625,-704.9375)" gradientUnits="userSpaceOnUse" x1="910.82812" x2="910.82812" xlink:actuate="onLoad" xlink:show="other" xlink:type="simple" y1="1138.2363" y2="1186.5941">
<stop offset="0" stop-color="#ffffff"/>
<stop offset="1" stop-color="#bbbbbb"/>
</linearGradient>
<linearGradient gradientTransform="matrix(0,1,-1,0,96,0)" gradientUnits="userSpaceOnUse" x1="8" x2="88" xlink:actuate="onLoad" xlink:show="other" xlink:type="simple" y1="48" y2="48">
<stop offset="0" stop-color="#289bf7" stop-opacity="1"/>
<stop offset="1" stop-color="#2888f7" stop-opacity="1"/>
</linearGradient>
<linearGradient gradientUnits="userSpaceOnUse" x1="49.441372" x2="49.441372" xlink:actuate="onLoad" xlink:show="other" xlink:type="simple" y1="27.141659" y2="69.860657">
<stop offset="0" stop-color="#ffffff" stop-opacity="1"/>
<stop offset="1" stop-color="#ffffff" stop-opacity="0.78431374"/>
</linearGradient>
<linearGradient gradientTransform="matrix(0,1,-1,0,96,0)" gradientUnits="userSpaceOnUse" x1="8" x2="88" xlink:actuate="onLoad" xlink:show="other" xlink:type="simple" y1="48" y2="48">
<stop offset="0" stop-color="#56bcff" stop-opacity="1"/>
<stop offset="1" stop-color="#30adff" stop-opacity="1"/>
</linearGradient>
<linearGradient gradientUnits="userSpaceOnUse" x1="-15.544" x2="0.007512426" xlink:actuate="onLoad" xlink:show="other" xlink:type="simple" y1="-3.6151117" y2="-3.6151117">
<stop offset="0" stop-color="#ffffff" stop-opacity="1"/>
<stop offset="1" stop-color="#ffffff" stop-opacity="0.78431374"/>
</linearGradient>
<linearGradient gradientUnits="userSpaceOnUse" x1="-15.544" x2="0.007512426" xlink:actuate="onLoad" xlink:show="other" xlink:type="simple" y1="-3.6151117" y2="-3.6151117">
<stop offset="0" stop-color="#ffffff" stop-opacity="1"/>
<stop offset="1" stop-color="#ffffff" stop-opacity="0.78431374"/>
</linearGradient>
<linearGradient gradientTransform="matrix(3.2151214,0,0,-3.2151214,72.975847,37.376978)" gradientUnits="userSpaceOnUse" x1="-11.018427" x2="-11.018427" xlink:actuate="onLoad" xlink:show="other" xlink:type="simple" y1="2.8903997" y2="-10.325421">
<stop offset="0" stop-color="#ffffff" stop-opacity="1"/>
<stop offset="1" stop-color="#ffffff" stop-opacity="0.78431374"/>
</linearGradient>
<linearGradient gradientUnits="userSpaceOnUse" x1="37.524536" x2="37.524536" y1="32.596294" y2="66.091621">
<stop offset="0" stop-color="#ffffff" stop-opacity="1"/>
<stop offset="1" stop-color="#ffffff" stop-opacity="0.78431374"/>
</linearGradient>
<linearGradient gradientUnits="userSpaceOnUse" id="linearGradient4095" x1="9.4310465" x2="9.4310465" y1="19.544579" y2="-8.3705883">
<stop offset="0" stop-color="#ffffff" stop-opacity="1"/>
<stop offset="1" stop-color="#ffffff" stop-opacity="0.78431374"/>
</linearGradient>
<linearGradient gradientTransform="matrix(0,1,-1,0,95.968052,-0.03240471)" gradientUnits="userSpaceOnUse" id="linearGradient4103" x1="34.077999" x2="61.922005" xlink:actuate="onLoad" xlink:show="other" xlink:type="simple" y1="47.968002" y2="47.968002">
<stop offset="0" stop-color="#289bf7" stop-opacity="1"/>
<stop offset="1" stop-color="#2888f7" stop-opacity="1"/>
</linearGradient>
<linearGradient gradientUnits="userSpaceOnUse" id="linearGradient4111" x1="46.689194" x2="46.689194" y1="18.556841" y2="65.046173">
<stop offset="0" stop-color="#ffffff" stop-opacity="1"/>
<stop offset="1" stop-color="#ffffff" stop-opacity="0.78431374"/>
</linearGradient>
<linearGradient gradientTransform="matrix(0,1,-1,0,96,0)" gradientUnits="userSpaceOnUse" id="linearGradient4125" x1="8" x2="88" xlink:actuate="onLoad" xlink:show="other" xlink:type="simple" y1="48" y2="48">
<stop offset="0" stop-color="#289bf7" stop-opacity="1"/>
<stop offset="1" stop-color="#2888f7" stop-opacity="1"/>
</linearGradient>
</defs>
<path d="M 88.0 49.0 C 88.0 78.633 77.637 89.0 48.0 89.0 C 18.365 89.0 8.0 78.633 8.0 49.0 C 8.0 19.365 18.365 9.0 48.0 9.0 C 77.637 9.0 88.0 19.365 88.0 49.0 z " fill-opacity="0.4"/>
<linearGradient gradientUnits="userSpaceOnUse" x1="47.9995" x2="47.9995" xlink:actuate="onLoad" xlink:show="other" xlink:type="simple" y1="8" y2="88.0005">
<stop offset="0" stop-color="#00aad4" stop-opacity="1"/>
<stop offset="1" stop-color="#2ad4ff" stop-opacity="1"/>
</linearGradient>
<path d="M 48.0 8.0 C 77.633 8.0 88.0 18.363 88.0 48.0 C 88.0 77.635 77.633 88.0 48.0 88.0 C 18.365 88.0 8.0 77.635 8.0 48.0 C 8.0 18.363 18.365 8.0 48.0 8.0 z " fill="url(#linearGradient4125)" fill-opacity="1"/>
<rect fill="none" height="96" width="96"/>
<linearGradient gradientUnits="userSpaceOnUse" id="SVGID_2_" x1="47.9995" x2="47.9995" xlink:actuate="onLoad" xlink:show="other" xlink:type="simple" y1="8.2534" y2="87.4985">
<stop offset="0" stop-color="#ffffff"/>
<stop offset="1" stop-color="#ffffff" stop-opacity="0"/>
</linearGradient>
<path d="M 48.0 8.0 C 18.365 8.0 8.0 18.365 8.0 48.0 C 8.0 77.633 18.365 88.0 48.0 88.0 C 77.637 88.0 88.0 77.633 88.0 48.0 C 88.0 18.365 77.637 8.0 48.0 8.0 z M 48.0 87.0 C 18.842 87.0 9.0 77.158 9.0 48.0 C 9.0 18.842005 18.842 9.0 48.0 9.0 C 77.158005 9.0 87.0 18.842 87.0 48.0 C 87.0 77.158005 77.158 87.0 48.0 87.0 z " fill="url(#SVGID_2_)" fill-opacity="0.25" stroke-opacity="0.25"/>
<linearGradient gradientTransform="matrix(0.7071 -0.7071 0.7071 0.7071 -208.9813 3059.7412)" gradientUnits="userSpaceOnUse" x1="2309.3584" x2="2344.3584" xlink:actuate="onLoad" xlink:show="other" xlink:type="simple" y1="-1947.9287" y2="-1947.9287">
<stop offset="0" stop-color="#58595b"/>
<stop offset="1" stop-color="#000000"/>
</linearGradient>
<linearGradient gradientTransform="matrix(0.7071 -0.7071 0.7071 0.7071 -208.9813 3059.7412)" gradientUnits="userSpaceOnUse" x1="2309.3584" x2="2313.3604" xlink:actuate="onLoad" xlink:show="other" xlink:type="simple" y1="-1957.9277" y2="-1957.9277">
<stop offset="0" stop-color="#58595b"/>
<stop offset="1" stop-color="#000000"/>
</linearGradient>
<linearGradient gradientUnits="userSpaceOnUse" x1="54.292" x2="59.292" xlink:actuate="onLoad" xlink:show="other" xlink:type="simple" y1="10.3501" y2="38.934">
<stop offset="0" stop-color="#58595b"/>
<stop offset="1" stop-color="#000000"/>
</linearGradient>
<linearGradient gradientUnits="userSpaceOnUse" x1="32.5508" x2="42.1758" xlink:actuate="onLoad" xlink:show="other" xlink:type="simple" y1="12.6343" y2="45.1342">
<stop offset="0" stop-color="#58595b"/>
<stop offset="1" stop-color="#000000"/>
</linearGradient>
<linearGradient gradientUnits="userSpaceOnUse" x1="57.1484" x2="60.063" xlink:actuate="onLoad" xlink:show="other" xlink:type="simple" y1="35.2275" y2="38.1421">
<stop offset="0" stop-color="#ffffff"/>
<stop offset="0.7362" stop-color="#ffffff" stop-opacity="0"/>
<stop offset="1" stop-color="#ffffff" stop-opacity="0"/>
</linearGradient>
<linearGradient gradientUnits="userSpaceOnUse" x1="44.6177" x2="38.0733" xlink:actuate="onLoad" xlink:show="other" xlink:type="simple" y1="37.2412" y2="43.7856">
<stop offset="0" stop-color="#ffffff"/>
<stop offset="0.7362" stop-color="#ffffff" stop-opacity="0"/>
<stop offset="1" stop-color="#ffffff" stop-opacity="0"/>
</linearGradient>
<linearGradient gradientUnits="userSpaceOnUse" x1="47.9995" x2="47.9995" xlink:actuate="onLoad" xlink:show="other" xlink:type="simple" y1="45.5" y2="53.8766">
<stop offset="0" stop-color="#ffffff"/>
<stop offset="1" stop-color="#6d6e70"/>
</linearGradient>
<path d="M 48.0 64.984 C 39.186 64.984 32.016003 57.812 32.016003 48.997 C 32.016003 40.187 39.186 33.016003 48.0 33.016003 C 56.813 33.016003 63.983997 40.188004 63.983997 48.997 C 63.983997 57.812 56.811996 64.984 47.999996 64.984 L 47.999996 64.984 z " fill-opacity="0.02000002"/>
<path d="M 48.0 64.467995 C 39.47 64.467995 32.53101 57.527 32.53101 48.996 C 32.53101 40.469 39.469 33.53 48.000015 33.53 C 56.529015 33.53 63.469017 40.468 63.469017 48.996 C 63.46901 57.527 56.529007 64.468 48.000008 64.468 L 48.000008 64.468 z " fill-opacity="0.05"/>
<path d="M 48.0 63.952 C 39.755005 63.952 33.047005 57.24201 33.047005 48.996 C 33.047005 40.753 39.755005 34.046 48.0 34.046 C 56.244 34.046 62.953 40.753 62.953 48.996 C 62.953 57.241997 56.244 63.952 48.0 63.952 L 48.0 63.952 z " fill-opacity="0.05"/>
<path d="M 48.0 63.437 C 40.04 63.437 33.562 56.95901 33.562 48.997 C 33.562 41.037003 40.039 34.562 48.0 34.562 C 55.961 34.562 62.438 41.037003 62.438 48.997 C 62.437 56.959 55.961 63.437 48.0 63.437 L 48.0 63.437 z " fill-opacity="0.15"/>
<path d="M 61.922005 48.995995 C 61.922005 56.686 55.69101 62.921005 48.0 62.921005 C 40.312 62.921005 34.078 56.686993 34.078 48.995995 C 34.078 41.309994 40.312 35.076996 48.0 35.076996 C 55.69 35.076992 61.922005 41.310993 61.922005 48.995995 z " fill-opacity="0.15"/>
<path d="M 48.00305 61.8896 C 40.31305 61.8896 34.07805 55.6586 34.078064 47.96758 C 34.078064 40.27958 40.312065 34.045574 48.00305 34.045563 C 55.68905 34.045563 61.922047 40.279564 61.922066 47.967545 C 61.922073 55.657543 55.688072 61.88955 48.00305 61.88953 z " fill="url(#linearGradient4103)" fill-opacity="1"/>
<path d="M 50.037 40.796 L 50.383 40.796 L 50.619 40.56 L 50.619 40.385 L 50.732 40.273003 L 50.732 40.000004 L 50.476 40.000004 L 50.238 40.197 L 50.238 40.375004 L 50.037 40.578003 L 50.037 40.796 z M 51.181 40.396004 L 51.076 40.396004 L 50.853 40.621 L 50.853 40.867 L 51.624 40.867 L 51.838005 40.654 L 51.838005 40.417 L 51.27 39.854004 L 51.419 39.701004 L 51.419 39.525 L 51.038 39.525 L 51.225 39.338 L 50.947 39.338 L 50.761997 39.507004 L 50.761997 39.800003 L 51.180996 40.22 L 51.180996 40.396008 L 51.180996 40.396008 z M 36.16799 45.22901 L 36.43499 45.49501 L 36.43499 46.13601 L 36.72099 46.13601 L 36.72099 44.922012 L 37.55999 44.08202 L 38.11299 44.08202 L 39.770996 42.42402 L 40.74 42.42402 L 41.006996 42.16002 L 41.006996 41.32002 L 40.719 41.32002 L 40.719 41.10202 L 42.092007 41.10202 L 42.448 40.74802 L 42.448 40.50002 L 42.032997 40.08502 L 42.032997 38.947018 L 41.579006 39.399017 L 41.115993 39.399017 L 41.115993 38.760017 L 40.432007 38.760017 L 39.924007 39.267017 L 39.647007 39.267017 L 39.647007 40.095013 L 38.90801 40.83401 L 38.90801 40.151012 L 38.313007 40.151012 L 38.313007 39.686016 L 37.593 39.686016 L 37.593 39.409016 L 38.730007 38.272015 L 39.12899 38.272015 L 39.745007 37.653015 L 40.278008 37.653015 L 40.808006 37.12202 L 41.314007 37.12202 L 41.809 37.620014 L 41.601 37.830017 L 41.094 37.830017 L 41.094 38.11801 L 41.692997 38.713013 L 42.088997 38.713013 L 42.442997 38.359013 L 42.442997 37.972008 L 43.048996 37.972008 L 43.303997 37.715008 L 42.045994 36.455013 L 41.531994 36.455013 L 41.758007 36.226013 L 42.586006 36.226013 L 43.106995 35.70701 L 43.349003 35.472008 L 44.305004 35.472008 L 44.519005 35.25601 L 42.338005 35.25601 C 41.673004 35.55201 41.037006 35.896008 40.43401 36.291008 L 40.43401 36.439007 L 41.29401 36.439007 L 41.14001 36.59401 L 40.54801 36.59401 L 39.97201 37.168007 L 40.32901 37.168007 L 40.03601 37.461018 L 39.49301 37.461018 L 39.27301 37.240005 L 39.596012 36.918007 L 39.554012 36.918007 C 36.84701 38.988007 34.928017 42.02601 34.308018 45.522 L 34.604015 45.225006 L 36.168007 45.225006 z M 57.890015 47.70501 L 57.890015 45.64199 L 58.343018 45.64199 L 58.343018 47.561993 L 59.600018 48.818996 L 60.483013 48.818996 L 61.894012 47.411003 C 61.88201 47.123005 61.877014 46.83 61.84801 46.548004 L 60.880016 46.548004 L 59.98601 45.653004 L 60.296013 45.34201 L 61.112015 46.160015 L 61.790016 46.160015 C 61.595016 44.638004 61.152016 43.200016 60.507015 41.874012 L 60.507015 42.10801 L 60.173016 42.10801 L 60.173016 42.393013 L 61.015015 43.234013 L 61.015015 43.788013 L 60.306015 43.788013 L 60.065018 43.54602 L 60.065018 43.034016 L 59.361015 42.305023 L 60.065018 41.596024 L 60.373013 41.596024 C 59.626 40.147022 58.631 38.853016 57.443 37.75502 L 57.093 38.10202 L 56.862003 38.10202 L 56.568005 37.80802 L 56.99601 37.826023 L 56.99601 37.406025 L 56.741 37.153027 L 54.17 37.153027 L 52.564007 38.75903 L 52.564007 39.50203 L 53.396008 39.50203 L 53.82501 39.93203 L 54.259007 39.93203 L 54.552 39.64303 L 54.552 38.48903 L 55.101 37.94003 L 55.471 37.94003 L 54.845 38.567028 L 54.845 39.061028 L 55.738003 39.061028 L 55.738003 39.308033 L 54.799004 40.246033 C 54.799004 40.246033 53.479004 40.294033 53.528004 40.246033 C 53.58 40.19303 53.354004 39.904034 53.354004 39.904034 L 52.889004 39.904034 L 51.688004 41.105034 L 50.90001 41.105034 L 50.90001 41.470036 L 51.27401 41.470036 L 51.27401 42.484043 L 50.126015 42.484043 L 50.126015 43.589043 L 50.381016 43.845043 L 51.119015 43.845043 L 52.172016 42.788044 L 52.172016 42.39605 L 53.220016 42.39605 L 54.124016 43.300045 L 54.499016 42.925045 L 53.662018 42.08605 L 54.189014 42.08605 L 54.909016 42.803055 L 54.909016 43.236053 L 55.691017 43.236053 L 55.691017 42.948044 L 56.023018 42.948044 L 56.981014 43.907043 L 57.81102 43.907043 L 57.81102 44.628044 L 57.30302 45.135056 L 55.60202 45.135056 L 55.60202 44.693054 L 53.50402 44.693054 L 53.50402 44.031044 L 50.56702 44.031044 L 48.668022 45.931053 L 48.668022 49.398052 L 50.015022 50.74705 L 53.26203 50.74705 L 53.26203 52.202053 L 54.079033 53.018055 L 54.079033 58.451057 L 54.843033 59.215057 L 55.823032 59.215057 L 57.816032 57.224052 L 57.816032 56.112053 L 58.88103 55.045055 L 58.88103 52.603058 L 60.974026 50.511055 L 60.974026 49.335056 L 59.51002 49.335056 L 57.89001 47.709015 z M 56.730022 42.949017 L 56.408024 42.632015 L 56.421024 42.334023 L 56.896023 41.85802 L 58.036022 41.85802 L 58.811024 42.634014 L 58.811024 42.948013 L 56.730022 42.948013 z M 42.838017 51.982 L 42.838017 51.516 L 41.692017 51.516 L 39.703026 49.525 L 37.400017 49.525 L 37.030025 49.895996 L 36.181023 49.895996 L 35.707027 49.421 L 35.707027 48.272 L 35.19703 48.272 L 35.19703 47.395004 L 34.87203 47.395004 L 34.424023 47.841 L 34.085026 47.841 C 34.085026 47.881 34.079025 47.919 34.079025 47.96 C 34.079025 48.175 34.102016 48.38401 34.112022 48.59801 L 34.271027 48.75801 L 34.624027 48.75801 L 36.151028 50.28201 L 36.564026 50.28201 L 36.564026 51.403008 L 36.296017 51.674015 L 36.296017 53.891014 L 37.648026 55.24501 L 38.03102 55.24501 L 38.743027 55.958008 L 38.743027 58.34202 C 39.403027 58.931007 40.116028 59.455017 40.87903 59.913017 L 41.384026 59.913017 L 41.384026 59.29001 L 42.35403 58.32301 L 42.35403 57.32701 L 43.259026 56.42501 L 43.73603 56.42501 L 43.73603 54.423004 L 44.73903 53.419003 L 44.73903 52.45701 L 43.314026 52.45701 L 42.83802 51.982 z M 49.819023 35.16901 L 45.295025 35.16901 L 44.75003 35.71801 L 43.490025 35.71801 L 43.490025 36.31501 L 44.74902 36.31501 L 44.74902 37.208008 L 45.379025 37.208008 L 45.01402 37.569008 L 44.58502 37.569008 L 44.58502 39.103012 L 45.28602 39.103012 L 46.07502 38.31601 L 46.62102 38.31601 L 47.96402 36.97501 L 48.46002 36.97501 L 50.08302 35.352005 L 49.81902 35.169006 z " fill="url(#linearGradient4111)" fill-opacity="1"/>
<g transform="matrix(1.6460352,0,0,-1.6460352,32.55443,54.238862)">
<path d="M -1.6680005 3.9365947 L -1.6680005 -7.860793 C -1.6680005 -8.217202 0.38561463 -8.217202 0.38561463 -7.860793 L 0.38561463 3.936595 C 0.38561463 4.2919183 -1.6680005 4.2919183 -1.6680005 3.936595 M 23.083006 1.0005589 L 23.083006 6.089181 C 23.083006 13.950848 17.32503 19.656666 9.3916445 19.656666 C 1.4571757 19.656666 -4.299716 13.950847 -4.299716 6.089181 L -4.299716 1.0266376 C -4.6322203 0.2116757 -4.716977 -0.8542944 -4.716977 -2.026753 C -4.716977 -4.5803003 -4.3268814 -6.64813 -1.8222325 -6.64813 L -1.8222325 2.594624 C -1.959146 2.594624 -2.0884533 2.5859342 -2.2134142 2.572892 L -2.2134142 6.089181 C -2.2134142 12.849018 2.5590029 17.569277 9.391643 17.569277 C 16.223198 17.569277 20.99453 12.849018 20.99453 6.089181 L 20.99453 2.5859318 C 20.86631 2.598971 20.73157 2.6065767 20.589224 2.6065767 L 20.589224 -6.63509 C 23.092787 -6.63509 23.483967 -4.5661736 23.483967 -2.0158863 C 23.483967 -0.8608136 23.401386 0.19211698 23.083006 1.0005593 M 18.381384 3.819241 L 18.381384 -7.9792333 C 18.381384 -8.334556 20.43391 -8.334556 20.43391 -7.9792333 L 20.43391 3.819242 C 20.43391 4.175652 18.381384 4.175652 18.381384 3.819242 " fill="url(#linearGradient4095)" fill-opacity="1" fill-rule="nonzero" stroke="none"/>
</g>
</svg>
