<?xml version="1.0" encoding="UTF-8"?>
<svg xmlns="http://www.w3.org/2000/svg" xmlns:xlink="http://www.w3.org/1999/xlink" baseProfile="tiny" contentScriptType="text/ecmascript" contentStyleType="text/css" height="27px" preserveAspectRatio="xMidYMid meet" version="1.1" viewBox="0 0 27 27" width="27px" x="0px" y="0px" zoomAndPan="magnify">
<g>
<rect fill="none" height="27" width="27"/>
</g>
<linearGradient gradientTransform="matrix(1 0 0 1 -289.96 -1193.8457)" gradientUnits="userSpaceOnUse" x1="303.459" x2="303.459" xlink:actuate="onLoad" xlink:show="other" xlink:type="simple" y1="1217.0762" y2="1197.6172">
<stop offset="0" stop-color="#d0cbc5"/>
<stop offset="1" stop-color="#fcfcf9"/>
</linearGradient>
<path d="M 23.939 10.57 C 24.905996 10.514999 25.661 10.108 25.661 9.608 C 25.661 9.071 24.789 8.635 23.714 8.635 C 23.45 8.635 23.193 8.662002 22.963 8.712 C 21.611 6.385 19.516 3.772 16.904 3.772 L 10.094998 3.772 C 7.483999 3.772 5.390999 6.384 4.0369983 8.712 C 3.8059993 8.662 3.5509992 8.635 3.2849994 8.635 C 2.2089994 8.635 1.3379993 9.071 1.3379993 9.608 C 1.3379993 10.108 2.0929997 10.516 3.0619988 10.57 C 2.8699992 10.983998 2.7129989 11.342 2.595999 11.624 C 1.826999 12.336 1.337999 13.3429985 1.337999 14.473 L 1.337999 20.795 C 9.413578 21.5607 17.600048 21.808191 25.660002 20.795 L 25.660002 14.473 C 25.660002 13.344 25.171 12.336 24.400002 11.624 C 24.285002 11.342 24.129002 10.983999 23.939 10.57 z M 10.095001 5.7169995 L 16.904 5.7169995 C 18.761002 5.7169995 20.592 8.37 21.756 10.580998 L 5.2440014 10.580998 C 6.405 8.371 8.24 5.717 10.095 5.717 z M 3.0900002 13.987 C 3.0900002 13.074 4.051 12.332002 5.231 12.332002 C 6.411 12.332002 7.372 13.074 7.372 13.987 C 7.372 14.899 6.411 15.641002 5.231 15.641002 C 4.051 15.641002 3.09 14.898001 3.09 13.987 z M 19.004 20.309 L 7.9959993 20.309 C 7.1679993 20.309 6.4959993 19.657 6.4959993 18.852 C 6.4959993 18.045 7.1669993 17.393 7.9959993 17.393 L 19.004 17.393 C 19.831 17.393 20.505 18.045 20.505 18.852 C 20.505 19.654 19.832998 20.309 19.004 20.309 z M 21.771 15.641 C 20.589 15.641 19.628 14.899 19.628 13.988 C 19.628 13.075 20.587 12.333 21.771 12.333 C 22.951 12.333 23.91 13.075 23.91 13.988 C 23.909 14.898 22.95 15.641 21.771 15.641 z " fill="#dedede" fill-opacity="1"/>
</svg>
