<?xml version="1.0" encoding="UTF-8"?>
<svg xmlns="http://www.w3.org/2000/svg" xmlns:xlink="http://www.w3.org/1999/xlink" baseProfile="tiny" contentScriptType="text/ecmascript" contentStyleType="text/css" height="27px" preserveAspectRatio="xMidYMid meet" version="1.1" viewBox="0 0 27 27" width="27px" x="0px" y="0px" zoomAndPan="magnify">
<rect fill="none" height="27" width="27"/>
<linearGradient gradientUnits="userSpaceOnUse" x1="10.9048" x2="10.9048" xlink:actuate="onLoad" xlink:show="other" xlink:type="simple" y1="25.8613" y2="1.7354">
<stop offset="0" stop-color="#d0cbc5"/>
<stop offset="1" stop-color="#fcfcf9"/>
</linearGradient>
<path d="M 15.025 25.51 L 15.025 17.48 C 15.025 16.668 15.686 16.008 16.499 16.008 L 16.652 16.008 C 17.308 14.997999 17.586 13.598999 17.586 13.598999 C 17.613 13.515999 17.645 13.438999 17.668 13.359999 C 18.178 13.985999 18.439 12.518999 18.648 11.847999 C 18.869 11.133999 18.965 10.669998 18.965 10.669998 C 19.052 9.951998 18.502 10.165998 18.502 10.165998 L 18.459002 10.208999 C 18.538002 9.205998 18.832 8.590999 18.832 7.687999 C 18.838 6.2889986 19.178 5.7809987 17.751 3.638999 C 17.308 2.977999 16.697 2.865999 14.167002 2.049999 C 11.636002 1.234999 11.280002 2.270999 10.4400015 2.169999 C 9.603 2.073 9.485 2.411 9.326 2.71 C 9.165 3.0110002 9.326 3.248 8.87 3.266 C 8.409 3.29 8.205 3.64 8.205 3.64 C 6.838 5.823 7.349 6.48 7.299 7.876 C 7.273 8.62 7.396 9.172 7.779 10.191999 L 7.743 10.136999 C 7.743 10.136999 7.207 9.884999 7.244 10.612999 C 7.244 10.612999 7.169 10.836999 7.477 11.804999 C 7.654 12.362999 7.79 13.915999 8.318 13.422999 C 8.333 13.480999 8.354 13.539 8.375 13.601 C 8.375 13.601 8.786 15.74 9.821 16.635 C 10.03 16.832 9.900001 17.442 9.751 18.022 C 9.694 18.243 9.401 19.752998 7.573001 20.483 C 7.573001 20.483 5.9040003 21.128 4.2200003 22.11 C 4.2200003 22.11 3.0960002 22.673 2.8610003 23.61 L 2.8330002 23.748 C 3.79 24.296 4.915 24.737 6.228 25.078 C 9.431 25.901 11.639 25.885 13.135 25.85 C 13.679 25.863 14.321 25.871 15.066 25.839 C 15.041 25.732 15.025 25.623 15.025 25.51 z " fill="#dedede" fill-opacity="1"/>
<path d="M 24.836 25.611 C 24.836 25.871 24.624 26.083 24.363 26.083 L 16.335001 26.083 C 16.073002 26.083 15.861001 25.871 15.861001 25.611 L 15.861001 17.581 C 15.861001 17.320002 16.073002 17.109 16.335001 17.109 L 24.363 17.109 C 24.624 17.109 24.836 17.320002 24.836 17.581 L 24.836 25.611 z " fill="#dedede"/>
</svg>
