<?xml version="1.0" encoding="UTF-8"?>
<svg xmlns="http://www.w3.org/2000/svg" xmlns:xlink="http://www.w3.org/1999/xlink" baseProfile="tiny" contentScriptType="text/ecmascript" contentStyleType="text/css" height="27px" preserveAspectRatio="xMidYMid meet" version="1.1" viewBox="0 0 27 27" width="27px" x="0px" y="0px" zoomAndPan="magnify">
<defs/>
<linearGradient gradientTransform="matrix(0 1 1 0 -902.5918 -632.2139)" gradientUnits="userSpaceOnUse" x1="635.7783" x2="656.1201" xlink:actuate="onLoad" xlink:show="other" xlink:type="simple" y1="916.3291" y2="916.3291">
<stop offset="0" stop-color="#fcfcf9"/>
<stop offset="1" stop-color="#d0cbc5"/>
</linearGradient>
<rect fill="none" height="27" width="27"/>
<path d="M 8.518988 3.5 C 8.182585 3.5 7.101135 3.682487 6.49434 4.116197 L 6.335889 4.221831 C 5.700847 4.660858 4.645748 5.362658 4.645748 6.933099 C 4.645748 8.954433 6.2149963 12.16819 9.522509 16.616198 C 11.277201 18.975767 13.20237 20.692715 14.892229 21.827465 C 16.582085 22.962215 18.060284 23.5 18.800678 23.5 C 19.474289 23.5 20.210052 23.058252 20.825327 22.478872 C 21.4406 21.899492 21.934828 21.190214 22.163357 20.753521 C 22.37187 20.35574 22.382969 20.040112 22.321808 19.785212 C 22.263067 19.540386 22.127672 19.354946 22.040117 19.274649 C 22.038816 19.273449 22.023787 19.27575 22.022507 19.274649 C 22.022337 19.26875 22.022337 19.262909 22.022507 19.25705 C 22.016607 19.25722 22.010767 19.25722 22.004908 19.25705 C 22.004908 19.25705 19.786669 17.757526 18.800682 17.091557 C 18.46081 16.861675 18.140179 16.757051 17.83237 16.757051 C 17.446823 16.757051 17.220692 16.921362 17.180964 16.950714 C 17.176764 16.953814 17.145033 16.968924 17.145754 16.968325 C 17.145924 16.974224 17.145924 16.980064 17.145754 16.985924 C 17.143854 16.988224 16.93134 17.21339 16.511951 17.566908 C 15.988233 18.00796 15.206123 17.915611 14.663361 17.408459 C 14.483257 17.24042 14.188613 16.883707 13.783079 16.404934 C 13.377543 15.926161 12.882631 15.3222 12.374628 14.697187 C 11.358618 13.447161 10.28568 12.101009 9.768994 11.404934 C 9.537389 11.092375 9.413575 10.757374 9.469698 10.419019 C 9.527098 10.070036 9.742048 9.807593 9.962655 9.591554 C 10.183263 9.375514 10.420404 9.208335 10.578852 9.098597 L 10.684486 9.028176 C 11.190131 8.66617 11.234339 8.031492 11.071809 7.60212 C 11.026369 7.482551 10.643098 6.646199 10.279555 5.859162 C 9.916008 5.072126 9.554702 4.28574 9.487297 4.151416 C 9.403027 3.983054 9.295876 3.809029 9.15279 3.69367 C 9.009702 3.578312 8.824797 3.500008 8.518987 3.500008 z " fill="#dedede" fill-opacity="1" fill-rule="nonzero" stroke="none"/>
</svg>
