<?xml version="1.0" encoding="UTF-8"?>
<svg xmlns="http://www.w3.org/2000/svg" xmlns:xlink="http://www.w3.org/1999/xlink" baseProfile="tiny" contentScriptType="text/ecmascript" contentStyleType="text/css" height="27px" preserveAspectRatio="xMidYMid meet" version="1.1" viewBox="2.5 2.5 27 27" width="27px" x="0px" y="0px" zoomAndPan="magnify">
<g>
<rect fill="none" height="27" width="27" x="2.5" y="2.5"/>
</g>
<path d="M 25.063 7.664 C 22.342 4.944 17.891 4.9449997 15.172999 7.664 L 6.362999 16.475 C 4.405999 18.431 4.405999 21.629 6.362999 23.585 C 8.316999 25.539 11.515999 25.539 13.473 23.585 L 16.72 20.338 L 21.973 15.084002 C 23.163 13.895001 23.163 11.946001 21.973 10.756001 C 20.785 9.566002 18.834 9.566002 17.649 10.758001 L 9.299 19.102 L 10.847 20.650002 L 19.193 12.302002 C 19.528 11.969002 20.095 11.969002 20.429 12.302002 C 20.763 12.637002 20.763 13.204002 20.431002 13.540002 L 11.927002 22.04 C 10.819002 23.147 9.019002 23.147 7.9100018 22.04 C 6.8000016 20.931002 6.8000016 19.128 7.9100018 18.019 L 16.723001 9.211001 C 18.599 7.3340015 21.646002 7.3340015 23.523005 9.211001 C 25.402002 11.088001 25.402002 14.136002 23.523005 16.011002 L 14.864002 24.665 L 16.409002 26.212002 L 25.063004 17.558002 C 27.784 14.836 27.784 10.386 25.063 7.664 z " fill-opacity="0.15"/>
<linearGradient gradientTransform="matrix(1 0 0 1 -125.96 -884.8457)" gradientUnits="userSpaceOnUse" x1="141.959" x2="141.959" xlink:actuate="onLoad" xlink:show="other" xlink:type="simple" y1="911.0576" y2="890.4707">
<stop offset="0" stop-color="#d0cbc5"/>
<stop offset="1" stop-color="#fcfcf9"/>
</linearGradient>
<path d="M 25.063 7.664 C 22.342 4.944 17.891 4.9449997 15.172999 7.664 L 6.362999 16.475 C 4.405999 18.431 4.405999 21.629 6.362999 23.585 C 8.316999 25.539 11.515999 25.539 13.473 23.585 L 16.72 20.338 L 21.973 15.084002 C 23.163 13.895001 23.163 11.946001 21.973 10.756001 C 20.785 9.566002 18.834 9.566002 17.649 10.758001 L 9.299 19.102 L 10.847 20.650002 L 19.193 12.302002 C 19.528 11.969002 20.095 11.969002 20.429 12.302002 C 20.763 12.637002 20.763 13.204002 20.431002 13.540002 L 11.927002 22.04 C 10.819002 23.147 9.019002 23.147 7.9100018 22.04 C 6.8000016 20.931002 6.8000016 19.128 7.9100018 18.019 L 16.723001 9.211001 C 18.599 7.3340015 21.646002 7.3340015 23.523005 9.211001 C 25.402002 11.088001 25.402002 14.136002 23.523005 16.011002 L 14.864002 24.665 L 16.409002 26.212002 L 25.063004 17.558002 C 27.784 14.836 27.784 10.386 25.063 7.664 z " fill="#dedede" fill-opacity="1"/>
</svg>
