<?xml version="1.0" encoding="UTF-8"?>
<svg xmlns="http://www.w3.org/2000/svg" xmlns:xlink="http://www.w3.org/1999/xlink" baseProfile="tiny" contentScriptType="text/ecmascript" contentStyleType="text/css" height="96px" preserveAspectRatio="xMidYMid meet" version="1.1" viewBox="0 0 96 96" width="96px" x="0px" y="0px" zoomAndPan="magnify">
<defs>
<linearGradient>
<stop offset="0" stop-color="#6d93d1" stop-opacity="1"/>
<stop offset="1" stop-color="#3c6197" stop-opacity="1"/>
</linearGradient>
<linearGradient gradientTransform="matrix(0,1,-1,0,96.143818,1.8e-7)" gradientUnits="userSpaceOnUse" id="linearGradient3853" x1="8" x2="88" y1="48" y2="48">
<stop offset="0" stop-color="#6d93d1" stop-opacity="1"/>
<stop offset="1" stop-color="#477ac5" stop-opacity="1"/>
</linearGradient>
</defs>
<path d="M 68.25743 54.294533 L 68.25743 53.698723 C 68.26253 53.810886 68.26831 54.01949 68.25743 54.294533 z " fill="#f16522"/>
<path d="M 88.0 49.0 C 88.0 78.633 77.637 89.0 48.0 89.0 C 18.365 89.0 8.0 78.633 8.0 49.0 C 8.0 19.365 18.365 9.0 48.0 9.0 C 77.636 9.0 88.0 19.365 88.0 49.0 z " fill-opacity="0.4" stroke-opacity="0.4"/>
<path d="M 52.710793 58.130863 L 52.710793 57.91154 C 52.71369 57.97369 52.71369 58.047276 52.710793 58.130863 z " fill="#ffffff"/>
<rect fill="none" height="96" width="96"/>
<path d="M 76.42232 74.695465 C 76.81832 74.695465 77.20618 74.623215 77.57774 74.48031 C 78.7951 74.008255 79.58059 72.86986 79.58059 71.58536 L 79.58059 48.213783 C 79.58059 42.31951 74.71445 37.52349 68.73199 37.52349 L 44.648975 37.52349 C 38.664886 37.52349 33.79874 42.31951 33.79874 48.21379 L 33.79874 58.998814 C 33.79874 64.89469 38.664886 69.69071 44.648975 69.69071 L 70.29971 69.69071 L 74.11799 73.70961 C 74.71282 74.33581 75.552086 74.695465 76.422325 74.695465 L 76.422325 74.695465 z " fill-opacity="0.05"/>
<linearGradient gradientUnits="userSpaceOnUse" x1="47.9995" x2="47.9995" y1="8.5449" y2="89.2398">
<stop offset="0" stop-color="#00bacc"/>
<stop offset="0.2312" stop-color="#01a1bb"/>
<stop offset="0.747" stop-color="#026d98"/>
<stop offset="1" stop-color="#02598b"/>
</linearGradient>
<path d="M 48.143818 88.0 C 18.510822 88.0 8.143819 77.637 8.143819 48.0 C 8.143819 18.365 18.510818 8.0 48.143818 8.0 C 77.77882 8.0 88.143814 18.365 88.143814 48.0 C 88.143814 77.636 77.77882 88.0 48.143818 88.0 z " fill="url(#linearGradient3853)" fill-opacity="1"/>
<path d="M 76.42232 73.91673 C 76.72054 73.91673 77.01062 73.86215 77.28929 73.75296 C 78.201904 73.39812 78.79021 72.545525 78.79021 71.582146 L 78.79021 48.213783 C 78.79021 42.748215 74.27606 38.300613 68.730354 38.300613 L 44.645702 38.300613 C 39.098366 38.300613 34.58423 42.74821 34.58423 48.213783 L 34.58423 58.99881 C 34.58423 64.46438 39.098366 68.91198 44.645702 68.91198 L 70.64193 68.91198 L 74.693245 73.17815 C 75.13814 73.64699 75.768814 73.91673 76.42231 73.91673 L 76.42231 73.91673 z " fill-opacity="0.05"/>
<linearGradient gradientUnits="userSpaceOnUse" id="SVGID_2_" x1="47.9995" x2="47.9995" y1="8.2534" y2="87.4985">
<stop offset="0" stop-color="#ffffff"/>
<stop offset="1" stop-color="#ffffff" stop-opacity="0"/>
</linearGradient>
<path d="M 48.0 8.0 C 18.365 8.0 8.0 18.365 8.0 48.0 C 8.0 77.633 18.365 88.0 48.0 88.0 C 77.636 88.0 88.0 77.633 88.0 48.0 C 88.0 18.365 77.636 8.0 48.0 8.0 z M 48.0 87.0 C 18.842 87.0 9.0 77.159 9.0 48.0 C 9.0 18.842 18.842 9.0 48.0 9.0 C 77.158005 9.0 87.0 18.842 87.0 48.0 C 87.0 77.159 77.158 87.0 48.0 87.0 z " fill="url(#SVGID_2_)" fill-opacity="0.25" stroke-opacity="0.25"/>
<path d="M 76.42232 73.13961 C 76.62113 73.13961 76.81506 73.104294 76.999214 73.030426 C 77.60708 72.796005 77.999825 72.22761 77.999825 71.58536 L 77.999825 48.213783 C 77.999825 43.176918 73.84095 39.079346 68.730354 39.079346 L 44.64734 39.079346 C 39.53349 39.079346 35.37624 43.178524 35.37624 48.21378 L 35.37624 58.99881 C 35.37624 64.037285 39.53512 68.13324 44.64734 68.13324 L 70.98254 68.13324 L 75.268524 72.646675 C 75.56675 72.95977 75.9872 73.1396 76.42232 73.1396 L 76.42232 73.1396 z " fill-opacity="0.1"/>
<path d="M 29.732565 44.62082 L 29.732565 43.92069 C 29.726564 44.05249 29.719786 44.29762 29.732565 44.62082 z " fill="#f16522"/>
<linearGradient gradientUnits="userSpaceOnUse" x1="47.9995" x2="47.9995" y1="27.8447" y2="77.9766">
<stop offset="0" stop-color="#fafcef"/>
<stop offset="0.3232" stop-color="#fafcef"/>
<stop offset="1" stop-color="#d0cbc5"/>
</linearGradient>
<path d="M 48.00128 49.12886 L 48.00128 48.87114 C 47.997883 48.944168 47.997883 49.03064 48.00128 49.12886 z " fill="#ffffff"/>
<path d="M 76.42232 72.36087 C 76.520096 72.36087 76.617874 72.34321 76.712395 72.30628 C 77.013885 72.190674 77.2127 71.901665 77.2127 71.58375 L 77.2127 48.21378 C 77.2127 43.605618 73.40746 39.85647 68.731995 39.85647 L 44.64898 39.85647 C 39.97187 39.85647 36.16663 43.605618 36.16663 48.21378 L 36.16663 58.998806 C 36.16663 63.608574 39.97187 67.35773 44.64898 67.35773 L 71.3264 67.35773 L 75.84706 72.11521 C 76.00025 72.27577 76.20884 72.36086 76.42233 72.36086 L 76.42233 72.36086 z " fill-opacity="0.1"/>
<path d="M 20.138077 68.593765 C 19.672735 68.593765 19.216967 68.508865 18.78035 68.340935 C 17.349852 67.786224 16.426826 66.44851 16.426826 64.9391 L 16.426826 37.47538 C 16.426826 30.549072 22.144989 24.913311 29.17492 24.913311 L 57.474648 24.913311 C 64.50649 24.913311 70.22466 30.549072 70.22466 37.475384 L 70.22466 50.148766 C 70.22466 57.076958 64.5065 62.71272 57.474648 62.71272 L 27.332703 62.71272 L 22.845882 67.43529 C 22.146904 68.17113 21.160683 68.59376 20.138077 68.59376 L 20.138077 68.59376 z " fill-opacity="0.05"/>
<path d="M 44.645714 66.578995 L 58.683548 66.578995 L 68.73036 66.578995 L 71.667 66.578995 L 76.422325 71.58375 L 76.422325 58.99881 L 76.422325 55.309063 L 76.422325 48.213783 C 76.422325 44.029507 72.97887 40.635204 68.73036 40.635204 L 44.645714 40.635204 C 40.397205 40.635204 36.952118 44.02951 36.952118 48.213783 L 36.952118 58.99881 C 36.953518 63.1863 40.397205 66.578995 44.645714 66.578995 z " fill-opacity="0.3"/>
<path d="M 20.138077 67.67869 C 19.787634 67.67869 19.446766 67.61455 19.119303 67.48624 C 18.046902 67.06926 17.355589 66.06739 17.355589 64.93533 L 17.355589 37.475388 C 17.355589 31.052847 22.660114 25.826513 29.176828 25.826513 L 57.478485 25.826513 C 63.997112 25.826513 69.301636 31.052847 69.301636 37.475388 L 69.301636 50.148773 C 69.301636 56.571312 63.997112 61.797646 57.47849 61.797646 L 26.930557 61.797646 L 22.169891 66.81078 C 21.647099 67.36171 20.905998 67.67869 20.138084 67.67869 L 20.138084 67.67869 z " fill-opacity="0.05"/>
<path d="M 44.645714 65.19975 L 58.683548 65.19975 L 68.73036 65.19975 L 71.667 65.19975 L 76.422325 70.204506 L 76.422325 57.62117 L 76.422325 53.931427 L 76.422325 46.836143 C 76.422325 42.651863 72.97887 39.257565 68.73036 39.257565 L 44.645714 39.257565 C 40.397205 39.257565 36.952118 42.65187 36.952118 46.836143 L 36.952118 57.62117 C 36.953518 61.805447 40.397205 65.19975 44.645714 65.19975 z " fill="#f4fcff" fill-opacity="1"/>
<path d="M 20.138077 66.765495 C 19.90445 66.765495 19.676565 66.72398 19.46017 66.6372 C 18.74588 66.36173 18.284367 65.69382 18.284367 64.93911 L 18.284367 37.475388 C 18.284367 31.556612 23.171423 26.741592 29.176834 26.741592 L 57.476562 26.741592 C 63.4858 26.741592 68.37095 31.558498 68.37095 37.475384 L 68.37095 50.148773 C 68.37095 56.069435 63.483887 60.88256 57.476562 60.88256 L 26.530315 60.88256 L 21.49389 66.18626 C 21.143448 66.55418 20.649382 66.765495 20.138077 66.765495 L 20.138077 66.765495 z " fill-opacity="0.1"/>
<path d="M 20.138077 65.85042 C 20.023178 65.85042 19.90828 65.829666 19.79721 65.78627 C 19.442928 65.65042 19.209309 65.31081 19.209309 64.937225 L 19.209309 37.475388 C 19.209309 32.06038 23.68081 27.654785 29.174913 27.654785 L 57.474648 27.654785 C 62.970673 27.654785 67.44218 32.06038 67.44218 37.475388 L 67.44218 50.148773 C 67.44218 55.56567 62.970673 59.971268 57.474648 59.971268 L 26.126253 59.971268 L 20.81407 65.56175 C 20.63406 65.75043 20.388943 65.85042 20.138077 65.85042 L 20.138077 65.85042 z " fill-opacity="0.1"/>
<path d="M 57.47848 59.05618 L 40.98275 59.05618 L 29.176834 59.05618 L 25.72602 59.05618 L 20.138077 64.93722 L 20.138077 50.14877 L 20.138077 45.81298 L 20.138077 37.47538 C 20.138077 32.558475 24.184452 28.569859 29.176834 28.569859 L 57.47848 28.569859 C 62.470863 28.569859 66.51916 32.558475 66.51916 37.47538 L 66.51916 50.148766 C 66.517456 55.069443 62.470867 59.056175 57.478485 59.056175 z " fill-opacity="0.3"/>
<path d="M 57.47848 57.43545 L 40.98275 57.43545 L 29.176834 57.43545 L 25.72602 57.43545 L 20.138077 63.31649 L 20.138077 48.52993 L 20.138077 44.19415 L 20.138077 35.856544 C 20.138077 30.939636 24.184452 26.951023 29.176834 26.951023 L 57.47848 26.951023 C 62.470863 26.951023 66.51916 30.93964 66.51916 35.856544 L 66.51916 48.52993 C 66.517456 53.446835 62.470867 57.43545 57.478485 57.43545 z " fill="#f4fcff" fill-opacity="1"/>
</svg>
