<?xml version="1.0" encoding="UTF-8"?>
<svg xmlns="http://www.w3.org/2000/svg" xmlns:xlink="http://www.w3.org/1999/xlink" baseProfile="tiny" contentScriptType="text/ecmascript" contentStyleType="text/css" height="96px" preserveAspectRatio="xMidYMid meet" version="1.1" viewBox="0 0 96 96" width="96px" x="0px" y="0px" zoomAndPan="magnify">
<defs>
<linearGradient id="linearGradient3894">
<stop offset="0" stop-color="#689ee6" stop-opacity="1"/>
<stop offset="1" stop-color="#5392e6" stop-opacity="1"/>
</linearGradient>
<linearGradient gradientUnits="userSpaceOnUse" id="linearGradient3900" x1="36.067795" x2="36.067795" y1="15.79661" y2="87.398048">
<stop offset="0" stop-color="#689ee6" stop-opacity="1"/>
<stop offset="1" stop-color="#5392e6" stop-opacity="1"/>
</linearGradient>
</defs>
<path d="M 88.0 49.0 C 88.0 78.633 77.637 89.0 48.0 89.0 C 18.365 89.0 8.0 78.633 8.0 49.0 C 8.0 19.365 18.365 9.0 48.0 9.0 C 77.637 9.0 88.0 19.365 88.0 49.0 z " fill-opacity="0.4"/>
<rect fill="none" height="96" width="96"/>
<linearGradient gradientTransform="matrix(1 0 0 1 -271.7051 -517.4648)" gradientUnits="userSpaceOnUse" x1="319.7051" x2="319.7051" y1="525.4648" y2="541.4648">
<stop offset="0" stop-color="#007eda"/>
<stop offset="1" stop-color="#006abe"/>
</linearGradient>
<path d="M 84.004 24.0 C 78.652 12.49 67.499 8.0 48.0 8.0 C 28.502 8.0 17.348 12.49 11.995998 24.0 L 84.004 24.0 z " fill="#477ec8" fill-opacity="1"/>
<path d="M 48.0 88.0 C 77.639 88.0 88.0 77.634 88.0 48.0 C 88.0 36.524 86.436 27.949 82.811 21.735 L 46.303 21.735 C 45.749 21.056 44.752003 19.787 43.018 17.453 C 42.06 16.164 39.889 14.0 36.118 14.0 L 20.434 14.0 C 11.557 19.93 8.0 30.664 8.0 48.0 C 8.0 77.634 18.365 88.0 48.0 88.0 z " fill-opacity="0.02"/>
<path d="M 48.0 88.0 C 77.639 88.0 88.0 77.634 88.0 48.0 C 88.0 36.834 86.525 28.406 83.107 22.235 L 46.066 22.235 C 45.579 21.647 44.561 20.369 42.615 17.752 C 41.714 16.537 39.668003 14.500001 36.118 14.500001 L 19.71 14.500001 C 11.361 20.525 8.0 31.142 8.0 48.0 C 8.0 77.634 18.365 88.0 48.0 88.0 z " fill-opacity="0.05"/>
<path d="M 48.0 88.0 C 77.639 88.0 88.0 77.634 88.0 48.0 C 88.0 37.129 86.598 28.86 83.367 22.735 L 45.834 22.735 C 45.406 22.231 44.383 20.967 42.215 18.05 C 41.367 16.911 39.449 15.0 36.118 15.0 L 19.047 15.0 C 11.186 21.105 8.0 31.597 8.0 48.0 C 8.0 77.634 18.365 88.0 48.0 88.0 z " fill-opacity="0.05"/>
<path d="M 48.0 88.0 C 77.639 88.0 88.0 77.634 88.0 48.0 C 88.0 37.421 86.67 29.309 83.622 23.235 L 45.604 23.235 C 45.277 22.862 44.282 21.669 41.814 18.348 C 41.023 17.285 39.231 15.499 36.119 15.499 L 18.423 15.499 C 11.016 21.673 8.0 32.037 8.0 48.0 C 8.0 77.634 18.365 88.0 48.0 88.0 z " fill-opacity="0.1"/>
<linearGradient gradientTransform="matrix(1 0 0 1 -271.7051 -517.4648)" gradientUnits="userSpaceOnUse" x1="319.7051" x2="319.7051" y1="533.4648" y2="605.4648">
<stop offset="0" stop-color="#008def"/>
<stop offset="1" stop-color="#0067ba"/>
</linearGradient>
<path d="M 48.0 88.0 C 77.639 88.0 88.0 77.634 88.0 48.0 C 88.0 37.712 86.747 29.751 83.877 23.735 L 45.383 23.735 C 45.383 23.735 44.648 23.0 41.412 18.646 C 40.459 17.363 38.765 16.0 36.118 16.0 C 32.898 16.0 24.183 16.0 17.842 16.0 C 10.857 22.227 8.0 32.461 8.0 48.0 C 8.0 77.634 18.365 88.0 48.0 88.0 z " fill="url(#linearGradient3900)" fill-opacity="1"/>
<linearGradient gradientTransform="matrix(1 0 0 1 -77.7798 -1333.3066)" gradientUnits="userSpaceOnUse" id="SVGID_3_" x1="125.7803" x2="125.7803" y1="1341.5586" y2="1420.8032">
<stop offset="0" stop-color="#ffffff"/>
<stop offset="1" stop-color="#ffffff" stop-opacity="0"/>
</linearGradient>
<path d="M 48.0 8.0 C 18.365 8.0 8.0 18.366 8.0 48.0 C 8.0 77.634 18.365 88.0 48.0 88.0 C 77.639 88.0 88.0 77.634 88.0 48.0 C 88.0 18.365995 77.637 8.0 48.0 8.0 z M 48.0 87.0 C 18.842 87.0 9.0 77.158 9.0 48.0 C 9.0 18.842005 18.842 9.0 48.0 9.0 C 77.158005 9.0 87.0 18.842 87.0 48.0 C 87.0 77.158005 77.158 87.0 48.0 87.0 z " fill="url(#SVGID_3_)" fill-opacity="0.15"/>
<path d="M 83.269 72.615 L 74.289 63.632996 C 79.732 53.813995 77.973 41.084995 69.99301 33.107994 C 65.152 28.268991 58.724003 25.602991 51.884003 25.602991 C 45.042004 25.602991 38.612003 28.268991 33.771004 33.107994 C 28.932005 37.945995 26.270004 44.376995 26.270004 51.217995 C 26.270004 58.057995 28.933004 64.492 33.771004 69.33099 C 38.611004 74.16699 45.041004 76.829994 51.87801 76.829994 C 56.242004 76.829994 60.520004 75.72499 64.30101 73.620995 L 73.06901 82.396 C 77.674 80.257 81.002 77.062 83.269 72.615 z M 51.883 67.113 C 43.118 67.113 35.984 59.983 35.984 51.217 C 35.984 42.451 43.118 35.319 51.883003 35.319 C 60.647003 35.319 67.77901 42.452 67.77901 51.217 C 67.77901 59.982 60.646 67.113 51.883 67.113 z " fill-opacity="0.05"/>
<path d="M 82.841 73.433 L 73.18701 63.78 C 78.857 54.195 77.301 41.664 69.371 33.731 C 64.700005 29.06 58.486 26.488 51.884003 26.488 C 45.277004 26.488 39.067 29.06 34.396004 33.731 C 29.725004 38.401 27.152004 44.612 27.152004 51.219 C 27.152004 57.822 29.725004 64.035 34.396004 68.706 C 39.064003 73.375 45.273003 75.948 51.87801 75.948 C 56.324005 75.948 60.652008 74.765 64.44501 72.521 L 73.90101 81.978 C 77.797 79.99 80.736 77.189 82.841 73.433 z M 51.883 67.999 C 42.628 67.999 35.101997 60.472 35.101997 51.218 C 35.101997 41.963 42.628 34.437004 51.882996 34.437004 C 61.136993 34.437004 68.66 41.963005 68.66 51.218 C 68.66 60.472 61.137 67.999 51.883 67.999 z " fill-opacity="0.05"/>
<path d="M 82.373 74.217 L 72.07 63.914 C 77.978 54.56 76.629 42.24 68.743 34.355003 C 64.239 29.851004 58.247997 27.370005 51.880997 27.370005 C 45.512997 27.370005 39.525997 29.851002 35.019997 34.355003 C 30.514996 38.859005 28.035995 44.849003 28.035995 51.217003 C 28.035995 57.588 30.514996 63.573 35.020996 68.078 C 39.52399 72.58 45.509995 75.063 51.877 75.063 C 56.41 75.063 60.782997 73.796005 64.578995 71.402 L 74.724 81.54801 C 77.951 79.744 80.465 77.326 82.373 74.217 z M 51.883 68.884 C 42.143997 68.884 34.216 60.957 34.216 51.218 C 34.216 41.478004 42.143 33.554 51.883 33.554 C 61.624 33.554 69.547 41.478 69.547 51.218 C 69.547 60.957 61.624 68.884 51.883 68.884 z " fill-opacity="0.05"/>
<path d="M 81.886 74.976 L 70.939 64.032 C 77.093 54.918 75.956 42.817997 68.11801 34.977997 C 63.782005 30.641996 58.01701 28.252996 51.883003 28.252996 C 45.750004 28.252996 39.982 30.641996 35.643005 34.977997 C 31.308006 39.317997 28.919006 45.081997 28.919006 51.217995 C 28.919006 57.35099 31.308006 63.11499 35.643005 67.452995 C 39.979004 71.787994 45.74601 74.17799 51.877007 74.17799 C 56.488007 74.17799 60.907005 72.83399 64.69701 70.27699 L 75.504005 81.08299 C 78.102 79.494 80.209 77.473 81.886 74.976 z M 51.883 69.767 C 41.655 69.767 33.334 61.442 33.334 51.218 C 33.334 40.989 41.655 32.669 51.883 32.669 C 62.109 32.669 70.432 40.989 70.432 51.218 C 70.432 61.441 62.108 69.767 51.883 69.767 z " fill-opacity="0.1"/>
<path d="M 69.792 64.131 C 76.031 55.500996 75.27 43.378 67.493 35.603996 C 58.868996 26.980995 44.891 26.980995 36.268997 35.603996 C 27.645996 44.227997 27.645996 58.20499 36.268997 66.829994 C 44.039997 74.604 56.164997 75.36499 64.798 69.12499 L 69.050995 73.385994 L 77.174 81.506 C 78.977 80.213 80.781 78.298 82.022995 76.363 L 69.792 64.131 z M 51.883 70.648 C 41.148 70.648 32.452 61.947 32.452 51.217003 C 32.452 40.485 41.148 31.786003 51.883 31.786003 C 62.612 31.786003 71.314 40.485004 71.314 51.217003 C 71.313 61.947 62.612 70.648 51.883 70.648 z " fill-opacity="0.1"/>
<path d="M 81.376 75.715 L 69.792 64.131 C 76.031 55.500996 75.27 43.378 67.493 35.603996 C 58.868996 26.980995 44.891 26.980995 36.268997 35.603996 C 27.645996 44.227997 27.645996 58.20499 36.268997 66.829994 C 44.039997 74.604 56.164997 75.36499 64.798 69.12499 L 69.050995 73.385994 L 76.26599 80.59599 C 78.266 79.253 79.961 77.638 81.376 75.715 z M 51.883 70.648 C 41.148 70.648 32.452 61.947 32.452 51.217003 C 32.452 40.485 41.148 31.786003 51.883 31.786003 C 62.612 31.786003 71.314 40.485004 71.314 51.217003 C 71.313 61.947 62.612 70.648 51.883 70.648 z " fill-opacity="0.1"/>
<linearGradient gradientTransform="matrix(1 0 0 -1 -300.9004 -120.5996)" gradientUnits="userSpaceOnUse" x1="352.7822" x2="352.7822" y1="-161.1011" y2="-197.0005">
<stop offset="0" stop-color="#b2c3ce"/>
<stop offset="1" stop-color="#596275"/>
</linearGradient>
<circle cx="51.882999" cy="49.709999" fill="#ededed" fill-opacity="1" r="20.313999"/>
<linearGradient gradientTransform="matrix(1 0 0 -1 -300.9004 -120.5996)" gradientUnits="userSpaceOnUse" x1="352.7803" x2="352.7803" y1="-100.373" y2="-188.482">
<stop offset="0" stop-color="#929497"/>
<stop offset="0.1627" stop-color="#989a9d"/>
<stop offset="0.3834" stop-color="#a9abad"/>
<stop offset="0.6373" stop-color="#c6c7c8"/>
<stop offset="0.9139" stop-color="#ededee"/>
<stop offset="1" stop-color="#fbfbfb"/>
</linearGradient>
<path d="M 51.883 28.514 C 40.173 28.514 30.684 38.003 30.684 49.709 C 30.684 61.419 40.173 70.905 51.883 70.905 C 63.592 70.905 73.078 61.419 73.078 49.709 C 73.078 38.003 63.592 28.514 51.883 28.514 z M 51.883 69.141 C 41.148 69.141 32.452 60.44 32.452 49.709 C 32.452 38.978 41.148 30.278 51.883 30.278 C 62.612 30.278 71.314 38.978 71.314 49.709 C 71.313 60.439 62.612 69.141 51.883 69.141 z " fill="#808080" fill-opacity="1"/>
<linearGradient gradientTransform="matrix(1 0 0 -1 -300.9004 -120.5996)" gradientUnits="userSpaceOnUse" x1="371.7676" x2="376.6765" y1="-194.3486" y2="-189.4397">
<stop offset="0" stop-color="#e5e5e5"/>
<stop offset="0.2545" stop-color="#6d6e70"/>
<stop offset="0.3381" stop-color="#707173"/>
<stop offset="0.4038" stop-color="#7a7b7d"/>
<stop offset="0.4635" stop-color="#8b8b8d"/>
<stop offset="0.5195" stop-color="#a2a3a4"/>
<stop offset="0.5731" stop-color="#c0c1c2"/>
<stop offset="0.624" stop-color="#e5e5e6"/>
<stop offset="0.6545" stop-color="#ffffff"/>
<stop offset="0.8303" stop-color="#808184"/>
<stop offset="1" stop-color="#f4f4f4"/>
</linearGradient>
<path d="M 69.455 62.288 L 64.461 67.282 L 77.174 79.998 C 78.977 78.705 80.781 76.794 82.022995 74.855 L 69.455 62.288 z " fill="#aeaeae" fill-opacity="1"/>
<linearGradient gradientTransform="matrix(1 0 0 -1 -300.9004 -120.5996)" gradientUnits="userSpaceOnUse" x1="368.0898" x2="372.6821" y1="-185.4941" y2="-190.7926">
<stop offset="0" stop-color="#231f20"/>
<stop offset="1" stop-color="#231f20" stop-opacity="0"/>
</linearGradient>
<linearGradient gradientTransform="matrix(1 0 0 -1 -300.9004 -120.5996)" gradientUnits="userSpaceOnUse" x1="352.7813" x2="352.7813" y1="-156.3574" y2="-194.5395">
<stop offset="0" stop-color="#ffffff"/>
<stop offset="0.5743" stop-color="#b1b1b1"/>
<stop offset="1" stop-color="#ffffff"/>
</linearGradient>
<path d="M 67.493 34.096 C 58.86999 25.473 44.892 25.473 36.269993 34.096 C 27.645992 42.72 27.645992 56.7 36.269993 65.325 C 44.893 73.948 58.87099 73.948 67.493 65.325 C 76.115 56.698997 76.115 42.717995 67.493 34.095997 z M 37.518 64.074 C 29.585 56.142 29.585 43.279 37.518 35.344 C 45.451 27.409996 58.311 27.410994 66.247 35.344 C 74.177 43.276997 74.177 56.142 66.247 64.074 C 58.311 72.007 45.452003 72.007 37.518 64.074 z " fill="#aeaeae" fill-opacity="1"/>
<radialGradient cx="353.2793" cy="-188.4336" gradientTransform="matrix(1 0 0 -1 -300.9004 -120.5996)" gradientUnits="userSpaceOnUse" r="27.2528">
<stop offset="0" stop-color="#ffffff"/>
<stop offset="0.3721" stop-color="#ffffff"/>
<stop offset="1" stop-color="#ffffff" stop-opacity="0"/>
</radialGradient>
<linearGradient gradientTransform="matrix(1 0 0 -1 -300.9004 -120.5996)" gradientUnits="userSpaceOnUse" x1="352.7832" x2="352.7832" y1="-189.7402" y2="-150.8779">
<stop offset="0" stop-color="#000000" stop-opacity="0"/>
<stop offset="1" stop-color="#000000"/>
</linearGradient>
<path d="M 51.781303 30.261051 C 41.0483 30.261051 32.350304 38.96305 32.350304 49.69205 C 32.350304 60.42205 41.0483 69.124054 51.781303 69.124054 C 42.0423 69.124054 34.114304 61.197052 34.114304 51.460052 C 34.114304 41.721058 42.041306 37.327057 51.781303 37.327057 C 61.522305 37.327057 69.445305 41.721058 69.445305 51.460052 C 69.445305 61.197052 61.5223 69.124054 51.781303 69.124054 C 62.510303 69.124054 71.21231 60.423058 71.21231 49.692055 C 71.21131 38.962055 62.51031 30.261057 51.78131 30.261057 z " fill="#c6c6c6" fill-opacity="1"/>
<linearGradient gradientTransform="matrix(1 0 0 -1 -300.9004 -120.5996)" gradientUnits="userSpaceOnUse" x1="352.7832" x2="352.7832" y1="-172.957" y2="-150.8779">
<stop offset="0" stop-color="#000000" stop-opacity="0"/>
<stop offset="1" stop-color="#000000"/>
</linearGradient>
<linearGradient gradientTransform="matrix(1 0 0 -1 -300.9004 -120.5996)" gradientUnits="userSpaceOnUse" x1="352.7813" x2="352.7813" y1="-149.4438" y2="-165.918">
<stop offset="0" stop-color="#ffffff"/>
<stop offset="1" stop-color="#ffffff" stop-opacity="0"/>
</linearGradient>
</svg>
