<?xml version="1.0" encoding="UTF-8"?>
<svg xmlns="http://www.w3.org/2000/svg" xmlns:xlink="http://www.w3.org/1999/xlink" baseProfile="tiny" contentScriptType="text/ecmascript" contentStyleType="text/css" height="96px" preserveAspectRatio="xMidYMid meet" version="1.1" viewBox="0 0 96 96" width="96px" x="0px" y="0px" zoomAndPan="magnify">
<defs>
<linearGradient>
<stop offset="0" stop-color="#ffd758" stop-opacity="1"/>
<stop offset="1" stop-color="#ffcc58" stop-opacity="1"/>
</linearGradient>
<linearGradient gradientUnits="userSpaceOnUse" id="linearGradient3794" x1="49.132042" x2="49.132042" y1="16.476873" y2="87.39315">
<stop offset="0" stop-color="#ffd758" stop-opacity="1"/>
<stop offset="1" stop-color="#ffcc58" stop-opacity="1"/>
</linearGradient>
</defs>
<path d="M 88.0 49.0 C 88.0 78.635 77.639 89.0 48.0 89.0 C 18.365 89.0 8.0 78.635 8.0 49.0 C 8.0 19.367 18.365 9.0 48.0 9.0 C 77.637 9.0 88.0 19.367 88.0 49.0 z " fill-opacity="0.4"/>
<rect fill="none" height="96" width="96"/>
<linearGradient gradientUnits="userSpaceOnUse" x1="47.9995" x2="47.9995" y1="8" y2="24">
<stop offset="0" stop-color="#e4be34"/>
<stop offset="1" stop-color="#e0aa18"/>
</linearGradient>
<path d="M 84.004 24.0 C 78.653 12.49 67.499 8.0 48.0 8.0 C 28.502 8.0 17.348 12.49 11.995998 24.0 L 84.004 24.0 z " fill="#f5ab42" fill-opacity="1"/>
<path d="M 48.0 88.0 C 77.639 88.0 88.0 77.634 88.0 48.0 C 88.0 36.834 86.526 28.406 83.107 22.235 L 46.066 22.235 C 45.579 21.647 44.561 20.369 42.616 17.752 C 41.714 16.537 39.669003 14.500001 36.118 14.500001 L 19.71 14.500001 C 11.361 20.525 8.0 31.142 8.0 48.0 C 8.0 77.634 18.365 88.0 48.0 88.0 z " fill-opacity="0.05"/>
<path d="M 48.0 88.0 C 77.639 88.0 88.0 77.634 88.0 48.0 C 88.0 37.129 86.598 28.86 83.368 22.735 L 45.833 22.735 C 45.406 22.231 44.383 20.967 42.215 18.05 C 41.368 16.911 39.449 15.0 36.118 15.0 L 19.047 15.0 C 11.186 21.105 8.0 31.597 8.0 48.0 C 8.0 77.634 18.365 88.0 48.0 88.0 z " fill-opacity="0.05"/>
<path d="M 48.0 88.0 C 77.639 88.0 88.0 77.634 88.0 48.0 C 88.0 37.421 86.67 29.309 83.622 23.235 L 45.604 23.235 C 45.277 22.862 44.282 21.669 41.814 18.348 C 41.023 17.285 39.232 15.499 36.119 15.499 L 18.423 15.499 C 11.016 21.673 8.0 32.037 8.0 48.0 C 8.0 77.634 18.365 88.0 48.0 88.0 z " fill-opacity="0.1"/>
<linearGradient gradientUnits="userSpaceOnUse" x1="47.9995" x2="47.9995" y1="16" y2="88.0005">
<stop offset="0" stop-color="#e6cd49"/>
<stop offset="1" stop-color="#e0a714"/>
</linearGradient>
<path d="M 48.0 88.0 C 77.639 88.0 88.0 77.634 88.0 48.0 C 88.0 37.712 86.747 29.751 83.876 23.735 L 45.383 23.735 C 45.383 23.735 44.648 23.0 41.412 18.646 C 40.458 17.363 38.765 16.0 36.118 16.0 C 32.899 16.0 24.183 16.0 17.842 16.0 C 10.857 22.227 8.0 32.461 8.0 48.0 C 8.0 77.634 18.365 88.0 48.0 88.0 z " fill="url(#linearGradient3794)" fill-opacity="1"/>
<linearGradient gradientTransform="matrix(1 0 0 1 193.9253 -815.8408)" gradientUnits="userSpaceOnUse" id="SVGID_3_" x1="-145.9253" x2="-145.9253" y1="824.0938" y2="903.3385">
<stop offset="0" stop-color="#ffffff"/>
<stop offset="1" stop-color="#ffffff" stop-opacity="0"/>
</linearGradient>
<path d="M 48.0 8.0 C 18.365 8.0 8.0 18.366 8.0 48.0 C 8.0 77.634 18.365 88.0 48.0 88.0 C 77.639 88.0 88.0 77.634 88.0 48.0 C 88.0 18.365995 77.637 8.0 48.0 8.0 z M 48.0 87.0 C 18.842 87.0 9.0 77.158 9.0 48.0 C 9.0 18.842005 18.842 9.0 48.0 9.0 C 77.158005 9.0 87.0 18.842 87.0 48.0 C 87.0 77.158005 77.158 87.0 48.0 87.0 z " fill="url(#SVGID_3_)" fill-opacity="0.15"/>
<path d="M 47.768 70.792 C 45.289 70.792 43.535004 72.548 43.535004 74.966 C 43.535004 77.38401 45.289005 79.261 47.768005 79.261 C 50.248005 79.261 51.941017 77.387 51.941017 74.966 C 51.940018 72.548004 50.24801 70.79201 47.768005 70.79201 z M 48.494007 34.26101 C 45.47101 34.26101 42.446007 34.92701 39.543007 35.77301 L 39.543007 40.18901 C 42.145008 39.40201 44.80401 38.73601 47.52601 38.73601 C 51.94001 38.73601 54.96401 40.55101 54.96401 45.269012 C 54.96401 48.476017 52.78801 50.59201 50.48901 52.89001 C 47.28301 56.03601 44.86301 58.756012 44.86301 63.29201 L 44.86301 65.530014 L 50.610012 65.530014 L 50.610012 63.65501 C 50.610012 61.05401 51.93901 59.54301 54.964012 56.39801 C 57.98801 53.25201 61.55701 49.92601 61.55701 44.90501 C 61.558 36.922 55.631 34.261 48.494 34.261 z " fill="#dc9e0e" fill-opacity="1"/>
</svg>
