<?xml version="1.0" encoding="UTF-8"?>
<svg xmlns="http://www.w3.org/2000/svg" xmlns:xlink="http://www.w3.org/1999/xlink" baseProfile="tiny" contentScriptType="text/ecmascript" contentStyleType="text/css" height="96px" preserveAspectRatio="xMidYMid meet" version="1.1" viewBox="0 0 96 96" width="96px" x="0px" y="0px" zoomAndPan="magnify">
<defs>
<linearGradient>
<stop offset="0" stop-color="#ffd758" stop-opacity="1"/>
<stop offset="1" stop-color="#ffcc58" stop-opacity="1"/>
</linearGradient>
<linearGradient gradientUnits="userSpaceOnUse" id="linearGradient3794" x1="49.132042" x2="49.132042" y1="16.476873" y2="87.39315">
<stop offset="0" stop-color="#ffd758" stop-opacity="1"/>
<stop offset="1" stop-color="#ffcc58" stop-opacity="1"/>
</linearGradient>
</defs>
<path d="M 88.0 49.0 C 88.0 78.635 77.639 89.0 48.0 89.0 C 18.365 89.0 8.0 78.635 8.0 49.0 C 8.0 19.367 18.365 9.0 48.0 9.0 C 77.637 9.0 88.0 19.367 88.0 49.0 z " fill-opacity="0.4"/>
<rect fill="none" height="96" width="96"/>
<linearGradient gradientUnits="userSpaceOnUse" x1="47.9995" x2="47.9995" y1="8" y2="24">
<stop offset="0" stop-color="#e4be34"/>
<stop offset="1" stop-color="#e0aa18"/>
</linearGradient>
<path d="M 84.004 24.0 C 78.653 12.49 67.499 8.0 48.0 8.0 C 28.502 8.0 17.348 12.49 11.995998 24.0 L 84.004 24.0 z " fill="#fbf46b" fill-opacity="1"/>
<path d="M 48.0 88.0 C 77.639 88.0 88.0 77.634 88.0 48.0 C 88.0 36.834 86.526 28.406 83.107 22.235 L 46.066 22.235 C 45.579 21.647 44.561 20.369 42.616 17.752 C 41.714 16.537 39.669003 14.500001 36.118 14.500001 L 19.71 14.500001 C 11.361 20.525 8.0 31.142 8.0 48.0 C 8.0 77.634 18.365 88.0 48.0 88.0 z " fill-opacity="0.05"/>
<path d="M 48.0 88.0 C 77.639 88.0 88.0 77.634 88.0 48.0 C 88.0 37.129 86.598 28.86 83.368 22.735 L 45.833 22.735 C 45.406 22.231 44.383 20.967 42.215 18.05 C 41.368 16.911 39.449 15.0 36.118 15.0 L 19.047 15.0 C 11.186 21.105 8.0 31.597 8.0 48.0 C 8.0 77.634 18.365 88.0 48.0 88.0 z " fill-opacity="0.05"/>
<path d="M 48.0 88.0 C 77.639 88.0 88.0 77.634 88.0 48.0 C 88.0 37.421 86.67 29.309 83.622 23.235 L 45.604 23.235 C 45.277 22.862 44.282 21.669 41.814 18.348 C 41.023 17.285 39.232 15.499 36.119 15.499 L 18.423 15.499 C 11.016 21.673 8.0 32.037 8.0 48.0 C 8.0 77.634 18.365 88.0 48.0 88.0 z " fill-opacity="0.1"/>
<linearGradient gradientUnits="userSpaceOnUse" x1="47.9995" x2="47.9995" y1="16" y2="88.0005">
<stop offset="0" stop-color="#e6cd49"/>
<stop offset="1" stop-color="#e0a714"/>
</linearGradient>
<path d="M 48.0 88.0 C 77.639 88.0 88.0 77.634 88.0 48.0 C 88.0 37.712 86.747 29.751 83.876 23.735 L 45.383 23.735 C 45.383 23.735 44.648 23.0 41.412 18.646 C 40.458 17.363 38.765 16.0 36.118 16.0 C 32.899 16.0 24.183 16.0 17.842 16.0 C 10.857 22.227 8.0 32.461 8.0 48.0 C 8.0 77.634 18.365 88.0 48.0 88.0 z " fill="url(#linearGradient3794)" fill-opacity="1"/>
<linearGradient gradientTransform="matrix(1 0 0 1 193.9253 -815.8408)" gradientUnits="userSpaceOnUse" id="SVGID_3_" x1="-145.9253" x2="-145.9253" y1="824.0938" y2="903.3385">
<stop offset="0" stop-color="#ffffff"/>
<stop offset="1" stop-color="#ffffff" stop-opacity="0"/>
</linearGradient>
<path d="M 48.0 8.0 C 18.365 8.0 8.0 18.366 8.0 48.0 C 8.0 77.634 18.365 88.0 48.0 88.0 C 77.639 88.0 88.0 77.634 88.0 48.0 C 88.0 18.365995 77.637 8.0 48.0 8.0 z M 48.0 87.0 C 18.842 87.0 9.0 77.158 9.0 48.0 C 9.0 18.842005 18.842 9.0 48.0 9.0 C 77.158005 9.0 87.0 18.842 87.0 48.0 C 87.0 77.158005 77.158 87.0 48.0 87.0 z " fill="url(#SVGID_3_)" fill-opacity="0.15"/>
<path d="M 65.073 37.98079 C 65.073 37.16679 64.407 36.49979 63.593 36.49979 L 33.962997 36.49979 C 33.149002 36.49979 32.482002 37.16679 32.482002 37.98079 L 32.482002 40.94379 L 65.073 40.94379 L 65.073 37.98079 z M 47.686996 66.68879 L 59.674995 54.70979 L 62.278996 52.09979 C 62.979996 51.401787 63.906994 51.019787 64.894 51.019787 C 64.957 51.019787 65.013 51.035786 65.076 51.038788 L 65.076 42.42579 L 32.482002 42.42579 L 32.482002 73.53679 C 32.482002 74.35279 33.149002 75.01879 33.962997 75.01879 L 44.261997 75.01879 L 46.277996 68.96879 C 46.535995 68.20579 47.127995 67.252785 47.686996 66.68879 z M 44.591995 68.40779 L 43.758995 70.901794 C 43.728996 70.90579 43.69799 70.9108 43.666996 70.9108 C 42.442997 70.9108 41.393 70.4548 40.547 69.5598 C 38.823 67.7368 38.25 64.2218 38.444 61.549797 C 38.772 56.9228 41.178 49.260796 46.459995 47.113792 C 47.382996 46.7358 48.389996 46.5348 49.355995 46.5348 C 50.990993 46.5348 52.411995 47.106792 53.458996 48.189793 C 54.292995 49.049797 54.777996 50.18479 54.845997 51.410797 C 55.279995 51.6438 55.539997 52.050797 55.555996 52.5408 C 55.589996 53.8538 55.51699 55.1868 55.363995 56.507797 L 51.289993 60.576797 C 51.610992 59.5178 51.87599 58.4098 52.018993 57.1948 L 52.047993 56.265797 C 51.589993 56.2288 51.205994 56.015797 50.948994 55.656796 C 50.623993 55.468796 50.788994 54.968796 50.962994 54.440796 C 51.249992 53.551796 51.734993 52.065796 50.713993 50.065796 C 50.42499 49.4948 49.962994 49.373795 49.62599 49.373795 C 49.165993 49.373795 48.604992 49.604794 47.963993 50.065796 C 46.595993 51.049797 45.435993 52.495796 44.513992 54.357796 C 43.00999 57.41579 42.311993 59.986797 42.323994 62.442795 C 42.32999 63.826794 42.384995 65.40679 42.942993 66.665794 C 43.349995 67.58579 43.94099 68.041794 44.73999 68.05979 C 44.688995 68.17479 44.629993 68.29479 44.591995 68.40779 z M 68.95799 56.06679 L 66.246994 53.35379 C 65.50099 52.61079 64.283005 52.61079 63.536003 53.35379 L 62.189003 54.70779 L 67.61199 60.12979 L 68.95799 58.77679 C 69.704994 58.03279 69.704994 56.81279 68.95799 56.06679 z M 48.944992 67.94579 C 48.574993 68.318794 48.131992 69.03279 47.965992 69.52879 L 45.86199 75.8448 C 45.694992 76.3448 45.96699 76.6168 46.46799 76.4498 L 52.78299 74.3458 C 53.28399 74.1798 53.993988 73.7368 54.36999 73.3658 L 66.32299 61.419792 L 60.90099 55.997787 L 48.94499 67.94579 z M 52.023987 73.00279 L 49.147987 74.0108 L 48.310986 73.166794 L 49.317986 70.291794 L 49.881985 69.721794 L 52.589985 72.43579 L 52.023987 73.00279 z " fill="#fbf46b" fill-opacity="1"/>
</svg>
