<?xml version="1.0" encoding="UTF-8"?>
<svg xmlns="http://www.w3.org/2000/svg" xmlns:xlink="http://www.w3.org/1999/xlink" baseProfile="tiny" contentScriptType="text/ecmascript" contentStyleType="text/css" height="96px" preserveAspectRatio="xMidYMid meet" version="1.1" viewBox="0 0 96 96" width="96px" x="0px" y="0px" zoomAndPan="magnify">
<defs>
<linearGradient>
<stop offset="0" stop-color="#ffd758" stop-opacity="1"/>
<stop offset="1" stop-color="#ffcc58" stop-opacity="1"/>
</linearGradient>
<linearGradient gradientUnits="userSpaceOnUse" id="linearGradient3794" x1="49.132042" x2="49.132042" y1="16.476873" y2="87.39315">
<stop offset="0" stop-color="#ffd758" stop-opacity="1"/>
<stop offset="1" stop-color="#ffcc58" stop-opacity="1"/>
</linearGradient>
</defs>
<path d="M 88.0 49.0 C 88.0 78.635 77.639 89.0 48.0 89.0 C 18.365 89.0 8.0 78.635 8.0 49.0 C 8.0 19.367 18.365 9.0 48.0 9.0 C 77.637 9.0 88.0 19.367 88.0 49.0 z " fill-opacity="0.4"/>
<rect fill="none" height="96" width="96"/>
<linearGradient gradientUnits="userSpaceOnUse" x1="47.9995" x2="47.9995" y1="8" y2="24">
<stop offset="0" stop-color="#e4be34"/>
<stop offset="1" stop-color="#e0aa18"/>
</linearGradient>
<path d="M 84.004 24.0 C 78.653 12.49 67.499 8.0 48.0 8.0 C 28.502 8.0 17.348 12.49 11.995998 24.0 L 84.004 24.0 z " fill="#f5ab42" fill-opacity="1"/>
<path d="M 48.0 88.0 C 77.639 88.0 88.0 77.634 88.0 48.0 C 88.0 36.834 86.526 28.406 83.107 22.235 L 46.066 22.235 C 45.579 21.647 44.561 20.369 42.616 17.752 C 41.714 16.537 39.669003 14.500001 36.118 14.500001 L 19.71 14.500001 C 11.361 20.525 8.0 31.142 8.0 48.0 C 8.0 77.634 18.365 88.0 48.0 88.0 z " fill-opacity="0.05"/>
<path d="M 48.0 88.0 C 77.639 88.0 88.0 77.634 88.0 48.0 C 88.0 37.129 86.598 28.86 83.368 22.735 L 45.833 22.735 C 45.406 22.231 44.383 20.967 42.215 18.05 C 41.368 16.911 39.449 15.0 36.118 15.0 L 19.047 15.0 C 11.186 21.105 8.0 31.597 8.0 48.0 C 8.0 77.634 18.365 88.0 48.0 88.0 z " fill-opacity="0.05"/>
<path d="M 48.0 88.0 C 77.639 88.0 88.0 77.634 88.0 48.0 C 88.0 37.421 86.67 29.309 83.622 23.235 L 45.604 23.235 C 45.277 22.862 44.282 21.669 41.814 18.348 C 41.023 17.285 39.232 15.499 36.119 15.499 L 18.423 15.499 C 11.016 21.673 8.0 32.037 8.0 48.0 C 8.0 77.634 18.365 88.0 48.0 88.0 z " fill-opacity="0.1"/>
<linearGradient gradientUnits="userSpaceOnUse" x1="47.9995" x2="47.9995" y1="16" y2="88.0005">
<stop offset="0" stop-color="#e6cd49"/>
<stop offset="1" stop-color="#e0a714"/>
</linearGradient>
<path d="M 48.0 88.0 C 77.639 88.0 88.0 77.634 88.0 48.0 C 88.0 37.712 86.747 29.751 83.876 23.735 L 45.383 23.735 C 45.383 23.735 44.648 23.0 41.412 18.646 C 40.458 17.363 38.765 16.0 36.118 16.0 C 32.899 16.0 24.183 16.0 17.842 16.0 C 10.857 22.227 8.0 32.461 8.0 48.0 C 8.0 77.634 18.365 88.0 48.0 88.0 z " fill="url(#linearGradient3794)" fill-opacity="1"/>
<linearGradient gradientTransform="matrix(1 0 0 1 193.9253 -815.8408)" gradientUnits="userSpaceOnUse" id="SVGID_3_" x1="-145.9253" x2="-145.9253" y1="824.0938" y2="903.3385">
<stop offset="0" stop-color="#ffffff"/>
<stop offset="1" stop-color="#ffffff" stop-opacity="0"/>
</linearGradient>
<path d="M 48.0 8.0 C 18.365 8.0 8.0 18.366 8.0 48.0 C 8.0 77.634 18.365 88.0 48.0 88.0 C 77.639 88.0 88.0 77.634 88.0 48.0 C 88.0 18.365995 77.637 8.0 48.0 8.0 z M 48.0 87.0 C 18.842 87.0 9.0 77.158 9.0 48.0 C 9.0 18.842005 18.842 9.0 48.0 9.0 C 77.158005 9.0 87.0 18.842 87.0 48.0 C 87.0 77.158005 77.158 87.0 48.0 87.0 z " fill="url(#SVGID_3_)" fill-opacity="0.15"/>
<path d="M 33.70342 78.5 C 30.899408 78.5 28.704418 77.289 27.975409 75.34 C 26.87642 72.401985 29.440418 68.692986 33.69042 67.073 C 34.99342 66.576 36.365417 66.312996 37.65942 66.312996 C 38.83942 66.312996 39.92442 66.523994 40.84242 66.92999 L 40.84242 41.068 C 40.84242 39.831 41.81842 38.582 43.018417 38.284 L 61.879417 33.568 C 62.060417 33.523003 62.240417 33.5 62.417408 33.5 C 63.496407 33.5 64.27942 34.317 64.27942 35.443 L 64.27942 66.741 L 64.24142 66.741 C 63.95442 69.256996 61.58941 71.801994 58.30842 73.051994 C 56.99942 73.55 55.62341 73.813 54.32742 73.813 C 51.52342 73.813 49.32942 72.602005 48.59942 70.65401 C 47.50142 67.716 50.06442 64.006004 54.31442 62.38601 C 55.61742 61.889008 56.990417 61.62601 58.28342 61.62601 C 59.46442 61.62601 60.54942 61.83701 61.467422 62.24301 L 61.467422 44.01201 L 43.654423 48.47501 L 43.654423 71.42901 L 43.616425 71.42901 C 43.329426 73.94501 40.964424 76.490005 37.683426 77.740005 C 36.375427 78.23701 34.999428 78.50001 33.703426 78.50001 z " fill="#dc9e0e" fill-opacity="1"/>
</svg>
