<?xml version="1.0" encoding="UTF-8"?>
<svg xmlns="http://www.w3.org/2000/svg" xmlns:xlink="http://www.w3.org/1999/xlink" baseProfile="tiny" contentScriptType="text/ecmascript" contentStyleType="text/css" height="96px" preserveAspectRatio="xMidYMid meet" version="1.1" viewBox="0 0 96 96" width="96px" x="0px" y="0px" zoomAndPan="magnify">
<defs>
<linearGradient id="linearGradient3840">
<stop offset="0" stop-color="#62d5fa" stop-opacity="1"/>
<stop offset="1" stop-color="#1dc2f8" stop-opacity="1"/>
</linearGradient>
<linearGradient gradientUnits="userSpaceOnUse" id="linearGradient3846" x1="47.457626" x2="47.457626" y1="8.8591671" y2="62.151615">
<stop offset="0" stop-color="#62d5fa" stop-opacity="1"/>
<stop offset="1" stop-color="#1dc2f8" stop-opacity="1"/>
</linearGradient>
</defs>
<path d="M 88.0 49.0 C 88.0 78.633 77.637 89.0 48.0 89.0 C 18.365 89.0 8.0 78.633 8.0 49.0 C 8.0 19.365 18.365 9.0 48.0 9.0 C 77.637 9.0 88.0 19.365 88.0 49.0 z " fill-opacity="0.4"/>
<linearGradient gradientUnits="userSpaceOnUse" x1="48.0005" x2="48.0005" y1="64.0918" y2="7.2435">
<stop offset="0" stop-color="#cee6f4"/>
<stop offset="0.6319" stop-color="#00a5db"/>
<stop offset="1" stop-color="#0049b5"/>
</linearGradient>
<path d="M 48.0 8.0 C 18.365 8.0 8.0 18.365 8.0 48.0 C 8.0 49.629 8.037 51.191 8.102 52.705 C 9.305 52.711 11.498 52.775 12.961 53.135 C 15.518001 53.764004 22.44 55.668003 22.51 55.686 L 22.668 55.731 L 22.836 55.721 C 22.857 55.719 25.098 55.586 26.623 55.586 C 26.982 55.586 27.303 55.592003 27.541 55.611004 L 28.014 55.650005 C 29.141 55.740005 30.418 55.843006 31.223 56.025005 C 32.153 56.236004 33.031998 56.435005 34.139 56.834007 C 34.653 57.022007 35.823 57.279007 37.686 57.68601 C 39.959 58.182007 42.786 58.799007 44.053 59.28201 C 44.52 59.46001 45.369003 59.71001 46.641003 60.04401 L 47.151 60.15901 L 47.501 59.93801 C 48.183 59.50201 49.294 58.88301 49.724 58.65301 C 50.185 58.40501 52.732 57.78401 54.771 57.41901 C 56.441 57.12001 59.783 55.89801 59.925 55.84501 L 59.991 55.82201 L 60.054 55.78901 C 60.07 55.77901 61.613 54.95301 62.525 54.598007 C 62.785 54.49601 63.074 54.369007 63.38 54.23501 C 64.15 53.89901 65.107 53.479008 65.804 53.42201 C 66.841 53.33601 68.794 53.06801 70.228 52.24001 C 70.865 51.87301 71.433 51.85301 71.885994 51.83801 C 72.144 51.82801 72.356995 51.81501 72.519 51.77901 C 72.851 51.707012 73.341 51.49001 74.304 51.047012 C 74.72 50.85401 75.111 50.672012 75.318 50.59801 C 75.693 50.463013 76.261 50.463013 77.297 50.463013 C 77.744 50.463013 77.826 50.543015 78.096 50.809013 C 78.246 50.957012 78.401 51.102013 78.582 51.231014 C 79.133 51.627014 80.236 52.317013 80.236 52.317013 C 80.281 52.346012 81.345 53.010017 82.431 53.592014 C 83.367 54.094013 85.712 54.582016 87.652 54.951015 L 87.775 54.974014 C 87.922 52.773 88.0 50.459 88.0 48.0 C 88.0 18.365 77.637 8.0 48.0 8.0 z " fill="url(#linearGradient3846)" fill-opacity="1"/>
<linearGradient gradientUnits="userSpaceOnUse" x1="63.8428" x2="61.5986" y1="50.6309" y2="66.3398">
<stop offset="0" stop-color="#509600"/>
<stop offset="1" stop-color="#005600"/>
</linearGradient>
<path d="M 84.432 71.0 C 86.368 66.42 87.457 60.793 87.836 53.967 C 86.725 53.754 83.813 53.197 82.902 52.709 C 81.834 52.137 80.765 51.467 80.765 51.467 C 80.765 51.467 79.697 50.799 79.161 50.416 C 78.628006 50.035 78.450005 49.461 77.29401 49.461 C 76.13601 49.461 75.51301 49.462997 74.98 49.654 C 74.445 49.843 72.753006 50.703 72.30801 50.799 C 71.86301 50.895 70.884 50.703 69.726006 51.373 C 68.57001 52.041 66.878006 52.326 65.72001 52.422 C 64.56201 52.518 63.13801 53.281 62.159008 53.664 C 61.17901 54.045 59.577007 54.906 59.577007 54.906 C 59.577007 54.906 56.194008 56.146004 54.593006 56.433 C 52.98901 56.72 49.96201 57.388004 49.24901 57.771004 C 48.792007 58.015003 47.409008 58.785004 46.71801 59.250004 C 44.676 60.625 39.455 66.4 36.164 71.0 L 84.432 71.0 z " fill="#5aa800" fill-opacity="1"/>
<linearGradient gradientUnits="userSpaceOnUse" x1="47.3193" x2="42.1094" y1="54.7568" y2="92.3372">
<stop offset="0" stop-color="#509600"/>
<stop offset="1" stop-color="#005600"/>
</linearGradient>
<path d="M 84.906 69.824 C 83.847 69.515 82.459 69.109 81.527 68.898 C 80.107 68.579994 75.498 66.767 73.961 66.340996 C 72.424 65.912994 70.65 65.38 68.996 64.741 C 67.342 64.1 66.16 63.674995 65.449005 63.248997 C 64.740005 62.820995 62.849007 62.608 60.957005 62.289997 C 59.45501 62.035995 51.318005 60.234997 46.908005 59.076996 C 45.765003 58.777996 44.869003 58.519997 44.408005 58.344997 C 42.162006 57.490997 35.660004 56.319996 34.478004 55.893997 C 33.296005 55.465996 32.349003 55.254997 31.404003 55.039997 C 30.459003 54.826996 28.922005 54.721996 27.623005 54.614 C 26.322004 54.507 22.775003 54.720997 22.775003 54.720997 C 22.775003 54.720997 15.800005 52.801 13.199005 52.161995 C 11.697005 51.792995 9.539005 51.708996 8.066006 51.702995 C 8.934 78.492 19.641 88.0 48.0 88.0 C 68.68 88.0 79.967 82.943 84.906 69.824 z " fill="#5aa800" fill-opacity="1"/>
<linearGradient gradientUnits="userSpaceOnUse" id="SVGID_4_" x1="47.9995" x2="47.9995" y1="8" y2="88.0005">
<stop offset="0" stop-color="#ffffff"/>
<stop offset="1" stop-color="#ffffff" stop-opacity="0"/>
</linearGradient>
<path d="M 48.0 8.0 C 18.365 8.0 8.0 18.365 8.0 48.0 C 8.0 77.633 18.365 88.0 48.0 88.0 C 77.637 88.0 88.0 77.633 88.0 48.0 C 88.0 18.365 77.637 8.0 48.0 8.0 z M 48.0 87.0 C 18.842 87.0 9.0 77.16 9.0 48.0 C 9.0 18.842 18.842 9.0 48.0 9.0 C 77.16 9.0 87.0 18.842 87.0 48.0 C 87.0 77.16 77.16 87.0 48.0 87.0 z " fill="url(#SVGID_4_)" fill-opacity="0.15" stroke-opacity="0.15"/>
<linearGradient gradientUnits="userSpaceOnUse" x1="48.6455" x2="42.878" y1="51.7813" y2="75.7812">
<stop offset="0" stop-color="#509600"/>
<stop offset="1" stop-color="#005600"/>
</linearGradient>
<path d="M 84.619 70.502 C 84.711006 70.273 84.816 70.059 84.906006 69.824 C 83.84701 69.515 82.45901 69.109 81.52701 68.898 C 80.10701 68.579994 75.49801 66.767 73.961006 66.340996 C 72.424 65.912994 70.65001 65.38 68.996 64.741 C 67.342 64.1 66.16 63.674995 65.449005 63.248997 C 64.740005 62.820995 62.849007 62.608 60.957005 62.289997 C 59.45501 62.035995 51.318005 60.234997 46.908005 59.076996 C 45.765003 58.777996 44.869003 58.519997 44.408005 58.344997 C 42.162006 57.490997 35.660004 56.319996 34.478004 55.893997 C 33.296005 55.465996 32.349003 55.254997 31.404003 55.039997 C 30.459003 54.826996 28.922005 54.721996 27.623005 54.614 C 26.322004 54.507 22.775003 54.720997 22.775003 54.720997 C 22.775003 54.720997 15.800005 52.801 13.199005 52.161995 C 11.697005 51.792995 9.539005 51.708996 8.066006 51.702995 C 8.246006 57.268997 8.859006 62.07999 9.961006 66.224 C 49.0 57.0 56.174 72.822 84.619 70.502 z " fill="#269d29" fill-opacity="1"/>
<linearGradient gradientUnits="userSpaceOnUse" x1="62.5205" x2="62.5205" y1="69.875" y2="89.8709">
<stop offset="0" stop-color="#509600"/>
<stop offset="1" stop-color="#005600"/>
</linearGradient>
<path d="M 82.416 74.881 C 63.162003 74.895 49.898 82.279 42.625 87.870995 C 44.342 87.957 46.131 88.0 48.0 88.0 C 65.766 88.0 76.584 84.25 82.416 74.881 z " fill="#269d29" fill-opacity="1"/>
<linearGradient gradientUnits="userSpaceOnUse" x1="38.4907" x2="38.4907" y1="25.3394" y2="36.6677">
<stop offset="0" stop-color="#ffffff"/>
<stop offset="1" stop-color="#ffffff" stop-opacity="0"/>
</linearGradient>
<path d="M 49.326 28.4 C 49.326 28.4 49.537 28.55 49.375 28.593 C 49.215 28.636 49.176 28.593 49.15 28.702 C 49.125 28.809 48.951 28.958 48.902 28.864 C 48.851 28.766 48.564 28.635 48.504 28.635 C 48.44 28.635 48.414 28.475 48.316 28.422 C 48.216003 28.367 48.128 28.289 48.064003 28.334002 C 48.003 28.377 47.800003 28.582 47.800003 28.484 C 47.800003 28.386002 47.552 28.312 47.716003 28.3 C 47.878 28.288002 48.128 28.193 47.941 28.097002 C 47.752003 28.001 47.566 27.804005 47.701 27.718002 C 47.842 27.632002 47.777 27.470003 47.814 27.384005 C 47.851 27.298002 47.941 27.265003 48.078 27.265003 C 48.217 27.265003 48.328 27.201004 48.176 27.105003 C 48.028 27.007004 47.752 26.843004 47.666 26.855003 C 47.58 26.869003 47.254 27.039003 47.303 26.953005 C 47.354 26.869003 47.592003 26.803003 47.629 26.769005 C 47.666 26.738005 47.692 26.693005 47.527 26.650003 C 47.365 26.607004 47.168 26.812004 47.091 26.781004 C 47.017 26.748005 46.777 26.748005 46.829 26.640003 C 46.878 26.533005 46.753 26.445004 46.914997 26.413004 C 47.079 26.382004 47.215996 26.315004 47.052 26.218004 C 46.89 26.122004 46.591 26.273005 46.526997 26.122004 C 46.465996 25.972004 46.33 25.774004 46.130997 25.852003 C 45.929996 25.926004 45.754 26.186005 45.629 26.088003 C 45.505997 25.990004 45.481 25.895002 45.217 25.938004 C 44.957 25.981005 44.895 26.165005 44.717 26.122004 C 44.543 26.079004 44.594 25.905005 44.418 25.960005 C 44.244 26.013002 44.119 26.067003 44.17 26.218002 C 44.220997 26.370005 43.945 26.640003 43.945 26.640003 C 43.945 26.640003 44.17 26.370005 44.07 26.273005 C 43.97 26.176004 43.744 26.316002 43.656 26.382002 C 43.57 26.445002 43.32 26.802002 43.183 26.79 C 43.046 26.78 42.921 26.79 42.87 26.888 C 42.821 26.984 42.485 27.523 42.321 27.503 C 42.159 27.482 42.059 27.437 42.059 27.384 C 42.059 27.329 42.545 26.738 41.92 26.456 C 41.92 26.456 41.695 26.52 41.684 26.403002 C 41.67 26.282 41.272 26.089005 40.934 26.37 L 40.809 26.206 C 40.809 26.206 40.734997 25.96 40.286 25.841002 C 39.837 25.724 40.057 25.648 39.811 25.605 C 39.559 25.562002 39.284 25.474 39.123 25.496002 C 38.961 25.519005 38.685 25.734003 38.662003 25.637005 C 38.635 25.539003 38.500004 25.379004 38.500004 25.379004 C 38.500004 25.379004 38.648003 25.121004 38.400005 25.078005 C 38.148006 25.033005 38.023006 25.238005 37.925007 25.195004 C 37.82301 25.154003 37.675007 24.968004 37.562008 25.002005 C 37.44901 25.033005 37.15001 25.229002 37.175007 25.326002 C 37.20001 25.422005 37.025005 25.574 37.025005 25.574 C 37.025005 25.574 36.912006 25.539 36.937004 25.388 C 36.962 25.237 36.738003 25.259 36.701004 25.247 C 36.666004 25.237 36.625004 25.28 36.47601 25.378 C 36.326004 25.474 36.08701 25.573 36.12801 25.681 C 36.16301 25.786 36.026005 25.874 35.937004 25.917 C 35.85101 25.96 35.791004 26.036 35.779003 26.079 C 35.765003 26.122 35.488003 26.186 35.451004 26.327 C 35.416004 26.468 35.44101 26.649 35.314003 26.671 C 35.189003 26.692 34.828003 26.79 34.816 26.921 C 34.804 27.05 34.828003 27.179 34.951 27.114 C 35.08 27.05 35.416 26.94 35.314 27.016 C 35.214 27.092 35.128 27.157 34.902 27.233 C 34.677 27.307 34.515 27.393 34.515 27.317 C 34.515 27.243 34.54 27.2 34.392 27.169 C 34.241997 27.135998 34.031 27.286 33.98 27.255 C 33.929 27.221998 33.992 27.148 34.017 27.105 C 34.042 27.06 34.154 26.996 33.98 26.984 C 33.804 26.972 33.58 26.908 33.58 27.05 C 33.58 27.191 33.554996 27.384 33.491997 27.308 C 33.430996 27.234 33.389996 27.114998 33.389996 27.081 C 33.389996 27.05 33.229996 27.169 33.203995 27.114 C 33.177994 27.059002 33.139996 26.887 33.078995 26.887 C 33.015995 26.887 32.926994 26.961 32.904995 27.071 C 32.877995 27.178 32.853996 27.274 32.691994 27.274 C 32.52999 27.274 32.529995 27.329 32.666992 27.448 C 32.803993 27.565 32.89199 27.46 33.041992 27.546 C 33.191994 27.632 33.275993 27.751 33.053993 27.804 C 32.828995 27.856998 32.877995 27.794 32.692993 27.73 C 32.503994 27.666 32.503994 27.503 32.379993 27.482 C 32.252995 27.461 32.006992 27.589 31.955994 27.707 C 31.904991 27.826 32.066994 27.857 32.268993 27.85 C 32.467995 27.838 32.643993 27.934 32.393993 27.955 C 32.143993 27.976 31.981993 27.902 31.817991 27.857 C 31.655993 27.816 31.555994 27.752 31.454992 27.89 C 31.356993 28.033 31.454992 28.009 31.243992 28.064 C 31.030993 28.117 31.044992 28.171 31.132992 28.226002 C 31.220991 28.281002 31.232992 28.408 31.419992 28.408 C 31.606993 28.408 31.732992 28.422 31.655993 28.474 C 31.583992 28.529 31.294992 28.505 31.243992 28.603 C 31.192991 28.701 31.081991 28.83 31.257992 28.894 C 31.431992 28.957 31.405993 29.132002 31.318993 29.152 C 31.232992 29.175 31.132992 29.099 30.996992 29.24 C 30.857992 29.381 30.920992 29.412 30.621992 29.381 C 30.322992 29.348 30.096992 29.436 29.996992 29.52 C 29.896992 29.606 29.410992 29.952 29.283993 29.885 C 29.160994 29.821 29.010992 29.703 28.933992 29.727 C 28.859991 29.747 28.884993 29.897 28.910992 29.942 C 28.933992 29.983 28.709991 30.081 28.822992 30.102 C 28.933992 30.123 29.047993 30.135 29.084991 30.157 C 29.12199 30.179 29.084991 30.245 29.021992 30.286 C 28.96099 30.331 28.859991 30.405 28.859991 30.448 C 28.859991 30.491 28.82699 30.616 28.785992 30.632 C 28.609991 30.698 28.373993 30.859 28.609991 30.966 C 28.84999 31.075 29.09999 31.064 29.035992 31.15 C 28.972992 31.236 28.771992 31.205 28.748993 31.3 C 28.723991 31.398 28.660992 31.484 28.609991 31.452 C 28.560991 31.419 28.57299 31.321 28.560991 31.268 C 28.546991 31.215 28.52399 31.041 28.386992 31.149 C 28.247992 31.256 28.296991 31.364 28.234991 31.397 C 28.171991 31.428 28.14899 31.442 28.074991 31.442 C 27.998993 31.442 27.89899 31.408998 27.847992 31.462 C 27.798992 31.517 27.773993 31.528 27.673992 31.364 C 27.573992 31.204 27.273993 31.364 27.298992 31.473 C 27.323992 31.58 27.161991 31.786 27.110992 31.774 C 27.061993 31.762 26.038992 32.055 26.589993 32.422 C 27.136992 32.789 27.448992 32.854 27.372992 33.121002 C 27.298994 33.392002 27.548994 33.574 27.860994 33.789 C 28.171995 34.006 28.096994 34.287003 27.909994 34.363003 C 27.721994 34.437004 27.712994 34.771004 28.022997 34.783 C 28.335997 34.793 28.559996 34.728 28.647997 34.847 C 28.733995 34.966 29.159994 35.062 29.307997 34.954 C 29.457994 34.847 29.645994 34.718 29.870996 34.663 C 30.095997 34.609997 30.393995 34.384 30.257994 34.253 C 30.120996 34.123997 29.995996 33.908997 29.995996 33.908997 C 29.995996 33.908997 30.384996 33.896996 30.495996 33.799995 C 30.606997 33.703995 30.694994 33.875996 30.882994 33.897995 C 31.070992 33.920994 31.271994 33.756996 31.382994 33.866997 C 31.493994 33.973995 31.970991 33.866997 31.970991 33.823997 C 31.970991 33.781 32.05699 33.412 32.079994 33.553997 C 32.106995 33.692997 32.317993 33.834995 32.393993 33.788 C 32.467995 33.745 32.604992 33.683 32.530994 33.628 C 32.454994 33.573 32.280994 33.487 32.405994 33.422997 C 32.530994 33.358994 32.468994 33.270996 32.544994 33.217995 C 32.618996 33.164993 32.667995 33.057995 32.767994 33.143993 C 32.869995 33.227993 33.080994 33.17499 33.140995 33.315994 C 33.204994 33.456993 33.130997 33.62899 33.290997 33.618996 C 33.452995 33.606995 33.629 33.380997 33.691 33.411995 C 33.754997 33.444996 33.928997 33.337994 33.941 33.434994 C 33.955 33.532993 33.713997 33.723995 33.89 33.723995 C 34.064 33.723995 34.29 33.563995 34.427 33.455994 C 34.564 33.346992 34.713997 33.185993 34.677 33.303993 C 34.64 33.422993 34.227997 33.682995 34.427 33.756992 C 34.626 33.83499 34.852997 33.594994 34.914997 33.658993 C 34.976997 33.722992 35.150997 33.87599 35.289997 33.865993 C 35.427 33.855995 35.736996 33.82299 35.887997 33.734993 C 35.887997 33.734993 35.936996 34.166992 36.4 34.21199 C 36.4 34.21199 36.488 34.609993 37.052 34.467995 C 37.052 34.467995 36.911 34.555996 37.052 34.791996 C 37.052 34.791996 36.425 34.705997 36.302 34.97599 C 36.302 34.97599 36.038 35.127995 36.439 35.245995 C 36.439 35.245995 36.502 35.493996 36.675 35.474995 C 36.849 35.451996 36.911 35.548996 36.989 35.581993 C 37.060997 35.61299 37.248997 35.51799 37.373997 35.483994 C 37.498997 35.449993 37.549995 35.36499 37.649 35.450993 C 37.747 35.538994 39.434 36.130993 39.633 34.804993 C 39.633 34.804993 40.008 34.511993 40.02 34.200993 C 40.034 33.887993 40.182 34.07999 40.434 33.921993 C 40.682003 33.75799 40.782 33.921993 40.721 34.01799 C 40.658 34.113995 40.508 34.275993 40.619 34.384995 C 40.732 34.491993 41.131 34.695995 41.131 34.501995 C 41.131 34.307995 41.219 34.231995 41.158 34.136993 C 41.095 34.038994 40.918 33.952995 41.181 33.888992 C 41.441 33.824993 41.468 33.781994 41.533 33.812992 C 41.594 33.845993 41.744 33.781994 41.83 33.638992 C 41.918003 33.50199 41.893 33.435993 42.006 33.392994 C 42.119 33.347996 42.319 33.824993 42.43 33.587994 C 42.543 33.347992 42.282 33.175995 42.455 33.112995 C 42.631 33.046993 42.766003 33.155994 42.766003 33.155994 L 42.618004 33.563995 C 42.618004 33.563995 42.716003 33.573994 42.792004 33.508995 C 42.868004 33.443996 42.942005 33.422997 42.942005 33.326996 C 42.942005 33.226997 42.956005 33.154995 42.956005 33.088997 C 42.956005 33.024998 43.030006 32.959995 43.144005 33.012997 C 43.255005 33.067997 43.332005 33.131996 43.244003 33.227997 C 43.156 33.327995 43.256004 33.368996 43.404003 33.444996 C 43.556004 33.520996 43.556004 33.346996 43.679005 33.327995 C 43.804005 33.304996 43.978004 33.186996 43.917004 33.046997 C 43.854004 32.906 43.769005 32.822 43.903004 32.691998 C 44.042004 32.562996 44.018005 32.679996 44.167004 32.628 C 44.317005 32.574997 44.317005 32.392 44.329 32.208 C 44.343 32.024002 44.491 32.14 44.565 32.044 C 44.641003 31.947998 44.616 31.850998 44.79 31.881998 C 44.968 31.915 44.804 31.981998 44.767 32.096996 C 44.730003 32.217995 44.804 32.291996 44.878 32.399998 C 44.954 32.509 45.392 32.488 45.302 32.293 C 45.214 32.098 45.066 31.992 45.241 31.992 C 45.415 31.992 45.415 32.133 45.616 32.076 C 45.815 32.025 45.94 32.013 46.052 31.906 C 46.163 31.797 46.228 31.722 46.314003 31.818 C 46.404003 31.916 46.742004 31.83 46.789 31.83 C 46.838 31.83 46.928 31.873 46.953003 31.916 C 46.976 31.961 47.238003 32.133 47.449 31.971 C 47.664 31.811 47.789 31.7 47.65 31.508 C 47.513 31.313002 47.589 31.248 47.425003 31.237 C 47.263004 31.227 46.927 31.399002 46.888004 31.237 C 46.849003 31.077002 46.952003 31.108002 47.089005 31.044 C 47.22601 30.98 47.153004 30.796 46.92701 30.741 C 46.702007 30.688002 46.513004 30.634 46.60101 30.526 C 46.689007 30.417002 46.953007 30.397 47.078007 30.321 C 47.203007 30.247002 47.264008 30.094002 47.375008 30.083 C 47.488007 30.071 47.689007 30.04 47.627007 30.095 C 47.565006 30.149998 47.375008 30.267 47.363007 30.333 C 47.35101 30.397 47.287006 30.536 47.60101 30.536 C 47.912006 30.536 47.974007 30.526 48.025005 30.688 C 48.076004 30.848 48.113007 31.001 48.336006 30.881 C 48.563007 30.764 48.637005 30.688 48.490005 30.567 C 48.336006 30.45 48.150005 30.374 48.326004 30.333002 C 48.502003 30.288002 48.648003 30.138002 48.662003 30.235004 C 48.676003 30.332005 48.363003 30.590002 48.599003 30.622002 C 48.837 30.653002 49.074 30.526 49.050003 30.386002 C 49.023003 30.247002 48.872 29.771002 49.185 29.642002 C 49.499 29.513002 49.535 29.599005 49.523003 29.652002 C 49.511 29.707005 49.586 29.945002 49.773003 29.888002 C 49.961 29.835005 49.836 29.868002 50.023003 29.868002 C 50.210003 29.868002 50.373 29.782 50.322 29.651005 C 50.275 29.522003 50.06 29.438004 50.234 29.350002 C 50.41 29.264002 50.574 29.049002 50.547 28.854002 C 50.524 28.659002 50.51 28.499002 50.424 28.520002 C 50.336 28.540005 50.223 28.618002 50.199 28.563002 C 50.17 28.508 50.336 28.401 50.248 28.206 C 50.16 28.013 50.1 27.979002 49.9 27.927002 C 49.699 27.872002 49.636 28.058002 49.5 28.005 C 49.361 27.948002 49.475 27.808 49.586 27.734 C 49.698997 27.658 49.698997 27.539 49.6 27.464 C 49.5 27.388 49.313 27.452002 49.461 27.29 C 49.611 27.128 49.389 26.935 49.212997 27.03 C 49.037 27.128 49.051 27.194 49.073997 27.321 C 49.099 27.452002 49.448997 27.485 49.249996 27.604 C 49.050995 27.721 49.312996 27.776 49.147995 27.84 C 48.987995 27.904 48.737995 28.012 48.887997 28.088 C 49.039 28.164 48.852 28.52 49.326 28.4 z " fill="#cee6f4" fill-opacity="1"/>
<radialGradient cx="980.3281" cy="-307.4312" gradientTransform="matrix(0.8148,0,0,0.3704,-765.7714,144.8726)" gradientUnits="userSpaceOnUse" r="13.5">
<stop offset="0" stop-color="#ffffff" stop-opacity="0.8"/>
<stop offset="0.9" stop-color="#ffffff" stop-opacity="0"/>
<stop offset="1" stop-color="#ffffff" stop-opacity="0"/>
</radialGradient>
<linearGradient gradientTransform="matrix(1.5451253,0,0,1.6712296,-29.689648,-20.002163)" gradientUnits="userSpaceOnUse" x1="62.3027" x2="62.3027" y1="27.8599" y2="42.4968">
<stop offset="0" stop-color="#ffffff"/>
<stop offset="0.6054" stop-color="#ffffff" stop-opacity="0"/>
<stop offset="1" stop-color="#ffffff" stop-opacity="0"/>
</linearGradient>
<path d="M 55.587364 36.645836 C 55.587364 36.645836 55.409676 36.42356 55.575005 36.401836 C 55.740337 36.380108 55.771233 36.436935 55.819138 36.309917 C 55.863945 36.186245 56.06017 36.035835 56.091076 36.159508 C 56.121975 36.28652 56.375378 36.498768 56.435635 36.512135 C 56.498985 36.522163 56.489716 36.72438 56.574696 36.80627 C 56.665855 36.891502 56.732304 37.001804 56.803375 36.960026 C 56.872906 36.918243 57.107765 36.709335 57.090767 36.82632 C 57.073776 36.943302 57.29936 37.083687 57.138668 37.06531 C 56.97643 37.048603 56.713757 37.12046 56.87909 37.27087 C 57.041325 37.424625 57.183475 37.698708 57.03669 37.77726 C 56.882183 37.85581 56.91308 38.064716 56.859 38.161644 C 56.80492 38.258575 56.71067 38.281967 56.58088 38.256905 C 56.44491 38.233505 56.324387 38.290333 56.451088 38.43572 C 56.57779 38.581116 56.81265 38.83013 56.90072 38.83013 C 56.9857 38.83343 57.33799 38.68641 57.271553 38.781673 C 57.2082 38.876938 56.96098 38.908688 56.91772 38.945457 C 56.876 38.97888 56.84201 39.027344 56.99343 39.109234 C 57.14485 39.191124 57.37663 38.97888 57.44615 39.030685 C 57.509502 39.082485 57.74436 39.129284 57.67174 39.24962 C 57.60221 39.37329 57.707283 39.503647 57.54195 39.510326 C 57.37663 39.520355 57.23138 39.572155 57.37044 39.72257 C 57.509502 39.86964 57.83243 39.74263 57.861794 39.938164 C 57.892693 40.13036 57.988495 40.39441 58.197083 40.335915 C 58.411858 40.284115 58.628178 39.999996 58.734787 40.14372 C 58.833675 40.284103 58.839855 40.407772 59.10562 40.40443 C 59.36829 40.39773 59.46409 40.188835 59.627876 40.274075 C 59.791664 40.35931 59.709766 40.561527 59.887455 40.524757 C 60.068233 40.491337 60.201115 40.44956 60.182575 40.25736 C 60.160946 40.06517 60.48696 39.78775 60.48696 39.78775 C 60.48696 39.78775 60.21193 40.075203 60.287636 40.21225 C 60.366436 40.34929 60.616753 40.218945 60.71255 40.157097 C 60.81144 40.09527 61.126648 39.705864 61.256435 39.74598 C 61.389313 39.78441 61.512928 39.794437 61.582455 39.68749 C 61.648895 39.580532 62.083076 38.985577 62.237587 39.04072 C 62.39519 39.09587 62.481716 39.167736 62.469357 39.23291 C 62.456997 39.298096 61.868305 39.931488 62.421455 40.387733 C 62.421455 40.387733 62.653225 40.349293 62.64241 40.49469 C 62.63005 40.6451 62.983887 40.95428 63.367077 40.673508 L 63.455147 40.89578 C 63.455147 40.89578 63.482956 41.20997 63.895508 41.437263 C 64.30805 41.66455 64.07938 41.714687 64.31269 41.81329 C 64.55064 41.915234 64.79786 42.070656 64.95855 42.073997 C 65.12387 42.077297 65.43599 41.868435 65.44217 41.98877 C 65.44837 42.11244 65.54724 42.33471 65.54724 42.33471 C 65.54724 42.33471 65.35101 42.62217 65.58277 42.719093 C 65.820724 42.82104 65.981415 42.59208 66.06794 42.663944 C 66.1591 42.732464 66.267265 42.98315 66.3847 42.964767 C 66.49904 42.951397 66.83124 42.765892 66.82506 42.64556 C 66.82196 42.52523 67.021286 42.371475 67.021286 42.371475 C 67.021286 42.371475 67.12327 42.433304 67.07227 42.613804 C 67.01511 42.79262 67.2376 42.806 67.27468 42.829395 C 67.30558 42.846104 67.35348 42.802654 67.518814 42.71241 C 67.68105 42.62384 67.936 42.54863 67.91746 42.408245 C 67.9051 42.274548 68.05652 42.192657 68.14922 42.15756 C 68.241936 42.122463 68.31764 42.040577 68.33927 41.99044 C 68.3609 41.9403 68.64057 41.911892 68.70701 41.74811 C 68.767265 41.58099 68.779625 41.360386 68.909424 41.357044 C 69.03304 41.353745 69.40386 41.301895 69.44404 41.1448 C 69.479576 40.991047 69.482666 40.828938 69.346695 40.884087 C 69.21071 40.939236 68.86153 41.007763 68.97586 40.935898 C 69.087105 40.860687 69.187546 40.79886 69.41931 40.747047 C 69.654175 40.701927 69.83032 40.626724 69.81796 40.71697 C 69.80251 40.808887 69.766975 40.857353 69.90604 40.91918 C 70.04509 40.991043 70.28304 40.84732 70.32477 40.89244 C 70.369576 40.94091 70.29232 41.022793 70.25833 41.06792 C 70.22588 41.11972 70.10382 41.174877 70.2707 41.22167 C 70.439125 41.270138 70.64461 41.39214 70.67244 41.21837 C 70.70333 41.04456 70.76668 40.813927 70.81149 40.920883 C 70.85629 41.02283 70.87175 41.171577 70.865585 41.215015 C 70.85938 41.253456 71.040184 41.136467 71.05254 41.208317 C 71.06799 41.276836 71.07417 41.49577 71.13134 41.50914 C 71.1916 41.51917 71.29359 41.44396 71.33685 41.316944 C 71.38474 41.193268 71.428 41.077953 71.58408 41.10804 C 71.744774 41.14146 71.7525 41.07294 71.64434 40.902473 C 71.53309 40.73201 71.429565 40.847324 71.299774 40.71697 C 71.16689 40.58327 71.109726 40.41949 71.33531 40.401108 C 71.564 40.374367 71.50374 40.442886 71.673706 40.55821 C 71.845215 40.671852 71.81276 40.869057 71.9302 40.91752 C 72.04764 40.965992 72.31648 40.855698 72.38909 40.72199 C 72.46171 40.588287 72.310295 40.51977 72.11097 40.48969 C 71.91474 40.469627 71.76023 40.31922 72.01208 40.33928 C 72.2593 40.35934 72.40145 40.483 72.55287 40.56489 C 72.70429 40.646786 72.78773 40.74371 72.91443 40.594982 C 73.03804 40.44123 72.93915 40.44791 73.155464 40.421173 C 73.37178 40.394432 73.37024 40.325912 73.29452 40.245693 C 73.22191 40.163803 73.234245 40.006702 73.0504 39.97161 C 72.86962 39.936512 72.7491 39.89641 72.832535 39.847935 C 72.91751 39.796135 73.191 39.878025 73.26054 39.766045 C 73.33006 39.65407 73.466034 39.522045 73.30534 39.410072 C 73.14774 39.303116 73.20645 39.09421 73.29604 39.084183 C 73.38567 39.074154 73.46755 39.186127 73.63133 39.039062 C 73.79202 38.895336 73.739494 38.84353 74.020706 38.93712 C 74.3081 39.03238 74.54605 38.970547 74.66039 38.885307 C 74.77474 38.800076 75.31554 38.47084 75.42679 38.571117 C 75.53185 38.676407 75.658554 38.845203 75.73734 38.83183 C 75.81307 38.8218 75.819244 38.632954 75.80069 38.57446 C 75.78524 38.51931 76.02629 38.444103 75.91812 38.39564 C 75.81615 38.350517 75.70644 38.313747 75.67399 38.281994 C 75.6431 38.248573 75.69253 38.17671 75.76206 38.13493 C 75.83159 38.093147 75.94594 38.02128 75.95211 37.967804 C 75.96141 37.916004 76.01546 37.76893 76.06027 37.7589 C 76.24415 37.71043 76.5099 37.560024 76.29822 37.386215 C 76.08653 37.207397 75.839325 37.173973 75.9212 37.082054 C 76.0 36.990135 76.18696 37.065346 76.22868 36.9517 C 76.27348 36.838055 76.352295 36.746136 76.39401 36.7946 C 76.43264 36.843067 76.40331 36.958378 76.40331 37.026897 C 76.40952 37.09208 76.39711 37.307663 76.55164 37.202377 C 76.70924 37.09709 76.68144 36.958378 76.74787 36.928295 C 76.81739 36.90155 76.842125 36.893204 76.91629 36.904896 C 76.9889 36.918262 77.07854 36.976757 77.14033 36.921604 C 77.202126 36.866455 77.2253 36.856422 77.28866 37.075356 C 77.355095 37.2876 77.68112 37.150555 77.67494 37.013527 C 77.67494 36.876484 77.87426 36.65755 77.919075 36.680943 C 77.96697 36.704346 79.02384 36.537228 78.558754 35.989056 C 78.09676 35.440895 77.80473 35.303852 77.934525 34.993004 C 78.05814 34.677143 77.85264 34.408073 77.58996 34.088867 C 77.330376 33.76632 77.457085 33.43876 77.653305 33.38027 C 77.85262 33.32512 77.928345 32.92068 77.628586 32.848816 C 77.3242 32.780296 77.09396 32.815388 77.03062 32.656624 C 76.97036 32.492847 76.57173 32.300655 76.40948 32.402596 C 76.24106 32.50788 76.03246 32.628212 75.79917 32.649937 C 75.57048 32.676678 75.2352 32.893936 75.34336 33.077774 C 75.448425 33.259937 75.53032 33.544044 75.53032 33.544044 C 75.53032 33.544044 75.147125 33.485554 75.020424 33.582485 C 74.89372 33.679417 74.842735 33.45547 74.66195 33.393635 C 74.48427 33.331795 74.257126 33.492233 74.1706 33.338486 C 74.08253 33.188076 73.59427 33.23153 73.5881 33.283337 C 73.5788 33.335148 73.42276 33.766323 73.42584 33.590843 C 73.42894 33.415363 73.25125 33.20646 73.16626 33.2449 C 73.08437 33.28334 72.940674 33.33682 73.00093 33.415363 C 73.06737 33.497253 73.2188 33.634293 73.08591 33.689445 C 72.94994 33.744595 72.99165 33.86325 72.91131 33.911716 C 72.82633 33.963528 72.756805 34.08553 72.67954 33.963528 C 72.59457 33.839855 72.38133 33.86493 72.34735 33.68276 C 72.31336 33.500595 72.41996 33.303394 72.25928 33.288353 C 72.09859 33.27331 71.882256 33.513966 71.82819 33.463833 C 71.77409 33.41202 71.58406 33.508953 71.59024 33.388622 C 71.59644 33.26829 71.86836 33.07777 71.69531 33.04602 C 71.52689 33.0126 71.27657 33.16635 71.11898 33.271637 C 70.96447 33.378597 70.78678 33.54572 70.84394 33.41202 C 70.90421 33.271637 71.356926 33.032654 71.17924 32.90564 C 71.00155 32.775284 70.7327 33.022625 70.68171 32.93572 C 70.6369 32.8438 70.49475 32.62487 70.35878 32.616512 C 70.2259 32.599804 69.91224 32.58309 69.74846 32.65829 C 69.74846 32.65829 69.7871 32.12684 69.34364 31.986454 C 69.34364 31.986454 69.33743 31.486755 68.75803 31.55528 C 68.75803 31.55528 68.912544 31.473389 68.82447 31.160868 C 68.82447 31.160868 69.41625 31.3798 69.59085 31.075638 C 69.59085 31.075638 69.87824 30.938597 69.51204 30.72301 C 69.51204 30.72301 69.49967 30.408815 69.32507 30.403805 C 69.15048 30.398806 69.110306 30.266762 69.04078 30.214954 C 68.97434 30.159803 68.77193 30.245035 68.645226 30.260084 C 68.515434 30.276794 68.449 30.370384 68.3671 30.246714 C 68.2914 30.123043 66.76172 29.08855 66.30591 30.664522 C 66.30591 30.664522 65.881 30.951977 65.80838 31.326328 C 65.73267 31.705696 65.6276 31.443314 65.34948 31.58704 C 65.07444 31.740791 65.008 31.52186 65.08681 31.416576 C 65.16871 31.311289 65.34948 31.142494 65.258316 30.98874 C 65.16715 30.838327 64.82414 30.515783 64.783966 30.749756 C 64.74379 30.983728 64.644905 31.063946 64.685074 31.19096 C 64.72679 31.321314 64.8813 31.458357 64.61246 31.488438 C 64.346695 31.521868 64.31116 31.566988 64.25399 31.515177 C 64.203 31.466717 64.042305 31.515177 63.93106 31.672274 C 63.819813 31.822683 63.82908 31.907915 63.710106 31.93967 C 63.59113 31.97142 63.489147 31.354738 63.33618 31.623808 C 63.178577 31.894548 63.399532 32.151917 63.215664 32.19537 C 63.034885 32.24384 62.923634 32.085068 62.923634 32.085068 L 63.149223 31.618795 C 63.149223 31.618795 63.054977 31.588717 62.968445 31.652227 C 62.880375 31.717407 62.80621 31.730778 62.784576 31.847763 C 62.766037 31.968092 62.739765 32.05332 62.724316 32.13187 C 62.711956 32.21042 62.626976 32.275597 62.528088 32.19036 C 62.4292 32.10179 62.367393 32.01154 62.474007 31.909595 C 62.575985 31.804308 62.489456 31.735788 62.359665 31.61546 C 62.226788 31.495129 62.19125 31.70738 62.06764 31.71072 C 61.940937 31.71402 61.750885 31.824368 61.780243 32.008198 C 61.812695 32.19036 61.87913 32.30902 61.723072 32.44272 C 61.560833 32.573074 61.60873 32.43602 61.45422 32.472797 C 61.29353 32.507896 61.26108 32.730164 61.21009 32.952442 C 61.16219 33.171375 61.041668 33.004253 60.94742 33.10954 C 60.85317 33.211487 60.85935 33.335155 60.69711 33.26329 C 60.531784 33.19143 60.70331 33.13962 60.76355 33.005924 C 60.82072 32.86888 60.76355 32.763596 60.71566 32.621544 C 60.66158 32.471134 60.232037 32.415985 60.278385 32.670013 C 60.326286 32.92404 60.449898 33.081135 60.278385 33.04604 C 60.109966 33.01596 60.13624 32.847164 59.927643 32.875576 C 59.72523 32.898975 59.601624 32.892284 59.471832 33.00259 C 59.342045 33.112892 59.263245 33.19144 59.196796 33.05774 C 59.130356 32.92404 58.782703 32.96248 58.737896 32.955795 C 58.689995 32.945766 58.611195 32.877247 58.592655 32.822098 C 58.57721 32.760258 58.35779 32.506237 58.1183 32.66166 C 57.877262 32.818752 57.735107 32.925716 57.830902 33.186424 C 57.925156 33.45048 57.840206 33.512318 57.99623 33.559113 C 58.15074 33.59754 58.51539 33.453823 58.51849 33.661057 C 58.524685 33.859932 58.430416 33.804783 58.286713 33.85659 C 58.138386 33.9084 58.17547 34.147385 58.3856 34.25434 C 58.591103 34.3613 58.765697 34.463245 58.65754 34.573547 C 58.55247 34.690533 58.289803 34.668808 58.153828 34.737328 C 58.017857 34.805847 57.92824 34.979656 57.81544 34.97297 C 57.702644 34.96627 57.50178 34.96627 57.57441 34.91113 C 57.643936 34.85598 57.852528 34.74735 57.875706 34.6688 C 57.903515 34.5936 57.990047 34.43316 57.682564 34.37801 C 57.381264 34.319515 57.317913 34.319515 57.29937 34.113953 C 57.28392 33.90839 57.27774 33.719543 57.0367 33.819817 C 56.792572 33.921764 56.7045 33.99864 56.825016 34.172447 C 56.948627 34.346256 57.115498 34.473267 56.936264 34.488308 C 56.75857 34.511707 56.58243 34.66713 56.588615 34.5468 C 56.597916 34.423126 56.950176 34.167427 56.727676 34.087204 C 56.502087 34.005314 56.244053 34.117294 56.23941 34.28942 C 56.23941 34.4649 56.2904 35.069885 55.96129 35.17016 C 55.62909 35.268757 55.610542 35.156788 55.63218 35.09496 C 55.6569 35.029778 55.62908 34.725616 55.435947 34.75904 C 55.242805 34.78913 55.369507 34.77241 55.18873 34.73564 C 55.00795 34.702213 54.830265 34.77742 54.85344 34.944546 C 54.87507 35.111664 55.06821 35.2554 54.88126 35.327255 C 54.691208 35.399117 54.488796 35.631416 54.476437 35.87208 C 54.460987 36.11441 54.443985 36.31328 54.53052 36.303253 C 54.621677 36.296555 54.74529 36.221363 54.759193 36.293224 C 54.7731 36.36509 54.59387 36.463696 54.63868 36.717724 C 54.68657 36.968407 54.73756 37.021885 54.922977 37.12216 C 55.109936 37.22745 55.20728 37.015205 55.33089 37.10211 C 55.454502 37.197372 55.31544 37.34444 55.19183 37.416294 C 55.06513 37.48816 55.0435 37.63189 55.1223 37.742188 C 55.20728 37.852493 55.40351 37.80737 55.22428 37.97783 C 55.04505 38.148293 55.227383 38.42572 55.414333 38.340485 C 55.60747 38.255253 55.60747 38.173363 55.61056 38.014595 C 55.61056 37.847473 55.27836 37.74386 55.49313 37.635223 C 55.71099 37.529938 55.46531 37.41629 55.641464 37.36783 C 55.809883 37.31936 56.07564 37.234127 55.94276 37.1138 C 55.82066 36.99019 56.07097 36.58742 55.587345 36.645916 z " fill="#cee6f4" fill-opacity="1"/>
<radialGradient cx="1051.0938" cy="-295.3555" gradientTransform="matrix(1.2593 0 0 0.4343 -1260.6432 160.4788)" gradientUnits="userSpaceOnUse" r="8.7356">
<stop offset="0" stop-color="#ffffff" stop-opacity="0.45"/>
<stop offset="0.9" stop-color="#ffffff" stop-opacity="0"/>
<stop offset="1" stop-color="#ffffff" stop-opacity="0"/>
</radialGradient>
<rect fill="none" height="96" width="96"/>
</svg>
