<?xml version="1.0" encoding="UTF-8"?>
<svg xmlns="http://www.w3.org/2000/svg" xmlns:xlink="http://www.w3.org/1999/xlink" baseProfile="tiny" contentScriptType="text/ecmascript" contentStyleType="text/css" height="96px" preserveAspectRatio="xMidYMid meet" version="1.1" viewBox="0 0 96 96" width="96px" x="0px" y="0px" zoomAndPan="magnify">
<defs>
<linearGradient id="linearGradient3972">
<stop offset="0" stop-color="#62d5fa" stop-opacity="1"/>
<stop offset="1" stop-color="#1dc2f8" stop-opacity="1"/>
</linearGradient>
<linearGradient>
<stop offset="0" stop-color="#434385" stop-opacity="1"/>
<stop offset="1" stop-color="#434385" stop-opacity="0"/>
</linearGradient>
<linearGradient gradientUnits="userSpaceOnUse" x1="37.672" x2="42.644" y1="54.668498" y2="54.668498">
<stop offset="0" stop-color="#434385" stop-opacity="1"/>
<stop offset="1" stop-color="#434385" stop-opacity="0"/>
</linearGradient>
<linearGradient gradientUnits="userSpaceOnUse" id="linearGradient3978" x1="47.457626" x2="47.457626" y1="10.893065" y2="59.300606">
<stop offset="0" stop-color="#62d5fa" stop-opacity="1"/>
<stop offset="1" stop-color="#1dc2f8" stop-opacity="1"/>
</linearGradient>
</defs>
<path d="M 88.0 49.0 C 88.0 78.633 77.637 89.0 48.0 89.0 C 18.365 89.0 8.0 78.633 8.0 49.0 C 8.0 19.365 18.365 9.0 48.0 9.0 C 77.637 9.0 88.0 19.365 88.0 49.0 z " fill-opacity="0.4"/>
<linearGradient gradientUnits="userSpaceOnUse" x1="48.0005" x2="48.0005" y1="64.0918" y2="7.2435">
<stop offset="0" stop-color="#cee6f4"/>
<stop offset="0.6319" stop-color="#00a5db"/>
<stop offset="1" stop-color="#0049b5"/>
</linearGradient>
<path d="M 48.0 8.0 C 18.365 8.0 8.0 18.365 8.0 48.0 C 8.0 49.629 8.037 51.191 8.102 52.705 C 9.305 52.711 11.498 52.775 12.961 53.135 C 15.518001 53.764004 22.44 55.668003 22.51 55.686 L 22.668 55.731 L 22.836 55.721 C 22.857 55.719 25.098 55.586 26.623 55.586 C 26.982 55.586 27.303 55.592003 27.541 55.611004 L 28.014 55.650005 C 29.141 55.740005 30.418 55.843006 31.223 56.025005 C 32.153 56.236004 33.031998 56.435005 34.139 56.834007 C 34.653 57.022007 35.823 57.279007 37.686 57.68601 C 39.959 58.182007 42.786 58.799007 44.053 59.28201 C 44.52 59.46001 45.369003 59.71001 46.641003 60.04401 L 47.151 60.15901 L 47.501 59.93801 C 48.183 59.50201 49.294 58.88301 49.724 58.65301 C 50.185 58.40501 52.732 57.78401 54.771 57.41901 C 56.441 57.12001 59.783 55.89801 59.925 55.84501 L 59.991 55.82201 L 60.054 55.78901 C 60.07 55.77901 61.613 54.95301 62.525 54.598007 C 62.785 54.49601 63.074 54.369007 63.38 54.23501 C 64.15 53.89901 65.107 53.479008 65.804 53.42201 C 66.841 53.33601 68.794 53.06801 70.228 52.24001 C 70.865 51.87301 71.433 51.85301 71.885994 51.83801 C 72.144 51.82801 72.356995 51.81501 72.519 51.77901 C 72.851 51.707012 73.341 51.49001 74.304 51.047012 C 74.72 50.85401 75.111 50.672012 75.318 50.59801 C 75.693 50.463013 76.261 50.463013 77.297 50.463013 C 77.744 50.463013 77.826 50.543015 78.096 50.809013 C 78.246 50.957012 78.401 51.102013 78.582 51.231014 C 79.133 51.627014 80.236 52.317013 80.236 52.317013 C 80.281 52.346012 81.345 53.010017 82.431 53.592014 C 83.367 54.094013 85.712 54.582016 87.652 54.951015 L 87.775 54.974014 C 87.922 52.773 88.0 50.459 88.0 48.0 C 88.0 18.365 77.637 8.0 48.0 8.0 z " fill="url(#linearGradient3978)" fill-opacity="1"/>
<linearGradient gradientUnits="userSpaceOnUse" x1="63.8428" x2="61.5986" y1="50.6309" y2="66.3398">
<stop offset="0" stop-color="#509600"/>
<stop offset="1" stop-color="#005600"/>
</linearGradient>
<path d="M 83.57448 71.0 C 85.99819 63.8251 87.36153 55.01 87.836 44.316586 C 86.44512 43.9829 82.799545 43.11032 81.65906 42.345837 C 80.322014 41.449757 78.98371 40.40015 78.98371 40.40015 C 78.98371 40.40015 77.64667 39.353683 76.97564 38.75369 C 76.30838 38.156822 76.08553 37.257614 74.63833 37.257614 C 73.188614 37.257614 72.40867 37.260715 71.74139 37.559963 C 71.07161 37.856045 68.95338 39.203297 68.396286 39.353687 C 67.83919 39.50408 66.61355 39.203297 65.16383 40.2529 C 63.716625 41.29937 61.59838 41.74584 60.148663 41.896233 C 58.698948 42.046623 56.91622 43.24192 55.690594 43.841915 C 54.46372 44.43878 52.45815 45.7876 52.45815 45.7876 C 52.45815 45.7876 48.222923 47.730152 46.218605 48.179756 C 44.210533 48.62936 40.420982 49.675835 39.528378 50.275833 C 38.95625 50.658073 37.224857 51.864334 36.359783 52.592793 C 33.803352 54.746815 27.267103 63.79377 23.147053 71.0 L 83.574486 71.0 z " fill="#847000" fill-opacity="1"/>
<linearGradient gradientUnits="userSpaceOnUse" x1="47.3193" x2="42.1094" y1="54.7568" y2="92.3372">
<stop offset="0" stop-color="#509600"/>
<stop offset="1" stop-color="#005600"/>
</linearGradient>
<path d="M 83.19854 72.17061 C 85.603386 67.59511 86.95612 61.97364 87.426895 55.15435 C 86.04684 54.94156 82.42963 54.385105 81.29801 53.897587 C 79.97137 53.32615 78.643486 52.656807 78.643486 52.656807 C 78.643486 52.656807 77.31685 51.989464 76.65104 51.60684 C 75.98897 51.22621 75.76786 50.65278 74.33191 50.65278 C 72.89347 50.65278 72.1196 50.654778 71.457504 50.84559 C 70.792946 51.0344 68.69119 51.89356 68.13843 51.989464 C 67.58566 52.085373 66.36956 51.893555 64.93113 52.5629 C 63.495186 53.230244 61.39342 53.514965 59.95499 53.61087 C 58.516552 53.70678 56.747696 54.46903 55.53161 54.85165 C 54.31428 55.232277 52.32431 56.09243 52.32431 56.09243 C 52.32431 56.09243 48.122044 57.331215 46.13332 57.61793 C 44.140873 57.904648 40.380817 58.571995 39.495148 58.954617 C 38.92747 59.198376 37.209545 59.96762 36.351208 60.432163 C 33.81468 61.80581 27.32929 67.575134 23.2413 72.17061 L 83.19853 72.17061 z " fill="#847000" fill-opacity="1"/>
<path d="M 84.906 69.824 C 83.847 69.515 82.459 69.109 81.527 68.898 C 80.107 68.579994 75.498 66.767 73.961 66.340996 C 72.424 65.912994 70.65 65.38 68.996 64.741 C 67.342 64.1 66.16 63.674995 65.449005 63.248997 C 64.740005 62.820995 62.849007 62.608 60.957005 62.289997 C 59.45501 62.035995 51.318005 60.234997 46.908005 59.076996 C 45.765003 58.777996 44.869003 58.519997 44.408005 58.344997 C 42.162006 57.490997 35.660004 56.319996 34.478004 55.893997 C 33.296005 55.465996 32.349003 55.254997 31.404003 55.039997 C 30.459003 54.826996 28.922005 54.721996 27.623005 54.614 C 26.322004 54.507 22.775003 54.720997 22.775003 54.720997 C 22.775003 54.720997 15.800005 52.801 13.199005 52.161995 C 11.697005 51.792995 9.539005 51.708996 8.066006 51.702995 C 8.934 78.492 19.641 88.0 48.0 88.0 C 68.68 88.0 79.967 82.943 84.906 69.824 z " fill="#5aa800" fill-opacity="1"/>
<linearGradient gradientUnits="userSpaceOnUse" id="SVGID_4_" x1="47.9995" x2="47.9995" y1="8" y2="88.0005">
<stop offset="0" stop-color="#ffffff"/>
<stop offset="1" stop-color="#ffffff" stop-opacity="0"/>
</linearGradient>
<path d="M 48.0 8.0 C 18.365 8.0 8.0 18.365 8.0 48.0 C 8.0 77.633 18.365 88.0 48.0 88.0 C 77.637 88.0 88.0 77.633 88.0 48.0 C 88.0 18.365 77.637 8.0 48.0 8.0 z M 48.0 87.0 C 18.842 87.0 9.0 77.16 9.0 48.0 C 9.0 18.842 18.842 9.0 48.0 9.0 C 77.16 9.0 87.0 18.842 87.0 48.0 C 87.0 77.16 77.16 87.0 48.0 87.0 z " fill="url(#SVGID_4_)" fill-opacity="0.15" stroke-opacity="0.15"/>
<linearGradient gradientUnits="userSpaceOnUse" x1="48.6455" x2="42.878" y1="51.7813" y2="75.7812">
<stop offset="0" stop-color="#509600"/>
<stop offset="1" stop-color="#005600"/>
</linearGradient>
<path d="M 84.619 70.502 C 84.711006 70.273 84.816 70.059 84.906006 69.824 C 83.84701 69.515 82.45901 69.109 81.52701 68.898 C 80.10701 68.579994 75.49801 66.767 73.961006 66.340996 C 72.424 65.912994 70.65001 65.38 68.996 64.741 C 67.342 64.1 66.16 63.674995 65.449005 63.248997 C 64.740005 62.820995 62.849007 62.608 60.957005 62.289997 C 59.45501 62.035995 51.318005 60.234997 46.908005 59.076996 C 45.765003 58.777996 44.869003 58.519997 44.408005 58.344997 C 42.162006 57.490997 35.660004 56.319996 34.478004 55.893997 C 33.296005 55.465996 32.349003 55.254997 31.404003 55.039997 C 30.459003 54.826996 28.922005 54.721996 27.623005 54.614 C 26.322004 54.507 22.775003 54.720997 22.775003 54.720997 C 22.775003 54.720997 15.800005 52.801 13.199005 52.161995 C 11.697005 51.792995 9.539005 51.708996 8.066006 51.702995 C 8.246006 57.268997 8.859006 62.07999 9.961006 66.224 C 49.0 57.0 56.174 72.822 84.619 70.502 z " fill="#269d29" fill-opacity="1"/>
<linearGradient gradientUnits="userSpaceOnUse" id="SVGID_6_" x1="62.5205" x2="62.5205" y1="69.875" y2="89.8709">
<stop offset="0" stop-color="#509600"/>
<stop offset="1" stop-color="#005600"/>
</linearGradient>
<path d="M 82.416 74.881 C 63.162003 74.895 49.898 82.279 42.625 87.870995 C 44.342 87.957 46.131 88.0 48.0 88.0 C 65.766 88.0 76.584 84.25 82.416 74.881 z " fill="url(#SVGID_6_)"/>
<linearGradient gradientTransform="matrix(1.387852,0,0,1.3052594,-19.605892,-7.6308365)" gradientUnits="userSpaceOnUse" x1="38.4907" x2="38.4907" y1="25.3394" y2="36.6677">
<stop offset="0" stop-color="#ffffff"/>
<stop offset="1" stop-color="#ffffff" stop-opacity="0"/>
</linearGradient>
<path d="M 48.851295 29.438532 C 48.851295 29.438532 49.14413 29.63432 48.919296 29.690449 C 48.69724 29.746576 48.643116 29.690449 48.60703 29.83272 C 48.57233 29.972383 48.330845 30.166866 48.26284 30.044172 C 48.19206 29.916258 47.793747 29.745268 47.710476 29.745268 C 47.621655 29.745268 47.58557 29.536428 47.44956 29.467249 C 47.310776 29.395456 47.188644 29.29365 47.099823 29.352386 C 47.015163 29.408506 46.73343 29.676088 46.73343 29.548174 C 46.73343 29.42026 46.38924 29.323668 46.616848 29.308006 C 46.84168 29.292349 47.18864 29.168344 46.92911 29.04304 C 46.666813 28.917734 46.408665 28.6606 46.596027 28.548347 C 46.791714 28.436096 46.701504 28.224644 46.752853 28.112392 C 46.804203 28.00014 46.929108 27.957066 47.119247 27.957066 C 47.31216 27.957066 47.46621 27.873526 47.255257 27.748224 C 47.049854 27.62031 46.66681 27.406248 46.54745 27.42191 C 46.428097 27.44018 45.975655 27.662077 46.04366 27.549824 C 46.11444 27.440182 46.44475 27.354034 46.496098 27.309656 C 46.547447 27.269196 46.583527 27.210457 46.354534 27.154331 C 46.129707 27.098211 45.8563 27.365784 45.749435 27.32532 C 45.646736 27.282251 45.313652 27.282251 45.38582 27.141275 C 45.45382 27.001614 45.280342 26.886751 45.50517 26.844984 C 45.73278 26.804523 45.922913 26.71707 45.69531 26.59046 C 45.47048 26.465157 45.055508 26.66225 44.96668 26.465157 C 44.882023 26.269363 44.693275 26.010923 44.41709 26.112734 C 44.138138 26.209324 43.89387 26.54869 43.72039 26.420774 C 43.549683 26.29286 43.51499 26.168858 43.1486 26.224989 C 42.78775 26.281116 42.70171 26.52128 42.45467 26.465157 C 42.213184 26.409023 42.28396 26.181915 42.039703 26.253702 C 41.798218 26.322882 41.624737 26.393364 41.695515 26.590458 C 41.766296 26.788858 41.383247 27.14128 41.383247 27.14128 C 41.383247 27.14128 41.695515 26.788858 41.55673 26.662249 C 41.417946 26.53564 41.10429 26.718369 40.98216 26.80452 C 40.862804 26.88675 40.51584 27.352728 40.325703 27.337065 C 40.135567 27.324013 39.96209 27.337065 39.891308 27.464975 C 39.823307 27.590284 39.356983 28.293818 39.129375 28.267712 C 38.904545 28.2403 38.76576 28.181562 38.76576 28.112385 C 38.76576 28.040594 39.440254 27.269186 38.57285 26.901106 C 38.57285 26.901106 38.260586 26.984636 38.245316 26.831926 C 38.225887 26.673988 37.67352 26.422075 37.204426 26.788849 L 37.030945 26.574783 C 37.030945 26.574783 36.92824 26.25369 36.3051 26.098366 C 35.68195 25.945648 35.98728 25.846449 35.64587 25.790323 C 35.296135 25.734203 34.91447 25.619331 34.69103 25.648052 C 34.4662 25.678072 34.08315 25.958706 34.051235 25.832096 C 34.013763 25.70418 33.826405 25.49534 33.826405 25.49534 C 33.826405 25.49534 34.031807 25.158585 33.687626 25.102455 C 33.337887 25.043716 33.164406 25.311298 33.028397 25.255173 C 32.886833 25.201653 32.681435 24.95888 32.52461 25.003256 C 32.367786 25.043716 31.952816 25.29955 31.987509 25.42616 C 32.02221 25.551464 31.77933 25.749865 31.77933 25.749865 C 31.77933 25.749865 31.622503 25.704184 31.657196 25.507082 C 31.691889 25.309988 31.381012 25.338703 31.329662 25.323042 C 31.281092 25.309992 31.224186 25.366112 31.0174 25.49403 C 30.80922 25.619335 30.477526 25.748554 30.534428 25.889524 C 30.582998 26.026575 30.392866 26.141438 30.269344 26.197563 C 30.149992 26.253693 30.06672 26.35289 30.050062 26.409016 C 30.030632 26.465143 29.646196 26.54868 29.594849 26.73272 C 29.546278 26.91676 29.580978 27.153015 29.40471 27.18173 C 29.23123 27.20914 28.730215 27.337055 28.713556 27.508043 C 28.696909 27.676424 28.730215 27.8448 28.900915 27.75996 C 29.07995 27.67642 29.546268 27.532845 29.404709 27.632046 C 29.265924 27.731243 29.146566 27.816088 28.832912 27.915289 C 28.520647 28.011875 28.295813 28.124128 28.295813 28.02493 C 28.295813 27.92834 28.330511 27.872211 28.125109 27.831747 C 27.916924 27.78867 27.624092 27.984468 27.553312 27.944002 C 27.482533 27.900925 27.569971 27.804337 27.604662 27.748213 C 27.639362 27.689472 27.794798 27.605938 27.553312 27.590277 C 27.30905 27.574615 26.998169 27.491076 26.998169 27.676426 C 26.998169 27.860468 26.963469 28.11238 26.876036 28.013182 C 26.791376 27.916592 26.734474 27.761265 26.734474 27.716888 C 26.734474 27.676428 26.51242 27.83175 26.476332 27.759958 C 26.440252 27.688168 26.387512 27.463663 26.30285 27.463663 C 26.21542 27.463663 26.091896 27.560255 26.061363 27.703833 C 26.023895 27.843496 25.990583 27.9688 25.76575 27.9688 C 25.540913 27.9688 25.54092 28.04059 25.73105 28.195915 C 25.921188 28.34863 26.043314 28.211576 26.251495 28.32383 C 26.459677 28.43608 26.576254 28.591408 26.268156 28.660583 C 25.955893 28.729765 26.023895 28.647535 25.76714 28.563995 C 25.50484 28.480455 25.50484 28.267702 25.332745 28.24029 C 25.156488 28.21288 24.815071 28.379951 24.744295 28.533974 C 24.673515 28.6893 24.898346 28.729765 25.178692 28.720625 C 25.454876 28.704966 25.699137 28.830269 25.352173 28.857676 C 25.005207 28.885088 24.780378 28.788498 24.55277 28.729765 C 24.327938 28.676245 24.189156 28.59271 24.04898 28.772833 C 23.912971 28.959482 24.04898 28.928158 23.756142 28.999949 C 23.460531 29.069128 23.47996 29.13961 23.60209 29.2114 C 23.72422 29.283192 23.740875 29.448956 24.000404 29.448956 C 24.259932 29.448956 24.434805 29.467226 24.32794 29.535105 C 24.22801 29.606895 23.826923 29.575563 23.756144 29.703484 C 23.685364 29.8314 23.531313 29.999777 23.775574 30.083317 C 24.01706 30.165545 23.980978 30.393969 23.860231 30.42007 C 23.740875 30.45009 23.602093 30.350891 23.413343 30.534931 C 23.220432 30.718975 23.307867 30.759438 22.8929 30.718975 C 22.47793 30.675903 22.164276 30.790766 22.025492 30.900406 C 21.886707 31.012655 21.21221 31.464275 21.035955 31.376823 C 20.86525 31.293283 20.65707 31.139269 20.550203 31.170595 C 20.447506 31.196705 20.482204 31.392488 20.518286 31.451223 C 20.550203 31.504744 20.239326 31.632656 20.396154 31.660069 C 20.550207 31.687475 20.708424 31.703136 20.75977 31.731855 C 20.81112 31.760569 20.75977 31.84672 20.67234 31.900236 C 20.58768 31.958977 20.447508 32.05556 20.447508 32.111687 C 20.447508 32.167816 20.401709 32.33097 20.344809 32.351856 C 20.100546 32.438007 19.773012 32.648148 20.100546 32.78781 C 20.433628 32.930084 20.780592 32.915726 20.691772 33.02798 C 20.604343 33.140232 20.32538 33.09977 20.293455 33.22377 C 20.258757 33.351685 20.171328 33.46394 20.100546 33.42217 C 20.032543 33.37909 20.049196 33.25118 20.032543 33.182003 C 20.013117 33.112823 19.981195 32.885708 19.79106 33.026676 C 19.598148 33.16634 19.666151 33.307304 19.580105 33.35038 C 19.492676 33.39084 19.460749 33.40912 19.35805 33.40912 C 19.252571 33.40912 19.113785 33.36604 19.043009 33.43523 C 18.975008 33.50702 18.94031 33.52138 18.80152 33.307316 C 18.662737 33.098476 18.246382 33.307316 18.281076 33.44959 C 18.315777 33.589252 18.090942 33.858135 18.02016 33.842472 C 17.95216 33.826813 16.532383 34.20925 17.29709 34.68828 C 18.056246 35.16731 18.489254 35.25215 18.383778 35.60066 C 18.281078 35.954384 18.628042 36.19194 19.061052 36.47257 C 19.492676 36.75581 19.388586 37.122593 19.129051 37.22179 C 18.868135 37.31838 18.855646 37.754337 19.285885 37.769997 C 19.720282 37.783047 20.03116 37.698208 20.153292 37.85354 C 20.272646 38.008865 20.86387 38.13417 21.069271 37.9932 C 21.277449 37.85354 21.538364 37.68516 21.850634 37.613373 C 22.1629 37.544193 22.57648 37.249207 22.38773 37.078217 C 22.197596 36.909832 22.024113 36.629204 22.024113 36.629204 C 22.024113 36.629204 22.563986 36.613544 22.71804 36.486927 C 22.872091 36.36162 22.99422 36.58613 23.255136 36.61484 C 23.51605 36.644863 23.79501 36.4308 23.94906 36.574383 C 24.103111 36.714043 24.765116 36.574383 24.765116 36.518253 C 24.765116 36.46213 24.884466 35.98049 24.916391 36.165833 C 24.953863 36.347263 25.246702 36.532608 25.352177 36.471268 C 25.45488 36.41514 25.645012 36.334217 25.542316 36.26243 C 25.436838 36.19064 25.19535 36.078384 25.368832 35.994846 C 25.542316 35.911304 25.45626 35.796444 25.561745 35.727264 C 25.664446 35.658085 25.73245 35.51842 25.871231 35.630676 C 26.012796 35.74032 26.305632 35.671135 26.388905 35.855183 C 26.477724 36.039223 26.375025 36.26373 26.597084 36.25068 C 26.821913 36.23502 27.06618 35.94003 27.152224 35.980488 C 27.241043 36.023567 27.482534 35.8839 27.49919 36.01051 C 27.51862 36.138424 27.184149 36.38773 27.42841 36.38773 C 27.669895 36.38773 27.983553 36.17889 28.173683 36.03792 C 28.36382 35.89564 28.571997 35.685497 28.520647 35.83952 C 28.4693 35.994846 27.8975 36.334213 28.173683 36.4308 C 28.449867 36.532608 28.764906 36.219353 28.850952 36.302887 C 28.937002 36.386417 29.178486 36.586124 29.371395 36.57307 C 29.561537 36.560024 29.991766 36.516953 30.201332 36.402084 C 30.201332 36.402084 30.269333 36.965954 30.911917 37.024693 C 30.911917 37.024693 31.034048 37.544186 31.816795 37.35884 C 31.816795 37.35884 31.62111 37.473705 31.816795 37.781742 C 31.816795 37.781742 30.946611 37.669495 30.775908 38.02191 C 30.775908 38.02191 30.409515 38.22031 30.966043 38.374332 C 30.966043 38.374332 31.053474 38.69804 31.293575 38.673237 C 31.535065 38.643215 31.62111 38.769825 31.729362 38.812897 C 31.829285 38.853355 32.090202 38.729366 32.263683 38.684982 C 32.437164 38.6406 32.507942 38.529655 32.645348 38.641903 C 32.781353 38.756767 35.12266 39.52948 35.39885 37.798702 C 35.39885 37.798702 35.91929 37.416264 35.935944 37.01033 C 35.95537 36.601784 36.160774 36.85239 36.510517 36.646164 C 36.854706 36.4321 36.99349 36.646164 36.90883 36.77147 C 36.8214 36.896774 36.613216 37.108227 36.76727 37.2505 C 36.924095 37.39016 37.477848 37.656433 37.477848 37.403217 C 37.477848 37.149994 37.59998 37.050793 37.51532 36.926792 C 37.42789 36.79888 37.182236 36.686623 37.54724 36.603085 C 37.90808 36.51955 37.945553 36.463425 38.035767 36.503883 C 38.120422 36.546963 38.3286 36.463425 38.44796 36.276768 C 38.570095 36.097942 38.53539 36.011803 38.692223 35.955677 C 38.84905 35.896942 39.12662 36.519547 39.28067 36.2102 C 39.437496 35.896935 39.075268 35.672436 39.31537 35.5902 C 39.55963 35.50405 39.74699 35.646324 39.74699 35.646324 L 39.541595 36.17887 C 39.541595 36.17887 39.677605 36.19192 39.78308 36.10708 C 39.888557 36.022243 39.99126 35.994835 39.99126 35.86953 C 39.99126 35.739 40.01069 35.64502 40.01069 35.558876 C 40.01069 35.475334 40.11339 35.390495 40.271606 35.459675 C 40.42566 35.531464 40.532524 35.615 40.41039 35.740307 C 40.288258 35.87083 40.427048 35.924347 40.632446 36.02355 C 40.843403 36.12275 40.843403 35.895634 41.014107 35.87083 C 41.187588 35.84081 41.429073 35.68679 41.344418 35.504055 C 41.256985 35.32002 41.13901 35.210377 41.324986 35.040688 C 41.517895 34.872307 41.48459 35.02503 41.69138 34.957157 C 41.89956 34.887978 41.89956 34.649117 41.91621 34.408947 C 41.93564 34.16878 42.14104 34.320187 42.243744 34.194885 C 42.34922 34.069576 42.31453 33.942966 42.556007 33.98343 C 42.803047 34.02651 42.575436 34.113956 42.52409 34.264057 C 42.472736 34.421993 42.575436 34.51858 42.67814 34.659554 C 42.783615 34.80183 43.391495 34.774418 43.266582 34.519897 C 43.14445 34.26537 42.93905 34.12701 43.181927 34.12701 C 43.423412 34.12701 43.423412 34.311054 43.702377 34.236652 C 43.97856 34.17008 44.15204 34.154423 44.30748 34.01476 C 44.461533 33.872486 44.55174 33.77459 44.671097 33.899895 C 44.796005 34.02781 45.2651 33.91555 45.33032 33.91555 C 45.398323 33.91555 45.52323 33.971684 45.557938 34.027805 C 45.589855 34.086544 45.953472 34.311047 46.246304 34.09959 C 46.544693 33.89075 46.718178 33.74587 46.52526 33.49526 C 46.335125 33.240734 46.4406 33.15589 46.212997 33.141533 C 45.988167 33.128483 45.521847 33.352985 45.467724 33.141533 C 45.413593 32.932693 45.556545 32.973156 45.746685 32.889614 C 45.93682 32.806072 45.835503 32.56591 45.521854 32.49412 C 45.20959 32.424942 44.94728 32.354458 45.069416 32.21349 C 45.191547 32.071217 45.55794 32.045113 45.731422 31.945911 C 45.904903 31.84932 45.989563 31.64962 46.143616 31.635258 C 46.30044 31.619598 46.5794 31.579128 46.493355 31.650915 C 46.407307 31.722708 46.143616 31.875422 46.12696 31.961569 C 46.110306 32.04511 46.021484 32.226536 46.457268 32.226536 C 46.88889 32.226536 46.974937 32.213486 47.045715 32.424934 C 47.116497 32.633778 47.16785 32.83348 47.477337 32.67685 C 47.79238 32.524136 47.89508 32.424934 47.691067 32.267 C 47.477337 32.11428 47.219196 32.015083 47.46346 31.961569 C 47.70772 31.902828 47.910347 31.707045 47.929775 31.833654 C 47.949203 31.960266 47.51481 32.29702 47.842342 32.33879 C 48.17265 32.37925 48.50157 32.213486 48.46827 32.03075 C 48.4308 31.84932 48.221226 31.228016 48.655624 31.059635 C 49.09141 30.891258 49.141373 31.003515 49.12472 31.072687 C 49.108063 31.144478 49.21215 31.455128 49.471684 31.380728 C 49.732597 31.311548 49.559113 31.354618 49.818645 31.354618 C 50.078175 31.354618 50.30439 31.242365 50.233612 31.07138 C 50.16838 30.903 49.86999 30.79336 50.111477 30.678495 C 50.35574 30.566242 50.583347 30.285612 50.545876 30.031086 C 50.51395 29.77656 50.49453 29.56772 50.375168 29.595127 C 50.253036 29.62124 50.09621 29.723043 50.0629 29.651258 C 50.02266 29.579468 50.25304 29.439806 50.1309 29.18528 C 50.00877 28.933365 49.925503 28.888988 49.64793 28.821114 C 49.368973 28.749325 49.281536 28.992102 49.09279 28.922922 C 48.899876 28.848522 49.05809 28.665785 49.212143 28.569197 C 49.368965 28.469995 49.368965 28.314672 49.23157 28.216776 C 49.092785 28.117577 48.83326 28.201117 49.038666 27.98966 C 49.24684 27.778208 48.938732 27.526297 48.69447 27.650291 C 48.45021 27.778208 48.469643 27.864355 48.50156 28.030125 C 48.53626 28.201113 49.022003 28.244184 48.74582 28.39951 C 48.469635 28.552223 48.83325 28.624016 48.604256 28.70755 C 48.3822 28.79109 48.035236 28.932056 48.243416 29.031256 C 48.452988 29.130457 48.193455 29.595127 48.8513 29.438498 z " fill="#cee6f4" fill-opacity="1"/>
<radialGradient cx="980.3281" cy="-307.4312" gradientTransform="matrix(0.8148 0 0 0.3704 -765.7714 144.8726)" gradientUnits="userSpaceOnUse" r="13.5">
<stop offset="0" stop-color="#ffffff" stop-opacity="0.8"/>
<stop offset="0.9" stop-color="#ffffff" stop-opacity="0"/>
<stop offset="1" stop-color="#ffffff" stop-opacity="0"/>
</radialGradient>
<linearGradient gradientUnits="userSpaceOnUse" x1="62.3027" x2="62.3027" y1="27.8599" y2="42.4968">
<stop offset="0" stop-color="#ffffff"/>
<stop offset="0.6054" stop-color="#ffffff" stop-opacity="0"/>
<stop offset="1" stop-color="#ffffff" stop-opacity="0"/>
</linearGradient>
<path d="M 55.191 33.896 C 55.191 33.896 55.076 33.763 55.183 33.75 C 55.290005 33.737 55.31 33.771 55.341003 33.695 C 55.370003 33.621 55.497 33.531 55.517 33.605 C 55.537003 33.681 55.701 33.808 55.74 33.816 C 55.781 33.822 55.775 33.942997 55.83 33.991997 C 55.889 34.042995 55.932003 34.108997 55.978 34.083996 C 56.023 34.05899 56.175 33.93399 56.164 34.00399 C 56.153004 34.073994 56.299 34.157993 56.195 34.146996 C 56.09 34.136997 55.92 34.179996 56.027 34.269997 C 56.132 34.361996 56.224 34.525997 56.129 34.573 C 56.029003 34.62 56.049 34.745 56.014 34.803 C 55.979 34.860996 55.918 34.874996 55.834 34.859997 C 55.746 34.845997 55.668 34.879997 55.75 34.966995 C 55.832 35.053993 55.984 35.202995 56.041 35.202995 C 56.096 35.20499 56.324 35.116997 56.281 35.173996 C 56.24 35.230995 56.08 35.249996 56.052 35.271996 C 56.025 35.291996 56.003 35.320995 56.101 35.369995 C 56.199 35.418995 56.349003 35.291996 56.394 35.32299 C 56.435 35.353992 56.587 35.381992 56.54 35.453995 C 56.495003 35.527996 56.563 35.605995 56.456 35.609993 C 56.349003 35.615993 56.255 35.64699 56.345 35.73699 C 56.435 35.824993 56.644 35.748993 56.663 35.865993 C 56.683 35.980995 56.745003 36.138992 56.88 36.103992 C 57.019 36.07299 57.159 35.902992 57.228 35.98899 C 57.292 36.07299 57.296 36.14699 57.468 36.14499 C 57.638 36.140987 57.7 36.015987 57.806004 36.06699 C 57.912006 36.117992 57.859005 36.23899 57.974003 36.21699 C 58.091003 36.19699 58.177 36.171993 58.165005 36.05699 C 58.151005 35.94199 58.362003 35.775993 58.362003 35.775993 C 58.362003 35.775993 58.184 35.94799 58.233 36.029995 C 58.284 36.111996 58.446003 36.033997 58.508003 35.99699 C 58.572 35.959995 58.776005 35.726994 58.860004 35.750996 C 58.946003 35.77399 59.026005 35.779995 59.071003 35.715996 C 59.114 35.651997 59.395004 35.296 59.495003 35.328995 C 59.597004 35.361996 59.653004 35.404995 59.645004 35.443996 C 59.637005 35.483 59.256004 35.861996 59.61401 36.134995 C 59.61401 36.134995 59.764008 36.111996 59.757008 36.198994 C 59.74901 36.288994 59.97801 36.473995 60.22601 36.305992 L 60.28301 36.43899 C 60.28301 36.43899 60.30101 36.62699 60.56801 36.762993 C 60.835007 36.89899 60.687008 36.928993 60.83801 36.98799 C 60.99201 37.048992 61.152008 37.14199 61.25601 37.14399 C 61.363007 37.14599 61.565006 37.02099 61.569008 37.09299 C 61.57301 37.166992 61.63701 37.29999 61.63701 37.29999 C 61.63701 37.29999 61.51001 37.471992 61.660007 37.52999 C 61.814007 37.590992 61.918007 37.45399 61.974007 37.49699 C 62.033005 37.53799 62.10301 37.687992 62.17901 37.67699 C 62.25301 37.66899 62.46801 37.55799 62.46401 37.48599 C 62.46201 37.41399 62.591007 37.321987 62.591007 37.321987 C 62.591007 37.321987 62.65701 37.358986 62.62401 37.466988 C 62.58701 37.573982 62.731007 37.58199 62.75501 37.59599 C 62.77501 37.605988 62.806007 37.57999 62.91301 37.52599 C 63.01801 37.47299 63.18301 37.42799 63.17101 37.34399 C 63.16301 37.26399 63.26101 37.21499 63.32101 37.19399 C 63.381012 37.17299 63.43001 37.12399 63.44401 37.09399 C 63.45801 37.06399 63.63901 37.04699 63.68201 36.94899 C 63.721012 36.84899 63.72901 36.71699 63.81301 36.71499 C 63.893013 36.71299 64.13301 36.681988 64.15901 36.58799 C 64.182014 36.49599 64.18401 36.39899 64.09601 36.43199 C 64.008 36.464993 63.78201 36.505993 63.856007 36.46299 C 63.928005 36.41799 63.993008 36.38099 64.143005 36.34999 C 64.295006 36.32299 64.409004 36.277992 64.40101 36.33199 C 64.39101 36.38699 64.36801 36.41599 64.45801 36.452988 C 64.548004 36.495987 64.70201 36.40999 64.72901 36.43699 C 64.75801 36.46599 64.70801 36.514988 64.68601 36.54199 C 64.66501 36.572987 64.58601 36.605988 64.694016 36.633987 C 64.80302 36.662987 64.93601 36.73599 64.95402 36.63199 C 64.974014 36.52799 65.015015 36.389988 65.044014 36.453987 C 65.07301 36.514988 65.083015 36.60399 65.07902 36.629986 C 65.07502 36.652985 65.19202 36.582985 65.20002 36.625984 C 65.21002 36.666985 65.21402 36.797985 65.25102 36.805984 C 65.29002 36.811985 65.356026 36.766983 65.384026 36.690983 C 65.41502 36.61698 65.44302 36.54798 65.54403 36.565983 C 65.648026 36.585983 65.65303 36.544983 65.58303 36.44298 C 65.51103 36.34098 65.44403 36.40998 65.36003 36.33198 C 65.27403 36.25198 65.23703 36.15398 65.38303 36.142982 C 65.53104 36.126984 65.492035 36.167984 65.602036 36.236984 C 65.713036 36.304985 65.69203 36.422985 65.768036 36.451984 C 65.84404 36.480984 66.018036 36.414986 66.06503 36.334984 C 66.11203 36.254986 66.01403 36.213985 65.88503 36.195984 C 65.75803 36.183983 65.658035 36.093983 65.82103 36.105984 C 65.98103 36.117985 66.07303 36.191982 66.17103 36.240986 C 66.26903 36.28998 66.32303 36.34798 66.40503 36.258984 C 66.48503 36.166985 66.42103 36.170982 66.56103 36.154984 C 66.70103 36.138985 66.70003 36.097984 66.651024 36.049984 C 66.60403 36.000984 66.61202 35.906982 66.49303 35.885983 C 66.37603 35.864983 66.29803 35.840984 66.35203 35.81198 C 66.40703 35.780983 66.58403 35.829983 66.62903 35.76298 C 66.67403 35.69598 66.76203 35.61698 66.65803 35.54998 C 66.55603 35.48598 66.594025 35.36098 66.65203 35.35498 C 66.71004 35.34898 66.76303 35.41598 66.86903 35.32798 C 66.97303 35.24198 66.93903 35.21098 67.12103 35.26698 C 67.30703 35.32398 67.46103 35.28698 67.535034 35.23598 C 67.60904 35.184982 67.95904 34.98798 68.03104 35.04798 C 68.09904 35.11098 68.18104 35.211983 68.23203 35.20398 C 68.28104 35.19798 68.285034 35.08498 68.27303 35.04998 C 68.26303 35.01698 68.41904 34.97198 68.34903 34.94298 C 68.28303 34.91598 68.21203 34.893986 68.19103 34.87498 C 68.17104 34.85498 68.20303 34.81198 68.24803 34.78698 C 68.29303 34.76198 68.36704 34.71898 68.37103 34.68698 C 68.37703 34.655983 68.41203 34.56798 68.44103 34.56198 C 68.56004 34.53298 68.73203 34.44298 68.59503 34.33898 C 68.45803 34.231983 68.298035 34.211983 68.35103 34.156982 C 68.40203 34.101982 68.523026 34.146984 68.550026 34.078983 C 68.579025 34.010983 68.63003 33.955982 68.65703 33.98498 C 68.68203 34.01398 68.663025 34.08298 68.663025 34.12398 C 68.66702 34.162983 68.65903 34.29198 68.759026 34.22898 C 68.86102 34.16598 68.843025 34.08298 68.886024 34.06498 C 68.93102 34.04898 68.94702 34.04398 68.995026 34.05098 C 69.04202 34.05898 69.10003 34.09398 69.14002 34.060974 C 69.180016 34.027977 69.19502 34.021976 69.23602 34.152977 C 69.27902 34.279976 69.49002 34.197975 69.48602 34.11598 C 69.48602 34.033978 69.61502 33.902977 69.64402 33.916977 C 69.67502 33.930977 70.35902 33.83098 70.05802 33.502975 C 69.75902 33.174976 69.57002 33.092976 69.65402 32.906975 C 69.734024 32.717976 69.60102 32.556976 69.43102 32.365974 C 69.26302 32.172974 69.345024 31.976974 69.47202 31.941977 C 69.60102 31.908974 69.650024 31.666977 69.456024 31.623974 C 69.259026 31.582972 69.11002 31.603971 69.06902 31.508974 C 69.03002 31.410976 68.772026 31.295977 68.66702 31.356974 C 68.55802 31.419971 68.42302 31.491974 68.272026 31.504974 C 68.12402 31.520975 67.90703 31.650974 67.97703 31.760977 C 68.04503 31.869974 68.09803 32.039974 68.09803 32.039974 C 68.09803 32.039974 67.85003 32.004974 67.76803 32.062973 C 67.68603 32.12097 67.65303 31.986973 67.536026 31.949972 C 67.42103 31.912971 67.274025 32.008972 67.218025 31.916971 C 67.161026 31.826971 66.845024 31.852972 66.84103 31.88397 C 66.83503 31.91497 66.734024 32.17297 66.73602 32.06797 C 66.73802 31.96297 66.623024 31.83797 66.56802 31.86097 C 66.51502 31.88397 66.42202 31.91597 66.46102 31.962969 C 66.50402 32.01197 66.60202 32.093967 66.51602 32.12697 C 66.428024 32.15997 66.455025 32.23097 66.40302 32.259968 C 66.34802 32.290966 66.303024 32.363968 66.25302 32.290966 C 66.19802 32.216965 66.06002 32.231968 66.038025 32.122967 C 66.01603 32.013966 66.08502 31.895967 65.981026 31.886969 C 65.87703 31.877966 65.73702 32.021965 65.70203 31.991966 C 65.66702 31.960966 65.54403 32.018967 65.54803 31.946966 C 65.552025 31.874966 65.72803 31.760963 65.61603 31.741966 C 65.50703 31.721966 65.345024 31.813969 65.24303 31.876966 C 65.14303 31.940966 65.02803 32.040966 65.065025 31.960966 C 65.10403 31.876966 65.397026 31.733969 65.28203 31.657969 C 65.16703 31.579967 64.99303 31.727966 64.96003 31.675966 C 64.93103 31.620966 64.83903 31.489964 64.75103 31.484966 C 64.66503 31.474966 64.46203 31.464966 64.35603 31.509966 C 64.35603 31.509966 64.381035 31.191963 64.09403 31.107964 C 64.09403 31.107964 64.090034 30.808966 63.71503 30.849966 C 63.71503 30.849966 63.81503 30.800966 63.75803 30.613966 C 63.75803 30.613966 64.14103 30.744968 64.25403 30.562963 C 64.25403 30.562963 64.440025 30.480965 64.203026 30.351965 C 64.203026 30.351965 64.19502 30.163963 64.08202 30.160963 C 63.969025 30.157965 63.943024 30.078964 63.898026 30.047964 C 63.855022 30.014963 63.724026 30.065964 63.642025 30.074965 C 63.558025 30.084965 63.515022 30.140965 63.462025 30.066963 C 63.413025 29.992966 62.423023 29.373964 62.128025 30.316963 C 62.128025 30.316963 61.853024 30.488966 61.806023 30.712963 C 61.757027 30.939964 61.689026 30.782965 61.509026 30.868963 C 61.331024 30.960964 61.288025 30.829966 61.339027 30.766966 C 61.39203 30.703966 61.509026 30.602966 61.450027 30.510963 C 61.39103 30.420963 61.16903 30.227966 61.14303 30.367966 C 61.117027 30.507963 61.05303 30.555964 61.07903 30.631966 C 61.10603 30.709965 61.206028 30.791964 61.03203 30.809963 C 60.860027 30.829966 60.83703 30.856966 60.80003 30.825966 C 60.76703 30.796968 60.66303 30.825966 60.59103 30.919966 C 60.51903 31.009966 60.52503 31.060966 60.44803 31.079966 C 60.37103 31.098965 60.305027 30.729963 60.206028 30.890966 C 60.104027 31.052967 60.24703 31.206966 60.12803 31.232967 C 60.01103 31.261969 59.93903 31.166967 59.93903 31.166967 L 60.08503 30.887968 C 60.08503 30.887968 60.02403 30.869968 59.96803 30.907969 C 59.91103 30.946968 59.86303 30.95497 59.84903 31.02497 C 59.83703 31.09697 59.82003 31.147968 59.810028 31.19497 C 59.80203 31.24197 59.74703 31.28097 59.68303 31.229967 C 59.61903 31.17697 59.57903 31.122969 59.64803 31.06197 C 59.71403 30.99897 59.658028 30.95797 59.574028 30.88597 C 59.48803 30.813969 59.465027 30.94097 59.38503 30.942968 C 59.30303 30.94497 59.180027 31.01097 59.199028 31.120968 C 59.220028 31.229967 59.263027 31.300968 59.16203 31.380968 C 59.05703 31.458967 59.088028 31.376968 58.98803 31.398968 C 58.88403 31.419968 58.86303 31.552967 58.83003 31.685968 C 58.79903 31.816969 58.721027 31.716969 58.66003 31.779968 C 58.59903 31.84097 58.60303 31.914968 58.49803 31.871967 C 58.391033 31.828968 58.502033 31.797968 58.54103 31.717968 C 58.57803 31.635967 58.54103 31.572968 58.510033 31.487968 C 58.475033 31.397968 58.197033 31.36497 58.22703 31.516968 C 58.25803 31.668968 58.33803 31.762968 58.22703 31.741968 C 58.11803 31.723969 58.135033 31.622969 58.00003 31.639969 C 57.86903 31.653969 57.789032 31.64997 57.705032 31.71597 C 57.621033 31.78197 57.57003 31.82897 57.52703 31.74897 C 57.484028 31.66897 57.25903 31.69197 57.23003 31.68797 C 57.19903 31.681969 57.14803 31.640968 57.13603 31.60797 C 57.12603 31.570969 56.984028 31.41897 56.82903 31.511969 C 56.67303 31.605968 56.581028 31.66997 56.64303 31.825968 C 56.70403 31.983969 56.64903 32.02097 56.750027 32.04897 C 56.850025 32.071968 57.086025 31.98597 57.088028 32.10997 C 57.09203 32.22897 57.03103 32.19597 56.938023 32.22697 C 56.842026 32.25797 56.866028 32.40097 57.002026 32.46497 C 57.135025 32.52897 57.248024 32.58997 57.178024 32.65597 C 57.110023 32.72597 56.940025 32.71297 56.852024 32.75397 C 56.764023 32.79497 56.706024 32.89897 56.633022 32.89497 C 56.56002 32.89097 56.430023 32.89097 56.477024 32.85797 C 56.522022 32.82497 56.657024 32.75997 56.672024 32.71297 C 56.690025 32.667973 56.746025 32.57197 56.547024 32.53897 C 56.352024 32.50397 56.311024 32.50397 56.299023 32.38097 C 56.289024 32.25797 56.285023 32.14497 56.129025 32.20497 C 55.971024 32.265972 55.914024 32.31197 55.992023 32.41597 C 56.072025 32.51997 56.180023 32.59597 56.064026 32.60497 C 55.94902 32.61897 55.835026 32.711967 55.839024 32.63997 C 55.845024 32.565968 56.073025 32.412968 55.929024 32.364967 C 55.783024 32.315968 55.616024 32.38297 55.61302 32.485966 C 55.61302 32.590965 55.646023 32.952965 55.43302 33.012966 C 55.21802 33.071964 55.20602 33.004967 55.22002 32.967968 C 55.23602 32.928967 55.21802 32.746967 55.09302 32.766968 C 54.96802 32.78497 55.050022 32.774967 54.93302 32.752968 C 54.81602 32.732967 54.701023 32.77797 54.716022 32.877968 C 54.730022 32.977966 54.855022 33.06397 54.734024 33.106968 C 54.611023 33.149967 54.480022 33.288967 54.472023 33.43297 C 54.462025 33.57797 54.451023 33.696968 54.507023 33.690968 C 54.56602 33.68697 54.646023 33.641968 54.65502 33.684967 C 54.66402 33.727966 54.548023 33.78697 54.577023 33.93897 C 54.60802 34.08897 54.64102 34.120968 54.76102 34.18097 C 54.88202 34.24397 54.94502 34.11697 55.02502 34.16897 C 55.105022 34.225967 55.015022 34.31397 54.93502 34.356968 C 54.85302 34.399967 54.83902 34.48597 54.890022 34.551968 C 54.945023 34.61797 55.07202 34.59097 54.956024 34.692966 C 54.840027 34.794964 54.958023 34.960968 55.079025 34.90997 C 55.204025 34.858967 55.204025 34.809967 55.206024 34.71497 C 55.206024 34.614967 54.991024 34.552967 55.130024 34.487965 C 55.271023 34.424965 55.112022 34.356964 55.226025 34.327965 C 55.335026 34.298965 55.507023 34.247963 55.421024 34.175964 C 55.342 34.102 55.504 33.861 55.191 33.896 z " fill="#cee6f4" fill-opacity="1"/>
<radialGradient cx="1051.0938" cy="-295.3555" gradientTransform="matrix(1.2593 0 0 0.4343 -1260.6432 160.4788)" gradientUnits="userSpaceOnUse" r="8.7356">
<stop offset="0" stop-color="#ffffff" stop-opacity="0.45"/>
<stop offset="0.9" stop-color="#ffffff" stop-opacity="0"/>
<stop offset="1" stop-color="#ffffff" stop-opacity="0"/>
</radialGradient>
<rect fill="none" height="96" width="96"/>
<path d="M 82.416 74.881 C 63.162003 74.894 49.898 82.278 42.623 87.870995 C 44.342 87.956 46.131 88.0 48.0 88.0 C 65.766 88.0 76.584 84.25 82.416 74.881 z " fill="#269d29" fill-opacity="1"/>
<path d="M 19.998 77.0 C 19.549 77.0 19.148 76.697 19.033 76.254 C 18.908 75.781 19.144 75.289 19.588 75.089 C 19.639 75.063 20.604 74.55299 21.567 72.744 C 22.09 71.76299 22.553 70.85899 22.979 70.02799 C 24.313 67.42199 25.278 65.537994 26.612 64.06199 C 27.423 63.16599 29.196 61.84699 31.002998 61.57699 L 36.907 54.371983 C 37.024 54.227985 37.178 54.122986 37.348 54.061985 C 37.373 53.882984 37.446 53.709984 37.565 53.565987 L 38.78 52.086987 C 38.809 52.047985 38.841 52.010983 38.874 51.977985 C 40.368 50.406982 42.157 48.582985 44.175 46.575985 C 55.262 35.54 72.359 20.0 75.652 20.0 C 76.136 20.0 76.445 20.206 76.619 20.379 C 76.791 20.551 77.0 20.859 77.0 21.346 C 77.002 24.621 61.383 41.638 50.291 52.674 C 48.348 54.609 46.557 56.351 44.965 57.854 C 44.916 57.919 44.86 57.979 44.795 58.031 L 43.266003 59.254997 C 43.120003 59.372997 42.946003 59.443996 42.764004 59.467 C 42.703003 59.64 42.59401 59.795 42.448 59.912 L 35.206 65.708 C 35.134003 67.192 34.456 68.812 33.292 70.246 C 28.644 75.99301 20.456 76.957 20.11 76.995 C 20.072 76.998 20.035 77.0 19.998 77.0 L 19.998 77.0 z " fill-opacity="0.1" stroke-opacity="0.1"/>
<path d="M 75.912 21.087 C 74.615005 19.793 59.058 33.173 44.879 47.284 C 42.836 49.317 41.082 51.105 39.58 52.683 C 39.576 52.687 39.576 52.692 39.572 52.696 L 38.338 54.2 C 38.404003 54.368 38.336 54.605 38.149 54.794003 C 38.004 54.937004 37.831 55.006004 37.68 55.006004 L 31.528 62.515003 L 31.544 62.530003 C 29.909 62.587 28.103 63.906 27.355 64.734 C 25.695 66.57 24.554 69.263 22.451 73.214005 C 21.25 75.465 20.0 76.0 20.0 76.0 C 20.0 76.0 28.07 75.109 32.516 69.615 C 33.756 68.086 34.299 66.459 34.202 65.136 L 34.255 65.188 L 41.823 59.130005 C 41.823 58.980003 41.889004 58.804005 42.036003 58.660004 C 42.229004 58.466003 42.475 58.402004 42.641003 58.472004 L 44.17 57.248005 L 44.158 57.237003 L 44.16 57.236004 C 45.744 55.742004 47.543 53.997005 49.586 51.963005 C 63.764 37.856 77.213 22.379 75.912 21.087 z " fill-opacity="0.15" stroke-opacity="0.15"/>
<path d="M 33.355 61.189 C 31.537 59.428 28.404 61.571 27.353 62.733 C 25.693 64.569 24.552 67.262 22.449 71.213 C 21.25 73.465 20.0 74.0 20.0 74.0 C 20.0 74.0 28.07 73.109 32.516 67.615 C 34.492 65.177 34.703 62.489 33.355 61.189 z " fill="#acd22d" fill-opacity="0.2"/>
<path d="M 33.355 61.189 C 31.537 59.428 28.404 61.571 27.353 62.733 C 25.693 64.569 24.552 67.262 22.449 71.213 C 21.25 73.465 20.0 74.0 20.0 74.0 C 20.0 74.0 28.07 73.109 32.516 67.615 C 34.492 65.177 34.703 62.489 33.355 61.189 z " fill="#acd22d" fill-opacity="0.2"/>
<path d="M 33.355 61.189 C 31.537 59.428 28.404 61.571 27.353 62.733 C 25.693 64.569 24.552 67.262 22.449 71.213 C 21.25 73.465 20.0 74.0 20.0 74.0 C 20.0 74.0 28.07 73.109 32.516 67.615 C 34.492 65.177 34.703 62.489 33.355 61.189 z " fill="#acd22d" fill-opacity="0.2"/>
<path d="M 33.355 61.189 C 31.537 59.428 28.404 61.571 27.353 62.733 C 25.693 64.569 24.552 67.262 22.449 71.213 C 21.25 73.465 20.0 74.0 20.0 74.0 C 20.0 74.0 28.07 73.109 32.516 67.615 C 34.492 65.177 34.703 62.489 33.355 61.189 z " fill="#603813"/>
<linearGradient gradientUnits="userSpaceOnUse" x1="56.1182" x2="60.9904" y1="34.4341" y2="39.1372">
<stop offset="0" stop-color="#e6be46"/>
<stop offset="0.2447" stop-color="#c77433"/>
<stop offset="1" stop-color="#603813"/>
</linearGradient>
<path d="M 39.488 52.738 C 39.488 52.738 38.608997 51.703 39.58 50.683 C 41.081997 49.105 42.836 47.317 44.879 45.283997 C 59.059 31.172997 74.615 17.792995 75.912 19.086996 C 77.213005 20.378996 63.764004 35.856995 49.586 49.964996 C 47.543003 51.998997 45.744003 53.743996 44.160004 55.237995 C 43.135 56.20499 42.068005 55.324997 42.068005 55.324997 L 39.488 52.738 z " fill="#bd7232" fill-opacity="1"/>
<linearGradient gradientTransform="matrix(0.7071 -0.7071 -0.7071 -0.7071 1171.4473 2.2909)" gradientUnits="userSpaceOnUse" x1="-810.5908" x2="-810.7554" y1="765.7549" y2="762.7467">
<stop offset="0" stop-color="#ffffff" stop-opacity="0.5"/>
<stop offset="0.3523" stop-color="#f9f9f9" stop-opacity="0.3238"/>
<stop offset="1" stop-color="#f2f2f2" stop-opacity="0"/>
</linearGradient>
<g fill="#5aa800" fill-opacity="1">
<g fill="#5aa800" fill-opacity="1">
<linearGradient gradientUnits="userSpaceOnUse" x1="25.0869" x2="27.564" y1="67.3125" y2="71.7387">
<stop offset="0" stop-color="#96d63a"/>
<stop offset="1" stop-color="#0f581c"/>
</linearGradient>
<path d="M 27.895 66.207 C 26.233 66.207 24.59 67.585 24.104 68.027 C 23.61 68.988 23.077 70.04 22.45 71.214 C 21.25 73.465 20.0 74.0 20.0 74.0 C 20.0 74.0 28.07 73.109 32.516 67.615 C 32.86 67.190994 33.128998 66.761 33.368 66.331 C 30.764 67.065 29.76 66.207 27.895 66.207 z " fill="#5aa800" fill-opacity="1"/>
</g>
</g>
<linearGradient gradientTransform="matrix(1 0 0 -1 94 101)" gradientUnits="userSpaceOnUse" x1="-60.3477" x2="-69.8266" y1="38.5186" y2="29.0397">
<stop offset="0" stop-color="#000000" stop-opacity="0.7"/>
<stop offset="1" stop-color="#000000" stop-opacity="0"/>
</linearGradient>
<linearGradient gradientTransform="matrix(1 0 0 -1 94 101)" gradientUnits="userSpaceOnUse" x1="-54.3262" x2="-58.5545" y1="41.626" y2="45.3653">
<stop offset="0" stop-color="#717191"/>
<stop offset="0.0364" stop-color="#717191"/>
<stop offset="0.1543" stop-color="#8585a3"/>
<stop offset="0.3955" stop-color="#babad0"/>
<stop offset="0.503" stop-color="#d3d3e6"/>
<stop offset="0.6485" stop-color="#c1c1db"/>
<stop offset="0.6668" stop-color="#c9c9df"/>
<stop offset="0.7369" stop-color="#e1e1eb"/>
<stop offset="0.8014" stop-color="#f0f0f2"/>
<stop offset="0.8545" stop-color="#f5f5f5"/>
<stop offset="0.8999" stop-color="#dfdfe6"/>
<stop offset="0.9937" stop-color="#a8a8c0"/>
<stop offset="1" stop-color="#a4a4bd"/>
</linearGradient>
<path d="M 42.035 56.661 C 42.228 56.467 42.474 56.403 42.64 56.473 L 44.169 55.249 L 39.580997 50.683 L 38.338 52.2 C 38.404003 52.368 38.336 52.605 38.149 52.794003 C 38.004 52.937004 37.831 53.006004 37.68 53.006004 L 31.528 60.515003 L 34.255 63.189003 L 41.823 57.131004 C 41.822 56.98 41.889 56.805 42.035 56.661 z " fill="#c1c1d9" fill-opacity="1"/>
<path d="M 42.035 56.661 C 42.228 56.467 42.474 56.403 42.64 56.473 L 42.644 56.471 L 42.644 56.47 L 38.345 52.193 L 38.338 52.2 C 38.404003 52.366 38.336 52.604 38.149 52.793 C 38.004 52.936 37.831 53.003 37.68 53.003 L 37.672 53.011997 L 41.801003 57.143997 L 41.822 57.130997 C 41.822 56.98 41.889 56.805 42.035 56.661 z " fill="#a2a2c7" fill-opacity="1"/>
<linearGradient gradientTransform="matrix(1 0 0 -1 94 101)" gradientUnits="userSpaceOnUse" x1="-58.3955" x2="-56.6139" y1="45.3975" y2="43.6159">
<stop offset="0" stop-color="#ffffff" stop-opacity="0.8"/>
<stop offset="0.3523" stop-color="#f9f9f9" stop-opacity="0.5181"/>
<stop offset="1" stop-color="#f2f2f2" stop-opacity="0"/>
</linearGradient>
<linearGradient gradientTransform="matrix(1 0 0 -1 94 101)" gradientUnits="userSpaceOnUse" x1="-53.3711" x2="-53.8561" y1="46.8008" y2="46.3157">
<stop offset="0" stop-color="#7f7fa3"/>
<stop offset="0.0848" stop-color="#7f7fa3"/>
<stop offset="1" stop-color="#7f7fa3" stop-opacity="0"/>
</linearGradient>
<linearGradient gradientTransform="matrix(1 0 0 -1 94 101)" gradientUnits="userSpaceOnUse" x1="-54.4844" x2="-51.9503" y1="46.9004" y2="44.3663">
<stop offset="0" stop-color="#7f7fa3" stop-opacity="0"/>
<stop offset="0.0218" stop-color="#7d7da1" stop-opacity="0.0271"/>
<stop offset="0.2824" stop-color="#696992" stop-opacity="0.3509"/>
<stop offset="0.5437" stop-color="#5d5d88" stop-opacity="0.6754"/>
<stop offset="0.805" stop-color="#595985"/>
<stop offset="1" stop-color="#595985"/>
</linearGradient>
<path d="M 44.17 55.231 C 44.33 55.08 44.334 55.096 44.497997 54.941 L 39.874996 50.364 C 39.719 50.526997 39.74 50.514 39.587997 50.676 L 44.17 55.231 z " fill-opacity="0.1"/>
<linearGradient gradientTransform="matrix(1 0 0 -1 94 101)" gradientUnits="userSpaceOnUse" x1="-69.0117" x2="-66.9227" y1="35.4521" y2="33.3631">
<stop offset="0" stop-color="#ffffff" stop-opacity="0.7"/>
<stop offset="1" stop-color="#f2f2f2" stop-opacity="0"/>
</linearGradient>
</svg>
