<?xml version="1.0" encoding="UTF-8"?>
<svg xmlns="http://www.w3.org/2000/svg" xmlns:xlink="http://www.w3.org/1999/xlink" baseProfile="tiny" contentScriptType="text/ecmascript" contentStyleType="text/css" height="57px" preserveAspectRatio="xMidYMid meet" version="1.1" viewBox="0 0 67 57" width="67px" x="0px" y="0px" zoomAndPan="magnify">
<rect fill="#ffffff" fill-opacity="0.70588235" fill-rule="nonzero" height="48" ry="8.2174387" stroke="none" width="48" x="9.5" y="5.5"/>
<rect fill="#469fff" fill-opacity="0.58823529" fill-rule="nonzero" height="48" ry="8.2174387" stroke="none" width="48" x="9.5" y="5.5"/>
<path d="M 47.87293 26.935305 L 47.87293 17.182783 L 31.368668 30.686272 L 14.864408 17.182783 L 14.864408 38.18821 C 14.864408 39.016422 15.536581 39.688595 16.364796 39.688595 L 34.36945 39.688595 L 34.36945 29.936075 C 34.36945 28.2819 35.715298 26.9353 37.370224 26.9353 L 47.872936 26.9353 z M 47.87294 14.9322 L 14.864414 14.9322 L 31.368671 28.435688 L 47.872932 14.9322 z M 50.873703 28.435688 L 37.370216 28.435688 C 36.542004 28.435688 35.869827 29.10786 35.869827 29.936075 L 35.869827 44.93995 C 35.869827 45.76817 36.542004 46.440334 37.370216 46.440334 L 50.873703 46.440334 C 51.70192 46.440334 52.374092 45.76816 52.374092 44.93995 L 52.374092 29.936075 C 52.374092 29.107864 51.701916 28.435692 50.873707 28.435692 z M 45.622353 42.689373 L 39.245705 42.689373 C 38.624542 42.689373 38.120415 42.18524 38.120415 41.564083 C 38.120415 40.942924 38.624542 40.438793 39.245705 40.438793 L 45.622353 40.438793 C 46.24351 40.438793 46.747643 40.942924 46.747643 41.564083 C 46.747643 42.18524 46.24351 42.689373 45.622353 42.689373 z M 48.998222 38.18821 L 39.24571 38.18821 C 38.62455 38.18821 38.12042 37.68408 38.12042 37.06292 C 38.12042 36.44176 38.62455 35.93763 39.24571 35.93763 L 48.998222 35.93763 C 49.61939 35.93763 50.123516 36.44176 50.123516 37.06292 C 50.123516 37.68408 49.619385 38.18821 48.998222 38.18821 z M 48.998222 33.68705 L 39.24571 33.68705 C 38.62455 33.68705 38.12042 33.182915 38.12042 32.561756 C 38.12042 31.940596 38.62455 31.436464 39.24571 31.436464 L 48.998222 31.436464 C 49.61939 31.436464 50.123516 31.940594 50.123516 32.561756 C 50.123516 33.182915 49.619385 33.68705 48.998222 33.68705 z " fill="#ffffff" fill-opacity="1" stroke-opacity="0.3"/>
<defs>
<linearGradient gradientUnits="userSpaceOnUse" x1="36" x2="36" xlink:actuate="onLoad" xlink:show="other" xlink:type="simple" y1="54" y2="12.0005">
<stop offset="0" stop-color="#d0cbc5"/>
<stop offset="0.5031" stop-color="#fafcef"/>
<stop offset="0.9693" stop-color="#ffffff"/>
<stop offset="1" stop-color="#ffffff"/>
</linearGradient>
</defs>
</svg>
