<?xml version="1.0" encoding="UTF-8"?>
<svg xmlns="http://www.w3.org/2000/svg" xmlns:xlink="http://www.w3.org/1999/xlink" baseProfile="tiny" contentScriptType="text/ecmascript" contentStyleType="text/css" height="96px" preserveAspectRatio="xMidYMid meet" version="1.1" viewBox="0 0 96 96" width="96px" x="0px" y="0px" zoomAndPan="magnify">
<defs/>
<path d="M 88.0 49.0 C 88.0 78.632996 77.637 89.0 48.0 89.0 C 18.365 89.0 8.0 78.633 8.0 49.0 C 8.0 19.365 18.365 9.0 48.0 9.0 C 77.637 9.0 88.0 19.365 88.0 49.0 z " fill-opacity="0.4"/>
<linearGradient gradientTransform="matrix(1 0 0 1 -1108.5801 -1412.4199)" gradientUnits="userSpaceOnUse" x1="1156.5811" x2="1156.5811" y1="1420.9639" y2="1501.6589">
<stop offset="0" stop-color="#ff9b6e"/>
<stop offset="1" stop-color="#ff4200"/>
</linearGradient>
<path d="M 88.0 48.0 C 88.0 77.632996 77.637 88.0 48.0 88.0 C 18.365 88.0 8.0 77.633 8.0 48.0 C 8.0 18.365 18.365 8.0 48.0 8.0 C 77.637 8.0 88.0 18.365 88.0 48.0 z " fill="#f07930" fill-opacity="1"/>
<rect fill="none" height="96" width="96"/>
<path d="M 87.938 51.594 C 87.94 51.531002 87.944 51.471 87.94601 51.407 L 87.91701 51.441 C 87.919 51.494 87.928 51.544 87.938 51.594 z " fill="none"/>
<path d="M 62.93 40.41 C 53.188 40.41 44.670998 45.732 40.118 53.617 C 38.284 57.204002 37.242 61.260002 37.242 65.556 C 37.242 75.023 42.264 83.336 49.782 87.979996 C 50.183002 87.974 50.588 87.96999 50.980003 87.95899 C 44.145004 84.09499 39.370003 77.01899 38.697002 68.773994 L 38.664 68.742 C 38.647003 68.370995 38.608 68.007996 38.608 67.63 C 38.608 67.56 38.617 67.49 38.617 67.419 L 38.624 67.419 C 38.619 67.205 38.608 66.992 38.608 66.776 C 38.608 66.774 38.608 66.774 38.608 66.774 L 38.608 66.774 C 38.608 66.772 38.608 66.772 38.608 66.772 C 38.608 53.344 49.497 42.456 62.929 42.456 C 74.916 42.456 84.867004 51.123 86.875 62.526 C 87.165 60.926003 87.392 59.231003 87.567 57.456 C 83.809 47.506 74.186 40.41 62.93 40.41 z " fill="none"/>
<path d="M 37.095 83.939 C 36.867 83.711006 36.851 83.324005 37.062 83.079 L 37.583 82.469 C 37.536 82.274 37.567 82.059 37.703 81.901 L 38.584 80.868004 C 38.578 80.754005 38.559 80.643005 38.512 80.55 L 35.898003 74.25201 C 35.797 73.948006 35.45 73.675 35.129 73.64901 L 33.087 73.48701 C 32.766003 73.45901 32.503002 73.17501 32.503002 72.852005 L 32.503002 60.635 C 32.503002 60.310997 32.767002 60.028 33.087 60.001 L 33.143 59.996 L 33.143 59.456997 C 33.143 59.132996 33.407 58.85 33.727 58.822 L 35.769 58.657997 C 35.921 58.645996 36.079002 58.576996 36.214 58.475998 L 38.510002 52.939 C 38.653004 52.649998 38.601 52.215 38.393 51.972 L 37.06 50.408 C 36.849003 50.162003 36.865 49.775 37.093002 49.548 L 37.596 49.045002 C 37.511 48.816 37.557 48.546 37.733 48.369003 L 46.374 39.729004 C 46.602 39.501003 46.987 39.488003 47.233 39.696003 L 48.796 41.028004 C 49.041 41.236004 49.479 41.289005 49.766003 41.145004 L 56.055004 38.536003 L 56.188004 36.9 C 56.214005 36.593002 56.477005 36.347 56.780003 36.325 L 56.829002 35.722 C 56.856003 35.401 57.142002 35.139 57.463 35.139 L 69.677 35.139 C 70.003 35.139 70.285 35.401 70.312004 35.722 L 70.476006 37.764 C 70.49901 38.085 70.771 38.431 71.077 38.533 L 77.37701 41.145 C 77.66 41.289 78.09601 41.237 78.34301 41.028 L 79.90601 39.695 C 80.152016 39.486 80.540016 39.501 80.76701 39.728 L 87.988014 46.95 C 87.74 18.13 77.279 8.0 48.0 8.0 C 18.365 8.0 8.0 18.365 8.0 48.0 C 8.0 75.135 16.703 86.106995 40.923 87.768005 L 37.095 83.939 z " fill="none"/>
<path d="M 46.596 40.874 L 48.159 42.206 C 48.404 42.414 48.841 42.467003 49.128002 42.323 L 55.428 39.711002 C 55.731003 39.608 56.003002 39.263 56.028 38.942 L 56.059 38.536003 L 49.769997 41.145004 C 49.482998 41.289005 49.045 41.237003 48.799995 41.028004 L 47.236996 39.696003 C 46.990997 39.488003 46.604996 39.502003 46.377995 39.729004 L 37.736996 48.369003 C 37.560997 48.546 37.514996 48.816 37.599995 49.045002 L 45.737995 40.907 C 45.964 40.68 46.349 40.666 46.596 40.874 z " fill-opacity="0.3"/>
<path d="M 87.465 51.971 C 87.256 52.215 87.203995 52.651 87.348 52.938 L 87.828 54.096 C 87.875 53.28 87.912 52.446 87.937004 51.594 C 87.925 51.544003 87.91701 51.494003 87.916 51.442 L 87.465 51.971 z " fill-opacity="0.3"/>
<path d="M 37.242 65.557 C 37.242 61.259 38.284 57.203 40.118 53.618 C 37.886 57.483 36.601 61.961 36.601 66.735 C 36.601 75.458 40.865 83.198 47.414 87.995 C 47.611 87.994 47.8 88.0 48.0 88.0 C 48.605 88.0 49.191 87.988 49.782 87.979 C 42.264 83.337 37.242 75.021 37.242 65.557 z " fill-opacity="0.3"/>
<path d="M 35.9 59.236 L 36.215 58.476 C 36.079 58.577003 35.922 58.646 35.77 58.658 L 33.728 58.822002 C 33.407 58.849003 33.144 59.133003 33.144 59.457 L 33.144 59.996002 L 35.13 59.836002 C 35.451 59.813 35.799 59.542 35.9 59.236 z " fill-opacity="0.3"/>
<path d="M 79.904 39.695 L 78.340996 41.028 C 78.09499 41.236 77.658 41.289 77.37499 41.145 L 71.07499 38.533 C 70.76799 38.43 70.49899 38.085 70.47499 37.764 L 70.30899 35.722 C 70.28499 35.401 70.00099 35.139 69.67499 35.139 L 57.464 35.139 C 57.143 35.139 56.86 35.401 56.83 35.722 L 56.781002 36.325 C 56.796 36.324 56.808002 36.317 56.822002 36.317 L 69.037 36.317 C 69.363 36.317 69.644005 36.579002 69.671005 36.9 L 69.836006 38.942 C 69.85901 39.263 70.130005 39.609 70.436005 39.711002 L 76.73701 42.323 C 77.020004 42.467003 77.45601 42.415 77.70301 42.206 L 79.266014 40.873 C 79.51202 40.664 79.89902 40.679 80.126015 40.906002 L 87.99101 48.772003 C 87.993 48.514 88.0 48.263 88.0 48.0 C 88.0 47.643 87.991 47.302 87.988 46.95 L 80.765 39.728 C 80.539 39.501 80.152 39.486 79.904 39.695 z " fill-opacity="0.3"/>
<path d="M 38.584 80.866 L 37.703 81.9 C 37.568 82.058 37.536 82.271 37.583 82.466 L 38.395 81.513 C 38.536 81.352 38.598 81.102 38.584 80.866 z " fill-opacity="0.3"/>
<linearGradient gradientTransform="matrix(1 0 0 1 -1108.5801 -1412.4199)" gradientUnits="userSpaceOnUse" id="SVGID_2_" x1="1196.5156" x2="1196.5156" y1="1509.5938" y2="1448.7358">
<stop offset="0" stop-color="#d0cbc5"/>
<stop offset="0.9943" stop-color="#fafcef"/>
<stop offset="1" stop-color="#fafcef"/>
</linearGradient>
<path d="M 87.916 51.441 L 87.945 51.407 C 87.947 51.303 87.953 51.201 87.956 51.095 C 87.923 51.208 87.909 51.324 87.916 51.441 z " fill="url(#SVGID_2_)"/>
<path d="M 79.266 40.873 L 77.702995 42.206 C 77.45599 42.414 77.02 42.467003 76.73699 42.323 L 70.43599 39.711002 C 70.12999 39.608 69.85999 39.263 69.83599 38.942 L 69.671 36.9 C 69.646996 36.579002 69.363 36.317 69.036995 36.317 L 56.822 36.317 C 56.808 36.317 56.795998 36.324 56.781 36.325 L 56.665997 37.764 C 56.642998 38.085 56.369995 38.431 56.065998 38.533 L 56.056 38.536 L 56.025 38.941998 C 56.002003 39.262997 55.728 39.608997 55.424 39.711 L 49.125 42.322998 C 48.838 42.467 48.401 42.414997 48.156 42.205997 L 46.593 40.873997 C 46.345997 40.665997 45.961 40.679996 45.733997 40.906998 L 37.595997 49.045 C 37.619995 49.108997 37.652996 49.175 37.699997 49.231 L 39.032997 50.795 C 39.240997 51.038998 39.292995 51.473 39.149998 51.761997 L 36.538 58.059 C 36.484997 58.218998 36.362 58.369 36.212997 58.478996 L 35.898 59.238995 C 35.796997 59.543995 35.448997 59.814995 35.127 59.837994 L 33.141 59.997993 L 33.141 71.675995 C 33.141 71.99799 33.404 72.27999 33.725 72.31 L 35.767 72.474 C 36.087997 72.496 36.434 72.770996 36.536 73.076 L 39.149998 79.37299 C 39.294 79.661995 39.240997 80.09599 39.032997 80.34 L 38.580997 80.869995 C 38.594997 81.103 38.531998 81.353 38.392 81.517 L 37.579998 82.47 C 37.606 82.578 37.650997 82.683 37.732 82.765 L 42.855 87.885 C 44.317 87.953 45.839 87.989 47.41 87.995 C 40.861 83.198006 36.597 75.458 36.597 66.735 C 36.597 61.961 37.882 57.483 40.114 53.618 C 44.475 45.089 53.346 39.233 63.566998 39.233 C 74.396996 39.233 83.718994 45.806 87.756996 55.170002 C 87.781 54.816 87.80299 54.458 87.823 54.097 L 87.344 52.941 C 87.199005 52.654003 87.251 52.217003 87.46 51.972 L 87.910995 51.445 C 87.90399 51.328 87.918 51.211998 87.951 51.099 C 87.972 50.339 87.979996 49.562 87.986 48.774998 L 80.121 40.909996 C 79.898 40.679 79.512 40.664 79.266 40.873 z " fill-opacity="0.3"/>
<linearGradient gradientTransform="matrix(1 0 0 -1 -272.5996 -298.9004)" gradientUnits="userSpaceOnUse" x1="332.8477" x2="332.8477" y1="-396.0737" y2="-335.2164">
<stop offset="0" stop-color="#d0cbc5"/>
<stop offset="0.9943" stop-color="#fafcef"/>
<stop offset="1" stop-color="#fafcef"/>
</linearGradient>
<path d="M 80.126 40.906 C 79.898 40.678997 79.512 40.663998 79.266 40.872997 L 77.702995 42.205997 C 77.45599 42.413998 77.02 42.467 76.73699 42.322998 L 70.43599 39.711 C 70.12999 39.607998 69.85999 39.262997 69.83599 38.941998 L 69.671 36.9 C 69.646996 36.579002 69.363 36.317 69.036995 36.317 L 56.822 36.317 C 56.808 36.317 56.795998 36.324 56.781 36.325 C 56.477997 36.347 56.217 36.594 56.189 36.9 L 56.056 38.536003 L 56.025 38.942 C 56.002003 39.263 55.728 39.609 55.424 39.711002 L 49.125 42.323 C 48.838 42.467003 48.401 42.415 48.156 42.206 L 46.593 40.874 C 46.345997 40.666 45.961 40.68 45.733997 40.907 L 37.595997 49.045002 L 37.093 49.548 C 36.864998 49.776 36.849 50.162 37.059998 50.408 L 38.392998 51.972 C 38.600998 52.215 38.652996 52.65 38.51 52.939 L 36.213997 58.475998 L 35.899 59.235996 C 35.797997 59.541996 35.449997 59.811996 35.128 59.835995 L 33.142 59.995995 L 33.086 60.000996 C 32.765 60.026997 32.502 60.310997 32.502 60.634995 L 32.502 72.852 C 32.502 73.174995 32.765 73.457 33.086 73.487 L 35.128 73.649 C 35.448997 73.673004 35.795 73.948006 35.897 74.252 L 38.510998 80.549995 C 38.558 80.644 38.577 80.754 38.582996 80.868 C 38.596996 81.102 38.533997 81.352 38.393997 81.516 L 37.581997 82.468 L 37.060997 83.079 C 36.85 83.324005 36.865997 83.713005 37.093998 83.939 L 40.921997 87.765 C 41.559 87.81 42.198997 87.851 42.857998 87.881 C 44.32 87.949 45.842 87.98499 47.413 87.991 C 40.864 83.194 36.6 75.453995 36.6 66.730995 C 36.6 61.956993 37.885 57.478996 40.116997 53.613995 C 44.67 45.728996 53.185997 40.406994 62.928997 40.406994 C 74.185 40.406994 83.808 47.503994 87.56799 57.453995 C 87.64199 56.706993 87.70799 55.943996 87.760994 55.164993 C 87.784996 54.810993 87.80799 54.45299 87.826996 54.091995 L 87.34699 52.934994 C 87.202995 52.647995 87.25499 52.211994 87.46399 51.966995 L 87.914986 51.438995 C 87.90798 51.321995 87.92199 51.206997 87.95499 51.092995 C 87.97599 50.333996 87.984985 49.557995 87.98999 48.770996 L 80.126 40.906 z " fill="#ffffff" fill-opacity="1"/>
<radialGradient cx="1190.9629" cy="1472.9639" gradientTransform="matrix(0.9927 0 0 0.9942 -1108.4058 -1411.6709)" gradientUnits="userSpaceOnUse" id="SVGID_4_" r="0.0019">
<stop offset="0" stop-color="#e64500"/>
<stop offset="0.1841" stop-color="#da4500"/>
<stop offset="0.4844" stop-color="#bc4700"/>
<stop offset="0.8612" stop-color="#894600"/>
<stop offset="1" stop-color="#894600"/>
</radialGradient>
<polygon fill="url(#SVGID_4_)" points="73.861,52.751 73.865,52.748 73.865,52.748 "/>
<radialGradient cx="1179.5088" cy="1487.0752" gradientTransform="matrix(0.9927 0 0 0.9942 -1108.4058 -1411.6709)" gradientUnits="userSpaceOnUse" id="SVGID_5_" r="24.8284">
<stop offset="0" stop-color="#e64500"/>
<stop offset="0.1841" stop-color="#da4500"/>
<stop offset="0.4844" stop-color="#bc4700"/>
<stop offset="0.8612" stop-color="#894600"/>
<stop offset="1" stop-color="#894600"/>
</radialGradient>
<polygon fill="url(#SVGID_5_)" points="71.469,52.699 71.432,52.736 71.434,52.736 71.471,52.699 "/>
<radialGradient cx="1179.9492" cy="1473.5479" gradientTransform="matrix(0.9927 0 0 0.9942 -1108.4058 -1411.6709)" gradientUnits="userSpaceOnUse" id="SVGID_6_" r="14.653">
<stop offset="0" stop-color="#e64500"/>
<stop offset="0.1841" stop-color="#da4500"/>
<stop offset="0.4844" stop-color="#bc4700"/>
<stop offset="0.8612" stop-color="#894600"/>
<stop offset="1" stop-color="#894600"/>
</radialGradient>
<polygon fill="url(#SVGID_6_)" points="72.947,53.33 72.947,53.33 72.964,53.33 "/>
<radialGradient cx="1168.9229" cy="1466.8496" gradientTransform="matrix(0.9927 0 0 0.9942 -1108.4058 -1411.6709)" gradientUnits="userSpaceOnUse" id="SVGID_7_" r="0.2534">
<stop offset="0" stop-color="#e64500"/>
<stop offset="0.1841" stop-color="#da4500"/>
<stop offset="0.4844" stop-color="#bc4700"/>
<stop offset="0.8612" stop-color="#894600"/>
<stop offset="1" stop-color="#894600"/>
</radialGradient>
<rect fill="url(#SVGID_7_)" height="0.709" width="0" x="51.984" y="46.317"/>
<radialGradient cx="1166.8242" cy="1468.4844" gradientTransform="matrix(0.9927 0 0 0.9942 -1108.4058 -1411.6709)" gradientUnits="userSpaceOnUse" id="SVGID_8_" r="0.4668">
<stop offset="0" stop-color="#e64500"/>
<stop offset="0.1841" stop-color="#da4500"/>
<stop offset="0.4844" stop-color="#bc4700"/>
<stop offset="0.8612" stop-color="#894600"/>
<stop offset="1" stop-color="#894600"/>
</radialGradient>
<rect fill="url(#SVGID_8_)" height="1.311" width="0.002" x="49.9" y="47.641"/>
<radialGradient cx="1179.9492" cy="1487.0752" gradientTransform="matrix(0.9927 0 0 0.9942 -1108.4058 -1411.6709)" gradientUnits="userSpaceOnUse" id="SVGID_9_" r="24.4822">
<stop offset="0" stop-color="#e64500"/>
<stop offset="0.1841" stop-color="#da4500"/>
<stop offset="0.4844" stop-color="#bc4700"/>
<stop offset="0.8612" stop-color="#894600"/>
<stop offset="1" stop-color="#894600"/>
</radialGradient>
<polygon fill="url(#SVGID_9_)" points="44.75,52.313 44.75,51.825 44.749,51.826 44.749,52.313 45,52.313 45,52.313 "/>
<radialGradient cx="1179.9492" cy="1487.0752" gradientTransform="matrix(0.9927 0 0 0.9942 -1108.4058 -1411.6709)" gradientUnits="userSpaceOnUse" id="SVGID_10_" r="24.4822">
<stop offset="0" stop-color="#e64500"/>
<stop offset="0.1841" stop-color="#da4500"/>
<stop offset="0.4844" stop-color="#bc4700"/>
<stop offset="0.8612" stop-color="#894600"/>
<stop offset="1" stop-color="#894600"/>
</radialGradient>
<polygon fill="url(#SVGID_10_)" points="46.734,49.841 44.75,51.824 46.735,49.841 "/>
<radialGradient cx="1179.9492" cy="1487.0781" gradientTransform="matrix(0.9927 0 0 0.9942 -1108.4058 -1411.6709)" gradientUnits="userSpaceOnUse" r="24.4844">
<stop offset="0" stop-color="#e64500"/>
<stop offset="0.1841" stop-color="#da4500"/>
<stop offset="0.4844" stop-color="#bc4700"/>
<stop offset="0.8612" stop-color="#894600"/>
<stop offset="1" stop-color="#894600"/>
</radialGradient>
<polygon fill="#a02e00" fill-opacity="1" points="51.251,48.688 50.367,48.688 49.438,49.613 48.51,49.613 47.432,50.693 46.736,50.693   45.119,52.313 46.005,52.313 46.004,53.049 46.004,53.125 46.005,53.125 46.005,53.121 47.045,53.121 47.045,53.859 47.044,53.859   47.044,54.316 48.338,53.025 48.338,52.313 48.338,51.578 48.338,51.575 48.82,51.575 49.708,50.689 50.902,50.689 50.902,51.425   50.902,51.809 51.716,51.809 52.506,51.016 52.059,51.463 51.91,51.463 50.861,50.425 50.861,49.922 51.215,49.922 50.861,49.57   50.861,49.568 50.861,49.066 51.449,49.066 51.631,49.066 "/>
<radialGradient cx="1179.957" cy="1487.085" gradientTransform="matrix(0.9927 0 0 0.9942 -1108.4058 -1411.6709)" gradientUnits="userSpaceOnUse" id="SVGID_12_" r="24.4831">
<stop offset="0" stop-color="#e64500"/>
<stop offset="0.1841" stop-color="#da4500"/>
<stop offset="0.4844" stop-color="#bc4700"/>
<stop offset="0.8612" stop-color="#894600"/>
<stop offset="1" stop-color="#894600"/>
</radialGradient>
<polygon fill="url(#SVGID_12_)" points="76.02,52.082 74.807,53.294 76.139,51.966 76.141,51.966 76.45,51.656 76.45,51.654   76.445,51.657 "/>
<radialGradient cx="1179.9521" cy="1487.0752" gradientTransform="matrix(0.9927 0 0 0.9942 -1108.4058 -1411.6709)" gradientUnits="userSpaceOnUse" id="SVGID_13_" r="24.478">
<stop offset="0" stop-color="#e64500"/>
<stop offset="0.1841" stop-color="#da4500"/>
<stop offset="0.4844" stop-color="#bc4700"/>
<stop offset="0.8612" stop-color="#894600"/>
<stop offset="1" stop-color="#894600"/>
</radialGradient>
<path d="M 83.195 69.134 L 81.0 66.938 L 81.0 66.08501 L 81.0 66.08201 L 81.0 63.58201 L 80.207 63.58201 L 80.207 66.33201 L 83.042 69.170006 L 85.145 69.170006 C 85.227 68.94101 85.311 68.71901 85.38699 68.48401 L 84.73899 69.13201 L 83.195 69.134 L 83.195 69.134 z " fill="url(#SVGID_13_)"/>
<radialGradient cx="1179.9492" cy="1487.0752" gradientTransform="matrix(0.9927 0 0 0.9942 -1108.4058 -1411.6709)" gradientUnits="userSpaceOnUse" id="SVGID_14_" r="24.4822">
<stop offset="0" stop-color="#e64500"/>
<stop offset="0.1841" stop-color="#da4500"/>
<stop offset="0.4844" stop-color="#bc4700"/>
<stop offset="0.8612" stop-color="#894600"/>
<stop offset="1" stop-color="#894600"/>
</radialGradient>
<polygon fill="url(#SVGID_14_)" points="84.41,62.204 84.195,62.42 84.411,62.205 "/>
<radialGradient cx="1203.0264" cy="1483.9111" gradientTransform="matrix(0.9927 0 0 0.9942 -1108.4058 -1411.6709)" gradientUnits="userSpaceOnUse" id="SVGID_15_" r="0.0014">
<stop offset="0" stop-color="#e64500"/>
<stop offset="0.1841" stop-color="#da4500"/>
<stop offset="0.4844" stop-color="#bc4700"/>
<stop offset="0.8612" stop-color="#894600"/>
<stop offset="1" stop-color="#894600"/>
</radialGradient>
<rect fill="url(#SVGID_15_)" height="0.001" width="0.003" x="85.838" y="63.633"/>
<radialGradient cx="1159.4844" cy="1491.3281" gradientTransform="matrix(0.9927 0 0 0.9942 -1108.4058 -1411.6709)" gradientUnits="userSpaceOnUse" id="SVGID_16_" r="0.2369">
<stop offset="0" stop-color="#e64500"/>
<stop offset="0.1841" stop-color="#da4500"/>
<stop offset="0.4844" stop-color="#bc4700"/>
<stop offset="0.8612" stop-color="#894600"/>
<stop offset="1" stop-color="#894600"/>
</radialGradient>
<rect fill="url(#SVGID_16_)" height="0.667" width="0.003" x="42.614" y="70.674"/>
<radialGradient cx="1179.1045" cy="1487.0752" gradientTransform="matrix(0.9927 0 0 0.9942 -1108.4058 -1411.6709)" gradientUnits="userSpaceOnUse" id="SVGID_17_" r="23.6377">
<stop offset="0" stop-color="#e64500"/>
<stop offset="0.1841" stop-color="#da4500"/>
<stop offset="0.4844" stop-color="#bc4700"/>
<stop offset="0.8612" stop-color="#894600"/>
<stop offset="1" stop-color="#894600"/>
</radialGradient>
<path d="M 38.609 66.777 C 38.609 66.993004 38.620003 67.206 38.625 67.42 L 38.636 67.42 C 38.622 67.208 38.609 66.995 38.609 66.777 z " fill="url(#SVGID_17_)"/>
<radialGradient cx="1189.7695" cy="1473.5361" gradientTransform="matrix(0.9927 0 0 0.9942 -1108.4058 -1411.6709)" gradientUnits="userSpaceOnUse" id="SVGID_18_" r="0.0055">
<stop offset="0" stop-color="#e64500"/>
<stop offset="0.1841" stop-color="#da4500"/>
<stop offset="0.4844" stop-color="#bc4700"/>
<stop offset="0.8612" stop-color="#894600"/>
<stop offset="1" stop-color="#894600"/>
</radialGradient>
<path d="M 72.688 53.318 C 72.684006 53.318 72.676 53.318 72.671005 53.318 C 72.676 53.318 72.684 53.318 72.688 53.318 z " fill="url(#SVGID_18_)"/>
<radialGradient cx="1179.9492" cy="1487.0752" gradientTransform="matrix(0.9927 0 0 0.9942 -1108.4058 -1411.6709)" gradientUnits="userSpaceOnUse" id="SVGID_19_" r="24.4822">
<stop offset="0" stop-color="#e64500"/>
<stop offset="0.1841" stop-color="#da4500"/>
<stop offset="0.4844" stop-color="#bc4700"/>
<stop offset="0.8612" stop-color="#894600"/>
<stop offset="1" stop-color="#894600"/>
</radialGradient>
<polygon fill="url(#SVGID_19_)" points="82.775,56.9 84.007,55.663 84.005,55.663 82.773,56.9 "/>
<radialGradient cx="1179.9492" cy="1487.0732" gradientTransform="matrix(0.9927 0 0 0.9942 -1108.4058 -1411.6709)" gradientUnits="userSpaceOnUse" id="SVGID_20_" r="24.4821">
<stop offset="0" stop-color="#e64500"/>
<stop offset="0.1841" stop-color="#da4500"/>
<stop offset="0.4844" stop-color="#bc4700"/>
<stop offset="0.8612" stop-color="#894600"/>
<stop offset="1" stop-color="#894600"/>
</radialGradient>
<polygon fill="url(#SVGID_20_)" points="85.657,64.307 84.411,63.059 85.656,64.307 "/>
<radialGradient cx="1179.9492" cy="1487.1084" gradientTransform="matrix(0.9927 0 0 0.9942 -1108.4058 -1411.6709)" gradientUnits="userSpaceOnUse" id="SVGID_21_" r="24.4882">
<stop offset="0" stop-color="#e64500"/>
<stop offset="0.1841" stop-color="#da4500"/>
<stop offset="0.4844" stop-color="#bc4700"/>
<stop offset="0.8612" stop-color="#894600"/>
<stop offset="1" stop-color="#894600"/>
</radialGradient>
<polygon fill="url(#SVGID_21_)" points="84.298,63.171 84.299,63.172 84.411,63.059 "/>
<radialGradient cx="1179.9492" cy="1487.0752" gradientTransform="matrix(0.9927 0 0 0.9942 -1108.4058 -1411.6709)" gradientUnits="userSpaceOnUse" id="SVGID_22_" r="24.4822">
<stop offset="0" stop-color="#e64500"/>
<stop offset="0.1841" stop-color="#da4500"/>
<stop offset="0.4844" stop-color="#bc4700"/>
<stop offset="0.8612" stop-color="#894600"/>
<stop offset="1" stop-color="#894600"/>
</radialGradient>
<polygon fill="url(#SVGID_22_)" points="47.564,49.706 47.431,49.84 47.432,49.84 "/>
<radialGradient cx="1179.9785" cy="1487.1309" gradientTransform="matrix(0.9927 0 0 0.9942 -1108.4058 -1411.6709)" gradientUnits="userSpaceOnUse" id="SVGID_23_" r="24.5498">
<stop offset="0" stop-color="#e64500"/>
<stop offset="0.1841" stop-color="#da4500"/>
<stop offset="0.4844" stop-color="#bc4700"/>
<stop offset="0.8612" stop-color="#894600"/>
<stop offset="1" stop-color="#894600"/>
</radialGradient>
<polygon fill="url(#SVGID_23_)" points="52.867,47.012 52.523,46.671 52.873,47.02 "/>
<radialGradient cx="1179.9492" cy="1487.0771" gradientTransform="matrix(0.9927 0 0 0.9942 -1108.4058 -1411.6709)" gradientUnits="userSpaceOnUse" r="24.4813">
<stop offset="0" stop-color="#e64500"/>
<stop offset="0.1841" stop-color="#da4500"/>
<stop offset="0.4844" stop-color="#bc4700"/>
<stop offset="0.8612" stop-color="#894600"/>
<stop offset="1" stop-color="#894600"/>
</radialGradient>
<polygon fill="#a02e00" fill-opacity="1" points="76.214,61.066 76.215,61.066 76.215,61.803 76.215,61.836 79.184,61.836 80.066,60.95   80.066,60.549 78.625,60.549 76.947,58.874 76.371,58.874 76.371,59.378 74.999,59.378 74.999,58.621 73.744,57.37 73.68,57.37   74.287,57.979 74.168,58.098 73.917,58.35 73.916,58.35 73.63,58.635 73.857,58.408 74.284,58.834 73.63,59.488 72.05,57.909   70.225,57.909 70.225,58.596 68.908,59.91 72.098,59.91 72.548,59.91 72.549,59.91 72.549,61.066 75.764,61.066 "/>
<radialGradient cx="1198.8789" cy="1478.2646" gradientTransform="matrix(0.9927 0 0 0.9942 -1108.4058 -1411.6709)" gradientUnits="userSpaceOnUse" id="SVGID_25_" r="0.0677">
<stop offset="0" stop-color="#e64500"/>
<stop offset="0.1841" stop-color="#da4500"/>
<stop offset="0.4844" stop-color="#bc4700"/>
<stop offset="0.8612" stop-color="#894600"/>
<stop offset="1" stop-color="#894600"/>
</radialGradient>
<rect fill="url(#SVGID_25_)" height="0" width="0.188" x="81.628" y="58.02"/>
<radialGradient cx="1179.9072" cy="1487.0752" gradientTransform="matrix(0.9927 0 0 0.9942 -1108.4058 -1411.6709)" gradientUnits="userSpaceOnUse" id="SVGID_26_" r="24.5277">
<stop offset="0" stop-color="#e64500"/>
<stop offset="0.1841" stop-color="#da4500"/>
<stop offset="0.4844" stop-color="#bc4700"/>
<stop offset="0.8612" stop-color="#894600"/>
<stop offset="1" stop-color="#894600"/>
</radialGradient>
<polygon fill="url(#SVGID_26_)" points="84.738,68.279 85.764,67.257 85.766,67.25 84.732,68.279 "/>
<radialGradient cx="1174.5449" cy="1468.8145" gradientTransform="matrix(0.9927 0 0 0.9942 -1108.4058 -1411.6709)" gradientUnits="userSpaceOnUse" id="SVGID_27_" r="0.1077">
<stop offset="0" stop-color="#e64500"/>
<stop offset="0.1841" stop-color="#da4500"/>
<stop offset="0.4844" stop-color="#bc4700"/>
<stop offset="0.8612" stop-color="#894600"/>
<stop offset="1" stop-color="#894600"/>
</radialGradient>
<rect fill="url(#SVGID_27_)" height="0.001" width="0.302" x="57.415" y="48.624"/>
<radialGradient cx="1179.9492" cy="1487.0771" gradientTransform="matrix(0.9927 0 0 0.9942 -1108.4058 -1411.6709)" gradientUnits="userSpaceOnUse" r="24.4827">
<stop offset="0" stop-color="#e64500"/>
<stop offset="0.1841" stop-color="#da4500"/>
<stop offset="0.4844" stop-color="#bc4700"/>
<stop offset="0.8612" stop-color="#894600"/>
<stop offset="1" stop-color="#894600"/>
</radialGradient>
<polygon fill="#a02e00" fill-opacity="1" points="80.46,56.964 78.468,56.964 77.799,57.639 77.619,57.461 78.184,58.02 81.512,58.02 "/>
<linearGradient gradientTransform="matrix(1 0 0 -1 -272.5996 -298.9004)" gradientUnits="userSpaceOnUse" id="SVGID_29_" x1="322.0439" x2="322.0439" y1="-385.498" y2="-385.9861">
<stop offset="0" stop-color="#ffffff"/>
<stop offset="1" stop-color="#ffffff" stop-opacity="0"/>
</linearGradient>
<path d="M 49.787 87.189 C 49.557 87.041 49.326 86.89 49.100998 86.734 C 49.327 86.893 49.557 87.042 49.787 87.189 z " fill="url(#SVGID_29_)" fill-opacity="0.3"/>
<radialGradient cx="4679.9502" cy="2173.5762" gradientTransform="matrix(0.0756 0.0454 -0.0454 0.0756 -170.3813 -322.469)" gradientUnits="userSpaceOnUse" id="SVGID_30_" r="19.9265">
<stop offset="0" stop-color="#e64500"/>
<stop offset="0.1841" stop-color="#da4500"/>
<stop offset="0.4844" stop-color="#bc4700"/>
<stop offset="0.8612" stop-color="#894600"/>
<stop offset="1" stop-color="#894600"/>
</radialGradient>
<polyline fill="url(#SVGID_30_)" points="82.191,51.969 82.344,52.165 82.191,51.969 "/>
<radialGradient cx="676.668" cy="286.8975" gradientTransform="matrix(0.5864 0.352 -0.352 0.5864 -195.0847 -337.7185)" gradientUnits="userSpaceOnUse" id="SVGID_31_" r="19.8988">
<stop offset="0" stop-color="#e64500"/>
<stop offset="0.1841" stop-color="#da4500"/>
<stop offset="0.4844" stop-color="#bc4700"/>
<stop offset="0.8612" stop-color="#894600"/>
<stop offset="1" stop-color="#894600"/>
</radialGradient>
<path d="M 81.585 51.211 C 81.792 51.46 81.993996 51.712997 82.191 51.968998 C 81.995 51.712 81.792 51.459 81.585 51.211 M 80.953 50.482 C 81.16901 50.719997 81.379005 50.961998 81.58501 51.211 C 81.38 50.964 81.169 50.723 80.953 50.482 " fill="url(#SVGID_31_)"/>
<radialGradient cx="715.4561" cy="305.1611" gradientTransform="matrix(0.5504 0.3304 -0.3304 0.5504 -192.1036 -335.0191)" gradientUnits="userSpaceOnUse" id="SVGID_32_" r="19.9164">
<stop offset="0" stop-color="#e64500"/>
<stop offset="0.1841" stop-color="#da4500"/>
<stop offset="0.4844" stop-color="#bc4700"/>
<stop offset="0.8612" stop-color="#894600"/>
<stop offset="1" stop-color="#894600"/>
</radialGradient>
<path d="M 82.871 52.895 C 83.045006 53.145 83.215004 53.399002 83.380005 53.657 C 83.215 53.396 83.045 53.145 82.871 52.895 M 82.344 52.165 C 82.524 52.404 82.699005 52.646 82.871 52.894 C 82.699 52.646 82.523 52.404 82.344 52.165 " fill="url(#SVGID_32_)"/>
<radialGradient cx="731.5547" cy="312.7158" gradientTransform="matrix(0.5367 0.3222 -0.3222 0.5367 -190.3222 -332.8305)" gradientUnits="userSpaceOnUse" id="SVGID_33_" r="19.9084">
<stop offset="0" stop-color="#e64500"/>
<stop offset="0.1841" stop-color="#da4500"/>
<stop offset="0.4844" stop-color="#bc4700"/>
<stop offset="0.8612" stop-color="#894600"/>
<stop offset="1" stop-color="#894600"/>
</radialGradient>
<path d="M 83.563 53.941 C 83.87601 54.441 84.167 54.954002 84.442 55.476 C 84.166 54.954 83.875 54.441 83.563 53.941 " fill="url(#SVGID_33_)"/>
<radialGradient cx="3464.1416" cy="1601.5186" gradientTransform="matrix(0.1028 0.0617 -0.0617 0.1028 -170.4609 -321.5007)" gradientUnits="userSpaceOnUse" id="SVGID_34_" r="19.963">
<stop offset="0" stop-color="#e64500"/>
<stop offset="0.1841" stop-color="#da4500"/>
<stop offset="0.4844" stop-color="#bc4700"/>
<stop offset="0.8612" stop-color="#894600"/>
<stop offset="1" stop-color="#894600"/>
</radialGradient>
<path d="M 83.38 53.654 C 83.44199 53.75 83.503 53.845 83.564995 53.940998 C 83.503 53.846 83.441 53.75 83.38 53.654 " fill="url(#SVGID_34_)"/>
<radialGradient cx="11292.4746" cy="5295.2744" gradientTransform="matrix(0.031 0.0186 -0.0186 0.031 -169.6407 -322.8275)" gradientUnits="userSpaceOnUse" id="SVGID_35_" r="19.9164">
<stop offset="0" stop-color="#e64500"/>
<stop offset="0.1841" stop-color="#da4500"/>
<stop offset="0.4844" stop-color="#bc4700"/>
<stop offset="0.8612" stop-color="#894600"/>
<stop offset="1" stop-color="#894600"/>
</radialGradient>
<polyline fill="url(#SVGID_35_)" points="80.885,50.408 80.953,50.482 80.885,50.408 "/>
<radialGradient cx="335.9688" cy="126.249" gradientTransform="matrix(1.3798 0.8282 -0.8282 1.3798 -229.5221 -353.754)" gradientUnits="userSpaceOnUse" id="SVGID_36_" r="19.8971">
<stop offset="0" stop-color="#e64500"/>
<stop offset="0.1841" stop-color="#da4500"/>
<stop offset="0.4844" stop-color="#bc4700"/>
<stop offset="0.8612" stop-color="#894600"/>
<stop offset="1" stop-color="#894600"/>
</radialGradient>
<path d="M 84.785 56.146 L 84.785 56.154 C 85.023 56.646 85.247 57.146 85.453 57.654 C 85.248 57.143 85.025 56.641 84.785 56.146 M 84.539 55.663 L 84.122 55.663 L 84.057 55.663 C 84.221 55.948997 84.396996 56.225 84.547 56.517 L 84.006996 56.517 L 83.19399 57.331997 L 84.006996 58.170998 L 84.006996 58.171997 L 84.006996 58.909996 L 84.006996 59.062996 L 84.42799 59.478996 L 85.66799 59.478996 L 85.66799 59.374996 L 84.19699 57.905994 L 84.19699 57.41 L 84.55399 57.41 L 84.19699 57.055 L 84.19699 57.051 L 84.19699 56.555 L 84.19699 56.553 L 84.77899 56.553 L 84.77899 56.145 L 84.78499 56.16 L 84.78499 56.155 C 84.705 55.988 84.623 55.826 84.539 55.663 " fill="url(#SVGID_36_)"/>
<radialGradient cx="307.6729" cy="112.8984" gradientTransform="matrix(1.5546 0.9331 -0.9331 1.5546 -235.9953 -356.0753)" gradientUnits="userSpaceOnUse" id="SVGID_37_" r="19.9061">
<stop offset="0" stop-color="#e64500"/>
<stop offset="0.1841" stop-color="#da4500"/>
<stop offset="0.4844" stop-color="#bc4700"/>
<stop offset="0.8612" stop-color="#894600"/>
<stop offset="1" stop-color="#894600"/>
</radialGradient>
<path d="M 85.477 57.71 C 86.104 59.281 86.56699 60.932 86.857994 62.645 L 86.87799 62.53 C 86.581 60.854 86.096 59.248 85.477 57.71 " fill="url(#SVGID_37_)"/>
<radialGradient cx="18760.2188" cy="8782.875" gradientTransform="matrix(0.0186 0.0112 -0.0112 0.0186 -164.5057 -315.2451)" gradientUnits="userSpaceOnUse" id="SVGID_38_" r="19.6273">
<stop offset="0" stop-color="#e64500"/>
<stop offset="0.1841" stop-color="#da4500"/>
<stop offset="0.4844" stop-color="#bc4700"/>
<stop offset="0.8612" stop-color="#894600"/>
<stop offset="1" stop-color="#894600"/>
</radialGradient>
<polyline fill="url(#SVGID_38_)" points="85.453,57.654 85.477,57.71 85.453,57.654 "/>
<radialGradient cx="5454.4482" cy="2542.6963" gradientTransform="matrix(0.0647 0.0388 -0.0388 0.0647 -167.6493 -318.6541)" gradientUnits="userSpaceOnUse" id="SVGID_39_" r="19.8281">
<stop offset="0" stop-color="#e64500"/>
<stop offset="0.1841" stop-color="#da4500"/>
<stop offset="0.4844" stop-color="#bc4700"/>
<stop offset="0.8612" stop-color="#894600"/>
<stop offset="1" stop-color="#894600"/>
</radialGradient>
<polyline fill="url(#SVGID_39_)" points="84.441,55.479 84.539,55.663 84.544,55.663 84.543,55.661 84.547,55.661 84.441,55.479 "/>
<radialGradient cx="335.3516" cy="-366.1499" gradientTransform="matrix(1 0 0 -1 -272.5996 -298.9004)" gradientUnits="userSpaceOnUse" r="23.5708">
<stop offset="0" stop-color="#e64500"/>
<stop offset="0.4485" stop-color="#da4500"/>
<stop offset="1" stop-color="#894600"/>
</radialGradient>
<path d="M 66.488 54.25 L 66.488 53.869 L 66.841995 53.514 L 66.841995 53.203 L 67.254 52.855 L 67.703995 52.855 L 67.703995 53.334 L 67.506 53.532 L 67.506 53.714 L 67.703995 53.714 L 67.703995 54.188 L 67.506 54.387 L 67.506 54.694 L 67.090996 55.108 L 66.488 55.108 L 66.488 54.723003 L 66.840996 54.367004 L 66.840996 54.25 L 66.488 54.25 M 54.314 45.429 L 55.05 45.429 L 55.05 45.387 L 57.248 45.387 L 58.199 44.428 L 65.799 44.428 L 66.103004 44.428 L 66.107 44.428 L 66.57 44.747 L 66.568 44.748 L 66.57 44.748 L 66.034996 45.282 L 66.106995 45.282 L 66.56999 45.602 L 63.729992 48.437 L 62.86499 48.437 L 60.51899 50.779 L 59.563988 50.779 L 58.188988 52.154 L 56.961987 52.154 L 56.961987 51.3 L 56.960987 51.3 L 56.960987 48.623 L 56.961987 48.623 L 56.961987 48.622 L 57.248985 48.622 L 57.248985 47.986 L 57.248985 47.986 L 57.248985 47.28 L 55.051987 47.28 L 55.051987 46.426 L 55.051987 45.803997 L 54.8 45.803997 L 54.377 46.218 L 53.471 47.122997 L 52.983 47.122997 L 54.723003 48.87 L 54.360004 49.238 L 54.3 49.3 L 54.723 49.726997 L 54.283 50.171997 L 53.221 50.171997 L 53.221 50.847996 L 52.602 51.462997 L 52.506 51.462997 L 52.506 51.753 L 52.506 53.002 L 53.233 53.729 L 53.233 54.164 L 53.233 54.166 L 53.022003 54.374 L 53.233 54.583 L 53.233 55.019 L 52.606003 55.64 L 50.713 55.64 L 50.713 55.904 L 50.713 56.634 L 50.713 57.488 L 50.248 57.947 L 48.553 57.947 L 45.656002 60.843 L 44.69 60.843 L 43.220997 62.309998 L 43.220997 63.578 L 43.220997 64.432 L 42.723995 64.432 L 42.723995 63.578 L 42.723995 63.314 L 42.26 62.85 L 39.522 62.85 L 39.005 63.368 C 39.068 63.011 39.139 62.653 39.22 62.302002 L 39.006 62.517002 C 40.091 56.413002 43.444 51.107002 48.172 47.485 L 48.244 47.485 L 47.681 48.049 L 48.068 48.436 L 49.014 48.436 L 49.528 47.924 L 48.903 47.924 L 49.908 46.92 L 50.946 46.92 L 51.196 46.667 L 51.19 46.667 L 50.944 46.916 L 50.255 46.916 C 50.398003 46.829 50.541 46.743 50.687 46.659 L 50.021 46.648 L 49.713 46.648 L 49.713 46.645 L 49.710003 46.645 L 49.710003 46.644 L 49.710003 46.389 C 50.765003 45.701 51.875004 45.097 53.039 44.578 L 54.6 44.578 L 56.848 44.578 L 56.843 44.582 L 56.848 44.582 L 56.473 44.959 L 54.8 44.959 L 54.378 45.37 L 54.314 45.429 M 62.93 42.458 C 49.498 42.458 38.609 53.346 38.609 66.775 L 38.609 66.775 L 38.618 66.566 L 38.619 66.566 L 38.619 66.564 L 39.215 66.564 L 39.993 65.784004 L 40.563 65.784004 L 40.563 66.521 L 40.563 66.521 L 40.563 67.32001 L 41.453 67.32001 L 41.453 68.05401 L 41.453 69.32501 L 42.281998 70.153015 L 43.398 70.153015 L 43.767998 70.153015 L 44.413 69.50501 L 48.434998 69.50501 L 51.911 72.98401 L 53.913998 72.98401 L 53.914997 72.98401 L 53.914997 73.72201 L 53.913998 73.72201 L 53.913998 73.80201 L 54.741997 74.628006 L 57.232 74.628006 L 57.232 74.634 L 57.232 74.634 L 57.232 76.310005 L 57.232 76.316 L 57.232 77.166 L 55.662 78.734 L 55.478 78.918 L 55.478 81.562996 L 55.476 81.562996 L 55.476 82.411995 L 54.646 82.411995 L 53.065998 83.992 L 53.065998 84.883995 L 53.061996 84.88799 L 53.061996 85.731995 L 51.370995 87.426994 L 51.370995 87.662994 L 50.532993 87.662994 L 50.49399 87.662994 C 50.25099 87.51699 50.02499 87.34899 49.78799 87.19399 C 49.55899 87.04599 49.32799 86.89499 49.10099 86.73899 C 48.78799 86.51999 48.47899 86.30099 48.17799 86.06899 C 47.95199 85.89499 47.73499 85.71199 47.51399 85.52999 C 47.26399 85.32299 46.99999 85.13299 46.758987 84.91699 L 46.758987 84.89199 L 46.758987 80.74899 L 46.757988 80.74799 L 46.757988 81.6 L 45.51199 80.354 L 44.84499 80.354 L 43.24499 78.754 L 42.479992 77.988 L 42.479992 77.134 L 42.479992 73.26 L 42.94799 72.786 L 42.94799 71.685005 L 42.22499 71.685005 L 39.55899 69.023 L 38.94399 69.023 L 38.696987 68.775 C 39.368988 77.019005 44.143986 84.093 50.980988 87.96 L 51.056988 87.957 C 60.59799 87.707 67.984985 86.242004 73.552986 83.223 L 73.552986 78.704 L 73.552986 76.466 L 72.123985 75.039 L 72.123985 74.187004 L 72.12199 74.185005 L 72.12199 72.495 L 66.45099 72.495 L 64.1 70.141 L 64.1 69.287 L 64.1 63.968002 L 64.1 63.23 L 64.1 63.228 L 64.104 63.224 L 66.989 60.337997 L 66.643 59.992996 L 66.643 59.135998 L 66.643 57.945 L 66.643 57.21 L 66.643 57.21 L 66.643 57.205997 L 68.651 57.205997 L 68.651 56.29 L 67.998 56.29 L 67.998 55.652 L 68.651 55.652 L 68.651 55.536 L 68.651 55.434998 L 67.999 55.434998 L 67.998 55.434998 L 67.998 55.227997 L 67.91 55.227997 L 67.91 54.796997 L 68.303 54.400997 L 68.489 54.400997 L 68.489 54.371 L 67.911995 54.371 L 67.911995 53.938 L 68.30399 53.546 L 68.12 53.73 L 67.756004 53.366 L 67.756004 52.853 L 67.934006 52.689 L 67.756004 52.510998 L 67.756004 52.0 L 68.074005 51.7 L 68.564 51.7 L 68.232 52.029 L 68.902 52.029 L 68.902 52.339 L 68.645 52.6 L 69.63 53.586998 L 69.63 53.997997 L 69.256 54.371998 L 69.258995 54.371998 L 69.412994 54.220997 L 69.632996 54.44 L 69.632996 54.531998 L 69.878 54.288 L 71.311 52.853996 L 70.9 52.853996 L 70.9 52.0 L 70.9 51.436 L 70.9 50.698 L 70.904 50.694 L 70.921 50.678 L 73.711 47.892002 L 73.712 47.892002 L 73.714 47.890003 L 78.201996 47.890003 L 78.654 48.331005 L 78.654 49.062004 L 78.645996 49.062004 L 78.645996 49.064003 L 78.642 49.064003 L 77.907 49.038002 L 78.517 49.06 L 78.645996 49.187 L 78.645996 49.548 L 78.82 49.548 L 79.429 48.941 C 79.935 49.410004 80.418 49.898003 80.883 50.407 C 76.439 45.533 70.053 42.458 62.93 42.458 " fill="#a02e00" fill-opacity="1"/>
<linearGradient gradientTransform="matrix(1 0 0 -1 -272.5996 -298.9004)" gradientUnits="userSpaceOnUse" id="SVGID_41_" x1="320.4463" x2="320.4463" y1="-384.2646" y2="-384.8428">
<stop offset="0" stop-color="#ffffff"/>
<stop offset="1" stop-color="#ffffff" stop-opacity="0"/>
</linearGradient>
<path d="M 48.178 86.064 C 47.952 85.892006 47.735 85.708 47.514 85.525 C 47.734 85.708 47.952 85.893 48.178 86.064 z " fill="url(#SVGID_41_)" fill-opacity="0.3"/>
<radialGradient cx="1189.2109" cy="1493.6758" gradientTransform="matrix(0.9927 0 0 0.9942 -1108.4058 -1411.6709)" gradientUnits="userSpaceOnUse" id="SVGID_42_" r="0.6015">
<stop offset="0" stop-color="#e64500"/>
<stop offset="0.1841" stop-color="#da4500"/>
<stop offset="0.4844" stop-color="#bc4700"/>
<stop offset="0.8612" stop-color="#894600"/>
<stop offset="1" stop-color="#894600"/>
</radialGradient>
<polygon fill="url(#SVGID_42_)" points="72.125,72.495 72.123,72.495 72.123,74.188 72.125,74.188 72.125,74.188 "/>
<radialGradient cx="1180.7041" cy="1637.2285" gradientTransform="matrix(1 0 0 0.9023 -1108.5801 -1403.9305)" gradientUnits="userSpaceOnUse" id="SVGID_43_" r="0.6636">
<stop offset="0" stop-color="#ffffff"/>
<stop offset="0.3232" stop-color="#ffffff"/>
<stop offset="1" stop-color="#d0cbc5"/>
</radialGradient>
<polygon fill="url(#SVGID_43_)" points="72.125,72.495 72.123,72.495 72.123,74.188 72.125,74.188 72.125,74.188 "/>
<radialGradient cx="1179.9492" cy="1487.0752" gradientTransform="matrix(0.9927 0 0 0.9942 -1108.4058 -1411.6709)" gradientUnits="userSpaceOnUse" id="SVGID_44_" r="24.4822">
<stop offset="0" stop-color="#e64500"/>
<stop offset="0.1841" stop-color="#da4500"/>
<stop offset="0.4844" stop-color="#bc4700"/>
<stop offset="0.8612" stop-color="#894600"/>
<stop offset="1" stop-color="#894600"/>
</radialGradient>
<polygon fill="url(#SVGID_44_)" points="71.29,51.048 71.35,51.102 72.537,51.102 73.293,51.85 73.676,51.85 73.922,51.604   73.922,49.589 74.88,48.631 73.711,48.631 "/>
<radialGradient cx="1171.2598" cy="1621.6494" gradientTransform="matrix(1 0 0 0.9023 -1108.5801 -1403.9305)" gradientUnits="userSpaceOnUse" id="SVGID_45_" r="28.194">
<stop offset="0" stop-color="#ffffff"/>
<stop offset="0.3232" stop-color="#ffffff"/>
<stop offset="1" stop-color="#d0cbc5"/>
</radialGradient>
<polygon fill="url(#SVGID_45_)" points="71.29,51.048 71.35,51.102 72.537,51.102 73.293,51.85 73.676,51.85 73.922,51.604   73.922,49.589 74.88,48.631 73.711,48.631 "/>
<radialGradient cx="1179.9492" cy="1487.0625" gradientTransform="matrix(0.9927 0 0 0.9942 -1108.4058 -1411.6709)" gradientUnits="userSpaceOnUse" id="SVGID_46_" r="24.4701">
<stop offset="0" stop-color="#e64500"/>
<stop offset="0.1841" stop-color="#da4500"/>
<stop offset="0.4844" stop-color="#bc4700"/>
<stop offset="0.8612" stop-color="#894600"/>
<stop offset="1" stop-color="#894600"/>
</radialGradient>
<polygon fill="url(#SVGID_46_)" points="74.287,57.979 73.68,57.37 73.675,57.37 74.284,57.98 74.168,58.098 "/>
<radialGradient cx="1171.2773" cy="1621.6523" gradientTransform="matrix(1 0 0 0.9023 -1108.5801 -1403.9305)" gradientUnits="userSpaceOnUse" id="SVGID_47_" r="28.1516">
<stop offset="0" stop-color="#ffffff"/>
<stop offset="0.3232" stop-color="#ffffff"/>
<stop offset="1" stop-color="#d0cbc5"/>
</radialGradient>
<polygon fill="url(#SVGID_47_)" points="74.287,57.979 73.68,57.37 73.675,57.37 74.284,57.98 74.168,58.098 "/>
<radialGradient cx="1179.9463" cy="1487.0752" gradientTransform="matrix(0.9927 0 0 0.9942 -1108.4058 -1411.6709)" gradientUnits="userSpaceOnUse" id="SVGID_48_" r="24.4849">
<stop offset="0" stop-color="#e64500"/>
<stop offset="0.1841" stop-color="#da4500"/>
<stop offset="0.4844" stop-color="#bc4700"/>
<stop offset="0.8612" stop-color="#894600"/>
<stop offset="1" stop-color="#894600"/>
</radialGradient>
<polygon fill="url(#SVGID_48_)" points="78.197,47.893 78.199,47.893 78.348,48.038 78.646,48.332 78.646,48.334 78.646,49.064   78.654,49.064 78.654,48.332 78.202,47.891 73.714,47.891 73.712,47.893 78.016,47.893 "/>
<radialGradient cx="1171.2617" cy="1621.6523" gradientTransform="matrix(1 0 0 0.9023 -1108.5801 -1403.9305)" gradientUnits="userSpaceOnUse" id="SVGID_49_" r="28.1927">
<stop offset="0" stop-color="#ffffff"/>
<stop offset="0.3232" stop-color="#ffffff"/>
<stop offset="1" stop-color="#d0cbc5"/>
</radialGradient>
<polygon fill="url(#SVGID_49_)" points="78.197,47.893 78.199,47.893 78.348,48.038 78.646,48.332 78.646,48.334 78.646,49.064   78.654,49.064 78.654,48.332 78.202,47.891 73.714,47.891 73.712,47.893 78.016,47.893 "/>
<radialGradient cx="1179.9492" cy="1469.2314" gradientTransform="matrix(0.9927 0 0 0.9942 -1108.4058 -1411.6709)" gradientUnits="userSpaceOnUse" id="SVGID_50_" r="15.807">
<stop offset="0" stop-color="#e64500"/>
<stop offset="0.1841" stop-color="#da4500"/>
<stop offset="0.4844" stop-color="#bc4700"/>
<stop offset="0.8612" stop-color="#894600"/>
<stop offset="1" stop-color="#894600"/>
</radialGradient>
<polygon fill="url(#SVGID_50_)" points="77.907,49.039 77.907,49.039 77.9,49.039 "/>
<radialGradient cx="1169.084" cy="1610.2959" gradientTransform="matrix(1 0 0 0.9023 -1108.5801 -1403.9305)" gradientUnits="userSpaceOnUse" id="SVGID_51_" r="25.8313">
<stop offset="0" stop-color="#ffffff"/>
<stop offset="0.3232" stop-color="#ffffff"/>
<stop offset="1" stop-color="#d0cbc5"/>
</radialGradient>
<polygon fill="url(#SVGID_51_)" points="77.907,49.039 77.907,49.039 77.9,49.039 "/>
<radialGradient cx="1179.9531" cy="1487.0752" gradientTransform="matrix(0.9927 0 0 0.9942 -1108.4058 -1411.6709)" gradientUnits="userSpaceOnUse" id="SVGID_52_" r="24.4758">
<stop offset="0" stop-color="#e64500"/>
<stop offset="0.1841" stop-color="#da4500"/>
<stop offset="0.4844" stop-color="#bc4700"/>
<stop offset="0.8612" stop-color="#894600"/>
<stop offset="1" stop-color="#894600"/>
</radialGradient>
<polygon fill="url(#SVGID_52_)" points="80.07,60.952 80.07,60.549 80.066,60.549 80.066,60.95 79.184,61.836 76.215,61.836   76.215,61.839 79.184,61.839 "/>
<radialGradient cx="1171.2588" cy="1621.6523" gradientTransform="matrix(1 0 0 0.9023 -1108.5801 -1403.9305)" gradientUnits="userSpaceOnUse" id="SVGID_53_" r="28.1961">
<stop offset="0" stop-color="#ffffff"/>
<stop offset="0.3232" stop-color="#ffffff"/>
<stop offset="1" stop-color="#d0cbc5"/>
</radialGradient>
<polygon fill="url(#SVGID_53_)" points="80.07,60.952 80.07,60.549 80.066,60.549 80.066,60.95 79.184,61.836 76.215,61.836   76.215,61.839 79.184,61.839 "/>
<radialGradient cx="1179.9512" cy="1487.0752" gradientTransform="matrix(0.9927 0 0 0.9942 -1108.4058 -1411.6709)" gradientUnits="userSpaceOnUse" id="SVGID_54_" r="24.4789">
<stop offset="0" stop-color="#e64500"/>
<stop offset="0.1841" stop-color="#da4500"/>
<stop offset="0.4844" stop-color="#bc4700"/>
<stop offset="0.8612" stop-color="#894600"/>
<stop offset="1" stop-color="#894600"/>
</radialGradient>
<polygon fill="url(#SVGID_54_)" points="68.65,57.209 68.65,57.205 66.645,57.205 66.645,57.209 67.096,57.209 "/>
<radialGradient cx="1171.2588" cy="1622.2285" gradientTransform="matrix(1 0 0 0.9023 -1108.5801 -1403.9305)" gradientUnits="userSpaceOnUse" id="SVGID_55_" r="29.2037">
<stop offset="0" stop-color="#ffffff"/>
<stop offset="0.3232" stop-color="#ffffff"/>
<stop offset="1" stop-color="#d0cbc5"/>
</radialGradient>
<polygon fill="url(#SVGID_55_)" points="68.65,57.209 68.65,57.205 66.645,57.205 66.645,57.209 67.096,57.209 "/>
<radialGradient cx="1179.9229" cy="1487.0273" gradientTransform="matrix(0.9927 0 0 0.9942 -1108.4058 -1411.6709)" gradientUnits="userSpaceOnUse" id="SVGID_56_" r="24.4338">
<stop offset="0" stop-color="#e64500"/>
<stop offset="0.1841" stop-color="#da4500"/>
<stop offset="0.4844" stop-color="#bc4700"/>
<stop offset="0.8612" stop-color="#894600"/>
<stop offset="1" stop-color="#894600"/>
</radialGradient>
<polygon fill="url(#SVGID_56_)" points="69.879,54.287 69.634,54.532 69.634,54.533 "/>
<radialGradient cx="1171.2881" cy="1621.6328" gradientTransform="matrix(1 0 0 0.9023 -1108.5801 -1403.9305)" gradientUnits="userSpaceOnUse" id="SVGID_57_" r="28.0849">
<stop offset="0" stop-color="#ffffff"/>
<stop offset="0.3232" stop-color="#ffffff"/>
<stop offset="1" stop-color="#d0cbc5"/>
</radialGradient>
<polygon fill="url(#SVGID_57_)" points="69.879,54.287 69.634,54.532 69.634,54.533 "/>
<radialGradient cx="1189.666" cy="1473.3848" gradientTransform="matrix(0.9927 0 0 0.9942 -1108.4058 -1411.6709)" gradientUnits="userSpaceOnUse" id="SVGID_58_" r="0.001">
<stop offset="0" stop-color="#e64500"/>
<stop offset="0.1841" stop-color="#da4500"/>
<stop offset="0.4844" stop-color="#bc4700"/>
<stop offset="0.8612" stop-color="#894600"/>
<stop offset="1" stop-color="#894600"/>
</radialGradient>
<polygon fill="url(#SVGID_58_)" points="72.576,53.17 72.576,53.167 72.576,53.168 "/>
<radialGradient cx="1181.1563" cy="1623.9141" gradientTransform="matrix(1 0 0 0.9023 -1108.5801 -1403.9305)" gradientUnits="userSpaceOnUse" id="SVGID_59_" r="21.2555">
<stop offset="0" stop-color="#ffffff"/>
<stop offset="0.3232" stop-color="#ffffff"/>
<stop offset="1" stop-color="#d0cbc5"/>
</radialGradient>
<polygon fill="url(#SVGID_59_)" points="72.576,53.17 72.576,53.167 72.576,53.168 "/>
<radialGradient cx="1179.9492" cy="1486.3984" gradientTransform="matrix(0.9927 0 0 0.9942 -1108.4058 -1411.6709)" gradientUnits="userSpaceOnUse" id="SVGID_60_" r="23.6847">
<stop offset="0" stop-color="#e64500"/>
<stop offset="0.1841" stop-color="#da4500"/>
<stop offset="0.4844" stop-color="#bc4700"/>
<stop offset="0.8612" stop-color="#894600"/>
<stop offset="1" stop-color="#894600"/>
</radialGradient>
<path d="M 72.63 53.313 C 72.602 53.309 72.577995 53.303 72.586 53.294 C 72.578 53.303 72.598 53.309 72.63 53.313 z " fill="url(#SVGID_60_)"/>
<radialGradient cx="1171.0479" cy="1621.3506" gradientTransform="matrix(1 0 0 0.9023 -1108.5801 -1403.9305)" gradientUnits="userSpaceOnUse" id="SVGID_61_" r="28.2326">
<stop offset="0" stop-color="#ffffff"/>
<stop offset="0.3232" stop-color="#ffffff"/>
<stop offset="1" stop-color="#d0cbc5"/>
</radialGradient>
<path d="M 72.63 53.313 C 72.602 53.309 72.577995 53.303 72.586 53.294 C 72.578 53.303 72.598 53.309 72.63 53.313 z " fill="url(#SVGID_61_)"/>
<radialGradient cx="1191.2207" cy="1487.0762" gradientTransform="matrix(0.9927 0 0 0.9942 -1108.4058 -1411.6709)" gradientUnits="userSpaceOnUse" id="SVGID_62_" r="19.0746">
<stop offset="0" stop-color="#e64500"/>
<stop offset="0.1841" stop-color="#da4500"/>
<stop offset="0.4844" stop-color="#bc4700"/>
<stop offset="0.8612" stop-color="#894600"/>
<stop offset="1" stop-color="#894600"/>
</radialGradient>
<rect fill="url(#SVGID_62_)" height="0.715" width="0" x="74.119" y="52.139"/>
<radialGradient cx="1182.6992" cy="1621.6533" gradientTransform="matrix(1 0 0 0.9023 -1108.5801 -1403.9305)" gradientUnits="userSpaceOnUse" id="SVGID_63_" r="14.9132">
<stop offset="0" stop-color="#ffffff"/>
<stop offset="0.3232" stop-color="#ffffff"/>
<stop offset="1" stop-color="#d0cbc5"/>
</radialGradient>
<rect fill="url(#SVGID_63_)" height="0.715" width="0" x="74.119" y="52.139"/>
<radialGradient cx="1179.9492" cy="1487.0537" gradientTransform="matrix(0.9927 0 0 0.9942 -1108.4058 -1411.6709)" gradientUnits="userSpaceOnUse" id="SVGID_64_" r="24.4501">
<stop offset="0" stop-color="#e64500"/>
<stop offset="0.1841" stop-color="#da4500"/>
<stop offset="0.4844" stop-color="#bc4700"/>
<stop offset="0.8612" stop-color="#894600"/>
<stop offset="1" stop-color="#894600"/>
</radialGradient>
<polygon fill="url(#SVGID_64_)" points="69.634,54.736 69.634,54.533 69.367,54.799 69.102,54.799 69.102,55.109 69.26,55.109 "/>
<radialGradient cx="1171.2471" cy="1621.6523" gradientTransform="matrix(1 0 0 0.9023 -1108.5801 -1403.9305)" gradientUnits="userSpaceOnUse" id="SVGID_65_" r="28.2318">
<stop offset="0" stop-color="#ffffff"/>
<stop offset="0.3232" stop-color="#ffffff"/>
<stop offset="1" stop-color="#d0cbc5"/>
</radialGradient>
<polygon fill="url(#SVGID_65_)" points="69.634,54.736 69.634,54.533 69.367,54.799 69.102,54.799 69.102,55.109 69.26,55.109 "/>
<radialGradient cx="1179.9404" cy="1486.999" gradientTransform="matrix(0.9927 0 0 0.9942 -1108.4058 -1411.6709)" gradientUnits="userSpaceOnUse" id="SVGID_66_" r="24.4097">
<stop offset="0" stop-color="#e64500"/>
<stop offset="0.1841" stop-color="#da4500"/>
<stop offset="0.4844" stop-color="#bc4700"/>
<stop offset="0.8612" stop-color="#894600"/>
<stop offset="1" stop-color="#894600"/>
</radialGradient>
<path d="M 72.964 53.33 C 72.959 53.33 72.952995 53.33 72.947 53.33 L 73.104996 53.486 L 73.86099 53.486 L 74.03099 53.318 C 74.06399 53.318 74.09499 53.316 74.12899 53.316 C 73.742 53.327 73.284 53.336 72.964 53.33 z " fill="url(#SVGID_66_)"/>
<radialGradient cx="1171.2588" cy="1621.6201" gradientTransform="matrix(1 0 0 0.9023 -1108.5801 -1403.9305)" gradientUnits="userSpaceOnUse" id="SVGID_67_" r="28.1623">
<stop offset="0" stop-color="#ffffff"/>
<stop offset="0.3232" stop-color="#ffffff"/>
<stop offset="1" stop-color="#d0cbc5"/>
</radialGradient>
<path d="M 72.964 53.33 C 72.959 53.33 72.952995 53.33 72.947 53.33 L 73.104996 53.486 L 73.86099 53.486 L 74.03099 53.318 C 74.06399 53.318 74.09499 53.316 74.12899 53.316 C 73.742 53.327 73.284 53.336 72.964 53.33 z " fill="url(#SVGID_67_)"/>
<radialGradient cx="1179.9492" cy="1487.0752" gradientTransform="matrix(0.9927 0 0 0.9942 -1108.4058 -1411.6709)" gradientUnits="userSpaceOnUse" id="SVGID_68_" r="24.4822">
<stop offset="0" stop-color="#e64500"/>
<stop offset="0.1841" stop-color="#da4500"/>
<stop offset="0.4844" stop-color="#bc4700"/>
<stop offset="0.8612" stop-color="#894600"/>
<stop offset="1" stop-color="#894600"/>
</radialGradient>
<path d="M 72.053 52.699 L 71.471 52.699 L 71.434 52.736 L 72.062996 52.736 L 72.073 52.726 C 72.063 52.719 72.061 52.709 72.053 52.699 z " fill="url(#SVGID_68_)"/>
<radialGradient cx="1171.2588" cy="1621.8262" gradientTransform="matrix(1 0 0 0.9023 -1108.5801 -1403.9305)" gradientUnits="userSpaceOnUse" id="SVGID_69_" r="28.449">
<stop offset="0" stop-color="#ffffff"/>
<stop offset="0.3232" stop-color="#ffffff"/>
<stop offset="1" stop-color="#d0cbc5"/>
</radialGradient>
<path d="M 72.053 52.699 L 71.471 52.699 L 71.434 52.736 L 72.062996 52.736 L 72.073 52.726 C 72.063 52.719 72.061 52.709 72.053 52.699 z " fill="url(#SVGID_69_)"/>
<radialGradient cx="1179.9512" cy="1487.0752" gradientTransform="matrix(0.9927 0 0 0.9942 -1108.4058 -1411.6709)" gradientUnits="userSpaceOnUse" id="SVGID_70_" r="24.4757">
<stop offset="0" stop-color="#e64500"/>
<stop offset="0.1841" stop-color="#da4500"/>
<stop offset="0.4844" stop-color="#bc4700"/>
<stop offset="0.8612" stop-color="#894600"/>
<stop offset="1" stop-color="#894600"/>
</radialGradient>
<polygon fill="url(#SVGID_70_)" points="67.419,59.91 66.99,60.339 66.99,60.339 64.105,63.225 64.105,63.225 "/>
<radialGradient cx="1171.2588" cy="1621.6523" gradientTransform="matrix(1 0 0 0.9023 -1108.5801 -1403.9305)" gradientUnits="userSpaceOnUse" id="SVGID_71_" r="28.1992">
<stop offset="0" stop-color="#ffffff"/>
<stop offset="0.3232" stop-color="#ffffff"/>
<stop offset="1" stop-color="#d0cbc5"/>
</radialGradient>
<polygon fill="url(#SVGID_71_)" points="67.419,59.91 66.99,60.339 66.99,60.339 64.105,63.225 64.105,63.225 "/>
<radialGradient cx="1171.2852" cy="1469.4648" gradientTransform="matrix(0.9927 0 0 0.9942 -1108.4058 -1411.6709)" gradientUnits="userSpaceOnUse" id="SVGID_72_" r="0.0297">
<stop offset="0" stop-color="#e64500"/>
<stop offset="0.1841" stop-color="#da4500"/>
<stop offset="0.4844" stop-color="#bc4700"/>
<stop offset="0.8612" stop-color="#894600"/>
<stop offset="1" stop-color="#894600"/>
</radialGradient>
<rect fill="url(#SVGID_72_)" height="0.084" width="0.001" x="54.328" y="49.229"/>
<radialGradient cx="1162.9092" cy="1610.5527" gradientTransform="matrix(1 0 0 0.9023 -1108.5801 -1403.9305)" gradientUnits="userSpaceOnUse" id="SVGID_73_" r="0.0325">
<stop offset="0" stop-color="#ffffff"/>
<stop offset="0.3232" stop-color="#ffffff"/>
<stop offset="1" stop-color="#d0cbc5"/>
</radialGradient>
<rect fill="url(#SVGID_73_)" height="0.084" width="0.001" x="54.328" y="49.229"/>
<radialGradient cx="1174.2285" cy="1467.3887" gradientTransform="matrix(0.9927 0 0 0.9942 -1108.4058 -1411.6709)" gradientUnits="userSpaceOnUse" id="SVGID_74_" r="0.5559">
<stop offset="0" stop-color="#e64500"/>
<stop offset="0.1841" stop-color="#da4500"/>
<stop offset="0.4844" stop-color="#bc4700"/>
<stop offset="0.8612" stop-color="#894600"/>
<stop offset="1" stop-color="#894600"/>
</radialGradient>
<polygon fill="url(#SVGID_74_)" points="57.25,46.427 57.25,47.281 57.25,47.988 57.251,47.988 57.251,46.427 "/>
<radialGradient cx="1165.8311" cy="1608.2656" gradientTransform="matrix(1 0 0 0.9023 -1108.5801 -1403.9305)" gradientUnits="userSpaceOnUse" id="SVGID_75_" r="0.6125">
<stop offset="0" stop-color="#ffffff"/>
<stop offset="0.3232" stop-color="#ffffff"/>
<stop offset="1" stop-color="#d0cbc5"/>
</radialGradient>
<polygon fill="url(#SVGID_75_)" points="57.25,46.427 57.25,47.281 57.25,47.988 57.251,47.988 57.251,46.427 "/>
<radialGradient cx="1179.9492" cy="1487.0664" gradientTransform="matrix(0.9927 0 0 0.9942 -1108.4058 -1411.6709)" gradientUnits="userSpaceOnUse" id="SVGID_76_" r="24.4673">
<stop offset="0" stop-color="#e64500"/>
<stop offset="0.1841" stop-color="#da4500"/>
<stop offset="0.4844" stop-color="#bc4700"/>
<stop offset="0.8612" stop-color="#894600"/>
<stop offset="1" stop-color="#894600"/>
</radialGradient>
<polygon fill="url(#SVGID_76_)" points="66.842,53.203 66.842,53.514 66.488,53.869 66.488,54.25 66.841,54.25 67.091,54.25   67.506,53.839 67.506,53.714 67.506,53.532 67.704,53.334 67.704,52.855 67.254,52.855 "/>
<radialGradient cx="1171.2559" cy="1621.6494" gradientTransform="matrix(1 0 0 0.9023 -1108.5801 -1403.9305)" gradientUnits="userSpaceOnUse" id="SVGID_77_" r="28.1977">
<stop offset="0" stop-color="#ffffff"/>
<stop offset="0.3232" stop-color="#ffffff"/>
<stop offset="1" stop-color="#d0cbc5"/>
</radialGradient>
<polygon fill="url(#SVGID_77_)" points="66.842,53.203 66.842,53.514 66.488,53.869 66.488,54.25 66.841,54.25 67.091,54.25   67.506,53.839 67.506,53.714 67.506,53.532 67.704,53.334 67.704,52.855 67.254,52.855 "/>
<radialGradient cx="1173.9375" cy="1470.1621" gradientTransform="matrix(0.9927 0 0 0.9942 -1108.4058 -1411.6709)" gradientUnits="userSpaceOnUse" id="SVGID_78_" r="0.9522">
<stop offset="0" stop-color="#e64500"/>
<stop offset="0.1841" stop-color="#da4500"/>
<stop offset="0.4844" stop-color="#bc4700"/>
<stop offset="0.8612" stop-color="#894600"/>
<stop offset="1" stop-color="#894600"/>
</radialGradient>
<polygon fill="url(#SVGID_78_)" points="56.964,49.361 56.964,48.625 56.963,48.625 56.963,51.303 56.964,51.303 56.964,51.3 "/>
<radialGradient cx="1165.5439" cy="1611.3203" gradientTransform="matrix(1 0 0 0.9023 -1108.5801 -1403.9305)" gradientUnits="userSpaceOnUse" id="SVGID_79_" r="1.0496">
<stop offset="0" stop-color="#ffffff"/>
<stop offset="0.3232" stop-color="#ffffff"/>
<stop offset="1" stop-color="#d0cbc5"/>
</radialGradient>
<polygon fill="url(#SVGID_79_)" points="56.964,49.361 56.964,48.625 56.963,48.625 56.963,51.303 56.964,51.303 56.964,51.3 "/>
<radialGradient cx="1179.9033" cy="1487.0752" gradientTransform="matrix(0.9927 0 0 0.9942 -1108.4058 -1411.6709)" gradientUnits="userSpaceOnUse" id="SVGID_80_" r="24.4386">
<stop offset="0" stop-color="#e64500"/>
<stop offset="0.1841" stop-color="#da4500"/>
<stop offset="0.4844" stop-color="#bc4700"/>
<stop offset="0.8612" stop-color="#894600"/>
<stop offset="1" stop-color="#894600"/>
</radialGradient>
<polygon fill="url(#SVGID_80_)" points="53.021,54.372 53.23,54.164 53.23,54.162 53.021,54.371 "/>
<radialGradient cx="1171.2588" cy="1621.6289" gradientTransform="matrix(1 0 0 0.9023 -1108.5801 -1403.9305)" gradientUnits="userSpaceOnUse" id="SVGID_81_" r="28.1659">
<stop offset="0" stop-color="#ffffff"/>
<stop offset="0.3232" stop-color="#ffffff"/>
<stop offset="1" stop-color="#d0cbc5"/>
</radialGradient>
<polygon fill="url(#SVGID_81_)" points="53.021,54.372 53.23,54.164 53.23,54.162 53.021,54.371 "/>
<radialGradient cx="1179.9473" cy="1487.0771" gradientTransform="matrix(0.9927 0 0 0.9942 -1108.4058 -1411.6709)" gradientUnits="userSpaceOnUse" id="SVGID_82_" r="24.4841">
<stop offset="0" stop-color="#e64500"/>
<stop offset="0.1841" stop-color="#da4500"/>
<stop offset="0.4844" stop-color="#bc4700"/>
<stop offset="0.8612" stop-color="#894600"/>
<stop offset="1" stop-color="#894600"/>
</radialGradient>
<polygon fill="url(#SVGID_82_)" points="66.035,45.282 66.035,45.282 66.57,44.749 66.568,44.748 63.73,47.582 "/>
<radialGradient cx="1171.2588" cy="1621.6523" gradientTransform="matrix(1 0 0 0.9023 -1108.5801 -1403.9305)" gradientUnits="userSpaceOnUse" id="SVGID_83_" r="28.1961">
<stop offset="0" stop-color="#ffffff"/>
<stop offset="0.3232" stop-color="#ffffff"/>
<stop offset="1" stop-color="#d0cbc5"/>
</radialGradient>
<polygon fill="url(#SVGID_83_)" points="66.035,45.282 66.035,45.282 66.57,44.749 66.568,44.748 63.73,47.582 "/>
<radialGradient cx="1179.9492" cy="1487.0508" gradientTransform="matrix(0.9927 0 0 0.9942 -1108.4058 -1411.6709)" gradientUnits="userSpaceOnUse" id="SVGID_84_" r="24.4568">
<stop offset="0" stop-color="#e64500"/>
<stop offset="0.1841" stop-color="#da4500"/>
<stop offset="0.4844" stop-color="#bc4700"/>
<stop offset="0.8612" stop-color="#894600"/>
<stop offset="1" stop-color="#894600"/>
</radialGradient>
<polygon fill="url(#SVGID_84_)" points="54.8,44.954 54.377,45.365 54.313,45.429 54.314,45.429 54.378,45.367 54.8,44.956   56.473,44.956 56.848,44.579 56.843,44.579 56.473,44.954 "/>
<radialGradient cx="1171.2588" cy="1621.6523" gradientTransform="matrix(1 0 0 0.9023 -1108.5801 -1403.9305)" gradientUnits="userSpaceOnUse" id="SVGID_85_" r="28.1961">
<stop offset="0" stop-color="#ffffff"/>
<stop offset="0.3232" stop-color="#ffffff"/>
<stop offset="1" stop-color="#d0cbc5"/>
</radialGradient>
<polygon fill="url(#SVGID_85_)" points="54.8,44.954 54.377,45.365 54.313,45.429 54.314,45.429 54.378,45.367 54.8,44.956   56.473,44.956 56.848,44.579 56.843,44.579 56.473,44.954 "/>
<radialGradient cx="1179.9189" cy="1487.1123" gradientTransform="matrix(0.9927 0 0 0.9942 -1108.4058 -1411.6709)" gradientUnits="userSpaceOnUse" id="SVGID_86_" r="24.517">
<stop offset="0" stop-color="#e64500"/>
<stop offset="0.1841" stop-color="#da4500"/>
<stop offset="0.4844" stop-color="#bc4700"/>
<stop offset="0.8612" stop-color="#894600"/>
<stop offset="1" stop-color="#894600"/>
</radialGradient>
<path d="M 85.839 64.372 L 86.502 64.372 C 86.506996 64.351 86.512 64.329 86.516 64.309 L 85.778 64.309 L 85.839 64.372 z " fill="url(#SVGID_86_)"/>
<radialGradient cx="1171.2588" cy="1621.5732" gradientTransform="matrix(1 0 0 0.9023 -1108.5801 -1403.9305)" gradientUnits="userSpaceOnUse" id="SVGID_87_" r="28.2175">
<stop offset="0" stop-color="#ffffff"/>
<stop offset="0.3232" stop-color="#ffffff"/>
<stop offset="1" stop-color="#d0cbc5"/>
</radialGradient>
<path d="M 85.839 64.372 L 86.502 64.372 C 86.506996 64.351 86.512 64.329 86.516 64.309 L 85.778 64.309 L 85.839 64.372 z " fill="url(#SVGID_87_)"/>
<radialGradient cx="1166.7871" cy="1466.8223" gradientTransform="matrix(0.9927 0 0 0.9942 -1108.4058 -1411.6709)" gradientUnits="userSpaceOnUse" id="SVGID_88_" r="0.1091">
<stop offset="0" stop-color="#e64500"/>
<stop offset="0.1841" stop-color="#da4500"/>
<stop offset="0.4844" stop-color="#bc4700"/>
<stop offset="0.8612" stop-color="#894600"/>
<stop offset="1" stop-color="#894600"/>
</radialGradient>
<polygon fill="url(#SVGID_88_)" points="49.711,46.642 49.711,46.646 50.018,46.646 49.801,46.642 "/>
<radialGradient cx="1171.2588" cy="1621.6523" gradientTransform="matrix(1 0 0 0.9023 -1108.5801 -1403.9305)" gradientUnits="userSpaceOnUse" id="SVGID_89_" r="28.1961">
<stop offset="0" stop-color="#ffffff"/>
<stop offset="0.3232" stop-color="#ffffff"/>
<stop offset="1" stop-color="#d0cbc5"/>
</radialGradient>
<polygon fill="url(#SVGID_89_)" points="49.711,46.642 49.711,46.646 50.018,46.646 49.801,46.642 "/>
<radialGradient cx="1179.959" cy="1487.0752" gradientTransform="matrix(0.9927 0 0 0.9942 -1108.4058 -1411.6709)" gradientUnits="userSpaceOnUse" id="SVGID_90_" r="24.489">
<stop offset="0" stop-color="#e64500"/>
<stop offset="0.1841" stop-color="#da4500"/>
<stop offset="0.4844" stop-color="#bc4700"/>
<stop offset="0.8612" stop-color="#894600"/>
<stop offset="1" stop-color="#894600"/>
</radialGradient>
<polygon fill="url(#SVGID_90_)" points="51.215,49.922 51.217,49.922 51.91,50.609 50.861,49.568 50.861,49.57 "/>
<radialGradient cx="1171.2588" cy="1621.6436" gradientTransform="matrix(1 0 0 0.9023 -1108.5801 -1403.9305)" gradientUnits="userSpaceOnUse" id="SVGID_91_" r="28.1847">
<stop offset="0" stop-color="#ffffff"/>
<stop offset="0.3232" stop-color="#ffffff"/>
<stop offset="1" stop-color="#d0cbc5"/>
</radialGradient>
<polygon fill="url(#SVGID_91_)" points="51.215,49.922 51.217,49.922 51.91,50.609 50.861,49.568 50.861,49.57 "/>
<radialGradient cx="1179.9512" cy="1487.0889" gradientTransform="matrix(0.9927 0 0 0.9942 -1108.4058 -1411.6709)" gradientUnits="userSpaceOnUse" id="SVGID_92_" r="24.4955">
<stop offset="0" stop-color="#e64500"/>
<stop offset="0.1841" stop-color="#da4500"/>
<stop offset="0.4844" stop-color="#bc4700"/>
<stop offset="0.8612" stop-color="#894600"/>
<stop offset="1" stop-color="#894600"/>
</radialGradient>
<path d="M 50.107 46.592 L 51.458 46.427 L 52.033 45.765 L 53.441 45.752 L 54.230003 44.95 L 53.037003 44.949 C 52.188 45.326 50.928 46.102 50.107 46.592 z " fill="url(#SVGID_92_)"/>
<radialGradient cx="1171.2588" cy="1621.6523" gradientTransform="matrix(1 0 0 0.9023 -1108.5801 -1403.9305)" gradientUnits="userSpaceOnUse" id="SVGID_93_" r="28.1961">
<stop offset="0" stop-color="#ffffff"/>
<stop offset="0.3232" stop-color="#ffffff"/>
<stop offset="1" stop-color="#d0cbc5"/>
</radialGradient>
<path d="M 50.107 46.592 L 51.458 46.427 L 52.033 45.765 L 53.441 45.752 L 54.230003 44.95 L 53.037003 44.949 C 52.188 45.326 50.928 46.102 50.107 46.592 z " fill="url(#SVGID_93_)"/>
<radialGradient cx="1179.9492" cy="1487.0752" gradientTransform="matrix(0.9927 0 0 0.9942 -1108.4058 -1411.6709)" gradientUnits="userSpaceOnUse" id="SVGID_94_" r="24.4822">
<stop offset="0" stop-color="#e64500"/>
<stop offset="0.1841" stop-color="#da4500"/>
<stop offset="0.4844" stop-color="#bc4700"/>
<stop offset="0.8612" stop-color="#894600"/>
<stop offset="1" stop-color="#894600"/>
</radialGradient>
<polygon fill="url(#SVGID_94_)" points="84.411,62.205 85.838,63.633 85.841,63.633 84.411,62.203 84.41,62.204 "/>
<radialGradient cx="1171.2441" cy="1621.6504" gradientTransform="matrix(1 0 0 0.9023 -1108.5801 -1403.9305)" gradientUnits="userSpaceOnUse" id="SVGID_95_" r="28.215">
<stop offset="0" stop-color="#ffffff"/>
<stop offset="0.3232" stop-color="#ffffff"/>
<stop offset="1" stop-color="#d0cbc5"/>
</radialGradient>
<polygon fill="url(#SVGID_95_)" points="84.411,62.205 85.838,63.633 85.841,63.633 84.411,62.203 84.41,62.204 "/>
<radialGradient cx="1202.8438" cy="1484.5889" gradientTransform="matrix(0.9927 0 0 0.9942 -1108.4058 -1411.6709)" gradientUnits="userSpaceOnUse" id="SVGID_96_" r="9.765624e-004">
<stop offset="0" stop-color="#e64500"/>
<stop offset="0.1841" stop-color="#da4500"/>
<stop offset="0.4844" stop-color="#bc4700"/>
<stop offset="0.8612" stop-color="#894600"/>
<stop offset="1" stop-color="#894600"/>
</radialGradient>
<rect fill="url(#SVGID_96_)" height="0.002" width="0.001" x="85.657" y="64.307"/>
<radialGradient cx="1194.2383" cy="1627.2168" gradientTransform="matrix(1 0 0 0.9023 -1108.5801 -1403.9305)" gradientUnits="userSpaceOnUse" id="SVGID_97_" r="0.0012">
<stop offset="0" stop-color="#ffffff"/>
<stop offset="0.3232" stop-color="#ffffff"/>
<stop offset="1" stop-color="#d0cbc5"/>
</radialGradient>
<rect fill="url(#SVGID_97_)" height="0.002" width="0.001" x="85.657" y="64.307"/>
<radialGradient cx="1179.9121" cy="1487.0752" gradientTransform="matrix(0.9927 0 0 0.9942 -1108.4058 -1411.6709)" gradientUnits="userSpaceOnUse" id="SVGID_98_" r="24.5161">
<stop offset="0" stop-color="#e64500"/>
<stop offset="0.1841" stop-color="#da4500"/>
<stop offset="0.4844" stop-color="#bc4700"/>
<stop offset="0.8612" stop-color="#894600"/>
<stop offset="1" stop-color="#894600"/>
</radialGradient>
<polygon fill="url(#SVGID_98_)" points="84.785,56.158 84.779,56.145 84.779,56.553 84.197,56.553 84.197,56.555 84.785,56.555 "/>
<radialGradient cx="1171.2588" cy="1621.6582" gradientTransform="matrix(1 0 0 0.9023 -1108.5801 -1403.9305)" gradientUnits="userSpaceOnUse" id="SVGID_99_" r="28.1971">
<stop offset="0" stop-color="#ffffff"/>
<stop offset="0.3232" stop-color="#ffffff"/>
<stop offset="1" stop-color="#d0cbc5"/>
</radialGradient>
<polygon fill="url(#SVGID_99_)" points="84.785,56.158 84.779,56.145 84.779,56.553 84.197,56.553 84.197,56.555 84.785,56.555 "/>
<radialGradient cx="1179.4463" cy="1485.9961" gradientTransform="matrix(0.9927 0 0 0.9942 -1108.4058 -1411.6709)" gradientUnits="userSpaceOnUse" id="SVGID_100_" r="23.5106">
<stop offset="0" stop-color="#e64500"/>
<stop offset="0.1841" stop-color="#da4500"/>
<stop offset="0.4844" stop-color="#bc4700"/>
<stop offset="0.8612" stop-color="#894600"/>
<stop offset="1" stop-color="#894600"/>
</radialGradient>
<polygon fill="url(#SVGID_100_)" points="70.904,50.693 70.904,50.693 70.921,50.68 "/>
<radialGradient cx="1170.7754" cy="1621.0566" gradientTransform="matrix(1 0 0 0.9023 -1108.5801 -1403.9305)" gradientUnits="userSpaceOnUse" id="SVGID_101_" r="27.9486">
<stop offset="0" stop-color="#ffffff"/>
<stop offset="0.3232" stop-color="#ffffff"/>
<stop offset="1" stop-color="#d0cbc5"/>
</radialGradient>
<polygon fill="url(#SVGID_101_)" points="70.904,50.693 70.904,50.693 70.921,50.68 "/>
<radialGradient cx="1179.9502" cy="1487.0752" gradientTransform="matrix(0.9927 0 0 0.9942 -1108.4058 -1411.6709)" gradientUnits="userSpaceOnUse" id="SVGID_102_" r="24.4822">
<stop offset="0" stop-color="#e64500"/>
<stop offset="0.1841" stop-color="#da4500"/>
<stop offset="0.4844" stop-color="#bc4700"/>
<stop offset="0.8612" stop-color="#894600"/>
<stop offset="1" stop-color="#894600"/>
</radialGradient>
<polygon fill="url(#SVGID_102_)" points="69.631,53.999 69.631,53.588 68.645,52.6 68.902,52.34 68.902,52.029 68.232,52.029   68.564,51.701 68.074,51.701 67.756,52.001 67.756,52.512 67.934,52.689 67.936,52.689 68.488,53.245 68.488,53.55 68.303,53.55   67.911,53.941 67.911,54.373 68.488,54.373 69.257,54.373 "/>
<radialGradient cx="1171.2588" cy="1621.6523" gradientTransform="matrix(1 0 0 0.9023 -1108.5801 -1403.9305)" gradientUnits="userSpaceOnUse" id="SVGID_103_" r="28.1961">
<stop offset="0" stop-color="#ffffff"/>
<stop offset="0.3232" stop-color="#ffffff"/>
<stop offset="1" stop-color="#d0cbc5"/>
</radialGradient>
<polygon fill="url(#SVGID_103_)" points="69.631,53.999 69.631,53.588 68.645,52.6 68.902,52.34 68.902,52.029 68.232,52.029   68.564,51.701 68.074,51.701 67.756,52.001 67.756,52.512 67.934,52.689 67.936,52.689 68.488,53.245 68.488,53.55 68.303,53.55   67.911,53.941 67.911,54.373 68.488,54.373 69.257,54.373 "/>
<radialGradient cx="1179.9668" cy="1487.0752" gradientTransform="matrix(0.9927 0 0 0.9942 -1108.4058 -1411.6709)" gradientUnits="userSpaceOnUse" id="SVGID_104_" r="24.4648">
<stop offset="0" stop-color="#e64500"/>
<stop offset="0.1841" stop-color="#da4500"/>
<stop offset="0.4844" stop-color="#bc4700"/>
<stop offset="0.8612" stop-color="#894600"/>
<stop offset="1" stop-color="#894600"/>
</radialGradient>
<polygon fill="url(#SVGID_104_)" points="82.773,56.9 82.775,56.9 82.773,56.9 84.005,55.663 84.002,55.663 82.77,56.9   83.133,57.275 83.134,57.275 84.007,58.174 84.007,58.173 83.193,57.334 83.193,57.334 "/>
<radialGradient cx="1171.2422" cy="1621.6523" gradientTransform="matrix(1 0 0 0.9023 -1108.5801 -1403.9305)" gradientUnits="userSpaceOnUse" id="SVGID_105_" r="28.2193">
<stop offset="0" stop-color="#ffffff"/>
<stop offset="0.3232" stop-color="#ffffff"/>
<stop offset="1" stop-color="#d0cbc5"/>
</radialGradient>
<polygon fill="url(#SVGID_105_)" points="82.773,56.9 82.775,56.9 82.773,56.9 84.005,55.663 84.002,55.663 82.77,56.9   83.133,57.275 83.134,57.275 84.007,58.174 84.007,58.173 83.193,57.334 83.193,57.334 "/>
<radialGradient cx="1179.9375" cy="1487.0879" gradientTransform="matrix(0.9927 0 0 0.9942 -1108.4058 -1411.6709)" gradientUnits="userSpaceOnUse" id="SVGID_106_" r="24.4981">
<stop offset="0" stop-color="#e64500"/>
<stop offset="0.1841" stop-color="#da4500"/>
<stop offset="0.4844" stop-color="#bc4700"/>
<stop offset="0.8612" stop-color="#894600"/>
<stop offset="1" stop-color="#894600"/>
</radialGradient>
<polygon fill="url(#SVGID_106_)" points="84.002,59.068 84.007,59.074 84.007,59.068 84.428,59.484 85.668,59.484 85.668,59.482   84.428,59.482 84.007,59.066 84.007,58.912 84.002,58.907 "/>
<radialGradient cx="1171.2588" cy="1621.6533" gradientTransform="matrix(1 0 0 0.9023 -1108.5801 -1403.9305)" gradientUnits="userSpaceOnUse" id="SVGID_107_" r="28.1961">
<stop offset="0" stop-color="#ffffff"/>
<stop offset="0.3232" stop-color="#ffffff"/>
<stop offset="1" stop-color="#d0cbc5"/>
</radialGradient>
<polygon fill="url(#SVGID_107_)" points="84.002,59.068 84.007,59.074 84.007,59.068 84.428,59.484 85.668,59.484 85.668,59.482   84.428,59.482 84.007,59.066 84.007,58.912 84.002,58.907 "/>
<radialGradient cx="1179.959" cy="1487.0762" gradientTransform="matrix(0.9927 0 0 0.9942 -1108.4058 -1411.6709)" gradientUnits="userSpaceOnUse" id="SVGID_108_" r="24.4919">
<stop offset="0" stop-color="#e64500"/>
<stop offset="0.1841" stop-color="#da4500"/>
<stop offset="0.4844" stop-color="#bc4700"/>
<stop offset="0.8612" stop-color="#894600"/>
<stop offset="1" stop-color="#894600"/>
</radialGradient>
<polygon fill="url(#SVGID_108_)" points="39.248,67.271 39.746,67.271 41.453,69.328 41.453,69.325 41.453,68.055 40.563,68.055   40.563,67.318 40.563,66.521 39.994,66.521 "/>
<radialGradient cx="1171.2588" cy="1621.6563" gradientTransform="matrix(1 0 0 0.9023 -1108.5801 -1403.9305)" gradientUnits="userSpaceOnUse" id="SVGID_109_" r="28.194">
<stop offset="0" stop-color="#ffffff"/>
<stop offset="0.3232" stop-color="#ffffff"/>
<stop offset="1" stop-color="#d0cbc5"/>
</radialGradient>
<polygon fill="url(#SVGID_109_)" points="39.248,67.271 39.746,67.271 41.453,69.328 41.453,69.325 41.453,68.055 40.563,68.055   40.563,67.318 40.563,66.521 39.994,66.521 "/>
<linearGradient gradientTransform="matrix(1 0 0 0.9023 -1108.5801 -1403.9305)" gradientUnits="userSpaceOnUse" id="SVGID_110_" x1="1185.334" x2="1185.334" y1="1649.3115" y2="1644.2333">
<stop offset="0" stop-color="#ffffff"/>
<stop offset="1" stop-color="#ffffff" stop-opacity="0"/>
</linearGradient>
<path d="M 74.005 82.965 C 76.096 81.77699 77.92 80.357994 79.502 78.694 L 74.005 78.705 L 74.005 82.965 z " fill="url(#SVGID_110_)" fill-opacity="0.3"/>
<linearGradient gradientTransform="matrix(1 0 0 0.9023 -1108.5801 -1403.9305)" gradientUnits="userSpaceOnUse" x1="1159.0176" x2="1159.0176" y1="1654.7588" y2="1645.224">
<stop offset="0" stop-color="#ffffff"/>
<stop offset="1" stop-color="#ffffff" stop-opacity="0"/>
</linearGradient>
<g fill="#ffffff" fill-opacity="1">
<radialGradient cx="61.992199" cy="65.829102" gradientUnits="userSpaceOnUse" r="23.366899">
<stop offset="0" stop-color="#ffffff"/>
<stop offset="0.3232" stop-color="#ffffff"/>
<stop offset="1" stop-color="#d0cbc5"/>
</radialGradient>
<polygon fill="#ffffff" fill-opacity="1" points="57.692,46.057 57.692,47.082 59.428,47.082 57.895,48.62 57.711,48.62 57.709,48.62 57.708,48.621 57.407,48.621 57.407,48.721 58.344,48.721 57.711,49.357 57.407,49.357 57.407,50.396 57.997,50.396 59.374,49.023 60.324,49.023 62.674,46.677 63.538,46.677 65.055,45.162 58.193,45.162 57.242,45.619 55.045,45.619 55.045,45.801 55.045,46.423 55.495,46.057 "/>
<radialGradient cx="61.992199" cy="65.829102" gradientUnits="userSpaceOnUse" r="23.366899">
<stop offset="0" stop-color="#ffffff"/>
<stop offset="0.3232" stop-color="#ffffff"/>
<stop offset="1" stop-color="#d0cbc5"/>
</radialGradient>
<path d="M 83.861 63.479 L 84.136 63.202 L 83.23 62.294 L 84.403 61.114 L 86.019 62.731 L 86.5 62.731 C 86.331 61.628998 86.087 60.544 85.771 59.481 L 85.66 59.481 L 85.66 60.217 L 84.420006 60.217 L 83.99901 59.801 L 83.99901 59.246 L 83.54901 58.801 L 83.54901 58.444 L 82.76801 57.635002 L 83.03201 57.367 L 82.13601 56.443 C 82.13601 56.443 83.09701 55.298 83.86801 55.252 C 82.65601 53.182 81.17501 51.295998 79.42301 49.677998 L 78.81401 50.283997 L 78.40801 50.283997 L 77.89601 49.770996 L 78.64201 49.795998 L 78.64201 49.545998 L 78.81401 49.545998 L 79.42301 48.940998 C 81.49501 50.855 83.23201 53.121 84.53701 55.656 L 84.54101 55.656 C 83.235 53.12 81.5 50.855 79.425 48.937 L 78.816 49.544 L 78.642 49.544 L 78.642 49.545 L 78.408 49.545 L 77.895996 49.031998 L 77.369995 48.621998 L 76.80299 48.622997 L 75.42799 49.996 L 75.977 49.996 L 75.655 50.32 L 76.895 50.32 L 76.895 51.385 L 76.448 51.647 L 76.448 51.649 L 76.137 51.959 L 76.444 51.959 L 76.444 52.388 L 74.805 54.028 C 74.805 54.028 72.496 54.113 72.585 54.028 C 72.67 53.935 72.277 53.431 72.277 53.431 L 71.463 53.431 L 69.363 55.531 L 69.097 55.531 L 69.097 57.204 L 68.646 57.204 L 68.646 57.939 L 67.09 57.939 L 67.09 58.496 L 67.271996 58.679996 L 68.186 58.679996 L 69.768 57.099995 L 69.768 56.148994 L 72.229 56.148994 L 73.327995 57.249996 L 73.365 57.249996 L 71.725 55.609997 L 73.925995 55.609997 L 75.44299 57.129997 L 75.44299 57.62 L 75.912994 57.62 L 75.912994 57.114998 L 77.131996 57.114998 L 77.159 57.147 L 77.190994 56.295 L 78.27599 55.204 L 80.64099 55.204 L 82.26199 56.829998 L 82.26199 58.016 L 81.811 58.016 L 81.62299 58.016 L 81.811 58.204 L 81.811 58.751 L 78.76199 58.751 L 78.80299 58.791 L 80.51599 58.791 L 80.51599 60.686 L 80.064995 61.137 L 80.064995 61.686 L 79.923996 61.828 L 81.44399 61.828 L 81.44399 65.444 L 83.37999 67.377 L 84.54599 67.377 L 86.16199 65.765 C 86.22398 65.525 86.28699 65.288 86.344986 65.043 L 85.428986 65.043 L 83.860985 63.479 z " fill="#ffffff" fill-opacity="1"/>
<radialGradient cx="61.992199" cy="65.829102" gradientUnits="userSpaceOnUse" r="23.366899">
<stop offset="0" stop-color="#ffffff"/>
<stop offset="0.3232" stop-color="#ffffff"/>
<stop offset="1" stop-color="#d0cbc5"/>
</radialGradient>
<path d="M 45.464 59.083 L 48.359 56.186 L 50.053 56.186 L 50.254 55.991 L 50.254 55.899002 L 50.202003 55.899002 L 50.202003 55.516003 L 50.254 55.516003 L 50.254 55.16 L 50.202 55.16 L 49.75 55.16 L 49.75 53.879 L 52.412 53.879 L 52.524998 53.767002 L 52.497997 53.741 L 52.497997 53.189003 L 52.045 52.739002 L 52.045 52.207 L 51.707996 52.544003 L 50.894997 52.544003 L 50.894997 51.809002 L 50.894997 51.426003 L 49.701996 51.426003 L 48.814995 52.315002 L 48.331993 52.315002 L 48.331993 53.024002 L 47.037994 54.315002 L 47.037994 53.86 L 45.998993 53.86 L 45.998993 53.127 L 45.998993 53.052 L 44.742992 53.052 L 44.742992 52.565998 L 44.992992 52.311996 L 44.741993 52.311996 L 44.741993 51.825996 L 44.742992 51.824997 L 44.742992 51.82 L 46.725994 49.836998 L 46.727993 49.836998 L 46.727993 49.836 L 47.13999 49.836 L 47.16899 49.836 L 47.422993 49.836 L 47.555992 49.702 L 48.01499 49.239998 L 48.50099 48.755997 L 48.902992 48.755997 L 49.42499 48.755997 L 50.354992 47.829998 L 50.35699 47.829998 L 50.35799 47.829 L 51.24199 47.829 L 52.10499 48.698997 L 51.74299 49.061996 L 51.74199 49.061996 L 51.73399 49.061996 L 52.10499 49.432995 L 51.95899 49.578995 L 52.08399 49.703995 L 52.403988 49.703995 L 52.758987 49.349995 L 52.758987 48.410995 L 53.795986 48.410995 L 53.233 47.57 L 52.328 46.666 L 51.617 46.666 L 51.618 46.665 L 51.617 46.665 L 51.182 46.658 L 50.932 46.911 L 49.892998 46.911 L 48.888996 47.915 L 49.513996 47.915 L 49.0 48.427 L 48.054 48.427 L 47.667 48.04 L 48.23 47.476 L 48.16 47.476 C 43.432 51.099003 40.079 56.405003 38.994 62.507004 L 39.211998 62.295002 C 39.211998 62.293003 39.211998 62.292004 39.213997 62.29 L 39.514996 61.989002 L 39.833996 61.481003 L 42.766994 61.415 L 42.809994 60.77 L 44.497993 59.082 L 45.463993 59.082 z M 47.036995 54.313 L 48.330994 53.022 L 48.330994 53.756 L 47.036995 55.049 L 47.036995 54.313 z " fill="#ffffff" fill-opacity="1"/>
<radialGradient cx="61.992199" cy="65.829102" gradientUnits="userSpaceOnUse" r="23.366899">
<stop offset="0" stop-color="#ffffff"/>
<stop offset="0.3232" stop-color="#ffffff"/>
<stop offset="1" stop-color="#d0cbc5"/>
</radialGradient>
<path d="M 80.199 67.066 L 80.199 66.331 L 79.751 66.068 L 79.751 61.996 L 79.176 62.57 L 76.207 62.57 L 76.207 61.835 L 75.756 61.835 L 75.756 61.799 L 72.541 61.799 L 72.541 61.063 L 72.54 61.063 L 72.09 61.063 L 72.09 60.276 L 71.641 60.645 L 67.412 60.645 L 64.547005 63.512 L 64.547005 68.645004 L 66.633 70.73701 L 72.57 70.73701 L 72.57 73.547005 L 74.0 74.974 L 74.0 78.7 L 73.998 78.7 L 73.998 82.961 C 76.088 81.772995 77.911 80.354996 79.493004 78.691 L 79.497 78.691 C 80.209 77.943 80.875 77.146 81.489 76.295 L 81.489 74.24 L 84.198 71.534996 C 84.432 71.007996 84.658 70.465 84.869995 69.905 L 83.036995 69.905 L 80.199 67.066 z " fill="#ffffff" fill-opacity="1"/>
<radialGradient cx="61.992199" cy="65.829102" gradientUnits="userSpaceOnUse" r="23.366899">
<stop offset="0" stop-color="#ffffff"/>
<stop offset="0.3232" stop-color="#ffffff"/>
<stop offset="1" stop-color="#d0cbc5"/>
</radialGradient>
<path d="M 53.905 74.533 L 53.905 73.797 L 53.905 73.716995 L 51.904 73.716995 L 48.43 70.239 L 44.406 70.239 L 43.761997 70.886 L 43.39 70.886 L 43.39 72.521 L 42.920998 72.995 L 42.920998 76.496 L 45.024998 78.596 L 45.691998 78.596 L 45.840996 78.745 L 47.198997 80.105 L 47.198997 84.254005 C 48.254997 85.177 49.399 86.021 50.604996 86.75101 L 50.910995 86.75101 L 50.910995 85.93 L 52.602997 84.231 L 52.602997 82.496 L 54.448997 80.651 L 55.017 80.651 L 55.017 78.731 L 55.017 77.424 L 56.773 75.66901 L 56.774 75.35701 L 54.732998 75.35701 L 53.905 74.53301 z " fill="#ffffff" fill-opacity="1"/>
</g>
<linearGradient gradientTransform="matrix(1 0 0 0.9023 -1108.5801 -1403.9305)" gradientUnits="userSpaceOnUse" id="SVGID_117_" x1="1164.0576" x2="1164.0576" y1="1647.2148" y2="1644.0726">
<stop offset="0" stop-color="#ffffff"/>
<stop offset="1" stop-color="#ffffff" stop-opacity="0"/>
</linearGradient>
<polygon fill="url(#SVGID_117_)" fill-opacity="0.3" points="55.477,81.557 55.477,81.561 55.479,81.561 55.479,78.916   55.477,78.917 "/>
<radialGradient cx="1164.0566" cy="1644.873" gradientTransform="matrix(1 0 0 0.9023 -1108.5801 -1403.9305)" gradientUnits="userSpaceOnUse" id="SVGID_118_" r="1.0351">
<stop offset="0" stop-color="#ffffff"/>
<stop offset="0.3232" stop-color="#ffffff"/>
<stop offset="1" stop-color="#d0cbc5"/>
</radialGradient>
<polygon fill="url(#SVGID_118_)" points="55.477,81.557 55.477,81.561 55.479,81.561 55.479,78.916 55.477,78.917 "/>
<linearGradient gradientTransform="matrix(1 0 0 0.9023 -1108.5801 -1403.9305)" gradientUnits="userSpaceOnUse" id="SVGID_119_" x1="1161.6436" x2="1161.6436" y1="1650.3164" y2="1649.2539">
<stop offset="0" stop-color="#ffffff"/>
<stop offset="1" stop-color="#ffffff" stop-opacity="0"/>
</linearGradient>
<polygon fill="url(#SVGID_119_)" fill-opacity="0.3" points="53.063,84.874 53.063,84.88 53.063,84.883 53.064,84.88 53.064,83.988   53.063,83.991 "/>
<radialGradient cx="1161.6436" cy="1649.5254" gradientTransform="matrix(1 0 0 0.9023 -1108.5801 -1403.9305)" gradientUnits="userSpaceOnUse" id="SVGID_120_" r="0.3501">
<stop offset="0" stop-color="#ffffff"/>
<stop offset="0.3232" stop-color="#ffffff"/>
<stop offset="1" stop-color="#d0cbc5"/>
</radialGradient>
<polygon fill="url(#SVGID_120_)" points="53.063,84.874 53.063,84.88 53.063,84.883 53.064,84.88 53.064,83.988 53.063,83.991 "/>
<polygon fill="#ffffff" points="52.867,47.012 52.873,47.02 54.723,48.871 52.98,47.124 52.98,47.124 "/>
<polygon fill="#ffffff" points="81.512,58.02 78.184,58.02 78.034,58.02 78.77,58.754 81.816,58.754 81.816,58.207 81.628,58.02   81.627,58.02 "/>
<path d="M 78.643 49.066 L 78.646996 49.066 L 78.643 49.066 z " fill="#ffffff"/>
<polygon fill="#ffffff" points="74.168,58.098 74.284,57.98 73.916,58.35 73.917,58.35 "/>
<polygon fill="#ffffff" points="54.357,49.24 54.357,49.24 54.723,48.871 "/>
<rect fill="#ffffff" height="0.736" width="1.557" x="67.096" y="57.209"/>
<polygon fill="#ffffff" points="73.648,57.531 73.37,57.252 73.333,57.252 73.63,57.549 "/>
<polygon fill="#ffffff" points="51.743,49.066 51.631,49.066 51.449,49.066 51.969,49.585 52.113,49.438 "/>
<polygon fill="#ffffff" points="73.674,57.37 74.284,57.98 73.675,57.37 "/>
<path d="M 72.576 53.168 C 72.597 53.225 72.606995 53.272 72.586 53.294 C 72.607 53.273 72.6 53.226997 72.576 53.17 C 72.576 53.169 72.576 53.169 72.576 53.168 z " fill="#ffffff"/>
<polygon fill="#ffffff" points="83.038,57.372 82.773,57.639 83.557,58.447 83.557,57.904 "/>
<rect fill="#ffffff" height="0.383" width="0.052" x="50.21" y="55.52"/>
<polygon fill="#ffffff" points="42.282,70.152 41.453,69.325 41.453,69.328 "/>
<polygon fill="#ffffff" points="83.133,57.275 84.002,58.174 84.002,58.907 84.007,58.912 84.007,58.174 83.134,57.275 "/>
<polygon fill="#ffffff" points="54.087,48.417 53.245,47.576 53.809,48.417 "/>
<polygon fill="#ffffff" points="49.708,46.641 49.708,46.642 49.711,46.642 49.801,46.642 "/>
<path d="M 50.107 46.592 C 50.925 46.101997 52.186996 45.326 53.037 44.948997 L 54.23 44.949997 L 54.599 44.574997 L 53.036 44.574997 C 51.871998 45.093998 50.762 45.697998 49.707 46.385998 L 49.707 46.641 L 50.107 46.592 z " fill="#ffffff"/>
<polygon fill="#ffffff" points="57.25,45.623 58.201,45.166 65.063,45.166 65.801,44.428 58.201,44.428 57.25,45.387 55.053,45.387   55.053,45.429 55.053,45.623 "/>
<polygon fill="#ffffff" points="58.352,48.725 57.415,48.725 57.415,49.361 57.719,49.361 "/>
<polygon fill="#ffffff" points="78.197,47.893 78.348,48.038 78.199,47.893 "/>
<path d="M 84.785 56.158 L 84.785 56.554 L 84.19701 56.554 L 84.19701 57.049 L 84.19701 57.052 L 84.55401 57.407997 L 84.55401 57.407997 L 85.27301 58.124996 L 85.66801 58.520996 L 85.66801 59.094997 L 85.66801 59.375996 L 85.66801 59.479996 L 85.66801 59.481995 L 85.77901 59.481995 C 86.09501 60.545994 86.341 61.630993 86.508 62.731995 L 86.027 62.731995 L 84.411 61.115993 L 83.23801 62.295994 L 84.144005 63.203995 L 85.246 64.30799 L 85.434006 64.30799 L 84.298004 63.16999 L 84.298004 63.16999 L 84.297005 63.16899 L 84.296005 63.16999 L 83.868004 62.74399 L 84.193 62.41799 L 84.409004 62.201992 L 84.41 62.200993 L 85.840004 63.630993 L 85.841 63.631992 L 86.65401 63.631992 C 86.72001 63.30199 86.795006 62.98199 86.855 62.643993 C 86.465004 60.350994 85.773 58.169994 84.785 56.143993 L 84.785 56.158 z " fill-opacity="0.1"/>
<polygon fill-opacity="0.1" points="74.615,53.301 74.6,53.301 74.598,53.301 "/>
<polygon fill-opacity="0.1" points="69.102,57.209 69.102,55.536 69.102,55.109 69.102,54.799 67.998,54.799 67.998,55.229   67.998,55.436 67.999,55.436 68.65,55.436 68.65,55.536 68.65,55.652 68.65,56.29 68.65,57.205 68.65,57.209 "/>
<polygon fill-opacity="0.1" points="68.38,59.584 70.225,57.738 70.225,57.055 72.05,57.055 73.63,58.635 73.916,58.35   74.284,57.98 73.674,57.37 73.674,57.37 72.82,56.516 73.744,56.516 74.999,57.768 74.999,58.521 76.371,58.521 76.371,58.02   76.947,58.02 78.625,59.695 80.07,59.695 80.07,60.549 80.07,60.952 79.184,61.839 79.37,61.839 80.07,61.139 80.521,60.688   80.521,58.794 78.811,58.794 78.77,58.754 78.034,58.02 78.184,58.02 77.619,57.461 77.639,56.943 78.468,56.107 80.46,56.107   81.816,57.471 81.816,57.473 81.816,58.02 82.268,58.02 82.268,56.834 80.646,55.208 78.281,55.208 77.195,56.299 77.164,57.148   77.137,57.117 75.918,57.117 75.918,57.622 75.447,57.622 75.447,57.132 73.934,55.613 71.73,55.613 73.37,57.252 73.648,57.531   73.63,57.549 73.333,57.252 72.234,56.152 69.773,56.152 69.773,57.104 68.191,58.684 67.277,58.684 67.096,58.5 67.096,57.945   67.096,57.209 66.645,57.209 66.645,57.209 66.645,57.945 66.645,59.137 67.089,59.584 "/>
<polygon fill-opacity="0.1" points="76.215,61.803 76.215,61.066 76.214,61.066 75.764,61.066 75.764,61.803 75.764,61.839   76.215,61.839 76.215,61.836 "/>
<path d="M 83.385 67.378 L 81.450005 65.445 L 81.450005 61.829 L 79.93 61.829 L 79.758 61.829 L 79.758 62.0 L 79.758 66.072 L 80.206 66.335 L 80.206 66.332 L 80.206 63.582 L 80.206 62.728 L 80.206 62.726 L 81.0 62.726 L 81.0 62.728 L 81.0 63.582 L 81.0 66.082 L 81.0 66.085 L 83.195 68.279 L 84.732 68.279 L 85.763 67.25 C 85.907 66.766 86.038 66.27 86.166 65.766 L 84.549 67.378 L 83.385 67.378 z " fill-opacity="0.1"/>
<path d="M 72.576 53.167 C 72.55299 53.109 72.51299 53.04 72.472 52.973 C 72.382 52.831 72.282 52.701 72.282 52.701 L 72.053 52.701 C 72.061005 52.711 72.065 52.722 72.074005 52.729 L 72.064 52.737 L 72.060005 52.741 L 72.16901 53.02 C 72.244 53.208 72.38601 53.276 72.59701 53.305 C 72.58401 53.305 72.58001 53.3 72.586006 53.294 C 72.607 53.271 72.598 53.225 72.576 53.167 L 72.576 53.167 z " fill-opacity="0.1"/>
<polygon fill-opacity="0.1" points="72.548,59.91 72.098,59.91 72.098,60.279 72.098,61.066 72.548,61.066 72.549,61.066   72.549,59.91 "/>
<polygon fill-opacity="0.1" points="52.523,46.671 52.339,46.671 52.34,46.672 53.245,47.576 54.087,48.417 53.809,48.417   52.771,48.417 52.771,49.357 52.414,49.71 52.094,49.71 51.969,49.585 51.449,49.066 50.861,49.066 50.861,49.568 51.91,50.609   52.602,50.609 53.221,49.993 53.221,49.316 54.281,49.316 54.299,49.299 54.299,49.299 54.357,49.24 54.723,48.871 52.873,47.02 "/>
<polygon fill-opacity="0.1" points="56.964,51.3 58.189,51.3 59.564,49.928 60.52,49.928 62.865,47.582 63.73,47.582 66.568,44.748   66.57,44.747 66.107,44.428 66.104,44.428 65.801,44.428 65.063,45.166 63.546,46.681 62.682,46.681 60.332,49.027 59.382,49.027   58.005,50.4 57.415,50.4 57.415,49.361 57.415,48.725 57.415,48.625 57.415,48.624 57.251,48.624 56.964,48.624 56.964,48.625   56.964,49.361 "/>
<path d="M 74.005 74.977 L 72.575 73.548996 L 72.575 70.738 L 66.64 70.738 L 64.552 68.645996 L 64.552 63.512997 L 64.552 62.962997 L 64.105 63.224 L 64.105 63.224 L 64.101006 63.225998 L 64.101006 63.227997 L 64.101006 63.964996 L 64.101006 69.284 L 66.453 71.638 L 72.124 71.638 L 72.126 71.638 L 72.126 72.492 L 72.126 74.182 L 73.555 75.608 L 73.555 76.462 L 73.555 78.7 L 73.555 83.218994 C 73.708 83.134995 73.856 83.046 74.006 82.96099 L 74.006 78.69899 L 74.005 74.977 L 74.005 74.977 z " fill-opacity="0.1"/>
<path d="M 81.494 76.299 C 81.648 76.08501 81.797005 75.865005 81.945 75.647 L 81.945 74.88 L 83.169 73.656 C 83.539 72.979996 83.879 72.267 84.202995 71.537994 L 81.493996 74.243 L 81.493996 76.299 L 81.494 76.299 z " fill-opacity="0.1"/>
<path d="M 52.021 46.269 L 53.47 46.269 L 54.312 45.429 L 54.312 45.429 L 54.376 45.365 L 54.799 44.954002 L 56.472 44.954002 L 56.842 44.579002 L 56.847 44.575 L 54.6 44.575 L 54.23 44.95 L 53.440998 45.752 L 52.032997 45.765 L 51.457996 46.427 L 50.106995 46.592 L 49.707996 46.641 L 49.800995 46.642 L 50.017994 46.644997 L 50.685993 46.656 C 50.693993 46.650997 50.70299 46.644997 50.70999 46.64 L 51.21299 46.64 L 51.18999 46.663 L 51.19599 46.663 L 51.630993 46.67 L 52.021 46.269 z " fill-opacity="0.1"/>
<polygon fill-opacity="0.1" points="57.719,48.624 57.902,48.624 59.436,47.086 57.7,47.086 57.7,46.061 55.503,46.061   55.053,46.427 57.25,46.427 57.251,46.427 57.251,47.988 58.352,47.988 "/>
<path d="M 72.473 52.973 C 72.514 53.04 72.553 53.11 72.576996 53.167 C 72.576996 53.168 72.576996 53.169 72.576996 53.17 C 72.6 53.226997 72.607994 53.274 72.587 53.294 C 72.578995 53.302998 72.603 53.309 72.631 53.313 C 72.644 53.315 72.653 53.317 72.672 53.319 C 72.676994 53.321 72.685 53.321 72.688995 53.321 C 72.729996 53.325 72.769 53.328 72.829994 53.329998 L 72.473 52.973 z "/>
<polygon points="48.065,49.285 49.012,49.285 49.523,48.771 48.898,48.771 48.912,48.76 48.51,48.76 48.022,49.244 "/>
<polygon points="85.656,64.307 84.411,63.059 84.299,63.172 84.299,63.172 85.436,64.309 85.658,64.309 "/>
<path d="M 85.668 59.096 L 85.668 58.524002 L 85.273 58.128002 C 85.41 58.447 85.546 58.768 85.668 59.096 z "/>
<path d="M 74.885 52.082 L 74.885 51.228 L 74.885 51.215 L 74.885 51.1 L 74.885 50.566998 L 74.372 51.080997 L 74.372 52.240997 L 74.372 52.243996 L 74.372 53.096996 L 74.152 53.317997 C 74.327 53.311996 74.48 53.308 74.597 53.302 L 74.597 53.302 C 74.724 53.297997 74.804 53.295 74.804 53.295 L 76.017 52.082996 L 74.885 52.082996 z " fill="#a02e00" fill-opacity="1"/>
<polygon points="42.948,70.833 42.948,70.831 42.227,70.831 42.225,70.831 41.453,70.059 41.453,70.182 42.282,71.006   42.948,71.006 "/>
<rect height="0.638" width="0.652" x="67.998" y="55.652"/>
<polygon fill="#a02e00" fill-opacity="1" points="76.02,52.082 76.445,51.657 76.445,51.229 74.885,51.229 74.885,52.082 "/>
<path d="M 84.732 68.279 L 83.195 68.279 L 81.0 66.085 L 81.0 66.937996 L 83.195 69.133995 L 84.736 69.133995 L 85.386 68.48699 C 85.517 68.08699 85.64 67.67299 85.761 67.257996 L 84.738 68.28 L 84.732 68.28 z "/>
<path d="M 71.314 52.854 L 71.431 52.737 L 71.467 52.7 L 71.468 52.7 L 72.05 52.7 L 72.279 52.7 C 72.279 52.7 72.381996 52.832 72.47 52.973 L 72.824 53.327 C 72.857994 53.328 72.905 53.328 72.944 53.329 C 72.95 53.329 72.956 53.329 72.961 53.329 C 73.281 53.335 73.739 53.326 74.126 53.314 C 74.133 53.314 74.142 53.314 74.149 53.314 L 74.369 53.093 L 74.369 52.239998 L 73.862 52.745 L 73.858 52.747997 L 73.102005 52.747997 L 72.350006 51.997997 L 70.897 51.997997 L 70.897 52.851997 L 71.30701 52.851997 L 71.314 52.851997 L 71.314 52.854 z " fill="#a02e00" fill-opacity="1"/>
<polygon points="81.816,57.471 80.46,56.107 78.468,56.107 77.639,56.943 77.619,57.461 77.799,57.639 78.468,56.964 80.46,56.964   81.512,58.02 81.627,58.02 81.816,58.02 81.816,57.473 "/>
<polygon points="68.488,53.245 67.936,52.689 67.934,52.689 67.756,52.854 67.756,53.366 68.12,53.73 68.303,53.55 68.488,53.55 "/>
<polygon points="78.412,49.553 78.646,49.553 78.646,49.551 78.646,49.188 78.52,49.063 77.907,49.039 77.9,49.039 "/>
<polygon points="74.885,50.566 74.885,50.45 74.885,50.359 75.98,49.268 75.331,49.268 74.372,50.225 74.372,51.08 "/>
<path d="M 85.273 58.127 L 84.554 57.41 L 84.554 57.41 L 84.197 57.41 L 84.197 57.909 L 85.668 59.378002 L 85.668 59.096 C 85.546 58.768 85.41 58.447 85.273 58.127 z "/>
<polygon points="67.091,54.25 66.841,54.25 66.841,54.365 66.488,54.723 66.488,55.105 67.091,55.105 67.506,54.691 67.506,54.387   67.704,54.188 67.704,53.714 67.506,53.714 67.506,53.839 "/>
<path d="M 82.775 56.9 L 82.775 56.9 L 83.193 57.334 L 83.193 57.334 L 84.006004 56.52 L 84.546005 56.52 C 84.397 56.225002 84.219 55.951 84.05501 55.665 L 84.006004 55.665 L 82.775 56.9 z "/>
<path d="M 85.839 63.634 L 85.839 63.634 L 84.410995 62.204998 L 84.410995 62.204998 L 84.19499 62.42 L 83.868996 62.746 L 84.297 63.171997 L 84.298 63.170998 L 84.410995 63.059 L 85.657 64.307 L 85.659 64.309 L 85.77699 64.309 L 86.51499 64.309 C 86.56199 64.087 86.606995 63.859997 86.65399 63.634 L 85.84099 63.634 L 85.839 63.634 z "/>
<polygon points="81,62.729 81,62.729 80.207,62.729 80.207,62.729 80.207,63.582 81,63.582 "/>
<polygon points="72.125,74.188 72.125,74.188 72.125,75.039 73.555,76.466 73.555,75.611 "/>
<polygon points="72.125,71.641 72.123,71.641 66.452,71.641 64.102,69.286 64.102,70.141 66.452,72.495 72.123,72.495   72.125,72.495 "/>
<polygon fill="#a02e00" fill-opacity="1" points="67.419,59.91 68.908,59.91 70.225,58.596 70.225,57.909 72.05,57.909 73.63,59.488 74.284,58.834 73.857,58.408   73.63,58.635 72.05,57.055 70.225,57.055 70.225,57.738 68.38,59.584 67.089,59.584 66.645,59.137 66.645,59.994 66.99,60.339   66.99,60.339 "/>
<polygon points="73.68,57.37 73.744,57.37 74.999,58.621 74.999,59.378 76.371,59.378 76.371,58.874 76.947,58.874 78.625,60.549   80.066,60.549 80.07,60.549 80.07,59.695 78.625,59.695 76.947,58.02 76.371,58.02 76.371,58.521 74.999,58.521 74.999,57.768   73.744,56.516 72.82,56.516 73.674,57.37 73.674,57.37 73.675,57.37 "/>
<path d="M 81.945 75.646 C 82.375 75.007 82.788 74.351006 83.169 73.658005 L 81.945 74.881004 L 81.945 75.646 z "/>
<polygon points="69.102,54.799 69.367,54.799 69.634,54.533 69.634,54.532 69.634,54.439 69.414,54.221 69.26,54.373 69.257,54.373   68.488,54.373 68.488,54.404 68.303,54.404 67.911,54.799 67.911,55.229 67.998,55.229 67.998,54.799 "/>
<polygon points="48.553,57.092 45.656,59.986 44.69,59.986 43.222,61.455 43.222,62.309 44.69,60.842 45.656,60.842 48.553,57.945   50.248,57.945 50.713,57.486 50.713,56.632 50.248,57.092 "/>
<polygon points="45.512,80.354 46.758,81.6 46.758,80.747 46.758,80.745 45.512,79.498 44.845,79.498 42.48,77.134 42.48,77.988   43.245,78.754 44.845,80.354 "/>
<path d="M 39.559 69.023 L 42.225 71.685005 L 42.947998 71.685005 L 42.947998 71.007 L 42.281 71.007 L 42.281 71.004005 L 41.452 70.17901 L 41.452 70.05801 L 39.558 68.16801 L 38.945 68.16801 L 38.943 68.16801 L 38.663002 67.88601 C 38.657 67.73201 38.642002 67.57601 38.635002 67.41801 L 38.635002 67.41801 L 38.624 67.41801 L 38.617 67.41801 C 38.617 67.489006 38.608 67.55801 38.608 67.629005 C 38.608 68.007 38.647003 68.37 38.664 68.741005 L 38.697002 68.774 L 38.944004 69.020004 L 39.559006 69.020004 L 39.559006 69.023 z "/>
<polygon points="53.02,54.369 52.605,54.782 50.21,54.782 50.21,55.162 50.262,55.162 50.713,55.162 50.713,55.52 50.713,55.637   52.605,55.637 53.23,55.018 53.23,54.581 53.021,54.372 53.021,54.371 "/>
<polygon points="54.299,49.299 54.281,49.316 53.221,49.316 53.221,49.993 52.602,50.609 51.91,50.609 51.217,49.922 51.215,49.922   50.861,49.922 50.861,50.425 51.91,51.463 52.059,51.463 52.506,51.016 52.506,51.348 52.506,51.463 52.602,51.463 53.221,50.848   53.221,50.172 54.281,50.172 54.723,49.727 54.3,49.3 "/>
<polygon points="55.053,45.429 54.314,45.429 54.313,45.429 54.313,45.429 53.471,46.269 52.021,46.269 51.629,46.671 51.63,46.671   52.339,46.671 52.523,46.671 52.867,47.012 52.98,47.124 52.98,47.124 53.471,47.124 54.377,46.219 54.8,45.805 55.053,45.805   55.053,45.623 "/>
<polygon points="55.477,78.066 55.477,78.917 55.479,78.916 55.661,78.732 57.232,77.164 57.232,76.314 57.232,76.309   55.477,78.063 "/>
<rect height="0.853" width="0.497" x="42.725" y="63.575"/>
<polygon points="54.646,81.557 53.063,83.137 53.063,83.141 53.063,83.991 53.064,83.988 54.646,82.408 55.477,82.408   55.477,81.561 55.477,81.557 "/>
<path d="M 51.213 46.641 L 50.71 46.641 C 50.701 46.646 50.690998 46.650997 50.686 46.656998 C 50.54 46.740997 50.395 46.825996 50.253002 46.913998 L 50.943 46.913998 L 51.189 46.664997 L 51.213 46.641 z "/>
<polygon points="45,52.313 45.119,52.313 46.736,50.693 47.432,50.693 48.51,49.613 49.438,49.613 50.367,48.688 51.251,48.688   51.631,49.066 51.743,49.066 51.751,49.066 51.752,49.066 52.113,48.703 51.251,47.833 50.367,47.833 50.366,47.834 49.438,48.76   49.436,48.76 48.912,48.76 48.898,48.771 49.523,48.771 49.012,49.285 48.065,49.285 48.022,49.244 47.564,49.706 47.432,49.84   47.431,49.84 47.178,49.84 47.148,49.84 46.736,49.84 46.735,49.841 44.75,51.824 44.75,51.825 44.75,51.825 44.75,52.313 "/>
<path d="M 42.26 61.994 L 39.522 61.994 L 39.221 62.295 C 39.221 62.296997 39.221 62.297997 39.22 62.3 C 39.139 62.653 39.067 63.009 39.005 63.365997 L 39.522 62.846996 L 42.26 62.846996 L 42.724 63.309998 L 42.724 62.455997 L 42.26 61.994 z "/>
<polygon points="53.063,84.874 51.367,86.57 51.367,87.426 51.37,87.423 53.063,85.729 53.063,84.883 53.063,84.88 "/>
<polygon points="66.107,45.282 66.035,45.282 66.035,45.282 63.73,47.582 62.865,47.582 60.52,49.928 59.564,49.928 58.189,51.3   56.964,51.3 56.964,51.303 56.964,52.154 58.189,52.154 59.564,50.779 60.52,50.779 62.865,48.438 63.73,48.438 66.57,45.602 "/>
<rect height="0.854" width="2.197" x="55.053" y="46.427"/>
<polygon points="57.717,48.624 57.719,48.624 58.352,47.988 57.251,47.988 57.251,48.624 57.415,48.624 "/>
<linearGradient gradientTransform="matrix(1,0,0,-1,-272.5996,-298.9004)" gradientUnits="userSpaceOnUse" x1="304.1377" x2="316.4103" y1="-328.4868" y2="-352.5567">
<stop offset="0" stop-color="#cc3a00"/>
<stop offset="1" stop-color="#8c0000"/>
</linearGradient>
<path d="M 27.237 28.771 L 22.956 28.741 L 22.956 21.637 C 22.956 21.637 28.144 21.522999 34.810997 21.522999 C 47.838997 21.522999 52.638996 28.265999 52.638996 33.052998 C 52.638996 34.003998 52.638996 34.955997 52.638996 35.906998 C 52.638996 39.729996 50.693996 47.893997 39.793995 47.893997 C 37.849995 47.893997 36.748993 47.893997 35.227997 47.893997 C 35.227997 52.268997 35.227997 56.645996 35.227997 61.022995 C 32.563995 61.022995 29.899998 61.022995 27.235996 61.022995 C 27.236996 54.077995 27.236996 28.770996 27.236996 28.770996 z M 35.228996 28.770996 C 35.228996 32.766994 35.228996 36.762997 35.228996 40.757996 C 37.517998 40.757996 44.324997 41.630997 44.324997 34.406998 C 44.323997 30.595997 41.750996 28.770998 35.228996 28.770998 z " fill="#a02e00" fill-opacity="1"/>
<linearGradient gradientTransform="matrix(1 0 0 1 -1108.5801 -1412.4199)" gradientUnits="userSpaceOnUse" id="SVGID_122_" x1="1156.5586" x2="1156.5586" y1="1420.6719" y2="1499.9172">
<stop offset="0" stop-color="#ffffff"/>
<stop offset="1" stop-color="#ffffff" stop-opacity="0"/>
</linearGradient>
<path d="M 47.977 8.0 C 18.359 8.0 8.0 18.365 8.0 48.0 C 8.0 77.632996 18.359001 88.0 47.977 88.0 C 77.596 88.0 87.954 77.633 87.954 48.0 C 87.953 18.365 77.596 8.0 47.977 8.0 z M 47.977 87.0 C 18.836 87.0 9.0 77.158 9.0 48.0 C 9.0 18.842003 18.836 9.0 47.977 9.0 C 77.118004 9.0 86.955 18.842 86.955 48.0 C 86.955 77.158005 77.117 87.0 47.977 87.0 z " fill="url(#SVGID_122_)" fill-opacity="0.25"/>
</svg>
