<?xml version="1.0" encoding="UTF-8"?>
<svg xmlns="http://www.w3.org/2000/svg" xmlns:xlink="http://www.w3.org/1999/xlink" baseProfile="tiny" contentScriptType="text/ecmascript" contentStyleType="text/css" height="96px" preserveAspectRatio="xMidYMid meet" version="1.1" viewBox="0 0 96 96" width="96px" x="0px" y="0px" zoomAndPan="magnify">
<path d="M 88.0 49.0 C 88.0 78.635 77.637 89.0 48.0 89.0 C 18.365 89.0 8.0 78.635 8.0 49.0 C 8.0 19.367 18.365 9.0 48.0 9.0 C 77.637 9.0 88.0 19.367 88.0 49.0 z " fill-opacity="0.4"/>
<linearGradient gradientTransform="matrix(1 0 0 1 -1175.3008 -1064.6992)" gradientUnits="userSpaceOnUse" x1="1223.3008" x2="1223.3008" xlink:actuate="onLoad" xlink:show="other" xlink:type="simple" y1="1152.6992" y2="1072.6992">
<stop offset="0" stop-color="#0096be"/>
<stop offset="1" stop-color="#afe6f1"/>
</linearGradient>
<path d="M 88.0 48.0 C 88.0 77.635 77.637 88.0 48.0 88.0 C 18.365 88.0 8.0 77.635 8.0 48.0 C 8.0 18.367 18.365 8.0 48.0 8.0 C 77.637 8.0 88.0 18.367 88.0 48.0 z " fill="#7ccee1" fill-opacity="1"/>
<linearGradient gradientTransform="matrix(1 0 0 1 -1175.3008 -1064.6992)" gradientUnits="userSpaceOnUse" id="SVGID_2_" x1="1223.3018" x2="1223.3018" xlink:actuate="onLoad" xlink:show="other" xlink:type="simple" y1="1072.9521" y2="1152.1973">
<stop offset="0" stop-color="#ffffff"/>
<stop offset="1" stop-color="#ffffff" stop-opacity="0"/>
</linearGradient>
<path d="M 48.0 8.0 C 18.365 8.0 8.0 18.367 8.0 48.0 C 8.0 77.635 18.365 88.0 48.0 88.0 C 77.637 88.0 88.0 77.635 88.0 48.0 C 88.0 18.367 77.637 8.0 48.0 8.0 z M 48.0 87.0 C 18.842 87.0 9.0 77.159 9.0 48.0 C 9.0 18.842 18.842 9.0 48.0 9.0 C 77.158005 9.0 87.0 18.842 87.0 48.0 C 87.0 77.159 77.158 87.0 48.0 87.0 z " fill="url(#SVGID_2_)" fill-opacity="0.25"/>
<linearGradient gradientUnits="userSpaceOnUse" x1="55.7578" x2="55.7578" xlink:actuate="onLoad" xlink:show="other" xlink:type="simple" y1="85.1309" y2="32.4927">
<stop offset="0" stop-color="#18b1d3"/>
<stop offset="1" stop-color="#a6ebec"/>
</linearGradient>
<path d="M 76.17 45.279 L 75.954 45.08 C 73.49799 43.001 69.12699 41.141 58.881996 41.141 C 57.352997 39.612 50.82999 33.342 49.667995 32.807 L 48.671997 32.516 L 48.502 32.493 L 47.462997 32.504 C 43.573997 33.123 41.491997 35.789 41.893 39.637 C 41.989 40.56 42.296 41.342003 42.698 41.998 C 33.645996 44.519 29.634 52.567 29.488998 57.331 C 29.378998 58.722 29.124998 66.125 35.344997 72.345 L 35.560997 72.544 C 38.017 74.623 40.322 76.800995 52.970997 76.800995 C 53.78 77.697 60.685 84.283 61.847996 84.81799 L 62.84399 85.10899 L 63.013992 85.132 L 64.051994 85.12 C 67.94199 84.502 70.023994 81.836 69.621994 77.98699 C 69.524994 77.064 69.218994 76.28299 68.81699 75.62699 C 77.869 73.10599 81.881 65.05799 82.02599 60.29399 C 82.137 58.902 82.391 51.499 76.17 45.279 z " fill="#7ccee1" fill-opacity="1" fill-rule="evenodd"/>
<rect fill="none" height="96" width="96"/>
<rect fill="none" height="96" width="96"/>
<path d="M 63.326 81.602 C 62.131 81.051994 56.717 75.377 56.176 74.902 C 54.386997 73.335 52.36 71.557 52.567 69.934 C 52.661 69.202 53.201996 68.582 54.173996 68.092995 L 54.289 68.062 C 54.78 68.034 55.318996 68.02 55.935997 68.02 C 56.729996 68.02 57.558 68.043 58.358997 68.065994 C 59.156 68.088 59.979996 68.11199 60.764996 68.11199 L 60.765995 68.11199 C 62.423996 68.11199 63.59399 68.008 64.559 67.774994 L 64.619995 67.76799 C 69.80499 67.60399 73.91 63.37299 73.771 58.33699 C 73.771 55.29099 71.926994 52.34199 69.531 50.93399 C 68.160995 50.21199 66.417 49.83799 64.729996 49.47499 C 62.710995 49.47499 61.532 48.360992 62.268 46.214993 C 62.637997 44.526993 63.643997 44.39699 64.312 44.46799 C 66.779 44.73199 72.063 46.423992 73.66699 47.78099 C 79.27999 53.39399 78.48899 60.097992 78.48899 60.097992 C 78.43799 63.80899 74.21399 72.86499 62.86799 72.86499 C 62.188988 72.86499 61.474987 72.84299 60.744987 72.79699 C 60.851982 73.00699 63.88099 75.73099 64.24199 75.99199 C 65.01899 76.55499 65.98599 77.25599 66.09999 78.35299 C 66.30499 80.32299 65.52599 81.29999 63.49499 81.62399 L 63.326 81.602 z " fill="#ffffff" fill-rule="evenodd"/>
<path d="M 48.189 36.021 C 49.383 36.571 54.798 42.247 55.339 42.721 C 57.128 44.288 59.155 46.066 58.948 47.689 C 58.853 48.421 58.313004 49.041 57.341003 49.53 L 57.226 49.56 C 56.734 49.588997 56.195004 49.602997 55.578003 49.602997 C 54.785004 49.602997 53.957005 49.58 53.155003 49.558 C 52.358 49.535 51.535004 49.511 50.750004 49.511 C 50.748005 49.511 50.748005 49.511 50.748005 49.511 C 49.090004 49.511 47.92001 49.615 46.95501 49.846996 L 46.894005 49.854996 C 41.710007 50.018997 37.604004 54.249996 37.743004 59.285995 C 37.743004 62.331997 39.586 65.281 41.983 66.688995 C 43.354 67.410995 45.098003 67.785 46.785004 68.148 C 48.803005 68.148 49.982 69.26199 49.246 71.408 C 48.877003 73.096 47.870003 73.226 47.202003 73.155 C 44.735004 72.891 39.452003 71.199 37.848003 69.842 C 32.234005 64.229 33.025 57.524994 33.025 57.524994 C 33.077 53.813995 37.301003 44.757996 48.645 44.757996 C 49.325 44.757996 50.039 44.78099 50.77 44.825996 C 50.663 44.617996 47.633 41.893 47.272 41.630997 C 46.496 41.067997 45.528 40.366997 45.414 39.269997 C 45.207996 37.300995 45.988 36.322 48.019997 35.998997 L 48.189 36.021 z " fill="#ffffff" fill-rule="evenodd"/>
<linearGradient gradientUnits="userSpaceOnUse" x1="29.8994" x2="36.9702" xlink:actuate="onLoad" xlink:show="other" xlink:type="simple" y1="34.2871" y2="55.3997">
<stop offset="0" stop-color="#258cb1"/>
<stop offset="1" stop-color="#2b4689"/>
</linearGradient>
<polygon fill="#258cb1" fill-opacity="1" points="23,22.035 34.259,22.035 34.259,53.3 49.047,53.3 49.047,61.535 26.244,61.535   26.244,29.477 23,29.477 "/>
</svg>
