<?xml version="1.0" encoding="UTF-8"?>
<svg xmlns="http://www.w3.org/2000/svg" xmlns:xlink="http://www.w3.org/1999/xlink" baseProfile="tiny" contentScriptType="text/ecmascript" contentStyleType="text/css" height="96px" preserveAspectRatio="xMidYMid meet" version="1.1" viewBox="0 0 96 96" width="96px" x="0px" y="0px" zoomAndPan="magnify">
<defs>
<linearGradient xlink:actuate="onLoad" xlink:show="other" xlink:type="simple">
<stop offset="0" stop-color="#9faebc" stop-opacity="1"/>
<stop offset="1" stop-color="#9bb5cf" stop-opacity="1"/>
</linearGradient>
<linearGradient gradientTransform="matrix(0,1,-1,0,94.5,0.5)" gradientUnits="userSpaceOnUse" id="linearGradient3833" x1="7" x2="87" xlink:actuate="onLoad" xlink:show="other" xlink:type="simple" y1="47.5" y2="47.5">
<stop offset="0" stop-color="#9faebc" stop-opacity="1"/>
<stop offset="1" stop-color="#8fa0b1" stop-opacity="1"/>
</linearGradient>
</defs>
<linearGradient gradientTransform="matrix(1 0 0 -1 123.4448 270.2754)" gradientUnits="userSpaceOnUse" x1="-76.4448" x2="-76.4448" xlink:actuate="onLoad" xlink:show="other" xlink:type="simple" y1="262.2305" y2="181.5353">
<stop offset="0" stop-color="#a0b1bf"/>
<stop offset="1" stop-color="#3d465b"/>
</linearGradient>
<path d="M 47.0 87.5 C 17.367 87.5 7.0 77.138 7.0 47.5 C 7.0 17.865 17.367 7.5 47.0 7.5 C 76.635 7.5 87.0 17.865 87.0 47.5 C 87.0 77.138 76.635 87.5 47.0 87.5 z " fill="url(#linearGradient3833)" fill-opacity="1"/>
<linearGradient gradientTransform="matrix(1 0 0 -1 123.4448 270.2754)" gradientUnits="userSpaceOnUse" id="SVGID_2_" x1="-76.4448" x2="-76.4448" xlink:actuate="onLoad" xlink:show="other" xlink:type="simple" y1="262.2305" y2="181.5353">
<stop offset="0" stop-color="#ffffff"/>
<stop offset="1" stop-color="#ffffff" stop-opacity="0"/>
</linearGradient>
<path d="M 47.0 7.5 C 17.365 7.5 7.0 17.865 7.0 47.5 C 7.0 77.133 17.365 87.5 47.0 87.5 C 76.638 87.5 87.0 77.133 87.0 47.5 C 87.0 17.865 76.638 7.5 47.0 7.5 z M 47.0 86.5 C 17.842 86.5 8.0 76.658 8.0 47.5 C 8.0 18.341 17.842 8.5 47.0 8.5 C 76.16 8.5 86.0 18.341 86.0 47.5 C 86.0 76.658 76.16 86.5 47.0 86.5 z " fill="url(#SVGID_2_)" fill-opacity="0.25"/>
<rect fill="none" height="80" width="80" x="7" y="7.5"/>
<linearGradient gradientTransform="matrix(1 0 0 -1 123.4448 270.2754)" gradientUnits="userSpaceOnUse" x1="-76.7158" x2="-76.7158" xlink:actuate="onLoad" xlink:show="other" xlink:type="simple" y1="199.6494" y2="-98.3114">
<stop offset="0" stop-color="#f7f9ed"/>
<stop offset="0.3232" stop-color="#f7f9ed"/>
<stop offset="1" stop-color="#d1cbc4"/>
</linearGradient>
<rect fill="none" height="36.691" width="36.691" x="52.286" y="51.809"/>
<linearGradient gradientTransform="matrix(1,0,0,-1,123.4448,270.2754)" gradientUnits="userSpaceOnUse" id="SVGID_4_" x1="-52.7915" x2="-52.7915" xlink:actuate="onLoad" xlink:show="other" xlink:type="simple" y1="216.5" y2="191.2771">
<stop offset="0" stop-color="#0096e7"/>
<stop offset="1" stop-color="#0096e7"/>
</linearGradient>
<path d="M 88.999 70.154 C 88.999 83.744995 84.246 88.5 70.654 88.5 C 57.060997 88.5 52.307 83.745 52.307 70.154 C 52.307 56.562 57.061 51.808 70.654 51.808 C 84.246 51.809 88.999 56.563 88.999 70.154 z " fill="url(#SVGID_4_)"/>
<linearGradient gradientTransform="matrix(1 0 0 -1 123.4448 270.2754)" gradientUnits="userSpaceOnUse" x1="-52.8125" x2="-52.8125" xlink:actuate="onLoad" xlink:show="other" xlink:type="simple" y1="218.3506" y2="182.0056">
<stop offset="0" stop-color="#ffffff"/>
<stop offset="1" stop-color="#ffffff" stop-opacity="0"/>
</linearGradient>
<path d="M 59.872 76.912 L 57.205 76.912 L 57.205 66.881 L 59.633003 66.881 L 59.734005 68.215 C 59.827003 68.043 59.956005 67.863 60.122005 67.67799 C 60.28801 67.493 60.491005 67.32099 60.729004 67.16 C 60.966003 66.99999 61.247005 66.870995 61.565 66.770996 C 61.882004 66.67 62.242 66.62299 62.639004 66.62299 C 63.911003 66.62299 64.82201 66.97099 65.366005 67.66799 C 65.91 68.36299 66.18201 69.32199 66.18201 70.54299 L 66.18201 76.912 L 63.515007 76.912 L 63.515007 70.702995 C 63.515007 70.01399 63.369007 69.54199 63.077007 69.288994 C 62.786007 69.036995 62.42801 68.910995 62.00301 68.910995 C 61.565006 68.910995 61.207005 68.99799 60.930008 69.17 C 60.65101 69.344 60.43601 69.582 60.284008 69.887 C 60.13101 70.192 60.02401 70.547005 59.966007 70.95101 C 59.905006 71.355 59.876007 71.784004 59.876007 72.234 L 59.876007 76.912 L 59.872 76.912 z " fill="#ffffff"/>
<path d="M 67.713 69.131 L 67.713 66.881 L 69.464 66.881 L 69.464 66.125 C 69.464 65.555 69.524994 65.004 69.645 64.475 C 69.764 63.944 69.968 63.476997 70.26 63.071 C 70.551994 62.668 70.948 62.344 71.44599 62.106 C 71.94399 61.869 72.57699 61.749 73.34599 61.749 C 73.94299 61.749 74.43399 61.778 74.81899 61.839 C 75.204 61.9 75.47499 61.948 75.634 61.987 L 75.395 64.078 C 75.24899 64.051 75.064 64.026 74.837 64.008 C 74.611 63.989 74.34 63.980003 74.022 63.980003 C 73.384 63.980003 72.91499 64.142006 72.60999 64.466 C 72.30399 64.791 72.15199 65.371 72.15199 66.207 L 72.15199 66.883 L 74.79799 66.883 L 74.79799 69.133 L 72.15 69.133 L 72.15 76.914 L 69.462 76.914 L 69.462 69.133 L 67.713 69.131 L 67.713 69.131 z " fill="#ffffff"/>
<path d="M 78.618 71.896 C 78.618 72.93101 78.84 73.68701 79.284 74.165 C 79.729 74.643 80.369 74.882 81.204994 74.882 C 81.76399 74.882 82.213 74.809006 82.55899 74.663 C 82.90498 74.517 83.16899 74.385 83.35599 74.266 L 84.37099 76.078 C 84.25198 76.157 84.09299 76.26 83.89299 76.385994 C 83.69299 76.51299 83.45199 76.634995 83.16499 76.75399 C 82.878 76.872986 82.551994 76.97799 82.18099 77.06399 C 81.80999 77.14999 81.398994 77.192986 80.94799 77.192986 C 79.288994 77.192986 78.038994 76.719986 77.19599 75.77099 C 76.35399 74.82199 75.93199 73.53099 75.93199 71.89999 C 75.93199 71.11699 76.04799 70.39999 76.28099 69.75198 C 76.510994 69.10198 76.843994 68.54398 77.27599 68.07999 C 77.70699 67.61499 78.230995 67.25799 78.84799 67.00499 C 79.46399 66.75299 80.15899 66.62699 80.926994 66.62699 C 81.41699 66.62699 81.868 66.68399 82.28099 66.79599 C 82.69199 66.90799 83.05099 67.03799 83.35599 67.18399 C 83.66099 67.329994 83.90599 67.47299 84.09099 67.61199 C 84.277985 67.75299 84.39699 67.84799 84.44799 67.90099 L 83.25499 69.732994 C 83.18999 69.69199 83.08899 69.62699 82.955986 69.534 C 82.82298 69.44 82.664986 69.35 82.47799 69.264 C 82.29099 69.178 82.081985 69.102 81.85199 69.035 C 81.61999 68.969 81.37499 68.935005 81.12399 68.935005 C 80.36699 68.935005 79.76199 69.17901 79.30299 69.670006 C 78.848 70.158 78.618 70.9 78.618 71.896 z " fill="#ffffff"/>
<rect fill="none" height="96" width="96"/>
<g transform="translate(-4.9564807e-5,-3.6003299e-4)">
<g fill="#97a5b2" fill-opacity="1" transform="matrix(1.4666667,0,0,1.4666667,-51.510848,-13.959234)">
<rect fill="#97a5b2" fill-opacity="1" fill-rule="nonzero" height="30.193674" rx="0.5" ry="0.3689687" stroke="none" width="5.6089149" x="64.969864" y="34.143093"/>
<path d="M 71.19007 18.014511 C 71.19007 20.139229 69.49984 21.86165 67.41484 21.86165 C 65.329834 21.86165 63.63961 20.139229 63.63961 18.014511 C 63.63961 15.889794 65.32984 14.167371 67.41484 14.167371 C 69.49984 14.167371 71.19007 15.889792 71.19007 18.014511 z " fill="#97a5b2" fill-opacity="1" fill-rule="nonzero" stroke="none" transform="matrix(0.99331667,0,0,0.97474999,0.85677958,8.4800978)"/>
</g>
<g fill="#8894a0" fill-opacity="1" transform="matrix(1.3333333,0,0,1.3333333,-42.503359,-10.61615)">
<rect fill="#8894a0" fill-opacity="1" fill-rule="nonzero" height="33.527645" rx="0.5" ry="0.40971002" stroke="none" width="5.6089149" x="64.969864" y="34.201218"/>
<path d="M 71.19007 18.014511 C 71.19007 20.139229 69.49984 21.86165 67.41484 21.86165 C 65.329834 21.86165 63.63961 20.139229 63.63961 18.014511 C 63.63961 15.889794 65.32984 14.167371 67.41484 14.167371 C 69.49984 14.167371 71.19007 15.889792 71.19007 18.014511 z " fill="#8894a0" fill-opacity="1" fill-rule="nonzero" stroke="none" transform="matrix(0.99331667,0,0,0.97474999,0.85677958,8.4800978)"/>
</g>
<g fill="#7a8590" fill-opacity="1" transform="matrix(1.2,0,0,1.2,-33.385278,-7.1384922)">
<rect fill="#7a8590" fill-opacity="1" fill-rule="nonzero" height="37.260929" stroke="none" width="5.6089149" x="64.969864" y="34.26157"/>
<path d="M 71.19007 18.014511 C 71.19007 20.139229 69.49984 21.86165 67.41484 21.86165 C 65.329834 21.86165 63.63961 20.139229 63.63961 18.014511 C 63.63961 15.889794 65.32984 14.167371 67.41484 14.167371 C 69.49984 14.167371 71.19007 15.889792 71.19007 18.014511 z " fill="#7a8590" fill-opacity="1" fill-rule="nonzero" stroke="none" transform="matrix(0.99331667,0,0,0.97474999,0.85677958,8.4800978)"/>
</g>
<g fill="#ffffff" transform="matrix(1.0666667,0,0,1.0666667,-24.342471,-5.3810053)">
<rect fill="#ffffff" fill-opacity="1" fill-rule="nonzero" height="40.916313" stroke="none" width="5.6089149" x="64.969864" y="34.26157"/>
<path d="M 71.19007 18.014511 C 71.19007 20.139229 69.49984 21.86165 67.41484 21.86165 C 65.329834 21.86165 63.63961 20.139229 63.63961 18.014511 C 63.63961 15.889794 65.32984 14.167371 67.41484 14.167371 C 69.49984 14.167371 71.19007 15.889792 71.19007 18.014511 z " fill="#ffffff" fill-opacity="1" fill-rule="nonzero" stroke="none" transform="matrix(0.99331667,0,0,0.97474999,0.85677958,8.4800978)"/>
</g>
</g>
</svg>
