<?xml version="1.0" encoding="UTF-8"?>
<svg xmlns="http://www.w3.org/2000/svg" xmlns:xlink="http://www.w3.org/1999/xlink" baseProfile="tiny" contentScriptType="text/ecmascript" contentStyleType="text/css" height="96" preserveAspectRatio="xMidYMid meet" version="1.1" viewBox="0 0 96 96" width="96" x="0" y="0" zoomAndPan="magnify">
<defs>
<linearGradient id="linearGradient3804">
<stop offset="0" stop-color="#ffffff" stop-opacity="1"/>
<stop offset="1" stop-color="#ffffff" stop-opacity="0.78431374"/>
</linearGradient>
<linearGradient>
<stop offset="0" stop-color="#52bb0f" stop-opacity="1"/>
<stop offset="1" stop-color="#52a00f" stop-opacity="1"/>
</linearGradient>
<linearGradient gradientTransform="matrix(0,1,-1,0,96,0)" gradientUnits="userSpaceOnUse" id="linearGradient3798" x1="7.998" x2="88.002" y1="48" y2="48">
<stop offset="0" stop-color="#52bb0f" stop-opacity="1"/>
<stop offset="1" stop-color="#52a00f" stop-opacity="1"/>
</linearGradient>
<linearGradient gradientUnits="userSpaceOnUse" id="linearGradient3810" x1="46.4729" x2="46.4729" y1="24.576431" y2="70.893227">
<stop offset="0" stop-color="#ffffff" stop-opacity="1"/>
<stop offset="1" stop-color="#ffffff" stop-opacity="0.78431374"/>
</linearGradient>
<linearGradient gradientTransform="matrix(0,1,-1,0,96,0)" gradientUnits="userSpaceOnUse" id="linearGradient3814" x1="46.4729" x2="46.4729" y1="24.576431" y2="70.893227">
<stop offset="0" stop-color="#52bb0f" stop-opacity="1"/>
<stop offset="1" stop-color="#52a00f" stop-opacity="1"/>
</linearGradient>
</defs>
<path d="M 88.002 48.999 C 88.002 78.634 77.641 89.0 48.0 89.0 C 18.365 89.0 7.998 78.634 7.998 48.999 C 7.998 19.367 18.365 9.0 48.0 9.0 C 77.639 9.0 88.002 19.367 88.002 48.999 z " fill-opacity="0.4" stroke-opacity="0.4"/>
<linearGradient gradientTransform="matrix(1 0 0 -1 0.1401 96.9453)" gradientUnits="userSpaceOnUse" x1="47.8599" x2="47.8599" y1="88.9453" y2="8.9458">
<stop offset="0" stop-color="#6fa519"/>
<stop offset="1" stop-color="#064c00"/>
</linearGradient>
<path d="M 48.0 88.002 C 18.366 88.002 8.0 77.641 8.0 48.0 C 8.0 18.365 18.366 7.998 48.0 7.998 C 77.633 7.998 88.0 18.365 88.0 48.0 C 88.0 77.639 77.633 88.002 48.0 88.002 z " fill="url(#linearGradient3798)" fill-opacity="1"/>
<linearGradient gradientTransform="matrix(1 0 0 -1 194.0654 -718.8955)" gradientUnits="userSpaceOnUse" id="SVGID_2_" x1="-146.0654" x2="-146.0654" y1="-727.1484" y2="-806.3932">
<stop offset="0" stop-color="#ffffff"/>
<stop offset="1" stop-color="#ffffff" stopOpacity="0"/>
</linearGradient>
<path d="M 48.0 8.0 C 18.365 8.0 7.998 18.367 7.998 48.0 C 7.998 77.634 18.365 88.0 48.0 88.0 C 77.641 88.0 88.002 77.634 88.002 48.0 C 88.002 18.367 77.639 8.0 48.0 8.0 z M 48.0 87.0 C 18.84 87.0 8.998 77.157 8.998 48.0 C 8.998 18.842 18.84 9.0 48.0 9.0 C 77.162 9.0 87.002 18.842 87.002 48.0 C 87.002 77.157 77.162 87.0 48.0 87.0 z " fill="url(#SVGID_2_)" fill-opacity="0.15" stroke-opacity="0.15"/>
<rect fill="none" height="96" width="96"/>
<path d="M 51.02416 35.617115 L 51.20798 35.43415 L 62.301872 35.43415 C 64.31449 35.43415 65.95173 33.79691 65.95173 31.78429 L 65.95173 27.396557 C 65.95173 25.383938 64.31449 23.746696 62.30187 23.746696 L 33.868355 23.746696 C 31.854876 23.746696 30.217636 25.383936 30.217636 27.396557 L 30.217636 31.78429 C 30.217636 33.79691 31.854876 35.43415 33.868355 35.43415 L 44.95881 35.43415 L 45.272343 35.746822 C 35.917053 37.332523 28.770231 45.486942 28.770231 55.283752 C 28.770231 66.216156 37.663383 75.10931 48.594925 75.10931 C 59.526463 75.10931 68.41876 66.215294 68.41876 55.283752 C 68.41876 45.17685 60.81324 36.818844 51.02416 35.61712 z M 53.835644 67.68847 C 52.17607 68.39542 50.37562 68.767365 48.59407 68.767365 C 47.389763 68.767365 46.166557 68.595566 44.985443 68.264854 L 45.62625 68.264854 L 45.62625 64.36588 L 46.88467 63.10574 L 46.88467 58.538475 L 44.50441 58.538475 L 44.50441 57.35822 L 41.675743 57.35822 L 39.182087 54.86551 L 36.837894 54.86551 L 36.837894 52.795338 L 37.18836 52.795338 L 39.264545 50.718292 L 40.47143 50.718292 L 42.149044 49.062153 L 42.165363 49.062153 L 44.014774 47.23078 L 44.014774 46.56592 L 46.17514 46.56592 L 47.16384 45.5798 L 47.848457 45.5798 L 49.5338 43.89875 L 49.664284 43.89875 L 49.02004 44.433044 L 49.02004 44.79468 L 48.766636 45.05152 L 48.766636 48.681625 L 48.87917 48.681625 L 48.87917 49.93232 L 47.053806 51.75768 L 47.053806 58.072136 L 50.13587 61.1542 L 52.810776 61.1542 L 52.810776 61.586273 L 53.834698 62.61019 L 53.834698 67.68847 z " fill="#1a0900" fill-opacity="0.05" stroke-opacity="0.05"/>
<path d="M 49.12321 36.26995 C 49.18248 36.224422 49.24347 36.18147 49.296726 36.128216 L 50.85236 34.5743 L 62.301872 34.5743 C 63.841187 34.5743 65.09274 33.321888 65.09274 31.783432 L 65.09274 27.3957 C 65.09274 25.85647 63.84119 24.604916 62.301876 24.604916 L 33.86836 24.604916 C 32.32905 24.604916 31.076635 25.856382 31.076635 27.3957 L 31.076635 31.783432 C 31.076635 33.321888 32.32905 34.5743 33.86836 34.5743 L 45.31444 34.5743 L 46.867496 36.127357 C 46.940517 36.200367 47.020397 36.263077 47.10286 36.320633 C 37.30347 37.085136 29.56223 45.295387 29.56223 55.283752 C 29.56223 65.77807 38.09976 74.3156 48.59407 74.3156 C 59.088383 74.3156 67.62591 65.77807 67.62591 55.283756 C 67.62591 44.969833 59.37357 36.551704 49.123207 36.26995 z M 54.62849 68.20215 C 52.738705 69.09121 50.66252 69.55936 48.594925 69.55936 C 46.7249 69.55936 44.84285 69.175385 43.102524 68.44696 L 43.102524 67.67558 L 43.307823 67.472 L 44.831676 67.472 L 44.831676 64.03775 L 46.0901 62.778465 L 46.0901 59.33047 L 43.70983 59.33047 L 43.70983 58.151073 L 41.34588 58.151073 L 38.853085 55.656643 L 34.77287 55.656643 L 34.77287 54.57431 L 36.044174 54.57431 L 36.044174 52.124462 L 36.167873 52.001625 L 36.859364 52.001625 L 38.937267 49.922863 L 40.14501 49.922863 L 41.415462 48.669594 L 41.415462 48.266727 L 41.838085 48.266727 L 43.22012 46.89749 L 43.22012 45.76963 L 45.84692 45.76963 L 46.83562 44.783512 L 47.51938 44.783512 L 49.204723 43.102463 L 49.824917 43.102463 L 51.582417 41.3484 C 52.341766 41.50989 53.083935 41.733227 53.80463 42.016697 L 52.933613 42.88514 L 51.66316 42.88514 L 50.470024 43.997536 L 50.470024 44.25867 L 49.812035 44.803272 L 49.812035 45.118523 L 49.55863 45.37536 L 49.55863 47.8862 L 49.67116 47.8862 L 49.67116 50.257877 L 47.84666 52.08229 L 47.84666 57.741333 L 50.46487 60.358685 L 53.60277 60.358685 L 53.60277 61.25547 L 54.62669 62.278538 L 54.62669 68.20215 z " fill="#1a0900" fill-opacity="0.05" stroke-opacity="0.05"/>
<path d="M 48.08211 35.771736 C 47.86221 35.771736 47.642307 35.687557 47.474804 35.52005 L 45.67006 33.715305 L 33.86836 33.715305 C 32.803207 33.715305 31.935623 32.84858 31.935623 31.78343 L 31.935623 27.395697 C 31.935623 26.330544 32.803207 25.46382 33.86836 25.46382 L 62.301872 25.46382 C 63.367023 25.46382 64.23375 26.330544 64.23375 27.395697 L 64.23375 31.78343 C 64.23375 32.84858 63.367027 33.715305 62.301876 33.715305 L 50.49674 33.715305 L 48.68942 35.52005 C 48.521915 35.68841 48.302013 35.771736 48.08211 35.771736 z M 38.53956 30.193438 L 38.53956 28.89464 L 37.240765 28.89464 L 37.240765 30.193438 L 38.53956 30.193438 z M 48.594933 73.523605 C 38.536987 73.523605 30.355083 65.33998 30.355083 55.283752 C 30.355083 45.229244 38.536987 37.049057 48.594933 37.049057 C 58.65202 37.049057 66.83392 45.228382 66.83392 55.283752 C 66.83392 65.33998 58.65202 73.523605 48.594933 73.523605 L 48.594933 73.523605 z M 42.058 68.84467 C 47.709312 71.584 53.38897 69.73717 55.42135 68.695206 L 55.42135 61.950394 L 54.39743 60.927338 L 54.39743 59.56583 L 50.794815 59.56583 L 48.642178 57.412334 L 48.642178 52.41128 L 50.69345 50.359142 L 50.467537 50.13237 L 50.467537 47.629265 L 51.4382 47.629265 L 51.4382 47.1801 L 51.376347 47.1801 L 51.376347 47.093258 L 50.355865 47.093258 L 50.355865 45.700832 L 50.60927 45.445713 L 50.60927 45.17685 L 51.26554 44.632248 L 51.26554 44.343624 L 51.97765 43.68057 L 53.520397 43.68057 L 53.520397 43.424587 L 55.186844 41.75986 C 53.96364 41.16286 52.670856 40.7368 51.324818 40.48941 L 49.499454 42.31219 L 48.878403 42.31219 L 47.193054 43.992294 L 46.507584 43.992294 L 45.52146 44.97928 L 43.520863 44.97928 L 43.520863 42.75019 L 42.719425 43.555927 L 42.422215 43.555927 L 42.422215 43.575687 L 41.908535 44.087646 L 41.908535 45.076347 L 42.429085 45.596897 L 42.429085 46.569275 L 41.513397 47.47637 L 40.62262 47.47637 L 40.62262 48.34052 L 39.821262 49.131653 L 38.609142 49.131653 L 36.532955 51.209557 L 35.83975 51.209557 L 35.252197 51.797108 L 35.252197 53.7831 L 33.605507 53.7831 C 33.567707 54.152466 33.543655 54.51831 33.532497 54.88261 L 33.980892 54.88261 L 33.980892 56.78528 L 34.108883 56.91576 L 34.518623 56.91576 L 41.01776 58.94556 L 42.916996 58.94556 L 42.916996 59.994392 L 43.046703 60.1241 L 45.29812 60.1241 L 45.29812 62.450253 L 44.038837 63.709538 L 44.038837 66.67993 L 42.97798 66.67993 L 42.308823 67.34909 L 42.308823 68.59377 L 42.058 68.84469 z M 59.474937 50.950153 L 58.68123 50.156445 L 56.679775 50.156445 L 56.43926 50.396103 L 58.915733 50.396103 L 58.915733 50.950153 L 59.474937 50.950153 z M 55.26931 49.568035 L 54.80717 49.10504 L 54.61991 49.10504 L 54.61991 49.131668 L 54.183544 49.568035 L 55.26931 49.568035 z M 43.520863 42.13431 L 43.520863 41.482334 L 42.86975 41.482334 L 43.520863 42.13431 z " fill="#1a0900" fill-opacity="0.1" stroke-opacity="0.1"/>
<path d="M 32.794617 27.395697 L 32.794617 31.78343 C 32.794617 32.374416 33.276512 32.85631 33.86836 32.85631 L 46.02568 32.85631 L 48.082108 34.912743 L 50.140255 32.856316 L 62.301018 32.856316 C 62.89286 32.856316 63.373898 32.37442 63.373898 31.783434 L 63.373898 27.3957 C 63.374756 25.053226 32.794617 25.053226 32.794617 27.3957 z M 39.398552 30.32143 C 39.398552 30.725157 36.381767 30.725157 36.381767 30.32143 L 36.381767 28.767511 C 36.381767 28.363785 36.708187 28.03565 37.11277 28.03565 L 38.667545 28.03565 C 39.072132 28.03565 39.399406 28.363785 39.399406 28.767511 L 39.399406 30.32143 z M 59.456024 28.93158 L 42.14818 28.93158 L 42.14818 28.199718 L 59.456024 28.199718 L 59.456024 28.93158 z M 48.59578 37.84277 C 38.96046 37.84277 31.14878 45.65187 31.14878 55.28376 C 31.14878 64.922516 38.960457 72.73076 48.59578 72.73076 C 58.23282 72.73076 66.04106 64.922516 66.04106 55.28376 C 66.0402 45.651875 58.231956 37.842773 48.59578 37.842773 z M 64.004395 52.005844 L 64.13926 52.143284 C 64.20025 52.44393 64.23719 52.75231 64.279274 53.05725 L 63.61699 52.394108 L 64.004395 52.005844 z M 34.260914 59.597626 L 33.926765 59.936924 L 33.926765 61.29585 C 33.411377 60.04601 33.060047 58.71629 32.880516 57.33331 L 33.742947 58.19316 L 34.26006 58.19316 L 34.26006 59.597614 z M 36.994232 66.063255 C 36.50976 65.54185 36.05707 64.99295 35.645615 64.41055 L 36.10088 64.41055 L 36.994232 65.30305 L 36.994232 66.063255 z M 49.43417 52.74028 L 49.43417 57.085064 L 51.12209 58.77384 L 55.189415 58.77384 L 55.189415 60.5992 L 56.213333 61.62312 L 56.213333 68.43236 L 56.68492 68.90223 C 54.31238 70.3169 51.551582 71.14506 48.59407 71.14506 C 45.73448 71.14506 43.056145 70.37368 40.737724 69.04396 L 41.515972 68.26572 L 41.515972 67.02018 L 42.6507 65.88631 L 43.245037 65.88631 L 43.245037 63.381485 L 44.50432 62.122204 L 44.50432 60.917896 L 42.719418 60.917896 L 34.84847 57.70784 L 33.7816 57.70784 L 33.188896 57.114277 L 33.188896 55.674606 L 32.754246 55.674606 C 32.749947 55.5449 32.734486 55.41519 32.734486 55.28548 C 32.734486 54.10617 32.872784 52.961903 33.119312 51.85638 L 33.76699 51.85638 L 34.10286 52.188812 L 34.10286 52.99111 L 34.459343 52.99111 L 34.459343 51.469837 L 35.512463 50.416714 L 36.204815 50.416714 L 38.28186 48.33881 L 39.49639 48.33881 L 39.832256 48.009903 L 39.832256 46.95764 L 39.470707 46.95764 L 39.470707 46.68448 L 41.187836 46.68448 L 41.636143 46.23952 L 41.636143 45.92685 L 41.117397 45.408016 L 41.117397 43.98295 L 36.454784 45.103077 C 37.549057 43.799984 38.854725 42.687588 40.30728 41.79252 L 40.83814 42.322517 L 40.576145 42.58451 L 39.938854 42.58451 L 39.938854 42.946148 L 40.689533 43.691753 L 41.184315 43.691753 L 41.629272 43.248512 L 41.629272 42.7649 L 42.39034 42.7649 L 42.709023 42.44364 L 41.42569 41.161163 C 41.917892 40.910336 42.42384 40.68786 42.94353 40.48857 L 42.94353 40.69129 L 44.519783 40.69129 L 44.3162 42.2684 L 44.3162 44.18825 L 45.19409 44.18825 L 46.181934 43.20213 L 46.864834 43.20213 L 48.54932 41.52022 L 49.170372 41.52022 L 51.053284 39.640747 C 53.131187 39.966305 55.071564 40.691296 56.79986 41.742702 L 56.32578 41.742702 L 54.3123 43.753605 L 54.3123 44.689907 L 56.801662 44.47172 L 56.801662 43.41602 L 57.490578 42.727966 L 57.956062 42.727966 L 57.16931 43.514805 L 57.16931 44.135 L 58.289352 44.135 L 53.21279 46.695568 L 52.230103 46.695568 L 52.230103 47.15092 L 51.25944 48.423862 L 51.25944 49.80684 L 51.57804 50.127243 L 52.504036 50.127243 L 53.826885 48.803535 L 53.826885 48.31305 L 55.13513 48.31305 L 56.268143 49.44606 L 56.73801 48.97791 L 55.68746 47.924786 L 56.349747 47.924786 L 57.24997 48.82329 L 57.24997 49.364456 L 58.234375 49.364456 L 58.234375 49.00282 L 58.64944 49.00282 L 59.851173 50.205406 L 49.43417 52.740295 z M 59.535065 49.00282 L 59.1322 48.604244 L 59.145077 48.23144 L 59.7395 47.633583 L 61.166283 47.633583 L 62.142956 48.610256 L 62.142956 49.002815 L 59.535053 49.002815 z M 62.23401 63.336823 L 62.23401 61.09743 L 63.879837 59.451603 C 63.50274 60.830284 62.94783 62.134235 62.23401 63.336823 z M 63.01999 57.001755 L 60.988472 54.9668 L 60.988472 52.38209 L 61.556267 52.38209 L 61.556267 54.78727 L 63.13166 56.36352 L 64.238045 56.36352 L 64.40898 56.191723 C 64.3918 56.46145 64.38751 56.735462 64.357445 57.001755 L 63.019993 57.001755 z M 51.87628 46.00493 L 51.87628 45.785885 L 52.018013 45.64329 L 52.018013 45.30141 L 51.698467 45.30141 L 51.4004 45.5488 L 51.4004 45.77042 L 51.147858 46.02726 L 51.147858 46.301277 L 51.580788 46.301277 L 51.87628 46.004925 z M 52.582375 45.799625 L 52.44923 45.799625 L 52.169197 46.080517 L 52.169197 46.388035 L 53.13642 46.388035 L 53.404427 46.120888 L 53.404427 45.823677 L 52.69576 45.115868 L 52.88216 44.928608 L 52.88216 44.706127 L 52.401123 44.706127 L 52.638206 44.470848 L 52.288597 44.470848 L 52.05753 44.687313 L 52.05753 45.054016 L 52.582375 45.578003 L 52.582375 45.79962 z " fill="#1a0900" fill-opacity="0.15" stroke-opacity="0.15"/>
<linearGradient gradientUnits="userSpaceOnUse" x1="48.5933" x2="48.5933" y1="34.0947" y2="74.7104">
<stop offset="0" stop-color="#fafcef"/>
<stop offset="0.3232" stop-color="#fafcef"/>
<stop offset="1" stop-color="#d0cbc5"/>
</linearGradient>
<path d="M 33.875 24.59375 C 33.283154 24.59375 32.78125 25.094795 32.78125 25.6875 L 32.78125 30.0625 C 32.78125 30.653486 33.283154 31.125 33.875 31.125 L 46.03125 31.125 L 48.09375 33.1875 L 50.125 31.125 L 62.3125 31.125 C 62.904346 31.125 63.375 30.653486 63.375 30.0625 L 63.375 25.6875 C 63.375854 25.094795 62.904343 24.59375 62.3125 24.59375 L 33.875 24.59375 z M 37.125 26.3125 L 38.65625 26.3125 C 39.06084 26.3125 39.40625 26.658773 39.40625 27.0625 L 39.40625 28.59375 C 39.40625 28.997477 39.06084 29.34375 38.65625 29.34375 L 37.125 29.34375 C 36.720417 29.34375 36.375 28.997477 36.375 28.59375 L 36.375 27.0625 C 36.375 26.658773 36.720417 26.3125 37.125 26.3125 z M 42.15625 26.46875 L 59.46875 26.46875 L 59.46875 27.21875 L 42.15625 27.21875 L 42.15625 26.46875 z M 42.15625 27.9375 L 59.46875 27.9375 L 59.46875 28.6875 L 42.15625 28.6875 L 42.15625 27.9375 z M 48.59375 36.25 C 38.95843 36.25 31.15625 44.057335 31.15625 53.6875 C 31.15625 63.327976 38.95843 71.15625 48.59375 71.15625 C 58.23079 71.15625 66.03125 63.327972 66.03125 53.6875 C 66.03038 44.05733 58.229927 36.25 48.59375 36.25 z M 51.0625 38.0625 C 53.140404 38.388916 55.084206 39.10656 56.8125 40.15625 L 56.3125 40.15625 L 54.3125 42.15625 L 54.3125 43.09375 L 55.34375 43.09375 L 55.90625 43.625 L 56.4375 43.625 L 56.8125 43.28125 L 56.8125 41.84375 L 57.5 41.125 L 57.96875 41.125 L 57.15625 41.9375 L 57.15625 42.5625 L 58.28125 42.5625 L 58.28125 42.84375 L 57.125 44.03125 C 57.125 44.03125 55.468544 44.09396 55.53125 44.03125 C 55.593105 43.96769 55.3125 43.59375 55.3125 43.59375 L 54.71875 43.59375 L 53.21875 45.09375 L 52.21875 45.09375 L 52.21875 45.5625 L 52.6875 45.5625 L 52.6875 46.84375 L 51.25 46.84375 L 51.25 48.21875 L 51.5625 48.53125 L 52.5 48.53125 L 53.8125 47.21875 L 53.8125 46.71875 L 55.125 46.71875 L 56.28125 47.84375 L 56.75 47.375 L 55.6875 46.34375 L 56.34375 46.34375 L 57.25 47.25 L 57.25 47.78125 L 58.25 47.78125 L 58.25 47.40625 L 58.65625 47.40625 L 59.84375 48.625 L 60.875 48.625 L 60.875 49.53125 L 60.25 50.15625 L 58.125 50.15625 L 58.125 49.59375 L 55.5 49.59375 L 55.5 48.78125 L 51.8125 48.78125 L 49.4375 51.15625 L 49.4375 55.5 L 51.125 57.1875 L 55.1875 57.1875 L 55.1875 59.0 L 56.21875 60.03125 L 56.21875 66.84375 L 56.6875 67.3125 C 54.31496 68.7264 51.55126 69.5625 48.59375 69.5625 C 45.734165 69.5625 43.06842 68.79847 40.75 67.46875 L 41.53125 66.6875 L 41.53125 65.4375 L 42.65625 64.3125 L 43.25 64.3125 L 43.25 61.78125 L 44.5 60.53125 L 44.5 59.34375 L 42.71875 59.34375 L 42.125 58.75 L 42.125 58.15625 L 40.6875 58.15625 L 38.1875 55.65625 L 35.3125 55.65625 L 34.84375 56.125 L 33.78125 56.125 L 33.1875 55.53125 L 33.1875 54.09375 L 32.75 54.09375 C 32.7457 53.963184 32.75 53.819782 32.75 53.6875 C 32.75 52.509823 32.87847 51.38677 33.125 50.28125 L 33.78125 50.28125 L 34.09375 50.59375 L 34.09375 51.40625 L 34.46875 51.40625 L 34.46875 49.875 L 35.5 48.84375 L 36.21875 48.84375 L 38.28125 46.75 L 39.5 46.75 L 39.84375 46.4375 L 39.84375 45.375 L 39.46875 45.375 L 39.46875 45.09375 L 41.1875 45.09375 L 41.625 44.65625 L 41.625 44.34375 L 41.125 43.8125 L 41.125 42.40625 L 40.5625 42.96875 L 39.96875 42.96875 L 39.96875 42.15625 L 39.125 42.15625 L 38.46875 42.8125 L 38.125 42.8125 L 38.125 43.84375 L 37.1875 44.75 L 37.1875 43.90625 L 36.46875 43.90625 L 36.46875 43.5 C 37.563107 42.197765 38.859943 41.11382 40.3125 40.21875 L 40.84375 40.75 L 40.5625 41.0 L 39.9375 41.0 L 39.9375 41.375 L 40.6875 42.09375 L 41.1875 42.09375 L 41.625 41.65625 L 41.625 41.1875 L 42.375 41.1875 L 42.71875 40.84375 L 41.4375 39.5625 C 41.929703 39.311672 42.41781 39.10468 42.9375 38.90625 L 42.9375 39.09375 L 44.53125 39.09375 L 44.53125 40.21875 L 45.3125 40.21875 L 44.84375 40.6875 L 44.3125 40.6875 L 44.3125 42.59375 L 45.1875 42.59375 L 46.1875 41.625 L 46.875 41.625 L 48.5625 39.9375 L 49.15625 39.9375 L 51.0625 38.0625 z M 52.28125 42.875 L 52.0625 43.09375 L 52.0625 43.46875 L 52.59375 44.0 L 52.59375 44.21875 L 52.4375 44.21875 L 52.15625 44.5 L 52.15625 44.8125 L 53.125 44.8125 L 53.40625 44.53125 L 53.40625 44.25 L 52.6875 43.53125 L 52.875 43.34375 L 52.875 43.125 L 52.40625 43.125 L 52.625 42.875 L 52.28125 42.875 z M 51.6875 43.71875 L 51.40625 43.96875 L 51.40625 44.1875 L 51.15625 44.4375 L 51.15625 44.71875 L 51.59375 44.71875 L 51.875 44.40625 L 51.875 44.1875 L 52.03125 44.0625 L 52.03125 43.71875 L 51.6875 43.71875 z M 59.75 46.0625 L 61.15625 46.0625 L 62.15625 47.03125 L 62.15625 47.40625 L 59.53125 47.40625 L 59.125 47.03125 L 59.15625 46.65625 L 59.75 46.0625 z M 64.0 50.40625 L 64.125 50.5625 C 64.18599 50.86401 64.23917 51.16295 64.28125 51.46875 L 63.625 50.8125 L 64.0 50.40625 z M 61.0 50.78125 L 61.5625 50.78125 L 61.5625 53.1875 L 63.125 54.78125 L 64.25 54.78125 L 64.40625 54.59375 C 64.38907 54.863476 64.37382 55.139965 64.34375 55.40625 L 63.03125 55.40625 L 61.0 53.375 L 61.0 50.78125 z M 32.875 55.75 L 33.75 56.59375 L 34.25 56.59375 L 34.25 58.0 L 33.9375 58.34375 L 33.9375 59.71875 C 33.422962 58.469776 33.05453 57.133835 32.875 55.75 z M 63.875 57.875 C 63.497906 59.254543 62.93257 60.54655 62.21875 61.75 L 62.21875 59.5 L 63.875 57.875 z M 35.65625 62.8125 L 36.09375 62.8125 L 37.0 63.71875 L 37.0 64.46875 C 36.51553 63.9482 36.067703 63.395756 35.65625 62.8125 z " fill="url(#linearGradient3814)" fill-opacity="1"/>
<path d="M 33.875 24.59375 C 33.283154 24.59375 32.78125 25.094795 32.78125 25.6875 L 32.78125 30.0625 C 32.78125 30.653486 33.283154 31.125 33.875 31.125 L 46.03125 31.125 L 48.09375 33.1875 L 50.125 31.125 L 62.3125 31.125 C 62.904346 31.125 63.375 30.653486 63.375 30.0625 L 63.375 25.6875 C 63.375854 25.094795 62.904343 24.59375 62.3125 24.59375 L 33.875 24.59375 z M 37.125 26.3125 L 38.65625 26.3125 C 39.06084 26.3125 39.40625 26.658773 39.40625 27.0625 L 39.40625 28.59375 C 39.40625 28.997477 39.06084 29.34375 38.65625 29.34375 L 37.125 29.34375 C 36.720417 29.34375 36.375 28.997477 36.375 28.59375 L 36.375 27.0625 C 36.375 26.658773 36.720417 26.3125 37.125 26.3125 z M 42.15625 26.46875 L 59.46875 26.46875 L 59.46875 27.21875 L 42.15625 27.21875 L 42.15625 26.46875 z M 42.15625 27.9375 L 59.46875 27.9375 L 59.46875 28.6875 L 42.15625 28.6875 L 42.15625 27.9375 z M 48.59375 36.25 C 38.95843 36.25 31.15625 44.057335 31.15625 53.6875 C 31.15625 63.327976 38.95843 71.15625 48.59375 71.15625 C 58.23079 71.15625 66.03125 63.327972 66.03125 53.6875 C 66.03038 44.05733 58.229927 36.25 48.59375 36.25 z M 51.0625 38.0625 C 53.140404 38.388916 55.084206 39.10656 56.8125 40.15625 L 56.3125 40.15625 L 54.3125 42.15625 L 54.3125 43.09375 L 55.34375 43.09375 L 55.90625 43.625 L 56.4375 43.625 L 56.8125 43.28125 L 56.8125 41.84375 L 57.5 41.125 L 57.96875 41.125 L 57.15625 41.9375 L 57.15625 42.5625 L 58.28125 42.5625 L 58.28125 42.84375 L 57.125 44.03125 C 57.125 44.03125 55.468544 44.09396 55.53125 44.03125 C 55.593105 43.96769 55.3125 43.59375 55.3125 43.59375 L 54.71875 43.59375 L 53.21875 45.09375 L 52.21875 45.09375 L 52.21875 45.5625 L 52.6875 45.5625 L 52.6875 46.84375 L 51.25 46.84375 L 51.25 48.21875 L 51.5625 48.53125 L 52.5 48.53125 L 53.8125 47.21875 L 53.8125 46.71875 L 55.125 46.71875 L 56.28125 47.84375 L 56.75 47.375 L 55.6875 46.34375 L 56.34375 46.34375 L 57.25 47.25 L 57.25 47.78125 L 58.25 47.78125 L 58.25 47.40625 L 58.65625 47.40625 L 59.84375 48.625 L 60.875 48.625 L 60.875 49.53125 L 60.25 50.15625 L 58.125 50.15625 L 58.125 49.59375 L 55.5 49.59375 L 55.5 48.78125 L 51.8125 48.78125 L 49.4375 51.15625 L 49.4375 55.5 L 51.125 57.1875 L 55.1875 57.1875 L 55.1875 59.0 L 56.21875 60.03125 L 56.21875 66.84375 L 56.6875 67.3125 C 54.31496 68.7264 51.55126 69.5625 48.59375 69.5625 C 45.734165 69.5625 43.06842 68.79847 40.75 67.46875 L 41.53125 66.6875 L 41.53125 65.4375 L 42.65625 64.3125 L 43.25 64.3125 L 43.25 61.78125 L 44.5 60.53125 L 44.5 59.34375 L 42.71875 59.34375 L 42.125 58.75 L 42.125 58.15625 L 40.6875 58.15625 L 38.1875 55.65625 L 35.3125 55.65625 L 34.84375 56.125 L 33.78125 56.125 L 33.1875 55.53125 L 33.1875 54.09375 L 32.75 54.09375 C 32.7457 53.963184 32.75 53.819782 32.75 53.6875 C 32.75 52.509823 32.87847 51.38677 33.125 50.28125 L 33.78125 50.28125 L 34.09375 50.59375 L 34.09375 51.40625 L 34.46875 51.40625 L 34.46875 49.875 L 35.5 48.84375 L 36.21875 48.84375 L 38.28125 46.75 L 39.5 46.75 L 39.84375 46.4375 L 39.84375 45.375 L 39.46875 45.375 L 39.46875 45.09375 L 41.1875 45.09375 L 41.625 44.65625 L 41.625 44.34375 L 41.125 43.8125 L 41.125 42.40625 L 40.5625 42.96875 L 39.96875 42.96875 L 39.96875 42.15625 L 39.125 42.15625 L 38.46875 42.8125 L 38.125 42.8125 L 38.125 43.84375 L 37.1875 44.75 L 37.1875 43.90625 L 36.46875 43.90625 L 36.46875 43.5 C 37.563107 42.197765 38.859943 41.11382 40.3125 40.21875 L 40.84375 40.75 L 40.5625 41.0 L 39.9375 41.0 L 39.9375 41.375 L 40.6875 42.09375 L 41.1875 42.09375 L 41.625 41.65625 L 41.625 41.1875 L 42.375 41.1875 L 42.71875 40.84375 L 41.4375 39.5625 C 41.929703 39.311672 42.41781 39.10468 42.9375 38.90625 L 42.9375 39.09375 L 44.53125 39.09375 L 44.53125 40.21875 L 45.3125 40.21875 L 44.84375 40.6875 L 44.3125 40.6875 L 44.3125 42.59375 L 45.1875 42.59375 L 46.1875 41.625 L 46.875 41.625 L 48.5625 39.9375 L 49.15625 39.9375 L 51.0625 38.0625 z M 52.28125 42.875 L 52.0625 43.09375 L 52.0625 43.46875 L 52.59375 44.0 L 52.59375 44.21875 L 52.4375 44.21875 L 52.15625 44.5 L 52.15625 44.8125 L 53.125 44.8125 L 53.40625 44.53125 L 53.40625 44.25 L 52.6875 43.53125 L 52.875 43.34375 L 52.875 43.125 L 52.40625 43.125 L 52.625 42.875 L 52.28125 42.875 z M 51.6875 43.71875 L 51.40625 43.96875 L 51.40625 44.1875 L 51.15625 44.4375 L 51.15625 44.71875 L 51.59375 44.71875 L 51.875 44.40625 L 51.875 44.1875 L 52.03125 44.0625 L 52.03125 43.71875 L 51.6875 43.71875 z M 59.75 46.0625 L 61.15625 46.0625 L 62.15625 47.03125 L 62.15625 47.40625 L 59.53125 47.40625 L 59.125 47.03125 L 59.15625 46.65625 L 59.75 46.0625 z M 64.0 50.40625 L 64.125 50.5625 C 64.18599 50.86401 64.23917 51.16295 64.28125 51.46875 L 63.625 50.8125 L 64.0 50.40625 z M 61.0 50.78125 L 61.5625 50.78125 L 61.5625 53.1875 L 63.125 54.78125 L 64.25 54.78125 L 64.40625 54.59375 C 64.38907 54.863476 64.37382 55.139965 64.34375 55.40625 L 63.03125 55.40625 L 61.0 53.375 L 61.0 50.78125 z M 32.875 55.75 L 33.75 56.59375 L 34.25 56.59375 L 34.25 58.0 L 33.9375 58.34375 L 33.9375 59.71875 C 33.422962 58.469776 33.05453 57.133835 32.875 55.75 z M 63.875 57.875 C 63.497906 59.254543 62.93257 60.54655 62.21875 61.75 L 62.21875 59.5 L 63.875 57.875 z M 35.65625 62.8125 L 36.09375 62.8125 L 37.0 63.71875 L 37.0 64.46875 C 36.51553 63.9482 36.067703 63.395756 35.65625 62.8125 z " fill="url(#linearGradient3810)" fill-opacity="1"/>
</svg>
