<?xml version="1.0" encoding="UTF-8"?>
<svg xmlns="http://www.w3.org/2000/svg" xmlns:xlink="http://www.w3.org/1999/xlink" baseProfile="tiny" contentScriptType="text/ecmascript" contentStyleType="text/css" height="96" preserveAspectRatio="xMidYMid meet" version="1.1" viewBox="0 0 96 96" width="96" x="0" y="0" zoomAndPan="magnify">
<defs>
<linearGradient id="linearGradient3834">
<stop offset="0" stop-color="#ffffff" stop-opacity="1"/>
<stop offset="1" stop-color="#ffffff" stop-opacity="0.78431374"/>
</linearGradient>
<linearGradient>
<stop offset="0" stop-color="#3bb53f" stop-opacity="1"/>
<stop offset="1" stop-color="#3ba63f" stop-opacity="1"/>
</linearGradient>
<linearGradient gradientTransform="matrix(0,1,-1,0,95.1245,-0.1245)" gradientUnits="userSpaceOnUse" id="linearGradient3819" x1="7.624" x2="87.625" y1="47.5" y2="47.5">
<stop offset="0" stop-color="#3bb53f" stop-opacity="1"/>
<stop offset="1" stop-color="#3ba63f" stop-opacity="1"/>
</linearGradient>
<linearGradient gradientUnits="userSpaceOnUse" id="linearGradient3840" x1="47.010593" x2="47.010593" y1="28.531515" y2="64.029114">
<stop offset="0" stop-color="#ffffff" stop-opacity="1"/>
<stop offset="1" stop-color="#ffffff" stop-opacity="0.78431374"/>
</linearGradient>
<linearGradient gradientTransform="matrix(0,1,-1,0,95.1245,-0.1245)" gradientUnits="userSpaceOnUse" id="linearGradient3844" x1="47.010593" x2="47.010593" y1="28.531515" y2="64.029114">
<stop offset="0" stop-color="#3bb53f" stop-opacity="1"/>
<stop offset="1" stop-color="#3ba63f" stop-opacity="1"/>
</linearGradient>
</defs>
<path d="M 7.624 48.5 C 7.624 78.135 17.985 88.5 47.625 88.5 C 77.258 88.5 87.625 78.135 87.625 48.5 C 87.625 18.868 77.258 8.5 47.625 8.5 C 17.987 8.5 7.624 18.868 7.624 48.5 z " fill="#010101" fill-opacity="0.4"/>
<linearGradient gradientUnits="userSpaceOnUse" x1="47.6245" x2="47.6245" y1="7.5005" y2="87.5005">
<stop offset="0" stop-color="#72a742"/>
<stop offset="1" stop-color="#2a4d24"/>
</linearGradient>
<path d="M 47.6245 7.4995 C 17.9895 7.4995 7.6245008 17.8605 7.6245008 47.5005 C 7.6245008 77.1335 17.9895 87.5005 47.6245 87.5005 C 77.2565 87.5005 87.6245 77.13351 87.6245 47.500504 C 87.6245 17.862503 77.2565 7.499504 47.624496 7.499504 z " fill="url(#linearGradient3819)" fill-opacity="1"/>
<path d="M 26.861197 68.03831 C 25.566263 68.03831 24.512466 66.98451 24.512466 65.689575 L 24.512466 63.340843 C 24.512466 62.04669 25.56548 60.992897 26.85963 60.99211 L 26.85963 58.962807 C 26.85963 57.667873 27.91343 56.614075 29.208364 56.614075 L 33.125263 56.614075 C 33.175373 55.362984 34.208813 54.36164 35.471645 54.36164 L 36.13947 54.36164 L 36.13947 45.308067 C 36.13947 44.013138 37.193268 42.959335 38.488197 42.959335 L 43.969353 42.959335 C 44.57063 42.959335 45.118664 43.18638 45.53439 43.55826 L 45.53439 43.016487 C 45.53439 41.721554 46.588108 40.667755 47.88312 40.667755 L 48.781116 40.667755 L 48.781116 38.289276 C 48.781116 36.994343 49.834835 35.940544 51.12985 35.940544 L 51.913464 35.940544 C 53.208397 35.940544 54.262196 36.994343 54.262196 38.289276 L 54.262196 41.186043 C 54.68575 41.611942 54.92845 42.26333 54.92845 43.016487 L 54.92845 44.52515 L 55.828014 44.52515 C 57.122948 44.52515 58.176743 45.578953 58.176743 46.873886 L 58.176743 50.447872 L 62.089733 50.447872 C 63.384663 50.447872 64.43846 51.50167 64.43846 52.796604 L 64.43846 59.842796 L 66.78719 59.842796 C 67.69302 59.842796 68.48454 60.300014 68.87521 60.99289 C 68.98248 60.99289 69.1367 60.99289 69.1367 60.99289 C 70.43163 60.99289 71.48544 62.046688 71.48544 63.34162 L 71.48544 65.69035 C 71.48544 66.98529 70.43164 68.039085 69.1367 68.039085 L 26.861197 68.039085 z " fill="#010101" fill-opacity="0.05"/>
<path d="M 26.861197 67.255394 C 25.997646 67.255394 25.295376 66.55312 25.295376 65.689575 L 25.295376 63.340843 C 25.295376 62.477295 25.997646 61.775024 26.861197 61.775024 L 27.642542 61.775024 L 27.642542 58.96281 C 27.642542 58.099262 28.344812 57.39699 29.208364 57.39699 L 33.905823 57.39699 L 33.905823 56.71038 C 33.905823 55.846832 34.608093 55.14456 35.47164 55.14456 L 36.922375 55.14456 L 36.922375 45.308075 C 36.922375 44.444527 37.624645 43.742256 38.488194 43.742256 L 43.96935 43.742256 C 44.832897 43.742256 45.53517 44.444527 45.53517 45.308075 L 45.53517 51.23079 L 46.3173 51.23079 L 46.3173 43.015713 C 46.3173 42.152164 47.01957 41.449898 47.88312 41.449898 L 49.564026 41.449898 L 49.564026 38.2885 C 49.564026 37.424953 50.266296 36.722683 51.129845 36.722683 L 51.913536 36.722683 C 52.777008 36.722683 53.47936 37.424953 53.47936 38.2885 L 53.47936 41.449898 C 53.47936 41.49452 53.48246 41.534443 53.48636 41.56811 C 53.889557 41.794373 54.14557 42.327538 54.14557 43.015713 L 54.14557 45.308075 L 55.82804 45.308075 C 56.69159 45.308075 57.393864 46.010345 57.393864 46.873898 L 57.393864 51.230793 L 62.08976 51.230793 C 62.95331 51.230793 63.65558 51.933064 63.65558 52.796616 L 63.65558 60.625717 L 66.78722 60.625717 C 67.58344 60.625717 68.22308 61.115814 68.335815 61.77503 C 68.34132 61.77581 69.136734 61.77581 69.136734 61.77581 C 70.00028 61.77581 70.70255 62.47808 70.70255 63.34163 L 70.70255 65.69036 C 70.70255 66.55391 70.00028 67.25618 69.136734 67.25618 L 26.861223 67.25618 z " fill="#010101" fill-opacity="0.05"/>
<path d="M 26.861197 66.47248 C 26.430595 66.47248 26.078287 66.12017 26.078287 65.68957 L 26.078287 63.340836 C 26.078287 62.910236 26.430595 62.557926 26.861197 62.557926 L 27.642542 62.557926 C 28.07314 62.557926 28.425451 62.205616 28.425451 61.775017 L 28.425451 58.962803 C 28.425451 58.532204 28.77776 58.179893 29.20836 58.179893 L 33.905823 58.179893 C 34.336426 58.179893 34.688732 58.532204 34.688732 58.962803 L 34.688732 61.775017 C 34.688732 62.205616 34.688732 62.205616 34.688732 61.775017 L 34.688732 56.71037 C 34.688732 56.27977 35.04104 55.92746 35.47164 55.92746 L 36.922375 55.92746 C 37.352978 55.92746 37.705284 55.57515 37.705284 55.14455 L 37.705284 45.308067 C 37.705284 44.87747 38.05759 44.52516 38.488194 44.52516 L 43.96935 44.52516 C 44.39995 44.52516 44.75226 44.87747 44.75226 45.308067 L 44.75226 51.23078 C 44.75226 51.66138 45.10457 52.01369 45.535168 52.01369 L 46.317295 52.01369 C 46.747894 52.01369 47.100204 52.366 47.100204 52.7966 L 47.100204 61.7758 C 47.100204 62.2064 47.100204 62.2064 47.100204 61.7758 L 47.100204 43.0157 C 47.100204 42.585106 47.452515 42.23279 47.883114 42.23279 L 49.564026 42.23279 C 49.99462 42.23279 50.34693 41.88048 50.34693 41.449883 L 50.34693 38.28849 C 50.34693 37.85789 50.69924 37.50558 51.12984 37.50558 L 51.913532 37.50558 C 52.344055 37.50558 52.69644 37.85789 52.69644 38.28849 L 52.69644 41.449883 C 52.69644 41.88048 52.845898 42.23279 53.0291 42.23279 C 53.2123 42.23279 53.362617 42.585106 53.362617 43.0157 L 53.362617 45.308064 C 53.362617 45.738663 53.714928 46.090973 54.145527 46.090973 L 55.828 46.090973 C 56.2586 46.090973 56.61091 46.443283 56.61091 46.87388 L 56.61091 51.230778 C 56.61091 51.661377 56.96322 52.013687 57.393818 52.013687 L 62.08971 52.013687 C 62.520313 52.013687 62.872623 52.365997 62.872623 52.796597 L 62.872623 61.775795 C 62.872623 62.20639 62.872623 62.300343 62.872623 61.98405 C 62.872623 61.667755 63.224937 61.409393 63.655533 61.409393 L 66.78717 61.409393 C 67.21777 61.409393 67.57008 61.667755 67.57008 61.98405 C 67.57008 62.300343 67.92239 62.55871 68.353 62.55871 L 69.13669 62.55871 C 69.56729 62.55871 69.9196 62.91102 69.9196 63.341618 L 69.9196 65.690346 C 69.9196 66.12095 69.56729 66.47326 69.13669 66.47326 L 26.86118 66.47326 z " fill="#010101" fill-opacity="0.1"/>
<polygon fill="#010101" fill-opacity="0.1" points="71.997,66.265 67.997,66.265 67.997,67.733 65.997,67.733 65.997,54.265 59.997,54.265 59.997,67.733 57.999,67.733 57.999,46.7 53.85,46.7 53.85,41.772 52.999,41.772 52.999,35.734 51.998,35.734 51.998,41.772 47.851,41.772 47.851,67.733 45.851,67.733 45.851,54.265 42.852,54.265 42.852,44.7 35.851,44.7 35.851,59.265 31.998,59.265 31.998,67.733 29.998,67.733 29.998,62.142 23.998,62.142 23.998,67.733 21,67.733 21,70.733 74.998,70.733 74.998,67.733 71.997,67.733 " stroke-opacity="0.1" transform="matrix(0.78291026,0,0,0.78291026,10.42008,10.31198)"/>
<linearGradient gradientUnits="userSpaceOnUse" x1="47.9985" x2="47.9985" y1="33.7339" y2="68.7339">
<stop offset="0" stop-color="#f6faec"/>
<stop offset="0.3232" stop-color="#f6faec"/>
<stop offset="1" stop-color="#d5cbc4"/>
</linearGradient>
<path d="M 47.998207 40.53075 C 47.16128 40.53075 46.37445 40.20506 45.784138 39.614742 L 44.822723 38.65333 L 33.565254 38.654114 C 32.80818 38.654114 31.797443 38.43803 31.106918 38.12878 C 30.199526 37.720886 29.285086 36.644382 29.285086 35.157635 L 29.285086 31.243084 C 29.285086 30.488358 29.500387 29.478403 29.808851 28.787094 C 30.2144 27.878918 31.2909 26.962914 32.782345 26.962914 L 63.215633 26.962914 C 65.14394 26.962914 66.71211 28.531866 66.71211 30.460176 L 66.71211 34.374725 C 66.71211 35.12945 66.49681 36.139404 66.18835 36.830715 C 65.7828 37.73889 64.70708 38.654896 63.215637 38.654896 L 51.170563 38.654896 L 50.213062 39.614742 C 49.62275 40.205055 48.83592 40.530743 47.99821 40.530743 L 47.99821 40.530743 z M 45.01454 33.95665 C 46.058945 33.95665 47.25523 34.449883 47.998997 35.185036 C 48.741978 34.449883 49.938267 33.95665 50.982662 33.95665 L 62.01622 33.95665 L 62.01622 31.660374 L 33.983337 31.660374 L 33.983337 33.95665 L 45.01454 33.95665 z " fill="#010101" fill-opacity="0.02000002"/>
<path d="M 47.998207 39.74784 C 47.37031 39.74784 46.78 39.503574 46.337654 39.06123 L 45.243927 37.96672 C 45.210262 37.94402 45.055244 37.87982 44.990265 37.870422 L 33.566116 37.871204 C 32.918648 37.871204 32.019085 37.678608 31.428772 37.413982 C 30.752337 37.109436 30.06964 36.293644 30.06964 35.156857 L 30.06964 31.242306 C 30.06964 30.59562 30.261452 29.69684 30.525215 29.105743 C 30.82742 28.428526 31.643211 27.745045 32.783913 27.745045 L 63.2172 27.745045 C 64.71334 27.745045 65.93077 28.96247 65.93077 30.459394 L 65.93077 34.373947 C 65.93077 35.02063 65.73896 35.91941 65.47512 36.51051 C 65.173 37.187725 64.35799 37.87121 63.21721 37.87121 L 50.981888 37.87121 C 50.94196 37.87821 50.787727 37.94246 50.736053 37.98238 L 49.659554 39.060448 C 49.21721 39.503574 48.62768 39.74784 47.99822 39.74784 L 47.99822 39.74784 z M 33.20042 34.696503 C 33.336647 34.721554 33.473656 34.739563 33.56604 34.739563 L 45.014538 34.739563 C 45.85773 34.739563 46.8622 35.15607 47.457996 35.751865 L 47.998203 36.292072 L 48.53763 35.752647 C 49.133347 35.15607 50.137897 34.739563 50.981014 34.739563 L 62.754417 34.739563 C 62.778687 34.603336 62.79748 34.466328 62.79748 34.373943 L 62.79748 30.877466 L 33.242615 30.877466 C 33.218346 31.013693 33.199554 31.150702 33.199554 31.243086 L 33.199554 34.696503 z " fill="#010101" fill-opacity="0.05"/>
<path d="M 47.998207 38.964928 C 47.57935 38.964928 47.18633 38.80208 46.89117 38.50771 L 45.797447 37.4132 C 45.64016 37.255836 45.237667 37.089077 45.014538 37.089077 L 33.565254 37.089077 C 33.024265 37.089077 32.242924 36.92232 31.748123 36.69997 C 31.414602 36.55043 30.850908 36.0572 30.850908 35.15764 L 30.850908 31.243088 C 30.850908 30.701311 31.017668 29.920752 31.23845 29.425953 C 31.38642 29.093294 31.879654 28.528738 32.78235 28.528738 L 63.215637 28.528738 C 64.27961 28.528738 65.14629 29.394636 65.14629 30.460176 L 65.14629 34.37473 C 65.14629 34.916504 64.97953 35.697063 64.75875 36.191864 C 64.61078 36.5246 64.11833 37.08908 63.215633 37.08908 L 50.981876 37.08908 C 50.758747 37.08908 50.35633 37.25584 50.19975 37.413204 L 49.10602 38.507713 C 48.810863 38.80209 48.41706 38.96493 47.998203 38.96493 L 47.998203 38.96493 z M 32.782345 30.094557 C 32.689175 30.094557 32.644554 30.115696 32.634377 30.127438 C 32.537296 30.35918 32.41751 30.921309 32.41751 31.243084 L 32.41751 35.157635 C 32.41751 35.250805 32.438652 35.294643 32.45039 35.30482 C 32.682915 35.40268 33.244263 35.523254 33.566036 35.523254 L 45.014538 35.523254 C 45.65574 35.523254 46.451176 35.852077 46.90448 36.306164 L 47.998203 37.400673 L 47.998203 37.39989 C 47.99891 37.39989 47.9998 37.39989 47.9998 37.39989 L 49.091885 36.30695 C 49.54519 35.852863 50.339844 35.52404 50.98183 35.52404 L 63.21637 35.52404 C 63.30954 35.52404 63.35338 35.5029 63.363556 35.49116 C 63.460636 35.25942 63.58042 34.69729 63.58042 34.375515 L 63.58042 30.460962 C 63.58042 30.259754 63.416794 30.095345 63.215584 30.095345 L 32.78237 30.095345 L 32.78237 30.09456 z " fill="#010101" fill-opacity="0.05"/>
<path d="M 63.216415 29.311646 L 32.78234 29.311646 C 32.146618 29.311646 31.95324 29.745377 31.95324 29.745377 C 31.777086 30.138395 31.633812 30.812485 31.633812 31.243084 L 31.633812 35.157635 C 31.633812 35.791008 32.06833 35.98595 32.06833 35.98595 C 32.46135 36.16211 33.13465 36.306164 33.565254 36.306164 L 45.01375 36.306164 C 45.444347 36.306164 46.045624 36.55513 46.350178 36.85968 L 47.443905 37.95411 C 47.748455 38.25866 48.246307 38.25866 48.55086 37.95411 L 49.643803 36.860462 C 49.948353 36.555912 50.54963 36.30616 50.980232 36.30616 L 63.21477 36.30616 C 63.849712 36.30616 64.04309 35.87243 64.04309 35.87243 C 64.219246 35.47941 64.36252 34.80532 64.36252 34.37472 L 64.36252 30.460169 C 64.36338 29.82523 63.850574 29.31164 63.216415 29.31164 " fill="#010101" fill-opacity="0.1"/>
<path d="M 63.216415 30.094557 L 32.78234 30.094557 C 32.146618 30.094557 31.633812 30.608149 31.633812 31.243088 L 31.633812 35.940548 C 31.633812 36.57392 32.146618 37.089077 32.78234 37.089077 L 45.79666 37.089077 L 47.998203 39.291405 L 50.198963 37.089077 L 63.21641 37.089077 C 63.851273 37.089077 64.36416 36.57392 64.36416 35.940548 L 64.36416 31.243088 C 64.36337 30.608149 63.85057 30.09456 63.21641 30.09456 " fill="#010101" fill-opacity="0.1" stroke-opacity="0.1"/>
<path d="M 32.78125 28.53125 C 32.145527 28.53125 31.625 29.05256 31.625 29.6875 L 31.625 34.375 C 31.625 35.008377 32.145527 35.53125 32.78125 35.53125 L 45.78125 35.53125 L 48.0 37.71875 L 50.1875 35.53125 L 63.21875 35.53125 C 63.85361 35.53125 64.375 35.008377 64.375 34.375 L 64.375 29.6875 C 64.37421 29.05256 63.85291 28.53125 63.21875 28.53125 L 32.78125 28.53125 z M 51.125 36.71875 L 51.125 41.4375 L 47.875 41.4375 L 47.875 61.78125 L 46.3125 61.78125 L 46.3125 51.21875 L 43.96875 51.21875 L 43.96875 43.75 L 38.5 43.75 L 38.5 55.15625 L 35.46875 55.15625 L 35.46875 61.78125 L 33.90625 61.78125 L 33.90625 57.40625 L 29.21875 57.40625 L 29.21875 61.78125 L 26.875 61.78125 L 26.875 64.125 L 69.125 64.125 L 69.125 61.78125 L 66.78125 61.78125 L 66.78125 60.625 L 63.65625 60.625 L 63.65625 61.78125 L 62.09375 61.78125 L 62.09375 51.21875 L 57.40625 51.21875 L 57.40625 61.78125 L 55.8125 61.78125 L 55.8125 45.3125 L 52.59375 45.3125 L 52.59375 41.4375 L 51.90625 41.4375 L 51.90625 36.71875 L 51.125 36.71875 z " fill="url(#linearGradient3844)" fill-opacity="1"/>
<path d="M 32.78125 28.53125 C 32.145527 28.53125 31.625 29.05256 31.625 29.6875 L 31.625 34.375 C 31.625 35.008377 32.145527 35.53125 32.78125 35.53125 L 45.78125 35.53125 L 48.0 37.71875 L 50.1875 35.53125 L 63.21875 35.53125 C 63.85361 35.53125 64.375 35.008377 64.375 34.375 L 64.375 29.6875 C 64.37421 29.05256 63.85291 28.53125 63.21875 28.53125 L 32.78125 28.53125 z M 51.125 36.71875 L 51.125 41.4375 L 47.875 41.4375 L 47.875 61.78125 L 46.3125 61.78125 L 46.3125 51.21875 L 43.96875 51.21875 L 43.96875 43.75 L 38.5 43.75 L 38.5 55.15625 L 35.46875 55.15625 L 35.46875 61.78125 L 33.90625 61.78125 L 33.90625 57.40625 L 29.21875 57.40625 L 29.21875 61.78125 L 26.875 61.78125 L 26.875 64.125 L 69.125 64.125 L 69.125 61.78125 L 66.78125 61.78125 L 66.78125 60.625 L 63.65625 60.625 L 63.65625 61.78125 L 62.09375 61.78125 L 62.09375 51.21875 L 57.40625 51.21875 L 57.40625 61.78125 L 55.8125 61.78125 L 55.8125 45.3125 L 52.59375 45.3125 L 52.59375 41.4375 L 51.90625 41.4375 L 51.90625 36.71875 L 51.125 36.71875 z " fill="url(#linearGradient3840)" fill-opacity="1"/>
<g fill="#3ba63f" fill-opacity="1" transform="matrix(0.78291026,0,0,0.78291026,10.42008,10.31198)">
<defs>
<path d="M 32.998 25.609 C 32.446003 25.609 31.998 26.057 31.998 26.609 L 31.998 28.734 C 31.998 29.287 32.446003 29.734 32.998 29.734 L 35.123 29.734 C 35.678 29.734 36.125 29.287 36.125 28.734 L 36.125 26.609 C 36.125 26.057 35.678 25.609 35.123 25.609 L 32.998 25.609 z "/>
</defs>
<linearGradient gradientTransform="matrix(0,4.125,4.125,0,-2619.3828,2462.0156)" gradientUnits="userSpaceOnUse" x1="-590.64362" x2="-589.64362" y1="643.25983" y2="643.25983">
<stop offset="0" stop-color="#649c41"/>
<stop offset="1" stop-color="#518c3f"/>
</linearGradient>
<rect fill="#3ba63f" fill-opacity="1" height="4.125" width="4.1269999" x="31.997999" y="25.608999"/>
</g>
<rect fill="#bcbdc0" height="0.78291023" width="18.524439" x="41.64489" y="30.537683"/>
<rect fill="#bcbdc0" height="0.78291023" width="18.524439" x="41.64489" y="32.102722"/>
<rect fill="none" height="96" width="96"/>
</svg>
