<?xml version="1.0" encoding="UTF-8"?>
<svg xmlns="http://www.w3.org/2000/svg" xmlns:xlink="http://www.w3.org/1999/xlink" baseProfile="tiny" contentScriptType="text/ecmascript" contentStyleType="text/css" height="96px" preserveAspectRatio="xMidYMid meet" version="1.1" viewBox="0 0 96 96" width="96px" x="0px" y="0px" zoomAndPan="magnify">
<defs>
<linearGradient gradientTransform="matrix(1.0515857,0,0,1.01708,-253.45339,-715.60427)" gradientUnits="userSpaceOnUse" x1="254.83009" x2="358.8096" y1="763.97272" y2="763.97272">
<stop offset="0" stop-color="#f7f8f9"/>
<stop offset="1" stop-color="#d0d1d2"/>
</linearGradient>
<linearGradient gradientTransform="matrix(0.7261569,0,0,0.74770351,-174.61605,-527.27145)" gradientUnits="userSpaceOnUse" x1="254.83009" x2="358.8096" y1="763.97272" y2="763.97272">
<stop offset="0" stop-color="#f7f8f9"/>
<stop offset="1" stop-color="#d0d1d2"/>
</linearGradient>
<linearGradient gradientTransform="matrix(1,0,0,-1,-1.3115644,98.868328)" gradientUnits="userSpaceOnUse" x1="61.075901" x2="34.694302" y1="57.299801" y2="41.540901">
<stop offset="0" stop-color="#ffffff"/>
<stop offset="1" stop-color="#ffffff" stop-opacity="0.2"/>
</linearGradient>
<linearGradient gradientTransform="matrix(1,0,0,-1,1.0534719,96.841079)" gradientUnits="userSpaceOnUse" x1="61.075901" x2="34.694302" y1="57.299801" y2="41.540901">
<stop offset="0" stop-color="#ffffff"/>
<stop offset="1" stop-color="#ffffff" stop-opacity="0.2"/>
</linearGradient>
<linearGradient gradientTransform="matrix(1,0,0,-1,-2.4150126,95.9258)" gradientUnits="userSpaceOnUse" x1="34.720501" x2="60.039902" y1="56.8027" y2="41.976002">
<stop offset="0" stop-color="#ffffff"/>
<stop offset="1" stop-color="#ffffff" stop-opacity="0.2"/>
</linearGradient>
<linearGradient gradientTransform="matrix(1,0,0,-1,-2.5350845,97.20939)" gradientUnits="userSpaceOnUse" x1="34.720501" x2="60.039902" y1="56.8027" y2="41.976002">
<stop offset="0" stop-color="#ffffff"/>
<stop offset="1" stop-color="#ffffff" stop-opacity="0.2"/>
</linearGradient>
<linearGradient gradientTransform="matrix(1,0,0,-1,0.1597,95.9258)" gradientUnits="userSpaceOnUse" x1="63.148201" x2="61.403599" y1="26.3545" y2="22.778099">
<stop offset="0" stop-color="#ffffff"/>
<stop offset="1" stop-color="#a3a3a3"/>
</linearGradient>
<linearGradient gradientTransform="matrix(1,0,0,-1,0.1597,95.9258)" gradientUnits="userSpaceOnUse" x1="63.148201" x2="61.403599" y1="26.3545" y2="22.778099">
<stop offset="0" stop-color="#ffffff"/>
<stop offset="1" stop-color="#a3a3a3"/>
</linearGradient>
<linearGradient gradientTransform="matrix(1,0,0,-1,0.1597,95.9258)" gradientUnits="userSpaceOnUse" x1="62.543701" x2="64.113503" y1="40.8223" y2="37.072102">
<stop offset="0" stop-color="#ffffff"/>
<stop offset="1" stop-color="#a3a3a3"/>
</linearGradient>
<linearGradient gradientTransform="matrix(1,0,0,-1,0.1597,95.9258)" gradientUnits="userSpaceOnUse" x1="62.543701" x2="64.113503" y1="40.8223" y2="37.072102">
<stop offset="0" stop-color="#ffffff"/>
<stop offset="1" stop-color="#a3a3a3"/>
</linearGradient>
<linearGradient gradientTransform="matrix(1,0,0,-1,0.1597,95.9258)" gradientUnits="userSpaceOnUse" x1="45.003201" x2="45.003201" y1="40.209" y2="23.3596">
<stop offset="0" stop-color="#c2de91"/>
<stop offset="1" stop-color="#7b9e56"/>
</linearGradient>
<linearGradient gradientTransform="matrix(1,0,0,-1,0.1597,95.9258)" gradientUnits="userSpaceOnUse" x1="45.003201" x2="45.003201" y1="40.209" y2="23.3596">
<stop offset="0" stop-color="#c2de91"/>
<stop offset="1" stop-color="#7b9e56"/>
</linearGradient>
<linearGradient gradientTransform="matrix(1,0,0,-1,0.1597,95.9258)" gradientUnits="userSpaceOnUse" x1="45.003201" x2="45.003201" y1="40.209" y2="23.3596">
<stop offset="0" stop-color="#c2de91"/>
<stop offset="1" stop-color="#7b9e56"/>
</linearGradient>
<linearGradient gradientTransform="matrix(1,0,0,-1,0.1597,95.9258)" gradientUnits="userSpaceOnUse" x1="45.003201" x2="45.003201" y1="40.209" y2="23.3596">
<stop offset="0" stop-color="#c2de91"/>
<stop offset="1" stop-color="#7b9e56"/>
</linearGradient>
<linearGradient gradientTransform="matrix(1,0,0,-1,0.1597,95.9258)" gradientUnits="userSpaceOnUse" x1="45.003201" x2="45.003201" y1="40.209" y2="23.3596">
<stop offset="0" stop-color="#c2de91"/>
<stop offset="1" stop-color="#7b9e56"/>
</linearGradient>
<linearGradient gradientTransform="matrix(1,0,0,-1,0.1597,95.9258)" gradientUnits="userSpaceOnUse" x1="45.003201" x2="45.003201" y1="40.209" y2="23.3596">
<stop offset="0" stop-color="#c2de91"/>
<stop offset="1" stop-color="#7b9e56"/>
</linearGradient>
<linearGradient gradientTransform="matrix(1,0,0,-1,8.6194701,63.557984)" gradientUnits="userSpaceOnUse" x1="82.677498" x2="82.677498" y1="37.415001" y2="54.1577">
<stop offset="0" stop-color="#ffffff" stop-opacity="0.3"/>
<stop offset="1" stop-color="#ffffff"/>
</linearGradient>
<linearGradient gradientTransform="matrix(1,0,0,-1,-53.620329,92.86676)" gradientUnits="userSpaceOnUse" x1="82.677498" x2="82.677498" y1="37.415001" y2="54.1577">
<stop offset="0" stop-color="#ffffff" stop-opacity="0.3"/>
<stop offset="1" stop-color="#ffffff"/>
</linearGradient>
<linearGradient gradientTransform="matrix(1,0,0,-1,8.6194701,63.557984)" gradientUnits="userSpaceOnUse" x1="82.677498" x2="82.677498" y1="37.415001" y2="54.1577">
<stop offset="0" stop-color="#ffffff" stop-opacity="0.3"/>
<stop offset="1" stop-color="#ffffff"/>
</linearGradient>
<linearGradient gradientTransform="matrix(1,0,0,-1,-15.367455,78.154116)" gradientUnits="userSpaceOnUse" x1="82.677498" x2="82.677498" y1="37.415001" y2="54.1577">
<stop offset="0" stop-color="#ffffff" stop-opacity="0.3"/>
<stop offset="1" stop-color="#ffffff"/>
</linearGradient>
<linearGradient gradientTransform="matrix(1,0,0,-1,8.6194701,63.557984)" gradientUnits="userSpaceOnUse" x1="82.677498" x2="82.677498" y1="37.415001" y2="54.1577">
<stop offset="0" stop-color="#ffffff" stop-opacity="0.3"/>
<stop offset="1" stop-color="#ffffff"/>
</linearGradient>
<linearGradient gradientTransform="matrix(1,0,0,-1,-18.309984,107.94722)" gradientUnits="userSpaceOnUse" x1="82.677498" x2="82.677498" y1="37.415001" y2="54.1577">
<stop offset="0" stop-color="#ffffff" stop-opacity="0.3"/>
<stop offset="1" stop-color="#ffffff"/>
</linearGradient>
<linearGradient gradientTransform="matrix(1,0,0,-1,-522.1955,-1852.3818)" gradientUnits="userSpaceOnUse" x1="583.35553" x2="583.35553" y1="-1882.4854" y2="-1937.2727">
<stop offset="0" stop-color="#00d6ff"/>
<stop offset="1" stop-color="#0018b5"/>
</linearGradient>
<linearGradient gradientTransform="translate(-477.2339,-1117.8276)" gradientUnits="userSpaceOnUse" x1="555.01367" x2="555.01367" y1="1171.4385" y2="1228.9087">
<stop offset="0" stop-color="#fffa00"/>
<stop offset="1" stop-color="#de8100"/>
</linearGradient>
<linearGradient gradientTransform="translate(-235.2038,-700.6904)" gradientUnits="userSpaceOnUse" x1="313.0459" x2="313.0459" y1="779.55469" y2="752.1969">
<stop offset="0" stop-color="#fffa57"/>
<stop offset="1" stop-color="#ffffab"/>
</linearGradient>
<linearGradient gradientTransform="translate(-235.2038,-700.6904)" gradientUnits="userSpaceOnUse" x1="297.07031" x2="297.07031" y1="761.16699" y2="740.30371">
<stop offset="0" stop-color="#3a9cce"/>
<stop offset="1" stop-color="#b0d0ff"/>
</linearGradient>
<linearGradient gradientTransform="translate(-235.2038,-700.6904)" gradientUnits="userSpaceOnUse" x1="297.07031" x2="297.07031" y1="761.16699" y2="740.30371">
<stop offset="0" stop-color="#3a9cce"/>
<stop offset="1" stop-color="#b0d0ff"/>
</linearGradient>
</defs>
<path d="M 88.0 49.0 C 88.0 78.633 77.637 89.0 48.0 89.0 C 18.365 89.0 8.0 78.633 8.0 49.0 C 8.0 19.365 18.365 9.0 48.0 9.0 C 77.637 9.0 88.0 19.365 88.0 49.0 z " fill-opacity="0.4"/>
<linearGradient gradientUnits="userSpaceOnUse" id="SVGID_1_" x1="47.9995" x2="47.9995" y1="8" y2="88.0005">
<stop offset="0" stop-color="#f6f8f9" stop-opacity="1"/>
<stop offset="1" stop-color="#d2dade" stop-opacity="1"/>
</linearGradient>
<path d="M 88.0 48.0 C 88.0 77.633 77.637 88.0 48.0 88.0 C 18.365 88.0 8.0 77.633 8.0 48.0 C 8.0 18.365 18.365 8.0 48.0 8.0 C 77.637 8.0 88.0 18.365 88.0 48.0 z " fill="url(#SVGID_1_)"/>
<rect fill="none" height="96" width="96"/>
<linearGradient gradientTransform="translate(0.40677966,-0.40677966)" gradientUnits="userSpaceOnUse" id="SVGID_2_" x1="47.9995" x2="47.9995" y1="8.2534" y2="87.4985">
<stop offset="0" stop-color="#ffffff"/>
<stop offset="1" stop-color="#ffffff" stop-opacity="0"/>
</linearGradient>
<path d="M 48.40678 7.5932207 C 18.77178 7.5932207 8.40678 17.95822 8.40678 47.59322 C 8.40678 77.22622 18.77178 87.593216 48.40678 87.593216 C 78.04378 87.593216 88.406784 77.22622 88.406784 47.593216 C 88.406784 17.958216 78.043785 7.593216 48.406784 7.593216 z M 48.406784 86.593216 C 19.248783 86.593216 9.406784 76.75121 9.406784 47.593216 C 9.406784 18.43522 19.248783 8.593216 48.406784 8.593216 C 77.56479 8.593216 87.406784 18.435217 87.406784 47.593216 C 87.406784 76.75122 77.56478 86.593216 48.406784 86.593216 z " fill="url(#SVGID_2_)" fill-opacity="0.25" stroke-opacity="0.25"/>
<linearGradient gradientTransform="matrix(0.7071 -0.7071 0.7071 0.7071 -208.9813 3059.7412)" gradientUnits="userSpaceOnUse" x1="2309.3584" x2="2344.3584" y1="-1947.9287" y2="-1947.9287">
<stop offset="0" stop-color="#58595b"/>
<stop offset="1" stop-color="#000000"/>
</linearGradient>
<linearGradient gradientTransform="matrix(0.7071 -0.7071 0.7071 0.7071 -208.9813 3059.7412)" gradientUnits="userSpaceOnUse" x1="2309.3584" x2="2313.3604" y1="-1957.9277" y2="-1957.9277">
<stop offset="0" stop-color="#58595b"/>
<stop offset="1" stop-color="#000000"/>
</linearGradient>
<linearGradient gradientUnits="userSpaceOnUse" x1="54.292" x2="59.292" y1="10.3501" y2="38.934">
<stop offset="0" stop-color="#58595b"/>
<stop offset="1" stop-color="#000000"/>
</linearGradient>
<linearGradient gradientUnits="userSpaceOnUse" x1="32.5508" x2="42.1758" y1="12.6343" y2="45.1342">
<stop offset="0" stop-color="#58595b"/>
<stop offset="1" stop-color="#000000"/>
</linearGradient>
<linearGradient gradientUnits="userSpaceOnUse" x1="57.1484" x2="60.063" y1="35.2275" y2="38.1421">
<stop offset="0" stop-color="#ffffff"/>
<stop offset="0.7362" stop-color="#ffffff" stop-opacity="0"/>
<stop offset="1" stop-color="#ffffff" stop-opacity="0"/>
</linearGradient>
<linearGradient gradientUnits="userSpaceOnUse" x1="44.6177" x2="38.0733" y1="37.2412" y2="43.7856">
<stop offset="0" stop-color="#ffffff"/>
<stop offset="0.7362" stop-color="#ffffff" stop-opacity="0"/>
<stop offset="1" stop-color="#ffffff" stop-opacity="0"/>
</linearGradient>
<linearGradient gradientUnits="userSpaceOnUse" x1="47.9995" x2="47.9995" y1="45.5" y2="53.8766">
<stop offset="0" stop-color="#ffffff"/>
<stop offset="1" stop-color="#6d6e70"/>
</linearGradient>
<g stroke="#cdcdcd" stroke-opacity="1" transform="matrix(0.6964043,0,0,0.63903561,0.06689555,2.5508661)">
<linearGradient gradientTransform="matrix(1,0,0,-1,-522.1955,-1852.3818)" gradientUnits="userSpaceOnUse" x1="583.35553" x2="583.35553" y1="-1882.4854" y2="-1937.2727">
<stop offset="0" stop-color="#00d6ff"/>
<stop offset="1" stop-color="#0018b5"/>
</linearGradient>
<path d="M 68.774 38.691 C 53.401 38.691 54.36301 45.356003 54.36301 45.356003 L 54.37801 52.265003 L 69.049 52.265003 L 69.049 54.340004 L 48.54901 54.340004 C 48.54901 54.340004 38.712017 53.222004 38.712017 68.734 C 38.712017 84.249 47.29901 83.698 47.29901 83.698 L 52.422012 83.698 L 52.422012 76.501 C 52.422012 76.501 52.14701 67.914 60.87001 67.914 C 69.599014 67.914 75.425 67.914 75.425 67.914 C 75.425 67.914 83.60101 68.04801 83.60101 60.014 C 83.60101 51.982002 83.60101 46.732002 83.60101 46.732002 C 83.60101 46.732002 84.84201 38.691 68.77402 38.691 z M 60.688034 43.334003 C 62.145035 43.334003 63.327034 44.516003 63.327034 45.975 C 63.327034 47.434998 62.145035 48.614 60.688034 48.614 C 59.229034 48.614 58.047035 47.434998 58.047035 45.975 C 58.047035 44.515003 59.229034 43.334 60.688034 43.334 z " fill="#0097ff" fill-opacity="1" stroke="#cdcdcd" stroke-opacity="1"/>
<linearGradient gradientTransform="translate(-477.2339,-1117.8276)" gradientUnits="userSpaceOnUse" x1="555.01367" x2="555.01367" y1="1171.4385" y2="1228.9087">
<stop offset="0" stop-color="#fffa00"/>
<stop offset="1" stop-color="#de8100"/>
</linearGradient>
<path d="M 70.181 100.602 C 85.551 100.602 84.594 93.935 84.594 93.935 L 84.57601 87.033 L 69.903 87.033 L 69.903 84.959 L 90.399 84.959 C 90.399 84.959 100.239 86.074 100.239 70.562 C 100.239 55.04999 91.65 55.597992 91.65 55.597992 L 86.529 55.597992 L 86.529 62.795998 C 86.529 62.795998 86.8 71.379 78.08 71.379 C 69.355 71.379 63.530006 71.379 63.530006 71.379 C 63.530006 71.379 55.354008 71.252 55.354008 79.278 C 55.354008 87.313 55.354008 92.563 55.354008 92.563 C 55.354008 92.563 54.112007 100.60201 70.181 100.60201 z M 78.269 95.956024 C 76.809 95.956024 75.631 94.773026 75.631 93.31802 C 75.631 91.856026 76.813995 90.677025 78.269 90.677025 C 79.729 90.677025 80.906 91.86002 80.906 93.31802 C 80.905 94.774025 79.728 95.956024 78.269 95.956024 z " fill="#ffe800" fill-opacity="1" stroke="#cdcdcd" stroke-opacity="1"/>
<linearGradient gradientTransform="translate(-235.2038,-700.6904)" gradientUnits="userSpaceOnUse" x1="313.0459" x2="313.0459" y1="779.55469" y2="752.1969">
<stop offset="0" stop-color="#fffa57"/>
<stop offset="1" stop-color="#ffffab"/>
</linearGradient>
<linearGradient gradientTransform="translate(-235.2038,-700.6904)" gradientUnits="userSpaceOnUse" x1="297.07031" x2="297.07031" y1="761.16699" y2="740.30371">
<stop offset="0" stop-color="#3a9cce"/>
<stop offset="1" stop-color="#b0d0ff"/>
</linearGradient>
</g>
</svg>
