<?xml version="1.0" encoding="UTF-8"?>
<svg xmlns="http://www.w3.org/2000/svg" xmlns:xlink="http://www.w3.org/1999/xlink" baseProfile="tiny" contentScriptType="text/ecmascript" contentStyleType="text/css" height="57px" preserveAspectRatio="xMidYMid meet" version="1.1" viewBox="0 0 67 57" width="67px" x="0px" y="0px" zoomAndPan="magnify">
<path d="M 55.0 28.997 C 55.0 28.994 55.0 28.994 55.0 28.993 C 55.0 16.85 45.153 7.0 33.002 7.0 L 33.0 7.0 L 33.0 7.0 C 26.969 7.0 21.508 9.431 17.533 13.362 C 17.506 13.388 17.473 13.415 17.444 13.443 C 17.279 13.61 17.131 13.793 16.97 13.964 C 13.278 17.898 11.0 23.175 11.0 28.993 C 11.0 28.994 11.0 28.994 11.0 28.997 C 11.0 28.997 11.0 28.999 11.0 29.0 C 11.0 41.149 20.85 51.0 33.0 51.0 L 33.0 51.0 L 33.002 51.0 C 41.113 51.0 48.18 46.598 51.994 40.062 C 53.893 36.81 55.0 33.037 55.0 29.0 C 55.0 28.999 55.0 28.997 55.0 28.997 z M 31.07 9.849 C 31.211 9.928 31.302 10.034 31.268 10.21 C 31.07 11.214 27.662 14.526 26.654 14.887 C 25.65 15.247 25.254 15.184 24.566 14.726 C 23.597 14.08 21.49 15.804 22.793 16.411 C 23.234 16.618 24.029 16.685 25.301 17.12 C 27.315998 17.815998 27.902 19.016 26.735 19.331 C 20.895 20.91 23.626 22.735 21.412998 24.949 C 20.276 26.09 20.353998 26.547 19.549995 26.815 C 18.563995 27.142998 18.406998 25.709 17.477997 25.668 C 17.184998 25.652 15.022997 25.7 14.053997 25.711 C 15.512997 17.281998 22.453997 10.708999 31.069998 9.848998 z M 52.233997 28.718 C 51.887997 29.176 51.303997 29.641998 50.6 29.512 C 49.379997 29.29 48.588997 26.124 47.275 27.116 C 45.086 28.77 50.643 31.527 50.643 32.395 C 50.643 33.263 49.468 34.541 48.957996 34.949 C 48.198 35.564003 48.334995 37.92 48.334995 37.92 C 48.334995 39.577003 47.219994 41.562 46.650993 42.320004 C 46.075993 43.081005 43.58699 45.915005 42.137993 44.166004 C 41.059994 42.862003 41.96899 40.185005 41.649994 37.320004 C 41.535995 36.295 41.730995 33.371002 37.332993 32.841003 C 33.42499 32.371002 33.756992 29.523005 34.01499 28.080004 C 34.36899 26.091003 34.58599 24.915005 36.262993 24.507004 C 37.207993 24.276005 40.032993 23.912004 42.00299 24.689005 C 42.92899 25.056004 44.41299 24.906002 44.63999 23.682005 C 44.881992 22.371002 44.006992 22.290005 41.901993 21.698004 C 39.995995 21.163004 38.208992 22.763004 36.663994 22.761003 C 35.97599 22.761003 36.009995 22.176004 36.018993 21.363005 C 36.034992 20.550003 39.011993 18.453005 39.323994 18.217005 C 39.928993 17.755005 41.692993 17.941004 41.729992 17.941004 C 43.67699 18.004004 43.25299 16.683004 41.934994 16.620005 C 39.630993 16.508005 39.80199 15.298004 39.772995 14.934005 C 39.743996 14.569005 40.10799 13.641005 41.883995 13.598005 C 42.292995 13.587006 43.543995 13.538005 44.458996 13.572005 C 49.103996 17.028006 52.144997 22.515003 52.233997 28.718006 z M 19.947 43.107 C 20.09 41.301 19.593 37.987 18.998 37.58 C 17.113 36.3 17.185 36.672997 17.019 31.649998 C 16.929 28.864998 21.652 29.656998 22.669 30.763 C 23.644 31.822998 23.483 33.366997 26.314 34.553 C 27.119 34.886 28.611 35.840996 28.183 36.696 C 27.756 37.552 26.81 37.874 26.895 39.44 C 27.033 41.956997 25.007 41.758 24.54 43.471 C 24.239 44.575 23.904 45.41 23.713 45.85 C 22.344002 45.095 21.086 44.162003 19.947 43.107 z " fill="#dedede" fill-opacity="1" stroke-opacity="0.29999999999999999"/>
<defs>
<linearGradient gradientUnits="userSpaceOnUse" x1="33.0005" x2="33.0005" xlink:actuate="onLoad" xlink:show="other" xlink:type="simple" y1="50" y2="6.0005">
<stop offset="0" stop-color="#d0cbc5"/>
<stop offset="0.5031" stop-color="#fafcef"/>
<stop offset="0.9693" stop-color="#ffffff"/>
<stop offset="1" stop-color="#ffffff"/>
</linearGradient>
</defs>
</svg>
