<?xml version="1.0" encoding="UTF-8"?>
<svg xmlns="http://www.w3.org/2000/svg" xmlns:xlink="http://www.w3.org/1999/xlink" baseProfile="tiny" contentScriptType="text/ecmascript" contentStyleType="text/css" height="96px" preserveAspectRatio="xMidYMid meet" version="1.1" viewBox="0 0 96 96" width="96px" x="0px" y="0px" zoomAndPan="magnify">
<defs>
<linearGradient id="linearGradient3841">
<stop offset="0" stop-color="#9faebc" stop-opacity="1"/>
<stop offset="1" stop-color="#899cad" stop-opacity="1"/>
</linearGradient>
<linearGradient gradientTransform="matrix(0,1,-1,0,96,0)" gradientUnits="userSpaceOnUse" id="linearGradient3847" x1="8" x2="88" y1="48" y2="48">
<stop offset="0" stop-color="#9faebc" stop-opacity="1"/>
<stop offset="1" stop-color="#899cad" stop-opacity="1"/>
</linearGradient>
</defs>
<path d="M 88.0 49.0 C 88.0 78.635 77.639 89.0 48.0 89.0 C 18.366 89.0 8.0 78.635 8.0 49.0 C 8.0 19.367 18.366 9.0 48.0 9.0 C 77.637 9.0 88.0 19.367 88.0 49.0 z " fill-opacity="0.4" stroke-opacity="0.4"/>
<linearGradient gradientUnits="userSpaceOnUse" x1="48.0005" x2="48.0005" xlink:actuate="onLoad" xlink:show="other" xlink:type="simple" y1="88" y2="8.0005">
<stop offset="0" stop-color="#3d465b"/>
<stop offset="1" stop-color="#a1b2c0"/>
</linearGradient>
<path d="M 48.0 88.0 C 18.365 88.0 8.0 77.639 8.0 48.0 C 8.0 18.366 18.365 8.0 48.0 8.0 C 77.633 8.0 88.0 18.366 88.0 48.0 C 88.0 77.637 77.633 88.0 48.0 88.0 z " fill="url(#linearGradient3847)" fill-opacity="1"/>
<linearGradient gradientTransform="matrix(1 0 0 1 193.9253 -815.8408)" gradientUnits="userSpaceOnUse" id="SVGID_2_" x1="-145.9253" x2="-145.9253" xlink:actuate="onLoad" xlink:show="other" xlink:type="simple" y1="824.0938" y2="903.3385">
<stop offset="0" stop-color="#ffffff"/>
<stop offset="1" stop-color="#ffffff" stop-opacity="0"/>
</linearGradient>
<path d="M 48.0 8.0 C 18.366 8.0 8.0 18.367 8.0 48.0 C 8.0 77.635 18.366 88.0 48.0 88.0 C 77.639 88.0 88.0 77.635 88.0 48.0 C 88.0 18.367 77.637 8.0 48.0 8.0 z M 48.0 87.0 C 18.842 87.0 9.0 77.158 9.0 48.0 C 9.0 18.842005 18.842 9.0 48.0 9.0 C 77.159 9.0 87.0 18.842 87.0 48.0 C 87.0 77.158005 77.159 87.0 48.0 87.0 z " fill="url(#SVGID_2_)" fill-opacity="0.15"/>
<linearGradient gradientUnits="userSpaceOnUse" id="SVGID_3_" x1="34.8496" x2="61.3034" xlink:actuate="onLoad" xlink:show="other" xlink:type="simple" y1="19.9487" y2="72.3524">
<stop offset="0" stop-color="#ffffff"/>
<stop offset="1" stop-color="#ffffff"/>
</linearGradient>
<path d="M 32.447 24.105 C 32.201 24.598 32.0 25.45 32.0 26.0 L 32.0 66.0 C 32.0 66.55 32.201 67.402 32.447 67.895 L 34.5 72.0 L 61.5 72.0 L 63.553 67.895 C 63.799 67.402 64.0 66.55 64.0 66.0 L 64.0 26.0 C 64.0 25.45 63.799 24.598 63.553 24.105 L 61.5 20.0 L 34.5 20.0 L 32.447 24.105 z " fill="url(#SVGID_3_)"/>
<path d="M 34.5 78.0 C 32.975 78.0 31.604 77.153 30.924 75.79 L 28.869 71.684 C 28.342 70.628 28.0 69.182 28.0 68.0 L 28.0 28.0 C 28.0 26.818 28.342 25.372 28.869 24.316 L 30.922 20.211 C 31.605 18.847 32.977 18.0 34.5 18.0 L 61.5 18.0 C 63.025 18.0 64.395996 18.847 65.078 20.21 L 67.131004 24.315998 C 67.66 25.372 68.0 26.818 68.0 28.0 L 68.0 68.0 C 68.0 69.182 67.66 70.628 67.131 71.684 L 65.077995 75.789 C 64.395 77.153 63.023 78.0 61.5 78.0 L 34.5 78.0 z " fill-opacity="0.02"/>
<path d="M 34.5 77.0 C 33.357 77.0 32.328 76.365 31.818 75.343 L 29.763 71.237 C 29.307 70.322 29.0 69.022 29.0 68.0 L 29.0 28.0 C 29.0 26.978 29.307 25.678 29.764 24.764 L 31.817 20.659 C 32.33 19.635 33.357 19.0 34.5 19.0 L 61.5 19.0 C 62.645 19.0 63.672 19.635 64.182 20.657 L 66.237 24.763 C 66.693 25.678 67.0 26.978 67.0 28.0 L 67.0 68.0 C 67.0 69.022 66.693 70.322 66.236 71.236 L 64.183 75.341 C 63.672 76.365 62.645 77.0 61.5 77.0 L 34.5 77.0 z " fill-opacity="0.05"/>
<path d="M 34.5 76.0 C 33.738 76.0 33.053 75.577 32.713 74.896 L 30.658 70.79 C 30.271 70.014 30.0 68.867 30.0 68.0 L 30.0 28.0 C 30.0 27.133 30.271 25.986 30.658 25.211 L 32.711002 21.106 C 33.053 20.423 33.738 20.0 34.5 20.0 L 61.5 20.0 C 62.262 20.0 62.947 20.423 63.289 21.104 L 65.342 25.21 C 65.73 25.986 66.0 27.133 66.0 28.0 L 66.0 68.0 C 66.0 68.867 65.73 70.014 65.342 70.789 L 63.289 74.894005 C 62.947 75.577 62.262 76.0 61.5 76.0 L 34.5 76.0 z " fill-opacity="0.05"/>
<path d="M 34.5 75.0 C 34.121 75.0 33.775 74.786 33.605 74.447 L 31.552 70.342 C 31.238 69.711 31.0 68.705 31.0 68.0 L 31.0 28.0 C 31.0 27.295 31.238 26.289 31.553 25.658 L 33.606 21.553 C 33.775 21.214 34.121 21.0 34.5 21.0 L 61.5 21.0 C 61.879 21.0 62.225 21.214 62.395 21.553 L 64.448 25.658 C 64.764 26.289 65.0 27.295 65.0 28.0 L 65.0 68.0 C 65.0 68.705 64.764 69.711 64.447 70.342 L 62.393997 74.44701 C 62.225 74.786 61.879 75.0 61.5 75.0 L 34.5 75.0 z " fill-opacity="0.1"/>
<path d="M 32.447 26.105 C 32.201 26.598 32.0 27.45 32.0 28.0 L 32.0 68.0 C 32.0 68.55 32.201 69.402 32.447 69.895 L 34.5 74.0 L 61.5 74.0 L 63.553 69.895 C 63.799 69.402 64.0 68.55 64.0 68.0 L 64.0 28.0 C 64.0 27.45 63.799 26.598 63.553 26.105 L 61.5 22.0 L 34.5 22.0 L 32.447 26.105 z " fill-opacity="0.15"/>
<linearGradient gradientUnits="userSpaceOnUse" x1="34.8496" x2="61.3034" xlink:actuate="onLoad" xlink:show="other" xlink:type="simple" y1="19.9487" y2="72.3524">
<stop offset="0" stop-color="#cfcfcf"/>
<stop offset="0.26" stop-color="#f7f7f7"/>
<stop offset="0.74" stop-color="#f7f7f7"/>
<stop offset="1" stop-color="#878787"/>
</linearGradient>
<path d="M 32.0 26.0 C 32.0 39.333332 32.0 66.0 32.0 66.0 C 32.23996 68.1793 32.312283 72.0 34.5 72.0 L 61.5 72.0 C 63.689247 72.0 64.0 68.14552 64.0 66.0 L 64.0 26.0 C 63.76004 23.8207 63.687717 20.0 61.5 20.0 L 34.5 20.0 C 32.310753 20.0 32.0 23.85448 32.0 26.0 z " fill="#ffffff" fill-opacity="1"/>
<linearGradient gradientTransform="matrix(0.45454545,0,0,1,23.181818,0)" gradientUnits="userSpaceOnUse" x1="47.9995" x2="47.9995" xlink:actuate="onLoad" xlink:show="other" xlink:type="simple" y1="66" y2="69">
<stop offset="0" stop-color="#808184"/>
<stop offset="1" stop-color="#ffffff"/>
</linearGradient>
<path d="M 46.511555 68.97264 C 46.14213 68.674126 45.966103 68.018135 45.966103 67.46674 C 45.966103 66.91535 46.142136 66.25936 46.51156 65.960846 C 47.326855 65.30204 48.60535 65.30204 49.42065 65.960846 C 49.790073 66.25936 49.966103 66.91535 49.966103 67.46674 C 49.966103 68.018135 49.79007 68.674126 49.420647 68.97264 C 48.60535 69.63145 47.32685 69.63145 46.511555 68.97264 z " fill="#cbcbcb" fill-opacity="1"/>
<linearGradient gradientUnits="userSpaceOnUse" x1="48.0005" x2="48.0005" xlink:actuate="onLoad" xlink:show="other" xlink:type="simple" y1="68.5" y2="66.5">
<stop offset="0" stop-color="#323233"/>
<stop offset="1" stop-color="#5a5b5c"/>
</linearGradient>
<linearGradient gradientUnits="userSpaceOnUse" x1="48.0005" x2="48.0005" xlink:actuate="onLoad" xlink:show="other" xlink:type="simple" y1="68.5" y2="66.5">
<stop offset="0" stop-color="#ffffff" stop-opacity="0"/>
<stop offset="1" stop-color="#ffffff"/>
</linearGradient>
<linearGradient gradientUnits="userSpaceOnUse" x1="48.0005" x2="48.0005" xlink:actuate="onLoad" xlink:show="other" xlink:type="simple" y1="71.9014" y2="19.8005">
<stop offset="0" stop-color="#ffffff" stop-opacity="0"/>
<stop offset="1" stop-color="#ffffff"/>
</linearGradient>
<linearGradient gradientUnits="userSpaceOnUse" x1="47.9995" x2="47.9995" xlink:actuate="onLoad" xlink:show="other" xlink:type="simple" y1="66.583" y2="72.0836">
<stop offset="0" stop-color="#000000" stop-opacity="0.06"/>
<stop offset="1" stop-color="#000000" stop-opacity="0.2"/>
</linearGradient>
<linearGradient gradientUnits="userSpaceOnUse" x1="47.9995" x2="47.9995" xlink:actuate="onLoad" xlink:show="other" xlink:type="simple" y1="8.2393" y2="88.2878">
<stop offset="0" stop-color="#a1b2c0"/>
<stop offset="1" stop-color="#3d465b"/>
</linearGradient>
<path d="M 62.0 61.0 C 62.0 62.65 60.65 64.0 59.0 64.0 L 37.0 64.0 C 35.35 64.0 34.0 62.65 34.0 61.0 L 34.0 27.0 C 34.0 25.35 35.35 24.0 37.0 24.0 L 59.0 24.0 C 60.65 24.0 62.0 25.35 62.0 27.0 L 62.0 61.0 z " fill="#677683" fill-opacity="1"/>
<rect fill="none" height="96" width="96"/>
</svg>
