<?xml version="1.0" encoding="UTF-8"?>
<svg xmlns="http://www.w3.org/2000/svg" xmlns:xlink="http://www.w3.org/1999/xlink" baseProfile="tiny" contentScriptType="text/ecmascript" contentStyleType="text/css" height="27px" preserveAspectRatio="xMidYMid meet" version="1.1" viewBox="0 0 27 27" width="27px" x="0px" y="0px" zoomAndPan="magnify">
<path d="M 14.0 19.0 C 14.0 18.526 14.166 18.093 14.441 17.75 L 12.5 17.75 L 12.5 18.0 C 12.5 18.553 12.053 19.0 11.5 19.0 L 10.0 19.0 C 9.4470005 19.0 9.0 18.553 9.0 18.0 L 9.0 17.75 L 4.0 17.75 C 3.586 17.75 3.25 17.414 3.25 17.0 C 3.25 16.586 3.586 16.25 4.0 16.25 L 9.0 16.25 L 9.0 16.0 C 9.0 14.346 10.346 13.0 12.0 13.0 L 3.0 13.0 L 3.0 9.0 L 24.0 9.0 L 24.0 13.0 L 16.0 13.0 C 17.654 13.0 19.0 14.346 19.0 16.0 L 19.0 17.0 L 25.0 17.0 L 25.0 8.0 C 25.0 7.45 24.55 7.0 24.0 7.0 L 3.0 7.0 C 2.45 7.0 2.0 7.45 2.0 8.0 L 2.0 22.0 C 2.0 22.55 2.45 23.0 3.0 23.0 L 14.0 23.0 L 14.0 19.0 z M 10.0 20.75 L 4.0 20.75 C 3.586 20.75 3.25 20.414 3.25 20.0 C 3.25 19.586 3.586 19.25 4.0 19.25 L 10.0 19.25 C 10.414 19.25 10.75 19.586 10.75 20.0 C 10.75 20.414 10.414 20.75 10.0 20.75 z " fill="#dedede" fill-opacity="1"/>
<path d="M 25.0 18.0 L 18.0 18.0 L 18.0 16.0 C 18.0 14.9 17.1 14.0 16.0 14.0 L 12.0 14.0 C 10.9 14.0 10.0 14.9 10.0 16.0 L 10.0 18.0 L 11.5 18.0 L 11.5 16.0 C 11.5 15.729 11.729 15.5 12.0 15.5 L 16.0 15.5 C 16.271 15.5 16.5 15.729 16.5 16.0 L 16.5 18.0 L 16.0 18.0 C 15.45 18.0 15.0 18.45 15.0 19.0 L 15.0 25.0 C 15.0 25.55 15.45 26.0 16.0 26.0 L 25.0 26.0 C 25.55 26.0 26.0 25.55 26.0 25.0 L 26.0 19.0 C 26.0 18.45 25.55 18.0 25.0 18.0 z M 21.25 22.793 L 21.25 24.0 C 21.25 24.414 20.914 24.75 20.5 24.75 C 20.086 24.75 19.75 24.414 19.75 24.0 L 19.75 22.793 C 19.303 22.533 19.0 22.055 19.0 21.5 C 19.0 20.67 19.67 20.0 20.5 20.0 C 21.33 20.0 22.0 20.67 22.0 21.5 C 22.0 22.056 21.697 22.533 21.25 22.793 z " fill="#dedede"/>
<rect fill="none" height="27" width="27"/>
<defs>
<linearGradient gradientUnits="userSpaceOnUse" x1="13.5005" x2="13.5005" xlink:actuate="onLoad" xlink:show="other" xlink:type="simple" y1="23" y2="7.0005">
<stop offset="0" stop-color="#d0cbc5"/>
<stop offset="1" stop-color="#fcfcf9"/>
</linearGradient>
</defs>
</svg>
