<?xml version="1.0" encoding="UTF-8"?>
<svg xmlns="http://www.w3.org/2000/svg" xmlns:xlink="http://www.w3.org/1999/xlink" baseProfile="tiny" contentScriptType="text/ecmascript" contentStyleType="text/css" height="27px" preserveAspectRatio="xMidYMid meet" version="1.1" viewBox="0 0 27 27" width="27px" x="0px" y="0px" zoomAndPan="magnify">
<path d="M 22.541 3.911 L 4.459 3.911 C 3.795 3.911 3.2530005 4.453 3.2530005 5.117 L 3.2530005 23.2 C 3.2530005 23.861 3.7950003 24.404 4.459 24.404 L 22.541 24.404 C 23.204 24.404 23.748 23.861002 23.748 23.2 L 23.748 5.117 C 23.748 4.453 23.204 3.911 22.541 3.911 z M 19.829 18.377 L 7.171 18.377 C 6.673 18.377 6.266 17.971 6.266 17.473 C 6.266 16.975002 6.673 16.569002 7.171 16.569002 L 19.829 16.569002 C 20.325 16.569002 20.731998 16.975002 20.731998 17.473 C 20.731998 17.971 20.325 18.377 19.829 18.377 z M 19.829 14.156 L 7.171 14.156 C 6.673 14.156 6.266 13.75 6.266 13.254 C 6.266 12.756 6.673 12.349999 7.171 12.349999 L 19.829 12.349999 C 20.325 12.349999 20.731998 12.756 20.731998 13.254 C 20.732 13.75 20.325 14.156 19.829 14.156 z M 19.829 9.938 L 7.171 9.938 C 6.673 9.938 6.266 9.531 6.266 9.033999 C 6.266 8.537 6.673 8.131 7.171 8.131 L 19.829 8.131 C 20.325 8.131 20.731998 8.537999 20.731998 9.033999 C 20.732 9.531 20.325 9.938 19.829 9.938 z " display="none" fill-opacity="0.15"/>
<rect fill="none" height="27" width="27"/>
<linearGradient gradientTransform="matrix(1 0 0 1 -125.96 -889.8457)" gradientUnits="userSpaceOnUse" x1="139.4609" x2="139.4609" xlink:actuate="onLoad" xlink:show="other" xlink:type="simple" y1="914.25" y2="893.7568">
<stop offset="0" stop-color="#d0cbc5"/>
<stop offset="1" stop-color="#fcfcf9"/>
</linearGradient>
<path d="M 22.541 3.911 L 4.459 3.911 C 3.795 3.911 3.2530005 4.453 3.2530005 5.117 L 3.2530005 23.2 C 3.2530005 23.861 3.7950003 24.404 4.459 24.404 L 22.541 24.404 C 23.204 24.404 23.748 23.861002 23.748 23.2 L 23.748 5.117 C 23.748 4.453 23.204 3.911 22.541 3.911 z M 19.829 18.377 L 7.171 18.377 C 6.673 18.377 6.266 17.971 6.266 17.473 C 6.266 16.975002 6.673 16.569002 7.171 16.569002 L 19.829 16.569002 C 20.325 16.569002 20.731998 16.975002 20.731998 17.473 C 20.731998 17.971 20.325 18.377 19.829 18.377 z M 19.829 14.156 L 7.171 14.156 C 6.673 14.156 6.266 13.75 6.266 13.254 C 6.266 12.756 6.673 12.349999 7.171 12.349999 L 19.829 12.349999 C 20.325 12.349999 20.731998 12.756 20.731998 13.254 C 20.732 13.75 20.325 14.156 19.829 14.156 z M 19.829 9.938 L 7.171 9.938 C 6.673 9.938 6.266 9.531 6.266 9.033999 C 6.266 8.537 6.673 8.131 7.171 8.131 L 19.829 8.131 C 20.325 8.131 20.731998 8.537999 20.731998 9.033999 C 20.732 9.531 20.325 9.938 19.829 9.938 z " fill="#dedede" fill-opacity="1"/>
</svg>
