<?xml version="1.0" encoding="UTF-8"?>
<svg xmlns="http://www.w3.org/2000/svg" xmlns:xlink="http://www.w3.org/1999/xlink" baseProfile="tiny" contentScriptType="text/ecmascript" contentStyleType="text/css" height="30px" preserveAspectRatio="xMidYMid meet" version="1.1" viewBox="0 0 30 30" width="30px" x="0px" y="0px" zoomAndPan="magnify">
<rect fill="none" height="30" width="30"/>
<path d="M 5.94685 1.2342511 L 24.053148 1.2342511 C 26.675196 1.2342511 28.765747 3.3248024 28.765747 5.94685 L 28.765747 24.05315 C 28.765747 26.675198 26.675196 28.765747 24.053148 28.765747 L 5.94685 28.765747 C 3.3248029 28.765747 1.234252 26.675198 1.234252 24.05315 L 1.234252 5.94685 C 1.234252 3.3248024 3.3248029 1.234251 5.94685 1.234251 z " fill="#353535" fill-opacity="0.58823529" fill-rule="nonzero" stroke="none"/>
<path d="M 15.358589 9.5925255 C 15.183966 9.649039 15.068768 9.815434 15.077339 9.998776 L 15.077339 12.5925255 L 7.4835887 12.5925255 C 7.2593985 12.592949 7.0777617 12.774586 7.077339 12.998776 L 7.077339 16.998775 C 7.0777617 17.222963 7.2593985 17.404602 7.4835887 17.405024 L 15.077339 17.405024 L 15.077339 19.998775 C 15.068544 20.158035 15.153586 20.307756 15.294879 20.381767 C 15.4361725 20.455778 15.607674 20.440435 15.733589 20.342524 L 22.73359 15.342525 C 22.85132 15.26788 22.922665 15.138177 22.922665 14.998776 C 22.922665 14.859374 22.85132 14.729671 22.73359 14.6550255 L 15.733589 9.6550255 C 15.6265955 9.573508 15.486238 9.550115 15.358589 9.5925255 z " fill="#dedede"/>
</svg>
