<?xml version="1.0" encoding="UTF-8"?>
<svg xmlns="http://www.w3.org/2000/svg" xmlns:xlink="http://www.w3.org/1999/xlink" baseProfile="tiny" contentScriptType="text/ecmascript" contentStyleType="text/css" height="30px" preserveAspectRatio="xMidYMid meet" version="1.1" viewBox="0 0 30 30" width="30px" x="0px" y="0px" zoomAndPan="magnify">
<path d="M 25.094 16.32 C 25.667 14.992 26.0 13.537 26.0 12.0 C 26.0 5.935 21.065 1.0 15.0 1.0 C 8.934999 1.0 4.0 5.935 4.0 12.0 C 4.0 15.488 5.637 18.596 8.1779995 20.612 L 4.967 24.99 C 4.272 25.939 4.106 26.942 4.511 27.742 C 4.916 28.541 5.823 29.0 7.0 29.0 L 19.413 29.0 C 20.464 29.631 21.687 30.0 23.0 30.0 C 26.859 30.0 30.0 26.859 30.0 23.0 C 30.0 19.869 27.934 17.213 25.094 16.32 z " fill-opacity="0.15" stroke-opacity="0.15"/>
<rect fill="none" height="30" width="30"/>
<path d="M 15.0 21.0 C 15.299 21.0 15.592 20.98 15.885 20.955 C 16.393 17.479 19.386 14.8 23.0 14.8 C 23.412 14.8 23.813 14.842 24.206 14.909 C 24.717 13.708 25.0 12.387 25.0 11.0 C 25.0 5.478 20.522999 1.0 15.0 1.0 C 9.477001 1.0 5.0 5.478 5.0 11.0 C 5.0 16.522 9.477 21.0 15.0 21.0 z M 15.0 7.0 C 17.209 7.0 19.0 8.791 19.0 11.0 C 19.0 13.209 17.209 15.0 15.0 15.0 C 12.791 15.0 11.0 13.209 11.0 11.0 C 11.0 8.791 12.791 7.0 15.0 7.0 z M 15.0 23.0 C 12.561 23.0 10.291 22.264 8.395 21.008 L 5.774 24.581 C 4.799 25.911 5.35 27.0 7.0 27.0 L 17.83 27.0 C 16.789 25.923 16.083 24.523 15.873 22.967 C 15.584 22.988 15.293 23.0 15.0 23.0 z M 23.0 16.0 C 19.687 16.0 17.0 18.687 17.0 22.0 C 17.0 25.313 19.687 28.0 23.0 28.0 C 26.313 28.0 29.0 25.313 29.0 22.0 C 29.0 18.687 26.313 16.0 23.0 16.0 z M 26.168 22.555 L 21.831999 25.446001 C 21.375 25.75 21.0 25.55 21.0 25.0 L 21.0 19.0 C 21.0 18.45 21.375 18.25 21.832 18.555 L 26.168001 21.446001 C 26.625 21.75 26.625 22.25 26.168 22.555 z " fill-opacity="0.3" stroke-opacity="0.3"/>
<path d="M 15.0 22.0 C 15.299 22.0 15.592 21.98 15.885 21.955 C 16.393 18.479 19.386 15.8 23.0 15.8 C 23.412 15.8 23.813 15.842 24.206 15.909 C 24.717 14.708 25.0 13.387 25.0 12.0 C 25.0 6.478 20.522999 2.0 15.0 2.0 C 9.477001 2.0 5.0 6.478 5.0 12.0 C 5.0 17.522 9.477 22.0 15.0 22.0 z M 15.0 8.0 C 17.209 8.0 19.0 9.791 19.0 12.0 C 19.0 14.209 17.209 16.0 15.0 16.0 C 12.791 16.0 11.0 14.209 11.0 12.0 C 11.0 9.791 12.791 8.0 15.0 8.0 z M 15.0 24.0 C 12.561 24.0 10.291 23.264 8.395 22.008 L 5.774 25.581 C 4.799 26.911 5.35 28.0 7.0 28.0 L 17.83 28.0 C 16.789 26.923 16.083 25.523 15.873 23.967 C 15.584 23.988 15.293 24.0 15.0 24.0 z M 23.0 17.0 C 19.687 17.0 17.0 19.687 17.0 23.0 C 17.0 26.313 19.687 29.0 23.0 29.0 C 26.313 29.0 29.0 26.313 29.0 23.0 C 29.0 19.687 26.313 17.0 23.0 17.0 z M 26.168 23.555 L 21.831999 26.446001 C 21.375 26.75 21.0 26.55 21.0 26.0 L 21.0 20.0 C 21.0 19.45 21.375 19.25 21.832 19.555 L 26.168001 22.446001 C 26.625 22.75 26.625 23.25 26.168 23.555 z " fill="#dedede"/>
</svg>
