<?xml version="1.0" encoding="UTF-8"?>
<svg xmlns="http://www.w3.org/2000/svg" xmlns:xlink="http://www.w3.org/1999/xlink" baseProfile="tiny" contentScriptType="text/ecmascript" contentStyleType="text/css" height="57px" preserveAspectRatio="xMidYMid meet" version="1.1" viewBox="0 0 67 57" width="67px" x="0px" y="0px" zoomAndPan="magnify">
<rect fill="#ffffff" fill-opacity="0.70588235" fill-rule="nonzero" height="48" ry="8.2174387" stroke="none" width="48" x="9.5" y="4.5"/>
<rect color="#000000" display="inline" fill="#0500a7" fill-opacity="0.58823528999999997" fill-rule="nonzero" height="48" ry="8.2174387" stroke="none" visibility="visible" width="48" x="9.5" y="4.5"/>
<g>
<rect fill="none" height="57" width="67"/>
</g>
<g>
<rect fill="none" height="46" width="46" x="10.5" y="5.5"/>
</g>
<defs>
<linearGradient gradientUnits="userSpaceOnUse" x1="34" x2="34" xlink:actuate="onLoad" xlink:show="other" xlink:type="simple" y1="52" y2="4.0005">
<stop offset="0" stop-color="#d0cbc5"/>
<stop offset="0.5031" stop-color="#fafcef"/>
<stop offset="0.9693" stop-color="#ffffff"/>
<stop offset="1" stop-color="#ffffff"/>
</linearGradient>
</defs>
<path d="M 34.967144 13.963727 C 26.979198 13.963727 20.498608 20.408728 20.437763 28.384045 L 17.919 28.384045 C 17.76861 28.382944 17.6297 28.460964 17.555079 28.592985 C 17.51834 28.658424 17.499979 28.727304 17.499979 28.801926 C 17.499979 28.876545 17.519499 28.946579 17.557379 29.013163 L 21.743073 36.165348 C 21.816542 36.292778 21.955456 36.37314 22.102402 36.37314 C 22.25394 36.37544 22.391705 36.297367 22.467472 36.165348 L 26.64972 29.013165 C 26.686459 28.946575 26.705969 28.876549 26.705969 28.801928 C 26.705969 28.729607 26.6876 28.66072 26.65087 28.594137 C 26.57625 28.466707 26.437336 28.384048 26.288094 28.384048 L 23.552357 28.384048 C 23.616646 22.141098 28.709276 17.078316 34.96715 17.078316 C 41.26521 17.078316 46.388836 22.201944 46.388836 28.498852 C 46.388836 34.795757 41.26521 39.919388 34.96715 39.919388 C 32.583855 39.919388 30.370468 39.18121 28.537073 37.93101 L 28.535973 37.93101 C 28.527973 37.92411 28.521053 37.92181 28.513012 37.91494 C 28.511911 37.91494 28.511911 37.91494 28.510712 37.91494 C 27.773682 37.30534 27.31562 37.98267 27.306437 37.9976 L 26.38687 39.35686 C 26.38687 39.35916 26.068867 39.902172 26.48445 40.27413 C 28.872337 42.00076 31.794058 43.036278 34.96375 43.036278 C 42.993023 43.036278 49.50002 36.526985 49.50002 28.49886 C 49.50002 20.470734 42.996468 13.963736 34.967194 13.963736 z " fill="#ffffff" fill-opacity="1"/>
</svg>
