<?xml version="1.0" encoding="UTF-8"?>
<svg xmlns="http://www.w3.org/2000/svg" xmlns:xlink="http://www.w3.org/1999/xlink" baseProfile="tiny" contentScriptType="text/ecmascript" contentStyleType="text/css" height="57px" preserveAspectRatio="xMidYMid meet" version="1.1" viewBox="0 0 67 57" width="67px" x="0px" y="0px" zoomAndPan="magnify">
<path d="M 20.5 38.0 L 38.479 38.0 C 39.284 36.462 40.381 35.101 41.706 34.0 L 20.5 34.0 C 19.672 34.0 19.0 33.328 19.0 32.5 C 19.0 31.672 19.672 31.0 20.5 31.0 L 45.5 31.0 C 45.929 31.0 46.313 31.182 46.586 31.471 C 47.676 31.173 48.816 31.0 50.0 31.0 C 50.338 31.0 50.669 31.025 51.0 31.051 L 51.0 11.0 C 51.0 9.896 50.104 9.0 49.0 9.0 L 17.0 9.0 C 15.896 9.0 15.0 9.896 15.0 11.0 L 15.0 48.0 C 15.0 49.104 15.896 50.0 17.0 50.0 L 38.479 50.0 C 37.539 48.203 37.0 46.164 37.0 44.0 C 37.0 42.966 37.135 41.965 37.363 41.0 L 20.5 41.0 C 19.672 41.0 19.0 40.328 19.0 39.5 C 19.0 38.672 19.672 38.0 20.5 38.0 z M 20.5 17.0 L 45.5 17.0 C 46.328 17.0 47.0 17.672 47.0 18.5 C 47.0 19.328 46.328 20.0 45.5 20.0 L 20.5 20.0 C 19.672 20.0 19.0 19.328 19.0 18.5 C 19.0 17.672 19.672 17.0 20.5 17.0 z M 20.5 24.0 L 45.5 24.0 C 46.328 24.0 47.0 24.672 47.0 25.5 C 47.0 26.328 46.328 27.0 45.5 27.0 L 20.5 27.0 C 19.672 27.0 19.0 26.328 19.0 25.5 C 19.0 24.672 19.672 24.0 20.5 24.0 z M 50.002 33.0 L 50.0 33.0 C 46.984 33.0 44.254 34.215 42.268 36.182 C 42.253 36.195 42.238003 36.207 42.223003 36.222 C 42.140003 36.305 42.067005 36.397 41.986004 36.483 C 40.139 38.449 39.0 41.088 39.0 43.997 C 39.0 43.997 39.0 43.997 39.0 43.999 L 39.0 44.0 C 39.0 50.075 43.925 55.0 50.0 55.0 L 50.002 55.0 C 54.057 55.0 57.59 52.799 59.497 49.531 C 60.447 47.904 61.0 46.019 61.0 44.0 L 61.0 43.999 C 61.0 43.997 61.0 43.997 61.0 43.997 C 61.0 37.925 56.076 33.0 50.002 33.0 z M 47.592 47.848 C 47.379 48.277 46.905 48.438 46.948 49.221 C 47.016 50.479 46.004 50.38 45.769997 51.237 C 45.618996 51.789 45.451996 52.206 45.355995 52.426 C 44.670994 52.046997 44.042995 51.580997 43.472996 51.053997 C 43.543995 50.151997 43.296 48.493996 42.998997 48.289997 C 42.055996 47.649 42.091995 47.837 42.008995 45.324997 C 41.963997 43.931995 44.324997 44.327995 44.834995 44.881996 C 45.320995 45.410995 45.240993 46.184 46.65599 46.777996 C 47.059994 46.942997 47.806995 47.421 47.591995 47.847996 z M 46.827 36.943 C 46.325 37.124 46.127 37.091 45.783 36.862 C 45.299 36.54 44.245003 37.401 44.896 37.705 C 45.117 37.809 45.514 37.843 46.15 38.059 C 47.158 38.407 47.451 39.005997 46.867 39.164 C 43.947 39.953 45.312 40.865997 44.206 41.974 C 43.639 42.544 43.678 42.772 43.274 42.907 C 42.781 43.071 42.703003 42.353996 42.238003 42.333996 C 42.092003 42.324997 41.01 42.349995 40.526 42.354996 C 41.255 38.139996 44.727 34.853996 49.035 34.423996 C 49.105 34.462997 49.151 34.515995 49.135 34.603996 C 49.035 35.105995 47.330997 36.763996 46.827 36.942997 z M 58.801 44.255997 C 58.191 44.145996 57.795 42.561996 57.138 43.058 C 56.043 43.885 58.823 45.263 58.823 45.698 C 58.823 46.131996 58.235 46.770996 57.980003 46.974 C 57.6 47.282 57.668003 48.459 57.668003 48.459 C 57.668003 49.288 57.110004 50.28 56.826004 50.659 C 56.539005 51.04 55.294003 52.457 54.570004 51.583 C 54.031 50.931 54.485004 49.592 54.326004 48.16 C 54.269005 47.646 54.367004 46.184 52.168003 45.92 C 50.213 45.685 50.379 44.261 50.508003 43.539 C 50.685 42.545 50.793003 41.956997 51.632004 41.753 C 52.104004 41.637997 53.517 41.455 54.502003 41.844 C 54.965004 42.027996 55.707005 41.952 55.820004 41.339996 C 55.941 40.685 55.504 40.644997 54.451004 40.348995 C 53.498005 40.080994 52.603004 40.880997 51.832005 40.879993 C 51.488003 40.879993 51.505005 40.58699 51.51001 40.180992 C 51.518005 39.77399 53.007008 38.72599 53.162006 38.60799 C 53.465008 38.377995 54.347008 38.46899 54.365005 38.46899 C 55.339005 38.499992 55.127007 37.840996 54.468006 37.80899 C 53.317005 37.751995 53.402008 37.147995 53.387005 36.965996 C 53.372005 36.782997 53.555004 36.319996 54.443005 36.297997 C 54.648006 36.292995 55.27401 36.268 55.731003 36.283997 C 58.053 38.013996 59.573 40.757996 59.618004 43.858997 C 59.444004 44.087997 59.152004 44.321 58.801003 44.255997 z " fill="#575757" fill-opacity="1" stroke-opacity="0.29999999999999999"/>
<defs>
<linearGradient gradientUnits="userSpaceOnUse" x1="38" x2="38" xlink:actuate="onLoad" xlink:show="other" xlink:type="simple" y1="54" y2="8.0005">
<stop offset="0" stop-color="#d0cbc5"/>
<stop offset="0.5031" stop-color="#fafcef"/>
<stop offset="0.9693" stop-color="#ffffff"/>
<stop offset="1" stop-color="#ffffff"/>
</linearGradient>
</defs>
</svg>
