<?xml version="1.0" encoding="UTF-8"?>
<svg xmlns="http://www.w3.org/2000/svg" xmlns:xlink="http://www.w3.org/1999/xlink" baseProfile="tiny" contentScriptType="text/ecmascript" contentStyleType="text/css" height="96px" preserveAspectRatio="xMidYMid meet" version="1.1" viewBox="0 0 96 96" width="96px" x="0px" y="0px" zoomAndPan="magnify">
<defs>
<linearGradient id="linearGradient3819">
<stop offset="0" stop-color="#ffffff" stop-opacity="1"/>
<stop offset="1" stop-color="#ffffff" stop-opacity="0.78431374"/>
</linearGradient>
<linearGradient>
<stop offset="0" stop-color="#00b9d9" stop-opacity="1"/>
<stop offset="1" stop-color="#00a3d8" stop-opacity="0.97463"/>
</linearGradient>
<linearGradient gradientTransform="matrix(0,1,-1,0,96.023001,-0.0230015)" gradientUnits="userSpaceOnUse" id="linearGradient3814" x1="8.023003" x2="88.023" y1="48" y2="48">
<stop offset="0" stop-color="#00b9d9" stop-opacity="1"/>
<stop offset="1" stop-color="#00a3d8" stop-opacity="0.97463"/>
</linearGradient>
<linearGradient gradientUnits="userSpaceOnUse" id="linearGradient3825" x1="46.273304" x2="46.273304" y1="26.506886" y2="63.258278">
<stop offset="0" stop-color="#ffffff" stop-opacity="1"/>
<stop offset="1" stop-color="#ffffff" stop-opacity="0.78431374"/>
</linearGradient>
<linearGradient gradientTransform="matrix(0,1,-1,0,96.023001,-0.0230015)" gradientUnits="userSpaceOnUse" id="linearGradient3829" x1="46.273304" x2="46.273304" y1="26.506886" y2="63.258278">
<stop offset="0" stop-color="#00b9d9" stop-opacity="1"/>
<stop offset="1" stop-color="#00a3d8" stop-opacity="0.97463"/>
</linearGradient>
</defs>
<path d="M 88.023 48.977 C 88.023 78.611 77.66 88.977005 48.023003 88.977005 C 18.388002 88.977005 8.023003 78.61101 8.023003 48.977005 C 8.023003 19.343004 18.388002 8.977005 48.023003 8.977005 C 77.66 8.977 88.023 19.343 88.023 48.977 z " fill-opacity="0.4"/>
<rect fill="none" height="96" width="96" x="0.023"/>
<linearGradient gradientTransform="matrix(1 0 0 -1 -887.998 -1693.502)" gradientUnits="userSpaceOnUse" x1="936.0215" x2="936.0215" y1="-1709.4243" y2="-1777.7798">
<stop offset="0" stop-color="#6fa519"/>
<stop offset="1" stop-color="#064c00"/>
</linearGradient>
<path d="M 48.023 88.0 C 18.39 88.0 8.022999 77.637 8.022999 48.000004 C 8.022999 18.365004 18.39 8.000004 48.023 8.000004 C 77.657 8.000004 88.022995 18.365004 88.022995 48.000004 C 88.022995 77.637 77.657 88.0 48.022995 88.0 z " fill="url(#linearGradient3814)" fill-opacity="1"/>
<linearGradient gradientTransform="matrix(1 0 0 -1 -887.998 -1693.502)" gradientUnits="userSpaceOnUse" id="SVGID_2_" x1="935.9746" x2="935.9746" y1="-1701.7515" y2="-1780.9971">
<stop offset="0" stop-color="#ffffff"/>
<stop offset="1" stop-color="#ffffff" stop-opacity="0"/>
</linearGradient>
<path d="M 47.977 8.0 C 18.342 8.0 7.977001 18.366 7.977001 48.0 C 7.977001 77.633 18.342 88.0 47.977 88.0 C 77.613 88.0 87.977005 77.633 87.977005 48.0 C 87.977 18.366 77.613 8.0 47.977 8.0 z M 47.977 87.0 C 18.819 87.0 8.977001 77.158 8.977001 48.0 C 8.977001 18.842005 18.819 9.0 47.977 9.0 C 77.135 9.0 86.977005 18.842 86.977005 48.0 C 86.977005 77.158005 77.135 87.0 47.977 87.0 z " fill="url(#SVGID_2_)" fill-opacity="0.25"/>
<path d="M 29.281 66.169 C 24.652 66.169 20.886 62.404 20.886 57.777 C 20.886 53.939 23.527 50.597 27.226 49.668 C 27.214 49.455997 27.207 49.242 27.207 49.027 C 27.207 43.032 32.087 38.153 38.085 38.153 C 41.872 38.153 45.379 40.118 47.349 43.31 C 48.183 42.953003 49.085 42.765003 49.983997 42.765003 C 53.462997 42.765003 56.337997 45.359005 56.735996 48.755005 C 56.782 48.755005 56.826996 48.755005 56.870995 48.755005 C 61.674995 48.755005 65.58199 52.660004 65.58199 57.46201 C 65.58199 62.261005 61.67499 66.16601 56.870995 66.16601 L 29.281 66.169 L 29.281 66.169 z " fill-opacity="0.1"/>
<path d="M 29.281 65.669 C 24.927 65.669 21.386 62.129997 21.386 57.777 C 21.386 54.011 24.093 50.779 27.759 50.06 C 27.725998 49.72 27.707998 49.372 27.707998 49.027 C 27.707998 43.307 32.362 38.653 38.086 38.653 C 41.89 38.653 45.315 40.674 47.149 43.959 C 48.031 43.504 49.001 43.266 49.983997 43.266 C 53.365997 43.266 56.130997 45.94 56.276997 49.282997 C 56.476 49.266 56.672997 49.259 56.871 49.259 C 61.396 49.259 65.082 52.941 65.082 57.466 C 65.082 61.989 61.396 65.671 56.871 65.671 L 29.281002 65.671 L 29.281002 65.669 z " fill-opacity="0.15"/>
<path d="M 29.281 65.169 C 25.204 65.169 21.886 61.856 21.886 57.777 C 21.886 54.06 24.667 50.957 28.314 50.476 C 28.245 50.003 28.209 49.519 28.209 49.027 C 28.209 43.584 32.641 39.153 38.087 39.153 C 41.872997 39.153 45.288 41.291 46.949997 44.648 C 47.872 44.069 48.909996 43.765 49.985996 43.765 C 53.182995 43.765 55.785995 46.363 55.785995 49.556 C 55.785995 49.652 55.782997 49.746 55.776997 49.845 C 56.160995 49.783 56.517 49.755 56.872997 49.755 C 61.124996 49.755 64.584 53.212 64.584 57.462 C 64.584 61.710003 61.125 65.166 56.873 65.166 L 29.281 65.169 L 29.281 65.169 z " fill-opacity="0.15"/>
<path d="M 67.318 60.273 C 67.244 60.267 67.064 60.246 66.908 60.222 L 66.697 60.195 C 65.211 59.806 64.679 59.027 64.484 58.439 L 64.449 58.32 L 64.425995 58.199 L 64.37499 57.574 C 64.369995 53.501 61.247993 50.14 57.263992 49.888 L 55.763992 49.793 L 55.437992 48.323997 C 54.866993 45.751 52.533993 43.881996 49.89099 43.881996 C 49.60599 43.881996 49.28799 43.911995 48.923992 43.976 C 48.76799 44.015 48.505993 44.040997 48.25399 44.040997 C 47.575993 44.040997 46.845993 43.844997 46.250996 43.503 L 45.812996 43.165997 L 45.775997 43.116997 C 44.655 41.702995 43.317 40.678997 41.766 40.033997 L 41.514 39.900997 C 39.869 38.714996 40.194 37.553 40.529 36.962997 C 41.117 35.954 41.242 34.807 40.885 33.726997 L 40.842 33.573997 L 40.817 33.419 L 40.810997 32.708 L 40.836 32.632 C 41.135 31.716 41.723 31.108 42.518 30.847 L 42.67 30.804 L 42.824997 30.779 L 43.534996 30.772 L 43.610996 30.796 C 44.160995 30.976002 44.583996 31.048002 45.014996 31.048002 C 45.688995 31.046 46.352997 30.866005 46.938995 30.527002 C 47.893997 29.977003 48.571995 29.034002 48.802994 27.936005 C 48.945995 27.245005 49.541992 26.449003 50.556995 26.234003 C 50.734997 26.197002 50.91299 26.176004 51.088997 26.176004 C 51.865 26.176004 52.462997 26.555002 52.763996 26.908005 C 53.492996 27.721004 54.546 28.192003 55.64899 28.192003 C 56.749996 28.192003 57.806995 27.713003 58.55199 26.879004 L 58.775993 26.629004 L 59.083992 26.498005 C 59.623993 26.269005 59.87599 26.199003 60.166992 26.199003 C 60.79999 26.199003 61.38599 26.424004 61.86199 26.845003 L 61.976994 26.956003 L 62.078995 27.080004 L 62.441994 27.696005 L 62.457993 27.774002 C 62.71899 29.018002 63.38499 29.965002 64.35099 30.520002 C 64.93899 30.863005 65.60699 31.043003 66.27899 31.043003 C 66.703995 31.043003 67.12499 30.975002 67.53099 30.842005 L 67.68299 30.797005 L 67.84099 30.773005 L 68.55799 30.766005 L 68.635994 30.793003 C 69.548 31.094004 70.15399 31.684004 70.412 32.477005 L 70.45599 32.631004 L 70.479 32.786003 L 70.48499 33.498005 L 70.45999 33.575005 C 70.06399 34.777004 70.16499 35.929005 70.72599 36.890003 C 71.28599 37.860004 72.20599 38.521004 73.31999 38.757004 L 73.47199 38.796005 L 73.618 38.85101 L 74.241 39.202007 L 74.296 39.265007 C 74.935 39.980007 75.165 40.79001 74.996994 41.605007 L 74.95899 41.759007 L 74.90299 41.907005 L 74.549 42.530006 L 74.489 42.583008 C 73.544 43.42901 73.053 44.479008 73.053 45.60101 C 73.053 46.701008 73.532 47.75901 74.366005 48.50401 L 74.48 48.61601 L 74.582 48.73901 L 74.943 49.35201 L 74.96 49.43201 C 75.154 50.37301 74.947 51.19401 74.397 51.81501 L 74.286 51.93001 L 74.162994 52.03001 L 73.55299 52.38901 L 73.478 52.407013 C 72.23399 52.668015 71.286 53.33401 70.726 54.302013 C 70.185 55.236015 70.062 56.329018 70.379 57.380013 L 70.482994 57.73001 L 70.27 58.89601 L 70.045 59.185013 C 69.501 59.892017 68.592 60.267017 67.417 60.267017 L 67.318 60.273 z " fill-opacity="0.07"/>
<path d="M 67.324 59.773 C 67.258 59.767 66.832 59.708 66.754 59.698997 C 65.541 59.378 65.116 58.753 64.959 58.281 L 64.939 58.222 L 64.916 58.101 L 64.873 57.537003 C 64.87 53.223003 61.543 49.659004 57.295 49.391003 L 56.171 49.321003 L 55.926003 48.22 C 55.303 45.417 52.764004 43.384003 49.891003 43.384003 C 49.578003 43.384003 49.233 43.417004 48.837 43.488003 C 48.695004 43.521004 48.473003 43.546 48.254 43.546 C 47.661003 43.546 47.022003 43.374 46.5 43.074 L 46.169 42.815 L 46.135 42.771004 C 44.990997 41.329 43.586 40.253 41.958 39.577003 L 41.748 39.465004 C 40.532 38.584003 40.655003 37.76 40.962 37.217003 C 41.621 36.086 41.762 34.795 41.359 33.576004 L 41.334 33.500004 L 41.309 33.344006 L 41.309 32.793007 L 41.334 32.719006 C 41.564 32.012005 42.043 31.531006 42.672 31.325005 L 42.748 31.301004 L 42.904 31.277004 L 43.455 31.277004 L 43.53 31.3 C 44.067997 31.476 44.543 31.552 45.015 31.552 C 45.777 31.55 46.53 31.347 47.189 30.964 C 48.267 30.345 49.034 29.279 49.293 28.044 C 49.402 27.511002 49.868 26.897 50.661 26.729 C 50.805 26.699 50.948997 26.683 51.091 26.683 C 51.695 26.683 52.154 26.97 52.384 27.239 C 53.212997 28.164 54.406 28.7 55.649 28.7 C 56.893 28.7 58.087 28.16 58.928 27.219002 L 59.074997 27.053 L 59.278996 26.965002 C 59.797997 26.744 59.977997 26.705002 60.166996 26.705002 C 60.674995 26.705002 61.145996 26.885002 61.528996 27.226002 L 61.590996 27.280005 L 61.692 27.404003 L 61.969 27.884005 L 61.987 27.964005 C 62.262 29.279003 63.028 30.345003 64.102 30.962002 C 64.766 31.349 65.518 31.552002 66.28 31.552002 C 66.757996 31.552002 67.229 31.476002 67.688 31.324 L 67.76399 31.3 L 67.92099 31.275002 L 68.47499 31.276 L 68.551994 31.302 C 69.25299 31.532 69.732994 32.013 69.938 32.64 L 69.962 32.716 L 69.986 32.871998 L 69.984 33.425 L 69.96 33.503 C 69.539 34.775997 69.669 36.079 70.292 37.150997 C 70.923 38.243996 71.962 38.990997 73.216 39.254997 L 73.29401 39.273 L 73.44001 39.329 L 73.91901 39.602997 L 73.975006 39.665997 C 74.464005 40.214996 74.64101 40.867996 74.506004 41.515995 L 74.490005 41.59399 L 74.43301 41.741993 L 74.156006 42.221992 L 74.09501 42.274994 C 73.09301 43.16999 72.55401 44.36499 72.55401 45.609993 C 72.55401 46.85099 73.09301 48.046993 74.03401 48.886993 L 74.09501 48.941994 L 74.19501 49.064995 L 74.47001 49.543995 L 74.48801 49.62199 C 74.63801 50.348995 74.46501 51.000996 74.02501 51.492992 L 73.97001 51.553993 L 73.84901 51.65399 L 73.37001 51.928993 L 73.29301 51.946995 C 71.97901 52.221996 70.91301 52.987995 70.29201 54.061996 C 69.68001 55.119995 69.54001 56.351 69.89801 57.539 L 69.96701 57.768997 L 69.79701 58.697 L 69.65001 58.89 C 69.20501 59.47 68.43101 59.779 67.41901 59.779 L 67.324 59.773 z " fill-opacity="0.1"/>
<path d="M 67.329 59.273 C 67.329 59.273 66.889 59.21 66.808 59.202 C 66.06 59.0 65.599 58.622 65.433 58.124 L 65.411995 58.064 L 65.371 57.5 C 65.37 52.941 61.838 49.178 57.327003 48.893 L 56.578003 48.845997 L 56.414 48.111996 C 55.738003 45.083996 52.996 42.883995 49.891003 42.883995 C 49.547 42.883995 49.176003 42.920994 48.751003 42.993996 C 48.622 43.02399 48.438004 43.043995 48.254 43.043995 C 47.746 43.043995 47.197 42.897995 46.749 42.639996 L 46.525 42.459995 C 45.329 40.948994 43.838 39.81599 42.15 39.112995 L 41.988003 39.02399 C 41.693005 38.80899 40.946003 38.25399 41.396004 37.460995 C 42.126003 36.206993 42.281 34.772995 41.834003 33.417995 L 41.809 33.341995 L 41.809 32.87 L 41.834003 32.795 C 41.989 32.316998 42.352005 31.954 42.828003 31.798998 L 42.904003 31.773998 L 43.376003 31.773998 L 43.452003 31.797 C 43.963005 31.964998 44.489 32.049 45.014004 32.049 C 45.866005 32.049 46.704 31.821 47.44 31.395 C 48.641003 30.706 49.495003 29.52 49.782 28.145 C 49.84 27.866 50.111 27.354 50.763 27.215 C 50.873 27.193 50.982 27.18 51.088 27.18 C 51.648003 27.18 51.944 27.495 51.998 27.56 C 52.931 28.596 54.263 29.198 55.645 29.198 C 57.026 29.198 58.36 28.596 59.294 27.55 L 59.368 27.468 L 59.472 27.422998 C 59.988 27.201998 60.084 27.201998 60.162 27.201998 C 60.546 27.201998 60.900997 27.338997 61.192 27.596998 L 61.254 27.652 L 61.49 28.061998 L 61.509 28.139996 C 61.795 29.518995 62.65 30.704998 63.849 31.393995 C 64.586 31.823996 65.424995 32.049995 66.275 32.049995 C 66.806 32.049995 67.333 31.963997 67.838005 31.797997 L 67.914 31.772997 L 68.39 31.772997 L 68.463 31.797997 C 68.940994 31.954994 69.301994 32.318996 69.457 32.792995 L 69.47901 32.868996 L 69.47901 33.342995 L 69.455 33.417995 C 69.017 34.751995 69.16 36.203995 69.85401 37.39899 C 70.55701 38.617996 71.71001 39.448994 73.106 39.742996 L 73.184006 39.761 L 73.592 39.994 L 73.645004 40.056 C 73.97901 40.427 74.11301 40.922 74.01 41.411 L 74.0 41.49 L 73.764 41.901 L 73.703 41.955 C 72.656006 42.890003 72.057 44.222 72.057 45.608 C 72.057 46.993 72.659 48.323 73.703 49.258003 L 73.764 49.311005 L 74.0 49.725 L 74.018 49.803 C 74.12 50.290997 73.987 50.784996 73.653 51.157997 L 73.6 51.218 L 73.19 51.454 L 73.11199 51.473 C 71.73899 51.759 70.55299 52.614 69.85999 53.811 C 69.17799 54.987 69.022 56.362 69.42199 57.682 L 69.45699 57.796 L 69.33199 58.483997 L 69.258 58.580997 C 68.81699 59.156 68.01399 59.275 67.42 59.275 L 67.328995 59.275 L 67.328995 59.273 z " fill-opacity="0.15"/>
<path d="M 67.335 58.773 C 67.125 58.743 66.995 58.718 66.863 58.705 C 66.345 58.559 66.015 58.289997 65.908 57.966 L 65.869995 57.462 C 65.869995 52.679996 62.131996 48.692997 57.358994 48.393997 L 56.983994 48.371 L 56.901993 48.003 C 56.173992 44.747997 53.22599 42.385 49.88999 42.385 C 49.51499 42.385 49.11499 42.424 48.66099 42.503 C 48.54599 42.529 48.39999 42.545 48.25099 42.545 C 47.82899 42.545 47.37099 42.421997 46.99499 42.205997 L 46.84899 42.080997 C 45.665993 40.573997 44.10699 39.388996 42.33899 38.651997 L 42.23399 38.590996 C 41.97999 38.402996 41.59499 38.116997 41.82899 37.705997 C 42.62899 36.332996 42.790993 34.731 42.30699 33.260998 L 42.30699 32.948997 C 42.41099 32.625996 42.658993 32.379997 42.98099 32.272 L 43.29399 32.272 C 43.85299 32.454998 44.430992 32.547 45.012993 32.547 C 45.950993 32.547 46.87599 32.297 47.68899 31.825 C 49.012993 31.064 49.95299 29.76 50.26899 28.244 C 50.26899 28.244 50.35899 27.808 50.86799 27.702002 C 51.375988 27.596 51.619987 27.881002 51.619987 27.881002 C 52.65199 29.033005 54.120987 29.694002 55.64599 29.694002 C 57.17099 29.694002 58.63799 29.032 59.668987 27.879002 C 59.668987 27.879002 60.08999 27.699 60.162987 27.699 C 60.422985 27.699 60.663982 27.793 60.861988 27.97 L 61.017982 28.241 C 61.332985 29.760002 62.275986 31.066002 63.597984 31.826 C 64.41099 32.299 65.333984 32.549 66.27399 32.549 C 66.85599 32.549 67.43399 32.454998 67.99499 32.272 L 68.30799 32.272 C 68.635994 32.381 68.87499 32.621 68.982 32.948997 L 68.982 33.261997 C 68.49799 34.733 68.659 36.331997 69.422 37.652996 C 70.196 38.995995 71.46999 39.911995 73.006 40.234997 L 73.277 40.388996 C 73.504 40.643 73.592 40.978996 73.525 41.312996 L 73.371 41.584995 C 72.219 42.613995 71.558 44.081997 71.558 45.610996 C 71.558 47.136 72.218 48.603996 73.371 49.633995 L 73.527 49.904995 C 73.595 50.238995 73.506 50.574993 73.279 50.827995 L 73.008 50.98299 C 71.494 51.298996 70.188995 52.240993 69.424 53.560993 C 68.672 54.85799 68.49999 56.372993 68.94299 57.827995 L 68.86099 58.277996 C 68.52699 58.712997 67.814 58.777996 67.42099 58.777996 L 67.33499 58.777996 L 67.33499 58.773 z " fill-opacity="0.15"/>
<linearGradient gradientTransform="matrix(1 0 0 1 -355.1992 -744.8008)" gradientUnits="userSpaceOnUse" x1="398.4346" x2="398.4346" y1="783.4561" y2="808.4707">
<stop offset="0" stop-color="#f9faee"/>
<stop offset="0.3232" stop-color="#f9faee"/>
<stop offset="1" stop-color="#cecac5"/>
</linearGradient>
<path d="M 50.9375 26.75 C 50.7495 28.571 49.74225 30.265001 48.03125 31.25 C 46.32125 32.242004 44.33425 32.276253 42.65625 31.53125 C 43.40225 33.202255 43.40125 35.19825 42.40625 36.90625 C 42.38325 36.95725 42.3415 37.0135 42.3125 37.0625 C 44.4775 37.8885 46.3365 39.337997 47.6875 41.25 C 48.4215 41.021 49.18275 40.875 49.96875 40.875 C 53.63275 40.875 56.70175 43.47225 57.46875 46.90625 C 62.47275 47.22225 66.46875 51.38675 66.46875 56.46875 C 66.46875 56.70875 66.4555 56.9555 66.4375 57.1875 C 67.2615 57.197495 68.0615 57.3515 68.8125 57.6875 C 68.0625 56.009495 68.09876 54.023495 69.09375 52.3125 C 70.07775 50.6055 71.76775 49.59725 73.59375 49.40625 C 72.11375 48.328247 71.15625 46.56875 71.15625 44.59375 C 71.15625 42.61475 72.11075 40.886497 73.59375 39.8125 C 71.77175 39.6185 70.08275 38.61725 69.09375 36.90625 C 68.10375 35.19825 68.0645 33.20225 68.8125 31.53125 C 67.1325 32.27625 65.1445 32.242996 63.4375 31.25 C 61.7245 30.266 60.72225 28.575 60.53125 26.75 C 59.45725 28.233 57.722 29.1875 55.75 29.1875 C 53.774 29.1875 52.0125 28.229 50.9375 26.75 z M 38.09375 38.65625 C 32.91475 38.65625 28.71875 42.85025 28.71875 48.03125 C 28.71875 48.68125 28.777248 49.3285 28.90625 49.9375 C 25.279247 50.1395 22.375 53.10525 22.375 56.78125 C 22.375 60.58925 25.47625 63.6875 29.28125 63.6875 L 56.875 63.6875 C 60.854 63.6875 64.09375 60.444744 64.09375 56.46875 C 64.09375 52.48675 60.857 49.25 56.875 49.25 C 56.295 49.25 55.7285 49.34175 55.1875 49.46875 C 55.2425 49.17375 55.28125 48.8795 55.28125 48.5625 C 55.28125 45.6445 52.928 43.28125 50.0 43.28125 C 48.771 43.28125 47.645 43.70425 46.75 44.40625 C 45.328995 41.02625 41.98875 38.65625 38.09375 38.65625 z " fill="url(#linearGradient3829)" fill-opacity="1"/>
<path d="M 50.9375 26.75 C 50.7495 28.571 49.74225 30.265001 48.03125 31.25 C 46.32125 32.242004 44.33425 32.276253 42.65625 31.53125 C 43.40225 33.202255 43.40125 35.19825 42.40625 36.90625 C 42.38325 36.95725 42.3415 37.0135 42.3125 37.0625 C 44.4775 37.8885 46.3365 39.337997 47.6875 41.25 C 48.4215 41.021 49.18275 40.875 49.96875 40.875 C 53.63275 40.875 56.70175 43.47225 57.46875 46.90625 C 62.47275 47.22225 66.46875 51.38675 66.46875 56.46875 C 66.46875 56.70875 66.4555 56.9555 66.4375 57.1875 C 67.2615 57.197495 68.0615 57.3515 68.8125 57.6875 C 68.0625 56.009495 68.09876 54.023495 69.09375 52.3125 C 70.07775 50.6055 71.76775 49.59725 73.59375 49.40625 C 72.11375 48.328247 71.15625 46.56875 71.15625 44.59375 C 71.15625 42.61475 72.11075 40.886497 73.59375 39.8125 C 71.77175 39.6185 70.08275 38.61725 69.09375 36.90625 C 68.10375 35.19825 68.0645 33.20225 68.8125 31.53125 C 67.1325 32.27625 65.1445 32.242996 63.4375 31.25 C 61.7245 30.266 60.72225 28.575 60.53125 26.75 C 59.45725 28.233 57.722 29.1875 55.75 29.1875 C 53.774 29.1875 52.0125 28.229 50.9375 26.75 z M 38.09375 38.65625 C 32.91475 38.65625 28.71875 42.85025 28.71875 48.03125 C 28.71875 48.68125 28.777248 49.3285 28.90625 49.9375 C 25.279247 50.1395 22.375 53.10525 22.375 56.78125 C 22.375 60.58925 25.47625 63.6875 29.28125 63.6875 L 56.875 63.6875 C 60.854 63.6875 64.09375 60.444744 64.09375 56.46875 C 64.09375 52.48675 60.857 49.25 56.875 49.25 C 56.295 49.25 55.7285 49.34175 55.1875 49.46875 C 55.2425 49.17375 55.28125 48.8795 55.28125 48.5625 C 55.28125 45.6445 52.928 43.28125 50.0 43.28125 C 48.771 43.28125 47.645 43.70425 46.75 44.40625 C 45.328995 41.02625 41.98875 38.65625 38.09375 38.65625 z " fill="url(#linearGradient3825)" fill-opacity="1"/>
<linearGradient gradientTransform="matrix(1 0 0 1 -355.1992 -744.8008)" gradientUnits="userSpaceOnUse" x1="413.1543" x2="413.1543" y1="771.5381" y2="802.4873">
<stop offset="0" stop-color="#f9faee"/>
<stop offset="0.3232" stop-color="#f9faee"/>
<stop offset="1" stop-color="#cecac5"/>
</linearGradient>
</svg>
