<?xml version="1.0" encoding="UTF-8"?>
<svg xmlns="http://www.w3.org/2000/svg" xmlns:xlink="http://www.w3.org/1999/xlink" baseProfile="tiny" contentScriptType="text/ecmascript" contentStyleType="text/css" height="30px" preserveAspectRatio="xMidYMid meet" version="1.1" viewBox="0 0 30 30" width="30px" x="0px" y="0px" zoomAndPan="magnify">
<path d="M 27.0 9.0 L 19.58 9.001 L 22.188 1.0 L 17.598 1.0 L 14.0 12.0 L 21.553 12.0 L 19.119 18.0 L 16.562 18.0 L 19.562 27.0 L 26.562 18.0 L 23.71 18.0 L 27.0 9.0 z " fill-opacity="0.3"/>
<path d="M 19.563 29.0 C 19.201 29.0 18.867 28.803 18.69 28.484 L 15.690001 19.486 C 15.518001 19.175 15.522 18.798 15.702001 18.494 C 15.882001 18.189999 16.209 18.0 16.563 18.0 L 18.446 18.0 L 20.068998 14.0 L 14.0 14.0 C 13.681 14.0 13.379 13.847 13.19 13.587 C 13.000999 13.327 12.95 12.9939995 13.047999 12.69 L 16.646 1.6899996 C 16.781 1.278 17.165 1.0 17.598 1.0 L 22.189999 1.0 C 22.508999 1.0 22.810999 1.153 22.999998 1.413 C 23.187998 1.6719999 23.238998 2.006 23.141998 2.309 L 20.959 9.0 L 27.0 9.0 C 27.326 9.0 27.633 9.159 27.818 9.427 C 28.006 9.695 28.050001 10.036 27.939001 10.343 L 25.141 18.0 L 26.563002 18.0 C 26.917002 18.0 27.247002 18.188 27.425001 18.492 C 27.606 18.797 27.61 19.176 27.438002 19.484001 L 20.438002 28.484001 C 20.262 28.803 19.926 29.0 19.563 29.0 L 19.563 29.0 z " fill-opacity="0.15"/>
<path d="M 27.0 10.0 L 19.58 10.001 L 22.188 2.0 L 17.598 2.0 L 14.0 13.0 L 21.553 13.0 L 19.119 19.0 L 16.562 19.0 L 19.562 28.0 L 26.562 19.0 L 23.71 19.0 L 27.0 10.0 z " fill="#dedede"/>
<rect fill="none" height="30" width="30"/>
<path d="M 10.547 29.0 L 9.769 25.705 L 7.014 25.705 L 6.203 29.0 L 0.848 29.0 L 5.867 11.1 L 11.769 11.1 L 16.463 29.0 L 10.547 29.0 z M 8.868 21.604 L 8.404 19.575 L 7.9280005 21.604 L 8.868 21.604 z " fill-opacity="0.15" stroke-opacity="0.15"/>
<path d="M 11.338 27.0 L 10.56 23.705 L 6.2300005 23.705 L 5.419 27.0 L 2.167 27.0 L 6.6239996 11.1 L 10.997 11.1 L 15.167 27.0 L 11.338 27.0 z M 10.122 21.604 L 8.415999 14.139 L 6.6669993 21.604 L 10.122 21.604 z " fill-opacity="0.3" stroke-opacity="0.3"/>
<path d="M 11.338 28.0 L 10.56 24.705 L 6.2300005 24.705 L 5.419 28.0 L 2.167 28.0 L 6.6239996 12.1 L 10.997 12.1 L 15.167 28.0 L 11.338 28.0 z M 10.122 22.604 L 8.415999 15.139 L 6.6669993 22.604 L 10.122 22.604 z " fill="#dedede"/>
</svg>
