<?xml version="1.0" encoding="UTF-8"?>
<svg xmlns="http://www.w3.org/2000/svg" xmlns:xlink="http://www.w3.org/1999/xlink" baseProfile="tiny" contentScriptType="text/ecmascript" contentStyleType="text/css" height="30px" preserveAspectRatio="xMidYMid meet" version="1.1" viewBox="0 0 30 30" width="30px" x="0px" y="0px" zoomAndPan="magnify">
<path d="M 10.371 29.031 C 10.087 29.031 9.808001 28.965 9.538 28.828001 C 8.704 28.535002 5.339 27.215 5.513 25.338001 C 5.557 24.856 5.718 24.438002 5.862 24.070002 C 5.959 23.820002 6.05 23.586002 6.07 23.410002 C 6.155 22.681002 5.7840004 22.080002 5.1740003 21.160002 C 4.8750005 20.709002 4.5670004 20.244001 4.32 19.717001 C 3.9620001 19.375 3.5030003 19.178001 2.861 19.082 L 2.6620002 19.053001 C 1.8950002 18.944002 0.29900026 18.713001 0.24100018 16.801 L 0.212 16.0 C 0.189 15.442 0.166 14.882 0.167 14.326 C 0.17199999 12.314 1.2839999 11.909 2.625 11.615 C 3.514 11.422999 3.9320002 11.045 4.419 9.99 C 4.583 9.636 4.781 9.297 4.978 8.96 C 5.505 8.065001 5.769 7.5690002 5.525 6.9449997 L 5.387 6.6049995 C 5.007 5.681 4.372 4.136 6.207 3.0 L 6.8619995 2.587 C 7.2809997 2.3209999 7.6999993 2.0559998 8.129 1.8089999 C 8.672 1.497 9.138 1.351 9.6 1.351 C 10.594001 1.351 11.196 2.017 11.779 2.662 L 11.885 2.777 C 12.269 3.202 12.711 3.3669999 13.458 3.3669999 C 13.646 3.3669999 13.839 3.356 14.038 3.3419998 C 14.34 3.3189998 14.647 3.3149998 14.955 3.3149998 L 15.261 3.3149998 C 16.317999 3.3149998 16.822 3.238 17.203 2.7599998 C 17.286 2.6549997 17.366 2.5459998 17.448 2.4389997 C 17.907999 1.8199997 18.538 0.9699997 19.647 0.9699997 C 20.018 0.9699997 20.394 1.0719997 20.771 1.2709997 L 21.407999 1.6049997 C 21.928999 1.8769996 22.450998 2.1489997 22.956999 2.4429996 C 24.832998 3.5389996 24.409998 4.8639994 24.072998 5.9279995 C 23.757998 6.9239993 24.028997 7.4389997 24.856998 8.782 C 24.978998 8.981 25.069998 9.132999 25.159998 9.285 C 25.696999 10.197 26.007998 10.6779995 26.667997 10.778999 L 27.026997 10.829999 C 28.016996 10.960999 29.670998 11.181999 29.743996 13.333999 L 29.812996 15.565999 C 30.045996 17.56 28.226995 18.123 27.249996 18.422998 C 26.745996 18.576998 26.226995 18.738998 25.981997 18.984 C 25.737997 19.226 25.542997 19.671999 25.335997 20.144 C 25.147997 20.575998 24.951996 21.021 24.670996 21.432999 C 24.396996 21.838999 24.317995 22.252998 24.418995 22.819998 C 24.450994 22.997997 24.559996 23.227997 24.670996 23.473997 C 24.838995 23.832996 25.026997 24.239998 25.101995 24.721996 C 25.392996 26.576996 22.121996 28.108997 21.303995 28.455996 C 21.006994 28.627996 20.695995 28.715996 20.371996 28.715996 L 20.371996 28.715996 C 19.386995 28.713995 18.741997 27.918995 18.312996 27.393995 C 18.202995 27.254995 18.100996 27.120995 17.999996 27.032995 C 17.633997 26.669994 17.304996 26.557995 16.687996 26.557995 C 16.454996 26.557995 16.215996 26.573996 15.9699955 26.586994 C 15.768995 26.598993 15.563995 26.609995 15.356996 26.615993 C 15.163996 26.623993 14.976995 26.627993 14.793996 26.629993 C 13.727996 26.641993 13.272996 26.668993 12.742996 27.197994 C 12.6469965 27.293995 12.553996 27.433994 12.450996 27.578995 C 12.039 28.158 11.418 29.031 10.371 29.031 L 10.371 29.031 z " fill-opacity="0.15"/>
<path d="M 28.756 14.539 C 28.735 13.794999 28.713001 13.054999 28.689001 12.309999 C 28.639002 10.898 27.685001 10.945999 26.509 10.768 C 25.135 10.556999 24.645 9.391999 23.988 8.327999 C 23.171001 7.0029993 22.583 6.076999 23.065 4.549999 C 23.42 3.4289992 23.51 2.9349992 22.424 2.3009992 C 21.726 1.8929992 20.993 1.5299991 20.278 1.1499991 C 19.157 0.5549991 18.664999 1.5779991 18.035 2.3639991 C 17.038 3.6099992 15.525 3.2289991 14.125 3.341999 C 12.936 3.434999 11.932 3.345999 11.104 2.434999 C 10.26 1.504 9.866 0.976 8.661 1.667 C 8.018 2.04 7.399 2.453 6.769 2.841 C 5.564 3.587 6.084 4.393 6.516 5.5 C 7.108 7.012 5.9789996 8.088 5.3859997 9.374001 C 4.811 10.618 4.1709995 11.308001 2.8539996 11.593 C 1.7049996 11.843 1.2339996 12.014 1.2309996 13.27 C 1.2289996 14.082001 1.2799996 14.895 1.3049996 15.708 C 1.3389996 16.815 2.1229997 16.835001 3.0209994 16.972 C 3.8499994 17.097 4.6109996 17.394001 5.2139997 18.052 C 5.857 19.572 7.3289995 20.73 7.1259995 22.472 C 7.0519996 23.113 6.6319995 23.724 6.5729995 24.376 C 6.4879994 25.286 9.198999 26.612 9.978 26.802 C 10.924999 27.308 11.478 25.906 11.997999 25.388 C 12.996999 24.394001 14.007999 24.544 15.327 24.501001 C 16.579 24.460001 17.723 24.198002 18.704 25.179 C 19.25 25.658 19.9 27.029001 20.807001 26.462002 C 21.576 26.222002 24.2 24.735003 24.055 23.825 C 23.953001 23.175001 23.492 22.589 23.378 21.946001 C 23.236 21.153002 23.345 20.444 23.798 19.78 C 24.336 18.989 24.572 17.835001 25.236 17.175001 C 26.364 16.049 28.981 16.494 28.756 14.539 M 14.958 21.641 C 10.77 21.641 7.27 18.145 7.27 13.954 C 7.27 9.765 10.768 6.2650003 14.958 6.2650003 C 19.148 6.2650003 22.647 9.765 22.647 13.954 C 22.646 18.145 19.146 21.641 14.958 21.641 " fill-opacity="0.3"/>
<path d="M 28.756 15.598 C 28.735 14.855 28.713001 14.113999 28.689001 13.37 C 28.639002 11.958 27.685001 12.006 26.509 11.827 C 25.135 11.615999 24.645 10.452 23.988 9.388 C 23.171001 8.063 22.583 7.1369996 23.065 5.6089993 C 23.42 4.4889994 23.51 3.9949994 22.424 3.3599992 C 21.726 2.9519992 20.993 2.5889993 20.278 2.2089992 C 19.157 1.6139991 18.664999 2.637999 18.035 3.4239993 C 17.038 4.669999 15.525 4.287999 14.125 4.400999 C 12.936 4.494999 11.932 4.405999 11.104 3.494999 C 10.26 2.565 9.866 2.037 8.661 2.728 C 8.018 3.099 7.399 3.513 6.769 3.902 C 5.564 4.647 6.084 5.454 6.516 6.56 C 7.108 8.071 5.9789996 9.148 5.3859997 10.434 C 4.811 11.6779995 4.1709995 12.368 2.8539996 12.652 C 1.7049996 12.902 1.2339996 13.074 1.2309996 14.329 C 1.2289996 15.142 1.2799996 15.955001 1.3049996 16.766 C 1.3389996 17.875 2.1229997 17.895 3.0209994 18.032001 C 3.8499994 18.157001 4.6109996 18.452002 5.2139997 19.112001 C 5.857 20.630001 7.3289995 21.79 7.1259995 23.532001 C 7.0519996 24.173002 6.6319995 24.784002 6.5729995 25.436 C 6.4879994 26.346 9.198999 27.672 9.978 27.862001 C 10.924999 28.366001 11.478 26.966002 11.997999 26.45 C 12.996999 25.454 14.007999 25.604 15.327 25.561 C 16.579 25.52 17.723 25.258001 18.704 26.239 C 19.25 26.718 19.9 28.089 20.807001 27.522 C 21.576 27.282 24.2 25.795 24.055 24.884998 C 23.953001 24.234999 23.492 23.648998 23.378 23.005999 C 23.236 22.213 23.345 21.503998 23.798 20.839998 C 24.336 20.048998 24.572 18.894999 25.236 18.234999 C 26.364 17.109 28.981 17.555 28.756 15.598 M 14.958 22.701 C 10.77 22.701 7.27 19.203001 7.27 15.014 C 7.27 10.825 10.768 7.325 14.958 7.325 C 19.148 7.325 22.647 10.825 22.647 15.014 C 22.646 19.203 19.146 22.701 14.958 22.701 " fill="#dedede"/>
<rect fill="none" height="30" width="30"/>
</svg>
