<?xml version="1.0" encoding="UTF-8"?>
<svg xmlns="http://www.w3.org/2000/svg" xmlns:xlink="http://www.w3.org/1999/xlink" baseProfile="tiny" contentScriptType="text/ecmascript" contentStyleType="text/css" height="30px" preserveAspectRatio="xMidYMid meet" version="1.1" viewBox="0 0 30 30" width="30px" x="0px" y="0px" zoomAndPan="magnify">
<rect fill="none" height="30" width="30"/>
<path d="M 7.189 29.0 C 7.027 29.0 6.862 28.98 6.701 28.941 C 4.5720005 28.435 3.0060003 27.365 2.0430002 25.759 C 0.3510002 22.939001 1.2180002 19.521 1.2550002 19.376001 C 2.0700002 15.017001 5.0550003 11.313002 6.8380003 9.431002 C 6.871 9.383 6.91 9.337 6.953 9.294 L 8.797 7.4489994 C 8.826 7.418999 8.859 7.3909993 8.891 7.365999 C 10.194 6.0479994 14.372 2.190999 19.446999 1.2409992 C 19.446 1.2409992 19.446 1.2409992 19.446 1.2409992 C 19.435999 1.2409992 20.383999 0.9999992 21.655998 0.9999992 C 23.869999 0.9999992 27.759998 1.7409992 28.941998 6.7009993 C 29.254997 8.013 28.280998 8.921999 27.655998 9.252999 C 27.617998 9.273 27.578999 9.290999 27.537998 9.306 L 23.276999 10.896999 C 22.909998 11.0789995 22.534998 11.171999 22.163998 11.171999 L 22.163998 11.171999 C 21.352997 11.171999 20.832998 10.745999 20.630997 10.541999 C 20.630997 10.541999 18.557997 8.822999 18.549997 8.817999 C 18.545998 8.814999 18.389997 8.713999 18.028997 8.713999 C 17.253998 8.713999 15.486998 9.164999 12.370997 12.186998 C 12.357998 12.198998 12.103997 12.449999 12.103997 12.449999 C 7.8799973 16.807999 8.686997 18.508999 8.748997 18.619999 L 10.527997 20.609999 C 10.962997 21.026999 11.516997 22.032 10.899997 23.276 L 9.303997 27.539999 C 9.288997 27.578999 9.271997 27.617998 9.251997 27.654999 C 9.18 27.794 8.506 29.0 7.189 29.0 L 7.189 29.0 z M 23.0 28.0 C 22.447 28.0 22.0 27.553 22.0 27.0 C 22.0 27.553 21.553 28.0 21.0 28.0 L 17.0 28.0 C 16.447 28.0 16.0 27.553 16.0 27.0 L 16.0 18.0 C 16.0 17.447 16.447 17.0 17.0 17.0 L 21.0 17.0 C 21.553 17.0 22.0 17.447 22.0 18.0 C 22.0 17.447 22.447 17.0 23.0 17.0 L 27.0 17.0 C 27.553 17.0 28.0 17.447 28.0 18.0 L 28.0 27.0 C 28.0 27.553 27.553 28.0 27.0 28.0 L 23.0 28.0 z " fill-opacity="0.15"/>
<path d="M 17.0 26.0 L 21.0 26.0 L 21.0 17.0 L 17.0 17.0 L 17.0 26.0 z M 27.969 5.933 C 26.421999 -0.559 19.630001 1.224 19.630001 1.224 C 14.766001 2.134 10.748001 5.892 9.512001 7.161 L 9.504 7.156 L 7.66 9.0 L 7.6689997 9.009 C 6.1099997 10.634 3.0349998 14.296 2.2229996 18.631 C 2.2229996 18.631 0.44399953 25.424 6.9329996 26.969002 C 7.8429995 27.186 8.368 26.190002 8.368 26.190002 L 9.983 21.876003 C 10.497 20.894003 9.815 20.315002 9.815 20.315002 L 7.936 18.213003 C 8.12 18.371004 5.899 16.416002 11.398 10.744003 L 11.398 10.742003 L 11.672 10.469004 L 11.674 10.470004 C 17.348 4.969004 19.300999 7.1900043 19.143 7.010004 L 21.314 8.812004 C 21.314 8.812004 21.893 9.4970045 22.873999 8.982004 L 27.188 7.371004 C 27.188 7.37 28.186 6.841 27.969 5.933 z M 23.0 26.0 L 27.0 26.0 L 27.0 17.0 L 23.0 17.0 L 23.0 26.0 z " fill-opacity="0.3"/>
<path d="M 17.0 27.0 L 21.0 27.0 L 21.0 18.0 L 17.0 18.0 L 17.0 27.0 z M 27.969 6.934 C 26.421999 0.4419999 19.630001 2.225 19.630001 2.225 C 14.766001 3.135 10.748001 6.893 9.512001 8.162 L 9.504 8.156 L 7.66 10.001 L 7.6689997 10.01 C 6.1099997 11.635 3.0349998 15.297001 2.2229996 19.631 C 2.2229996 19.631 0.44399953 26.424 6.9329996 27.969002 C 7.8429995 28.186 8.368 27.191002 8.368 27.191002 L 9.983 22.876001 C 10.497 21.894001 9.815 21.315 9.815 21.315 L 7.936 19.213001 C 8.12 19.372002 5.899 17.416 11.398 11.744001 L 11.398 11.742002 L 11.672 11.469002 L 11.674 11.470002 C 17.348 5.9690022 19.300999 8.190002 19.143 8.010002 L 21.314 9.812002 C 21.314 9.812002 21.893 10.497003 22.873999 9.982002 L 27.188 8.371002 C 27.188 8.37 28.186 7.842 27.969 6.934 z M 23.0 27.0 L 27.0 27.0 L 27.0 18.0 L 23.0 18.0 L 23.0 27.0 z " fill="#dedede"/>
</svg>
