<?xml version="1.0" encoding="UTF-8"?>
<svg xmlns="http://www.w3.org/2000/svg" xmlns:xlink="http://www.w3.org/1999/xlink" baseProfile="tiny" contentScriptType="text/ecmascript" contentStyleType="text/css" height="30px" preserveAspectRatio="xMidYMid meet" version="1.1" viewBox="0 0.032 30 30" width="30px" x="0px" y="0px" zoomAndPan="magnify">
<rect fill="none" height="30" width="30" y="0.032"/>
<path d="M 20.039 0.0 L 9.025 0.0 C 8.473 0.0 8.025 0.448 8.025 1.0 L 8.025 28.024 L 14.532 21.219 L 21.039 28.032 L 21.039 1.0 C 21.039 0.448 20.592 0.0 20.039 0.0 z " fill-opacity="0.3" stroke-opacity="0.3"/>
<path d="M 20.039 1.0 L 9.025 1.0 C 8.473 1.0 8.025 1.448 8.025 2.0 L 8.025 29.024 L 14.532 20.219 L 21.039 29.032 L 21.039 2.0 C 21.039 1.448 20.592 1.0 20.039 1.0 z " fill-opacity="0.15" stroke-opacity="0.15"/>
<path d="M 20.039 1.0 L 9.025 1.0 C 8.473 1.0 8.025 1.448 8.025 2.0 L 8.025 29.024 L 14.532 22.219 L 21.039 29.032 L 21.039 2.0 C 21.039 1.448 20.592 1.0 20.039 1.0 z " fill-opacity="0.15" stroke-opacity="0.15"/>
<path d="M 21.039 30.032 C 20.771 30.032 20.508999 29.925 20.316 29.722 L 14.531 23.666 L 8.747 29.715 C 8.554999 29.916 8.292 30.024 8.024 30.024 C 7.899 30.024 7.7730002 30.001 7.651 29.952 C 7.272 29.801 7.024 29.432 7.024 29.024 L 7.024 2.0 C 7.024 0.89699996 7.921 0.0 9.024 0.0 L 20.038 0.0 C 21.141 0.0 22.038 0.897 22.038 2.0 L 22.038 29.032 C 22.038 29.439999 21.789 29.807999 21.41 29.96 C 21.29 30.008 21.164 30.032 21.039 30.032 L 21.039 30.032 z " fill-opacity="0.15" stroke-opacity="0.15"/>
<path d="M 20.039 1.0 L 9.025 1.0 C 8.473 1.0 8.025 1.448 8.025 2.0 L 8.025 29.024 L 14.532 22.219 L 21.039 29.032 L 21.039 2.0 C 21.039 1.448 20.592 1.0 20.039 1.0 z " fill-opacity="0.15" stroke-opacity="0.15"/>
<path d="M 20.039 1.0 L 9.025 1.0 C 8.473 1.0 8.025 1.448 8.025 2.0 L 8.025 29.024 L 14.532 22.219 L 21.039 29.032 L 21.039 2.0 C 21.039 1.448 20.592 1.0 20.039 1.0 z " fill="#dedede"/>
</svg>
