<?xml version="1.0" encoding="UTF-8"?>
<svg xmlns="http://www.w3.org/2000/svg" xmlns:xlink="http://www.w3.org/1999/xlink" baseProfile="tiny" contentScriptType="text/ecmascript" contentStyleType="text/css" height="30px" preserveAspectRatio="xMidYMid meet" version="1.1" viewBox="0 0 30 30" width="30px" x="0px" y="0px" zoomAndPan="magnify">
<path d="M 22.430147 0.6194242 C 21.143509 0.6194242 20.064934 1.6979996 20.064934 2.9846387 L 20.064934 5.214698 L 17.868664 5.214698 C 16.582024 5.214698 15.503448 6.2932725 15.503448 7.579912 C 15.503448 8.866552 16.582026 9.945127 17.868664 9.945127 L 20.064934 9.945127 L 20.064934 12.141397 C 20.064934 13.428037 21.14351 14.506612 22.430147 14.506612 C 23.716784 14.506612 24.795362 13.428037 24.795362 12.141397 L 24.795362 9.945127 L 27.02542 9.945127 C 28.31206 9.945127 29.390636 8.866551 29.390636 7.579912 C 29.390636 6.2932734 28.31206 5.214698 27.02542 5.214698 L 24.795362 5.214698 L 24.795362 2.9846387 C 24.795362 1.6979996 23.716787 0.61942434 22.430147 0.61942434 z M 8.948428 6.53246 C 8.638594 6.621013 8.433081 6.7026253 8.34023 6.735193 C 8.24738 6.76776 8.304616 6.760658 8.374019 6.768982 C 7.8650937 6.707418 7.33784 6.735767 6.887313 7.039293 C 6.4570966 7.329134 6.29922 7.70602 6.2453256 7.816434 C 6.2427855 7.821644 6.2136216 7.84623 6.2115364 7.850223 C 6.1640806 7.948006 6.2053165 7.905819 6.1777472 7.9853783 C 5.735346 8.244172 5.4292307 8.457466 5.3668165 8.559788 C 5.3593364 8.571871 5.3741765 8.58155 5.3668165 8.593576 C 5.3605967 8.603977 5.2992387 8.661154 5.2992387 8.661154 L 5.333028 8.661154 C 4.142544 10.653766 4.4182096 11.903694 4.386943 12.783384 C 4.372579 13.226294 4.5537386 13.706536 4.6572533 14.168723 C 4.6334214 14.202933 4.575344 14.200633 4.5558867 14.236303 C 4.4782376 14.378673 4.5184827 14.508178 4.488309 14.641768 C 4.480509 14.676278 4.459916 14.709238 4.4545197 14.743135 C 4.425334 14.824955 4.3671446 14.917601 4.353153 15.013446 C 4.343573 15.079096 4.355153 15.148833 4.353153 15.216178 C 4.3511534 15.283518 4.348493 15.347159 4.353153 15.418911 C 4.3717904 15.705919 4.4398174 16.05796 4.5896745 16.533941 C 4.5968146 16.55685 4.6778603 17.061789 4.8261957 17.547604 C 4.900364 17.790512 4.929713 18.037266 5.3330274 18.426111 C 5.3656936 18.457611 5.459261 18.462002 5.5019712 18.49369 C 5.5553675 18.710358 5.5509634 18.765331 5.670915 19.101889 C 5.8367825 19.567272 6.2300434 20.111595 6.617001 20.622383 C 6.607 20.713083 6.541853 20.922976 6.481846 21.163004 L 6.515635 21.163004 C 6.472562 21.324532 6.479481 21.304676 6.448057 21.399529 C 6.416633 21.494375 6.353371 21.613035 6.2791133 21.737411 C 6.1305976 21.986174 5.9193497 22.270653 5.400605 22.480766 C 5.400605 22.480766 3.95091 23.03283 2.4609816 23.899897 C 2.426499 23.919964 2.4279397 23.913263 2.3934035 23.933683 C 2.286749 23.975023 1.1024992 24.467602 0.7039648 25.893436 L 0.7039648 25.927223 C 0.6989148 25.946123 0.6749329 25.941795 0.67017585 25.961016 L 0.67017585 25.994806 C 0.49141815 26.53619 0.71713984 27.12871 1.2107962 27.413937 C 2.1223383 27.942965 3.1876626 28.349432 4.3869414 28.66412 C 7.193966 29.39499 9.238207 29.397556 10.50271 29.373684 C 10.5200205 29.373358 10.55327 29.374008 10.570291 29.373684 C 11.836291 29.398624 13.847013 29.394224 16.652271 28.66412 C 17.764051 28.373116 18.73893 27.99234 19.591894 27.5153 C 20.03922 27.269705 20.282978 26.768652 20.200092 26.265116 L 20.166302 26.062384 C 20.167702 26.028605 20.167702 25.994793 20.166302 25.961018 C 19.796171 24.465508 18.551971 23.975897 18.443075 23.933693 C 18.408516 23.91324 18.409996 23.92 18.375496 23.8999 C 16.884874 23.031336 15.435873 22.480772 15.435873 22.480772 C 15.326544 22.438042 15.221825 22.398705 15.131774 22.345615 C 15.120544 22.337818 15.109264 22.320238 15.097984 22.311829 C 14.876766 22.146936 14.648366 21.863611 14.489786 21.602262 C 14.406456 21.464924 14.363542 21.324968 14.320842 21.230589 C 14.288812 21.159798 14.284232 21.149286 14.287052 21.163008 C 14.233942 20.949074 14.191632 20.74119 14.185686 20.656178 C 14.179786 20.571156 14.345103 20.747429 13.915376 21.163008 L 13.881586 21.129215 C 14.04331 20.98066 14.062302 20.816208 14.185685 20.656176 C 14.584997 20.138248 14.963298 19.57493 15.131771 19.101892 C 15.225231 18.839466 15.214431 18.82701 15.266926 18.628847 C 15.275226 18.62385 15.292816 18.634048 15.300715 18.628847 C 15.845932 18.273657 15.879305 17.964298 15.97649 17.716553 C 16.170862 17.221064 16.260612 16.709553 16.314379 16.533945 C 16.509905 15.893073 16.618477 15.486493 16.618477 15.486493 C 16.620977 15.441473 16.620977 15.396353 16.618477 15.351338 C 16.653366 15.0620365 16.676357 14.761237 16.51711 14.405252 C 16.484741 14.332872 16.396532 14.304037 16.348167 14.236308 C 16.440687 13.777134 16.5498 13.364011 16.5509 12.648235 C 16.554699 11.649166 16.738373 10.499527 15.43587 8.526005 C 15.120707 8.0459795 14.567648 7.6667337 14.016744 7.444757 C 13.46584 7.2227807 12.806513 7.044888 11.752896 6.701404 C 10.522365 6.29914 9.566668 6.3557615 8.948428 6.53246 z M 6.6845794 20.757536 C 6.787119 20.881432 6.794559 21.012829 6.921101 21.129211 L 6.887312 21.163002 C 6.543548 20.834856 6.65913 20.792208 6.6845794 20.757536 z " fill="#000000" fill-opacity="0.15686275"/>
<rect fill="none" height="30" width="30"/>
<path d="M 22.43668 13.296845 C 4.1226807 27.79543 13.279681 20.546137 22.43668 13.296845 z M 16.351852 26.359304 C 13.647104 27.063248 11.7848 27.048368 10.522278 27.023184 C 9.260902 27.047224 7.398597 27.063244 4.694992 26.359304 C 3.586996 26.06857 2.6381023 25.690842 1.833431 25.223837 L 1.856323 25.10594 C 2.0543437 24.305847 3.0032375 23.82625 3.0032375 23.82625 C 4.4248614 22.986095 5.8316064 22.435532 5.8316064 22.435532 C 7.374562 21.810564 7.621801 20.52286 7.672164 20.334 C 7.795783 19.839523 7.9045234 19.318716 7.728251 19.150455 C 6.852612 18.383556 6.509224 16.561314 6.509224 16.561314 C 6.4909096 16.507515 6.474885 16.457151 6.458861 16.407934 C 6.0170364 16.828014 5.9002843 15.502538 5.751483 15.025229 C 5.491653 14.199954 5.5546074 14.006512 5.5546074 14.006512 C 5.523703 13.387271 5.9746847 13.601315 5.9746847 13.601315 L 6.0078797 13.649384 C 5.68395 12.774897 5.5797896 12.305601 5.600393 11.670334 C 5.6427436 10.478779 5.2135096 9.917913 6.3661466 8.055609 C 6.3661466 8.055609 6.5378404 7.754572 6.923579 7.7351127 C 7.3093185 7.7213774 7.1753983 7.5176353 7.3093185 7.262383 C 7.444383 7.003698 7.5439663 6.715252 8.2536335 6.8010993 C 8.9598675 6.8858023 9.260904 6.002151 11.396772 6.7003717 C 13.5315 7.396304 14.04658 7.490163 14.418583 8.056752 C 15.625021 9.88472 15.334283 10.320821 15.329705 11.513518 C 15.3285055 12.288429 15.082466 12.8115225 15.018368 13.669992 L 15.050418 13.628781 C 15.050418 13.628781 15.515136 13.445642 15.440735 14.062596 C 15.440735 14.062596 15.360615 14.457491 15.1751795 15.065288 C 14.99891 15.641033 14.777996 16.890965 14.348762 16.35986 C 14.324721 16.4251 14.301831 16.489204 14.275512 16.564747 C 14.275512 16.564747 13.933269 18.386988 13.056486 19.153889 C 12.882503 19.322147 12.990096 19.8441 13.112566 20.337433 C 13.156066 20.498823 13.597888 21.570192 14.465514 22.172264 C 14.622325 22.269554 14.792875 22.36113 14.992039 22.438965 C 14.992039 22.438965 16.39878 22.988384 17.820408 23.829683 C 17.820408 23.829683 18.769302 24.30928 18.967323 25.109371 L 19.002804 25.31884 C 18.249643 25.740065 17.37515 26.09146 16.351854 26.359304 z M 27.015182 5.2844753 L 23.58131 5.2844753 L 23.58131 1.850601 C 23.58131 1.2176237 23.069662 0.7059761 22.436684 0.7059761 C 21.803703 0.7059761 21.29206 1.2176236 21.29206 1.850601 L 21.29206 5.2844753 L 17.858185 5.2844753 C 17.225208 5.2844753 16.71356 5.796123 16.71356 6.4290996 C 16.71356 7.0620785 17.225206 7.5737247 17.858185 7.5737247 L 21.29206 7.5737247 L 21.29206 11.0076 C 21.29206 11.640578 21.803707 12.152225 22.436686 12.152225 C 23.069664 12.152225 23.58131 11.640578 23.58131 11.0076 L 23.58131 7.5737247 L 27.015186 7.5737247 C 27.648165 7.5737247 28.15981 7.0620785 28.15981 6.429099 C 28.15981 5.7961226 27.648165 5.284475 27.015186 5.284475 z " fill-opacity="0.3"/>
<path d="M 16.351852 27.503927 C 13.647105 28.207874 11.7848 28.192991 10.522279 28.167812 C 9.260903 28.19185 7.3985977 28.207874 4.694993 27.503927 C 3.586996 27.213194 2.6381023 26.835468 1.833431 26.36846 L 1.856323 26.250565 C 2.054344 25.450472 3.0032375 24.970877 3.0032375 24.970877 C 4.4248624 24.13072 5.8316064 23.580154 5.8316064 23.580154 C 7.374561 22.95519 7.6218 21.667488 7.672164 21.478622 C 7.795784 20.984144 7.904523 20.463345 7.72825 20.295078 C 6.852612 19.52818 6.5092244 17.705936 6.5092244 17.705936 C 6.4909096 17.652136 6.4748855 17.601776 6.458862 17.552555 C 6.0170364 17.97264 5.9002843 16.647161 5.751483 16.169855 C 5.491653 15.344579 5.5546074 15.151138 5.5546074 15.151138 C 5.523703 14.531896 5.9746847 14.745941 5.9746847 14.745941 L 6.0078797 14.794011 C 5.68395 13.919521 5.579789 13.450225 5.600393 12.814959 C 5.6427436 11.6234045 5.2135096 11.062538 6.3661466 9.200233 C 6.3661466 9.200233 6.5378404 8.899199 6.923579 8.879739 C 7.3093185 8.866003 7.1753983 8.662259 7.3093185 8.407009 C 7.444383 8.148323 7.5439663 7.8598766 8.2536335 7.945724 C 8.9598675 8.030426 9.260904 7.146776 11.396772 7.844997 C 13.5315 8.540929 14.04658 8.6347885 14.418583 9.201378 C 15.625021 11.029344 15.334283 11.465445 15.329705 12.658145 C 15.3285055 13.433057 15.082466 13.956148 15.018368 14.814617 L 15.050418 14.773417 C 15.050418 14.773417 15.515136 14.590277 15.440735 15.20723 C 15.440735 15.20723 15.360615 15.602125 15.1751795 16.209923 C 14.99891 16.785671 14.777996 18.0356 14.348762 17.504496 C 14.324721 17.569736 14.301831 17.633837 14.275512 17.709385 C 14.275512 17.709385 13.933269 19.531628 13.056486 20.298525 C 12.882503 20.466784 12.990096 20.988731 13.112566 21.482067 C 13.156066 21.643456 13.597888 22.71483 14.465514 23.316902 C 14.622325 23.414192 14.792875 23.505762 14.992039 23.5836 C 14.992039 23.5836 16.39878 24.133018 17.820408 24.97432 C 17.820408 24.97432 18.769302 25.453917 18.967323 26.254011 L 19.002804 26.463474 C 18.249643 26.884695 17.37515 27.236095 16.351854 27.50394 z M 27.015182 6.4291134 L 23.58131 6.4291134 L 23.58131 2.9952383 C 23.58131 2.3622608 23.069662 1.8506136 22.436684 1.8506136 C 21.803703 1.8506136 21.29206 2.3622608 21.29206 2.9952383 L 21.29206 6.4291134 L 17.858185 6.4291134 C 17.225208 6.4291134 16.71356 6.94076 16.71356 7.573738 C 16.71356 8.206716 17.225206 8.718363 17.858185 8.718363 L 21.29206 8.718363 L 21.29206 12.152237 C 21.29206 12.785213 21.803707 13.296863 22.436686 13.296863 C 23.069664 13.296863 23.58131 12.785214 23.58131 12.152237 L 23.58131 8.718363 L 27.015186 8.718363 C 27.648165 8.718363 28.15981 8.206717 28.15981 7.5737386 C 28.15981 6.9407606 27.648165 6.429114 27.015186 6.429114 z " fill="#dedede"/>
</svg>
