<?xml version="1.0" encoding="UTF-8"?>
<svg xmlns="http://www.w3.org/2000/svg" xmlns:xlink="http://www.w3.org/1999/xlink" baseProfile="tiny" contentScriptType="text/ecmascript" contentStyleType="text/css" height="260px" preserveAspectRatio="xMidYMid meet" version="1.1" viewBox="0 0 260 260" width="260px" x="0px" y="0px" zoomAndPan="magnify">
<defs>
<linearGradient id="linearGradient3792">
<stop offset="0" stop-color="#6d84b3" stop-opacity="1"/>
<stop offset="1" stop-color="#4869b7" stop-opacity="1"/>
</linearGradient>
<linearGradient gradientTransform="matrix(0,1,-1,0,260.00299,0.001993)" gradientUnits="userSpaceOnUse" id="linearGradient3798" x1="21.667" x2="238.334" y1="130.00249" y2="130.00249">
<stop offset="0" stop-color="#6d84b3" stop-opacity="1"/>
<stop offset="1" stop-color="#4869b7" stop-opacity="1"/>
</linearGradient>
</defs>
<rect fill="none" height="260" width="260"/>
<path d="M 238.334 132.7 C 238.334 212.971 210.267 241.035 130.0 241.035 C 49.739 241.035 21.667 212.972 21.667 132.70001 C 21.667 52.449 49.739 24.375 130.0 24.375 C 210.264 24.375 238.334 52.451 238.334 132.7 z " fill-opacity="0.4"/>
<linearGradient gradientTransform="matrix(1 0 0 -1 -2455.7871 -2953.9688)" gradientUnits="userSpaceOnUse" x1="2585.7871" x2="2585.7871" y1="-3192.3086" y2="-2975.6333">
<stop offset="0" stop-color="#0f1c48"/>
<stop offset="1" stop-color="#7795d2"/>
</linearGradient>
<path d="M 130.00499 238.336 C 49.73799 238.336 21.662987 210.269 21.662987 130.002 C 21.662987 49.740997 49.737988 21.668999 130.005 21.668999 C 210.255 21.668999 238.33801 49.740997 238.33801 130.002 C 238.338 210.26599 210.25499 238.336 130.00499 238.336 z " fill="url(#linearGradient3798)" fill-opacity="1"/>
<linearGradient gradientTransform="matrix(1 0 0 -1 -2455.7871 -2953.9688)" gradientUnits="userSpaceOnUse" id="SVGID_2_" x1="2585.7871" x2="2585.7871" y1="-2976.3164" y2="-3190.9451">
<stop offset="0" stop-color="#ffffff"/>
<stop offset="1" stop-color="#ffffff" stop-opacity="0"/>
</linearGradient>
<path d="M 130.0 21.665 C 49.739 21.665 21.667 49.748 21.667 129.998 C 21.667 210.265 49.739 238.34 130.0 238.34 C 210.267 238.34 238.334 210.265 238.334 129.99799 C 238.334 49.748 210.264 21.665 130.0 21.665 z M 130.0 235.629 C 51.032 235.629 24.377998 208.974 24.377998 129.99399 C 24.378 51.027 51.032 24.371 130.0 24.371 C 208.973 24.371 235.623 51.028 235.623 129.994 C 235.623 208.974 208.973 235.629 130.0 235.629 z " fill="url(#SVGID_2_)" fill-opacity="0.15"/>
<path d="M 136.33406 233.1036 L 136.33406 157.94968 L 116.46208 157.94968 L 116.46208 122.787926 L 136.33406 122.787926 L 136.33406 103.7276 C 136.33406 85.78757 147.55234 64.838135 179.172 64.838135 C 190.00807 64.838135 198.38168 65.87605 198.73206 65.91998 L 202.36421 66.38897 L 201.53168 99.29367 L 197.54257 99.25633 C 197.47447 99.25523 189.18762 99.176155 180.31206 99.176155 C 173.75946 99.176155 173.04555 100.77643 173.04555 107.080795 L 173.04555 122.787926 L 202.60693 122.787926 L 200.94408 157.94969 L 173.04553 157.94969 L 173.04553 233.1036 L 136.33405 233.1036 z " fill-opacity="0.07000002" stroke-opacity="0.07000002"/>
<path d="M 137.34673 232.08986 L 137.34673 156.93701 L 117.47473 156.93701 L 117.47473 123.80057 L 137.34673 123.80057 L 137.34673 103.7276 C 137.34673 86.254364 148.3003 65.850784 179.17311 65.850784 C 190.01796 65.850784 198.26198 66.88101 198.60576 66.92494 L 201.3285 67.277504 L 200.5443 98.27222 L 197.55246 98.24476 C 197.48326 98.24366 189.16455 98.16458 180.31206 98.16458 C 173.17513 98.16458 172.03397 100.28215 172.03397 107.08188 L 172.03397 123.80167 L 201.54593 123.80167 L 199.97862 156.93701 L 172.03177 156.93701 L 172.03177 232.09094 L 137.34671 232.08994 L 137.34671 232.08994 z " fill-opacity="0.07000002" stroke-opacity="0.07000002"/>
<path d="M 138.36047 231.0772 L 138.36047 155.92436 L 118.488495 155.92436 L 118.488495 124.813225 L 138.36047 124.813225 L 138.36047 103.7276 C 138.36047 86.722244 149.04826 66.86344 179.1731 66.86344 C 189.95314 66.86344 198.13675 67.88488 198.47943 67.92882 L 200.29277 68.162766 L 199.55579 97.2486 L 197.56233 97.22883 C 197.49203 97.22883 189.21837 97.14865 180.31206 97.14865 C 172.31187 97.14865 171.02023 100.07679 171.02023 107.0786 L 171.02023 124.81105 L 200.48279 124.81105 L 199.01213 155.92108 L 171.02023 155.92108 L 171.02023 231.07391 L 138.36046 231.07391 L 138.36046 231.07692 z " fill-opacity="0.07000002" stroke-opacity="0.07000002"/>
<path d="M 139.37312 230.06456 L 139.37312 154.91171 L 119.501144 154.91171 L 119.501144 125.8259 L 139.37312 125.8259 L 139.37312 103.72763 C 139.37312 87.18906 149.79622 67.87613 179.1731 67.87613 C 190.06189 67.87613 198.27295 68.92393 198.35312 68.932724 L 199.25923 69.05024 L 198.57059 96.22719 L 197.5744 96.21839 C 197.492 96.21729 189.21725 96.138214 180.31314 96.138214 C 171.5507 96.138214 170.00865 99.66602 170.00865 107.08081 L 170.00865 125.82591 L 199.42068 125.82591 L 198.04778 154.91173 L 170.00755 154.91173 L 170.00755 230.06458 L 139.3731 230.06458 z " fill-opacity="0.07000002" stroke-opacity="0.07000002"/>
<path d="M 197.08128 153.89906 L 168.99493 153.89906 L 168.99493 229.0519 L 140.38469 229.0519 L 140.38469 153.89906 L 120.51271 153.89906 L 120.51271 126.83963 L 140.38469 126.83963 C 140.38469 126.83963 140.38469 115.750946 140.38469 103.72869 C 140.38469 85.5679 152.12358 68.88985 179.17091 68.88985 C 190.1223 68.88985 198.22354 69.93875 198.22354 69.93875 L 197.58212 95.2079 C 197.58212 95.2079 189.32492 95.12772 180.30988 95.12772 C 170.55676 95.12772 168.99385 99.62207 168.99385 107.082985 C 168.99385 108.00448 168.99385 108.33067 168.99385 108.34825 C 168.99385 110.43945 168.99385 115.5203 168.99385 126.83963 L 198.35645 126.83963 L 197.0813 153.89905 z " fill="#ffffff"/>
</svg>
