<?xml version="1.0" encoding="UTF-8"?>
<svg xmlns="http://www.w3.org/2000/svg" xmlns:xlink="http://www.w3.org/1999/xlink" baseProfile="tiny" contentScriptType="text/ecmascript" contentStyleType="text/css" height="30px" preserveAspectRatio="xMidYMid meet" version="1.1" viewBox="0 0 30 30" width="30px" x="0px" y="0px" zoomAndPan="magnify">
<path d="M 29.0 10.0 L 29.0 6.0 C 29.0 4.897 28.103 4.0 27.0 4.0 L 21.0 4.0 C 20.4 4.0 19.867 4.271 19.5 4.691 C 19.133 4.271 18.6 4.0 18.0 4.0 L 12.0 4.0 C 11.4 4.0 10.867 4.271 10.5 4.691 C 10.133 4.271 9.6 4.0 9.0 4.0 L 3.0 4.0 C 1.897 4.0 1.0 4.897 1.0 6.0 L 1.0 10.0 C 1.0 10.6 1.271 11.133 1.691 11.5 C 1.271 11.867 1.0 12.4 1.0 13.0 L 1.0 17.0 C 1.0 17.6 1.271 18.133 1.691 18.5 C 1.271 18.867 1.0 19.4 1.0 20.0 L 1.0 24.0 C 1.0 25.103 1.8970001 26.0 3.0 26.0 L 9.0 26.0 C 9.6 26.0 10.133 25.729 10.5 25.309 C 10.867 25.729 11.4 26.0 12.0 26.0 L 18.0 26.0 C 18.6 26.0 19.133 25.729 19.5 25.309 C 19.867 25.729 20.4 26.0 21.0 26.0 L 27.0 26.0 C 28.103 26.0 29.0 25.103 29.0 24.0 L 29.0 20.0 C 29.0 19.4 28.729 18.867 28.309 18.5 C 28.729 18.133 29.0 17.6 29.0 17.0 L 29.0 13.0 C 29.0 12.4 28.729 11.867 28.309 11.5 C 28.729 11.133 29.0 10.6 29.0 10.0 z M 19.5 18.691 C 19.44 18.623 19.377 18.559 19.309 18.5 C 19.377 18.44 19.441 18.377 19.5 18.309 C 19.56 18.377 19.623 18.441 19.691 18.5 C 19.623 18.56 19.56 18.623 19.5 18.691 z M 10.5 18.691 C 10.44 18.623 10.377 18.559 10.309 18.5 C 10.377 18.44 10.441 18.377 10.5 18.309 C 10.56 18.377 10.623 18.441 10.691 18.5 C 10.623 18.56 10.56 18.623 10.5 18.691 z M 10.5 11.309 C 10.56 11.377 10.623 11.441 10.691 11.5 C 10.623 11.56 10.559 11.623 10.5 11.691 C 10.44 11.623 10.377 11.559 10.309 11.5 C 10.377 11.44 10.44 11.377 10.5 11.309 z M 19.5 11.309 C 19.56 11.377 19.623 11.441 19.691 11.5 C 19.623 11.56 19.559 11.623 19.5 11.691 C 19.44 11.623 19.377 11.559 19.309 11.5 C 19.377 11.44 19.44 11.377 19.5 11.309 z " fill-opacity="0.15" stroke-opacity="0.15"/>
<path d="M 9.0 4.0 L 3.0 4.0 C 2.45 4.0 2.0 4.45 2.0 5.0 L 2.0 9.0 C 2.0 9.55 2.45 10.0 3.0 10.0 L 9.0 10.0 C 9.55 10.0 10.0 9.55 10.0 9.0 L 10.0 5.0 C 10.0 4.45 9.55 4.0 9.0 4.0 z M 18.0 4.0 L 12.0 4.0 C 11.45 4.0 11.0 4.45 11.0 5.0 L 11.0 9.0 C 11.0 9.55 11.45 10.0 12.0 10.0 L 18.0 10.0 C 18.55 10.0 19.0 9.55 19.0 9.0 L 19.0 5.0 C 19.0 4.45 18.55 4.0 18.0 4.0 z M 27.0 4.0 L 21.0 4.0 C 20.45 4.0 20.0 4.45 20.0 5.0 L 20.0 9.0 C 20.0 9.55 20.45 10.0 21.0 10.0 L 27.0 10.0 C 27.55 10.0 28.0 9.55 28.0 9.0 L 28.0 5.0 C 28.0 4.45 27.55 4.0 27.0 4.0 z M 9.0 11.0 L 3.0 11.0 C 2.45 11.0 2.0 11.45 2.0 12.0 L 2.0 16.0 C 2.0 16.55 2.45 17.0 3.0 17.0 L 9.0 17.0 C 9.55 17.0 10.0 16.55 10.0 16.0 L 10.0 12.0 C 10.0 11.45 9.55 11.0 9.0 11.0 z M 18.0 11.0 L 12.0 11.0 C 11.45 11.0 11.0 11.45 11.0 12.0 L 11.0 16.0 C 11.0 16.55 11.45 17.0 12.0 17.0 L 18.0 17.0 C 18.55 17.0 19.0 16.55 19.0 16.0 L 19.0 12.0 C 19.0 11.45 18.55 11.0 18.0 11.0 z M 27.0 11.0 L 21.0 11.0 C 20.45 11.0 20.0 11.45 20.0 12.0 L 20.0 16.0 C 20.0 16.55 20.45 17.0 21.0 17.0 L 27.0 17.0 C 27.55 17.0 28.0 16.55 28.0 16.0 L 28.0 12.0 C 28.0 11.45 27.55 11.0 27.0 11.0 z M 9.0 18.0 L 3.0 18.0 C 2.45 18.0 2.0 18.45 2.0 19.0 L 2.0 23.0 C 2.0 23.55 2.45 24.0 3.0 24.0 L 9.0 24.0 C 9.55 24.0 10.0 23.55 10.0 23.0 L 10.0 19.0 C 10.0 18.45 9.55 18.0 9.0 18.0 z M 18.0 18.0 L 12.0 18.0 C 11.45 18.0 11.0 18.45 11.0 19.0 L 11.0 23.0 C 11.0 23.55 11.45 24.0 12.0 24.0 L 18.0 24.0 C 18.55 24.0 19.0 23.55 19.0 23.0 L 19.0 19.0 C 19.0 18.45 18.55 18.0 18.0 18.0 z M 27.0 18.0 L 21.0 18.0 C 20.45 18.0 20.0 18.45 20.0 19.0 L 20.0 23.0 C 20.0 23.55 20.45 24.0 21.0 24.0 L 27.0 24.0 C 27.55 24.0 28.0 23.55 28.0 23.0 L 28.0 19.0 C 28.0 18.45 27.55 18.0 27.0 18.0 z " fill-opacity="0.3" stroke-opacity="0.3"/>
<path d="M 9.0 5.0 L 3.0 5.0 C 2.45 5.0 2.0 5.45 2.0 6.0 L 2.0 10.0 C 2.0 10.55 2.45 11.0 3.0 11.0 L 9.0 11.0 C 9.55 11.0 10.0 10.55 10.0 10.0 L 10.0 6.0 C 10.0 5.45 9.55 5.0 9.0 5.0 z M 18.0 5.0 L 12.0 5.0 C 11.45 5.0 11.0 5.45 11.0 6.0 L 11.0 10.0 C 11.0 10.55 11.45 11.0 12.0 11.0 L 18.0 11.0 C 18.55 11.0 19.0 10.55 19.0 10.0 L 19.0 6.0 C 19.0 5.45 18.55 5.0 18.0 5.0 z M 27.0 5.0 L 21.0 5.0 C 20.45 5.0 20.0 5.45 20.0 6.0 L 20.0 10.0 C 20.0 10.55 20.45 11.0 21.0 11.0 L 27.0 11.0 C 27.55 11.0 28.0 10.55 28.0 10.0 L 28.0 6.0 C 28.0 5.45 27.55 5.0 27.0 5.0 z M 9.0 12.0 L 3.0 12.0 C 2.45 12.0 2.0 12.45 2.0 13.0 L 2.0 17.0 C 2.0 17.55 2.45 18.0 3.0 18.0 L 9.0 18.0 C 9.55 18.0 10.0 17.55 10.0 17.0 L 10.0 13.0 C 10.0 12.45 9.55 12.0 9.0 12.0 z M 18.0 12.0 L 12.0 12.0 C 11.45 12.0 11.0 12.45 11.0 13.0 L 11.0 17.0 C 11.0 17.55 11.45 18.0 12.0 18.0 L 18.0 18.0 C 18.55 18.0 19.0 17.55 19.0 17.0 L 19.0 13.0 C 19.0 12.45 18.55 12.0 18.0 12.0 z M 27.0 12.0 L 21.0 12.0 C 20.45 12.0 20.0 12.45 20.0 13.0 L 20.0 17.0 C 20.0 17.55 20.45 18.0 21.0 18.0 L 27.0 18.0 C 27.55 18.0 28.0 17.55 28.0 17.0 L 28.0 13.0 C 28.0 12.45 27.55 12.0 27.0 12.0 z M 9.0 19.0 L 3.0 19.0 C 2.45 19.0 2.0 19.45 2.0 20.0 L 2.0 24.0 C 2.0 24.55 2.45 25.0 3.0 25.0 L 9.0 25.0 C 9.55 25.0 10.0 24.55 10.0 24.0 L 10.0 20.0 C 10.0 19.45 9.55 19.0 9.0 19.0 z M 18.0 19.0 L 12.0 19.0 C 11.45 19.0 11.0 19.45 11.0 20.0 L 11.0 24.0 C 11.0 24.55 11.45 25.0 12.0 25.0 L 18.0 25.0 C 18.55 25.0 19.0 24.55 19.0 24.0 L 19.0 20.0 C 19.0 19.45 18.55 19.0 18.0 19.0 z M 27.0 19.0 L 21.0 19.0 C 20.45 19.0 20.0 19.45 20.0 20.0 L 20.0 24.0 C 20.0 24.55 20.45 25.0 21.0 25.0 L 27.0 25.0 C 27.55 25.0 28.0 24.55 28.0 24.0 L 28.0 20.0 C 28.0 19.45 27.55 19.0 27.0 19.0 z " fill="#dedede"/>
<rect fill="none" height="30" width="30"/>
</svg>
