<?xml version="1.0" encoding="UTF-8"?>
<svg xmlns="http://www.w3.org/2000/svg" xmlns:xlink="http://www.w3.org/1999/xlink" baseProfile="tiny" contentScriptType="text/ecmascript" contentStyleType="text/css" height="30px" preserveAspectRatio="xMidYMid meet" version="1.1" viewBox="0 0 30 30" width="30px" x="0px" y="0px" zoomAndPan="magnify">
<rect fill="none" height="30" width="30"/>
<path color="#000000" d="M 14.989316 5.0 C 13.564809 5.00002 12.381584 5.388196 11.442308 6.1538463 C 10.503024 6.9195337 9.803238 8.011948 9.326923 9.423077 C 8.850605 10.834237 8.621794 12.685197 8.621795 15.0 C 8.621794 18.677 9.253915 21.340816 10.544871 22.970083 C 11.622146 24.323362 13.101845 25.0 14.989315 25.0 C 16.42271 24.999998 17.6184 24.616276 18.557692 23.846151 C 19.49696 23.076036 20.2012 21.988071 20.673077 20.57692 C 21.144928 19.165785 21.378193 17.297016 21.378204 15.0 C 21.378193 13.059128 21.223276 11.528681 20.929487 10.384615 C 20.635672 9.240579 20.249275 8.275479 19.732906 7.478633 C 19.216513 6.681819 18.559462 6.0639434 17.767094 5.6410255 C 16.974709 5.2181463 16.039879 5.00002 14.989316 5.0 z M 14.967946 6.98718 C 16.089733 6.9871974 17.036137 7.530288 17.78846 8.589744 C 18.540764 9.649232 18.899555 11.777078 18.89957 15.0 C 18.89956 18.205132 18.540764 20.341885 17.78846 21.410255 C 17.036137 22.478634 16.093294 23.01282 14.989314 23.01282 C 13.885319 23.012823 12.963846 22.495552 12.211537 21.431623 C 11.459217 20.367704 11.079053 18.21404 11.079057 15.0 C 11.079053 11.785981 11.490376 9.590471 12.318373 8.397436 C 12.977199 7.462625 13.863951 6.9871974 14.967946 6.98718 z " display="inline" fill="#dedede" fill-opacity="1" fill-rule="nonzero" stroke="none" stroke-width="1" visibility="visible"/>
</svg>
