<?xml version="1.0" encoding="UTF-8"?>
<svg xmlns="http://www.w3.org/2000/svg" xmlns:xlink="http://www.w3.org/1999/xlink" baseProfile="tiny" contentScriptType="text/ecmascript" contentStyleType="text/css" height="30px" preserveAspectRatio="xMidYMid meet" version="1.1" viewBox="0 0 30 30" width="30px" x="0px" y="0px" zoomAndPan="magnify">
<path d="M 15.0 29.0 C 7.28 29.0 1.0 22.72 1.0 15.0 C 1.0 7.2800007 7.28 1.0 15.0 1.0 C 22.72 1.0 29.0 7.28 29.0 15.0 C 29.0 22.72 22.72 29.0 15.0 29.0 L 15.0 29.0 z " fill-opacity="0.15"/>
<path d="M 15.0 1.0 C 7.82 1.0 2.0 6.82 2.0 14.0 C 2.0 21.18 7.82 27.0 15.0 27.0 C 22.18 27.0 28.0 21.18 28.0 14.0 C 28.0 6.8199997 22.18 1.0 15.0 1.0 z M 14.424 23.243 C 13.315 23.243 12.412 22.33 12.412 21.207 C 12.412 20.082 13.314 19.167 14.424 19.167 C 15.528999 19.167 16.429 20.082 16.429 21.207 C 16.429 22.33 15.529 23.243 14.424 23.243 z M 17.631 13.957 C 17.164001 14.432 16.724 14.88 16.442001 15.292999 C 16.214 15.629999 16.103 16.009998 16.103 16.455 L 16.103 17.53 C 16.103 17.640001 16.013 17.730001 15.903001 17.730001 L 12.937 17.730001 C 12.827001 17.730001 12.737 17.640001 12.737 17.53 L 12.737 16.286001 C 12.737 14.397001 13.784 13.245001 14.951 12.137001 C 16.634 10.482001 16.604 9.741001 16.594 9.461 C 16.592 7.9310007 15.786 7.2200003 14.129 7.2200003 C 13.278999 7.2200003 12.261 7.3970003 11.101999 7.7440004 C 11.082999 7.7500005 11.063999 7.7530003 11.044 7.7530003 C 11.000999 7.7530003 10.96 7.7390003 10.924999 7.7130003 C 10.874 7.676 10.843999 7.616 10.843999 7.5530005 L 10.843999 5.516 C 10.843999 5.4259996 10.904999 5.3469996 10.990999 5.323 C 12.367 4.948 13.598 4.758 14.650999 4.758 C 19.304998 4.758 20.286 7.187 20.287998 9.224 C 20.287 11.254 18.814 12.753 17.631 13.957 z " fill-opacity="0.3"/>
<path d="M 15.0 2.0 C 7.82 2.0 2.0 7.82 2.0 15.0 C 2.0 22.18 7.82 28.0 15.0 28.0 C 22.18 28.0 28.0 22.18 28.0 15.0 C 28.0 7.8199997 22.18 2.0 15.0 2.0 z M 14.424 24.243 C 13.315 24.243 12.412 23.33 12.412 22.207 C 12.412 21.082 13.314 20.167 14.424 20.167 C 15.528999 20.167 16.429 21.082 16.429 22.207 C 16.429 23.33 15.529 24.243 14.424 24.243 z M 17.631 14.957 C 17.164001 15.432 16.724 15.88 16.442001 16.293 C 16.214 16.63 16.103 17.009998 16.103 17.455 L 16.103 18.53 C 16.103 18.640001 16.013 18.730001 15.903001 18.730001 L 12.937 18.730001 C 12.827001 18.730001 12.737 18.640001 12.737 18.53 L 12.737 17.286001 C 12.737 15.397001 13.784 14.245001 14.951 13.137001 C 16.634 11.482001 16.604 10.741001 16.594 10.461 C 16.592 8.931001 15.786 8.22 14.129 8.22 C 13.278999 8.22 12.261 8.397 11.101999 8.744 C 11.082999 8.75 11.063999 8.753 11.044 8.753 C 11.000999 8.753 10.96 8.739 10.924999 8.713 C 10.874 8.676001 10.843999 8.616 10.843999 8.553 L 10.843999 6.516 C 10.843999 6.4259996 10.904999 6.3469996 10.990999 6.323 C 12.367 5.948 13.598 5.758 14.650999 5.758 C 19.304998 5.758 20.286 8.187 20.287998 10.224 C 20.287 12.254 18.814 13.753 17.631 14.957 z " fill="#dedede"/>
<rect fill="none" height="30" width="30"/>
</svg>
