<?xml version="1.0" encoding="UTF-8"?>
<svg xmlns="http://www.w3.org/2000/svg" xmlns:xlink="http://www.w3.org/1999/xlink" baseProfile="tiny" contentScriptType="text/ecmascript" contentStyleType="text/css" height="30px" preserveAspectRatio="xMidYMid meet" version="1.1" viewBox="0 0 30 30" width="30px" x="0px" y="0px" zoomAndPan="magnify">
<path d="M 7.039 9.527 L 2.0 27.0 L 4.9300003 27.0 L 5.9610004 23.156 L 11.246 23.156 L 12.254 27.0 L 15.664 27.0 L 10.836 9.527 L 7.039 9.527 z M 6.418 21.188 L 8.621 12.504 L 10.766001 21.188 L 6.418 21.188 z M 27.0 9.0 L 19.58 9.001 L 22.188 1.0 L 17.597 1.0 L 14.0 12.0 L 21.553 12.0 L 19.119 18.0 L 16.562 18.001 L 21.562 27.0 L 26.562 18.0 L 23.710001 18.0 L 27.0 9.0 z " fill-opacity="0.3" stroke-opacity="0.3"/>
<path d="M 21.563 29.0 C 21.199999 29.0 20.866 28.803 20.689 28.485 L 15.688999 19.486 C 15.516999 19.176 15.520999 18.799 15.700999 18.494 C 15.881 18.189 16.209 18.001 16.563 18.001 L 18.445 18.0 L 20.067999 14.0 L 14.0 14.0 C 13.68 14.0 13.379 13.847 13.19 13.587 C 13.000999 13.327 12.95 12.9939995 13.049 12.69 L 16.647 1.6899996 C 16.781 1.278 17.165 1.0 17.598 1.0 L 22.189 1.0 C 22.508999 1.0 22.81 1.153 22.998999 1.413 C 23.186998 1.6719999 23.238998 2.006 23.140999 2.309 L 20.959 9.0 L 27.0 9.0 C 27.326 9.0 27.633 9.159 27.819 9.427 C 28.007 9.695 28.051 10.036 27.939001 10.343 L 25.141 18.0 L 26.563002 18.0 C 26.917002 18.0 27.246002 18.188 27.425001 18.493 C 27.605001 18.798 27.609001 19.176 27.437 19.485 L 22.437 28.485 C 22.261 28.803 21.926 29.0 21.563 29.0 L 21.563 29.0 z M 12.254 29.0 C 11.799 29.0 11.401999 28.693 11.285999 28.254 L 10.473999 25.156 L 6.728 25.156 L 5.896 28.259 C 5.778 28.696 5.382 29.0 4.93 29.0 L 2.0 29.0 C 1.686 29.0 1.39 28.853 1.201 28.602 C 1.012 28.351 0.95199996 28.025 1.039 27.723 L 6.078 10.25 C 6.202 9.822 6.594 9.527 7.039 9.527 L 10.836 9.527 C 11.286 9.527 11.68 9.827001 11.8 10.26 L 16.628 27.733 C 16.711 28.034 16.649 28.357 16.460001 28.605 C 16.271 28.854 15.977 29.0 15.664 29.0 L 12.254 29.0 z M 9.488 21.188 L 8.608 17.623 L 7.703 21.188 L 9.488 21.188 z " fill-opacity="0.15" stroke-opacity="0.15"/>
<path d="M 7.039 10.527 L 2.0 28.0 L 4.9300003 28.0 L 5.9610004 24.156 L 11.246 24.156 L 12.254 28.0 L 15.664 28.0 L 10.8359995 10.527 L 7.039 10.527 z M 6.418 22.188 L 8.621 13.504 L 10.766001 22.188 L 6.418 22.188 z M 27.0 10.0 L 19.58 10.001 L 22.188 2.0 L 17.597 2.0 L 14.0 13.0 L 21.553 13.0 L 19.119 19.0 L 16.562 19.001 L 21.562 28.0 L 26.562 19.0 L 23.710001 19.0 L 27.0 10.0 z " fill="#dedede"/>
<rect fill="none" height="30" width="30"/>
</svg>
