<?xml version="1.0" encoding="UTF-8"?>
<svg xmlns="http://www.w3.org/2000/svg" xmlns:xlink="http://www.w3.org/1999/xlink" baseProfile="tiny" contentScriptType="text/ecmascript" contentStyleType="text/css" height="60px" preserveAspectRatio="xMidYMid meet" version="1.1" viewBox="0 0 58 60" width="58px" x="0px" y="0px" zoomAndPan="magnify">
<g>
<path d="M 19.272 25.674 L 19.272 26.674 C 27.593 26.287 32.697 26.957 32.697 20.081 C 32.697 19.895 32.682 19.727 32.674 19.551 C 32.432 25.905 27.39 25.296 19.272 25.674 z " fill="#ffffff"/>
<path d="M 36.185 28.938 C 35.9 29.131 35.620003 29.329 35.313 29.499 C 39.245 31.127 41.543 34.689 41.668 39.464 C 41.673 39.26 41.691 39.071 41.691 38.861 C 41.691 34.261 39.678 30.767 36.185 28.938 z " fill="#ffffff"/>
<path d="M 33.297 40.462 C 33.297 40.267 33.289 40.082 33.281002 39.897003 C 32.947002 51.039 20.031002 45.83 15.854002 45.266003 L 15.854002 46.266003 C 20.086 46.837 33.297 52.188 33.297 40.462 z " fill="#ffffff"/>
<path d="M 41.065 18.893 C 41.069 18.754 41.09 18.621 41.09 18.48 C 41.09 0.83799934 16.994 8.337999 16.994 8.337999 L 16.994 9.337999 C 16.995 9.338 40.519 2.028 41.065 18.893 z " fill="#ffffff"/>
</g>
<rect fill="none" height="60" width="58"/>
<defs>
<linearGradient gradientTransform="matrix(1 0 0 -1 -262.4805 -326.0195)" gradientUnits="userSpaceOnUse" x1="291.2529" x2="291.2529" xlink:actuate="onLoad" xlink:show="other" xlink:type="simple" y1="-392.6118" y2="-286.8082">
<stop offset="0" stop-color="#d0cbc5"/>
<stop offset="0.5031" stop-color="#fafcef"/>
<stop offset="0.9693" stop-color="#ffffff"/>
<stop offset="1" stop-color="#ffffff"/>
</linearGradient>
</defs>
<path color="#000000" d="M 28.030304 6.234415 C 24.4346 6.23446 21.416836 7.240803 18.999054 9.296915 C 16.581257 11.353111 15.024741 14.275358 14.342804 18.015663 L 19.936554 18.984415 C 20.349842 16.256685 21.271252 14.223336 22.717804 12.859415 C 24.164331 11.495573 25.985476 10.796956 28.155304 10.796915 C 30.345762 10.796956 32.114487 11.484988 33.499054 12.828165 C 34.883575 14.17142 35.592777 15.876127 35.592804 17.921915 C 35.592777 20.505056 34.6502 22.400805 32.749054 23.640663 C 30.847864 24.880589 28.688 25.515692 26.311554 25.515663 C 26.084225 25.515696 25.777256 25.494526 25.405304 25.453163 L 24.811554 30.328163 C 26.38207 29.914888 27.695127 29.703188 28.749054 29.703163 C 31.332146 29.703188 33.450176 30.539663 35.124058 32.203163 C 36.79788 33.866707 37.624027 35.98448 37.624058 38.546913 C 37.624027 41.23336 36.713455 43.478413 34.905304 45.296913 C 33.097103 47.11543 30.904724 48.046917 28.280304 48.046913 C 26.069143 48.046917 24.194826 47.348045 22.655304 45.953163 C 21.11576 44.55829 20.014656 42.27115 19.374054 39.109413 L 13.780304 39.859413 C 14.152269 43.641094 15.676777 46.701702 18.311554 49.078163 C 20.946318 51.454624 24.260715 52.640663 28.249054 52.640663 C 32.671318 52.640663 36.32469 51.274426 39.217804 48.515663 C 42.110855 45.75691 43.56152 42.38958 43.56155 38.421913 C 43.56152 35.48751 42.799393 33.062263 41.31155 31.109411 C 39.823654 29.156605 37.747963 27.854383 35.06155 27.234411 C 37.128017 26.283854 38.69512 25.002552 39.749058 23.390663 C 40.802933 21.778831 41.311523 20.010109 41.31155 18.046911 C 41.311523 15.98046 40.760845 14.011126 39.655304 12.171913 C 38.549706 10.33278 36.96118 8.892448 34.874058 7.828163 C 32.78688 6.763967 30.51007 6.234458 28.030304 6.234413 z " display="inline" fill="#dedede" fill-opacity="1" fill-rule="nonzero" stroke="none" stroke-width="2" visibility="visible"/>
</svg>
