<?xml version="1.0" encoding="UTF-8"?>
<svg xmlns="http://www.w3.org/2000/svg" xmlns:xlink="http://www.w3.org/1999/xlink" baseProfile="tiny" contentScriptType="text/ecmascript" contentStyleType="text/css" height="57px" preserveAspectRatio="xMidYMid meet" version="1.1" viewBox="0 0 67 57" width="67px" x="0px" y="0px" zoomAndPan="magnify">
<path d="M 57.0 12.0 L 22.0 12.0 C 20.9 12.0 19.363 12.637 18.586 13.414 L 10.4140005 21.586 C 9.637 22.363 9.0 23.9 9.0 25.0 L 9.0 46.0 C 9.0 47.1 9.9 48.0 11.0 48.0 L 57.0 48.0 C 58.1 48.0 59.0 47.1 59.0 46.0 L 59.0 14.0 C 59.0 12.9 58.1 12.0 57.0 12.0 z M 23.0 45.0 L 13.0 45.0 L 13.0 41.0 L 23.0 41.0 L 23.0 45.0 z M 23.0 39.0 L 13.0 39.0 L 13.0 35.0 L 23.0 35.0 L 23.0 39.0 z M 23.0 33.0 L 13.0 33.0 L 13.0 29.0 L 23.0 29.0 L 23.0 33.0 z M 23.0 27.0 L 13.0 27.0 L 13.0 23.0 L 23.0 23.0 L 23.0 27.0 z " fill="#dedede" fill-opacity="1" stroke-opacity="0.29999999999999999"/>
<defs>
<linearGradient gradientUnits="userSpaceOnUse" x1="34" x2="34" xlink:actuate="onLoad" xlink:show="other" xlink:type="simple" y1="47" y2="11.0005">
<stop offset="0" stop-color="#d0cbc5"/>
<stop offset="0.5031" stop-color="#fafcef"/>
<stop offset="0.9693" stop-color="#ffffff"/>
<stop offset="1" stop-color="#ffffff"/>
</linearGradient>
</defs>
</svg>
