<?xml version="1.0" encoding="UTF-8"?>
<svg xmlns="http://www.w3.org/2000/svg" xmlns:xlink="http://www.w3.org/1999/xlink" baseProfile="tiny" contentScriptType="text/ecmascript" contentStyleType="text/css" height="30px" preserveAspectRatio="xMidYMid meet" version="1.1" viewBox="0 0 30 30" width="30px" x="0px" y="0px" zoomAndPan="magnify">
<path d="M 15.0 29.0 C 7.28 29.0 1.0 22.72 1.0 15.0 C 1.0 7.2800007 7.28 1.0 15.0 1.0 C 22.72 1.0 29.0 7.28 29.0 15.0 C 29.0 22.72 22.72 29.0 15.0 29.0 L 15.0 29.0 z " fill-opacity="0.15" stroke-opacity="0.15"/>
<rect fill="none" height="30" width="30"/>
<path d="M 15.0 1.0 C 7.82 1.0 2.0 6.821 2.0 14.0 C 2.0 21.18 7.82 27.0 15.0 27.0 C 22.179 27.0 28.0 21.18 28.0 14.0 C 28.0 6.821 22.179 1.0 15.0 1.0 z M 20.0 22.5 L 10.0 22.5 C 9.172 22.5 8.5 21.828 8.5 21.0 C 8.5 20.172 9.172 19.5 10.0 19.5 L 20.0 19.5 C 20.828 19.5 21.5 20.172 21.5 21.0 C 21.5 21.828 20.828 22.5 20.0 22.5 z M 20.0 11.5 L 16.5 11.5 L 16.5 15.0 C 16.5 15.828 15.828 16.5 15.0 16.5 C 14.172 16.5 13.5 15.828 13.5 15.0 L 13.5 11.5 L 10.0 11.5 C 9.172 11.5 8.5 10.828 8.5 10.0 C 8.5 9.172 9.172 8.5 10.0 8.5 L 13.5 8.5 L 13.5 5.0 C 13.5 4.172 14.172 3.5 15.0 3.5 C 15.828 3.5 16.5 4.172 16.5 5.0 L 16.5 8.5 L 20.0 8.5 C 20.828 8.5 21.5 9.172 21.5 10.0 C 21.5 10.828 20.828 11.5 20.0 11.5 z " fill-opacity="0.3" stroke-opacity="0.3"/>
<path d="M 15.0 2.0 C 7.82 2.0 2.0 7.821 2.0 15.0 C 2.0 22.18 7.82 28.0 15.0 28.0 C 22.179 28.0 28.0 22.18 28.0 15.0 C 28.0 7.821 22.179 2.0 15.0 2.0 z M 20.0 23.5 L 10.0 23.5 C 9.172 23.5 8.5 22.828 8.5 22.0 C 8.5 21.172 9.172 20.5 10.0 20.5 L 20.0 20.5 C 20.828 20.5 21.5 21.172 21.5 22.0 C 21.5 22.828 20.828 23.5 20.0 23.5 z M 20.0 12.5 L 16.5 12.5 L 16.5 16.0 C 16.5 16.828 15.828 17.5 15.0 17.5 C 14.172 17.5 13.5 16.828 13.5 16.0 L 13.5 12.5 L 10.0 12.5 C 9.172 12.5 8.5 11.828 8.5 11.0 C 8.5 10.172 9.172 9.5 10.0 9.5 L 13.5 9.5 L 13.5 6.0 C 13.5 5.172 14.172 4.5 15.0 4.5 C 15.828 4.5 16.5 5.172 16.5 6.0 L 16.5 9.5 L 20.0 9.5 C 20.828 9.5 21.5 10.172 21.5 11.0 C 21.5 11.828 20.828 12.5 20.0 12.5 z " fill="#dedede"/>
</svg>
