<?xml version="1.0" encoding="UTF-8"?>
<svg xmlns="http://www.w3.org/2000/svg" xmlns:xlink="http://www.w3.org/1999/xlink" baseProfile="tiny" contentScriptType="text/ecmascript" contentStyleType="text/css" height="30px" preserveAspectRatio="xMidYMid meet" version="1.1" viewBox="0 0 30 30" width="30px" x="0px" y="0px" zoomAndPan="magnify">
<path d="M 3.0 27.0 C 1.897 27.0 1.0 26.103 1.0 25.0 L 1.0 13.0 C 1.0 11.897 1.8970001 11.0 3.0 11.0 L 7.0 11.0 L 7.0 5.0 C 7.0 3.8969998 7.897 3.0 9.0 3.0 L 27.0 3.0 C 28.103 3.0 29.0 3.897 29.0 5.0 L 29.0 19.0 C 29.0 20.103 28.103 21.0 27.0 21.0 L 19.0 21.0 L 19.0 25.0 C 19.0 26.103 18.103 27.0 17.0 27.0 L 3.0 27.0 z M 15.0 23.0 L 15.0 21.0 L 9.0 21.0 C 7.897 21.0 7.0 20.103 7.0 19.0 L 7.0 15.0 L 5.0 15.0 L 5.0 23.0 L 15.0 23.0 z " fill-opacity="0.15" stroke-opacity="0.15"/>
<path d="M 16.0 23.0 L 4.0 23.0 L 4.0 13.0 L 7.0 13.0 L 7.0 11.0 L 3.0 11.0 C 2.45 11.0 2.0 11.45 2.0 12.0 L 2.0 24.0 C 2.0 24.55 2.45 25.0 3.0 25.0 L 17.0 25.0 C 17.55 25.0 18.0 24.55 18.0 24.0 L 18.0 20.0 L 16.0 20.0 L 16.0 23.0 z M 27.0 3.0 L 9.0 3.0 C 8.45 3.0 8.0 3.45 8.0 4.0 L 8.0 18.0 C 8.0 18.55 8.45 19.0 9.0 19.0 L 27.0 19.0 C 27.55 19.0 28.0 18.55 28.0 18.0 L 28.0 4.0 C 28.0 3.45 27.55 3.0 27.0 3.0 z M 26.0 12.0 L 23.561 9.561 L 20.061 13.061 L 17.94 10.94 L 21.44 7.4399996 L 19.0 5.0 L 26.0 5.0 L 26.0 12.0 z " fill-opacity="0.3" stroke-opacity="0.3"/>
<path d="M 16.0 24.0 L 4.0 24.0 L 4.0 14.0 L 7.0 14.0 L 7.0 12.0 L 3.0 12.0 C 2.45 12.0 2.0 12.45 2.0 13.0 L 2.0 25.0 C 2.0 25.55 2.45 26.0 3.0 26.0 L 17.0 26.0 C 17.55 26.0 18.0 25.55 18.0 25.0 L 18.0 21.0 L 16.0 21.0 L 16.0 24.0 z M 27.0 4.0 L 9.0 4.0 C 8.45 4.0 8.0 4.45 8.0 5.0 L 8.0 19.0 C 8.0 19.55 8.45 20.0 9.0 20.0 L 27.0 20.0 C 27.55 20.0 28.0 19.55 28.0 19.0 L 28.0 5.0 C 28.0 4.45 27.55 4.0 27.0 4.0 z M 26.0 13.0 L 23.561 10.561 L 20.061 14.061 L 17.94 11.94 L 21.44 8.44 L 19.0 6.0 L 26.0 6.0 L 26.0 13.0 z " fill="#dedede"/>
<rect fill="none" height="30" width="30"/>
</svg>
