<?xml version="1.0" encoding="UTF-8"?>
<svg xmlns="http://www.w3.org/2000/svg" xmlns:xlink="http://www.w3.org/1999/xlink" baseProfile="tiny" contentScriptType="text/ecmascript" contentStyleType="text/css" height="30px" preserveAspectRatio="xMidYMid meet" version="1.1" viewBox="0 0 30 30" width="30px" x="0px" y="0px" zoomAndPan="magnify">
<defs/>
<path d="M 5.9468503 1.2342511 L 24.053148 1.2342511 C 26.675196 1.2342511 28.765747 3.3248024 28.765747 5.94685 L 28.765747 24.05315 C 28.765747 26.675198 26.675196 28.765747 24.053148 28.765747 L 5.94685 28.765747 C 3.3248026 28.765747 1.2342515 26.675198 1.2342515 24.05315 L 1.2342515 5.94685 C 1.2342515 3.3248024 3.3248026 1.234251 5.94685 1.234251 z " fill="#353535" fill-opacity="0.58823532" fill-rule="nonzero" stroke="none"/>
<rect fill="none" height="30" width="30"/>
<path d="M 9.261615 15.752592 C 9.251575 15.760292 9.2422905 15.768692 9.233863 15.777812 C 9.1951475 15.802662 9.166021 15.837952 9.150608 15.878681 L 5.959174 22.687342 C 5.9491363 22.695042 5.9398503 22.703432 5.931422 22.712563 C 5.922182 22.745663 5.922182 22.780333 5.931422 22.81343 C 5.947904 22.867481 5.988017 22.91304 6.042429 22.939516 C 6.068098 22.952785 6.096384 22.961355 6.125684 22.964737 L 14.17365 23.77169 C 14.2011595 23.77639 14.22939 23.77639 14.2569 23.77169 C 14.31638 23.75671 14.366521 23.72026 14.395658 23.670822 C 14.410268 23.647491 14.419687 23.621792 14.423408 23.595173 C 14.429308 23.551523 14.419508 23.507334 14.395658 23.469086 L 13.202338 21.653444 C 13.370011 21.562435 13.529283 21.461744 13.729618 21.426489 C 16.74001 20.878319 18.760504 20.97206 20.14024 21.32562 C 21.519974 21.679182 22.26229 22.277994 22.665636 22.838657 C 22.867308 23.118988 22.978437 23.40522 23.05416 23.620392 C 23.129879 23.835566 23.161379 23.970873 23.192917 24.074303 C 23.200817 24.100153 23.175007 24.125223 23.248417 24.200388 C 23.257616 24.209787 23.275566 24.225199 23.276167 24.225609 C 23.276772 24.226013 23.358816 24.250639 23.359417 24.25083 C 23.360025 24.251013 23.442057 24.250868 23.442677 24.25083 C 23.443289 24.250792 23.525307 24.251091 23.525936 24.25083 C 23.526556 24.250568 23.568106 24.21077 23.581436 24.20039 C 23.594767 24.19001 23.601576 24.18372 23.609186 24.175169 C 23.624407 24.15808 23.630756 24.16088 23.636936 24.149948 C 23.686377 24.062529 23.672007 24.034918 23.692436 23.94821 C 23.733316 23.774792 23.808958 23.458313 23.9422 22.964737 C 24.22356 21.922485 24.052094 20.93999 23.498173 20.08997 C 22.944254 19.239952 22.011581 18.509045 20.806267 17.996937 C 18.395638 16.972723 14.856432 16.726301 10.760183 17.69433 C 10.735633 17.70013 10.7525835 17.71223 10.732433 17.719551 L 9.539131 15.853461 C 9.519231 15.822001 9.490502 15.795891 9.455876 15.777811 C 9.42187 15.760881 9.383641 15.752201 9.34487 15.752591 C 9.317358 15.747891 9.289127 15.747891 9.261615 15.752591 z " fill="#dedede"/>
<path d="M 9.261615 5.7525926 C 9.251575 5.7602925 9.2422905 5.7686925 9.233863 5.7778125 C 9.1951475 5.8026624 9.166021 5.8379526 9.150608 5.8786817 L 5.959174 12.687342 C 5.9491363 12.695042 5.9398503 12.703432 5.931422 12.712562 C 5.922182 12.745662 5.922182 12.780332 5.931422 12.813431 C 5.947904 12.867481 5.988017 12.913041 6.042429 12.939517 C 6.068098 12.952787 6.096384 12.961357 6.125684 12.964737 L 14.17365 13.77169 C 14.2011595 13.77639 14.22939 13.77639 14.2569 13.77169 C 14.31638 13.75671 14.366521 13.720261 14.395658 13.670821 C 14.410268 13.647491 14.419687 13.621791 14.423408 13.595171 C 14.429308 13.551521 14.419508 13.507331 14.395658 13.469084 L 13.202338 11.653441 C 13.370011 11.562431 13.529283 11.461741 13.729618 11.426485 C 16.74001 10.878314 18.760504 10.972055 20.14024 11.325616 C 21.519974 11.679178 22.26229 12.277988 22.665636 12.838652 C 22.867308 13.118982 22.978437 13.405214 23.05416 13.620387 C 23.129879 13.835561 23.161379 13.970868 23.192917 14.074298 C 23.200817 14.100148 23.175007 14.125217 23.248417 14.200384 C 23.257616 14.2097845 23.275566 14.225194 23.276167 14.225604 C 23.276772 14.226008 23.358816 14.250634 23.359417 14.250824 C 23.360025 14.251008 23.442057 14.250862 23.442677 14.250824 C 23.443289 14.250785 23.525307 14.251086 23.525936 14.250824 C 23.526556 14.250562 23.568106 14.210764 23.581436 14.200384 C 23.594767 14.190004 23.601576 14.183714 23.609186 14.175164 C 23.624407 14.158074 23.630756 14.160874 23.636936 14.149944 C 23.686377 14.062524 23.672007 14.034914 23.692436 13.948205 C 23.733316 13.774787 23.808958 13.458309 23.9422 12.964732 C 24.22356 11.922481 24.052094 10.939984 23.498173 10.089964 C 22.944254 9.239946 22.011581 8.509039 20.806267 7.996931 C 18.395638 6.9727182 14.856432 6.726296 10.760185 7.694324 C 10.735635 7.700124 10.752585 7.712224 10.732435 7.719544 L 9.539131 5.8534617 C 9.519231 5.822002 9.490502 5.795892 9.455876 5.7778115 C 9.42187 5.7608814 9.383641 5.7522016 9.34487 5.7525916 C 9.317358 5.7478914 9.289127 5.7478914 9.261615 5.7525916 z " fill="#dedede"/>
</svg>
