<?xml version="1.0" encoding="UTF-8"?>
<svg xmlns="http://www.w3.org/2000/svg" xmlns:xlink="http://www.w3.org/1999/xlink" baseProfile="tiny" contentScriptType="text/ecmascript" contentStyleType="text/css" height="23px" preserveAspectRatio="xMidYMid meet" version="1.1" viewBox="0 0 25 23" width="25px" x="0px" y="0px" zoomAndPan="magnify">
<path color="#000000" d="M 21.22 12.000002 C 21.2213 15.116205 19.559525 17.996239 16.861027 19.55471 C 14.162528 21.113178 10.837471 21.113178 8.13897 19.55471 C 5.4404707 17.99624 3.778727 15.116205 3.7799993 12.000002 C 3.7787292 8.883797 5.4404707 6.0037613 8.138971 4.4452915 C 10.837471 2.8868222 14.162528 2.8868222 16.861027 4.4452915 C 19.559526 6.0037613 21.221272 8.883798 21.22 12.000003 z " display="inline" fill="#ffffff" fill-opacity="0.11764706" fill-rule="nonzero" stroke="none" visibility="visible"/>
<path color="#000000" d="M 16.332369 10.561213 C 16.333204 12.605248 15.243203 14.49437 13.473156 15.516629 C 11.703109 16.538887 9.52208 16.538887 7.752033 15.516629 C 5.981986 14.49437 4.891986 12.605248 4.8928204 10.561213 C 4.891986 8.517178 5.981986 6.6280546 7.752033 5.605796 C 9.52208 4.5835376 11.703109 4.5835376 13.473156 5.605796 C 15.243203 6.6280546 16.333204 8.517178 16.332369 10.561213 z " display="inline" fill="#ffffff" fill-opacity="0.11764706" fill-rule="nonzero" stroke="none" stroke-width="1" transform="matrix(1.1748714,0,0,1.1748714,0.03156612,-0.4080663)" visibility="visible"/>
<path color="#000000" d="M 16.332369 10.561213 C 16.333204 12.605248 15.243203 14.49437 13.473156 15.516629 C 11.703109 16.538887 9.52208 16.538887 7.752033 15.516629 C 5.981986 14.49437 4.891986 12.605248 4.8928204 10.561213 C 4.891986 8.517178 5.981986 6.6280546 7.752033 5.605796 C 9.52208 4.5835376 11.703109 4.5835376 13.473156 5.605796 C 15.243203 6.6280546 16.333204 8.517178 16.332369 10.561213 z " display="inline" fill="#ffffff" fill-opacity="0.11764706" fill-rule="nonzero" stroke="none" stroke-width="1" transform="matrix(1.3497035,0,0,1.3497035,-1.8238561,-2.2545053)" visibility="visible"/>
<rect fill="none" height="23" width="25"/>
<defs>
<linearGradient gradientUnits="userSpaceOnUse" x1="12.5" x2="12.5" y1="22" y2="1.0005">
<stop offset="0" stop-color="#195b19"/>
<stop offset="1" stop-color="#9bd22d"/>
</linearGradient>
</defs>
<path color="#000000" d="M 16.332369 10.561213 C 16.333204 12.605248 15.243203 14.49437 13.473156 15.516629 C 11.703109 16.538887 9.52208 16.538887 7.752033 15.516629 C 5.981986 14.49437 4.891986 12.605248 4.8928204 10.561213 C 4.891986 8.517178 5.981986 6.6280546 7.752033 5.605796 C 9.52208 4.5835376 11.703109 4.5835376 13.473156 5.605796 C 15.243203 6.6280546 16.333204 8.517178 16.332369 10.561213 z " display="inline" fill="#8fdb6e" fill-opacity="1" fill-rule="nonzero" stroke="#5adb6e" stroke-opacity="1" stroke-width="1" transform="translate(1.8874054,0.93878746)" visibility="visible"/>
</svg>
