<?xml version="1.0" encoding="UTF-8"?>
<svg xmlns="http://www.w3.org/2000/svg" xmlns:xlink="http://www.w3.org/1999/xlink" baseProfile="tiny" contentScriptType="text/ecmascript" contentStyleType="text/css" height="30px" preserveAspectRatio="xMidYMid meet" version="1.1" viewBox="0 0 30 30" width="30px" x="0px" y="0px" zoomAndPan="magnify">
<path d="M 30.0 2.0 C 30.0 1.4660001 29.793 0.964 29.414 0.58599997 C 29.037 0.208 28.535 0.0 28.0 0.0 C 27.467 0.0 26.965 0.208 26.586 0.586 L 20.0 7.172 L 20.0 6.5 C 20.0 5.066 19.156 4.425 18.318 4.425 C 17.820002 4.425 17.322 4.6400003 16.838 5.064 L 12.338 9.0 L 8.0 9.0 C 6.3459997 9.0 5.0 10.346 5.0 12.0 L 5.0 19.0 C 5.0 19.871 5.379 20.649 5.974 21.198 L 0.58599997 26.586 C 0.208 26.964 0.0 27.466 0.0 28.0 C 0.0 28.534 0.208 29.036 0.586 29.414 C 0.9640001 29.792 1.466 30.0 2.0 30.0 C 2.534 30.0 3.036 29.792 3.414 29.414 L 10.828 22.0 L 12.338 22.0 L 16.838 25.937 C 17.322 26.361 17.820002 26.576 18.318 26.576 C 18.861 26.576 19.345 26.311 19.650002 25.848 C 19.882 25.492 20.0 25.039 20.0 24.5 L 20.0 12.828 L 29.414 3.4140005 C 29.792 3.036 30.0 2.534 30.0 2.0 z " fill-opacity="0.15" stroke-opacity="0.15"/>
<path d="M 19.0 6.465 L 19.0 5.5 C 19.0 4.4 18.322 4.093 17.496 4.816 L 12.714 9.0 L 8.0 9.0 C 6.9 9.0 6.0 9.9 6.0 11.0 L 6.0 18.0 C 6.0 18.414 6.128 18.799 6.346 19.119 L 19.0 6.465 z M 12.714 20.0 L 17.496 24.184 C 18.322 24.907 19.0 24.6 19.0 23.5 L 19.0 13.535 L 12.535 20.0 L 12.714 20.0 z M 28.707 0.293 C 28.316 -0.09799999 27.684 -0.09799999 27.293 0.293 L 1.2930012 26.293 C 0.90200114 26.684 0.90200114 27.316 1.2930012 27.707 C 1.488 27.902 1.744 28.0 2.0 28.0 C 2.256 28.0 2.512 27.902 2.707 27.707 L 28.707 1.7070009 C 29.097 1.316 29.097 0.684 28.707 0.293 z " fill-opacity="0.3" stroke-opacity="0.3"/>
<path d="M 17.496 5.816 L 12.714 10.0 L 8.0 10.0 C 6.9 10.0 6.0 10.9 6.0 12.0 L 6.0 19.0 C 6.0 19.414 6.128 19.799 6.346 20.119 L 19.0 7.465 L 19.0 6.5 C 19.0 5.4 18.322 5.093 17.496 5.816 z M 12.714 21.0 L 17.496 25.184 C 18.322 25.907 19.0 25.6 19.0 24.5 L 19.0 14.535 L 12.535 21.0 L 12.714 21.0 z " fill="#dedede"/>
<rect fill="none" height="30" width="30"/>
<path d="M 2.0 29.0 C 1.744 29.0 1.4879999 28.902 1.293 28.707 C 0.902 28.316 0.902 27.684 1.293 27.293 L 27.293 1.2930012 C 27.684 0.90200114 28.316 0.90200114 28.707 1.2930012 C 29.097998 1.6840012 29.098 2.3160012 28.707 2.7070012 L 2.7069988 28.707 C 2.512 28.902 2.256 29.0 2.0 29.0 L 2.0 29.0 z " fill="#fa664b"/>
</svg>
