<?xml version="1.0" encoding="UTF-8"?>
<svg xmlns="http://www.w3.org/2000/svg" xmlns:xlink="http://www.w3.org/1999/xlink" baseProfile="tiny" contentScriptType="text/ecmascript" contentStyleType="text/css" height="96px" preserveAspectRatio="xMidYMid meet" version="1.1" viewBox="0 0 96 96" width="96px" x="0px" y="0px" zoomAndPan="magnify">
<defs>
<linearGradient>
<stop offset="0" stop-color="#ffffff" stop-opacity="1"/>
<stop offset="1" stop-color="#ffffff" stop-opacity="0.78431374"/>
</linearGradient>
<linearGradient xlink:actuate="onLoad" xlink:show="other" xlink:type="simple">
<stop offset="0" stop-color="#e62b81" stop-opacity="1"/>
<stop offset="1" stop-color="#d71970" stop-opacity="1"/>
</linearGradient>
<linearGradient gradientUnits="userSpaceOnUse" id="linearGradient3802" x1="47.288136" x2="47.288136" xlink:actuate="onLoad" xlink:show="other" xlink:type="simple" y1="8.3384008" y2="85.081009">
<stop offset="0" stop-color="#e85857" stop-opacity="1"/>
<stop offset="1" stop-color="#e8424f" stop-opacity="1"/>
</linearGradient>
<linearGradient gradientUnits="userSpaceOnUse" id="linearGradient3807" x1="47.339211" x2="47.339211" y1="24.111418" y2="71.201042">
<stop offset="0" stop-color="#ffffff" stop-opacity="1"/>
<stop offset="1" stop-color="#ffffff" stop-opacity="0.78431374"/>
</linearGradient>
<linearGradient gradientUnits="userSpaceOnUse" id="linearGradient3814" x1="47.339211" x2="47.339211" xlink:actuate="onLoad" xlink:show="other" xlink:type="simple" y1="24.111418" y2="71.201042">
<stop offset="0" stop-color="#e85162" stop-opacity="1"/>
<stop offset="1" stop-color="#e84a59" stop-opacity="1"/>
</linearGradient>
</defs>
<path d="M 88.0 49.0 C 88.0 78.633 77.637 89.0 48.0 89.0 C 18.365 89.0 8.0 78.633 8.0 49.0 C 8.0 19.365 18.365 9.0 48.0 9.0 C 77.637 9.0 88.0 19.365 88.0 49.0 z " fill-opacity="0.4"/>
<linearGradient gradientTransform="matrix(1 0 0 1 -524.9609 -746.0391)" gradientUnits="userSpaceOnUse" x1="572.9609" x2="572.9609" xlink:actuate="onLoad" xlink:show="other" xlink:type="simple" y1="754.0391" y2="834.0391">
<stop offset="0" stop-color="#ff3fae"/>
<stop offset="1" stop-color="#900074"/>
</linearGradient>
<path d="M 88.0 48.0 C 88.0 77.633 77.637 88.0 48.0 88.0 C 18.365 88.0 8.0 77.633 8.0 48.0 C 8.0 18.365 18.365 8.0 48.0 8.0 C 77.637 8.0 88.0 18.365 88.0 48.0 z " fill="url(#linearGradient3802)" fill-opacity="1"/>
<linearGradient gradientTransform="matrix(1 0 0 1 -524.9609 -746.0391)" gradientUnits="userSpaceOnUse" id="SVGID_2_" x1="572.9609" x2="572.9609" xlink:actuate="onLoad" xlink:show="other" xlink:type="simple" y1="754.293" y2="833.5381">
<stop offset="0" stop-color="#ffffff"/>
<stop offset="1" stop-color="#ffffff" stop-opacity="0"/>
</linearGradient>
<path d="M 48.0 8.0 C 18.365 8.0 8.0 18.365 8.0 48.0 C 8.0 77.633 18.365 88.0 48.0 88.0 C 77.637 88.0 88.0 77.633 88.0 48.0 C 88.0 18.365 77.637 8.0 48.0 8.0 z M 48.0 87.0 C 18.842 87.0 9.0 77.158 9.0 48.0 C 9.0 18.842005 18.842 9.0 48.0 9.0 C 77.158005 9.0 87.0 18.842 87.0 48.0 C 87.0 77.158005 77.158 87.0 48.0 87.0 z " fill="url(#SVGID_2_)" fill-opacity="0.25" stroke-opacity="0.25"/>
<rect fill="none" height="96" width="96"/>
<path d="M 32.885 76.0 C 28.822 76.0 25.586 74.086 24.433998 71.004 C 22.753998 66.512 26.068998 61.228996 31.981 58.976997 C 33.657 58.338997 35.428 58.002 37.106 58.002 C 37.409 58.002 37.708 58.014 38.001 58.032997 L 38.001 33.573 C 38.001 31.094995 39.815 28.775995 42.218 28.176998 L 62.335 23.148998 C 62.721 23.05 63.119 23.0 63.514 23.0 C 66.029 23.0 68.0 25.009 68.0 27.573 L 68.0 60.457 C 68.0 60.587 67.992 60.715 67.977 60.842 C 67.795 64.561 64.596 68.28 60.024 70.026 C 58.346 70.663 56.568 71.0 54.885 71.0 C 50.822 71.0 47.586 69.086 46.434 66.004 C 46.161 65.27 46.018 64.512 46.0 63.751 L 46.0 65.457 C 46.0 65.587 45.992 65.715004 45.977 65.842 C 45.795 69.561005 42.596 73.28001 38.024 75.026 C 36.346 75.663 34.568 76.0 32.885 76.0 L 32.885 76.0 z M 46.0 63.418 C 46.09 59.637 49.178 55.807 53.98 53.976997 C 55.656 53.338997 57.427 53.002 59.105 53.002 C 59.408 53.002 59.707 53.014 60.0 53.032997 L 60.0 39.917 L 46.0 43.425 L 46.0 63.418 z " fill-opacity="0.05" stroke-opacity="0.05"/>
<path d="M 32.885 75.0 C 29.252 75.0 26.372995 73.335 25.370998 70.654 C 23.884998 66.683 26.944998 61.964 32.336 59.91 C 33.899 59.316 35.546997 59.002 37.106 59.002 C 37.761997 59.002 38.395 59.055 39.001 59.16 L 39.001 33.573 C 39.001 31.541002 40.489 29.638002 42.46 29.147 L 62.577 24.118002 C 62.885 24.04 63.201 24.0 63.514 24.0 C 65.469 24.0 67.0 25.569 67.0 27.573 L 67.0 60.457 C 67.0 60.545 66.994 60.632 66.982 60.719 C 66.814 64.123 63.878 67.483 59.666 69.09001 C 58.102 69.686 56.447 70.0 54.885 70.0 C 51.252 70.0 48.372997 68.335 47.371 65.654 C 45.885 61.683 48.945 56.964 54.336 54.91 C 55.899 54.316 57.546997 54.002 59.106 54.002 C 59.761997 54.002 60.395 54.055 61.002 54.16 L 61.002 38.636 L 45.002 42.645 L 45.002 65.458 C 45.002 65.546 44.996 65.633 44.983997 65.719 C 44.816 69.124 41.881996 72.485 37.668 74.091 C 36.102 74.686 34.447 75.0 32.885 75.0 L 32.885 75.0 z " fill-opacity="0.05" stroke-opacity="0.05"/>
<path d="M 32.885 74.0 C 29.679998 74.0 27.159998 72.584 26.308998 70.305 C 25.017998 66.858 27.822998 62.701 32.694 60.846 C 34.141 60.294003 35.667 60.002 37.106 60.002 C 38.147 60.002 39.126 60.148 40.001 60.435997 L 40.001 33.573 C 40.001 32.012 41.187 30.495005 42.7 30.118002 L 62.818 25.088 C 63.051 25.029 63.283 25.0 63.514 25.0 C 64.932 25.0 66.0 26.106 66.0 27.573 L 66.0 60.457 C 66.0 60.514 65.996 60.568 65.986 60.624 C 65.863 63.613 63.144 66.693 59.31 68.154 C 57.857 68.708 56.328 69.0 54.885 69.0 C 51.68 69.0 49.16 67.584 48.309 65.305 C 47.018 61.858 49.822 57.701 54.692997 55.846 C 56.139996 55.294003 57.666996 55.002 59.104996 55.002 C 60.145996 55.002 61.125996 55.148 62.000996 55.435997 L 62.000996 37.355 L 44.000996 41.865 L 44.000996 65.458 C 44.000996 65.516 43.99699 65.57 43.986996 65.625 C 43.863995 68.615 41.144997 71.693 37.310997 73.156 C 35.857 73.708 34.328 74.0 32.885 74.0 L 32.885 74.0 z " fill-opacity="0.1" stroke-opacity="0.1"/>
<path d="M 63.061 26.058 L 42.942 31.089 C 41.873 31.354 41.0 32.474 41.0 33.573 L 41.0 61.987 C 39.084 60.799 36.053 60.634 33.049 61.78 C 28.764 63.414 26.166 67.073 27.244 69.957 C 28.322 72.842 32.668 73.853 36.953 72.224 C 40.56 70.849 42.962997 68.036 42.99 65.459 L 43.0 65.459 L 43.0 41.084 L 63.0 36.073 L 63.0 56.987 C 61.084 55.799 58.053 55.634 55.049 56.78 C 50.764 58.414 48.166 62.073 49.244 64.957 C 50.322 67.842 54.668 68.853 58.953 67.224 C 62.56 65.849 64.963 63.036 64.99 60.459 L 65.0 60.459 L 65.0 27.573 C 65.0 26.474 64.127 25.792 63.061 26.058 z " fill-opacity="0.1" stroke-opacity="0.1"/>
<linearGradient gradientTransform="matrix(1 0 0 1 -524.9609 -746.0391)" gradientUnits="userSpaceOnUse" x1="570.9609" x2="570.9609" xlink:actuate="onLoad" xlink:show="other" xlink:type="simple" y1="778.5459" y2="833.3716">
<stop offset="0" stop-color="#fafcef"/>
<stop offset="0.3232" stop-color="#fafcef"/>
<stop offset="1" stop-color="#d0cbc5"/>
</linearGradient>
<path d="M 63.061 24.058 L 42.942 29.089 C 41.873 29.354 41.0 30.474 41.0 31.573 L 41.0 59.987 C 39.084 58.799 36.053 58.634 33.049 59.78 C 28.764 61.414 26.166 65.073 27.244 67.957 C 28.322 70.842 32.668 71.853 36.953 70.224 C 40.56 68.849 42.962997 66.035995 42.99 63.459 L 43.0 63.459 L 43.0 39.084 L 63.0 34.073 L 63.0 54.987 C 61.084 53.799 58.053 53.634 55.049 54.78 C 50.764 56.414 48.166 60.073 49.244 62.957 C 50.322 65.842 54.668 66.853 58.953 65.224 C 62.56 63.849 64.963 61.036 64.99 58.459 L 65.0 58.459 L 65.0 25.573 C 65.0 24.474 64.127 23.792 63.061 24.058 z " fill="url(#linearGradient3814)" fill-opacity="1"/>
<path d="M 63.061 24.058 L 42.942 29.089 C 41.873 29.354 41.0 30.474 41.0 31.573 L 41.0 59.987 C 39.084 58.799 36.053 58.634 33.049 59.78 C 28.764 61.414 26.166 65.073 27.244 67.957 C 28.322 70.842 32.668 71.853 36.953 70.224 C 40.56 68.849 42.962997 66.035995 42.99 63.459 L 43.0 63.459 L 43.0 39.084 L 63.0 34.073 L 63.0 54.987 C 61.084 53.799 58.053 53.634 55.049 54.78 C 50.764 56.414 48.166 60.073 49.244 62.957 C 50.322 65.842 54.668 66.853 58.953 65.224 C 62.56 63.849 64.963 61.036 64.99 58.459 L 65.0 58.459 L 65.0 25.573 C 65.0 24.474 64.127 23.792 63.061 24.058 z " fill="url(#linearGradient3807)" fill-opacity="1"/>
</svg>
