<?xml version="1.0" encoding="UTF-8"?>
<svg xmlns="http://www.w3.org/2000/svg" xmlns:xlink="http://www.w3.org/1999/xlink" baseProfile="tiny" contentScriptType="text/ecmascript" contentStyleType="text/css" height="360px" preserveAspectRatio="xMidYMid meet" version="1.1" viewBox="0 0 360 360" width="360px" x="0px" y="0px" zoomAndPan="magnify">
<defs/>
<path d="M 0.0 0.0 L 0.0 360.0 L 360.0 360.0 L 360.0 0.0 L 0.0 0.0 z M 357.0 357.0 L 3.0 357.0 L 3.0 3.0 L 357.0 3.0 L 357.0 357.0 z " fill="#ffffff" fill-opacity="0.1" stroke-opacity="0.1"/>
<path d="M 0.0 0.0 L 0.0 360.0 L 360.0 360.0 L 360.0 0.0 L 0.0 0.0 z M 358.0 358.0 L 2.0 358.0 L 2.0 2.0 L 358.0 2.0 L 358.0 358.0 z " fill="#ffffff" fill-opacity="0.2" stroke-opacity="0.2"/>
<path d="M 182.934 324.0 C 176.20601 324.0 169.23001 323.85 161.604 323.537 C 138.241 322.58398 107.94501 319.82797 80.832 306.869 C 75.266 304.205 70.014 301.15997 65.222 297.81998 C 63.789 296.82797 62.065 294.91797 62.001 291.45297 C 61.942 287.46497 64.919 277.81598 69.314 274.55698 C 79.338005 267.123 90.89101 261.99597 102.064 257.037 L 104.034004 256.15997 C 105.659004 255.43697 107.296005 254.74797 108.93101 254.05797 C 115.493004 251.29797 121.68901 248.68896 126.33101 244.12796 C 130.50201 240.02596 133.481 234.67496 134.949 228.65497 C 135.10501 228.01797 135.28401 227.35397 135.47101 226.65897 L 135.53001 226.44397 C 137.27202 220.01398 136.97002 218.61197 136.75902 218.30698 C 132.73402 214.43198 129.39102 209.44197 126.25702 202.61897 C 123.73602 197.13097 122.18902 191.62697 120.694016 186.30498 L 120.13302 184.31898 C 114.07702 181.74298 111.12102 172.69499 107.85702 157.10399 L 107.83102 156.98698 C 107.63302 156.03798 107.49702 155.38199 107.404015 155.01398 C 105.155014 146.14897 105.53902 139.69197 108.544014 135.82898 C 108.655014 135.68498 108.77101 135.54597 108.890015 135.40898 C 107.444016 129.55199 106.710014 123.53498 106.710014 117.51698 C 106.60101 116.360985 106.57801 112.78798 106.55901 109.63599 L 106.554016 108.73299 C 106.54802 107.89399 106.53301 105.66399 106.50301 105.10399 C 106.45401 104.31599 109.12001 81.083984 114.849014 70.76899 L 115.402016 69.76399 C 117.750015 65.47399 120.96502 59.596992 128.55301 57.979992 C 128.932 57.89699 129.29301 57.838993 129.62001 57.795994 C 129.848 56.947994 130.18301 55.945995 130.731 54.914993 C 133.026 50.597992 136.009 46.43199 142.252 45.198994 C 143.512 44.954994 144.769 44.840992 146.209 44.840992 C 146.842 44.840992 147.46 44.86299 148.043 44.89299 L 149.056 44.95199 C 149.819 44.995987 150.404 45.029987 150.983 45.029987 C 151.575 45.029987 152.008 44.989986 152.34601 44.903988 C 154.022 44.47799 155.787 43.83199 157.49501 43.20699 C 161.09401 41.88899 164.78801 40.53399 169.24602 40.160988 C 170.48802 40.05399 171.77902 39.99999 173.08202 39.99999 C 183.19801 39.99999 192.57202 43.15199 201.63802 46.19999 C 203.53601 46.841988 205.39801 47.46799 207.24402 48.05399 C 208.50302 48.45499 209.77802 48.84299 211.06302 49.23299 L 211.30602 49.30699 C 217.75002 51.261993 224.41002 53.28199 230.48102 56.810993 C 238.56403 61.504993 243.07802 69.72199 246.10703 76.356995 C 250.00603 84.91499 252.99402 104.881996 252.89603 106.87799 C 252.82303 108.62699 252.78603 110.11499 252.78403 111.41999 C 252.77403 114.90099 252.40602 118.60899 251.65802 122.759995 C 251.33601 124.510994 250.95702 126.506 250.57402 128.527 C 250.57402 128.527 249.94601 131.829 249.62102 133.55199 C 257.561 139.68698 252.66902 154.956 249.40701 165.13199 L 249.37001 165.249 C 248.89601 166.728 248.49101 167.995 248.20702 168.995 L 248.08302 169.43599 C 246.00302 176.83598 243.21602 183.81099 237.01903 185.04 C 236.66003 186.235 236.31802 187.42299 235.98402 188.583 C 234.39803 194.079 232.75902 199.763 229.88902 205.38599 C 228.03102 209.025 226.08902 212.08499 223.95602 214.73999 C 223.21703 215.66798 222.50902 216.383 221.82402 217.07399 C 221.12202 217.78099 220.79402 218.13998 220.64603 218.32199 C 220.48103 222.101 221.56602 226.75198 223.63902 231.129 C 228.48203 241.358 235.75603 248.65 244.67603 252.22299 C 258.01804 257.567 270.94702 263.883 283.10403 270.996 C 287.41904 273.277 291.49002 276.424 294.83804 280.072 C 297.88104 283.37698 298.20105 288.754 297.91003 291.41 C 297.58902 294.344 296.43903 296.463 294.39603 297.885 C 292.17502 299.426 289.84003 300.91602 287.45602 302.31302 C 277.579 308.104 266.50504 312.58102 253.60103 315.99902 C 233.277 321.383 210.161 324.0 182.934 324.0 L 182.934 324.0 z " fill-opacity="0.02" stroke-opacity="0.02"/>
<path d="M 182.934 323.0 C 176.214 323.0 169.25 322.85 161.645 322.539 C 138.376 321.59 108.212006 318.848 81.263 305.967 C 75.743004 303.324 70.538 300.307 65.792 297.0 C 64.55 296.141 63.056 294.475 63.0 291.436 C 62.945 287.725 65.825 278.389 69.909 275.36002 C 79.840996 267.997 91.343994 262.889 102.468994 257.95203 L 104.440994 257.075 C 106.05899 256.35602 107.689995 255.669 109.31999 254.98102 C 115.99799 252.17001 122.25499 249.53802 127.03299 244.84201 C 131.33598 240.61002 134.40999 235.09401 135.922 228.893 C 136.076 228.266 136.25299 227.608 136.439 226.92 L 136.497 226.709 C 137.08899 224.525 138.65599 218.744 137.472 217.605 C 133.523 213.802 130.249 208.90799 127.169 202.203 C 124.684 196.795 123.145996 191.326 121.659 186.037 C 121.653 186.017 121.24799 184.578 120.963 183.572 C 115.034996 181.445 112.1 172.47801 108.838 156.90001 L 108.81 156.77301 C 108.617 155.84502 108.473 155.154 108.376 154.77101 C 106.207 146.21802 106.529 140.05202 109.335 136.44402 C 109.541 136.17902 109.762 135.92601 109.992 135.68802 C 108.479 129.74802 107.712 123.63702 107.712 117.51802 C 107.603 116.31802 107.579994 112.76602 107.561 109.63102 L 107.556 108.72802 C 107.548 107.56002 107.534 105.60202 107.504 105.05202 C 107.454994 104.27402 110.085 81.41002 115.725 71.25502 L 116.28 70.24602 C 118.534996 66.126015 121.626 60.47902 128.763 58.958015 C 129.356 58.829014 129.91 58.763016 130.422 58.716015 C 130.651 57.745014 130.985 56.573013 131.616 55.386017 C 133.795 51.28602 136.614 47.333015 142.448 46.182014 C 143.638 45.951015 144.834 45.842014 146.212 45.842014 C 146.82701 45.842014 147.429 45.864014 147.996 45.893013 L 149.001 45.95101 C 149.763 45.99501 150.378 46.031013 150.985 46.031013 C 151.662 46.031013 152.173 45.981014 152.595 45.874012 C 154.328 45.434013 156.127 44.774014 157.867 44.138012 C 161.38701 42.84801 165.00801 41.52101 169.332 41.15901 C 170.549 41.05501 171.811 41.00201 173.084 41.00201 C 183.039 41.00201 192.336 44.12901 201.327 47.15201 C 203.22299 47.79301 205.091 48.421013 206.943 49.00901 C 208.245 49.42401 209.56499 49.82401 210.896 50.22901 L 211.019 50.26601 C 217.40599 52.20401 224.009 54.20601 229.98 57.67701 C 237.821 62.23101 242.232 70.27501 245.2 76.77401 C 248.94699 84.99901 251.993 104.92201 251.899 106.83101 C 251.825 108.600006 251.78801 110.10301 251.786 111.420006 C 251.776 114.842 251.413 118.493004 250.676 122.58401 C 250.343 124.395004 249.948 126.47201 249.551 128.56601 C 249.551 128.56601 248.793 132.55 248.524 133.992 C 256.599 139.427 251.714 154.666 248.457 164.832 L 248.421 164.943 C 247.94301 166.435 247.535 167.71399 247.248 168.722 L 247.123 169.167 C 245.058 176.51501 242.302 183.375 236.244 184.154 C 235.817 185.556 235.416 186.949 235.02501 188.306 C 233.45001 193.767 231.82701 199.394 229.001 204.931 C 227.173 208.511 225.26901 211.513 223.18001 214.113 C 222.475 214.998 221.78401 215.695 221.117 216.371 C 220.67401 216.81601 219.761 217.738 219.666 218.002 C 219.43001 221.969 220.548 226.93 222.74 231.557 C 227.692 242.018 235.15001 249.485 244.30801 253.151 C 257.599 258.475 270.484 264.77 282.60303 271.86 C 286.84302 274.102 290.83304 277.18198 294.10504 280.749 C 296.90604 283.78998 297.19305 288.813 296.92004 291.302 C 296.63205 293.933 295.62006 295.818 293.82904 297.066 C 291.63104 298.591 289.31805 300.066 286.95404 301.453 C 277.15604 307.195 266.16403 311.639 253.34904 315.033 C 233.105 320.395 210.072 323.0 182.934 323.0 L 182.934 323.0 z " fill-opacity="0.05" stroke-opacity="0.05"/>
<path d="M 182.934 322.0 C 176.237 322.0 169.287 321.85 161.686 321.539 C 138.513 320.594 108.48 317.867 81.69501 305.064 C 76.226006 302.447 71.06801 299.457 66.364006 296.179 C 65.313 295.44998 64.049 294.033 64.00101 291.41498 C 63.95001 287.972 66.727005 278.96597 70.506004 276.16296 C 80.34901 268.86395 91.8 263.77997 102.875 258.86395 L 104.848 257.98694 C 106.478 257.26193 108.12 256.57095 109.762 255.87994 C 116.478004 253.05194 122.821 250.38194 127.735 245.55394 C 132.171 241.19093 135.338 235.51294 136.894 229.12794 C 137.04599 228.51094 137.221 227.85994 137.405 227.17894 L 137.462 226.96994 C 138.328 223.77493 139.77701 218.43494 138.16501 216.88394 C 134.309 213.17094 131.10301 208.37195 128.078 201.78595 C 125.621 196.43996 124.094 191.00294 122.615005 185.74295 C 122.615005 185.74295 122.04201 183.70395 121.77701 182.78195 C 115.99301 181.15895 113.07801 172.27196 109.81601 156.69395 L 109.78701 156.55896 C 109.59201 155.62096 109.44401 154.91595 109.34601 154.52596 C 107.25601 146.28595 107.518005 140.40895 110.12401 137.05795 C 110.422005 136.67496 110.75101 136.32196 111.10701 136.00395 C 109.51701 129.96596 108.71101 123.75095 108.71101 117.51795 C 108.60201 116.27495 108.57901 112.74295 108.56001 109.624954 L 108.555016 108.721954 C 108.544014 107.20095 108.53101 105.53195 108.501015 104.996956 C 108.45302 104.22996 111.04801 81.733955 116.598015 71.73996 L 117.155014 70.72796 C 119.318016 66.775955 122.28301 61.36096 128.97002 59.93496 C 129.74301 59.76796 130.47002 59.71096 131.11102 59.66196 C 131.15402 59.65796 131.19603 59.65496 131.23602 59.651962 C 131.46802 58.588963 131.76503 57.232964 132.49902 55.85496 C 134.56203 51.97296 137.21802 48.23296 142.64203 47.16296 C 143.76303 46.94396 144.89803 46.84196 146.21204 46.84196 C 146.81104 46.84196 147.39503 46.86396 147.94603 46.89196 L 148.94403 46.94896 C 149.71902 46.993958 150.35603 47.03096 150.98503 47.03096 C 151.74702 47.03096 152.33704 46.97096 152.84103 46.84296 C 154.62604 46.38896 156.45203 45.71996 158.21803 45.07296 C 161.67903 43.80396 165.22203 42.50496 169.41603 42.15296 C 170.60403 42.05096 171.83803 41.99996 173.08403 41.99996 C 182.87604 41.99996 192.09503 45.100964 201.00903 48.09896 C 202.90903 48.74096 204.78203 49.36996 206.64104 49.96096 C 207.98703 50.38996 209.35304 50.80396 210.73004 51.221962 C 217.06604 53.143963 223.61005 55.128963 229.47804 58.539963 C 237.07704 62.952965 241.38504 70.82396 244.29105 77.186966 C 247.98605 85.29697 250.99405 104.90396 250.90105 106.77896 C 250.82605 108.57596 250.78905 110.09496 250.78705 111.41596 C 250.77705 114.77996 250.41905 118.37396 249.69205 122.40396 C 249.36005 124.20996 248.96605 126.28496 248.56905 128.37796 L 248.38104 129.36996 C 248.06004 131.05496 247.71904 132.84897 247.41605 134.47896 C 255.63904 139.14696 250.76105 154.36496 247.50404 164.52696 L 247.46904 164.63596 C 246.98804 166.13995 246.57504 167.42896 246.28604 168.44696 L 246.16003 168.89597 C 244.11203 176.17897 241.39703 182.92996 235.48503 183.21696 C 234.98003 184.84796 234.51202 186.47296 234.05803 188.04897 C 232.50102 193.44496 230.89203 199.02397 228.11003 204.47696 C 226.31303 207.99496 224.44504 210.94196 222.40002 213.48695 C 221.72502 214.33295 221.05202 215.01195 220.40202 215.66896 C 219.13002 216.95197 218.70302 217.45197 218.67502 217.88795 C 218.42001 222.07196 219.57202 227.20996 221.83502 231.98395 C 226.89702 242.67694 234.53802 250.31595 243.93503 254.07996 C 257.17902 259.38495 270.01904 265.65594 282.09702 272.72296 C 286.26202 274.92596 290.17203 277.94196 293.367 281.42395 C 295.931 284.20895 296.16202 289.03094 295.926 291.19394 C 295.671 293.51993 294.798 295.17294 293.258 296.24295 C 291.083 297.75296 288.792 299.21594 286.448 300.58896 C 276.728 306.28595 265.817 310.69397 253.093 314.06595 C 232.934 319.404 209.985 322.0 182.934 322.0 L 182.934 322.0 z " fill-opacity="0.05" stroke-opacity="0.05"/>
<path d="M 182.934 321.0 C 176.251 321.0 169.315 320.85 161.727 320.541 C 138.651 319.59998 108.748 316.887 82.12601 304.162 C 76.70701 301.568 71.59601 298.607 66.935005 295.35898 C 66.076004 294.76297 65.04001 293.59097 65.00001 291.39798 C 64.951004 288.08398 67.684006 279.50198 71.101006 276.96597 C 80.855 269.73398 92.255005 264.67297 103.28001 259.77798 L 105.254005 258.90097 C 106.878006 258.17798 108.51501 257.48898 110.15001 256.80096 C 116.95801 253.93396 123.38701 251.22696 128.436 246.26596 C 133.004 241.77396 136.265 235.92996 137.866 229.36597 C 138.01599 228.75697 138.189 228.11197 138.371 227.43797 L 138.42801 227.22697 C 139.47101 223.38098 140.89801 218.12297 138.85901 216.16298 C 135.09601 212.53998 131.96 207.83897 128.988 201.36798 C 126.56501 196.09798 125.047005 190.69598 123.57901 185.47198 L 123.52701 185.28798 C 123.214005 184.17097 122.89801 183.05399 122.57701 181.94199 C 116.95601 180.89499 114.06101 172.08598 110.79601 156.48799 L 110.766014 156.34698 C 110.568016 155.39798 110.417015 154.67899 110.31702 154.28099 C 108.306015 146.355 108.50702 140.76599 110.915016 137.67099 C 111.305016 137.16998 111.750015 136.73299 112.24202 136.36699 C 110.56402 130.219 109.71402 123.88099 109.71402 117.51599 C 109.60502 116.231995 109.582016 112.717995 109.56302 109.61799 L 109.55802 108.71499 C 109.54602 107.03699 109.53302 105.48599 109.50202 104.94099 C 109.455025 104.18599 112.01502 82.05798 117.47502 72.22499 L 118.03402 71.20899 C 120.10502 67.425995 122.944016 62.241993 129.18202 60.91199 C 129.89502 60.75899 130.58803 60.70499 131.20102 60.65699 C 131.57903 60.62799 131.85402 60.59899 132.05202 60.57599 C 132.11401 60.33799 132.17201 60.06599 132.23102 59.799988 C 132.44801 58.806988 132.71602 57.580986 133.38503 56.323986 C 135.19803 52.910988 137.57503 49.180984 142.83803 48.142986 C 143.89102 47.936985 144.96404 47.839985 146.21503 47.839985 C 147.12003 47.839985 148.00403 47.892986 148.78302 47.938984 L 148.83202 48.943985 L 148.89001 47.944984 C 149.66602 47.989983 150.33101 48.028984 150.98901 48.028984 C 151.83601 48.028984 152.50401 47.959984 153.09102 47.810986 C 154.93903 47.339985 156.80002 46.657986 158.60101 45.997986 C 161.98601 44.756985 165.44601 43.487988 169.50502 43.146984 C 170.67102 43.046986 171.87701 42.997986 173.08902 42.997986 C 182.71802 42.997986 191.85802 46.071987 200.69502 49.044987 C 202.59903 49.68799 204.47803 50.318985 206.34203 50.911987 C 207.69203 51.341988 209.06203 51.757988 210.44403 52.176987 C 216.75703 54.091988 223.21004 56.04899 228.97903 59.402985 C 236.33603 63.675983 240.54204 71.373985 243.38403 77.60098 C 246.92804 85.37898 249.99403 104.928986 249.90503 106.72798 C 249.83003 108.53798 249.79202 110.07298 249.79002 111.41398 C 249.78003 114.72098 249.42702 118.25698 248.71103 122.22598 C 248.35004 124.193985 247.91302 126.48798 247.48003 128.77298 L 247.40202 129.18198 C 247.03203 131.12497 246.63503 133.21498 246.30002 135.02998 C 254.68501 138.85199 249.81302 154.05698 246.55502 164.22098 L 246.51903 164.33598 C 246.03503 165.84798 245.62003 167.14899 245.32803 168.17398 L 245.20103 168.62698 C 243.21504 175.68999 240.61504 182.22699 235.09404 182.22699 C 234.98103 182.22699 234.86703 182.22299 234.75404 182.217 C 234.16205 184.09 233.62404 185.957 233.10205 187.77199 C 231.55605 193.13098 229.96104 198.65898 227.22404 204.02199 C 225.45604 207.48099 223.62404 210.372 221.62505 212.85999 C 220.98004 213.66699 220.32605 214.32898 219.69304 214.96698 C 218.27203 216.39899 217.73103 217.01598 217.68105 217.82597 C 217.41605 222.17398 218.60304 227.48997 220.93605 232.41197 C 226.10706 243.33597 233.93205 251.14798 243.56705 255.00597 C 256.76205 260.29095 269.55704 266.54095 281.59604 273.58395 C 285.68604 275.74796 289.51505 278.69894 292.63303 282.09796 C 294.78702 284.43796 295.19003 288.75195 294.93503 291.08197 C 294.71304 293.10297 293.97903 294.52298 292.69003 295.41998 C 290.52704 296.922 288.25803 298.36697 285.94604 299.723 C 276.30704 305.373 265.47806 309.748 252.84105 313.09598 C 232.763 318.416 209.897 321.0 182.934 321.0 L 182.934 321.0 z " fill-opacity="0.05" stroke-opacity="0.05"/>
<path d="M 182.934 320.0 C 176.25801 320.0 169.335 319.85 161.768 319.541 C 138.78801 318.603 109.01601 315.90598 82.55801 303.25998 C 77.185005 300.68997 72.121 297.75397 67.506004 294.53897 C 66.837006 294.07397 66.032005 293.14996 66.00001 291.37897 C 65.95501 288.31998 68.56401 280.09396 71.69601 277.76996 C 81.36001 270.60397 92.70901 265.56696 103.684006 260.69397 L 105.659004 259.81696 C 107.27701 259.09796 108.907005 258.41095 110.536 257.72495 C 117.435005 254.81894 123.952 252.07495 129.136 246.98094 C 133.836 242.35794 137.19101 236.34995 138.836 229.60394 C 138.989 228.98094 139.168 228.31894 139.355 227.62494 L 139.392 227.48593 C 140.561 223.17693 142.01599 217.81393 139.549 215.44293 C 135.879 211.90793 132.812 207.30392 129.894 200.95293 C 127.505 195.75592 125.998 190.38992 124.53999 185.20293 L 124.48699 185.01492 C 124.11399 183.68692 123.73899 182.35492 123.35199 181.03493 C 117.93399 180.65793 114.98599 171.63393 111.77199 156.28493 L 111.74099 156.13992 C 111.53999 155.17693 111.38699 154.44492 111.28399 154.03792 C 109.35199 146.42291 109.49299 141.12392 111.70099 138.28691 C 112.179985 137.67091 112.748985 137.17491 113.39799 136.80492 C 111.61499 130.52492 110.709984 124.04092 110.709984 117.51892 C 110.60098 116.19492 110.57798 112.69892 110.55898 109.61492 L 110.553986 108.71192 C 110.540985 106.96892 110.527985 105.44792 110.49599 104.887924 C 110.44999 104.14392 112.97699 82.37892 118.344986 72.71292 L 118.90598 71.693924 C 120.99598 67.87792 123.597984 63.126923 129.38599 61.892925 C 130.03598 61.751926 130.69499 61.701923 131.27599 61.656925 C 132.068 61.594925 132.58499 61.526924 132.81598 61.455925 C 132.97098 61.082924 133.08498 60.559925 133.20398 60.011925 C 133.40698 59.084927 133.65898 57.933926 134.26398 56.796925 C 136.04797 53.439926 138.19397 50.080925 143.02798 49.127926 C 144.01198 48.934925 145.02399 48.843925 146.21199 48.843925 C 147.09898 48.843925 147.97699 48.896927 148.75099 48.942924 C 149.58199 48.990925 150.288 49.032925 150.98499 49.032925 C 151.91798 49.032925 152.66399 48.953926 153.33199 48.784924 C 155.24399 48.297924 157.14299 47.599922 158.97798 46.927925 C 162.26198 45.723927 165.65797 44.478924 169.58398 44.148926 C 170.72398 44.051926 171.90099 44.002926 173.08398 44.002926 C 182.54999 44.002926 191.60999 47.050926 200.37198 49.997925 C 202.27998 50.641926 204.16498 51.274925 206.03497 51.869926 C 207.41197 52.307926 208.80997 52.731926 210.22098 53.159927 C 216.44398 55.047928 222.80598 56.97793 228.47298 60.270927 C 235.58698 64.40393 239.68997 71.926926 242.46997 78.01993 C 245.95396 85.665924 248.97498 105.22593 248.90297 106.68193 C 248.85397 107.85993 248.78996 109.64093 248.78697 111.41493 C 248.77698 114.659935 248.42998 118.13893 247.72397 122.050934 C 247.36197 124.02593 246.92297 126.33093 246.48697 128.62694 L 246.44698 128.83794 C 246.01198 131.12294 245.53598 133.62694 245.16597 135.65894 C 253.72997 138.54694 248.84097 153.80693 245.60097 163.91794 L 245.56497 164.03094 C 245.07697 165.55594 244.65797 166.86694 244.36397 167.90195 L 244.23596 168.35695 C 242.35596 175.04295 239.94696 181.22894 235.09096 181.22894 C 234.74196 181.22894 234.39595 181.19194 234.05196 181.12195 C 233.35995 183.25894 232.73895 185.40895 232.13795 187.49695 C 230.60796 192.80194 229.02695 198.28595 226.32996 203.56895 C 224.59396 206.96695 222.79895 209.80095 220.84296 212.23495 C 220.23296 212.99896 219.59596 213.64296 218.97995 214.26596 C 217.50995 215.74596 216.75494 216.56096 216.68095 217.76596 C 216.40695 222.27795 217.62796 227.77396 220.03096 232.84196 C 225.31096 243.99797 233.31996 251.98297 243.19296 255.93796 C 256.34296 261.20395 269.09296 267.43195 281.08896 274.44995 C 285.10397 276.57495 288.85297 279.46194 291.89395 282.77594 C 293.80994 284.85593 294.16495 288.90894 293.93896 290.97495 C 293.75098 292.69394 293.15396 293.87894 292.11697 294.60196 C 289.985 296.08096 287.73898 297.51395 285.438 298.86197 C 275.87698 304.46698 265.13098 308.80698 252.583 312.13196 C 232.592 317.426 209.811 320.0 182.934 320.0 L 182.934 320.0 z " fill-opacity="0.05" stroke-opacity="0.05"/>
<path d="M 182.934 319.0 C 176.281 319.0 169.371 318.852 161.809 318.543 C 138.923 317.609 109.283005 314.926 82.990005 302.357 C 77.66701 299.81 72.65001 296.904 68.078 293.718 C 67.383 293.236 67.020004 292.44098 67.001 291.361 C 66.961 288.619 69.493 280.65 72.293 278.574 C 81.865 271.474 93.164 266.459 104.091 261.607 L 106.067 260.72998 C 107.679 260.01297 109.303 259.32797 110.925 258.64597 C 117.918 255.70096 124.519005 252.91896 129.838 247.69296 C 134.672 242.93896 138.119 236.76697 139.80899 229.84096 C 139.96999 229.18495 140.161 228.48196 140.359 227.74696 C 141.611 223.12996 143.13599 217.50296 140.24399 214.72197 C 136.66899 211.27898 133.66899 206.77097 130.805 200.53397 C 128.45099 195.41296 126.951996 190.08496 125.50399 184.92996 C 125.04299 183.29095 124.58199 181.64896 124.09799 180.02496 C 123.967995 180.03897 123.83899 180.04497 123.70899 180.04497 C 118.76499 180.04497 115.85099 170.87497 112.75199 156.07797 L 112.72099 155.93198 C 112.51599 154.95198 112.35999 154.20497 112.25399 153.79097 C 110.98199 148.77296 109.98899 142.11597 112.49099 138.89996 C 113.05399 138.17696 113.76999 137.65097 114.59799 137.34497 C 112.68199 130.89897 111.71099 124.23397 111.71099 117.51697 C 111.60199 116.15497 111.57899 112.674965 111.55999 109.605965 L 112.55999 109.49696 L 111.55999 109.50397 C 111.54599 107.44597 111.53399 105.50297 111.49599 104.828964 C 111.45299 104.12296 114.068985 82.47496 119.220985 73.19597 L 119.78399 72.174965 C 121.88099 68.34696 124.25899 64.006966 129.59698 62.869965 C 130.17499 62.744965 130.77599 62.696964 131.35599 62.651966 C 132.73299 62.544968 133.44998 62.423965 133.63899 62.058968 C 133.89099 61.566967 134.034 60.912968 134.18399 60.220966 C 134.383 59.309967 134.609 58.278965 135.14899 57.263966 C 136.88899 53.988964 138.816 50.975967 143.22299 50.106964 C 144.13899 49.925964 145.08899 49.840965 146.213 49.840965 C 147.081 49.840965 147.953 49.893967 148.72299 49.939964 C 149.53099 49.986965 150.26299 50.029964 150.987 50.029964 C 152.007 50.029964 152.83 49.940964 153.579 49.751965 C 155.53499 49.252964 157.46199 48.546963 159.325 47.862965 C 162.554 46.678963 165.879 45.460964 169.67099 45.140965 C 170.77998 45.046963 171.93 44.998966 173.08699 44.998966 C 182.39299 44.998966 191.37698 48.021965 200.066 50.944965 C 201.969 51.586964 203.86 52.221966 205.736 52.818966 C 207.137 53.264965 208.562 53.696964 209.999 54.131966 C 216.105 55.984966 222.40599 57.895966 227.974 61.130966 C 234.846 65.12296 238.846 72.47397 241.564 78.43097 C 245.025 86.02397 247.958 105.63397 247.90799 106.62797 C 247.859 107.82097 247.79399 109.62697 247.79099 111.408966 C 247.78099 114.59496 247.43799 118.01497 246.74298 121.868965 C 246.37099 123.898964 245.91698 126.284966 245.46799 128.64697 C 244.96399 131.29497 244.40498 134.23798 244.01898 136.40097 C 244.26797 136.43597 244.51598 136.49397 244.76099 136.57297 C 252.51599 139.06897 247.78198 153.83797 244.65099 163.61197 L 244.61598 163.72096 C 244.12598 165.25397 243.70198 166.57996 243.40498 167.62497 L 243.27599 168.08397 C 241.50299 174.38896 239.28398 180.22498 235.09398 180.22498 C 234.52298 180.22498 233.96098 180.10597 233.41298 179.86998 C 232.59398 182.31398 231.87598 184.79997 231.17998 187.21597 C 229.66298 192.47597 228.09497 197.91298 225.44298 203.11098 C 223.73698 206.45097 221.97798 209.22798 220.06697 211.60698 C 219.47897 212.34097 218.84998 212.97598 218.24397 213.58897 C 216.85797 214.98497 215.78697 216.06598 215.68597 217.70198 C 215.40198 222.37798 216.65797 228.05199 219.12997 233.26797 C 224.51997 244.65497 232.71198 252.81297 242.82297 256.86197 C 255.92796 262.10995 268.63498 268.31696 280.58698 275.30896 C 284.52597 277.39496 288.19397 280.21497 291.15897 283.44797 C 292.76196 285.18796 293.16995 288.83096 292.94696 290.86197 C 292.79196 292.27795 292.33395 293.23096 291.54797 293.77795 C 289.43698 295.24295 287.21198 296.66095 284.93497 297.99695 C 275.45596 303.55396 264.78998 307.85995 252.32997 311.16095 C 232.422 316.438 209.724 319.0 182.934 319.0 L 182.934 319.0 z " fill-opacity="0.05" stroke-opacity="0.05"/>
<path d="M 182.932 318.0 C 176.296 318.0 169.40001 317.852 161.85 317.543 C 139.061 316.613 109.55101 313.945 83.421005 301.455 C 78.147 298.93198 73.177 296.05298 68.649 292.89798 C 68.018005 292.45898 68.005005 291.61697 68.001 291.34097 C 67.964 288.81396 70.446 281.18698 72.889 279.37598 C 82.373 272.343 93.621 267.34897 104.499 262.52097 L 106.473 261.64395 C 108.079 260.92896 109.698 260.24796 111.313 259.56796 C 118.394005 256.58597 125.08301 253.76897 130.54001 248.40596 C 135.507 243.52097 139.048 237.18497 140.781 230.07796 C 140.947 229.40196 141.14401 228.67596 141.35 227.91396 C 142.645 223.13896 144.25601 217.19296 140.93701 214.00195 C 137.45502 210.64795 134.52402 206.23595 131.712 200.11696 C 129.39 195.06396 127.90201 189.77296 126.464005 184.65596 C 125.927 182.74396 125.37501 180.77896 124.781006 178.83496 C 124.43001 178.97597 124.07201 179.04596 123.70801 179.04596 C 119.20301 179.04596 116.25001 167.90897 113.729004 155.87396 C 113.504005 154.80396 113.33401 153.98897 113.222 153.54596 C 112.225 149.61395 110.907 142.56396 113.279 139.51495 C 113.925 138.68596 114.81 138.19095 115.863 138.06696 C 113.770996 131.40196 112.711 124.496956 112.711 117.51796 C 112.601 116.10396 112.578995 112.61796 112.56 109.53996 C 112.546 107.44997 112.534 105.47596 112.493996 104.771965 C 112.452995 104.09796 115.155 82.578964 120.09499 73.68097 L 120.659 72.65697 C 122.751 68.83897 124.913994 64.88897 129.804 63.846966 C 130.329 63.733967 130.907 63.689964 131.465 63.645966 C 133.024 63.524967 134.078 63.380966 134.526 62.519966 C 134.839 61.907967 134.996 61.191967 135.161 60.433968 C 135.355 59.544968 135.55699 58.62597 136.03099 57.733967 C 137.71599 54.562965 139.43399 51.873966 143.41599 51.087967 C 144.26498 50.919968 145.15399 50.840965 146.21298 50.840965 C 147.03998 50.840965 147.86497 50.889965 148.66298 50.937965 C 149.46498 50.984966 150.22298 51.029964 150.98598 51.029964 C 152.09198 51.029964 152.99397 50.930965 153.82397 50.719963 C 155.83197 50.207962 157.78398 49.491962 159.67297 48.799965 C 162.82898 47.642963 166.09198 46.445965 169.75397 46.136963 C 170.84097 46.044964 171.96196 45.998962 173.08597 45.998962 C 182.22597 45.998962 191.13197 48.99496 199.74496 51.893963 C 201.65396 52.536964 203.54996 53.17396 205.43097 53.772964 C 206.83698 54.219963 208.26697 54.653965 209.70697 55.089966 C 215.74997 56.922966 221.99896 58.817966 227.46997 61.995964 C 234.09998 65.84796 237.99597 73.023964 240.65198 78.84696 C 244.08098 86.367966 246.93498 106.01396 246.90698 106.578964 C 246.85298 107.897964 246.79198 109.65096 246.78899 111.40797 C 246.77899 114.533966 246.44098 117.897964 245.75699 121.69197 C 245.38599 123.71697 244.93298 126.10097 244.484 128.46198 C 243.84499 131.81998 243.19199 135.25897 242.82599 137.40898 C 243.01399 137.37498 243.208 137.35698 243.40298 137.35698 C 243.75099 137.35698 244.10399 137.41399 244.45299 137.52599 C 251.25598 139.71498 246.708 153.91298 243.69699 163.30798 C 243.189 164.89598 242.74998 166.26698 242.441 167.35298 L 242.31099 167.81398 C 240.72398 173.45699 238.62498 179.22598 235.092 179.22598 C 234.333 179.22598 233.588 178.94698 232.86299 178.38998 C 231.866 181.22398 231.03 184.12299 230.217 186.93898 C 228.713 192.15398 227.157 197.54597 224.54999 202.65598 C 222.87299 205.93698 221.15099 208.65997 219.28499 210.97998 C 218.71999 211.68698 218.09999 212.30998 217.50299 212.91399 C 216.05699 214.37099 214.80899 215.63098 214.68599 217.64099 C 214.39198 222.48299 215.68199 228.33398 218.22499 233.698 C 223.72398 245.317 232.09999 253.647 242.45 257.794 C 255.513 263.023 268.173 269.208 280.081 276.17502 C 283.943 278.22202 287.53198 280.97803 290.421 284.126 C 291.798 285.62 292.149 288.966 291.952 290.755 C 291.83 291.866 291.511 292.587 290.975 292.958 C 288.881 294.411 286.67902 295.815 284.427 297.13602 C 275.028 302.648 264.445 306.919 252.072 310.19702 C 232.257 315.44702 209.64001 318.00003 182.938 318.00003 C 182.934 318.0 182.934 318.0 182.932 318.0 z " fill-opacity="0.05" stroke-opacity="0.05"/>
<path d="M 289.68 284.803 C 286.813 281.678 283.32098 279.026 279.572 277.039 C 267.57898 270.021 254.97499 263.889 242.07399 258.723 C 230.65 254.14699 222.54298 245.168 217.318 234.129 C 214.96799 229.172 213.35199 223.05699 213.68399 217.582 C 213.88599 214.275 216.58398 212.752 218.50198 210.355 C 220.51999 207.845 222.18999 205.06999 223.65498 202.205 C 227.86198 193.961 229.24498 185.1 232.45099 176.589 C 237.38998 182.64601 240.58499 170.194 241.47398 167.08101 C 243.49098 159.981 251.06898 140.70901 244.14099 138.48001 C 243.12 138.15102 242.215 138.51201 241.532 139.30202 C 241.663 137.60002 243.61499 127.81002 244.768 121.51602 C 245.371 118.178024 245.774 114.80902 245.785 111.40802 C 245.78801 109.78302 245.839 108.15902 245.904 106.53002 C 245.92001 106.22302 243.13301 86.70802 239.738 79.26302 C 236.904 73.04702 233.069 66.40903 226.96501 62.862022 C 220.30301 58.992023 212.40102 57.041023 205.12401 54.72702 C 193.80101 51.12102 181.951 46.11502 169.835 47.13402 C 164.141 47.61402 159.474 50.314022 154.06801 51.69002 C 150.59702 52.57502 147.10501 51.376022 143.606 52.071022 C 140.049 52.772022 138.495 55.223022 136.911 58.20502 C 136.106 59.717022 136.176 61.48802 135.411 62.98102 C 134.409 64.913025 131.75499 64.45102 130.01 64.82702 C 125.149994 65.86202 123.171 70.21402 120.966995 74.168015 C 116.188995 82.77602 113.45899 104.20401 113.49 104.71602 C 113.590996 106.46002 113.52 115.01902 113.71 117.51902 C 113.71 124.61202 114.851 131.97902 117.256 139.11803 C 110.598 137.91603 113.459 150.41603 114.190994 153.30103 C 115.076 156.78302 119.481995 182.80902 125.343994 177.28003 C 127.732994 184.81602 129.28299 192.44302 132.61899 199.70003 C 134.88199 204.62402 137.69998 209.49902 141.62799 213.28203 C 145.95099 217.43604 142.982 225.30302 141.75099 230.31703 C 140.01299 237.44403 136.49199 243.95403 131.239 249.12003 C 124.361 255.87802 115.453995 258.743 106.878 262.55902 C 95.593994 267.579 83.458 272.78403 73.483 280.182 C 71.087006 281.957 68.17 291.34802 69.219 292.078 C 73.854004 295.307 78.764 298.119 83.852005 300.553 C 107.992004 312.092 135.45601 315.467 161.89001 316.545 C 191.76602 317.76202 222.74902 316.932 251.811 309.23102 C 262.993 306.27002 273.918 302.13702 283.91602 296.27402 C 286.127 294.979 288.29102 293.60202 290.398 292.139 C 291.412 291.434 291.126 286.373 289.68 284.803 z " fill-opacity="0.05" stroke-opacity="0.05"/>
<path d="M 289.68 283.803 C 286.813 280.68002 283.32098 278.028 279.572 276.04102 C 267.57898 269.023 254.97499 262.889 242.07399 257.725 C 230.65 253.149 222.54298 244.168 217.318 233.129 C 214.96799 228.174 213.35199 222.05899 213.68399 216.582 C 213.88599 213.275 216.58398 211.752 218.50198 209.355 C 220.51999 206.847 222.18999 204.06999 223.65498 201.205 C 227.86198 192.961 229.24498 184.101 232.45099 175.589 C 237.38998 181.64601 240.58499 169.196 241.47398 166.08101 C 243.49098 158.981 251.06898 139.71 244.14099 137.481 C 243.12 137.15201 242.215 137.513 241.532 138.30301 C 241.663 136.60101 243.61499 126.81101 244.768 120.51701 C 245.371 117.179016 245.774 113.81001 245.785 110.40901 C 245.78801 108.78401 245.839 107.16001 245.904 105.53101 C 245.92001 105.224014 243.13301 85.709015 239.738 78.264015 C 236.904 72.04801 233.069 65.41002 226.96501 61.863014 C 220.30301 57.993015 212.40102 56.042015 205.12401 53.728012 C 193.80101 50.122013 181.951 45.116013 169.835 46.135014 C 164.141 46.615013 159.474 49.315014 154.06801 50.691013 C 150.59702 51.57601 147.10501 50.377014 143.606 51.072014 C 140.049 51.773014 138.495 54.224014 136.911 57.206013 C 136.106 58.718014 136.176 60.489014 135.411 61.982014 C 134.409 63.914013 131.75499 63.452015 130.01 63.828014 C 125.149994 64.863014 123.171 69.21501 120.966995 73.169014 C 116.188995 81.777016 113.45899 103.20502 113.49 103.71701 C 113.590996 105.46101 113.52 114.02001 113.71 116.52001 C 113.71 123.613014 114.851 130.98001 117.256 138.11902 C 110.598 136.91702 113.459 149.41801 114.190994 152.30302 C 115.076 155.78502 119.481995 181.81102 125.343994 176.28003 C 127.732994 183.81602 129.28299 191.44302 132.61899 198.70203 C 134.88199 203.62602 137.69998 208.49902 141.62799 212.28403 C 145.95099 216.43602 142.982 224.30403 141.75099 229.31703 C 140.01299 236.44403 136.49199 242.95602 131.239 248.12003 C 124.361 254.88002 115.453995 257.74503 106.878 261.55902 C 95.593994 266.58002 83.458 271.78403 73.483 279.182 C 71.087006 280.957 68.17 290.35 69.219 291.078 C 73.854004 294.307 78.764 297.119 83.852005 299.555 C 107.992004 311.094 135.45601 314.46698 161.89001 315.54498 C 191.76602 316.762 222.74902 315.93198 251.811 308.232 C 262.993 305.26898 273.918 301.136 283.91602 295.273 C 286.127 293.978 288.29102 292.601 290.398 291.14 C 291.412 290.436 291.126 285.375 289.68 283.803 z " fill-opacity="0.05" stroke-opacity="0.05"/>
<linearGradient gradientUnits="userSpaceOnUse" x1="180.0005" x2="180.0005" y1="315.001" y2="45.001">
<stop offset="0" stop-color="#fafcef"/>
<stop offset="0.2727" stop-color="#d0cbc5"/>
<stop offset="1" stop-color="#fafcef"/>
</linearGradient>
<path d="M 289.68 282.803 C 286.813 279.678 283.32098 277.026 279.572 275.039 C 267.57898 268.021 254.97499 261.889 242.07399 256.723 C 230.65 252.14699 222.54298 243.168 217.318 232.129 C 214.96799 227.172 213.35199 221.05699 213.68399 215.582 C 213.88599 212.275 216.58398 210.752 218.50198 208.355 C 220.51999 205.845 222.18999 203.06999 223.65498 200.205 C 227.86198 191.961 229.24498 183.1 232.45099 174.589 C 237.38998 180.64601 240.58499 168.194 241.47398 165.08101 C 243.49098 157.981 251.06898 138.70901 244.14099 136.48001 C 243.12 136.15102 242.215 136.51201 241.532 137.30202 C 241.663 135.60002 243.61499 125.81002 244.768 119.51602 C 245.371 116.178024 245.774 112.80902 245.785 109.40802 C 245.78801 107.78302 245.839 106.15902 245.904 104.53002 C 245.92001 104.22302 243.13301 84.70802 239.738 77.26302 C 236.904 71.04702 233.069 64.40903 226.96501 60.862022 C 220.30301 56.992023 212.40102 55.041023 205.12401 52.72702 C 193.80101 49.12102 181.951 44.11502 169.835 45.13402 C 164.141 45.61402 159.474 48.314022 154.06801 49.69002 C 150.59702 50.57502 147.10501 49.376022 143.606 50.071022 C 140.049 50.772022 138.495 53.223022 136.911 56.20502 C 136.106 57.717022 136.176 59.48802 135.411 60.98102 C 134.409 62.91302 131.75499 62.451023 130.01 62.827023 C 125.149994 63.862022 123.171 68.21402 120.966995 72.16802 C 116.188995 80.776024 113.45899 102.204025 113.49 102.71602 C 113.590996 104.46002 113.52 113.01902 113.71 115.51902 C 113.71 122.61202 114.851 129.97902 117.256 137.11803 C 110.598 135.91603 113.459 148.41603 114.190994 151.30103 C 115.076 154.78302 119.481995 180.80902 125.343994 175.28003 C 127.732994 182.81602 129.28299 190.44302 132.61899 197.70003 C 134.88199 202.62402 137.69998 207.49902 141.62799 211.28203 C 145.95099 215.43604 142.982 223.30302 141.75099 228.31703 C 140.01299 235.44403 136.49199 241.95403 131.239 247.12003 C 124.361 253.87802 115.453995 256.743 106.878 260.55902 C 95.593994 265.579 83.458 270.78403 73.483 278.182 C 71.087006 279.957 68.17 289.34802 69.219 290.078 C 73.854004 293.307 78.764 296.119 83.852005 298.553 C 107.992004 310.092 135.45601 313.467 161.89001 314.545 C 191.76602 315.76202 222.74902 314.932 251.811 307.23102 C 262.993 304.27002 273.918 300.13702 283.91602 294.27402 C 286.127 292.979 288.29102 291.60202 290.398 290.139 C 291.412 289.434 291.126 284.373 289.68 282.803 z " fill="#ffffff" fill-opacity="1"/>
<path d="M 120.967 78.168 C 123.171005 74.214 125.15 69.862 130.01001 68.826996 C 131.755 68.451 134.40901 68.912994 135.41101 66.980995 C 136.17601 65.48799 136.10602 63.715996 136.91101 62.204994 C 138.49501 59.223995 140.05002 56.771996 143.60602 56.070995 C 147.10501 55.375996 150.59702 56.574997 154.06802 55.689995 C 159.47302 54.313995 164.14003 51.614994 169.83502 51.133995 C 181.95102 50.113995 193.80103 55.119995 205.12402 58.726994 C 212.40002 61.039993 220.30302 62.991993 226.96503 66.86199 C 233.06903 70.40899 236.90402 77.04799 239.73802 83.26299 C 242.70502 89.76799 245.20702 105.48999 245.78003 109.55799 C 245.78104 109.50699 245.78503 109.45699 245.78503 109.40799 C 245.78804 107.78299 245.83904 106.15899 245.90404 104.52999 C 245.92004 104.22299 243.13304 84.70799 239.73804 77.26299 C 236.90404 71.04699 233.06903 64.409 226.96504 60.86199 C 220.30304 56.991993 212.40105 55.040993 205.12404 52.72699 C 193.80104 49.12099 181.95103 44.11499 169.83504 45.13399 C 164.14104 45.61399 159.47403 48.31399 154.06804 49.68999 C 150.59705 50.57499 147.10504 49.37599 143.60603 50.07099 C 140.04903 50.77199 138.49503 53.222992 136.91103 56.20499 C 136.10603 57.71699 136.17603 59.48799 135.41103 60.98099 C 134.40903 62.91299 131.75502 62.450993 130.01003 62.826992 C 125.150024 63.86199 123.17103 68.21399 120.967026 72.16799 C 116.189026 80.77599 113.45902 102.203995 113.49003 102.71599 C 113.53503 103.49499 113.54603 105.63499 113.56103 107.986984 C 114.016 104.113 116.658 85.932 120.967 78.168 z " fill="#ffffff" fill-opacity="0.25" stroke-opacity="0.25"/>
<path d="M 217.317 232.129 C 215.644 228.59999 214.35901 224.484 213.868 220.43 C 213.772 220.78899 213.709 221.172 213.683 221.58199 C 213.351 227.05699 214.967 233.17198 217.317 238.12898 C 222.542 249.16798 230.649 258.14697 242.073 262.723 C 254.974 267.88898 267.578 274.022 279.57098 281.039 C 283.31998 283.025 286.81198 285.678 289.679 288.803 C 289.972 289.121 290.215 289.586 290.41098 290.125 C 291.40698 289.385 291.11798 284.367 289.679 282.803 C 286.81198 279.678 283.31998 277.026 279.57098 275.039 C 267.57797 268.021 254.97398 261.889 242.07298 256.723 C 230.649 252.146 222.542 243.168 217.317 232.129 z " fill="#ffffff" fill-opacity="0.25" stroke-opacity="0.25"/>
<path d="M 244.142 136.48 C 243.62799 136.314 243.145 136.32399 242.704 136.47499 C 242.086 139.76498 241.597 142.48 241.53299 143.30199 C 242.217 142.512 243.122 142.15099 244.14198 142.47998 C 245.55998 142.93597 246.36298 144.11398 246.73798 145.74898 C 247.38 141.145 246.971 137.391 244.142 136.48 z " fill="#ffffff" fill-opacity="0.25" stroke-opacity="0.25"/>
<path d="M 70.029 290.615 C 70.927 287.926 72.27 285.08 73.483 284.181 C 83.458 276.783 95.593 271.577 106.878006 266.558 C 115.45401 262.742 124.36101 259.876 131.23901 253.11902 C 136.49202 247.95302 140.01201 241.44302 141.751 234.31602 C 142.68901 230.49202 144.63 225.00902 143.584 220.78102 C 143.13 223.47002 142.28 226.15802 141.751 228.31602 C 140.013 235.44302 136.492 241.95302 131.23901 247.11902 C 124.361015 253.87701 115.45401 256.742 106.87801 260.558 C 95.59401 265.578 83.458015 270.78302 73.48302 278.181 C 71.08702 279.956 68.17001 289.347 69.21902 290.077 C 69.486 290.264 69.762 290.434 70.029 290.615 z " fill="#ffffff" fill-opacity="0.25" stroke-opacity="0.25"/>
<path d="M 117.256 143.117 C 116.59 141.14 116.03 139.144 115.556 137.143 C 112.747 137.87401 112.694 142.354 113.198 146.188 C 113.65 144.087 114.809 142.676 117.256 143.117 z " fill="#ffffff" fill-opacity="0.25" stroke-opacity="0.25"/>
<path d="M 217.317 232.129 C 215.46 228.211 214.078 223.56999 213.738 219.092 C 213.71501 219.252 213.69301 219.412 213.68301 219.582 C 213.35101 225.057 214.96701 231.172 217.31702 236.129 C 222.54202 247.168 230.64902 256.147 242.07301 260.723 C 254.97401 265.88898 267.578 272.022 279.571 279.039 C 283.32 281.025 286.812 283.678 289.67902 286.803 C 290.2 287.367 290.56802 288.389 290.781 289.492 C 291.28702 287.9 290.89502 284.12302 289.67902 282.803 C 286.812 279.678 283.32 277.026 279.571 275.039 C 267.578 268.021 254.97401 261.889 242.07301 256.723 C 230.649 252.146 222.542 243.168 217.317 232.129 z " fill="#ffffff" fill-opacity="0.25" stroke-opacity="0.25"/>
<path d="M 244.142 136.48 C 243.465 136.261 242.84 136.35199 242.295 136.666 C 241.88 138.928 241.581 140.672 241.532 141.303 C 242.216 140.513 243.121 140.152 244.14099 140.48099 C 245.78099 141.00798 246.59999 142.49799 246.881 144.54698 C 247.287 140.502 246.72 137.311 244.142 136.48 z " fill="#ffffff" fill-opacity="0.25" stroke-opacity="0.25"/>
<path d="M 120.967 76.168 C 123.171005 72.214 125.15 67.862 130.01001 66.826996 C 131.755 66.451 134.40901 66.912994 135.41101 64.980995 C 136.17601 63.487995 136.10602 61.715996 136.91101 60.204994 C 138.49501 57.223995 140.05002 54.771996 143.60602 54.070995 C 147.10501 53.375996 150.59702 54.574997 154.06802 53.689995 C 159.47302 52.313995 164.14003 49.614994 169.83502 49.133995 C 181.95102 48.113995 193.80103 53.119995 205.12402 56.726994 C 212.40002 59.039993 220.30302 60.991993 226.96503 64.86199 C 233.06903 68.40899 236.90402 75.04799 239.73802 81.26299 C 242.76003 87.89199 245.30002 104.078995 245.80902 107.76699 C 245.83002 106.68899 245.86102 105.61099 245.90402 104.52999 C 245.92003 104.22299 243.13303 84.70799 239.73802 77.26299 C 236.90402 71.04699 233.06902 64.409 226.96503 60.86199 C 220.30302 56.991993 212.40103 55.040993 205.12402 52.72699 C 193.80103 49.12099 181.95102 44.11499 169.83502 45.13399 C 164.14102 45.61399 159.47403 48.31399 154.06802 49.68999 C 150.59703 50.57499 147.10503 49.37599 143.60602 50.07099 C 140.04901 50.77199 138.49503 53.222992 136.91101 56.20499 C 136.10602 57.71699 136.17601 59.48799 135.41101 60.98099 C 134.40901 62.91299 131.755 62.450993 130.01001 62.826992 C 125.15001 63.86199 123.17101 68.21399 120.96701 72.16799 C 116.18901 80.77599 113.45901 102.203995 113.49001 102.71599 C 113.52201 103.277985 113.53701 104.54899 113.54901 106.09399 C 113.965 102.466 116.616 84.006 120.967 76.168 z " fill="#ffffff" fill-opacity="0.25" stroke-opacity="0.25"/>
<path d="M 69.526 290.281 C 70.352 287.21802 72.013 283.269 73.483 282.181 C 83.458 274.783 95.593 269.577 106.878006 264.558 C 115.45401 260.742 124.36101 257.876 131.23901 251.11902 C 136.49202 245.95302 140.01201 239.44302 141.751 232.31602 C 142.628 228.74402 144.373 223.72803 143.75 219.63402 C 143.377 222.69801 142.355 225.85101 141.751 228.31602 C 140.013 235.44302 136.492 241.95302 131.23901 247.11902 C 124.361015 253.87701 115.45401 256.742 106.87801 260.558 C 95.59401 265.578 83.458015 270.78302 73.48302 278.181 C 71.08702 279.956 68.17001 289.347 69.21902 290.077 C 69.32 290.148 69.426 290.211 69.526 290.281 z " fill="#ffffff" fill-opacity="0.25" stroke-opacity="0.25"/>
<path d="M 117.256 141.117 C 116.80299 139.77101 116.408 138.416 116.044 137.057 C 113.077995 137.347 112.715 141.25 113.061 144.981 C 113.387 142.455 114.512 140.622 117.256 141.117 z " fill="#ffffff" fill-opacity="0.25" stroke-opacity="0.25"/>
<linearGradient gradientUnits="userSpaceOnUse" id="SVGID_2_" x1="252.3262" x2="252.3262" y1="288.6602" y2="218.0898">
<stop offset="0" stop-color="#ffffff" stop-opacity="0.2"/>
<stop offset="0.3091" stop-color="#ffffff"/>
<stop offset="0.7212" stop-color="#ffffff"/>
<stop offset="1" stop-color="#ffffff" stop-opacity="0.2"/>
</linearGradient>
<path d="M 217.317 232.129 C 215.321 227.918 213.867 222.871 213.674 218.09 C 213.466 223.43399 215.038 229.32399 217.317 234.129 C 222.542 245.168 230.649 254.147 242.073 258.723 C 254.974 263.88898 267.578 270.022 279.57098 277.039 C 283.31998 279.025 286.81198 281.678 289.679 284.803 C 290.38098 285.565 290.80698 287.14902 290.947 288.66 C 291.15198 286.836 290.716 283.928 289.679 282.803 C 286.81198 279.678 283.31998 277.026 279.57098 275.039 C 267.57797 268.021 254.97398 261.889 242.07298 256.723 C 230.649 252.146 222.542 243.168 217.317 232.129 z " fill="url(#SVGID_2_)" fill-opacity="0.25" stroke-opacity="0.25"/>
<linearGradient gradientUnits="userSpaceOnUse" id="SVGID_3_" x1="244.2656" x2="244.2656" y1="143.4199" y2="136.3599">
<stop offset="0" stop-color="#ffffff" stop-opacity="0.2"/>
<stop offset="0.3091" stop-color="#ffffff"/>
<stop offset="0.7212" stop-color="#ffffff"/>
<stop offset="1" stop-color="#ffffff" stop-opacity="0.2"/>
</linearGradient>
<path d="M 244.142 136.48 C 243.288 136.205 242.51599 136.41699 241.886 136.957 C 241.694 138.07 241.563 138.909 241.532 139.303 C 242.216 138.513 243.121 138.152 244.14099 138.48099 C 246.00499 139.081 246.81299 140.92099 246.967 143.41998 C 247.158 139.919 246.475 137.231 244.142 136.48 z " fill="url(#SVGID_3_)" fill-opacity="0.25" stroke-opacity="0.25"/>
<linearGradient gradientUnits="userSpaceOnUse" id="SVGID_4_" x1="106.4468" x2="106.4468" y1="289.9609" y2="218.5469">
<stop offset="0" stop-color="#ffffff" stop-opacity="0.2"/>
<stop offset="0.3091" stop-color="#ffffff"/>
<stop offset="0.7212" stop-color="#ffffff"/>
<stop offset="1" stop-color="#ffffff" stop-opacity="0.2"/>
</linearGradient>
<path d="M 73.483 280.182 C 83.458 272.784 95.593 267.578 106.878006 262.55902 C 115.45401 258.743 124.36101 255.87701 131.23901 249.12003 C 136.49202 243.95403 140.01201 237.44403 141.751 230.31703 C 142.56401 227.00603 144.12201 222.45602 143.852 218.54703 C 143.625 221.94003 142.42801 225.55902 141.751 228.31703 C 140.013 235.44403 136.492 241.95403 131.23901 247.12003 C 124.361015 253.87802 115.45401 256.743 106.87801 260.55902 C 95.59401 265.579 83.458015 270.78403 73.48302 278.182 C 71.16102 279.903 68.362015 288.74802 69.14402 289.961 C 69.688 286.891 71.723 281.484 73.483 280.182 z " fill="url(#SVGID_4_)" fill-opacity="0.25" stroke-opacity="0.25"/>
<linearGradient gradientUnits="userSpaceOnUse" id="SVGID_5_" x1="115.104" x2="115.104" y1="143.8745" y2="137.0391">
<stop offset="0" stop-color="#ffffff" stop-opacity="0.2"/>
<stop offset="0.3091" stop-color="#ffffff"/>
<stop offset="0.7212" stop-color="#ffffff"/>
<stop offset="1" stop-color="#ffffff" stop-opacity="0.2"/>
</linearGradient>
<path d="M 117.256 139.117 C 117.023994 138.429 116.814995 137.73601 116.605995 137.044 C 113.449 136.893 112.798996 140.29001 112.980995 143.875 C 113.15 140.905 114.198 138.565 117.256 139.117 z " fill="url(#SVGID_5_)" fill-opacity="0.25" stroke-opacity="0.25"/>
<linearGradient gradientUnits="userSpaceOnUse" id="SVGID_6_" x1="113.3325" x2="246" y1="75.5391" y2="75.5391">
<stop offset="0" stop-color="#ffffff" stop-opacity="0.2"/>
<stop offset="0.3091" stop-color="#ffffff"/>
<stop offset="0.7212" stop-color="#ffffff"/>
<stop offset="1" stop-color="#ffffff" stop-opacity="0.2"/>
</linearGradient>
<path d="M 120.967 74.168 C 123.171005 70.214 125.15 65.862 130.01001 64.826996 C 131.755 64.451 134.40901 64.912994 135.41101 62.980995 C 136.17601 61.487995 136.10602 59.715996 136.91101 58.204994 C 138.49501 55.223995 140.05002 52.771996 143.60602 52.070995 C 147.10501 51.375996 150.59702 52.574997 154.06802 51.689995 C 159.47302 50.313995 164.14003 47.614994 169.83502 47.133995 C 181.95102 46.113995 193.80103 51.119995 205.12402 54.726994 C 212.40002 57.039993 220.30302 58.991993 226.96503 62.86199 C 233.06903 66.40899 236.90402 73.04799 239.73802 79.26299 C 242.85602 86.10099 245.46002 103.11099 245.85103 106.076996 C 245.86803 105.561 245.88303 105.046 245.90402 104.529 C 245.92003 104.222 243.13303 84.707 239.73802 77.262 C 236.90402 71.046 233.06902 64.408005 226.96503 60.861 C 220.30302 56.991 212.40103 55.04 205.12402 52.725998 C 193.80103 49.12 181.95102 44.114 169.83502 45.133 C 164.14102 45.613 159.47403 48.313 154.06802 49.689 C 150.59703 50.573997 147.10503 49.375 143.60602 50.07 C 140.04901 50.771 138.49503 53.222 136.91101 56.204 C 136.10602 57.716 136.17601 59.487 135.41101 60.98 C 134.40901 62.912 131.755 62.45 130.01001 62.826 C 125.15001 63.861 123.17101 68.213 120.96701 72.167 C 116.18901 80.775 113.45901 102.203 113.49001 102.715 C 113.50901 103.03 113.52001 103.573 113.530014 104.256996 C 113.877 101.082 116.543 82.138 120.967 74.168 z " fill="url(#SVGID_6_)" fill-opacity="0.25" stroke-opacity="0.25"/>
<radialGradient cx="672.8867" cy="2029.0244" gradientTransform="matrix(3.7726 0 0 3.7837 -2359.6062 -7449.541)" gradientUnits="userSpaceOnUse" r="15.6577">
<stop offset="0" stop-color="#a09c98"/>
<stop offset="0.2303" stop-color="#a09c98"/>
<stop offset="1" stop-color="#f4f5e9" stop-opacity="0.0714"/>
</radialGradient>
<path d="M 143.808 216.148 C 143.808 216.148 165.419 235.69899 176.311 235.69899 C 176.311 235.69899 181.588 236.03299 186.211 235.03899 C 190.832 234.04698 212.939 216.50598 212.939 216.50598 C 212.939 216.50598 212.407 270.41797 179.00099 270.41797 C 146.406 270.418 143.808 216.148 143.808 216.148 z " fill="#e4e4e4" fill-opacity="0.94117647"/>
<linearGradient gradientUnits="userSpaceOnUse" id="SVGID_8_" x1="143.8076" x2="212.9385" y1="228.0742" y2="228.0742">
<stop offset="0" stop-color="#bdbbb4" stop-opacity="0.6812"/>
<stop offset="0.3394" stop-color="#807c79"/>
<stop offset="0.6606" stop-color="#807c79"/>
<stop offset="1" stop-color="#bdbbb4" stop-opacity="0.6812"/>
</linearGradient>
<path d="M 186.211 235.039 C 181.588 236.033 176.311 235.699 176.311 235.699 C 165.419 235.699 143.80801 216.14801 143.80801 216.14801 C 143.80801 216.14801 165.419 239.947 176.311 239.947 C 176.311 239.947 181.588 240.281 186.211 239.287 C 190.832 238.295 212.939 216.506 212.939 216.506 C 212.939 216.506 190.832 234.047 186.211 235.039 z " fill="url(#SVGID_8_)" fill-opacity="0.6" stroke-opacity="0.6"/>
<linearGradient gradientUnits="userSpaceOnUse" x1="143.8076" x2="212.9385" y1="229.5742" y2="229.5742">
<stop offset="0" stop-color="#bdbbb4" stop-opacity="0.6812"/>
<stop offset="0.3394" stop-color="#807c79"/>
<stop offset="0.6606" stop-color="#807c79"/>
<stop offset="1" stop-color="#bdbbb4" stop-opacity="0.6812"/>
</linearGradient>
<linearGradient gradientUnits="userSpaceOnUse" x1="112.9541" x2="246.9951" y1="187.751" y2="187.751">
<stop offset="0" stop-color="#ffffff" stop-opacity="0.1"/>
<stop offset="0.4" stop-color="#ffffff"/>
<stop offset="0.6667" stop-color="#ffffff"/>
<stop offset="1" stop-color="#ffffff" stop-opacity="0.1"/>
</linearGradient>
<linearGradient gradientUnits="userSpaceOnUse" x1="112.7495" x2="246.5" y1="188.3418" y2="188.3418">
<stop offset="0" stop-color="#ffffff" stop-opacity="0.1"/>
<stop offset="0.4" stop-color="#ffffff"/>
<stop offset="0.6667" stop-color="#ffffff"/>
<stop offset="1" stop-color="#ffffff" stop-opacity="0.1"/>
</linearGradient>
</svg>
