<?xml version="1.0" encoding="UTF-8"?>
<svg xmlns="http://www.w3.org/2000/svg" xmlns:xlink="http://www.w3.org/1999/xlink" baseProfile="tiny" contentScriptType="text/ecmascript" contentStyleType="text/css" height="30px" preserveAspectRatio="xMidYMid meet" version="1.1" viewBox="0 0 30 30" width="30px" x="0px" y="0px" zoomAndPan="magnify">
<path d="M 9.0 13.0 C 8.353 13.0 7.833 12.716 7.575 12.221 C 7.3169994 11.726 7.383 11.138 7.7539997 10.606999 L 13.607 2.2459993 C 13.9470005 1.7599993 14.455 1.4809994 15.0 1.4809994 C 15.545 1.4809994 16.053 1.7599994 16.393 2.2459993 L 22.247 10.606999 C 22.618 11.138 22.684 11.726 22.426 12.221 C 22.168001 12.716 21.647 13.0 21.0 13.0 L 9.0 13.0 z " fill-opacity="0.15" stroke-opacity="0.15"/>
<path d="M 15.001 28.519 C 14.456 28.519 13.948 28.241 13.608001 27.754 L 7.7540007 19.393 C 7.383001 18.862999 7.317001 18.274 7.575001 17.779999 C 7.833 17.283 8.353 17.0 9.0 17.0 L 21.0 17.0 C 21.647 17.0 22.167 17.283 22.425 17.779 C 22.682999 18.272999 22.616999 18.862 22.245998 19.392 L 16.392998 27.753 C 16.054 28.24 15.546 28.519 15.001 28.519 L 15.001 28.519 z " fill-opacity="0.15" stroke-opacity="0.15"/>
<path d="M 9.0 11.0 C 8.45 11.0 8.258 10.631 8.573 10.181 L 14.426001 1.8199997 C 14.741 1.3689997 15.257001 1.3689997 15.5720005 1.8199997 L 21.426 10.181 C 21.742 10.631 21.55 11.0 21.0 11.0 L 9.0 11.0 z " fill-opacity="0.3" stroke-opacity="0.3"/>
<path d="M 21.0 17.0 C 21.55 17.0 21.742 17.369 21.427 17.819 L 15.573999 26.18 C 15.259 26.630001 14.742999 26.630001 14.4279995 26.18 L 8.573999 17.819 C 8.258 17.369 8.45 17.0 9.0 17.0 L 21.0 17.0 z " fill-opacity="0.3" stroke-opacity="0.3"/>
<path d="M 9.0 12.0 C 8.45 12.0 8.258 11.631 8.573 11.181 L 14.426001 2.8199997 C 14.741 2.3689997 15.257001 2.3689997 15.5720005 2.8199997 L 21.426 11.181 C 21.742 11.631 21.55 12.0 21.0 12.0 L 9.0 12.0 z " fill="#dedede"/>
<path d="M 21.0 18.0 C 21.55 18.0 21.742 18.369 21.427 18.819 L 15.573999 27.18 C 15.259 27.630001 14.742999 27.630001 14.4279995 27.18 L 8.573999 18.819 C 8.258 18.369 8.45 18.0 9.0 18.0 L 21.0 18.0 z " fill="#dedede"/>
<rect fill="none" height="30" width="30"/>
</svg>
