<?xml version="1.0" encoding="UTF-8"?>
<svg xmlns="http://www.w3.org/2000/svg" xmlns:xlink="http://www.w3.org/1999/xlink" baseProfile="tiny" contentScriptType="text/ecmascript" contentStyleType="text/css" height="30px" preserveAspectRatio="xMidYMid meet" version="1.1" viewBox="0 0 30 30" width="30px" x="0px" y="0px" zoomAndPan="magnify">
<path d="M 27.111 24.2 L 28.555 22.756 C 28.971 22.34 29.2 21.788 29.2 21.2 C 29.2 20.612001 28.971 20.060001 28.555 19.644001 C 28.14 19.229 27.588 19.0 27.0 19.0 C 26.412 19.0 25.86 19.229 25.444 19.645 L 24.0 21.089 L 22.556 19.645 C 22.14 19.229 21.588 19.0 21.0 19.0 C 20.955 19.0 20.912 19.01 20.869 19.013 C 20.767 18.16 20.379 17.389 19.758 16.834 L 23.27 13.318999 C 23.931 12.657999 24.029001 12.018999 23.994 11.598999 C 23.935 10.895999 23.497 10.448999 23.285 10.271999 C 22.618 9.615 21.487 9.500999 21.143 9.481999 C 19.705 9.266 18.522999 8.332999 18.471 8.292999 L 14.771001 5.6219993 C 13.143 4.546 11.499 4.0 9.887 4.0 C 8.798 4.0 7.748 4.244 6.754 4.727 C 6.254 4.3240004 5.6280003 4.098 4.964 4.098 C 3.3830004 4.098 2.0970001 5.385 2.0970001 6.966 C 2.0970001 7.631 2.3240001 8.257 2.7280002 8.757 C 1.9110003 10.464 1.3340001 13.309999 3.6460001 16.804 L 6.327 20.515001 C 6.3370004 20.527 7.2660003 21.708002 7.4830003 23.145 C 7.5020003 23.487 7.6150002 24.61 8.266001 25.278 C 8.553 25.628 9.086 26.0 9.751 26.0 C 10.309 26.0 10.837 25.754 11.3220005 25.27 L 14.832001 21.76 C 15.476001 22.482 16.404001 22.915 17.422 22.915 C 18.063002 22.915 18.656 22.728 19.174002 22.426 C 19.252 22.543001 19.342001 22.654001 19.445002 22.756 L 20.889002 24.2 L 19.445002 25.644001 C 19.029 26.061 18.8 26.612 18.8 27.2 C 18.8 27.788002 19.029 28.34 19.445 28.756 C 19.86 29.171 20.412 29.4 21.0 29.4 C 21.588 29.4 22.14 29.171 22.556 28.755 L 24.0 27.312 L 25.444 28.756 C 25.86 29.171 26.412 29.4 27.0 29.4 C 27.588 29.4 28.14 29.171 28.556 28.755 C 28.971 28.34 29.2 27.788 29.2 27.2 C 29.2 26.612001 28.971 26.060001 28.555 25.644001 L 27.111 24.2 z " fill-opacity="0.15" stroke-opacity="0.15"/>
<path d="M 18.132 16.047 L 18.194 15.985001 L 22.563 11.612 C 23.517 10.659 22.612 10.014 22.612 10.014 C 22.16 9.5199995 21.048 9.478 21.048 9.478 C 19.279 9.231 17.886 8.103 17.886 8.103 L 14.219999 5.4559994 C 10.775999 3.1789994 8.092999 4.0179996 6.5489993 4.9819994 C 6.2189994 4.4529996 5.635999 4.096999 4.964999 4.096999 C 3.9359992 4.096999 3.097999 4.933999 3.097999 5.964999 C 3.097999 6.635999 3.453999 7.2179995 3.983999 7.545999 C 3.019999 9.090999 2.1799989 11.773999 4.457999 15.2179985 L 7.1049995 18.884998 C 7.1049995 18.884998 8.231999 20.276999 8.48 22.046999 C 8.48 22.046999 8.521999 23.155998 9.014999 23.609999 C 9.014999 23.609999 9.660999 24.516998 10.617 23.561998 L 15.046999 19.131998 C 15.354999 20.158998 16.296 20.913998 17.424 20.913998 C 17.867 20.913998 18.278 20.787998 18.639 20.583998 C 18.619 20.456997 18.602 20.329998 18.602 20.198997 C 18.602 19.558998 18.852 18.956997 19.304998 18.501997 C 19.477999 18.329996 19.676998 18.196997 19.887 18.085997 C 19.751 17.113 19.054 16.323 18.132 16.047 z M 25.414 23.2 L 27.706999 20.907001 C 28.098 20.516 28.098 19.884 27.706999 19.493002 C 27.315998 19.102003 26.683998 19.102001 26.293 19.493002 L 24.0 21.786 L 21.707 19.493 C 21.316 19.102 20.684 19.102 20.293001 19.493 C 19.902002 19.884 19.902 20.516 20.293001 20.907 L 22.586 23.199999 L 20.293001 25.492998 C 19.902 25.883999 19.902 26.515999 20.293001 26.906998 C 20.488 27.103 20.744 27.2 21.0 27.2 C 21.256 27.2 21.512 27.102001 21.707 26.907001 L 24.0 24.614 L 26.293 26.907 C 26.488 27.103 26.744 27.2 27.0 27.2 C 27.256 27.2 27.512 27.102001 27.707 26.907001 C 28.098001 26.516 28.098001 25.884 27.707 25.493002 L 25.414 23.2 z " fill-opacity="0.3" stroke-opacity="0.3"/>
<line fill="none" stroke="#dedede" stroke-linecap="round" stroke-width="2" x1="21" x2="27" y1="27.2" y2="21.2"/>
<line fill="none" stroke="#dedede" stroke-linecap="round" stroke-width="2" x1="21" x2="27" y1="21.2" y2="27.2"/>
<path d="M 18.132 17.047 L 18.194 16.985 L 22.563 12.612 C 23.517 11.659 22.612 11.014 22.612 11.014 C 22.16 10.5199995 21.048 10.478 21.048 10.478 C 19.279 10.231 17.886 9.103 17.886 9.103 L 14.219999 6.4559994 C 10.775999 4.1789994 8.092999 5.0179996 6.5489993 5.9819994 C 6.2189994 5.4529996 5.635999 5.096999 4.964999 5.096999 C 3.9359992 5.096999 3.097999 5.933999 3.097999 6.964999 C 3.097999 7.635999 3.453999 8.217999 3.983999 8.546 C 3.019999 10.091 2.1799989 12.774 4.457999 16.217999 L 7.1049995 19.884998 C 7.1049995 19.884998 8.231999 21.276999 8.48 23.046999 C 8.48 23.046999 8.521999 24.155998 9.014999 24.609999 C 9.014999 24.609999 9.660999 25.516998 10.617 24.561998 L 15.046999 20.131998 C 15.354999 21.158998 16.296 21.913998 17.424 21.913998 C 17.867 21.913998 18.278 21.787998 18.639 21.583998 C 18.619 21.456997 18.602 21.329998 18.602 21.198997 C 18.602 20.558998 18.852 19.956997 19.304998 19.501997 C 19.477999 19.329996 19.676998 19.196997 19.887 19.085997 C 19.751 18.113 19.054 17.323 18.132 17.047 z M 25.414 24.2 L 27.706999 21.907001 C 28.098 21.516 28.098 20.884 27.706999 20.493002 C 27.315998 20.102003 26.683998 20.102001 26.293 20.493002 L 24.0 22.786 L 21.707 20.493 C 21.316 20.102 20.684 20.102 20.293001 20.493 C 19.902002 20.884 19.902 21.516 20.293001 21.907 L 22.586 24.199999 L 20.293001 26.492998 C 19.902 26.883999 19.902 27.515999 20.293001 27.906998 C 20.488 28.103 20.744 28.2 21.0 28.2 C 21.256 28.2 21.512 28.102001 21.707 27.907001 L 24.0 25.614 L 26.293 27.907 C 26.488 28.103 26.744 28.2 27.0 28.2 C 27.256 28.2 27.512 28.102001 27.707 27.907001 C 28.098001 27.516 28.098001 26.884 27.707 26.493002 L 25.414 24.2 z " fill="#dedede"/>
<rect fill="none" height="30" width="30"/>
</svg>
