<?xml version="1.0" encoding="UTF-8"?>
<svg xmlns="http://www.w3.org/2000/svg" xmlns:xlink="http://www.w3.org/1999/xlink" baseProfile="tiny" contentScriptType="text/ecmascript" contentStyleType="text/css" height="26px" preserveAspectRatio="xMidYMid meet" version="1.1" viewBox="0 0 26 26" width="26px" x="0px" y="0px" zoomAndPan="magnify">
<path d="M 22.104 3.885 C 19.478 1.2709999 15.204 1.2739999 12.579 3.885 L 2.373 14.034 C 1.4649999 14.939 0.96299994 16.14 0.96299994 17.418 C 0.96299994 18.696 1.4649999 19.897 2.373 20.802002 C 3.2819998 21.705002 4.489 22.203005 5.774 22.203005 C 7.059001 22.203005 8.267 21.704002 9.176001 20.802002 L 19.383 10.652002 C 20.509 9.533003 20.509 7.7110023 19.383 6.5920024 C 18.257 5.4730024 16.427 5.4730024 15.299999 6.5920024 L 15.299999 6.5920024 L 15.299999 6.5920024 L 5.773999 16.066002 C 5.3979993 16.439001 5.3979993 17.045002 5.773999 17.419004 C 5.9619994 17.606005 6.207999 17.699003 6.454999 17.699003 C 6.699999 17.699003 6.946999 17.605003 7.134999 17.419004 L 16.661999 7.946003 L 16.661999 7.946003 C 17.036 7.572003 17.645998 7.571003 18.020998 7.945003 C 18.396996 8.319003 18.396996 8.926003 18.020998 9.299003 L 7.815 19.447 C 6.724 20.53 4.823 20.53 3.7330005 19.447 C 3.1880002 18.904 2.8870003 18.184 2.8870003 17.418 C 2.8870003 16.652002 3.1880002 15.931002 3.7330005 15.389001 L 13.94 5.238 C 15.811999 3.374 18.866 3.371 20.743 5.238 C 22.618 7.104 22.618 10.139 20.743 12.005 L 11.217 21.479 C 10.841 21.851 10.841 22.458 11.217 22.832 C 11.406 23.018002 11.653 23.112 11.897 23.112 C 12.143001 23.112 12.39 23.017002 12.578 22.832 L 22.103 13.358001 C 24.73 10.747 24.73 6.496 22.104 3.885 z " fill="#dedede" fill-opacity="1"/>
<rect fill="none" height="26" width="26"/>
<defs>
<linearGradient gradientTransform="matrix(1 0 0 -1 -249.4805 -347.0195)" gradientUnits="userSpaceOnUse" x1="261.999" x2="261.999" xlink:actuate="onLoad" xlink:show="other" xlink:type="simple" y1="-370.1309" y2="-348.9448">
<stop offset="0" stop-color="#d0cbc5"/>
<stop offset="1" stop-color="#fcfcf9"/>
</linearGradient>
</defs>
</svg>
