<?xml version="1.0" encoding="UTF-8"?>
<svg xmlns="http://www.w3.org/2000/svg" xmlns:xlink="http://www.w3.org/1999/xlink" baseProfile="tiny" contentScriptType="text/ecmascript" contentStyleType="text/css" height="30px" preserveAspectRatio="xMidYMid meet" version="1.1" viewBox="0 0 30 30" width="30px" x="0px" y="0px" zoomAndPan="magnify">
<path d="M 22.0 9.0 L 14.58 9.001 L 17.188 1.0 L 12.598 1.0 L 9.0 12.0 L 16.553 12.0 L 14.1189995 18.0 L 11.561999 18.001 L 14.561999 27.0 L 21.562 18.0 L 18.71 18.0 L 22.0 9.0 z " fill-opacity="0.3"/>
<path d="M 14.563 29.0 C 14.201 29.0 13.867 28.803 13.69 28.484 L 10.69 19.486 C 10.518 19.175 10.521999 18.798 10.702 18.494 C 10.882 18.189999 11.21 18.001 11.563 18.001 L 13.445 18.0 L 15.068 14.0 L 9.0 14.0 C 8.681 14.0 8.379 13.847 8.19 13.587 C 8.000999 13.327 7.95 12.9939995 8.047999 12.69 L 11.646 1.6899996 C 11.781 1.278 12.165 1.0 12.598 1.0 L 17.189999 1.0 C 17.508999 1.0 17.810999 1.153 17.999998 1.413 C 18.187998 1.6719999 18.238998 2.006 18.141998 2.309 L 15.959 9.0 L 22.0 9.0 C 22.326 9.0 22.633 9.159 22.818 9.427 C 23.006 9.695 23.050001 10.036 22.939001 10.343 L 20.141 18.0 L 21.563002 18.0 C 21.917002 18.0 22.247002 18.188 22.425001 18.493 C 22.606 18.798 22.61 19.176 22.438002 19.484 L 15.438002 28.484 C 15.262 28.803 14.926 29.0 14.563 29.0 L 14.563 29.0 z " fill-opacity="0.15"/>
<path d="M 22.0 10.0 L 14.58 10.001 L 17.188 2.0 L 12.598 2.0 L 9.0 13.0 L 16.553 13.0 L 14.1189995 19.0 L 11.561999 19.001 L 14.561999 28.0 L 21.562 19.0 L 18.71 19.0 L 22.0 10.0 z " fill="#dedede"/>
<rect fill="none" height="30" width="30"/>
</svg>
