<?xml version="1.0" encoding="UTF-8"?>
<svg xmlns="http://www.w3.org/2000/svg" xmlns:xlink="http://www.w3.org/1999/xlink" baseProfile="tiny" contentScriptType="text/ecmascript" contentStyleType="text/css" height="57px" preserveAspectRatio="xMidYMid meet" version="1.1" viewBox="0 0 67 57" width="67px" x="0px" y="0px" zoomAndPan="magnify">
<path d="M 40.0 8.0 C 40.0 6.343 38.657 5.0 37.0 5.0 L 29.0 5.0 C 27.343 5.0 26.0 6.343 26.0 8.0 L 26.0 13.0 L 40.0 13.0 L 40.0 8.0 z M 51.0 33.0 L 51.0 11.0 C 51.0 9.896 50.104 9.0 49.0 9.0 L 42.0 9.0 L 42.0 13.0 C 42.0 14.104 41.104 15.0 40.0 15.0 L 26.0 15.0 C 24.896 15.0 24.0 14.104 24.0 13.0 L 24.0 9.0 L 17.0 9.0 C 15.896 9.0 15.0 9.896 15.0 11.0 L 15.0 49.0 C 15.0 50.104 15.896 51.0 17.0 51.0 L 40.0 51.0 L 40.0 40.0 L 22.0 40.0 L 22.0 37.0 L 40.0 37.0 C 40.0 34.794 41.794 33.0 44.0 33.0 L 51.0 33.0 z M 22.0 21.0 L 44.0 21.0 L 44.0 24.0 L 22.0 24.0 L 22.0 21.0 z M 22.0 32.0 L 22.0 29.0 L 44.0 29.0 L 44.0 32.0 L 22.0 32.0 z M 60.0 35.0 L 44.0 35.0 C 42.896 35.0 42.0 35.896 42.0 37.0 L 42.0 53.0 C 42.0 54.104 42.896 55.0 44.0 55.0 L 60.0 55.0 C 61.104 55.0 62.0 54.104 62.0 53.0 L 62.0 37.0 C 62.0 35.896 61.104 35.0 60.0 35.0 z " fill="#ffffff" fill-opacity="1" stroke-opacity="0.29999999999999999"/>
<defs>
<linearGradient gradientUnits="userSpaceOnUse" x1="38.5" x2="38.5" y1="54" y2="4.0005">
<stop offset="0" stop-color="#d0cbc5"/>
<stop offset="0.5031" stop-color="#fafcef"/>
<stop offset="0.9693" stop-color="#ffffff"/>
<stop offset="1" stop-color="#ffffff"/>
</linearGradient>
</defs>
</svg>
