<?xml version="1.0" encoding="UTF-8"?>
<svg xmlns="http://www.w3.org/2000/svg" xmlns:xlink="http://www.w3.org/1999/xlink" baseProfile="tiny" contentScriptType="text/ecmascript" contentStyleType="text/css" height="30px" preserveAspectRatio="xMidYMid meet" version="1.1" viewBox="0 0 30 30" width="30px" x="0px" y="0px" zoomAndPan="magnify">
<path d="M 20.595 8.2 C 21.120998 8.705 21.519 9.337999 21.81 10.096 C 21.809 10.063 21.8 10.033 21.8 10.0 L 21.8 8.2 L 20.595 8.2 z M 24.0 12.2 C 23.203 12.2 22.51 11.769 22.123 11.132999 C 22.304998 11.938999 22.395 12.858 22.395 13.907 L 22.395 14.329 C 22.395 18.315 21.808 18.879 20.634998 18.879 C 19.533 18.879 19.225998 18.525 19.225998 14.044 L 19.225998 9.33 L 16.667997 9.33 L 16.667997 9.66 C 16.667997 9.66 15.097998 9.117 14.250998 9.117 C 10.590998 9.117 9.677998 11.521999 9.677998 15.412 C 9.677998 20.081 11.437998 21.331 13.948998 21.331 C 15.261997 21.331 16.833998 20.671 17.723995 20.224 C 18.334995 21.095 19.249996 21.355 20.634996 21.355 C 23.404997 21.355 24.998997 19.917 24.998997 14.327999 L 24.998997 13.928 C 24.998997 13.252 24.954996 12.619 24.884996 12.011 C 24.614 12.131 24.315 12.2 24.0 12.2 z M 14.137 18.809 C 13.058001 18.809 12.26 18.172 12.26 15.436 C 12.26 12.559 12.681 11.545 14.794001 11.545 C 15.472 11.545 16.669 11.899 16.669 11.899 L 16.669 15.106 C 16.669 16.381 16.719 17.395 16.858 18.195 C 16.154 18.455 15.076 18.809 14.137 18.809 z M 14.77 23.477 C 8.880001 23.477 6.5820007 21.215 6.5820007 14.966 C 6.5820007 9.212 9.326 6.4989996 14.77 6.4989996 C 15.999001 6.4989996 17.057 6.6139994 17.97 6.845 C 17.861 6.584 17.8 6.299 17.8 6.0 C 17.8 5.374 18.067 4.811 18.488 4.41 C 17.391 4.142 16.156 4.0 14.77 4.0 C 8.176 4.0 4.0 7.348 4.0 14.965 C 4.0 23.477 7.824 26.0 14.77 26.0 C 15.897 26.0 18.218 25.766 18.218 25.766 L 18.124 23.264 C 18.124 23.264 15.708 23.477 14.77 23.477 z M 28.0 5.0 L 25.0 5.0 L 25.0 2.0 C 25.0 1.447 24.553 1.0 24.0 1.0 C 23.447 1.0 23.0 1.447 23.0 2.0 L 23.0 5.0 L 20.0 5.0 C 19.447 5.0 19.0 5.447 19.0 6.0 C 19.0 6.553 19.447 7.0 20.0 7.0 L 23.0 7.0 L 23.0 10.0 C 23.0 10.553 23.447 11.0 24.0 11.0 C 24.553 11.0 25.0 10.553 25.0 10.0 L 25.0 7.0 L 28.0 7.0 C 28.553 7.0 29.0 6.553 29.0 6.0 C 29.0 5.447 28.553 5.0 28.0 5.0 z " fill="#70afe0"/>
<rect fill="none" height="30" width="30"/>
</svg>
