<?xml version="1.0" encoding="UTF-8"?>
<svg xmlns="http://www.w3.org/2000/svg" xmlns:xlink="http://www.w3.org/1999/xlink" baseProfile="tiny" contentScriptType="text/ecmascript" contentStyleType="text/css" height="96px" preserveAspectRatio="xMidYMid meet" version="1.1" viewBox="0 0 96 96" width="96px" x="0px" y="0px" zoomAndPan="magnify">
<rect fill="none" height="96" width="96"/>
<path d="M 88.0 49.0 C 88.0 78.635 77.637 89.0 48.0 89.0 C 18.365 89.0 8.0 78.635 8.0 49.0 C 8.0 19.367 18.365 9.0 48.0 9.0 C 77.637 9.0 88.0 19.367 88.0 49.0 z " fill-opacity="0.4"/>
<linearGradient gradientTransform="matrix(1 0 0 1 -262.3403 -1131.9648)" gradientUnits="userSpaceOnUse" id="SVGID_1_" x1="310.3398" x2="310.3398" xlink:actuate="onLoad" xlink:show="other" xlink:type="simple" y1="1219.9648" y2="1139.9648">
<stop offset="0" stop-color="#46d4fc"/>
<stop offset="1" stop-color="#46d4fc"/>
</linearGradient>
<path d="M 88.0 48.0 C 88.0 77.635 77.637 88.0 48.0 88.0 C 18.365 88.0 8.0 77.635 8.0 48.0 C 8.0 18.367 18.365 8.0 48.0 8.0 C 77.637 8.0 88.0 18.367 88.0 48.0 z " fill="url(#SVGID_1_)"/>
<rect fill="none" height="80" width="80" x="7.953" y="8"/>
<linearGradient gradientTransform="matrix(1 0 0 1 -262.3403 -1131.9648)" gradientUnits="userSpaceOnUse" id="SVGID_2_" x1="310.3408" x2="310.3408" xlink:actuate="onLoad" xlink:show="other" xlink:type="simple" y1="1140.2188" y2="1219.4639">
<stop offset="0" stop-color="#ffffff"/>
<stop offset="1" stop-color="#ffffff" stop-opacity="0"/>
</linearGradient>
<path d="M 48.0 8.0 C 18.365 8.0 8.0 18.367 8.0 48.0 C 8.0 77.635 18.365 88.0 48.0 88.0 C 77.637 88.0 88.0 77.635 88.0 48.0 C 88.0 18.367 77.637 8.0 48.0 8.0 z M 48.0 87.0 C 18.842 87.0 9.0 77.159 9.0 48.0 C 9.0 18.842 18.842 9.0 48.0 9.0 C 77.158005 9.0 87.0 18.842 87.0 48.0 C 87.0 77.159 77.158 87.0 48.0 87.0 z " fill="url(#SVGID_2_)" fill-opacity="0.25"/>
<rect fill="none" height="96" width="96"/>
<path d="M 78.762 78.221 C 77.739 77.112 76.522 76.17 75.282 75.522 C 72.107994 73.670006 68.743 72.033005 65.28 70.649 C 63.535 69.954 62.145 68.541 61.155 66.452 C 60.926 65.97301 60.76 65.475006 60.676 65.018005 C 60.772 64.91401 60.864 64.80501 60.953 64.69401 C 61.585 63.912006 62.156 63.014008 62.704 61.954006 C 63.496 60.403008 63.939 58.911007 64.357 57.466007 C 66.39 56.273006 67.105 53.74201 67.462006 52.47601 L 67.48701 52.377007 C 67.545006 52.174007 67.62601 51.925007 67.72901 51.599007 L 67.76601 51.486008 C 68.145004 50.301006 68.66601 48.681007 68.90301 47.147007 C 69.27801 44.711006 68.72901 43.14201 68.09401 42.18401 C 68.09401 42.18401 68.37701 40.676006 68.40301 40.534004 C 68.62001 39.368004 68.72301 38.303005 68.727005 37.278004 C 68.727005 36.92 68.742004 36.560005 68.75201 36.238003 C 68.80501 35.182003 67.87701 29.784002 66.836006 27.509005 C 65.936005 25.537004 64.56801 23.082005 61.977005 21.580002 C 60.21901 20.56 58.430004 20.019 56.702003 19.497002 L 56.595005 19.464 C 56.282005 19.37 55.974007 19.276 55.668007 19.18 C 55.224007 19.038 54.772007 18.888 54.271008 18.718 C 51.81801 17.893 49.279007 17.043 46.369007 17.043 C 45.98301 17.043 45.598007 17.058 45.211006 17.091002 C 43.789005 17.21 42.664005 17.621002 41.669006 17.985 C 41.339005 18.106 40.99901 18.231 40.683006 18.308 C 40.612007 18.305 40.53101 18.3 40.422005 18.293 C 40.14201 18.276 39.859005 18.262 39.577003 18.262 C 39.064003 18.262 38.597004 18.306002 38.148003 18.395 C 35.422 18.933 34.234 20.988 33.755 21.88 C 31.474 22.724 30.422 24.639002 29.844002 25.693 L 29.706 25.94 C 28.033 28.947 27.28 35.133 27.320002 35.798 C 27.325 35.893 27.326002 36.088 27.328 36.422 L 27.331 36.816 C 27.339 38.095 27.348 38.602 27.369 38.853 C 27.372002 40.204 27.508 41.559 27.771002 42.888 C 27.033 44.378 26.981 46.318 27.612 48.799 C 27.633 48.882 27.705002 49.233 27.706 49.237 C 28.446 52.759 29.176 55.598 31.081 57.08 C 31.455002 58.399 31.859 59.761997 32.513 61.177 C 33.234 62.741997 33.997 63.976 34.893 65.008995 C 34.85 65.188995 34.566 66.26399 34.566 66.26399 C 34.295 67.37599 33.753 68.355 32.997 69.092 C 32.132 69.94299 30.853 70.48 29.234 71.158 L 29.137 71.199 C 28.764002 71.354 28.391 71.512 28.026 71.676 L 27.51 71.90499 C 24.584 73.20199 21.559 74.54199 18.831 76.55299 C 18.078 77.11199 17.466002 77.97299 16.956 79.145 C 23.252 85.448 33.255 88.043 48.084 88.043 C 62.993 88.043 73.022 85.416 79.311 79.035 C 79.132 78.706 78.957 78.432 78.762 78.221 z " fill-opacity="0.03"/>
<path d="M 48.084 88.041 C 62.421 88.041 72.236 85.603 78.563 79.745 C 78.399 79.407005 78.22901 79.117004 78.026 78.898 C 77.083 77.873 75.944 76.996 74.778 76.383 C 71.649 74.55801 68.329 72.941 64.91 71.574005 C 62.923004 70.78001 61.354004 69.200005 60.253 66.87601 C 59.899 66.131004 59.678 65.351006 59.626003 64.671005 C 59.815 64.48 60.005005 64.275 60.178 64.064 C 60.771 63.332005 61.304 62.492004 61.818 61.496 C 62.591 59.982 63.025 58.492 63.443 57.046 L 63.523003 56.775 C 65.462006 55.896 66.156006 53.445 66.502 52.212 L 66.53 52.104 C 66.596 51.871 66.692 51.577 66.819 51.178 C 67.19 50.026 67.696 48.448 67.923 46.991 C 68.282 44.645 67.718994 43.245003 67.037994 42.423 C 67.16899 41.728 67.39199 40.544 67.42799 40.349 C 67.631 39.244 67.73399 38.237 67.73599 37.271 C 67.73799 36.9 67.75099 36.528 67.76199 36.185 C 67.801994 35.371 66.926994 30.087002 65.937 27.920002 C 65.099 26.084002 63.833996 23.802002 61.485996 22.441002 C 59.83 21.481005 58.094997 20.957005 56.421997 20.450005 C 56.067997 20.344002 55.718 20.238005 55.372997 20.129004 C 54.922997 19.985004 54.469 19.833004 53.969997 19.665005 C 51.585 18.866005 49.122997 18.041002 46.371 18.041002 C 46.014 18.041002 45.656 18.055002 45.296997 18.085005 C 44.007996 18.193005 42.956997 18.577003 42.016 18.921003 C 41.593 19.076004 41.192997 19.222004 40.787 19.308002 C 40.664 19.308002 40.541 19.300003 40.363 19.289003 C 40.103 19.273005 39.841 19.260004 39.579 19.260004 C 39.135 19.260004 38.73 19.297005 38.344 19.374004 C 35.976997 19.841003 35.001 21.670004 34.584 22.453005 C 34.541 22.533005 34.501 22.613005 34.464 22.697004 C 32.283 23.332005 31.313 25.098003 30.721 26.176004 L 30.583 26.424004 C 29.033 29.210005 28.285 35.137005 28.322 35.744003 C 28.328 35.857 28.329 36.105003 28.331 36.412003 L 28.334002 36.808 C 28.341002 37.998 28.350002 38.614 28.372002 38.801003 C 28.372002 40.223003 28.525002 41.648003 28.828 43.041 C 28.051 44.334 27.973 46.143 28.585 48.551003 C 28.603 48.618004 28.688002 49.028004 28.688002 49.028004 C 29.417002 52.501003 30.134 55.281 31.952002 56.467003 C 32.344 57.854004 32.749 59.289 33.425003 60.754 C 34.189003 62.412003 35.008003 63.682003 35.980003 64.711 C 35.946003 64.918 35.869003 65.272995 35.703003 65.885 C 35.646004 66.096 35.592003 66.297005 35.542004 66.496 C 35.227005 67.789 34.591003 68.932 33.701004 69.803 C 32.697002 70.785 31.287004 71.377 29.615004 72.08 C 29.220003 72.246 28.824003 72.412 28.434004 72.586 L 27.919004 72.814995 C 25.041004 74.088 22.065004 75.409 19.430004 77.354 C 18.745005 77.85999 18.191004 78.69399 17.731005 79.857994 C 24.057 85.637 33.839 88.041 48.084 88.041 z " fill-opacity="0.05"/>
<path d="M 48.084 88.041 C 61.846 88.041 71.445 85.801 77.789 80.439 C 77.65 80.092 77.495 79.79401 77.29 79.57601 C 76.42301 78.635 75.367004 77.823006 74.273 77.249 C 71.18701 75.449 67.911 73.853 64.535 72.506 C 62.306004 71.615 60.560005 69.868 59.347004 67.311 C 58.855003 66.278 58.589005 65.18 58.613003 64.27599 C 58.666004 64.216995 58.736004 64.148994 58.825005 64.05899 C 59.021004 63.86199 59.21901 63.66099 59.396004 63.437992 C 59.943005 62.75799 60.443005 61.97499 60.92 61.041992 C 61.649 59.610992 62.066 58.18199 62.476 56.770992 C 62.549004 56.51499 62.622 56.25899 62.699 56.00799 C 64.521 55.532993 65.193 53.15399 65.535 51.944992 L 65.566 51.832993 C 65.638 51.573994 65.746 51.24599 65.866005 50.873993 C 66.226006 49.75199 66.719 48.215992 66.93101 46.84199 C 67.27701 44.59399 66.699005 43.38999 65.95301 42.74699 C 65.95301 42.74699 66.39001 40.44999 66.43601 40.16999 C 66.627014 39.12199 66.723015 38.17499 66.72701 37.270992 C 66.72701 36.88599 66.74201 36.50199 66.75401 36.136993 C 66.78401 35.526993 65.95101 30.379992 65.01801 28.336994 C 64.24301 26.635994 63.080013 24.525991 60.975018 23.307997 C 59.418015 22.406994 57.746017 21.899994 56.121017 21.409994 C 55.764015 21.301994 55.408012 21.193996 55.060013 21.083994 C 54.593018 20.936996 54.122013 20.777994 53.644012 20.616993 C 51.343018 19.839993 48.957012 19.040993 46.367012 19.040993 C 46.038013 19.040993 45.70801 19.053991 45.37701 19.081991 C 44.22201 19.178991 43.24501 19.534992 42.36901 19.854994 C 41.91601 20.019997 41.48801 20.176994 41.07101 20.282991 C 41.00701 20.299994 40.91001 20.306992 40.783012 20.306992 C 40.630013 20.306992 40.475018 20.296991 40.29901 20.285994 C 40.05901 20.271994 39.817013 20.258991 39.575012 20.258991 C 39.197018 20.258991 38.85501 20.289991 38.533012 20.354994 C 36.631012 20.729994 35.843018 22.208994 35.463013 22.920994 C 35.34701 23.139994 35.266014 23.352991 35.206013 23.547997 C 35.15901 23.555994 35.113014 23.563995 35.06901 23.572994 C 33.05101 24.000994 32.17301 25.600994 31.591011 26.658997 L 31.452011 26.908997 C 30.05301 29.423994 29.282013 35.156994 29.31501 35.687996 C 29.32301 35.832996 29.32401 36.180996 29.32701 36.59399 L 29.32901 36.799995 C 29.33501 37.76799 29.34201 38.534996 29.36701 38.798996 C 29.36701 40.29499 29.54501 41.786995 29.89501 43.243996 C 29.88901 43.251995 29.88301 43.259995 29.87601 43.265995 C 29.062012 44.31599 28.95401 45.962994 29.548012 48.298996 C 29.573011 48.397995 29.611012 48.57999 29.661013 48.819996 C 30.381012 52.250996 31.091011 54.983997 32.797012 55.798996 C 32.83401 55.925995 32.870014 56.054996 32.905014 56.18399 C 33.287014 57.53799 33.681015 58.937996 34.326015 60.332993 C 35.117016 62.04999 35.961018 63.31399 36.981014 64.30899 C 37.064014 64.66299 36.783012 65.69399 36.661015 66.14499 C 36.605015 66.34999 36.553013 66.54499 36.506016 66.73299 C 36.147015 68.207985 35.416016 69.513985 34.394016 70.513985 C 33.254017 71.63098 31.713017 72.277985 30.035015 72.98299 C 29.634016 73.152985 29.230017 73.32399 28.832016 73.500984 L 28.321016 73.72998 C 25.492016 74.98198 22.566015 76.27698 20.017015 78.16198 C 19.421017 78.60098 18.922018 79.418976 18.518017 80.55798 C 24.865 85.83 34.424 88.041 48.084 88.041 z " fill-opacity="0.1"/>
<path d="M 48.084 88.041 C 61.272 88.041 70.635 85.98 76.977 81.092 C 76.874 80.755005 76.746994 80.459 76.555 80.254005 C 75.766 79.399 74.79 78.65001 73.77 78.11301 C 70.729 76.338005 67.49899 74.76301 64.166 73.43301 C 61.693 72.44701 59.77 70.531006 58.445 67.73801 C 57.855 66.50001 57.554 65.16 57.622 64.062004 C 57.634 63.857 57.768 63.70501 58.115997 63.353004 C 58.289 63.181004 58.462997 63.001003 58.618996 62.808006 C 59.12199 62.185005 59.584995 61.45501 60.03099 60.582005 C 60.723995 59.229004 61.126995 57.83701 61.51699 56.48901 C 61.65599 56.01001 61.78799 55.542007 61.934994 55.085007 C 61.965992 55.08701 61.99699 55.08701 62.028996 55.08701 C 63.608997 55.08701 64.23399 52.863007 64.572 51.669006 L 64.604996 51.556007 C 64.68099 51.286007 64.79099 50.94901 64.91499 50.564007 C 65.26599 49.472008 65.744995 47.980007 65.94299 46.687008 C 66.228 44.836006 65.85899 43.669006 64.84899 43.21401 C 64.93899 42.73401 65.36299 40.502007 65.45599 39.98501 C 65.63999 38.994007 65.727 38.104008 65.727 37.26301 C 65.729 36.86701 65.743 36.46901 65.756 36.08201 C 65.77599 35.709007 65.002 30.701008 64.10999 28.748009 C 63.39299 27.18101 62.33499 25.244007 60.474995 24.168009 C 59.01799 23.324009 57.39899 22.835009 55.832993 22.36101 C 55.470993 22.25201 55.108994 22.14201 54.759995 22.03101 C 54.286995 21.88201 53.812996 21.72201 53.333996 21.56101 C 51.103996 20.81501 48.796997 20.04101 46.366997 20.04101 C 46.063995 20.04101 45.762997 20.053007 45.461 20.07801 C 44.435997 20.164013 43.564 20.483011 42.719997 20.79101 C 42.24 20.96801 41.785995 21.13401 41.317 21.25201 C 41.169 21.29001 40.999996 21.30801 40.783997 21.30801 C 40.602997 21.30801 40.421997 21.29701 40.24 21.28601 C 40.018997 21.27301 39.797997 21.261011 39.575996 21.261011 C 39.263996 21.261011 38.985996 21.28601 38.726997 21.337011 C 37.290997 21.62001 36.699997 22.730013 36.345997 23.393011 C 36.178 23.708012 36.110996 24.017012 36.055996 24.26501 C 36.040997 24.33501 36.025 24.40801 36.008995 24.469011 C 35.939995 24.478012 35.85799 24.48401 35.79499 24.490011 C 35.609993 24.50501 35.431995 24.521011 35.276993 24.555012 C 33.706993 24.888012 33.018993 26.14001 32.465992 27.146011 L 32.325993 27.399012 C 31.025991 29.735012 30.293991 35.311012 30.312992 35.636013 C 30.322992 35.81201 30.324991 36.275013 30.328993 36.79801 C 30.333992 37.623013 30.339993 38.477013 30.366993 38.803013 C 30.366993 40.408012 30.581991 42.002014 31.006992 43.553013 C 30.880993 43.64501 30.766993 43.756012 30.666992 43.885017 C 30.062992 44.662018 30.012993 46.068012 30.519993 48.06201 C 30.545992 48.16801 30.586992 48.36301 30.640991 48.61901 C 31.464993 52.540012 32.201992 54.77001 33.615993 55.02401 C 33.702995 55.32101 33.786995 55.61901 33.869995 55.91701 C 34.240993 57.23301 34.624996 58.595013 35.235996 59.92001 C 35.985996 61.548008 36.776997 62.73201 37.727997 63.64401 C 38.244995 64.14001 37.887997 65.45501 37.626995 66.41301 C 37.57299 66.60901 37.522995 66.80001 37.478996 66.97601 C 37.074997 68.62901 36.249996 70.10501 35.094997 71.236015 C 33.818996 72.486015 32.192997 73.17101 30.471996 73.89201 C 30.059996 74.06602 29.646996 74.238014 29.236996 74.419014 L 28.726995 74.64601 C 25.945995 75.876015 23.070995 77.15201 20.611996 78.96701 C 19.967997 79.44501 19.536997 80.599014 19.340996 81.21701 C 25.682 86.018 35.004 88.041 48.084 88.041 z " fill-opacity="0.2"/>
<path d="M 48.084 88.041 C 60.689 88.041 69.797 86.156 76.115 81.721 C 76.065994 81.403 75.968994 81.094 75.818 80.932 C 75.092 80.145 74.213 79.477 73.265 78.977 C 70.236 77.209 67.05 75.665 63.791 74.365 C 60.903 73.214 58.856 70.952 57.538 68.172 C 56.942 66.923996 56.536003 65.383995 56.620003 64.005 C 56.671 63.171997 57.35 62.788 57.837 62.186996 C 58.349003 61.553 58.771004 60.854996 59.140003 60.131996 C 60.202003 58.057995 60.551003 55.823997 61.363003 53.682995 C 62.611004 55.205994 63.418003 52.071995 63.642 51.286995 C 64.152 49.498997 66.066 44.644997 64.316 44.083996 C 64.058 44.000996 63.83 44.091995 63.656 44.290997 C 63.689003 43.861996 64.183 41.395996 64.474 39.811996 C 64.625 38.970997 64.728 38.122997 64.729996 37.265995 C 64.731995 36.856995 64.744995 36.44799 64.759995 36.036995 C 64.76499 35.959995 64.06 31.044994 63.200996 29.169994 C 62.483 27.604994 61.513996 25.932997 59.972996 25.038994 C 58.288994 24.063992 56.292995 23.572994 54.45499 22.989994 C 51.595993 22.081991 48.60099 20.820992 45.540993 21.077991 C 44.102993 21.198994 42.923992 21.878994 41.55899 22.224993 C 40.681995 22.447992 39.799995 22.145992 38.915993 22.320992 C 38.01799 22.497992 37.624992 23.114994 37.22499 23.865992 C 37.02199 24.246994 37.03899 24.692991 36.84599 25.068993 C 36.591988 25.554993 35.92299 25.438992 35.48199 25.533993 C 34.25399 25.794992 33.75399 26.889992 33.19799 27.886992 C 31.99099 30.054993 31.30199 35.450993 31.30899 35.57999 C 31.33399 36.018993 31.31699 38.174995 31.36499 38.804993 C 31.36499 40.590992 31.65399 42.44699 32.26099 44.24399 C 30.57899 43.94099 31.30199 47.089993 31.48699 47.81599 C 31.71099 48.69099 32.82399 55.24799 34.30399 53.85599 C 34.90799 55.75199 35.29899 57.672993 36.14199 59.50199 C 36.71199 60.741993 37.42499 61.96999 38.416992 62.922993 C 39.50899 63.96899 38.75899 65.94799 38.44799 67.21299 C 38.00899 69.00799 37.11999 70.64999 35.79299 71.94599 C 34.055992 73.648994 31.805992 74.371994 29.639992 75.33299 C 26.788992 76.59899 23.723991 77.90799 21.20399 79.771 C 20.82999 80.046 20.40699 81.05399 20.199991 81.829994 C 26.518 86.186 35.579 88.041 48.084 88.041 z " fill-opacity="0.3"/>
<radialGradient cx="310.4238" cy="1165.5518" gradientTransform="matrix(1 0 0 1 -262.3403 -1131.9648)" gradientUnits="userSpaceOnUse" r="35.5914" xlink:actuate="onLoad" xlink:show="other" xlink:type="simple" xmlns:xlink="http://www.w3.org/1999/xlink">
<stop offset="0" stop-color="#fdfef9"/>
<stop offset="0.2121" stop-color="#fdfef9"/>
<stop offset="1" stop-color="#d0cbc5"/>
</radialGradient>
<path d="M 71.084 77.041 C 68.055 75.273 67.053 74.664 63.794 73.363 C 60.907997 72.211 58.858997 69.949 57.541 67.169 C 56.947 65.921 56.539 64.381 56.623 63.002 C 56.674 62.169 57.355 61.785 57.84 61.182 C 58.35 60.55 58.772 59.851997 59.143 59.129 C 60.206 57.053 60.555 54.82 61.364 52.678 C 62.612003 54.203 63.421 51.068996 63.643 50.282997 C 64.153 48.495 66.067 43.641 64.317 43.08 C 64.059 42.997 63.833 43.087997 63.66 43.287 C 63.692 42.858 64.184 40.392 64.475 38.808 C 64.628 37.967 64.729 37.119 64.733 36.261997 C 64.733 35.852997 64.748 35.443996 64.762 35.032997 C 64.766 34.955997 64.063 30.040997 63.204 28.165997 C 62.488003 26.600996 61.519 24.928995 59.976 24.034996 C 58.292 23.059996 56.296 22.568996 54.458 21.985996 C 51.599 21.077995 48.604 19.816996 45.544 20.073996 C 44.106 20.194996 42.927 20.874996 41.562 21.220997 C 40.685 21.443996 39.803 21.141994 38.919 21.316996 C 38.021 21.493996 37.628 22.110996 37.227997 22.861996 C 37.025 23.242996 37.041996 23.688995 36.848995 24.064997 C 36.594994 24.550997 35.925995 24.434996 35.484997 24.529997 C 34.256996 24.790997 33.756996 25.884996 33.200996 26.882996 C 31.993996 29.050997 31.304996 34.446995 31.311996 34.575996 C 31.336996 35.014996 31.319996 37.171 31.367996 37.800995 C 31.367996 39.58699 31.656996 41.442993 32.263996 43.23999 C 30.581997 42.936993 31.304996 46.085995 31.489996 46.811993 C 31.713997 47.68899 32.826996 54.24399 34.306995 52.851994 C 34.910995 54.747993 35.30199 56.668995 36.144997 58.497993 C 36.714996 59.735992 37.428 60.965992 38.42 61.918995 C 39.511997 62.964996 38.761997 64.94499 38.450996 66.20899 C 38.011997 68.00399 37.122997 69.64499 35.796 70.94299 C 34.059 72.64399 31.832998 73.422 29.642998 74.328995 C 23.083998 77.04099 18.817995 80.856995 19.082996 81.04099 C 20.253996 81.85299 22.541996 83.285 23.826996 83.898 C 29.924995 86.80399 36.861996 87.65399 43.538994 87.923 C 51.085995 88.232 58.911995 88.022995 66.25299 86.08099 C 69.07699 85.33499 71.83699 84.29399 74.36199 82.814995 C 74.92099 82.493 76.55 81.408 77.08299 81.03999 C 77.34 80.863 73.084 78.041 71.084 77.041 z " fill="#ffffff" fill-opacity="1"/>
<radialGradient cx="310.2402" cy="1200.2793" gradientTransform="matrix(1 0 0 1 -262.3403 -1131.9648)" gradientUnits="userSpaceOnUse" r="9.2964" xlink:actuate="onLoad" xlink:show="other" xlink:type="simple" xmlns:xlink="http://www.w3.org/1999/xlink">
<stop offset="0" stop-color="#000000" stop-opacity="0.5"/>
<stop offset="0.4" stop-color="#000000" stop-opacity="0.5"/>
<stop offset="1" stop-color="#595959" stop-opacity="0"/>
</radialGradient>
<path d="M 38.973 63.145 C 38.973 63.145 44.432 68.069 47.182 68.069 C 47.182 68.069 48.515 68.153 49.683 67.903 C 50.849 67.653 56.433 63.235 56.433 63.235 C 56.433 63.235 54.245 76.831 47.504997 76.813 C 40.531 76.795 38.973 63.145 38.973 63.145 z " fill="#e4e4e4" fill-opacity="1"/>
<path d="M 55.984 61.814 C 54.642 62.858997 51.027 64.834 50.06 65.041 C 48.892 65.291 47.559 65.207 47.559 65.207 C 45.398003 65.207 41.201004 63.268 39.656 61.965 C 39.967003 62.594 40.025 63.296 39.959003 63.988 C 41.652004 65.388 45.15 68.068 47.182003 68.068 C 47.182003 68.068 48.515003 68.152 49.683 67.902 C 50.579 67.71 54.064003 65.074 55.640003 63.853 C 55.619003 63.541 55.607 63.232 55.623005 62.941 C 55.652 62.486 55.799 62.125 55.984 61.814 z " fill="#ffffff" fill-opacity="0.05"/>
<path d="M 80.622 77.571 C 80.607 77.474 80.592 77.377 80.565 77.28 L 78.83 70.992 L 83.83 66.537994 C 84.602005 65.856995 84.884 64.744995 84.531 63.774994 C 84.173 62.782993 83.224 62.11499 82.17 62.11499 L 76.026 62.153996 L 73.672 55.64199 C 73.304 54.639996 72.368 53.991993 71.258 53.991993 C 70.184 54.019993 69.24999 54.73799 68.936 55.776993 L 66.985 62.228992 L 60.558 62.289993 C 59.485 62.30199 58.539997 63.00099 58.205 64.03199 C 57.888996 65.01899 58.211 66.12199 59.011997 66.77799 L 64.31699 71.106995 L 62.420994 77.33299 C 62.12199 78.328995 62.450993 79.39399 63.259995 80.04699 C 63.700996 80.39799 64.24999 80.59099 64.80799 80.59099 L 64.87799 80.59099 L 64.94399 80.580986 C 65.18499 80.54498 65.79099 80.43498 66.17799 80.178986 L 71.616 76.582985 L 76.76199 80.05099 C 77.07099 80.262985 77.42899 80.37099 77.80499 80.427986 C 78.828 79.56 79.765 78.606 80.622 77.571 z " fill-opacity="0.1"/>
<path d="M 64.807 79.641 C 64.463 79.641 64.123 79.522 63.851 79.305 C 63.345997 78.897 63.143 78.231 63.33 77.606 L 65.410995 70.776 L 59.610996 66.045 C 59.112995 65.633995 58.911995 64.944 59.110996 64.325 C 59.318996 63.680996 59.903996 63.249996 60.567 63.240997 L 67.69 63.173996 L 69.843994 56.053997 C 70.038994 55.407997 70.617 54.962 71.283 54.942997 L 71.283 54.942997 C 71.971 54.942997 72.554 55.355995 72.778 55.970997 L 75.362 63.111996 L 82.174 63.068996 C 82.829994 63.068996 83.41499 63.484997 83.63899 64.103 C 83.85899 64.71 83.68299 65.405 83.20099 65.829994 L 77.75699 70.67899 L 79.64999 77.536995 C 79.82298 78.163994 79.60599 78.822 79.09898 79.215 C 78.83698 79.418 78.50999 79.533 78.17699 79.538994 L 78.17699 79.538994 C 77.85099 79.538994 77.553986 79.44599 77.29899 79.271 L 71.61899 75.44399 L 65.65399 79.38999 C 65.402 79.554 64.807 79.641 64.807 79.641 z " fill-opacity="0.1"/>
<path d="M 82.574 65.113 L 76.684 70.358 L 78.735 77.784004 C 78.803 78.036 78.71501 78.304 78.516 78.46001 C 78.412 78.54001 78.287 78.58101 78.163 78.58301 C 78.04801 78.58501 77.933 78.55001 77.835 78.48401 L 71.624 74.29701 L 65.13 78.59401 C 64.732994 78.69001 64.555 78.65001 64.443 78.56001 C 64.245 78.40102 64.163 78.12801 64.239 77.875015 L 66.505 70.44002 L 60.212 65.304016 C 60.012997 65.141014 59.933 64.863014 60.015 64.610016 C 60.096 64.360016 60.321 64.19202 60.577 64.18902 L 68.398 64.11402 L 70.752 56.327023 C 70.829 56.071026 71.051 55.89802 71.308 55.890022 L 71.32 55.890022 C 71.571 55.887024 71.798 56.050022 71.886 56.293022 L 74.696 64.06302 L 82.18 64.01502 C 82.433 64.012024 82.656 64.176025 82.745 64.42202 C 82.836 64.667 82.766 64.945 82.574 65.113 z " fill-opacity="0.3"/>
<linearGradient gradientTransform="matrix(1 0 0 -1 0.1401 95.0547)" gradientUnits="userSpaceOnUse" x1="71.2441" x2="71.2441" xlink:actuate="onLoad" xlink:show="other" xlink:type="simple" y1="17.314" y2="40.1138">
<stop offset="0" stop-color="#cccac6"/>
<stop offset="1" stop-color="#ffffff"/>
</linearGradient>
<path d="M 82.574 64.163 L 76.684 69.408005 L 78.735 76.83401 C 78.803 77.086006 78.71501 77.35401 78.516 77.51001 C 78.412 77.59101 78.287 77.63201 78.163 77.63301 C 78.04801 77.63501 77.933 77.60001 77.835 77.53401 L 71.624 73.347015 L 65.13 77.64401 C 65.033 77.707016 64.923996 77.74101 64.814995 77.74101 C 64.685 77.74301 64.55499 77.70001 64.44399 77.611015 C 64.245995 77.45101 64.163994 77.17802 64.23999 76.92602 L 66.50599 69.49002 L 60.21299 64.35402 C 60.01399 64.19102 59.93399 63.913017 60.01599 63.66002 C 60.096992 63.41002 60.32199 63.24202 60.57799 63.239017 L 68.398994 63.164017 L 70.75299 55.377014 C 70.829994 55.122017 71.051994 54.948017 71.30899 54.940018 L 71.32099 54.940018 C 71.57199 54.93702 71.79899 55.100018 71.88699 55.344017 L 74.69699 63.113014 L 82.18099 63.065018 C 82.43399 63.06302 82.65699 63.226017 82.746 63.47202 C 82.836 63.717 82.766 63.995 82.574 64.163 z " fill="#ffffff" fill-opacity="1"/>
</svg>
