<?xml version="1.0" encoding="UTF-8"?>
<svg xmlns="http://www.w3.org/2000/svg" xmlns:xlink="http://www.w3.org/1999/xlink" baseProfile="tiny" contentScriptType="text/ecmascript" contentStyleType="text/css" height="30px" preserveAspectRatio="xMidYMid meet" version="1.1" viewBox="0 0 30 30" width="30px" x="0px" y="0px" zoomAndPan="magnify">
<rect fill="none" height="30" width="30"/>
<path d="M 14.303 22.034 C 14.4470005 22.281 14.713 22.435 14.998 22.435 C 15.292 22.437 15.558001 22.285 15.704 22.034 L 23.784 8.217 C 23.856 8.091 23.893 7.951 23.893 7.81 C 23.893 7.67 23.858 7.536 23.786 7.408 C 23.643 7.162 23.375 7.004 23.084 7.004 L 19.225 7.004 L 19.225 0.876 C 19.225 0.433 18.859001 0.07499999 18.416 0.07099998 L 11.593 0.07499998 C 11.145 0.07499998 10.782001 0.43199998 10.782001 0.88 L 10.782001 7.001 L 6.916 7.003 C 6.625 7.001 6.357 7.155 6.211 7.407 C 6.139 7.531 6.106 7.668 6.106 7.81 C 6.106 7.9519997 6.143 8.091 6.217 8.217 L 14.303 22.034 z M 25.881 23.036 L 4.119 23.036 C 3.567 23.036 3.119 23.483 3.119 24.036 L 3.119 26.928999 C 3.119 27.481998 3.567 27.928999 4.119 27.928999 L 25.880999 27.928999 C 26.433998 27.928999 26.880999 27.481998 26.880999 26.928999 L 26.880999 24.036 C 26.881 23.483 26.434 23.036 25.881 23.036 z " fill-opacity="0.3" stroke-opacity="0.3"/>
<path d="M 4.119 29.929 C 3.0159998 29.929 2.119 29.032001 2.119 27.929 L 2.119 25.036001 C 2.119 23.933 3.016 23.036001 4.119 23.036001 L 13.145 23.036001 L 5.354 9.722 C 5.193 9.447 5.106 9.131 5.106 8.81 C 5.106 8.483001 5.187 8.178 5.347 7.9040003 C 5.67 7.349 6.269 7.003 6.911 7.003 L 9.783 7.002 L 9.783 1.88 C 9.783 0.885 10.595 0.07500005 11.594 0.07500005 L 18.416 0.07100005 C 19.418001 0.08000004 20.226 0.88900006 20.226 1.876 L 20.226 7.003 L 23.085 7.003 C 23.73 7.003 24.33 7.349 24.651999 7.9059997 C 24.814 8.193999 24.894 8.4939995 24.894 8.809999 C 24.894 9.125999 24.81 9.438999 24.651999 9.714999 L 16.862 23.036999 L 25.882 23.036999 C 26.985 23.036999 27.882 23.933998 27.882 25.036999 L 27.882 27.929998 C 27.882 29.032999 26.985 29.929998 25.882 29.929998 L 4.119 29.929998 z " fill-opacity="0.15" stroke-opacity="0.15"/>
<path d="M 14.303 23.034 C 14.4470005 23.281 14.713 23.435 14.998 23.435 C 15.292 23.437 15.558001 23.285 15.704 23.034 L 23.784 9.217 C 23.856 9.091 23.893 8.951 23.893 8.81 C 23.893 8.67 23.858 8.536 23.786 8.408 C 23.643 8.162 23.375 8.004 23.084 8.004 L 19.225 8.004 L 19.225 1.876 C 19.225 1.4330001 18.859001 1.075 18.416 1.0710001 L 11.593 1.075 C 11.145 1.075 10.782001 1.432 10.782001 1.8800001 L 10.782001 8.000999 L 6.916 8.003 C 6.625 8.001 6.357 8.155 6.211 8.407 C 6.139 8.531 6.106 8.668 6.106 8.81 C 6.106 8.952001 6.143 9.091001 6.217 9.217 L 14.303 23.034 z M 25.881 24.036 L 4.119 24.036 C 3.567 24.036 3.119 24.483 3.119 25.036 L 3.119 27.928999 C 3.119 28.481998 3.567 28.928999 4.119 28.928999 L 25.880999 28.928999 C 26.433998 28.928999 26.880999 28.481998 26.880999 27.928999 L 26.880999 25.036 C 26.881 24.483 26.434 24.036 25.881 24.036 z " fill-opacity="0.15" stroke-opacity="0.15"/>
<path d="M 14.303 23.034 C 14.4470005 23.281 14.713 23.435 14.998 23.435 C 15.292 23.437 15.558001 23.285 15.704 23.034 L 23.784 9.217 C 23.856 9.091 23.893 8.951 23.893 8.81 C 23.893 8.67 23.858 8.536 23.786 8.408 C 23.643 8.162 23.375 8.004 23.084 8.004 L 19.225 8.004 L 19.225 1.876 C 19.225 1.4330001 18.859001 1.075 18.416 1.0710001 L 11.593 1.075 C 11.145 1.075 10.782001 1.432 10.782001 1.8800001 L 10.782001 8.000999 L 6.916 8.003 C 6.625 8.001 6.357 8.155 6.211 8.407 C 6.139 8.531 6.106 8.668 6.106 8.81 C 6.106 8.952001 6.143 9.091001 6.217 9.217 L 14.303 23.034 z M 25.881 24.036 L 4.119 24.036 C 3.567 24.036 3.119 24.483 3.119 25.036 L 3.119 27.928999 C 3.119 28.481998 3.567 28.928999 4.119 28.928999 L 25.880999 28.928999 C 26.433998 28.928999 26.880999 28.481998 26.880999 27.928999 L 26.880999 25.036 C 26.881 24.483 26.434 24.036 25.881 24.036 z " fill="#dedede"/>
<rect fill="none" height="30" width="30"/>
</svg>
