<?xml version="1.0" encoding="UTF-8"?>
<svg xmlns="http://www.w3.org/2000/svg" xmlns:xlink="http://www.w3.org/1999/xlink" baseProfile="tiny" contentScriptType="text/ecmascript" contentStyleType="text/css" height="30px" preserveAspectRatio="xMidYMid meet" version="1.1" viewBox="0 0 30 30" width="30px" x="0px" y="0px" zoomAndPan="magnify">
<path d="M 29.0 7.0 C 29.0 5.6210003 27.879 4.5 26.5 4.5 L 25.0 4.5 L 25.0 3.0 C 25.0 1.897 24.103 1.0 23.0 1.0 L 4.0 1.0 C 2.897 1.0 2.0 1.897 2.0 3.0 L 2.0 27.0 C 2.0 28.103 2.897 29.0 4.0 29.0 L 23.0 29.0 C 24.103 29.0 25.0 28.103 25.0 27.0 L 26.5 27.0 C 27.879 27.0 29.0 25.879 29.0 24.5 L 29.0 21.0 C 29.0 20.318 28.725 19.701 28.281 19.25 C 28.725 18.799 29.0 18.182 29.0 17.5 L 29.0 14.0 C 29.0 13.318 28.725 12.701 28.281 12.25 C 28.725 11.799 29.0 11.182 29.0 10.5 L 29.0 7.0 z " fill-opacity="0.15" stroke-opacity="0.15"/>
<rect fill="none" height="30" width="30"/>
<path d="M 23.0 1.0 L 4.0 1.0 C 3.45 1.0 3.0 1.45 3.0 2.0 L 3.0 26.0 C 3.0 26.55 3.45 27.0 4.0 27.0 L 23.0 27.0 C 23.55 27.0 24.0 26.55 24.0 26.0 L 24.0 2.0 C 24.0 1.45 23.55 1.0 23.0 1.0 z M 18.684 22.412 C 16.321 23.027 14.694 23.014 13.591 22.992 C 12.488999 23.013 10.8619995 23.027 8.5 22.412 C 7.532 22.158 6.703 21.828 6.0 21.42 L 6.02 21.317 C 6.193 20.618 7.022 20.199 7.022 20.199 C 8.264 19.465 9.493 18.984 9.493 18.984 C 10.841 18.438 11.057 17.313 11.101 17.147999 C 11.209 16.716 11.304 16.261 11.15 16.113998 C 10.384999 15.443998 10.084999 13.851998 10.084999 13.851998 C 10.068999 13.804998 10.054999 13.760999 10.040999 13.7179985 C 9.655 14.084998 9.5529995 12.926998 9.422999 12.509998 C 9.195999 11.788999 9.250999 11.619998 9.250999 11.619998 C 9.223999 11.078998 9.617999 11.265998 9.617999 11.265998 L 9.646999 11.307998 C 9.363999 10.543998 9.273 10.133998 9.290999 9.578998 C 9.327999 8.537997 8.952999 8.047997 9.959999 6.4209976 C 9.959999 6.4209976 10.109999 6.1579976 10.446999 6.1409974 C 10.7839985 6.1289973 10.666999 5.9509974 10.7839985 5.7279973 C 10.9019985 5.5019975 10.988998 5.249997 11.608998 5.3249974 C 12.225998 5.3989973 12.488998 4.6269975 14.354999 5.2369976 C 16.22 5.8449974 16.669998 5.9269977 16.994999 6.4219975 C 18.049 8.018997 17.794998 8.399998 17.790998 9.441998 C 17.789999 10.118998 17.574999 10.575997 17.519 11.325997 L 17.546999 11.289997 C 17.546999 11.289997 17.953 11.129997 17.887999 11.668997 C 17.887999 11.668997 17.817999 12.013997 17.655998 12.544997 C 17.501999 13.047997 17.308998 14.1399975 16.933998 13.675997 C 16.912998 13.732997 16.892998 13.788997 16.869999 13.854997 C 16.869999 13.854997 16.571 15.446997 15.804998 16.116997 C 15.652998 16.263996 15.746999 16.719997 15.853998 17.150997 C 15.891998 17.291998 16.277998 18.227997 17.035997 18.753998 C 17.172997 18.838997 17.321997 18.918999 17.495996 18.986998 C 17.495996 18.986998 18.724997 19.466997 19.966997 20.201998 C 19.966997 20.201998 20.795998 20.620998 20.968998 21.319998 L 21.0 21.503 C 20.342 21.871 19.578 22.178 18.684 22.412 z M 26.5 19.2 L 25.0 19.2 L 25.0 25.0 L 26.5 25.0 C 27.325 25.0 28.0 24.325 28.0 23.5 L 28.0 20.0 C 28.0 19.601 27.84 19.239 27.584 18.97 C 27.251 19.116 26.886 19.2 26.5 19.2 z M 26.5 4.5 L 25.0 4.5 L 25.0 11.0 L 26.5 11.0 C 27.325 11.0 28.0 10.325 28.0 9.5 L 28.0 6.0 C 28.0 5.175 27.325 4.5 26.5 4.5 z M 26.5 12.2 L 25.0 12.2 L 25.0 18.0 L 26.5 18.0 C 27.325 18.0 28.0 17.325 28.0 16.5 L 28.0 13.0 C 28.0 12.601 27.84 12.239 27.584 11.97 C 27.251 12.116 26.886 12.2 26.5 12.2 z " fill-opacity="0.3" stroke-opacity="0.3"/>
<path d="M 23.0 2.0 L 4.0 2.0 C 3.45 2.0 3.0 2.45 3.0 3.0 L 3.0 27.0 C 3.0 27.55 3.45 28.0 4.0 28.0 L 23.0 28.0 C 23.55 28.0 24.0 27.55 24.0 27.0 L 24.0 3.0 C 24.0 2.45 23.55 2.0 23.0 2.0 z M 18.684 23.412 C 16.321 24.027 14.694 24.014 13.591 23.992 C 12.488999 24.013 10.8619995 24.027 8.5 23.412 C 7.532 23.158 6.703 22.828 6.0 22.42 L 6.02 22.317 C 6.193 21.618 7.022 21.199 7.022 21.199 C 8.264 20.465 9.493 19.984 9.493 19.984 C 10.841 19.438 11.057 18.313 11.101 18.147999 C 11.209 17.716 11.304 17.261 11.15 17.113998 C 10.384999 16.443998 10.084999 14.851998 10.084999 14.851998 C 10.068999 14.804998 10.054999 14.760999 10.040999 14.7179985 C 9.655 15.084998 9.5529995 13.926998 9.422999 13.509998 C 9.195999 12.788999 9.250999 12.619998 9.250999 12.619998 C 9.223999 12.078998 9.617999 12.265998 9.617999 12.265998 L 9.646999 12.307998 C 9.363999 11.543998 9.273 11.133998 9.290999 10.578998 C 9.327999 9.537997 8.952999 9.047997 9.959999 7.4209976 C 9.959999 7.4209976 10.109999 7.1579976 10.446999 7.1409974 C 10.7839985 7.1289973 10.666999 6.9509974 10.7839985 6.7279973 C 10.9019985 6.5019975 10.988998 6.249997 11.608998 6.3249974 C 12.225998 6.3989973 12.488998 5.6269975 14.354999 6.2369976 C 16.22 6.8449974 16.669998 6.9269977 16.994999 7.4219975 C 18.049 9.018997 17.794998 9.399998 17.790998 10.441998 C 17.789999 11.118998 17.574999 11.575997 17.519 12.325997 L 17.546999 12.289997 C 17.546999 12.289997 17.953 12.129997 17.887999 12.668997 C 17.887999 12.668997 17.817999 13.013997 17.655998 13.544997 C 17.501999 14.047997 17.308998 15.1399975 16.933998 14.675997 C 16.912998 14.732997 16.892998 14.788997 16.869999 14.854997 C 16.869999 14.854997 16.571 16.446997 15.804998 17.116997 C 15.652998 17.263996 15.746999 17.719997 15.853998 18.150997 C 15.891998 18.291998 16.277998 19.227997 17.035997 19.753998 C 17.172997 19.838997 17.321997 19.918999 17.495996 19.986998 C 17.495996 19.986998 18.724997 20.466997 19.966997 21.201998 C 19.966997 21.201998 20.795998 21.620998 20.968998 22.319998 L 21.0 22.503 C 20.342 22.871 19.578 23.178 18.684 23.412 z M 26.5 20.2 L 25.0 20.2 L 25.0 26.0 L 26.5 26.0 C 27.325 26.0 28.0 25.325 28.0 24.5 L 28.0 21.0 C 28.0 20.601 27.84 20.239 27.584 19.97 C 27.251 20.116 26.886 20.2 26.5 20.2 z M 26.5 5.5 L 25.0 5.5 L 25.0 12.0 L 26.5 12.0 C 27.325 12.0 28.0 11.325 28.0 10.5 L 28.0 7.0 C 28.0 6.175 27.325 5.5 26.5 5.5 z M 26.5 13.2 L 25.0 13.2 L 25.0 19.0 L 26.5 19.0 C 27.325 19.0 28.0 18.325 28.0 17.5 L 28.0 14.0 C 28.0 13.601 27.84 13.239 27.584 12.97 C 27.251 13.116 26.886 13.2 26.5 13.2 z " fill="#dedede"/>
</svg>
