<?xml version="1.0" encoding="UTF-8"?>
<svg xmlns="http://www.w3.org/2000/svg" xmlns:xlink="http://www.w3.org/1999/xlink" baseProfile="tiny" contentScriptType="text/ecmascript" contentStyleType="text/css" height="30px" preserveAspectRatio="xMidYMid meet" version="1.1" viewBox="0 0 30 30" width="30px" x="0px" y="0px" zoomAndPan="magnify">
<path d="M 29.485 23.126 L 28.001001 22.300999 L 28.001001 5.0 C 28.001001 3.346 26.655 2.0 25.001001 2.0 L 5.0010014 2.0 C 3.3470013 2.0 2.0010014 3.346 2.0010014 5.0 L 2.0010014 25.0 C 2.0010014 26.654 3.3470013 28.0 5.0010014 28.0 L 19.0 28.0 L 19.0 29.0 C 19.0 29.354 19.188 29.682 19.493 29.861 C 19.649 29.954 19.824 30.0 20.0 30.0 C 20.167 30.0 20.335 29.958 20.485 29.874 L 23.858 28.0 L 25.001 28.0 C 26.392 28.0 27.553 27.045 27.892 25.76 L 29.486 24.874 C 29.803 24.697 30.0 24.363 30.0 24.0 C 30.0 23.637 29.803 23.303 29.485 23.126 z " fill-opacity="0.15"/>
<rect fill="none" height="30" width="30"/>
<path d="M 14.8 25.0 L 14.8 21.0 C 14.8 20.338 15.338 19.8 16.0 19.8 L 18.8 19.8 L 18.8 18.0 C 18.8 17.576 19.026999 17.18 19.391998 16.966 C 19.575 16.857 19.786 16.8 20.0 16.8 C 20.204 16.8 20.405 16.852999 20.583 16.950998 L 27.0 20.517 L 27.0 4.0 C 27.0 2.896 26.104 2.0 25.0 2.0 L 5.0 2.0 C 3.896 2.0 3.0 2.896 3.0 4.0 L 3.0 24.0 C 3.0 25.104 3.896 26.0 5.0 26.0 L 15.376 26.0 L 15.375 26.0 L 15.376 26.0 C 15.037 25.787 14.8 25.428 14.8 25.0 z M 5.0 5.333 C 5.0 4.598 5.596 4.0 6.334 4.0 L 7.6660004 4.0 C 7.7380004 4.0 7.7990003 4.03 7.8670006 4.041 C 15.656 4.386 22.13 9.722 24.231 16.92 L 21.460001 15.38 C 21.017 15.131 20.511 15.0 20.0 15.0 C 19.712 15.0 19.429 15.049 19.154 15.129 C 16.745998 10.912 12.209999 8.021 7.067999 8.021 L 7.067999 8.0 L 6.334 8.0 C 5.596 8.0 5.0 7.403 5.0 6.667 L 5.0 5.333 z M 8.0 24.0 C 6.3450003 24.0 5.0 22.656 5.0 21.0 C 5.0 19.344 6.3450003 18.0 8.0 18.0 C 9.655 18.0 11.0 19.344 11.0 21.0 C 11.0 22.656 9.655 24.0 8.0 24.0 z M 7.105 14.667 L 6.334 14.667 C 5.596 14.667 5.0 14.07 5.0 13.333 L 5.0 12.0 C 5.0 11.264 5.596 10.667 6.334 10.667 L 7.6660004 10.667 C 7.7320004 10.667 7.7910004 10.696 7.8540006 10.705 C 11.975 10.979 15.477001 13.485 17.188 17.02 C 17.078 17.333 17.0 17.659 17.0 18.0 L 16.0 18.0 C 15.076 18.0 14.259 18.429 13.708 19.088 C 12.577 16.534 9.99 14.667 7.105 14.667 z M 29.0 23.0 L 20.0 18.0 L 20.0 21.0 L 16.0 21.0 L 16.0 25.0 L 20.0 25.0 L 20.0 28.0 L 29.0 23.0 z " fill-opacity="0.3"/>
<path d="M 14.8 26.0 L 14.8 22.0 C 14.8 21.338 15.338 20.8 16.0 20.8 L 18.8 20.8 L 18.8 19.0 C 18.8 18.576 19.026999 18.18 19.391998 17.966 C 19.575 17.857 19.786 17.8 20.0 17.8 C 20.204 17.8 20.405 17.852999 20.583 17.950998 L 27.0 21.517 L 27.0 5.0 C 27.0 3.896 26.104 3.0 25.0 3.0 L 5.0 3.0 C 3.896 3.0 3.0 3.896 3.0 5.0 L 3.0 25.0 C 3.0 26.104 3.896 27.0 5.0 27.0 L 15.376 27.0 L 15.375 27.0 L 15.376 27.0 C 15.037 26.787 14.8 26.428 14.8 26.0 z M 5.0 6.333 C 5.0 5.598 5.596 5.0 6.334 5.0 L 7.6660004 5.0 C 7.7380004 5.0 7.7990003 5.03 7.8670006 5.041 C 15.656 5.3859997 22.130001 10.722 24.231 17.92 L 21.460001 16.381 C 21.017 16.131 20.511 16.0 20.0 16.0 C 19.712 16.0 19.429 16.049 19.154 16.129 C 16.745998 11.912 12.209999 9.021 7.067999 9.021 L 7.067999 9.0 L 6.334 9.0 C 5.596 9.0 5.0 8.403 5.0 7.667 L 5.0 6.333 z M 8.0 25.0 C 6.3450003 25.0 5.0 23.656 5.0 22.0 C 5.0 20.344 6.3450003 19.0 8.0 19.0 C 9.655 19.0 11.0 20.344 11.0 22.0 C 11.0 23.656 9.655 25.0 8.0 25.0 z M 7.105 15.667 L 6.334 15.667 C 5.596 15.667 5.0 15.07 5.0 14.333 L 5.0 13.0 C 5.0 12.264 5.596 11.667 6.334 11.667 L 7.6660004 11.667 C 7.7320004 11.667 7.7910004 11.696 7.8540006 11.705 C 11.975 11.979 15.477001 14.485 17.188 18.02 C 17.078 18.333 17.0 18.659 17.0 19.0 L 16.0 19.0 C 15.076 19.0 14.259 19.429 13.708 20.088 C 12.577 17.534 9.99 15.667 7.105 15.667 z M 29.0 24.0 L 20.0 19.0 L 20.0 22.0 L 16.0 22.0 L 16.0 26.0 L 20.0 26.0 L 20.0 29.0 L 29.0 24.0 z " fill="#dedede"/>
</svg>
