<?xml version="1.0" encoding="UTF-8"?>
<svg xmlns="http://www.w3.org/2000/svg" xmlns:xlink="http://www.w3.org/1999/xlink" baseProfile="tiny" contentScriptType="text/ecmascript" contentStyleType="text/css" height="96px" preserveAspectRatio="xMidYMid meet" version="1.1" viewBox="0 0 96 96" width="96px" x="0px" y="0px" zoomAndPan="magnify">
<defs>
<linearGradient id="linearGradient3788">
<stop offset="0" stop-color="#ffffff" stop-opacity="1"/>
<stop offset="1" stop-color="#ffffff" stop-opacity="0.78431374"/>
</linearGradient>
<linearGradient>
<stop offset="0" stop-color="#0096e7" stop-opacity="1"/>
<stop offset="1" stop-color="#008ee7" stop-opacity="1"/>
</linearGradient>
<linearGradient gradientTransform="matrix(1,0,0,-1,-375.5156,-531.7637)" gradientUnits="userSpaceOnUse" x1="423.5391" x2="423.5391" y1="-544.3062" y2="-598.9067">
<stop offset="0" stop-color="#00a8cc"/>
<stop offset="1" stop-color="#005896"/>
</linearGradient>
<linearGradient gradientTransform="matrix(1,0,0,-1,-375.5156,-531.7637)" gradientUnits="userSpaceOnUse" x1="423.4941" x2="423.4941" y1="-540.3022" y2="-618.9764">
<stop offset="0" stop-color="#ffffff"/>
<stop offset="1" stop-color="#ffffff" stop-opacity="0"/>
</linearGradient>
<linearGradient gradientTransform="matrix(1,0,0,-1,-375.5156,-531.7637)" gradientUnits="userSpaceOnUse" id="linearGradient3013" x1="423.4941" x2="423.4941" y1="-540.3022" y2="-618.9764">
<stop offset="0" stop-color="#ffffff"/>
<stop offset="1" stop-color="#ffffff" stop-opacity="0"/>
</linearGradient>
<linearGradient gradientTransform="matrix(0,1,-1,0,96.022998,-0.023002)" gradientUnits="userSpaceOnUse" id="linearGradient3783" x1="8.312" x2="87.734" y1="47.999998" y2="47.999998">
<stop offset="0" stop-color="#0096e7" stop-opacity="1"/>
<stop offset="1" stop-color="#008ee7" stop-opacity="1"/>
</linearGradient>
<linearGradient gradientUnits="userSpaceOnUse" id="linearGradient3794" x1="49.829254" x2="49.829254" y1="29.864035" y2="63.308407">
<stop offset="0" stop-color="#ffffff" stop-opacity="1"/>
<stop offset="1" stop-color="#ffffff" stop-opacity="0.78431374"/>
</linearGradient>
</defs>
<path d="M 48.022 87.711 C 18.606998 87.711 8.307999 77.424 8.307999 48.004 C 8.307999 18.573996 18.606998 8.288998 48.022003 8.288998 C 77.44701 8.288998 87.73801 18.573996 87.73801 48.004 C 87.73801 77.424 77.44701 87.711 48.022007 87.711 z " fill="url(#linearGradient3783)" fill-opacity="1"/>
<path d="M 47.974 8.285 C 18.554998 8.285 8.264 18.576 8.264 48.001 C 8.264 77.416 18.555 87.715 47.974 87.715 C 77.408 87.715 87.693 77.424 87.693 48.000996 C 87.691 18.576 77.407 8.285 47.974 8.285 z M 47.974 86.72099 C 19.028 86.72099 9.257999 76.95 9.257999 48.00099 C 9.257999 19.052992 19.028 9.275993 47.974 9.275993 C 76.923 9.275993 86.699 19.052994 86.699 48.00099 C 86.697 76.94499 76.923 86.72099 47.974 86.72099 z " fill="url(#linearGradient3013)" fill-opacity="0.25"/>
<path d="M 24.682 62.658 L 18.914 62.658 L 18.914 40.944 L 24.168 40.944 L 24.389 43.831 C 24.584 43.462 24.868 43.073 25.227 42.673 C 25.579 42.268 26.022 41.892 26.538 41.549 C 27.056 41.203 27.661 40.924 28.347 40.712 C 29.038 40.492996 29.817 40.393 30.677 40.393 C 33.435 40.393 35.404 41.144997 36.573 42.654 C 37.756996 44.157 38.344997 46.233 38.344997 48.876 L 38.344997 62.667 L 32.574997 62.667 L 32.574997 49.225 C 32.574997 47.727997 32.255997 46.711 31.624996 46.166 C 30.991997 45.621 30.220997 45.348 29.296995 45.348 C 28.351995 45.348 27.573996 45.534 26.972998 45.905 C 26.369995 46.279 25.905998 46.796997 25.572998 47.459 C 25.239998 48.117 25.013998 48.887 24.884998 49.756 C 24.753998 50.634 24.687998 51.559 24.687998 52.537 L 24.681995 62.657997 L 24.681995 62.657997 z M 41.66 45.813 L 41.66 40.944 L 45.447 40.944 L 45.447 39.308 C 45.447 38.074997 45.580997 36.879997 45.84 35.73 C 46.096 34.586 46.535 33.575 47.174 32.697 C 47.806 31.825998 48.663 31.124 49.741 30.609 C 50.814003 30.097 52.187 29.834 53.849 29.834 C 55.146 29.834 56.203 29.904 57.036 30.03 C 57.874 30.162998 58.46 30.262 58.808 30.349 L 58.292 34.878 C 57.974 34.817997 57.573 34.765 57.081 34.725 C 56.595 34.683 56.011 34.666 55.319 34.666 C 53.938 34.666 52.917 35.018 52.262 35.716 C 51.606003 36.428 51.27 37.678 51.27 39.487 L 51.27 40.951 L 56.999 40.951 L 56.999 45.825 L 51.264 45.825 L 51.264 62.666 L 45.444 62.666 L 45.444 45.825 L 41.66 45.813 L 41.66 45.813 z M 65.264 51.801 C 65.264 54.039 65.745 55.68 66.706 56.707 C 67.671 57.744 69.057 58.256 70.866 58.256 C 72.072 58.256 73.05299 58.104 73.794 57.783 C 74.542 57.472 75.113 57.185 75.52 56.924 L 77.72099 60.85 C 77.45999 61.018 77.11399 61.244 76.68399 61.511997 C 76.25099 61.784996 75.72699 62.051 75.107994 62.310997 C 74.48899 62.565 73.77799 62.792995 72.980995 62.970997 C 72.174995 63.162 71.284 63.249996 70.30499 63.249996 C 66.715996 63.249996 64.008995 62.233997 62.185993 60.181995 C 60.363995 58.122993 59.451992 55.32999 59.451992 51.800995 C 59.451992 50.105995 59.69799 48.552994 60.207993 47.14899 C 60.70999 45.741993 61.42699 44.527996 62.35799 43.53099 C 63.291992 42.519993 64.424995 41.748993 65.76399 41.196995 C 67.092995 40.651997 68.59799 40.384995 70.26199 40.384995 C 71.32299 40.384995 72.3 40.504993 73.19199 40.744995 C 74.08499 40.990993 74.86199 41.269997 75.52 41.584995 C 76.17799 41.903996 76.708 42.209995 77.10999 42.512997 C 77.51599 42.811996 77.77599 43.021996 77.88699 43.137997 L 75.3 47.096 C 75.159 47.013 74.946 46.873 74.657 46.67 C 74.37 46.468 74.021 46.278 73.624 46.092 C 73.223 45.902 72.768 45.739 72.27 45.593 C 71.768 45.45 71.239 45.381 70.694 45.381 C 69.061 45.381 67.746 45.905 66.754 46.97 C 65.764 48.041 65.264 49.643 65.264 51.801003 z " fill="url(#linearGradient3794)" fill-opacity="1"/>
<rect fill="none" height="96" width="96"/>
</svg>
