<?xml version="1.0" encoding="UTF-8"?>
<svg xmlns="http://www.w3.org/2000/svg" xmlns:xlink="http://www.w3.org/1999/xlink" baseProfile="tiny" contentScriptType="text/ecmascript" contentStyleType="text/css" height="57px" preserveAspectRatio="xMidYMid meet" version="1.1" viewBox="0 0 67 57" width="67px" x="0px" y="0px" zoomAndPan="magnify">
<path d="M 45.0 8.0 L 33.0 29.0 L 41.0 29.0 L 41.0 32.0 C 41.0 38.075 36.075 43.0 30.0 43.0 C 23.925 43.0 19.0 38.075 19.0 32.0 L 19.0 29.0 C 19.0 27.9 18.1 27.0 17.0 27.0 L 13.0 27.0 C 11.9 27.0 11.0 27.9 11.0 29.0 L 11.0 32.0 C 11.0 42.493 19.507 51.0 30.0 51.0 C 40.493 51.0 49.0 42.493 49.0 32.0 L 49.0 29.0 L 57.0 29.0 L 45.0 8.0 z " fill="#dedede" fill-opacity="1" stroke-opacity="0.29999999999999999"/>
<defs>
<linearGradient gradientUnits="userSpaceOnUse" x1="34" x2="34" xlink:actuate="onLoad" xlink:show="other" xlink:type="simple" y1="50" y2="7.0005">
<stop offset="0" stop-color="#d0cbc5"/>
<stop offset="0.5031" stop-color="#fafcef"/>
<stop offset="0.9693" stop-color="#ffffff"/>
<stop offset="1" stop-color="#ffffff"/>
</linearGradient>
</defs>
</svg>
