<?xml version="1.0" encoding="UTF-8"?>
<svg xmlns="http://www.w3.org/2000/svg" xmlns:xlink="http://www.w3.org/1999/xlink" baseProfile="tiny" contentScriptType="text/ecmascript" contentStyleType="text/css" height="20px" preserveAspectRatio="xMidYMid meet" version="1.1" viewBox="-4 -2.5 20 20" width="20px" x="0px" y="0px" zoomAndPan="magnify">
<g>
<path d="M -2.707 6.764 L -1.73 6.764 C -1.278 6.764 -0.94200003 6.663 -0.7260001 6.467 C -0.50900006 6.273 -0.40100008 6.011 -0.40100008 5.682 C -0.40100008 5.389 -0.49400008 5.144 -0.6760001 4.9500003 C -0.86000013 4.7590003 -1.1460001 4.6600003 -1.5350001 4.6600003 C -1.7500001 4.6600003 -1.9410001 4.681 -2.108 4.7240005 C -2.275 4.766 -2.422 4.82 -2.549 4.88 C -2.678 4.941 -2.785 5.013 -2.882 5.0950003 C -2.972 5.177 -3.058 5.2580004 -3.1269999 5.339 L -3.9379997 4.4620004 C -3.879 4.376 -3.782 4.27 -3.652 4.14 C -3.516 4.0169997 -3.345 3.892 -3.1339998 3.77 C -2.9259999 3.648 -2.6779997 3.549 -2.393 3.46 C -2.109 3.378 -1.787 3.333 -1.425 3.333 C -0.97199994 3.333 -0.58599997 3.3969998 -0.26399994 3.52 C 0.05700007 3.647 0.31900007 3.809 0.5170001 4.004 C 0.722 4.2 0.869 4.423 0.962 4.676 C 1.056 4.929 1.104 5.186 1.104 5.453 C 1.104 5.715 1.0669999 5.951 0.996 6.1540003 C 0.923 6.36 0.83 6.539 0.719 6.694 C 0.605 6.85 0.478 6.979 0.329 7.088 C 0.17899999 7.193 0.02700001 7.284 -0.13100001 7.357 C 0.027 7.403 0.186 7.473 0.35 7.565 C 0.511 7.658 0.661 7.776 0.792 7.919 C 0.927 8.064 1.036 8.238 1.114 8.446 C 1.2 8.653 1.24 8.892 1.24 9.17 C 1.24 9.581 1.169 9.942 1.02 10.253 C 0.86899996 10.561 0.66199994 10.821 0.393 11.031 C 0.12400001 11.236 -0.19300002 11.396 -0.559 11.504 C -0.923 11.615 -1.3210001 11.665999 -1.753 11.665999 C -2.325 11.665999 -2.795 11.6189995 -3.1750002 11.53 C -3.549 11.437 -3.827 11.355 -4.0 11.262 L -3.68 10.021 C -3.528 10.081 -3.311 10.147 -3.028 10.216 C -2.7470002 10.285 -2.354 10.318 -1.8570001 10.318 C -1.6370001 10.318 -1.4310001 10.297 -1.2420001 10.254 C -1.0550001 10.212 -0.8890001 10.138 -0.7510001 10.042 C -0.6120001 9.951 -0.5000001 9.83 -0.4210001 9.691 C -0.34300008 9.549 -0.3030001 9.374 -0.3030001 9.17 C -0.3030001 8.845 -0.4130001 8.582 -0.6370001 8.38 C -0.86 8.175 -1.222 8.077 -1.719 8.077 L -2.707 8.077 L -2.707 6.764 z "/>
<path d="M 4.162 10.644 C 4.162 10.934 4.083 11.168 3.9240003 11.341 C 3.7670002 11.519 3.5500002 11.61 3.2780004 11.61 C 3.0060005 11.61 2.7930002 11.518 2.6360004 11.334 C 2.4770005 11.146 2.3960004 10.917999 2.3960004 10.6449995 C 2.3960004 10.374999 2.4760003 10.151999 2.6350005 9.9609995 C 2.7930005 9.776999 3.0060005 9.681999 3.2770004 9.681999 C 3.5470004 9.681999 3.7650003 9.772999 3.9230003 9.955999 C 4.083 10.131 4.162 10.358 4.162 10.644 z "/>
<path d="M 7.261 10.317 C 7.4890003 10.317 7.702 10.292001 7.905 10.234 C 8.114 10.1710005 8.2960005 10.088 8.451 9.973001 C 8.606 9.853 8.736 9.706 8.831 9.52 C 8.923 9.332001 8.973001 9.114 8.973001 8.853001 C 8.973001 8.719001 8.955001 8.575001 8.92 8.419001 C 8.8810005 8.272 8.814 8.132001 8.72 8.009001 C 8.627 7.886 8.498 7.785 8.337 7.705 C 8.181 7.63 7.983 7.593 7.735 7.593 C 7.382 7.593 7.104 7.6419997 6.888 7.74 C 6.685 7.843 6.521 7.931 6.411 8.012 L 5.594 7.405 L 6.06 3.4880002 L 10.184 3.4880002 L 10.184 4.82 L 7.132 4.82 L 6.946 6.581 C 7.019 6.539 7.155 6.49 7.353 6.434 C 7.5540004 6.376 7.7720003 6.348 8.021 6.348 C 8.386 6.348 8.72 6.395 9.026 6.494 C 9.33 6.59 9.59 6.74 9.818 6.946 C 10.036 7.149 10.208 7.4110003 10.337999 7.7330003 C 10.4609995 8.055 10.525 8.435 10.525 8.876 C 10.525 9.272 10.462 9.632 10.328 9.972 C 10.192 10.307 9.995 10.6 9.727 10.853 C 9.459001 11.104 9.127 11.299 8.733 11.45 C 8.335 11.596 7.87 11.667 7.337 11.667 C 6.7739997 11.667 6.315 11.625999 5.956 11.537 C 5.6019998 11.45 5.338 11.36 5.165 11.276 L 5.467 10.042 C 5.617 10.096 5.832 10.156 6.11 10.221 C 6.386 10.29 6.772 10.317 7.261 10.317 z "/>
<path d="M 14.251 6.624 C 13.989 6.624 13.764 6.6740003 13.569 6.78 C 13.386001 6.885 13.227 7.024 13.1050005 7.204 C 12.982 7.387 12.893001 7.602 12.833 7.85 C 12.77 8.096 12.745 8.364 12.745 8.653 C 12.745 8.939 12.768 9.207 12.826 9.447 C 12.884 9.69 12.968 9.893999 13.089001 10.07 C 13.212001 10.240999 13.370001 10.379 13.558001 10.478 C 13.746 10.577 13.977 10.631 14.238001 10.631 C 14.391001 10.631 14.535001 10.615 14.661001 10.594 C 14.7820015 10.575 14.901001 10.551 15.010001 10.5199995 L 15.010001 9.097 L 13.986001 9.097 L 13.986001 8.157001 L 16.0 8.157001 L 16.0 11.279 C 15.944 11.31 15.861 11.342 15.756 11.383 C 15.651999 11.422 15.521 11.462001 15.365999 11.496 C 15.209999 11.536 15.022999 11.570001 14.810999 11.6 C 14.600999 11.620001 14.357999 11.636001 14.089999 11.636001 C 13.683 11.636001 13.32 11.569 13.007999 11.437 C 12.695 11.299001 12.434999 11.104 12.223999 10.851 C 12.011999 10.595 11.850999 10.282 11.745999 9.912 C 11.631999 9.542 11.580999 9.120999 11.580999 8.653999 C 11.580999 8.211999 11.631999 7.806999 11.750999 7.4439993 C 11.86 7.076999 12.021999 6.760999 12.238999 6.4949994 C 12.4539995 6.227999 12.726999 6.0229993 13.044 5.8739996 C 13.3619995 5.7279997 13.736 5.6529994 14.155 5.6529994 C 14.525 5.6529994 14.854 5.7059994 15.1449995 5.8109994 C 15.436999 5.912999 15.691 6.0529995 15.91 6.2339993 L 15.44 7.0419993 C 15.327 6.9549994 15.169 6.8629994 14.964 6.7649994 C 14.758 6.671 14.526 6.624 14.251 6.624 z "/>
</g>
</svg>
