<?xml version="1.0" encoding="UTF-8"?>
<svg xmlns="http://www.w3.org/2000/svg" xmlns:xlink="http://www.w3.org/1999/xlink" baseProfile="tiny" contentScriptType="text/ecmascript" contentStyleType="text/css" height="96px" preserveAspectRatio="xMidYMid meet" version="1.1" viewBox="0 0 96 96" width="96px" x="0px" y="0px" zoomAndPan="magnify">
<defs>
<linearGradient id="linearGradient3794">
<stop offset="0" stop-color="#72c73b" stop-opacity="1"/>
<stop offset="1" stop-color="#32bc3b" stop-opacity="1"/>
</linearGradient>
<linearGradient gradientTransform="matrix(0,1,-1,0,96,0)" gradientUnits="userSpaceOnUse" id="linearGradient3800" x1="8" x2="88" y1="48" y2="48">
<stop offset="0" stop-color="#72c73b" stop-opacity="1"/>
<stop offset="1" stop-color="#32bc3b" stop-opacity="1"/>
</linearGradient>
</defs>
<path d="M 88.0 48.0 C 88.0 77.635 77.639 88.0 48.0 88.0 C 18.368 88.0 8.0 77.637 8.0 48.0 C 8.0 18.367 18.368 8.0 48.0 8.0 C 77.637 8.0 88.0 18.368 88.0 48.0 z " fill-opacity="0.4"/>
<linearGradient gradientTransform="matrix(1 0 0 -1 -2265.5977 -3556.3184)" gradientUnits="userSpaceOnUse" x1="2313.5967" x2="2313.5967" y1="-3563.9849" y2="-3643.9849">
<stop offset="0" stop-color="#afd13e"/>
<stop offset="1" stop-color="#19592d"/>
</linearGradient>
<path d="M 48.0 88.0 C 18.365 88.0 8.0 77.639 8.0 48.0 C 8.0 18.368 18.363 8.0 48.0 8.0 C 77.633 8.0 88.0 18.368 88.0 48.0 C 88.0 77.637 77.632 88.0 48.0 88.0 z " fill="url(#linearGradient3800)" fill-opacity="1"/>
<linearGradient gradientTransform="matrix(1 0 0 -1 -2265.5977 -3556.3184)" gradientUnits="userSpaceOnUse" id="SVGID_2_" x1="2313.5967" x2="2313.5967" y1="-3564.5747" y2="-3643.8174">
<stop offset="0" stop-color="#ffffff"/>
<stop offset="1" stop-color="#ffffff" stop-opacity="0"/>
</linearGradient>
<path d="M 48.0 8.0 C 18.368 8.0 8.0 18.367 8.0 48.0 C 8.0 77.635 18.367 88.0 48.0 88.0 C 77.639 88.0 88.0 77.637 88.0 48.0 C 88.0 18.368 77.637 8.0 48.0 8.0 z M 48.0 87.0 C 18.842 87.0 9.0 77.158 9.0 47.999 C 9.0 18.841 18.842 8.999001 48.0 8.999001 C 77.16 8.999001 87.0 18.841 87.0 47.999 C 87.0 77.158 77.16 87.0 48.0 87.0 z " fill="url(#SVGID_2_)" fill-opacity="0.15"/>
<rect fill="none" height="96" width="96"/>
<path d="M 61.946 45.326 C 61.924 46.401 61.861 47.087 61.523 48.354 C 61.433 48.682 61.181 49.792 61.107 50.083 L 59.220997 57.055 C 58.642 59.198 59.768997 61.354 61.781 62.597 L 66.190994 45.411 C 66.173 45.362 66.163994 45.302 66.158 45.25 C 66.158 45.164 66.146996 45.082 66.158 44.996 L 66.113 44.986 C 64.395996 35.111 58.042 27.597 48.155 27.597 C 38.499 27.597 32.222 34.771 30.318 44.319 L 30.297 44.319 C 30.297 44.375 30.297 44.445 30.286 44.53 C 30.219 44.867 30.151 45.199997 30.094 45.546997 L 30.132 45.546997 C 30.053 45.949997 29.995 46.341995 30.023 46.553997 L 33.882 62.409996 L 33.988 62.828995 C 36.062 61.634995 37.27 59.450996 36.725 57.276993 L 34.975 50.255993 C 34.904 49.978992 34.664997 48.86299 34.586 48.52999 C 34.33 47.50799 34.313 46.49599 34.33 45.48199 C 35.518 37.722992 40.486 31.89399 48.155 31.89399 C 55.764 31.894 60.719 37.646 61.946 45.326 z M 28.325 46.967 C 28.307 46.899 28.299002 46.832 28.287 46.763 C 28.281 46.712 28.287 46.649 28.284 46.595 L 27.069 47.06 C 24.436 48.066 23.073 50.530003 23.691 52.998 L 25.444 60.008003 C 26.068 62.516003 28.454 63.960003 31.3 63.586 L 32.354 63.368004 C 32.339 63.325005 32.303 63.293003 32.291 63.250004 L 28.325 46.967 z M 68.713 46.839 L 67.730995 46.444 L 63.476994 63.028 C 63.456993 63.1 63.401993 63.153 63.37199 63.223 C 63.37199 63.223 64.451996 63.458 64.45599 63.458 C 64.45599 63.458 65.84599 63.567 66.48899 63.453 C 66.49299 63.451 66.495995 63.451 66.50099 63.451 C 66.773994 63.4 67.05599 63.372 67.31099 63.287 L 66.56999 66.173996 L 66.58099 66.175995 L 61.955994 68.63999 C 60.944992 67.71399 59.427994 67.468 58.146996 68.15099 L 54.222996 70.244 C 52.598995 71.115 51.980995 73.134995 52.846996 74.765 C 53.713997 76.389 55.74 77.005 57.361996 76.138 L 61.284996 74.043 C 62.561996 73.357 63.206997 71.96 63.004 70.604 L 68.48 67.684 L 68.725 66.727 L 70.922 58.152996 L 72.297 53.046 C 72.385994 52.713997 72.440994 52.384 72.454994 52.053997 C 72.611 49.814 71.199 47.678 68.713 46.839 z " fill-opacity="0.3" stroke-opacity="0.3"/>
<path d="M 61.946 44.261 C 61.924 45.336 61.861 46.022003 61.523 47.289 C 61.433 47.618 61.181 48.727 61.107 49.018 L 59.220997 55.992 C 58.642 58.133 59.768997 60.291 61.781 61.533 L 66.190994 44.348 C 66.173 44.299 66.163994 44.237 66.158 44.185 C 66.158 44.101 66.146996 44.017 66.158 43.932003 L 66.113 43.921 C 64.395996 34.048 58.042 26.532 48.155 26.532 C 38.499 26.532 32.222 33.708 30.318 43.254 L 30.297 43.254 C 30.297 43.31 30.297 43.38 30.286 43.466003 C 30.219 43.801003 30.151 44.134003 30.094 44.481003 L 30.132 44.481003 C 30.053 44.886 29.995 45.277004 30.023 45.49 L 33.882 61.344 L 33.988 61.763 C 36.062 60.569 37.27 58.386 36.725 56.213 L 34.975 49.19 C 34.904 48.914 34.664997 47.797 34.586 47.464 C 34.33 46.443 34.313 45.43 34.33 44.417 C 35.518 36.658 40.486 30.828 48.155 30.828 C 55.764 30.83 60.719 36.583 61.946 44.261 z M 28.325 45.902 C 28.307 45.836 28.299002 45.769 28.287 45.698 C 28.281 45.647003 28.287 45.584003 28.284 45.530003 L 27.069 45.995003 C 24.436 47.001003 23.073 49.465004 23.691 51.933 L 25.444 58.945004 C 26.068 61.451004 28.454 62.895004 31.3 62.521004 L 32.354 62.303005 C 32.339 62.26001 32.303 62.228004 32.291 62.185005 L 28.325 45.902 z M 68.713 45.775 L 67.73 45.38 L 63.476 61.964 C 63.456 62.036 63.401 62.089 63.371 62.159 C 63.371 62.159 64.451004 62.394 64.455 62.394 C 64.455 62.394 65.845 62.503 66.488 62.391003 C 66.492 62.389004 66.495 62.388004 66.5 62.388004 C 66.773 62.338005 67.055 62.308 67.31 62.223003 L 66.569 65.11 L 66.58 65.112 L 61.955 67.576 C 60.944 66.649994 59.427 66.404 58.146004 67.087 L 54.222004 69.181 C 52.598003 70.052 51.980003 72.074 52.846004 73.702 C 53.713005 75.326 55.73901 75.94199 57.361004 75.075 L 61.284004 72.98 C 62.561005 72.294 63.206005 70.899994 63.00301 69.54099 L 68.47901 66.620995 L 68.72401 65.66499 L 70.921005 57.091995 L 72.296005 51.98299 C 72.385 51.651993 72.44 51.320995 72.454 50.992992 C 72.611 48.75 71.199 46.615 68.713 45.775 z " fill-opacity="0.15" stroke-opacity="0.15"/>
<path d="M 55.795 77.718 C 53.726997 77.718 51.836 76.586 50.861 74.763 C 49.416 72.046 50.447 68.654 53.158 67.2 L 57.086 65.104 C 57.890003 64.674995 58.793003 64.449 59.698 64.449 C 60.515003 64.449 61.324 64.629 62.059 64.971 L 62.599003 64.684 L 61.624004 64.082 L 60.217003 63.775 L 60.411003 63.33 C 57.559 61.474003 56.241005 58.385 57.048004 55.404003 L 58.935005 48.431004 L 59.037006 48.005005 C 59.183006 47.386005 59.297005 46.901005 59.35301 46.69801 C 59.613007 45.723007 59.66901 45.213005 59.69101 44.418007 C 58.505 37.422 54.09 33.08 48.156 33.08 C 42.150997 33.08 37.718 37.497 36.578 44.613003 C 36.568 45.329 36.577 46.15 36.769 46.92 C 36.811 47.098003 36.978 47.854004 36.978 47.854004 C 37.056 48.20501 37.122 48.508003 37.153 48.630005 L 38.908 55.671005 C 39.67 58.704006 38.179 61.90601 35.194 63.667004 L 35.304 63.990005 L 34.255 64.20801 L 32.536 65.198006 L 32.384 64.59501 L 31.755 64.725006 C 31.229 64.801 30.831 64.83001 30.419 64.83001 C 26.877 64.83001 24.065998 62.73201 23.259 59.48801 L 21.506998 52.48001 C 20.596998 48.84201 22.552998 45.311012 26.264996 43.893013 L 28.042995 43.212013 L 28.057997 43.13901 C 28.049995 42.95401 28.048996 42.74501 28.047997 42.511013 L 28.041996 41.005013 L 28.527996 41.005013 C 31.227997 30.673012 38.703995 24.283012 48.155 24.283012 C 58.032 24.283012 65.616 31.088013 68.042 42.07801 L 68.517 42.19401 L 68.454 43.24601 L 69.55299 43.68701 C 72.84999 44.79801 74.93399 47.803013 74.69799 51.150013 C 74.67899 51.582012 74.59899 52.079018 74.46799 52.566013 L 73.09299 57.675014 L 70.41199 68.140015 L 65.222984 70.90801 C 64.95499 72.63401 63.903984 74.12901 62.348984 74.96401 L 58.420982 77.06101 C 57.615 77.49 56.708 77.718 55.795 77.718 z " fill-opacity="0.07" stroke-opacity="0.07"/>
<path d="M 55.795 76.968 C 54.004 76.968 52.365997 75.988 51.523 74.409004 C 50.272 72.05601 51.164997 69.119 53.513 67.86 L 57.44 65.764 C 58.135 65.394 58.916004 65.198 59.699 65.198 C 60.536003 65.198 61.345 65.410995 62.067 65.817 L 65.278 64.107 L 65.321 63.939003 C 64.881996 63.928 64.493 63.902004 64.376 63.893 C 64.278 63.892 64.222 63.88 63.053 63.625 L 62.808 63.571 L 62.728 63.879997 L 61.912003 63.375996 L 61.271004 63.235996 L 61.359005 63.033997 L 60.994003 62.809 C 58.303 61.146 57.040005 58.316 57.775 55.598 L 59.661003 48.625 C 59.683 48.539 59.733 48.325 59.791004 48.082 C 59.912003 47.567 60.02401 47.093 60.078003 46.893 C 60.363003 45.828003 60.423004 45.261 60.445004 44.364 C 59.21 36.939 54.507 32.33 48.156 32.33 C 41.738 32.33 37.018 37.01 35.829 44.548004 C 35.817 45.335003 35.826 46.23901 36.042 47.102005 C 36.082 47.269005 36.149 47.57301 36.22 47.89201 C 36.311 48.307007 36.392 48.678005 36.429 48.819004 L 38.182 55.852005 C 38.868 58.584003 37.485 61.48301 34.739 63.065006 L 34.287 63.325005 L 34.322 63.429005 L 33.986 63.499004 L 33.022 64.054 L 32.937 63.716 L 31.604 63.991 C 31.148 64.055 30.788 64.081 30.42 64.081 L 30.42 64.081 C 27.234 64.081 24.709 62.207 23.988 59.308 L 22.235998 52.300003 C 21.420998 49.042004 23.188995 45.873 26.533998 44.595 L 28.700998 43.765 C 28.731 43.604 28.814 43.193 28.814 43.193 C 28.802 42.997 28.801 42.769 28.8 42.508 L 28.797 41.755 L 29.115 41.755 C 31.604 31.422 38.855 25.033 48.157 25.033 C 57.827995 25.033 65.169 31.786 67.407 42.695 L 67.732 42.775 L 67.673 43.742 L 69.272995 44.385 C 72.26599 45.394 74.160995 48.098003 73.95 51.099003 C 73.932 51.49 73.862 51.937004 73.744 52.372 L 72.369 57.481003 L 69.767 67.635 L 64.524 70.431 C 64.393005 72.064 63.453003 73.52 61.993004 74.303 L 58.067005 76.399 C 57.371 76.771 56.586 76.968 55.795 76.968 z " fill-opacity="0.07" stroke-opacity="0.07"/>
<path d="M 55.795 76.218 C 54.281 76.218 52.897 75.39 52.184 74.056 C 51.127 72.069 51.883 69.586 53.867996 68.522 L 57.793995 66.426 C 58.379993 66.113 59.038994 65.948006 59.698994 65.948006 C 60.540993 65.948006 61.353992 66.20701 62.036995 66.68301 L 65.923 64.61301 L 66.293 63.172005 C 66.112 63.186005 65.903 63.193005 65.659996 63.193005 C 65.034 63.193005 64.396996 63.14201 64.396996 63.14201 C 64.395 63.143005 64.393 63.143005 64.38999 63.143005 C 64.36299 63.143005 64.26999 63.122005 63.21099 62.89201 L 62.319992 62.699005 L 62.708992 61.803005 L 62.769993 61.703007 L 67.216995 44.366005 L 68.992 45.079006 C 71.681 45.987007 73.388 48.390007 73.201 51.04501 C 73.185 51.39901 73.12399 51.787006 73.019 52.17701 L 71.644 57.286007 L 69.121994 67.128006 L 63.78799 69.97301 C 63.810993 71.48601 62.991993 72.91501 61.638996 73.642006 L 57.712997 75.73701 C 57.125 76.052 56.461 76.218 55.795 76.218 L 55.795 76.218 z M 30.42 63.33 C 27.59 63.33 25.351 61.68 24.716 59.126003 L 22.963 52.116005 C 22.243 49.238007 23.821 46.433006 26.801 45.294006 L 28.978 44.461006 L 29.034998 45.515007 L 29.037 45.62101 L 29.054 45.725006 L 32.997997 61.91301 C 33.019997 61.952007 33.044 62.00301 33.065 62.062004 L 33.338997 62.866005 L 31.452995 63.257004 C 31.065 63.309 30.739 63.33 30.42 63.33 L 30.42 63.33 z M 33.157 61.53 L 29.296 45.668 C 29.276 45.531 29.269 45.39 29.275002 45.232 L 29.251 45.232 L 29.355 44.361 C 29.406002 44.047 29.467 43.743 29.528002 43.44 L 29.552002 43.321 C 29.552002 43.321 29.549002 42.504997 29.549002 42.504997 L 29.711002 42.504997 C 31.987003 32.172997 39.01 25.782995 48.157 25.782995 C 57.618004 25.782995 64.712006 32.482998 66.765 43.309 L 66.947 43.352997 L 66.904 44.047997 L 66.909996 44.185997 L 66.992 44.406 L 66.92 44.535 L 62.255997 62.707 L 61.388996 62.172 C 58.986996 60.688 57.852997 58.186 58.499996 55.796 L 60.384995 48.822 C 60.41299 48.714 60.472996 48.458004 60.538994 48.176003 C 60.637993 47.759003 60.747993 47.289 60.802994 47.092003 C 61.110992 45.936005 61.173992 45.312004 61.19799 44.313004 C 59.918995 36.457005 54.92699 31.579002 48.157993 31.579002 C 41.324993 31.579002 36.318993 36.521004 35.081993 44.482 C 35.067993 45.339 35.076992 46.327003 35.31599 47.283 C 35.352993 47.439 35.41999 47.739 35.488995 48.053 C 35.573994 48.441 35.664993 48.853 35.703995 49.005 L 37.455994 56.033 C 38.059994 58.437 36.817993 61.002 34.365993 62.414 L 33.50799 62.908 L 33.157 61.53 z " fill-opacity="0.07" stroke-opacity="0.07"/>
<linearGradient gradientTransform="matrix(1 0 0 -1 -300.9004 -120.5996)" gradientUnits="userSpaceOnUse" x1="348.9043" x2="348.9043" y1="-196.0679" y2="-147.1323">
<stop offset="0" stop-color="#d0cbc5"/>
<stop offset="0.5031" stop-color="#fafcef"/>
<stop offset="0.9693" stop-color="#ffffff"/>
<stop offset="1" stop-color="#ffffff"/>
</linearGradient>
<path d="M 61.946 44.261 C 61.924 45.336 61.861 46.022003 61.523 47.289 C 61.433 47.618 61.181 48.727 61.107 49.018 L 59.220997 55.992 C 58.642 58.133 59.768997 60.291 61.781 61.533 L 66.190994 44.348 C 66.173 44.299 66.163994 44.237 66.158 44.185 C 66.158 44.101 66.146996 44.017 66.158 43.932003 L 66.113 43.921 C 64.395996 34.048 58.042 26.532 48.155 26.532 C 38.499 26.532 32.222 33.708 30.318 43.254 L 30.297 43.254 C 30.297 43.31 30.297 43.38 30.286 43.466003 C 30.219 43.801003 30.151 44.134003 30.094 44.481003 L 30.132 44.481003 C 30.053 44.886 29.995 45.277004 30.023 45.49 L 33.882 61.344 L 33.988 61.763 C 36.062 60.569 37.27 58.386 36.725 56.213 L 34.975 49.19 C 34.904 48.914 34.664997 47.797 34.586 47.464 C 34.33 46.443 34.313 45.43 34.33 44.417 C 35.518 36.658 40.486 30.828 48.155 30.828 C 55.764 30.83 60.719 36.583 61.946 44.261 z M 28.325 45.902 C 28.307 45.836 28.299002 45.769 28.287 45.698 C 28.281 45.647003 28.287 45.584003 28.284 45.530003 L 27.069 45.995003 C 24.436 47.001003 23.073 49.465004 23.691 51.933 L 25.444 58.945004 C 26.068 61.451004 28.454 62.895004 31.3 62.521004 L 32.354 62.303005 C 32.339 62.26001 32.303 62.228004 32.291 62.185005 L 28.325 45.902 z M 68.713 45.775 L 67.73 45.38 L 63.476 61.964 C 63.456 62.036 63.401 62.089 63.371 62.159 C 63.371 62.159 64.451004 62.394 64.455 62.394 C 64.455 62.394 65.845 62.503 66.488 62.391003 C 66.492 62.389004 66.495 62.388004 66.5 62.388004 C 66.773 62.338005 67.055 62.308 67.31 62.223003 L 66.569 65.11 L 66.58 65.112 L 61.955 67.576 C 60.944 66.649994 59.427 66.404 58.146004 67.087 L 54.222004 69.181 C 52.598003 70.052 51.980003 72.074 52.846004 73.702 C 53.713005 75.326 55.73901 75.94199 57.361004 75.075 L 61.284004 72.98 C 62.561005 72.294 63.206005 70.899994 63.00301 69.54099 L 68.47901 66.620995 L 68.72401 65.66499 L 70.921005 57.091995 L 72.296005 51.98299 C 72.385 51.651993 72.44 51.320995 72.454 50.992992 C 72.611 48.75 71.199 46.615 68.713 45.775 z " fill="#ffffff" fill-opacity="1"/>
</svg>
