<?xml version="1.0" encoding="UTF-8"?>
<svg xmlns="http://www.w3.org/2000/svg" xmlns:xlink="http://www.w3.org/1999/xlink" baseProfile="tiny" contentScriptType="text/ecmascript" contentStyleType="text/css" height="30px" preserveAspectRatio="xMidYMid meet" version="1.1" viewBox="0 0 30 30" width="30px" x="0px" y="0px" zoomAndPan="magnify">
<path d="M 29.486 23.126 L 27.195 21.854 C 27.744999 20.879 28.174 19.832 28.479 18.731 C 28.749 18.602001 29.001 18.436 29.218 18.219002 C 30.258 17.180002 30.259 15.487001 29.218 14.445002 L 28.958 14.185001 C 28.866001 12.614001 28.526001 11.111002 27.957 9.720001 C 27.98 9.482 28.0 9.243 28.0 9.0 C 28.0 4.589 24.412 1.0 20.0 1.0 C 19.261 1.0 18.547 1.108 17.867 1.298 C 16.941 1.104 15.982 1.0 15.0 1.0 C 7.28 1.0 1.0 7.28 1.0 15.0 C 1.0 22.72 7.28 29.0 15.0 29.0 C 16.391 29.0 17.730999 28.789 19.0 28.41 L 19.0 29.0 C 19.0 29.354 19.188 29.682 19.492 29.861 C 19.649 29.954 19.824 30.0 20.0 30.0 C 20.167 30.0 20.334 29.958 20.486 29.874 L 29.486 24.874 C 29.803 24.697 30.0 24.363 30.0 24.0 C 30.0 23.637 29.803 23.303 29.486 23.126 z " fill-opacity="0.15"/>
<rect fill="none" height="30" width="30"/>
<g>
<g fill-opacity="0.3" stroke-opacity="0.3">
<path d="M 13.0 8.0 C 13.0 11.866 16.133 15.0 20.0 15.0 C 21.327 15.0 22.564 14.623 23.622 13.981 L 26.152 16.511 C 26.803001 17.161 27.859001 17.161 28.511 16.511 C 29.161999 15.86 29.161999 14.8029995 28.511 14.151 L 25.980999 11.622 C 26.623 10.564 27.0 9.328 27.0 8.0 C 27.0 4.135 23.865 1.0 20.0 1.0 C 16.133 1.0 13.0 4.135 13.0 8.0 z M 20.0 3.5 C 22.480999 3.5 24.5 5.519 24.5 8.0 C 24.5 10.482 22.480999 12.5 20.0 12.5 C 17.518 12.5 15.5 10.482 15.5 8.0 C 15.5 5.519 17.518 3.5 20.0 3.5 z M 27.628 10.965 C 27.57 11.111 27.522 11.258 27.456 11.400001 L 27.789 11.733001 C 27.743 11.473 27.688 11.218 27.628 10.965 z M 14.8 25.0 L 14.8 21.0 C 14.8 20.337 15.337 19.8 16.0 19.8 L 18.8 19.8 L 18.8 18.0 C 18.8 17.575 19.026 17.182 19.391998 16.966 C 19.579 16.855 19.789 16.8 20.0 16.8 C 20.2 16.8 20.401 16.851 20.583 16.950998 L 26.41 20.187998 C 26.458 20.098997 26.512 20.012999 26.557 19.922998 C 26.559 19.922998 26.56 19.923998 26.561998 19.923998 C 26.844997 19.370998 27.116 18.791998 27.350998 18.195997 C 27.343998 18.195997 27.337997 18.197998 27.330997 18.197998 C 26.564997 18.197998 25.844997 17.899998 25.303997 17.359999 L 23.398996 15.454999 C 22.332 15.944 21.173 16.2 20.0 16.2 C 15.479 16.2 11.8 12.521001 11.8 8.000001 C 11.8 5.060001 13.362 2.4820008 15.694 1.0350008 C 15.462 1.022 15.234 1.0 15.0 1.0 C 14.206 1.0 13.432 1.083 12.677 1.22 L 12.6710005 1.22 L 12.67 1.221 C 6.611 2.323 2.0 7.627 2.0 14.0 C 2.0 20.737999 7.154 26.293999 13.728 26.936 C 14.146 26.977 14.57 27.0 15.0 27.0 C 16.322 27.0 17.598 26.796 18.8 26.427 L 18.8 26.2 L 16.0 26.2 C 15.337 26.2 14.8 25.663 14.8 25.0 z M 5.68 15.52 C 5.513 15.534 5.371 15.541 5.2479997 15.541 C 4.6889997 15.541 4.43 15.38 4.0329995 15.139 L 3.8139994 15.016 C 3.6709995 14.964 3.5719993 14.830999 3.5619993 14.679 L 3.5499992 14.512 C 3.54 14.342 3.527 14.174 3.527 14.0 C 3.527 10.845 4.797 7.898 7.099 5.705 C 7.171 5.638 7.266 5.6 7.361 5.6 L 7.383 5.6 C 7.487 5.605 7.586 5.6549997 7.654 5.735 C 7.8329997 5.948 8.217 6.065 8.731 6.065 C 8.988 6.065 9.279 6.0360003 9.547 5.981 C 9.701 5.948 9.854 5.913 10.002 5.877 C 10.082 5.858 10.165999 5.843 10.248 5.825 C 10.092 6.526 10.0 7.252 10.0 8.0 C 10.0 8.48 10.046 8.949 10.111 9.412 C 9.974 9.566999 9.841 9.733 9.703 9.905 C 9.365 10.326 9.015 10.763 8.537 11.134 C 8.052 11.513 7.503 11.603 7.0179996 11.68 C 6.6749997 11.736 6.3549995 11.788 6.0709996 11.926001 C 5.7869997 12.070001 5.7029996 12.183001 5.6949997 12.226001 C 5.674 12.400001 6.1299996 12.806001 6.4019995 13.0460005 C 6.9169993 13.503 7.4469995 13.972 7.3859997 14.56 C 7.307 15.359 6.256 15.461 5.68 15.52 z M 13.59 18.248 C 13.524 18.394 13.453 18.540998 13.395 18.688 C 13.360001 18.775 13.360001 18.894 13.358001 19.032999 C 13.354001 19.205 13.352001 19.397999 13.286001 19.602 C 13.134001 20.061998 12.790001 20.257 12.513001 20.414999 C 12.388001 20.483 12.273002 20.550999 12.195002 20.629 C 11.925001 20.897 11.754002 21.421 11.617002 21.844 L 11.553001 22.032 C 11.512001 22.157 11.459002 22.269 11.408001 22.376 C 11.364001 22.465 11.321001 22.550999 11.295001 22.649 C 11.277001 22.716 11.279001 22.842001 11.279001 22.963 C 11.281001 23.132 11.285001 23.324 11.236001 23.505 C 11.225001 23.550999 11.224001 23.594 11.222001 23.647 C 11.220001 23.809 11.214001 24.113998 10.793001 24.317 C 10.655002 24.385 10.514001 24.42 10.373001 24.42 C 10.356001 24.42 10.280001 24.415 10.265001 24.413 C 10.226002 24.409 10.186001 24.397 10.148002 24.382 L 9.897001 24.259 C 9.864001 24.240002 9.834002 24.220001 9.806002 24.195002 C 9.524002 23.929 9.422002 23.511002 9.383001 23.278002 C 9.277001 22.611002 9.134002 21.696001 9.241001 20.980001 C 9.262001 20.828001 9.290001 20.671001 9.317001 20.513 C 9.423001 19.913 9.533001 19.292 9.366001 18.734001 C 9.257001 18.365002 8.958001 18.122002 8.611001 17.838001 C 8.178001 17.484001 7.686001 17.084002 7.575001 16.371002 C 7.489001 15.848002 7.614001 15.371002 7.936001 14.994002 C 8.331001 14.533002 8.999001 14.256002 9.728001 14.256002 C 9.969001 14.256002 10.203001 14.285003 10.423 14.346003 C 10.557 14.383002 10.707001 14.420003 10.868 14.461002 C 11.347 14.579002 11.946 14.727002 12.465 14.942002 C 12.856 15.101003 13.156 15.278003 13.379 15.484002 C 14.426 16.431 13.961 17.439 13.59 18.248 z M 20.0 21.0 L 16.0 21.0 L 16.0 25.0 L 20.0 25.0 L 20.0 28.0 L 29.0 23.0 L 20.0 18.0 L 20.0 21.0 z "/>
</g>
</g>
<g>
<g>
<path d="M 27.628 11.965 C 27.57 12.111 27.522 12.258 27.456 12.400001 L 27.789 12.733001 C 27.743 12.473 27.688 12.218 27.628 11.965 z M 13.0 9.0 C 13.0 12.866 16.133 16.0 20.0 16.0 C 21.327 16.0 22.564 15.623 23.622 14.981 L 26.152 17.511 C 26.803001 18.161 27.859001 18.161 28.511 17.511 C 29.161999 16.86 29.161999 15.8029995 28.511 15.151 L 25.980999 12.622 C 26.623 11.564 27.0 10.328 27.0 9.0 C 27.0 5.135 23.865 2.0 20.0 2.0 C 16.133 2.0 13.0 5.135 13.0 9.0 z M 20.0 4.5 C 22.480999 4.5 24.5 6.519 24.5 9.0 C 24.5 11.482 22.480999 13.5 20.0 13.5 C 17.518 13.5 15.5 11.482 15.5 9.0 C 15.5 6.519 17.518 4.5 20.0 4.5 z M 20.0 22.0 L 16.0 22.0 L 16.0 26.0 L 20.0 26.0 L 20.0 29.0 L 29.0 24.0 L 20.0 19.0 L 20.0 22.0 z M 14.8 26.0 L 14.8 22.0 C 14.8 21.337 15.337 20.8 16.0 20.8 L 18.8 20.8 L 18.8 19.0 C 18.8 18.575 19.026 18.182 19.391998 17.966 C 19.579 17.855 19.789 17.8 20.0 17.8 C 20.2 17.8 20.401 17.851 20.583 17.950998 L 26.41 21.187998 C 26.458 21.098997 26.512 21.012999 26.557 20.922998 C 26.559 20.922998 26.56 20.923998 26.561998 20.923998 C 26.844997 20.370998 27.116 19.791998 27.350998 19.195997 C 27.343998 19.195997 27.337997 19.197998 27.330997 19.197998 C 26.564997 19.197998 25.844997 18.899998 25.303997 18.359999 L 23.398996 16.454998 C 22.332 16.944 21.173 17.2 20.0 17.2 C 15.479 17.2 11.8 13.521001 11.8 9.000001 C 11.8 6.060001 13.362 3.4820008 15.694 2.0350008 C 15.462 2.022 15.234 2.0 15.0 2.0 C 14.206 2.0 13.432 2.083 12.677 2.22 L 12.6710005 2.22 L 12.67 2.221 C 6.611 3.323 2.0 8.627 2.0 15.0 C 2.0 21.737999 7.154 27.293999 13.728 27.936 C 14.146 27.977 14.57 28.0 15.0 28.0 C 16.322 28.0 17.598 27.796 18.8 27.427 L 18.8 27.2 L 16.0 27.2 C 15.337 27.2 14.8 26.663 14.8 26.0 z M 5.68 16.52 C 5.513 16.534 5.371 16.541 5.2479997 16.541 C 4.6889997 16.541 4.43 16.380001 4.0329995 16.139 L 3.8139994 16.016 C 3.6709995 15.964001 3.5719993 15.831 3.5619993 15.679001 L 3.5499992 15.512001 C 3.54 15.342 3.527 15.174 3.527 15.0 C 3.527 11.845 4.797 8.898 7.099 6.705 C 7.171 6.638 7.266 6.6 7.361 6.6 L 7.383 6.6 C 7.487 6.605 7.586 6.6549997 7.654 6.735 C 7.8329997 6.948 8.217 7.065 8.731 7.065 C 8.988 7.065 9.279 7.0360003 9.547 6.981 C 9.701 6.948 9.854 6.913 10.002 6.877 C 10.082 6.858 10.165999 6.843 10.248 6.825 C 10.092 7.526 10.0 8.252 10.0 9.0 C 10.0 9.48 10.046 9.949 10.111 10.412 C 9.974 10.566999 9.841 10.733 9.703 10.905 C 9.365 11.326 9.015 11.763 8.537 12.134 C 8.052 12.513 7.503 12.603 7.0179996 12.68 C 6.6749997 12.736 6.3549995 12.788 6.0709996 12.926001 C 5.7869997 13.070001 5.7029996 13.183001 5.6949997 13.226001 C 5.674 13.400001 6.1299996 13.806001 6.4019995 14.0460005 C 6.9169993 14.503 7.4469995 14.972 7.3859997 15.56 C 7.307 16.359 6.256 16.461 5.68 16.52 z M 13.59 19.248 C 13.524 19.394 13.453 19.540998 13.395 19.688 C 13.360001 19.775 13.360001 19.894 13.358001 20.032999 C 13.354001 20.205 13.352001 20.397999 13.286001 20.602 C 13.134001 21.061998 12.790001 21.257 12.513001 21.414999 C 12.388001 21.483 12.273002 21.550999 12.195002 21.629 C 11.925001 21.897 11.754002 22.421 11.617002 22.844 L 11.553001 23.032 C 11.512001 23.157 11.459002 23.269 11.408001 23.376 C 11.364001 23.465 11.321001 23.550999 11.295001 23.649 C 11.277001 23.716 11.279001 23.842001 11.279001 23.963 C 11.281001 24.132 11.285001 24.324 11.236001 24.505 C 11.225001 24.550999 11.224001 24.594 11.222001 24.647 C 11.220001 24.809 11.214001 25.113998 10.793001 25.317 C 10.655002 25.385 10.514001 25.42 10.373001 25.42 C 10.356001 25.42 10.280001 25.415 10.265001 25.413 C 10.226002 25.409 10.186001 25.397 10.148002 25.382 L 9.897001 25.259 C 9.864001 25.240002 9.834002 25.220001 9.806002 25.195002 C 9.524002 24.929 9.422002 24.511002 9.383001 24.278002 C 9.277001 23.611002 9.134002 22.696001 9.241001 21.980001 C 9.262001 21.828001 9.290001 21.671001 9.317001 21.513 C 9.423001 20.913 9.533001 20.292 9.366001 19.734001 C 9.257001 19.365002 8.958001 19.122002 8.611001 18.838001 C 8.178001 18.484001 7.686001 18.084002 7.575001 17.371002 C 7.489001 16.848001 7.614001 16.371002 7.936001 15.994002 C 8.331001 15.533002 8.999001 15.256002 9.728001 15.256002 C 9.969001 15.256002 10.203001 15.285003 10.423 15.346003 C 10.557 15.383002 10.707001 15.420003 10.868 15.461002 C 11.347 15.579002 11.946 15.727002 12.465 15.942002 C 12.856 16.101002 13.156 16.278002 13.379 16.484003 C 14.426 17.431 13.961 18.439 13.59 19.248 z " fill="#dedede"/>
</g>
</g>
</svg>
