<?xml version="1.0" encoding="UTF-8"?>
<svg xmlns="http://www.w3.org/2000/svg" xmlns:xlink="http://www.w3.org/1999/xlink" baseProfile="tiny" contentScriptType="text/ecmascript" contentStyleType="text/css" height="30px" preserveAspectRatio="xMidYMid meet" version="1.1" viewBox="0 0 30 30" width="30px" x="0px" y="0px" zoomAndPan="magnify">
<rect color="#000000" display="inline" fill="#353535" fill-opacity="0.58823529" fill-rule="nonzero" height="27.533897" ry="4.7137108" stroke="none" visibility="visible" width="27.533897" x="1.2330513" y="1.3212816"/>
<path d="M 23.307692 12.515841 L 22.615383 12.515841 L 20.538462 13.554301 L 19.153845 13.554301 L 19.153845 12.861994 C 19.153845 12.481224 18.842306 12.169685 18.461536 12.169685 L 8.769229 12.169685 C 8.388459 12.169685 8.076921 12.481223 8.076921 12.861994 L 8.076921 20.47738 C 8.076921 20.858149 8.38846 21.169687 8.769229 21.169687 L 18.461536 21.169687 C 18.842306 21.169687 19.153845 20.858149 19.153845 20.47738 L 19.153845 17.708147 L 20.538462 17.708147 L 22.615383 18.74661 L 23.307692 18.74661 C 23.68846 18.74661 24.0 18.435072 24.0 18.054302 L 24.0 13.208149 C 24.0 12.827379 23.68846 12.515841 23.307692 12.515841 z M 13.818231 10.987918 L 12.72023 9.889917 C 12.450922 9.620609 11.91923 9.400455 11.538461 9.400455 L 7.3846145 9.400455 L 6.3094606 8.863224 C 6.1391535 8.778072 6.0 8.863917 6.0 9.054301 L 6.0 11.823532 C 6.0 12.013917 6.139154 12.099763 6.3094616 12.014609 L 7.3846154 11.477378 L 13.615385 11.477378 C 13.996154 11.477378 14.087538 11.257224 13.818231 10.987917 z " fill="#dedede"/>
<rect fill="none" height="30" width="30"/>
</svg>
