<?xml version="1.0" encoding="UTF-8"?>
<svg xmlns="http://www.w3.org/2000/svg" xmlns:xlink="http://www.w3.org/1999/xlink" baseProfile="tiny" contentScriptType="text/ecmascript" contentStyleType="text/css" height="30px" preserveAspectRatio="xMidYMid meet" version="1.1" viewBox="0 0 30 30" width="30px" x="0px" y="0px" zoomAndPan="magnify">
<rect fill="none" height="30" width="30"/>
<path color="#000000" d="M 15.566845 4.9999995 C 13.499103 5.0000196 11.846698 5.7486825 10.6256695 7.245989 C 9.226379 8.966148 8.529411 11.714809 8.529412 15.502674 C 8.529411 18.889488 9.167558 21.32175 10.433156 22.796791 C 11.698748 24.271835 13.326199 25.0 15.33155 25.0 C 16.508013 24.999998 17.5704 24.727272 18.497324 24.165775 C 19.424229 23.60428 20.148829 22.804811 20.679142 21.748665 C 21.209433 20.692518 21.470572 19.534763 21.470589 18.304811 C 21.470575 16.433165 20.908184 14.908209 19.780746 13.727274 C 18.653286 12.546359 17.278065 11.951885 15.673796 11.951872 C 14.755785 11.951885 13.880563 12.165789 13.04278 12.593584 C 12.204985 13.021404 11.504453 13.679157 10.925134 14.561499 C 10.942954 12.600727 11.172902 11.087358 11.609626 10.026739 C 12.046341 8.966148 12.627446 8.162228 13.385027 7.609627 C 13.964343 7.1818366 14.650617 6.9679327 15.417112 6.9679146 C 16.370756 6.9679327 17.1622 7.3083954 17.812834 7.9946527 C 18.20498 8.422477 18.518703 9.124793 18.73262 10.069519 L 21.128342 9.877007 C 20.93225 8.352958 20.337776 7.1479664 19.352942 6.2834215 C 18.368082 5.4189134 17.108728 5.0000196 15.566845 4.9999995 z M 15.203209 14.09091 C 16.299458 14.090921 17.197851 14.466142 17.919788 15.245989 C 18.6417 16.025856 19.010689 17.09983 19.010696 18.454548 C 19.010689 19.86275 18.650614 20.971483 17.919788 21.791445 C 17.188938 22.61141 16.304806 23.032087 15.288773 23.032084 C 14.593577 23.032087 13.932259 22.829773 13.299467 22.433155 C 12.666663 22.036545 12.175576 21.458117 11.823532 20.700537 C 11.471477 19.942966 11.288768 19.155088 11.288771 18.326204 C 11.288768 17.060616 11.664882 16.025858 12.422461 15.245991 C 13.180031 14.466144 14.115858 14.090921 15.203209 14.090912 z " display="inline" fill="#dedede" fill-opacity="1" fill-rule="nonzero" stroke="none" visibility="visible"/>
</svg>
