<?xml version="1.0" encoding="UTF-8"?>
<svg xmlns="http://www.w3.org/2000/svg" xmlns:xlink="http://www.w3.org/1999/xlink" baseProfile="tiny" contentScriptType="text/ecmascript" contentStyleType="text/css" height="27px" preserveAspectRatio="xMidYMid meet" version="1.1" viewBox="0 0 27 27" width="27px" x="0px" y="0px" zoomAndPan="magnify">
<rect fill="none" height="27" width="27"/>
<rect fill="none" height="27" width="27"/>
<linearGradient gradientUnits="userSpaceOnUse" id="SVGID_1_" x1="21.6211" x2="21.6211" xlink:actuate="onLoad" xlink:show="other" xlink:type="simple" y1="21.7646" y2="21.4785">
<stop offset="0" stop-color="#d0cbc5"/>
<stop offset="1" stop-color="#fcfcf9"/>
</linearGradient>
<path d="M 21.478 21.765 C 21.575 21.67 21.67 21.576 21.764 21.479 L 21.478 21.765 z " fill="url(#SVGID_1_)"/>
<linearGradient gradientUnits="userSpaceOnUse" x1="13.4946" x2="13.4946" xlink:actuate="onLoad" xlink:show="other" xlink:type="simple" y1="24.9443" y2="2.0005">
<stop offset="0" stop-color="#d0cbc5"/>
<stop offset="1" stop-color="#fcfcf9"/>
</linearGradient>
<path d="M 13.464 21.758 C 13.599 21.351 13.908999 20.849998 14.215 20.541 L 18.266 16.49 C 18.216002 16.442 18.157 16.405 18.111 16.353 C 17.59 15.765 17.33 14.965 17.33 13.957001 C 17.33 13.473001 17.4 13.027 17.547 12.625001 C 17.692 12.225001 17.897 11.875001 18.162998 11.592001 C 18.429998 11.302001 18.753998 11.082001 19.136995 10.925001 C 19.517998 10.768002 19.947998 10.692001 20.421995 10.692001 C 20.726995 10.692001 21.006996 10.726002 21.261995 10.796001 C 21.517998 10.866001 21.738997 10.945002 21.925997 11.036001 C 22.114996 11.127001 22.267998 11.215001 22.380997 11.302001 C 22.497995 11.387001 22.571997 11.447001 22.603996 11.480001 L 21.863997 12.611002 C 21.824997 12.589002 21.761995 12.548002 21.681995 12.490002 C 21.599997 12.431002 21.497995 12.378001 21.383995 12.325002 C 21.271996 12.271002 21.140997 12.224002 20.996998 12.181002 C 20.853 12.140001 20.700998 12.120002 20.544998 12.120002 C 20.079 12.120002 19.703 12.268002 19.419 12.575002 C 19.137 12.881001 18.994 13.339002 18.994 13.956001 C 18.994 14.593001 19.13 15.059001 19.401 15.354001 L 21.828 12.927001 C 22.204 12.551001 22.707 12.343001 23.242 12.343001 C 23.777 12.343001 24.28 12.551002 24.656998 12.928001 L 24.987995 13.259002 C 24.858 7.03 19.759 2.0 13.5 2.0 C 7.158 2.0 2.0 7.158 2.0 13.5 C 2.0 19.471 6.574 24.39 12.402 24.944 L 13.464 21.758 z M 12.242 10.851 L 13.323999 10.851 L 13.323999 10.384 C 13.323999 10.03 13.362999 9.689 13.436999 9.361 C 13.508999 9.034 13.636 8.745 13.817999 8.493 C 13.999999 8.244 14.243999 8.043 14.551999 7.896 C 14.858999 7.75 15.251999 7.674 15.725999 7.674 C 16.096998 7.674 16.401999 7.694 16.637999 7.729 C 16.877 7.768 17.044998 7.795 17.145998 7.821 L 16.997995 9.117 C 16.906998 9.099 16.793997 9.085 16.649998 9.073 C 16.512999 9.062 16.344997 9.056 16.147997 9.056 C 15.751997 9.056 15.459997 9.157 15.272997 9.356999 C 15.084997 9.560999 14.987997 9.917999 14.987997 10.434999 L 14.987997 10.853999 L 16.629997 10.853999 L 16.629997 12.247999 L 14.987997 12.247999 L 14.987997 17.064 L 13.3239975 17.064 L 13.3239975 12.247999 L 12.241998 12.244 L 12.241998 10.851 z M 11.295 17.064 L 11.295 17.064 L 9.645 17.064 L 9.645 13.219999 C 9.645 12.790999 9.553 12.499999 9.374001 12.344999 C 9.190001 12.188999 8.972 12.110999 8.707001 12.110999 C 8.436001 12.110999 8.214001 12.164 8.043001 12.270999 C 7.870002 12.376999 7.7370014 12.524999 7.644001 12.713999 C 7.547001 12.9019985 7.484001 13.122999 7.445001 13.370998 C 7.4100018 13.621999 7.388001 13.887999 7.388001 14.165998 L 7.388001 17.061998 L 5.738001 17.061998 L 5.738001 10.851998 L 7.2400007 10.851998 L 7.303001 11.677999 C 7.360001 11.572999 7.442001 11.460999 7.5430007 11.345999 C 7.6430006 11.230999 7.770001 11.122999 7.9190006 11.023999 C 8.066001 10.924999 8.238001 10.845999 8.436001 10.784999 C 8.633 10.721999 8.856001 10.693999 9.104001 10.693999 C 9.893001 10.693999 10.456001 10.908999 10.791001 11.339999 C 11.129002 11.770999 11.298001 12.362999 11.298001 13.120999 L 11.298001 17.064 z " fill="#dedede" fill-opacity="1"/>
<path d="M 14.925 21.246 C 14.731 21.441 14.5 21.812 14.413 22.074 L 13.315001 25.368 C 13.228001 25.629 13.371 25.771 13.631 25.683 L 16.925 24.585 C 17.186 24.498 17.559002 24.269 17.753 24.073002 L 23.947 17.877005 L 21.12 15.05 L 14.925 21.246 z M 16.529 23.885 L 15.028999 24.41 L 14.591 23.971 L 15.115 22.471 L 15.41 22.174 L 16.821 23.59 L 16.529 23.885 z M 25.363 15.051 L 23.949 13.636 C 23.56 13.247 22.924002 13.247 22.535002 13.636 L 21.828 14.342999 L 24.656002 17.172 L 25.363005 16.464998 C 25.753 16.076 25.753 15.439 25.363 15.051 z " fill="#dedede"/>
</svg>
