<?xml version="1.0" encoding="UTF-8"?>
<svg xmlns="http://www.w3.org/2000/svg" xmlns:xlink="http://www.w3.org/1999/xlink" baseProfile="tiny" contentScriptType="text/ecmascript" contentStyleType="text/css" height="96px" preserveAspectRatio="xMidYMid meet" version="1.1" viewBox="0 0 96 96" width="96px" x="0px" y="0px" zoomAndPan="magnify">
<defs>
<linearGradient id="linearGradient3952">
<stop offset="0" stop-color="#005ac9" stop-opacity="1"/>
<stop offset="1" stop-color="#004bb0" stop-opacity="1"/>
</linearGradient>
<linearGradient gradientTransform="matrix(1,0,0,-1,-262.4805,-290.0195)" gradientUnits="userSpaceOnUse" x1="310.4795" x2="310.4795" xlink:actuate="onLoad" xlink:show="other" xlink:type="simple" y1="-298.5654" y2="-379.2603">
<stop offset="0" stop-color="#00bacc"/>
<stop offset="0.2312" stop-color="#01a1bb"/>
<stop offset="0.747" stop-color="#026d98"/>
<stop offset="1" stop-color="#02598b"/>
</linearGradient>
<linearGradient gradientTransform="matrix(1,0,0,-1,-262.4805,-290.0195)" gradientUnits="userSpaceOnUse" x1="310.457" x2="310.457" xlink:actuate="onLoad" xlink:show="other" xlink:type="simple" y1="-298.2734" y2="-377.5185">
<stop offset="0" stop-color="#ffffff"/>
<stop offset="1" stop-color="#ffffff" stop-opacity="0"/>
</linearGradient>
<radialGradient cx="316.4395" cy="-320.1919" gradientTransform="matrix(1,0,0,-1,-262.4805,-290.0195)" gradientUnits="userSpaceOnUse" r="12.3654" xlink:actuate="onLoad" xlink:show="other" xlink:type="simple">
<stop offset="0" stop-color="#fafcef"/>
<stop offset="0.3232" stop-color="#fafcef"/>
<stop offset="1" stop-color="#d0cbc5"/>
</radialGradient>
<radialGradient cx="315.2822" cy="-310.8804" gradientTransform="matrix(1,0,0,-1,-262.4805,-290.0195)" gradientUnits="userSpaceOnUse" r="40.6428" xlink:actuate="onLoad" xlink:show="other" xlink:type="simple">
<stop offset="0" stop-color="#fafcef"/>
<stop offset="0.3232" stop-color="#fafcef"/>
<stop offset="1" stop-color="#d0cbc5"/>
</radialGradient>
<radialGradient cx="295.4688" cy="-329.4878" gradientTransform="matrix(0.9927,0,0,-0.9942,-244.5366,-296.2139)" gradientUnits="userSpaceOnUse" r="38.3764" xlink:actuate="onLoad" xlink:show="other" xlink:type="simple">
<stop offset="0" stop-color="#00bacc"/>
<stop offset="0.2312" stop-color="#01a1bb"/>
<stop offset="0.747" stop-color="#026d98"/>
<stop offset="1" stop-color="#02598b"/>
</radialGradient>
<linearGradient gradientTransform="matrix(1,0,0,-1,-262.4805,-290.0195)" gradientUnits="userSpaceOnUse" x1="310.4521" x2="310.4521" xlink:actuate="onLoad" xlink:show="other" xlink:type="simple" y1="-326.5386" y2="-356.9143">
<stop offset="0" stop-color="#fafcef"/>
<stop offset="0.3232" stop-color="#fafcef"/>
<stop offset="1" stop-color="#d0cbc5"/>
</linearGradient>
<linearGradient gradientTransform="matrix(1,0,0,-1,-262.4805,-290.0195)" gradientUnits="userSpaceOnUse" x1="310.4473" x2="310.4473" xlink:actuate="onLoad" xlink:show="other" xlink:type="simple" y1="-369.0962" y2="-354.3545">
<stop offset="0" stop-color="#ffffff"/>
<stop offset="1" stop-color="#ffffff" stop-opacity="0"/>
</linearGradient>
<linearGradient gradientTransform="matrix(1,0,0,-1,-262.4805,-290.0195)" gradientUnits="userSpaceOnUse" x1="310.4473" x2="310.4473" xlink:actuate="onLoad" xlink:show="other" xlink:type="simple" y1="-369.0962" y2="-354.3545">
<stop offset="0" stop-color="#ffffff"/>
<stop offset="1" stop-color="#ffffff" stop-opacity="0"/>
</linearGradient>
<radialGradient cx="315.2822" cy="-310.8804" gradientTransform="matrix(1,0,0,-1,-262.4805,-290.0195)" gradientUnits="userSpaceOnUse" id="radialGradient3245" r="40.6428" xlink:actuate="onLoad" xlink:show="other" xlink:type="simple">
<stop offset="0" stop-color="#fafcef"/>
<stop offset="0.3232" stop-color="#fafcef"/>
<stop offset="1" stop-color="#d0cbc5"/>
</radialGradient>
<radialGradient cx="316.4395" cy="-320.1919" gradientTransform="matrix(1,0,0,-1,-262.4805,-290.0195)" gradientUnits="userSpaceOnUse" id="radialGradient3248" r="12.3654" xlink:actuate="onLoad" xlink:show="other" xlink:type="simple">
<stop offset="0" stop-color="#fafcef"/>
<stop offset="0.3232" stop-color="#fafcef"/>
<stop offset="1" stop-color="#d0cbc5"/>
</radialGradient>
<linearGradient gradientTransform="matrix(1,0,0,-1,-262.4805,-290.0195)" gradientUnits="userSpaceOnUse" id="linearGradient3251" x1="310.457" x2="310.457" xlink:actuate="onLoad" xlink:show="other" xlink:type="simple" y1="-298.2734" y2="-377.5185">
<stop offset="0" stop-color="#ffffff"/>
<stop offset="1" stop-color="#ffffff" stop-opacity="0"/>
</linearGradient>
<linearGradient gradientUnits="userSpaceOnUse" id="linearGradient3958" x1="47.457626" x2="47.457626" y1="8.9491529" y2="88.679474">
<stop offset="0" stop-color="#005ac9" stop-opacity="1"/>
<stop offset="1" stop-color="#004bb0" stop-opacity="1"/>
</linearGradient>
</defs>
<path d="M 88.0 49.0 C 88.0 78.633 77.637 89.0 48.0 89.0 C 18.365 89.0 8.0 78.633 8.0 49.0 C 8.0 19.365 18.365 9.0 48.0 9.0 C 77.637 9.0 88.0 19.365 88.0 49.0 z " fill-opacity="0.4" stroke-opacity="0.4"/>
<path d="M 88.0 48.0 C 88.0 77.633 77.637 88.0 48.0 88.0 C 18.365 88.0 8.0 77.633 8.0 48.0 C 8.0 18.365 18.365 8.0 48.0 8.0 C 77.637 8.0 88.0 18.365 88.0 48.0 z " fill="url(#linearGradient3958)" fill-opacity="1.0"/>
<rect fill="none" height="96" width="96" x="0" y="0"/>
<path d="M 47.977 8.0 C 18.359 8.0 8.0 18.365 8.0 48.0 C 8.0 77.633 18.359 88.0 47.977 88.0 C 77.596 88.0 87.954 77.633 87.954 48.0 C 87.953 18.365 77.596 8.0 47.977 8.0 z M 47.977 87.0 C 18.836 87.0 9.0 77.158 9.0 48.0 C 9.0 18.842 18.836 9.0 47.977 9.0 C 77.11801 9.0 86.955 18.842 86.955 48.0 C 86.955 77.158005 77.117004 87.0 47.977 87.0 z " fill="url(#linearGradient3251)" fill-opacity="0.25" stroke-opacity="0.25"/>
<path d="M 64.057 38.217 L 63.428 37.596 L 63.448997 37.016 L 64.377 36.086 L 66.602 36.086 L 68.123 37.606 L 68.123 38.217 L 64.057 38.217 z M 53.217 33.229 L 53.008 33.229 L 52.572 33.667 L 52.572 34.147 L 54.08 34.147 L 54.496 33.731 L 54.496 33.27 L 53.392 32.168 L 53.681 31.875 L 53.681 31.529 L 52.933 31.529 L 53.302 31.164 L 52.754 31.164 L 52.395996 31.498 L 52.395996 32.068 L 53.214996 32.886 L 53.216995 33.229 L 53.216995 33.229 z M 52.11499 33.549 L 52.11499 33.209 L 52.337994 32.986 L 52.337994 32.455 L 51.837994 32.455 L 51.372993 32.84 L 51.372993 33.186 L 50.977993 33.584 L 50.977993 34.01 L 51.65399 34.01 L 52.11499 33.549 z " fill="url(#radialGradient3248)"/>
<path d="M 50.553 23.043 L 41.715 23.043 L 40.649 24.113 L 38.19 24.113 L 38.19 25.273 L 40.649 25.273 L 40.649 27.016998 L 41.879 27.016998 L 41.168 27.728 L 40.328 27.728 L 40.328 30.716 L 41.698997 30.716 L 43.24 29.181 L 44.303997 29.181 L 46.928997 26.564 L 47.895996 26.564 L 51.071995 23.398 L 50.552994 23.043 z " fill="url(#radialGradient3245)"/>
<path d="M 48.0 82.0 C 30.355 82.0 16.0 67.643 16.0 49.994 C 16.0 32.353 30.355 18.0 48.0 18.0 C 65.645 18.0 80.0 32.353 80.0 49.994 C 80.0 67.643 65.645 82.0 48.0 82.0 L 48.0 82.0 z " fill-opacity="0.02000002" stroke-opacity="0.02000002"/>
<path d="M 48.0 81.0 C 30.906 81.0 17.0 67.091 17.0 49.994 C 17.0 32.904 30.906 19.0 48.0 19.0 C 65.094 19.0 79.0 32.904 79.0 49.994 C 79.0 67.091 65.094 81.0 48.0 81.0 L 48.0 81.0 z " fill-opacity="0.02000002" stroke-opacity="0.02000002"/>
<path d="M 48.0 80.0 C 31.458 80.0 18.0 66.539 18.0 49.994 C 18.0 33.455 31.458 20.0 48.0 20.0 C 64.542 20.0 78.0 33.455 78.0 49.994 C 78.0 66.539 64.542 80.0 48.0 80.0 L 48.0 80.0 z " fill-opacity="0.05" stroke-opacity="0.05"/>
<path d="M 48.0 79.0 C 32.01 79.0 19.0 65.988 19.0 49.994 C 19.0 34.007 32.01 21.0 48.0 21.0 C 63.99 21.0 77.0 34.007 77.0 49.994 C 77.0 65.988 63.99 79.0 48.0 79.0 L 48.0 79.0 z " fill-opacity="0.05" stroke-opacity="0.05"/>
<path d="M 48.0 78.0 C 32.561 78.0 20.0 65.437 20.0 49.994 C 20.0 34.558 32.561 22.0 48.0 22.0 C 63.439 22.0 76.0 34.558 76.0 49.994 C 76.0 65.438 63.439 78.0 48.0 78.0 L 48.0 78.0 z " fill-opacity="0.15" stroke-opacity="0.15"/>
<path d="M 75.0 49.994 C 75.0 64.912 62.916 77.0 48.0 77.0 C 33.09 77.0 21.0 64.912 21.0 49.994 C 21.0 35.087 33.09 23.0 48.0 23.0 C 62.916 23.0 75.0 35.087 75.0 49.994 z " fill-opacity="0.15" stroke-opacity="0.15"/>
<path d="M 75.0 47.994 C 75.0 62.912 62.916 75.0 48.0 75.0 C 33.09 75.0 21.0 62.912 21.0 47.994 C 21.0 33.087 33.09 21.0 48.0 21.0 C 62.916 21.0 75.0 33.087 75.0 47.994 z " fill="#0088dd" fill-opacity="1"/>
<path d="M 58.721 33.029 C 58.7 33.05 58.809 33.062 58.989 33.068 L 58.594 32.673 C 58.688004 32.823 58.766003 32.98 58.721 33.029 z "/>
<polygon points="32.551,28.581 33.119,28.01 32.426,28.01 32.439,27.996 31.992,27.996 31.455,28.534 31.498,28.581 "/>
<polygon points="71.721,43.996 72.982,45.259 73.23,45.259 71.848,43.87 "/>
<path d="M 72.803 38.395 C 72.957 38.75 73.106 39.107 73.242004 39.47 L 73.242004 38.833 L 72.803 38.395 z "/>
<path d="M 60.459 33.053 C 60.865 33.041 61.182 33.030003 61.182 33.030003 L 62.53 31.684002 L 61.272 31.684002 L 61.272 30.737 L 61.272 30.725002 L 61.272 30.004002 L 60.705 30.573002 L 60.705 31.862 L 60.705 32.809002 L 60.459 33.053 z "/>
<polygon points="25.818,52.497 25.018,52.497 24.158,51.641 24.158,51.775 25.076,52.693 25.818,52.693 "/>
<rect height="0.70700002" width="0.72500002" x="53.626999" y="35.647999"/>
<polygon points="63.004,30.736 61.271,30.736 61.271,31.684 62.529,31.684 63.004,31.212 "/>
<path d="M 70.498 49.666 L 68.06 47.228 L 68.06 48.175 L 70.498 50.613 L 72.209 50.613 L 74.945 47.884 C 74.933 47.579 74.924 47.272 74.91 46.967 L 72.20901 49.666 L 70.49801 49.666 z "/>
<path d="M 58.381 32.369 C 58.381 32.369 58.494 32.516 58.594 32.674 L 58.989 33.069 C 59.340004 33.08 59.965004 33.067 60.461 33.053 L 60.705 32.81 L 60.705 31.863 L 60.138 32.426003 L 59.297 32.426003 L 58.463 31.595 L 56.85 31.595 L 56.85 32.543 L 57.305 32.543 L 57.479 32.37 L 58.381 32.369 L 58.381 32.369 z "/>
<polygon points="68.967,38.274 68.967,37.666 67.459,36.155 65.25,36.155 64.328,37.08 64.309,37.656 64.504,37.851 65.25,37.103 67.459,37.103 68.627,38.274 "/>
<polygon points="53.555,32.359 53.357,32.542 53.357,33.109 53.764,33.517 53.965,33.314 54.172,33.314 54.172,32.975 "/>
<polygon points="65.447,28.472 65.307,28.332 64.617,28.307 65.188,28.876 65.447,28.876 "/>
<polygon points="61.768,28.56 60.703,29.623 60.703,30.573 61.271,30.004 61.271,29.775 62.488,28.56 "/>
<path d="M 72.803 38.395 L 72.008 37.6 L 71.612 37.6 L 71.612 38.150997 L 73.244 39.782997 L 73.244 39.47 C 73.105 39.107 72.957 38.75 72.803 38.395 z "/>
<polygon points="52.342,34.22 51.951,34.616 51.951,35.041 52.621,35.041 53.078,34.583 53.078,34.245 53.299,34.021 53.299,33.495 53.078,33.495 53.078,33.633 52.621,34.091 52.342,34.091 "/>
<path d="M 70.029 37.035 L 70.494 37.514 L 71.398 36.61 L 71.996 36.61 C 71.828 36.283 71.633 35.976 71.452995 35.66 L 71.398 35.66 L 70.02899 37.035 z "/>
<path d="M 71.848 42.922 L 71.248 43.522 L 71.721 43.996 L 71.848 43.87 L 73.231 45.259 L 74.71 45.259 C 74.68 45.006 74.626 44.759 74.583 44.509 L 73.43 44.509 L 71.848 42.921997 z "/>
<rect height="0.94800001" width="0.87900001" x="67.181999" y="43.502998"/>
<polygon points="59.793,58.756 59.793,57.807 58.207,56.223 58.207,57.169 "/>
<polygon points="49.299,51.73 51.912,54.346 58.207,54.346 58.207,53.396 51.912,53.396 49.299,50.783 "/>
<polygon points="69.109,61.732 67.041,63.803 67.041,64.75 69.109,62.68 "/>
<polygon points="56.098,38.151 58.123,38.151 59.879,39.907 60.605,39.181 60.131,38.707 59.879,38.959 58.123,37.204 56.098,37.204 56.098,37.965 54.051,40.012 52.619,40.012 52.123,39.517 52.123,40.466 52.506,40.851 52.982,40.375 54.635,40.375 56.098,38.915 "/>
<polygon points="62.92,39.783 62.92,39.224 63.561,39.224 65.422,41.084 67.029,41.084 67.029,40.136 65.422,40.136 63.561,38.274 62.92,38.274 62.92,38.833 61.398,38.833 61.398,37.996 60.004,36.606 58.98,36.606 59.928,37.556 60.004,37.556 61.398,38.944 61.398,39.783 "/>
<polygon points="73.168,52.938 69.109,56.992 69.109,57.941 73.168,53.889 "/>
<polygon points="55.441,34.303 55.197,34.059 55.027,34.228 54.172,34.228 54.172,34.262 53.965,34.262 53.531,34.699 53.531,35.177 53.627,35.177 53.627,34.699 55.146,34.699 55.441,34.404 "/>
<polygon points="59.793,69.295 61.271,70.771 62.406,70.771 64.609,69.186 67.041,66.904 67.041,65.957 63.176,69.82 61.271,69.82 59.793,68.346 "/>
<polygon points="27.752,40.46 26.125,42.089 26.125,43.037 27.752,41.41 28.824,41.41 32.039,38.194 33.922,38.194 34.438,37.682 34.438,36.734 33.922,37.245 32.039,37.245 28.824,40.46 "/>
<polygon points="25.299,59.495 25.299,60.443 27.924,63.07 28.664,63.07 30.047,64.451 30.047,63.503 28.664,62.12 27.924,62.12 "/>
<path d="M 25.076 52.693 L 24.158 51.775 L 24.158 51.64 L 22.056002 49.54 L 21.372 49.54 L 21.063 49.229 C 21.053 49.053 21.042 48.88 21.028 48.708 L 21.01 48.708 C 21.01 48.785 20.998 48.862 20.998 48.94 C 20.998 49.358 21.043 49.761997 21.062 50.176 L 21.371 50.487 L 22.055 50.487 L 25.016 53.442 L 25.817 53.442 L 25.817 52.69 L 25.076002 52.69 L 25.076002 52.692997 z "/>
<polygon points="34.438,35.105 34.438,35.631 36.539,35.631 37.232,34.944 37.232,34.458 37,34.226 36.539,34.682 33.879,34.682 33.879,35.105 "/>
<polygon points="36.533,30.051 35.766,30.051 34.998,29.285 34.605,29.285 34.605,29.845 35.766,30.998 35.93,30.998 36.428,30.501 36.428,30.998 36.533,30.998 37.221,30.313 37.221,29.565 38.398,29.565 38.893,29.068 38.418,28.594 38.398,28.616 37.221,28.616 37.221,29.365 "/>
<polygon points="35.891,25.231 35.453,25.676 36.449,25.676 36.951,26.181 37.498,26.181 38.506,25.175 38.975,24.717 39.254,24.717 39.254,24.299 38.432,24.299 37.498,25.231 "/>
<polygon points="41.674,58.578 39.727,60.525 39.727,61.475 41.674,59.527 "/>
<rect height="0.94800001" width="0.55299997" x="25.572001" y="44.443001"/>
<polygon points="38.803,65.352 39.727,65.352 39.727,64.404 38.803,64.404 37.049,66.159 37.049,67.107 "/>
<path d="M 34.992 25.645 L 34.433 25.645 C 34.263 25.744 34.093 25.845 33.925 25.948 L 34.693 25.948 L 34.992 25.645 z "/>
<polygon points="31.498,28.581 31.455,28.534 30.795,29.196 30.021,29.196 27.816,31.4 27.816,31.94 28.227,31.94 30.021,30.144 30.795,30.144 31.992,28.944 33.023,28.944 34.053,27.917 35.035,27.917 35.455,28.336 35.592,28.336 35.996,27.932 35.035,26.967 34.053,26.967 33.023,27.996 32.439,27.996 32.426,28.01 33.119,28.01 32.551,28.581 "/>
<path d="M 25.055 42.688 L 22.016 42.688 L 21.682 43.022 C 21.594002 43.414 21.512 43.81 21.442 44.21 L 22.016 43.635 L 25.055 43.635 L 25.573 44.15 L 25.573 43.203 L 25.055 42.688 z "/>
<polygon points="37.049,68.088 35.166,69.969 35.166,70.918 37.049,69.035 "/>
<polygon points="48.891,26.689 47.93,26.689 45.324,29.291 44.268,29.291 42.738,30.817 41.377,30.817 41.377,31.766 42.738,31.766 44.268,30.239 45.324,30.239 47.93,27.639 48.891,27.639 52.043,24.491 51.527,24.136 51.447,24.136 "/>
<rect height="0.949" width="2.441" x="39.254002" y="25.406"/>
<polygon points="41.695,27.847 42.211,27.847 42.916,27.14 41.695,27.14 "/>
<path d="M 51.951 34.091 L 52.621 34.091 L 53.078 33.633 L 53.078 33.295 L 53.299 33.073997 L 53.299 32.545998 L 52.803 32.545998 L 52.342003 32.927998 L 52.342003 33.272 L 51.951004 33.668 L 51.951004 34.091 z M 54.172005 33.314 L 53.965004 33.314 L 53.53101 33.75 L 53.53101 34.228 L 55.027004 34.228 L 55.44101 33.814 L 55.44101 33.356 L 54.345005 32.260998 L 54.631004 31.968998 L 54.631004 31.625 L 53.89 31.625 L 54.254 31.262 L 53.712997 31.262 L 53.357 31.594 L 53.357 32.161 L 54.17 32.974 L 54.171997 33.314 L 54.171997 33.314 z M 25.054996 42.688 L 25.572996 43.203 L 25.572996 44.444 L 26.125996 44.444 L 26.125996 42.09 L 27.752996 40.461 L 28.824997 40.461 L 32.039997 37.246 L 33.922997 37.246 L 34.438995 36.736 L 34.438995 35.107 L 33.88 35.107 L 33.88 34.684 L 36.54 34.684 L 37.233 33.996 L 37.233 33.512997 L 36.428 32.708996 L 36.428 30.502996 L 35.549 31.380997 L 34.65 31.380997 L 34.65 30.14 L 33.322002 30.14 L 32.338 31.126 L 31.801 31.126 L 31.801 32.732 L 30.367 34.167 L 30.367 32.841 L 29.213 32.841 L 29.213 31.94 L 27.817 31.94 L 27.817 31.4 L 30.022 29.196 L 30.795 29.196 L 31.992 27.995998 L 33.023 27.995998 L 34.052 26.967 L 35.033997 26.967 L 35.994995 27.932 L 35.590996 28.336 L 34.604996 28.336 L 34.604996 28.895998 L 35.764996 30.051 L 36.532997 30.051 L 37.220997 29.364998 L 37.220997 28.614998 L 38.399 28.614998 L 38.893 28.117 L 36.449997 25.675 L 35.454 25.675 L 35.892 25.231 L 37.498997 25.231 L 38.506996 24.227 L 38.976 23.768 L 40.830997 23.768 L 41.247 23.351 L 37.018 23.351 C 35.728996 23.926 34.495 24.596 33.322998 25.359 L 33.322998 25.644 L 34.992996 25.644 L 34.693996 25.947 L 33.543995 25.947 L 32.426994 27.06 L 33.119995 27.06 L 32.551994 27.63 L 31.498997 27.63 L 31.071997 27.2 L 31.696997 26.575 L 31.614994 26.575 C 26.366993 30.596 22.643991 36.485 21.440994 43.261 L 22.014994 42.688 L 25.054993 42.688 z M 67.18199 47.505 L 67.18199 43.503 L 68.06099 43.503 L 68.06099 47.228 L 70.49899 49.666 L 72.20999 49.666 L 74.94499 46.934 C 74.924995 46.375 74.91699 45.809 74.85899 45.259003 L 72.982 45.259003 L 71.24899 43.523003 L 71.84999 42.923004 L 73.43199 44.509003 L 74.746994 44.509003 C 74.368 41.558 73.508995 38.768 72.257 36.196003 L 72.257 36.65 L 71.61099 36.65 L 71.61099 37.204 L 73.243 38.833004 L 73.243 39.903004 L 71.868 39.903004 L 71.398 39.439003 L 71.398 38.447 L 70.02899 37.035004 L 71.398 35.660004 L 71.996994 35.660004 C 70.548 32.843002 68.618 30.330004 66.313995 28.202003 L 65.635994 28.876003 L 65.187 28.876003 L 64.618 28.307005 L 65.447 28.336002 L 65.447 27.523005 L 64.951996 27.034002 L 59.965996 27.034002 L 56.851997 30.148005 L 56.851997 31.595003 L 58.462 31.595003 L 59.296 32.426003 L 60.136997 32.426003 L 60.704 31.863005 L 60.704 29.624002 L 61.767 28.561005 L 62.488 28.561005 L 61.271 29.776005 L 61.271 30.737003 L 63.003 30.737003 L 63.003 31.213003 L 61.181 33.030003 C 61.181 33.030003 58.62 33.127003 58.72 33.030003 C 58.816 32.931004 58.38 32.370003 58.38 32.370003 L 57.478 32.370003 L 55.146 34.700005 L 53.626 34.700005 L 53.626 35.407005 L 54.351 35.407005 L 54.351 37.376007 L 52.122 37.376007 L 52.122 39.518005 L 52.617996 40.013004 L 54.049995 40.013004 L 56.096996 37.966003 L 56.096996 37.205 L 58.122 37.205 L 59.878 38.960003 L 60.605 38.234 L 58.98 36.607 L 60.003 36.607 L 61.398 37.997 L 61.398 38.834003 L 62.919 38.834003 L 62.919 38.275 L 63.56 38.275 L 65.421 40.136 L 67.028 40.136 L 67.028 41.531 L 66.044 42.515003 L 62.745 42.515003 L 62.745 41.659004 L 58.677 41.659004 L 58.677 40.376003 L 52.982 40.376003 L 49.297997 44.060005 L 49.297997 50.785004 L 51.910995 53.398003 L 58.205994 53.398003 L 58.205994 56.222004 L 59.791992 57.806004 L 59.791992 68.347 L 61.270992 69.822 L 63.17499 69.822 L 67.03999 65.959 L 67.03999 63.805 L 69.107994 61.735 L 69.107994 56.996 L 73.16699 52.94 L 73.16699 50.658 L 70.32499 50.658 L 67.18199 47.505 z M 64.93199 38.274 L 64.30899 37.656 L 64.329994 37.079 L 65.25199 36.155003 L 67.46099 36.155003 L 68.968994 37.666004 L 68.968994 38.27401 L 64.932 38.27401 z M 37.99 55.794 L 37.99 54.889 L 35.77 54.889 L 31.909 51.028 L 27.444 51.028 L 26.727 51.748 L 25.077002 51.748 L 24.159 50.827 L 24.159 48.6 L 23.17 48.6 L 23.17 46.896 L 22.539 46.896 L 21.672 47.762 L 21.012 47.762 C 21.012 47.842003 21.0 47.917 21.0 47.995003 C 21.0 48.414 21.045 48.816 21.064 49.232 L 21.373 49.543003 L 22.057 49.543003 L 25.018 52.498 L 25.819 52.498 L 25.819 54.673 L 25.299 55.197 L 25.299 59.496 L 27.924 62.121 L 28.664 62.121 L 30.047 63.504 L 30.047 68.127 C 31.324 69.27 32.709 70.288 34.19 71.176 L 35.167 71.176 L 35.167 69.971 L 37.05 68.089 L 37.05 66.16 L 38.804 64.40401 L 39.728 64.40401 L 39.728 60.527008 L 41.675 58.57901 L 41.675 56.714 L 38.91 56.714 L 37.99 55.794003 z M 51.527 23.188 L 42.754 23.188 L 41.695 24.252 L 39.254 24.252 L 39.254 25.405998 L 41.695 25.405998 L 41.695 27.138998 L 42.916 27.138998 L 42.211 27.846 L 41.377 27.846 L 41.377 30.817 L 42.738 30.817 L 44.267 29.291 L 45.323997 29.291 L 47.928997 26.689 L 48.889996 26.689 L 52.040997 23.542002 L 51.526997 23.188002 z " fill="#ffffff" fill-opacity="1"/>
<path d="M 54.172 33.2 L 54.352 33.2 L 54.352 32.266 L 54.346 32.260998 L 54.352 32.254997 L 54.352 31.625998 L 53.891003 31.625998 L 54.256004 31.262997 L 53.715004 31.262997 L 53.35801 31.594995 L 53.35801 32.162 L 54.172005 32.975 L 54.172005 33.2 z M 53.299004 33.074 L 53.299004 32.546 L 52.803005 32.546 L 52.342007 32.928 L 52.342007 33.2 L 53.173008 33.2 L 53.299007 33.074 z M 39.254 25.406 L 41.377003 25.406 L 41.377003 24.252 L 39.254 24.252 L 39.254 25.406 z M 38.291 24.441 L 37.221 24.441 L 37.221 25.191 L 37.18 25.232 L 37.498 25.232 L 38.291 24.441 z M 70.189 32.699 L 70.029 32.86 L 70.92 33.778 C 70.688995 33.409 70.438 33.056 70.188995 32.699 z M 74.05299 41.084 C 73.98899 40.834 73.93399 40.58 73.86199 40.334 L 73.43 40.334 L 73.0 39.903 L 71.867 39.903 L 71.398 39.439 L 71.398 39.197 L 71.24799 39.347 L 72.982 41.083 L 74.05299 41.084 L 74.05299 41.084 z M 71.996 35.66 C 71.81 35.302 71.598 34.963 71.398 34.615 L 71.398 35.264 L 71.796005 35.66 L 71.996 35.66 z M 73.43 44.509 L 74.746 44.509 C 74.687 44.061 74.6 43.625 74.519 43.184 L 73.31 44.391 L 73.43 44.509 z M 35.802 23.951 C 35.661 24.022 35.516 24.087 35.377 24.161 L 35.592 24.161 L 35.802 23.951 z M 68.967 34.1 L 68.967 33.492 L 67.459 31.981 L 65.25 31.981 L 64.328 32.905003 L 64.30801 33.482002 L 64.93101 34.1 L 68.96701 34.1 z M 58.721 28.854 C 58.621 28.951 61.182 28.854 61.182 28.854 L 63.004 27.037 L 63.004 27.033 L 60.703 27.033 L 60.703 27.687 L 60.135 28.25 L 59.295 28.25 L 59.022 27.977 L 58.557 28.442 C 58.664 28.606 58.773 28.799 58.721 28.854 z M 38.975 23.769 L 40.83 23.769 L 41.246 23.352 L 38.301 23.352 L 38.844997 23.896 L 38.975 23.769 z M 59.793 57.807 L 59.793 53.631 L 58.207 52.047 L 58.207 49.223 L 51.912003 49.223 L 49.299004 46.609 L 49.299004 50.784 L 51.912003 53.396 L 58.207 53.396 L 58.207 56.222 L 59.793 57.807 z M 51.951 34.091 L 52.123 34.091 L 52.123 33.493 L 51.951 33.667 L 51.951 34.091 z M 67.041 61.782 L 63.176 65.645996 L 61.272 65.645996 L 59.793 64.169 L 59.793 68.345 L 61.272 69.82 L 63.176 69.82 L 67.041 65.957 L 67.041 63.803 L 69.109 61.733 L 69.109 57.559 L 67.041 59.627003 L 67.041 61.782 z M 74.945 46.934 C 74.924 46.375 74.916 45.809 74.859 45.259003 L 72.982 45.259003 L 72.711 44.988003 L 72.207 45.491 L 70.496 45.491 L 68.058 43.053 L 68.058 39.328 L 67.18 39.328 L 67.18 43.33 L 67.35401 43.503 L 68.059006 43.503 L 68.059006 44.211 L 70.32601 46.48 L 73.16801 46.48 L 73.16801 48.709 L 74.94501 46.934 z M 69.10901 52.816 L 69.10901 56.991997 L 73.16801 52.936996 L 73.16801 50.653996 L 71.27501 50.653996 L 69.10901 52.81599 z M 51.527 23.188 L 49.0 23.188 L 47.0 26.0 L 44.268 26.0 L 42.739 26.643 L 41.696003 26.643 L 41.696003 27.14 L 42.917004 27.14 L 42.212 27.847 L 41.378 27.847 L 41.378 30.818 L 42.739 30.818 L 44.268 29.292 L 45.325 29.292 L 47.93 26.69 L 48.89 26.69 L 52.042 23.543 L 51.527 23.188002 z M 30.367 29.196 L 30.795 29.196 L 31.801 28.188002 L 31.801 27.631 L 31.498 27.631 L 31.072 27.2 L 31.697 26.575 L 31.615 26.575 C 30.771 27.221 29.972 27.92 29.213 28.659 L 29.213 28.664 L 30.367 28.664 L 30.367 29.196 z M 34.693 25.948 L 33.543 25.948 L 33.527 25.963 L 34.65 25.963 L 34.65 26.967 L 35.035 26.967 L 35.271 27.204 L 35.548 27.204 L 36.427 26.325998 L 36.427 28.531998 L 37.22 29.323996 L 37.22 28.615995 L 38.398003 28.615995 L 38.892 28.117998 L 36.591003 25.818 L 36.532005 25.876 L 35.764004 25.876 L 35.563004 25.676 L 35.452003 25.676 L 35.507004 25.62 L 34.605003 24.721 L 34.605003 24.595 C 34.172005 24.843 33.739 25.088 33.322002 25.36 L 33.322002 25.645 L 34.992 25.645 L 34.693 25.947998 z M 25.055 42.687996 L 25.573 43.202995 L 25.573 44.443996 L 26.126 44.443996 L 26.126 42.09 L 27.753 40.461 L 28.825 40.461 L 32.04 37.246 L 33.923 37.246 L 34.439 36.736 L 34.439 35.107 L 33.88 35.107 L 33.88 34.684 L 36.54 34.684 L 37.233 33.996 L 37.233 33.512997 L 36.428 32.708996 L 36.428 30.508995 L 36.422 30.508995 L 35.549 31.380997 L 34.65 31.380997 L 34.65 30.508995 L 33.879 30.508995 L 33.879 30.931995 L 34.438004 30.931995 L 34.438004 32.560997 L 33.922005 33.070995 L 32.039005 33.070995 L 28.824003 36.285995 L 27.752005 36.285995 L 26.125004 37.914997 L 26.125004 40.268997 L 25.572004 40.268997 L 25.572004 39.027996 L 25.054005 38.512997 L 22.745005 38.512997 C 22.173004 40.034996 21.731005 41.621 21.440004 43.261 L 22.014004 42.687996 L 25.055004 42.687996 z M 39.727005 60.228996 L 38.803005 60.228996 L 37.049004 61.984997 L 37.049004 63.913 L 35.166004 65.795 L 35.166004 67.0 L 34.189003 67.0 C 32.709003 66.111 31.324003 65.094 30.046003 63.951 L 30.046003 68.126 C 31.323004 69.268 32.708004 70.287 34.189003 71.175 L 35.166004 71.175 L 35.166004 69.969 L 37.049004 68.088005 L 37.049004 66.159004 L 38.803005 64.40401 L 39.727005 64.40401 L 39.727005 60.525005 L 41.674004 58.578007 L 41.674004 56.713005 L 39.727005 56.713005 L 39.727005 60.229004 z M 30.047005 59.328003 L 28.664003 57.945004 L 27.924006 57.945004 L 25.299 55.32 L 25.299 59.495 L 27.924 62.12 L 28.664 62.12 L 30.047 63.503 L 30.047 59.328 z M 25.299 51.746 L 25.076 51.746 L 24.158 50.825 L 24.158 48.597 L 23.17 48.597 L 23.17 46.894 L 22.539 46.894 L 21.672 47.76 L 21.012 47.76 C 21.012 47.840004 21.0 47.915 21.0 47.993004 C 21.0 48.412003 21.045 48.813004 21.064 49.229004 L 21.373 49.541004 L 22.057 49.541004 L 25.018 52.496 L 25.299 52.496 L 25.299 51.746 z " fill-opacity="0.02000002" stroke-opacity="0.02000002"/>
<path d="M 34.328 70.675 C 32.987 69.862 31.717 68.93 30.547 67.901 L 30.547 65.041 C 31.61 65.918 32.745003 66.72 33.933 67.431 C 34.01 67.478 34.099003 67.502 34.19 67.502 L 35.167004 67.502 C 35.443005 67.502 35.667004 67.278 35.667004 67.002 L 35.667004 66.003 L 37.403004 64.269 C 37.497005 64.173996 37.549004 64.047 37.549004 63.914997 L 37.549004 62.192997 L 39.01 60.732 L 39.227 60.732 L 39.227 63.906 L 38.803 63.906 C 38.67 63.906 38.543003 63.96 38.449 64.052 L 36.695 65.808 C 36.601 65.902 36.549 66.029 36.549 66.161995 L 36.549 67.884 L 34.813 69.618 C 34.719 69.712 34.667 69.839 34.667 69.97199 L 34.667 70.676994 L 34.328 70.674995 L 34.328 70.674995 z M 61.479 69.32 L 60.293 68.138 L 60.293 65.375 L 60.918 66.0 C 61.012 66.094 61.139 66.146 61.272 66.146 L 63.176 66.146 C 63.309 66.146 63.435997 66.093 63.53 66.0 L 67.395 62.137 C 67.489 62.042 67.541 61.915 67.541 61.783 L 67.541 59.835 L 68.609 58.767 L 68.609 61.526997 L 66.687004 63.450996 C 66.592 63.545 66.541 63.672997 66.541 63.804996 L 66.541 65.753 L 62.969 69.324 L 61.479 69.324 L 61.479 69.32 z M 29.018 61.768 C 28.924 61.673 28.797 61.622 28.664 61.622 L 28.131 61.622 L 25.799 59.29 L 25.799 56.528 L 27.57 58.299 C 27.664 58.393 27.791 58.445 27.924 58.445 L 28.457 58.445 L 29.547 59.535 L 29.547 62.296 L 29.018002 61.768 z M 40.227 57.213 L 41.174 57.213 L 41.174 58.371 L 40.227 59.318 L 40.227 57.213 z M 58.707 56.014 L 58.707 53.397 C 58.707 53.335 58.695 53.278 58.676003 53.223 L 59.293003 53.838 L 59.293003 56.6 L 58.707005 56.014 z M 69.60901 53.025 L 71.48201 51.154003 L 72.66801 51.154003 L 72.66801 52.730003 L 69.60901 55.786003 L 69.60901 53.025 z M 58.382 52.928 C 58.327 52.908 58.27 52.897003 58.207 52.897003 L 52.119 52.897003 L 49.799 50.578003 L 49.799 47.817 L 51.559 49.577 C 51.653 49.671 51.78 49.723 51.913 49.723 L 57.708 49.723 L 57.708 52.047 C 57.708 52.18 57.762 52.307 57.854 52.401 L 58.382 52.928 z M 22.41 49.188 C 22.316 49.096 22.189 49.042 22.056 49.042 L 21.58 49.042 L 21.552 49.014 C 21.547 48.925 21.512 48.424 21.505 48.263 L 21.671 48.263 C 21.804 48.263 21.931 48.21 22.025 48.117 L 22.67 47.473 L 22.67 48.6 C 22.67 48.875 22.894 49.1 23.17 49.1 L 23.658 49.1 L 23.658 50.435997 L 22.41 49.188 z M 73.668 46.479 C 73.668 46.203 73.443 45.979 73.168 45.979 L 72.316 45.979 C 72.409004 45.958 72.494 45.913 72.56201 45.845 L 72.72201 45.685 C 72.79801 45.732 72.88801 45.758003 72.98201 45.758003 L 74.39801 45.758003 C 74.41701 46.056004 74.42501 46.358 74.43501 46.657 L 74.43701 46.733 L 73.66601 47.503 L 73.66801 46.479004 L 73.66801 46.479004 z M 25.407 42.333 C 25.313 42.24 25.186 42.187 25.054 42.187 L 22.166 42.187 C 22.407 41.115 22.718 40.052 23.094 39.012 L 24.848 39.012 L 25.072 39.235 L 25.072 40.268 C 25.072 40.544003 25.296 40.768 25.572 40.768 L 26.125 40.768 C 26.401 40.768 26.625 40.544003 26.625 40.268 L 26.625 38.122 L 27.959 36.786003 L 28.824 36.786003 C 28.957 36.786003 29.084 36.733 29.178 36.640003 L 32.246 33.571003 L 33.921997 33.571003 C 34.053997 33.571003 34.179996 33.519005 34.274 33.426003 L 34.789997 32.916004 C 34.885 32.822002 34.937996 32.694004 34.937996 32.561005 L 34.937996 31.88 L 35.548996 31.88 C 35.681995 31.88 35.80899 31.827 35.902996 31.734 L 35.928 31.709 L 35.928 32.709 C 35.928 32.842 35.981 32.968998 36.073997 33.063 L 36.732 33.721 L 36.732 33.788 L 36.333 34.184 L 33.879 34.184 C 33.603 34.184 33.379 34.408 33.379 34.684 L 33.379 35.107 C 33.379 35.383003 33.603 35.607 33.879 35.607 L 33.938 35.607 L 33.938 36.528004 L 33.716 36.746 L 32.039 36.746 C 31.906002 36.746 31.779 36.799004 31.685 36.893 L 28.617 39.961 L 27.752 39.961 C 27.619 39.961 27.492 40.014004 27.398 40.107 L 25.771 41.736004 C 25.677 41.83001 25.625 41.957005 25.625 42.090004 L 25.625 42.550003 L 25.407 42.333 z M 65.139 33.6 L 64.817 33.281 L 64.823 33.12 L 65.459 32.481 L 67.254 32.481 L 68.37 33.6 L 65.139 33.6 z M 41.877 30.317 L 41.877 28.346 L 42.211 28.346 C 42.344 28.346 42.470997 28.293 42.565 28.199 L 43.27 27.492 C 43.413 27.348 43.455 27.134 43.377 26.947 C 43.372997 26.937998 43.369 26.929 43.365 26.921 L 44.367 26.5 L 47.0 26.5 C 47.162 26.5 47.313 26.422 47.407 26.29 L 49.258003 23.688002 L 51.19 23.688002 L 48.684 26.189 L 47.93 26.189 C 47.797 26.189 47.67 26.242 47.576 26.335 L 45.117 28.791 L 44.267 28.791 C 44.134003 28.791 44.007004 28.844 43.913 28.937 L 42.530003 30.318 L 41.877003 30.317 L 41.877003 30.317 z M 30.823 28.46 C 30.759 28.315 30.627 28.207 30.468 28.175 C 30.622 28.037 30.777 27.903 30.932 27.77 L 31.143002 27.982998 C 31.169 28.009998 31.199 28.033998 31.23 28.052998 L 30.823002 28.459995 z M 61.055 28.042995 C 61.151 27.948996 61.203 27.820995 61.203 27.687998 L 61.203 27.533998 L 61.799 27.533998 L 60.968 28.363 C 60.900997 28.365 60.819 28.367998 60.725 28.370998 L 61.055 28.043 z M 36.928 26.861 L 38.183 28.116 L 37.221 28.116 C 37.112 28.116 37.01 28.151 36.928 28.211 L 36.928 26.860998 z M 35.39 26.614 C 35.323997 26.548 35.241 26.502 35.151 26.481 L 35.151 26.197 L 35.235 26.112 C 35.269 26.133 35.304 26.150002 35.342 26.161 L 35.413 26.231 C 35.484997 26.303 35.578 26.351002 35.678 26.369 L 35.411 26.636002 L 35.39 26.614002 z M 39.754 24.906002 L 39.754 24.752005 L 40.877 24.752005 L 40.877 24.906002 L 39.754 24.906002 z " fill="#ffffff" fill-opacity="1" stroke-opacity="0.06000001000000000"/>
</svg>
