<?xml version="1.0" encoding="UTF-8"?>
<svg xmlns="http://www.w3.org/2000/svg" xmlns:xlink="http://www.w3.org/1999/xlink" baseProfile="tiny" contentScriptType="text/ecmascript" contentStyleType="text/css" height="57px" preserveAspectRatio="xMidYMid meet" version="1.1" viewBox="0 0 67 57" width="67px" x="0px" y="0px" zoomAndPan="magnify">
<path d="M 42.526 30.0 C 42.526 28.605 41.394 27.474 40.0 27.474 L 40.0 32.527 C 41.395 32.526 42.526 31.395 42.526 30.0 z M 40.0 14.0 L 40.0 25.79 C 42.326 25.79 44.211 27.675 44.211 30.0 C 44.211 32.326 42.326 34.21 40.0 34.21 L 40.0 37.579 C 44.18 37.579 47.579 34.178997 47.579 29.999998 L 49.264 29.999998 C 49.264 35.115 45.116 39.264 40.0 39.264 L 40.0 41.79 C 46.501 41.79 51.789 36.501 51.789 30.0 L 53.474003 30.0 C 53.474003 37.44 47.441 43.474 40.000004 43.474 L 40.000004 46.0 C 48.836 46.0 56.0 38.837 56.0 30.0 C 56.0 21.163 48.836 14.0 40.0 14.0 z M 12.0 13.0 L 12.0 47.0 C 12.0 48.104 12.896 49.0 14.0 49.0 L 38.0 49.0 L 38.0 11.0 L 14.0 11.0 C 12.896 11.0 12.0 11.896 12.0 13.0 z " fill="#dedede" fill-opacity="1" stroke-opacity="0.29999999999999999"/>
<defs>
<linearGradient gradientUnits="userSpaceOnUse" x1="34" x2="34" xlink:actuate="onLoad" xlink:show="other" xlink:type="simple" y1="48" y2="10.0005">
<stop offset="0" stop-color="#d0cbc5"/>
<stop offset="0.5031" stop-color="#fafcef"/>
<stop offset="0.9693" stop-color="#ffffff"/>
<stop offset="1" stop-color="#ffffff"/>
</linearGradient>
</defs>
</svg>
