<?xml version="1.0" encoding="UTF-8"?>
<svg xmlns="http://www.w3.org/2000/svg" xmlns:xlink="http://www.w3.org/1999/xlink" baseProfile="tiny" contentScriptType="text/ecmascript" contentStyleType="text/css" height="30px" preserveAspectRatio="xMidYMid meet" version="1.1" viewBox="0 0 30 30" width="30px" x="0px" y="0px" zoomAndPan="magnify">
<defs/>
<path d="M 27.01088 15.056376 C 27.01088 21.174866 21.638369 26.134884 15.011038 26.134884 C 8.383708 26.134884 3.011196 21.174866 3.011196 15.056376 C 3.011196 8.937886 8.383708 3.97787 15.011038 3.97787 C 21.638369 3.97787 27.01088 8.937886 27.01088 15.056376 z " fill="#cecece" fill-opacity="0" fill-rule="nonzero" stroke="#7cc7fb" stroke-dasharray="none" stroke-miterlimit="4" stroke-opacity="1" stroke-width="0.83854364000000003" transform="matrix(0.91667876,0,0,0.99291362,1.2397005,0.05031878)"/>
<path d="M 21.815136 13.282702 L 17.356323 13.282702 L 15.540049 8.799517 C 15.242544 8.0663805 14.756911 8.0663805 14.459408 8.799516 L 12.643758 13.2827015 L 8.184945 13.2827015 C 7.39556 13.2827015 7.2699327 13.666456 7.9049416 14.135838 L 11.466865 16.76775 L 10.189348 21.199688 C 9.969344 21.96032 10.327476 22.2222 10.984358 21.78407 L 15.00004 19.094658 L 19.063848 21.789698 C 19.72198 22.22533 20.075731 21.962198 19.850733 21.203438 L 18.534462 16.769001 L 22.095762 14.137714 C 22.730146 13.667083 22.603895 13.282702 21.815134 13.282702 z " fill="#7cc7fb" fill-opacity="1"/>
</svg>
