<?xml version="1.0" encoding="UTF-8"?>
<svg xmlns="http://www.w3.org/2000/svg" xmlns:xlink="http://www.w3.org/1999/xlink" baseProfile="tiny" contentScriptType="text/ecmascript" contentStyleType="text/css" height="30px" preserveAspectRatio="xMidYMid meet" version="1.1" viewBox="0 0 30 30" width="30px" x="0px" y="0px" zoomAndPan="magnify">
<path d="M 5.0 25.0 C 3.346 25.0 2.0 23.654 2.0 22.0 C 2.0 20.346 3.346 19.0 5.0 19.0 L 25.0 19.0 C 26.654 19.0 28.0 20.346 28.0 22.0 C 28.0 23.654 26.654 25.0 25.0 25.0 L 5.0 25.0 z M 5.0 18.0 C 3.346 18.0 2.0 16.654 2.0 15.0 C 2.0 13.346001 3.346 12.0 5.0 12.0 L 25.0 12.0 C 26.654 12.0 28.0 13.346 28.0 15.0 C 28.0 16.654 26.654 18.0 25.0 18.0 L 5.0 18.0 z M 5.0 11.0 C 3.346 11.0 2.0 9.654 2.0 8.0 C 2.0 6.3459997 3.346 5.0 5.0 5.0 L 25.0 5.0 C 26.654 5.0 28.0 6.3459997 28.0 8.0 C 28.0 9.654 26.654 11.0 25.0 11.0 L 5.0 11.0 z " fill-opacity="0.15" stroke-opacity="0.15"/>
<path d="M 5.0 9.0 L 25.0 9.0 C 26.1 9.0 27.0 8.1 27.0 7.0 C 27.0 5.8999996 26.1 5.0 25.0 5.0 L 5.0 5.0 C 3.9 5.0 3.0 5.9 3.0 7.0 C 3.0 8.1 3.9 9.0 5.0 9.0 z M 25.0 12.0 L 5.0 12.0 C 3.9 12.0 3.0 12.9 3.0 14.0 C 3.0 15.1 3.9 16.0 5.0 16.0 L 25.0 16.0 C 26.1 16.0 27.0 15.1 27.0 14.0 C 27.0 12.9 26.1 12.0 25.0 12.0 z M 25.0 19.0 L 5.0 19.0 C 3.9 19.0 3.0 19.9 3.0 21.0 C 3.0 22.1 3.9 23.0 5.0 23.0 L 25.0 23.0 C 26.1 23.0 27.0 22.1 27.0 21.0 C 27.0 19.9 26.1 19.0 25.0 19.0 z " fill-opacity="0.3" stroke-opacity="0.3"/>
<path d="M 5.0 10.0 L 25.0 10.0 C 26.1 10.0 27.0 9.1 27.0 8.0 C 27.0 6.8999996 26.1 6.0 25.0 6.0 L 5.0 6.0 C 3.9 6.0 3.0 6.9 3.0 8.0 C 3.0 9.1 3.9 10.0 5.0 10.0 z M 25.0 13.0 L 5.0 13.0 C 3.9 13.0 3.0 13.9 3.0 15.0 C 3.0 16.1 3.9 17.0 5.0 17.0 L 25.0 17.0 C 26.1 17.0 27.0 16.1 27.0 15.0 C 27.0 13.9 26.1 13.0 25.0 13.0 z M 25.0 20.0 L 5.0 20.0 C 3.9 20.0 3.0 20.9 3.0 22.0 C 3.0 23.1 3.9 24.0 5.0 24.0 L 25.0 24.0 C 26.1 24.0 27.0 23.1 27.0 22.0 C 27.0 20.9 26.1 20.0 25.0 20.0 z " fill="#dedede"/>
<rect fill="none" height="30" width="30"/>
</svg>
