<?xml version="1.0" encoding="UTF-8"?>
<svg xmlns="http://www.w3.org/2000/svg" xmlns:xlink="http://www.w3.org/1999/xlink" baseProfile="tiny" contentScriptType="text/ecmascript" contentStyleType="text/css" height="96px" preserveAspectRatio="xMidYMid meet" version="1.1" viewBox="0 0 96 96" width="96px" x="0px" y="0px" zoomAndPan="magnify">
<path d="M 88.0 49.0 C 88.0 78.633 77.637 89.0 48.0 89.0 C 18.365 89.0 8.0 78.633 8.0 49.0 C 8.0 19.365 18.365 9.0 48.0 9.0 C 77.636 9.0 88.0 19.365 88.0 49.0 z " fill-opacity="0.4" stroke-opacity="0.4"/>
<path d="M 88.0 48.0 C 88.0 77.633 77.637 88.0 48.0 88.0 C 18.365 88.0 8.0 77.633 8.0 48.0 C 8.0 18.365 18.365 8.0 48.0 8.0 C 77.636 8.0 88.0 18.365 88.0 48.0 z " fill="url(#SVGID_1_)"/>
<rect fill="none" height="96" width="96"/>
<path d="M 47.976 8.0 C 18.359 8.0 8.0 18.365 8.0 48.0 C 8.0 77.633 18.359 88.0 47.976 88.0 C 77.595 88.0 87.953 77.633 87.953 48.0 C 87.953 18.365 77.595 8.0 47.976 8.0 z M 47.976 87.0 C 18.836 87.0 9.0 77.158 9.0 48.0 C 9.0 18.842005 18.836 9.0 47.976 9.0 C 77.117004 9.0 86.955 18.842 86.955 48.0 C 86.955 77.158005 77.117 87.0 47.976 87.0 z " fill="url(#SVGID_2_)" fill-opacity="0.25" stroke-opacity="0.25"/>
<path d="M 26.0 69.0 C 23.243 69.0 21.0 66.757 21.0 64.0 L 21.0 34.0 C 21.0 31.244 23.243 29.0 26.0 29.0 L 70.0 29.0 C 72.758 29.0 75.0 31.244 75.0 34.0 L 75.0 64.0 C 75.0 66.757 72.758 69.0 70.0 69.0 L 26.0 69.0 z " fill-opacity="0.02"/>
<path d="M 26.0 68.0 C 23.794 68.0 22.0 66.205 22.0 64.0 L 22.0 34.0 C 22.0 31.795 23.794 30.0 26.0 30.0 L 70.0 30.0 C 72.207 30.0 74.0 31.795 74.0 34.0 L 74.0 64.0 C 74.0 66.205 72.207 68.0 70.0 68.0 L 26.0 68.0 z " fill-opacity="0.05"/>
<path d="M 26.0 67.5 C 24.07 67.5 22.5 65.93 22.5 64.0 L 22.5 34.0 C 22.5 32.07 24.07 30.5 26.0 30.5 L 70.0 30.5 C 71.93 30.5 73.5 32.07 73.5 34.0 L 73.5 64.0 C 73.5 65.93 71.93 67.5 70.0 67.5 L 26.0 67.5 z " fill-opacity="0.05"/>
<path d="M 26.0 67.0 C 24.346 67.0 23.0 65.654 23.0 64.0 L 23.0 34.0 C 23.0 32.346 24.346 31.0 26.0 31.0 L 70.0 31.0 C 71.654 31.0 73.0 32.346 73.0 34.0 L 73.0 64.0 C 73.0 65.654 71.654 67.0 70.0 67.0 L 26.0 67.0 z " fill-opacity="0.1"/>
<path d="M 26.0 66.5 C 24.621 66.5 23.5 65.379 23.5 64.0 L 23.5 34.0 C 23.5 32.621 24.621 31.5 26.0 31.5 L 70.0 31.5 C 71.379 31.5 72.5 32.621 72.5 34.0 L 72.5 64.0 C 72.5 65.379 71.379 66.5 70.0 66.5 L 26.0 66.5 z " fill-opacity="0.2"/>
<path d="M 72.0 64.0 C 72.0 65.104 71.104 66.0 70.0 66.0 L 26.0 66.0 C 24.895 66.0 24.0 65.104 24.0 64.0 L 24.0 34.0 C 24.0 32.896 24.895 32.0 26.0 32.0 L 70.0 32.0 C 71.104 32.0 72.0 32.896 72.0 34.0 L 72.0 64.0 z " fill-opacity="0.3"/>
<path d="M 72.0 63.0 C 72.0 64.104 71.104 65.0 70.0 65.0 L 26.0 65.0 C 24.895 65.0 24.0 64.104 24.0 63.0 L 24.0 33.0 C 24.0 31.896 24.895 31.0 26.0 31.0 L 70.0 31.0 C 71.104 31.0 72.0 31.896 72.0 33.0 L 72.0 63.0 z " fill="url(#SVGID_3_)"/>
<radialGradient cx="48.4888" cy="44.0645" gradientUnits="userSpaceOnUse" id="SVGID_4_" r="27.0537" xlink:actuate="onLoad" xlink:show="other" xlink:type="simple">
<stop offset="0" stop-color="#a09c98"/>
<stop offset="0.2593" stop-color="#a09c98"/>
<stop offset="1" stop-color="#f4f5e9" stop-opacity="0.0714"/>
</radialGradient>
<path d="M 46.586 53.0 L 24.0 34.438 L 24.0 36.0 L 46.586 57.023003 C 47.366997 57.804 48.634 57.804 49.414 57.023003 L 72.0 36.0 L 72.0 34.438 L 49.414 53.0 C 48.634 53.781 47.367 53.781 46.586 53.0 z " fill="url(#SVGID_4_)" fill-opacity="0.6" stroke-opacity="0.6"/>
<path d="M 46.586 53.0 L 24.0 34.438 L 24.0 34.563 L 46.586 55.586 C 47.366997 56.366997 48.634 56.366997 49.414 55.586 L 72.0 34.563 L 72.0 34.439 L 49.414 53.0 C 48.634 53.781 47.367 53.781 46.586 53.0 z " fill-opacity="0.1" stroke-opacity="0.1"/>
<path d="M 70.0 59.0 L 26.0 59.0 C 24.895 59.0 24.0 58.104 24.0 57.0 L 24.0 63.0 C 24.0 64.104 24.895 65.0 26.0 65.0 L 70.0 65.0 C 71.104 65.0 72.0 64.104 72.0 63.0 L 72.0 57.0 C 72.0 58.104 71.104 59.0 70.0 59.0 z " fill="url(#SVGID_5_)" fill-opacity="0.5" stroke-opacity="0.5"/>
<path d="M 70.0 31.0 L 26.0 31.0 C 24.895 31.0 24.0 31.896 24.0 33.0 L 24.0 34.438 L 46.586 53.0 C 47.366997 53.781 48.634 53.781 49.414 53.0 L 72.0 34.438 L 72.0 33.0 C 72.0 31.896 71.104 31.0 70.0 31.0 z " fill="url(#SVGID_6_)"/>
<path d="M 46.586 53.0 L 24.0 34.438 L 46.586 54.415 C 47.366997 55.196 48.634 55.196 49.414 54.415 L 72.0 34.438 L 49.414 53.0 C 48.634 53.781 47.367 53.781 46.586 53.0 z " fill-opacity="0.3" stroke-opacity="0.3"/>
<path d="M 58.443 48.619 L 57.416 49.576 L 72.0 61.563 L 58.443 48.619 z M 24.0 61.562 L 38.584 49.577 L 37.557 48.62 L 24.0 61.562 z " fill="url(#SVGID_7_)"/>
<path d="M 82.0 75.566 L 82.0 52.0 C 82.0 49.243 79.758 47.0 77.0 47.0 L 47.0 47.0 C 44.243 47.0 42.0 49.243 42.0 52.0 L 42.0 76.0 C 42.0 78.757 44.243 81.0 47.0 81.0 L 76.954 81.0 C 78.921 79.472 80.595 77.668 82.0 75.566 z M 65.207 56.051 L 60.76 60.92 L 58.035004 58.551 C 57.752003 58.288 56.709003 57.434 55.211 57.434 C 53.717003 57.434 52.674004 58.287 52.389004 58.547997 C 52.273003 58.654995 52.164005 58.772995 52.085003 58.873997 L 51.0 60.221 L 51.0 56.0 L 65.262 56.0 C 65.242 56.018 65.224 56.034 65.207 56.051 z M 71.172 56.0 L 73.0 56.0 L 73.0 57.719 L 71.172 56.0 z " fill-opacity="0.05" stroke-opacity="0.05"/>
<path d="M 81.0 76.0 L 81.0 52.0 C 81.0 49.794 79.206 48.0 77.0 48.0 L 47.0 48.0 C 44.794 48.0 43.0 49.794 43.0 52.0 L 43.0 76.0 C 43.0 78.206 44.794 80.0 47.0 80.0 L 77.0 80.0 C 77.52 80.0 78.013 79.894 78.469 79.713 C 79.303 78.940994 80.07601 78.107994 80.792 77.214 C 80.916 76.828 81.0 76.426 81.0 76.0 z M 74.0 60.032 L 70.355 56.604 C 70.139 56.405 69.345 55.754 68.212006 55.754 C 67.08501 55.754 66.286 56.398003 65.94401 56.725 L 60.83901 62.314003 L 57.35701 59.285004 C 57.14001 59.085003 56.34401 58.433 55.21101 58.433 C 54.08101 58.433 53.28501 59.082 53.06601 59.283 C 52.99201 59.352 52.92001 59.428 52.86301 59.501 L 50.0 63.058 L 50.0 55.0 L 74.0 55.0 L 74.0 60.032 z " fill-opacity="0.05" stroke-opacity="0.05"/>
<path d="M 77.0 49.0 L 47.0 49.0 C 45.346 49.0 44.0 50.346 44.0 52.0 L 44.0 76.0 C 44.0 77.654 45.346 79.0 47.0 79.0 L 77.0 79.0 C 78.654 79.0 80.0 77.654 80.0 76.0 L 80.0 52.0 C 80.0 50.346 78.654 49.0 77.0 49.0 z M 49.0 74.0 L 49.0 73.0 C 49.0 73.553 49.448 74.0 50.0 74.0 L 49.0 74.0 z M 75.0 74.0 L 74.0 74.0 C 74.553 74.0 75.0 73.553 75.0 73.0 L 75.0 74.0 z M 75.0 62.777 C 75.0 62.502 74.887 62.238 74.686 62.048 L 69.67799 57.339 C 69.57299 57.241 69.00399 56.754 68.213 56.754 C 67.42 56.754 66.851 57.241 66.684 57.4 L 60.92 63.710003 L 56.68 60.021004 C 56.574 59.923004 56.004 59.434 55.211 59.434 C 54.42 59.434 53.85 59.922 53.744 60.02 C 53.707 60.053 53.674 60.089 53.642 60.128 L 49.220997 65.619 C 49.078 65.797 49.0 66.018 49.0 66.246 L 49.0 54.0 L 75.0 54.0 L 75.0 62.777 z " fill-opacity="0.1" stroke-opacity="0.1"/>
<path d="M 77.0 50.0 L 47.0 50.0 C 45.899 50.0 45.0 50.9 45.0 52.0 L 45.0 76.0 C 45.0 77.1 45.899 78.0 47.0 78.0 L 77.0 78.0 C 78.1 78.0 79.0 77.1 79.0 76.0 L 79.0 52.0 C 79.0 50.9 78.099 50.0 77.0 50.0 z M 76.0 75.0 L 48.0 75.0 L 48.0 53.0 L 76.0 53.0 L 76.0 75.0 z M 74.0 62.777 L 69.0 58.075 C 69.0 58.075 68.652 57.755 68.213 57.755 C 67.77 57.755 67.422 58.075 67.422 58.075 L 61.002 65.103 L 61.0 65.105 L 56.0 60.754005 C 56.0 60.754005 55.652 60.433006 55.211 60.433006 C 54.769997 60.433006 54.421997 60.754005 54.421997 60.754005 L 50.0 66.246 L 50.0 73.0 L 74.0 73.0 L 74.0 62.777 z " fill-opacity="0.1" stroke-opacity="0.1"/>
<path d="M 75.0 47.0 L 45.0 47.0 C 43.899 47.0 43.0 47.9 43.0 49.0 L 43.0 73.0 C 43.0 74.1 43.899 75.0 45.0 75.0 L 75.0 75.0 C 76.1 75.0 77.0 74.1 77.0 73.0 L 77.0 49.0 C 77.0 47.9 76.099 47.0 75.0 47.0 z M 74.0 72.0 L 46.0 72.0 L 46.0 50.0 L 74.0 50.0 L 74.0 72.0 z M 72.0 59.777 L 67.0 55.075 C 67.0 55.075 66.652 54.755 66.213 54.755 C 65.77 54.755 65.422 55.075 65.422 55.075 L 59.002 62.103 L 59.0 62.105 L 54.0 57.754 C 54.0 57.754 53.652 57.433 53.211 57.433 C 52.769997 57.433 52.421997 57.754 52.421997 57.754 L 48.0 63.246 L 48.0 70.0 L 72.0 70.0 L 72.0 59.777 z " fill-opacity="0.4" stroke-opacity="0.4"/>
<path d="M 76.0 48.0 L 46.0 48.0 C 44.899 48.0 44.0 48.9 44.0 50.0 L 44.0 74.0 C 44.0 75.1 44.899 76.0 46.0 76.0 L 76.0 76.0 C 77.1 76.0 78.0 75.1 78.0 74.0 L 78.0 50.0 C 78.0 48.9 77.099 48.0 76.0 48.0 z M 75.0 73.0 L 47.0 73.0 L 47.0 51.0 L 75.0 51.0 L 75.0 73.0 z M 73.0 60.777 L 68.0 56.075 C 68.0 56.075 67.652 55.755 67.213 55.755 C 66.77 55.755 66.422 56.075 66.422 56.075 L 60.002 63.103 L 60.0 63.105 L 55.0 58.754 C 55.0 58.754 54.652 58.433 54.211 58.433 C 53.769997 58.433 53.421997 58.754 53.421997 58.754 L 49.0 64.246 L 49.0 71.0 L 73.0 71.0 L 73.0 60.777 z " fill="url(#SVGID_8_)"/>
<path d="M 88.0 49.0 C 88.0 78.633 77.637 89.0 48.0 89.0 C 18.365 89.0 8.0 78.633 8.0 49.0 C 8.0 19.365 18.365 9.0 48.0 9.0 C 77.636 9.0 88.0 19.365 88.0 49.0 z " fill-opacity="0.4" stroke-opacity="0.4"/>
<path d="M 88.0 48.0 C 88.0 77.633 77.637 88.0 48.0 88.0 C 18.365 88.0 8.0 77.633 8.0 48.0 C 8.0 18.365 18.365 8.0 48.0 8.0 C 77.636 8.0 88.0 18.365 88.0 48.0 z " fill="url(#linearGradient3915)" fill-opacity="1"/>
<rect fill="none" height="96" width="96"/>
<path d="M 47.976 8.0 C 18.359 8.0 8.0 18.365 8.0 48.0 C 8.0 77.633 18.359 88.0 47.976 88.0 C 77.595 88.0 87.953 77.633 87.953 48.0 C 87.953 18.365 77.595 8.0 47.976 8.0 z M 47.976 87.0 C 18.836 87.0 9.0 77.158 9.0 48.0 C 9.0 18.842005 18.836 9.0 47.976 9.0 C 77.117004 9.0 86.955 18.842 86.955 48.0 C 86.955 77.158005 77.117 87.0 47.976 87.0 z " fill="url(#SVGID_2_)" fill-opacity="0.25" stroke-opacity="0.25"/>
<path d="M 26.0 69.0 C 23.243 69.0 21.0 66.757 21.0 64.0 L 21.0 34.0 C 21.0 31.244 23.243 29.0 26.0 29.0 L 70.0 29.0 C 72.758 29.0 75.0 31.244 75.0 34.0 L 75.0 64.0 C 75.0 66.757 72.758 69.0 70.0 69.0 L 26.0 69.0 z " fill-opacity="0.02"/>
<path d="M 26.0 68.0 C 23.794 68.0 22.0 66.205 22.0 64.0 L 22.0 34.0 C 22.0 31.795 23.794 30.0 26.0 30.0 L 70.0 30.0 C 72.207 30.0 74.0 31.795 74.0 34.0 L 74.0 64.0 C 74.0 66.205 72.207 68.0 70.0 68.0 L 26.0 68.0 z " fill-opacity="0.05"/>
<path d="M 26.0 67.5 C 24.07 67.5 22.5 65.93 22.5 64.0 L 22.5 34.0 C 22.5 32.07 24.07 30.5 26.0 30.5 L 70.0 30.5 C 71.93 30.5 73.5 32.07 73.5 34.0 L 73.5 64.0 C 73.5 65.93 71.93 67.5 70.0 67.5 L 26.0 67.5 z " fill-opacity="0.05"/>
<path d="M 26.0 67.0 C 24.346 67.0 23.0 65.654 23.0 64.0 L 23.0 34.0 C 23.0 32.346 24.346 31.0 26.0 31.0 L 70.0 31.0 C 71.654 31.0 73.0 32.346 73.0 34.0 L 73.0 64.0 C 73.0 65.654 71.654 67.0 70.0 67.0 L 26.0 67.0 z " fill-opacity="0.1"/>
<path d="M 26.0 66.5 C 24.621 66.5 23.5 65.379 23.5 64.0 L 23.5 34.0 C 23.5 32.621 24.621 31.5 26.0 31.5 L 70.0 31.5 C 71.379 31.5 72.5 32.621 72.5 34.0 L 72.5 64.0 C 72.5 65.379 71.379 66.5 70.0 66.5 L 26.0 66.5 z " fill-opacity="0.2"/>
<path d="M 72.0 64.0 C 72.0 65.104 71.104 66.0 70.0 66.0 L 26.0 66.0 C 24.895 66.0 24.0 65.104 24.0 64.0 L 24.0 34.0 C 24.0 32.896 24.895 32.0 26.0 32.0 L 70.0 32.0 C 71.104 32.0 72.0 32.896 72.0 34.0 L 72.0 64.0 z " fill-opacity="0.3"/>
<path d="M 72.0 63.0 C 72.0 64.104 71.104 65.0 70.0 65.0 L 26.0 65.0 C 24.895 65.0 24.0 64.104 24.0 63.0 L 24.0 33.0 C 24.0 31.896 24.895 31.0 26.0 31.0 L 70.0 31.0 C 71.104 31.0 72.0 31.896 72.0 33.0 L 72.0 63.0 z " fill="#ffffff" fill-opacity="1"/>
<radialGradient cx="48.4888" cy="44.0645" gradientUnits="userSpaceOnUse" r="27.0537" xlink:actuate="onLoad" xlink:show="other" xlink:type="simple">
<stop offset="0" stop-color="#a09c98"/>
<stop offset="0.2593" stop-color="#a09c98"/>
<stop offset="1" stop-color="#f4f5e9" stop-opacity="0.0714"/>
</radialGradient>
<path d="M 46.586 53.0 L 24.0 34.438 L 24.0 34.563 L 46.586 55.586 C 47.366997 56.366997 48.634 56.366997 49.414 55.586 L 72.0 34.563 L 72.0 34.439 L 49.414 53.0 C 48.634 53.781 47.367 53.781 46.586 53.0 z " fill-opacity="0.1" stroke-opacity="0.1"/>
<path d="M 46.586 53.0 L 24.0 34.438 L 46.586 54.415 C 47.366997 55.196 48.634 55.196 49.414 54.415 L 72.0 34.438 L 49.414 53.0 C 48.634 53.781 47.367 53.781 46.586 53.0 z " fill-opacity="0.3" stroke-opacity="0.3"/>
<linearGradient gradientUnits="userSpaceOnUse" x1="60.8335" x2="60.8335" xlink:actuate="onLoad" xlink:show="other" xlink:type="simple" y1="49" y2="75.0005">
<stop offset="0" stop-color="#00bacc"/>
<stop offset="0.2312" stop-color="#01a1bb"/>
<stop offset="0.747" stop-color="#026d98"/>
<stop offset="1" stop-color="#02598b"/>
</linearGradient>
<path d="M 76.833 73.0 C 76.833 74.104 75.937 75.0 74.833 75.0 L 46.833 75.0 C 45.729 75.0 44.833 74.104 44.833 73.0 L 44.833 51.0 C 44.833 49.896 45.729 49.0 46.833 49.0 L 74.833 49.0 C 75.937 49.0 76.833 49.896 76.833 51.0 L 76.833 73.0 z " fill="#01bdd5" fill-opacity="1"/>
<path d="M 76.0 48.0 L 46.0 48.0 C 44.899 48.0 44.0 48.9 44.0 50.0 L 44.0 74.0 C 44.0 75.1 44.899 76.0 46.0 76.0 L 76.0 76.0 C 77.1 76.0 78.0 75.1 78.0 74.0 L 78.0 50.0 C 78.0 48.9 77.099 48.0 76.0 48.0 z M 75.0 73.0 L 47.0 73.0 L 47.0 51.0 L 75.0 51.0 L 75.0 73.0 z M 73.0 60.777 L 68.0 56.075 C 68.0 56.075 67.652 55.755 67.213 55.755 C 66.77 55.755 66.422 56.075 66.422 56.075 L 60.002 63.103 L 60.0 63.105 L 55.0 58.754 C 55.0 58.754 54.652 58.433 54.211 58.433 C 53.769997 58.433 53.421997 58.754 53.421997 58.754 L 49.0 64.246 L 49.0 71.0 L 73.0 71.0 L 73.0 60.777 z " fill="#ffffff" fill-opacity="1"/>
<defs>
<linearGradient xlink:actuate="onLoad" xlink:show="other" xlink:type="simple">
<stop offset="0" stop-color="#01a0f3" stop-opacity="1"/>
<stop offset="1" stop-color="#01a0f3" stop-opacity="0"/>
</linearGradient>
<linearGradient gradientUnits="userSpaceOnUse" id="SVGID_1_" x1="47.9995" x2="47.9995" xlink:actuate="onLoad" xlink:show="other" xlink:type="simple" y1="8.5449" y2="89.2398">
<stop offset="0" stop-color="#00bacc"/>
<stop offset="0.2312" stop-color="#01a1bb"/>
<stop offset="0.747" stop-color="#026d98"/>
<stop offset="1" stop-color="#02598b"/>
</linearGradient>
<linearGradient gradientUnits="userSpaceOnUse" id="linearGradient3915" x1="47.457626" x2="47.457626" xlink:actuate="onLoad" xlink:show="other" xlink:type="simple" y1="10.576271" y2="87.068184">
<stop offset="0" stop-color="#01a0f3" stop-opacity="1"/>
<stop offset="1" stop-color="#0189f3" stop-opacity="1"/>
</linearGradient>
</defs>
<defs>
<linearGradient gradientUnits="userSpaceOnUse" id="SVGID_2_" x1="47.9761" x2="47.9761" xlink:actuate="onLoad" xlink:show="other" xlink:type="simple" y1="8.2534" y2="87.4985">
<stop offset="0" stop-color="#ffffff"/>
<stop offset="1" stop-color="#ffffff" stop-opacity="0"/>
</linearGradient>
</defs>
<defs>
<linearGradient gradientUnits="userSpaceOnUse" id="SVGID_3_" x1="47.9995" x2="47.9995" xlink:actuate="onLoad" xlink:show="other" xlink:type="simple" y1="30" y2="65.0004">
<stop offset="0" stop-color="#fafcef"/>
<stop offset="1" stop-color="#d0cbc5"/>
</linearGradient>
</defs>
<defs>
<linearGradient gradientUnits="userSpaceOnUse" id="SVGID_5_" x1="47.9995" x2="47.9995" xlink:actuate="onLoad" xlink:show="other" xlink:type="simple" y1="56.7646" y2="64.9999">
<stop offset="0" stop-color="#f4f5e9" stop-opacity="0.0714"/>
<stop offset="0.7939" stop-color="#a09c98"/>
<stop offset="1" stop-color="#a09c98"/>
</linearGradient>
</defs>
<defs>
<linearGradient gradientUnits="userSpaceOnUse" id="SVGID_6_" x1="47.9995" x2="47.9995" xlink:actuate="onLoad" xlink:show="other" xlink:type="simple" y1="31.0234" y2="56.7507">
<stop offset="0" stop-color="#ffffff"/>
<stop offset="1" stop-color="#d0cbc5"/>
</linearGradient>
</defs>
<defs>
<linearGradient gradientUnits="userSpaceOnUse" id="SVGID_7_" x1="47.9995" x2="47.9995" xlink:actuate="onLoad" xlink:show="other" xlink:type="simple" y1="48.6328" y2="63.3766">
<stop offset="0" stop-color="#827f7c" stop-opacity="0.3103"/>
<stop offset="1" stop-color="#a09c98" stop-opacity="0"/>
</linearGradient>
</defs>
<defs>
<linearGradient gradientUnits="userSpaceOnUse" id="SVGID_8_" x1="60.9995" x2="60.9995" xlink:actuate="onLoad" xlink:show="other" xlink:type="simple" y1="76" y2="48.0005">
<stop offset="0" stop-color="#d0cbc5"/>
<stop offset="1" stop-color="#fafcef"/>
</linearGradient>
</defs>
</svg>
