<?xml version="1.0" encoding="UTF-8"?>
<svg xmlns="http://www.w3.org/2000/svg" xmlns:xlink="http://www.w3.org/1999/xlink" baseProfile="tiny" contentScriptType="text/ecmascript" contentStyleType="text/css" height="30px" preserveAspectRatio="xMidYMid meet" version="1.1" viewBox="0 -0.001 30 30" width="30px" x="0px" y="0px" zoomAndPan="magnify">
<path d="M 15.0 28.999 C 7.28 28.999 1.0 22.719 1.0 14.999001 C 1.0 13.896001 1.8970001 12.999001 3.0 12.999001 L 4.0 12.999001 C 5.103 12.999001 6.0 13.896001 6.0 14.999001 C 6.0 19.962 10.037001 23.999 15.0 23.999 C 16.103 23.999 17.0 24.896 17.0 25.999 L 17.0 26.999 C 17.0 28.102 16.103 28.999 15.0 28.999 L 15.0 28.999 z M 15.0 22.999 C 10.589001 22.999 7.0 19.41 7.0 14.999001 C 7.0 13.896001 7.897 12.999001 9.0 12.999001 L 10.0 12.999001 C 11.103 12.999001 12.0 13.896001 12.0 14.999001 C 12.0 16.653 13.346 17.999 15.0 17.999 C 16.103 17.999 17.0 18.896 17.0 19.999 L 17.0 20.999 C 17.0 22.102 16.103 22.999 15.0 22.999 L 15.0 22.999 z M 26.0 16.999 C 24.897 16.999 24.0 16.102001 24.0 14.999001 C 24.0 10.036001 19.963 5.9990005 15.0 5.9990005 C 13.897 5.9990005 13.0 5.1020007 13.0 3.9990005 L 13.0 2.9990005 C 13.0 1.8960005 13.897 0.99900055 15.0 0.99900055 C 22.72 0.99900055 29.0 7.2790008 29.0 14.999001 C 29.0 16.102001 28.103 16.999 27.0 16.999 L 26.0 16.999 z M 20.0 16.999 C 18.897 16.999 18.0 16.102001 18.0 14.999001 C 18.0 13.345 16.654 11.999001 15.0 11.999001 C 13.897 11.999001 13.0 11.102 13.0 9.999001 L 13.0 8.999001 C 13.0 7.8960004 13.897 6.9990005 15.0 6.9990005 C 19.411 6.9990005 23.0 10.588 23.0 14.999001 C 23.0 16.102001 22.103 16.999 21.0 16.999 L 20.0 16.999 z " fill-opacity="0.15" stroke-opacity="0.15"/>
<path d="M 15.0 0.999 C 14.45 0.999 14.0 1.449 14.0 1.9990001 L 14.0 2.999 C 14.0 3.549 14.45 3.999 15.0 3.999 C 20.514 3.999 25.0 8.485001 25.0 13.999001 C 25.0 14.549001 25.45 14.999001 26.0 14.999001 L 27.0 14.999001 C 27.55 14.999001 28.0 14.549001 28.0 13.999001 C 28.0 6.817 22.18 0.999 15.0 0.999 z M 15.0 6.999 C 14.45 6.999 14.0 7.449 14.0 7.999 L 14.0 8.999001 C 14.0 9.549001 14.45 9.999001 15.0 9.999001 C 17.205 9.999001 19.0 11.794001 19.0 13.999001 C 19.0 14.549001 19.45 14.999001 20.0 14.999001 L 21.0 14.999001 C 21.55 14.999001 22.0 14.549001 22.0 13.999001 C 22.0 10.139 18.86 6.999 15.0 6.999 z M 15.0 17.999 C 12.795 17.999 11.0 16.204 11.0 13.999001 C 11.0 13.449 10.55 12.999001 10.0 12.999001 L 9.0 12.999001 C 8.45 12.999001 8.0 13.449 8.0 13.999001 C 8.0 17.86 11.143 20.999 15.0 20.999 C 15.55 20.999 16.0 20.549 16.0 19.999 L 16.0 18.999 C 16.0 18.449 15.55 17.999 15.0 17.999 z M 15.0 23.999 C 9.486 23.999 5.0 19.513 5.0 13.999001 C 5.0 13.449 4.55 12.999001 4.0 12.999001 L 3.0 12.999001 C 2.45 12.999001 2.0 13.449 2.0 13.999001 C 2.0 21.18 7.82 26.999 15.0 26.999 C 15.55 26.999 16.0 26.549 16.0 25.999 L 16.0 24.999 C 16.0 24.449 15.55 23.999 15.0 23.999 z " fill-opacity="0.3" stroke-opacity="0.3"/>
<path d="M 15.0 1.999 C 14.45 1.999 14.0 2.449 14.0 2.999 L 14.0 3.999 C 14.0 4.5490003 14.45 4.999 15.0 4.999 C 20.514 4.999 25.0 9.485001 25.0 14.999001 C 25.0 15.549001 25.45 15.999001 26.0 15.999001 L 27.0 15.999001 C 27.55 15.999001 28.0 15.549001 28.0 14.999001 C 28.0 7.817 22.18 1.999 15.0 1.999 z M 15.0 7.999 C 14.45 7.999 14.0 8.449 14.0 8.999001 L 14.0 9.999001 C 14.0 10.549001 14.45 10.999001 15.0 10.999001 C 17.205 10.999001 19.0 12.794001 19.0 14.999001 C 19.0 15.549001 19.45 15.999001 20.0 15.999001 L 21.0 15.999001 C 21.55 15.999001 22.0 15.549001 22.0 14.999001 C 22.0 11.139 18.86 7.999 15.0 7.999 z M 15.0 18.999 C 12.795 18.999 11.0 17.204 11.0 14.999001 C 11.0 14.449 10.55 13.999001 10.0 13.999001 L 9.0 13.999001 C 8.45 13.999001 8.0 14.449 8.0 14.999001 C 8.0 18.86 11.143 21.999 15.0 21.999 C 15.55 21.999 16.0 21.549 16.0 20.999 L 16.0 19.999 C 16.0 19.449 15.55 18.999 15.0 18.999 z M 15.0 24.999 C 9.486 24.999 5.0 20.513 5.0 14.999001 C 5.0 14.449 4.55 13.999001 4.0 13.999001 L 3.0 13.999001 C 2.45 13.999001 2.0 14.449 2.0 14.999001 C 2.0 22.18 7.82 27.999 15.0 27.999 C 15.55 27.999 16.0 27.549 16.0 26.999 L 16.0 25.999 C 16.0 25.449 15.55 24.999 15.0 24.999 z " fill="#dedede"/>
<rect fill="none" height="30" width="30"/>
</svg>
