<?xml version="1.0" encoding="UTF-8"?>
<svg xmlns="http://www.w3.org/2000/svg" xmlns:xlink="http://www.w3.org/1999/xlink" baseProfile="tiny" contentScriptType="text/ecmascript" contentStyleType="text/css" height="30px" preserveAspectRatio="xMidYMid meet" version="1.1" viewBox="0 0 30 30" width="30px" x="0px" y="0px" zoomAndPan="magnify">
<path d="M 27.0 6.0 L 25.0 6.0 C 24.447 6.0 24.0 6.447 24.0 7.0 L 24.0 13.455999 L 14.342 6.1149993 C 14.205 6.038 14.052 6.0 13.9 6.0 C 13.744 6.0 13.586 6.04 13.445 6.122 C 13.169 6.286 13.0 6.579 13.0 6.899 L 13.0 13.456 L 3.342 6.115 C 3.205 6.038 3.052 6.0 2.9 6.0 C 2.744 6.0 2.586 6.04 2.445 6.122 C 2.169 6.286 2.0 6.579 2.0 6.899 L 2.0 23.1 C 2.0 23.42 2.169 23.715 2.445 23.877 C 2.586 23.962 2.744 24.0 2.9 24.0 C 3.051 24.0 3.2050002 23.962 3.341 23.885 L 13.0 16.544 L 13.0 23.101002 C 13.0 23.421 13.169 23.716002 13.445 23.878002 C 13.586 23.962 13.744 24.0 13.9 24.0 C 14.051 24.0 14.205 23.962 14.341 23.885 L 24.0 16.544 L 24.0 23.0 C 24.0 23.553 24.447 24.0 25.0 24.0 L 27.0 24.0 C 27.553 24.0 28.0 23.553 28.0 23.0 L 28.0 7.0 C 28.0 6.447 27.553 6.0 27.0 6.0 z " fill="#50b4fb"/>
<rect fill="none" height="30" width="30"/>
</svg>
