<?xml version="1.0" encoding="UTF-8"?>
<svg xmlns="http://www.w3.org/2000/svg" xmlns:xlink="http://www.w3.org/1999/xlink" baseProfile="tiny" contentScriptType="text/ecmascript" contentStyleType="text/css" height="96px" preserveAspectRatio="xMidYMid meet" version="1.1" viewBox="0 0 96 96" width="96px" x="0px" y="0px" zoomAndPan="magnify">
<defs>
<linearGradient id="linearGradient3822">
<stop offset="0" stop-color="#ffffff" stop-opacity="1"/>
<stop offset="1" stop-color="#ffffff" stop-opacity="0.78431374"/>
</linearGradient>
<linearGradient>
<stop offset="0" stop-color="#3480d6" stop-opacity="1"/>
<stop offset="1" stop-color="#346fd6" stop-opacity="1"/>
</linearGradient>
<linearGradient gradientTransform="matrix(0,1,-1,0,96,0)" gradientUnits="userSpaceOnUse" id="linearGradient3814" x1="8" x2="88" y1="48" y2="48">
<stop offset="0" stop-color="#3480d6" stop-opacity="1"/>
<stop offset="1" stop-color="#346fd6" stop-opacity="1"/>
</linearGradient>
<linearGradient gradientUnits="userSpaceOnUse" id="linearGradient3828" x1="47.169491" x2="47.169491" y1="22.587856" y2="73.031906">
<stop offset="0" stop-color="#ffffff" stop-opacity="1"/>
<stop offset="1" stop-color="#ffffff" stop-opacity="0.78431374"/>
</linearGradient>
<linearGradient gradientTransform="matrix(0,1,-1,0,96,0)" gradientUnits="userSpaceOnUse" id="linearGradient3832" x1="47.169491" x2="47.169491" y1="22.587856" y2="73.031906">
<stop offset="0" stop-color="#3480d6" stop-opacity="1"/>
<stop offset="1" stop-color="#346fd6" stop-opacity="1"/>
</linearGradient>
</defs>
<path d="M 88.0 49.0 C 88.0 78.633 77.637 89.0 48.0 89.0 C 18.365 89.0 8.0 78.633 8.0 49.0 C 8.0 19.365 18.365 9.0 48.0 9.0 C 77.637 9.0 88.0 19.365 88.0 49.0 z " fill-opacity="0.4" stroke-opacity="0.4"/>
<linearGradient gradientUnits="userSpaceOnUse" x1="47.9995" x2="47.9995" y1="8.5449" y2="89.2398">
<stop offset="0" stop-color="#a1b2c0"/>
<stop offset="1" stop-color="#3d465b"/>
</linearGradient>
<path d="M 48.0 88.0 C 18.367 88.0 8.0 77.637 8.0 48.0 C 8.0 18.365 18.367 8.0 48.0 8.0 C 77.635 8.0 88.0 18.365 88.0 48.0 C 88.0 77.637 77.635 88.0 48.0 88.0 z " fill="url(#linearGradient3814)" fill-opacity="1"/>
<linearGradient gradientUnits="userSpaceOnUse" id="SVGID_2_" x1="47.9995" x2="47.9995" y1="8.5449" y2="89.2398">
<stop offset="0" stop-color="#ffffff"/>
<stop offset="1" stop-color="#ffffff" stop-opacity="0"/>
</linearGradient>
<path d="M 48.0 8.0 C 18.365 8.0 8.0 18.365 8.0 48.0 C 8.0 77.633 18.365 88.0 48.0 88.0 C 77.637 88.0 88.0 77.633 88.0 48.0 C 88.0 18.365 77.637 8.0 48.0 8.0 z M 48.0 87.0 C 18.841 87.0 9.0 77.158 9.0 48.0 C 9.0 18.841 18.841 9.0 48.0 9.0 C 77.159 9.0 87.0 18.841 87.0 48.0 C 87.0 77.158 77.159 87.0 48.0 87.0 z " fill="url(#SVGID_2_)" fill-opacity="0.25" stroke-opacity="0.25"/>
<radialGradient cx="165.7061" cy="-826.2383" gradientTransform="matrix(0.7071 -0.7071 0.198 0.198 115.4226 349.7662)" gradientUnits="userSpaceOnUse" r="24.5073">
<stop offset="0" stop-color="#ffffff" stop-opacity="0.16"/>
<stop offset="0.8" stop-color="#ffffff" stop-opacity="0.02"/>
<stop offset="1" stop-color="#ffffff" stop-opacity="0"/>
</radialGradient>
<radialGradient cx="73.54" cy="73.0977" gradientUnits="userSpaceOnUse" r="38.086">
<stop offset="0" stop-color="#a1b2c0"/>
<stop offset="1" stop-color="#3d465b"/>
</radialGradient>
<linearGradient gradientUnits="userSpaceOnUse" x1="78.4609" x2="71.7707" y1="79.543" y2="72.8527">
<stop offset="0" stop-color="#ffffff"/>
<stop offset="1" stop-color="#6d6e70"/>
</linearGradient>
<rect fill="none" height="96" width="96"/>
<path d="M 46.246 76.587 C 42.392 76.587 39.487 73.652 39.487 69.76 C 39.487 65.881996 42.33 63.067993 46.246 63.067993 C 50.122997 63.067993 52.936996 65.881996 52.936996 69.76 C 52.938 73.652 50.061 76.587 46.246 76.587 L 46.246 76.587 z M 42.982 61.152 C 41.879 61.152 40.982 60.256 40.982 59.152 L 40.982 56.636 C 40.982 50.783 44.118 47.231003 47.906 43.514 L 48.031 43.389 C 50.436996 40.983 52.337997 39.084 52.337997 36.374 C 52.337997 32.678 50.374996 31.03 45.975 31.03 C 43.092 31.03 40.236 31.773 37.579 32.576 C 37.392 32.633 37.197 32.662 37.001 32.662 C 36.573 32.662 36.148 32.521 35.807 32.266 C 35.303 31.895 35.0 31.294 35.0 30.663 L 35.0 25.7 C 35.0 24.817 35.592 24.027 36.439 23.78 C 39.059 23.016 43.01 22.0 47.063 22.0 C 57.667 22.0 63.75 27.091 63.75 35.967 C 63.75 42.046997 59.876 46.044 56.458 49.571 L 55.778 50.273 C 52.321 53.869 51.443 55.003 51.443 57.044 L 51.443 59.150997 C 51.443 60.254997 50.546 61.150997 49.443 61.150997 L 42.982 61.150997 z " fill-opacity="0.1" stroke-opacity="0.1"/>
<path d="M 46.246 75.587 C 42.962997 75.587 40.487 73.082 40.487 69.76 C 40.487 66.46099 42.909 64.06799 46.246 64.06799 C 49.544 64.06799 51.936996 66.46199 51.936996 69.76 C 51.938 73.082 49.491 75.587 46.246 75.587 L 46.246 75.587 z M 42.982 60.152 C 42.428997 60.152 41.982 59.705 41.982 59.152 L 41.982 56.636 C 41.982 51.161003 44.852997 47.910004 48.606 44.228 L 48.739 44.095 C 51.206997 41.629 53.337997 39.499 53.337997 36.375 C 53.337997 32.106 50.929996 30.031 45.975 30.031 C 42.962 30.031 40.019997 30.795 37.289 31.62 C 37.193996 31.649 37.096996 31.663 36.999996 31.663 C 36.78799 31.663 36.577995 31.596 36.403996 31.466 C 36.149 31.277 36.0 30.979 36.0 30.663 L 36.0 25.7 C 36.0 25.256 36.293 24.865002 36.72 24.740002 C 39.28 23.993 43.139 23.0 47.063 23.0 C 57.178 23.0 62.75 27.605 62.75 35.967 C 62.75 41.642 59.025 45.485 55.739 48.876 L 55.059 49.578 C 51.571 53.205 50.442997 54.585 50.442997 57.045 L 50.442997 59.151997 C 50.442997 59.705 49.996 60.151997 49.442997 60.151997 L 42.982 60.151997 z " fill-opacity="0.1" stroke-opacity="0.1"/>
<path d="M 46.246 65.067 C 43.459 65.067 41.487 67.04 41.487 69.759 C 41.487 72.478004 43.459 74.586006 46.246 74.586006 C 49.033997 74.586006 50.936996 72.47901 50.936996 69.759 C 50.936996 67.039 49.034 65.067 46.246 65.067 z M 47.063 24.0 C 43.664 24.0 40.264 24.748 37.0 25.7 L 37.0 30.663 C 39.924 29.779 42.915 29.031 45.975 29.031 C 50.938 29.031 54.337997 31.071 54.337997 36.375 C 54.337997 39.979 51.891 42.358 49.307 44.942 C 45.703 48.477 42.983 51.537003 42.983 56.636 L 42.983 59.152 L 49.442997 59.152 L 49.442997 57.045 C 49.442997 54.121 50.937996 52.421 54.338997 48.886 C 57.737995 45.35 61.749996 41.611 61.749996 35.967003 C 61.749 26.991 55.086 24.0 47.063 24.0 z " fill="#424242" fill-opacity="0.16489361" stroke-opacity="0.3"/>
<linearGradient gradientUnits="userSpaceOnUse" x1="49.375" x2="49.375" y1="25.1729" y2="102.0434">
<stop offset="0" stop-color="#f8fbee"/>
<stop offset="0.3232" stop-color="#f8fbee"/>
<stop offset="1" stop-color="#d2cbc5"/>
</linearGradient>
<path d="M 46.246 63.48 C 43.459 63.48 41.487 65.453 41.487 68.172 C 41.487 70.89099 43.459 73.0 46.246 73.0 C 49.033997 73.0 50.936996 70.893 50.936996 68.173 C 50.936996 65.452995 49.034 63.48 46.246 63.48 z M 47.063 22.413 C 43.664 22.413 40.264 23.161 37.0 24.113 L 37.0 29.076 C 39.924 28.192 42.915 27.444 45.975 27.444 C 50.938 27.444 54.337997 29.484 54.337997 34.788 C 54.337997 38.392 51.891 40.771004 49.307 43.355003 C 45.703 46.890003 42.983 49.950005 42.983 55.049004 L 42.983 57.565 L 49.442997 57.565 L 49.442997 55.458004 C 49.442997 52.534004 50.937996 50.834003 54.338997 47.299004 C 57.737995 43.763004 61.749996 40.024 61.749996 34.380005 C 61.749 25.404 55.086 22.413 47.063 22.413 z " fill="url(#linearGradient3832)" fill-opacity="1"/>
<path d="M 46.246 63.48 C 43.459 63.48 41.487 65.453 41.487 68.172 C 41.487 70.89099 43.459 73.0 46.246 73.0 C 49.033997 73.0 50.936996 70.893 50.936996 68.173 C 50.936996 65.452995 49.034 63.48 46.246 63.48 z M 47.063 22.413 C 43.664 22.413 40.264 23.161 37.0 24.113 L 37.0 29.076 C 39.924 28.192 42.915 27.444 45.975 27.444 C 50.938 27.444 54.337997 29.484 54.337997 34.788 C 54.337997 38.392 51.891 40.771004 49.307 43.355003 C 45.703 46.890003 42.983 49.950005 42.983 55.049004 L 42.983 57.565 L 49.442997 57.565 L 49.442997 55.458004 C 49.442997 52.534004 50.937996 50.834003 54.338997 47.299004 C 57.737995 43.763004 61.749996 40.024 61.749996 34.380005 C 61.749 25.404 55.086 22.413 47.063 22.413 z " fill="url(#linearGradient3828)" fill-opacity="1"/>
</svg>
