<?xml version="1.0" encoding="UTF-8"?>
<svg xmlns="http://www.w3.org/2000/svg" xmlns:xlink="http://www.w3.org/1999/xlink" baseProfile="tiny" contentScriptType="text/ecmascript" contentStyleType="text/css" height="57px" preserveAspectRatio="xMidYMid meet" version="1.1" viewBox="5 0 57 57" width="57px" x="0px" y="0px" zoomAndPan="magnify">
<linearGradient gradientTransform="matrix(1 0 0 -1 -300.9004 -159.5996)" gradientUnits="userSpaceOnUse" x1="334.4004" x2="334.4004" xlink:actuate="onLoad" xlink:show="other" xlink:type="simple" y1="-208.8154" y2="-165.3838">
<stop offset="0" stop-color="#d0cbc5"/>
<stop offset="0.5031" stop-color="#fafcef"/>
<stop offset="0.9693" stop-color="#ffffff"/>
<stop offset="1" stop-color="#ffffff"/>
</linearGradient>
<path d="M 23.547 11.652 C 23.547 11.652 23.54 11.655001 23.539 11.655001 L 23.547 11.675001 L 23.547 11.652001 z M 18.396 44.441 C 18.397 44.439003 18.413 44.433 18.429 44.427 L 18.425 44.416 L 18.396002 44.441 z M 23.282 25.556002 C 20.618002 22.249002 19.147 19.306002 18.936 16.883 C 18.971 16.456001 19.04 16.044 19.167002 15.659 C 20.138 12.806 23.434 11.704 23.539 11.656 L 23.15 10.73 C 23.389 10.631 23.542 10.582 23.547 10.582 L 21.53 5.784 C 21.265 5.8529997 15.504002 7.647 13.697001 12.91 C 13.295 14.082 13.132002 15.322 13.191002 16.621 C 12.983002 20.393 14.813002 24.704 18.662 29.467 C 21.341 32.77 22.801 35.694 23.01 38.108 C 22.975 38.539997 22.906 38.955997 22.778 39.343 C 21.822 42.253 18.424 43.348 18.396 43.348 L 18.424 43.348 L 18.815 44.274 C 18.62 44.358 18.483 44.41 18.428 44.429993 L 20.441002 49.215992 C 20.680002 49.14699 26.441002 47.37599 28.247002 42.11299 C 28.652002 40.92499 28.817 39.673992 28.756002 38.360992 C 28.965 34.594 27.147 30.293 23.282 25.556 z M 53.798 35.818 C 54.003 33.67 53.007 31.209 50.789 28.465 C 49.366 26.707 48.577003 25.152 48.394 23.855 C 48.416 23.713 48.437 23.569 48.478 23.436 C 49.036 21.828 50.921 21.223 50.921 21.223 L 50.531 20.295 C 50.76 20.186 50.921 20.128 50.921 20.128 L 49.806 17.473 C 49.672 17.52 46.459 18.498 45.452 21.432 C 45.202 22.169 45.132 22.953 45.202 23.773998 C 45.004 25.916998 45.984 28.370998 48.214 31.12 C 49.613 32.856 50.41 34.403 50.592 35.707 C 50.569 35.858 50.544 36.011 50.497 36.151 C 49.966 37.756 48.080997 38.362 48.054996 38.362 L 48.080997 38.362 L 48.465996 39.278 C 48.265995 39.373 48.12899 39.426 48.084995 39.444 L 49.194996 42.112 C 49.327995 42.065 52.540997 41.087 53.548996 38.153 C 53.8 37.421 53.868 36.639 53.798 35.818 z M 48.055 39.458 C 48.057 39.457 48.078 39.449 48.085 39.445 L 48.080997 39.435 L 48.054996 39.458 z M 37.221 27.163 C 35.289 24.807 34.227 22.691 34.041 20.939 C 34.072 20.691 34.12 20.45 34.195 20.222 C 34.911 18.127 37.381 17.312 37.407 17.312 L 37.380997 17.312 L 36.990997 16.379 C 37.238 16.269 37.4 16.217 37.407 16.217 L 37.380997 16.217 L 35.921 12.723999 C 35.734 12.770999 31.513 14.073999 30.213 17.917 C 29.886002 18.853 29.784 19.847 29.858002 20.885 C 29.669004 23.649 30.982002 26.813 33.824 30.306 C 35.736 32.677 36.793003 34.785 36.98 36.532 C 36.947 36.779 36.9 37.018997 36.826 37.247 C 36.135 39.365997 33.666 40.157997 33.638 40.157997 L 34.039 41.096996 C 33.800003 41.200996 33.645 41.249996 33.638 41.249996 L 35.127 44.742996 C 35.285 44.695995 39.508 43.393 40.835 39.549995 C 41.15 38.62199 41.249 37.637997 41.178 36.610996 C 41.359 33.841 40.053 30.667 37.221 27.163 z " fill="#575757" fill-opacity="1"/>
</svg>
