<?xml version="1.0" encoding="UTF-8"?>
<svg xmlns="http://www.w3.org/2000/svg" xmlns:xlink="http://www.w3.org/1999/xlink" baseProfile="tiny" contentScriptType="text/ecmascript" contentStyleType="text/css" height="27px" preserveAspectRatio="xMidYMid meet" version="1.1" viewBox="0 0 27 27" width="27px" x="0px" y="0px" zoomAndPan="magnify">
<defs>
<defs>
<linearGradient gradientUnits="userSpaceOnUse" x1="13.5005" x2="13.5005" xlink:actuate="onLoad" xlink:show="other" xlink:type="simple" y1="24" y2="3.0005">
<stop offset="0" stop-color="#d0cbc5"/>
<stop offset="1" stop-color="#fcfcf9"/>
</linearGradient>
</defs>
</defs>
<path d="M 13.5 3.0 C 7.701 3.0 3.0 7.701 3.0 13.5 C 3.0 19.299 7.701 24.0 13.5 24.0 C 19.299 24.0 24.0 19.299 24.0 13.5 C 24.0 7.701 19.299 3.0 13.5 3.0 z M 13.533 20.577 L 13.527 20.577 C 9.67 20.577 6.5410004 17.448 6.5410004 13.589 C 6.5410004 12.162 6.984 10.847 7.719 9.74 L 6.0 8.743 L 11.35 5.639 L 11.307 11.823 L 9.891 11.002 C 9.362 11.731 9.040999 12.619 9.040999 13.59 C 9.040999 16.065 11.054999 18.078 13.526999 18.078 L 13.532999 18.078 L 13.532999 20.577 z M 15.7179985 21.362 L 15.7179985 15.238999 L 17.239998 16.078 C 17.723995 15.366999 18.016998 14.515999 18.016998 13.589999 C 18.016998 11.117999 16.004997 9.106999 13.5339985 9.102999 L 13.5339985 6.6029987 C 17.391998 6.6049986 20.516998 9.731998 20.516998 13.589998 C 20.516998 14.952998 20.108995 16.211998 19.434998 17.286 L 20.999998 18.146 L 15.7179985 21.362 z " fill="#dedede" fill-opacity="1"/>
<rect fill="none" height="27" width="27" x="0" y="0"/>
</svg>
