<?xml version="1.0" encoding="UTF-8"?>
<svg xmlns="http://www.w3.org/2000/svg" xmlns:xlink="http://www.w3.org/1999/xlink" baseProfile="tiny" contentScriptType="text/ecmascript" contentStyleType="text/css" height="30px" preserveAspectRatio="xMidYMid meet" version="1.1" viewBox="0 0 30 30" width="30px" x="0px" y="0px" zoomAndPan="magnify">
<rect color="#000000" display="inline" fill="#353535" fill-opacity="0.58823529" fill-rule="nonzero" height="27.533897" ry="4.7137108" stroke="none" visibility="visible" width="27.533897" x="1.2330513" y="1.2330513"/>
<path d="M 23.307692 8.923077 L 6.6923084 8.923077 C 6.311538 8.923077 6.0 9.234615 6.0 9.615385 L 6.0 21.384617 C 6.0 21.765385 6.3115387 22.076923 6.6923075 22.076923 L 23.30769 22.076923 C 23.68846 22.076923 24.0 21.765385 24.0 21.384617 L 24.0 9.615385 C 24.0 9.234615 23.68846 8.923077 23.307692 8.923077 z M 13.239462 19.728617 C 12.149076 20.013844 11.3979225 20.006231 10.889077 19.996538 C 10.380923 20.006918 9.629077 20.013847 8.538 19.728617 C 8.092154 19.611614 7.709308 19.458614 7.3846154 19.271 L 7.3936152 19.22323 C 7.4732313 18.901308 7.858154 18.708157 7.858154 18.708157 C 8.428616 18.369616 8.997 18.146692 8.997 18.146692 C 9.618692 17.895384 9.7197695 17.376154 9.7384615 17.3 C 9.788308 17.100616 9.833308 16.890846 9.762 16.823 C 9.407538 16.51423 9.269076 15.778308 9.269076 15.778308 C 9.261461 15.758231 9.254539 15.737461 9.249 15.716692 C 9.071076 15.885615 9.025385 15.351846 8.963077 15.160077 C 8.860615 14.826385 8.885538 14.748846 8.885538 14.748846 C 8.871693 14.498923 9.053077 14.584769 9.053077 14.584769 L 9.067615 14.604149 C 8.936769 14.251077 8.894538 14.062077 8.90423 13.805923 C 8.918769 13.325461 8.747769 13.099078 9.210923 12.349308 C 9.210923 12.349308 9.280154 12.227462 9.436616 12.219846 C 9.592385 12.212946 9.537693 12.130536 9.592385 12.028077 C 9.64777 11.924923 9.687923 11.807923 9.971078 11.842538 C 10.257693 11.877158 10.380923 11.520615 11.239387 11.800308 C 12.102001 12.082077 12.309002 12.120154 12.459232 12.348616 C 12.94454 13.085232 12.828924 13.259693 12.826156 13.742924 C 12.826156 14.053078 12.726465 14.264232 12.699464 14.611077 L 12.714004 14.595158 C 12.714004 14.595158 12.900927 14.522468 12.870465 14.769619 C 12.870465 14.769619 12.838615 14.929542 12.764543 15.174619 C 12.692543 15.406542 12.603927 15.911235 12.43085 15.695927 C 12.42046 15.722927 12.41216 15.749237 12.40246 15.778307 C 12.40246 15.778307 12.263306 16.51423 11.908845 16.823 C 11.838925 16.89154 11.8832245 17.100616 11.9323845 17.3 C 11.949695 17.36508 12.126923 17.797768 12.477922 18.03869 C 12.540233 18.07884 12.610153 18.11554 12.689077 18.14669 C 12.689077 18.14669 13.2574625 18.36892 13.8293085 18.708153 C 13.8293085 18.708153 14.212847 18.901306 14.291078 19.22323 L 14.307688 19.30908 C 14.004457 19.479387 13.652764 19.619926 13.239457 19.72862 z M 21.923073 19.307695 L 16.384611 19.307695 C 16.001764 19.307695 15.692305 18.998236 15.692305 18.61539 C 15.692305 18.232544 16.001766 17.923082 16.384611 17.923082 L 21.923073 17.923082 C 22.30592 17.923082 22.61538 18.232544 22.61538 18.61539 C 22.61538 18.998238 22.30592 19.307695 21.923073 19.307695 z M 21.923073 16.538465 L 16.384611 16.538465 C 16.001764 16.538465 15.692305 16.229004 15.692305 15.846159 C 15.692305 15.463313 16.001766 15.153851 16.384611 15.153851 L 21.923073 15.153851 C 22.30592 15.153851 22.61538 15.463312 22.61538 15.846159 C 22.61538 16.229006 22.30592 16.538465 21.923073 16.538465 z M 21.923073 13.769236 L 16.384611 13.769236 C 16.001764 13.769236 15.692305 13.459774 15.692305 13.076927 C 15.692305 12.694081 16.001766 12.384619 16.384611 12.384619 L 21.923073 12.384619 C 22.30592 12.384619 22.61538 12.69408 22.61538 13.076927 C 22.61538 13.459773 22.30592 13.769236 21.923073 13.769236 z " fill="#dedede"/>
<rect fill="none" height="30" width="30"/>
</svg>
