<?xml version="1.0" encoding="UTF-8"?>
<svg xmlns="http://www.w3.org/2000/svg" xmlns:xlink="http://www.w3.org/1999/xlink" baseProfile="tiny" contentScriptType="text/ecmascript" contentStyleType="text/css" height="22px" preserveAspectRatio="xMidYMid meet" version="1.1" viewBox="0 0 22 22" width="22px" x="0px" y="0px" zoomAndPan="magnify">
<path d="M 16.876 3.677 L 5.144 3.677 C 4.337 3.677 3.677 4.337 3.677 5.144 L 3.677 16.877 C 3.677 17.683998 4.337 18.343998 5.144 18.343998 L 16.876 18.343998 C 17.683 18.343998 18.343 17.683998 18.343 16.877 L 18.343 5.144 C 18.343 4.337 17.683 3.677 16.876 3.677 z M 14.677 12.109 L 12.11 12.109 L 12.11 14.677 C 12.11 15.282 11.618 15.777 11.009999 15.777 C 10.402999 15.777 9.909999 15.283 9.909999 14.677 L 9.909999 12.109 L 7.343 12.109 C 6.736 12.109 6.243 11.617001 6.243 11.009 C 6.243 10.401999 6.736 9.908999 7.343 9.908999 L 9.91 9.908999 L 9.91 7.343 C 9.91 6.736 10.403 6.243 11.01 6.243 C 11.617001 6.243 12.110001 6.736 12.110001 7.343 L 12.110001 9.91 L 14.677 9.91 C 15.283 9.91 15.777 10.403 15.777 11.01 C 15.776 11.617001 15.283 12.109 14.677 12.109 z " fill="#70afe0"/>
<rect fill="none" height="22" width="22" x="0" y="0"/>
</svg>
