<?xml version="1.0" encoding="UTF-8"?>
<svg xmlns="http://www.w3.org/2000/svg" xmlns:xlink="http://www.w3.org/1999/xlink" baseProfile="tiny" contentScriptType="text/ecmascript" contentStyleType="text/css" height="96px" preserveAspectRatio="xMidYMid meet" version="1.1" viewBox="0 0 96 96" width="96px" x="0px" y="0px" zoomAndPan="magnify">
<defs>
<linearGradient id="linearGradient3883">
<stop offset="0" stop-color="#efaf5e" stop-opacity="1"/>
<stop offset="1" stop-color="#efa133" stop-opacity="1"/>
</linearGradient>
<linearGradient gradientTransform="matrix(0,1,-1,0,96,0)" gradientUnits="userSpaceOnUse" id="linearGradient3889" x1="8" x2="88" y1="48" y2="48">
<stop offset="0" stop-color="#efaf5e" stop-opacity="1"/>
<stop offset="1" stop-color="#efa133" stop-opacity="1"/>
</linearGradient>
</defs>
<path d="M 88.0 49.0 C 88.0 78.633 77.637 89.0 48.0 89.0 C 18.365 89.0 8.0 78.633 8.0 49.0 C 8.0 19.365 18.365 9.0 48.0 9.0 C 77.637 9.0 88.0 19.365 88.0 49.0 z " fill-opacity="0.4"/>
<linearGradient gradientUnits="userSpaceOnUse" x1="47.9995" x2="47.9995" y1="8" y2="88.0005">
<stop offset="0" stop-color="#f9d641"/>
<stop offset="1" stop-color="#d68612"/>
</linearGradient>
<path d="M 48.0 88.0 C 18.367 88.0 8.0 77.637 8.0 48.0 C 8.0 18.365 18.367 8.0 48.0 8.0 C 77.635 8.0 88.0 18.365 88.0 48.0 C 88.0 77.637 77.635 88.0 48.0 88.0 z " fill="url(#linearGradient3889)" fill-opacity="1"/>
<rect fill="none" height="96" width="96"/>
<linearGradient gradientUnits="userSpaceOnUse" id="SVGID_2_" x1="47.9995" x2="47.9995" y1="8.2534" y2="87.4985">
<stop offset="0" stop-color="#ffffff"/>
<stop offset="1" stop-color="#ffffff" stop-opacity="0"/>
</linearGradient>
<path d="M 48.0 8.0 C 18.365 8.0 8.0 18.365 8.0 48.0 C 8.0 77.633 18.365 88.0 48.0 88.0 C 77.637 88.0 88.0 77.633 88.0 48.0 C 88.0 18.365 77.637 8.0 48.0 8.0 z M 48.0 87.0 C 18.842 87.0 9.0 77.158 9.0 48.0 C 9.0 18.842005 18.842 9.0 48.0 9.0 C 77.158005 9.0 87.0 18.842 87.0 48.0 C 87.0 77.158005 77.158 87.0 48.0 87.0 z " fill="url(#SVGID_2_)" fill-opacity="0.25" stroke-opacity="0.25"/>
<linearGradient gradientUnits="userSpaceOnUse" id="SVGID_3_" x1="34.8491" x2="61.3029" y1="21.9487" y2="74.3524">
<stop offset="0" stop-color="#a6a6a6"/>
<stop offset="0.26" stop-color="#f7f7f7"/>
<stop offset="0.74" stop-color="#f7f7f7"/>
<stop offset="1" stop-color="#878787"/>
</linearGradient>
<path d="M 32.447 26.105 C 32.201 26.598 32.0 27.45 32.0 28.0 L 32.0 68.0 C 32.0 68.55 32.201 69.402 32.447 69.895 L 34.5 74.0 L 61.5 74.0 L 63.553 69.895 C 63.799 69.402 64.0 68.55 64.0 68.0 L 64.0 28.0 C 64.0 27.45 63.799 26.598 63.553 26.105 L 61.5 22.0 L 34.5 22.0 L 32.447 26.105 z " fill="url(#SVGID_3_)"/>
<path d="M 34.5 80.0 C 32.975 80.0 31.604 79.153 30.924 77.79 L 28.869 73.684 C 28.342 72.628 28.0 71.182 28.0 70.0 L 28.0 30.0 C 28.0 28.818 28.342 27.372 28.869 26.316 L 30.922 22.211 C 31.605 20.847 32.977 20.0 34.5 20.0 L 61.5 20.0 C 63.025 20.0 64.395996 20.847 65.078 22.21 L 67.131004 26.315998 C 67.66 27.372 68.0 28.818 68.0 30.0 L 68.0 70.0 C 68.0 71.182 67.66 72.628 67.131 73.684 L 65.077995 77.789 C 64.395 79.153 63.023 80.0 61.5 80.0 L 34.5 80.0 z " fill-opacity="0.02"/>
<path d="M 34.5 79.0 C 33.357 79.0 32.328 78.365 31.818 77.343 L 29.763 73.237 C 29.307 72.322 29.0 71.022 29.0 70.0 L 29.0 30.0 C 29.0 28.978 29.307 27.678 29.764 26.764 L 31.817 22.659 C 32.33 21.635 33.357 21.0 34.5 21.0 L 61.5 21.0 C 62.645 21.0 63.672 21.635 64.182 22.657 L 66.237 26.763 C 66.693 27.678 67.0 28.978 67.0 30.0 L 67.0 70.0 C 67.0 71.022 66.693 72.322 66.236 73.236 L 64.183 77.341 C 63.672 78.365 62.645 79.0 61.5 79.0 L 34.5 79.0 z " fill-opacity="0.05"/>
<path d="M 34.5 78.0 C 33.738 78.0 33.053 77.577 32.713 76.896 L 30.658 72.79 C 30.271 72.014 30.0 70.867 30.0 70.0 L 30.0 30.0 C 30.0 29.133 30.271 27.986 30.658 27.211 L 32.711002 23.106 C 33.053 22.423 33.738 22.0 34.5 22.0 L 61.5 22.0 C 62.262 22.0 62.947 22.423 63.289 23.104 L 65.342 27.21 C 65.73 27.986 66.0 29.133 66.0 30.0 L 66.0 70.0 C 66.0 70.867 65.73 72.014 65.342 72.789 L 63.289 76.894005 C 62.947 77.577 62.262 78.0 61.5 78.0 L 34.5 78.0 z " fill-opacity="0.05"/>
<path d="M 34.5 77.0 C 34.121 77.0 33.775 76.786 33.605 76.447 L 31.552 72.342 C 31.238 71.711 31.0 70.705 31.0 70.0 L 31.0 30.0 C 31.0 29.295 31.238 28.289 31.553 27.658 L 33.606 23.553 C 33.775 23.214 34.121 23.0 34.5 23.0 L 61.5 23.0 C 61.879 23.0 62.225 23.214 62.395 23.553 L 64.448 27.658 C 64.764 28.289 65.0 29.295 65.0 30.0 L 65.0 70.0 C 65.0 70.705 64.764 71.711 64.447 72.342 L 62.393997 76.44701 C 62.225 76.786 61.879 77.0 61.5 77.0 L 34.5 77.0 z " fill-opacity="0.1"/>
<linearGradient gradientUnits="userSpaceOnUse" x1="34.8491" x2="61.3029" y1="21.9487" y2="74.3524">
<stop offset="0" stop-color="#cfcfcf"/>
<stop offset="0.26" stop-color="#f7f7f7"/>
<stop offset="0.74" stop-color="#f7f7f7"/>
<stop offset="1" stop-color="#878787"/>
</linearGradient>
<path d="M 32.447 26.105 C 32.201 26.598 32.0 27.45 32.0 28.0 L 32.0 68.0 C 32.0 68.55 32.201 69.402 32.447 69.895 L 34.5 74.0 L 61.5 74.0 L 63.553 69.895 C 63.799 69.402 64.0 68.55 64.0 68.0 L 64.0 28.0 C 64.0 27.45 63.799 26.598 63.553 26.105 L 61.5 22.0 L 34.5 22.0 L 32.447 26.105 z " fill="#ffffff" fill-opacity="1"/>
<linearGradient gradientUnits="userSpaceOnUse" id="SVGID_5_" x1="47.9995" x2="47.9995" y1="68" y2="71">
<stop offset="0" stop-color="#808184"/>
<stop offset="1" stop-color="#ffffff"/>
</linearGradient>
<path d="M 44.0 71.0 C 43.174 71.0 42.5 70.327 42.5 69.5 C 42.5 68.673 43.174 68.0 44.0 68.0 L 52.0 68.0 C 52.828 68.0 53.5 68.673 53.5 69.5 C 53.5 70.327 52.828 71.0 52.0 71.0 L 44.0 71.0 z " fill="url(#SVGID_5_)"/>
<linearGradient gradientUnits="userSpaceOnUse" id="SVGID_6_" x1="48.0005" x2="48.0005" y1="70.5" y2="68.5">
<stop offset="0" stop-color="#323233"/>
<stop offset="1" stop-color="#5a5b5c"/>
</linearGradient>
<path d="M 53.0 69.5 C 53.0 70.05 52.549 70.5 52.0 70.5 L 44.0 70.5 C 43.451 70.5 43.0 70.05 43.0 69.5 L 43.0 69.5 C 43.0 68.95 43.451 68.5 44.0 68.5 L 52.0 68.5 C 52.549 68.5 53.0 68.95 53.0 69.5 L 53.0 69.5 z " fill="url(#SVGID_6_)"/>
<linearGradient gradientUnits="userSpaceOnUse" id="SVGID_7_" x1="48.0005" x2="48.0005" y1="70.5" y2="68.5">
<stop offset="0" stop-color="#ffffff" stop-opacity="0"/>
<stop offset="1" stop-color="#ffffff"/>
</linearGradient>
<path d="M 52.0 68.5 L 44.0 68.5 C 43.451 68.5 43.0 68.95 43.0 69.5 C 43.0 70.05 43.451 70.5 44.0 70.5 L 52.0 70.5 C 52.549 70.5 53.0 70.05 53.0 69.5 C 53.0 68.95 52.549 68.5 52.0 68.5 z M 52.0 70.0 L 44.0 70.0 C 43.725 70.0 43.5 69.775 43.5 69.5 C 43.5 69.225 43.725 69.0 44.0 69.0 L 52.0 69.0 C 52.275 69.0 52.5 69.225 52.5 69.5 C 52.5 69.775 52.275 70.0 52.0 70.0 z " fill="url(#SVGID_7_)" fill-opacity="0.25" stroke-opacity="0.25"/>
<linearGradient gradientUnits="userSpaceOnUse" x1="48.0005" x2="48.0005" y1="73.9014" y2="21.8005">
<stop offset="0" stop-color="#ffffff" stop-opacity="0"/>
<stop offset="1" stop-color="#ffffff"/>
</linearGradient>
<linearGradient gradientUnits="userSpaceOnUse" x1="47.9995" x2="47.9995" y1="68.583" y2="74.0836">
<stop offset="0" stop-color="#000000" stop-opacity="0.06"/>
<stop offset="1" stop-color="#000000" stop-opacity="0.2"/>
</linearGradient>
<linearGradient gradientUnits="userSpaceOnUse" id="SVGID_10_" x1="48.0005" x2="48.0005" y1="29" y2="22">
<stop offset="0" stop-color="#fdfdfe" stop-opacity="0.06"/>
<stop offset="1" stop-color="#fdfdfe" stop-opacity="0.8"/>
</linearGradient>
<path d="M 63.553 26.105 L 61.5 22.0 L 34.5 22.0 L 32.447 26.105 C 32.201 26.598 32.0 27.45 32.0 28.0 L 32.0 29.0 C 32.0 28.45 32.201 27.598 32.447 27.105 L 34.5 23.0 L 61.5 23.0 L 63.553 27.105 C 63.799 27.598 64.0 28.45 64.0 29.0 L 64.0 28.0 C 64.0 27.45 63.799 26.598 63.553 26.105 z " fill="url(#SVGID_10_)"/>
<linearGradient gradientUnits="userSpaceOnUse" x1="47.9995" x2="47.9995" y1="10.7285" y2="50.8138">
<stop offset="0" stop-color="#c25100"/>
<stop offset="1" stop-color="#a82400"/>
</linearGradient>
<path d="M 62.0 63.0 C 62.0 64.65 60.65 66.0 59.0 66.0 L 37.0 66.0 C 35.35 66.0 34.0 64.65 34.0 63.0 L 34.0 29.0 C 34.0 27.35 35.35 26.0 37.0 26.0 L 59.0 26.0 C 60.65 26.0 62.0 27.35 62.0 29.0 L 62.0 63.0 z " fill="#b63b00" fill-opacity="1"/>
<linearGradient gradientUnits="userSpaceOnUse" x1="47.9995" x2="47.9995" y1="-15.5259" y2="73.031">
<stop offset="0" stop-color="#c25100"/>
<stop offset="1" stop-color="#a82400"/>
</linearGradient>
<linearGradient gradientUnits="userSpaceOnUse" x1="48.0005" x2="48.0005" y1="47" y2="27">
<stop offset="0" stop-color="#fdfdfe" stop-opacity="0.06"/>
<stop offset="0.1" stop-color="#fdfdfe" stop-opacity="0.06"/>
<stop offset="1" stop-color="#fdfdfe" stop-opacity="0.25"/>
</linearGradient>
<linearGradient gradientUnits="userSpaceOnUse" x1="48.9995" x2="48.9995" y1="35" y2="57.0005">
<stop offset="0" stop-color="#fafcef"/>
<stop offset="0.3232" stop-color="#fafcef"/>
<stop offset="1" stop-color="#d0cbc5"/>
</linearGradient>
<path d="M 79.0 50.0 C 79.0 53.85 75.85 57.0 72.0 57.0 L 26.0 57.0 C 22.15 57.0 19.0 53.85 19.0 50.0 L 19.0 42.0 C 19.0 38.15 22.15 35.0 26.0 35.0 L 72.0 35.0 C 75.85 35.0 79.0 38.15 79.0 42.0 L 79.0 50.0 z " fill="#f8f8f8" fill-opacity="0.87234044"/>
<linearGradient gradientUnits="userSpaceOnUse" x1="48.9995" x2="48.9995" y1="40" y2="52.0005">
<stop offset="0" stop-color="#ec8624"/>
<stop offset="1" stop-color="#bf5619"/>
</linearGradient>
<path d="M 33.196 43.0 C 32.919 42.521 32.305 42.357 31.83 42.634 L 29.0 44.268 L 29.0 41.0 C 29.0 40.447 28.553 40.0 28.0 40.0 C 27.447 40.0 27.0 40.447 27.0 41.0 L 27.0 44.268 L 24.17 42.634003 C 23.691 42.358 23.08 42.521004 22.804 43.000004 C 22.528002 43.479004 22.692 44.090004 23.17 44.366005 L 26.0 46.0 L 23.17 47.634 C 22.691 47.91 22.527 48.522 22.804 49.0 C 22.990002 49.321 23.325 49.5 23.671 49.5 C 23.841002 49.5 24.013 49.457 24.170002 49.366 L 27.0 47.732 L 27.0 51.0 C 27.0 51.553 27.447 52.0 28.0 52.0 C 28.553 52.0 29.0 51.553 29.0 51.0 L 29.0 47.732 L 31.83 49.365997 C 31.987 49.456997 32.159 49.499996 32.329 49.499996 C 32.675 49.499996 33.010998 49.320995 33.196 48.999996 C 33.472 48.520996 33.308 47.909996 32.829998 47.633995 L 30.0 46.0 L 32.83 44.366 C 33.309 44.09 33.473 43.479 33.196 43.0 z M 47.196 43.0 C 46.919 42.521 46.305 42.357 45.83 42.634 L 43.0 44.268 L 43.0 41.0 C 43.0 40.447 42.553 40.0 42.0 40.0 C 41.447 40.0 41.0 40.447 41.0 41.0 L 41.0 44.268 L 38.17 42.634003 C 37.691 42.358 37.08 42.521004 36.803997 43.000004 C 36.527996 43.479004 36.692 44.090004 37.17 44.366005 L 40.0 46.0 L 37.17 47.634 C 36.691 47.91 36.526997 48.522 36.803997 49.0 C 36.99 49.321 37.324997 49.5 37.671 49.5 C 37.840996 49.5 38.012997 49.457 38.17 49.366 L 41.0 47.732 L 41.0 51.0 C 41.0 51.553 41.447 52.0 42.0 52.0 C 42.553 52.0 43.0 51.553 43.0 51.0 L 43.0 47.732 L 45.83 49.365997 C 45.987003 49.456997 46.159 49.499996 46.329 49.499996 C 46.675003 49.499996 47.011 49.320995 47.196003 48.999996 C 47.472004 48.520996 47.308 47.909996 46.83 47.633995 L 44.0 46.0 L 46.83 44.366 C 47.309 44.09 47.473 43.479 47.196 43.0 z M 61.196 43.0 C 60.919 42.521 60.305 42.357 59.83 42.634 L 57.0 44.268 L 57.0 41.0 C 57.0 40.447 56.553 40.0 56.0 40.0 C 55.447 40.0 55.0 40.447 55.0 41.0 L 55.0 44.268 L 52.17 42.634003 C 51.691 42.358 51.08 42.521004 50.803997 43.000004 C 50.527996 43.479004 50.692 44.090004 51.17 44.366005 L 54.0 46.0 L 51.17 47.634 C 50.691 47.91 50.526997 48.522 50.803997 49.0 C 50.99 49.321 51.324997 49.5 51.671 49.5 C 51.840996 49.5 52.012997 49.457 52.17 49.366 L 55.0 47.732 L 55.0 51.0 C 55.0 51.553 55.447 52.0 56.0 52.0 C 56.553 52.0 57.0 51.553 57.0 51.0 L 57.0 47.732 L 59.83 49.365997 C 59.987003 49.456997 60.159 49.499996 60.329 49.499996 C 60.675003 49.499996 61.011 49.320995 61.196003 48.999996 C 61.472004 48.520996 61.308 47.909996 60.83 47.633995 L 58.0 46.0 L 60.83 44.366 C 61.309 44.09 61.473 43.479 61.196 43.0 z M 74.83 47.634 L 72.0 46.0 L 74.83 44.366 C 75.309 44.09 75.473 43.478 75.196 43.0 C 74.919 42.521 74.305 42.357 73.83 42.634 L 71.0 44.268 L 71.0 41.0 C 71.0 40.447 70.553 40.0 70.0 40.0 C 69.447 40.0 69.0 40.447 69.0 41.0 L 69.0 44.268 L 66.17 42.634003 C 65.691 42.358 65.08 42.521004 64.804 43.000004 C 64.528 43.479004 64.692 44.090004 65.17 44.366005 L 68.0 46.0 L 65.17 47.634 C 64.691 47.91 64.527 48.522 64.804 49.0 C 64.99 49.321 65.325005 49.5 65.671 49.5 C 65.840996 49.5 66.013 49.457 66.17 49.366 L 69.0 47.732 L 69.0 51.0 C 69.0 51.553 69.447 52.0 70.0 52.0 C 70.553 52.0 71.0 51.553 71.0 51.0 L 71.0 47.732 L 73.83 49.365997 C 73.987 49.456997 74.159004 49.499996 74.329 49.499996 C 74.675 49.499996 75.011 49.320995 75.196 48.999996 C 75.473 48.521 75.309 47.91 74.83 47.634 z " fill="#e3833a" fill-opacity="1"/>
</svg>
