<?xml version="1.0" encoding="UTF-8"?>
<svg xmlns="http://www.w3.org/2000/svg" xmlns:xlink="http://www.w3.org/1999/xlink" baseProfile="tiny" contentScriptType="text/ecmascript" contentStyleType="text/css" height="96px" preserveAspectRatio="xMidYMid meet" version="1.1" viewBox="0 0 96 96" width="96px" x="0px" y="0px" zoomAndPan="magnify">
<defs>
<linearGradient id="linearGradient3817">
<stop offset="0" stop-color="#ffffff" stop-opacity="1"/>
<stop offset="1" stop-color="#ffffff" stop-opacity="0.78431374"/>
</linearGradient>
<linearGradient>
<stop offset="0" stop-color="#003aa0" stop-opacity="1"/>
<stop offset="1" stop-color="#003295" stop-opacity="1"/>
</linearGradient>
<linearGradient gradientTransform="matrix(0,1,-1,0,96,0)" gradientUnits="userSpaceOnUse" id="linearGradient3813" x1="8" x2="88" y1="48" y2="48">
<stop offset="0" stop-color="#003aa0" stop-opacity="1"/>
<stop offset="1" stop-color="#003295" stop-opacity="1"/>
</linearGradient>
<linearGradient gradientUnits="userSpaceOnUse" id="linearGradient3823" x1="47.50256" x2="47.50256" y1="24.406784" y2="72.417091">
<stop offset="0" stop-color="#ffffff" stop-opacity="1"/>
<stop offset="1" stop-color="#ffffff" stop-opacity="0.78431374"/>
</linearGradient>
<linearGradient gradientTransform="matrix(0,1,-1,0,96,0)" gradientUnits="userSpaceOnUse" id="linearGradient3827" x1="47.50256" x2="47.50256" y1="24.406784" y2="72.417091">
<stop offset="0" stop-color="#003aa0" stop-opacity="1"/>
<stop offset="1" stop-color="#003295" stop-opacity="1"/>
</linearGradient>
</defs>
<rect fill="none" height="96" width="96"/>
<path d="M 88.0 49.0 C 88.0 78.635 77.639 89.0 48.0 89.0 C 18.366 89.0 8.0 78.635 8.0 49.0 C 8.0 19.367 18.366 9.0 48.0 9.0 C 77.637 9.0 88.0 19.367 88.0 49.0 z " fill-opacity="0.4"/>
<linearGradient gradientTransform="matrix(1 0 0 1 -499 -744)" gradientUnits="userSpaceOnUse" x1="547" x2="547" y1="832" y2="752">
<stop offset="0" stop-color="#003d9d"/>
<stop offset="1" stop-color="#0078d0"/>
</linearGradient>
<path d="M 48.0 88.0 C 18.365 88.0 8.0 77.639 8.0 48.0 C 8.0 18.366 18.365 8.0 48.0 8.0 C 77.633 8.0 88.0 18.366 88.0 48.0 C 88.0 77.637 77.633 88.0 48.0 88.0 z " fill="url(#linearGradient3813)" fill-opacity="1"/>
<linearGradient gradientTransform="matrix(1 0 0 1 -305.0742 -1559.8408)" gradientUnits="userSpaceOnUse" id="SVGID_2_" x1="353.0742" x2="353.0742" y1="1568.0938" y2="1647.34">
<stop offset="0" stop-color="#ffffff"/>
<stop offset="1" stop-color="#ffffff" stop-opacity="0"/>
</linearGradient>
<path d="M 48.0 8.0 C 18.366 8.0 8.0 18.367 8.0 48.0 C 8.0 77.635 18.366 88.0 48.0 88.0 C 77.639 88.0 88.0 77.635 88.0 48.0 C 88.0 18.367 77.637 8.0 48.0 8.0 z M 48.0 87.0 C 18.842 87.0 9.0 77.158 9.0 48.0 C 9.0 18.842005 18.842 9.0 48.0 9.0 C 77.159 9.0 87.0 18.842 87.0 48.0 C 87.0 77.158005 77.159 87.0 48.0 87.0 z " fill="url(#SVGID_2_)" fill-opacity="0.15"/>
<path d="M 39.139 32.286 C 39.348 31.641 39.294 30.955 38.986 30.349998 C 38.676 29.745998 38.155 29.298998 37.51 29.093 L 27.02 25.683 C 26.77 25.602 26.508 25.561998 26.244 25.561998 C 25.143 25.561998 24.173 26.263998 23.831 27.311998 C 23.625 27.954 23.679 28.639996 23.984 29.245 C 24.294 29.849 24.817 30.296 25.459 30.505 L 33.387 33.080997 L 23.533 33.080997 C 22.136002 33.080997 20.999 34.218 20.999 35.615 C 20.999 37.011997 22.136 38.149 23.533 38.149 L 33.387 38.149 L 25.458 40.725 C 24.131 41.156 23.4 42.591 23.831 43.92 C 24.172 44.967 25.142 45.669 26.243 45.669 C 26.508 45.669 26.77 45.629 27.027 45.546997 L 37.511 42.137997 C 38.156 41.930996 38.677 41.483 38.986 40.879 C 39.294 40.274 39.348 39.587997 39.138 38.942 C 38.895 38.193996 38.327 37.621 37.622 37.356 C 38.055 36.902 38.319 36.29 38.319 35.614 C 38.319 34.938 38.055 34.326 37.622 33.872 C 38.328 33.609 38.896 33.035 39.139 32.286 z M 72.466 33.082 L 62.612003 33.082 L 70.539 30.506 C 71.188 30.297 71.713005 29.849 72.015 29.245 C 72.325 28.64 72.377 27.953 72.168 27.314 C 71.833 26.264002 70.867 25.562 69.763 25.562 C 69.5 25.562 69.238 25.602 68.98 25.684 L 58.495003 29.093 C 57.851 29.299 57.327003 29.747 57.019 30.351 C 56.709 30.956 56.656 31.643 56.865 32.285 C 57.109 33.035 57.672 33.61 58.383003 33.875 C 57.952003 34.329 57.69 34.941 57.69 35.617 C 57.69 36.293 57.954 36.905 58.383003 37.359 C 57.674004 37.624 57.112003 38.198 56.865 38.946003 C 56.656 39.592003 56.711 40.279003 57.017 40.882004 C 57.327003 41.487003 57.851 41.935005 58.495003 42.141003 L 68.984 45.551003 C 69.238 45.632004 69.501 45.672 69.763 45.672 C 70.867 45.672 71.832 44.97 72.168 43.923 C 72.377 43.28 72.323 42.59 72.017 41.99 C 71.713 41.385 71.188995 40.937 70.539 40.728 L 62.612 38.152 L 72.466 38.152 C 73.86201 38.152 75.0 37.015 75.0 35.618 C 75.0 34.221 73.859 33.082 72.466 33.082 z " fill-opacity="0.05"/>
<path d="M 36.727 37.758 C 36.523003 37.758 36.319 37.79 36.118 37.855 L 25.635 41.261 C 24.602 41.596996 24.033 42.711 24.369 43.745 C 24.634 44.559 25.386 45.107 26.244 45.107 C 26.451 45.107 26.653 45.074997 26.853 45.01 L 37.338997 41.604 C 37.838997 41.442 38.244995 41.094 38.484997 40.624 C 38.722996 40.154 38.767 39.62 38.604996 39.12 C 38.338 38.306 37.584 37.758 36.727 37.758 z M 37.754 35.616 C 37.754 34.530003 36.871 33.644 35.785 33.644 L 23.534 33.644 C 22.448 33.644 21.562 34.530003 21.562 35.616 C 21.562 36.702 22.448 37.588 23.534 37.588 L 35.785 37.588 C 36.871 37.588 37.754 36.702 37.754 35.616 z M 59.273 33.474 C 59.478 33.474 59.683 33.441998 59.877 33.377 L 70.362 29.971 C 70.868 29.808998 71.27 29.461998 71.51 28.992 C 71.747 28.520998 71.79 27.988 71.627 27.489998 C 71.364 26.673998 70.611 26.125998 69.757 26.125998 C 69.55299 26.125998 69.348 26.156998 69.147 26.222998 L 58.660995 29.628998 C 58.161995 29.790998 57.75399 30.138 57.512997 30.607998 C 57.276997 31.079 57.233997 31.611998 57.395996 32.109997 C 57.66 32.926 58.418 33.474 59.273 33.474 z M 37.338 29.628 L 26.849 26.221 C 26.651 26.156 26.45 26.125 26.244 26.125 C 25.386002 26.125 24.635002 26.673 24.369 27.488 C 24.207 27.988 24.248 28.521 24.486002 28.991 C 24.726002 29.461 25.134005 29.809002 25.635002 29.97 L 36.123 33.377003 C 36.319 33.442 36.523003 33.473003 36.727 33.473003 C 37.585003 33.473003 38.339 32.925003 38.604 32.110004 C 38.766 31.610004 38.722 31.077003 38.484 30.607004 C 38.244 30.137 37.838 29.79 37.338 29.628 z M 72.466 33.645 L 60.219 33.645 C 59.129 33.645 58.243 34.531 58.243 35.617 C 58.243 36.703 59.129 37.589 60.219 37.589 L 72.466 37.589 C 73.55701 37.589 74.436005 36.703 74.436005 35.617 C 74.436005 34.531 73.557 33.645 72.466 33.645 z M 70.365 41.262 L 59.876 37.855 C 59.684 37.79 59.48 37.759 59.273 37.759 C 58.419 37.759 57.662 38.307 57.396 39.121 C 57.234 39.621 57.277 40.155 57.513 40.625 C 57.754 41.096 58.162 41.443 58.661 41.605 L 69.149 45.012 C 69.348 45.077 69.551 45.108 69.756004 45.108 C 70.61201 45.108 71.364006 44.56 71.62701 43.746 C 71.79001 43.246 71.74701 42.712 71.51001 42.242 C 71.271 41.771 70.87 41.423 70.365 41.262 z " fill-opacity="0.05"/>
<path d="M 37.192 35.616 C 37.192 34.841 36.56 34.209 35.785 34.209 L 23.534 34.209 C 22.759 34.209 22.127 34.84 22.127 35.616 C 22.127 36.392 22.758 37.023003 23.534 37.023003 L 35.785 37.023003 C 36.56 37.023 37.192 36.392 37.192 35.616 z M 59.273 32.909 C 59.421 32.909 59.562 32.886 59.706997 32.842 L 70.19299 29.436 C 70.550995 29.318 70.839 29.071 71.008 28.735 C 71.183 28.398998 71.21 28.019 71.09499 27.659998 C 70.90599 27.077995 70.367 26.685995 69.758995 26.685995 C 69.61299 26.685995 69.464 26.708998 69.31999 26.755997 L 58.840992 30.161997 C 58.48299 30.279997 58.187992 30.526997 58.019993 30.862995 C 57.849995 31.195995 57.816994 31.578997 57.93199 31.934998 C 58.122 32.521 58.659 32.909 59.273 32.909 z M 36.727 38.323 C 36.581 38.323 36.434 38.346 36.293003 38.390003 L 25.806004 41.796 C 25.068005 42.038 24.664003 42.834 24.903004 43.573 C 25.092005 44.154003 25.632004 44.546 26.243004 44.546 C 26.389004 44.546 26.536003 44.523003 26.677004 44.476 L 37.164005 41.070004 C 37.902004 40.831005 38.306004 40.035004 38.06601 39.293003 C 37.877 38.711 37.34 38.323 36.727 38.323 z M 72.466 34.209 L 60.219 34.209 C 59.442 34.209 58.809 34.84 58.809 35.616 C 58.809 36.392 59.442 37.023003 60.219 37.023003 L 72.466 37.023003 C 73.244 37.023003 73.87601 36.392 73.87601 35.616 C 73.876 34.84 73.244 34.209 72.466 34.209 z M 37.163 30.163 L 26.675 26.756 C 26.536 26.71 26.389 26.687 26.243 26.687 C 25.632 26.687 25.092 27.078 24.903 27.66 C 24.664 28.398 25.068 29.194 25.806 29.436 L 36.293 32.843002 C 36.433 32.886 36.58 32.909004 36.726 32.909004 C 37.339996 32.909004 37.877 32.520004 38.066 31.936005 C 38.306 31.198 37.901 30.402 37.163 30.163 z M 70.193 41.796 L 59.706 38.39 C 59.562 38.347 59.423 38.323997 59.273003 38.323997 C 58.660004 38.323997 58.123 38.712997 57.931004 39.296997 C 57.816 39.652996 57.849003 40.035995 58.017 40.368996 C 58.187 40.70499 58.480003 40.951996 58.839 41.069996 L 69.319 44.476997 C 69.463 44.523 69.608 44.546 69.757 44.546 C 70.366005 44.546 70.90301 44.154 71.094 43.573 C 71.209 43.213997 71.182 42.834 71.007 42.497997 C 70.841 42.162 70.553 41.914 70.193 41.796 z " fill-opacity="0.07"/>
<path d="M 61.025 71.064 C 60.978 70.468 60.501003 66.224 60.258003 64.157005 C 60.154003 63.183006 59.716003 62.33701 59.023003 61.748005 L 57.406 41.71901 C 58.116 41.263004 58.558 40.471004 58.558 39.615005 L 58.558 38.280006 C 58.558 37.484005 58.174004 36.73901 57.541004 36.272007 L 57.541004 34.848007 C 58.090004 34.37401 58.411003 33.68401 58.411003 32.953007 L 58.411003 31.618008 C 58.411003 30.566008 57.765003 29.645008 56.806004 29.282007 C 55.752 25.273 52.171 22.5 48.0 22.5 C 43.83 22.5 40.249 25.273 39.193 29.279 C 38.233 29.642 37.586 30.563 37.586 31.616 L 37.586 32.951 C 37.586 33.684 37.908 34.374 38.458004 34.847 L 38.458004 36.264 C 37.824005 36.731 37.44 37.478 37.44 38.277 L 37.44 39.612 C 37.44 40.466 37.885 41.257 38.598003 41.713 L 36.976 61.747 C 36.276 62.338 35.849003 63.17 35.736 64.169 C 35.729 64.230995 35.032 70.336 34.973 71.066 C 34.88 72.308 35.234 73.398 35.997 74.218 C 36.783997 75.068 37.865997 75.497 39.212 75.497 L 46.711 75.497 C 47.166 75.497 47.611 75.371 48.0 75.138 C 48.388 75.371 48.834 75.497 49.289 75.497 L 56.791 75.497 C 58.139 75.497 59.221 75.065 60.008 74.213005 C 60.964 73.18 61.089 71.932 61.025 71.064 z " fill-opacity="0.02"/>
<path d="M 60.525 71.104 C 60.480003 70.518 59.997 66.22099 59.761 64.211 C 59.66 63.286 59.232 62.514 58.542 62.004997 L 56.88 41.435997 C 57.582 41.117996 58.058 40.409996 58.058 39.613 L 58.058 38.278 C 58.058 37.55 57.662003 36.891 57.041004 36.54 L 57.041004 34.601 C 57.578003 34.231003 57.911003 33.614 57.911003 32.951 L 57.911003 31.616 C 57.911003 30.674002 57.266003 29.886002 56.388004 29.673 C 55.493 25.785 52.021 23.0 48.0 23.0 C 43.98 23.0 40.508 25.785 39.611 29.672 C 38.73 29.884 38.086 30.673 38.086 31.616 L 38.086 32.951 C 38.086 33.615 38.419 34.233 38.958 34.602 L 38.958 36.536003 C 38.337 36.886 37.94 37.547005 37.94 38.278004 L 37.94 39.613003 C 37.94 40.405003 38.417 41.112003 39.122 41.431004 L 37.455997 62.004005 C 36.768997 62.51001 36.338997 63.28101 36.232 64.227005 C 36.114 65.26 35.524 70.453 35.470997 71.10401 C 35.387997 72.206 35.697 73.166 36.362995 73.880005 C 37.052 74.623 38.01 75.0 39.212 75.0 L 46.711 75.0 C 47.187004 75.0 47.643 74.827 48.000004 74.527 C 48.356003 74.827 48.812004 75.0 49.289005 75.0 L 56.791004 75.0 C 57.992004 75.0 58.951004 74.622 59.641003 73.877 C 60.477 72.973 60.583 71.869 60.525 71.104 z " fill-opacity="0.05"/>
<path d="M 60.027 71.143 C 59.982 70.563 59.5 66.273994 59.265 64.266 C 59.17 63.403 58.738 62.698997 58.064 62.287 L 56.351 41.086 C 57.039 40.948997 57.558 40.342 57.558 39.615 L 57.558 38.28 C 57.558 37.625 57.136 37.067 56.541 36.863 L 56.541 34.314 C 57.06 34.073997 57.411 33.548 57.411 32.953 L 57.411 31.618 C 57.411 30.81 56.768 30.15 55.97 30.119 C 55.26 26.315 51.907 23.5 48.0 23.5 C 44.093 23.5 40.741 26.315 40.028 30.117 C 39.228 30.147 38.586 30.808 38.586 31.616 L 38.586 32.951 C 38.586 33.548 38.94 34.073 39.458 34.313 L 39.458 36.857 C 38.867 37.058 38.44 37.619 38.44 38.276997 L 38.44 39.611996 C 38.44 40.332996 38.952 40.936996 39.652 41.078995 L 37.935 62.283997 C 37.262 62.694996 36.829 63.397995 36.732 64.252 C 36.726 64.305 36.026 70.44 35.97 71.141 C 35.898003 72.1 36.161003 72.93 36.73 73.54 C 37.32 74.177 38.155 74.499 39.212 74.499 L 46.711 74.499 C 47.258 74.499 47.737 74.205 48.0 73.768 C 48.262 74.206 48.742 74.499 49.289 74.499 L 56.791 74.499 C 57.848 74.499 58.682 74.176 59.273 73.536 C 59.986 72.764 60.077 71.807 60.027 71.143 z M 48.064 34.451 L 48.064 36.778 L 48.02 36.778 L 48.02 34.451 L 48.064 34.451 z " fill-opacity="0.05"/>
<path d="M 59.527 71.18 C 59.484 70.606 58.996 66.268 58.767 64.319 C 58.681004 63.52 58.247 62.899 57.586 62.598 L 55.82 40.79 C 55.822 40.663 55.841 40.608 55.847 40.608 C 55.849 40.608 55.851 40.61 55.851 40.613003 L 56.058 40.613003 C 56.609 40.613003 57.058 40.164 57.058 39.613003 L 57.058 38.278004 C 57.058 37.727005 56.609 37.278004 56.058 37.278004 L 56.041004 37.278004 L 56.041004 33.943005 C 56.53101 33.879005 56.911003 33.459003 56.911003 32.951004 L 56.911003 31.616005 C 56.911003 31.065004 56.463 30.616005 55.911003 30.616005 L 55.543003 30.616005 C 55.052 26.871 51.823 24.0 48.0 24.0 C 44.177 24.0 40.949 26.871 40.455 30.616 L 40.086 30.616 C 39.535004 30.616 39.086 31.065 39.086 31.616 L 39.086 32.951 C 39.086 33.459 39.467003 33.88 39.958004 33.943 L 39.958004 37.278 L 39.94 37.278 C 39.389 37.278 38.94 37.727 38.94 38.278 L 38.94 39.613 C 38.94 40.164 39.389 40.613 39.941 40.613 L 40.16 40.599 C 40.16 40.599 40.181 40.636997 40.184 40.703 L 38.412 62.598 C 37.752 62.899 37.319 63.518 37.229 64.312996 C 37.222 64.37499 36.525 70.487 36.469 71.17799 C 36.408 71.993 36.625 72.69399 37.097 73.2 C 37.589 73.73 38.301 74.0 39.212 74.0 L 46.711 74.0 C 47.262 74.0 47.711 73.552 47.711 73.0 L 47.711 68.32 L 48.288 68.32 L 48.288 73.0 C 48.288 73.552 48.736004 74.0 49.288 74.0 L 56.79 74.0 C 57.701 74.0 58.412003 73.73 58.904 73.198 C 59.499 72.557 59.57 71.744 59.527 71.18 z M 43.33 37.278 L 43.33 33.951 L 44.148003 33.951 L 44.148003 37.278 L 43.33 37.278 z M 48.564 33.951 L 48.564 37.278 L 47.52 37.278 L 47.52 33.951 L 48.564 33.951 z M 51.936 37.278 L 51.936 33.951 L 52.649 33.951 L 52.649 37.278 L 51.936 37.278 z " fill-opacity="0.07"/>
<path d="M 59.029 71.216 C 58.986 70.653 58.501 66.33501 58.271 64.372 C 58.191 63.644 57.753 63.126003 57.115 62.959003 L 55.32 40.788 C 55.323 40.334 55.492 40.126 55.851 40.114 L 56.058 40.114 C 56.333 40.114 56.558 39.89 56.558 39.614 L 56.558 38.279 C 56.558 38.003 56.333 37.779 56.058 37.779 L 55.541 37.779 L 55.541 33.452 L 55.911 33.452 C 56.186 33.452 56.411 33.228 56.411 32.952 L 56.411 31.617 C 56.411 31.341002 56.186 31.117 55.911 31.117 L 55.091 31.117 C 54.836 27.425 51.753 24.5 48.0 24.5 C 44.248 24.5 41.165 27.425 40.907 31.116 L 40.086 31.116 C 39.81 31.116 39.586 31.340002 39.586 31.616 L 39.586 32.951 C 39.586 33.227 39.81 33.451 40.086 33.451 L 40.458004 33.451 L 40.458004 37.778 L 39.94 37.778 C 39.664 37.778 39.44 38.002 39.44 38.278 L 39.44 39.613 C 39.44 39.889 39.664 40.113 39.94 40.113 L 40.128 40.113 C 40.504997 40.126 40.676 40.335 40.683 40.745 L 38.884 62.959 C 38.245 63.126 37.807 63.645 37.725 64.37 C 37.696 64.622 37.021 70.552 36.967 71.216 C 36.917 71.889 37.089 72.458 37.462997 72.86201 C 37.857 73.28701 38.444996 73.50201 39.212 73.50201 L 46.711 73.50201 C 46.987 73.50201 47.211 73.27801 47.211 73.00201 L 47.211 67.82 L 48.788 67.82 L 48.788 73.0 C 48.788 73.275 49.011997 73.5 49.288 73.5 L 56.789997 73.5 C 57.556995 73.5 58.143997 73.284 58.538 72.859 C 59.01 72.35 59.064 71.684 59.029 71.216 z M 51.436 37.778 L 51.436 33.451 L 53.149 33.451 L 53.149 37.778 L 51.436 37.778 z M 49.064 33.451 L 49.064 37.778 L 47.02 37.778 L 47.02 33.451 L 49.064 33.451 z M 42.83 37.778 L 42.83 33.451 L 44.648003 33.451 L 44.648003 37.778 L 42.83 37.778 z " fill-opacity="0.1"/>
<linearGradient gradientTransform="matrix(1 0 0 -1 -249.5 -276)" gradientUnits="userSpaceOnUse" x1="297.5" x2="297.5" y1="-360.3633" y2="-300.1414">
<stop offset="0" stop-color="#d0cbc5"/>
<stop offset="0.5031" stop-color="#fafcef"/>
<stop offset="0.9693" stop-color="#ffffff"/>
<stop offset="1" stop-color="#ffffff"/>
</linearGradient>
<path d="M 58.529 70.253 C 58.49 69.716 58.008 65.43 57.773 63.427 C 57.706 62.801 57.297 62.403 56.648 62.403 L 54.82 39.786 C 54.826 38.731 55.586 38.623 55.851 38.614 L 56.058 38.614 L 56.058 37.279 L 55.041 37.279 L 55.041 31.952 L 55.911 31.952 L 55.911 30.617 L 54.608 30.617 C 54.609 26.965 51.65 24.0 48.0 24.0 C 44.349 24.0 41.39 26.965 41.39 30.616 L 40.086 30.616 L 40.086 31.951 L 40.958 31.951 L 40.958 37.278 L 39.94 37.278 L 39.94 38.613 L 40.146 38.613 C 40.414 38.622 41.17 38.73 41.182 39.785 L 39.35 62.4 C 38.704 62.4 38.293 62.799 38.222 63.425003 C 37.994 65.427 37.51 69.714005 37.466 70.25101 C 37.413 70.963005 37.63 72.00001 39.212 72.00001 C 39.573997 72.00001 43.398 72.00001 46.711 72.00001 L 46.711 66.32001 L 49.288 66.32001 L 49.288 72.0 C 52.601 72.0 56.424 72.0 56.789997 72.0 C 58.37 72.0 58.586 70.963 58.528996 70.253 z M 53.648 31.951 L 53.648 37.278 L 50.935 37.278 L 50.935 31.951 L 53.648 31.951 z M 45.148 31.951 L 45.148 37.278 L 42.33 37.278 L 42.33 31.951 L 45.148003 31.951 z M 46.520004 37.278 L 46.520004 31.951 L 49.564003 31.951 L 49.564003 37.278 L 46.52 37.278 z M 26.243 42.856 C 25.885 42.856 25.556 42.628 25.438 42.27 C 25.295 41.829 25.538 41.352 25.982 41.207 L 36.468 37.801003 C 36.911003 37.656 37.385 37.901 37.532 38.342003 C 37.675003 38.786003 37.432003 39.263004 36.988003 39.409004 L 26.505005 42.815 C 26.416002 42.842003 26.329002 42.856003 26.243004 42.856003 z M 36.63 34.489 C 36.63 34.025 36.25 33.644997 35.785 33.644997 L 23.534 33.644997 C 23.067 33.644997 22.689 34.025 22.689 34.489 C 22.689 34.956997 23.066002 35.334 23.534 35.334 L 35.785 35.334 C 36.25 35.333 36.63 34.957 36.63 34.489 z M 37.532 30.637 C 37.675003 30.193 37.432003 29.716 36.988003 29.573 L 26.505 26.167 C 26.06 26.022 25.585 26.264 25.438 26.708 C 25.295 27.152 25.538 27.629 25.982 27.774 L 36.468 31.18 C 36.554 31.208 36.641003 31.22 36.727 31.22 C 37.084 31.22 37.417 30.995 37.532 30.637 z M 70.562 42.271 C 70.708 41.83 70.462 41.353 70.021 41.208 L 59.536 37.802 C 59.089 37.657 58.613 37.900997 58.474 38.343 C 58.328 38.787 58.566 39.264 59.013 39.41 L 69.5 42.816 C 69.583 42.844 69.672 42.858 69.762 42.858 C 70.111 42.856003 70.447 42.629 70.56201 42.271 z M 73.311005 34.489 C 73.311005 34.025 72.934006 33.644997 72.466 33.644997 L 60.219 33.644997 C 59.751003 33.644997 59.374 34.025 59.374 34.489 C 59.374 34.956997 59.751 35.334 60.219 35.334 L 72.466 35.334 C 72.934006 35.333 73.311005 34.957 73.311005 34.489 z M 59.535 31.18 L 70.021 27.774 C 70.461006 27.628 70.707 27.152 70.560005 26.708 C 70.41501 26.265 69.94301 26.023 69.49801 26.167 L 59.01301 29.573 C 58.56601 29.716 58.326008 30.193 58.472008 30.637 C 58.586006 30.995 58.91501 31.22 59.27501 31.22 C 59.35501 31.22 59.445007 31.208 59.535007 31.179998 z " fill="url(#linearGradient3827)" fill-opacity="1"/>
<path d="M 58.529 70.253 C 58.49 69.716 58.008 65.43 57.773 63.427 C 57.706 62.801 57.297 62.403 56.648 62.403 L 54.82 39.786 C 54.826 38.731 55.586 38.623 55.851 38.614 L 56.058 38.614 L 56.058 37.279 L 55.041 37.279 L 55.041 31.952 L 55.911 31.952 L 55.911 30.617 L 54.608 30.617 C 54.609 26.965 51.65 24.0 48.0 24.0 C 44.349 24.0 41.39 26.965 41.39 30.616 L 40.086 30.616 L 40.086 31.951 L 40.958 31.951 L 40.958 37.278 L 39.94 37.278 L 39.94 38.613 L 40.146 38.613 C 40.414 38.622 41.17 38.73 41.182 39.785 L 39.35 62.4 C 38.704 62.4 38.293 62.799 38.222 63.425003 C 37.994 65.427 37.51 69.714005 37.466 70.25101 C 37.413 70.963005 37.63 72.00001 39.212 72.00001 C 39.573997 72.00001 43.398 72.00001 46.711 72.00001 L 46.711 66.32001 L 49.288 66.32001 L 49.288 72.0 C 52.601 72.0 56.424 72.0 56.789997 72.0 C 58.37 72.0 58.586 70.963 58.528996 70.253 z M 53.648 31.951 L 53.648 37.278 L 50.935 37.278 L 50.935 31.951 L 53.648 31.951 z M 45.148 31.951 L 45.148 37.278 L 42.33 37.278 L 42.33 31.951 L 45.148003 31.951 z M 46.520004 37.278 L 46.520004 31.951 L 49.564003 31.951 L 49.564003 37.278 L 46.52 37.278 z M 26.243 42.856 C 25.885 42.856 25.556 42.628 25.438 42.27 C 25.295 41.829 25.538 41.352 25.982 41.207 L 36.468 37.801003 C 36.911003 37.656 37.385 37.901 37.532 38.342003 C 37.675003 38.786003 37.432003 39.263004 36.988003 39.409004 L 26.505005 42.815 C 26.416002 42.842003 26.329002 42.856003 26.243004 42.856003 z M 36.63 34.489 C 36.63 34.025 36.25 33.644997 35.785 33.644997 L 23.534 33.644997 C 23.067 33.644997 22.689 34.025 22.689 34.489 C 22.689 34.956997 23.066002 35.334 23.534 35.334 L 35.785 35.334 C 36.25 35.333 36.63 34.957 36.63 34.489 z M 37.532 30.637 C 37.675003 30.193 37.432003 29.716 36.988003 29.573 L 26.505 26.167 C 26.06 26.022 25.585 26.264 25.438 26.708 C 25.295 27.152 25.538 27.629 25.982 27.774 L 36.468 31.18 C 36.554 31.208 36.641003 31.22 36.727 31.22 C 37.084 31.22 37.417 30.995 37.532 30.637 z M 70.562 42.271 C 70.708 41.83 70.462 41.353 70.021 41.208 L 59.536 37.802 C 59.089 37.657 58.613 37.900997 58.474 38.343 C 58.328 38.787 58.566 39.264 59.013 39.41 L 69.5 42.816 C 69.583 42.844 69.672 42.858 69.762 42.858 C 70.111 42.856003 70.447 42.629 70.56201 42.271 z M 73.311005 34.489 C 73.311005 34.025 72.934006 33.644997 72.466 33.644997 L 60.219 33.644997 C 59.751003 33.644997 59.374 34.025 59.374 34.489 C 59.374 34.956997 59.751 35.334 60.219 35.334 L 72.466 35.334 C 72.934006 35.333 73.311005 34.957 73.311005 34.489 z M 59.535 31.18 L 70.021 27.774 C 70.461006 27.628 70.707 27.152 70.560005 26.708 C 70.41501 26.265 69.94301 26.023 69.49801 26.167 L 59.01301 29.573 C 58.56601 29.716 58.326008 30.193 58.472008 30.637 C 58.586006 30.995 58.91501 31.22 59.27501 31.22 C 59.35501 31.22 59.445007 31.208 59.535007 31.179998 z " fill="url(#linearGradient3823)" fill-opacity="1"/>
<linearGradient gradientTransform="matrix(1 0 0 -1 -249.5 -276)" gradientUnits="userSpaceOnUse" id="SVGID_4_" x1="297.5" x2="297.5" y1="-347.9995" y2="-302.4629">
<stop offset="0" stop-color="#000000"/>
<stop offset="1" stop-color="#000000" stop-opacity="0"/>
</linearGradient>
<path d="M 55.913 30.951 L 55.913 31.951 L 55.043 31.951 L 55.043 30.951 L 55.913 30.951 z M 40.958 30.951 L 40.086 30.951 L 40.086 31.951 L 40.958 31.951 L 40.958 30.951 z M 55.854 38.613 L 56.059 38.613 L 56.059 37.613 L 55.854 37.613 C 55.586 37.622 54.828 37.73 54.823 38.785 L 54.872 39.389 C 55.039 38.706 55.624 38.621 55.854 38.613 z M 42.33 30.951 L 42.33 31.951 L 45.148003 31.951 L 45.148003 30.951 L 42.33 30.951 z M 50.936 30.951 L 50.936 31.951 L 53.649 31.951 L 53.649 30.951 L 50.936 30.951 z M 41.132 39.396 L 41.181 38.786 C 41.169 37.731 40.412 37.623 40.145 37.614 L 39.94 37.614 L 39.94 38.614 L 40.146 38.614 C 40.375 38.621 40.962 38.706 41.132 39.396 z M 59.273 31.22 C 59.355 31.22 59.445 31.208 59.535 31.179998 L 70.021 27.773998 C 70.461 27.627998 70.70699 27.152 70.56 26.707998 C 70.531 26.616 70.48 26.537998 70.423 26.464998 C 70.322 26.600998 70.19299 26.717 70.021 26.774998 L 59.535 30.18 C 59.445 30.208 59.355 30.22 59.273 30.22 C 59.007 30.22 58.759 30.096 58.601 29.887 C 58.448997 30.098 58.383 30.369 58.471996 30.637 C 58.587 30.995 58.916 31.22 59.273 31.22 z M 46.52 30.951 L 46.52 31.951 L 49.564 31.951 L 49.564 30.951 L 46.52 30.951 z M 25.982 27.774 L 36.468 31.18 C 36.554 31.208 36.641003 31.22 36.727 31.22 C 37.085003 31.22 37.417 30.995 37.532 30.637 C 37.618 30.369 37.552 30.099 37.399 29.888 C 37.24 30.096 36.991 30.22 36.727 30.22 C 36.642 30.22 36.554 30.208002 36.468 30.18 L 25.982002 26.774 C 25.808002 26.717 25.678 26.6 25.577002 26.463 C 25.521002 26.537 25.469002 26.613998 25.438002 26.707 C 25.295 27.152 25.538 27.628 25.982 27.774 z M 69.76 41.856 C 69.671005 41.856 69.582 41.841 69.499 41.814 L 59.014 38.408 C 58.838 38.351 58.708 38.235 58.608 38.098 C 58.553 38.171 58.504 38.249 58.473003 38.341 C 58.327003 38.785 58.567005 39.262 59.014004 39.408 L 69.499 42.814 C 69.582 42.842 69.671 42.856 69.76 42.856 C 70.114 42.856 70.448006 42.628 70.563 42.27 C 70.651 42.003 70.58401 41.733 70.43 41.521 C 70.27 41.731 70.021 41.856 69.76 41.856 z M 72.466 34.333 L 60.219 34.333 C 59.944 34.333 59.710003 34.193 59.557003 33.989 C 59.451004 34.130997 59.374004 34.297997 59.374004 34.489 C 59.374004 34.956997 59.751003 35.334 60.21901 35.334 L 72.466 35.334 C 72.934006 35.334 73.311005 34.957 73.311005 34.489 C 73.311005 34.299 73.23701 34.130997 73.129005 33.989 C 72.975 34.193 72.742 34.333 72.466 34.333 z M 58.493 69.863 C 58.371 70.439 57.95 71.0 56.79 71.0 C 56.424 71.0 52.602 71.0 49.288 71.0 L 49.288 72.0 C 52.601 72.0 56.424004 72.0 56.79 72.0 C 58.370003 72.0 58.586 70.963 58.529 70.253 C 58.525 70.184 58.512 70.047 58.493 69.863 z M 37.532 38.341 C 37.501003 38.249 37.449 38.171 37.393 38.097 C 37.292 38.234 37.162003 38.35 36.988003 38.408 L 26.505005 41.814 C 26.416002 41.842 26.329002 41.856 26.243004 41.856 C 25.979004 41.856 25.732004 41.731 25.572004 41.522 C 25.418003 41.733 25.352003 42.004 25.438004 42.27 C 25.556004 42.628 25.885004 42.856 26.243004 42.856 C 26.328005 42.856 26.416004 42.841 26.505005 42.814 L 36.988003 39.408 C 37.432 39.262 37.674 38.786 37.532 38.341 z M 36.63 34.489 C 36.63 34.299 36.555 34.130997 36.447 33.989 C 36.292004 34.192997 36.059 34.333 35.785004 34.333 L 23.534 34.333 C 23.258 34.333 23.025 34.193 22.871 33.989 C 22.764 34.130997 22.689 34.297997 22.689 34.489 C 22.689 34.956997 23.066002 35.334 23.534 35.334 L 35.785 35.334 C 36.25 35.333 36.63 34.957 36.63 34.489 z M 37.504 69.861 C 37.485 70.046 37.471 70.181 37.465 70.253 C 37.413 70.963 37.63 72.0 39.212 72.0 C 39.574 72.0 43.398003 72.0 46.711 72.0 L 46.711 71.0 C 43.398003 71.0 39.575 71.0 39.212 71.0 C 38.05 71.0 37.627 70.439 37.504 69.861 z M 49.288 65.32 L 46.711 65.32 L 46.711 66.32 L 49.288 66.32 L 49.288 65.32 z " fill="url(#SVGID_4_)" fill-opacity="0.06"/>
</svg>
