<?xml version="1.0" encoding="UTF-8"?>
<svg xmlns="http://www.w3.org/2000/svg" xmlns:xlink="http://www.w3.org/1999/xlink" baseProfile="tiny" contentScriptType="text/ecmascript" contentStyleType="text/css" height="96px" preserveAspectRatio="xMidYMid meet" version="1.1" viewBox="0 0 96 96" width="96px" x="0px" y="0px" zoomAndPan="magnify">
<defs>
<linearGradient id="linearGradient3955">
<stop offset="0" stop-color="#ffc959" stop-opacity="1"/>
<stop offset="1" stop-color="#ffb636" stop-opacity="1"/>
</linearGradient>
<linearGradient gradientTransform="matrix(0,1,-1,0,96,0)" gradientUnits="userSpaceOnUse" id="linearGradient3961" x1="8" x2="88" y1="48" y2="48">
<stop offset="0" stop-color="#ffc959" stop-opacity="1"/>
<stop offset="1" stop-color="#ffb636" stop-opacity="1"/>
</linearGradient>
</defs>
<path d="M 88.0 49.0 C 88.0 78.633 77.637 89.0 48.0 89.0 C 18.365 89.0 8.0 78.633 8.0 49.0 C 8.0 19.365 18.365 9.0 48.0 9.0 C 77.637 9.0 88.0 19.365 88.0 49.0 z " fill-opacity="0.4"/>
<rect fill="none" height="96" width="96"/>
<linearGradient gradientTransform="matrix(1 0 0 1 193.9253 -815.8408)" gradientUnits="userSpaceOnUse" x1="-145.9253" x2="-145.9253" y1="824.3857" y2="905.0801">
<stop offset="0" stop-color="#f9d641"/>
<stop offset="1" stop-color="#d68612"/>
</linearGradient>
<path d="M 48.0 88.0 C 18.366 88.0 8.0 77.639 8.0 48.0 C 8.0 18.365 18.366 8.0 48.0 8.0 C 77.63401 8.0 88.0 18.365 88.0 48.0 C 88.0 77.637 77.634 88.0 48.0 88.0 z " fill="url(#linearGradient3961)" fill-opacity="1"/>
<linearGradient gradientTransform="matrix(1 0 0 1 193.9253 -815.8408)" gradientUnits="userSpaceOnUse" id="SVGID_2_" x1="-145.9253" x2="-145.9253" y1="824.0938" y2="903.3385">
<stop offset="0" stop-color="#ffffff"/>
<stop offset="1" stop-color="#ffffff" stop-opacity="0"/>
</linearGradient>
<path d="M 48.0 8.0 C 18.365 8.0 8.0 18.366 8.0 48.0 C 8.0 77.634 18.365 88.0 48.0 88.0 C 77.639 88.0 88.0 77.634 88.0 48.0 C 88.0 18.365995 77.637 8.0 48.0 8.0 z M 48.0 87.0 C 18.842 87.0 9.0 77.158 9.0 48.0 C 9.0 18.842005 18.842 9.0 48.0 9.0 C 77.158005 9.0 87.0 18.842 87.0 48.0 C 87.0 77.158005 77.158 87.0 48.0 87.0 z " fill="url(#SVGID_2_)" fill-opacity="0.3"/>
<path d="M 38.0 82.0 C 35.795 82.0 34.0 80.206 34.0 78.0 L 34.0 77.0 C 34.0 74.363 35.506 71.999 37.74 70.811 C 32.918 67.502 30.0 62.009 30.0 56.0 L 30.0 52.464 C 28.781 51.758 28.0 50.443 28.0 49.0 L 28.0 45.0 C 28.0 42.794 29.795 41.0 32.0 41.0 L 33.0 41.0 L 33.0 33.0 C 33.0 24.729 39.729 18.0 48.0 18.0 C 56.271 18.0 63.0 24.729 63.0 33.0 L 63.0 41.0 L 64.0 41.0 C 66.207 41.0 68.0 42.794 68.0 45.0 L 68.0 49.0 C 68.0 50.442 67.221 51.758 66.0 52.464 L 66.0 56.0 C 66.0 62.009 63.084 67.502 58.26 70.811 C 60.494 71.999 62.0 74.363 62.0 77.0 L 62.0 78.0 C 62.0 80.206 60.207 82.0 58.0 82.0 L 38.0 82.0 z " fill="#1a0900" fill-opacity="0.02"/>
<path d="M 38.0 80.0 C 36.898 80.0 36.0 79.103 36.0 78.0 L 36.0 77.0 C 36.0 74.243 38.244 72.0 41.0 72.0 L 43.5 72.0 L 43.5 71.345 C 36.689 69.361 32.0 63.161 32.0 56.0 L 32.0 51.0 C 30.898 51.0 30.0 50.103 30.0 49.0 L 30.0 45.0 C 30.0 43.897 30.898 43.0 32.0 43.0 L 34.0 43.0 C 34.088 43.0 34.174 43.006 34.26 43.017 C 34.434 42.705997 34.692 42.448 35.0 42.268997 L 35.0 33.0 C 35.0 25.832 40.832 20.0 48.0 20.0 C 55.168 20.0 61.0 25.832 61.0 33.0 L 61.0 42.269 C 61.309 42.448 61.566 42.707 61.742 43.017 C 61.826 43.006 61.912 43.0 62.0 43.0 L 64.0 43.0 C 65.102 43.0 66.0 43.897 66.0 45.0 L 66.0 49.0 C 66.0 50.103 65.102 51.0 64.0 51.0 L 64.0 56.0 C 64.0 63.161 59.311 69.361 52.5 71.345 L 52.5 72.0 L 55.0 72.0 C 57.758 72.0 60.0 74.243 60.0 77.0 L 60.0 78.0 C 60.0 79.103 59.102 80.0 58.0 80.0 L 38.0 80.0 z " fill="#1a0900" fill-opacity="0.05"/>
<path d="M 62.0 45.0 L 62.0 46.0 L 60.0 46.0 L 60.0 44.0 L 59.0 44.0 L 59.0 33.0 C 59.0 26.95 54.049 22.0 48.0 22.0 C 41.951 22.0 37.0 26.95 37.0 33.0 L 37.0 44.0 L 36.0 44.0 L 36.0 46.0 L 34.0 46.0 L 34.0 45.0 L 32.0 45.0 L 32.0 49.0 L 34.0 49.0 L 34.0 56.0 C 34.0 62.865 38.971 68.58 45.5 69.764 L 45.5 74.0 L 41.0 74.0 C 39.35 74.0 38.0 75.35 38.0 77.0 L 38.0 78.0 L 58.0 78.0 L 58.0 77.0 C 58.0 75.35 56.65 74.0 55.0 74.0 L 50.5 74.0 L 50.5 69.764 C 57.029 68.58 62.0 62.865 62.0 56.0 L 62.0 49.0 L 64.0 49.0 L 64.0 45.0 L 62.0 45.0 z M 60.0 56.0 C 60.0 62.617 54.617 68.0 48.0 68.0 C 41.383 68.0 36.0 62.617 36.0 56.0 L 36.0 50.0 L 37.0 50.0 L 37.0 56.0 C 37.0 62.05 41.951 67.0 48.0 67.0 C 54.049 67.0 59.0 62.05 59.0 56.0 L 59.0 50.0 L 60.0 50.0 L 60.0 56.0 z " fill="#1a0900" fill-opacity="0.2"/>
<linearGradient gradientUnits="userSpaceOnUse" x1="45.5" x2="50.5" y1="70" y2="70">
<stop offset="0" stop-color="#666666"/>
<stop offset="0.1576" stop-color="#858585"/>
<stop offset="0.3758" stop-color="#c4c4c4"/>
<stop offset="0.6061" stop-color="#c4c4c4"/>
<stop offset="0.8545" stop-color="#858585"/>
<stop offset="1" stop-color="#666666"/>
</linearGradient>
<rect fill="#606060" fill-opacity="1" height="6.489172" width="5" x="45.5" y="66.510826"/>
<linearGradient gradientUnits="userSpaceOnUse" x1="48.0005" x2="48.0005" y1="73" y2="69">
<stop offset="0" stop-color="#ffffff" stop-opacity="0"/>
<stop offset="1" stop-color="#ffffff"/>
</linearGradient>
<linearGradient gradientUnits="userSpaceOnUse" x1="48" x2="48" y1="73" y2="70">
<stop offset="0" stop-color="#ffffff" stop-opacity="0"/>
<stop offset="1" stop-color="#ffffff"/>
</linearGradient>
<linearGradient gradientUnits="userSpaceOnUse" x1="48.0005" x2="48.0005" y1="68" y2="45.0005">
<stop offset="0" stop-color="#666666"/>
<stop offset="0.3333" stop-color="#858585"/>
<stop offset="0.897" stop-color="#666666"/>
<stop offset="1" stop-color="#3b3b3b"/>
</linearGradient>
<linearGradient gradientUnits="userSpaceOnUse" x1="48.0005" x2="48.0005" y1="67" y2="45.0005">
<stop offset="0" stop-color="#cccccc"/>
<stop offset="0.4061" stop-color="#595959"/>
<stop offset="0.897" stop-color="#545454"/>
<stop offset="1" stop-color="#3b3b3b"/>
</linearGradient>
<path d="M 61.0 45.0 L 60.0 45.0 L 60.0 54.0 C 60.0 60.617 54.617 66.0 48.0 66.0 C 41.383 66.0 36.0 60.617 36.0 54.0 L 36.0 45.0 L 35.0 45.0 L 35.0 54.0 C 35.0 61.168 40.832 67.0 48.0 67.0 C 55.168 67.0 61.0 61.168 61.0 54.0 L 61.0 45.0 z " fill="#606060" fill-opacity="1"/>
<rect fill-opacity="0.15" height="1" width="28" x="34" y="46"/>
<linearGradient gradientUnits="userSpaceOnUse" x1="48.0005" x2="48.0005" y1="46" y2="44">
<stop offset="0" stop-color="#4d4d4d"/>
<stop offset="0.5581" stop-color="#b3b3b3"/>
<stop offset="1" stop-color="#737373"/>
</linearGradient>
<rect fill="#606060" fill-opacity="1" height="2" width="28" x="34" y="44"/>
<linearGradient gradientUnits="userSpaceOnUse" x1="37" x2="59" y1="42.5" y2="42.5">
<stop offset="0" stop-color="#757575"/>
<stop offset="0.097" stop-color="#858585"/>
<stop offset="0.3758" stop-color="#d4d4d4"/>
<stop offset="0.6485" stop-color="#d4d4d4"/>
<stop offset="0.903" stop-color="#858585"/>
<stop offset="1" stop-color="#757575"/>
</linearGradient>
<path d="M 59.0 54.0 C 59.0 60.05 54.049 65.0 48.0 65.0 L 48.0 65.0 C 41.951 65.0 37.0 60.05 37.0 54.0 L 37.0 31.0 C 37.0 24.95 41.951 20.0 48.0 20.0 L 48.0 20.0 C 54.049 20.0 59.0 24.95 59.0 31.0 L 59.0 54.0 z " fill="#a4a4a4" fill-opacity="1"/>
<linearGradient gradientUnits="userSpaceOnUse" x1="48.0005" x2="48.0005" y1="65" y2="45.0005">
<stop offset="0" stop-color="#000000" stop-opacity="0.55"/>
<stop offset="0.45" stop-color="#000000" stop-opacity="0.2"/>
<stop offset="1" stop-color="#000000" stop-opacity="0.05"/>
</linearGradient>
<linearGradient gradientUnits="userSpaceOnUse" x1="48" x2="48" y1="61" y2="51">
<stop offset="0" stop-color="#ffffff"/>
<stop offset="1" stop-color="#ffffff" stop-opacity="0"/>
</linearGradient>
<linearGradient gradientTransform="matrix(-1 0 0 -1 7576 3348)" gradientUnits="userSpaceOnUse" x1="7527.999" x2="7527.999" y1="3303.999" y2="3323.999">
<stop offset="0" stop-color="#000000" stop-opacity="0.3959"/>
<stop offset="1" stop-color="#000000" stop-opacity="0"/>
</linearGradient>
<linearGradient gradientUnits="userSpaceOnUse" x1="36" x2="60" y1="45" y2="45">
<stop offset="0" stop-color="#878787"/>
<stop offset="0.097" stop-color="#a6a6a6"/>
<stop offset="0.3394" stop-color="#f7f7f7"/>
<stop offset="0.6909" stop-color="#f7f7f7"/>
<stop offset="0.903" stop-color="#a6a6a6"/>
<stop offset="1" stop-color="#878787"/>
</linearGradient>
<linearGradient gradientUnits="userSpaceOnUse" x1="48.0024" x2="48.0024" y1="51" y2="48.0005">
<stop offset="0" stop-color="#000000" stop-opacity="0.05"/>
<stop offset="1" stop-color="#000000" stop-opacity="0.3"/>
</linearGradient>
<linearGradient gradientUnits="userSpaceOnUse" x1="33" x2="33" y1="47" y2="43">
<stop offset="0" stop-color="#666666"/>
<stop offset="0.2061" stop-color="#858585"/>
<stop offset="0.3939" stop-color="#c4c4c4"/>
<stop offset="0.6909" stop-color="#858585"/>
<stop offset="1" stop-color="#c4c4c4"/>
</linearGradient>
<rect fill="#606060" fill-opacity="1" height="4" width="2" x="32" y="43"/>
<linearGradient gradientUnits="userSpaceOnUse" x1="63" x2="63" y1="47" y2="43">
<stop offset="0" stop-color="#666666"/>
<stop offset="0.2061" stop-color="#858585"/>
<stop offset="0.3939" stop-color="#c4c4c4"/>
<stop offset="0.6909" stop-color="#858585"/>
<stop offset="1" stop-color="#c4c4c4"/>
</linearGradient>
<rect fill="#606060" fill-opacity="1" height="4" width="2" x="62" y="43"/>
<linearGradient gradientUnits="userSpaceOnUse" id="SVGID_17_" x1="38" x2="58" y1="74" y2="74">
<stop offset="0" stop-color="#666666"/>
<stop offset="0.1576" stop-color="#858585"/>
<stop offset="0.3758" stop-color="#a8a8a8"/>
<stop offset="0.6303" stop-color="#a8a8a8"/>
<stop offset="0.8545" stop-color="#858585"/>
<stop offset="1" stop-color="#666666"/>
</linearGradient>
<path d="M 58.0 76.0 L 58.0 75.0 C 58.0 73.35 56.65 72.0 55.0 72.0 L 41.0 72.0 C 39.35 72.0 38.0 73.35 38.0 75.0 L 38.0 76.0 L 58.0 76.0 z " fill="url(#SVGID_17_)"/>
<linearGradient gradientUnits="userSpaceOnUse" x1="48.0005" x2="48.0005" y1="76" y2="72">
<stop offset="0" stop-color="#231f20" stop-opacity="0.41"/>
<stop offset="0.3273" stop-color="#231f20" stop-opacity="0"/>
<stop offset="0.697" stop-color="#ffffff" stop-opacity="0"/>
<stop offset="0.9879" stop-color="#ffffff" stop-opacity="0.43"/>
<stop offset="1" stop-color="#ffffff" stop-opacity="0.43"/>
</linearGradient>
<path d="M 58.0 76.0 L 58.0 75.0 C 58.0 73.35 56.65 72.0 55.0 72.0 L 41.0 72.0 C 39.35 72.0 38.0 73.35 38.0 75.0 L 38.0 76.0 L 58.0 76.0 z " fill="#6e6e6e" fill-opacity="1"/>
</svg>
