<?xml version="1.0" encoding="UTF-8"?>
<svg xmlns="http://www.w3.org/2000/svg" xmlns:xlink="http://www.w3.org/1999/xlink" baseProfile="tiny" contentScriptType="text/ecmascript" contentStyleType="text/css" height="57px" preserveAspectRatio="xMidYMid meet" version="1.1" viewBox="0 0 67 57" width="67px" x="0px" y="0px" zoomAndPan="magnify">
<rect fill="#dedede" fill-opacity="0.78431373" fill-rule="nonzero" height="48" ry="8.2174387" stroke="none" width="48" x="9.5" y="5.5"/>
<path d="M 51.34201 36.843822 L 51.34201 15.036922 C 51.34201 14.380337 50.809128 13.847456 50.152542 13.847456 C 49.495956 13.847456 48.963074 14.380337 48.963074 15.036922 L 48.963074 36.843822 L 48.170097 36.843822 L 48.170097 34.46489 C 48.170097 33.58944 47.459587 32.87893 46.58414 32.87893 L 20.41586 32.87893 C 19.540413 32.87893 18.829905 33.589436 18.829905 34.46489 L 18.829905 36.843822 L 18.036926 36.843822 L 18.036926 15.036922 C 18.036926 14.380337 17.504044 13.847456 16.84746 13.847456 C 16.190874 13.847456 15.657991 14.380337 15.657991 15.036922 L 15.657991 36.843822 C 14.782544 36.843822 14.072036 37.554333 14.072036 38.42978 L 14.072036 41.205204 C 14.072036 42.08065 14.782545 42.79116 15.657991 42.79116 L 18.829905 42.79116 L 18.829905 44.377117 C 18.829905 45.252563 19.540413 45.963074 20.41586 45.963074 L 46.58414 45.963074 C 47.459587 45.963074 48.170097 45.252567 48.170097 44.377117 L 48.170097 42.79116 L 51.34201 42.79116 C 52.217457 42.79116 52.927967 42.08065 52.927967 41.205204 L 52.927967 38.42978 C 52.927967 37.554333 52.21746 36.843822 51.34201 36.843822 z M 25.17373 38.03329 L 22.794796 38.03329 L 22.794796 36.447334 L 25.17373 36.447334 L 25.17373 38.03329 z M 29.9316 38.03329 L 27.552666 38.03329 L 27.552666 36.447334 L 29.9316 36.447334 L 29.9316 38.03329 z M 34.68947 38.03329 L 32.310535 38.03329 L 32.310535 36.447334 L 34.68947 36.447334 L 34.68947 38.03329 z M 39.44734 38.03329 L 37.0684 38.03329 L 37.0684 36.447334 L 39.44734 36.447334 L 39.44734 38.03329 z M 44.205208 38.03329 L 41.82627 38.03329 L 41.82627 36.447334 L 44.205208 36.447334 L 44.205208 38.03329 z " fill="#ffffff" fill-opacity="1" stroke-opacity="0.3"/>
<defs>
<linearGradient gradientUnits="userSpaceOnUse" x1="33.5005" x2="33.5005" xlink:actuate="onLoad" xlink:show="other" xlink:type="simple" y1="49" y2="8.5005">
<stop offset="0" stop-color="#d0cbc5"/>
<stop offset="0.5031" stop-color="#fafcef"/>
<stop offset="0.9693" stop-color="#ffffff"/>
<stop offset="1" stop-color="#ffffff"/>
</linearGradient>
</defs>
</svg>
