<?xml version="1.0" encoding="UTF-8"?>
<svg xmlns="http://www.w3.org/2000/svg" xmlns:xlink="http://www.w3.org/1999/xlink" baseProfile="tiny" contentScriptType="text/ecmascript" contentStyleType="text/css" height="30px" preserveAspectRatio="xMidYMid meet" version="1.1" viewBox="0 0 30 30" width="30px" x="0px" y="0px" zoomAndPan="magnify">
<path d="M 5.061 12.001 L 4.948 12.0 C 2.0 12.0 2.0 14.254 2.0 14.994 C 2.0 15.736 2.0 17.998001 4.9300003 17.998001 L 5.052 18.0 C 8.0 18.0 8.0 15.744 8.0 15.002 C 8.0 14.259999 8.0 12.001 5.061 12.001 z M 5.061 20.001 L 4.948 20.0 C 2.0 20.0 2.0 22.254 2.0 22.994 C 2.0 23.736 2.0 25.998 4.9300003 25.998 L 5.052 26.0 C 8.0 26.0 8.0 23.744 8.0 23.002 C 8.0 22.260002 8.0 20.001 5.061 20.001 z M 5.061 4.001 L 4.948 4.0 C 2.0 4.0 2.0 6.254 2.0 6.994 C 2.0 7.737 2.0 9.998 4.9300003 9.998 L 5.052 10.0 C 8.0 10.0 8.0 7.744 8.0 7.002 C 8.0 6.2599998 8.0 4.001 5.061 4.001 z M 29.982 27.236 L 29.933 26.982 C 29.648 25.832 28.476 25.213001 28.400002 25.179 C 28.199001 25.062 28.001001 24.951 27.804 24.847 C 27.927 24.59 28.0 24.305 28.0 24.0 L 28.0 22.0 C 28.0 20.896 27.104 20.0 26.0 20.0 L 25.568 20.0 C 25.992 19.646 26.179 19.014 26.310001 18.535 C 26.336 18.433 26.363 18.34 26.388 18.258 C 26.423 18.139 26.452 18.036 26.482 17.935999 C 27.352 17.717 28.0 16.936 28.0 16.0 L 28.0 14.0 C 28.0 12.961 27.201 12.115 26.187 12.02 C 26.036001 11.706 25.833 11.356001 25.56 10.946 C 25.254 10.487 24.9 10.237 24.324 10.001 L 26.0 10.001 C 27.104 10.001 28.0 9.1050005 28.0 8.001 L 28.0 6.0 C 28.0 4.896 27.104 4.0 26.0 4.0 L 10.0 4.0 C 8.896 4.0 8.0 4.896 8.0 6.0 L 8.0 7.002 L 8.0 8.0 C 8.0 9.104 8.896 10.0 10.0 10.0 L 17.397999 10.0 C 17.321999 10.109 17.265 10.212 17.225998 10.287 L 17.221 10.3 C 16.805 10.446 16.51 10.735001 16.375 10.97 C 16.135 11.354 15.959 11.692 15.826 12.0 L 10.0 12.0 C 8.896 12.0 8.0 12.896 8.0 14.0 L 8.0 15.002 L 8.0 16.0 C 8.0 17.104 8.896 18.0 10.0 18.0 L 15.6310005 18.0 C 15.652 18.079 15.67 18.15 15.6970005 18.239 C 15.722 18.318 15.746 18.431 15.771001 18.554 C 15.867001 18.997002 16.017 19.638 16.429 19.998001 L 10.0 19.998001 C 8.896 19.998001 8.0 20.894001 8.0 21.998001 L 8.0 23.000002 L 8.0 24.0 C 8.0 25.104 8.896 26.0 10.0 26.0 L 12.588 26.0 C 12.352 26.279 12.141001 26.625 12.035 27.048 L 12.014999 27.157 C 11.940999 27.574 12.136 27.991999 12.502999 28.201 C 13.337999 28.678 14.316999 29.062 15.415999 29.347 C 17.68 29.932 19.35 30.0 20.41 30.0 C 20.666 30.0 20.902 29.996 21.078 29.991 C 21.296 29.996 21.532 30.0 21.789 30.0 C 22.848 30.0 24.518 29.932 26.781 29.346 C 27.806 29.08 28.691 28.737001 29.486 28.295 C 29.861 28.086 30.063 27.66 29.982 27.236 z " fill-opacity="0.15"/>
<rect fill="none" height="30" width="30"/>
<path d="M 26.0 20.0 L 25.332 20.0 C 25.152 20.43 24.922 20.879 24.609001 21.26 C 24.625002 21.332 24.646002 21.422 24.672 21.534 C 24.705002 21.617 25.006 22.222 25.447 22.525 C 25.49 22.549 25.586 22.598999 25.694 22.642 C 25.703001 22.644001 26.227001 22.849 26.958 23.195 C 26.975 23.131 27.0 23.068 27.0 23.0 L 27.0 21.0 C 27.0 20.45 26.55 20.0 26.0 20.0 z M 5.052 20.001 L 4.948 20.0 C 3.349 20.0 3.0 20.702 3.0 21.994 C 3.0 23.293999 3.358 23.998 4.948 23.998 L 5.052 24.0 C 6.653 24.0 7.0 23.295 7.0 22.002 C 7.0 20.705 6.645 20.001 5.052 20.001 z M 27.0 13.0 C 27.0 12.779 26.914 12.586 26.791 12.42 C 26.811 12.686 26.807001 12.95 26.792 13.236 C 26.785 13.377 26.777 13.526 26.775 13.694 C 26.775 14.202001 26.687 14.616 26.611 14.981 C 26.683 15.0789995 26.777 15.264 26.836 15.514 C 26.932 15.361 27.0 15.191 27.0 15.0 L 27.0 13.0 z M 10.0 8.0 L 19.397999 8.0 C 19.682999 7.899 20.061998 7.8 20.571999 7.8 C 20.963999 7.8 21.397999 7.879 21.860998 8.0 L 26.0 8.0 C 26.55 8.0 27.0 7.55 27.0 7.0 L 27.0 5.0 C 27.0 4.45 26.55 4.0 26.0 4.0 L 10.0 4.0 C 9.45 4.0 9.0 4.45 9.0 5.0 L 9.0 7.0 C 9.0 7.55 9.45 8.0 10.0 8.0 z M 10.0 16.0 L 15.268 16.0 C 15.269 15.973 15.266 15.939 15.268 15.913 C 15.268 15.63 15.330999 15.361 15.455999 15.129 C 15.341999 14.676 15.297999 14.259999 15.313 13.794 C 15.318999 13.59 15.307 13.41 15.294 13.2369995 C 15.266 12.822 15.259 12.426999 15.325 12.0 L 10.0 12.0 C 9.45 12.0 9.0 12.45 9.0 13.0 L 9.0 15.0 C 9.0 15.55 9.45 16.0 10.0 16.0 z M 5.052 12.001 L 4.948 12.0 C 3.349 12.0 3.0 12.702 3.0 13.994 C 3.0 15.294001 3.358 15.998 4.948 15.998 L 5.052 16.0 C 6.653 16.0 7.0 15.295 7.0 14.002 C 7.0 12.705 6.645 12.001 5.052 12.001 z M 13.557 23.969 C 14.873 23.196 16.234001 22.664 16.291 22.643 C 16.812 22.434 17.143 22.071 17.27 21.563 C 17.299 21.446 17.324001 21.346 17.34 21.264 C 17.027 20.887 16.797 20.436 16.617 20.0 L 10.0 20.0 C 9.45 20.0 9.0 20.45 9.0 21.0 L 9.0 23.0 C 9.0 23.55 9.45 24.0 10.0 24.0 L 13.499001 24.0 C 13.52 23.988 13.547 23.975 13.557 23.969 z M 28.963 26.225 C 28.779 25.487 27.897 25.043001 27.897 25.043001 C 26.576 24.27 25.262 23.761002 25.262 23.761002 C 25.077 23.690002 24.915998 23.606 24.769999 23.516 C 23.963 22.960001 23.55 21.973001 23.509998 21.825 C 23.396997 21.369001 23.295998 20.887001 23.456999 20.735 C 24.272999 20.028 24.598 18.343 24.598 18.343 C 24.619 18.278 24.639 18.215 24.661999 18.156 C 25.061998 18.646 25.266998 17.491 25.432999 16.962 C 25.605 16.402 25.678999 16.037 25.678999 16.037 C 25.748 15.469001 25.317999 15.637001 25.317999 15.637001 L 25.284998 15.674001 C 25.347998 14.883 25.575998 14.401001 25.575998 13.688001 C 25.580997 12.587001 25.850998 12.187 24.727999 10.500001 C 24.38 9.978 23.9 9.893 21.909 9.249 C 19.924 8.606999 19.64 9.421 18.98 9.344 C 18.321999 9.264 18.23 9.532 18.102999 9.769 C 17.973999 10.003 18.102999 10.192 17.744 10.207 C 17.383 10.224999 17.223 10.5 17.223 10.5 C 16.151 12.22 16.548 12.735 16.512 13.835 C 16.491999 14.42 16.585999 14.856 16.890999 15.661 L 16.857998 15.616 C 16.857998 15.616 16.437998 15.419001 16.468998 15.989 C 16.468998 15.989 16.409998 16.168001 16.648998 16.929 C 16.792997 17.368 16.901 18.589 17.310999 18.202002 C 17.324 18.247002 17.342 18.296001 17.358 18.342001 C 17.358 18.342001 17.678 20.027 18.496 20.734001 C 18.662 20.886002 18.558 21.368002 18.442 21.824001 C 18.394999 21.998001 18.164 23.185001 16.724998 23.762001 C 16.724998 23.762001 15.411999 24.272001 14.0929985 25.044 C 14.0929985 25.044 13.203999 25.486 13.019999 26.225 L 13.0 26.333 C 13.751 26.762001 14.637 27.111 15.668 27.379 C 18.188 28.031 19.924 28.015999 21.1 27.991 C 22.276001 28.015 24.01 28.031 26.532001 27.379 C 27.487001 27.131 28.301003 26.810999 29.002 26.42 L 28.963 26.225 z M 5.052 4.001 L 4.948 4.0 C 3.349 4.0 3.0 4.702 3.0 5.994 C 3.0 7.2939997 3.358 7.998 4.948 7.998 L 5.052 8.0 C 6.653 8.0 7.0 7.295 7.0 6.002 C 7.0 4.705 6.645 4.001 5.052 4.001 z " fill-opacity="0.3"/>
<path d="M 26.0 21.0 L 25.332 21.0 C 25.152 21.43 24.922 21.879 24.609001 22.26 C 24.625002 22.332 24.646002 22.422 24.672 22.534 C 24.705002 22.617 25.006 23.222 25.447 23.525 C 25.49 23.549 25.586 23.598999 25.694 23.642 C 25.703001 23.644001 26.227001 23.849 26.958 24.195 C 26.975 24.131 27.0 24.068 27.0 24.0 L 27.0 22.0 C 27.0 21.45 26.55 21.0 26.0 21.0 z M 5.052 21.001 L 4.948 21.0 C 3.349 21.0 3.0 21.702 3.0 22.994 C 3.0 24.293999 3.358 24.998 4.948 24.998 L 5.052 25.0 C 6.653 25.0 7.0 24.295 7.0 23.002 C 7.0 21.705 6.645 21.001 5.052 21.001 z M 27.0 14.0 C 27.0 13.779 26.914 13.586 26.791 13.42 C 26.811 13.686 26.807001 13.95 26.792 14.236 C 26.785 14.377 26.777 14.525 26.775 14.693 C 26.775 15.201 26.687 15.615 26.611 15.981 C 26.683 16.079 26.777 16.264 26.836 16.514 C 26.932 16.361 27.0 16.191 27.0 16.0 L 27.0 14.0 z M 10.0 9.0 L 19.397999 9.0 C 19.682999 8.899 20.061998 8.8 20.571999 8.8 C 20.963999 8.8 21.397999 8.879001 21.860998 9.0 L 26.0 9.0 C 26.55 9.0 27.0 8.55 27.0 8.0 L 27.0 6.0 C 27.0 5.45 26.55 5.0 26.0 5.0 L 10.0 5.0 C 9.45 5.0 9.0 5.45 9.0 6.0 L 9.0 8.0 C 9.0 8.55 9.45 9.0 10.0 9.0 z M 10.0 17.0 L 15.268 17.0 C 15.269 16.973 15.266 16.939 15.268 16.913 C 15.268 16.630001 15.330999 16.361 15.455999 16.129 C 15.341999 15.676 15.297999 15.259999 15.313 14.794 C 15.318999 14.59 15.307 14.41 15.294 14.2369995 C 15.266 13.822 15.259 13.426999 15.325 13.0 L 10.0 13.0 C 9.45 13.0 9.0 13.45 9.0 14.0 L 9.0 16.0 C 9.0 16.55 9.45 17.0 10.0 17.0 z M 5.052 13.001 L 4.948 13.0 C 3.349 13.0 3.0 13.702 3.0 14.994 C 3.0 16.294 3.358 16.998001 4.948 16.998001 L 5.052 17.0 C 6.653 17.0 7.0 16.295 7.0 15.002 C 7.0 13.705 6.645 13.001 5.052 13.001 z M 13.557 24.969 C 14.873 24.196 16.234001 23.664 16.291 23.643 C 16.812 23.434 17.143 23.071 17.27 22.563 C 17.299 22.446 17.324001 22.346 17.34 22.264 C 17.027 21.887 16.797 21.436 16.617 21.0 L 10.0 21.0 C 9.45 21.0 9.0 21.45 9.0 22.0 L 9.0 24.0 C 9.0 24.55 9.45 25.0 10.0 25.0 L 13.499001 25.0 C 13.52 24.988 13.547 24.975 13.557 24.969 z M 28.963 27.225 C 28.779 26.487 27.897 26.043001 27.897 26.043001 C 26.576 25.27 25.262 24.761002 25.262 24.761002 C 25.077 24.690002 24.915998 24.606 24.769999 24.516 C 23.963 23.960001 23.55 22.973001 23.509998 22.825 C 23.396997 22.369001 23.295998 21.887001 23.456999 21.735 C 24.272999 21.028 24.598 19.343 24.598 19.343 C 24.619 19.278 24.639 19.215 24.661999 19.156 C 25.061998 19.646 25.266998 18.491 25.432999 17.962 C 25.605 17.402 25.678999 17.037 25.678999 17.037 C 25.748 16.469 25.317999 16.637001 25.317999 16.637001 L 25.284998 16.674002 C 25.347998 15.883001 25.575998 15.401002 25.575998 14.688002 C 25.580997 13.587002 25.850998 13.186002 24.727999 11.500002 C 24.378998 10.978002 23.9 10.893002 21.908998 10.2490015 C 19.923998 9.607001 19.64 10.421001 18.98 10.344002 C 18.321999 10.264002 18.23 10.5320015 18.102999 10.769002 C 17.973999 11.003002 18.102999 11.192002 17.744 11.207002 C 17.383 11.225001 17.223 11.500002 17.223 11.500002 C 16.151 13.220002 16.548 13.735002 16.512 14.835002 C 16.491999 15.420002 16.585999 15.856002 16.890999 16.661001 L 16.857998 16.616001 C 16.857998 16.616001 16.437998 16.419 16.468998 16.989 C 16.468998 16.989 16.409998 17.168001 16.648998 17.929 C 16.792997 18.368 16.901 19.589 17.310999 19.202002 C 17.324 19.247002 17.342 19.296001 17.358 19.342001 C 17.358 19.342001 17.678 21.027 18.496 21.734001 C 18.662 21.886002 18.558 22.368002 18.442 22.824001 C 18.394999 22.998001 18.164 24.185001 16.724998 24.762001 C 16.724998 24.762001 15.411999 25.272001 14.0929985 26.044 C 14.0929985 26.044 13.203999 26.486 13.019999 27.225 L 13.0 27.333 C 13.751 27.762001 14.637 28.111 15.668 28.379 C 18.188 29.031 19.924 29.015999 21.1 28.991 C 22.276001 29.015 24.01 29.031 26.532001 28.379 C 27.487001 28.131 28.301003 27.810999 29.002 27.42 L 28.963 27.225 z M 5.052 5.001 L 4.948 5.0 C 3.349 5.0 3.0 5.702 3.0 6.994 C 3.0 8.294 3.358 8.998 4.948 8.998 L 5.052 9.0 C 6.653 9.0 7.0 8.295 7.0 7.002 C 7.0 5.705 6.645 5.001 5.052 5.001 z " fill="#dedede"/>
</svg>
