<?xml version="1.0" encoding="UTF-8"?>
<svg xmlns="http://www.w3.org/2000/svg" xmlns:xlink="http://www.w3.org/1999/xlink" baseProfile="tiny" contentScriptType="text/ecmascript" contentStyleType="text/css" height="30px" preserveAspectRatio="xMidYMid meet" version="1.1" viewBox="0 0 30 30" width="30px" x="0px" y="0px" zoomAndPan="magnify">
<path d="M 29.329 14.5 L 27.497 12.668 C 27.348 12.52 27.178 12.404 27.0 12.304 L 27.0 4.0 C 27.0 2.896 26.104 2.0 25.0 2.0 L 21.0 2.0 C 21.0 0.896 20.104 0.0 19.0 0.0 L 11.0 0.0 C 9.896 0.0 9.0 0.896 9.0 2.0 L 5.0 2.0 C 3.896 2.0 3.0 2.896 3.0 4.0 L 3.0 27.0 C 3.0 28.104 3.896 29.0 5.0 29.0 L 12.033 29.0 C 12.068 29.177 12.131 29.344 12.234 29.489 C 12.469 29.813 12.842 30.0 13.26 30.0 C 13.423 30.0 13.592 29.971 13.758 29.915 L 16.504 29.0 L 25.0 29.0 C 26.104 29.0 27.0 28.104 27.0 27.0 L 27.0 20.08 L 27.551 19.529 C 27.710001 19.369999 27.811 19.163 27.837 18.941 C 28.058 18.914 28.264 18.814 28.421999 18.654 L 29.328 17.744 C 29.762 17.313 30.0 16.736 30.0 16.122 C 30.0 15.507999 29.762 14.932 29.329 14.5 z " fill-opacity="0.15"/>
<rect fill="none" height="30" width="30"/>
<path d="M 28.621 14.207 L 26.791 12.377 C 26.287 11.875 25.465 11.875 24.961 12.377 L 24.051 13.289 L 27.713001 16.949 L 28.621002 16.036999 C 29.125 15.533 29.125 14.711 28.621 14.207 z M 20.0 1.0 C 20.0 0.44700003 19.553 0.0 19.0 0.0 L 11.0 0.0 C 10.4470005 0.0 10.0 0.447 10.0 1.0 L 10.0 4.0 L 20.0 4.0 L 20.0 1.0 z M 13.882 22.2 L 12.0 22.2 C 11.338 22.2 10.8 21.662 10.8 21.0 C 10.8 20.338 11.338 19.8 12.0 19.8 L 16.125 19.8 L 17.727 18.199999 L 12.0 18.199999 C 11.338 18.199999 10.8 17.661999 10.8 16.999998 C 10.8 16.337997 11.338 15.799998 12.0 15.799998 L 20.128 15.799998 L 21.729 14.199998 L 12.0 14.199998 C 11.338 14.199998 10.8 13.661998 10.8 12.999998 C 10.8 12.337998 11.338 11.799998 12.0 11.799998 L 22.0 11.799998 C 22.604 11.799998 23.082 12.253998 23.166 12.832998 C 23.213001 12.743999 23.27 12.657998 23.344 12.583999 L 24.253 11.669999 C 24.688 11.2369995 25.264 10.999999 25.877 10.999999 C 25.919 10.999999 25.959002 11.009999 26.0 11.011999 L 26.0 3.0 C 26.0 2.447 25.553 2.0 25.0 2.0 L 21.0 2.0 L 21.0 4.0 C 21.0 4.553 20.553 5.0 20.0 5.0 L 10.0 5.0 C 9.447 5.0 9.0 4.553 9.0 4.0 L 9.0 2.0 L 5.0 2.0 C 4.447 2.0 4.0 2.447 4.0 3.0 L 4.0 26.0 C 4.0 26.553 4.447 27.0 5.0 27.0 L 12.163 27.0 L 13.503 22.979 C 13.586 22.735 13.721 22.46 13.882 22.2 z M 12.0 7.8 L 22.0 7.8 C 22.662 7.8 23.2 8.338 23.2 9.0 C 23.2 9.662 22.662 10.2 22.0 10.2 L 12.0 10.2 C 11.338 10.2 10.8 9.662 10.8 9.0 C 10.8 8.338 11.338 7.8 12.0 7.8 z M 8.0 22.2 C 7.338 22.2 6.8 21.662 6.8 21.0 C 6.8 20.338 7.3380003 19.8 8.0 19.8 C 8.662 19.8 9.2 20.338 9.2 21.0 C 9.2 21.662 8.662 22.2 8.0 22.2 z M 8.0 18.2 C 7.338 18.2 6.8 17.662 6.8 17.0 C 6.8 16.338 7.3380003 15.8 8.0 15.8 C 8.662 15.8 9.2 16.338 9.2 17.0 C 9.2 17.662 8.662 18.2 8.0 18.2 z M 8.0 14.2 C 7.338 14.2 6.8 13.662 6.8 13.0 C 6.8 12.338 7.3380003 11.8 8.0 11.8 C 8.662 11.8 9.2 12.338 9.2 13.0 C 9.2 13.662 8.662 14.2 8.0 14.2 z M 8.0 10.2 C 7.338 10.2 6.8 9.662 6.8 9.0 C 6.8 8.338 7.338 7.8 8.0 7.8 C 8.662001 7.8 9.2 8.338 9.2 9.0 C 9.2 9.662 8.662 10.2 8.0 10.2 z M 18.968 27.0 L 25.0 27.0 C 25.553 27.0 26.0 26.553 26.0 26.0 L 26.0 20.079 L 19.482 26.592001 C 19.342 26.731 19.16 26.869 18.968 27.0 z M 15.113 22.225 C 14.863 22.477001 14.564 22.959 14.451 23.295 L 13.031 27.557 C 12.92 27.894999 13.103 28.08 13.441 27.967 L 17.703 26.546999 C 18.040998 26.433998 18.521 26.134998 18.775 25.884998 L 26.842999 17.821999 L 23.182999 14.159999 L 15.113 22.225 z M 17.191 25.639 L 15.25 26.319 L 14.686 25.749 L 15.364 23.808 L 15.745 23.425001 L 17.573 25.257002 L 17.191 25.639 z " fill-opacity="0.3"/>
<path d="M 28.621 15.207 L 26.791 13.377 C 26.287 12.875 25.465 12.875 24.961 13.377 L 24.051 14.289 L 27.713001 17.949 L 28.621002 17.036999 C 29.125 16.533 29.125 15.711 28.621 15.207 z M 20.0 2.0 C 20.0 1.447 19.553 1.0 19.0 1.0 L 11.0 1.0 C 10.4470005 1.0 10.0 1.447 10.0 2.0 L 10.0 5.0 L 20.0 5.0 L 20.0 2.0 z M 13.882 23.2 L 12.0 23.2 C 11.338 23.2 10.8 22.662 10.8 22.0 C 10.8 21.338 11.338 20.8 12.0 20.8 L 16.125 20.8 L 17.727 19.199999 L 12.0 19.199999 C 11.338 19.199999 10.8 18.661999 10.8 17.999998 C 10.8 17.337997 11.338 16.799997 12.0 16.799997 L 20.128 16.799997 L 21.729 15.199997 L 12.0 15.199997 C 11.338 15.199997 10.8 14.661997 10.8 13.999997 C 10.8 13.337997 11.338 12.799997 12.0 12.799997 L 22.0 12.799997 C 22.604 12.799997 23.082 13.253998 23.166 13.832997 C 23.213001 13.743998 23.27 13.657997 23.344 13.583998 L 24.253 12.669998 C 24.688 12.236999 25.264 11.999998 25.877 11.999998 C 25.919 11.999998 25.959002 12.009998 26.0 12.011998 L 26.0 4.0 C 26.0 3.447 25.553 3.0 25.0 3.0 L 21.0 3.0 L 21.0 5.0 C 21.0 5.553 20.553 6.0 20.0 6.0 L 10.0 6.0 C 9.447 6.0 9.0 5.553 9.0 5.0 L 9.0 3.0 L 5.0 3.0 C 4.447 3.0 4.0 3.447 4.0 4.0 L 4.0 27.0 C 4.0 27.553 4.447 28.0 5.0 28.0 L 12.163 28.0 L 13.503 23.979 C 13.586 23.735 13.721 23.46 13.882 23.2 z M 12.0 8.8 L 22.0 8.8 C 22.662 8.8 23.2 9.338 23.2 10.0 C 23.2 10.662 22.662 11.2 22.0 11.2 L 12.0 11.2 C 11.338 11.2 10.8 10.662 10.8 10.0 C 10.8 9.338 11.338 8.8 12.0 8.8 z M 8.0 23.2 C 7.338 23.2 6.8 22.662 6.8 22.0 C 6.8 21.338 7.3380003 20.8 8.0 20.8 C 8.662 20.8 9.2 21.338 9.2 22.0 C 9.2 22.662 8.662 23.2 8.0 23.2 z M 8.0 19.2 C 7.338 19.2 6.8 18.662 6.8 18.0 C 6.8 17.338 7.3380003 16.8 8.0 16.8 C 8.662 16.8 9.2 17.338 9.2 18.0 C 9.2 18.662 8.662 19.2 8.0 19.2 z M 8.0 15.2 C 7.338 15.2 6.8 14.662 6.8 14.0 C 6.8 13.338 7.3380003 12.8 8.0 12.8 C 8.662 12.8 9.2 13.338 9.2 14.0 C 9.2 14.662 8.662 15.2 8.0 15.2 z M 8.0 11.2 C 7.338 11.2 6.8 10.662 6.8 10.0 C 6.8 9.338 7.338 8.8 8.0 8.8 C 8.662001 8.8 9.2 9.338 9.2 10.0 C 9.2 10.662 8.662 11.2 8.0 11.2 z M 18.968 28.0 L 25.0 28.0 C 25.553 28.0 26.0 27.553 26.0 27.0 L 26.0 21.079 L 19.482 27.592001 C 19.342 27.731 19.16 27.869 18.968 28.0 z M 15.113 23.225 C 14.863 23.477001 14.564 23.959 14.451 24.295 L 13.031 28.557 C 12.92 28.894999 13.103 29.08 13.441 28.967 L 17.703 27.546999 C 18.040998 27.433998 18.521 27.134998 18.775 26.884998 L 26.842999 18.821999 L 23.182999 15.159999 L 15.113 23.225 z M 17.191 26.639 L 15.25 27.319 L 14.686 26.749 L 15.364 24.808 L 15.745 24.425001 L 17.573 26.257002 L 17.191 26.639 z " fill="#dedede"/>
</svg>
