<?xml version="1.0" encoding="UTF-8"?>
<svg xmlns="http://www.w3.org/2000/svg" xmlns:xlink="http://www.w3.org/1999/xlink" baseProfile="tiny" contentScriptType="text/ecmascript" contentStyleType="text/css" height="57px" preserveAspectRatio="xMidYMid meet" version="1.1" viewBox="0 -0.001 67 57" width="67px" x="0px" y="0px" zoomAndPan="magnify">
<rect fill="#dedede" fill-opacity="0.78431373" fill-rule="nonzero" height="48" ry="8.2174387" stroke="none" width="48" x="9.5" y="5.4990001"/>
<path d="M 28.089935 34.310436 L 30.294191 34.310436 L 30.294191 35.680016 C 30.73725 35.437546 31.229532 35.245777 31.763697 35.120136 L 31.763697 34.309704 L 33.879047 34.309704 L 33.879047 32.84167 L 32.50139 32.84167 L 32.50139 20.350891 L 44.978207 20.350891 L 44.978207 29.933523 C 45.078136 29.954094 45.174385 29.984222 45.266228 30.024632 C 45.392605 29.749102 45.603477 29.51545 45.874603 29.360418 C 46.100178 29.231836 46.351456 29.167912 46.601273 29.167912 C 46.804066 29.167912 47.00392 29.222284 47.19348 29.306782 L 47.19348 16.677134 C 47.19348 15.868908 46.532204 15.20763 45.72398 15.20763 L 16.33391 15.20763 C 15.525684 15.20763 14.864407 15.868907 14.864407 16.677134 L 14.864407 36.51543 C 14.864407 37.323654 15.525683 37.984936 16.33391 37.984936 L 28.26334 37.984936 C 28.441883 37.43975 28.755625 36.943054 29.177372 36.514694 L 28.08994 36.514694 L 28.08994 34.31044 z M 42.784973 16.6764 L 44.989227 16.6764 L 44.989227 18.880651 L 42.784973 18.880651 L 42.784973 16.6764 z M 39.111217 16.6764 L 41.315468 16.6764 L 41.315468 18.880651 L 39.111217 18.880651 L 39.111217 16.6764 z M 35.437454 16.6764 L 37.64171 16.6764 L 37.64171 18.880651 L 35.437454 18.880651 L 35.437454 16.6764 z M 31.763697 16.6764 L 33.96795 16.6764 L 33.96795 18.880651 L 31.763697 18.880651 L 31.763697 16.6764 z M 28.089935 16.6764 L 30.29419 16.6764 L 30.29419 18.880651 L 28.089935 18.880651 L 28.089935 16.6764 z M 24.416178 16.6764 L 26.620434 16.6764 L 26.620434 18.880651 L 24.41618 18.880651 L 24.41618 16.6764 z M 20.74242 16.6764 L 22.946674 16.6764 L 22.946674 18.880651 L 20.74242 18.880651 L 20.74242 16.6764 z M 17.06866 16.6764 L 19.272917 16.6764 L 19.272917 18.880651 L 17.06866 18.880651 L 17.06866 16.6764 z M 17.06866 20.350891 L 29.585892 20.350891 L 29.585892 32.841675 L 17.06866 32.841675 L 17.06866 20.350897 z M 19.272917 36.514694 L 17.06866 36.514694 L 17.06866 34.31044 L 19.272917 34.31044 L 19.272917 36.514694 z M 22.946674 36.514694 L 20.74242 36.514694 L 20.74242 34.31044 L 22.946674 34.31044 L 22.946674 36.514694 z M 26.620434 36.514694 L 24.41618 36.514694 L 24.41618 34.31044 L 26.620434 34.31044 L 26.620434 36.514694 z M 51.661507 33.644753 L 46.601273 30.637411 L 46.601273 36.36113 L 48.41905 35.428 C 48.892227 36.137768 49.16923 36.98714 49.16923 37.90264 C 49.16923 40.37655 47.15748 42.38977 44.684307 42.392708 L 44.684307 44.433113 C 48.289738 44.430218 51.211105 41.508064 51.211105 37.901905 C 51.211105 36.62932 50.845932 35.441956 50.21625 34.43902 L 51.661507 33.644753 z M 41.717377 26.53603 C 39.71665 26.0195 37.72841 25.715311 36.20086 25.496355 C 36.20086 25.496355 35.34855 25.409657 35.34855 26.29944 L 35.34855 36.835777 C 34.760017 36.572 34.071552 36.41109 33.326515 36.41109 C 31.24276 36.41109 29.559444 37.58522 29.559444 39.03562 C 29.559444 40.486023 31.24276 41.65795 33.326515 41.65795 C 35.402924 41.65795 37.085503 40.485287 37.085503 39.03562 L 37.085503 29.943071 C 38.815845 30.206848 40.40144 30.566875 41.71738 30.932783 L 41.71738 26.536028 z M 44.678432 33.41257 L 44.683533 33.41257 L 44.683533 31.372166 L 44.678432 31.372166 C 41.072273 31.372166 38.147224 34.295746 38.147224 37.903378 C 38.147224 39.236217 38.5506 40.4728 39.237595 41.505127 L 37.641712 42.432384 L 42.520466 45.33245 L 42.520466 39.55216 L 41.00687 40.477943 C 40.492542 39.74907 40.189095 38.86149 40.189095 37.90337 C 40.189095 35.427994 42.203785 33.412567 44.67843 33.412567 z " fill="#ffffff" fill-opacity="1" stroke-opacity="0.3"/>
<defs>
<linearGradient gradientUnits="userSpaceOnUse" x1="36.04" x2="36.04" xlink:actuate="onLoad" xlink:show="other" xlink:type="simple" y1="54" y2="13.0005">
<stop offset="0" stop-color="#d0cbc5"/>
<stop offset="0.5031" stop-color="#fafcef"/>
<stop offset="0.9693" stop-color="#ffffff"/>
<stop offset="1" stop-color="#ffffff"/>
</linearGradient>
</defs>
</svg>
