<?xml version="1.0" encoding="UTF-8"?>
<svg xmlns="http://www.w3.org/2000/svg" xmlns:xlink="http://www.w3.org/1999/xlink" baseProfile="tiny" contentScriptType="text/ecmascript" contentStyleType="text/css" height="58px" preserveAspectRatio="xMidYMid meet" version="1.1" viewBox="0 0 84 58" width="84px" x="0px" y="0px" zoomAndPan="magnify">
<defs>
<defs>
<linearGradient gradientTransform="matrix(1 0 0 -1 -262.4805 -328.0195)" gradientUnits="userSpaceOnUse" x1="304.4795" x2="304.4795" y1="-381.2158" y2="-332.8213">
<stop offset="0" stop-color="#d0cbc5"/>
<stop offset="0.5031" stop-color="#fafcef"/>
<stop offset="0.9693" stop-color="#ffffff"/>
<stop offset="1" stop-color="#ffffff"/>
</linearGradient>
</defs>
</defs>
<path d="M 38.046 43.356 C 38.334 42.543 39.102 42.003 39.964 42.003 L 45.979 42.003 C 45.601 41.532997 45.375 40.938 45.375 40.288998 L 45.375 38.647 C 43.251 40.144 40.667 41.03 37.871 41.03 C 30.661 41.03 24.817997 35.184998 24.817997 27.98 C 24.817997 20.769 30.660997 14.924999 37.871 14.924999 C 45.079 14.924999 50.924 20.768 50.924 27.98 C 50.924 30.097 50.408 32.092 49.512 33.862 L 54.929 33.862 L 54.929 30.81 C 54.929 30.026 55.38 29.309 56.09 28.973 C 56.368 28.838999 56.666 28.775 56.964 28.775 C 57.423 28.775 57.878002 28.928999 58.248 29.230999 L 60.722 31.244 C 61.104 30.967 61.348 30.511 61.332 30.007 L 61.299 28.971 L 61.19 25.351 L 61.154 24.32 C 61.131 23.505 60.453 22.872 59.637 22.897 L 57.358 22.55 C 57.364002 22.55 57.372 22.543 57.372 22.543 C 57.372 22.543 55.631 22.165998 54.401 20.713999 C 53.715 19.137999 52.803 17.654 51.68 16.314 C 50.939 14.574999 51.367 12.8619995 51.367 12.8619995 C 51.367 12.8619995 51.361 12.867 51.361 12.874 L 52.06 10.675 C 52.444 9.96 52.176 9.065 51.458 8.685 L 50.548 8.192 L 47.359 6.48 L 46.445 5.995 C 45.728 5.61 44.839 5.88 44.453 6.597 L 43.015 8.398 L 43.015 8.383 C 43.015 8.383 41.85 9.665 40.022 10.025001 C 38.233 9.812 36.439 9.873 34.694 10.18 C 32.861 9.927 31.631 8.741 31.631 8.741 C 31.631 8.741 31.633001 8.752 31.633001 8.7560005 L 30.083 7.049 C 29.656 6.354 28.747 6.144 28.058 6.57 L 27.181 7.1200004 L 24.105 9.027 L 23.222 9.573 C 22.533 9.995 22.319 10.908 22.748 11.598 L 23.585999 13.743 C 23.583998 13.738 23.578 13.736 23.578 13.736 C 23.578 13.736 24.087 15.339 23.522 17.079 C 22.977 17.806 22.465 18.559 22.025 19.384 C 21.588 20.194 21.241 21.034 20.941 21.883001 C 19.809 23.310001 18.194 23.773 18.194 23.773 C 18.194 23.773 18.201 23.778 18.207 23.778 L 15.954 24.265 C 15.142 24.293999 14.502001 24.969 14.528001 25.782 L 14.564001 26.817999 L 14.674001 30.439 L 14.706 31.474998 C 14.734 32.286 15.412001 32.922997 16.222 32.894997 L 18.501 33.239998 C 18.497 33.246 18.489 33.252 18.489 33.252 C 18.489 33.252 20.107 33.606 21.327 34.94 C 22.042 36.626 23.022 38.198997 24.234 39.612 C 24.897999 41.303 24.491 42.931 24.491 42.931 C 24.491 42.931 24.5 42.921 24.501999 42.921 L 23.8 45.113 C 23.415998 45.830997 23.684 46.723 24.4 47.107 L 25.312 47.593 L 28.504 49.307 L 29.416 49.797 C 30.132 50.175 31.024 49.91 31.409 49.193 L 32.847 47.392002 L 32.847 47.404003 C 32.847 47.404003 33.999 46.142002 35.809 45.772003 C 36.865997 45.897003 37.924 45.916004 38.970997 45.854004 L 38.68 45.617 C 38.012 45.072002 37.758 44.168 38.046 43.356 z M 56.964 35.898 L 48.104 35.898 C 47.723 35.898 47.411 36.21 47.411 36.591 L 47.411 40.289 C 47.411 40.673 47.724 40.985 48.104 40.985 L 69.473 40.985 L 56.964 30.811 L 56.964 35.898003 z M 61.332 44.039 L 39.964 44.039 L 52.472 54.214 L 52.472 49.126 L 61.331 49.126 C 61.713 49.126 62.026 48.813 62.026 48.431 L 62.026 44.733 C 62.027 44.349003 61.714 44.039 61.332 44.039 z " fill="#ffffff" fill-opacity="1"/>
</svg>
