<?xml version="1.0" encoding="UTF-8"?>
<svg xmlns="http://www.w3.org/2000/svg" xmlns:xlink="http://www.w3.org/1999/xlink" baseProfile="tiny" contentScriptType="text/ecmascript" contentStyleType="text/css" height="30px" preserveAspectRatio="xMidYMid meet" version="1.1" viewBox="0 0 30 30" width="30px" x="0px" y="0px" zoomAndPan="magnify">
<rect color="#000000" display="inline" fill="#353535" fill-opacity="0.58823529" fill-rule="nonzero" height="27.533897" ry="4.7137108" stroke="none" visibility="visible" width="27.533897" x="1.2330513" y="1.2330513"/>
<rect fill="none" height="30" width="30"/>
<path d="M 21.923077 6.0 L 8.076923 6.0 C 7.694077 6.0 7.384616 6.309462 7.384616 6.692308 L 7.384616 23.307692 C 7.384616 23.690538 7.694077 24.0 8.076923 24.0 L 21.923077 24.0 C 22.305923 24.0 22.615383 23.690538 22.615383 23.307692 L 22.615383 6.6923084 C 22.615383 6.309462 22.305923 6.0 21.923077 6.0 z M 19.846151 21.23077 L 10.153846 21.23077 C 9.771 21.23077 9.461538 20.921309 9.461538 20.538464 C 9.461538 20.155617 9.771 19.846155 10.153846 19.846155 L 19.846151 19.846155 C 20.229 19.846155 20.538462 20.155617 20.538462 20.538464 C 20.538462 20.92131 20.229 21.23077 19.846151 21.23077 z M 19.846151 18.461538 L 10.153846 18.461538 C 9.771 18.461538 9.461538 18.152077 9.461538 17.769232 C 9.461538 17.386383 9.771 17.076923 10.153846 17.076923 L 19.846151 17.076923 C 20.229 17.076923 20.538462 17.386383 20.538462 17.769232 C 20.538462 18.15208 20.229 18.461538 19.846151 18.461538 z M 19.846151 15.692308 L 10.153846 15.692308 C 9.771 15.692308 9.461538 15.382847 9.461538 15.0 C 9.461538 14.617154 9.771 14.307692 10.153846 14.307692 L 19.846151 14.307692 C 20.229 14.307692 20.538462 14.617153 20.538462 15.0 C 20.538462 15.382846 20.229 15.692308 19.846151 15.692308 z M 19.846151 12.923078 L 10.153846 12.923078 C 9.771 12.923078 9.461538 12.613616 9.461538 12.230769 C 9.461538 11.847923 9.771 11.538462 10.153846 11.538462 L 19.846151 11.538462 C 20.229 11.538462 20.538462 11.847922 20.538462 12.230768 C 20.538462 12.613614 20.229 12.923077 19.846151 12.923077 z M 19.846151 10.153846 L 10.153846 10.153846 C 9.771 10.153846 9.461538 9.844385 9.461538 9.461537 C 9.461538 9.0786915 9.771 8.76923 10.153846 8.76923 L 19.846151 8.76923 C 20.229 8.76923 20.538462 9.078691 20.538462 9.461536 C 20.538462 9.844383 20.229 10.153845 19.846151 10.153845 z " fill="#dedede"/>
</svg>
