<?xml version="1.0" encoding="UTF-8"?>
<svg xmlns="http://www.w3.org/2000/svg" xmlns:xlink="http://www.w3.org/1999/xlink" baseProfile="tiny" contentScriptType="text/ecmascript" contentStyleType="text/css" height="30px" preserveAspectRatio="xMidYMid meet" version="1.1" viewBox="0 0 30 30" width="30px" x="0px" y="0px" zoomAndPan="magnify">
<path d="M 29.414 26.586 L 19.974998 17.147 L 27.161999 6.8599997 C 27.784998 5.956 27.560999 4.7079997 26.662998 4.0759997 L 24.209 2.36 C 23.873 2.124 23.479 2.0 23.07 2.0 C 22.411999 2.0 21.798 2.324 21.431 2.859 L 14.955 12.127 L 3.414 0.586 C 3.036 0.208 2.534 0.0 2.0 0.0 C 1.4660001 0.0 0.964 0.208 0.586 0.586 C 0.209 0.964 0.0 1.466 0.0 2.0 C 0.0 2.534 0.209 3.036 0.586 3.414 L 12.629001 15.457001 L 10.975 17.825 L 7.5490003 13.064001 C 7.176 12.542 6.57 12.23 5.93 12.23 C 5.5049996 12.23 5.099 12.363 4.7559996 12.613999 L 2.3359995 14.381999 C 1.4509995 15.028999 1.2519995 16.282 1.8899995 17.171 L 8.384999 26.314 C 9.081 27.433 9.96 28.0 10.998 28.0 C 12.462 28.0 13.227 26.831 13.46 26.472 L 17.648 20.477001 L 26.586 29.415 C 26.964 29.792 27.466 30.0 28.0 30.0 C 28.534 30.0 29.036 29.792 29.414 29.414 C 29.793 29.036 30.0 28.534 30.0 28.0 C 30.0 27.466 29.793 26.964 29.414 26.586 z " fill-opacity="0.15"/>
<rect fill="none" height="30" width="30"/>
<path d="M 26.338 5.292 C 26.651 4.837 26.539 4.211 26.088999 3.895 L 23.634998 2.179 C 23.183998 1.8629999 22.562998 1.9779999 22.251999 2.4329998 L 15.964998 11.429999 L 19.547998 15.013 L 26.338 5.292 z M 10.986 18.554 L 6.734 12.646001 C 6.414 12.1970005 5.7910004 12.096001 5.3450003 12.422001 L 2.9250002 14.190001 C 2.482 14.514001 2.3820002 15.143001 2.7040002 15.592001 L 9.233 24.785 C 9.709 25.549 10.266 26.0 10.998 26.0 C 11.690001 26.0 12.188 25.591 12.641 24.899 L 16.64 19.174 L 13.056999 15.591 L 10.986 18.554 z M 28.707 26.293 L 2.7070007 0.29299927 C 2.3160007 -0.098000735 1.6840007 -0.098000735 1.2930007 0.29299927 C 0.90200067 0.6839993 0.90200067 1.3159993 1.2930007 1.7069993 L 27.293001 27.706999 C 27.488 27.902 27.744 28.0 28.0 28.0 C 28.256 28.0 28.512 27.902 28.707 27.707 C 29.098 27.316 29.098 26.684 28.707 26.293 z " fill-opacity="0.3"/>
<path d="M 19.548 16.012 L 26.338001 6.291999 C 26.651001 5.836999 26.539001 5.210999 26.089 4.894999 L 23.635 3.178999 C 23.184 2.862999 22.563 2.977999 22.252 3.432999 L 15.965 12.429998 L 19.548 16.012 z " fill="#ffffff"/>
<path d="M 13.057 16.592 L 10.987 19.553999 L 6.7350006 13.645999 C 6.4150004 13.196999 5.792001 13.095999 5.3460007 13.421999 L 2.9260006 15.189999 C 2.4830005 15.513999 2.3830006 16.142998 2.7050006 16.592 L 9.234 25.785 C 9.709 26.549 10.266 27.0 10.998 27.0 C 11.690001 27.0 12.188 26.591 12.641 25.899 L 16.64 20.174 L 13.057 16.592 z " fill="#ffffff"/>
<path d="M 28.0 29.0 C 28.256 29.0 28.512 28.902 28.707 28.707 C 29.098001 28.316 29.098001 27.684 28.707 27.293001 L 2.7070007 1.2930012 C 2.3160007 0.90200114 1.6840007 0.90200114 1.2930007 1.2930012 C 0.90200067 1.6840012 0.90200067 2.3160012 1.2930007 2.7070012 L 27.293001 28.707 C 27.488 28.902 27.744 29.0 28.0 29.0 L 28.0 29.0 z " fill="#fa664b"/>
</svg>
