<?xml version="1.0" encoding="UTF-8"?>
<svg xmlns="http://www.w3.org/2000/svg" xmlns:xlink="http://www.w3.org/1999/xlink" baseProfile="tiny" contentScriptType="text/ecmascript" contentStyleType="text/css" height="140px" preserveAspectRatio="xMidYMid meet" version="1.1" viewBox="0 0 140 140" width="140px" x="0px" y="0px" zoomAndPan="magnify">
<defs/>
<linearGradient gradientTransform="matrix(1 0.0056 0.0056 -1 -314.4268 -71.1348)" gradientUnits="userSpaceOnUse" x1="385.2051" x2="385.2051" xlink:actuate="onLoad" xlink:show="other" xlink:type="simple" y1="-95.9927" y2="-209.1273">
<stop offset="0" stop-color="#afd13e"/>
<stop offset="1" stop-color="#19592d"/>
</linearGradient>
<path d="M 128.329 70.323 C 128.09 113.535 112.89099 128.57 69.674 128.33 C 26.457996 128.088 11.426994 112.885 11.670998 69.675 C 11.91 26.457 27.108 11.428 70.326 11.67 C 113.544 11.912 128.572 27.11 128.329 70.323 z " fill="#90a4b4" fill-opacity="1"/>
<linearGradient gradientTransform="matrix(1 0.0056 0.0056 -1 -314.4268 -71.1348)" gradientUnits="userSpaceOnUse" id="SVGID_2_" x1="385.2051" x2="385.2051" xlink:actuate="onLoad" xlink:show="other" xlink:type="simple" y1="-81.0171" y2="-196.5763">
<stop offset="0" stop-color="#ffffff"/>
<stop offset="1" stop-color="#ffffff" stop-opacity="0"/>
</linearGradient>
<path d="M 70.326 11.67 C 27.108 11.428 11.91 26.457 11.671 69.672 C 11.426999 112.884995 26.458 128.088 69.674 128.33 C 112.893 128.56801 128.09 113.535 128.329 70.323 C 128.572 27.107 113.544 11.912 70.326 11.67 z M 69.681 126.872 C 27.163 126.635 12.887 112.2 13.128 69.68 C 13.365001 27.162 27.796 12.8880005 70.316 13.126999 C 112.837006 13.363999 127.108 27.797 126.871 70.315 C 126.635 112.835 112.204 127.109 69.681 126.872 z " fill="url(#SVGID_2_)" fill-opacity="0.25"/>
<path d="M 95.504 44.556 L 79.524 44.556 C 77.0 44.556 74.95101 46.618 74.95101 49.116 L 74.95101 65.109 C 74.95101 67.607 77.00001 69.669 79.524 69.669 L 95.504 69.669 C 98.015 69.669 100.064 67.607 100.064 65.109 L 100.064 49.116 C 100.063 46.618 98.015 44.556 95.504 44.556 z M 96.098 65.704 L 78.916 65.704 L 78.916 48.521 L 96.098 48.521 L 96.098 65.704 z M 63.782 76.277 L 47.802 76.277 C 45.278004 76.277 43.229004 78.34001 43.229004 80.838 L 43.229004 96.83 C 43.229004 99.328 45.278004 101.391 47.802 101.391 L 63.782 101.391 C 66.293 101.391 68.342 99.328 68.342 96.83 L 68.342 80.838 C 68.341 78.341 66.293 76.277 63.782 76.277 z M 64.376 97.426 L 47.194 97.426 L 47.194 80.242 L 64.377 80.242 L 64.377 97.426 z M 45.634 46.443 L 45.12 46.941 C 37.328 54.755 39.048 59.879 45.351997 66.198 C 51.685997 72.547 56.859997 74.236 64.615 66.47 L 65.13 65.974 C 72.937 58.151 71.188 53.012 64.892 46.698 C 58.564 40.365 53.4 38.661 45.634 46.443 z M 95.504 76.277 L 79.524 76.277 C 77.0 76.277 74.95101 78.34001 74.95101 80.838 L 74.95101 96.83 C 74.95101 99.328 77.00001 101.391 79.524 101.391 L 95.504 101.391 C 98.015 101.391 100.064 99.328 100.064 96.83 L 100.064 80.838 C 100.063 78.341 98.015 76.277 95.504 76.277 z M 96.098 97.426 L 78.916 97.426 L 78.916 80.242 L 96.098 80.242 L 96.098 97.426 z " fill-opacity="0.3"/>
<path d="M 95.504 43.234 L 79.524 43.234 C 77.0 43.234 74.95101 45.296 74.95101 47.794003 L 74.95101 63.787003 C 74.95101 66.285 77.00001 68.347 79.524 68.347 L 95.504 68.347 C 98.015 68.347 100.064 66.285 100.064 63.787 L 100.064 47.794 C 100.063 45.296 98.015 43.234 95.504 43.234 z M 96.098 64.382 L 78.916 64.382 L 78.916 47.199 L 96.098 47.199 L 96.098 64.382 z M 63.782 74.956 L 47.802 74.956 C 45.278004 74.956 43.229004 77.019005 43.229004 79.516 L 43.229004 95.509 C 43.229004 98.007 45.278004 100.069 47.802 100.069 L 63.782 100.069 C 66.293 100.069 68.342 98.006 68.342 95.509 L 68.342 79.516 C 68.341 77.02 66.293 74.956 63.782 74.956 z M 64.376 96.104 L 47.194 96.104 L 47.194 78.921 L 64.377 78.921 L 64.377 96.104 z M 45.634 45.122 L 45.12 45.62 C 37.328 53.434 39.048 58.557 45.351997 64.876 C 51.685997 71.224 56.859997 72.915 64.615 65.148 L 65.13 64.652 C 72.937 56.829 71.188 51.69 64.892 45.376 C 58.564 39.043 53.4 37.339 45.634 45.122 z M 95.504 74.956 L 79.524 74.956 C 77.0 74.956 74.95101 77.019005 74.95101 79.516 L 74.95101 95.509 C 74.95101 98.007 77.00001 100.069 79.524 100.069 L 95.504 100.069 C 98.015 100.069 100.064 98.006 100.064 95.509 L 100.064 79.516 C 100.063 77.02 98.015 74.956 95.504 74.956 z M 96.098 96.104 L 78.916 96.104 L 78.916 78.921 L 96.098 78.921 L 96.098 96.104 z " fill-opacity="0.15"/>
<path d="M 79.523 103.068 C 75.347 103.068 71.950005 99.676 71.950005 95.508 L 71.950005 79.516 C 71.950005 75.348 75.34701 71.956 79.523 71.956 L 95.503006 71.956 C 99.671005 71.956 103.063 75.348 103.063 79.516 L 103.063 95.509 C 103.063 99.677 99.671005 103.069 95.503006 103.069 L 79.523 103.069 z M 93.098 93.104 L 93.098 81.921 L 81.916 81.921 L 81.916 93.104 L 93.098 93.104 z M 47.802 103.068 C 43.626 103.068 40.228996 99.676 40.228996 95.508 L 40.228996 79.516 C 40.228996 75.348 43.625996 71.956 47.80199 71.956 L 49.608994 71.956 C 47.60799 70.933 45.538994 69.31 43.229992 66.996 C 37.37799 61.131004 32.77399 53.753 42.99599 43.501 L 43.54699 42.967 C 47.653988 38.851 51.35099 36.93 55.17199 36.93 C 59.04199 36.93 62.58399 38.822 67.01499 43.255 C 68.96599 45.212 70.77899 47.337 71.95099 49.678 L 71.95099 47.794003 C 71.95099 43.626003 75.34799 40.234 79.52399 40.234 L 95.50398 40.234 C 99.67198 40.234 103.06398 43.625 103.06398 47.794003 L 103.06398 63.787003 C 103.06398 67.955 99.67198 71.347 95.50398 71.347 L 79.52399 71.347 C 75.347984 71.347 71.95099 67.956 71.95099 63.787 L 71.95099 60.5 C 70.98899 62.465 69.469986 64.551 67.25499 66.770996 L 66.69699 67.309 C 64.58099 69.429 62.57299 70.965 60.59899 71.955 L 63.78199 71.955 C 67.94999 71.955 71.34099 75.347 71.34099 79.515 L 71.34099 95.508 C 71.34099 99.676 67.94999 103.06799 63.78199 103.06799 L 47.802 103.06799 z M 61.376 93.104 L 61.376 81.921 L 50.194 81.921 L 50.194 93.104 L 61.376 93.104 z M 93.098 61.382 L 93.098 50.199 L 81.916 50.199 L 81.916 61.382 L 93.098 61.382 z " fill-opacity="0.07" stroke-opacity="0.07"/>
<path d="M 79.523 102.318 C 75.76 102.318 72.700005 99.263 72.700005 95.508 L 72.700005 79.516 C 72.700005 75.761 75.761 72.706 79.523 72.706 L 95.503006 72.706 C 99.258 72.706 102.313 75.761 102.313 79.516 L 102.313 95.509 C 102.313 99.264 99.258 102.319 95.503006 102.319 L 79.523 102.319 z M 93.848 93.854 L 93.848 81.171 L 81.166 81.171 L 81.166 93.854 L 93.848 93.854 z M 47.802 102.318 C 44.039997 102.318 40.978996 99.263 40.978996 95.508 L 40.978996 79.516 C 40.978996 75.761 44.039997 72.706 47.80199 72.706 L 63.781994 72.706 C 67.536995 72.706 70.591 75.761 70.591 79.516 L 70.591 95.509 C 70.591 99.264 67.536995 102.319 63.782 102.319 L 47.802 102.319 z M 62.126 93.854 L 62.126 81.171 L 49.444 81.171 L 49.444 93.854 L 62.126 93.854 z M 55.084 72.581 C 51.422 72.58 48.035 70.751 43.76 66.466 C 37.887997 60.581 33.796 53.790005 43.525997 44.03101 L 44.067997 43.506004 C 48.031 39.534004 51.561996 37.680004 55.171997 37.680004 C 58.823997 37.680004 62.207996 39.506004 66.485 43.785004 C 72.364 49.681004 76.462 56.483 66.724 66.242004 L 66.177 66.769005 C 62.222 70.731 58.694 72.581 55.084 72.581 L 55.084 72.581 z M 79.523 70.597 C 75.76 70.597 72.700005 67.542 72.700005 63.787 L 72.700005 47.794 C 72.700005 44.039 75.761 40.983997 79.523 40.983997 L 95.503006 40.983997 C 99.258 40.983997 102.313 44.039 102.313 47.794 L 102.313 63.787 C 102.313 67.542 99.258 70.597 95.503006 70.597 L 79.523 70.597 z M 93.848 62.132 L 93.848 49.449 L 81.166 49.449 L 81.166 62.132 L 93.848 62.132 z " fill-opacity="0.07" stroke-opacity="0.07"/>
<path d="M 79.523 101.568 C 76.174 101.568 73.450005 98.849 73.450005 95.508 L 73.450005 79.516 C 73.450005 76.174995 76.175 73.456 79.523 73.456 L 95.503006 73.456 C 98.84401 73.456 101.563 76.175 101.563 79.516 L 101.563 95.509 C 101.563 98.850006 98.844 101.569 95.503006 101.569 L 79.523 101.569 z M 94.598 94.604 L 94.598 80.421 L 80.416 80.421 L 80.416 94.604 L 94.598 94.604 z M 47.802 101.568 C 44.453 101.568 41.728996 98.849 41.728996 95.508 L 41.728996 79.516 C 41.728996 76.174995 44.453995 73.456 47.80199 73.456 L 63.781994 73.456 C 67.12299 73.456 69.842 76.175 69.842 79.516 L 69.842 95.509 C 69.842 98.850006 67.12399 101.569 63.781994 101.569 L 47.802 101.569 z M 62.876 94.604 L 62.876 80.421 L 48.694 80.421 L 48.694 94.604 L 62.876 94.604 z M 55.084 71.831 C 51.64 71.83 48.412 70.067 44.291 65.936005 C 37.822 59.453003 35.307 53.336006 44.058 44.561005 L 44.591 44.04501 C 48.41 40.217007 51.776 38.431007 55.173 38.431007 C 58.608 38.431007 61.832 40.19101 65.955 44.31701 C 72.432 50.813007 74.950005 56.93801 66.193 65.71301 L 65.656 66.23001 C 61.844 70.048 58.481 71.831 55.084 71.831 L 55.084 71.831 z M 79.523 69.847 C 76.174 69.847 73.450005 67.128 73.450005 63.787 L 73.450005 47.794 C 73.450005 44.453 76.175 41.733997 79.523 41.733997 L 95.503006 41.733997 C 98.84401 41.733997 101.563 44.451996 101.563 47.794 L 101.563 63.787 C 101.563 67.128 98.844 69.847 95.503006 69.847 L 79.523 69.847 z M 94.598 62.882 L 94.598 48.699 L 80.416 48.699 L 80.416 62.882 L 94.598 62.882 z " fill-opacity="0.07" stroke-opacity="0.07"/>
<path d="M 79.523 100.818 C 76.587006 100.818 74.200005 98.436005 74.200005 95.508 L 74.200005 79.516 C 74.200005 76.588 76.588005 74.206 79.523 74.206 L 95.503006 74.206 C 98.43101 74.206 100.813 76.588 100.813 79.516 L 100.813 95.509 C 100.813 98.43701 98.431 100.819 95.503006 100.819 L 79.523 100.819 z M 95.348 95.354 L 95.348 79.671 L 79.666 79.671 L 79.666 95.354 L 95.348 95.354 z M 47.802 100.818 C 44.866997 100.818 42.478996 98.436005 42.478996 95.508 L 42.478996 79.516 C 42.478996 76.588 44.866997 74.206 47.80199 74.206 L 63.781994 74.206 C 66.70999 74.206 69.092 76.588 69.092 79.516 L 69.092 95.509 C 69.092 98.43701 66.70999 100.819 63.781994 100.819 L 47.802 100.819 z M 63.626 95.354 L 63.626 79.671 L 47.944 79.671 L 47.944 95.354 L 63.626 95.354 z M 55.083 71.081 C 51.858 71.08 48.79 69.383 44.821 65.406 C 38.494 59.064 36.248 53.454 44.587997 45.089996 L 45.110996 44.582996 C 48.785995 40.9 51.985996 39.179996 55.171 39.179996 C 58.387997 39.179996 61.454 40.874996 65.423 44.845997 C 71.758 51.199997 74.007 56.817997 65.660995 65.182 L 65.134995 65.687996 C 61.466 69.364 58.269 71.081 55.083 71.081 C 55.084 71.081 55.084 71.081 55.083 71.081 z M 79.523 69.097 C 76.587006 69.097 74.200005 66.715 74.200005 63.787 L 74.200005 47.794 C 74.200005 44.865997 76.588005 42.483997 79.523 42.483997 L 95.503006 42.483997 C 98.43101 42.483997 100.813 44.865997 100.813 47.794 L 100.813 63.787 C 100.813 66.715 98.431 69.097 95.503006 69.097 L 79.523 69.097 z M 95.348 63.632 L 95.348 47.949 L 79.666 47.949 L 79.666 63.632 L 95.348 63.632 z " fill-opacity="0.07" stroke-opacity="0.07"/>
<linearGradient gradientTransform="matrix(1.3217 0 0 -1.3217 -258.9277 4.4823)" gradientUnits="userSpaceOnUse" x1="248.8555" x2="248.8555" xlink:actuate="onLoad" xlink:show="other" xlink:type="simple" y1="-72.3188" y2="-26.8198">
<stop offset="0" stop-color="#d0cbc5"/>
<stop offset="0.5031" stop-color="#fafcef"/>
<stop offset="0.9693" stop-color="#ffffff"/>
<stop offset="1" stop-color="#ffffff"/>
</linearGradient>
<path d="M 95.504 43.234 L 79.524 43.234 C 77.0 43.234 74.95101 45.296 74.95101 47.794003 L 74.95101 63.787003 C 74.95101 66.285 77.00001 68.347 79.524 68.347 L 95.504 68.347 C 98.015 68.347 100.064 66.285 100.064 63.787 L 100.064 47.794 C 100.063 45.296 98.015 43.234 95.504 43.234 z M 96.098 64.382 L 78.916 64.382 L 78.916 47.199 L 96.098 47.199 L 96.098 64.382 z M 63.782 74.956 L 47.802 74.956 C 45.278004 74.956 43.229004 77.019005 43.229004 79.516 L 43.229004 95.509 C 43.229004 98.007 45.278004 100.069 47.802 100.069 L 63.782 100.069 C 66.293 100.069 68.342 98.006 68.342 95.509 L 68.342 79.516 C 68.341 77.02 66.293 74.956 63.782 74.956 z M 64.376 96.104 L 47.194 96.104 L 47.194 78.921 L 64.377 78.921 L 64.377 96.104 z M 45.634 45.122 L 45.12 45.62 C 37.328 53.434 39.048 58.557 45.351997 64.876 C 51.685997 71.224 56.859997 72.915 64.615 65.148 L 65.13 64.652 C 72.937 56.829 71.188 51.69 64.892 45.376 C 58.564 39.043 53.4 37.339 45.634 45.122 z M 95.504 74.956 L 79.524 74.956 C 77.0 74.956 74.95101 77.019005 74.95101 79.516 L 74.95101 95.509 C 74.95101 98.007 77.00001 100.069 79.524 100.069 L 95.504 100.069 C 98.015 100.069 100.064 98.006 100.064 95.509 L 100.064 79.516 C 100.063 77.02 98.015 74.956 95.504 74.956 z M 96.098 96.104 L 78.916 96.104 L 78.916 78.921 L 96.098 78.921 L 96.098 96.104 z " fill="#3ba3f1" fill-opacity="1"/>
</svg>
