<?xml version="1.0" encoding="UTF-8"?>
<svg xmlns="http://www.w3.org/2000/svg" xmlns:xlink="http://www.w3.org/1999/xlink" baseProfile="tiny" contentScriptType="text/ecmascript" contentStyleType="text/css" height="57px" preserveAspectRatio="xMidYMid meet" version="1.1" viewBox="0 0 67 57" width="67px" x="0px" y="0px" zoomAndPan="magnify">
<rect fill="#ffffff" fill-opacity="0.70588235" fill-rule="nonzero" height="48" ry="8.2174387" stroke="none" width="48" x="9.5000019" y="5.5000019"/>
<rect color="#000000" display="inline" fill="#f6da42" fill-opacity="0.58823528999999997" fill-rule="nonzero" height="48" ry="8.2174387" stroke="none" visibility="visible" width="48" x="9.5" y="5.5"/>
<rect fill="none" height="57" width="67"/>
<path d="M 46.826485 14.692799 L 20.173515 14.692799 C 19.35912 14.692799 18.6928 15.359121 18.6928 16.17352 L 18.6928 42.826485 C 18.6928 43.64088 19.35912 44.307205 20.173515 44.307205 L 46.826485 44.307205 C 47.64088 44.307205 48.307205 43.64088 48.307205 42.826485 L 48.307205 16.173517 C 48.307205 15.359123 47.64088 14.6928 46.826485 14.6928 z M 42.220703 27.803097 L 37.631214 31.891363 L 39.228912 37.67802 C 39.28221 37.87495 39.214104 38.08299 39.058628 38.204414 C 38.97793 38.268085 38.880943 38.299923 38.783955 38.301403 C 38.694378 38.301403 38.604782 38.275497 38.52779 38.223663 L 33.688057 34.96164 L 28.626951 38.308807 C 28.551434 38.359898 28.466291 38.384327 28.38115 38.384327 C 28.279722 38.385822 28.178291 38.35249 28.09167 38.282894 C 27.93693 38.15852 27.874 37.94603 27.932487 37.750576 L 29.698246 31.955034 L 24.7941 27.951906 C 24.638624 27.824564 24.576431 27.60912 24.640104 27.411444 C 24.703772 27.215988 24.879242 27.084946 25.078398 27.083464 L 31.173784 27.024233 L 33.009132 20.955502 C 33.069843 20.757084 33.243088 20.6216 33.44298 20.615677 L 33.45188 20.615677 C 33.647335 20.613478 33.82354 20.740055 33.8924 20.930328 L 36.08164 26.984997 L 41.91494 26.947235 C 42.11188 26.945738 42.28512 27.071615 42.35472 27.26411 C 42.423573 27.455124 42.36953 27.67205 42.220715 27.803097 z " fill="#ffffff" fill-opacity="1" stroke-opacity="0.3"/>
<defs>
<linearGradient gradientUnits="userSpaceOnUse" x1="33.5005" x2="33.5005" xlink:actuate="onLoad" xlink:show="other" xlink:type="simple" y1="49" y2="9.0005">
<stop offset="0" stop-color="#d0cbc5"/>
<stop offset="0.5031" stop-color="#fafcef"/>
<stop offset="0.9693" stop-color="#ffffff"/>
<stop offset="1" stop-color="#ffffff"/>
</linearGradient>
</defs>
</svg>
