<?xml version="1.0" encoding="UTF-8"?>
<svg xmlns="http://www.w3.org/2000/svg" xmlns:xlink="http://www.w3.org/1999/xlink" baseProfile="tiny" contentScriptType="text/ecmascript" contentStyleType="text/css" height="30px" preserveAspectRatio="xMidYMid meet" version="1.1" viewBox="0 0 30 30" width="30px" x="0px" y="0px" zoomAndPan="magnify">
<rect fill="none" height="30" width="30"/>
<path color="#000000" d="M 10.760871 5.000002 L 8.826088 15.239131 L 11.130436 15.543479 C 11.492751 14.972836 11.996374 14.488235 12.630436 14.130435 C 13.264488 13.772656 13.97282 13.608708 14.760871 13.608697 C 16.028978 13.608708 17.042562 13.998199 17.826088 14.804349 C 18.60959 15.610518 18.99999 16.713776 19.0 18.108696 C 18.999989 19.576092 18.597816 20.764498 17.782606 21.652176 C 16.96738 22.53986 15.9818735 22.978264 14.804345 22.97826 C 13.826079 22.978262 12.975535 22.673008 12.282607 22.043478 C 11.589669 21.413954 11.146734 20.467396 10.956522 19.217392 L 8.391303 19.434782 C 8.554345 21.11051 9.20199 22.46377 10.347825 23.47826 C 11.493656 24.492754 12.992748 25.0 14.804347 25.0 C 17.014482 24.999998 18.74455 24.177536 20.02174 22.565216 C 21.07245 21.251814 21.608685 19.693846 21.608696 17.891304 C 21.608685 15.998197 20.999989 14.46559 19.80435 13.260869 C 18.608686 12.056172 17.152166 11.434796 15.413045 11.434781 C 14.099632 11.434795 12.847822 11.862331 11.652175 12.695651 L 12.717393 7.347826 L 20.673914 7.347826 L 20.673914 5.0 L 10.760872 5.0 z " display="inline" fill="#dedede" fill-opacity="1" fill-rule="nonzero" stroke="none" visibility="visible"/>
</svg>
