<?xml version="1.0" encoding="UTF-8"?>
<svg xmlns="http://www.w3.org/2000/svg" xmlns:xlink="http://www.w3.org/1999/xlink" baseProfile="tiny" contentScriptType="text/ecmascript" contentStyleType="text/css" height="30px" preserveAspectRatio="xMidYMid meet" version="1.1" viewBox="0 0 30 30" width="30px" x="0px" y="0px" zoomAndPan="magnify">
<rect color="#000000" display="inline" fill="#353535" fill-opacity="0.58823529" fill-rule="nonzero" height="27.533897" ry="4.7137108" stroke="none" visibility="visible" width="27.533897" x="1.2330513" y="1.2330513"/>
<path d="M 23.307692 9.115385 L 10.846153 9.115385 C 10.846153 8.734616 10.534615 8.423077 10.153845 8.423077 L 8.076921 8.423077 C 7.696152 8.423077 7.384614 8.734615 7.384614 9.115385 L 6.6923065 9.115385 C 6.311538 9.115385 6.0 9.426923 6.0 9.807692 L 6.0 20.884617 C 6.0 21.265385 6.311538 21.576923 6.6923075 21.576923 L 23.30769 21.576923 C 23.68846 21.576923 24.0 21.265385 24.0 20.884617 L 24.0 9.807692 C 24.0 9.426923 23.68846 9.115385 23.307692 9.115385 z M 9.115384 11.884615 C 8.732538 11.884615 8.423077 11.575154 8.423077 11.192308 C 8.423077 10.809463 8.732538 10.5 9.115384 10.5 C 9.49823 10.5 9.807692 10.809461 9.807692 11.192308 C 9.807692 11.575154 9.49823 11.884615 9.115384 11.884615 z M 15.0 20.01923 C 12.419077 20.01923 10.326923 17.927769 10.326923 15.346153 C 10.326923 12.76523 12.419077 10.673077 15.0 10.673077 C 17.581615 10.673077 19.673077 12.76523 19.673077 15.346153 C 19.673077 17.927769 17.581615 20.01923 15.0 20.01923 z M 22.615383 11.192307 L 19.846151 11.192307 L 19.846151 10.153847 L 22.615383 10.153847 L 22.615383 11.192307 z M 15.0 11.538462 C 12.900923 11.538462 11.192308 13.247077 11.192308 15.346153 C 11.192308 17.44523 12.900924 19.153849 15.0 19.153849 C 17.099075 19.153849 18.807692 17.44523 18.807692 15.346153 C 18.807692 13.247076 17.099075 11.538462 15.0 11.538462 z M 15.0 17.76923 C 13.663846 17.76923 12.576923 16.682306 12.576923 15.346153 C 12.576923 14.009999 13.663846 12.923077 15.0 12.923077 C 16.336155 12.923077 17.423077 14.009999 17.423077 15.346153 C 17.423077 16.682308 16.336155 17.76923 15.000001 17.76923 z " fill="#dedede"/>
<rect fill="none" height="30" width="30"/>
</svg>
