<?xml version="1.0" encoding="UTF-8"?>
<svg xmlns="http://www.w3.org/2000/svg" xmlns:xlink="http://www.w3.org/1999/xlink" baseProfile="tiny" contentScriptType="text/ecmascript" contentStyleType="text/css" height="30px" preserveAspectRatio="xMidYMid meet" version="1.1" viewBox="0 0 30 30" width="30px" x="0px" y="0px" zoomAndPan="magnify">
<path d="M 15.0 1.0 C 14.717 1.0 14.446 1.12 14.257 1.331 L 5.257 16.331 C 4.992 16.625 4.926 17.046 5.087 17.407 C 5.247 17.768 5.605 18.0 6.0 18.0 L 10.5 18.0 L 10.5 27.0 C 10.5 28.103 11.397 29.0 12.5 29.0 L 17.5 29.0 C 18.603 29.0 19.5 28.103 19.5 27.0 L 19.5 18.0 L 24.0 18.0 C 24.395 18.0 24.753 17.768 24.913 17.407 C 25.074 17.046 25.008 16.625 24.743 16.331 L 15.743 1.3309994 C 15.554 1.12 15.283 1.0 15.0 1.0 L 15.0 1.0 z " fill-opacity="0.15" stroke-opacity="0.15"/>
<path d="M 11.5 26.0 L 11.5 16.0 L 6.0 16.0 L 15.0 1.0 L 24.0 16.0 L 18.5 16.0 L 18.5 26.0 C 18.5 26.55 18.05 27.0 17.5 27.0 L 12.5 27.0 C 11.95 27.0 11.5 26.55 11.5 26.0 z " fill-opacity="0.3" stroke-opacity="0.3"/>
<path d="M 11.5 27.0 L 11.5 17.0 L 6.0 17.0 L 15.0 2.0 L 24.0 17.0 L 18.5 17.0 L 18.5 27.0 C 18.5 27.55 18.05 28.0 17.5 28.0 L 12.5 28.0 C 11.95 28.0 11.5 27.55 11.5 27.0 z " fill="#dedede"/>
<rect fill="none" height="30" width="30"/>
</svg>
