<?xml version="1.0" encoding="UTF-8"?>
<svg xmlns="http://www.w3.org/2000/svg" xmlns:xlink="http://www.w3.org/1999/xlink" baseProfile="tiny" contentScriptType="text/ecmascript" contentStyleType="text/css" height="57px" preserveAspectRatio="xMidYMid meet" version="1.1" viewBox="0 0 67 57" width="67px" x="0px" y="0px" zoomAndPan="magnify">
<rect fill="#ffffff" fill-opacity="0.70588235" fill-rule="nonzero" height="48" ry="8.2174387" stroke="none" width="48" x="9.5" y="4.5"/>
<rect color="#000000" display="inline" fill="#01a0f3" fill-opacity="0.58823528999999997" fill-rule="nonzero" height="48" ry="8.2174387" stroke="none" visibility="visible" width="48" x="9.5" y="4.5"/>
<defs>
<linearGradient gradientTransform="matrix(1 0 0 1 -498.9609 -785.0391)" gradientUnits="userSpaceOnUse" x1="531.96" x2="531.96" xlink:actuate="onLoad" xlink:show="other" xlink:type="simple" y1="837.04" y2="789.04">
<stop offset="0" stop-color="#d0cbc5"/>
<stop offset="0.5031" stop-color="#fafcef"/>
<stop offset="0.9693" stop-color="#ffffff"/>
<stop offset="1" stop-color="#ffffff"/>
</linearGradient>
</defs>
<path color="#000000" d="M 32.375 13.96875 L 32.375 26.90625 L 26.875 21.8125 L 25.59375 23.1875 L 31.3125 28.5 L 25.59375 33.8125 L 26.875 35.1875 L 32.375 30.09375 L 32.375 43.03125 L 41.40625 34.1875 L 35.71875 27.875 L 41.40625 22.84375 L 32.375 13.96875 z M 34.78125 19.0 L 38.5625 22.84375 L 34.78125 26.0 L 34.78125 19.0 z M 34.78125 30.09375 L 38.5625 34.1875 L 34.78125 38.0 L 34.78125 30.09375 z " display="inline" fill="#ffffff" fill-opacity="1" fill-rule="nonzero" stroke="none" stroke-width="1" visibility="visible"/>
</svg>
