<?xml version="1.0" encoding="UTF-8"?>
<svg xmlns="http://www.w3.org/2000/svg" xmlns:xlink="http://www.w3.org/1999/xlink" baseProfile="tiny" contentScriptType="text/ecmascript" contentStyleType="text/css" height="57px" preserveAspectRatio="xMidYMid meet" version="1.1" viewBox="0 0 67 57" width="67px" x="0px" y="0px" zoomAndPan="magnify">
<path d="M 14.0 17.0 L 31.036 17.0 L 31.036 19.0 L 35.004 19.0 L 35.004 17.0 L 51.985 17.0 L 51.985 19.0 L 55.0 19.0 L 55.0 12.0 C 55.0 10.9 54.1 10.0 53.0 10.0 L 13.0 10.0 C 11.9 10.0 11.0 10.9 11.0 12.0 L 11.0 39.0 C 11.0 40.1 11.9 41.0 13.0 41.0 L 17.0 41.0 L 17.0 38.999 L 14.0 38.999 L 14.0 35.999 L 17.0 35.999 L 17.0 34.0 L 14.0 34.0 L 14.0 17.0 z M 49.0 11.999001 L 52.0 11.999001 L 52.0 14.999001 L 49.0 14.999001 L 49.0 11.999001 z M 44.0 11.999001 L 47.0 11.999001 L 47.0 14.999001 L 44.0 14.999001 L 44.0 11.999001 z M 39.0 11.999001 L 42.0 11.999001 L 42.0 14.999001 L 39.0 14.999001 L 39.0 11.999001 z M 34.0 11.999001 L 37.0 11.999001 L 37.0 14.999001 L 34.0 14.999001 L 34.0 11.999001 z M 29.0 11.999001 L 32.0 11.999001 L 32.0 14.999001 L 29.0 14.999001 L 29.0 11.999001 z M 24.0 11.999001 L 27.0 11.999001 L 27.0 14.999001 L 24.0 14.999001 L 24.0 11.999001 z M 19.0 11.999001 L 22.0 11.999001 L 22.0 14.999001 L 19.0 14.999001 L 19.0 11.999001 z M 14.0 11.999001 L 17.0 11.999001 L 17.0 14.999001 L 14.0 14.999001 L 14.0 11.999001 z M 55.0 21.0 L 21.0 21.0 C 19.899 21.0 19.0 21.9 19.0 23.0 L 19.0 49.0 C 19.0 50.1 19.899 51.0 21.0 51.0 L 55.0 51.0 C 56.099 51.0 57.0 50.1 57.0 49.0 L 57.0 23.0 C 57.0 21.9 56.099 21.0 55.0 21.0 z M 54.0 48.0 L 22.0 48.0 L 22.0 24.0 L 54.0 24.0 L 54.0 48.0 z M 52.0 34.777 L 46.578 30.075 C 46.578 30.075 46.23 29.755 45.79 29.755 C 45.348 29.755 45.0 30.075 45.0 30.075 L 36.001 37.103 L 36.0 37.105 L 30.579 32.754 C 30.579 32.754 30.231 32.433002 29.79 32.433002 C 29.349 32.433002 29.0 32.755 29.0 32.755 L 24.0 38.246 L 24.0 46.0 L 52.0 46.0 L 52.0 34.777 z " fill="#575757" fill-opacity="1" stroke-opacity="0.29999999999999999"/>
<defs>
<linearGradient gradientUnits="userSpaceOnUse" x1="34" x2="34" xlink:actuate="onLoad" xlink:show="other" xlink:type="simple" y1="50" y2="9.0005">
<stop offset="0" stop-color="#d0cbc5"/>
<stop offset="0.5031" stop-color="#fafcef"/>
<stop offset="0.9693" stop-color="#ffffff"/>
<stop offset="1" stop-color="#ffffff"/>
</linearGradient>
</defs>
</svg>
