<?xml version="1.0" encoding="UTF-8"?>
<svg xmlns="http://www.w3.org/2000/svg" xmlns:xlink="http://www.w3.org/1999/xlink" baseProfile="tiny" contentScriptType="text/ecmascript" contentStyleType="text/css" height="30px" preserveAspectRatio="xMidYMid meet" version="1.1" viewBox="0 0 30 30" width="30px" x="0px" y="0px" zoomAndPan="magnify">
<path d="M 26.089 14.214 L 15.399 6.115 C 15.291 6.039 15.169 6.0 15.049 6.0 C 14.924 6.0 14.8 6.04 14.689 6.123 C 14.47 6.286 14.337 6.58 14.337 6.9 L 14.337 13.484 L 4.61 6.115 C 4.502 6.039 4.381 6.0 4.261 6.0 C 4.136 6.0 4.012 6.04 3.9 6.123 C 3.682 6.286 3.548 6.58 3.548 6.9 L 3.548 23.101 C 3.548 23.419 3.682 23.713 3.901 23.876 C 4.012 23.958 4.135 24.0 4.261 24.0 C 4.381 24.0 4.5030003 23.962 4.611 23.883 L 14.338 16.515 L 14.338 23.101 C 14.338 23.42 14.471001 23.713 14.691 23.877 C 14.8 23.957998 14.924 23.999998 15.049 23.999998 C 15.169 23.999998 15.290999 23.961998 15.398 23.882998 L 26.089 15.783998 C 26.312 15.624997 26.452002 15.324998 26.452002 14.999997 C 26.452002 14.672997 26.314 14.374997 26.089 14.213997 z " fill="#dedede" fill-opacity="1" stroke-opacity="0.7"/>
</svg>
