<?xml version="1.0" encoding="UTF-8"?>
<svg xmlns="http://www.w3.org/2000/svg" xmlns:xlink="http://www.w3.org/1999/xlink" baseProfile="tiny" contentScriptType="text/ecmascript" contentStyleType="text/css" height="57px" preserveAspectRatio="xMidYMid meet" version="1.1" viewBox="0 0 67 57" width="67px" x="0px" y="0px" zoomAndPan="magnify">
<defs/>
<rect fill="#ffffff" fill-opacity="0.70588235" fill-rule="nonzero" height="48" ry="8.2174387" stroke="none" width="48" x="9.5" y="5.4999981"/>
<rect color="#000000" display="inline" fill="#01a0f3" fill-opacity="0.58823528999999997" fill-rule="nonzero" height="48" ry="8.2174387" stroke="none" visibility="visible" width="48" x="9.5" y="5.5"/>
<path color="#000000" d="M 35.84375 22.15625 C 35.17308 22.15625 34.621506 22.260084 34.1875 22.46875 C 33.752834 22.67675 33.41092 22.959833 33.15625 23.3125 C 32.900917 23.665165 32.729 24.067917 32.625 24.53125 C 32.521 24.993252 32.46875 25.50267 32.46875 26.0 L 32.46875 26.65625 L 30.9375 26.65625 L 30.9375 28.59375 L 32.46875 28.59375 L 32.46875 35.40625 L 34.8125 35.40625 L 34.8125 28.59375 L 37.125 28.59375 L 37.125 26.65625 L 34.8125 26.65625 L 34.8125 26.0625 C 34.8125 25.334503 34.952747 24.815256 35.21875 24.53125 C 35.485413 24.247915 35.88283 24.125 36.4375 24.125 C 36.716167 24.125 36.959583 24.10833 37.15625 24.125 C 37.35292 24.143 37.498997 24.1655 37.625 24.1875 L 37.84375 22.375 C 37.704414 22.340996 37.461 22.302 37.125 22.25 C 36.790333 22.19733 36.363747 22.15625 35.84375 22.15625 z M 26.5 26.40625 C 26.154 26.40625 25.841167 26.47516 25.5625 26.5625 C 25.285172 26.649168 25.051754 26.737 24.84375 26.875 C 24.635088 27.014334 24.45716 27.182417 24.3125 27.34375 C 24.16717 27.50508 24.04941 27.661167 23.96875 27.8125 L 23.875 26.65625 L 21.78125 26.65625 L 21.78125 35.40625 L 24.09375 35.40625 L 24.09375 31.3125 C 24.09375 30.919168 24.13417 30.540165 24.1875 30.1875 C 24.238167 29.834167 24.33608 29.546583 24.46875 29.28125 C 24.602083 29.013914 24.788584 28.80625 25.03125 28.65625 C 25.274584 28.504915 25.587416 28.40625 25.96875 28.40625 C 26.338083 28.40625 26.652252 28.530663 26.90625 28.75 C 27.160917 28.970667 27.28125 29.367416 27.28125 29.96875 L 27.28125 35.40625 L 29.59375 35.40625 L 29.59375 29.84375 C 29.59375 28.779081 29.349 27.95108 28.875 27.34375 C 28.40033 26.736414 27.610666 26.40625 26.5 26.40625 z M 42.46875 26.40625 C 41.796745 26.40625 41.196255 26.530005 40.65625 26.75 C 40.117588 26.970003 39.656586 27.282833 39.28125 27.6875 C 38.905243 28.092836 38.608917 28.589582 38.40625 29.15625 C 38.204247 29.72425 38.09375 30.349249 38.09375 31.03125 C 38.09375 32.454582 38.48342 33.58025 39.21875 34.40625 C 39.952084 35.23425 41.021416 35.625 42.46875 35.625 C 42.862747 35.625 43.239162 35.60525 43.5625 35.53125 C 43.88584 35.456585 44.15758 35.354 44.40625 35.25 C 44.654915 35.14667 44.85791 35.048164 45.03125 34.9375 C 45.20658 34.82817 45.366085 34.72558 45.46875 34.65625 L 44.59375 33.09375 C 44.43175 33.199085 44.175007 33.311504 43.875 33.4375 C 43.572334 33.564163 43.20475 33.625 42.71875 33.625 C 41.98875 33.625 41.41991 33.416668 41.03125 33.0 C 40.643917 32.583336 40.4329 31.934587 40.4375 31.03125 C 40.4375 30.16325 40.663834 29.491173 41.0625 29.0625 C 41.464497 28.633837 41.964996 28.4375 42.625 28.4375 C 42.84367 28.4375 43.07725 28.47325 43.28125 28.53125 C 43.481247 28.58925 43.651165 28.644093 43.8125 28.71875 C 43.974495 28.794752 44.13333 28.85617 44.25 28.9375 C 44.366 29.018827 44.44067 29.08967 44.5 29.125 L 45.53125 27.53125 C 45.483913 27.485252 45.380085 27.40325 45.21875 27.28125 C 45.056084 27.15992 44.85842 27.03292 44.59375 26.90625 C 44.32775 26.778252 44.01692 26.66117 43.65625 26.5625 C 43.295586 26.463827 42.896748 26.40625 42.46875 26.40625 z " display="inline" fill="#ffffff" fill-opacity="1" fill-rule="nonzero" stroke="none" stroke-width="1" visibility="visible"/>
<linearGradient gradientTransform="matrix(1 0 0 1 -498.9609 -785.0391)" gradientUnits="userSpaceOnUse" x1="532.46" x2="532.46" xlink:actuate="onLoad" xlink:show="other" xlink:type="simple" y1="837.7334" y2="789.647">
<stop offset="0" stop-color="#d0cbc5"/>
<stop offset="0.5031" stop-color="#fafcef"/>
<stop offset="0.9693" stop-color="#ffffff"/>
<stop offset="1" stop-color="#ffffff"/>
</linearGradient>
</svg>
