<?xml version="1.0" encoding="UTF-8"?>
<svg xmlns="http://www.w3.org/2000/svg" xmlns:xlink="http://www.w3.org/1999/xlink" baseProfile="tiny" contentScriptType="text/ecmascript" contentStyleType="text/css" height="27px" preserveAspectRatio="xMidYMid meet" version="1.1" viewBox="1.5 1.5 27 27" width="27px" x="0px" y="0px" zoomAndPan="magnify">
<linearGradient gradientTransform="matrix(1 0 0 1 0.0801 -812.6914)" gradientUnits="userSpaceOnUse" x1="14.9204" x2="14.9204" xlink:actuate="onLoad" xlink:show="other" xlink:type="simple" y1="839.166" y2="816.2168">
<stop offset="0" stop-color="#d0cbc5"/>
<stop offset="1" stop-color="#fcfcf9"/>
</linearGradient>
<path d="M 7.799 26.475 L 22.199 26.475 L 23.099 9.375999 L 6.898 9.375999 L 7.799 26.475 z M 17.7 12.976 C 17.7 12.478 18.1 12.076 18.598 12.076 C 19.097002 12.076 19.497002 12.479 19.497002 12.976 L 19.497002 21.974998 C 19.497002 22.472998 19.097002 22.874998 18.598 22.874998 C 18.100002 22.874998 17.7 22.472998 17.7 21.974998 L 17.7 12.976 z M 14.099 12.976 C 14.099 12.478 14.502 12.076 14.999 12.076 C 15.495999 12.076 15.898999 12.479 15.898999 12.976 L 15.898999 21.974998 C 15.898999 22.472998 15.495999 22.874998 14.999 22.874998 C 14.502 22.874998 14.099 22.472998 14.099 21.974998 L 14.099 12.976 z M 10.499 12.976 C 10.499 12.478 10.901 12.076 11.398999 12.076 C 11.895999 12.076 12.298999 12.479 12.298999 12.976 L 12.298999 21.974998 C 12.298999 22.472998 11.895999 22.874998 11.398999 22.874998 C 10.900999 22.874998 10.499 22.472998 10.499 21.974998 L 10.499 12.976 z M 23.1 5.775 L 18.150002 5.775 L 18.150002 4.875 C 18.150002 4.132 17.545002 3.526 16.8 3.526 L 13.199001 3.526 C 12.455001 3.526 11.849001 4.132 11.849001 4.875 L 11.849001 5.775 L 6.898 5.775 C 6.401 5.775 6.0 6.178 6.0 6.676 L 6.0 7.575 L 24.0 7.575 L 24.0 6.676 C 24.0 6.178 23.595 5.775 23.1 5.775 z M 16.8 5.775 L 13.198999 5.775 L 13.198999 4.875 L 16.8 4.875 L 16.8 5.775 z " fill="#dedede" fill-opacity="1"/>
<rect fill="none" height="27" width="27" x="1.5" y="1.5"/>
</svg>
