<?xml version="1.0" encoding="UTF-8"?>
<svg xmlns="http://www.w3.org/2000/svg" xmlns:xlink="http://www.w3.org/1999/xlink" baseProfile="tiny" contentScriptType="text/ecmascript" contentStyleType="text/css" height="30px" preserveAspectRatio="xMidYMid meet" version="1.1" viewBox="0 0 30 30" width="30px" x="0px" y="0px" zoomAndPan="magnify">
<rect fill="none" height="30" width="30"/>
<path color="#000000" d="M 14.93666 5.0054216 C 13.47458 5.0905814 12.126015 5.4854436 10.88285 6.166671 C 9.462075 6.945253 8.358891 8.087146 7.589127 9.587074 C 6.819358 11.087033 6.44899 12.829781 6.448992 14.84436 C 6.44899 16.691807 6.7806497 18.4284 7.462445 20.038303 C 8.144235 21.648218 9.133055 22.884245 10.439464 23.733185 C 11.745859 24.582129 13.442866 25.0 15.52784 25.0 C 17.542416 25.0 19.24294 24.457205 20.637333 23.35314 C 22.03169 22.249077 23.01435 20.641806 23.551006 18.53924 L 20.975147 17.884718 C 20.62324 19.51223 19.96344 20.752651 18.969357 21.579596 C 17.975246 22.406548 16.750658 22.804188 15.316704 22.804186 C 14.137853 22.804188 13.055782 22.50332 12.044097 21.8963 C 11.032397 21.289288 10.285504 20.378763 9.806054 19.151531 C 9.326597 17.92431 9.088189 16.489468 9.088193 14.844359 C 9.088189 13.568756 9.274693 12.329215 9.679375 11.128366 C 10.084045 9.927546 10.79223 8.969516 11.790732 8.256917 C 12.789222 7.544349 14.041082 7.18014 15.52784 7.1801248 C 16.821035 7.180141 17.88375 7.509159 18.737108 8.151349 C 19.590437 8.793568 20.251991 9.826376 20.700672 11.233934 L 23.21319 10.621639 C 22.694132 8.835796 21.766891 7.4686937 20.447308 6.4833746 C 19.127695 5.4980917 17.505468 5.0054417 15.570067 5.0054216 C 15.3567295 5.0054255 15.145528 4.9932218 14.93666 5.0054216 z " display="inline" fill="#dedede" fill-opacity="1" fill-rule="nonzero" stroke="none" stroke-width="1" visibility="visible"/>
</svg>
