<?xml version="1.0" encoding="UTF-8"?>
<svg xmlns="http://www.w3.org/2000/svg" xmlns:xlink="http://www.w3.org/1999/xlink" baseProfile="tiny" contentScriptType="text/ecmascript" contentStyleType="text/css" height="96px" preserveAspectRatio="xMidYMid meet" version="1.1" viewBox="0 0 96 96" width="96px" x="0px" y="0px" zoomAndPan="magnify">
<defs>
<linearGradient id="linearGradient3905">
<stop offset="0" stop-color="#ffffff" stop-opacity="1"/>
<stop offset="1" stop-color="#ffffff" stop-opacity="0.78431374"/>
</linearGradient>
<linearGradient>
<stop offset="0" stop-color="#64b43b" stop-opacity="1"/>
<stop offset="1" stop-color="#31b43b" stop-opacity="1"/>
</linearGradient>
<linearGradient gradientTransform="matrix(0,1,-1,0,96,0)" gradientUnits="userSpaceOnUse" id="linearGradient3882" x1="8" x2="88" y1="48" y2="48">
<stop offset="0" stop-color="#64b43b" stop-opacity="1"/>
<stop offset="1" stop-color="#31b43b" stop-opacity="1"/>
</linearGradient>
<linearGradient gradientUnits="userSpaceOnUse" id="linearGradient3911" x1="39.36414" x2="39.36414" y1="69.251747" y2="27.347979">
<stop offset="0" stop-color="#ffffff" stop-opacity="1"/>
<stop offset="1" stop-color="#ffffff" stop-opacity="0.78431374"/>
</linearGradient>
<linearGradient gradientTransform="matrix(0,1,-1,0,96,0)" gradientUnits="userSpaceOnUse" id="linearGradient3915" x1="39.36414" x2="39.36414" y1="69.251747" y2="27.347979">
<stop offset="0" stop-color="#64b43b" stop-opacity="1"/>
<stop offset="1" stop-color="#31b43b" stop-opacity="1"/>
</linearGradient>
</defs>
<path d="M 88.0 48.977 C 88.0 78.612 77.637 88.977005 48.0 88.977005 C 18.365 88.977005 8.0 78.61201 8.0 48.977005 C 8.0 19.344006 18.365 8.977005 48.0 8.977005 C 77.637 8.977 88.0 19.343 88.0 48.977 z " fill-opacity="0.4"/>
<rect fill="none" height="96" width="96"/>
<linearGradient gradientTransform="translate(-1160.5977,-2139.4023)" gradientUnits="userSpaceOnUse" x1="1208.5986" x2="1208.5986" y1="2155.3232" y2="2223.6787">
<stop offset="0" stop-color="#6fa519"/>
<stop offset="1" stop-color="#064c00"/>
</linearGradient>
<path d="M 48.0 88.0 C 18.367 88.0 8.0 77.637 8.0 48.0 C 8.0 18.365 18.367 8.0 48.0 8.0 C 77.634 8.0 88.0 18.365 88.0 48.0 C 88.0 77.637 77.634 88.0 48.0 88.0 z " fill="url(#linearGradient3882)" fill-opacity="1"/>
<linearGradient gradientTransform="matrix(1 0 0 1 -1160.5977 -2139.4023)" gradientUnits="userSpaceOnUse" id="SVGID_2_" x1="1208.5527" x2="1208.5527" y1="2147.6514" y2="2226.897">
<stop offset="0" stop-color="#ffffff"/>
<stop offset="1" stop-color="#ffffff" stop-opacity="0"/>
</linearGradient>
<path d="M 47.953 8.0 C 18.318 8.0 7.954 18.366 7.954 48.0 C 7.954 77.633 18.318 88.0 47.953 88.0 C 77.59 88.0 87.953 77.633 87.953 48.0 C 87.953 18.366 77.59 8.0 47.953 8.0 z M 47.953 87.0 C 18.795 87.0 8.954 77.158 8.954 48.0 C 8.954 18.842005 18.795 9.0 47.953 9.0 C 77.111 9.0 86.953 18.842 86.953 48.0 C 86.953 77.158005 77.111 87.0 47.953 87.0 z " fill="url(#SVGID_2_)" fill-opacity="0.25"/>
<path d="M 76.695 37.974 C 76.695 29.801998 73.209 26.315 65.037 26.315 C 59.055004 26.315 55.685 28.119 54.226 32.14 C 53.955 32.009 53.654003 31.938 53.345 31.938 L 52.09 31.946 L 38.665 33.198997 C 24.774002 31.937998 24.774002 31.937998 24.692 31.937998 C 24.192 31.937998 23.713 32.123997 23.342 32.461998 C 22.928 32.839996 22.692 33.378 22.692 33.938 L 22.692 69.042 C 22.692 70.084 23.473 70.939 24.510002 71.034 C 38.4 72.296 38.4 72.296 38.484 72.296 C 38.568 72.296 38.568 72.296 52.274 71.042 L 66.065 71.042 C 67.169 71.042 68.065 70.145 68.065 69.042 L 68.065 50.15 C 68.065 49.916 68.022 49.683 67.942 49.462 C 74.066 48.688 76.695 45.207 76.695 37.974 z " fill-opacity="0.07" stroke-opacity="0.07"/>
<path d="M 76.195 37.974 C 76.195 30.047998 72.963 26.815 65.037 26.815 C 59.058 26.815 55.751003 28.652998 54.484 32.955997 C 54.202 32.629997 53.784 32.437996 53.347 32.437996 L 52.138 32.443996 L 38.62 33.697 C 24.752998 32.438 24.752998 32.438 24.693 32.438 C 24.318 32.438 23.959 32.578 23.681 32.831 C 23.37 33.115 23.193 33.518 23.193 33.938 L 23.193 69.042 C 23.193 69.822 23.779 70.466 24.556 70.536 C 38.423 71.796005 38.423 71.796005 38.484 71.796005 C 38.545 71.796005 38.545 71.796005 52.274 70.54201 L 66.065 70.54201 C 66.891 70.54201 67.565 69.86901 67.565 69.04201 L 67.565 50.15 C 67.565 49.738003 67.391 49.337 67.086006 49.052 C 73.525 48.505 76.195 45.178 76.195 37.974 z " fill-opacity="0.1" stroke-opacity="0.1"/>
<path d="M 66.006 49.154 C 66.001 49.154 65.994995 49.154 65.988 49.154 C 65.326 49.205997 64.749 49.228 64.172 49.228 C 56.6 49.228 53.782997 46.413 53.782997 38.837 C 53.782997 37.021004 53.956997 35.504 54.316 34.199 C 54.396 33.9 54.334 33.575 54.146 33.328003 C 53.958 33.082005 53.661 32.935 53.349 32.935 L 52.183 32.939003 L 38.575996 34.192 C 24.730995 32.935 24.724997 32.935 24.693996 32.935 C 24.443996 32.935 24.204996 33.028 24.017996 33.197002 C 23.810995 33.386 23.693996 33.655003 23.693996 33.935 L 23.693996 69.04 C 23.693996 69.561005 24.084995 69.988 24.601995 70.036 C 38.447 71.29401 38.452995 71.29401 38.484997 71.29401 C 38.515995 71.29401 38.521996 71.29401 52.275997 70.04001 L 66.067 70.04001 C 66.619 70.04001 67.067 69.59401 67.067 69.04001 L 67.067 50.15 C 67.067 49.875 66.951004 49.607 66.747 49.417 C 66.564 49.249 66.328 49.154 66.006 49.154 z M 65.037 27.315 C 57.366 27.315 54.377003 30.304 54.377003 37.974 C 54.377003 45.645 57.366 48.634 65.037 48.634 C 72.707 48.634 75.695 45.645 75.695 37.974 C 75.695 30.304 72.707 27.315 65.037 27.315 z M 65.037 38.204 C 64.974 38.115997 64.896 38.038 64.80801 37.975 C 64.896 37.911 64.97401 37.833 65.037 37.746 C 65.100006 37.834 65.178 37.912 65.266 37.975 C 65.178 38.039 65.102 38.116 65.037 38.204 z " fill-opacity="0.15" stroke-opacity="0.15"/>
<path d="M 66.066 49.65 C 66.052 49.65 66.041 49.65 66.027 49.652 C 65.353 49.705 64.763 49.728 64.172 49.728 C 56.336 49.728 53.282997 46.674 53.282997 38.837 C 53.282997 36.977 53.462997 35.417 53.833996 34.068 C 53.874996 33.918 53.84399 33.756 53.748997 33.632 C 53.654 33.508 53.507996 33.435 53.351997 33.435 L 52.23 33.44 L 38.53 34.693 C 38.53 34.693 24.71 33.438 24.693998 33.438 C 24.571 33.438 24.45 33.484 24.357998 33.569 C 24.253998 33.664 24.193998 33.798 24.193998 33.938 L 24.193998 69.042 C 24.193998 69.301 24.391 69.518 24.648998 69.54 C 24.648998 69.54 38.470997 70.796 38.485 70.796 C 38.501 70.796 52.276 69.542 52.276 69.542 L 66.067 69.542 C 66.342 69.542 66.567 69.318 66.567 69.042 L 66.567 50.15 C 66.567 50.011 66.507 49.879 66.408005 49.784 C 66.313 49.697 66.191 49.65 66.066 49.65 z M 65.037 27.815 C 57.631004 27.815 54.877003 30.568 54.877003 37.974 C 54.877003 45.379997 57.631004 48.134 65.037 48.134 C 72.441 48.134 75.195 45.379997 75.195 37.974 C 75.195 30.568 72.441 27.815 65.037 27.815 z M 69.211 38.287 L 65.85 38.287 C 65.576 38.287 65.35 38.511 65.35 38.787 L 65.35 42.150997 L 64.725 42.150997 L 64.725 38.787 C 64.725 38.511 64.501 38.287 64.225 38.287 L 60.862 38.287 L 60.862 37.663 L 64.225 37.663 C 64.501 37.663 64.725 37.439 64.725 37.163 L 64.725 33.799 L 65.35 33.799 L 65.35 37.163 C 65.35 37.439 65.576 37.663 65.85 37.663 L 69.211 37.663 L 69.211 38.287 z " fill-opacity="0.15" stroke-opacity="0.15"/>
<linearGradient gradientTransform="matrix(1 0 0 1 -545.1992 -744.8008)" gradientUnits="userSpaceOnUse" x1="594.8945" x2="594.8945" y1="772.1152" y2="814.0957">
<stop offset="0" stop-color="#f6faed"/>
<stop offset="0.3232" stop-color="#f6faed"/>
<stop offset="1" stop-color="#d5cbc5"/>
</linearGradient>
<linearGradient gradientTransform="matrix(1 0 0 1 -545.1992 -744.8008)" gradientUnits="userSpaceOnUse" x1="590.5801" x2="590.5801" y1="777.7383" y2="814.0957">
<stop offset="0" stop-color="#f6faed"/>
<stop offset="0.3232" stop-color="#f6faed"/>
<stop offset="1" stop-color="#d5cbc5"/>
</linearGradient>
<linearGradient gradientTransform="matrix(1 0 0 1 -545.1992 -744.8008)" gradientUnits="userSpaceOnUse" x1="610.2363" x2="610.2363" y1="772.1152" y2="791.4336">
<stop offset="0" stop-color="#f6faed"/>
<stop offset="0.3232" stop-color="#f6faed"/>
<stop offset="1" stop-color="#d5cbc5"/>
</linearGradient>
<path d="M 65.03125 27.3125 C 57.87325 27.3125 55.375 29.81275 55.375 36.96875 C 55.375 44.12675 57.87325 46.625 65.03125 46.625 C 72.18926 46.625 74.6875 44.12675 74.6875 36.96875 C 74.6875 29.81275 72.18925 27.3125 65.03125 27.3125 z M 64.21875 32.3125 L 65.84375 32.3125 L 65.84375 36.15625 L 69.71875 36.15625 L 69.71875 37.78125 L 65.84375 37.78125 L 65.84375 41.65625 L 64.21875 41.65625 L 64.21875 37.78125 L 60.375 37.78125 L 60.375 36.15625 L 64.21875 36.15625 L 64.21875 32.3125 z M 24.6875 32.9375 L 24.6875 50.5 L 24.9375 50.53125 L 24.9375 68.03125 L 38.5 69.25 L 38.5 69.28125 L 38.625 69.28125 L 38.71875 69.28125 L 38.71875 69.25 L 52.28125 68.03125 L 66.0625 68.03125 L 66.0625 50.5 L 66.0625 49.15625 C 65.4595 49.20325 64.8555 49.21875 64.1875 49.21875 C 56.097496 49.21875 52.78125 45.93675 52.78125 37.84375 C 52.78125 35.95075 52.963745 34.3255 53.34375 32.9375 L 52.28125 32.9375 L 38.5 34.1875 L 24.6875 32.9375 z " fill="url(#linearGradient3915)" fill-opacity="1" stroke="none"/>
<path d="M 65.03125 27.3125 C 57.87325 27.3125 55.375 29.81275 55.375 36.96875 C 55.375 44.12675 57.87325 46.625 65.03125 46.625 C 72.18926 46.625 74.6875 44.12675 74.6875 36.96875 C 74.6875 29.81275 72.18925 27.3125 65.03125 27.3125 z M 64.21875 32.3125 L 65.84375 32.3125 L 65.84375 36.15625 L 69.71875 36.15625 L 69.71875 37.78125 L 65.84375 37.78125 L 65.84375 41.65625 L 64.21875 41.65625 L 64.21875 37.78125 L 60.375 37.78125 L 60.375 36.15625 L 64.21875 36.15625 L 64.21875 32.3125 z M 24.6875 32.9375 L 24.6875 50.5 L 24.9375 50.53125 L 24.9375 68.03125 L 38.5 69.25 L 38.5 69.28125 L 38.625 69.28125 L 38.71875 69.28125 L 38.71875 69.25 L 52.28125 68.03125 L 66.0625 68.03125 L 66.0625 50.5 L 66.0625 49.15625 C 65.4595 49.20325 64.8555 49.21875 64.1875 49.21875 C 56.097496 49.21875 52.78125 45.93675 52.78125 37.84375 C 52.78125 35.95075 52.963745 34.3255 53.34375 32.9375 L 52.28125 32.9375 L 38.5 34.1875 L 24.6875 32.9375 z " fill="url(#linearGradient3911)" fill-opacity="1" stroke="none"/>
<linearGradient gradientTransform="matrix(1 0 0 1 -545.1992 -744.8008)" gradientUnits="userSpaceOnUse" x1="562.6846" x2="580.5612" y1="766.2119" y2="792.7383">
<stop offset="0" stop-color="#f6faed"/>
<stop offset="0.3232" stop-color="#f6faed"/>
<stop offset="1" stop-color="#d5cbc5"/>
</linearGradient>
<linearGradient gradientTransform="matrix(1 0 0 1 -545.1992 -744.8008)" gradientUnits="userSpaceOnUse" x1="599.584" x2="588.9149" y1="781.7852" y2="788.129">
<stop offset="0" stop-color="#f6faed"/>
<stop offset="0.3232" stop-color="#f6faed"/>
<stop offset="1" stop-color="#d5cbc5"/>
</linearGradient>
<linearGradient gradientTransform="matrix(1 0 0 1 -545.1992 -744.8008)" gradientUnits="userSpaceOnUse" x1="587.0869" x2="610.7327" y1="783.7148" y2="789.7704">
<stop offset="0" stop-color="#f6faed"/>
<stop offset="0.3232" stop-color="#f6faed"/>
<stop offset="1" stop-color="#d5cbc5"/>
</linearGradient>
<linearGradient gradientTransform="matrix(1 0 0 1 -545.1992 -744.8008)" gradientUnits="userSpaceOnUse" x1="594.8604" x2="605.8173" y1="797.5586" y2="805.0557">
<stop offset="0" stop-color="#f6faed"/>
<stop offset="0.3232" stop-color="#f6faed"/>
<stop offset="1" stop-color="#d5cbc5"/>
</linearGradient>
<linearGradient gradientTransform="matrix(1 0 0 1 -545.1992 -744.8008)" gradientUnits="userSpaceOnUse" x1="607.0098" x2="587.401" y1="801.7949" y2="805.2552">
<stop offset="0" stop-color="#f6faed"/>
<stop offset="0.3232" stop-color="#f6faed"/>
<stop offset="1" stop-color="#d5cbc5"/>
</linearGradient>
<linearGradient gradientTransform="matrix(1 0 0 1 -545.1992 -744.8008)" gradientUnits="userSpaceOnUse" x1="561.1895" x2="582.2379" y1="800.3545" y2="806.1216">
<stop offset="0" stop-color="#f6faed"/>
<stop offset="0.3232" stop-color="#f6faed"/>
<stop offset="1" stop-color="#d5cbc5"/>
</linearGradient>
<linearGradient gradientTransform="matrix(1 0 0 1 -545.1992 -744.8008)" gradientUnits="userSpaceOnUse" x1="590.5811" x2="590.5811" y1="762.6689" y2="825.6088">
<stop offset="0" stop-color="#6fa519"/>
<stop offset="1" stop-color="#064c00"/>
</linearGradient>
<path d="M 56.414 49.15 C 56.707 48.832 57.098 48.435 57.533 48.015003 C 57.111 47.81 56.715 47.583004 56.353 47.325005 C 55.755 47.915005 55.273 48.431004 54.953 48.790005 C 54.058 47.91301 53.183 47.08701 52.336 46.310005 C 52.518 46.095005 52.805 45.763004 53.203 45.332005 C 53.43 45.085003 53.709 44.797005 54.006 44.498005 C 53.807 44.086006 53.627 43.651005 53.477 43.180004 C 52.495003 44.143005 51.75 44.961 51.358 45.419003 C 47.899 42.318 45.029003 40.127003 43.43 38.964005 C 43.576 37.372005 43.634 35.92701 43.649 34.68401 L 40.198 34.998005 C 40.147003 37.848003 39.829 41.771004 38.76 45.729004 C 33.377003 41.615005 28.604002 38.853004 25.653002 37.302 L 25.653002 40.954 C 28.655005 42.635 32.854004 45.235 37.466003 48.85 L 25.651 61.907 L 25.651 66.844 L 40.032997 50.94 C 42.041996 52.633003 44.095997 54.516003 46.129997 56.58 L 41.571 68.059006 L 43.094 67.91901 L 47.171 57.654007 C 49.839996 60.458008 52.445 63.60901 54.871 67.087006 L 58.93 67.087006 C 57.617 65.102005 56.244 63.21201 54.832 61.430004 L 61.186 57.473003 C 62.508 59.061005 63.827 60.744003 65.112 62.505005 L 65.112 60.266006 C 62.069 56.259007 58.889 52.725006 55.895 49.725006 C 56.033 49.564 56.195 49.381 56.414 49.15 z M 60.344 56.475 L 54.026 60.413 C 50.016 55.515 45.731003 51.399 41.651 48.029 C 42.477 45.425 42.977 42.83 43.268 40.459 C 43.384003 40.546 43.497 40.629 43.621 40.725 C 47.056 43.312 53.725 48.757 60.344 56.475 z " fill="#64b43b" fill-opacity="1"/>
</svg>
