<?xml version="1.0" encoding="UTF-8"?>
<svg xmlns="http://www.w3.org/2000/svg" xmlns:xlink="http://www.w3.org/1999/xlink" baseProfile="tiny" contentScriptType="text/ecmascript" contentStyleType="text/css" height="30px" preserveAspectRatio="xMidYMid meet" version="1.1" viewBox="0 0 30 30" width="30px" x="0px" y="0px" zoomAndPan="magnify">
<path d="M 15.0 29.0 C 7.28 29.0 1.0 22.72 1.0 15.0 C 1.0 7.2800007 7.28 1.0 15.0 1.0 C 22.72 1.0 29.0 7.28 29.0 15.0 C 29.0 22.72 22.72 29.0 15.0 29.0 L 15.0 29.0 z " fill-opacity="0.15" stroke-opacity="0.15"/>
<rect fill="none" height="30" width="30"/>
<path d="M 15.0 1.0 C 7.82 1.0 2.0 6.82 2.0 14.0 C 2.0 21.18 7.82 27.0 15.0 27.0 C 22.18 27.0 28.0 21.18 28.0 14.0 C 28.0 6.82 22.18 1.0 15.0 1.0 z M 12.154 18.547 C 11.901 19.054 11.342 19.244001 11.392 20.17 C 11.473001 21.656 10.277 21.54 10.0 22.551 C 9.822 23.203001 9.624 23.697 9.511 23.957 C 8.702 23.51 7.9589996 22.959002 7.286 22.336 C 7.371 21.27 7.0769997 19.311 6.725 19.069 C 5.611 18.312 5.654 18.533 5.555 15.565001 C 5.502 13.919001 8.292999 14.387001 8.894 15.042001 C 9.47 15.668001 9.375 16.58 11.048 17.281 C 11.524 17.479 12.406 18.043 12.154 18.547 z M 11.251 5.66 C 10.657001 5.8729997 10.423 5.835 10.017 5.565 C 9.445 5.183 8.198 6.202 8.968 6.561 C 9.2300005 6.684 9.699 6.723 10.450001 6.979 C 11.640001 7.3910003 11.988001 8.1 11.297001 8.286 C 7.848001 9.219 9.460001 10.297 8.152 11.6050005 C 7.4800005 12.280001 7.5270004 12.549001 7.0510006 12.708 C 6.4680004 12.902 6.3750005 12.054 5.8260007 12.030001 C 5.653001 12.02 4.375001 12.049001 3.8030007 12.055 C 4.666001 7.0750003 8.768001 3.191 13.859 2.6830006 C 13.942 2.7290006 13.998 2.7920005 13.976 2.8960006 C 13.859 3.49 11.845 5.447 11.251 5.66 z M 25.426 16.006 C 25.426 16.518 24.732 17.275002 24.431 17.515001 C 23.982 17.878002 24.063 19.27 24.063 19.27 C 24.063 20.25 23.404 21.422 23.067 21.871 C 22.727999 22.32 21.255999 23.995 20.401 22.962 C 19.764 22.191 20.300999 20.609 20.112999 18.917 C 20.046 18.310999 20.161999 16.582 17.560999 16.271 C 15.251999 15.993 15.448999 14.309999 15.600999 13.457 C 15.808999 12.282 15.937999 11.5859995 16.928999 11.344999 C 17.487 11.207999 19.157 10.9939995 20.321999 11.452 C 20.867998 11.669 21.745998 11.580999 21.880999 10.856999 C 22.023998 10.082999 21.505 10.035999 20.260998 9.685999 C 19.134998 9.368999 18.078999 10.314999 17.165998 10.312999 C 16.759998 10.312999 16.779 9.9679985 16.784998 9.486999 C 16.793999 9.006999 18.554998 7.7679987 18.736998 7.6279984 C 19.095997 7.3559985 20.136997 7.4639983 20.158998 7.4639983 C 21.308998 7.5009985 21.058998 6.7209983 20.280998 6.683998 C 18.919998 6.616998 19.019999 5.901998 19.003998 5.6869984 C 18.985 5.471 19.2 4.923 20.25 4.897 C 20.492 4.8919997 21.231 4.861 21.771 4.881 C 24.515 6.925 26.313 10.167 26.366 13.833 C 26.161999 14.104 25.816 14.38 25.4 14.303 C 24.68 14.1710005 24.212 12.3 23.435 12.886001 C 22.142 13.863 25.426 15.493 25.426 16.006 z " fill-opacity="0.3" stroke-opacity="0.3"/>
<path d="M 15.0 2.0 C 7.82 2.0 2.0 7.82 2.0 15.0 C 2.0 22.18 7.82 28.0 15.0 28.0 C 22.18 28.0 28.0 22.18 28.0 15.0 C 28.0 7.82 22.18 2.0 15.0 2.0 z M 12.154 19.547 C 11.901 20.054 11.342 20.244001 11.392 21.17 C 11.473001 22.656 10.277 22.54 10.0 23.551 C 9.822 24.203001 9.624 24.697 9.511 24.957 C 8.702 24.51 7.9589996 23.959002 7.286 23.336 C 7.371 22.27 7.0769997 20.311 6.725 20.069 C 5.611 19.312 5.654 19.533 5.555 16.565 C 5.502 14.919001 8.292999 15.387001 8.894 16.042 C 9.47 16.668 9.375 17.58 11.048 18.281 C 11.524 18.479 12.406 19.043 12.154 19.547 z M 11.251 6.66 C 10.657001 6.8729997 10.423 6.835 10.017 6.565 C 9.445 6.183 8.198 7.202 8.968 7.561 C 9.2300005 7.684 9.699 7.723 10.450001 7.979 C 11.640001 8.391 11.988001 9.1 11.297001 9.286 C 7.848001 10.219 9.460001 11.297 8.152 12.6050005 C 7.4800005 13.280001 7.5270004 13.549001 7.0510006 13.708 C 6.4680004 13.902 6.3750005 13.054 5.8260007 13.030001 C 5.653001 13.02 4.375001 13.049001 3.8030007 13.055 C 4.666001 8.075001 8.768001 4.191 13.859 3.6830006 C 13.942 3.7290006 13.998 3.7920005 13.976 3.8960006 C 13.859 4.49 11.845 6.447 11.251 6.66 z M 25.426 17.006 C 25.426 17.518 24.732 18.275002 24.431 18.515001 C 23.982 18.878002 24.063 20.27 24.063 20.27 C 24.063 21.25 23.404 22.422 23.067 22.871 C 22.727999 23.32 21.255999 24.995 20.401 23.962 C 19.764 23.191 20.300999 21.609 20.112999 19.917 C 20.046 19.310999 20.161999 17.582 17.560999 17.271 C 15.251999 16.993 15.448999 15.309999 15.600999 14.457 C 15.808999 13.282 15.937999 12.5859995 16.928999 12.344999 C 17.487 12.207999 19.157 11.9939995 20.321999 12.452 C 20.867998 12.669 21.745998 12.580999 21.880999 11.856999 C 22.023998 11.082999 21.505 11.035999 20.260998 10.685999 C 19.134998 10.368999 18.078999 11.314999 17.165998 11.312999 C 16.759998 11.312999 16.779 10.9679985 16.784998 10.486999 C 16.793999 10.006999 18.554998 8.767999 18.736998 8.627998 C 19.095997 8.355998 20.136997 8.463999 20.158998 8.463999 C 21.308998 8.5009985 21.058998 7.720999 20.280998 7.683999 C 18.919998 7.616999 19.019999 6.901999 19.003998 6.6869993 C 18.985 6.471 19.2 5.923 20.25 5.897 C 20.492 5.8919997 21.231 5.861 21.771 5.881 C 24.515 7.925 26.313 11.167 26.366 14.833 C 26.161999 15.104 25.816 15.38 25.4 15.303 C 24.68 15.1710005 24.212 13.3 23.435 13.886001 C 22.142 14.863 25.426 16.492 25.426 17.006 z " fill="#dedede"/>
</svg>
