<?xml version="1.0" encoding="UTF-8"?>
<svg xmlns="http://www.w3.org/2000/svg" xmlns:xlink="http://www.w3.org/1999/xlink" baseProfile="tiny" contentScriptType="text/ecmascript" contentStyleType="text/css" height="30px" preserveAspectRatio="xMidYMid meet" version="1.1" viewBox="0 0 30 30" width="30px" x="0px" y="0px" zoomAndPan="magnify">
<path d="M 27.01088 15.056376 C 27.01088 21.174866 21.638369 26.134884 15.011038 26.134884 C 8.383708 26.134884 3.011196 21.174866 3.011196 15.056376 C 3.011196 8.937886 8.383708 3.97787 15.011038 3.97787 C 21.638369 3.97787 27.01088 8.937886 27.01088 15.056376 z " fill="#cecece" fill-opacity="0" fill-rule="nonzero" stroke="#7cc7fb" stroke-dasharray="none" stroke-miterlimit="4" stroke-opacity="1" stroke-width="0.83854364000000003" transform="matrix(0.91667876,0,0,0.99291362,1.2397005,0.05031878)"/>
<g transform="matrix(0.38108257,0,0,0.38108257,6.0209186,7.4726018)">
<path d="M 11.338582 26.539368 C 12.614173 26.5748 14.350393 26.5748 16.688976 26.185038 C 16.688976 26.149609 16.688976 26.149609 16.688976 26.149609 C 15.625984 24.90945 14.98819 23.17323 14.6692915 22.003937 C 13.712599 21.33071 13.429134 19.913383 13.216536 18.956692 C 13.181106 18.744093 13.110236 18.531494 13.074803 18.35433 C 12.649607 17.043306 12.57874 16.299212 12.614173 15.803149 C 12.614173 15.165354 12.791338 14.6692915 13.003937 14.279528 C 12.791338 13.429133 12.685039 12.614174 12.720471 11.65748 C 12.720471 11.232284 12.685041 10.877953 12.685041 10.48819 C 12.543309 8.64567 12.614171 7.015749 14.421262 4.1456695 C 14.669293 3.6850395 15.236223 3.1181104 16.051184 2.799213 C 16.157482 2.6574807 16.263783 2.4448822 16.440947 2.1968508 C 16.440947 2.1614175 16.405516 2.1614175 16.405516 2.125985 C 15.909448 1.3818897 15.23622 1.2755905 12.472441 0.38976377 C 9.673228 -0.53149605 9.283464 0.63779527 8.362205 0.49606296 C 7.4409447 0.38976377 7.299213 0.77952754 7.1220474 1.0984251 C 6.944882 1.4173228 7.1220474 1.7007872 6.625984 1.7007872 C 6.129921 1.7362204 5.9173226 2.1259842 5.9173226 2.1259842 C 4.3937006 4.535433 4.96063 5.244094 4.9251966 6.767717 C 4.889764 7.582677 5.031496 8.220472 5.42126 9.318897 L 5.385827 9.248032 C 5.385827 9.248032 4.818898 9.0 4.854331 9.779528 C 4.854331 9.779528 4.783465 10.027559 5.1023626 11.090551 C 5.314961 11.728346 5.456693 13.429133 6.0236225 12.862205 C 6.0590553 12.933075 6.0590553 13.003937 6.0944886 13.074803 C 6.0944886 13.074803 6.5551186 15.413385 7.688977 16.405512 C 7.901575 16.61811 7.759843 17.291338 7.61811 17.929134 C 7.547245 18.177166 7.228347 19.84252 5.208662 20.622047 C 5.208662 20.622047 3.3661425 21.33071 1.5236228 22.429134 C 1.5236228 22.429134 0.28346527 23.031496 0.03543377 24.059055 L 0.0 24.23622 C 1.0629921 24.838585 2.3031497 25.334646 3.7204723 25.688976 C 7.26378 26.610235 9.673228 26.574802 11.338582 26.53937 z M 46.94882 24.094488 C 46.700787 23.031496 45.46063 22.429134 45.46063 22.429134 C 43.618107 21.33071 41.77559 20.622047 41.77559 20.622047 C 41.492126 20.551178 41.27953 20.409449 41.06693 20.30315 C 39.93307 19.523624 39.366142 18.141731 39.330708 17.929134 C 39.15354 17.29134 39.01181 16.61811 39.25984 16.405512 C 40.393696 15.413385 40.854324 13.074804 40.854324 13.074804 C 40.854324 12.968504 40.889755 12.897638 40.925194 12.826773 C 41.492123 13.500001 41.775585 11.87008 42.02362 11.161419 C 42.236217 10.381891 42.34252 9.850395 42.34252 9.850395 C 42.44882 9.070868 41.846455 9.283466 41.846455 9.283466 L 41.811024 9.354332 C 41.881893 8.255907 42.200787 7.582679 42.200787 6.5905523 C 42.200787 5.0314975 42.59055 4.464568 41.031494 2.1259856 C 40.53543 1.3818911 39.8622 1.2755919 37.098423 0.3897651 C 34.29921 -0.5314947 33.909447 0.63779664 32.988186 0.49606436 C 32.066925 0.3897651 31.925194 0.7795289 31.74803 1.0984266 C 31.570864 1.4173242 31.74803 1.7007889 31.251966 1.7007889 C 30.755903 1.7362218 30.543304 2.1259856 30.543304 2.1259856 C 30.472437 2.2322848 30.437006 2.303151 30.36614 2.3740172 C 31.2874 2.799214 31.925196 3.295277 32.45669 4.0748043 C 34.51181 7.157481 34.582676 8.574804 34.476376 10.523623 C 34.476376 10.807088 34.476376 11.090552 34.476376 11.444882 C 34.476376 12.401575 34.29921 13.181104 34.15748 13.889765 C 34.122047 13.960635 34.122047 14.031497 34.08661 14.066931 C 34.44094 14.492126 34.79527 15.165356 34.653538 16.26378 C 34.653538 16.299212 34.653538 16.370079 34.618107 16.440945 C 34.618107 16.476376 34.44094 17.255903 34.086613 18.425198 C 34.05118 18.566929 33.980312 18.779528 33.94488 18.956694 C 33.661415 20.019686 33.271652 21.437008 32.20866 22.074804 C 31.889765 23.208662 31.2874 24.874018 30.224407 26.114174 C 32.740154 26.574804 34.618107 26.574804 35.964565 26.539371 C 37.594486 26.574802 40.003937 26.61024 43.54724 25.688978 C 44.8937 25.334648 46.027557 24.90945 47.019684 24.342522 L 46.948814 24.09449 z M 36.992123 33.625984 C 34.405514 32.10236 31.85433 31.110235 31.85433 31.110235 C 31.464563 30.968504 31.181105 30.82677 30.862204 30.649605 C 29.303148 29.55118 28.488188 27.637794 28.417322 27.318895 C 28.169292 26.43307 27.992125 25.51181 28.311024 25.192911 C 29.905512 23.811022 30.543306 20.515747 30.543306 20.515747 C 30.578735 20.409449 30.614176 20.267715 30.649609 20.161415 C 31.464567 21.11811 31.85433 18.850391 32.17323 17.822834 C 32.527557 16.72441 32.669292 16.015747 32.669292 16.015747 C 32.811024 14.917322 31.96063 15.23622 31.96063 15.23622 L 31.88976 15.307091 C 31.99606 13.783468 32.45669 12.826776 32.45669 11.444885 C 32.45669 9.283468 32.988186 8.503941 30.791338 5.2086654 C 30.118109 4.1811023 29.161415 4.003937 25.26378 2.7637794 C 21.401571 1.4881889 20.834644 3.082677 19.559055 2.940945 C 18.248032 2.7992125 18.070866 3.2952757 17.822834 3.7559056 C 17.574802 4.2165356 17.822834 4.6062994 17.114174 4.641732 C 16.405512 4.677165 16.086615 5.208661 16.086615 5.208661 C 13.996063 8.574802 14.775591 9.566929 14.704724 11.728346 C 14.669294 12.862204 14.846457 13.712598 15.448819 15.271653 L 15.377949 15.200783 C 15.377949 15.200783 14.562988 14.811019 14.633855 15.944877 C 14.633855 15.944877 14.492123 16.263775 14.988186 17.751965 C 15.236217 18.63779 15.448816 21.011806 16.263775 20.267712 C 16.299206 20.33858 16.334644 20.444876 16.370073 20.515743 C 16.370073 20.515743 17.00787 23.81102 18.602358 25.19291 C 18.921255 25.511806 18.708656 26.433067 18.49606 27.318892 C 18.38976 27.673223 17.929129 30.011806 15.129917 31.110231 C 15.129917 31.110231 12.543304 32.102356 9.956689 33.62598 C 9.956689 33.62598 8.2204685 34.476376 7.8661375 35.92913 L 7.8307047 36.14173 C 9.318893 36.992123 11.019681 37.66535 13.074799 38.19685 C 17.999996 39.47244 21.40157 39.437008 23.70472 39.366142 C 26.007868 39.43701 29.37401 39.472443 34.33464 38.19685 C 36.212593 37.700787 37.77165 37.062992 39.153538 36.318897 L 39.08267 35.929134 C 38.728336 34.47638 36.99212 33.625984 36.99212 33.625984 z " fill="#7cc7fb" fill-opacity="1" fill-rule="nonzero" stroke="none"/>
</g>
</svg>
