<?xml version="1.0" encoding="UTF-8"?>
<svg xmlns="http://www.w3.org/2000/svg" xmlns:xlink="http://www.w3.org/1999/xlink" baseProfile="tiny" contentScriptType="text/ecmascript" contentStyleType="text/css" height="30px" preserveAspectRatio="xMidYMid meet" version="1.1" viewBox="0 0 30 30" width="30px" x="0px" y="0px" zoomAndPan="magnify">
<path d="M 25.0 19.0 C 22.794 19.0 21.0 17.205 21.0 15.0 C 21.0 12.795 22.794 11.0 25.0 11.0 C 27.206 11.0 29.0 12.795 29.0 15.0 C 29.0 17.205 27.206 19.0 25.0 19.0 L 25.0 19.0 z " fill-opacity="0.15"/>
<path d="M 15.0 19.0 C 12.794 19.0 11.0 17.205 11.0 15.0 C 11.0 12.795 12.794 11.0 15.0 11.0 C 17.206001 11.0 19.0 12.795 19.0 15.0 C 19.0 17.205 17.206 19.0 15.0 19.0 L 15.0 19.0 z " fill-opacity="0.15"/>
<path d="M 5.0 19.0 C 2.794 19.0 1.0 17.205 1.0 15.0 C 1.0 12.795 2.7940001 11.0 5.0 11.0 C 7.206 11.0 9.0 12.795 9.0 15.0 C 9.0 17.205 7.206 19.0 5.0 19.0 L 5.0 19.0 z " fill-opacity="0.15"/>
<g>
<g fill-opacity="0.3" stroke-opacity="0.3">
<path d="M 25.0 11.0 C 23.344 11.0 22.0 12.344 22.0 14.0 C 22.0 15.656 23.344 17.0 25.0 17.0 C 26.657 17.0 28.0 15.656 28.0 14.0 C 28.0 12.344 26.657 11.0 25.0 11.0 z M 5.0 11.0 C 3.3439999 11.0 2.0 12.344 2.0 14.0 C 2.0 15.656 3.3439999 17.0 5.0 17.0 C 6.657 17.0 8.0 15.656 8.0 14.0 C 8.0 12.344 6.657 11.0 5.0 11.0 z M 15.0 11.0 C 13.344 11.0 12.0 12.344 12.0 14.0 C 12.0 15.656 13.344 17.0 15.0 17.0 C 16.657 17.0 18.0 15.656 18.0 14.0 C 18.0 12.344 16.657 11.0 15.0 11.0 z "/>
</g>
</g>
<g>
<g>
<path d="M 5.0 12.0 C 3.3439999 12.0 2.0 13.344 2.0 15.0 C 2.0 16.656 3.3439999 18.0 5.0 18.0 C 6.657 18.0 8.0 16.656 8.0 15.0 C 8.0 13.344 6.657 12.0 5.0 12.0 z M 15.0 12.0 C 13.344 12.0 12.0 13.344 12.0 15.0 C 12.0 16.656 13.344 18.0 15.0 18.0 C 16.657 18.0 18.0 16.656 18.0 15.0 C 18.0 13.344 16.657 12.0 15.0 12.0 z M 25.0 12.0 C 23.344 12.0 22.0 13.344 22.0 15.0 C 22.0 16.656 23.344 18.0 25.0 18.0 C 26.657 18.0 28.0 16.656 28.0 15.0 C 28.0 13.344 26.657 12.0 25.0 12.0 z " fill="#dedede"/>
</g>
</g>
<rect fill="none" height="30" width="30"/>
</svg>
