<?xml version="1.0" encoding="UTF-8"?>
<svg xmlns="http://www.w3.org/2000/svg" xmlns:xlink="http://www.w3.org/1999/xlink" baseProfile="tiny" contentScriptType="text/ecmascript" contentStyleType="text/css" height="30px" preserveAspectRatio="xMidYMid meet" version="1.1" viewBox="0 0 30 30" width="30px" x="0px" y="0px" zoomAndPan="magnify">
<path d="M 25.0 5.0 C 25.0 3.896 24.104 3.0 23.0 3.0 C 23.0 1.896 22.104 1.0 21.0 1.0 L 5.0 1.0 C 3.896 1.0 3.0 1.896 3.0 3.0 L 3.0 23.0 C 3.0 24.104 3.896 25.0 5.0 25.0 C 5.0 26.104 5.896 27.0 7.0 27.0 C 7.0 28.104 7.896 29.0 9.0 29.0 L 25.0 29.0 C 26.104 29.0 27.0 28.104 27.0 27.0 L 27.0 7.0 C 27.0 5.896 26.104 5.0 25.0 5.0 z " fill-opacity="0.15"/>
<path d="M 24.0 4.0 C 24.0 3.447 23.553 3.0 23.0 3.0 L 7.0 3.0 C 6.447 3.0 6.0 3.447 6.0 4.0 L 6.0 24.0 C 6.0 24.553 6.447 25.0 7.0 25.0 L 7.0 6.0 C 7.0 4.896 7.896 4.0 9.0 4.0 L 24.0 4.0 z M 22.0 2.0 C 22.0 1.447 21.553 1.0 21.0 1.0 L 5.0 1.0 C 4.447 1.0 4.0 1.447 4.0 2.0 L 4.0 22.0 C 4.0 22.553 4.447 23.0 5.0 23.0 L 5.0 4.0 C 5.0 2.896 5.896 2.0 7.0 2.0 L 22.0 2.0 z M 25.0 5.0 L 9.0 5.0 C 8.447 5.0 8.0 5.447 8.0 6.0 L 8.0 26.0 C 8.0 26.553 8.447 27.0 9.0 27.0 L 25.0 27.0 C 25.553 27.0 26.0 26.553 26.0 26.0 L 26.0 6.0 C 26.0 5.447 25.553 5.0 25.0 5.0 z " fill-opacity="0.3"/>
<path d="M 24.0 5.0 C 24.0 4.447 23.553 4.0 23.0 4.0 L 7.0 4.0 C 6.447 4.0 6.0 4.447 6.0 5.0 L 6.0 25.0 C 6.0 25.553 6.447 26.0 7.0 26.0 L 7.0 7.0 C 7.0 5.896 7.896 5.0 9.0 5.0 L 24.0 5.0 z M 22.0 3.0 C 22.0 2.447 21.553 2.0 21.0 2.0 L 5.0 2.0 C 4.447 2.0 4.0 2.447 4.0 3.0 L 4.0 23.0 C 4.0 23.553 4.447 24.0 5.0 24.0 L 5.0 5.0 C 5.0 3.896 5.896 3.0 7.0 3.0 L 22.0 3.0 z M 25.0 6.0 L 9.0 6.0 C 8.447 6.0 8.0 6.447 8.0 7.0 L 8.0 27.0 C 8.0 27.553 8.447 28.0 9.0 28.0 L 25.0 28.0 C 25.553 28.0 26.0 27.553 26.0 27.0 L 26.0 7.0 C 26.0 6.447 25.553 6.0 25.0 6.0 z " fill="#dedede"/>
<rect fill="none" height="30" width="30"/>
</svg>
