<?xml version="1.0" encoding="UTF-8"?>
<svg xmlns="http://www.w3.org/2000/svg" xmlns:xlink="http://www.w3.org/1999/xlink" baseProfile="tiny" contentScriptType="text/ecmascript" contentStyleType="text/css" height="96px" preserveAspectRatio="xMidYMid meet" version="1.1" viewBox="0 0 96 96" width="96px" x="0px" y="0px" zoomAndPan="magnify">
<defs>
<linearGradient id="linearGradient3786">
<stop offset="0" stop-color="#9faebc" stop-opacity="1"/>
<stop offset="1" stop-color="#91a2b2" stop-opacity="1"/>
</linearGradient>
<linearGradient gradientTransform="matrix(0,1,-1,0,96,0)" gradientUnits="userSpaceOnUse" id="linearGradient3792" x1="8" x2="88" y1="48" y2="48">
<stop offset="0" stop-color="#9faebc" stop-opacity="1"/>
<stop offset="1" stop-color="#91a2b2" stop-opacity="1"/>
</linearGradient>
</defs>
<rect fill="none" height="96" width="96"/>
<path d="M 88.0 49.0 C 88.0 78.635 77.639 89.0 48.0 89.0 C 18.366 89.0 8.0 78.635 8.0 49.0 C 8.0 19.367 18.366 9.0 48.0 9.0 C 77.637 9.0 88.0 19.367 88.0 49.0 z " fill-opacity="0.4" stroke-opacity="0.4"/>
<linearGradient gradientUnits="userSpaceOnUse" x1="48.0005" x2="48.0005" y1="88" y2="8">
<stop offset="0" stop-color="#3d465b"/>
<stop offset="1" stop-color="#a1b2c0"/>
</linearGradient>
<path d="M 48.0 88.0 C 18.365 88.0 8.0 77.639 8.0 48.0 C 8.0 18.366 18.365 8.0 48.0 8.0 C 77.633 8.0 88.0 18.366 88.0 48.0 C 88.0 77.637 77.633 88.0 48.0 88.0 z " fill="url(#linearGradient3792)" fill-opacity="1"/>
<linearGradient gradientTransform="matrix(1 0 0 1 193.9253 -815.8408)" gradientUnits="userSpaceOnUse" id="SVGID_2_" x1="-145.9253" x2="-145.9253" y1="824.0928" y2="903.3375">
<stop offset="0" stop-color="#ffffff"/>
<stop offset="1" stop-color="#ffffff" stop-opacity="0"/>
</linearGradient>
<path d="M 48.0 8.0 C 18.366 8.0 8.0 18.367 8.0 48.0 C 8.0 77.635 18.366 88.0 48.0 88.0 C 77.639 88.0 88.0 77.635 88.0 48.0 C 88.0 18.367 77.637 8.0 48.0 8.0 z M 48.0 87.0 C 18.842 87.0 9.0 77.158 9.0 48.0 C 9.0 18.841 18.842 9.0 48.0 9.0 C 77.159 9.0 87.0 18.842 87.0 48.0 C 87.0 77.158 77.159 87.0 48.0 87.0 z " fill="url(#SVGID_2_)" fill-opacity="0.15"/>
<path d="M 54.746 80.0 C 50.013 80.0 44.828 77.357 40.148 72.559 C 39.967 72.373 39.828 72.159 39.731 71.926 C 38.753 72.148994 37.767 72.26199 36.786 72.26199 C 29.495 72.26199 23.336 66.048996 23.336 58.69799 C 23.336 55.269993 24.613998 52.136993 26.718998 49.74699 C 26.513998 49.74699 26.311998 49.715996 26.117 49.652992 C 25.412 49.429993 24.89 48.839993 24.755 48.11299 C 22.271 34.85199 26.95 21.96099 35.407997 18.767992 C 36.754 18.258 38.189 18.0 39.674 18.0 C 43.912 18.0 48.428 20.058 52.733 23.952 C 53.341003 24.503 53.553 25.388 53.258003 26.154 C 53.172005 26.375 53.053 26.573 52.905003 26.744 C 54.714 26.245 57.067 26.0 60.0 26.0 C 65.369 26.0 68.8 26.822 70.489 28.512 C 72.17799 30.202002 73.0 33.632 73.0 39.0 C 73.0 44.368 72.179 47.799 70.489 49.49 C 68.8 51.18 65.369 52.0 60.0 52.0 C 54.630997 52.0 51.199 51.178 49.511 49.488 C 47.821 47.8 47.0 44.369 47.0 39.0 C 47.0 33.632 47.821 30.201 49.512 28.512 C 49.921 28.102 50.433 27.743002 51.051003 27.435 L 48.113003 27.435 C 47.669003 27.435 47.230003 27.283 46.879 27.009 C 44.997 25.53 43.24 24.75 41.796 24.75 C 41.373 24.75 40.975 24.82 40.61 24.958 C 37.137 26.27 36.29 33.897 38.592 43.095 C 38.740997 43.686 38.614 44.305 38.244 44.792 C 38.136 44.935 38.011 45.061 37.872 45.167 C 45.005997 45.647 50.461 51.417 50.461 58.698 C 50.461 62.845997 48.664 66.585 45.485 69.139 C 48.061 71.758 50.634003 73.25 52.605 73.25 C 53.031 73.25 53.434 73.178 53.803 73.039 C 57.324 71.707 58.155003 64.254 55.823 54.914 C 55.674004 54.31 55.806004 53.685 56.188004 53.197 C 56.569004 52.709003 57.144005 52.429 57.764004 52.429 L 68.25101 52.429 C 69.296005 52.429 70.172005 53.243 70.24501 54.286 C 71.07701 65.954 66.35001 76.444 59.006012 79.233 C 57.662 79.742 56.229 80.0 54.746 80.0 L 54.746 80.0 z " fill-opacity="0.1" stroke-opacity="0.1"/>
<path d="M 54.746 79.0 C 50.285 79.0 45.353996 76.465 40.864 71.861 C 40.637997 71.629 40.538 71.302 40.594997 70.984 C 40.62 70.843 40.675 70.714005 40.752 70.599 C 39.455 71.035 38.108 71.261 36.785 71.261 C 30.036 71.261 24.335 65.507 24.335 58.697 C 24.335 51.769 29.974 46.134003 36.904 46.134003 C 43.945 46.134003 49.46 51.653004 49.46 58.697 C 49.46 63.361004 47.082 66.959 43.861 69.086 C 44.03 69.135 44.186 69.227 44.313 69.363 C 47.266 72.513 50.209 74.25 52.604 74.25 C 53.151 74.25 53.673 74.156 54.156 73.975 C 58.23 72.434 59.289997 64.675995 56.793 54.671997 C 56.719 54.372997 56.786 54.056995 56.976 53.812996 C 57.164997 53.570995 57.455997 53.429996 57.763996 53.429996 L 68.251 53.429996 C 68.775 53.429996 69.211 53.833996 69.248 54.358 C 70.049 65.596 65.593 75.66499 58.651 78.299 C 57.421 78.764 56.107 79.0 54.746 79.0 L 54.746 79.0 z M 60.0 51.0 C 54.98 51.0 51.689 50.254 50.219 48.781 C 48.746 47.31 48.0 44.019 48.0 39.0 C 48.0 33.982 48.746 30.691 50.219 29.219 C 51.689 27.747 54.98 27.0 60.0 27.0 C 65.019 27.0 68.311 27.747 69.782 29.219 C 71.253 30.691 72.0 33.982 72.0 39.0 C 72.0 44.019 71.254 47.31 69.782 48.782 C 68.311 50.254 65.019 51.0 60.0 51.0 L 60.0 51.0 z M 26.721 48.746 C 26.62 48.746 26.518002 48.731 26.419 48.699997 C 26.067 48.588997 25.806 48.292995 25.738 47.929996 C 23.34 35.129 27.743 22.729996 35.761 19.702995 C 36.994 19.236 38.311 19.0 39.674 19.0 C 43.66 19.0 47.944 20.969 52.062 24.693 C 52.369 24.97 52.473 25.408 52.325 25.794 C 52.176003 26.18 51.805 26.435 51.391 26.435 L 48.113 26.435 C 47.889 26.435 47.671997 26.36 47.495 26.221 C 45.435997 24.604 43.466 23.749 41.796 23.749 C 41.253 23.749 40.733997 23.84 40.256996 24.021 C 36.237995 25.539 35.154995 33.482002 37.622997 43.336 C 37.697 43.630997 37.632996 43.942997 37.448997 44.185 C 37.265 44.427 36.981 44.572 36.678 44.579 C 33.189 44.664 29.901997 46.043 27.419998 48.462 C 27.229 48.647 26.978 48.746 26.721 48.746 L 26.721 48.746 z " fill-opacity="0.1" stroke-opacity="0.1"/>
<path d="M 36.652 43.58 C 34.105 33.410004 35.107 24.897 39.902 23.086002 C 42.288 22.185 45.185 23.136002 48.112 25.435 L 51.39 25.435 C 46.346 20.872002 40.785 18.869 36.115 20.639002 C 28.803995 23.399002 24.354998 35.119003 26.719995 47.746 C 29.292 45.24 32.784 43.675 36.652 43.58 z M 57.765 54.43 C 60.303 64.6 59.301 73.098 54.511 74.91 C 51.379997 76.094 47.903 74.64001 44.093 70.574005 C 43.455997 71.00201 42.738 71.549 42.042 71.87501 C 47.448 77.41801 53.181 79.29901 58.298 77.36301 C 64.786 74.90001 69.032 65.381004 68.252 54.42901 L 57.765 54.42901 z M 48.461 58.697 C 48.461 51.847 42.983997 47.134 36.905 47.134 C 30.826 47.134 25.336 52.136997 25.336 58.697 C 25.336 65.254 30.894 70.261 36.786 70.261 C 42.687 70.262 48.461 65.545 48.461 58.697 z M 69.075 29.926 C 67.815 28.666 64.678 28.0 60.0 28.0 C 55.323 28.0 52.185 28.666 50.926 29.926 C 49.666 31.186 49.0 34.323 49.0 39.0 C 49.0 43.677 49.666 46.815 50.926 48.074 C 52.185 49.334 55.323 50.0 60.0 50.0 C 64.678 50.0 67.815 49.334 69.075 48.075 C 70.334 46.815 71.0 43.677 71.0 39.0 C 71.0 34.323 70.334 31.185 69.075 29.926 z " fill-opacity="0.3" stroke-opacity="0.3"/>
<linearGradient gradientUnits="userSpaceOnUse" x1="48.1685" x2="48.1685" y1="77.2441" y2="19.2451">
<stop offset="0" stop-color="#cccac6"/>
<stop offset="1" stop-color="#ffffff"/>
</linearGradient>
<path d="M 36.553 42.152 C 34.143 32.174 35.176003 23.873 39.903 22.087 C 42.289 21.186 45.186 22.137 48.113 24.436 L 51.391 24.436 C 46.347 19.873 40.786 17.871 36.115997 19.64 C 28.939997 22.349 24.537998 33.694 26.613998 46.052 C 29.277 43.696 32.745 42.238 36.553 42.152 z M 69.075 28.927 C 67.814995 27.667 64.67799 27.001 59.999996 27.001 C 55.323 27.001 52.185 27.667 50.925995 28.927 C 49.666 30.187 49.0 33.324 49.0 38.001 C 49.0 42.678 49.666 45.816 50.926 47.075 C 52.185 48.335 55.323 49.002 60.0 49.002 C 64.678 49.002 67.815 48.335 69.075 47.077 C 70.334 45.816 71.0 42.678 71.0 38.001 C 71.0 33.324 70.334 30.186 69.075 28.927 z M 57.765 53.43 C 60.303 63.602 59.301 72.1 54.511 73.91 C 51.852997 74.916 48.578 73.633 45.318996 70.736 C 44.686996 71.146 44.021996 71.506 43.330997 71.822 C 48.294 76.199 53.726 78.093 58.298996 76.365 C 64.786995 73.902 69.033 64.382996 68.253 53.428997 L 57.765 53.428997 z M 48.461 57.697 C 48.461 50.849 42.983997 46.134 36.905 46.134 C 30.826 46.134 25.336 51.138 25.336 57.697 C 25.336 64.256 30.894 69.261 36.786 69.261 C 42.687 69.262 48.461 64.547 48.461 57.697 z " fill="#ffffff" fill-opacity="1"/>
</svg>
