<?xml version="1.0" encoding="UTF-8"?>
<svg xmlns="http://www.w3.org/2000/svg" xmlns:xlink="http://www.w3.org/1999/xlink" baseProfile="tiny" contentScriptType="text/ecmascript" contentStyleType="text/css" height="30px" preserveAspectRatio="xMidYMid meet" version="1.1" viewBox="0 0 30 30" width="30px" x="0px" y="0px" zoomAndPan="magnify">
<path d="M 29.0 21.0 L 27.63 21.0 C 28.498999 19.18 29.0 17.148 29.0 15.0 C 29.0 7.28 22.721 1.0 15.0 1.0 C 7.28 1.0 1.0 7.28 1.0 15.0 C 1.0 22.721 7.28 29.0 15.0 29.0 C 17.038 29.0 18.971 28.553 20.719 27.766 L 24.514 29.874 C 24.666 29.958 24.833 30.0 25.0 30.0 C 25.176 30.0 25.352 29.954 25.508 29.861 C 25.813 29.682 26.0 29.354 26.0 29.0 L 26.0 27.0 L 29.0 27.0 C 29.553 27.0 30.0 26.553 30.0 26.0 L 30.0 22.0 C 30.0 21.447 29.553 21.0 29.0 21.0 z " fill-opacity="0.15"/>
<path d="M 25.0 21.0 L 25.0 18.0 L 16.0 23.0 L 25.0 28.0 L 25.0 25.0 L 29.0 25.0 L 29.0 21.0 L 25.0 21.0 z M 14.8 23.0 C 14.8 22.564 15.037001 22.162 15.417 21.951 L 24.417 16.951 C 24.596 16.851 24.796999 16.800001 25.0 16.800001 C 25.214 16.800001 25.424 16.858002 25.609 16.966002 C 25.975 17.182 26.2 17.576 26.2 18.0 L 26.2 19.8 L 26.617 19.8 C 27.084 18.865 27.445 17.870998 27.681 16.826 C 27.687 16.801 27.697 16.777 27.702 16.752 C 27.701 16.751001 27.701 16.75 27.699999 16.748001 C 27.895 15.861 28.0 14.943 28.0 14.0 L 28.0 13.999 C 28.0 13.997999 28.0 13.997999 28.0 13.997 C 28.0 6.82 22.182 1.0 15.001 1.0 L 15.0 1.0 C 11.436 1.0 8.209 2.4359999 5.861 4.759 C 5.845 4.775 5.826 4.791 5.809 4.807 C 5.71 4.905 5.623 5.014 5.527 5.115 C 3.346 7.439 2.0 10.558 2.0 13.996 C 2.0 13.997001 2.0 13.997001 2.0 13.998 L 2.0 13.999001 C 2.0 21.18 7.82 26.999 15.0 26.999 L 15.001 26.999 C 16.533 26.999 18.002 26.728 19.366001 26.241001 L 15.417002 24.048 C 15.037 23.838 14.8 23.436 14.8 23.0 z M 15.602 13.456 C 15.811 12.281 15.938001 11.586 16.928 11.345 C 17.487 11.208 19.157 10.993 20.321 11.452001 C 20.869 11.669001 21.745998 11.580001 21.880999 10.857 C 22.024998 10.083 21.505999 10.035 20.262999 9.685 C 19.137 9.369 18.079998 10.314 17.166998 10.313001 C 16.759998 10.313001 16.779999 9.967001 16.785997 9.487 C 16.794998 9.007001 18.555998 7.7680006 18.738997 7.6280003 C 19.095997 7.3550005 20.136997 7.464 20.159996 7.464 C 21.308996 7.5010004 21.058996 6.7200003 20.281996 6.683 C 18.920996 6.617 19.019997 5.902 19.004995 5.6870003 C 18.986996 5.472 19.201996 4.9230003 20.251995 4.8970003 C 20.493996 4.8910003 21.232996 4.8620005 21.772995 4.8810005 C 24.516994 6.925 26.313995 10.167 26.368996 13.833 C 26.164995 14.104 25.817995 14.379 25.401997 14.302 C 24.680996 14.172 24.213997 12.301001 23.436996 12.886 C 22.622997 13.502 23.624996 14.375999 24.475996 15.066999 C 24.151997 15.127 23.833996 15.216999 23.543997 15.379 L 19.777996 17.472 C 19.470997 16.931 18.849997 16.426 17.560997 16.271 C 15.252 15.991 15.448 14.309 15.602 13.456 z M 12.154 18.547 C 11.902 19.055 11.341001 19.244001 11.392 20.17 C 11.474 21.656 10.277 21.539 10.0 22.551 C 9.822 23.203001 9.624 23.697 9.512 23.957 C 8.702 23.51 7.96 22.959002 7.2860003 22.336 C 7.3700004 21.27 7.077 19.311 6.7250004 19.07 C 5.6110005 18.312 5.6530004 18.532999 5.5550003 15.566 C 5.5020003 13.92 8.293 14.386 8.894 15.043 C 9.47 15.668 9.375 16.58 11.048 17.281 C 11.525 17.479 12.407 18.043 12.154 18.547 z M 11.25 5.66 C 10.656 5.8729997 10.424 5.836 10.017 5.565 C 9.443 5.183 8.199 6.202 8.969 6.561 C 9.23 6.683 9.699 6.723 10.45 6.98 C 11.639999 7.391 11.9869995 8.1 11.297999 8.286 C 7.8479996 9.219 9.459999 10.298 8.151999 11.6050005 C 7.4809995 12.280001 7.5269995 12.549001 7.049999 12.708 C 6.4679995 12.902 6.3759995 12.054 5.8259993 12.030001 C 5.6529994 12.021001 4.374999 12.049001 3.8029993 12.055 C 4.664999 7.0750003 8.768 3.191 13.858999 2.6820002 C 13.941999 2.729 13.996999 2.7910001 13.975999 2.8950002 C 13.859 3.49 11.846 5.447 11.25 5.66 z " fill-opacity="0.3"/>
<path d="M 25.0 22.0 L 25.0 19.0 L 16.0 24.0 L 25.0 29.0 L 25.0 26.0 L 29.0 26.0 L 29.0 22.0 L 25.0 22.0 z M 14.8 24.0 C 14.8 23.564 15.037001 23.162 15.417 22.951 L 24.417 17.951 C 24.596 17.851 24.796999 17.800001 25.0 17.800001 C 25.214 17.800001 25.424 17.858002 25.609 17.966002 C 25.975 18.182 26.2 18.576 26.2 19.0 L 26.2 20.8 L 26.617 20.8 C 27.084 19.865 27.445 18.870998 27.681 17.826 C 27.687 17.801 27.697 17.777 27.702 17.752 C 27.701 17.751001 27.701 17.75 27.699999 17.748001 C 27.895 16.861 28.0 15.943 28.0 15.0 L 28.0 14.999 C 28.0 14.997999 28.0 14.997999 28.0 14.997 C 28.0 7.82 22.182 2.0 15.001 2.0 L 15.0 2.0 C 11.436 2.0 8.209 3.4359999 5.861 5.759 C 5.845 5.775 5.826 5.791 5.809 5.807 C 5.71 5.905 5.623 6.014 5.527 6.115 C 3.346 8.439 2.0 11.558 2.0 14.996 C 2.0 14.997001 2.0 14.997001 2.0 14.998 L 2.0 14.999001 C 2.0 22.18 7.82 27.999 15.0 27.999 L 15.001 27.999 C 16.533 27.999 18.002 27.728 19.366001 27.241001 L 15.417002 25.048 C 15.037 24.838 14.8 24.436 14.8 24.0 z M 15.602 14.456 C 15.811 13.281 15.938001 12.586 16.928 12.345 C 17.487 12.208 19.157 11.993 20.321 12.452001 C 20.869 12.669001 21.745998 12.580001 21.880999 11.857 C 22.024998 11.083 21.505999 11.035 20.262999 10.685 C 19.137 10.369 18.079998 11.314 17.166998 11.313001 C 16.759998 11.313001 16.779999 10.967001 16.785997 10.487 C 16.794998 10.007001 18.555998 8.768001 18.738997 8.628 C 19.095997 8.3550005 20.136997 8.464001 20.159996 8.464001 C 21.308996 8.501 21.058996 7.7200007 20.281996 7.6830006 C 18.920996 7.6170006 19.019997 6.9020004 19.004995 6.6870008 C 18.986996 6.4720006 19.201996 5.923001 20.251995 5.897001 C 20.493996 5.8910007 21.232996 5.862001 21.772995 5.881001 C 24.516994 7.925001 26.313995 11.167001 26.368996 14.833 C 26.164995 15.104 25.817995 15.379 25.401997 15.302 C 24.680996 15.172 24.213997 13.301001 23.436996 13.886 C 22.622997 14.502 23.624996 15.375999 24.475996 16.067 C 24.151997 16.126999 23.833996 16.217 23.543997 16.379 L 19.777996 18.472 C 19.470997 17.931 18.849997 17.426 17.560997 17.271 C 15.252 16.991 15.448 15.308 15.602 14.456 z M 12.154 19.547 C 11.902 20.055 11.341001 20.244001 11.392 21.17 C 11.474 22.656 10.277 22.539 10.0 23.551 C 9.822 24.203001 9.624 24.697 9.512 24.957 C 8.702 24.51 7.96 23.959002 7.2860003 23.336 C 7.3700004 22.27 7.077 20.311 6.7250004 20.07 C 5.6110005 19.312 5.6530004 19.532999 5.5550003 16.566 C 5.5020003 14.92 8.293 15.387 8.894 16.043 C 9.47 16.668 9.375 17.58 11.048 18.280998 C 11.525 18.479 12.407 19.043 12.154 19.547 z M 11.25 6.66 C 10.656 6.8729997 10.424 6.836 10.017 6.565 C 9.443 6.183 8.199 7.202 8.969 7.561 C 9.23 7.683 9.699 7.723 10.45 7.98 C 11.639999 8.391 11.9869995 9.1 11.297999 9.286 C 7.8479996 10.219 9.459999 11.298 8.151999 12.6050005 C 7.4809995 13.280001 7.5269995 13.549001 7.049999 13.708 C 6.4679995 13.902 6.3759995 13.054 5.8259993 13.030001 C 5.6529994 13.021001 4.374999 13.049001 3.8029993 13.055 C 4.664999 8.075001 8.768 4.191 13.858999 3.6820002 C 13.941999 3.729 13.996999 3.7910001 13.975999 3.8950002 C 13.859 4.49 11.846 6.447 11.25 6.66 z " fill="#dedede"/>
<rect fill="none" height="30" width="30"/>
</svg>
