<?xml version="1.0" encoding="UTF-8"?>
<svg xmlns="http://www.w3.org/2000/svg" xmlns:xlink="http://www.w3.org/1999/xlink" baseProfile="tiny" contentScriptType="text/ecmascript" contentStyleType="text/css" height="16px" preserveAspectRatio="xMidYMid meet" version="1.1" viewBox="0 0 16 16" width="16px" x="0px" y="0px" zoomAndPan="magnify">
<linearGradient gradientTransform="matrix(1 0 0 1 -365.46 -1115.8457)" gradientUnits="userSpaceOnUse" x1="373.46" x2="373.46" xlink:actuate="onLoad" xlink:show="other" xlink:type="simple" y1="1129.0205" y2="1118.6709">
<stop offset="0" stop-color="#d0cbc5"/>
<stop offset="1" stop-color="#fcfcf9"/>
</linearGradient>
<path d="M 14.393 2.825 L 1.608 2.825 C 1.274 2.825 1.0 3.1 1.0 3.434 L 1.0 12.565 C 1.0 12.9 1.2739999 13.174999 1.608 13.174999 L 14.393 13.174999 C 14.726999 13.174999 15.0 12.9 15.0 12.565 L 15.0 3.434 C 15.0 3.1 14.727 2.825 14.393 2.825 z M 11.044 3.434 L 12.262 3.434 L 12.262 4.652 L 11.044 4.652 L 11.044 3.434 z M 9.217 3.434 L 10.436 3.434 L 10.436 4.652 L 9.217 4.652 L 9.217 3.434 z M 7.391 3.434 L 8.609 3.434 L 8.609 4.652 L 7.391 4.652 L 7.391 3.434 z M 5.565 3.434 L 6.783 3.434 L 6.783 4.652 L 5.565 4.652 L 5.565 3.434 z M 3.739 3.434 L 4.9560003 3.434 L 4.9560003 4.652 L 3.739 4.652 L 3.739 3.434 z M 1.913 3.434 L 3.13 3.434 L 3.13 4.652 L 1.913 4.652 L 1.913 3.434 z M 1.913 5.26 L 7.544 5.26 L 7.544 10.739 L 1.913 10.739 L 1.913 5.26 z M 3.13 12.564 L 1.913 12.564 L 1.913 11.346 L 3.13 11.346 L 3.13 12.564 z M 4.956 12.564 L 3.739 12.564 L 3.739 11.346 L 4.9560003 11.346 L 4.9560003 12.564 z M 6.783 12.564 L 5.565 12.564 L 5.565 11.346 L 6.783 11.346 L 6.783 12.564 z M 8.609 12.564 L 7.391 12.564 L 7.391 11.346 L 8.609 11.346 L 8.609 12.564 z M 10.436 12.564 L 9.217 12.564 L 9.217 11.346 L 10.436 11.346 L 10.436 12.564 z M 12.262 12.564 L 11.044 12.564 L 11.044 11.346 L 12.262 11.346 L 12.262 12.564 z M 14.088 12.564 L 12.87 12.564 L 12.87 11.346 L 14.088 11.346 L 14.088 12.564 z M 14.088 10.738 L 8.457 10.738 L 8.457 5.26 L 14.087999 5.26 L 14.087999 10.738 z M 14.088 4.651 L 12.87 4.651 L 12.87 3.434 L 14.088 3.434 L 14.088 4.651 z " fill="#dedede" fill-opacity="1"/>
</svg>
