<?xml version="1.0" encoding="UTF-8"?>
<svg xmlns="http://www.w3.org/2000/svg" xmlns:xlink="http://www.w3.org/1999/xlink" baseProfile="tiny" contentScriptType="text/ecmascript" contentStyleType="text/css" height="30px" preserveAspectRatio="xMidYMid meet" version="1.1" viewBox="0 0 30 30" width="30px" x="0px" y="0px" zoomAndPan="magnify">
<path d="M 10.998 28.0 C 9.96 28.0 9.081 27.433 8.385 26.313 L 1.89 17.171 C 1.252 16.282 1.452 15.028999 2.336 14.382 L 4.756 12.614 C 5.099 12.363 5.505 12.2300005 5.9300003 12.2300005 C 6.571 12.2300005 7.1760006 12.542001 7.5490003 13.064 L 10.975 17.825 L 21.432 2.859 C 21.798 2.324 22.412 2.0 23.07 2.0 C 23.479 2.0 23.873 2.124 24.209 2.3600001 L 26.661999 4.0750003 C 27.56 4.7070003 27.783998 5.9550004 27.161 6.859 L 13.46 26.472 C 13.227 26.831 12.462 28.0 10.998 28.0 L 10.998 28.0 z " fill-opacity="0.15"/>
<path d="M 26.089 3.895 L 23.635 2.179 C 23.184 1.8629999 22.563 1.9779999 22.251 2.4329998 L 10.986 18.554 L 6.734 12.646001 C 6.414 12.1970005 5.7910004 12.096001 5.3450003 12.422001 L 2.9250002 14.190001 C 2.482 14.514001 2.3820002 15.143001 2.7040002 15.592001 L 9.233 24.785 C 9.709 25.549 10.266 26.0 10.998 26.0 C 11.690001 26.0 12.188 25.591 12.641 24.899 L 26.338 5.292 C 26.651 4.837 26.539 4.211 26.089 3.895 z " fill-opacity="0.3"/>
<path d="M 26.089 4.895 L 23.635 3.179 C 23.184 2.863 22.563 2.978 22.251 3.4329998 L 10.986 19.554 L 6.734 13.646001 C 6.414 13.1970005 5.7910004 13.096001 5.3450003 13.422001 L 2.9250002 15.190001 C 2.482 15.514001 2.3820002 16.143 2.7040002 16.592001 L 9.233 25.785 C 9.709 26.549 10.266 27.0 10.998 27.0 C 11.690001 27.0 12.188 26.591 12.641 25.899 L 26.338 6.292 C 26.651 5.837 26.539 5.211 26.089 4.895 z " fill="#dedede"/>
<rect fill="none" height="30" width="30"/>
</svg>
