<?xml version="1.0" encoding="UTF-8"?>
<svg xmlns="http://www.w3.org/2000/svg" xmlns:xlink="http://www.w3.org/1999/xlink" baseProfile="tiny" contentScriptType="text/ecmascript" contentStyleType="text/css" height="27px" preserveAspectRatio="xMidYMid meet" version="1.1" viewBox="0 0 27 27" width="27px" x="0px" y="0px" zoomAndPan="magnify">
<defs>
<linearGradient gradientUnits="userSpaceOnUse" x1="7.2485" x2="7.2485" xlink:actuate="onLoad" xlink:show="other" xlink:type="simple" y1="24.8125" y2="1.4372">
<stop offset="0" stop-color="#d0cbc5"/>
<stop offset="1" stop-color="#fcfcf9"/>
</linearGradient>
<linearGradient gradientUnits="userSpaceOnUse" x1="19.3623" x2="19.3623" xlink:actuate="onLoad" xlink:show="other" xlink:type="simple" y1="24.8125" y2="1.4372">
<stop offset="0" stop-color="#d0cbc5"/>
<stop offset="1" stop-color="#fcfcf9"/>
</linearGradient>
</defs>
<g>
<rect fill="none" height="27.271" width="27" y="-0.136"/>
</g>
<path d="M 24.023624 6.1880007 L 14.698626 6.1880007 C 13.805613 6.1880007 13.633015 7.799894 13.533001 8.519251 L 13.533001 22.50675 C 13.533001 23.420357 13.814133 24.838 14.698626 24.838 L 24.023624 24.838 C 25.002558 24.838 25.189247 23.40589 25.189247 22.50675 L 25.189247 8.519251 C 25.189247 7.651991 24.70255 6.1880007 24.023624 6.1880007 z M 19.880604 23.672377 C 19.572044 23.88856 19.05896 23.888468 18.750336 23.672377 C 18.580984 23.553797 18.538193 23.296305 18.538193 23.089563 C 18.538193 22.882822 18.580982 22.62533 18.750336 22.50675 C 19.05896 22.290655 19.572046 22.290564 19.880604 22.50675 C 20.049889 22.625357 20.092358 22.882866 20.092358 23.089563 C 20.092358 23.29626 20.049889 23.553772 19.880604 23.672377 z M 24.023624 21.341124 L 14.698625 21.341124 L 14.698625 8.519251 L 24.023624 8.519251 z " fill="#dedede" fill-opacity="1" stroke-opacity="0.3"/>
<path d="M 11.184562 1.404 L 3.3120627 1.404 C 2.55815 1.404 2.412435 2.764818 2.328 3.372125 L 2.328 15.180875 C 2.328 15.952175 2.565342 17.149 3.3120632 17.149 L 11.184563 17.149 C 12.011014 17.149 12.168626 15.939961 12.168626 15.180875 L 12.168626 3.372125 C 12.168625 2.639953 11.757736 1.404 11.184562 1.404 z M 7.686876 16.164936 C 7.426379 16.347446 6.9932137 16.34737 6.7326617 16.164936 C 6.5896897 16.064829 6.553562 15.847443 6.553562 15.672906 C 6.553562 15.498367 6.5896926 15.280983 6.7326617 15.180874 C 6.9932127 14.998439 7.426379 14.9983635 7.686876 15.180874 C 7.8297896 15.281004 7.865646 15.4984045 7.865646 15.672906 C 7.865646 15.847406 7.829796 16.064808 7.686876 16.164936 z M 11.184562 14.196811 L 3.3120618 14.196811 L 3.3120618 3.3721237 L 11.184562 3.3721237 z " fill="#dedede" fill-opacity="1" stroke-opacity="0.3"/>
</svg>
