<?xml version="1.0" encoding="UTF-8"?>
<svg xmlns="http://www.w3.org/2000/svg" xmlns:xlink="http://www.w3.org/1999/xlink" baseProfile="tiny" contentScriptType="text/ecmascript" contentStyleType="text/css" height="70px" preserveAspectRatio="xMidYMid meet" version="1.1" viewBox="0 0 70 70" width="70px" x="0px" y="0px" zoomAndPan="magnify">
<rect fill="none" height="70" width="70"/>
<path d="M 40.637 44.702 C 40.366 43.62 40.16 42.526 40.549 42.163 C 42.586 40.400997 43.397 36.197998 43.397 36.197998 C 43.452 36.033997 43.51 35.885 43.559 35.728996 C 44.560997 36.958996 45.072998 34.076996 45.487 32.757996 C 45.919 31.353996 46.11 30.443996 46.11 30.443996 C 46.28 29.029997 45.2 29.451996 45.2 29.451996 L 45.116 29.537996 C 45.27 27.566996 45.848 26.359997 45.848 24.583996 C 45.857998 21.836996 46.528 20.836996 43.727 16.628996 C 42.852 15.329996 41.655003 15.109996 36.682 13.507996 C 31.71 11.905995 31.011 13.941996 29.359999 13.741996 C 27.713999 13.549995 27.480999 14.214995 27.168 14.802996 C 26.851 15.392996 27.168 15.859996 26.272 15.893995 C 25.366 15.940995 24.966 16.628996 24.966 16.628996 C 22.279 20.918995 23.282999 22.207996 23.185999 24.950996 C 23.136 26.411997 23.376999 27.496996 24.13 29.502996 L 24.057999 29.397997 C 24.057999 29.397997 23.005 28.899998 23.078 30.329996 C 23.078 30.329996 22.931 30.768995 23.536 32.673996 C 23.883 33.768997 24.153 36.819996 25.187 35.851997 C 25.217001 35.964996 25.26 36.080997 25.300001 36.199997 C 25.300001 36.199997 26.107 40.402996 28.140001 42.164997 C 28.552002 42.549995 28.296001 43.746998 28.003002 44.885998 C 27.891003 45.319996 27.315002 48.288 23.723001 49.721996 C 23.723001 49.721996 20.445002 50.987995 17.137001 52.916996 C 17.137001 52.916996 14.926001 54.025997 14.465001 55.865997 L 14.409001 56.136997 C 16.289001 57.211 18.499 58.083996 21.079002 58.749996 C 27.374002 60.366997 31.714003 60.337997 34.652 60.269997 C 36.601 60.314995 39.183 60.330997 42.527 59.873997 C 40.346 57.547 39.0 54.43 39.0 51.0 C 39.0 48.715 39.598 46.569 40.637 44.702 z M 52.0 40.0 C 45.924 40.0 41.0 44.926 41.0 51.0 C 41.0 57.074 45.924 62.0 52.0 62.0 C 58.074 62.0 63.0 57.074 63.0 51.0 C 63.0 44.926 58.074 40.0 52.0 40.0 z M 59.0 52.0 L 53.0 52.0 L 53.0 58.0 L 51.0 58.0 L 51.0 52.0 L 45.0 52.0 L 45.0 50.0 L 51.0 50.0 L 51.0 44.0 L 53.0 44.0 L 53.0 50.0 L 59.0 50.0 L 59.0 52.0 z " fill="#ffffff" fill-opacity="1" stroke-opacity="0.3"/>
<defs>
<linearGradient gradientUnits="userSpaceOnUse" x1="38.7041" x2="38.7041" y1="61.0005" y2="11.8892">
<stop offset="0" stop-color="#d0cbc5"/>
<stop offset="0.5031" stop-color="#fafcef"/>
<stop offset="0.9693" stop-color="#ffffff"/>
<stop offset="1" stop-color="#ffffff"/>
</linearGradient>
</defs>
</svg>
