<?xml version="1.0" encoding="UTF-8"?>
<svg xmlns="http://www.w3.org/2000/svg" xmlns:xlink="http://www.w3.org/1999/xlink" baseProfile="tiny" contentScriptType="text/ecmascript" contentStyleType="text/css" height="27px" preserveAspectRatio="xMidYMid meet" version="1.1" viewBox="0 0 27 27" width="27px" x="0px" y="0px" zoomAndPan="magnify">
<rect color="#000000" display="inline" fill="#575757" fill-opacity="1" fill-rule="nonzero" height="27" stroke="none" stroke-width="4" visibility="visible" width="27" x="0" y="0"/>
<path d="M 14.753777 8.902819 C 14.984471 8.902819 15.171701 8.715588 15.171701 8.484893 C 15.171701 8.254198 14.984471 8.066967 14.753777 8.066967 C 11.758085 8.066967 9.320744 10.504309 9.320744 13.5 C 9.320744 13.730695 9.507975 13.917926 9.738669 13.917926 C 9.969364 13.917926 10.156595 13.730695 10.156595 13.5 C 10.156595 10.965699 12.219475 8.902819 14.753777 8.902819 z M 15.171701 10.156595 C 15.171701 9.9259 14.984471 9.73867 14.753777 9.73867 C 12.68003 9.73867 10.992447 11.426254 10.992447 13.500001 C 10.992447 13.730696 11.179677 13.917927 11.410372 13.917927 C 11.641067 13.917927 11.828298 13.730696 11.828298 13.500001 C 11.828298 11.886809 13.140584 10.574522 14.753777 10.574522 C 14.984471 10.574522 15.171701 10.387291 15.171701 10.156596 z M 19.350958 13.5 C 19.350958 16.0343 17.288078 18.097181 14.753777 18.097181 C 14.523082 18.097181 14.335851 18.28441 14.335851 18.515106 C 14.335851 18.745802 14.523082 18.933033 14.753777 18.933033 C 17.749466 18.933033 20.18681 16.495691 20.18681 13.5 C 20.18681 13.269306 19.99958 13.082075 19.768885 13.082075 C 19.538189 13.082075 19.350958 13.269306 19.350958 13.5 z M 14.335851 16.843405 C 14.335851 17.0741 14.523082 17.261332 14.753777 17.261332 C 16.827524 17.261332 18.515106 15.573747 18.515106 13.5 C 18.515106 13.269306 18.327875 13.082075 18.09718 13.082075 C 17.866486 13.082075 17.679255 13.269306 17.679255 13.5 C 17.679255 15.1131935 16.366968 16.42548 14.753776 16.42548 C 14.523081 16.42548 14.33585 16.61271 14.33585 16.843407 z M 16.42548 13.5 C 16.42548 12.577221 15.676558 11.828298 14.7537775 11.828298 C 13.830997 11.828298 13.082075 12.577221 13.082075 13.5 C 13.082075 14.42278 13.830997 15.171703 14.7537775 15.171703 C 15.676558 15.171703 16.42548 14.42278 16.42548 13.5 z M 22.276438 5.141489 L 6.3952665 5.141489 L 6.3952665 21.858513 L 22.276438 21.858513 C 22.736156 21.858513 23.11229 21.48238 23.11229 21.022661 L 23.11229 5.9773417 C 23.11229 5.5176234 22.736156 5.1414905 22.276438 5.1414905 z M 14.753777 20.18681 C 11.060149 20.18681 8.066967 17.19279 8.066967 13.5 C 8.066967 9.807211 11.06015 6.813191 14.753777 6.813191 C 18.447403 6.813191 21.440586 9.80721 21.440586 13.5 C 21.440586 17.192791 18.447403 20.18681 14.753777 20.18681 z M 3.887712 5.9773397 L 3.887712 21.02266 C 3.887712 21.482378 4.263845 21.858511 4.723563 21.858511 L 5.5594144 21.858511 L 5.5594144 5.141487 L 4.723563 5.141487 C 4.263845 5.141487 3.887712 5.51762 3.887712 5.9773383 z " fill="#ffffff" fill-opacity="1"/>
<rect fill="none" height="27" width="27"/>
<defs>
<linearGradient gradientUnits="userSpaceOnUse" x1="13.5005" x2="13.5005" xlink:actuate="onLoad" xlink:show="other" xlink:type="simple" y1="24" y2="4.0005">
<stop offset="0" stop-color="#d0cbc5"/>
<stop offset="1" stop-color="#fcfcf9"/>
</linearGradient>
</defs>
</svg>
