<?xml version="1.0" encoding="UTF-8"?>
<svg xmlns="http://www.w3.org/2000/svg" xmlns:xlink="http://www.w3.org/1999/xlink" baseProfile="tiny" contentScriptType="text/ecmascript" contentStyleType="text/css" height="30px" preserveAspectRatio="xMidYMid meet" version="1.1" viewBox="0 0 30 30" width="30px" x="0px" y="0px" zoomAndPan="magnify">
<path d="M 8.0 25.0 C 7.826 25.0 7.65 24.955 7.495 24.863 C 7.188 24.684 7.0 24.355 7.0 24.0 L 7.0 6.0 C 7.0 5.645 7.188 5.316 7.495 5.137 C 7.65 5.046 7.826 5.0 8.0 5.0 C 8.169 5.0 8.338 5.043 8.49 5.129 L 23.49 14.129 C 23.805 14.306 24.0 14.639 24.0 15.0 C 24.0 15.361 23.805 15.694 23.49 15.871 L 8.49 24.871 C 8.338 24.957 8.169 25.0 8.0 25.0 L 8.0 25.0 z " fill="#50b4fb" fill-opacity="0.7" stroke-opacity="0.7"/>
</svg>
