<?xml version="1.0" encoding="UTF-8"?>
<svg xmlns="http://www.w3.org/2000/svg" xmlns:xlink="http://www.w3.org/1999/xlink" baseProfile="tiny" contentScriptType="text/ecmascript" contentStyleType="text/css" height="30px" preserveAspectRatio="xMidYMid meet" version="1.1" viewBox="0 0 30 30" width="30px" x="0px" y="0px" zoomAndPan="magnify">
<path d="M 27.111 24.2 L 28.555 22.756 C 28.971 22.34 29.2 21.788 29.2 21.2 C 29.2 20.612001 28.971 20.060001 28.555 19.644001 C 28.14 19.229 27.588 19.0 27.0 19.0 C 26.412 19.0 25.86 19.229 25.444 19.645 L 24.0 21.089 L 22.556 19.645 C 22.14 19.229 21.588 19.0 21.0 19.0 C 20.955 19.0 20.912 19.01 20.869 19.013 C 20.869 19.011 20.868 19.008001 20.866999 19.006 C 20.765 18.156 20.376999 17.388 19.758 16.834 L 23.27 13.318999 C 23.931 12.657999 24.029001 12.018999 23.994 11.598999 C 23.979 11.423999 23.941 11.264999 23.889 11.121999 C 23.876 11.085999 23.857 11.058999 23.841 11.023999 C 23.798 10.923999 23.753 10.824999 23.699999 10.742999 C 23.664999 10.687999 23.627998 10.648999 23.592 10.601999 C 23.556 10.554999 23.521 10.501999 23.484999 10.462999 C 23.415998 10.386999 23.350998 10.327999 23.297998 10.282999 C 23.928999 9.634999 24.027998 9.009999 23.993998 8.596999 C 23.934998 7.893999 23.496998 7.446999 23.284998 7.269999 C 22.617998 6.612999 21.486998 6.498999 21.142998 6.479999 C 19.704998 6.263999 18.522999 5.330999 18.470997 5.290999 L 14.770997 2.619999 C 13.143 1.546 11.499 1.0 9.887 1.0 C 8.798 1.0 7.748 1.244 6.754 1.727 C 6.254 1.324 5.6280003 1.098 4.964 1.098 C 3.3830004 1.098 2.0970001 2.385 2.0970001 3.966 C 2.0970001 4.51 2.255 5.0230002 2.532 5.467 C 2.423 5.642 2.337 5.829 2.268 6.025 C 2.238 6.108 2.211 6.192 2.189 6.279 C 2.174 6.342 2.158 6.404 2.146 6.469 C 2.1169999 6.631 2.096 6.796 2.096 6.966 C 2.096 7.1470003 2.1169999 7.324 2.149 7.498 C 1.981 8.339 1.948 9.311 2.1699998 10.392 C 2.0809999 10.804 2.024 11.247 2.014 11.722 C 2.013 11.74 2.014 11.757 2.013 11.774 C 2.01 11.984 2.017 12.199 2.034 12.42 C 2.036 12.452 2.037 12.484 2.041 12.518 C 2.0609999 12.752999 2.093 12.995 2.139 13.242 C 2.145 13.275 2.154 13.309999 2.1599998 13.344 C 2.202 13.555 2.2549999 13.771 2.317 13.99 C 2.3349998 14.052 2.3509998 14.1119995 2.3709998 14.172999 C 2.449 14.426 2.5379999 14.681999 2.646 14.943999 C 2.659 14.974999 2.675 15.006999 2.689 15.039 C 2.7889998 15.271999 2.902 15.511 3.0279999 15.750999 C 3.066 15.823999 3.1039999 15.896999 3.1439998 15.969999 C 3.294 16.244999 3.4569998 16.522999 3.6449997 16.807 L 6.3259997 20.518 C 6.336 20.529999 7.265 21.711 7.482 23.147999 C 7.501 23.489998 7.614 24.612999 8.264999 25.280998 C 8.553 25.628 9.086 26.0 9.751 26.0 C 10.309 26.0 10.837 25.754 11.3220005 25.27 L 14.832001 21.76 C 15.476001 22.482 16.404001 22.915 17.422 22.915 C 17.625 22.915 17.820002 22.891 18.014 22.855001 C 18.096 22.840002 18.177 22.822 18.258 22.802002 C 18.345 22.780003 18.43 22.751001 18.514 22.722002 C 18.744 22.646002 18.964 22.548002 19.17 22.427002 C 19.172 22.426003 19.173 22.426003 19.174 22.425001 C 19.251999 22.542002 19.342 22.653002 19.445 22.755001 L 20.889 24.199001 L 19.445 25.643002 C 19.029 26.061 18.8 26.612 18.8 27.2 C 18.8 27.788002 19.029 28.34 19.445 28.756 C 19.86 29.171 20.412 29.4 21.0 29.4 C 21.588 29.4 22.14 29.171 22.556 28.755 L 24.0 27.312 L 25.444 28.756 C 25.86 29.171 26.412 29.4 27.0 29.4 C 27.588 29.4 28.14 29.171 28.556 28.755 C 28.971 28.34 29.2 27.788 29.2 27.2 C 29.2 26.612001 28.971 26.060001 28.555 25.644001 L 27.111 24.2 z " fill-opacity="0.15" stroke-opacity="0.15"/>
<path d="M 4.964 2.897 C 5.618 2.897 6.2580004 3.108 6.7790003 3.493 C 7.767 3.033 8.812 2.8 9.887 2.8 C 11.539 2.8 13.22 3.3569999 14.8810005 4.455 L 18.588001 7.131 C 18.721 7.235 19.847002 8.086 21.172 8.284 C 21.391 8.2960005 21.987001 8.3550005 22.576 8.596001 C 23.502 7.653001 22.611 7.015001 22.611 7.015001 C 22.159 6.521001 21.047 6.479001 21.047 6.479001 C 19.278 6.232001 17.885 5.104001 17.885 5.104001 L 14.219 2.457001 C 10.775 0.18000102 8.092 1.019001 6.548 1.983001 C 6.218 1.454001 5.6349998 1.098001 4.9639997 1.098001 C 3.9349997 1.098001 3.0969996 1.935001 3.0969996 2.966001 C 3.0969996 3.147001 3.1269996 3.3200011 3.1749997 3.485001 C 3.68 3.119 4.295 2.897 4.964 2.897 z M 18.132 16.047 L 18.194 15.985001 L 22.563 11.612 C 23.517 10.659 22.612 10.014 22.612 10.014 C 22.16 9.5199995 21.048 9.478 21.048 9.478 C 19.279 9.231 17.886 8.103 17.886 8.103 L 14.219999 5.4559994 C 10.775999 3.1789994 8.092999 4.0179996 6.5489993 4.9819994 C 6.2189994 4.4529996 5.635999 4.096999 4.964999 4.096999 C 3.9359992 4.096999 3.097999 4.933999 3.097999 5.964999 C 3.097999 6.635999 3.453999 7.2179995 3.983999 7.545999 C 3.019999 9.090999 2.1799989 11.773999 4.457999 15.2179985 L 7.1049995 18.884998 C 7.1049995 18.884998 8.231999 20.276999 8.48 22.046999 C 8.48 22.046999 8.521999 23.155998 9.014999 23.609999 C 9.014999 23.609999 9.660999 24.516998 10.617 23.561998 L 15.046999 19.131998 C 15.354999 20.158998 16.296 20.913998 17.424 20.913998 C 17.867 20.913998 18.278 20.787998 18.639 20.583998 C 18.619 20.456997 18.602 20.329998 18.602 20.198997 C 18.602 19.558998 18.852 18.956997 19.304998 18.501997 C 19.477999 18.329996 19.676998 18.196997 19.887 18.085997 C 19.751 17.113 19.054 16.323 18.132 16.047 z M 25.414 23.2 L 27.706999 20.907001 C 28.098 20.516 28.098 19.884 27.706999 19.493002 C 27.315998 19.102003 26.683998 19.102001 26.293 19.493002 L 24.0 21.786 L 21.707 19.493 C 21.316 19.102 20.684 19.102 20.293001 19.493 C 19.902002 19.884 19.902 20.516 20.293001 20.907 L 22.586 23.199999 L 20.293001 25.492998 C 19.902 25.883999 19.902 26.515999 20.293001 26.906998 C 20.488 27.103 20.744 27.2 21.0 27.2 C 21.256 27.2 21.512 27.102001 21.707 26.907001 L 24.0 24.614 L 26.293 26.907 C 26.488 27.103 26.744 27.2 27.0 27.2 C 27.256 27.2 27.512 27.102001 27.707 26.907001 C 28.098001 26.516 28.098001 25.884 27.707 25.493002 L 25.414 23.2 z " fill-opacity="0.3" stroke-opacity="0.3"/>
<line fill="none" stroke="#dedede" stroke-linecap="round" stroke-width="2" x1="21" x2="27" y1="27.2" y2="21.2"/>
<line fill="none" stroke="#dedede" stroke-linecap="round" stroke-width="2" x1="21" x2="27" y1="21.2" y2="27.2"/>
<path d="M 4.964 3.897 C 5.618 3.897 6.2580004 4.1080003 6.7790003 4.493 C 7.767 4.033 8.812 3.8 9.887 3.8 C 11.539 3.8 13.22 4.357 14.8810005 5.455 L 18.588001 8.1310005 C 18.721 8.235001 19.847002 9.086 21.172 9.284 C 21.391 9.2960005 21.987001 9.3550005 22.576 9.596001 C 23.502 8.653001 22.611 8.015 22.611 8.015 C 22.159 7.5210004 21.047 7.479 21.047 7.479 C 19.278 7.232 17.885 6.104 17.885 6.104 L 14.219 3.457 C 10.775 1.1800001 8.092 2.019 6.548 2.983 C 6.218 2.454 5.6349998 2.098 4.9639997 2.098 C 3.9349997 2.098 3.0969996 2.935 3.0969996 3.966 C 3.0969996 4.1470003 3.1269996 4.32 3.1749997 4.485 C 3.68 4.119 4.295 3.897 4.964 3.897 z M 18.132 17.047 L 18.194 16.985 L 22.563 12.612 C 23.517 11.659 22.612 11.014 22.612 11.014 C 22.16 10.5199995 21.048 10.478 21.048 10.478 C 19.279 10.231 17.886 9.103 17.886 9.103 L 14.219999 6.4559994 C 10.775999 4.1789994 8.092999 5.0179996 6.5489993 5.9819994 C 6.2189994 5.4529996 5.635999 5.096999 4.964999 5.096999 C 3.9359992 5.096999 3.097999 5.933999 3.097999 6.964999 C 3.097999 7.635999 3.453999 8.217999 3.983999 8.546 C 3.019999 10.091 2.1799989 12.774 4.457999 16.217999 L 7.1049995 19.884998 C 7.1049995 19.884998 8.231999 21.276999 8.48 23.046999 C 8.48 23.046999 8.521999 24.155998 9.014999 24.609999 C 9.014999 24.609999 9.660999 25.516998 10.617 24.561998 L 15.046999 20.131998 C 15.354999 21.158998 16.296 21.913998 17.424 21.913998 C 17.867 21.913998 18.278 21.787998 18.639 21.583998 C 18.619 21.456997 18.602 21.329998 18.602 21.198997 C 18.602 20.558998 18.852 19.956997 19.304998 19.501997 C 19.477999 19.329996 19.676998 19.196997 19.887 19.085997 C 19.751 18.113 19.054 17.323 18.132 17.047 z M 25.414 24.2 L 27.706999 21.907001 C 28.098 21.516 28.098 20.884 27.706999 20.493002 C 27.315998 20.102003 26.683998 20.102001 26.293 20.493002 L 24.0 22.786 L 21.707 20.493 C 21.316 20.102 20.684 20.102 20.293001 20.493 C 19.902002 20.884 19.902 21.516 20.293001 21.907 L 22.586 24.199999 L 20.293001 26.492998 C 19.902 26.883999 19.902 27.515999 20.293001 27.906998 C 20.488 28.103 20.744 28.2 21.0 28.2 C 21.256 28.2 21.512 28.102001 21.707 27.907001 L 24.0 25.614 L 26.293 27.907 C 26.488 28.103 26.744 28.2 27.0 28.2 C 27.256 28.2 27.512 28.102001 27.707 27.907001 C 28.098001 27.516 28.098001 26.884 27.707 26.493002 L 25.414 24.2 z " fill="#dedede"/>
<rect fill="none" height="30" width="30"/>
</svg>
