<?xml version="1.0" encoding="UTF-8"?>
<svg xmlns="http://www.w3.org/2000/svg" xmlns:xlink="http://www.w3.org/1999/xlink" baseProfile="tiny" contentScriptType="text/ecmascript" contentStyleType="text/css" height="30px" preserveAspectRatio="xMidYMid meet" version="1.1" viewBox="0 0 30 30" width="30px" x="0px" y="0px" zoomAndPan="magnify">
<path d="M 30.0 7.0 C 30.0 5.896 29.104 5.0 28.0 5.0 L 25.0 5.0 L 25.0 2.0 C 25.0 0.896 24.104 0.0 23.0 0.0 C 21.898 0.0 21.0 0.896 21.0 2.0 L 21.0 2.37 C 19.179 1.501 17.148 1.0 15.0 1.0 C 12.225 1.0 9.642 1.822 7.463 3.221 L 7.121 2.879 C 6.555 2.313 5.801 2.0 5.0 2.0 C 4.199 2.0 3.445 2.313 2.879 2.879 C 1.709 4.049 1.709 5.951 2.879 7.1210003 L 3.221 7.4630003 C 1.822 9.642 1.0 12.224 1.0 15.0 C 1.0 22.721 7.28 29.0 15.0 29.0 C 22.721 29.0 29.0 22.721 29.0 15.0 C 29.0 12.852 28.5 10.8220005 27.631 9.0 L 28.0 9.0 C 29.103 9.0 30.0 8.104 30.0 7.0 z M 15.0 23.0 C 10.589001 23.0 7.0 19.412 7.0 15.0 C 7.0 13.893 7.227 12.838 7.635 11.877 L 12.879 17.121 C 13.445 17.687 14.199 18.0 15.0 18.0 C 15.801 18.0 16.555 17.687 17.121 17.121 C 17.687 16.555 18.0 15.8 18.0 15.0 C 18.0 14.2 17.687 13.445 17.121 12.879 L 11.877001 7.6349998 C 12.837 7.227 13.892 7.0 15.0 7.0 C 15.342 7.0 15.6779995 7.028 16.008 7.07 C 16.044 8.141 16.921 9.0 18.0 9.0 L 20.273 9.0 C 20.531 9.227 20.773 9.469 21.0 9.727 L 21.0 12.0 C 21.0 13.08 21.861 13.955 22.93 13.9939995 C 22.97 14.324 23.0 14.658 23.0 15.0 C 23.0 19.412 19.412 23.0 15.0 23.0 z " fill-opacity="0.15" stroke-opacity="0.15"/>
<path d="M 13.585 15.414 C 13.976 15.804 14.488 16.0 15.0 16.0 C 15.512 16.0 16.023 15.805 16.414 15.414 C 17.195 14.632999 17.195 13.367 16.414 12.5859995 L 6.4139996 2.5859995 C 5.6329994 1.8049995 4.3669996 1.8049995 3.5859995 2.5859995 C 2.8049994 3.3669996 2.8049994 4.6329994 3.5859995 5.4139996 L 13.585 15.414 z M 15.0 5.0 C 15.346 5.0 15.684 5.023 16.018 5.062 C 16.371 4.318 17.125 3.8 18.0 3.8 L 20.8 3.8 L 20.8 2.378 C 19.052 1.504 17.087 1.0 15.0 1.0 C 12.5720005 1.0 10.307 1.678 8.363 2.837 L 11.321 5.795 C 12.445 5.289 13.689 5.0 15.0 5.0 z M 25.201 8.2 L 25.201 11.0 C 25.201 11.876 24.681 12.628 23.939001 12.982 C 23.976 13.316 24.0 13.656 24.0 14.0 C 24.0 18.963 19.963 23.0 15.0 23.0 C 10.038 23.0 6.0 18.963 6.0 14.0 C 6.0 12.689 6.289 11.445 6.795 10.321 L 3.837 7.362 C 2.678 9.307 2.0 11.572 2.0 14.0 C 2.0 21.18 7.82 27.0 15.0 27.0 C 22.18 27.0 28.0 21.18 28.0 14.0 C 28.0 11.914 27.496 9.948999 26.623 8.201 L 25.201 8.201 z M 28.0 5.0 L 24.0 5.0 L 24.0 1.0 C 24.0 0.44700003 23.553 0.0 23.0 0.0 C 22.447 0.0 22.0 0.447 22.0 1.0 L 22.0 5.0 L 18.0 5.0 C 17.447 5.0 17.0 5.447 17.0 6.0 C 17.0 6.553 17.447 7.0 18.0 7.0 L 22.0 7.0 L 22.0 11.0 C 22.0 11.552 22.447 12.0 23.0 12.0 C 23.553 12.0 24.0 11.553 24.0 11.0 L 24.0 7.0 L 28.0 7.0 C 28.553 7.0 29.0 6.553 29.0 6.0 C 29.0 5.447 28.552 5.0 28.0 5.0 z " fill-opacity="0.3" stroke-opacity="0.3"/>
<path d="M 13.585 16.414 C 13.976 16.804 14.488 17.0 15.0 17.0 C 15.512 17.0 16.023 16.805 16.414 16.414 C 17.195 15.632999 17.195 14.367 16.414 13.5859995 L 6.4139996 3.5859995 C 5.6329994 2.8049994 4.3669996 2.8049994 3.5859995 3.5859995 C 2.8049994 4.3669996 2.8049994 5.6329994 3.5859995 6.4139996 L 13.585 16.414 z M 15.0 6.0 C 15.346 6.0 15.684 6.023 16.018 6.062 C 16.371 5.318 17.125 4.8 18.0 4.8 L 20.8 4.8 L 20.8 3.378 C 19.052 2.504 17.087 2.0 15.0 2.0 C 12.5720005 2.0 10.307 2.678 8.363 3.837 L 11.321 6.795 C 12.445 6.289 13.689 6.0 15.0 6.0 z M 25.201 9.2 L 25.201 12.0 C 25.201 12.877 24.681 13.629 23.939001 13.982 C 23.976 14.316 24.0 14.656 24.0 15.0 C 24.0 19.963 19.963 24.0 15.0 24.0 C 10.038 24.0 6.0 19.963 6.0 15.0 C 6.0 13.689 6.289 12.445 6.795 11.321 L 3.837 8.362 C 2.678 10.307 2.0 12.572 2.0 15.0 C 2.0 22.18 7.82 28.0 15.0 28.0 C 22.18 28.0 28.0 22.18 28.0 15.0 C 28.0 12.914 27.496 10.948999 26.623 9.201 L 25.201 9.201 z M 28.0 6.0 L 24.0 6.0 L 24.0 2.0 C 24.0 1.447 23.553 1.0 23.0 1.0 C 22.447 1.0 22.0 1.447 22.0 2.0 L 22.0 6.0 L 18.0 6.0 C 17.447 6.0 17.0 6.447 17.0 7.0 C 17.0 7.553 17.447 8.0 18.0 8.0 L 22.0 8.0 L 22.0 12.0 C 22.0 12.5529995 22.447 13.0 23.0 13.0 C 23.553 13.0 24.0 12.553 24.0 12.0 L 24.0 8.0 L 28.0 8.0 C 28.553 8.0 29.0 7.553 29.0 7.0 C 29.0 6.447 28.552 6.0 28.0 6.0 z " fill="#dedede"/>
<rect fill="none" height="30" width="30"/>
</svg>
