<?xml version="1.0" encoding="UTF-8"?>
<svg xmlns="http://www.w3.org/2000/svg" xmlns:xlink="http://www.w3.org/1999/xlink" baseProfile="tiny" contentScriptType="text/ecmascript" contentStyleType="text/css" height="96px" preserveAspectRatio="xMidYMid meet" version="1.1" viewBox="0 0 96 96" width="96px" x="0px" y="0px" zoomAndPan="magnify">
<defs>
<linearGradient id="linearGradient3790">
<stop offset="0" stop-color="#0084d6" stop-opacity="1"/>
<stop offset="1" stop-color="#0066d6" stop-opacity="1"/>
</linearGradient>
<linearGradient gradientTransform="matrix(0,1,-1,0,96,0)" gradientUnits="userSpaceOnUse" id="linearGradient3796" x1="8" x2="88" y1="48" y2="48">
<stop offset="0" stop-color="#0084d6" stop-opacity="1"/>
<stop offset="1" stop-color="#0066d6" stop-opacity="1"/>
</linearGradient>
</defs>
<path d="M 88.0 49.0 C 88.0 78.633 77.637 89.0 48.0 89.0 C 18.365 89.0 8.0 78.633 8.0 49.0 C 8.0 19.365 18.365 9.0 48.0 9.0 C 77.637 9.0 88.0 19.365 88.0 49.0 z " fill-opacity="0.4" stroke-opacity="0.4"/>
<linearGradient gradientUnits="userSpaceOnUse" x1="47.9995" x2="47.9995" y1="7.2891" y2="88.0015">
<stop offset="0" stop-color="#0078d0"/>
<stop offset="1" stop-color="#003d9d"/>
</linearGradient>
<path d="M 48.0 88.0 C 18.367004 88.0 8.0 77.637 8.0 48.0 C 8.0 18.365 18.367 8.0 48.0 8.0 C 77.635 8.0 88.0 18.365 88.0 48.0 C 88.0 77.637 77.635 88.0 48.0 88.0 z " fill="url(#linearGradient3796)" fill-opacity="1"/>
<linearGradient gradientUnits="userSpaceOnUse" id="SVGID_2_" x1="47.9995" x2="47.9995" y1="8.2534" y2="87.4985">
<stop offset="0" stop-color="#ffffff"/>
<stop offset="1" stop-color="#ffffff" stop-opacity="0"/>
</linearGradient>
<path d="M 48.0 8.0 C 18.365 8.0 8.0 18.365 8.0 48.0 C 8.0 77.633 18.365 88.0 48.0 88.0 C 77.637 88.0 88.0 77.633 88.0 48.0 C 88.0 18.365 77.637 8.0 48.0 8.0 z M 48.0 87.0 C 18.842 87.0 9.0 77.158 9.0 48.0 C 9.0 18.842005 18.842 9.0 48.0 9.0 C 77.158005 9.0 87.0 18.842 87.0 48.0 C 87.0 77.158005 77.158 87.0 48.0 87.0 z " fill="url(#SVGID_2_)" fill-opacity="0.25" stroke-opacity="0.25"/>
<path d="M 57.5 73.0 C 56.017 73.0 54.78 71.917 54.542 70.5 L 53.0 70.5 C 52.059 70.5 51.161 70.05 50.599 69.297 L 39.5 54.5 L 33.562 54.5 C 31.994 56.982 29.338 58.5 26.5 58.5 C 21.813 58.5 18.0 54.463 18.0 49.5 C 18.0 44.537 21.813 40.5 26.5 40.5 C 29.338 40.5 31.993 42.018 33.562 44.5 L 34.369 44.5 L 44.476 29.801 C 45.036 28.987 45.96 28.499998 46.948997 28.499998 L 50.761997 28.499998 C 52.275 26.611998 54.568996 25.499998 57.000996 25.499998 C 61.411995 25.499998 65.00099 29.089 65.00099 33.5 C 65.00099 37.911003 61.41199 41.5 57.00099 41.5 C 54.567993 41.5 52.27399 40.388 50.761993 38.5 L 50.631992 38.5 L 46.506992 44.5 L 63.0 44.5 L 63.0 43.5 C 63.0 42.374 63.621 41.354 64.62 40.837 C 65.042 40.616997 65.520004 40.499996 66.0 40.499996 C 66.627 40.499996 67.228 40.691 67.736 41.053997 L 76.731 47.414997 C 77.525 47.975 78.0 48.891 78.0 49.864 C 78.0 50.837 77.525 51.753 76.731 52.314 L 68.064 58.441 C 68.925 58.97 69.5 59.919 69.5 61.0 L 69.5 70.0 C 69.5 71.654 68.154 73.0 66.5 73.0 L 57.5 73.0 z M 55.328 58.938 C 55.878 58.359 56.653 58.0 57.5 58.0 L 63.577 58.0 C 63.208 57.496 63.0 56.88 63.0 56.228 L 63.0 54.5 L 52.0 54.5 L 55.328 58.938 z " fill-opacity="0.05" stroke-opacity="0.05"/>
<path d="M 57.5 72.0 C 56.397 72.0 55.5 71.103 55.5 70.0 L 55.5 69.5 L 53.0 69.5 C 52.373 69.5 51.774 69.2 51.399 68.698 L 40.0 53.5 L 32.989 53.5 C 31.661 55.95 29.176998 57.5 26.499998 57.5 C 22.363998 57.5 18.999998 53.911 18.999998 49.5 C 18.999998 45.089 22.363998 41.5 26.499998 41.5 C 29.177998 41.5 31.660995 43.05 32.989 45.5 L 34.893997 45.5 L 45.3 30.367 C 45.673 29.824 46.289 29.5 46.948 29.5 L 51.261 29.5 C 52.560997 27.636 54.709 26.5 56.999996 26.5 C 60.858997 26.5 63.999996 29.641 63.999996 33.5 C 63.999996 37.359 60.858997 40.5 56.999996 40.5 C 54.708996 40.5 52.560997 39.364 51.261 37.5 L 50.105 37.5 L 44.605 45.5 L 64.0 45.5 L 64.0 43.5 C 64.0 42.75 64.414 42.069 65.08 41.725 C 65.361 41.578 65.681 41.5 66.0 41.5 C 66.417 41.5 66.817 41.627 67.156 41.868 L 76.154 48.231 C 76.684 48.604 77.0 49.216 77.0 49.864 C 77.0 50.511997 76.684 51.123997 76.154 51.497997 L 67.154 57.859997 C 66.817 58.1 66.417 58.226997 66.0 58.226997 C 65.681 58.226997 65.361 58.149 65.078 58.000996 C 64.414 57.658 64.0 56.978 64.0 56.228 L 64.0 53.5 L 50.0 53.5 L 55.506 60.842 C 55.587 59.813 56.45 59.0 57.5 59.0 L 66.5 59.0 C 67.603 59.0 68.5 59.897 68.5 61.0 L 68.5 70.0 C 68.5 71.103 67.603 72.0 66.5 72.0 L 57.5 72.0 z " fill-opacity="0.05" stroke-opacity="0.05"/>
<path d="M 57.5 71.0 C 56.947 71.0 56.5 70.553 56.5 70.0 L 56.5 68.5 L 53.0 68.5 C 52.686 68.5 52.389 68.352 52.2 68.1 L 40.5 52.5 L 32.367 52.5 C 31.301 54.92 29.023 56.5 26.5 56.5 C 22.916 56.5 20.0 53.359 20.0 49.5 C 20.0 45.641 22.916 42.5 26.5 42.5 C 29.023 42.5 31.301 44.08 32.367 46.5 L 35.421 46.5 L 46.124 30.934 C 46.311 30.663 46.619 30.5 46.948 30.5 L 51.808 30.5 C 52.872 28.658 54.844 27.5 56.999 27.5 C 60.308 27.5 62.999 30.191 62.999 33.5 C 62.999 36.809 60.308 39.5 56.999 39.5 C 54.844 39.5 52.872 38.342 51.808 36.5 L 49.578 36.5 L 42.703 46.5 L 65.0 46.5 L 65.0 43.5 C 65.0 43.126 65.208 42.784 65.54 42.612 C 65.685 42.537 65.843 42.5 66.0 42.5 C 66.203 42.5 66.405 42.562 66.577 42.684 L 75.577 49.047997 C 75.843 49.235 76.0 49.54 76.0 49.864 C 76.0 50.187996 75.843 50.493 75.577 50.68 L 66.577 57.043 C 66.40501 57.165 66.203 57.226997 66.0 57.226997 C 65.843 57.226997 65.685 57.19 65.54 57.115 C 65.208 56.943 65.0 56.602 65.0 56.228 L 65.0 52.5 L 48.0 52.5 L 55.5 62.5 L 56.5 62.5 L 56.5 61.0 C 56.5 60.447 56.947 60.0 57.5 60.0 L 66.5 60.0 C 67.053 60.0 67.5 60.447 67.5 61.0 L 67.5 70.0 C 67.5 70.553 67.053 71.0 66.5 71.0 L 57.5 71.0 z " fill-opacity="0.1" stroke-opacity="0.1"/>
<path d="M 66.5 61.0 L 57.5 61.0 L 57.5 63.5 L 55.0 63.5 L 46.0 51.5 L 66.0 51.5 L 66.0 56.228 L 75.0 49.865 L 66.0 43.5 L 66.0 47.5 L 40.802 47.5 L 49.052 35.5 L 52.421997 35.5 C 53.193996 37.265 54.949997 38.5 56.999996 38.5 C 59.761997 38.5 61.999996 36.262 61.999996 33.5 C 61.999996 30.738 59.761997 28.5 56.999996 28.5 C 54.949997 28.5 53.193996 29.735 52.421997 31.5 L 46.948 31.5 L 35.947 47.5 L 31.68 47.5 C 30.924 45.172 28.894 43.5 26.5 43.5 C 23.463 43.5 21.0 46.187 21.0 49.5 C 21.0 52.813 23.463 55.5 26.5 55.5 C 28.894 55.5 30.924 53.828 31.68 51.5 L 41.0 51.5 L 53.0 67.5 L 57.5 67.5 L 57.5 70.0 L 66.5 70.0 L 66.5 61.0 z " fill-opacity="0.2" stroke-opacity="0.2"/>
<linearGradient gradientTransform="matrix(0 1 -1 0 5534.75 -720.75)" gradientUnits="userSpaceOnUse" x1="789.25" x2="747.75" y1="5486.75" y2="5486.75">
<stop offset="0" stop-color="#d0cbc5"/>
<stop offset="0.6768" stop-color="#fafcef"/>
<stop offset="1" stop-color="#fafcef"/>
</linearGradient>
<path d="M 66.5 59.5 L 57.5 59.5 L 57.5 62.0 L 55.0 62.0 L 46.0 50.0 L 66.0 50.0 L 66.0 54.728 L 75.0 48.365 L 66.0 42.0 L 66.0 46.0 L 40.802 46.0 L 49.052 34.0 L 52.421997 34.0 C 53.193996 35.765 54.949997 37.0 56.999996 37.0 C 59.761997 37.0 61.999996 34.762 61.999996 32.0 C 61.999996 29.238 59.761997 27.0 56.999996 27.0 C 54.949997 27.0 53.193996 28.235 52.421997 30.0 L 46.948 30.0 L 35.947 46.0 L 31.68 46.0 C 30.924 43.672 28.894 42.0 26.5 42.0 C 23.463 42.0 21.0 44.687 21.0 48.0 C 21.0 51.313 23.463 54.0 26.5 54.0 C 28.894 54.0 30.924 52.328 31.68 50.0 L 41.0 50.0 L 53.0 66.0 L 57.5 66.0 L 57.5 68.5 L 66.5 68.5 L 66.5 59.5 z " fill="#ffffff" fill-opacity="1"/>
<rect fill="none" height="96" width="96"/>
</svg>
