<?xml version="1.0" encoding="UTF-8"?>
<svg xmlns="http://www.w3.org/2000/svg" xmlns:xlink="http://www.w3.org/1999/xlink" baseProfile="tiny" contentScriptType="text/ecmascript" contentStyleType="text/css" height="30px" preserveAspectRatio="xMidYMid meet" version="1.1" viewBox="0 0 30 30" width="30px" x="0px" y="0px" zoomAndPan="magnify">
<path d="M 27.0 4.0 L 27.0 3.0 C 27.0 1.897 26.103 1.0 25.0 1.0 L 5.0 1.0 C 3.897 1.0 3.0 1.897 3.0 3.0 L 3.0 27.0 C 3.0 28.103 3.897 29.0 5.0 29.0 L 25.0 29.0 C 26.103 29.0 27.0 28.103 27.0 27.0 L 27.0 8.0 C 28.104 8.0 29.0 7.103 29.0 6.0 C 29.0 4.896 28.104 4.0 27.0 4.0 z " fill-opacity="0.15" stroke-opacity="0.15"/>
<rect fill="none" height="30" width="30"/>
<path d="M 27.0 4.0 L 25.0 4.0 L 25.0 2.0 C 25.0 1.447 24.553 1.0 24.0 1.0 C 23.447 1.0 23.0 1.447 23.0 2.0 L 23.0 4.0 L 21.0 4.0 C 20.447 4.0 20.0 4.447 20.0 5.0 C 20.0 5.553 20.447 6.0 21.0 6.0 L 23.0 6.0 L 23.0 8.0 C 23.0 8.5529995 23.447 9.0 24.0 9.0 C 24.553 9.0 25.0 8.553 25.0 8.0 L 25.0 6.0 L 27.0 6.0 C 27.553 6.0 28.0 5.553 28.0 5.0 C 28.0 4.447 27.553 4.0 27.0 4.0 z M 24.0 10.2 C 22.787 10.2 21.8 9.212999 21.8 8.0 L 21.8 7.2 L 21.0 7.2 C 19.787 7.2 18.8 6.213 18.8 5.0 C 18.8 3.7870002 19.786999 2.8 21.0 2.8 L 21.8 2.8 L 21.8 2.0 C 21.8 1.638 21.897 1.302 22.052 1.0 L 5.0 1.0 C 4.45 1.0 4.0 1.45 4.0 2.0 L 4.0 26.0 C 4.0 26.55 4.45 27.0 5.0 27.0 L 25.0 27.0 C 25.55 27.0 26.0 26.55 26.0 26.0 L 26.0 8.905 C 25.654 9.667 24.89 10.2 24.0 10.2 z M 8.0 8.001 C 7.447 8.001 7.0 7.5530005 7.0 7.0010004 C 7.0 6.4490004 7.447 6.0010004 8.0 6.0010004 C 8.5529995 6.0010004 9.0 6.4490004 9.0 7.0010004 C 9.0 7.5530005 8.553 8.001 8.0 8.001 z M 17.0 8.0 L 12.0 8.0 C 11.4470005 8.0 11.0 7.552 11.0 7.0 C 11.0 6.448 11.447 6.0 12.0 6.0 L 17.0 6.0 C 17.553 6.0 18.0 6.448 18.0 7.0 C 18.0 7.552 17.553 8.0 17.0 8.0 z " fill-opacity="0.3" stroke-opacity="0.3"/>
<path d="M 27.0 5.0 L 25.0 5.0 L 25.0 3.0 C 25.0 2.447 24.553 2.0 24.0 2.0 C 23.447 2.0 23.0 2.447 23.0 3.0 L 23.0 5.0 L 21.0 5.0 C 20.447 5.0 20.0 5.447 20.0 6.0 C 20.0 6.553 20.447 7.0 21.0 7.0 L 23.0 7.0 L 23.0 9.0 C 23.0 9.5529995 23.447 10.0 24.0 10.0 C 24.553 10.0 25.0 9.553 25.0 9.0 L 25.0 7.0 L 27.0 7.0 C 27.553 7.0 28.0 6.553 28.0 6.0 C 28.0 5.447 27.553 5.0 27.0 5.0 z M 24.0 11.2 C 22.787 11.2 21.8 10.212999 21.8 9.0 L 21.8 8.2 L 21.0 8.2 C 19.787 8.2 18.8 7.213 18.8 6.0 C 18.8 4.787 19.786999 3.8 21.0 3.8 L 21.8 3.8 L 21.8 3.0 C 21.8 2.638 21.897 2.302 22.052 2.0 L 5.0 2.0 C 4.45 2.0 4.0 2.45 4.0 3.0 L 4.0 27.0 C 4.0 27.55 4.45 28.0 5.0 28.0 L 25.0 28.0 C 25.55 28.0 26.0 27.55 26.0 27.0 L 26.0 9.905 C 25.654 10.667 24.89 11.2 24.0 11.2 z M 8.0 9.001 C 7.447 9.001 7.0 8.553 7.0 8.001 C 7.0 7.4490004 7.447 7.0010004 8.0 7.0010004 C 8.5529995 7.0010004 9.0 7.4490004 9.0 8.001 C 9.0 8.553 8.553 9.001 8.0 9.001 z M 17.0 9.0 L 12.0 9.0 C 11.4470005 9.0 11.0 8.552 11.0 8.0 C 11.0 7.448 11.447 7.0 12.0 7.0 L 17.0 7.0 C 17.553 7.0 18.0 7.448 18.0 8.0 C 18.0 8.552 17.553 9.0 17.0 9.0 z " fill="#dedede"/>
</svg>
