<?xml version="1.0" encoding="UTF-8"?>
<svg xmlns="http://www.w3.org/2000/svg" xmlns:xlink="http://www.w3.org/1999/xlink" baseProfile="tiny" contentScriptType="text/ecmascript" contentStyleType="text/css" height="36px" preserveAspectRatio="xMidYMid meet" version="1.1" viewBox="0 0 42 36" width="42px" x="0px" y="0px" zoomAndPan="magnify">
<rect fill="none" height="36" width="42"/>
<path d="M 20.687 5.685 C 13.418 5.685 7.5230007 11.623 7.5230007 18.947 C 7.5230007 26.273 13.418001 32.212 20.687 32.212 C 27.956 32.212 33.852 26.274002 33.852 18.947002 C 33.852 11.622 27.955 5.685 20.687 5.685 z M 20.687 29.053 C 15.156 29.053 10.657001 24.52 10.657001 18.948 C 10.657001 13.378 15.156 8.844 20.687 8.844 C 26.217 8.844 30.717 13.378 30.717 18.948 C 30.717 24.52 26.217 29.053 20.687 29.053 z M 24.41 15.827 L 20.686 19.579 L 14.456001 13.302 C 14.090001 12.933 13.509001 12.916 13.164001 13.264 C 12.819001 13.611 12.837002 14.197 13.202002 14.565 L 20.021002 21.436 C 20.028002 21.443998 20.038002 21.446 20.045002 21.453 C 20.051004 21.461 20.053 21.47 20.059002 21.474998 C 20.209002 21.625998 20.407 21.696 20.610004 21.707998 C 20.635002 21.711 20.661003 21.721 20.686005 21.722998 C 20.711002 21.720997 20.737003 21.711 20.762005 21.707998 C 20.965002 21.693 21.162004 21.625998 21.313004 21.474998 C 21.319004 21.468998 21.321005 21.458998 21.327003 21.453 C 21.335005 21.446 21.345003 21.443998 21.351004 21.436 L 25.664003 17.091 C 26.029003 16.723 26.046003 16.137 25.701004 15.789 C 25.355 15.441 24.775 15.46 24.41 15.827 z " fill="#dedede" fill-opacity="1"/>
<linearGradient gradientTransform="matrix(1 0 0 -1 0.04 35.1543)" gradientUnits="userSpaceOnUse" x1="20.647" x2="20.647" xlink:actuate="onLoad" xlink:show="other" xlink:type="simple" y1="3.5742" y2="30.1011">
<stop offset="0" stop-color="#d0cbc5"/>
<stop offset="0.5031" stop-color="#fafcef"/>
<stop offset="0.9693" stop-color="#ffffff"/>
<stop offset="1" stop-color="#ffffff"/>
</linearGradient>
</svg>
