<?xml version="1.0" encoding="UTF-8"?>
<svg xmlns="http://www.w3.org/2000/svg" xmlns:xlink="http://www.w3.org/1999/xlink" baseProfile="tiny" contentScriptType="text/ecmascript" contentStyleType="text/css" height="96px" preserveAspectRatio="xMidYMid meet" version="1.1" viewBox="0 0 96 96" width="96px" x="0px" y="0px" zoomAndPan="magnify">
<defs>
<linearGradient>
<stop offset="0" stop-color="#ffd758" stop-opacity="1"/>
<stop offset="1" stop-color="#ffcc58" stop-opacity="1"/>
</linearGradient>
<linearGradient gradientUnits="userSpaceOnUse" id="linearGradient3794" x1="49.132042" x2="49.132042" y1="16.476873" y2="87.39315">
<stop offset="0" stop-color="#ffd758" stop-opacity="1"/>
<stop offset="1" stop-color="#ffcc58" stop-opacity="1"/>
</linearGradient>
</defs>
<path d="M 88.0 49.0 C 88.0 78.635 77.639 89.0 48.0 89.0 C 18.365 89.0 8.0 78.635 8.0 49.0 C 8.0 19.367 18.365 9.0 48.0 9.0 C 77.637 9.0 88.0 19.367 88.0 49.0 z " fill-opacity="0.4"/>
<rect fill="none" height="96" width="96"/>
<linearGradient gradientUnits="userSpaceOnUse" x1="47.9995" x2="47.9995" y1="8" y2="24">
<stop offset="0" stop-color="#e4be34"/>
<stop offset="1" stop-color="#e0aa18"/>
</linearGradient>
<path d="M 84.004 24.0 C 78.653 12.49 67.499 8.0 48.0 8.0 C 28.502 8.0 17.348 12.49 11.995998 24.0 L 84.004 24.0 z " fill="#4ea3e3" fill-opacity="1"/>
<path d="M 48.0 88.0 C 77.639 88.0 88.0 77.634 88.0 48.0 C 88.0 36.834 86.526 28.406 83.107 22.235 L 46.066 22.235 C 45.579 21.647 44.561 20.369 42.616 17.752 C 41.714 16.537 39.669003 14.500001 36.118 14.500001 L 19.71 14.500001 C 11.361 20.525 8.0 31.142 8.0 48.0 C 8.0 77.634 18.365 88.0 48.0 88.0 z " fill-opacity="0.05"/>
<path d="M 48.0 88.0 C 77.639 88.0 88.0 77.634 88.0 48.0 C 88.0 37.129 86.598 28.86 83.368 22.735 L 45.833 22.735 C 45.406 22.231 44.383 20.967 42.215 18.05 C 41.368 16.911 39.449 15.0 36.118 15.0 L 19.047 15.0 C 11.186 21.105 8.0 31.597 8.0 48.0 C 8.0 77.634 18.365 88.0 48.0 88.0 z " fill-opacity="0.05"/>
<path d="M 48.0 88.0 C 77.639 88.0 88.0 77.634 88.0 48.0 C 88.0 37.421 86.67 29.309 83.622 23.235 L 45.604 23.235 C 45.277 22.862 44.282 21.669 41.814 18.348 C 41.023 17.285 39.232 15.499 36.119 15.499 L 18.423 15.499 C 11.016 21.673 8.0 32.037 8.0 48.0 C 8.0 77.634 18.365 88.0 48.0 88.0 z " fill-opacity="0.1"/>
<linearGradient gradientUnits="userSpaceOnUse" x1="47.9995" x2="47.9995" y1="16" y2="88.0005">
<stop offset="0" stop-color="#e6cd49"/>
<stop offset="1" stop-color="#e0a714"/>
</linearGradient>
<path d="M 48.0 88.0 C 77.639 88.0 88.0 77.634 88.0 48.0 C 88.0 37.712 86.747 29.751 83.876 23.735 L 45.383 23.735 C 45.383 23.735 44.648 23.0 41.412 18.646 C 40.458 17.363 38.765 16.0 36.118 16.0 C 32.899 16.0 24.183 16.0 17.842 16.0 C 10.857 22.227 8.0 32.461 8.0 48.0 C 8.0 77.634 18.365 88.0 48.0 88.0 z " fill="url(#linearGradient3794)" fill-opacity="1"/>
<linearGradient gradientTransform="matrix(1 0 0 1 193.9253 -815.8408)" gradientUnits="userSpaceOnUse" id="SVGID_3_" x1="-145.9253" x2="-145.9253" y1="824.0938" y2="903.3385">
<stop offset="0" stop-color="#ffffff"/>
<stop offset="1" stop-color="#ffffff" stop-opacity="0"/>
</linearGradient>
<path d="M 48.0 8.0 C 18.365 8.0 8.0 18.366 8.0 48.0 C 8.0 77.634 18.365 88.0 48.0 88.0 C 77.639 88.0 88.0 77.634 88.0 48.0 C 88.0 18.365995 77.637 8.0 48.0 8.0 z M 48.0 87.0 C 18.842 87.0 9.0 77.158 9.0 48.0 C 9.0 18.842005 18.842 9.0 48.0 9.0 C 77.158005 9.0 87.0 18.842 87.0 48.0 C 87.0 77.158005 77.158 87.0 48.0 87.0 z " fill="url(#SVGID_3_)" fill-opacity="0.15"/>
<path d="M 71.65 42.0 C 70.541 37.562 66.668 36.549 58.65 36.0 C 58.65 36.0 57.65 36.0 56.65 37.0 C 56.465 37.184 56.267 37.373 56.103 37.546 C 55.717 37.953003 54.896 38.756 54.49 38.677 C 51.0 38.000004 45.0 38.000004 41.51 38.677 C 41.104004 38.756 40.281 37.953003 39.895 37.546 C 39.733 37.372997 39.534 37.184 39.35 36.999996 C 38.35 35.999996 37.35 35.999996 37.35 35.999996 C 29.332005 36.548996 25.459003 37.562996 24.35 41.999996 C 21.35 53.999996 23.35 73.0 30.35 73.0 C 36.133003 73.0 39.000004 68.0 41.000004 60.0 C 42.000004 57.0 46.000004 57.0 48.000004 57.0 C 50.000004 57.0 54.000004 57.0 55.000004 60.0 C 57.000004 68.0 59.867004 73.0 65.65 73.0 C 72.65 73.0 74.65 54.0 71.65 42.0 z M 40.0 50.0 C 40.0 50.55 39.549 51.0 39.0 51.0 L 37.0 51.0 C 36.449 51.0 36.0 51.45 36.0 52.0 L 36.0 54.0 C 36.0 54.55 35.549 55.0 35.0 55.0 L 33.0 55.0 C 32.449 55.0 32.0 54.55 32.0 54.0 L 32.0 52.0 C 32.0 51.45 31.549 51.0 31.0 51.0 L 29.0 51.0 C 28.449 51.0 28.0 50.55 28.0 50.0 L 28.0 48.0 C 28.0 47.45 28.449 47.0 29.0 47.0 L 31.0 47.0 C 31.549 47.0 32.0 46.55 32.0 46.0 L 32.0 44.0 C 32.0 43.45 32.449 43.0 33.0 43.0 L 35.0 43.0 C 35.549 43.0 36.0 43.45 36.0 44.0 L 36.0 46.0 C 36.0 46.55 36.449 47.0 37.0 47.0 L 39.0 47.0 C 39.549 47.0 40.0 47.45 40.0 48.0 L 40.0 50.0 z M 62.0 43.0 C 63.104 43.0 64.0 43.896 64.0 45.0 C 64.0 46.104 63.104 47.0 62.0 47.0 C 60.895 47.0 60.0 46.104 60.0 45.0 C 60.0 43.896 60.895 43.0 62.0 43.0 z M 58.0 51.0 C 56.895 51.0 56.0 50.104 56.0 49.0 C 56.0 47.896 56.895 47.0 58.0 47.0 C 59.104 47.0 60.0 47.896 60.0 49.0 C 60.0 50.104 59.104 51.0 58.0 51.0 z M 62.0 55.0 C 60.895 55.0 60.0 54.104 60.0 53.0 C 60.0 51.896 60.895 51.0 62.0 51.0 C 63.104 51.0 64.0 51.896 64.0 53.0 C 64.0 54.104 63.104 55.0 62.0 55.0 z M 66.0 51.0 C 64.895 51.0 64.0 50.104 64.0 49.0 C 64.0 47.896 64.895 47.0 66.0 47.0 C 67.104 47.0 68.0 47.896 68.0 49.0 C 68.0 50.104 67.104 51.0 66.0 51.0 z " fill="#4da0df" fill-opacity="1"/>
</svg>
