<?xml version="1.0" encoding="UTF-8"?>
<svg xmlns="http://www.w3.org/2000/svg" xmlns:xlink="http://www.w3.org/1999/xlink" baseProfile="tiny" contentScriptType="text/ecmascript" contentStyleType="text/css" height="44px" preserveAspectRatio="xMidYMid meet" version="1.1" viewBox="0 0 44 44" width="44px" x="0px" y="0px" zoomAndPan="magnify">
<defs>
<linearGradient id="linearGradient3800">
<stop offset="0" stop-color="#c1cbd4" stop-opacity="1"/>
<stop offset="1" stop-color="#b4c0cb" stop-opacity="1"/>
</linearGradient>
<linearGradient gradientTransform="matrix(0,1,-1,0,44.001,0)" gradientUnits="userSpaceOnUse" id="linearGradient3806" x1="3.667" x2="40.334" y1="22.0005" y2="22.0005">
<stop offset="0" stop-color="#c1cbd4" stop-opacity="1"/>
<stop offset="1" stop-color="#b4c0cb" stop-opacity="1"/>
</linearGradient>
</defs>
<path d="M 40.334 22.458 C 40.334 36.041 35.584 40.792 22.0 40.792 C 8.417 40.792 3.6660004 36.04 3.6660004 22.458 C 3.667 8.877 8.418 4.125 22.0 4.125 C 35.584 4.125 40.334 8.877 40.334 22.458 z " fill-opacity="0.4" stroke-opacity="0.4"/>
<linearGradient gradientUnits="userSpaceOnUse" x1="22.001" x2="22.001" xlink:actuate="onLoad" xlink:show="other" xlink:type="simple" y1="40.334" y2="3.6675">
<stop offset="0" stop-color="#3d465b"/>
<stop offset="1" stop-color="#a1b2c0"/>
</linearGradient>
<path d="M 22.001 40.334 C 8.417 40.334 3.667 35.584 3.667 22.0 C 3.667 8.418 8.417 3.667 22.001 3.667 C 35.583 3.667 40.334 8.418 40.334 22.0 C 40.334 35.584 35.583 40.334 22.001 40.334 z " fill="url(#linearGradient3806)" fill-opacity="1"/>
<linearGradient gradientTransform="matrix(1 0 0 1 193.9253 -815.8408)" gradientUnits="userSpaceOnUse" id="SVGID_2_" x1="-171.9248" x2="-171.9248" xlink:actuate="onLoad" xlink:show="other" xlink:type="simple" y1="819.623" y2="855.9429">
<stop offset="0" stop-color="#ffffff"/>
<stop offset="1" stop-color="#ffffff" stop-opacity="0"/>
</linearGradient>
<path d="M 22.0 3.667 C 8.418 3.667 3.667 8.418 3.667 22.0 C 3.667 35.584 8.418 40.334 22.001 40.334 C 35.585 40.334 40.335 35.584 40.335 22.0 C 40.334 8.418 35.584 3.667 22.0 3.667 z M 22.0 39.875 C 8.636 39.875 4.125 35.365 4.125 22.0 C 4.125 8.636 8.636 4.125 22.0 4.125 C 35.365 4.125 39.875 8.636 39.875 22.0 C 39.875 35.365 35.366 39.875 22.0 39.875 z " fill="url(#SVGID_2_)" fill-opacity="0.15"/>
<rect fill="none" height="44" width="44"/>
<path d="M 19.0 37.0 C 17.896 37.0 17.0 36.104 17.0 35.0 L 17.0 19.0 L 12.0 19.0 C 10.897 19.0 10.0 18.103 10.0 17.0 L 10.0 13.0 C 10.0 11.897 10.897 11.0 12.0 11.0 L 32.0 11.0 C 33.104 11.0 34.0 11.897 34.0 13.0 L 34.0 17.0 C 34.0 18.103 33.104 19.0 32.0 19.0 L 27.0 19.0 L 27.0 35.0 C 27.0 36.104 26.104 37.0 25.0 37.0 L 19.0 37.0 z " fill-opacity="0.05"/>
<path d="M 19.0 36.0 C 18.447 36.0 18.0 35.553 18.0 35.0 L 18.0 18.0 L 12.0 18.0 C 11.448 18.0 11.0 17.553 11.0 17.0 L 11.0 13.0 C 11.0 12.4470005 11.448 12.0 12.0 12.0 L 32.0 12.0 C 32.553 12.0 33.0 12.447 33.0 13.0 L 33.0 17.0 C 33.0 17.553 32.553 18.0 32.0 18.0 L 26.0 18.0 L 26.0 35.0 C 26.0 35.553 25.553 36.0 25.0 36.0 L 19.0 36.0 z " fill-opacity="0.1"/>
<path d="M 32.0 17.0 L 25.0 17.0 L 25.0 35.0 L 19.0 35.0 L 19.0 17.0 L 12.0 17.0 L 12.0 13.0 L 32.0 13.0 L 32.0 17.0 L 32.0 17.0 z " fill-opacity="0.15"/>
<linearGradient gradientUnits="userSpaceOnUse" x1="22.0005" x2="22.0005" xlink:actuate="onLoad" xlink:show="other" xlink:type="simple" y1="34" y2="12.0005">
<stop offset="0" stop-color="#003f9a"/>
<stop offset="1" stop-color="#0077cd"/>
</linearGradient>
<path d="M 32.0 16.0 L 25.0 16.0 L 25.0 34.0 L 19.0 34.0 L 19.0 16.0 L 12.0 16.0 L 12.0 12.0 L 32.0 12.0 L 32.0 16.0 L 32.0 16.0 z " fill="#76d9ff" fill-opacity="1"/>
<path d="M 24.545 34.0 C 21.637 34.0 19.272 31.635 19.272 28.727 L 19.272 20.0 C 19.272 19.187 19.757 18.463 20.508 18.153 C 20.749 18.052 21.006 18.0 21.272 18.0 C 21.807 18.0 22.309 18.208 22.686 18.585 L 24.282 20.181 L 33.272 20.181 C 36.18 20.181 38.545 22.546 38.545 25.455 L 38.545 28.726 C 38.545 31.634 36.179996 33.999 33.272 33.999 L 24.545 33.999 z " fill-opacity="0.15"/>
<path d="M 24.545 33.0 C 22.19 33.0 20.272 31.084 20.272 28.727 L 20.272 20.0 C 20.272 19.596 20.516 19.23 20.889 19.076 C 21.014 19.025 21.143 19.0 21.272 19.0 C 21.533 19.0 21.788 19.102 21.979 19.293 L 23.868 21.182 L 33.272 21.182 C 35.629 21.182 37.545 23.099998 37.545 25.456 L 37.545 28.727 C 37.545 31.084 35.629 33.0 33.272 33.0 L 24.545 33.0 z " fill-opacity="0.2"/>
<path d="M 24.545 32.0 L 33.272 32.0 C 35.073 32.0 36.545 30.527 36.545 28.727 L 36.545 25.456 C 36.545 23.655 35.072 22.182 33.272 22.182 L 23.454 22.182 L 21.272 20.0 L 21.272 22.182 L 21.272 28.727 C 21.272 30.527 22.745 32.0 24.545 32.0 z " fill-opacity="0.3"/>
<linearGradient gradientTransform="matrix(1 0 0 -1 0 6772)" gradientUnits="userSpaceOnUse" x1="28.9087" x2="28.9087" xlink:actuate="onLoad" xlink:show="other" xlink:type="simple" y1="6741" y2="6753">
<stop offset="0" stop-color="#cccac6"/>
<stop offset="1" stop-color="#ffffff"/>
</linearGradient>
<path d="M 24.545 31.0 L 33.272 31.0 C 35.073 31.0 36.545 29.527 36.545 27.727 L 36.545 24.456 C 36.545 22.655 35.072 21.182 33.272 21.182 L 23.454 21.182 L 21.272 19.0 L 21.272 21.182 L 21.272 27.727 C 21.272 29.527 22.745 31.0 24.545 31.0 z " fill="#ffffff" fill-opacity="1"/>
</svg>
