<?xml version="1.0" encoding="UTF-8"?>
<svg xmlns="http://www.w3.org/2000/svg" xmlns:xlink="http://www.w3.org/1999/xlink" baseProfile="tiny" contentScriptType="text/ecmascript" contentStyleType="text/css" height="30px" preserveAspectRatio="xMidYMid meet" version="1.1" viewBox="0 0 30 30" width="30px" x="0px" y="0px" zoomAndPan="magnify">
<path d="M 26.0 16.5 C 24.621 16.5 23.5 17.621 23.5 19.0 L 23.5 19.001 C 23.082 18.687 22.563 18.5 22.0 18.5 C 20.621 18.5 19.5 19.621 19.5 21.0 L 19.5 21.001 C 19.082 20.687 18.563 20.5 18.0 20.5 C 16.621 20.5 15.5 21.621 15.5 23.0 L 15.5 23.001 C 15.082 22.687 14.563 22.5 14.0 22.5 C 12.621 22.5 11.5 23.621 11.5 25.0 L 11.5 26.0 C 11.5 27.379 12.621 28.5 14.0 28.5 C 14.816 28.5 15.544 28.106 16.0 27.498 C 16.456 28.105999 17.184 28.5 18.0 28.5 C 18.816 28.5 19.544 28.106 20.0 27.498 C 20.456 28.105999 21.184 28.5 22.0 28.5 C 22.816 28.5 23.544 28.106 24.0 27.498 C 24.456 28.105999 25.184 28.5 26.0 28.5 C 27.379 28.5 28.5 27.379 28.5 26.0 L 28.5 19.0 C 28.5 17.621 27.379 16.5 26.0 16.5 z M 8.748 18.621 C 8.686 18.511 7.88 16.808 12.103001 12.450001 C 12.103001 12.450001 12.357 12.199 12.370001 12.187 C 15.486001 9.166 17.253 8.714001 18.028 8.714001 C 18.388 8.714001 18.545 8.816001 18.549 8.818001 C 18.557 8.824 20.63 10.542001 20.63 10.542001 C 20.831999 10.746 21.352999 11.172001 22.162998 11.172001 C 22.533998 11.172001 22.908998 11.080001 23.276 10.898001 L 27.536999 9.306001 C 27.578 9.291 27.616999 9.274001 27.654999 9.253 C 28.279999 8.922 29.255 8.012 28.940998 6.701 C 27.76 1.741 23.869 1.0 21.655 1.0 C 20.383001 1.0 19.435001 1.242 19.445 1.242 C 19.445 1.242 19.445 1.242 19.446 1.2409999 C 14.372 2.191 10.192999 6.049 8.889999 7.366 C 8.858 7.392 8.826 7.419 8.797 7.449 L 6.953 9.294 C 6.91 9.337 6.871 9.384 6.838 9.433 C 5.055 11.315 2.0699997 15.018999 1.2549996 19.377998 C 1.2179997 19.521997 0.35099965 22.939999 2.0429997 25.759998 C 3.0059998 27.363998 4.5719995 28.434998 6.7009997 28.941998 C 6.862 28.98 7.027 29.0 7.189 29.0 C 8.505 29.0 9.179 27.794 9.252 27.656 C 9.272 27.619 9.289 27.581 9.304 27.541 L 10.9 23.278 C 11.516999 22.032999 10.962999 21.028 10.528 20.612 L 8.748 18.621 z " fill-opacity="0.15" stroke-opacity="0.15"/>
<path d="M 27.969 5.934 C 26.421999 -0.5580001 19.630001 1.2249999 19.630001 1.2249999 C 14.766001 2.135 10.748001 5.893 9.512001 7.1619997 L 9.504 7.156 L 7.66 9.001 L 7.669 9.01 C 6.11 10.635 3.0350003 14.297001 2.223 18.631 C 2.223 18.631 0.444 25.424 6.933 26.969002 C 7.843 27.186 8.368 26.191002 8.368 26.191002 L 9.983 21.876001 C 10.497 20.894001 9.815 20.315 9.815 20.315 L 7.936 18.213001 C 8.12 18.372002 5.899 16.416 11.398 10.744001 L 11.398 10.742002 L 11.672 10.469002 L 11.674 10.470002 C 17.348 4.9690022 19.300999 7.1900024 19.143 7.010002 L 21.314 8.812002 C 21.314 8.812002 21.893 9.497003 22.873999 8.982002 L 27.188 7.371002 C 27.188 7.37 28.186 6.842 27.969 5.934 z M 18.0 20.5 C 17.172 20.5 16.5 21.172 16.5 22.0 L 16.5 25.0 C 16.5 25.828 17.172 26.5 18.0 26.5 C 18.828 26.5 19.5 25.828 19.5 25.0 L 19.5 22.0 C 19.5 21.172 18.828 20.5 18.0 20.5 z M 26.0 16.5 C 25.172 16.5 24.5 17.172 24.5 18.0 L 24.5 25.0 C 24.5 25.828 25.172 26.5 26.0 26.5 C 26.828 26.5 27.5 25.828 27.5 25.0 L 27.5 18.0 C 27.5 17.172 26.828 16.5 26.0 16.5 z M 14.0 22.5 C 13.172 22.5 12.5 23.172 12.5 24.0 L 12.5 25.0 C 12.5 25.828 13.172 26.5 14.0 26.5 C 14.828 26.5 15.5 25.828 15.5 25.0 L 15.5 24.0 C 15.5 23.172 14.828 22.5 14.0 22.5 z M 22.0 18.5 C 21.172 18.5 20.5 19.172 20.5 20.0 L 20.5 25.0 C 20.5 25.828 21.172 26.5 22.0 26.5 C 22.828 26.5 23.5 25.828 23.5 25.0 L 23.5 20.0 C 23.5 19.172 22.828 18.5 22.0 18.5 z " fill-opacity="0.3" stroke-opacity="0.3"/>
<rect fill="none" height="30" width="30"/>
<path d="M 27.969 6.934 C 26.421999 0.4419999 19.630001 2.225 19.630001 2.225 C 14.766001 3.135 10.748001 6.893 9.512001 8.162 L 9.504 8.156 L 7.66 10.001 L 7.6689997 10.01 C 6.1099997 11.635 3.0349998 15.297001 2.2229996 19.631 C 2.2229996 19.631 0.44399953 26.424 6.9329996 27.969002 C 7.8429995 28.186 8.368 27.191002 8.368 27.191002 L 9.983 22.876001 C 10.497 21.894001 9.815 21.315 9.815 21.315 L 7.936 19.213001 C 8.12 19.372002 5.899 17.416 11.398 11.744001 L 11.398 11.742002 L 11.672 11.469002 L 11.674 11.470002 C 17.348 5.9690022 19.300999 8.190002 19.143 8.010002 L 21.314 9.812002 C 21.314 9.812002 21.893 10.497003 22.873999 9.982002 L 27.188 8.371002 C 27.188 8.37 28.186 7.842 27.969 6.934 z M 18.0 21.5 C 17.172 21.5 16.5 22.172 16.5 23.0 L 16.5 26.0 C 16.5 26.828 17.172 27.5 18.0 27.5 C 18.828 27.5 19.5 26.828 19.5 26.0 L 19.5 23.0 C 19.5 22.172 18.828 21.5 18.0 21.5 z M 26.0 17.5 C 25.172 17.5 24.5 18.172 24.5 19.0 L 24.5 26.0 C 24.5 26.828 25.172 27.5 26.0 27.5 C 26.828 27.5 27.5 26.828 27.5 26.0 L 27.5 19.0 C 27.5 18.172 26.828 17.5 26.0 17.5 z M 14.0 23.5 C 13.172 23.5 12.5 24.172 12.5 25.0 L 12.5 26.0 C 12.5 26.828 13.172 27.5 14.0 27.5 C 14.828 27.5 15.5 26.828 15.5 26.0 L 15.5 25.0 C 15.5 24.172 14.828 23.5 14.0 23.5 z M 22.0 19.5 C 21.172 19.5 20.5 20.172 20.5 21.0 L 20.5 26.0 C 20.5 26.828 21.172 27.5 22.0 27.5 C 22.828 27.5 23.5 26.828 23.5 26.0 L 23.5 21.0 C 23.5 20.172 22.828 19.5 22.0 19.5 z " fill="#dedede"/>
</svg>
