<?xml version="1.0" encoding="UTF-8"?>
<svg xmlns="http://www.w3.org/2000/svg" xmlns:xlink="http://www.w3.org/1999/xlink" baseProfile="tiny" contentScriptType="text/ecmascript" contentStyleType="text/css" height="96px" preserveAspectRatio="xMidYMid meet" version="1.1" viewBox="0 0 96 96" width="96px" x="0px" y="0px" zoomAndPan="magnify">
<defs>
<linearGradient id="linearGradient3798">
<stop offset="0" stop-color="#50be33" stop-opacity="1"/>
<stop offset="1" stop-color="#50ab33" stop-opacity="1"/>
</linearGradient>
<linearGradient gradientTransform="matrix(0,1,-1,0,96.023001,-0.0230015)" gradientUnits="userSpaceOnUse" id="linearGradient3804" x1="8.023003" x2="88.023" y1="48" y2="48">
<stop offset="0" stop-color="#50be33" stop-opacity="1"/>
<stop offset="1" stop-color="#50ab33" stop-opacity="1"/>
</linearGradient>
</defs>
<path d="M 88.023 49.0 C 88.023 78.633 77.66 89.0 48.023003 89.0 C 18.388002 89.0 8.023003 78.633 8.023003 49.0 C 8.023003 19.365 18.388002 9.0 48.023003 9.0 C 77.66 9.0 88.023 19.365 88.023 49.0 z " fill-opacity="0.4"/>
<linearGradient gradientTransform="matrix(1 0 0 1 -837 -1243)" gradientUnits="userSpaceOnUse" x1="885.0234" x2="885.0234" y1="1331" y2="1251.2244">
<stop offset="0" stop-color="#004c00"/>
<stop offset="1" stop-color="#42a519"/>
</linearGradient>
<path d="M 48.023 88.0 C 18.39 88.0 8.022999 77.637 8.022999 48.000004 C 8.022999 18.365004 18.39 8.000004 48.023 8.000004 C 77.658 8.000004 88.022995 18.365004 88.022995 48.000004 C 88.022995 77.637 77.658 88.0 48.022995 88.0 z " fill="url(#linearGradient3804)" fill-opacity="1"/>
<linearGradient gradientTransform="matrix(1 0 0 1 -837 -1243)" gradientUnits="userSpaceOnUse" id="SVGID_2_" x1="884.9775" x2="884.9775" y1="1251.2529" y2="1330.498">
<stop offset="0" stop-color="#ffffff"/>
<stop offset="1" stop-color="#ffffff" stop-opacity="0"/>
</linearGradient>
<path d="M 47.977 8.0 C 18.342 8.0 7.977001 18.365 7.977001 48.0 C 7.977001 77.633 18.342 88.0 47.977 88.0 C 77.613 88.0 87.977005 77.633 87.977005 48.0 C 87.977 18.365 77.613 8.0 47.977 8.0 z M 47.977 87.0 C 18.819 87.0 8.977001 77.158 8.977001 48.0 C 8.977001 18.842005 18.818 9.0 47.977 9.0 C 77.137 9.0 86.977005 18.842 86.977005 48.0 C 86.977005 77.158005 77.135 87.0 47.977 87.0 z " fill="url(#SVGID_2_)" fill-opacity="0.25"/>
<rect fill="none" height="96" width="96"/>
<path d="M 59.83 74.423 L 59.83 73.023994 C 55.301003 72.87299 49.492 69.66 49.492 65.093994 C 49.492 62.054993 51.101 59.396996 53.51 57.911995 C 54.26 57.368996 56.125004 55.94099 57.924004 53.985996 C 57.961 53.935 58.004005 53.887997 58.041004 53.839996 C 63.957005 47.384995 69.844 37.691994 69.844 27.506996 L 69.844 24.375996 L 65.506004 24.375996 L 64.02701 24.375996 L 64.02501 24.375996 L 64.02501 27.268995 L 64.02701 27.268995 L 64.02701 27.612995 C 64.02701 28.565994 63.25401 29.338997 62.299007 29.338997 L 61.056007 29.338997 L 61.056007 24.376995 L 61.04601 24.376995 L 48.02 24.376995 L 47.98 24.376995 L 34.951 24.376995 L 34.943 24.376995 L 34.943 29.337996 L 33.695 29.337996 C 32.746998 29.337996 31.972 28.566996 31.972 27.612995 L 31.972 27.268995 L 31.974 27.268995 L 31.974 24.375996 L 31.972 24.375996 L 30.493 24.375996 L 26.155 24.375996 L 26.155 27.506996 C 26.155 37.692997 32.043 47.38599 37.957 53.839996 C 37.996 53.890995 38.038 53.935997 38.073 53.985996 C 39.875 55.941 41.737003 57.368996 42.487003 57.911995 C 44.897003 59.395996 46.507004 62.054996 46.507004 65.093994 C 46.507004 69.657 40.696003 72.87 36.17001 73.023994 L 36.17001 74.424995 L 59.840004 74.424995 C 59.836 74.425 59.832 74.423 59.83 74.423 z M 60.602 48.12 C 60.623 48.022 60.645 47.928997 60.666 47.833 C 60.807 47.175 60.908 46.503 60.973 45.819 C 60.977 45.788 60.979 45.759 60.983 45.731 C 61.025997 45.233 61.057 44.731 61.057 44.221 L 61.057 30.817 L 62.303 30.817 C 64.069 30.817 65.506 29.379 65.506 27.612 L 65.506 25.855 L 68.363 25.855 L 68.363 27.519 C 68.363 35.22 64.797 42.632 60.527 48.453 C 60.555 48.342 60.576 48.229 60.602 48.12 z M 27.636 27.518 L 27.636 25.854 L 30.494 25.854 L 30.494 27.611 C 30.494 29.38 31.932 30.816 33.695 30.816 L 34.943 30.816 L 34.943 44.222 C 34.943 44.73 34.972 45.234 35.017 45.73 C 35.021004 45.759 35.023003 45.788 35.025 45.818 C 35.089 46.503 35.193 47.173 35.334 47.833 C 35.355 47.929 35.375 48.021 35.398 48.12 C 35.423 48.228 35.445 48.343 35.472 48.451 C 31.202 42.631 27.636 35.219 27.636 27.518 z " fill="#ffffff"/>
<path d="M 55.854 62.755 C 56.672 62.163 58.801 60.54 60.918 58.24 C 60.976997 58.172 61.031 58.109 61.078 58.045 C 64.955 53.795 73.844 42.575 73.844 29.106005 L 73.844 25.976002 C 73.844 23.771002 72.049 21.976002 69.844 21.976002 L 64.026 21.976002 C 63.505 21.976002 63.005 22.072002 62.539 22.261002 C 62.063 22.073002 61.56 21.976002 61.054 21.976002 L 34.944 21.976002 C 34.438 21.976002 33.93 22.074 33.459 22.261002 C 32.987 22.073002 32.481 21.976002 31.974 21.976002 L 26.158 21.976002 C 23.950998 21.976002 22.158 23.771002 22.158 25.976002 L 22.158 29.106005 C 22.158 42.664 31.099 53.875 34.887 57.992004 C 34.911 58.025005 35.102 58.262005 35.136 58.299004 C 37.257 60.606003 39.489 62.278004 40.393 62.919003 C 41.719 63.734 42.509003 65.148 42.509003 66.691 C 42.509003 68.484 38.712 70.536 36.042004 70.626 C 33.872 70.695 32.172005 72.452 32.172005 74.622 L 32.172005 76.023 C 32.172005 78.23 33.966003 80.023 36.172005 80.023 L 59.84 80.023 C 61.948 80.023 63.721 78.388 63.873 76.29401 C 63.894 75.95601 63.875 75.62 63.83 75.44001 L 63.83 74.62 C 63.83 72.450005 62.131 70.693 59.963 70.624 C 57.289 70.534004 53.491 68.482 53.491 66.689 C 53.492 65.146 54.357 63.688 55.854 62.755 z " fill-opacity="0.03"/>
<path d="M 55.385 62.105 C 56.184 61.527 58.26 59.947 60.315 57.712 C 60.371 57.649 60.435997 57.568996 60.442 57.553997 C 64.230995 53.408997 73.046 42.345997 73.046 29.102997 L 73.046 25.972996 C 73.046 24.207996 71.609 22.773996 69.848 22.773996 L 64.032 22.773996 C 63.503 22.773996 62.998997 22.898996 62.544 23.136995 C 62.088997 22.900995 61.574997 22.773996 61.056 22.773996 L 34.946 22.773996 C 34.427 22.773996 33.916 22.900995 33.461 23.136995 C 33.005997 22.900995 32.495 22.773996 31.975998 22.773996 L 26.159998 22.773996 C 24.393995 22.773996 22.959995 24.208996 22.959995 25.972996 L 22.959995 29.102997 C 22.960997 42.368996 31.789995 53.435997 35.534996 57.519997 C 35.554996 57.542995 35.702995 57.726997 35.726 57.751995 C 37.784996 59.987995 39.939 61.608994 40.814 62.231995 C 42.377 63.194996 43.31 64.86099 43.31 66.687 C 43.31 69.166 38.927 71.323 36.07 71.416 C 34.334 71.476 32.973 72.877 32.973 74.612 L 32.973 76.014 C 32.973 77.781 34.41 79.215 36.174 79.215 L 59.84 79.215 C 61.533 79.215 62.953 77.907 63.074 76.23499 C 63.092003 75.96399 63.078003 75.69199 63.029003 75.42999 L 63.029003 74.60999 C 63.029003 72.87499 61.67 71.468994 59.935 71.413994 C 57.076 71.31699 52.691 69.16 52.691 66.685 C 52.691 64.865 53.682 63.163 55.385 62.105 z " fill-opacity="0.03"/>
<path d="M 54.916 61.458 C 55.695 60.895 57.719 59.354 59.709 57.191 C 59.746 57.148003 59.799 57.087 59.852 57.015003 C 63.61 52.904003 72.246 42.046005 72.248 29.103004 L 72.248 25.973003 C 72.248 24.650003 71.172005 23.573004 69.849 23.573004 L 64.033 23.573004 C 63.488 23.573004 62.969 23.755005 62.548996 24.088003 C 62.132996 23.761003 61.612995 23.573004 61.056995 23.573004 L 34.946995 23.573004 C 34.393993 23.573004 33.874996 23.761003 33.461994 24.087004 C 33.048996 23.761003 32.530994 23.573004 31.976994 23.573004 L 26.160994 23.573004 C 24.837994 23.573004 23.760994 24.650003 23.760994 25.973003 L 23.760994 29.103004 C 23.761992 42.089005 32.455994 52.978004 36.17699 57.040005 C 36.192993 57.061005 36.298996 57.190006 36.317993 57.21201 C 38.317993 59.386005 40.39099 60.949005 41.23799 61.556007 C 43.03899 62.66401 44.11499 64.58401 44.11499 66.69301 C 44.11499 69.74701 39.32599 72.11801 36.09899 72.22401 C 34.79499 72.267006 33.776993 73.32001 33.776993 74.62001 L 33.776993 76.02101 C 33.776993 77.34501 34.852993 78.42001 36.17599 78.42001 L 59.84 78.42001 C 61.115 78.42001 62.186 77.44202 62.278 76.19101 C 62.295 75.96201 62.276 75.73401 62.231 75.51501 L 62.231 74.62 C 62.231 73.316 61.211 72.26601 59.914 72.224 C 56.685 72.118 51.893 69.744995 51.893 66.693 C 51.893 64.587 53.004 62.643 54.916 61.458 z M 63.457 40.296 L 63.457 34.695 C 64.199 34.539 64.895004 34.236 65.506004 33.808 C 65.096 35.938 64.41 38.106 63.457 40.296 z M 30.494 33.809 C 31.105 34.237 31.801 34.540997 32.544 34.698 L 32.544 40.298996 C 31.59 38.106 30.904 35.938 30.494 33.809 z " fill-opacity="0.03"/>
<path d="M 54.447 60.811 C 55.205 60.262 57.176 58.762 59.108997 56.665 C 59.129997 56.639 59.224 56.519 59.221996 56.519 C 62.897995 52.509003 71.44299 41.811 71.44299 29.106 L 71.44299 25.976002 C 71.44299 25.094002 70.72599 24.376 69.84 24.376 L 64.024994 24.376 C 63.596992 24.376 63.194992 24.542002 62.893993 24.845 C 62.73999 24.997002 62.620995 25.181002 62.539993 25.38 C 62.30199 24.792002 61.722992 24.376 61.047993 24.376 L 34.943 24.376 C 34.271 24.376 33.693 24.792002 33.459 25.382002 C 33.223 24.792002 32.646 24.376 31.973 24.376 L 26.157 24.376 C 25.274 24.376 24.557 25.094002 24.557 25.976002 L 24.557 29.106005 C 24.559 41.813004 33.106 52.511 36.778 56.521004 C 36.789 56.531 36.865 56.634003 36.899 56.672005 C 38.837 58.776005 40.836 60.290005 41.650997 60.874004 C 43.69 62.132004 44.907 64.310005 44.907 66.69 C 44.907 70.319 39.616997 72.903 36.118996 73.020004 C 35.250996 73.047005 34.570995 73.75001 34.570995 74.622 L 34.570995 76.022 C 34.570995 76.90501 35.288994 77.624 36.171997 77.624 L 59.84 77.624 C 60.699 77.624 61.418 76.978 61.479 76.145004 C 61.493 75.95901 61.475 75.784004 61.43 75.61201 L 61.43 74.62401 C 61.43 73.75701 60.75 73.05401 59.883 73.02601 C 56.383 72.90901 51.092 70.323006 51.092 66.69401 C 51.092 64.309 52.328 62.12 54.447 60.811 z M 66.676 31.198 C 66.332 35.266 64.985 39.469 62.656 43.743 L 62.656 34.004 C 64.445 33.872 65.965 32.757 66.676 31.198 z M 33.344 34.003 L 33.344 43.741997 C 31.016005 39.469 29.668 35.264996 29.323002 31.196997 C 30.035 32.757 31.555 33.874 33.344 34.003 z " fill-opacity="0.05"/>
<path d="M 53.979 60.16 C 54.719 59.625 56.641 58.162 58.512 56.129 C 58.533 56.108 58.614 56.004 58.631 55.981 C 62.242 52.043 70.643 41.532 70.645004 29.106 L 70.645004 25.975998 C 70.645004 25.534998 70.289 25.176 69.844 25.176 L 64.026 25.176 C 63.813 25.176 63.61 25.260998 63.463 25.409998 C 63.316 25.558998 63.232 25.763998 63.232 25.975998 L 63.234 29.211 C 63.234 29.721 62.82 30.135998 62.308 30.135998 L 61.863003 30.135998 L 61.863003 25.975998 C 61.863003 25.534998 61.498 25.176 61.054 25.176 L 34.944 25.176 C 34.503 25.176 34.145 25.533998 34.145 25.975998 L 34.145 30.136995 L 33.696 30.136995 C 33.188 30.136995 32.774 29.721996 32.774 29.217997 L 32.774 25.975996 C 32.774 25.534996 32.415997 25.175997 31.972998 25.175997 L 26.156998 25.175997 C 25.714998 25.175997 25.355995 25.533997 25.355995 25.975996 L 25.355995 29.105995 C 25.357998 41.531994 33.756996 52.040993 37.368996 55.980995 L 37.958996 55.439995 L 37.486996 56.12899 C 39.361996 58.163994 41.282997 59.624992 42.070995 60.192993 C 44.347996 61.594994 45.708996 64.02699 45.708996 66.690994 C 45.708996 70.84899 40.043995 73.690994 36.145996 73.82199 C 35.713997 73.83699 35.372997 74.18899 35.372997 74.621994 L 35.372997 76.022995 C 35.372997 76.463 35.729996 76.825 36.172997 76.825 L 59.84 76.825 C 60.26 76.825 60.649 76.508995 60.68 76.089 C 60.688 75.962 60.67 75.839 60.629 75.730995 L 60.629 74.62499 C 60.629 74.19199 60.287003 73.83999 59.856003 73.82599 C 55.960003 73.693985 50.293003 70.85199 50.293003 66.693985 C 50.293 64.025 51.652 61.6 53.979 60.16 z M 28.436 28.253 L 29.696 28.253 L 29.696 29.211 C 29.696 31.418 31.491 33.215 33.698 33.215 L 34.145 33.215 L 34.145 45.822 C 34.145 46.119 34.155 46.416 34.173 46.724 C 31.235 42.078 28.436 35.875 28.436 29.117 L 28.436 28.253 z M 66.305 29.211 L 66.305 28.253 L 67.565 28.253 L 67.565 29.117 C 67.565 35.875 64.766 42.076 61.832 46.724 C 61.853 46.424 61.856 46.122997 61.856 45.822 L 61.856 33.215 L 62.303 33.215 C 64.51 33.215 66.305 31.418 66.305 29.211 z " fill-opacity="0.05"/>
<path d="M 59.83 76.021 L 59.83 74.622 C 55.301003 74.471 49.492 71.26 49.492 66.691 C 49.492 63.654003 51.101 60.997 53.51 59.511 C 54.26 58.968 56.125004 57.54 57.924004 55.583 C 57.961 55.532 58.004005 55.485 58.041004 55.437 C 63.957005 48.982 69.844 39.291 69.844 29.104 L 69.844 25.974 L 65.506004 25.974 L 64.02701 25.974 L 64.02501 25.974 L 64.02501 28.866 L 64.02701 28.866 L 64.02701 29.211 C 64.02701 30.163998 63.25401 30.936998 62.299007 30.936998 L 61.056007 30.936998 L 61.056007 25.974998 L 61.04601 25.974998 L 48.02 25.974998 L 47.98 25.974998 L 34.951 25.974998 L 34.943 25.974998 L 34.943 30.934998 L 33.695 30.934998 C 32.746998 30.934998 31.972 30.163998 31.972 29.209995 L 31.972 28.865995 L 31.974 28.865995 L 31.974 25.973995 L 31.972 25.973995 L 30.493 25.973995 L 26.155 25.973995 L 26.155 29.103996 C 26.155 39.290997 32.043 48.980995 37.957 55.436996 C 37.996 55.487995 38.038 55.535995 38.073 55.582996 C 39.875 57.539997 41.737003 58.967995 42.487003 59.511 C 44.897003 60.994 46.507004 63.654 46.507004 66.690994 C 46.507004 71.254 40.696003 74.468 36.17001 74.621994 L 36.17001 76.022995 L 59.840004 76.022995 C 59.836 76.023 59.832 76.023 59.83 76.021 z M 60.602 49.719 C 60.623 49.621 60.645 49.528 60.666 49.432003 C 60.807 48.774 60.908 48.102 60.973 47.419003 C 60.977 47.388004 60.979 47.360004 60.983 47.331 C 61.025997 46.835003 61.057 46.331 61.057 45.823 L 61.057 32.417 L 62.303 32.417 C 64.069 32.417 65.506 30.979 65.506 29.212 L 65.506 27.454 L 68.363 27.454 L 68.363 29.118 C 68.363 36.819 64.797 44.231 60.527 50.051003 C 60.555 49.941 60.576 49.828 60.602 49.719 z M 27.636 29.118 L 27.636 27.454 L 30.494 27.454 L 30.494 29.212 C 30.494 30.98 31.932 32.417 33.695 32.417 L 34.943 32.417 L 34.943 45.823 C 34.943 46.330997 34.972 46.835 35.017 47.330997 C 35.021004 47.359997 35.023003 47.387997 35.025 47.419 C 35.089 48.102997 35.193 48.773 35.334 49.432 C 35.355 49.528 35.375 49.621 35.398 49.719 C 35.423 49.828 35.445 49.942 35.472 50.051 C 31.202 44.231 27.636 36.819 27.636 29.118 z " fill-opacity="0.05"/>
<linearGradient gradientTransform="matrix(1 0 0 1 -235.2002 -744.8008)" gradientUnits="userSpaceOnUse" x1="283.1992" x2="283.1992" y1="819.2256" y2="769.1768">
<stop offset="0" stop-color="#d0cbc5"/>
<stop offset="0.5031" stop-color="#fafcef"/>
<stop offset="0.9693" stop-color="#ffffff"/>
<stop offset="1" stop-color="#ffffff"/>
</linearGradient>
<path d="M 59.83 74.423 L 59.83 73.023994 C 55.301003 72.87299 49.492 69.66 49.492 65.093994 C 49.492 62.054993 51.101 59.396996 53.51 57.911995 C 54.26 57.368996 56.125004 55.94099 57.924004 53.985996 C 57.961 53.935 58.004005 53.887997 58.041004 53.839996 C 63.957005 47.384995 69.844 37.691994 69.844 27.506996 L 69.844 24.375996 L 65.506004 24.375996 L 64.02701 24.375996 L 64.02501 24.375996 L 64.02501 27.268995 L 64.02701 27.268995 L 64.02701 27.612995 C 64.02701 28.565994 63.25401 29.338997 62.299007 29.338997 L 61.056007 29.338997 L 61.056007 24.376995 L 61.04601 24.376995 L 48.02 24.376995 L 47.98 24.376995 L 34.951 24.376995 L 34.943 24.376995 L 34.943 29.337996 L 33.695 29.337996 C 32.746998 29.337996 31.972 28.566996 31.972 27.612995 L 31.972 27.268995 L 31.974 27.268995 L 31.974 24.375996 L 31.972 24.375996 L 30.493 24.375996 L 26.155 24.375996 L 26.155 27.506996 C 26.155 37.692997 32.043 47.38599 37.957 53.839996 C 37.996 53.890995 38.038 53.935997 38.073 53.985996 C 39.875 55.941 41.737003 57.368996 42.487003 57.911995 C 44.897003 59.395996 46.507004 62.054996 46.507004 65.093994 C 46.507004 69.657 40.696003 72.87 36.17001 73.023994 L 36.17001 74.424995 L 59.840004 74.424995 C 59.836 74.425 59.832 74.423 59.83 74.423 z M 60.602 48.12 C 60.623 48.022 60.645 47.928997 60.666 47.833 C 60.807 47.175 60.908 46.503 60.973 45.819 C 60.977 45.788 60.979 45.759 60.983 45.731 C 61.025997 45.233 61.057 44.731 61.057 44.221 L 61.057 30.817 L 62.303 30.817 C 64.069 30.817 65.506 29.379 65.506 27.612 L 65.506 25.855 L 68.363 25.855 L 68.363 27.519 C 68.363 35.22 64.797 42.632 60.527 48.453 C 60.555 48.342 60.576 48.229 60.602 48.12 z M 27.636 27.518 L 27.636 25.854 L 30.494 25.854 L 30.494 27.611 C 30.494 29.38 31.932 30.816 33.695 30.816 L 34.943 30.816 L 34.943 44.222 C 34.943 44.73 34.972 45.234 35.017 45.73 C 35.021004 45.759 35.023003 45.788 35.025 45.818 C 35.089 46.503 35.193 47.173 35.334 47.833 C 35.355 47.929 35.375 48.021 35.398 48.12 C 35.423 48.228 35.445 48.343 35.472 48.451 C 31.202 42.631 27.636 35.219 27.636 27.518 z " fill="#ffffff" fill-opacity="1"/>
</svg>
