<?xml version="1.0" encoding="UTF-8"?>
<svg xmlns="http://www.w3.org/2000/svg" xmlns:xlink="http://www.w3.org/1999/xlink" baseProfile="tiny" contentScriptType="text/ecmascript" contentStyleType="text/css" height="15.988" preserveAspectRatio="xMidYMid meet" version="1.1" viewBox="6.496 7.006 17.008 15.988" width="17.008" x="0" y="0" zoomAndPan="magnify">
<g>
<rect fill="none" height="15.987" width="17.008" x="6.496" y="7.007"/>
<path d="M 19.688 22.328 C 19.439 22.328 19.195 22.26 18.988 22.131 C 18.703 21.954 18.508 21.685 18.439 21.37 C 18.37 21.057 18.435 20.737 18.623 20.47 C 19.766 18.84 20.369 16.949 20.369 15.0 C 20.369 13.051 19.765 11.161 18.623 9.531 C 18.435 9.2631 18.37 8.9431 18.439 8.6311 C 18.507 8.3171 18.703 8.047 18.988 7.8701 C 19.196 7.7411 19.439 7.6721 19.688 7.6721 C 20.117 7.6721 20.515 7.8751 20.753 8.2121 C 22.171 10.234 22.92 12.5821 22.92 15.0 C 22.92 17.419 22.171 19.7671 20.753 21.789 C 20.516 22.126 20.117 22.328 19.688 22.328 L 19.688 22.328 z M 14.613 20.903 C 14.331 20.902 14.048 20.788 13.773 20.561 L 11.223 18.464 L 8.764 18.464 C 7.826 18.464 7.063 17.746 7.063 16.865 L 7.063 13.134 C 7.063 12.253 7.826 11.535 8.764 11.535 L 11.223 11.535 L 13.773 9.4381 C 14.047 9.2101 14.331 9.0951 14.613 9.0951 C 15.088 9.0961 15.567 9.4391 15.567 10.2011 L 15.567 19.794 C 15.567 20.082 15.499 20.323 15.367 20.513 C 15.196 20.761 14.921 20.903 14.613 20.903 L 14.613 20.903 z M 17.425 20.201 C 17.209 20.201 16.993 20.148 16.804 20.05 C 16.506 19.892 16.291 19.637 16.198 19.328 C 16.107 19.019 16.147 18.697 16.313 18.417 C 16.934 17.375 17.261 16.193 17.261 15.0 C 17.261 13.8081 16.934 12.626 16.313 11.583 C 16.147 11.3041 16.107 10.9801 16.198 10.6721 C 16.292 10.3631 16.507 10.108 16.803 9.9511 C 16.993 9.8501 17.208 9.7991 17.425 9.7991 C 17.888 9.7991 18.316 10.034 18.54 10.4131 C 19.372 11.8111 19.811 13.3991 19.811 15.0 C 19.811 16.602 19.372 18.188 18.539 19.587 C 18.315 19.966 17.888 20.201 17.425 20.201 L 17.425 20.201 z " fill-opacity="0.15" stroke-opacity="0.15"/>
<path d="M 14.147 9.307 L 11.437 11.536 L 8.764 11.536 C 8.14 11.536 7.63 12.015 7.63 12.601 L 7.63 16.332 C 7.63 16.919 8.14 17.3969 8.764 17.3969 L 11.437 17.3969 L 14.147 19.6259 C 14.616 20.014 15.0 19.851 15.0 19.264 L 15.0 9.672 C 15.0 9.084 14.616 8.921 14.147 9.307 z M 20.279 7.973 C 20.064 7.665 19.625 7.58 19.299 7.783 C 18.972 7.985 18.881 8.398 19.097 8.706 C 20.301 10.424 20.937 12.415 20.937 14.469 C 20.937 16.523 20.301 18.514 19.097 20.232 C 18.881 20.539 18.972 20.953 19.299 21.155 C 19.419 21.23 19.554 21.264 19.689 21.264 C 19.918 21.264 20.145 21.16 20.281 20.965 C 21.638 19.028 22.354 16.782 22.354 14.469 C 22.354 12.153 21.636 9.907 20.279 7.973 z M 18.045 10.141 C 17.854 9.819 17.421 9.704 17.08 9.884 C 16.738 10.064 16.617 10.47 16.809 10.791 C 17.477 11.913 17.829 13.185 17.829 14.468 C 17.829 15.751 17.477 17.023 16.809 18.144 C 16.618 18.466 16.739 18.872 17.08 19.051 C 17.189 19.108 17.308 19.136 17.425 19.136 C 17.673 19.136 17.914 19.013 18.045 18.794 C 18.83 17.473 19.246 15.979 19.246 14.467 C 19.246 12.958 18.83 11.461 18.045 10.141 z " fill-opacity="0.3" stroke-opacity="0.3"/>
<path d="M 14.147 9.839 L 11.437 12.069 L 8.764 12.069 C 8.14 12.069 7.63 12.548 7.63 13.134 L 7.63 16.865 C 7.63 17.451 8.14 17.93 8.764 17.93 L 11.437 17.93 L 14.147 20.1589 C 14.616 20.547 15.0 20.382 15.0 19.796 L 15.0 10.203 C 15.0 9.617 14.616 9.454 14.147 9.839 z M 20.279 8.505 C 20.064 8.198 19.625 8.113 19.299 8.316 C 18.972 8.519 18.881 8.932 19.097 9.239 C 20.301 10.956 20.937 12.948 20.937 15.002 C 20.937 17.056 20.301 19.047 19.097 20.765 C 18.881 21.0719 18.972 21.4849 19.299 21.687 C 19.419 21.762 19.554 21.7969 19.689 21.7969 C 19.918 21.7969 20.145 21.693 20.281 21.4959 C 21.638 19.561 22.354 17.3149 22.354 15.0009 C 22.354 12.687 21.636 10.44 20.279 8.505 z M 18.045 10.673 C 17.854 10.352 17.421 10.237 17.08 10.417 C 16.738 10.597 16.617 11.002 16.809 11.323 C 17.477 12.446 17.829 13.717 17.829 15.0 C 17.829 16.283 17.477 17.556 16.809 18.677 C 16.618 18.999 16.739 19.405 17.08 19.584 C 17.189 19.641 17.308 19.668 17.425 19.668 C 17.673 19.668 17.914 19.546 18.045 19.327 C 18.83 18.006 19.246 16.51 19.246 15.0 C 19.246 13.489 18.83 11.993 18.045 10.673 z " fill="#dedede"/>
</g>
</svg>
