<?xml version="1.0" encoding="UTF-8"?>
<svg xmlns="http://www.w3.org/2000/svg" xmlns:xlink="http://www.w3.org/1999/xlink" baseProfile="tiny" contentScriptType="text/ecmascript" contentStyleType="text/css" height="30px" preserveAspectRatio="xMidYMid meet" version="1.1" viewBox="0 0 30 30" width="30px" x="0px" y="0px" zoomAndPan="magnify">
<defs/>
<path d="M 27.969 23.066832 C 26.421999 29.558832 19.630001 27.775831 19.630001 27.775831 C 14.766001 26.865831 10.748001 23.10783 9.512001 21.83883 L 9.504001 21.844831 L 7.660001 19.999832 L 7.6690006 19.990831 C 6.1100006 18.365831 3.0350008 14.703831 2.2230005 10.369831 C 2.2230005 10.369831 0.44400048 3.5768309 6.9330006 2.0318289 C 7.8430004 1.8148309 8.368001 2.8098288 8.368001 2.8098288 L 9.983001 7.12483 C 10.497001 8.10683 9.815001 8.685831 9.815001 8.685831 L 7.936 10.787831 C 8.12 10.62883 5.899 12.584832 11.398 18.256832 L 11.398 18.258833 L 11.672 18.531834 L 11.674 18.530834 C 17.348 24.031834 19.300999 21.810835 19.143 21.990833 L 21.314 20.188833 C 21.314 20.188833 21.893 19.503832 22.873999 20.018833 L 27.188 21.629833 C 27.188 21.630833 28.185999 22.158834 27.969 23.066835 z " fill="#ffffff"/>
<rect fill="none" height="30" width="30"/>
</svg>
