<?xml version="1.0" encoding="UTF-8"?>
<svg xmlns="http://www.w3.org/2000/svg" xmlns:xlink="http://www.w3.org/1999/xlink" baseProfile="tiny" contentScriptType="text/ecmascript" contentStyleType="text/css" height="57px" preserveAspectRatio="xMidYMid meet" version="1.1" viewBox="0 0 67 57" width="67px" x="0px" y="0px" zoomAndPan="magnify">
<rect fill="#ffffff" fill-opacity="0.70588235" fill-rule="nonzero" height="48" ry="8.2174387" stroke="none" width="48" x="9.5" y="5.5"/>
<rect color="#000000" display="inline" fill="#01a0f3" fill-opacity="0.58823528999999997" fill-rule="nonzero" height="48" ry="8.2174387" stroke="none" visibility="visible" width="48" x="9.5" y="5.5"/>
<g>
<rect fill="none" height="57" width="67"/>
</g>
<g>
<rect fill="none" height="46" width="46" x="10.5" y="5.5"/>
</g>
<rect fill="none" height="44" width="44" x="12" y="7"/>
<defs>
<linearGradient gradientUnits="userSpaceOnUse" x1="33.9995" x2="33.9995" xlink:actuate="onLoad" xlink:show="other" xlink:type="simple" y1="50.4717" y2="7.5278">
<stop offset="0" stop-color="#d0cbc5"/>
<stop offset="0.5031" stop-color="#fafcef"/>
<stop offset="0.9693" stop-color="#ffffff"/>
<stop offset="1" stop-color="#ffffff"/>
</linearGradient>
</defs>
<path d="M 33.462994 44.499847 C 39.67082 44.499847 44.086506 43.52064 47.06109 41.229656 C 47.02414 41.063385 46.96872 40.934044 46.876343 40.841667 C 46.50683 40.435204 46.044937 40.084164 45.56457 39.825504 C 44.123463 38.994102 42.608463 38.255074 41.038033 37.6269 C 39.874065 37.165012 38.96876 36.2597 38.340584 34.94793 C 38.06345 34.35671 37.934116 33.72853 37.952595 33.211216 C 37.971153 33.118847 38.026493 33.044945 38.19278 32.87865 C 38.26668 32.804752 38.35905 32.71238 38.432964 32.619995 C 38.67315 32.324383 38.87638 31.991823 39.098087 31.566883 C 39.412174 30.93871 39.61541 30.292065 39.78169 29.645412 C 39.855587 29.423704 39.91101 29.201996 39.984932 28.980288 C 40.00349 28.980288 40.02188 28.980288 40.02188 28.980288 C 40.779385 28.980288 41.074993 27.94565 41.2228 27.372904 L 41.24136 27.335957 C 41.27831 27.206633 41.33373 27.040344 41.389156 26.855583 C 41.555428 26.338266 41.77715 25.636192 41.86953 25.026497 C 42.017323 24.15814 41.832577 23.622343 41.352207 23.400637 C 41.407627 23.178928 41.610867 22.125814 41.64782 21.885632 C 41.74019 21.405264 41.77714 20.998798 41.77714 20.592337 C 41.77714 20.407568 41.77714 20.22282 41.77714 20.038063 C 41.7957 19.871792 41.426105 17.506895 41.01964 16.583113 C 40.6686 15.862562 40.16976 14.93878 39.3014 14.439936 C 38.6178 14.033472 37.8603 13.811764 37.12127 13.590054 C 36.9365 13.534634 36.770233 13.479206 36.60395 13.423782 C 36.38224 13.368362 36.160538 13.275986 35.938824 13.202074 C 34.88571 12.851035 33.795647 12.499999 32.66863 12.499999 C 32.520832 12.499999 32.37302 12.499999 32.225212 12.518559 C 31.744844 12.55551 31.33838 12.703326 30.950392 12.851122 C 30.710209 12.925022 30.506971 13.017393 30.285269 13.07283 C 30.211369 13.091391 30.137472 13.091391 30.02661 13.091391 C 29.95271 13.091391 29.860338 13.091391 29.767948 13.07283 C 29.67558 13.07283 29.564709 13.07283 29.453863 13.07283 C 29.32454 13.07283 29.176727 13.07283 29.065872 13.10978 C 28.382273 13.239102 28.10514 13.75643 27.938856 14.070517 C 27.864956 14.218313 27.828009 14.366127 27.809534 14.47698 C 27.790974 14.51393 27.790974 14.55088 27.790974 14.56935 C 27.754025 14.587911 27.717072 14.587911 27.680126 14.587911 C 27.587755 14.587911 27.513857 14.606471 27.43994 14.624861 C 26.700916 14.772657 26.368353 15.363887 26.109694 15.844254 L 26.054274 15.955102 C 25.444576 17.063644 25.09354 19.687187 25.112013 19.834991 C 25.112013 19.927362 25.112013 20.130604 25.112013 20.389263 C 25.112013 20.777252 25.112013 21.16524 25.130571 21.331522 C 25.130571 22.089024 25.222942 22.82805 25.426184 23.56708 C 25.370764 23.604029 25.315336 23.659449 25.259912 23.714876 C 24.982777 24.084389 24.964302 24.749514 25.204493 25.691772 C 25.204493 25.728722 25.223051 25.821096 25.259912 25.950432 C 25.647903 27.798 25.998938 28.832638 26.664064 28.961967 C 26.701014 29.09129 26.737965 29.2391 26.774912 29.386906 C 26.959658 29.996605 27.12595 30.643255 27.42156 31.271423 C 27.772598 32.028927 28.14211 32.583195 28.585527 33.026615 C 28.844189 33.24832 28.659428 33.876495 28.548578 34.319912 C 28.51163 34.41228 28.493158 34.504658 28.474678 34.59705 C 28.289932 35.373024 27.901932 36.056625 27.347662 36.59242 C 26.75644 37.18364 25.98046 37.49773 25.186008 37.848766 C 24.982767 37.922665 24.79802 37.996563 24.594788 38.088947 L 24.3546 38.19979 C 23.04283 38.772537 21.694103 39.382236 20.530138 40.232117 C 20.234528 40.453823 20.031296 41.008095 19.938915 41.28523 C 22.931974 43.55774 27.31071 44.499996 33.463108 44.499996 z " fill="#ffffff" fill-opacity="1" fill-rule="nonzero" stroke="none"/>
<path d="M 23.95564 38.659313 C 27.092598 40.892246 28.216188 39.61529 28.10625 39.743137 L 29.944927 38.213375 C 29.944927 38.213375 30.436031 37.635548 31.267876 38.070713 L 34.924713 39.437794 C 34.92471 39.437794 35.76836 39.883736 35.5867 40.65503 L 35.586662 40.654945 L 35.586662 40.654945 C 35.02673 43.00293 33.656815 44.073803 32.27052 44.530064 " fill="none" fill-opacity="1" stroke-opacity="0.29999999999999999"/>
<path d="M 20.35134 40.020588 C 20.189337 39.86487 20.0518 39.727455 19.94068 39.613728 L 19.93658 39.61683 L 18.371927 38.05218 L 18.380129 38.04658 C 17.059233 36.66821 14.453366 33.565594 13.764181 29.89336 C 13.764181 29.89336 12.257005 24.136127 17.755602 22.824472 C 18.527409 22.641785 18.972322 23.483376 18.972322 23.483376 L 20.341455 27.144316 C 20.77611 27.97565 20.19674 28.465216 20.19674 28.465216 L 18.6059 30.24586 C 18.762417 30.112955 16.879602 31.76946 21.5402 36.57733 L 21.5402 36.578938 L 21.773176 36.81037 L 21.774776 36.809864 C 22.59016 37.6007 23.3149 38.203224 23.95564 38.659313 " fill="none" fill-opacity="1" stroke-opacity="0.29999999999999999"/>
<path d="M 25.85168 43.805386 C 23.369743 42.71444 21.37349 41.00308 20.35134 40.020588 " fill="none" fill-opacity="1" stroke-opacity="0.29999999999999999"/>
<path d="M 32.27052 44.530064 C 30.409424 45.142593 28.5188 44.647392 28.5188 44.647392 C 27.586773 44.472588 26.691427 44.174496 25.85168 43.805386 " fill="none" fill-opacity="1" stroke-opacity="0.29999999999999999"/>
</svg>
