<?xml version="1.0" encoding="UTF-8"?>
<svg xmlns="http://www.w3.org/2000/svg" xmlns:xlink="http://www.w3.org/1999/xlink" baseProfile="tiny" contentScriptType="text/ecmascript" contentStyleType="text/css" height="30px" preserveAspectRatio="xMidYMid meet" version="1.1" viewBox="0 0 30 30" width="30px" x="0px" y="0px" zoomAndPan="magnify">
<rect fill="none" height="30" width="30"/>
<path color="#000000" d="M 14.723907 4.9999986 C 13.174244 5.0000176 11.873658 5.4337277 10.831653 6.3198643 C 9.789638 7.206035 9.118816 8.465455 8.824917 10.077438 L 11.235691 10.494947 C 11.413809 9.319361 11.810915 8.443035 12.434345 7.855218 C 13.057764 7.267434 13.842634 6.966347 14.777781 6.966329 C 15.721815 6.966347 16.484093 7.262872 17.08081 7.84175 C 17.677504 8.420661 17.983156 9.15535 17.983166 10.037036 C 17.983154 11.150309 17.576927 11.967332 16.757576 12.501682 C 15.938208 13.036061 15.007357 13.309775 13.983165 13.309762 C 13.885195 13.309777 13.752895 13.300662 13.592593 13.282832 L 13.336701 15.383842 C 14.0135565 15.20573 14.5794525 15.114492 15.03367 15.114482 C 16.146923 15.114493 17.059744 15.474994 17.781149 16.191923 C 18.502523 16.908873 18.858576 17.821585 18.858587 18.92593 C 18.858574 20.083729 18.46614 21.05129 17.686869 21.835022 C 16.907578 22.61876 15.962713 23.020208 14.83165 23.020206 C 13.878692 23.020208 13.070905 22.719011 12.407407 22.11785 C 11.7439 21.516691 11.269351 20.530989 10.993266 19.168354 L 8.582491 19.491589 C 8.742799 21.1214 9.399826 22.440453 10.535354 23.46465 C 11.670875 24.488848 13.099301 25.000004 14.818182 25.000004 C 16.724073 25.000004 18.298592 24.411188 19.545454 23.222223 C 20.792292 22.033268 21.417494 20.582027 21.417507 18.872055 C 21.417494 17.607395 21.089037 16.562174 20.447811 15.720541 C 19.806562 14.878927 18.91199 14.317701 17.754208 14.050507 C 18.644806 13.640839 19.32019 13.088629 19.774414 12.393943 C 20.22861 11.699281 20.4478 10.937004 20.447811 10.090912 C 20.4478 9.200319 20.21047 8.351584 19.734009 7.558926 C 19.257524 6.766303 18.572905 6.145553 17.673405 5.686872 C 16.77388 5.228228 15.792628 5.000022 14.723907 5.000003 z " display="inline" fill="#dedede" fill-opacity="1" fill-rule="nonzero" stroke="none" visibility="visible"/>
</svg>
