<?xml version="1.0" encoding="UTF-8"?>
<svg xmlns="http://www.w3.org/2000/svg" xmlns:xlink="http://www.w3.org/1999/xlink" baseProfile="tiny" contentScriptType="text/ecmascript" contentStyleType="text/css" height="96px" preserveAspectRatio="xMidYMid meet" version="1.1" viewBox="0 0 96 96" width="96px" x="0px" y="0px" zoomAndPan="magnify">
<path d="M 87.998 49.222 C 87.833 78.85401 77.412 89.162 47.776 88.998 C 18.144 88.832 7.836 78.406 8.002 48.776 C 8.167 19.143 18.59 8.836 48.224 9.002 C 77.859 9.168 88.164 19.59 87.998 49.222 z " fill-opacity="0.4" stroke-opacity="0.4"/>
<linearGradient gradientTransform="matrix(1 0.0056 -0.0056 1 -24.4074 -6.4236)" gradientUnits="userSpaceOnUse" x1="72.71" x2="72.71" xlink:actuate="onLoad" xlink:show="other" xlink:type="simple" y1="24.5405" y2="102.1183">
<stop offset="0" stop-color="#42a519"/>
<stop offset="1" stop-color="#004c00"/>
</linearGradient>
<path d="M 47.777977 87.99798 C 18.145971 87.83298 7.8379784 77.41198 8.001976 47.775974 C 8.167976 18.143978 18.593975 7.835979 48.223976 8.00198 C 77.85698 8.16698 88.16397 18.58998 87.99797 48.22398 C 87.83197 77.85898 77.40997 88.16398 47.77797 87.99798 z " fill="url(#linearGradient3880)" fill-opacity="1"/>
<path d="M 79.0 32.0 C 79.0 41.631 75.632 45.0 66.0 45.0 C 56.369 45.0 53.0 41.631 53.0 32.0 C 53.0 22.369 56.369 19.0 66.0 19.0 C 75.632 19.0 79.0 22.369 79.0 32.0 z " fill="url(#SVGID_2_)"/>
<path d="M 66.0 50.0 C 54.084 50.0 49.0 44.916 49.0 33.0 C 49.0 21.084 54.084 16.0 66.0 16.0 C 77.916 16.0 83.0 21.084 83.0 33.0 C 83.0 44.916 77.916 50.0 66.0 50.0 L 66.0 50.0 z " fill-opacity="0.05" stroke-opacity="0.05"/>
<path d="M 66.0 49.0 C 54.636 49.0 50.0 44.364 50.0 33.0 C 50.0 21.636002 54.636 17.0 66.0 17.0 C 77.364 17.0 82.0 21.636 82.0 33.0 C 82.0 44.364 77.364 49.0 66.0 49.0 L 66.0 49.0 z " fill-opacity="0.05" stroke-opacity="0.05"/>
<path d="M 66.0 48.0 C 55.206 48.0 51.0 43.794 51.0 33.0 C 51.0 22.206 55.206 18.0 66.0 18.0 C 76.794 18.0 81.0 22.206 81.0 33.0 C 81.0 43.794 76.794 48.0 66.0 48.0 L 66.0 48.0 z " fill-opacity="0.1" stroke-opacity="0.1"/>
<path d="M 66.0 47.0 C 55.794 47.0 52.0 43.206 52.0 33.0 C 52.0 22.794 55.794 19.0 66.0 19.0 C 76.206 19.0 80.0 22.794 80.0 33.0 C 80.0 43.206 76.206 47.0 66.0 47.0 L 66.0 47.0 z " fill-opacity="0.15" stroke-opacity="0.15"/>
<linearGradient gradientUnits="userSpaceOnUse" x1="66" x2="66" xlink:actuate="onLoad" xlink:show="other" xlink:type="simple" y1="23.9443" y2="40.0672">
<stop offset="0" stop-color="#42a519"/>
<stop offset="1" stop-color="#004c00"/>
</linearGradient>
<linearGradient gradientTransform="matrix(1 0.0056 -0.0056 1 -24.4074 -6.4236)" gradientUnits="userSpaceOnUse" id="SVGID_5_" x1="72.71" x2="72.71" xlink:actuate="onLoad" xlink:show="other" xlink:type="simple" y1="14.272" y2="93.5123">
<stop offset="0" stop-color="#ffffff"/>
<stop offset="1" stop-color="#ffffff" stop-opacity="0"/>
</linearGradient>
<path d="M 48.224 8.002 C 18.59 7.836 8.167 18.143 8.002 47.774 C 7.836 77.406 18.144 87.832 47.776 87.998 C 77.412 88.162 87.833 77.853 87.998 48.222 C 88.164 18.588 77.859 8.168 48.224 8.002 z M 47.782 86.998 C 18.626 86.834 8.839 76.938 9.002 47.78 C 9.164 18.625 19.062 8.838 48.217 9.002 C 77.375 9.164 87.160995 19.061 86.998 48.216 C 86.836 77.373 76.939 87.16 47.782 86.998 z " fill="url(#SVGID_5_)" fill-opacity="0.25" stroke-opacity="0.25"/>
<path d="M 63.595 75.776 C 62.425003 75.776 61.176003 75.646 59.881 75.393 C 52.319 73.894 45.815 69.293 40.447 64.991 C 34.398 60.136997 29.188 53.658997 25.377998 46.255997 C 20.784998 37.331997 20.427998 30.482998 24.314 25.899996 C 25.853 24.084995 29.668 21.526997 33.331 21.526997 C 34.933 21.526997 36.306 22.004995 37.41 22.946997 C 37.539 23.057997 37.648 23.168997 37.75 23.287996 C 40.262 26.283997 42.955 29.836996 43.947 33.536995 C 44.653 36.170994 43.565 38.338997 42.769997 39.921997 C 42.618996 40.226997 42.506996 40.449997 42.403996 40.671997 C 41.881996 41.796 41.365997 42.92 40.855995 44.046 C 40.902996 44.143 41.198994 44.718 41.198994 44.718 C 41.769993 45.838997 42.531994 46.986 43.597992 48.329 C 46.006992 51.278 48.435993 53.553 51.01599 55.272 L 51.12699 55.346 C 51.87599 55.846 53.12999 56.682 53.82199 56.682 C 53.89999 56.682 53.95999 56.67 54.020992 56.644 C 55.379993 56.065 56.72599 55.459 58.069992 54.843 C 58.220993 54.774 58.37099 54.701004 58.519993 54.629 C 59.680992 54.067 60.942993 53.457 62.54299 53.457 C 63.276993 53.457 64.00699 53.592 64.71099 53.857 C 67.69499 55.215004 70.63899 57.134003 73.77199 59.752003 C 73.85499 59.818005 73.95099 59.909004 74.04299 60.008003 C 75.176994 61.221004 75.71599 62.851 75.59999 64.719 C 75.39499 68.046005 73.17999 71.599 71.19899 73.252 C 69.196 74.927 66.638 75.776 63.595 75.776 L 63.595 75.776 z M 33.33 27.526 C 31.887 27.526 29.642002 28.893 28.89 29.779 C 26.725002 32.334 27.339 36.953 30.713 43.51 C 34.143 50.171 38.807 55.981 44.204 60.309 C 49.001003 64.158 54.752003 68.26 61.042 69.505 C 61.943 69.683 62.795 69.772995 63.572 69.772995 C 65.187996 69.772995 66.46 69.393 67.353 68.647 C 68.18 67.95699 69.522 65.799995 69.612 64.34799 C 69.619 64.23599 69.615 64.149994 69.609 64.092995 C 67.086 62.01799 64.779 60.502995 62.57 59.467995 C 62.237 59.494995 61.662 59.774994 61.234 59.981995 C 61.007 60.089996 60.788 60.196995 60.565 60.297997 C 59.175003 60.934 57.783 61.561996 56.377003 62.160995 C 55.545 62.515995 54.67 62.696995 53.776 62.696995 C 51.338 62.696995 49.293 61.332996 47.799 60.33699 L 47.688 60.262993 C 44.603 58.207993 41.737 55.533993 38.925 52.089993 C 37.583 50.401993 36.611 48.928993 35.855 47.444992 L 35.729 47.20299 C 35.19 46.164993 34.186 44.229992 35.175 42.04299 C 35.761 40.741993 36.358 39.44199 36.959 38.145992 C 37.102 37.839993 37.254 37.534992 37.407 37.229992 C 37.829 36.387993 38.264 35.51699 38.149 35.088993 C 37.487003 32.61999 35.438004 29.897991 33.475002 27.531994 C 33.439 27.529 33.39 27.526 33.33 27.526 L 33.33 27.526 z " fill-opacity="0.05" stroke-opacity="0.05"/>
<path d="M 63.595 74.776 C 62.489 74.776 61.304 74.653 60.074 74.412 C 52.724003 72.955 46.345 68.43701 41.074 64.211 C 35.133003 59.445 30.013 53.078 26.267002 45.797997 C 21.877005 37.268997 21.476002 30.791996 25.076002 26.546995 C 26.450005 24.924995 30.023005 22.525995 33.33 22.525995 C 34.687 22.525995 35.842003 22.922997 36.761 23.706997 C 36.845 23.778996 36.92 23.854998 36.99 23.936996 C 39.426003 26.842997 42.038 30.282995 42.980003 33.794 C 43.587 36.060997 42.638004 37.952 41.876003 39.472 C 41.724003 39.778 41.605003 40.014 41.496 40.249 C 40.912003 41.506 40.336 42.763 39.767 44.024 C 39.813004 44.217003 40.048 44.672 40.167004 44.901 L 40.308 45.172 C 40.909004 46.35 41.704 47.549 42.814003 48.947 C 45.293003 51.982 47.797005 54.326004 50.460003 56.1 L 50.571003 56.175003 C 51.759003 56.968 52.9 57.679005 53.821003 57.679005 C 54.034004 57.679005 54.227 57.641006 54.413 57.562004 C 55.780003 56.978004 57.134003 56.369003 58.485 55.749004 C 58.659 55.669003 58.83 55.58701 59.001 55.504005 C 60.045 54.999004 61.171 54.454006 62.543 54.454006 C 63.157 54.454006 63.768 54.567005 64.357 54.790005 C 67.219 56.095005 70.069 57.960007 73.130005 60.51701 C 73.19 60.56601 73.25101 60.623005 73.310005 60.687004 C 74.253006 61.695004 74.700005 63.068005 74.601006 64.65501 C 74.420006 67.592 72.40401 70.94101 70.55801 72.48201 C 68.74 74.005 66.397 74.776 63.595 74.776 L 63.595 74.776 z M 33.33 26.526 C 31.530005 26.526 29.007002 28.095 28.127005 29.132 C 25.676004 32.025 26.246002 37.015 29.824003 43.967 C 33.316 50.752 38.072 56.673 43.578003 61.088997 C 48.47 65.013 54.347004 69.198 60.848003 70.486 C 61.814003 70.675 62.731003 70.772 63.573 70.772 C 65.429 70.772 66.918 70.315 67.996 69.413 C 68.96501 68.60401 70.501 66.197 70.611 64.409004 C 70.629 64.115005 70.612 63.725006 70.441 63.481003 C 67.708 61.213 65.213005 59.578003 62.820004 58.481003 L 62.818005 58.481003 C 62.805004 58.481003 62.681004 58.456 62.54501 58.456 C 62.091007 58.456 61.492004 58.745003 60.800007 59.081 C 60.581005 59.186 60.36701 59.289 60.15101 59.388 C 58.76901 60.021 57.38401 60.646 55.986008 61.242 C 55.279007 61.544 54.536007 61.697 53.778008 61.697 C 51.64201 61.697 49.820007 60.481003 48.356007 59.505 L 48.245007 59.431 C 45.24601 57.433 42.451008 54.826 39.701008 51.457 C 38.40701 49.827 37.472008 48.411 36.74801 46.991 L 36.619007 46.743 C 36.09401 45.73 35.300007 44.2 36.08901 42.454 C 36.674007 41.156 37.26801 39.859997 37.869007 38.565 C 38.007008 38.27 38.154007 37.975 38.303005 37.678 C 38.85701 36.573997 39.332005 35.623997 39.119003 34.829 C 38.391003 32.119 36.172005 29.197 34.073 26.683 C 33.855 26.555 33.555 26.526 33.33 26.526 L 33.33 26.526 z " fill-opacity="0.1" stroke-opacity="0.1"/>
<path d="M 63.595 73.776 L 63.595 73.776 C 62.553 73.776 61.433 73.66 60.266003 73.43 C 53.129 72.015 46.876003 67.581 41.700005 63.43 C 35.870003 58.751 30.841003 52.496 27.158005 45.34 C 22.970003 37.204 22.527004 31.099 25.840004 27.193 C 27.143003 25.656 30.471004 23.526 33.331005 23.526 C 34.444004 23.526 35.380005 23.842 36.112003 24.467 C 36.154003 24.503 36.193005 24.543 36.229004 24.585 C 38.590004 27.402 41.124004 30.73 42.014004 34.054 C 42.524 35.95 41.70501 37.583 40.98301 39.024 C 40.848007 39.295 40.713005 39.562 40.589005 39.83 C 39.992004 41.114 39.402004 42.4 38.821003 43.69 C 38.640003 44.089 38.878 44.586 39.281 45.363003 L 39.418003 45.631004 C 40.049004 46.869003 40.881004 48.12101 42.031 49.571003 C 44.58 52.692 47.158 55.103004 49.906 56.935 L 50.017 57.009003 C 51.622 58.08 53.294003 59.128 54.806004 58.484 C 56.181004 57.896 57.542004 57.283 58.902004 56.661003 C 59.099003 56.570004 59.294003 56.476 59.487003 56.383003 C 60.428 55.928 61.401005 55.457005 62.544003 55.457005 C 63.037003 55.457005 63.529003 55.549004 64.005005 55.728004 C 66.746 56.980003 69.50101 58.791004 72.491005 61.287003 C 72.523 61.313004 72.553 61.342003 72.581 61.372 C 73.331 62.175003 73.685 63.289 73.60401 64.596 C 73.442 67.228 71.565 70.342 69.91701 71.717 C 68.283 73.083 66.156 73.776 63.595 73.776 L 63.595 73.776 z M 33.33 25.526 C 31.188002 25.526 28.412004 27.25 27.364002 28.486 C 24.626003 31.716 25.154003 37.079 28.935 44.425 C 32.491 51.333 37.337 57.365997 42.951 61.869 C 47.938 65.869 53.94 70.138 60.653 71.468 C 64.059 72.136 66.814 71.704 68.636 70.181 C 69.789 69.218 71.478004 66.579 71.608 64.471 C 71.653 63.742 71.501 63.173 71.156 62.777 C 68.325 60.42 65.733 58.716 63.233997 57.573 C 63.045 57.504 62.797997 57.457 62.544 57.457 C 61.858997 57.457 61.164 57.794003 60.358 58.184 C 60.151997 58.284 59.945 58.383003 59.733997 58.480003 C 58.358997 59.110004 56.982 59.730003 55.590996 60.324005 C 55.007996 60.57301 54.396996 60.699005 53.775997 60.699005 C 51.944996 60.699005 50.331997 59.624004 48.908997 58.675007 L 48.797 58.6 C 45.881 56.657 43.159 54.114 40.475 50.827 C 39.230003 49.259 38.33 47.899 37.637 46.539 L 37.505 46.284 C 37.017 45.344 36.409 44.171 36.998 42.868 C 37.582 41.572 38.176003 40.279 38.774 38.989 C 38.907 38.704 39.050003 38.417 39.195004 38.129 C 39.811005 36.899 40.394005 35.735996 40.083004 34.573 C 39.300003 31.652998 36.959003 28.576998 34.755005 25.942995 C 34.4 25.666 33.921 25.526 33.33 25.526 L 33.33 25.526 z " fill-opacity="0.2" stroke-opacity="0.2"/>
<linearGradient gradientTransform="matrix(1,0.0056,-0.0056,1,-24.4074,-6.4236)" gradientUnits="userSpaceOnUse" x1="73.3945" x2="73.3945" xlink:actuate="onLoad" xlink:show="other" xlink:type="simple" y1="35.7573" y2="96.0258">
<stop offset="0" stop-color="#fafcef"/>
<stop offset="0.3232" stop-color="#fafcef"/>
<stop offset="1" stop-color="#b2aeaa"/>
</linearGradient>
<linearGradient gradientTransform="matrix(1 0.0056 -0.0056 1 -24.4074 -6.4236)" gradientUnits="userSpaceOnUse" x1="50.5039" x2="56.9414" xlink:actuate="onLoad" xlink:show="other" xlink:type="simple" y1="24.6123" y2="38.4844">
<stop offset="0" stop-color="#ffffff"/>
<stop offset="1" stop-color="#ffffff" stop-opacity="0"/>
</linearGradient>
<linearGradient gradientTransform="matrix(1 0.0056 -0.0056 1 -24.4074 -6.4236)" gradientUnits="userSpaceOnUse" x1="77.6738" x2="57.462" xlink:actuate="onLoad" xlink:show="other" xlink:type="simple" y1="53.9404" y2="66.3266">
<stop offset="0" stop-color="#b2aeaa" stop-opacity="0"/>
<stop offset="0.3067" stop-color="#b2aeaa" stop-opacity="0"/>
<stop offset="1" stop-color="#b2aeaa"/>
</linearGradient>
<linearGradient gradientTransform="matrix(0.54 0.8417 -0.695 0.4458 -311.072 -1457.9016)" gradientUnits="userSpaceOnUse" x1="1439.4219" x2="1439.4219" xlink:actuate="onLoad" xlink:show="other" xlink:type="simple" y1="613.7324" y2="618.7273">
<stop offset="0" stop-color="#ffffff"/>
<stop offset="1" stop-color="#ffffff" stop-opacity="0"/>
</linearGradient>
<linearGradient gradientTransform="matrix(1 0.0056 -0.0056 1 -24.4074 -6.4236)" gradientUnits="userSpaceOnUse" x1="81.8936" x2="62.1737" xlink:actuate="onLoad" xlink:show="other" xlink:type="simple" y1="31.3486" y2="79.4852">
<stop offset="0" stop-color="#fafcef"/>
<stop offset="0.3232" stop-color="#fafcef"/>
<stop offset="1" stop-color="#b2aeaa"/>
</linearGradient>
<linearGradient gradientTransform="matrix(1 0.0056 -0.0056 1 -24.4074 -6.4236)" gradientUnits="userSpaceOnUse" x1="87.5742" x2="93.0909" xlink:actuate="onLoad" xlink:show="other" xlink:type="simple" y1="70.5176" y2="73.9121">
<stop offset="0" stop-color="#b2aeaa" stop-opacity="0"/>
<stop offset="0.3067" stop-color="#b2aeaa" stop-opacity="0"/>
<stop offset="1" stop-color="#b2aeaa"/>
</linearGradient>
<linearGradient gradientTransform="matrix(0.839 0.5443 -0.4495 0.6927 -357.0174 -872.0851)" gradientUnits="userSpaceOnUse" x1="862.1895" x2="862.1895" xlink:actuate="onLoad" xlink:show="other" xlink:type="simple" y1="662.8809" y2="667.8773">
<stop offset="0" stop-color="#ffffff"/>
<stop offset="1" stop-color="#ffffff" stop-opacity="0"/>
</linearGradient>
<linearGradient gradientTransform="matrix(1 0.0056 -0.0056 1 -24.4074 -6.4236)" gradientUnits="userSpaceOnUse" x1="55.4004" x2="64.7744" xlink:actuate="onLoad" xlink:show="other" xlink:type="simple" y1="35.4692" y2="46.7305">
<stop offset="0" stop-color="#b2aeaa" stop-opacity="0"/>
<stop offset="0.3067" stop-color="#b2aeaa" stop-opacity="0"/>
<stop offset="1" stop-color="#b2aeaa"/>
</linearGradient>
<linearGradient gradientTransform="matrix(1 0.0056 -0.0056 1 -24.4074 -6.4236)" gradientUnits="userSpaceOnUse" x1="85.4141" x2="83.8118" xlink:actuate="onLoad" xlink:show="other" xlink:type="simple" y1="59.4902" y2="68.3621">
<stop offset="0" stop-color="#ffffff"/>
<stop offset="1" stop-color="#ffffff" stop-opacity="0"/>
</linearGradient>
<rect fill="none" height="96" width="96"/>
<defs>
<linearGradient id="linearGradient3886">
<stop offset="0" stop-color="#ffffff" stop-opacity="1"/>
<stop offset="1" stop-color="#ffffff" stop-opacity="0.78431374"/>
</linearGradient>
<linearGradient xlink:actuate="onLoad" xlink:show="other" xlink:type="simple">
<stop offset="0" stop-color="#3ba516" stop-opacity="1"/>
<stop offset="1" stop-color="#369c38" stop-opacity="1"/>
</linearGradient>
<linearGradient gradientUnits="userSpaceOnUse" id="SVGID_2_" x1="66" x2="66" xlink:actuate="onLoad" xlink:show="other" xlink:type="simple" y1="19" y2="45">
<stop offset="0" stop-color="#fafcef"/>
<stop offset="0.3232" stop-color="#fafcef"/>
<stop offset="1" stop-color="#d0cbc5"/>
</linearGradient>
<linearGradient gradientTransform="matrix(0,1,-1,0,95.999977,-2.3740639e-5)" gradientUnits="userSpaceOnUse" id="linearGradient3880" x1="8.0000312" x2="87.999969" xlink:actuate="onLoad" xlink:show="other" xlink:type="simple" y1="47.999977" y2="47.999977">
<stop offset="0" stop-color="#4fa952" stop-opacity="1"/>
<stop offset="1" stop-color="#4ba249" stop-opacity="1"/>
</linearGradient>
<linearGradient gradientUnits="userSpaceOnUse" id="linearGradient3892" x1="48.028927" x2="48.028927" y1="19.297964" y2="72.240189">
<stop offset="0" stop-color="#ffffff" stop-opacity="1"/>
<stop offset="1" stop-color="#ffffff" stop-opacity="0.78431374"/>
</linearGradient>
<linearGradient gradientTransform="matrix(0,1,-1,0,95.999977,-2.3740639e-5)" gradientUnits="userSpaceOnUse" id="linearGradient3896" x1="48.028927" x2="48.028927" xlink:actuate="onLoad" xlink:show="other" xlink:type="simple" y1="19.297964" y2="72.240189">
<stop offset="0" stop-color="#4fa952" stop-opacity="1"/>
<stop offset="1" stop-color="#4ba249" stop-opacity="1"/>
</linearGradient>
</defs>
<path d="M 66.0 19.0 C 56.369 19.0 53.0 22.369 53.0 32.0 C 53.0 41.631 56.369 45.0 66.0 45.0 C 75.632 45.0 79.0 41.631 79.0 32.0 C 79.0 22.369 75.632 19.0 66.0 19.0 z M 33.25 23.40625 C 33.063 23.44125 32.863243 23.48625 32.65625 23.53125 C 30.97125 23.91625 28.591497 24.70475 26.9375 26.34375 C 26.6935 26.58175 26.48325 26.82275 26.28125 27.09375 C 26.21825 27.17975 26.15175 27.291 26.09375 27.375 C 25.95875 27.576 25.83275 27.785 25.71875 28.0 C 25.66475 28.102001 25.6135 28.17725 25.5625 28.28125 C 25.431498 28.55825 25.319748 28.85525 25.21875 29.15625 C 25.16175 29.328249 25.108501 29.508501 25.0625 29.6875 C 25.0245 29.8335 25.00075 29.975 24.96875 30.125 C 24.92275 30.344 24.87576 30.585499 24.84375 30.8125 C 24.83275 30.8945 24.8215 30.9805 24.8125 31.0625 C 24.221502 36.0055 26.835999 42.973248 32.125 50.40625 C 34.276 53.41425 36.01025 55.626247 38.15625 57.78125 C 40.17425 59.90425 43.258 62.29725 45.625 64.03125 C 56.558 71.996254 65.54 73.548996 69.625 69.5 C 71.134 68.006 71.9855 65.67375 72.4375 63.96875 C 72.5035 63.70875 72.573 63.44175 72.625 63.21875 C 72.636 63.12075 72.625 63.0375 72.625 62.9375 C 72.63 62.1615 72.33575 61.4625 71.84375 60.9375 C 71.65575 60.7795 71.47025 60.62175 71.28125 60.46875 C 69.28825 58.84775 67.344 57.55275 65.625 56.59375 C 64.912 56.19575 64.20575 55.8415 63.59375 55.5625 C 63.23575 55.4025 62.8555 55.3125 62.4375 55.3125 C 62.0625 55.3085 61.706 55.373 61.375 55.5 C 61.257 55.557 61.113 55.60525 61.0 55.65625 C 57.747 57.15425 56.4865 57.753754 54.1875 58.71875 C 52.9235 58.96875 48.70475 56.9575 43.96875 52.1875 C 43.49775 51.708504 43.06925 51.23825 42.65625 50.78125 C 42.58925 50.70325 42.5045 50.6385 42.4375 50.5625 C 42.0455 50.1215 41.68175 49.70125 41.34375 49.28125 C 41.29475 49.22225 41.2355 49.15475 41.1875 49.09375 C 40.4935 48.22075 39.9185 47.40825 39.4375 46.65625 C 39.4115 46.61325 39.399 46.57425 39.375 46.53125 C 39.139 46.15625 38.90675 45.7775 38.71875 45.4375 C 38.70975 45.4175 38.6965 45.42225 38.6875 45.40625 C 38.3065 44.70525 38.03275 44.06125 37.84375 43.53125 C 37.83775 43.51725 37.84775 43.514 37.84375 43.5 C 37.74975 43.236 37.673 42.99425 37.625 42.78125 C 37.932 42.09525 39.145 39.412 40.75 36.0 C 40.778 35.939 40.81375 35.8735 40.84375 35.8125 C 41.52975 34.3925 41.03575 33.127 40.96875 32.875 C 40.85875 32.615005 40.744 32.356747 40.625 32.09375 C 39.723 30.134752 38.4595 28.057 36.9375 26.0 C 36.6665 25.633 36.415 25.270252 36.125 24.90625 C 35.912 24.63625 35.69075 24.359749 35.46875 24.09375 C 34.96075 23.65975 34.31275 23.41025 33.59375 23.40625 C 33.48475 23.40425 33.355 23.39425 33.25 23.40625 z " fill="url(#linearGradient3896)" fill-opacity="1"/>
<path d="M 66.0 19.0 C 56.369 19.0 53.0 22.369 53.0 32.0 C 53.0 41.631 56.369 45.0 66.0 45.0 C 75.632 45.0 79.0 41.631 79.0 32.0 C 79.0 22.369 75.632 19.0 66.0 19.0 z M 33.25 23.40625 C 33.063 23.44125 32.863243 23.48625 32.65625 23.53125 C 30.97125 23.91625 28.591497 24.70475 26.9375 26.34375 C 26.6935 26.58175 26.48325 26.82275 26.28125 27.09375 C 26.21825 27.17975 26.15175 27.291 26.09375 27.375 C 25.95875 27.576 25.83275 27.785 25.71875 28.0 C 25.66475 28.102001 25.6135 28.17725 25.5625 28.28125 C 25.431498 28.55825 25.319748 28.85525 25.21875 29.15625 C 25.16175 29.328249 25.108501 29.508501 25.0625 29.6875 C 25.0245 29.8335 25.00075 29.975 24.96875 30.125 C 24.92275 30.344 24.87576 30.585499 24.84375 30.8125 C 24.83275 30.8945 24.8215 30.9805 24.8125 31.0625 C 24.221502 36.0055 26.835999 42.973248 32.125 50.40625 C 34.276 53.41425 36.01025 55.626247 38.15625 57.78125 C 40.17425 59.90425 43.258 62.29725 45.625 64.03125 C 56.558 71.996254 65.54 73.548996 69.625 69.5 C 71.134 68.006 71.9855 65.67375 72.4375 63.96875 C 72.5035 63.70875 72.573 63.44175 72.625 63.21875 C 72.636 63.12075 72.625 63.0375 72.625 62.9375 C 72.63 62.1615 72.33575 61.4625 71.84375 60.9375 C 71.65575 60.7795 71.47025 60.62175 71.28125 60.46875 C 69.28825 58.84775 67.344 57.55275 65.625 56.59375 C 64.912 56.19575 64.20575 55.8415 63.59375 55.5625 C 63.23575 55.4025 62.8555 55.3125 62.4375 55.3125 C 62.0625 55.3085 61.706 55.373 61.375 55.5 C 61.257 55.557 61.113 55.60525 61.0 55.65625 C 57.747 57.15425 56.4865 57.753754 54.1875 58.71875 C 52.9235 58.96875 48.70475 56.9575 43.96875 52.1875 C 43.49775 51.708504 43.06925 51.23825 42.65625 50.78125 C 42.58925 50.70325 42.5045 50.6385 42.4375 50.5625 C 42.0455 50.1215 41.68175 49.70125 41.34375 49.28125 C 41.29475 49.22225 41.2355 49.15475 41.1875 49.09375 C 40.4935 48.22075 39.9185 47.40825 39.4375 46.65625 C 39.4115 46.61325 39.399 46.57425 39.375 46.53125 C 39.139 46.15625 38.90675 45.7775 38.71875 45.4375 C 38.70975 45.4175 38.6965 45.42225 38.6875 45.40625 C 38.3065 44.70525 38.03275 44.06125 37.84375 43.53125 C 37.83775 43.51725 37.84775 43.514 37.84375 43.5 C 37.74975 43.236 37.673 42.99425 37.625 42.78125 C 37.932 42.09525 39.145 39.412 40.75 36.0 C 40.778 35.939 40.81375 35.8735 40.84375 35.8125 C 41.52975 34.3925 41.03575 33.127 40.96875 32.875 C 40.85875 32.615005 40.744 32.356747 40.625 32.09375 C 39.723 30.134752 38.4595 28.057 36.9375 26.0 C 36.6665 25.633 36.415 25.270252 36.125 24.90625 C 35.912 24.63625 35.69075 24.359749 35.46875 24.09375 C 34.96075 23.65975 34.31275 23.41025 33.59375 23.40625 C 33.48475 23.40425 33.355 23.39425 33.25 23.40625 z " fill="url(#linearGradient3892)" fill-opacity="1"/>
<path d="M 70.558 34.043 L 67.916 31.4 L 63.782 35.535 C 60.978 38.512 65.642 40.0 65.642 40.0 C 55.031 39.255 61.366997 32.0 61.366997 32.0 L 64.940994 28.425 L 62.666996 26.151 L 72.511 24.0 L 70.558 34.043 z " fill="#4ea74f" fill-opacity="1"/>
</svg>
