<?xml version="1.0" encoding="UTF-8"?>
<svg xmlns="http://www.w3.org/2000/svg" xmlns:xlink="http://www.w3.org/1999/xlink" baseProfile="tiny" contentScriptType="text/ecmascript" contentStyleType="text/css" height="30px" preserveAspectRatio="xMidYMid meet" version="1.1" viewBox="0 0 30 30" width="30px" x="0px" y="0px" zoomAndPan="magnify">
<path d="M 27.01088 15.056376 C 27.01088 21.174866 21.638369 26.134884 15.011038 26.134884 C 8.383708 26.134884 3.011196 21.174866 3.011196 15.056376 C 3.011196 8.937886 8.383708 3.97787 15.011038 3.97787 C 21.638369 3.97787 27.01088 8.937886 27.01088 15.056376 z " fill="#cecece" fill-opacity="0" fill-rule="nonzero" stroke="#7cc7fb" stroke-dasharray="none" stroke-miterlimit="4" stroke-opacity="1" stroke-width="0.83854364000000003" transform="matrix(0.91667876,0,0,0.99291362,1.2397005,0.05031878)"/>
<g transform="matrix(0.24441879,0,0,0.24441879,8.6573014,7.4688679)">
<path d="M 25.937008 61.40551 C 37.84252 61.40551 46.311024 59.527557 52.015747 55.133858 C 51.94488 54.81496 51.83858 54.56693 51.661415 54.389763 C 50.952755 53.610237 50.06693 52.937008 49.145668 52.440945 C 46.38189 50.84646 43.476376 49.429134 40.464565 48.22441 C 38.23228 47.338585 36.496063 45.602364 35.291336 43.086617 C 34.75984 41.95276 34.511806 40.74803 34.54724 39.75591 C 34.582672 39.578743 34.688972 39.43701 35.00787 39.11811 C 35.1496 38.976383 35.326767 38.799217 35.4685 38.62205 C 35.929127 38.05512 36.318893 37.417328 36.74409 36.602367 C 37.346455 35.397644 37.736217 34.15749 38.055115 32.917328 C 38.19685 32.49213 38.303143 32.066933 38.44488 31.641735 C 38.48031 31.641735 38.515747 31.641735 38.515747 31.641735 C 39.968506 31.641735 40.53543 29.657486 40.818897 28.55906 L 40.85433 28.48819 C 40.9252 28.240158 41.031494 27.92126 41.13779 27.566929 C 41.45669 26.574802 41.88189 25.228348 42.059055 24.059055 C 42.34252 22.393702 41.988186 21.366142 41.06693 20.940945 C 41.17323 20.515747 41.562992 18.496063 41.633858 18.035437 C 41.811024 17.114174 41.88189 16.334646 41.88189 15.55512 C 41.88189 15.2007885 41.88189 14.8464575 41.88189 14.492127 C 41.917324 14.173228 41.208664 9.637795 40.429134 7.866142 C 39.755905 6.484252 38.799213 4.7125983 37.13386 3.7559056 C 35.82284 2.976378 34.37008 2.551181 32.952755 2.1259842 C 32.598427 2.019685 32.27953 1.9133856 31.96063 1.8070866 C 31.535433 1.7007872 31.110235 1.523622 30.68504 1.3818897 C 28.665356 0.7086614 26.574804 0.03543307 24.413383 0.03543307 C 24.12992 0.03543307 23.846457 0.03543307 23.562992 0.07086614 C 22.641731 0.14173228 21.862206 0.42519683 21.11811 0.70866144 C 20.65748 0.8503937 20.267715 1.027559 19.84252 1.1338582 C 19.700788 1.1692913 19.559055 1.1692913 19.346457 1.1692913 C 19.204723 1.1692913 19.02756 1.1692913 18.850391 1.1338582 C 18.67323 1.1338582 18.460629 1.1338582 18.248032 1.1338582 C 18.0 1.1338582 17.716536 1.1338582 17.503937 1.2047242 C 16.192913 1.4527557 15.661418 2.4448814 15.34252 3.0472438 C 15.200788 3.3307085 15.129921 3.614173 15.094488 3.8267713 C 15.059058 3.8976376 15.059058 3.9685037 15.059058 4.003937 C 14.988188 4.0393696 14.917326 4.0393696 14.84646 4.0393696 C 14.669295 4.0393696 14.527562 4.0748024 14.38583 4.1102357 C 12.968507 4.3937 12.330711 5.5275583 11.834649 6.448818 L 11.728347 6.661417 C 10.559055 8.787401 9.885827 13.818897 9.92126 14.102362 C 9.92126 14.279527 9.92126 14.669291 9.92126 15.165354 C 9.92126 15.909448 9.92126 16.653543 9.956693 16.97244 C 9.956693 18.425196 10.133858 19.842518 10.523622 21.259842 C 10.417322 21.330711 10.311024 21.437006 10.204724 21.543306 C 9.673227 22.251968 9.6377945 23.527555 10.098424 25.334644 C 10.098424 25.405514 10.133854 25.582676 10.204724 25.830708 C 10.948818 29.374014 11.622046 31.358269 12.897637 31.606297 C 12.968508 31.854328 13.03937 32.13779 13.110235 32.421257 C 13.464566 33.59055 13.783464 34.830708 14.350393 36.03543 C 15.023622 37.488186 15.732284 38.551174 16.582676 39.401573 C 17.07874 39.82677 16.72441 41.031494 16.511806 41.88189 C 16.440937 42.05905 16.405508 42.236217 16.370075 42.413383 C 16.015745 43.901573 15.27165 45.212597 14.208658 46.24015 C 13.0748 47.374012 11.586611 47.976376 10.062988 48.649605 C 9.673224 48.791336 9.318894 48.933067 8.929131 49.110233 L 8.4685 49.32283 C 5.952756 50.421257 3.3661416 51.59055 1.1338583 53.22047 C 0.5669291 53.645668 0.17716536 54.70866 0.0 55.24015 C 5.7401576 59.598423 14.137795 61.40551 25.937008 61.40551 z " fill="#7cc7fb" fill-opacity="1" fill-rule="nonzero" stroke="none"/>
</g>
</svg>
