<?xml version="1.0" encoding="UTF-8"?>
<svg xmlns="http://www.w3.org/2000/svg" xmlns:xlink="http://www.w3.org/1999/xlink" baseProfile="tiny" contentScriptType="text/ecmascript" contentStyleType="text/css" height="96px" preserveAspectRatio="xMidYMid meet" version="1.1" viewBox="0 0 96 96" width="96px" x="0px" y="0px" zoomAndPan="magnify">
<defs>
<linearGradient id="linearGradient3824">
<stop offset="0" stop-color="#20970b" stop-opacity="1"/>
<stop offset="1" stop-color="#20850b" stop-opacity="1"/>
</linearGradient>
<linearGradient gradientTransform="matrix(0,1,-1,0,96.023001,-0.0230015)" gradientUnits="userSpaceOnUse" id="linearGradient3830" x1="8.023003" x2="88.023" y1="48" y2="48">
<stop offset="0" stop-color="#20970b" stop-opacity="1"/>
<stop offset="1" stop-color="#20850b" stop-opacity="1"/>
</linearGradient>
</defs>
<path d="M 88.023 49.0 C 88.023 78.633 77.66 89.0 48.023003 89.0 C 18.388002 89.0 8.023003 78.633 8.023003 49.0 C 8.023003 19.365 18.388002 9.0 48.023003 9.0 C 77.66 9.0 88.023 19.365 88.023 49.0 z " fill-opacity="0.4" stroke-opacity="0.4"/>
<rect fill="none" height="80" width="80" x="7.977" y="8"/>
<linearGradient gradientTransform="matrix(1 0 0 1 -601.8008 -498.1992)" gradientUnits="userSpaceOnUse" x1="649.8232" x2="649.8232" y1="586.2002" y2="506.4244">
<stop offset="0" stop-color="#004c00"/>
<stop offset="1" stop-color="#42a519"/>
</linearGradient>
<path d="M 48.023 88.0 C 18.39 88.0 8.022999 77.637 8.022999 48.000004 C 8.022999 18.365004 18.39 8.000004 48.023 8.000004 C 77.658 8.000004 88.022995 18.365004 88.022995 48.000004 C 88.022995 77.637 77.658 88.0 48.022995 88.0 z " fill="url(#linearGradient3830)" fill-opacity="1"/>
<g fill-opacity="0.25" stroke-opacity="0.25">
<linearGradient gradientTransform="matrix(1 0 0 1 -601.8008 -498.1992)" gradientUnits="userSpaceOnUse" id="SVGID_2_" x1="649.7773" x2="649.7773" y1="506.4531" y2="585.6982">
<stop offset="0" stop-color="#ffffff"/>
<stop offset="1" stop-color="#ffffff" stop-opacity="0"/>
</linearGradient>
<path d="M 47.977 8.0 C 18.342 8.0 7.977001 18.365 7.977001 48.0 C 7.977001 77.633 18.342 88.0 47.977 88.0 C 77.613 88.0 87.977005 77.633 87.977005 48.0 C 87.977 18.365 77.613 8.0 47.977 8.0 z M 47.977 87.0 C 18.819 87.0 8.977001 77.158 8.977001 48.0 C 8.977001 18.842005 18.819 9.0 47.977 9.0 C 77.135 9.0 86.977005 18.842 86.977005 48.0 C 86.977005 77.158005 77.135 87.0 47.977 87.0 z " fill="url(#SVGID_2_)"/>
</g>
<rect fill="none" height="96" width="96"/>
<path d="M 48.035 74.703 C 46.791 74.703 45.531 74.607 44.289 74.41901 L 42.164 74.09701 L 42.164 61.056 L 45.233 61.774 C 46.186 61.998997 47.129 62.113 48.035004 62.113 C 54.793003 62.113 60.291004 56.615997 60.291004 49.858 C 60.291004 48.310997 59.986004 46.748997 59.40601 45.307 L 58.192005 45.990997 C 57.586006 46.329 56.959003 46.500996 56.328007 46.502 C 55.432007 46.502 54.632008 46.173 54.01301 45.549 C 53.348007 44.882 52.99801 43.98 53.00401 42.941 L 53.05301 27.836998 C 53.06501 25.525995 54.71701 24.318998 56.34301 24.318998 C 57.01301 24.318998 57.67001 24.510998 58.29601 24.891 L 71.22401 32.69 C 72.38801 33.397 73.04401 34.508 73.02401 35.739 C 73.003006 36.968 72.31401 38.052 71.13201 38.713997 L 70.42301 39.111996 C 72.029015 42.45499 72.877014 46.160995 72.877014 49.858994 C 72.877 63.558 61.733 74.703 48.035 74.703 z " fill-opacity="0.05" stroke-opacity="0.05"/>
<path d="M 48.035 74.203 C 46.815 74.203 45.58 74.109 44.363 73.925 L 42.664 73.667 L 42.664 61.687 L 45.118996 62.261 C 46.108997 62.494003 47.089996 62.613003 48.034996 62.613003 C 55.067997 62.613003 60.790997 56.891003 60.790997 49.858 C 60.790997 48.050003 60.395996 46.243 59.645996 44.598 L 57.946995 45.554 C 57.416996 45.85 56.872993 46.0 56.327995 46.001 C 55.567997 46.001 54.889996 45.723 54.366997 45.195 C 53.797997 44.625 53.498997 43.845 53.504 42.941 L 53.553 27.836 C 53.562996 25.855 54.963997 24.816998 56.343 24.816998 C 56.92 24.816998 57.49 24.984997 58.037 25.316998 L 70.965 33.116997 C 71.974 33.727997 72.54099 34.679996 72.523994 35.728996 C 72.506 36.775 71.91 37.702995 70.88799 38.27399 L 69.76599 38.906994 C 71.47599 42.29499 72.37699 46.068993 72.37699 49.856995 C 72.377 63.281 61.457 74.203 48.035 74.203 z " fill-opacity="0.05" stroke-opacity="0.05"/>
<path d="M 48.035 73.703 C 46.84 73.703 45.63 73.611 44.439 73.431 L 43.164 73.238 L 43.164 62.318 L 45.005997 62.749 C 46.034996 62.991 47.053997 63.113 48.034996 63.113 C 55.344997 63.113 61.290997 57.167 61.290997 49.858 C 61.290997 47.790997 60.799995 45.741997 59.865 43.901997 L 57.701996 45.118996 C 57.247997 45.372997 56.785995 45.500996 56.326996 45.501995 C 55.703995 45.501995 55.14899 45.27399 54.721996 44.84399 C 54.248997 44.369995 53.999996 43.712994 54.004 42.945995 L 54.053 27.838997 C 54.060997 26.184996 55.211 25.318996 56.343 25.318996 C 56.826 25.318996 57.31 25.462994 57.778 25.746994 L 70.708 33.547993 C 71.56 34.06399 72.039 34.856995 72.024 35.72399 C 72.009 36.58699 71.506004 37.35899 70.644005 37.840992 L 69.1 38.708 C 70.918 42.136 71.877 45.98 71.877 49.857 C 71.877 63.006 61.182 73.703 48.035 73.703 z " fill-opacity="0.05" stroke-opacity="0.05"/>
<path d="M 48.035 73.203 C 46.863 73.203 45.68 73.11301 44.514 72.936005 L 43.664 72.80701 L 43.664 62.94801 L 44.893 63.235004 C 45.957 63.485004 47.016003 63.612003 48.036003 63.612003 C 55.621 63.612003 61.792004 57.442 61.792004 49.857 C 61.792004 47.529003 61.197 45.243004 60.067005 43.214 L 57.458004 44.682 C 57.08 44.893 56.7 45.0 56.326 45.001 C 55.84 45.001 55.408 44.824 55.076 44.49 C 54.699 44.112 54.501 43.578 54.504 42.947 L 54.553 27.839 C 54.56 26.45 55.486 25.818 56.343 25.818 C 56.735 25.818 57.13 25.936998 57.519 26.172998 L 70.45 33.974 C 71.144 34.395 71.536 35.029 71.523994 35.712 C 71.51199 36.393997 71.102 37.009 70.399994 37.401997 L 68.424995 38.511997 C 70.357994 41.977997 71.377 45.888996 71.377 49.857 C 71.377 62.73 60.906 73.203 48.035 73.203 z " fill-opacity="0.05" stroke-opacity="0.05"/>
<path d="M 48.035 72.703 C 46.888 72.703 45.728 72.615005 44.59 72.442 L 44.164 72.378 L 44.164 63.579 L 44.778 63.723 C 45.882 63.982 46.977 64.113 48.035 64.113 C 55.895 64.113 62.291 57.718 62.291 49.858 C 62.291 47.268 61.587 44.747997 60.251 42.538 L 57.212 44.247 C 56.911 44.415997 56.613 44.501 56.324997 44.502 C 55.976 44.502 55.666996 44.376 55.429996 44.139 C 55.149 43.857 55.000996 43.446 55.003 42.951 L 55.052 27.843 C 55.057 26.79 55.703 26.32 56.342 26.32 C 56.64 26.32 56.948 26.415 57.259 26.603 L 70.19 34.404 C 70.728004 34.73 71.032005 35.205 71.023 35.707 C 71.014 36.205 70.698006 36.665 70.15501 36.969 L 67.741005 38.327003 C 69.79401 41.825005 70.87701 45.802 70.87701 49.860004 C 70.877 62.454 60.63 72.703 48.035 72.703 z " fill-opacity="0.05" stroke-opacity="0.05"/>
<path d="M 70.377 49.857 C 70.377 62.177 60.355 72.203 48.035 72.203 C 46.892 72.203 45.764 72.115005 44.664 71.948006 L 44.664 64.21 C 45.75 64.464 46.875 64.612 48.035 64.612 C 56.176 64.612 62.791 57.992 62.791 49.857 C 62.791 46.912 61.918 44.169 60.421 41.866997 L 56.967003 43.81 C 56.159004 44.262997 55.500004 43.878 55.504 42.950996 L 55.553 27.841995 C 55.557003 26.916996 56.207 26.547997 57.001 27.028996 L 69.932 34.830994 C 70.728 35.311993 70.722 36.076992 69.910995 36.529995 L 67.047 38.14199 C 69.154 41.552 70.377 45.563 70.377 49.857 z " fill-opacity="0.05" stroke-opacity="0.05"/>
<path d="M 39.707 75.683 C 39.039 75.683 38.381 75.491 37.755 75.112 L 24.819 67.308 C 23.661 66.612 23.006 65.506996 23.023 64.277 C 23.043 63.042 23.731 61.954 24.914 61.29 L 25.756 60.817 C 24.078 57.417 23.193 53.639 23.193 49.858 C 23.193 36.160004 34.337 25.015 48.036003 25.015 C 49.292004 25.015 50.554005 25.111002 51.787003 25.3 L 53.910004 25.622002 L 53.910004 38.673 L 50.83 37.94 C 49.889 37.717 48.948 37.604 48.035004 37.604 C 41.278004 37.604 35.78101 43.101 35.78101 49.857 C 35.78101 51.486004 36.117004 53.125004 36.757008 54.628 L 37.854008 54.011 C 38.45601 53.671 39.083008 53.499 39.71901 53.499 C 40.61301 53.499 41.41201 53.828 42.03201 54.451 C 42.69601 55.117 43.04601 56.019 43.04301 57.061 L 42.998013 72.167 C 42.987 74.476 41.334 75.683 39.707 75.683 z " fill-opacity="0.05" stroke-opacity="0.05"/>
<path d="M 39.707 75.183 C 39.131 75.183 38.561 75.015 38.014 74.684 L 25.078 66.88 C 24.075 66.277 23.509 65.33099 23.523 64.283 C 23.539 63.230995 24.134 62.299995 25.158 61.725 L 26.418 61.017 C 24.634 57.575996 23.692 53.727997 23.692 49.857 C 23.692 36.434 34.612 25.513998 48.035 25.513998 C 49.265 25.513998 50.502 25.607998 51.71 25.792995 L 53.409 26.050997 L 53.409 38.04 L 50.946 37.454 C 49.967 37.222004 48.988 37.104004 48.035 37.104004 C 41.002 37.104004 35.281 42.825005 35.281 49.857 C 35.281 51.747 35.711 53.628 36.525 55.332 L 38.098 54.447 C 38.625 54.15 39.17 54.0 39.719 54.0 C 40.477 54.0 41.154003 54.278 41.677 54.805 C 42.246 55.375 42.545 56.156 42.542004 57.061 L 42.497005 72.167 C 42.488 74.146 41.088 75.183 39.707 75.183 z " fill-opacity="0.05" stroke-opacity="0.05"/>
<path d="M 39.707 74.683 C 39.223 74.683 38.74 74.539 38.272 74.256 L 25.335 66.451996 C 24.488998 65.94299 24.011 65.155 24.022 64.28999 C 24.036 63.420994 24.538 62.645992 25.402 62.161995 L 27.088 61.213993 C 25.192 57.733994 24.192 53.817993 24.192 49.85799 C 24.192 36.71199 34.888 26.014994 48.035 26.014994 C 49.239 26.014994 50.451 26.106993 51.635 26.287994 L 52.908997 26.480995 L 52.908997 37.406994 L 51.061996 36.967995 C 50.045 36.726994 49.026997 36.604996 48.034996 36.604996 C 40.726 36.604996 34.781 42.548996 34.781 49.85799 C 34.781 52.006992 35.31 54.12899 36.314 56.024994 L 38.343 54.882996 C 38.794 54.62899 39.255997 54.499996 39.718 54.499996 C 40.338997 54.499996 40.893997 54.727997 41.322 55.157 C 41.795 55.631996 42.045 56.289997 42.042 57.058 L 41.997 72.164 C 41.99 73.818 40.84 74.683 39.707 74.683 z " fill-opacity="0.05" stroke-opacity="0.05"/>
<path d="M 39.707 74.183 C 39.316 74.183 38.92 74.064 38.531 73.829 L 25.593002 66.025 C 24.904003 65.61 24.513002 64.98 24.523005 64.297005 C 24.533005 63.612003 24.943005 62.993004 25.647003 62.599007 L 27.768003 61.40601 C 25.754004 57.890007 24.692003 53.909004 24.692003 49.85801 C 24.692003 36.987007 35.164 26.515003 48.035004 26.515003 C 49.214005 26.515003 50.400005 26.605003 51.559 26.783005 L 52.409 26.912004 L 52.409 36.775005 L 51.178 36.48201 C 50.123 36.23201 49.066 36.105007 48.035 36.105007 C 40.451 36.105007 34.281 42.27401 34.281 49.85801 C 34.281 52.26801 34.915997 54.62701 36.121 56.708008 L 38.588997 55.319008 C 38.963 55.107 39.344 55.0 39.719 55.0 C 40.203003 55.0 40.636 55.176 40.968 55.51 C 41.346 55.889 41.544003 56.422997 41.542004 57.057 L 41.497005 72.163 C 41.491 73.551 40.564 74.183 39.707 74.183 z " fill-opacity="0.05" stroke-opacity="0.05"/>
<path d="M 39.707 73.683 C 39.408 73.683 39.1 73.588 38.789 73.401 L 25.852 65.597 C 25.318 65.276 25.015 64.805 25.023 64.304 C 25.031 63.803 25.347 63.34 25.892 63.034 L 28.457 61.591 C 26.319 58.043 25.191 53.998 25.191 49.858 C 25.191 37.263 35.438 27.015 48.034 27.015 C 49.187 27.015 50.348 27.103 51.483 27.277 L 51.908 27.341 L 51.908 36.142 L 51.292 35.996 C 50.2 35.736 49.104 35.605 48.034 35.605 C 40.175 35.605 33.78 41.999 33.78 49.858 C 33.78 52.529003 34.525997 55.121 35.942 57.381 L 38.832996 55.754 C 39.132996 55.585003 39.430996 55.5 39.717995 55.5 C 40.066994 55.5 40.375996 55.625 40.612995 55.862 C 40.894997 56.145 41.042995 56.557 41.041996 57.054 L 40.997 72.16 C 40.992 73.213 40.346 73.683 39.707 73.683 z " fill-opacity="0.05" stroke-opacity="0.05"/>
<path d="M 40.497 72.159 C 40.493 73.088 39.84 73.45 39.048 72.972 L 26.111 65.168 C 25.316 64.69 25.33 63.923 26.136 63.469 L 29.157 61.770996 C 26.969 58.323 25.692 54.240997 25.692 49.856995 C 25.692 37.536995 35.716 27.513994 48.035 27.513994 C 49.181 27.513994 50.308 27.601994 51.409 27.769997 L 51.409 35.507996 C 50.326 35.249996 49.199 35.103996 48.035 35.103996 C 39.902 35.103996 33.281 41.722996 33.281 49.856995 C 33.281 52.88599 34.205 55.702995 35.78 58.045994 L 39.079 56.188995 C 39.886997 55.734997 40.545 56.124996 40.542 57.05199 L 40.497 72.159 z " fill-opacity="0.05" stroke-opacity="0.05"/>
<linearGradient gradientTransform="matrix(1 0 0 -1 -300.9004 -120.5996)" gradientUnits="userSpaceOnUse" x1="357.9951" x2="357.9951" y1="-194.0156" y2="-141.8053">
<stop offset="0" stop-color="#d0cbc5"/>
<stop offset="0.5031" stop-color="#fafcef"/>
<stop offset="0.9693" stop-color="#ffffff"/>
<stop offset="1" stop-color="#ffffff"/>
</linearGradient>
<path d="M 69.878 49.368 C 69.878 61.688 59.855 71.714005 47.536 71.714005 C 46.393 71.714005 45.265 71.62601 44.165 71.45901 L 44.165 63.72101 C 45.251 63.97501 46.376 64.12301 47.536 64.12301 C 55.677 64.12301 62.292 57.50301 62.292 49.368008 C 62.292 46.423008 61.419 43.680008 59.921 41.37801 L 56.468 43.321007 C 55.659004 43.77401 55.001003 43.389008 55.005 42.46201 L 55.054 27.353004 C 55.058 26.428003 55.708 26.059004 56.501 26.539003 L 69.433 34.342007 C 70.228 34.82301 70.222 35.588005 69.412 36.041008 L 66.548996 37.652008 C 68.655 41.063 69.878 45.073 69.878 49.368 z " fill="#ffffff" fill-opacity="1"/>
<linearGradient gradientTransform="matrix(1 0 0 -1 -300.9004 -120.5996)" gradientUnits="userSpaceOnUse" x1="338.8672" x2="338.8672" y1="-195.0068" y2="-142.4705">
<stop offset="0" stop-color="#d0cbc5"/>
<stop offset="0.5031" stop-color="#fafcef"/>
<stop offset="0.9693" stop-color="#ffffff"/>
<stop offset="1" stop-color="#ffffff"/>
</linearGradient>
<path d="M 39.997 71.67 C 39.993 72.599 39.34 72.961 38.548 72.483 L 25.611 64.68 C 24.817 64.202 24.83 63.435 25.637 62.981 L 28.657 61.282997 C 26.469 57.835 25.192 53.753 25.192 49.368996 C 25.192 37.048996 35.216 27.026997 47.536 27.026997 C 48.681 27.026997 49.809 27.113997 50.909 27.281996 L 50.909 35.020996 C 49.827 34.762997 48.7 34.615 47.536 34.615 C 39.403 34.615 32.781998 41.234997 32.781998 49.368996 C 32.781998 52.397995 33.705997 55.214996 35.28 57.557995 L 38.579 55.700996 C 39.388 55.247 40.046 55.636997 40.042 56.563995 L 39.997 71.67 z " fill="#ffffff" fill-opacity="1"/>
</svg>
