<?xml version="1.0" encoding="UTF-8"?>
<svg xmlns="http://www.w3.org/2000/svg" xmlns:xlink="http://www.w3.org/1999/xlink" baseProfile="tiny" contentScriptType="text/ecmascript" contentStyleType="text/css" height="30px" preserveAspectRatio="xMidYMid meet" version="1.1" viewBox="0 0 30 30" width="30px" x="0px" y="0px" zoomAndPan="magnify">
<rect color="#000000" display="inline" fill="#353535" fill-opacity="0.58823529" fill-rule="nonzero" height="27.533897" ry="4.7137108" stroke="none" visibility="visible" width="27.533897" x="1.2330513" y="1.2330513"/>
<path d="M 23.307692 8.769231 L 6.6923084 8.769231 C 6.311538 8.769231 6.0 9.080769 6.0 9.461538 L 6.0 20.538462 C 6.0 20.919231 6.3115387 21.23077 6.6923075 21.23077 L 23.30769 21.23077 C 23.68846 21.230768 24.0 20.919231 24.0 20.53846 L 24.0 9.461538 C 24.0 9.080769 23.68846 8.769231 23.307692 8.769231 z M 19.5 9.461538 L 20.884617 9.461538 L 20.884617 10.846154 L 19.5 10.846154 L 19.5 9.461538 z M 17.423077 9.461538 L 18.807692 9.461538 L 18.807692 10.846154 L 17.423077 10.846154 L 17.423077 9.461538 z M 15.346153 9.461538 L 16.730768 9.461538 L 16.730768 10.846154 L 15.346153 10.846154 L 15.346153 9.461538 z M 11.192307 9.461538 L 12.576922 9.461538 L 12.576922 10.846154 L 11.192307 10.846154 L 11.192307 9.461538 z M 9.115384 9.461538 L 10.5 9.461538 L 10.5 10.846154 L 9.115385 10.846154 L 9.115385 9.461538 z M 7.0384617 9.461538 L 8.423077 9.461538 L 8.423077 10.846154 L 7.038461 10.846154 L 7.038461 9.461538 z M 7.038461 11.538462 L 14.307692 11.538462 L 14.307692 18.461538 L 7.038461 18.461538 L 7.038461 11.538462 z M 8.423077 20.538462 L 7.038461 20.538462 L 7.038461 19.153849 L 8.423077 19.153849 L 8.423077 20.538462 z M 10.5 20.538462 L 9.115385 20.538462 L 9.115385 19.153849 L 10.5 19.153849 L 10.5 20.538462 z M 12.576923 20.538462 L 11.192308 20.538462 L 11.192308 19.153849 L 12.576923 19.153849 L 12.576923 20.538462 z M 14.653847 20.538462 L 13.269232 20.538462 L 13.269232 19.153849 L 14.653847 19.153849 L 14.653847 20.538462 z M 14.653847 10.846154 L 13.269232 10.846154 L 13.269232 9.461538 L 14.653847 9.461538 L 14.653847 10.846154 z M 16.73077 20.538462 L 15.346155 20.538462 L 15.346155 19.153849 L 16.73077 19.153849 L 16.73077 20.538462 z M 18.807692 20.538462 L 17.42308 20.538462 L 17.42308 19.153849 L 18.807692 19.153849 L 18.807692 20.538462 z M 20.884617 20.538462 L 19.500002 20.538462 L 19.500002 19.153849 L 20.884617 19.153849 L 20.884617 20.538462 z M 22.96154 20.538462 L 21.576923 20.538462 L 21.576923 19.153849 L 22.96154 19.153849 L 22.96154 20.538462 z M 22.96154 18.461538 L 15.69231 18.461538 L 15.69231 11.538462 L 22.96154 11.538462 L 22.96154 18.461538 z M 22.96154 10.846154 L 21.576923 10.846154 L 21.576923 9.461538 L 22.96154 9.461538 L 22.96154 10.846154 z " fill="#dedede"/>
</svg>
