<?xml version="1.0" encoding="UTF-8"?>
<svg xmlns="http://www.w3.org/2000/svg" xmlns:xlink="http://www.w3.org/1999/xlink" baseProfile="tiny" contentScriptType="text/ecmascript" contentStyleType="text/css" height="27px" preserveAspectRatio="xMidYMid meet" version="1.1" viewBox="0 0 27 27" width="27px" x="0px" y="0px" zoomAndPan="magnify">
<rect fill="none" height="27" width="27"/>
<linearGradient gradientTransform="matrix(1 0 0 -1 0.04 26.1543)" gradientUnits="userSpaceOnUse" x1="12.4595" x2="12.4595" xlink:actuate="onLoad" xlink:show="other" xlink:type="simple" y1="2.9883" y2="23.9065">
<stop offset="0" stop-color="#d0cbc5"/>
<stop offset="1" stop-color="#fcfcf9"/>
</linearGradient>
<path d="M 3.875 1.9375 L 3.875 1.96875 C 3.045503 2.12575 2.40625 2.9485 2.40625 3.9375 L 2.40625 20.90625 C 2.40625 22.005749 3.262977 22.9375 4.3125 22.9375 L 10.21875 22.9375 L 10.21875 15.8125 C 10.221434 15.628451 10.264085 15.447185 10.34375 15.28125 C 10.157413 14.886539 10.186785 14.4238 10.421533 14.055817 C 10.656281 13.687833 11.063523 13.466149 11.5 13.46875 L 15.65625 13.46875 C 16.543077 12.713987 17.21592 12.066169 17.5625 11.59375 C 17.973831 11.033068 18.187494 10.499486 18.1875 10.0 C 18.187494 9.476046 17.999603 9.016176 17.625 8.65625 C 17.250383 8.296342 16.758553 8.12501 16.15625 8.125 C 15.519658 8.125009 15.006951 8.305558 14.625 8.6875 C 14.243045 9.069465 14.067422 9.6054945 14.0625 10.28125 L 12.6875 10.125 C 12.78054 9.111363 13.142786 8.343817 13.75 7.8125 C 14.357202 7.281207 15.164059 7.031258 16.1875 7.03125 C 17.220722 7.031263 18.022684 7.333332 18.625 7.90625 C 19.227304 8.479188 19.531246 9.184107 19.53125 10.03125 C 19.531244 10.462179 19.457533 10.865026 19.28125 11.28125 C 19.10496 11.697487 18.815134 12.164704 18.40625 12.625 C 18.196228 12.861431 17.918472 13.144035 17.5625 13.46875 L 23.40625 13.46875 L 23.40625 3.9375 C 23.40625 2.916999 22.721931 2.055998 21.84375 1.9375 L 3.875 1.9375 z M 9.34375 7.03125 L 10.1875 7.03125 L 10.1875 17.84375 L 8.875 17.84375 L 8.875 9.40625 C 8.556702 9.70986 8.141613 10.008903 7.625 10.3125 C 7.10838 10.616112 6.630084 10.848205 6.21875 11.0 L 6.21875 9.71875 C 6.958169 9.371083 7.602902 8.963342 8.15625 8.46875 C 8.709588 7.974179 9.113594 7.496461 9.34375 7.03125 z " fill="#dedede" fill-opacity="1" stroke-opacity="0.29999999999999999"/>
<path d="M 25.943 14.751 L 11.5 14.751 L 18.723 20.307 L 25.943 14.751 z M 11.5 15.801 L 11.5 24.197 C 11.5 24.502 11.751 24.751 12.057 24.751 L 25.387 24.751 C 25.694 24.751 25.944 24.502 25.944 24.197 L 25.944 15.800999 L 18.723 21.357998 L 11.5 15.801 z " fill="#dedede"/>
</svg>
