<?xml version="1.0" encoding="UTF-8"?>
<svg xmlns="http://www.w3.org/2000/svg" xmlns:xlink="http://www.w3.org/1999/xlink" baseProfile="tiny" contentScriptType="text/ecmascript" contentStyleType="text/css" height="57px" preserveAspectRatio="xMidYMid meet" version="1.1" viewBox="0 0 67 57" width="67px" x="0px" y="0px" zoomAndPan="magnify">
<rect fill="#ffffff" fill-opacity="0.70588235" fill-rule="nonzero" height="48" ry="8.2174387" stroke="none" width="48" x="9.4999981" y="5.5000086"/>
<rect color="#000000" display="inline" fill="#3a00aa" fill-opacity="0.58823528999999997" fill-rule="nonzero" height="48" ry="8.2174387" stroke="none" visibility="visible" width="48" x="9.5" y="5.5"/>
<g>
<rect fill="none" height="57" width="67"/>
</g>
<g>
<rect fill="none" height="46" width="46" x="10.5" y="5.5"/>
</g>
<path d="M 34.811543 39.356857 C 34.723885 39.296787 34.59209 39.24161 34.36834 39.207897 L 34.26045 39.19256 C 33.01482 39.01479 32.366253 38.3791 32.333153 37.30266 L 32.315983 36.847195 C 32.3025 36.515556 32.289 36.18392 32.289623 35.852898 C 32.293823 34.10091 33.577557 33.821995 34.193623 33.68837 C 34.441284 33.634422 34.56511 33.607456 34.8048 33.088844 C 34.90717 32.866936 35.03099 32.65238 35.15605 32.44028 C 35.40432 32.018536 35.46072 31.889189 35.429455 31.809498 L 35.353443 31.62253 C 35.138275 31.100246 34.56818 29.714846 36.07128 28.784298 L 36.440315 28.55197 C 36.691032 28.392586 36.942368 28.233202 37.199825 28.084856 C 37.605022 27.851912 37.98325 27.73912 38.355965 27.73912 C 39.20253 27.73912 39.703968 28.293276 40.069935 28.698477 L 40.130627 28.764685 C 40.198677 28.839474 40.257523 28.904455 40.58609 28.904455 C 40.67865 28.904455 40.774895 28.898954 40.873592 28.891577 C 41.062397 28.876854 41.25427 28.873796 41.44675 28.873796 L 41.63127 28.874409 C 42.11248 28.874409 42.225277 28.843758 42.273705 28.783688 C 42.317223 28.728518 42.359535 28.671509 42.401825 28.61511 C 42.68564 28.231367 43.215893 27.518438 44.16483 27.518438 C 44.288048 27.518438 44.41126 27.541727 44.535088 27.566868 L 44.535088 16.677383 C 44.535088 15.893971 43.8994 15.258282 43.11536 15.258282 L 18.981829 15.258282 C 18.198402 15.258282 17.562714 15.893971 17.562714 16.677397 L 17.562714 40.81093 C 17.562714 41.59497 18.198404 42.230656 18.98183 42.230656 L 35.383484 42.230656 C 35.38469 42.207367 35.380985 42.185295 35.383484 42.161995 C 35.4172 41.799095 35.53122 41.503017 35.623783 41.265167 C 35.656273 41.181797 35.7004 41.068382 35.70838 41.026093 C 35.73167 40.824413 35.56371 40.558365 35.287243 40.142742 C 35.13154 39.90858 34.96051 39.649887 34.811543 39.356873 z M 49.429348 36.588524 C 49.41647 36.15942 49.404217 35.730312 49.390102 35.30059 C 49.361916 34.483456 48.809593 34.511658 48.13038 34.408054 C 47.33592 34.28668 47.052708 33.612984 46.67265 32.99752 C 46.200016 32.231873 45.859184 31.696716 46.139328 30.812756 C 46.344685 30.16542 46.39618 29.879145 45.769073 29.513178 C 45.364487 29.277168 44.941517 29.066906 44.52773 28.847446 C 43.87978 28.50355 43.594116 29.09449 43.2306 29.548733 C 42.654373 30.26963 41.78022 30.049557 40.969826 30.113924 C 40.282646 30.167864 39.70212 30.116425 39.22337 29.589804 C 38.73602 29.05342 38.507984 28.748142 37.811604 29.148438 C 37.440125 29.362375 37.082123 29.601452 36.717384 29.826426 C 36.021008 30.257368 36.321995 30.72326 36.5721 31.362623 C 36.91416 32.23677 36.261303 32.859596 35.918633 33.60256 C 35.58638 34.32223 35.21612 34.720684 34.45477 34.885586 C 33.79027 35.02964 33.518093 35.12956 33.51625 35.85537 C 33.51505 36.324932 33.54506 36.79511 33.55915 37.264668 C 33.57877 37.905266 34.03239 37.916912 34.55161 37.995377 C 35.030983 38.067707 35.471127 38.238743 35.819313 38.620033 C 36.19141 39.49725 37.042267 40.167263 36.924572 41.17628 C 36.88167 41.5447 36.63891 41.899628 36.604584 42.276016 C 36.555534 42.803207 38.123005 43.56885 38.573563 43.67981 C 39.120975 43.97037 39.440968 43.16059 39.741344 42.86144 C 40.318188 42.28644 40.902992 42.372875 41.66558 42.34835 C 42.38954 42.32506 43.050972 42.173035 43.617397 42.740063 C 43.93371 43.017757 44.309483 43.80976 44.833607 43.482414 C 45.27803 43.343258 46.79462 42.48382 46.711864 41.95786 C 46.653015 41.58148 46.38636 41.243095 46.319546 40.87161 C 46.23801 40.412464 46.30115 40.002975 46.562298 39.619236 C 46.873703 39.16193 47.011017 38.494976 47.394154 38.11307 C 48.046997 37.462666 49.55991 37.72074 49.429337 36.588512 z M 41.45286 40.69505 C 39.03148 40.69505 37.00794 38.673347 37.00794 36.25135 C 37.00794 33.828743 39.030247 31.805813 41.45286 31.805813 C 43.87547 31.805813 45.89779 33.828743 45.89779 36.25135 C 45.89779 38.672733 43.87425 40.69505 41.45286 40.69505 z " fill="#ffffff" fill-opacity="1" stroke-opacity="0.3"/>
<defs>
<linearGradient gradientUnits="userSpaceOnUse" x1="37.998" x2="37.998" xlink:actuate="onLoad" xlink:show="other" xlink:type="simple" y1="53.4639" y2="7.0005">
<stop offset="0" stop-color="#d0cbc5"/>
<stop offset="0.5031" stop-color="#fafcef"/>
<stop offset="0.9693" stop-color="#ffffff"/>
<stop offset="1" stop-color="#ffffff"/>
</linearGradient>
</defs>
</svg>
