<?xml version="1.0" encoding="UTF-8"?>
<svg xmlns="http://www.w3.org/2000/svg" xmlns:xlink="http://www.w3.org/1999/xlink" baseProfile="tiny" contentScriptType="text/ecmascript" contentStyleType="text/css" height="30px" preserveAspectRatio="xMidYMid meet" version="1.1" viewBox="0 0 30 30" width="30px" x="0px" y="0px" zoomAndPan="magnify">
<rect fill="none" height="30" width="30"/>
<path d="M 15.0 7.001 C 14.4470005 7.001 14.0 7.448 14.0 8.000999 L 14.0 12.276999 C 13.404 12.624 13.0 13.261999 13.0 14.0 C 13.0 15.103 13.894 16.0 15.0 16.0 C 16.104 16.0 17.0 15.103 17.0 14.0 C 17.0 13.2630005 16.596 12.625 16.0 12.277 L 16.0 8.001 C 16.0 7.448 15.553 7.001 15.0 7.001 z M 15.0 3.0 L 20.0 6.0 L 20.0 4.0 C 22.756 4.0 25.0 6.243 25.0 9.0 L 27.0 9.0 C 27.0 5.141 23.859 2.0 20.0 2.0 L 20.0 0.0 L 15.0 3.0 z M 27.342 9.932 C 27.234 9.971 27.121 10.0 27.0 10.0 L 25.0 10.0 C 24.447 10.0 24.0 9.553 24.0 9.0 C 24.0 7.143 22.72 5.59 21.0 5.1429996 L 21.0 6.0 L 20.998 6.013 C 23.424 7.837 25.0 10.73 25.0 14.0 C 25.0 19.522 20.522999 24.0 15.0 24.0 C 9.477001 24.0 5.0 19.522 5.0 14.0 C 5.0 8.564 9.34 4.1499996 14.744 4.0129995 L 14.484 3.8579996 C 14.184 3.677 14.0 3.352 14.0 3.0 C 14.0 2.648 14.184 2.323 14.484 2.1430001 L 16.281 1.0650002 C 15.859 1.023 15.433 1.0 15.0 1.0 C 7.82 1.0 2.0 6.82 2.0 14.0 C 2.0 21.18 7.82 27.0 15.0 27.0 C 22.18 27.0 28.0 21.18 28.0 14.0 C 28.0 12.577 27.764 11.212 27.342 9.932 z " fill-opacity="0.3" stroke-opacity="0.3"/>
<path d="M 15.0 29.0 C 7.28 29.0 1.0 22.72 1.0 15.0 C 1.0 7.2800007 7.28 1.0 15.0 1.0 C 15.448 1.0 15.899 1.022 16.378 1.069 C 16.699 1.1 16.98 1.283 17.139 1.55 L 19.486 0.14199996 C 19.644 0.048 19.822 0.0 20.0 0.0 C 20.17 0.0 20.34 0.043 20.493 0.13 C 20.807 0.308 21.0 0.64 21.0 1.0 L 21.0 2.063 C 24.94 2.556 28.0 5.928 28.0 10.001 C 28.0 10.059 27.995 10.115001 27.985 10.1710005 C 28.126001 10.288 28.233 10.442 28.292 10.620001 C 28.762 12.045 29.0 13.52 29.0 15.0 C 29.0 22.72 22.72 29.0 15.0 29.0 L 15.0 29.0 z " fill-opacity="0.15" stroke-opacity="0.15"/>
<rect fill="none" height="30" width="30"/>
<path d="M 15.0 4.0 L 20.0 7.0 L 20.0 5.0 C 22.756 5.0 25.0 7.243 25.0 10.0 L 27.0 10.0 C 27.0 6.141 23.859 3.0 20.0 3.0 L 20.0 1.0 L 15.0 4.0 z " fill="#dedede"/>
<path d="M 15.0 8.001 C 14.4470005 8.001 14.0 8.448 14.0 9.001 L 14.0 13.277 C 13.404 13.624001 13.0 14.262 13.0 15.0 C 13.0 16.103 13.894 17.0 15.0 17.0 C 16.104 17.0 17.0 16.103 17.0 15.0 C 17.0 14.2630005 16.596 13.625 16.0 13.277 L 16.0 9.001 C 16.0 8.448 15.553 8.001 15.0 8.001 z " fill="#dedede"/>
<path d="M 27.0 11.2 L 25.0 11.2 C 24.532 11.2 24.139 10.926 23.939 10.535 C 24.615 11.879 25.0 13.393 25.0 15.0 C 25.0 20.522 20.522999 25.0 15.0 25.0 C 9.477001 25.0 5.0 20.522 5.0 15.0 C 5.0 9.682 9.157 5.3529997 14.398 5.0389996 L 14.382 5.0289993 C 14.021 4.813 13.8 4.422 13.8 4.0 C 13.8 3.578 14.022 3.187 14.383 2.971 L 15.924001 2.047 C 15.617 2.024 15.312 2.0 15.0 2.0 C 7.82 2.0 2.0 7.82 2.0 15.0 C 2.0 22.18 7.82 28.0 15.0 28.0 C 22.18 28.0 28.0 22.18 28.0 15.0 C 28.0 13.646 27.78 12.347 27.396 11.12 C 27.271 11.164 27.141 11.2 27.0 11.2 z " fill="#dedede"/>
<path d="M 23.886 10.425 C 23.836 10.292 23.8 10.15 23.8 10.0 C 23.8 8.324 22.709 6.8970003 21.199999 6.395 L 21.199999 7.0 C 21.199999 7.057 21.185 7.109 21.178 7.165 C 22.295 8.046 23.226 9.152 23.886 10.425 z " fill="#dedede"/>
</svg>
