<?xml version="1.0" encoding="UTF-8"?>
<svg xmlns="http://www.w3.org/2000/svg" xmlns:xlink="http://www.w3.org/1999/xlink" baseProfile="tiny" contentScriptType="text/ecmascript" contentStyleType="text/css" height="96px" preserveAspectRatio="xMidYMid meet" version="1.1" viewBox="0 -0.024 96 96" width="96px" x="0px" y="0px" zoomAndPan="magnify">
<defs>
<linearGradient xlink:actuate="onLoad" xlink:show="other" xlink:type="simple">
<stop offset="0" stop-color="#01a0f3" stop-opacity="1"/>
<stop offset="1" stop-color="#01a0f3" stop-opacity="0"/>
</linearGradient>
<linearGradient gradientUnits="userSpaceOnUse" id="linearGradient3837" x1="47.457626" x2="47.457626" xlink:actuate="onLoad" xlink:show="other" xlink:type="simple" y1="12.610169" y2="86.646057">
<stop offset="0" stop-color="#01a0f3" stop-opacity="1"/>
<stop offset="1" stop-color="#0189f3" stop-opacity="1"/>
</linearGradient>
</defs>
<path d="M 88.0 49.0 C 88.0 78.633 77.637 89.0 48.0 89.0 C 18.365 89.0 8.0 78.632 8.0 49.0 C 8.0 19.365 18.365 9.0 48.0 9.0 C 77.637 9.0 88.0 19.365 88.0 49.0 z " fill-opacity="0.4" stroke-opacity="0.4"/>
<linearGradient gradientUnits="userSpaceOnUse" x1="47.9995" x2="47.9995" xlink:actuate="onLoad" xlink:show="other" xlink:type="simple" y1="8.5449" y2="89.2393">
<stop offset="0" stop-color="#00bacc"/>
<stop offset="0.2312" stop-color="#01a1bb"/>
<stop offset="0.747" stop-color="#026d98"/>
<stop offset="1" stop-color="#02598b"/>
</linearGradient>
<path d="M 88.0 48.0 C 88.0 77.632 77.637 88.0 48.0 88.0 C 18.365 88.0 8.0 77.632 8.0 48.0 C 8.0 18.365 18.365 8.0 48.0 8.0 C 77.637 8.0 88.0 18.365 88.0 48.0 z " fill="url(#linearGradient3837)" fill-opacity="1"/>
<rect fill="none" height="96" width="96"/>
<linearGradient gradientUnits="userSpaceOnUse" id="SVGID_2_" x1="47.9761" x2="47.9761" xlink:actuate="onLoad" xlink:show="other" xlink:type="simple" y1="8.2534" y2="87.4981">
<stop offset="0" stop-color="#ffffff"/>
<stop offset="1" stop-color="#ffffff" stop-opacity="0"/>
</linearGradient>
<path d="M 47.977 8.0 C 18.359 8.0 8.0 18.365 8.0 48.0 C 8.0 77.632 18.359 88.0 47.977 88.0 C 77.596 88.0 87.954 77.633 87.954 48.0 C 87.953 18.365 77.596 8.0 47.977 8.0 z M 47.977 87.0 C 18.836 87.0 9.0 77.158 9.0 48.0 C 9.0 18.842 18.836 9.0 47.977 9.0 C 77.11801 9.0 86.955 18.842 86.955 48.0 C 86.954 77.158 77.117 87.0 47.977 87.0 z " fill="url(#SVGID_2_)" fill-opacity="0.25" stroke-opacity="0.25"/>
<path d="M 26.0 69.0 C 23.243 69.0 21.0 66.758 21.0 64.0 L 21.0 34.0 C 21.0 31.244 23.243 29.0 26.0 29.0 L 70.0 29.0 C 72.757 29.0 75.0 31.244 75.0 34.0 L 75.0 64.0 C 75.0 66.758 72.757 69.0 70.0 69.0 L 26.0 69.0 z " fill-opacity="0.02"/>
<path d="M 26.0 68.0 C 23.794 68.0 22.0 66.205 22.0 64.0 L 22.0 34.0 C 22.0 31.795 23.794 30.0 26.0 30.0 L 70.0 30.0 C 72.206 30.0 74.0 31.795 74.0 34.0 L 74.0 64.0 C 74.0 66.205 72.206 68.0 70.0 68.0 L 26.0 68.0 z " fill-opacity="0.05"/>
<path d="M 26.0 67.5 C 24.07 67.5 22.5 65.93 22.5 64.0 L 22.5 34.0 C 22.5 32.07 24.07 30.5 26.0 30.5 L 70.0 30.5 C 71.93 30.5 73.5 32.07 73.5 34.0 L 73.5 64.0 C 73.5 65.93 71.93 67.5 70.0 67.5 L 26.0 67.5 z " fill-opacity="0.05"/>
<path d="M 26.0 67.0 C 24.346 67.0 23.0 65.654 23.0 64.0 L 23.0 34.0 C 23.0 32.346 24.346 31.0 26.0 31.0 L 70.0 31.0 C 71.654 31.0 73.0 32.346 73.0 34.0 L 73.0 64.0 C 73.0 65.654 71.654 67.0 70.0 67.0 L 26.0 67.0 z " fill-opacity="0.1"/>
<path d="M 26.0 66.5 C 24.621 66.5 23.5 65.379 23.5 64.0 L 23.5 34.0 C 23.5 32.621 24.621 31.5 26.0 31.5 L 70.0 31.5 C 71.379 31.5 72.5 32.621 72.5 34.0 L 72.5 64.0 C 72.5 65.379 71.379 66.5 70.0 66.5 L 26.0 66.5 z " fill-opacity="0.2"/>
<path d="M 72.0 64.0 C 72.0 65.105 71.104 66.0 70.0 66.0 L 26.0 66.0 C 24.896 66.0 24.0 65.105 24.0 64.0 L 24.0 34.0 C 24.0 32.896 24.896 32.0 26.0 32.0 L 70.0 32.0 C 71.104 32.0 72.0 32.896 72.0 34.0 L 72.0 64.0 z " fill-opacity="0.3"/>
<linearGradient gradientUnits="userSpaceOnUse" x1="47.9995" x2="47.9995" xlink:actuate="onLoad" xlink:show="other" xlink:type="simple" y1="30" y2="64.9999">
<stop offset="0" stop-color="#fafcef"/>
<stop offset="1" stop-color="#d0cbc5"/>
</linearGradient>
<path d="M 72.0 63.0 C 72.0 64.105 71.104 65.0 70.0 65.0 L 26.0 65.0 C 24.896 65.0 24.0 64.105 24.0 63.0 L 24.0 33.0 C 24.0 31.896 24.896 31.0 26.0 31.0 L 70.0 31.0 C 71.104 31.0 72.0 31.896 72.0 33.0 L 72.0 63.0 z " fill="#ffffff" fill-opacity="1"/>
<radialGradient cx="48.4893" cy="44.064" gradientUnits="userSpaceOnUse" r="27.0537" xlink:actuate="onLoad" xlink:show="other" xlink:type="simple">
<stop offset="0" stop-color="#a09c98"/>
<stop offset="0.2593" stop-color="#a09c98"/>
<stop offset="1" stop-color="#f4f5e9" stop-opacity="0.0714"/>
</radialGradient>
<path d="M 46.586 53.0 L 24.0 34.438 L 24.0 34.563 L 46.586 55.586 C 47.366997 56.366997 48.634 56.366997 49.414 55.586 L 72.0 34.563 L 72.0 34.439 L 49.414 53.0 C 48.634 53.781 47.367 53.781 46.586 53.0 z " fill-opacity="0.1" stroke-opacity="0.1"/>
<linearGradient gradientUnits="userSpaceOnUse" x1="47.9995" x2="47.9995" xlink:actuate="onLoad" xlink:show="other" xlink:type="simple" y1="56.7642" y2="64.9994">
<stop offset="0" stop-color="#f4f5e9" stop-opacity="0.0714"/>
<stop offset="0.7939" stop-color="#a09c98"/>
<stop offset="1" stop-color="#a09c98"/>
</linearGradient>
<linearGradient gradientUnits="userSpaceOnUse" x1="47.9995" x2="47.9995" xlink:actuate="onLoad" xlink:show="other" xlink:type="simple" y1="31.0234" y2="56.7502">
<stop offset="0" stop-color="#ffffff"/>
<stop offset="1" stop-color="#d0cbc5"/>
</linearGradient>
<path d="M 70.0 31.0 L 26.0 31.0 C 24.896 31.0 24.0 31.896 24.0 33.0 L 24.0 34.438 L 46.586 53.0 C 47.366997 53.781 48.634 53.781 49.414 53.0 L 72.0 34.438 L 72.0 33.0 C 72.0 31.896 71.104 31.0 70.0 31.0 z " fill="#ffffff" fill-opacity="1"/>
<path d="M 46.586 53.0 L 24.0 34.438 L 46.586 54.414 C 47.366997 55.195 48.634 55.195 49.414 54.414 L 72.0 34.438 L 49.414 53.0 C 48.634 53.781 47.367 53.781 46.586 53.0 z " fill-opacity="0.3" stroke-opacity="0.3"/>
<linearGradient gradientUnits="userSpaceOnUse" x1="47.9995" x2="47.9995" xlink:actuate="onLoad" xlink:show="other" xlink:type="simple" y1="48.6328" y2="63.3761">
<stop offset="0" stop-color="#827f7c" stop-opacity="0.3103"/>
<stop offset="1" stop-color="#a09c98" stop-opacity="0"/>
</linearGradient>
</svg>
