<?xml version="1.0" encoding="UTF-8"?>
<svg xmlns="http://www.w3.org/2000/svg" xmlns:xlink="http://www.w3.org/1999/xlink" baseProfile="tiny" contentScriptType="text/ecmascript" contentStyleType="text/css" height="30px" preserveAspectRatio="xMidYMid meet" version="1.1" viewBox="0 0 30 30" width="30px" x="0px" y="0px" zoomAndPan="magnify">
<path d="M 3.0 27.0 C 1.897 27.0 1.0 26.103 1.0 25.0 L 1.0 14.0 C 1.0 12.897 1.8970001 12.0 3.0 12.0 L 5.0 12.0 L 5.0 5.0 C 5.0 3.8969998 5.897 3.0 7.0 3.0 L 27.0 3.0 C 28.103 3.0 29.0 3.897 29.0 5.0 L 29.0 20.0 C 29.0 21.103 28.103 22.0 27.0 22.0 L 19.0 22.0 L 19.0 25.0 C 19.0 26.103 18.103 27.0 17.0 27.0 L 3.0 27.0 z " fill-opacity="0.15"/>
<path d="M 16.0 23.0 L 4.0 23.0 L 4.0 14.0 L 5.0 14.0 L 5.0 12.0 L 3.0 12.0 C 2.447 12.0 2.0 12.447 2.0 13.0 L 2.0 24.0 C 2.0 24.553 2.447 25.0 3.0 25.0 L 17.0 25.0 C 17.553 25.0 18.0 24.553 18.0 24.0 L 18.0 21.0 L 16.0 21.0 L 16.0 23.0 z M 27.0 3.0 L 7.0 3.0 C 6.447 3.0 6.0 3.447 6.0 4.0 L 6.0 19.0 C 6.0 19.553 6.447 20.0 7.0 20.0 L 27.0 20.0 C 27.553 20.0 28.0 19.553 28.0 19.0 L 28.0 4.0 C 28.0 3.447 27.553 3.0 27.0 3.0 z M 18.0 19.0 L 16.0 19.0 L 16.0 14.0 L 7.0 14.0 L 7.0 12.0 L 17.0 12.0 C 17.553 12.0 18.0 12.447 18.0 13.0 L 18.0 19.0 z M 22.5 12.0 L 21.187 9.750999 L 19.0 11.014 L 18.0 9.282 L 20.18 8.023 L 19.0 6.0 L 26.0 6.0 L 22.5 12.0 z " fill-opacity="0.3"/>
<path d="M 16.0 24.0 L 4.0 24.0 L 4.0 15.0 L 5.0 15.0 L 5.0 13.0 L 3.0 13.0 C 2.447 13.0 2.0 13.447 2.0 14.0 L 2.0 25.0 C 2.0 25.553 2.447 26.0 3.0 26.0 L 17.0 26.0 C 17.553 26.0 18.0 25.553 18.0 25.0 L 18.0 22.0 L 16.0 22.0 L 16.0 24.0 z M 27.0 4.0 L 7.0 4.0 C 6.447 4.0 6.0 4.447 6.0 5.0 L 6.0 20.0 C 6.0 20.553 6.447 21.0 7.0 21.0 L 27.0 21.0 C 27.553 21.0 28.0 20.553 28.0 20.0 L 28.0 5.0 C 28.0 4.447 27.553 4.0 27.0 4.0 z M 18.0 20.0 L 16.0 20.0 L 16.0 15.0 L 7.0 15.0 L 7.0 13.0 L 17.0 13.0 C 17.553 13.0 18.0 13.447 18.0 14.0 L 18.0 20.0 z M 22.5 13.0 L 21.187 10.750999 L 19.0 12.014 L 18.0 10.282 L 20.18 9.023 L 19.0 7.0 L 26.0 7.0 L 22.5 13.0 z " fill="#dedede"/>
<rect fill="none" height="30" width="30"/>
</svg>
