<?xml version="1.0" encoding="UTF-8"?>
<svg xmlns="http://www.w3.org/2000/svg" xmlns:xlink="http://www.w3.org/1999/xlink" baseProfile="tiny" contentScriptType="text/ecmascript" contentStyleType="text/css" height="23px" preserveAspectRatio="xMidYMid meet" version="1.1" viewBox="0 0 25 23" width="25px" x="0px" y="0px" zoomAndPan="magnify">
<path color="#000000" d="M 21.22 12.000001 C 21.2213 15.116205 19.559526 17.99624 16.861029 19.55471 C 14.162528 21.113178 10.837472 21.113178 8.138971 19.55471 C 5.440473 17.99624 3.778729 15.116205 3.780001 12.000001 C 3.778701 8.883796 5.440473 6.0037603 8.138972 4.4452906 C 10.837472 2.8868213 14.162529 2.8868213 16.861029 4.4452906 C 19.559526 6.0037603 21.221272 8.883796 21.22 12.000001 z " display="inline" fill="#ffffff" fill-opacity="0.11764706" fill-rule="nonzero" stroke="none" visibility="visible"/>
<path color="#000000" d="M 16.332369 10.561213 C 16.333204 12.605248 15.243203 14.49437 13.473156 15.516629 C 11.703109 16.538887 9.52208 16.538887 7.752033 15.516629 C 5.981986 14.49437 4.891986 12.605248 4.8928204 10.561213 C 4.891986 8.517178 5.981986 6.6280546 7.752033 5.605796 C 9.52208 4.5835376 11.703109 4.5835376 13.473156 5.605796 C 15.243203 6.6280546 16.333204 8.517178 16.332369 10.561213 z " display="inline" fill="#ffffff" fill-opacity="0.11764706" fill-rule="nonzero" stroke="none" stroke-width="1" transform="matrix(1.1748714,0,0,1.1748714,0.03156612,-0.4080663)" visibility="visible"/>
<path color="#000000" d="M 16.332369 10.561213 C 16.333204 12.605248 15.243203 14.49437 13.473156 15.516629 C 11.703109 16.538887 9.52208 16.538887 7.752033 15.516629 C 5.981986 14.49437 4.891986 12.605248 4.8928204 10.561213 C 4.891986 8.517178 5.981986 6.6280546 7.752033 5.605796 C 9.52208 4.5835376 11.703109 4.5835376 13.473156 5.605796 C 15.243203 6.6280546 16.333204 8.517178 16.332369 10.561213 z " display="inline" fill="#ffffff" fill-opacity="0.11764706" fill-rule="nonzero" stroke="none" stroke-width="1" transform="matrix(1.3497035,0,0,1.3497035,-1.8238561,-2.2545053)" visibility="visible"/>
<rect fill="none" height="23" width="25"/>
<defs>
<linearGradient gradientUnits="userSpaceOnUse" x1="12.5" x2="12.5" xlink:actuate="onLoad" xlink:show="other" xlink:type="simple" y1="22" y2="1.0005">
<stop offset="0" stop-color="#195b19"/>
<stop offset="1" stop-color="#9bd22d"/>
</linearGradient>
</defs>
<path color="#000000" d="M 16.332369 10.561213 C 16.333204 12.605248 15.243203 14.49437 13.473156 15.516629 C 11.703109 16.538887 9.52208 16.538887 7.752033 15.516629 C 5.981986 14.49437 4.891986 12.605248 4.8928204 10.561213 C 4.891986 8.517178 5.981986 6.6280546 7.752033 5.605796 C 9.52208 4.5835376 11.703109 4.5835376 13.473156 5.605796 C 15.243203 6.6280546 16.333204 8.517178 16.332369 10.561213 z " display="inline" fill="#facd79" fill-opacity="1" fill-rule="nonzero" stroke="#faab79" stroke-opacity="1" stroke-width="1" transform="translate(1.8874054,0.93878746)" visibility="visible"/>
</svg>
