<?xml version="1.0" encoding="UTF-8"?>
<svg xmlns="http://www.w3.org/2000/svg" xmlns:xlink="http://www.w3.org/1999/xlink" baseProfile="tiny" contentScriptType="text/ecmascript" contentStyleType="text/css" height="57px" preserveAspectRatio="xMidYMid meet" version="1.1" viewBox="0 0 67 57" width="67px" x="0px" y="0px" zoomAndPan="magnify">
<path d="M 22.0 28.0 L 35.263 28.0 L 43.336 15.891 C 43.633 15.446 44.094997 15.151999 44.608997 15.049 L 39.0 10.0 L 39.0 19.0 L 22.0 19.0 C 21.45 19.0 21.0 19.451 21.0 20.0 L 21.0 27.0 C 21.0 27.551 21.45 28.0 22.0 28.0 z M 59.0 28.0 L 48.343 18.408 L 54.737 28.0 L 59.0 28.0 z M 31.236 35.943 C 30.888 35.293 30.926 34.504 31.336 33.89 L 33.263 31.0 L 8.0 31.0 L 28.0 49.0 L 28.0 40.0 L 38.0 40.0 L 38.0 37.0 L 33.0 37.0 C 32.263 37.0 31.585 36.594 31.236 35.943 z M 33.0 35.0 L 40.0 35.0 L 40.0 47.0 C 40.0 48.1 40.9 49.0 42.0 49.0 L 48.0 49.0 C 49.1 49.0 50.0 48.1 50.0 47.0 L 50.0 35.0 L 57.0 35.0 L 45.0 17.0 L 33.0 35.0 z " fill="#dedede" fill-opacity="1" stroke-opacity="0.29999999999999999"/>
<defs>
<linearGradient gradientUnits="userSpaceOnUse" x1="33.5005" x2="33.5005" xlink:actuate="onLoad" xlink:show="other" xlink:type="simple" y1="48" y2="9.0005">
<stop offset="0" stop-color="#d0cbc5"/>
<stop offset="0.5031" stop-color="#fafcef"/>
<stop offset="0.9693" stop-color="#ffffff"/>
<stop offset="1" stop-color="#ffffff"/>
</linearGradient>
</defs>
</svg>
