<?xml version="1.0" encoding="UTF-8"?>
<svg xmlns="http://www.w3.org/2000/svg" xmlns:xlink="http://www.w3.org/1999/xlink" baseProfile="tiny" contentScriptType="text/ecmascript" contentStyleType="text/css" height="30px" preserveAspectRatio="xMidYMid meet" version="1.1" viewBox="0 0 30 30" width="30px" x="0px" y="0px" zoomAndPan="magnify">
<path d="M 27.0 17.264 L 27.0 3.0 C 27.0 1.897 26.103 1.0 25.0 1.0 L 5.0 1.0 C 3.897 1.0 3.0 1.897 3.0 3.0 L 3.0 27.0 C 3.0 28.103 3.897 29.0 5.0 29.0 L 19.414 29.0 C 20.463999 29.631 21.688 30.0 23.0 30.0 C 26.859 30.0 30.0 26.859 30.0 23.0 C 30.0 20.628 28.811 18.53 27.0 17.264 z " fill-opacity="0.15" stroke-opacity="0.15"/>
<rect fill="none" height="30" width="30"/>
<path d="M 26.0 2.0 C 26.0 1.45 25.55 1.0 25.0 1.0 L 5.0 1.0 C 4.45 1.0 4.0 1.45 4.0 2.0 L 4.0 4.0 L 26.0 4.0 L 26.0 2.0 z M 23.0 14.8 C 24.071 14.8 25.085 15.042 26.0 15.463 L 26.0 5.0 L 4.0 5.0 L 4.0 26.0 C 4.0 26.55 4.45 27.0 5.0 27.0 L 17.83 27.0 C 16.576 25.703 15.8 23.941 15.8 22.0 C 15.8 18.03 19.03 14.8 23.0 14.8 z M 11.06 21.361 C 11.341001 21.998 11.75 22.308 12.309 22.308 C 12.998 22.308 13.846 21.833 14.551001 21.105001 C 14.52 21.4 14.5 21.697 14.5 22.0 C 14.5 22.403 14.538 22.797 14.594 23.185 C 13.985 23.546999 13.342 23.859 12.632999 24.064999 C 12.261 24.172998 11.8949995 24.227 11.551 24.227 C 10.724999 24.227 10.014999 23.918999 9.445 23.314999 C 8.281 22.085 7.8939996 19.711998 8.025 17.907999 C 8.247 14.785999 9.870999 9.613999 13.437 8.164999 C 14.06 7.908999 14.739 7.773999 15.391001 7.773999 C 16.495 7.773999 17.454 8.159999 18.161001 8.890999 C 18.723001 9.470999 19.052002 10.237999 19.097002 11.065999 C 19.389002 11.222999 19.565002 11.496999 19.576002 11.827999 C 19.597002 12.640999 19.551003 13.466 19.466002 14.286999 C 18.545002 14.709999 17.713001 15.291999 17.004002 15.998999 C 17.069002 15.6589985 17.147001 15.329999 17.189001 14.969998 L 17.209002 14.3429985 C 16.901001 14.317999 16.640001 14.173999 16.468002 13.930999 C 16.248003 13.804998 16.359003 13.466999 16.477003 13.110999 C 16.671003 12.510999 16.998003 11.507999 16.309004 10.157999 C 16.113005 9.771999 15.802004 9.690999 15.574004 9.690999 C 15.264004 9.690999 14.886004 9.846999 14.453004 10.157999 C 13.530004 10.822999 12.746004 11.797999 12.124004 13.054999 C 11.109004 15.117999 10.638004 16.854 10.645004 18.512 C 10.646 19.444 10.683 20.512 11.06 21.361 z M 23.0 16.0 C 19.687 16.0 17.0 18.687 17.0 22.0 C 17.0 25.313 19.687 28.0 23.0 28.0 C 26.313 28.0 29.0 25.313 29.0 22.0 C 29.0 18.687 26.313 16.0 23.0 16.0 z M 26.168 22.555 L 21.831999 25.446001 C 21.375 25.75 21.0 25.55 21.0 25.0 L 21.0 19.0 C 21.0 18.45 21.375 18.25 21.832 18.555 L 26.168001 21.446001 C 26.625 21.75 26.625 22.25 26.168 22.555 z " fill-opacity="0.3" stroke-opacity="0.3"/>
<path d="M 26.0 3.0 C 26.0 2.45 25.55 2.0 25.0 2.0 L 5.0 2.0 C 4.45 2.0 4.0 2.45 4.0 3.0 L 4.0 5.0 L 26.0 5.0 L 26.0 3.0 z M 23.0 15.8 C 24.071 15.8 25.085 16.042 26.0 16.463 L 26.0 6.0 L 4.0 6.0 L 4.0 27.0 C 4.0 27.55 4.45 28.0 5.0 28.0 L 17.83 28.0 C 16.576 26.703 15.8 24.941 15.8 23.0 C 15.8 19.03 19.03 15.8 23.0 15.8 z M 11.06 22.361 C 11.341001 22.998 11.75 23.308 12.309 23.308 C 12.998 23.308 13.846 22.833 14.551001 22.105001 C 14.52 22.4 14.5 22.697 14.5 23.0 C 14.5 23.403 14.538 23.797 14.594 24.185 C 13.985 24.546999 13.342 24.859 12.632999 25.064999 C 12.261 25.172998 11.8949995 25.227 11.551 25.227 C 10.724999 25.227 10.014999 24.918999 9.445 24.314999 C 8.281 23.085 7.8939996 20.711998 8.025 18.907999 C 8.247 15.785999 9.870999 10.613999 13.437 9.164999 C 14.06 8.908999 14.739 8.773999 15.391001 8.773999 C 16.495 8.773999 17.454 9.159999 18.161001 9.890999 C 18.723001 10.470999 19.052002 11.237999 19.097002 12.065999 C 19.389002 12.222999 19.565002 12.496999 19.576002 12.827999 C 19.597002 13.640999 19.551003 14.466 19.466002 15.286999 C 18.545002 15.709999 17.713001 16.291998 17.004002 16.998999 C 17.069002 16.658998 17.147001 16.329998 17.189001 15.969998 L 17.209002 15.3429985 C 16.901001 15.317999 16.640001 15.173999 16.468002 14.930999 C 16.248003 14.804998 16.359003 14.466999 16.477003 14.110999 C 16.671003 13.510999 16.998003 12.507999 16.309004 11.157999 C 16.113005 10.771999 15.802004 10.690999 15.574004 10.690999 C 15.264004 10.690999 14.886004 10.846999 14.453004 11.157999 C 13.530004 11.822999 12.746004 12.797999 12.124004 14.054999 C 11.109004 16.118 10.638004 17.854 10.645004 19.512 C 10.646 20.444 10.683 21.512 11.06 22.361 z M 23.0 17.0 C 19.687 17.0 17.0 19.687 17.0 23.0 C 17.0 26.313 19.687 29.0 23.0 29.0 C 26.313 29.0 29.0 26.313 29.0 23.0 C 29.0 19.687 26.313 17.0 23.0 17.0 z M 26.168 23.555 L 21.831999 26.446001 C 21.375 26.75 21.0 26.55 21.0 26.0 L 21.0 20.0 C 21.0 19.45 21.375 19.25 21.832 19.555 L 26.168001 22.446001 C 26.625 22.75 26.625 23.25 26.168 23.555 z " fill="#dedede"/>
</svg>
