<?xml version="1.0" encoding="UTF-8"?>
<svg xmlns="http://www.w3.org/2000/svg" xmlns:xlink="http://www.w3.org/1999/xlink" baseProfile="tiny" contentScriptType="text/ecmascript" contentStyleType="text/css" height="30px" preserveAspectRatio="xMidYMid meet" version="1.1" viewBox="0 0 30 30" width="30px" x="0px" y="0px" zoomAndPan="magnify">
<rect fill="none" height="30" width="30"/>
<path d="M 18.92 7.373 L 18.92 4.935 L 2.957 4.935 L 2.957 17.817 C 2.957 18.651 3.639 19.333 4.472 19.333 L 9.57 19.333 L 9.57 10.186 C 9.57 8.635 10.83 7.3739996 12.379999 7.3739996 L 18.92 7.3739996 z M 18.92 2.06 C 18.92 2.06 19.15 0.54499996 17.4 0.54499996 L 4.472 0.54499996 C 3.6390002 0.54499996 2.9570003 1.2279999 2.9570003 2.0609999 L 2.9570003 3.677 L 18.92 3.677 L 18.92 2.06 z M 10.866 25.893 C 10.866 25.893 10.650001 27.456 12.38 27.456 L 25.529 27.456 C 26.359 27.456 27.043 26.774 27.043 25.939999 L 27.043 13.019 L 10.866 13.019 L 10.866 25.893 z M 25.529 8.669 L 12.38 8.669 C 11.547 8.669 10.866 9.353 10.866 10.184999 L 10.866 11.8 L 27.043 11.8 L 27.043 10.185 C 27.043 9.353 26.359 8.669 25.529 8.669 z " fill-opacity="0.3" stroke-opacity="0.3"/>
<path d="M 19.875 8.669 L 19.92 3.1109996 C 19.945 2.8209996 19.956 2.0079994 19.389 1.3479996 C 19.074 0.9819996 18.473 0.5449996 17.401 0.5449996 L 4.472 0.5449996 C 3.085 0.5449996 1.957 1.6729996 1.957 3.0609996 L 1.957 18.817 C 1.957 20.203999 3.085 21.333 4.472 21.333 L 9.813 21.333 L 9.867 26.846 C 9.844 27.133001 9.834 27.986 10.424999 28.664001 C 10.739999 29.025002 11.334999 29.456001 12.381 29.456001 L 25.529999 29.456001 C 26.915998 29.456001 28.043999 28.327002 28.043999 26.94 L 28.043999 12.8 L 28.043999 11.185 C 28.043999 9.798 26.915998 8.669001 25.529999 8.669001 L 19.875 8.669001 " fill-opacity="0.15" stroke-opacity="0.15"/>
<path d="M 18.92 8.373 L 18.92 5.935 L 2.957 5.935 L 2.957 18.817 C 2.957 19.651 3.639 20.333 4.472 20.333 L 9.57 20.333 L 9.57 11.186 C 9.57 9.635 10.83 8.374 12.379999 8.374 L 18.92 8.374 z M 18.92 3.06 C 18.92 3.06 19.15 1.545 17.4 1.545 L 4.472 1.545 C 3.6390002 1.545 2.9570003 2.228 2.9570003 3.0609999 L 2.9570003 4.677 L 18.92 4.677 L 18.92 3.06 z M 10.866 26.893 C 10.866 26.893 10.650001 28.456 12.38 28.456 L 25.529 28.456 C 26.359 28.456 27.043 27.774 27.043 26.939999 L 27.043 14.019 L 10.866 14.019 L 10.866 26.893 z M 25.529 9.669 L 12.38 9.669 C 11.547 9.669 10.866 10.353 10.866 11.184999 L 10.866 12.8 L 27.043 12.8 L 27.043 11.185 C 27.043 10.353 26.359 9.669 25.529 9.669 z " fill-opacity="0.15" stroke-opacity="0.15"/>
<path d="M 18.92 8.373 L 18.92 5.935 L 2.957 5.935 L 2.957 18.817 C 2.957 19.651 3.639 20.333 4.472 20.333 L 9.57 20.333 L 9.57 11.186 C 9.57 9.635 10.83 8.374 12.379999 8.374 L 18.92 8.374 z M 18.92 3.06 C 18.92 3.06 19.15 1.545 17.4 1.545 L 4.472 1.545 C 3.6390002 1.545 2.9570003 2.228 2.9570003 3.0609999 L 2.9570003 4.677 L 18.92 4.677 L 18.92 3.06 z M 10.866 26.893 C 10.866 26.893 10.650001 28.456 12.38 28.456 L 25.529 28.456 C 26.359 28.456 27.043 27.774 27.043 26.939999 L 27.043 14.019 L 10.866 14.019 L 10.866 26.893 z M 25.529 9.669 L 12.38 9.669 C 11.547 9.669 10.866 10.353 10.866 11.184999 L 10.866 12.8 L 27.043 12.8 L 27.043 11.185 C 27.043 10.353 26.359 9.669 25.529 9.669 z " fill="#dedede"/>
<rect fill="none" height="30" width="30"/>
</svg>
