<?xml version="1.0" encoding="UTF-8"?>
<svg xmlns="http://www.w3.org/2000/svg" xmlns:xlink="http://www.w3.org/1999/xlink" baseProfile="tiny" contentScriptType="text/ecmascript" contentStyleType="text/css" height="30px" preserveAspectRatio="xMidYMid meet" version="1.1" viewBox="0 0 30 30" width="30px" x="0px" y="0px" zoomAndPan="magnify">
<path d="M 25.5 29.0 C 24.564 29.0 23.686 28.636 23.025 27.975 L 18.633 23.584 C 16.896 24.513 14.965 25.0 13.0 25.0 C 6.383 25.0 1.0 19.617 1.0 13.0 C 1.0 6.3829994 6.383 1.0 13.0 1.0 C 19.617 1.0 25.0 6.383 25.0 13.0 C 25.0 14.967 24.513 16.898 23.584 18.635 L 27.974998 23.026001 C 28.636 23.687 29.0 24.565 29.0 25.5 C 29.0 26.436 28.636 27.314 27.975 27.975 C 27.313 28.636 26.435 29.0 25.5 29.0 L 25.5 29.0 z " fill-opacity="0.15"/>
<rect fill="none" height="30" width="30"/>
<path d="M 14.0 11.0 L 14.0 7.0 C 14.0 6.447 13.553 6.0 13.0 6.0 C 12.447 6.0 12.0 6.447 12.0 7.0 L 12.0 11.0 L 8.0 11.0 C 7.447 11.0 7.0 11.447 7.0 12.0 C 7.0 12.553 7.447 13.0 8.0 13.0 L 12.0 13.0 L 12.0 17.0 C 12.0 17.553 12.447 18.0 13.0 18.0 C 13.553 18.0 14.0 17.553 14.0 17.0 L 14.0 13.0 L 18.0 13.0 C 18.553 13.0 19.0 12.553 19.0 12.0 C 19.0 11.447 18.553 11.0 18.0 11.0 L 14.0 11.0 z M 27.268 22.732 L 22.334 17.8 C 23.384 16.115 24.0 14.132 24.0 12.0 C 24.0 5.926 19.074 1.0 13.0 1.0 C 6.924 1.0 2.0 5.926 2.0 12.0 C 2.0 18.076 6.924 23.0 13.0 23.0 C 15.1310005 23.0 17.112999 22.384 18.799 21.335 L 23.733 26.268 C 24.709 27.244999 26.292 27.244999 27.268 26.268 C 28.244 25.292 28.244 23.709 27.268 22.732 z M 13.0 19.5 C 8.863 19.5 5.5 16.137001 5.5 12.0 C 5.5 7.865 8.863 4.5 13.0 4.5 C 17.135 4.5 20.5 7.865 20.5 12.0 C 20.5 16.137 17.135 19.5 13.0 19.5 z " fill-opacity="0.3"/>
<path d="M 14.0 12.0 L 14.0 8.0 C 14.0 7.447 13.553 7.0 13.0 7.0 C 12.447 7.0 12.0 7.447 12.0 8.0 L 12.0 12.0 L 8.0 12.0 C 7.447 12.0 7.0 12.447 7.0 13.0 C 7.0 13.553 7.447 14.0 8.0 14.0 L 12.0 14.0 L 12.0 18.0 C 12.0 18.553 12.447 19.0 13.0 19.0 C 13.553 19.0 14.0 18.553 14.0 18.0 L 14.0 14.0 L 18.0 14.0 C 18.553 14.0 19.0 13.553 19.0 13.0 C 19.0 12.447 18.553 12.0 18.0 12.0 L 14.0 12.0 z M 27.268 23.732 L 22.334 18.8 C 23.384 17.115 24.0 15.132 24.0 13.0 C 24.0 6.926 19.074 2.0 13.0 2.0 C 6.924 2.0 2.0 6.926 2.0 13.0 C 2.0 19.076 6.924 24.0 13.0 24.0 C 15.1310005 24.0 17.112999 23.384 18.799 22.335 L 23.733 27.268 C 24.709 28.244999 26.292 28.244999 27.268 27.268 C 28.244 26.292 28.244 24.709 27.268 23.732 z M 13.0 20.5 C 8.863 20.5 5.5 17.137001 5.5 13.0 C 5.5 8.865 8.863 5.5 13.0 5.5 C 17.135 5.5 20.5 8.865 20.5 13.0 C 20.5 17.137 17.135 20.5 13.0 20.5 z " fill="#dedede"/>
</svg>
