<?xml version="1.0" encoding="UTF-8"?>
<svg xmlns="http://www.w3.org/2000/svg" xmlns:xlink="http://www.w3.org/1999/xlink" baseProfile="tiny" contentScriptType="text/ecmascript" contentStyleType="text/css" height="57px" preserveAspectRatio="xMidYMid meet" version="1.1" viewBox="0 0 67 57" width="67px" x="0px" y="0px" zoomAndPan="magnify">
<path d="M 43.0 44.5 L 19.0 44.5 L 19.0 11.5 L 43.0 11.5 L 43.0 21.038 L 46.0 22.947 L 46.0 11.500002 C 46.0 9.307325 45.200733 5.500002 43.0 5.500002 L 19.0 5.500002 C 16.747147 5.500002 16.0 9.357696 16.0 11.500002 L 16.0 47.5 C 16.0 49.693207 16.798296 53.5 19.0 53.5 L 43.0 53.5 C 45.25148 53.5 46.0 49.643 46.0 47.5 L 46.0 34.053 L 43.0 35.961 z M 29.546 41.961 C 29.11013 50.19481 29.0 49.532097 29.0 49.0 C 29.0 48.467907 29.11013 47.80519 29.546 47.5 C 30.340311 46.943832 31.66085 46.9436 32.454998 47.5 C 32.890682 47.805256 32.999996 48.46802 32.999996 49.0 C 32.999996 49.53198 32.890686 50.194748 32.454998 50.5 C 31.66085 51.0564 30.340311 51.056168 29.546 50.5 z M 51.0 28.5 L 40.0 21.5 L 40.0 24.999 L 29.0 24.999 L 29.0 32.0 L 40.0 32.0 L 40.0 35.5 z " fill="#dedede" fill-opacity="1"/>
<rect fill="none" height="57" width="67"/>
<defs>
<linearGradient gradientTransform="matrix(1 0 0 -1 -249.4805 -316.0195)" gradientUnits="userSpaceOnUse" x1="282.981" x2="282.981" xlink:actuate="onLoad" xlink:show="other" xlink:type="simple" y1="-368.5195" y2="-320.5195">
<stop offset="0" stop-color="#d0cbc5"/>
<stop offset="0.5031" stop-color="#fafcef"/>
<stop offset="0.9693" stop-color="#ffffff"/>
<stop offset="1" stop-color="#ffffff"/>
</linearGradient>
</defs>
</svg>
