<?xml version="1.0" encoding="UTF-8"?>
<svg xmlns="http://www.w3.org/2000/svg" xmlns:xlink="http://www.w3.org/1999/xlink" baseProfile="tiny" contentScriptType="text/ecmascript" contentStyleType="text/css" height="30px" preserveAspectRatio="xMidYMid meet" version="1.1" viewBox="0 0 30 30" width="30px" x="0px" y="0px" zoomAndPan="magnify">
<path d="M 26.077 3.0 L 22.956 3.0 C 22.309 3.0 21.776999 3.284 21.505999 3.779 C 21.234999 4.274 21.276 4.873 21.616999 5.415 L 22.067999 6.144 L 20.452 6.144 L 20.9 5.42 C 21.246 4.869 21.286 4.271 21.011 3.777 C 20.739 3.283 20.212 3.0 19.564 3.0 L 10.433 3.0 C 9.787 3.0 9.259 3.283 8.986 3.775 C 8.713 4.269 8.753 4.868 9.096 5.4160004 L 9.547 6.1440005 L 7.932 6.1440005 L 8.381 5.42 C 8.724999 4.87 8.766 4.2720003 8.490999 3.777 C 8.218 3.283 7.689 3.0 7.042 3.0 L 3.924 3.0 C 2.863 3.0 2.0 3.86 2.0 4.917 L 2.0 25.083 C 2.0 26.141 2.863 27.0 3.924 27.0 L 26.077 27.0 C 27.139 27.0 28.0 26.141 28.0 25.083 L 28.0 4.917 C 28.0 3.86 27.139 3.0 26.077 3.0 z " fill-opacity="0.15" stroke-opacity="0.15"/>
<path d="M 18.5 12.5 L 15.5 12.5 L 15.5 14.5 L 18.5 14.5 L 18.5 12.5 z M 18.5 18.5 L 15.5 18.5 L 15.5 20.5 L 18.5 20.5 L 18.5 18.5 z M 22.5 18.5 L 19.5 18.5 L 19.5 20.5 L 22.5 20.5 L 22.5 18.5 z M 22.5 15.5 L 19.5 15.5 L 19.5 17.5 L 22.5 17.5 L 22.5 15.5 z M 22.5 12.5 L 19.5 12.5 L 19.5 14.5 L 22.5 14.5 L 22.5 12.5 z M 14.5 12.5 L 11.5 12.5 L 11.5 14.5 L 14.5 14.5 L 14.5 12.5 z M 10.5 18.5 L 7.5 18.5 L 7.5 20.5 L 10.5 20.5 L 10.5 18.5 z M 26.077 3.0 L 22.956 3.0 C 22.383 3.0 22.16 3.401 22.467999 3.889 L 23.314999 5.257 C 23.623 5.743 23.401 6.144 22.828 6.144 L 19.696 6.144 C 19.123 6.144 18.901 5.744 19.206999 5.257 L 20.056 3.889 C 20.357 3.401 20.139 3.0 19.564 3.0 L 10.433 3.0 C 9.859 3.0 9.641 3.401 9.945 3.889 L 10.794 5.257 C 11.099 5.743 10.879 6.144 10.304999 6.144 L 7.174 6.144 C 6.601 6.144 6.3789997 5.744 6.684 5.257 L 7.534 3.889 C 7.838 3.401 7.616 3.0 7.042 3.0 L 3.924 3.0 C 3.413 3.0 3.0 3.41 3.0 3.917 L 3.0 24.083 C 3.0 24.59 3.413 25.0 3.924 25.0 L 26.077 25.0 C 26.588 25.0 27.0 24.59 27.0 24.083 L 27.0 3.917 C 27.0 3.41 26.588 3.0 26.077 3.0 z M 23.5 21.5 L 6.5 21.5 L 6.5 11.5 L 23.5 11.5 L 23.5 21.5 z M 10.5 15.5 L 7.5 15.5 L 7.5 17.5 L 10.5 17.5 L 10.5 15.5 z M 14.5 15.5 L 11.5 15.5 L 11.5 17.5 L 14.5 17.5 L 14.5 15.5 z M 14.5 18.5 L 11.5 18.5 L 11.5 20.5 L 14.5 20.5 L 14.5 18.5 z M 10.5 12.5 L 7.5 12.5 L 7.5 14.5 L 10.5 14.5 L 10.5 12.5 z " fill-opacity="0.3" stroke-opacity="0.3"/>
<rect fill="none" height="30" width="30"/>
<path d="M 22.5 19.5 L 19.5 19.5 L 19.5 21.5 L 22.5 21.5 L 22.5 19.5 z M 18.5 13.5 L 15.5 13.5 L 15.5 15.5 L 18.5 15.5 L 18.5 13.5 z M 22.5 13.5 L 19.5 13.5 L 19.5 15.5 L 22.5 15.5 L 22.5 13.5 z M 18.5 19.5 L 15.5 19.5 L 15.5 21.5 L 18.5 21.5 L 18.5 19.5 z M 14.5 13.5 L 11.5 13.5 L 11.5 15.5 L 14.5 15.5 L 14.5 13.5 z M 22.5 16.5 L 19.5 16.5 L 19.5 18.5 L 22.5 18.5 L 22.5 16.5 z M 10.5 16.5 L 7.5 16.5 L 7.5 18.5 L 10.5 18.5 L 10.5 16.5 z M 26.077 4.0 L 22.956 4.0 C 22.383 4.0 22.16 4.401 22.467999 4.889 L 23.314999 6.257 C 23.623 6.743 23.401 7.144 22.828 7.144 L 19.696 7.144 C 19.123 7.144 18.901 6.744 19.206999 6.257 L 20.056 4.889 C 20.357 4.401 20.139 4.0 19.564 4.0 L 10.433 4.0 C 9.859 4.0 9.641 4.401 9.945 4.889 L 10.794 6.257 C 11.099 6.743 10.879 7.144 10.304999 7.144 L 7.174 7.144 C 6.601 7.144 6.3789997 6.744 6.684 6.257 L 7.534 4.889 C 7.838 4.401 7.616 4.0 7.042 4.0 L 3.924 4.0 C 3.413 4.0 3.0 4.41 3.0 4.917 L 3.0 25.083 C 3.0 25.59 3.413 26.0 3.924 26.0 L 26.077 26.0 C 26.588 26.0 27.0 25.59 27.0 25.083 L 27.0 4.917 C 27.0 4.41 26.588 4.0 26.077 4.0 z M 23.5 22.5 L 6.5 22.5 L 6.5 12.5 L 23.5 12.5 L 23.5 22.5 z M 10.5 19.5 L 7.5 19.5 L 7.5 21.5 L 10.5 21.5 L 10.5 19.5 z M 10.5 13.5 L 7.5 13.5 L 7.5 15.5 L 10.5 15.5 L 10.5 13.5 z M 14.5 19.5 L 11.5 19.5 L 11.5 21.5 L 14.5 21.5 L 14.5 19.5 z M 14.5 16.5 L 11.5 16.5 L 11.5 18.5 L 14.5 18.5 L 14.5 16.5 z " fill="#dedede"/>
</svg>
