<?xml version="1.0" encoding="UTF-8"?>
<svg xmlns="http://www.w3.org/2000/svg" xmlns:xlink="http://www.w3.org/1999/xlink" baseProfile="tiny" contentScriptType="text/ecmascript" contentStyleType="text/css" height="27px" preserveAspectRatio="xMidYMid meet" version="1.1" viewBox="0 0 27 27" width="27px" x="0px" y="0px" zoomAndPan="magnify">
<defs>
<linearGradient gradientUnits="userSpaceOnUse" x1="13.5532" x2="13.5532" xlink:actuate="onLoad" xlink:show="other" xlink:type="simple" y1="5.2402" y2="1.6582">
<stop offset="0" stop-color="#d0cbc5"/>
<stop offset="1" stop-color="#fcfcf9"/>
</linearGradient>
<linearGradient gradientUnits="userSpaceOnUse" x1="13.5005" x2="13.5005" xlink:actuate="onLoad" xlink:show="other" xlink:type="simple" y1="25.341801" y2="4.3413">
<stop offset="0" stop-color="#d0cbc5"/>
<stop offset="1" stop-color="#fcfcf9"/>
</linearGradient>
</defs>
<rect fill="none" height="27.000999" width="27" x="0" y="-0.001"/>
<path d="M 6.595238 2.9994996 C 4.605603 2.9994996 3.0 4.605103 3.0 6.5947375 L 3.0 20.404264 C 3.0 22.393896 4.605603 23.9995 6.595238 23.9995 L 20.404762 23.9995 C 22.394396 23.9995 24.0 22.393896 24.0 20.404264 L 24.0 6.5947375 C 24.0 4.6051025 22.394398 2.9994996 20.404762 2.9994996 L 6.5952387 2.9994996 z M 7.1428576 8.785213 C 7.7430224 8.785213 8.238095 9.280288 8.238095 9.880451 C 8.238095 10.480617 7.7430224 10.951879 7.1428576 10.95188 C 6.5426936 10.951879 6.0714293 10.47971 6.0714293 9.880451 C 6.0714293 9.281193 6.5426936 8.785213 7.1428576 8.785213 z M 10.785715 8.785213 L 19.857143 8.785213 C 20.457308 8.785213 20.928572 9.281194 20.928572 9.880451 C 20.928572 10.47971 20.457308 10.95188 19.857143 10.95188 L 10.785714 10.95188 C 10.18555 10.95188 9.690476 10.47971 9.690476 9.880451 C 9.690476 9.281193 10.185551 8.785213 10.785714 8.785213 z M 7.142857 12.404262 C 7.743022 12.404262 8.238095 12.900242 8.238095 13.499499 C 8.238095 14.098758 7.7430224 14.594737 7.1428576 14.594737 C 6.5426936 14.594737 6.0714293 14.098757 6.0714293 13.499499 C 6.0714293 12.900241 6.5426936 12.404262 7.1428576 12.404262 z M 10.785715 12.404262 L 19.857143 12.404262 C 20.457308 12.404262 20.928572 12.900242 20.928572 13.499499 C 20.928572 14.098758 20.457308 14.594737 19.857143 14.594737 L 10.785714 14.594737 C 10.18555 14.594737 9.690476 14.098757 9.690476 13.499499 C 9.690476 12.900241 10.185551 12.404262 10.785714 12.404262 z M 7.142857 16.04712 C 7.743022 16.04712 8.238095 16.518383 8.238095 17.118547 C 8.238095 17.718712 7.7430224 18.213783 7.1428576 18.213783 C 6.5426936 18.213783 6.0714293 17.718712 6.0714293 17.118547 C 6.0714293 16.518383 6.5426936 16.04712 7.1428576 16.04712 z M 10.785715 16.04712 L 19.857143 16.04712 C 20.457308 16.04712 20.928572 16.518383 20.928572 17.118547 C 20.928572 17.718712 20.457308 18.213783 19.857143 18.213783 L 10.785714 18.213783 C 10.18555 18.213783 9.690476 17.718712 9.690476 17.118547 C 9.690476 16.518383 10.185551 16.04712 10.785714 16.04712 z " fill="#dedede" fill-opacity="1"/>
</svg>
