<?xml version="1.0" encoding="UTF-8"?>
<svg xmlns="http://www.w3.org/2000/svg" xmlns:xlink="http://www.w3.org/1999/xlink" baseProfile="tiny" contentScriptType="text/ecmascript" contentStyleType="text/css" height="30px" preserveAspectRatio="xMidYMid meet" version="1.1" viewBox="0 0 30 30" width="30px" x="0px" y="0px" zoomAndPan="magnify">
<path d="M 28.5 15.0 L 25.355999 15.0 L 15.553999 5.368 C 15.205999 5.01 14.578999 4.635 13.944999 4.603 L 9.086 4.442 L 5.9360003 1.293 C 5.748 1.105 5.494 1.0 5.229 1.0 C 4.964 1.0 4.708 1.105 4.521 1.295 L 3.598 2.221 C 3.2580001 2.5609999 3.216 3.086 3.471 3.475 C 3.308 3.367 3.116 3.309 2.918 3.309 C 2.918 3.309 2.917 3.309 2.916 3.309 C 2.6499999 3.309 2.395 3.415 2.2089999 3.604 L 1.29 4.53 C 0.902 4.922 0.903 5.553 1.293 5.941 L 4.424 9.073999 L 4.6 13.963 C 4.632 14.615001 5.029 15.227 5.348 15.541 L 10.0 20.272 L 10.0 27.5 C 10.0 28.327 10.673 29.0 11.5 29.0 L 28.5 29.0 C 29.327 29.0 30.0 28.327 30.0 27.5 L 30.0 16.5 C 30.0 15.673 29.327 15.0 28.5 15.0 z " fill-opacity="0.15" stroke-opacity="0.15"/>
<rect fill="none" height="30" width="30"/>
<path d="M 14.5 13.8 L 23.727001 13.8 L 14.838001 5.0650005 C 14.621001 4.8430004 14.215001 4.6190004 13.912002 4.6040006 L 8.602 4.427 L 8.629001 4.4 L 5.229 1.0 L 4.307 1.926 L 5.2400002 2.856 L 3.853 4.241 L 2.918 3.309 L 2.0 4.234 L 5.4 7.635 L 5.409 7.6260004 L 5.598 12.913 C 5.614 13.233 5.833 13.616 6.06 13.839 L 9.934999 17.779 C 10.056999 17.407 10.252 17.049 10.504 16.796999 L 12.797 14.503999 C 13.213 14.09 13.913 13.8 14.5 13.8 z M 28.5 15.0 L 14.5 15.0 C 14.225 15.0 13.841 15.159 13.646 15.354 L 11.353 17.647 C 11.159 17.841 11.0 18.225 11.0 18.5 L 11.0 26.5 C 11.0 26.775 11.225 27.0 11.5 27.0 L 28.5 27.0 C 28.775 27.0 29.0 26.775 29.0 26.5 L 29.0 15.5 C 29.0 15.225 28.775 15.0 28.5 15.0 z M 15.0 26.0 L 12.0 26.0 L 12.0 24.0 L 15.0 24.0 L 15.0 26.0 z M 15.0 23.0 L 12.0 23.0 L 12.0 21.0 L 15.0 21.0 L 15.0 23.0 z M 15.0 20.0 L 12.0 20.0 L 12.0 18.0 L 15.0 18.0 L 15.0 20.0 z " fill-opacity="0.3"/>
<path d="M 14.5 14.8 L 23.727001 14.8 L 14.838001 6.0650005 C 14.621001 5.8430004 14.215001 5.6190004 13.912002 5.6040006 L 8.602 5.427 L 8.629001 5.4 L 5.229 2.0 L 4.307 2.926 L 5.2400002 3.8560002 L 3.853 5.241 L 2.918 4.309 L 2.0 5.234 L 5.4 8.635 L 5.409 8.626 L 5.598 13.913 C 5.614 14.233 5.833 14.616 6.06 14.839 L 9.934999 18.779 C 10.056999 18.407 10.252 18.049 10.504 17.796999 L 12.797 15.503999 C 13.213 15.09 13.913 14.8 14.5 14.8 z M 28.5 16.0 L 14.5 16.0 C 14.225 16.0 13.841 16.159 13.646 16.354 L 11.353 18.647 C 11.159 18.841 11.0 19.225 11.0 19.5 L 11.0 27.5 C 11.0 27.775 11.225 28.0 11.5 28.0 L 28.5 28.0 C 28.775 28.0 29.0 27.775 29.0 27.5 L 29.0 16.5 C 29.0 16.225 28.775 16.0 28.5 16.0 z M 15.0 27.0 L 12.0 27.0 L 12.0 25.0 L 15.0 25.0 L 15.0 27.0 z M 15.0 24.0 L 12.0 24.0 L 12.0 22.0 L 15.0 22.0 L 15.0 24.0 z M 15.0 21.0 L 12.0 21.0 L 12.0 19.0 L 15.0 19.0 L 15.0 21.0 z " fill="#dedede"/>
<rect fill="none" height="30" width="30"/>
</svg>
