<?xml version="1.0" encoding="UTF-8"?>
<svg xmlns="http://www.w3.org/2000/svg" xmlns:xlink="http://www.w3.org/1999/xlink" baseProfile="tiny" contentScriptType="text/ecmascript" contentStyleType="text/css" height="96px" preserveAspectRatio="xMidYMid meet" version="1.1" viewBox="0 0 96 96" width="96px" x="0px" y="0px" zoomAndPan="magnify">
<defs>
<linearGradient>
<stop offset="0" stop-color="#ffd758" stop-opacity="1"/>
<stop offset="1" stop-color="#ffcc58" stop-opacity="1"/>
</linearGradient>
<linearGradient gradientUnits="userSpaceOnUse" id="linearGradient3794" x1="49.132042" x2="49.132042" y1="16.476873" y2="87.39315">
<stop offset="0" stop-color="#ffd758" stop-opacity="1"/>
<stop offset="1" stop-color="#ffcc58" stop-opacity="1"/>
</linearGradient>
</defs>
<path d="M 88.0 49.0 C 88.0 78.635 77.639 89.0 48.0 89.0 C 18.365 89.0 8.0 78.635 8.0 49.0 C 8.0 19.367 18.365 9.0 48.0 9.0 C 77.637 9.0 88.0 19.367 88.0 49.0 z " fill-opacity="0.4"/>
<rect fill="none" height="96" width="96"/>
<linearGradient gradientUnits="userSpaceOnUse" x1="47.9995" x2="47.9995" y1="8" y2="24">
<stop offset="0" stop-color="#e4be34"/>
<stop offset="1" stop-color="#e0aa18"/>
</linearGradient>
<path d="M 84.004 24.0 C 78.653 12.49 67.499 8.0 48.0 8.0 C 28.502 8.0 17.348 12.49 11.995998 24.0 L 84.004 24.0 z " fill="#326bb8" fill-opacity="1"/>
<path d="M 48.0 88.0 C 77.639 88.0 88.0 77.634 88.0 48.0 C 88.0 36.834 86.526 28.406 83.107 22.235 L 46.066 22.235 C 45.579 21.647 44.561 20.369 42.616 17.752 C 41.714 16.537 39.669003 14.500001 36.118 14.500001 L 19.71 14.500001 C 11.361 20.525 8.0 31.142 8.0 48.0 C 8.0 77.634 18.365 88.0 48.0 88.0 z " fill-opacity="0.05"/>
<path d="M 48.0 88.0 C 77.639 88.0 88.0 77.634 88.0 48.0 C 88.0 37.129 86.598 28.86 83.368 22.735 L 45.833 22.735 C 45.406 22.231 44.383 20.967 42.215 18.05 C 41.368 16.911 39.449 15.0 36.118 15.0 L 19.047 15.0 C 11.186 21.105 8.0 31.597 8.0 48.0 C 8.0 77.634 18.365 88.0 48.0 88.0 z " fill-opacity="0.05"/>
<path d="M 48.0 88.0 C 77.639 88.0 88.0 77.634 88.0 48.0 C 88.0 37.421 86.67 29.309 83.622 23.235 L 45.604 23.235 C 45.277 22.862 44.282 21.669 41.814 18.348 C 41.023 17.285 39.232 15.499 36.119 15.499 L 18.423 15.499 C 11.016 21.673 8.0 32.037 8.0 48.0 C 8.0 77.634 18.365 88.0 48.0 88.0 z " fill-opacity="0.1"/>
<linearGradient gradientUnits="userSpaceOnUse" x1="47.9995" x2="47.9995" y1="16" y2="88.0005">
<stop offset="0" stop-color="#e6cd49"/>
<stop offset="1" stop-color="#e0a714"/>
</linearGradient>
<path d="M 48.0 88.0 C 77.639 88.0 88.0 77.634 88.0 48.0 C 88.0 37.712 86.747 29.751 83.876 23.735 L 45.383 23.735 C 45.383 23.735 44.648 23.0 41.412 18.646 C 40.458 17.363 38.765 16.0 36.118 16.0 C 32.899 16.0 24.183 16.0 17.842 16.0 C 10.857 22.227 8.0 32.461 8.0 48.0 C 8.0 77.634 18.365 88.0 48.0 88.0 z " fill="url(#linearGradient3794)" fill-opacity="1"/>
<linearGradient gradientTransform="matrix(1 0 0 1 193.9253 -815.8408)" gradientUnits="userSpaceOnUse" id="SVGID_3_" x1="-145.9253" x2="-145.9253" y1="824.0938" y2="903.3385">
<stop offset="0" stop-color="#ffffff"/>
<stop offset="1" stop-color="#ffffff" stop-opacity="0"/>
</linearGradient>
<path d="M 48.0 8.0 C 18.365 8.0 8.0 18.366 8.0 48.0 C 8.0 77.634 18.365 88.0 48.0 88.0 C 77.639 88.0 88.0 77.634 88.0 48.0 C 88.0 18.365995 77.637 8.0 48.0 8.0 z M 48.0 87.0 C 18.842 87.0 9.0 77.158 9.0 48.0 C 9.0 18.842005 18.842 9.0 48.0 9.0 C 77.158005 9.0 87.0 18.842 87.0 48.0 C 87.0 77.158005 77.158 87.0 48.0 87.0 z " fill="url(#SVGID_3_)" fill-opacity="0.15"/>
<path d="M 48.0 33.0 C 35.85 33.0 26.0 42.849 26.0 54.995003 C 26.0 67.151 35.85 77.0 48.0 77.0 C 60.152 77.0 70.0 67.151 70.0 54.995003 C 70.0 42.849 60.152 33.0 48.0 33.0 z M 67.431 50.862 L 67.603 51.035 C 67.68 51.414 67.725 51.803 67.78 52.188 L 66.944 51.351 L 67.431 50.862 z M 29.925 60.437 L 29.502 60.864 L 29.502 62.578 C 28.855 61.003 28.412998 59.326 28.186998 57.580997 L 29.273 58.664997 L 29.925 58.664997 L 29.925 60.437 z M 33.371 68.591 C 32.76 67.934006 32.189 67.240005 31.669998 66.506004 L 32.244 66.506004 L 33.371 67.632 L 33.371 68.591 z M 63.504997 49.729004 L 62.701996 50.531 L 60.013996 50.531 L 60.013996 49.834003 L 56.699997 49.834003 L 56.699997 48.788 L 52.06 48.788 L 49.059 51.789 L 49.059 57.268 L 51.186996 59.397003 L 56.317 59.397003 L 56.317 61.700005 L 57.608997 62.991005 L 57.608997 71.579 L 58.201996 72.171005 C 55.211 73.955 51.729 75.0 48.0 75.0 C 44.395 75.0 41.018 74.026 38.093 72.35 L 39.075 71.368 L 39.075 69.798 L 40.506 68.367 L 41.258 68.367 L 41.258 65.208 L 42.845 63.62 L 42.845 62.1 L 40.593 62.1 L 39.843 61.351 L 39.843 60.613 L 38.033 60.613 L 34.888 57.467 L 31.25 57.467 L 30.666 58.052 L 29.32 58.052 L 28.572 57.302 L 28.572 55.488 L 28.025 55.488 C 28.021 55.322 28.0 55.161 28.0 54.995 C 28.0 53.509 28.176 52.065 28.484 50.671 L 29.302 50.671 L 29.724 51.090992 L 29.724 52.101994 L 30.174002 52.101994 L 30.174002 50.184 L 31.501 48.857 L 32.374 48.857 L 34.993 46.237 L 36.526 46.237 L 36.948 45.821 L 36.948 44.494 L 36.492 44.494 L 36.492 44.149 L 38.659 44.149 L 39.225 43.587994 L 39.225 43.193993 L 38.569 42.539 L 38.569 40.740993 L 37.853 41.456993 L 37.121 41.456993 L 37.121 40.444992 L 36.04 40.444992 L 35.238003 41.248993 L 34.800003 41.248993 L 34.800003 42.557995 L 33.630005 43.727993 L 33.630005 42.64699 L 32.690006 42.64699 L 32.690006 42.15499 C 34.070015 40.51199 35.716015 39.10899 37.55002 37.978992 L 38.21801 38.648987 L 37.88801 38.97799 L 37.085007 38.97799 L 37.085007 39.433987 L 38.030006 40.37499 L 38.655006 40.37499 L 39.216007 39.815987 L 39.216007 39.204987 L 40.175007 39.204987 L 40.577007 38.80099 L 38.959007 37.18299 C 39.579006 36.867992 40.218006 36.58599 40.872005 36.33499 L 40.872005 36.589993 L 42.860004 36.589993 L 42.860004 38.00299 L 43.856003 38.00299 L 43.281 38.57899 L 42.601 38.57899 L 42.601 40.999996 L 43.709003 40.999996 L 44.956005 39.755997 L 45.81601 39.755997 L 47.940006 37.636 L 48.722008 37.636 L 51.09601 35.266 C 53.716007 35.676 56.163017 36.591 58.344017 37.916 L 57.746017 37.916 L 55.20601 40.453 L 55.20601 41.633 L 56.520008 41.633 L 57.20001 42.31 L 57.88401 42.31 L 58.34701 41.851 L 58.34701 40.026997 L 59.214012 39.159996 L 59.80202 39.159996 L 58.810013 40.150997 L 58.810013 40.933 L 60.22301 40.933 L 60.22301 41.321003 L 58.73801 42.802 C 58.73801 42.802 56.65201 42.880997 56.73201 42.802 C 56.81001 42.720997 56.45601 42.264004 56.45601 42.264004 L 55.72101 42.264004 L 53.821007 44.162003 L 52.583008 44.162003 L 52.583008 44.738003 L 53.174007 44.738003 L 53.174007 46.342003 L 51.35901 46.342003 L 51.35901 48.087 L 51.76101 48.49 L 52.92901 48.49 L 54.597008 46.822 L 54.597008 46.202003 L 56.24701 46.202003 L 57.67701 47.633003 L 58.270008 47.041004 L 56.945007 45.715004 L 57.78101 45.715004 L 58.916004 46.848003 L 58.916004 47.530003 L 60.15601 47.530003 L 60.15601 47.075 L 60.678005 47.075 L 62.194996 48.592 L 63.505005 48.592 L 63.505005 49.729 z M 61.796005 47.075 L 61.28801 46.572 L 61.305004 46.101 L 62.055004 45.348003 L 63.856003 45.348003 L 65.085 46.579 L 65.085 47.073997 L 61.796 47.073997 z M 65.199 65.15199 L 65.199 62.325993 L 67.27499 60.25099 C 66.800995 61.990993 66.099 63.63399 65.199 65.15199 z M 66.190994 57.161995 L 63.627995 54.595993 L 63.627995 51.33499 L 64.343994 51.33499 L 64.343994 54.36899 L 66.33099 56.35599 L 67.72499 56.35599 L 67.940994 56.13999 C 67.921 56.48099 67.913994 56.824993 67.87699 57.16099 L 66.190994 57.16099 z M 52.137993 43.291992 L 52.137993 43.01699 L 52.316994 42.83599 L 52.316994 42.404995 L 51.913994 42.404995 L 51.53799 42.716995 L 51.53799 42.99699 L 51.21899 43.319996 L 51.21899 43.664997 L 51.765995 43.664997 L 52.137997 43.291996 z M 53.027996 43.032 L 52.858997 43.032 L 52.504997 43.386 L 52.504997 43.775 L 53.726 43.775 L 54.063 43.437996 L 54.063 43.064995 L 53.169 42.17199 L 53.403 41.93499 L 53.403 41.654995 L 52.798 41.654995 L 53.097 41.35899 L 52.656 41.35899 L 52.365 41.62999 L 52.365 42.091995 L 53.027996 42.75399 L 53.027996 43.032 z " fill="#326bb8" fill-opacity="1" stroke-opacity="0.9"/>
</svg>
