<?xml version="1.0" encoding="UTF-8"?>
<svg xmlns="http://www.w3.org/2000/svg" xmlns:xlink="http://www.w3.org/1999/xlink" baseProfile="tiny" contentScriptType="text/ecmascript" contentStyleType="text/css" height="57px" preserveAspectRatio="xMidYMid meet" version="1.1" viewBox="0 0 67 57" width="67px" x="0px" y="0px" zoomAndPan="magnify">
<rect fill="#ffffff" fill-opacity="0.70588235" fill-rule="nonzero" height="48" ry="8.2174387" stroke="none" width="48" x="9.500001" y="4.5"/>
<rect color="#000000" display="inline" fill="#01a0f3" fill-opacity="0.58823528999999997" fill-rule="nonzero" height="48" ry="8.2174387" stroke="none" visibility="visible" width="48" x="9.5" y="4.5"/>
<path d="M 33.819992 14.42 C 33.819992 13.35952 32.960472 12.5 31.89999 12.5 L 26.779987 12.5 C 25.719513 12.5 24.85999 13.35952 24.85999 14.42 L 24.85999 17.62 L 33.819992 17.62 L 33.819992 14.419999 z M 29.413595 37.6712 C 29.594711 37.16112 30.077911 36.82 30.619991 36.82 L 34.40367 36.82 C 34.165596 36.524963 34.022873 36.15056 34.022873 35.74288 L 34.022873 34.9 L 22.299992 34.9 L 22.299992 32.98 L 34.08623 32.98 C 34.281433 32.245922 34.94511 31.7 35.73999 31.7 L 40.032475 31.7 L 40.032475 29.78 C 40.032475 29.28656 40.316635 28.836002 40.76272 28.62416 C 40.79408 28.60945 40.828 28.60304 40.859997 28.59024 L 40.859997 16.339998 C 40.859997 15.633438 40.286556 15.0599985 39.58 15.0599985 L 35.1 15.0599985 L 35.1 17.619995 C 35.1 18.32656 34.52656 18.9 33.82 18.9 L 24.859997 18.9 C 24.15344 18.9 23.579998 18.32656 23.579998 17.619995 L 23.579998 15.059998 L 19.099998 15.059998 C 18.393436 15.059994 17.819998 15.633433 17.819998 16.339993 L 17.819998 40.659992 C 17.819998 41.366547 18.393436 41.939995 19.099998 41.939995 L 33.312477 41.939995 L 29.812317 39.093273 C 29.39184 38.75152 29.23248 38.18192 29.4136 37.6712 z M 22.300003 22.740002 L 36.380005 22.740002 L 36.380005 24.66 L 22.300003 24.66 L 22.300003 22.740002 z M 22.300003 27.86 L 36.380005 27.86 L 36.380005 29.780005 L 22.300003 29.780005 L 22.300003 27.86 z M 35.302887 33.417118 L 35.302887 35.74352 C 35.302887 35.98352 35.500008 36.18 35.740005 36.18 L 49.180004 36.18 L 41.31249 29.78 L 41.31249 32.98 L 35.740005 32.98 C 35.500004 32.98 35.302887 33.17712 35.302887 33.417118 z M 44.06001 38.1 L 30.620008 38.1 L 38.487537 44.5 L 38.487537 41.3 L 44.060013 41.3 C 44.30001 41.3 44.49713 41.10288 44.49713 40.86288 L 44.49713 38.53648 C 44.49713 38.29648 44.30001 38.1 44.060013 38.1 z " fill="#ffffff" fill-opacity="1" stroke-opacity="0.3"/>
<defs>
<linearGradient gradientUnits="userSpaceOnUse" x1="39.5" x2="39.5" xlink:actuate="onLoad" xlink:show="other" xlink:type="simple" y1="54" y2="4.0005">
<stop offset="0" stop-color="#d0cbc5"/>
<stop offset="0.5031" stop-color="#fafcef"/>
<stop offset="0.9693" stop-color="#ffffff"/>
<stop offset="1" stop-color="#ffffff"/>
</linearGradient>
</defs>
</svg>
