<?xml version="1.0" encoding="UTF-8"?>
<svg xmlns="http://www.w3.org/2000/svg" xmlns:xlink="http://www.w3.org/1999/xlink" baseProfile="tiny" contentScriptType="text/ecmascript" contentStyleType="text/css" height="96px" preserveAspectRatio="xMidYMid meet" version="1.1" viewBox="0 0 96 96" width="96px" x="0px" y="0px" zoomAndPan="magnify">
<defs>
<linearGradient id="linearGradient3816">
<stop offset="0" stop-color="#ffffff" stop-opacity="1"/>
<stop offset="1" stop-color="#ffffff" stop-opacity="0.78431374"/>
</linearGradient>
<linearGradient>
<stop offset="0" stop-color="#3daa11" stop-opacity="1"/>
<stop offset="1" stop-color="#3d9e11" stop-opacity="1"/>
</linearGradient>
<linearGradient gradientTransform="matrix(0,1,-1,0,96.023001,-0.0230015)" gradientUnits="userSpaceOnUse" id="linearGradient3812" x1="8.023003" x2="88.023" y1="48" y2="48">
<stop offset="0" stop-color="#3dae11" stop-opacity="1"/>
<stop offset="1" stop-color="#3d9e11" stop-opacity="1"/>
</linearGradient>
<linearGradient gradientUnits="userSpaceOnUse" id="linearGradient3822" x1="48.2113" x2="48.2113" y1="31.438217" y2="64.252808">
<stop offset="0" stop-color="#ffffff" stop-opacity="1"/>
<stop offset="1" stop-color="#ffffff" stop-opacity="0.78431374"/>
</linearGradient>
<linearGradient gradientTransform="matrix(0,1,-1,0,96.023001,-0.0230015)" gradientUnits="userSpaceOnUse" id="linearGradient3826" x1="48.2113" x2="48.2113" y1="31.438217" y2="64.252808">
<stop offset="0" stop-color="#3dae11" stop-opacity="1"/>
<stop offset="1" stop-color="#3d9e11" stop-opacity="1"/>
</linearGradient>
</defs>
<path d="M 88.0 48.977 C 88.0 78.611 77.637 88.977005 48.0 88.977005 C 18.365 88.977005 8.0 78.61101 8.0 48.977005 C 8.0 19.343004 18.365 8.977005 48.0 8.977005 C 77.637 8.977 88.0 19.343 88.0 48.977 z " fill-opacity="0.4"/>
<rect fill="none" height="96" width="96"/>
<linearGradient gradientTransform="matrix(1 0 0 -1 -532.7988 -948.7012)" gradientUnits="userSpaceOnUse" x1="580.8223" x2="580.8223" xlink:actuate="onLoad" xlink:show="other" xlink:type="simple" y1="-964.6245" y2="-1032.98">
<stop offset="0" stop-color="#6fa519"/>
<stop offset="1" stop-color="#064c00"/>
</linearGradient>
<path d="M 48.023 88.0 C 18.39 88.0 8.022999 77.637 8.022999 48.000004 C 8.022999 18.365004 18.39 8.000004 48.023 8.000004 C 77.657 8.000004 88.022995 18.365004 88.022995 48.000004 C 88.022995 77.637 77.657 88.0 48.022995 88.0 z " fill="url(#linearGradient3812)" fill-opacity="1"/>
<linearGradient gradientTransform="matrix(1 0 0 -1 -532.7988 -948.7012)" gradientUnits="userSpaceOnUse" id="SVGID_2_" x1="580.7754" x2="580.7754" xlink:actuate="onLoad" xlink:show="other" xlink:type="simple" y1="-956.9526" y2="-1036.1982">
<stop offset="0" stop-color="#ffffff"/>
<stop offset="1" stop-color="#ffffff" stop-opacity="0"/>
</linearGradient>
<path d="M 47.977 8.0 C 18.342 8.0 7.977001 18.366 7.977001 48.0 C 7.977001 77.633 18.342 88.0 47.977 88.0 C 77.613 88.0 87.977005 77.633 87.977005 48.0 C 87.977 18.366 77.613 8.0 47.977 8.0 z M 47.977 87.0 C 18.819 87.0 8.977001 77.158 8.977001 48.0 C 8.977001 18.842005 18.819 9.0 47.977 9.0 C 77.135 9.0 86.977005 18.842 86.977005 48.0 C 86.977005 77.158005 77.135 87.0 47.977 87.0 z " fill="url(#SVGID_2_)" fill-opacity="0.25"/>
<path d="M 76.275 42.751 C 76.275 39.389 71.632 37.555 69.251 37.555 C 68.518 37.555 67.837 37.713 67.249 38.018 L 66.561 36.296 C 65.305 33.149002 61.232998 30.389006 57.84799 30.389006 L 39.539986 30.389006 C 36.156986 30.389006 32.086987 33.149002 30.830986 36.293007 L 30.142002 38.018 C 29.557005 37.709003 28.886002 37.555 28.14 37.555 C 25.755999 37.555 21.116 39.389 21.116 42.751 C 21.116 44.475 22.265999 45.779 24.375002 46.477 C 23.436005 47.960003 22.943005 49.661003 22.943005 51.432 L 22.943005 67.278 C 28.978619 67.58366 75.364 67.278 75.364 67.278 L 75.364 51.432 C 75.364 49.531998 74.805 47.729 73.742 46.184 C 75.381 45.435997 76.274994 44.233994 76.274994 42.751 z M 35.254993 39.553 C 35.86199 38.282 38.24399 36.987 39.97599 36.987 L 57.413994 36.987 C 59.145992 36.987 61.52899 38.284 62.136993 39.555 L 63.363995 42.121002 L 34.026993 42.121002 z " fill-opacity="0.07000002"/>
<path d="M 75.775 42.751 C 75.775 39.836998 71.54801 38.055 69.251 38.055 C 68.377 38.055 67.615 38.297 67.007996 38.762 L 66.09799 36.483 C 64.90999 33.504 61.054996 30.889006 57.84999 30.889006 L 39.54 30.889006 C 36.337 30.889006 32.485 33.501003 31.295002 36.479004 L 30.382002 38.764004 C 29.775002 38.297005 29.013002 38.055004 28.139002 38.055004 C 25.839005 38.055004 21.615002 39.83701 21.615002 42.751003 C 21.615002 44.415005 22.872002 45.618004 25.178999 46.188004 C 24.053999 47.701004 23.442 49.534004 23.442 51.432003 L 23.442 66.778 C 29.132961 67.01133 74.862 66.778 74.862 66.778 L 74.862 51.432 C 74.862 49.427998 74.187996 47.515 72.951996 45.961 C 74.779 45.32 75.77499 44.198997 75.774994 42.751 z M 64.15599 42.621 L 33.232986 42.621 L 34.80299 39.336 C 35.48999 37.898003 38.05199 36.486004 39.97499 36.486004 L 57.41299 36.486004 C 59.33899 36.486004 61.89999 37.898003 62.58599 39.339005 z " fill-opacity="0.1"/>
<path d="M 75.275 42.751 C 75.275 40.189 71.318 38.555 69.251 38.555 C 68.221 38.555 67.387 38.934002 66.82 39.643 L 65.631996 36.667 C 64.51199 33.855 60.872997 31.389 57.849995 31.389 L 39.54 31.389 C 36.518 31.389 32.882 33.854 31.76 36.664 L 30.57 39.644 C 30.005 38.933002 29.171999 38.554 28.14 38.554 C 26.071999 38.554 22.116 40.189 22.116 42.75 C 22.116 44.821 24.411 45.584 26.092 45.864 C 24.716 47.384 23.942999 49.359997 23.942999 51.43 L 23.942999 66.278 C 30.954079 66.401474 74.363 66.278 74.363 66.278 L 74.363 51.432 C 74.363 49.284 73.534996 47.244 72.062 45.704 C 74.118 45.190998 75.274994 44.142998 75.274994 42.751 z M 32.439995 43.121 L 34.351994 39.121 C 35.122 37.51 37.853996 35.986 39.975 35.986 L 57.413 35.986 C 59.536 35.986 62.268997 37.509 63.037 39.123 L 64.947 43.121002 z M 128.246 52.428 C 128.246 51.573 128.83 50.323 129.334 49.819 C 129.611 49.544 129.97699 49.391 130.363 49.391 C 130.748 49.391 131.11699 49.542 131.392 49.821 C 131.66501 50.093 131.82 50.461 131.82 50.848 C 131.82 51.237 131.668 51.602 131.391 51.876 C 130.88701 52.381 129.638 52.967 128.785 52.967 C 128.514 52.967 128.382 52.904 128.345 52.867 C 128.309 52.831 128.246 52.697002 128.246 52.428 z " fill-opacity="0.15"/>
<path d="M 74.775 42.751 C 74.775 40.579 71.191 39.055 69.251 39.055 C 68.316 39.055 67.247 39.403 66.75 40.811 L 65.168 36.852 C 64.113 34.208 60.693 31.889002 57.85 31.889002 L 39.54 31.889002 C 36.698 31.889002 33.28 34.207 32.224 36.85 L 30.641 40.813004 C 30.144 39.403004 29.074 39.055004 28.14 39.055004 C 26.2 39.055004 22.616 40.579 22.616 42.751003 C 22.616 44.635 25.168 45.335003 27.189 45.496 C 25.466 46.966003 24.443 49.125008 24.443 51.432007 L 24.443 65.778 L 73.863 65.778 L 73.863 51.432 C 73.863 49.079 72.795 46.875 71.004 45.403 C 72.961 45.109 74.774994 44.307 74.774994 42.751 z M 61.027 61.066 C 61.027 61.294006 60.84 61.478 60.613 61.478 L 37.775 61.478 C 37.547 61.478 37.362003 61.291 37.362003 61.066 C 37.362003 60.837 37.548004 60.652 37.775 60.652 L 60.613 60.652 C 60.843 60.652 61.027 60.838 61.027 61.066 z M 32.808 48.891 C 33.329 48.891 33.821 49.094 34.191 49.465 C 34.775 50.049 35.426 51.409 35.426 52.428 C 35.426 52.68 35.384 53.02 35.18 53.223 C 34.979 53.424 34.638 53.467 34.388 53.467 C 33.37 53.467 32.010002 52.815 31.425 52.229 C 31.056004 51.862 30.853 51.374 30.853 50.848 C 30.853 50.326 31.056 49.834 31.426 49.465 C 31.795 49.094 32.286 48.891 32.808 48.891 z M 31.634998 43.646 L 33.900997 38.906 C 34.754997 37.115993 37.650997 35.486 39.975 35.486 L 57.413 35.486 C 59.74 35.486 62.636997 37.117 63.488003 38.908 L 65.741005 43.622 L 32.251003 43.622 C 32.046 43.621 31.841 43.629 31.635 43.646 z M 62.732 52.428 C 62.732 51.409 63.381 50.049 63.965004 49.465 C 64.33501 49.094 64.826004 48.891 65.34901 48.891 C 65.87001 48.891 66.36301 49.094 66.73401 49.465 C 67.10301 49.834 67.30601 50.324 67.30601 50.848 C 67.30601 51.372 67.103004 51.862 66.73201 52.231 C 66.14801 52.815 64.78901 53.467 63.771015 53.467 C 63.519016 53.467 63.179016 53.424 62.97602 53.221 C 62.775 53.02 62.732 52.68 62.732 52.428 z " fill-opacity="0.15"/>
<linearGradient gradientTransform="matrix(1 0 0 1 -355.1992 -744.8008)" gradientUnits="userSpaceOnUse" x1="380.1416" x2="389.2773" xlink:actuate="onLoad" xlink:show="other" xlink:type="simple" y1="804.9199" y2="804.9199">
<stop offset="0" stop-color="#f3f4e8"/>
<stop offset="1" stop-color="#a29c98"/>
</linearGradient>
<linearGradient gradientTransform="matrix(1 0 0 1 -355.1992 -744.8008)" gradientUnits="userSpaceOnUse" x1="419.4277" x2="428.5625" xlink:actuate="onLoad" xlink:show="other" xlink:type="simple" y1="804.9199" y2="804.9199">
<stop offset="0" stop-color="#f3f4e8"/>
<stop offset="1" stop-color="#a29c98"/>
</linearGradient>
<path d="M 74.275 41.751 C 74.275 39.986 71.015 38.555 69.251 38.555 C 67.5 38.555 66.979 39.961 66.969 41.705 L 64.703 36.037003 C 63.716003 33.56 60.51 31.389004 57.849003 31.389004 L 39.54 31.389004 C 36.882 31.389004 33.677 33.561005 32.688 36.035004 L 30.422 41.707005 C 30.412 39.961006 29.888 38.555004 28.139 38.555004 C 26.373 38.555004 23.115 39.98901 23.115 41.751003 C 23.115 43.518 26.374 44.035004 28.139 44.035004 C 28.376 44.035004 28.587 44.025005 28.783 44.004005 C 26.501 45.244007 24.942 47.664005 24.942 50.432007 L 24.942 53.315006 L 24.942 56.829006 L 24.942 61.540005 C 24.942 63.048004 26.175 64.27801 27.682 64.27801 L 70.62 64.27801 C 72.128006 64.27801 73.361 63.048008 73.361 61.54001 L 73.361 56.82901 L 73.361 53.31501 L 73.361 50.43201 C 73.361 47.68401 71.822 45.27801 69.564 44.03001 C 71.378 43.973 74.275 43.418 74.275 41.751 z M 33.45 37.689 C 34.392 35.715 37.443 33.986 39.975 33.986 L 57.413 33.986 C 59.945004 33.986 62.999 35.715 63.939003 37.691 L 66.54401 43.146004 C 66.380005 43.136005 66.216 43.121 66.05201 43.121 L 32.251 43.121 C 31.748 43.121 31.258 43.174004 30.782 43.271004 L 33.45 37.689 z M 35.534 52.575 C 34.578 53.535 32.03 52.544003 31.071 51.583 C 30.112 50.627 30.112 49.068 31.071 48.111 C 31.55 47.631 32.178 47.388 32.807 47.388 C 33.434998 47.388 34.064 47.629 34.543 48.111 C 35.502 49.068 36.494 51.617 35.534 52.575 z M 60.613 60.979 L 37.775 60.979 C 37.27 60.979 36.862003 60.571 36.862003 60.067 C 36.862003 59.561 37.270004 59.153 37.775 59.153 L 60.613 59.153 C 61.12 59.153 61.527 59.561 61.527 60.067 C 61.527 60.57 61.12 60.979 60.613 60.979 z M 67.087 51.583 C 66.128 52.544 63.58 53.535 62.625 52.575 C 61.664 51.617 62.656 49.068 63.613 48.111 C 64.091995 47.631 64.722 47.388 65.349 47.388 C 65.978 47.388 66.607 47.629 67.084 48.111 C 68.047 49.068 68.047 50.627 67.087 51.583 z " fill="url(#linearGradient3826)" fill-opacity="1.0"/>
<path d="M 74.275 41.751 C 74.275 39.986 71.015 38.555 69.251 38.555 C 67.5 38.555 66.979 39.961 66.969 41.705 L 64.703 36.037003 C 63.716003 33.56 60.51 31.389004 57.849003 31.389004 L 39.54 31.389004 C 36.882 31.389004 33.677002 33.561005 32.688 36.035004 L 30.421999 41.707005 C 30.411999 39.961006 29.887999 38.555004 28.139 38.555004 C 26.373 38.555004 23.115 39.98901 23.115 41.751003 C 23.115 43.518 26.374 44.035004 28.139 44.035004 C 28.376 44.035004 28.587 44.025005 28.782999 44.004005 C 26.501 45.244007 24.942 47.664005 24.942 50.432007 L 24.942 53.315006 L 24.942 56.829006 L 24.942 61.540005 C 24.942 63.048004 26.175 64.27801 27.682 64.27801 L 70.619995 64.27801 C 72.128 64.27801 73.36099 63.048004 73.36099 61.54001 L 73.36099 56.82901 L 73.36099 53.31501 L 73.36099 50.43201 C 73.36099 47.68401 71.82199 45.27801 69.563995 44.03001 C 71.378 43.973 74.275 43.418 74.275 41.751 z M 33.45 37.689 C 34.392002 35.715 37.443 33.986 39.975002 33.986 L 57.413002 33.986 C 59.945007 33.986 62.999 35.715 63.939003 37.691 L 66.54401 43.146008 C 66.380005 43.13601 66.215996 43.121006 66.05201 43.121006 L 32.251 43.121006 C 31.748 43.121006 31.258 43.174007 30.782 43.27101 L 33.45 37.689 z M 35.534 52.574997 C 34.578 53.534996 32.03 52.544 31.071001 51.582996 C 30.112001 50.626995 30.112001 49.067997 31.071001 48.110996 C 31.550001 47.630997 32.178 47.387997 32.807 47.387997 C 33.434998 47.387997 34.064 47.628998 34.543 48.110996 C 35.502 49.067997 36.494 51.616997 35.534 52.574997 z M 60.613 60.978996 L 37.775 60.978996 C 37.27 60.978996 36.862003 60.570995 36.862003 60.066998 C 36.862003 59.560997 37.270004 59.152996 37.775 59.152996 L 60.613 59.152996 C 61.12 59.152996 61.527 59.560997 61.527 60.066998 C 61.527 60.569996 61.12 60.978996 60.613 60.978996 z M 67.087 51.582996 C 66.128 52.543995 63.579998 53.534996 62.625 52.574997 C 61.664 51.616997 62.656 49.067997 63.613 48.110996 C 64.091995 47.630997 64.722 47.387997 65.349 47.387997 C 65.978 47.387997 66.607 47.628998 67.084 48.110996 C 68.047 49.067997 68.047 50.626995 67.087 51.582996 z " fill="url(#linearGradient3822)" fill-opacity="1"/>
<linearGradient gradientTransform="matrix(-1 0 0 1 -577.9727 -744.8008)" gradientUnits="userSpaceOnUse" x1="-642.9233" x2="-655.3652" xlink:actuate="onLoad" xlink:show="other" xlink:type="simple" y1="796.4033" y2="797.7195">
<stop offset="0" stop-color="#ffffff"/>
<stop offset="1" stop-color="#a29c98"/>
</linearGradient>
<linearGradient gradientTransform="matrix(1 0 0 1 -355.1992 -744.8008)" gradientUnits="userSpaceOnUse" x1="388.4707" x2="376.0288" xlink:actuate="onLoad" xlink:show="other" xlink:type="simple" y1="796.3496" y2="797.6657">
<stop offset="0" stop-color="#ffffff"/>
<stop offset="1" stop-color="#a29c98"/>
</linearGradient>
</svg>
