<?xml version="1.0" encoding="UTF-8"?>
<svg xmlns="http://www.w3.org/2000/svg" xmlns:xlink="http://www.w3.org/1999/xlink" baseProfile="tiny" contentScriptType="text/ecmascript" contentStyleType="text/css" height="96px" preserveAspectRatio="xMidYMid meet" version="1.1" viewBox="0 0 96 96" width="96px" x="0px" y="0px" zoomAndPan="magnify">
<defs>
<linearGradient id="linearGradient3790">
<stop offset="0" stop-color="#a4b0bd" stop-opacity="1"/>
<stop offset="1" stop-color="#919faf" stop-opacity="1"/>
</linearGradient>
<linearGradient gradientTransform="matrix(0,1,-1,0,96,0)" gradientUnits="userSpaceOnUse" id="linearGradient3796" x1="8" x2="88" y1="48" y2="48">
<stop offset="0" stop-color="#a4b0bd" stop-opacity="1"/>
<stop offset="1" stop-color="#919faf" stop-opacity="1"/>
</linearGradient>
</defs>
<path d="M 88.0 49.0 C 88.0 78.635 77.639 89.0 48.0 89.0 C 18.365 89.0 8.0 78.635 8.0 49.0 C 8.0 19.367 18.365 9.0 48.0 9.0 C 77.637 9.0 88.0 19.367 88.0 49.0 z " fill-opacity="0.4"/>
<linearGradient gradientUnits="userSpaceOnUse" x1="47.9995" x2="47.9995" y1="7.4448" y2="80.5548">
<stop offset="0" stop-color="#a1b2c0"/>
<stop offset="1" stop-color="#3d465b"/>
</linearGradient>
<path d="M 48.0 88.0 C 18.367004 88.0 8.0 77.637 8.0 48.0 C 8.0 18.365 18.367 8.0 48.0 8.0 C 77.635 8.0 88.0 18.365 88.0 48.0 C 88.0 77.637 77.635 88.0 48.0 88.0 z " fill="url(#linearGradient3796)" fill-opacity="1"/>
<linearGradient gradientUnits="userSpaceOnUse" id="SVGID_2_" x1="47.9995" x2="47.9995" y1="8.2534" y2="87.4985">
<stop offset="0" stop-color="#ffffff"/>
<stop offset="1" stop-color="#ffffff" stop-opacity="0"/>
</linearGradient>
<path d="M 48.0 8.0 C 18.365 8.0 8.0 18.365 8.0 48.0 C 8.0 77.633 18.365 88.0 48.0 88.0 C 77.637 88.0 88.0 77.633 88.0 48.0 C 88.0 18.365 77.637 8.0 48.0 8.0 z M 48.0 87.0 C 18.842 87.0 9.0 77.158 9.0 48.0 C 9.0 18.842005 18.842 9.0 48.0 9.0 C 77.158005 9.0 87.0 18.842 87.0 48.0 C 87.0 77.158005 77.158 87.0 48.0 87.0 z " fill="url(#SVGID_2_)" fill-opacity="0.25" stroke-opacity="0.25"/>
<path d="M 47.965 78.0 C 41.023 78.0 35.681 75.499 32.088 70.565 C 28.712 65.918 27.0 58.771 27.0 49.324 C 27.0 40.373 28.726 33.571 32.129 29.108002 C 35.726 24.392 41.054 22.0 47.965 22.0 C 54.942 22.0 60.3 24.457 63.893 29.302 C 67.281 33.874 69.0 40.611 69.0 49.324 C 69.0 58.754 67.281 65.894 63.893 70.546005 C 60.286 75.492 54.928 78.0 47.965 78.0 L 47.965 78.0 z M 47.998 33.595 C 46.364 33.595 45.272 34.316 44.348 36.004 C 43.681 37.232 42.559 40.599003 42.559 49.324 C 42.559 55.95 43.191 60.699 44.435997 63.439003 C 45.625996 66.067 46.963997 66.404 47.997 66.404 C 49.57 66.404 50.682 65.59 51.599 63.763 C 52.437 62.093 53.437 58.233 53.437 49.324 C 53.437 41.329 52.454 37.735 51.629 36.129 C 50.711 34.354 49.625 33.595 47.998 33.595 L 47.998 33.595 z " fill-opacity="0.05" stroke-opacity="0.05"/>
<path d="M 47.965 77.0 C 41.36 77.0 36.29 74.637 32.897 69.977 C 29.647 65.505 28.0 58.558 28.0 49.324 C 28.0 40.597 29.656 34.0 32.924 29.715002 C 36.322 25.259 41.383 23.0 47.965 23.0 C 54.607 23.0 59.695 25.32 63.089 29.897 C 66.348 34.294 68.0 40.83 68.0 49.324 C 68.0 58.538 66.346 65.48 63.084 69.957 C 59.677 74.631 54.59 77.0 47.965 77.0 L 47.965 77.0 z M 47.998 32.595 C 46.004 32.595 44.564003 33.526 43.471 35.524 C 42.6 37.127003 41.559 40.824 41.559 49.325 C 41.559 56.096 42.221 60.984 43.526 63.854 C 44.624 66.277 46.045 67.405 47.997 67.405 C 49.97 67.405 51.398003 66.391 52.492 64.214 C 53.782 61.644997 54.436 56.635 54.436 49.324997 C 54.436 42.746 53.79 38.151997 52.518 35.672997 C 51.434 33.573 49.997 32.595 47.998 32.595 L 47.998 32.595 z " fill-opacity="0.05" stroke-opacity="0.05"/>
<path d="M 47.965 76.0 C 41.697 76.0 36.9 73.775 33.705 69.388 C 30.583 65.092 29.0 58.342 29.0 49.324 C 29.0 40.821 30.588 34.428 33.719 30.321 C 36.918 26.127 41.711 24.0 47.965 24.0 C 54.273 24.0 59.091 26.185 62.285 30.493 C 65.414 34.714 67.0 41.05 67.0 49.324 C 67.0 58.323 65.41 65.066 62.275 69.36801 C 59.067 73.769 54.253 76.0 47.965 76.0 L 47.965 76.0 z M 47.998 31.595 C 45.633 31.595 43.864 32.723 42.594 35.043 C 41.244003 37.524 40.559 42.33 40.559 49.323997 C 40.559 56.239 41.251003 61.267 42.616 64.267 C 43.878 67.050995 45.637 68.404 47.997 68.404 C 50.357 68.404 52.120003 67.18 53.386 64.662 C 54.746 61.952003 55.437 56.791004 55.437 49.324 C 55.437 42.584 54.754 37.837 53.409 35.215 C 52.149 32.779 50.379 31.595 47.998 31.595 L 47.998 31.595 z " fill-opacity="0.1" stroke-opacity="0.1"/>
<path d="M 47.965 75.0 C 42.009 75.0 37.526 72.936 34.514 68.799 C 31.502 64.655 30.0 58.17 30.0 49.324 C 30.0 41.009003 31.502 34.878 34.514 30.928 C 37.525 26.979 42.01 25.0 47.965 25.0 C 53.965 25.0 58.471 27.027 61.482 31.089 C 64.493004 35.151 66.0 41.229 66.0 49.324 C 66.0 58.146 64.488 64.634 61.467 68.779 C 58.443 72.928 53.943 75.0 47.965 75.0 M 47.996 69.404 C 50.746 69.404 52.838997 67.974 54.278 65.111 C 55.716 62.246 56.435 56.98 56.435 49.324 C 56.435 42.392 55.719 37.530003 54.296 34.758003 C 52.862 31.984003 50.765003 30.595003 47.997 30.595003 C 45.251003 30.595003 43.162003 31.922005 41.716003 34.563004 C 40.277004 37.209003 39.558 42.131004 39.558 49.325005 C 39.558 56.415005 40.273003 61.535004 41.704 64.68201 C 43.132 67.83 45.229 69.404 47.996 69.404 " fill-opacity="0.1" stroke-opacity="0.1"/>
<linearGradient gradientUnits="userSpaceOnUse" x1="47.9995" x2="47.9995" y1="23.167" y2="72.67">
<stop offset="0" stop-color="#f8fbee"/>
<stop offset="0.3232" stop-color="#f8fbee"/>
<stop offset="1" stop-color="#d2cbc5"/>
</linearGradient>
<path d="M 47.965 73.0 C 42.009 73.0 37.526 70.936 34.514 66.798996 C 31.502 62.655 30.0 56.17 30.0 47.324 C 30.0 39.009003 31.502 32.878002 34.514 28.928 C 37.525 24.979 42.01 23.0 47.965 23.0 C 53.965 23.0 58.471 25.027 61.482 29.089 C 64.493004 33.151 66.0 39.229 66.0 47.324 C 66.0 56.146 64.488 62.634003 61.467 66.779 C 58.443 70.928 53.943 73.0 47.965 73.0 M 47.996 67.404 C 50.746 67.404 52.838997 65.974 54.278 63.111 C 55.716 60.246 56.435 54.98 56.435 47.324 C 56.435 40.392 55.719 35.530003 54.296 32.758003 C 52.862 29.984003 50.765003 28.595003 47.997 28.595003 C 45.251003 28.595003 43.162003 29.922005 41.716003 32.563004 C 40.277004 35.209003 39.558 40.131004 39.558 47.325005 C 39.558 54.415005 40.273003 59.535004 41.704 62.682007 C 43.132 65.83 45.229 67.404 47.996 67.404 " fill="#ffffff" fill-opacity="1"/>
<rect fill="none" height="96" width="96"/>
</svg>
