<?xml version="1.0" encoding="UTF-8"?>
<svg xmlns="http://www.w3.org/2000/svg" xmlns:xlink="http://www.w3.org/1999/xlink" baseProfile="tiny" contentScriptType="text/ecmascript" contentStyleType="text/css" height="96px" preserveAspectRatio="xMidYMid meet" version="1.1" viewBox="0 0 96 96" width="96px" x="0px" y="0px" zoomAndPan="magnify">
<defs>
<linearGradient id="linearGradient3794">
<stop offset="0" stop-color="#ffffff" stop-opacity="1"/>
<stop offset="1" stop-color="#ffffff" stop-opacity="0.78431374"/>
</linearGradient>
<linearGradient>
<stop offset="0" stop-color="#f2b62a" stop-opacity="1"/>
<stop offset="1" stop-color="#f2a42a" stop-opacity="1"/>
</linearGradient>
<linearGradient gradientTransform="matrix(0,1,-1,0,96,0)" gradientUnits="userSpaceOnUse" id="linearGradient3790" x1="8" x2="88" y1="48" y2="48">
<stop offset="0" stop-color="#f2b62a" stop-opacity="1"/>
<stop offset="1" stop-color="#f2a42a" stop-opacity="1"/>
</linearGradient>
<linearGradient gradientUnits="userSpaceOnUse" id="linearGradient3800" x1="52.433899" x2="52.433899" y1="22.876837" y2="56.240559">
<stop offset="0" stop-color="#ffffff" stop-opacity="1"/>
<stop offset="1" stop-color="#ffffff" stop-opacity="0.78431374"/>
</linearGradient>
<linearGradient gradientTransform="matrix(0,1,-1,0,96,0)" gradientUnits="userSpaceOnUse" id="linearGradient3804" x1="52.433899" x2="52.433899" y1="22.876837" y2="56.240559">
<stop offset="0" stop-color="#f2b62a" stop-opacity="1"/>
<stop offset="1" stop-color="#f2a42a" stop-opacity="1"/>
</linearGradient>
</defs>
<path d="M 88.0 48.977 C 88.0 78.612 77.637 88.977005 48.0 88.977005 C 18.365 88.977005 8.0 78.61201 8.0 48.977005 C 8.0 19.345003 18.365 8.977005 48.0 8.977005 C 77.637 8.977 88.0 19.343 88.0 48.977 z " fill-opacity="0.4"/>
<rect fill="none" height="96" width="96"/>
<linearGradient gradientTransform="matrix(1 0 0 -1 -1433.1973 -2438.3027)" gradientUnits="userSpaceOnUse" x1="1481.1973" x2="1481.1973" y1="-2454.2231" y2="-2522.5786">
<stop offset="0" stop-color="#6fa519"/>
<stop offset="1" stop-color="#064c00"/>
</linearGradient>
<path d="M 48.0 88.0 C 18.367 88.0 8.0 77.637 8.0 48.0 C 8.0 18.365 18.367 8.0 48.0 8.0 C 77.634 8.0 88.0 18.365 88.0 48.0 C 88.0 77.637 77.634 88.0 48.0 88.0 z " fill="url(#linearGradient3790)" fill-opacity="1"/>
<linearGradient gradientTransform="matrix(1 0 0 -1 -1433.1973 -2438.3027)" gradientUnits="userSpaceOnUse" id="SVGID_2_" x1="1481.1504" x2="1481.1504" y1="-2446.5513" y2="-2525.7969">
<stop offset="0" stop-color="#ffffff"/>
<stop offset="1" stop-color="#ffffff" stop-opacity="0"/>
</linearGradient>
<path d="M 47.953 8.0 C 18.318 8.0 7.954 18.366 7.954 48.0 C 7.954 77.633 18.318 88.0 47.953 88.0 C 77.59 88.0 87.953 77.633 87.953 48.0 C 87.953 18.366 77.59 8.0 47.953 8.0 z M 47.953 87.0 C 18.795 87.0 8.954 77.158 8.954 48.0 C 8.954 18.842005 18.795 9.0 47.953 9.0 C 77.111 9.0 86.953 18.842 86.953 48.0 C 86.953 77.158005 77.111 87.0 47.953 87.0 z " fill="url(#SVGID_2_)" fill-opacity="0.25"/>
<path d="M 67.023 54.354 L 64.132 50.867 C 63.458004 50.737 62.802 50.596 62.111004 50.479 C 59.33701 50.012 56.474003 49.668 53.550003 49.44 L 52.892 50.234997 L 52.652 50.480995 C 55.238 50.705994 57.087 51.917995 59.539 52.39299 C 62.197 52.907 64.686 53.575 67.023 54.354 z M 30.631 51.182 C 33.128002 50.696 35.722 50.377 38.36 50.159 L 37.098 48.638 C 34.124 48.865 30.878 48.796 28.058 49.271 C 22.82 50.152 18.079998 51.417 13.9679985 53.029 C 12.303999 53.685 10.7839985 54.383 9.400999 55.122 C 9.565999 57.064 9.794999 58.901997 10.093999 60.635 C 10.122999 60.604 10.148999 60.572 10.178999 60.539997 C 12.221999 58.409996 15.067999 56.505997 18.632 54.886997 C 22.139 53.29 26.176 52.044 30.631 51.182 z M 85.928 59.831 C 83.586 57.738003 80.313 55.855 76.198 54.238003 C 75.112 53.81 73.973 53.413 72.802 53.036003 L 70.595 55.702003 C 70.908005 55.835003 71.24 55.956005 71.544 56.096004 C 75.11 57.716003 77.956 59.619003 79.996 61.748005 C 81.878006 63.714005 83.028 65.824005 83.409004 68.019005 L 83.43201 68.16 L 83.40501 68.29801 C 83.07601 69.95801 82.17801 71.565 80.742004 73.067 C 78.86 75.039 76.108 76.805 72.565 78.321 C 69.039 79.83 64.903 81.014 60.270004 81.842 C 55.460003 82.704 50.350006 83.141 45.083004 83.141 C 39.815 83.141 34.708004 82.704 29.897003 81.842 C 25.270004 81.01399 21.134005 79.825 17.609003 78.321 C 22.606005 83.405 30.025003 86.055 40.485 86.852 C 42.837 87.04 53.145 87.055 55.495003 86.871994 C 74.717 85.41499 83.699005 77.688 86.18 60.07299 C 86.094 59.992 86.018 59.911 85.928 59.831 z " fill="#ffffff" fill-opacity="0.2"/>
<path d="M 63.459 53.021 C 62.382 52.056 60.869 51.193 59.035 50.474 C 57.562 49.893997 55.871 49.412 54.035 49.037 L 52.752 50.585 C 54.203 50.939 55.537 51.386 56.703 51.917 C 58.224 52.608 59.471 53.435 60.355 54.356 C 61.126 55.161 61.622 56.042 61.785 56.966 C 61.648 57.649 61.273 58.305 60.687 58.919 C 59.878 59.764 58.674 60.529 57.165 61.178 C 55.644 61.824997 53.818 62.353996 51.775 62.720997 C 49.724003 63.087997 47.462 63.291996 45.084 63.291996 C 42.705997 63.291996 40.443 63.087997 38.395 62.720997 C 36.35 62.353996 34.523 61.824997 33.006 61.178 C 31.492 60.53 30.29 59.763996 29.483 58.919 C 28.897 58.305 28.522 57.648 28.385 56.966 C 28.546 56.04 29.043 55.159 29.814 54.356 C 30.7 53.434 31.948002 52.608 33.466 51.917 C 34.889 51.271 36.559 50.749 38.388 50.37 L 37.125 48.847 C 34.899 49.243 32.867 49.792 31.133 50.474 C 29.299 51.193 27.786 52.056 26.707 53.021 C 25.62 53.995 24.971998 55.07 24.877998 56.209 C 24.863 56.407 24.868998 56.603 24.887 56.798 C 24.884998 56.819 24.881 56.839 24.877998 56.861 C 24.864998 57.045 24.867 57.226 24.877998 57.408 C 24.787 58.726 25.27 59.999 26.226995 61.163 C 27.191998 62.340004 28.638998 63.407 30.461 64.310005 C 32.295 65.218 34.505997 65.95701 36.98 66.47201 C 39.463 66.98801 42.204 67.27101 45.084 67.27101 C 47.964 67.27101 50.705 66.988014 53.188 66.47201 C 55.664 65.95701 57.875 65.21801 59.709 64.310005 C 61.532 63.407005 62.98 62.338005 63.94 61.16301 C 64.899 59.999004 65.379 58.72601 65.291 57.408005 C 65.301 57.22601 65.304 57.04501 65.291 56.861004 C 65.288 56.840004 65.284 56.820004 65.28 56.798004 C 65.298 56.603004 65.303 56.407005 65.291 56.209003 C 65.195 55.07 64.548 53.994 63.459 53.021 z " fill="#ffffff" fill-opacity="0.8"/>
<path d="M 74.889 60.044 C 74.809 58.509 73.897 57.014 72.313 55.596 C 72.042 55.354 71.727005 55.121 71.417 54.887 L 69.367 57.364 L 64.388 51.354004 C 61.993 50.526005 59.336 49.852005 56.435 49.362003 C 55.652 49.231003 54.853 49.121 54.052 49.016003 L 52.953003 50.342003 C 53.546 50.432003 54.138004 50.526 54.718 50.637 C 57.687004 51.212 60.38 52.043 62.722 53.106003 C 65.101 54.186005 66.996 55.456 68.355 56.876003 C 69.61301 58.187004 70.37601 59.594 70.632 61.058 L 70.65 61.152004 L 70.629 61.244003 C 70.409 62.349003 69.814 63.421005 68.853 64.422005 C 67.601 65.73501 65.765 66.914 63.403996 67.925 C 61.049995 68.93 58.296997 69.723 55.209995 70.274 C 52.002995 70.85 48.597996 71.141 45.083996 71.141 C 41.571995 71.141 38.167995 70.85 34.960995 70.274 C 31.873997 69.721 29.115995 68.93 26.765997 67.925 C 24.406996 66.914 22.571997 65.737 21.318996 64.422005 C 20.357994 63.418003 19.761995 62.350006 19.541994 61.243004 L 19.522997 61.150005 L 19.539995 61.058006 C 19.793997 59.59401 20.557997 58.187008 21.814997 56.876007 C 23.175997 55.45601 25.073996 54.188007 27.449997 53.106007 C 29.787994 52.043007 32.480995 51.213005 35.449997 50.637005 C 36.362995 50.459003 37.296997 50.319004 38.24 50.194004 L 37.164997 48.895004 C 36.004997 49.02401 34.855995 49.173004 33.734997 49.362003 C 30.242996 49.952003 27.083996 50.795 24.341995 51.869003 C 21.595997 52.948 19.413998 54.203003 17.855995 55.598003 C 16.269997 57.016003 15.404997 58.514004 15.281998 60.045 C 15.261997 60.281 15.263998 60.534 15.291998 60.84 L 15.295998 60.882 L 15.293998 60.923 C 15.290998 60.953 15.285997 60.985 15.281998 61.018 C 15.263998 61.247 15.263998 61.494003 15.281998 61.772003 L 15.283998 61.805004 L 15.281998 61.83701 C 15.155997 63.645004 15.795998 65.421005 17.185995 67.11101 C 18.587996 68.81601 20.669996 70.35901 23.375998 71.70101 C 26.127998 73.064 29.376995 74.142006 33.031 74.902 C 36.835 75.693 40.889 76.091 45.084 76.091 C 49.279 76.091 53.333 75.693 57.137 74.902 C 60.791 74.142 64.041 73.064 66.794 71.7 C 69.5 70.35899 71.415 68.892 72.714 67.111 C 75.303 63.564 74.904 60.365 74.889 60.044 z " fill="#ffffff" fill-opacity="0.4"/>
<path d="M 36.105 46.668 L 35.717 46.156 C 33.489998 43.214996 31.188 40.171997 31.188 36.017 C 31.188 28.179 37.679 21.801998 45.66 21.801998 C 53.637 21.801998 60.126 28.178995 60.126 36.017 C 60.126 36.989 60.002 37.901997 59.782 38.765 C 60.892 34.582 64.767 31.486 69.367 31.486 C 74.824 31.486 79.265 35.853 79.265 41.22 C 79.265 44.154 77.654 46.248 76.097 48.273003 L 75.976 48.432003 L 69.367 56.413 L 62.782997 48.466003 L 62.514996 48.118004 C 61.014996 46.132004 59.46199 44.081005 59.46199 41.220005 C 59.46199 40.410004 59.563995 39.624004 59.752995 38.872005 C 58.992996 41.747005 57.186996 44.098007 55.42699 46.389008 L 55.238995 46.632008 L 45.658997 58.195007 L 36.105 46.668 z M 69.367 38.252 C 68.333 38.252 67.491 39.066 67.491 40.067 C 67.491 41.067997 68.333 41.881996 69.367 41.881996 C 70.398 41.881996 71.236 41.067997 71.236 40.067 C 71.236 39.066 70.398 38.252 69.367 38.252 z M 45.66 30.852 C 43.73 30.852 42.161 32.38 42.161 34.258 C 42.161 36.137 43.73 37.664 45.66 37.664 C 47.586 37.664 49.152 36.136997 49.152 34.258 C 49.152 32.38 47.586 30.852 45.66 30.852 z " fill-opacity="0.15"/>
<path d="M 36.572 46.281 L 36.201 45.790997 C 34.034 42.928 31.795 39.966995 31.795 36.018 C 31.795 28.513998 38.015 22.408997 45.66 22.408997 C 53.303 22.408997 59.519 28.513996 59.519 36.018 C 59.519 40.072 57.193 43.095997 54.945 46.021996 L 54.758 46.263996 L 45.657997 57.24699 L 36.572 46.281 z M 45.66 30.246 C 43.396 30.246 41.555 32.046 41.555 34.258 C 41.555 36.471 43.397 38.271 45.66 38.271 C 47.92 38.271 49.759 36.471 49.759 34.258 C 49.759 32.046 47.92 30.246 45.66 30.246 z M 63.25 48.08 L 63.0 47.752 C 61.561 45.849 60.068 43.881 60.068 41.221 C 60.068 36.188 64.24 32.092003 69.367004 32.092003 C 74.491005 32.092003 78.659004 36.188004 78.659004 41.221 C 78.659004 43.95 77.11101 45.962 75.615005 47.909 L 75.496 48.064 L 69.367004 55.462997 L 63.25 48.08 z M 69.367 37.646 C 67.99899 37.646 66.88699 38.732 66.88699 40.067 C 66.88699 41.402004 67.99899 42.488003 69.367 42.488003 C 70.732 42.488003 71.843994 41.402004 71.843994 40.067 C 71.843994 38.732 70.732 37.646 69.367 37.646 z " fill-opacity="0.15"/>
<path d="M 69.367 32.698 C 64.563995 32.698 60.675995 36.514 60.675995 41.22 C 60.675995 43.812 62.244995 45.741 63.715996 47.694 L 69.367 54.514 L 75.013 47.694 C 76.513 45.742 78.052 43.812 78.052 41.22 C 78.053 36.515 74.163 32.698 69.367 32.698 z M 69.367 43.094 C 67.662 43.094 66.279 41.74 66.279 40.068 C 66.279 38.397 67.662 37.042 69.367 37.042 C 71.06799 37.042 72.449 38.397 72.449 40.068 C 72.449 41.74 71.068 43.094 69.367 43.094 z M 45.66 23.015 C 38.336 23.015 32.4 28.838 32.4 36.018 C 32.4 39.973 34.795 42.917 37.039 45.894997 L 45.660004 56.297997 L 54.279003 45.894997 C 56.566 42.916996 58.914 39.972996 58.914 36.018 C 58.914 28.838 52.979 23.015 45.66 23.015 z M 45.66 38.877 C 43.058 38.877 40.949 36.810997 40.949 34.258 C 40.949 31.709 43.058 29.641 45.66 29.641 C 48.258 29.641 50.363 31.709 50.363 34.258 C 50.363 36.811 48.258 38.877 45.66 38.877 z " fill="url(#linearGradient3804)" fill-opacity="1"/>
<path d="M 69.367 32.698 C 64.563995 32.698 60.675995 36.514 60.675995 41.22 C 60.675995 43.812 62.244995 45.741 63.715996 47.694 L 69.367 54.514 L 75.013 47.694 C 76.513 45.742 78.052 43.812 78.052 41.22 C 78.053 36.515 74.163 32.698 69.367 32.698 z M 69.367 43.094 C 67.662 43.094 66.279 41.74 66.279 40.068 C 66.279 38.397 67.662 37.042 69.367 37.042 C 71.06799 37.042 72.449 38.397 72.449 40.068 C 72.449 41.74 71.068 43.094 69.367 43.094 z M 45.66 23.015 C 38.336 23.015 32.4 28.838 32.4 36.018 C 32.4 39.973 34.795 42.917 37.039 45.894997 L 45.660004 56.297997 L 54.279003 45.894997 C 56.566 42.916996 58.914 39.972996 58.914 36.018 C 58.914 28.838 52.979 23.015 45.66 23.015 z M 45.66 38.877 C 43.058 38.877 40.949 36.810997 40.949 34.258 C 40.949 31.709 43.058 29.641 45.66 29.641 C 48.258 29.641 50.363 31.709 50.363 34.258 C 50.363 36.811 48.258 38.877 45.66 38.877 z " fill="url(#linearGradient3800)" fill-opacity="1"/>
</svg>
