<?xml version="1.0" encoding="UTF-8"?>
<svg xmlns="http://www.w3.org/2000/svg" xmlns:xlink="http://www.w3.org/1999/xlink" baseProfile="tiny" contentScriptType="text/ecmascript" contentStyleType="text/css" height="57px" preserveAspectRatio="xMidYMid meet" version="1.1" viewBox="0 0 67 57" width="67px" x="0px" y="0px" zoomAndPan="magnify">
<defs/>
<rect color="#000000" display="inline" fill="#575757" fill-opacity="1" fill-rule="nonzero" height="57" stroke="none" stroke-width="4" visibility="visible" width="57" x="5" y="0"/>
<rect fill="none" height="57" width="67"/>
<linearGradient gradientTransform="matrix(1 0 0 -1 0.0449 56.7598)" gradientUnits="userSpaceOnUse" x1="33.4536" x2="33.4536" xlink:actuate="onLoad" xlink:show="other" xlink:type="simple" y1="12.8164" y2="44.4829">
<stop offset="0" stop-color="#d0cbc5"/>
<stop offset="1" stop-color="#fcfcf9"/>
</linearGradient>
<g transform="matrix(0.79407159,0,0,0.79407159,4.3845711,1.9871407)">
<path d="M 24.0 27.055 L 24.0 29.166 C 24.0 30.327 24.949 31.277 26.111 31.277 L 43.0 31.277 L 43.0 24.944 L 26.111 24.944 C 24.949 24.944 24.0 25.895 24.0 27.055 z M 16.693 37.613 L 16.528 37.611 C 13.996 37.611 13.443 38.72 13.443 40.769 C 13.443 42.826 14.013 43.939003 16.528 43.939003 L 16.693 43.943005 C 19.228 43.943005 19.777 42.83001 19.777 40.78101 C 19.777 38.729 19.213001 37.613 16.693 37.613 z M 51.443 29.875 L 51.443 31.277 C 52.229 31.277 52.89 30.824001 53.254 30.18 L 51.443 29.875 z M 51.443 12.277 L 26.111 12.277 C 24.949 12.277 24.0 13.228001 24.0 14.388 L 24.0 16.5 C 24.0 17.661 24.949 18.611 26.111 18.611 L 43.585 18.611 C 44.318 17.356 45.668 16.5 47.222 16.5 C 47.338 16.5 47.453 16.511 47.569 16.529 L 53.28 17.480999 C 53.44 17.183996 53.555 16.858 53.555 16.499996 L 53.555 14.388996 C 53.555 13.228 52.604 12.277 51.443 12.277 z M 51.443 37.611 L 51.443 43.943 C 52.604 43.943 53.554 42.994 53.554 41.834 L 53.554 39.723 C 53.555 38.561 52.604 37.611 51.443 37.611 z M 24.0 39.723 L 24.0 41.834 C 24.0 42.994 24.949 43.943 26.111 43.943 L 31.8 43.943 C 33.63 41.433002 36.999 39.722 40.888 39.722 C 41.601 39.722 42.306 39.779 42.999 39.896 L 42.999 37.611 L 26.111 37.611 C 24.949 37.611 24.0 38.561 24.0 39.723 z M 16.693 12.28 L 16.528 12.278 C 13.996 12.278 13.443 13.387 13.443 15.437 C 13.443 17.495 14.013 18.608 16.528 18.608 L 16.693 18.612 C 19.228 18.612 19.777 17.498999 19.777 15.448998 C 19.777 13.395 19.213 12.28 16.693 12.28 z M 16.693 24.946 L 16.528 24.943998 C 13.996 24.943998 13.443 26.052998 13.443 28.101995 C 13.443 30.159998 14.013 31.272997 16.528 31.272997 L 16.693 31.276997 C 19.228 31.276997 19.777 30.163996 19.777 28.113997 C 19.777 26.062 19.213 24.946 16.693 24.946 z " fill="#ffffff" fill-opacity="1"/>
<path d="M 59.889 20.722 L 47.222 18.611 C 46.055 18.611 45.112 19.557 45.112 20.722 L 45.112 24.944 L 45.112 42.711 C 43.866 42.168 42.434998 41.834 40.889 41.834 C 36.225 41.834 32.444 44.668 32.444 48.166 C 32.444 51.664 36.225 54.5 40.889 54.5 C 45.552002 54.5 49.333 51.664 49.333 48.166 L 49.333 27.377 L 59.889 29.166 L 59.889 20.722 z " fill="#ffffff" fill-opacity="1"/>
</g>
</svg>
