<?xml version="1.0" encoding="UTF-8"?>
<svg xmlns="http://www.w3.org/2000/svg" xmlns:xlink="http://www.w3.org/1999/xlink" baseProfile="tiny" contentScriptType="text/ecmascript" contentStyleType="text/css" height="57px" preserveAspectRatio="xMidYMid meet" version="1.1" viewBox="0 0 67 57" width="67px" x="0px" y="0px" zoomAndPan="magnify">
<path d="M 34.375 15.451 C 27.776 15.303 10.9 17.082 11.0 24.312 C 11.0 24.312 10.9 27.481 15.804 28.99 C 20.183 30.337 24.668 31.737999 20.234 35.465 C 17.026 38.16 17.4 41.247 21.8 43.753 C 26.172 45.79 31.654 46.0 35.561 46.0 C 47.431 46.0 57.0 39.402 57.0 30.782 C 57.0 22.164 50.68 15.82 34.375 15.451 z M 21.753 23.378 C 21.483 21.737 23.053 20.116001 25.254 19.757 C 27.454 19.398 29.457 20.438 29.723 22.075 C 29.994 23.715 28.427 25.335001 26.225 25.695 C 24.022 26.053999 22.022 25.017 21.753 23.378 z M 26.35 42.535 C 24.382 42.535 22.785 40.936 22.785 38.969 C 22.785 36.998 24.383 35.404003 26.35 35.404003 C 28.319 35.404003 29.916 36.999004 29.916 38.969 C 29.916 40.937 28.318 42.535004 26.35 42.535004 z M 37.314 24.999 C 35.086998 24.848001 33.376 23.378 33.489998 21.722 C 33.602997 20.067 35.502 18.843 37.721996 18.996 C 39.946995 19.148 41.659996 20.615 41.545998 22.273 C 41.434998 23.932001 39.540997 25.151001 37.314 24.999 z M 52.088997 27.528 C 51.362995 29.024 49.151997 29.445 47.144997 28.471 C 45.138996 27.5 44.1 25.498001 44.824997 24.004002 C 45.549995 22.509 47.762997 22.084002 49.769997 23.061 C 51.776997 24.033 52.813995 26.034 52.088997 27.528 z " fill="#ffffff" fill-opacity="1" stroke-opacity="0.29999999999999999"/>
<defs>
<linearGradient gradientUnits="userSpaceOnUse" x1="34" x2="34" y1="44.8926" y2="14.3359">
<stop offset="0" stop-color="#d0cbc5"/>
<stop offset="0.5031" stop-color="#fafcef"/>
<stop offset="0.9693" stop-color="#ffffff"/>
<stop offset="1" stop-color="#ffffff"/>
</linearGradient>
</defs>
</svg>
