<?xml version="1.0" encoding="UTF-8"?>
<svg xmlns="http://www.w3.org/2000/svg" xmlns:xlink="http://www.w3.org/1999/xlink" baseProfile="tiny" contentScriptType="text/ecmascript" contentStyleType="text/css" height="30px" preserveAspectRatio="xMidYMid meet" version="1.1" viewBox="0 0 30 30" width="30px" x="0px" y="0px" zoomAndPan="magnify">
<path d="M 28.0 4.0 L 26.0 4.0 L 26.0 2.0 C 26.0 0.89699996 25.104 0.0 24.0 0.0 C 22.896 0.0 22.0 0.897 22.0 2.0 L 22.0 4.0 L 3.0 4.0 C 1.897 4.0 1.0 4.897 1.0 6.0 L 1.0 24.0 C 1.0 25.104 1.8970001 26.0 3.0 26.0 L 27.0 26.0 C 28.103 26.0 29.0 25.104 29.0 24.0 L 29.0 7.722 C 29.596 7.375 30.0 6.737 30.0 6.0 C 30.0 4.897 29.104 4.0 28.0 4.0 z " fill-opacity="0.15"/>
<rect fill="none" height="30" width="30"/>
<path d="M 15.834 17.486 L 13.500999 14.969 C 13.500999 14.969 13.306999 14.776 13.058999 14.776 C 12.812999 14.776 12.615999 14.969 12.615999 14.969 L 10.0 17.485 L 10.0 20.0 L 24.0 20.0 L 24.0 16.228 L 21.152 12.6970005 C 21.152 12.6970005 20.957 12.504001 20.711 12.504001 C 20.463001 12.504001 20.269001 12.6970005 20.269001 12.6970005 L 15.834 17.486 L 15.834 17.486 z " fill="#dedede"/>
<rect fill="none" height="30" width="30"/>
<path d="M 2.0 5.0 L 2.0 23.0 C 2.0 23.553 2.447 24.0 3.0 24.0 L 4.25 24.0 L 4.25 4.0 L 3.0 4.0 C 2.447 4.0 2.0 4.448 2.0 5.0 z M 26.0 20.0 C 26.0 20.553 25.553 21.0 25.0 21.0 L 9.0 21.0 C 8.4470005 21.0 8.0 20.553 8.0 20.0 L 8.0 8.0 C 8.0 7.448 8.447 7.0 9.0 7.0 L 20.0 7.0 C 18.896 7.0 18.0 6.103 18.0 5.0 C 18.0 4.634 18.105 4.295 18.277 4.0 L 5.75 4.0 L 5.75 24.0 L 27.0 24.0 C 27.553 24.0 28.0 23.553 28.0 23.0 L 28.0 7.0 L 26.0 7.0 L 26.0 20.0 z M 13.501 13.97 C 13.501 13.97 13.307 13.777 13.059 13.777 C 12.813 13.777 12.616 13.97 12.616 13.97 L 10.0 16.485 L 10.0 19.0 L 24.0 19.0 L 24.0 15.228 L 21.152 11.697 C 21.152 11.697 20.957 11.504 20.711 11.504 C 20.463001 11.504 20.269001 11.697 20.269001 11.697 L 15.834002 16.486 L 15.834002 16.487 L 13.501 13.97 z M 28.0 4.0 L 25.0 4.0 L 25.0 1.0 C 25.0 0.448 24.553 0.0 24.0 0.0 C 23.447 0.0 23.0 0.448 23.0 1.0 L 23.0 4.0 L 20.0 4.0 C 19.447 4.0 19.0 4.448 19.0 5.0 C 19.0 5.552 19.447 6.0 20.0 6.0 L 23.0 6.0 L 23.0 9.0 C 23.0 9.552 23.447 10.0 24.0 10.0 C 24.553 10.0 25.0 9.552 25.0 9.0 L 25.0 6.0 L 28.0 6.0 C 28.553 6.0 29.0 5.552 29.0 5.0 C 29.0 4.448 28.553 4.0 28.0 4.0 z " fill-opacity="0.3"/>
<path d="M 2.0 6.0 L 2.0 24.0 C 2.0 24.553 2.447 25.0 3.0 25.0 L 4.25 25.0 L 4.25 5.0 L 3.0 5.0 C 2.447 5.0 2.0 5.448 2.0 6.0 z M 26.0 21.0 C 26.0 21.553 25.553 22.0 25.0 22.0 L 9.0 22.0 C 8.4470005 22.0 8.0 21.553 8.0 21.0 L 8.0 9.0 C 8.0 8.448 8.447 8.0 9.0 8.0 L 20.0 8.0 C 18.896 8.0 18.0 7.103 18.0 6.0 C 18.0 5.634 18.105 5.295 18.277 5.0 L 5.75 5.0 L 5.75 25.0 L 27.0 25.0 C 27.553 25.0 28.0 24.553 28.0 24.0 L 28.0 8.0 L 26.0 8.0 L 26.0 21.0 z M 13.501 14.97 C 13.501 14.97 13.307 14.777 13.059 14.777 C 12.813 14.777 12.616 14.97 12.616 14.97 L 10.0 17.485 L 10.0 20.0 L 24.0 20.0 L 24.0 16.228 L 21.152 12.6970005 C 21.152 12.6970005 20.957 12.504001 20.711 12.504001 C 20.463001 12.504001 20.269001 12.6970005 20.269001 12.6970005 L 15.834002 17.486 L 15.834002 17.487 L 13.501 14.97 z M 28.0 5.0 L 25.0 5.0 L 25.0 2.0 C 25.0 1.448 24.553 1.0 24.0 1.0 C 23.447 1.0 23.0 1.448 23.0 2.0 L 23.0 5.0 L 20.0 5.0 C 19.447 5.0 19.0 5.448 19.0 6.0 C 19.0 6.552 19.447 7.0 20.0 7.0 L 23.0 7.0 L 23.0 10.0 C 23.0 10.552 23.447 11.0 24.0 11.0 C 24.553 11.0 25.0 10.552 25.0 10.0 L 25.0 7.0 L 28.0 7.0 C 28.553 7.0 29.0 6.552 29.0 6.0 C 29.0 5.448 28.553 5.0 28.0 5.0 z " fill="#dedede"/>
</svg>
