<?xml version="1.0" encoding="UTF-8"?>
<svg xmlns="http://www.w3.org/2000/svg" xmlns:xlink="http://www.w3.org/1999/xlink" baseProfile="tiny" contentScriptType="text/ecmascript" contentStyleType="text/css" height="60px" preserveAspectRatio="xMidYMid meet" version="1.1" viewBox="0 0 58 60" width="58px" x="0px" y="0px" zoomAndPan="magnify">
<rect fill="none" height="60" width="58"/>
<defs>
<linearGradient gradientTransform="matrix(1 0 0 -1 -262.4805 -326.0195)" gradientUnits="userSpaceOnUse" x1="291.7246" x2="291.7246" xlink:actuate="onLoad" xlink:show="other" xlink:type="simple" y1="-392.6772" y2="-286.6879">
<stop offset="0" stop-color="#d0cbc5"/>
<stop offset="0.5031" stop-color="#fafcef"/>
<stop offset="0.9693" stop-color="#ffffff"/>
<stop offset="1" stop-color="#ffffff"/>
</linearGradient>
</defs>
<path color="#000000" d="M 28.985985 6.7556567 C 25.031036 6.755703 21.875374 7.877991 19.49414 10.134952 C 17.112892 12.391995 15.916059 15.170801 15.916063 18.4838 C 15.916059 20.678717 16.487556 22.575428 17.605713 24.149086 C 18.723852 25.722803 20.454912 26.92792 22.774044 27.77686 C 19.999369 28.50161 17.864536 29.85374 16.363323 31.85189 C 14.862102 33.85008 14.077326 36.34521 14.07733 39.306217 C 14.077327 43.281868 15.448092 46.584545 18.202057 49.24532 C 20.956009 51.9061 24.592058 53.270653 29.085373 53.270657 C 33.57865 53.270653 37.214703 51.94544 39.96869 49.295017 C 42.72262 46.644596 44.093384 43.34813 44.09342 39.455307 C 44.093388 36.639244 43.36659 34.229015 41.906815 32.199764 C 40.44698 30.170551 38.29144 28.68797 35.496098 27.776863 C 37.75307 26.927923 39.457214 25.712456 40.565037 24.14909 C 41.6728 22.585785 42.20496 20.794674 42.20499 18.682585 C 42.20496 15.369586 40.999844 12.543156 38.577217 10.234345 C 36.154537 7.9256167 32.961605 6.755703 28.985985 6.7556567 z M 29.035675 11.377338 C 31.147717 11.37738 32.93468 12.066904 34.353096 13.46455 C 35.771465 14.862274 36.48998 16.582977 36.49 18.632883 C 36.489975 20.600027 35.779747 22.246193 34.40279 23.602436 C 33.025787 24.958736 31.288515 25.639978 29.135063 25.639952 C 26.919458 25.639978 25.105574 24.96909 23.718254 23.602436 C 22.33091 22.23584 21.631033 20.488216 21.631042 18.334711 C 21.631033 16.429752 22.3599 14.78152 23.76795 13.414855 C 25.175976 12.04827 26.902891 11.377381 29.035675 11.377338 z M 28.985985 30.21194 C 31.677809 30.211962 33.903748 31.085772 35.69488 32.845802 C 37.48596 34.60587 38.37841 36.862873 38.378437 39.554695 C 38.37841 42.20513 37.48389 44.34618 35.744576 46.064808 C 34.00521 47.783447 31.806185 48.648975 29.13507 48.648975 C 27.416418 48.64898 25.805458 48.274193 24.314606 47.456284 C 22.823729 46.638386 21.740782 45.468468 20.985006 43.977596 C 20.229214 42.48674 19.842005 40.95032 19.842009 39.35591 C 19.842 36.74691 20.697178 34.58516 22.426176 32.8458 C 24.155151 31.106478 26.356249 30.211958 28.985985 30.211937 z " display="inline" fill="#dedede" fill-opacity="1" fill-rule="nonzero" stroke="none" stroke-width="2" visibility="visible"/>
</svg>
