<?xml version="1.0" encoding="UTF-8"?>
<svg xmlns="http://www.w3.org/2000/svg" xmlns:xlink="http://www.w3.org/1999/xlink" baseProfile="tiny" contentScriptType="text/ecmascript" contentStyleType="text/css" height="16" preserveAspectRatio="xMidYMid meet" version="1.1" viewBox="0 0 17 16" width="17" x="0" y="0" zoomAndPan="magnify">
<g>
<g>
<rect fill="none" height="15.915" width="15.917" x="0.542" y="0.042"/>
</g>
<g>
<path d="M 10.621 3.472 L 10.621 2.96 C 10.621 2.377 10.264 2.214 9.824 2.598 L 7.288 4.817 L 4.787 4.817 C 4.203 4.817 3.725 5.295 3.725 5.878 L 3.725 9.592 C 3.725 9.813 3.793 10.016 3.909 10.186 L 10.621 3.472 z " fill-opacity="0.3" stroke-opacity="0.3"/>
<path d="M 15.773 0.198 C 15.564 -0.01 15.228 -0.01 15.021 0.198 L 1.229 13.99 C 1.021 14.197 1.021 14.533 1.229 14.742 C 1.332 14.844 1.468 14.896 1.604 14.896 C 1.74 14.896 1.876 14.843 1.979 14.742 L 15.773 0.948 C 15.979 0.741 15.979 0.405 15.773 0.198 z " fill-opacity="0.3" stroke-opacity="0.3"/>
<path d="M 7.288 10.652 L 9.824 12.873 C 10.263 13.256 10.621 13.092 10.621 12.51 L 10.621 7.223 L 7.193 10.652 L 7.288 10.652 z " fill-opacity="0.3" stroke-opacity="0.3"/>
<path d="M 16.146 0.353 C 15.947 0.152 15.679 0.042 15.396 0.042 C 15.113 0.042 14.847 0.152 14.646 0.353 L 11.152 3.847 L 11.152 3.491 C 11.152 2.73 10.705 2.389 10.259 2.389 C 9.995 2.389 9.732 2.503 9.474 2.728 L 7.088 4.817 L 4.787 4.817 C 3.909 4.817 3.195 5.531 3.195 6.409 L 3.195 10.123 C 3.195 10.441 3.29 10.75 3.47 11.014 C 3.542 11.121 3.65 11.196 3.771 11.229 L 0.854 14.147 C 0.653 14.346 0.542 14.614 0.542 14.897 C 0.542 15.18 0.652 15.448 0.852 15.647 C 1.052 15.848 1.319 15.958 1.603 15.958 C 1.886 15.958 2.152 15.849 2.353 15.647 L 6.68 11.32 C 6.686 11.343 6.694 11.365 6.702 11.386 C 6.769 11.546 6.908 11.661 7.072 11.699 L 9.474 13.803 C 9.732 14.028 9.995 14.141 10.259 14.141 C 10.546 14.141 10.804 14.0 10.966 13.756 C 11.0889 13.567 11.1519 13.326 11.1519 13.039 L 11.1519 6.848 L 16.1459 1.853 C 16.561 1.439 16.561 0.767 16.146 0.353 z " fill-opacity="0.15" stroke-opacity="0.15"/>
<path d="M 7.288 11.184 L 9.824 13.403 C 10.263 13.788 10.621 13.624 10.621 13.04 L 10.621 7.754 L 7.193 11.184 L 7.288 11.184 z M 10.621 4.002 L 10.621 3.491 C 10.621 2.908 10.264 2.744 9.824 3.128 L 7.288 5.348 L 4.787 5.348 C 4.203 5.348 3.725 5.826 3.725 6.409 L 3.725 10.123 C 3.725 10.342 3.793 10.547 3.909 10.717 L 10.621 4.002 z M 15.773 0.729 C 15.564 0.521 15.228 0.521 15.021 0.729 L 1.229 14.521 C 1.021 14.728 1.021 15.064 1.229 15.271 C 1.332 15.375 1.468 15.427 1.604 15.427 C 1.74 15.427 1.876 15.374 1.979 15.271 L 15.773 1.479 C 15.979 1.271 15.979 0.936 15.773 0.729 z " fill-opacity="0.15" stroke-opacity="0.15"/>
<path d="M 7.288 11.184 L 9.824 13.403 C 10.263 13.788 10.621 13.624 10.621 13.04 L 10.621 7.754 L 7.193 11.184 L 7.288 11.184 z M 10.621 4.002 L 10.621 3.491 C 10.621 2.908 10.264 2.744 9.824 3.128 L 7.288 5.348 L 4.787 5.348 C 4.203 5.348 3.725 5.826 3.725 6.409 L 3.725 10.123 C 3.725 10.342 3.793 10.547 3.909 10.717 L 10.621 4.002 z " fill="#dedede"/>
<path d="M 1.604 15.428 C 1.468 15.428 1.332 15.375 1.229 15.272 C 1.021 15.065 1.021 14.729 1.229 14.522 L 15.021 0.729 C 15.228 0.521 15.564 0.521 15.773 0.729 C 15.978 0.937 15.978 1.271 15.773 1.479 L 1.979 15.271 C 1.875 15.375 1.739 15.428 1.604 15.428 L 1.604 15.428 z " fill="#fa664b"/>
</g>
</g>
</svg>
