<?xml version="1.0" encoding="UTF-8"?>
<svg xmlns="http://www.w3.org/2000/svg" xmlns:xlink="http://www.w3.org/1999/xlink" baseProfile="tiny" contentScriptType="text/ecmascript" contentStyleType="text/css" height="30px" preserveAspectRatio="xMidYMid meet" version="1.1" viewBox="0 0 30 30" width="30px" x="0px" y="0px" zoomAndPan="magnify">
<path d="M 29.414 3.414 C 29.792 3.036 30.0 2.534 30.0 2.0 C 30.0 1.4660001 29.792 0.964 29.414 0.58599997 C 29.036 0.20799994 28.534 0.0 28.0 0.0 C 27.466 0.0 26.964 0.208 26.586 0.586 L 21.801 5.371 C 21.063 2.296 18.298 0.0 15.0 0.0 C 11.141 0.0 8.0 3.141 8.0 7.0 L 8.0 14.0 C 8.0 12.896 7.104 12.0 6.0 12.0 C 4.896 12.0 4.0 12.896 4.0 14.0 C 4.0 16.536 4.883 18.908 6.373 20.799 L 0.58599997 26.586 C 0.208 26.964 0.0 27.466 0.0 28.0 C 0.0 28.534 0.208 29.036 0.586 29.414 C 0.96400005 29.792 1.466 30.0 2.0 30.0 C 2.534 30.0 3.036 29.792 3.414 29.414 L 9.3810005 23.446999 C 10.192 23.929998 11.067 24.318998 12.0 24.583998 L 12.0 25.0 L 11.0 25.0 C 9.896 25.0 9.0 25.896 9.0 27.0 C 9.0 28.104 9.896 29.0 11.0 29.0 L 19.0 29.0 C 20.104 29.0 21.0 28.104 21.0 27.0 C 21.0 25.896 20.104 25.0 19.0 25.0 L 18.0 25.0 L 18.0 24.584 C 22.682 23.256 26.0 18.93 26.0 14.0 C 26.0 12.896 25.104 12.0 24.0 12.0 C 22.896 12.0 22.0 12.896 22.0 14.0 L 22.0 10.828 L 29.414 3.414 z " fill-opacity="0.15"/>
<path d="M 9.709 15.756 L 20.818 4.646 C 20.201 1.989 17.846 0.0 15.0 0.0 C 11.686 0.0 9.0 2.687 9.0 6.0 L 9.0 13.5 L 9.025 13.5 C 9.093 14.315 9.346 15.069 9.709 15.756 z M 20.975 13.5 L 21.0 13.5 L 21.0 11.535 L 13.709 18.826 C 14.126 18.925 14.552 19.0 15.0 19.0 C 18.146 19.0 20.721 16.58 20.975 13.5 z M 8.234 17.23 C 7.461 16.001 7.0 14.557 7.0 13.0 C 7.0 12.4470005 6.553 12.0 6.0 12.0 C 5.447 12.0 5.0 12.447 5.0 13.0 C 5.0 15.109 5.669 17.061 6.789 18.676 L 8.234 17.23 z M 24.0 12.0 C 23.447 12.0 23.0 12.447 23.0 13.0 C 23.0 17.411 19.411 21.0 15.0 21.0 C 13.974 21.0 12.998 20.793 12.096 20.439 L 10.59 21.945 C 11.348001 22.322 12.149 22.625 13.0 22.799 L 13.0 25.0 L 11.0 25.0 C 10.4470005 25.0 10.0 25.448 10.0 26.0 C 10.0 26.553 10.447 27.0 11.0 27.0 L 19.0 27.0 C 19.553 27.0 20.0 26.553 20.0 26.0 C 20.0 25.448 19.553 25.0 19.0 25.0 L 17.0 25.0 L 17.0 22.799 C 21.559 21.869 25.0 17.829 25.0 13.0 C 25.0 12.447 24.553 12.0 24.0 12.0 z M 28.707 0.293 C 28.316 -0.09799999 27.684 -0.09799999 27.293001 0.293 L 1.2930012 26.293 C 0.90200114 26.684 0.90200114 27.316 1.2930012 27.706999 C 1.488 27.902 1.744 28.0 2.0 28.0 C 2.256 28.0 2.512 27.902 2.707 27.707 L 28.707 1.7070007 C 29.098 1.316 29.098 0.684 28.707 0.293 z " fill-opacity="0.3"/>
<rect fill="none" height="30" width="30"/>
<path d="M 15.0 1.0 C 11.686 1.0 9.0 3.687 9.0 7.0 L 9.0 14.5 L 9.025 14.5 C 9.092 15.315 9.344999 16.069 9.709 16.756 L 20.818 5.646 C 20.201 2.989 17.846 1.0 15.0 1.0 z M 15.0 20.0 C 18.146 20.0 20.721 17.58 20.975 14.5 L 21.0 14.5 L 21.0 12.535 L 13.709 19.826 C 14.126 19.925 14.552 20.0 15.0 20.0 z M 6.0 13.0 C 5.447 13.0 5.0 13.447 5.0 14.0 C 5.0 16.109 5.669 18.061 6.789 19.676 L 8.234 18.231 C 7.461 17.001 7.0 15.557 7.0 14.0 C 7.0 13.447 6.553 13.0 6.0 13.0 z M 25.0 14.0 C 25.0 13.4470005 24.553 13.0 24.0 13.0 C 23.447 13.0 23.0 13.447 23.0 14.0 C 23.0 18.411 19.411 22.0 15.0 22.0 C 13.974 22.0 12.998 21.793 12.096 21.439 L 10.59 22.945 C 11.348001 23.322 12.149 23.625 13.0 23.799 L 13.0 26.0 L 11.0 26.0 C 10.4470005 26.0 10.0 26.448 10.0 27.0 C 10.0 27.553 10.447 28.0 11.0 28.0 L 19.0 28.0 C 19.553 28.0 20.0 27.553 20.0 27.0 C 20.0 26.448 19.553 26.0 19.0 26.0 L 17.0 26.0 L 17.0 23.799 C 21.559 22.869 25.0 18.829 25.0 14.0 z " fill="#ffffff"/>
<path d="M 2.0 29.0 C 1.744 29.0 1.4879999 28.902 1.293 28.707 C 0.90199995 28.316 0.90199995 27.684 1.293 27.293001 L 27.293 1.2930012 C 27.684 0.90200114 28.316 0.90200114 28.706999 1.2930012 C 29.097998 1.6840012 29.098 2.3160012 28.706999 2.7070012 L 2.7069988 28.707 C 2.512 28.902 2.256 29.0 2.0 29.0 L 2.0 29.0 z " fill="#fa664b"/>
</svg>
