<?xml version="1.0" encoding="UTF-8"?>
<svg xmlns="http://www.w3.org/2000/svg" xmlns:xlink="http://www.w3.org/1999/xlink" baseProfile="tiny" contentScriptType="text/ecmascript" contentStyleType="text/css" height="26px" preserveAspectRatio="xMidYMid meet" version="1.1" viewBox="0 0 26 26" width="26px" x="0px" y="0px" zoomAndPan="magnify">
<path d="M 13.062 20.437 C 13.025001 20.397 12.991 20.353 12.96 20.308 C 11.42 18.037 11.687 16.177 12.191 15.008 C 12.108 14.774 12.064 14.524 12.064 14.268001 C 12.064 13.053 13.053 12.065001 14.268 12.065001 C 14.525 12.065001 14.773999 12.109 15.009 12.192 C 15.608 11.934 16.25 11.8 16.899 11.8 C 18.026 11.8 19.173 12.191 20.308 12.96 C 20.352 12.99 20.395 13.023 20.435 13.059 C 20.709002 13.305 21.125002 13.542 21.590002 13.774 C 23.777002 10.348 22.983002 7.757 22.070002 6.296 C 22.373 5.992 22.559002 5.575 22.559002 5.112 C 22.559002 4.189 21.81 3.441 20.886002 3.441 C 20.425 3.441 20.007002 3.627 19.704002 3.93 C 18.202002 2.992 15.511003 2.1680002 11.942002 4.5880003 C 9.796002 6.5080004 5.036002 7.632 3.4100027 9.396 C 3.4100027 9.396 2.4840026 10.069 3.4110024 10.997 C 4.751003 12.339 6.0930023 13.679 7.4340024 15.02 C 6.7120023 15.478 6.2300024 16.276 6.2300024 17.193 C 6.2300024 18.616 7.3820024 19.768 8.806003 19.766998 C 9.722003 19.766998 10.521003 19.287 10.978003 18.565 C 11.821003 19.408 12.665003 20.252 13.508002 21.095 C 13.364 20.842 13.216 20.608 13.062 20.437 z " fill="#dedede" fill-opacity="1"/>
<path d="M 24.753 16.838 C 23.777 15.778999 20.922 15.105999 19.634 13.952999 C 17.493 12.500999 15.878 12.995999 14.977001 13.557999 C 14.795001 13.374999 14.544002 13.263999 14.268002 13.263999 C 13.714002 13.263999 13.264002 13.712999 13.264002 14.266999 C 13.264002 14.544 13.376002 14.794 13.5580015 14.976999 C 12.996001 15.876999 12.502002 17.493 13.954001 19.633 C 15.123001 20.931 15.746001 23.743 16.838 24.751 C 16.838 24.751 17.243002 25.309 17.799002 24.752 C 18.604002 23.947 19.408 23.143 20.213 22.338 C 20.487 22.772 20.967 23.06 21.517002 23.06 C 22.371002 23.061 23.062002 22.37 23.062002 21.515 C 23.062002 20.965 22.773005 20.487 22.340002 20.211 C 23.145002 19.405998 23.949 18.603 24.753002 17.797 C 25.309 17.241 24.753 16.838 24.753 16.838 z " fill="#dedede"/>
<rect fill="none" height="26" width="26"/>
<defs>
<linearGradient gradientUnits="userSpaceOnUse" x1="12.9976" x2="12.9976" xlink:actuate="onLoad" xlink:show="other" xlink:type="simple" y1="21.0957" y2="3.0005">
<stop offset="0" stop-color="#d0cbc5"/>
<stop offset="1" stop-color="#fcfcf9"/>
</linearGradient>
</defs>
</svg>
