<?xml version="1.0" encoding="UTF-8"?>
<svg xmlns="http://www.w3.org/2000/svg" xmlns:xlink="http://www.w3.org/1999/xlink" baseProfile="tiny" contentScriptType="text/ecmascript" contentStyleType="text/css" height="26px" preserveAspectRatio="xMidYMid meet" version="1.1" viewBox="0 0 26 26" width="26px" x="0px" y="0px" zoomAndPan="magnify">
<path d="M 1.926 22.148 L 1.926 24.074 L 24.074 24.074 L 24.074 22.148 L 1.926 22.148 z M 14.444 5.173 C 14.444 2.6449995 13.002 0.9629998 13.002 0.9629998 C 13.002 0.9629998 11.556 2.646 11.556 5.173 C 11.556 6.569 12.040999 7.703 13.002 7.703 C 13.965 7.704 14.444 6.57 14.444 5.173 z M 22.148 17.333 C 21.082 17.821 19.033 18.675 17.739 18.675 C 16.782 18.675 15.902 18.235 15.05 17.81 C 14.315001 17.441 13.621 17.094 13.001 17.094 C 12.38 17.094 11.687 17.441 10.951 17.809 C 10.098001 18.235 9.217 18.675 8.255 18.675 C 6.964 18.675 4.919 17.822 3.853 17.333 L 3.853 21.186 L 22.149 21.186 L 22.149 17.333 z M 10.304 16.516 C 11.157 16.088001 12.039 15.649001 13.0 15.649001 C 13.961 15.649001 14.843 16.090002 15.696 16.517 C 16.43 16.884 17.121 17.23 17.738 17.23 C 18.893002 17.23 21.292 16.161 22.147 15.733999 L 22.147 14.445 C 22.147 13.384 21.281002 12.519 20.221 12.519 L 14.443001 12.519 L 14.443001 7.704 L 13.001 7.704 L 11.556001 7.704 L 11.556001 12.519 L 5.778 12.519 C 4.718 12.519 3.852 13.384 3.852 14.445 L 3.852 15.735 C 4.707 16.161 7.106 17.23 8.253 17.23 C 8.875 17.229 9.569 16.883 10.304 16.516 z " fill="#dedede" fill-opacity="1"/>
<rect fill="none" height="26" width="26"/>
<defs>
<linearGradient gradientTransform="matrix(1 0 0 -1 -249.4805 -347.0195)" gradientUnits="userSpaceOnUse" x1="262.4805" x2="262.4805" xlink:actuate="onLoad" xlink:show="other" xlink:type="simple" y1="-371.0938" y2="-347.9824">
<stop offset="0" stop-color="#d0cbc5"/>
<stop offset="1" stop-color="#fcfcf9"/>
</linearGradient>
</defs>
</svg>
