<?xml version="1.0" encoding="UTF-8"?>
<svg xmlns="http://www.w3.org/2000/svg" xmlns:xlink="http://www.w3.org/1999/xlink" baseProfile="tiny" contentScriptType="text/ecmascript" contentStyleType="text/css" height="30px" preserveAspectRatio="xMidYMid meet" version="1.1" viewBox="0 0 30 30" width="30px" x="0px" y="0px" zoomAndPan="magnify">
<defs/>
<path d="M 5.9468503 1.2342511 L 24.053148 1.2342511 C 26.675196 1.2342511 28.765747 3.3248024 28.765747 5.94685 L 28.765747 24.05315 C 28.765747 26.675198 26.675196 28.765749 24.053148 28.765749 L 5.94685 28.765749 C 3.3248026 28.765749 1.2342515 26.675198 1.2342515 24.05315 L 1.2342515 5.94685 C 1.2342515 3.3248024 3.3248026 1.234251 5.94685 1.234251 z " fill="#353535" fill-opacity="0.58823532" fill-rule="nonzero" stroke="none"/>
<rect fill="none" height="30" width="30"/>
<path d="M 8.53822 9.736487 C 8.5269165 9.745977 8.51646 9.7564335 8.50697 9.767737 C 8.463375 9.798532 8.430576 9.842263 8.41322 9.892737 L 4.8194704 18.330238 C 4.8081665 18.339739 4.7977104 18.350178 4.7882204 18.361488 C 4.777818 18.402508 4.777818 18.445469 4.7882204 18.486488 C 4.8067803 18.553469 4.851949 18.609928 4.9132204 18.642738 C 4.9421253 18.65919 4.9739776 18.669807 5.0069704 18.673988 L 14.06947 19.673988 C 14.1004505 19.679789 14.13224 19.679789 14.16322 19.673988 C 14.230201 19.655428 14.28666 19.610258 14.31947 19.548988 C 14.33592 19.520079 14.34653 19.488228 14.35072 19.455238 C 14.357321 19.401148 14.34632 19.346378 14.31947 19.298988 L 12.97572 17.048988 C 13.164531 16.936203 13.343879 16.811428 13.56947 16.767738 C 16.959354 16.088428 19.234554 16.204594 20.78822 16.642738 C 22.341885 17.080883 23.177778 17.822948 23.63197 18.517738 C 23.859064 18.865133 23.984203 19.21984 24.06947 19.486488 C 24.15474 19.753138 24.190207 19.920815 24.22572 20.048988 C 24.23462 20.081028 24.20555 20.11209 24.28822 20.205238 C 24.29855 20.216879 24.318789 20.235989 24.31947 20.236488 C 24.320152 20.236988 24.412539 20.267508 24.41322 20.267738 C 24.413904 20.267967 24.506279 20.267786 24.50697 20.267738 C 24.50766 20.26769 24.60002 20.268063 24.60072 20.267738 C 24.601418 20.267414 24.648209 20.218098 24.66322 20.205238 C 24.67823 20.192379 24.6859 20.184578 24.69447 20.173988 C 24.711609 20.15281 24.71876 20.156279 24.72572 20.142738 C 24.78139 20.0344 24.76521 20.00019 24.78822 19.892738 C 24.83425 19.677832 24.91943 19.285643 25.06947 18.673988 C 25.3863 17.382397 25.193216 16.164858 24.56947 15.111488 C 23.945723 14.058119 22.895477 13.152357 21.53822 12.517738 C 18.823704 11.248501 14.838344 10.943128 10.225719 12.142738 C 10.19807 12.149939 10.217119 12.164918 10.194469 12.173988 L 8.85072 9.861487 C 8.828311 9.822496 8.795961 9.790147 8.75697 9.767737 C 8.7186775 9.746761 8.675629 9.735999 8.63197 9.736487 C 8.60099 9.730678 8.5692005 9.730678 8.53822 9.736487 z " fill="#dedede"/>
</svg>
