<?xml version="1.0" encoding="UTF-8"?>
<svg xmlns="http://www.w3.org/2000/svg" xmlns:xlink="http://www.w3.org/1999/xlink" baseProfile="tiny" contentScriptType="text/ecmascript" contentStyleType="text/css" height="27px" preserveAspectRatio="xMidYMid meet" version="1.1" viewBox="0 0 27 27" width="27px" x="0px" y="0px" zoomAndPan="magnify">
<rect fill="none" height="27" width="27"/>
<path d="M 25.0 16.0 L 17.0 16.0 C 16.45 16.0 16.0 16.45 16.0 17.0 L 16.0 25.0 C 16.0 25.55 16.45 26.0 17.0 26.0 L 25.0 26.0 C 25.55 26.0 26.0 25.55 26.0 25.0 L 26.0 17.0 C 26.0 16.45 25.55 16.0 25.0 16.0 z M 18.0 23.0 L 21.0 18.0 L 24.0 23.0 L 18.0 23.0 z " fill="#575757"/>
<path d="M 22.22 10.055 C 22.144 9.988 22.065 9.922 22.0 9.843 C 21.633 10.284 21.083 10.548 20.499 10.548 C 20.157 10.548 19.82 10.457001 19.524 10.286 C 19.074 10.025001 18.751 9.6050005 18.616 9.102 C 18.518 8.733 18.539 8.354 18.654 8.0 L 2.0 8.0 L 13.5 16.5 L 22.22 10.055 z M 2.014 10.0 L 2.0 10.0 L 2.0 23.0 C 2.0 23.55 2.45 24.0 3.0 24.0 L 15.0 24.0 L 15.0 17.39 L 13.5 18.5 L 2.014 10.0 z M 24.986 10.0 L 18.229 15.0 L 25.0 15.0 L 25.0 10.0 L 24.986 10.0 z " fill="#575757" fill-opacity="1"/>
<path d="M 25.0 5.25 L 23.299 5.25 L 24.15 3.777 C 24.357 3.419 24.234 2.96 23.876 2.7529998 C 23.516 2.5449998 23.058 2.6699998 22.852 3.0269997 L 22.0 4.5 L 21.149 3.027 C 20.942 2.67 20.485 2.545 20.125 2.753 C 19.767 2.96 19.644 3.419 19.851 3.777 L 20.702 5.25 L 19.0 5.25 C 18.586 5.25 18.25 5.586 18.25 6.0 C 18.25 6.414 18.586 6.75 19.0 6.75 L 20.701 6.75 L 19.85 8.223 C 19.643 8.580999 19.766 9.04 20.124 9.247 C 20.242 9.315 20.371 9.348 20.498 9.348 C 20.758 9.348 21.01 9.212999 21.148 8.973 L 22.0 7.5 L 22.851 8.973 C 22.99 9.212999 23.242 9.348 23.501 9.348 C 23.628 9.348 23.757 9.316 23.875 9.247 C 24.233 9.04 24.356 8.580999 24.149 8.223 L 23.299 6.75 L 25.0 6.75 C 25.414 6.75 25.75 6.414 25.75 6.0 C 25.75 5.586 25.414 5.25 25.0 5.25 z " fill="#fa664b"/>
<defs>
<linearGradient gradientUnits="userSpaceOnUse" x1="13.5005" x2="13.5005" xlink:actuate="onLoad" xlink:show="other" xlink:type="simple" y1="24" y2="8.0005">
<stop offset="0" stop-color="#d0cbc5"/>
<stop offset="1" stop-color="#fcfcf9"/>
</linearGradient>
</defs>
</svg>
