<?xml version="1.0" encoding="UTF-8"?>
<svg xmlns="http://www.w3.org/2000/svg" xmlns:xlink="http://www.w3.org/1999/xlink" baseProfile="tiny" contentScriptType="text/ecmascript" contentStyleType="text/css" height="57px" preserveAspectRatio="xMidYMid meet" version="1.1" viewBox="0 0 67 57" width="67px" x="0px" y="0px" zoomAndPan="magnify">
<rect fill="#ffffff" fill-opacity="0.70588235" fill-rule="nonzero" height="48" ry="8.2174387" stroke="none" width="48" x="9.5" y="5.5"/>
<rect fill="#0500a7" fill-opacity="0.58823532" fill-rule="nonzero" height="48" ry="8.2174387" stroke="none" width="48" x="9.5" y="5.5"/>
<rect fill="none" height="57" width="67"/>
<rect fill="none" height="46" width="46" x="10.5" y="5.5"/>
<defs>
<linearGradient gradientUnits="userSpaceOnUse" x1="34.1465" x2="34.1465" xlink:actuate="onLoad" xlink:show="other" xlink:type="simple" y1="49" y2="7.0005">
<stop offset="0" stop-color="#d0cbc5"/>
<stop offset="0.5031" stop-color="#fafcef"/>
<stop offset="0.9693" stop-color="#ffffff"/>
<stop offset="1" stop-color="#ffffff"/>
</linearGradient>
</defs>
<path color="#000000" d="M 34.245422 13.500004 C 36.99637 13.500029 39.4556 14.051331 41.646416 15.177208 C 43.83718 16.303135 45.573177 17.979227 46.83777 20.20882 C 47.91372 22.127865 48.43507 24.213272 48.435104 26.46506 C 48.43507 29.68193 47.31694 32.541607 45.054077 35.037437 C 43.03519 37.27815 40.821102 38.39185 38.425125 38.39185 C 37.659714 38.39185 37.032974 38.2787 36.561565 38.045757 C 36.09011 37.812813 35.74513 37.493347 35.523296 37.06073 C 35.37907 36.783417 35.296986 36.29978 35.230453 35.623123 C 34.509415 36.45508 33.700764 37.11509 32.807823 37.619797 C 31.914852 38.12451 31.017458 38.39184 30.11897 38.39184 C 29.131712 38.39184 28.175531 38.09012 27.243765 37.513306 C 26.311975 36.93649 25.536602 36.04908 24.954248 34.85108 C 24.371878 33.653076 24.0757 32.34193 24.07571 30.910978 C 24.0757 29.14726 24.529392 27.382427 25.433449 25.61314 C 26.337488 23.843882 27.47226 22.50722 28.81448 21.619797 C 30.156672 20.732405 31.463385 20.288704 32.72796 20.28868 C 33.692997 20.288706 34.620342 20.556032 35.496677 21.060732 C 36.372974 21.565462 37.127274 22.318651 37.75957 23.350248 L 38.31864 20.794506 L 41.300335 20.794506 L 38.90433 31.949244 C 38.57153 33.50222 38.398483 34.365223 38.398502 34.53161 C 38.398483 34.831112 38.517178 35.087353 38.744595 35.303658 C 38.97197 35.51996 39.248173 35.623123 39.569885 35.623123 C 40.15777 35.623123 40.932037 35.28813 41.886024 34.611477 C 43.150555 33.72407 44.13003 32.536053 44.86772 31.044088 C 45.60535 29.552135 45.985832 27.998064 45.985855 26.41181 C 45.98583 24.55936 45.496643 22.82891 44.548252 21.220465 C 43.599804 19.61205 42.19548 18.325306 40.315308 17.36023 C 38.43508 16.395193 36.359657 15.922648 34.08569 15.922627 C 31.490002 15.92265 29.123947 16.544947 26.977535 17.759563 C 24.831106 18.974228 23.153904 20.709112 21.972546 22.977535 C 20.791178 25.245993 20.21547 27.676384 20.215475 30.272043 C 20.21547 32.989742 20.791178 35.33694 21.972546 37.30033 C 23.153902 39.263725 24.875477 40.70244 27.11065 41.639767 C 29.345798 42.57708 31.82056 43.05074 34.53827 43.050747 C 37.444515 43.05074 39.86936 42.562668 41.832775 41.58652 C 43.796143 40.610367 45.2759 39.41681 46.25208 38.019135 L 49.260403 38.019135 C 48.694637 39.183857 47.734024 40.377422 46.358566 41.58652 C 44.98305 42.79562 43.330257 43.75735 41.43344 44.461727 C 39.536583 45.166103 37.264816 45.499992 34.59151 45.5 C 32.128933 45.499992 29.856056 45.200493 27.776203 44.56822 C 25.696333 43.935932 23.915966 42.989727 22.451748 41.719627 C 20.987518 40.44952 19.893787 38.979748 19.150583 37.32695 C 18.218803 35.23045 17.7396 32.967552 17.739605 30.538263 C 17.7396 27.831676 18.307545 25.24266 19.416807 22.791176 C 20.770103 19.785091 22.676924 17.49336 25.16722 15.896003 C 27.657503 14.29869 30.695774 13.500021 34.245422 13.499996 z M 32.94093 22.791172 C 32.230984 22.791187 31.570976 22.963123 30.944256 23.32362 C 30.317509 23.684143 29.695215 24.255411 29.107315 25.05407 C 28.519392 25.852749 28.051289 26.839993 27.696337 27.982525 C 27.34136 29.125074 27.163876 30.169998 27.163889 31.123957 C 27.16388 32.643646 27.53437 33.82169 28.255404 34.66472 C 28.97641 35.50776 29.799482 35.91597 30.731276 35.91597 C 31.352448 35.91597 32.013573 35.7285 32.70133 35.3569 C 33.38905 34.9853 34.044632 34.438435 34.67138 33.70632 C 35.298096 32.974213 35.789497 32.063503 36.188847 30.9376 C 36.588165 29.811705 36.801144 28.661404 36.80116 27.529943 C 36.801144 26.02136 36.431755 24.847763 35.683025 24.015804 C 34.934258 23.183876 34.016895 22.791191 32.94093 22.791178 z " display="inline" fill="#ffffff" fill-opacity="1" fill-rule="nonzero" stroke="none" visibility="visible"/>
</svg>
