<?xml version="1.0" encoding="UTF-8"?>
<svg xmlns="http://www.w3.org/2000/svg" xmlns:xlink="http://www.w3.org/1999/xlink" baseProfile="tiny" contentScriptType="text/ecmascript" contentStyleType="text/css" height="30px" preserveAspectRatio="xMidYMid meet" version="1.1" viewBox="0 0 30 30" width="30px" x="0px" y="0px" zoomAndPan="magnify">
<path d="M 29.0 21.0 L 29.0 7.0 C 29.0 6.447 28.553 6.0 28.0 6.0 L 2.0 6.0 C 1.447 6.0 1.0 6.447 1.0 7.0 L 1.0 24.0 C 1.0 25.104 1.896 26.0 3.0 26.0 L 17.541 26.0 L 24.515 29.874 C 24.665 29.958 24.833 30.0 25.0 30.0 C 25.176 30.0 25.351 29.954 25.507 29.862 C 25.813 29.683 26.0 29.354 26.0 29.0 L 26.0 27.0 L 29.0 27.0 C 29.553 27.0 30.0 26.553 30.0 26.0 L 30.0 22.0 C 30.0 21.447 29.553 21.0 29.0 21.0 z " fill-opacity="0.15" stroke-opacity="0.15"/>
<rect fill="none" height="30" width="30"/>
<rect fill="none" height="30" width="30"/>
<path d="M 28.0 6.0 L 2.0 6.0 L 15.0 16.0 L 28.0 6.0 z M 15.0 23.0 C 15.0 22.637 15.197 22.302 15.515 22.126 L 24.515 17.126 C 24.665 17.042 24.833 17.0 25.0 17.0 C 25.176 17.0 25.351 17.046 25.507 17.138 C 25.813 17.317 26.0 17.646 26.0 18.0 L 26.0 20.0 L 28.0 20.0 L 28.0 7.893 L 15.0 17.893 L 2.0 7.8929996 L 2.0 23.0 C 2.0 23.55 2.45 24.0 3.0 24.0 L 15.741 24.0 L 15.514 23.874 C 15.197 23.698 15.0 23.363 15.0 23.0 z M 25.0 21.0 L 25.0 18.0 L 16.0 23.0 L 25.0 28.0 L 25.0 25.0 L 29.0 25.0 L 29.0 21.0 L 25.0 21.0 z " fill-opacity="0.3" stroke-opacity="0.3"/>
<path d="M 28.0 7.0 L 2.0 7.0 L 15.0 17.0 L 28.0 7.0 z M 15.0 24.0 C 15.0 23.637 15.197 23.302 15.515 23.126 L 24.515 18.126 C 24.665 18.042 24.833 18.0 25.0 18.0 C 25.176 18.0 25.351 18.046 25.507 18.138 C 25.813 18.317 26.0 18.646 26.0 19.0 L 26.0 21.0 L 28.0 21.0 L 28.0 8.893 L 15.0 18.893 L 2.0 8.893 L 2.0 24.0 C 2.0 24.55 2.45 25.0 3.0 25.0 L 15.741 25.0 L 15.514 24.874 C 15.197 24.698 15.0 24.363 15.0 24.0 z M 25.0 22.0 L 25.0 19.0 L 16.0 24.0 L 25.0 29.0 L 25.0 26.0 L 29.0 26.0 L 29.0 22.0 L 25.0 22.0 z " fill="#dedede"/>
</svg>
