<?xml version="1.0" encoding="UTF-8"?>
<svg xmlns="http://www.w3.org/2000/svg" xmlns:xlink="http://www.w3.org/1999/xlink" baseProfile="tiny" contentScriptType="text/ecmascript" contentStyleType="text/css" height="57px" preserveAspectRatio="xMidYMid meet" version="1.1" viewBox="0 0 67 57" width="67px" x="0px" y="0px" zoomAndPan="magnify">
<rect fill="#ffffff" fill-opacity="0.70588235" fill-rule="nonzero" height="48" ry="8.2174387" stroke="none" width="48" x="9.5000229" y="4.4999952"/>
<rect color="#000000" display="inline" fill="#01a0f3" fill-opacity="0.58823528999999997" fill-rule="nonzero" height="48" ry="8.2174387" stroke="none" visibility="visible" width="48" x="9.5" y="4.5"/>
<rect color="#000000" display="inline" fill="#ffffff" fill-opacity="0" fill-rule="nonzero" height="33" ry="0" stroke="none" stroke-width="1" visibility="visible" width="33" x="17" y="12"/>
<defs>
<linearGradient gradientUnits="userSpaceOnUse" x1="39.5" x2="39.5" xlink:actuate="onLoad" xlink:show="other" xlink:type="simple" y1="54" y2="4.0005">
<stop offset="0" stop-color="#d0cbc5"/>
<stop offset="0.5031" stop-color="#fafcef"/>
<stop offset="0.9693" stop-color="#ffffff"/>
<stop offset="1" stop-color="#ffffff"/>
</linearGradient>
</defs>
<path d="M 40.2694 23.66937 C 40.884403 25.21437 41.364403 26.88937 41.364403 28.563122 C 41.364403 30.239372 40.884403 31.938122 40.2694 33.483124 L 41.8619 34.035625 C 42.60315 32.211876 43.09565 30.444376 43.09565 28.483126 C 43.09565 26.559376 42.66565 24.666876 41.93815 22.854376 L 40.269398 23.669376 z M 44.896896 18.521877 L 43.326897 19.441877 C 44.560646 22.281878 45.214397 25.419376 45.214397 28.544376 C 45.214397 31.669376 44.560646 34.806877 43.326897 37.648125 L 44.896896 38.569374 C 46.234398 35.435623 46.938145 31.975624 46.938145 28.544374 C 46.938145 25.108124 46.234394 21.653124 44.896896 18.521873 M 33.024395 34.185623 L 29.234394 38.010624 L 29.234394 30.080624 L 33.024395 34.185623 z M 29.234394 18.990623 L 33.024395 22.815624 L 29.234394 25.974375 L 29.234394 18.990625 z M 35.866894 22.815626 L 26.834393 13.973126 L 26.834393 26.895626 L 21.351892 21.805626 L 20.061893 23.195625 L 25.776894 28.500626 L 20.061893 33.806877 L 21.351894 35.195625 L 26.834394 30.106876 L 26.834394 43.02688 L 35.866894 34.185627 L 30.181894 27.869377 L 35.866894 22.815628 z " fill="#ffffff" fill-opacity="1" fill-rule="nonzero" stroke="none"/>
</svg>
