<?xml version="1.0" encoding="UTF-8"?>
<svg xmlns="http://www.w3.org/2000/svg" xmlns:xlink="http://www.w3.org/1999/xlink" baseProfile="tiny" contentScriptType="text/ecmascript" contentStyleType="text/css" height="30px" preserveAspectRatio="xMidYMid meet" version="1.1" viewBox="0 0 30 30" width="30px" x="0px" y="0px" zoomAndPan="magnify">
<path d="M 29.0 19.413 L 29.0 7.0 C 29.0 5.897 28.103 5.0 27.0 5.0 L 3.0 5.0 C 1.897 5.0 1.0 5.897 1.0 7.0 L 1.0 25.0 C 1.0 26.103 1.8970001 27.0 3.0 27.0 L 17.264 27.0 C 18.532 28.811 20.628 30.0 23.0 30.0 C 26.859 30.0 30.0 26.859 30.0 23.0 C 30.0 21.688 29.631 20.464 29.0 19.413 z M 11.061 13.646 C 10.778 13.363 10.401999 13.208 10.0 13.208 C 9.598001 13.208 9.223 13.363 8.939 13.646 L 5.0 17.586 L 5.0 9.0 L 25.0 9.0 L 25.0 16.295 C 24.871 16.256 24.74 16.225 24.607 16.193 L 20.060001 11.646001 C 19.777 11.363001 19.401001 11.208001 18.999 11.208001 C 18.597 11.208001 18.222 11.363001 17.938 11.646001 L 13.5 16.086 L 11.061 13.646 z " fill-opacity="0.15" stroke-opacity="0.15"/>
<rect fill="none" height="30" width="30"/>
<path d="M 4.0 23.0 L 4.0 7.0 L 26.0 7.0 L 26.0 15.463 C 26.743 15.806001 27.419 16.269001 28.0 16.83 L 28.0 6.0 C 28.0 5.45 27.55 5.0 27.0 5.0 L 3.0 5.0 C 2.45 5.0 2.0 5.45 2.0 6.0 L 2.0 24.0 C 2.0 24.55 2.45 25.0 3.0 25.0 L 16.463001 25.0 C 16.176 24.376 15.977001 23.705 15.877001 23.0 L 4.0 23.0 z M 18.646 11.354 L 13.5 16.5 L 10.354 13.354 C 10.16 13.16 9.841 13.16 9.647 13.354 L 5.5 17.5 L 5.5 21.5 L 15.825 21.5 C 16.08 17.826 19.096 14.907 22.809 14.809999 L 19.353 11.353999 C 19.159 11.159 18.841 11.159 18.646 11.354 z M 23.0 16.0 C 19.687 16.0 17.0 18.687 17.0 22.0 C 17.0 25.313 19.687 28.0 23.0 28.0 C 26.313 28.0 29.0 25.313 29.0 22.0 C 29.0 18.687 26.313 16.0 23.0 16.0 z M 26.168 22.555 L 21.831999 25.446001 C 21.375 25.75 21.0 25.55 21.0 25.0 L 21.0 19.0 C 21.0 18.45 21.375 18.25 21.832 18.555 L 26.168001 21.446001 C 26.625 21.75 26.625 22.25 26.168 22.555 z " fill-opacity="0.3" stroke-opacity="0.3"/>
<path d="M 4.0 24.0 L 4.0 8.0 L 26.0 8.0 L 26.0 16.463001 C 26.743 16.806002 27.419 17.269001 28.0 17.830002 L 28.0 7.0 C 28.0 6.45 27.55 6.0 27.0 6.0 L 3.0 6.0 C 2.45 6.0 2.0 6.45 2.0 7.0 L 2.0 25.0 C 2.0 25.55 2.45 26.0 3.0 26.0 L 16.463001 26.0 C 16.176 25.376 15.977001 24.705 15.877001 24.0 L 4.0 24.0 z M 18.646 12.354 L 13.5 17.5 L 10.354 14.354 C 10.16 14.16 9.841 14.16 9.647 14.354 L 5.5 18.5 L 5.5 22.5 L 15.825 22.5 C 16.08 18.826 19.096 15.907 22.809 15.809999 L 19.353 12.353999 C 19.159 12.159 18.841 12.159 18.646 12.354 z M 23.0 17.0 C 19.687 17.0 17.0 19.687 17.0 23.0 C 17.0 26.313 19.687 29.0 23.0 29.0 C 26.313 29.0 29.0 26.313 29.0 23.0 C 29.0 19.687 26.313 17.0 23.0 17.0 z M 26.168 23.555 L 21.831999 26.446001 C 21.375 26.75 21.0 26.55 21.0 26.0 L 21.0 20.0 C 21.0 19.45 21.375 19.25 21.832 19.555 L 26.168001 22.446001 C 26.625 22.75 26.625 23.25 26.168 23.555 z " fill="#dedede"/>
</svg>
