<?xml version="1.0" encoding="UTF-8"?>
<svg xmlns="http://www.w3.org/2000/svg" xmlns:xlink="http://www.w3.org/1999/xlink" baseProfile="tiny" contentScriptType="text/ecmascript" contentStyleType="text/css" height="30px" preserveAspectRatio="xMidYMid meet" version="1.1" viewBox="0 0 30 30" width="30px" x="0px" y="0px" zoomAndPan="magnify">
<rect fill="none" height="30" width="30"/>
<path color="#000000" d="M 14.722223 5.000002 C 12.959397 5.000021 11.491272 5.605433 10.320513 6.816241 C 9.14975 8.027083 8.568375 9.617182 8.568376 11.602566 C 8.568375 13.525653 9.134613 15.085481 10.25641 16.260685 C 11.3782 17.435904 12.738598 18.012829 14.358973 18.01282 C 15.329407 18.012829 16.240196 17.784018 17.072647 17.307692 C 17.90508 16.831385 18.55768 16.214397 19.038462 15.448718 C 19.04736 15.662404 19.038452 15.811976 19.038462 15.918804 C 19.038452 16.915964 18.936954 17.90599 18.69658 18.867523 C 18.456184 19.829063 18.15526 20.588505 17.799145 21.153849 C 17.443008 21.7192 16.988062 22.161684 16.431623 22.5 C 15.875169 22.83832 15.226131 23.01282 14.48718 23.01282 C 13.6235695 23.01282 12.902416 22.776 12.350428 22.286324 C 11.79843 21.796656 11.435182 21.000715 11.239317 19.914532 L 8.931625 20.128204 C 9.127493 21.668447 9.71332 22.8677 10.6837635 23.717949 C 11.654197 24.5682 12.891732 25.0 14.423077 25.0 C 15.865376 25.0 17.13229 24.59936 18.20513 23.824787 C 19.277945 23.050217 20.076551 21.931091 20.619656 20.448715 C 21.162731 18.966349 21.431608 16.967598 21.431623 14.465811 C 21.431608 12.061976 21.167189 10.2217 20.619656 8.95299 C 20.072102 7.684311 19.260138 6.7112 18.20513 6.025641 C 17.150097 5.34012 15.995361 5.00002 14.722221 5.0 z M 15.021365 6.987178 C 16.054121 6.987195 16.93642 7.394958 17.670938 8.205126 C 18.405434 9.0153265 18.76067 10.115754 18.760683 11.495725 C 18.760672 12.875722 18.408998 13.943206 17.692308 14.722219 C 16.975594 15.501251 16.070148 15.897442 14.957266 15.897433 C 13.85327 15.897441 12.91043 15.501254 12.158119 14.722219 C 11.405801 13.943206 11.025639 12.934483 11.025641 11.688031 C 11.025639 10.299155 11.42984 9.163117 12.222223 8.290595 C 13.014596 7.418105 13.952986 6.987194 15.021367 6.987176 z " display="inline" fill="#dedede" fill-opacity="1" fill-rule="nonzero" stroke="none" visibility="visible"/>
</svg>
