<?xml version="1.0" encoding="UTF-8"?>
<svg xmlns="http://www.w3.org/2000/svg" xmlns:xlink="http://www.w3.org/1999/xlink" baseProfile="tiny" contentScriptType="text/ecmascript" contentStyleType="text/css" height="30px" preserveAspectRatio="xMidYMid meet" version="1.1" viewBox="0 0 30 30" width="30px" x="0px" y="0px" zoomAndPan="magnify">
<rect fill="none" height="30" width="30"/>
<path d="M 28.0 14.153 L 28.0 5.0 C 28.0 3.346 26.654 2.0 25.0 2.0 L 5.0 2.0 C 3.346 2.0 2.0 3.346 2.0 5.0 L 2.0 25.0 C 2.0 26.654 3.346 28.0 5.0 28.0 L 14.153 28.0 C 15.596 29.387 17.819 30.0 21.0 30.0 C 27.477001 30.0 30.0 27.477 30.0 21.0 C 30.0 17.819 29.387 15.597 28.0 14.153 z " fill-opacity="0.15"/>
<path d="M 21.0 12.0 C 15.073 12.0 13.0 14.073999 13.0 20.0 C 13.0 25.927 15.073 28.0 21.0 28.0 C 26.928 28.0 29.0 25.927 29.0 20.0 C 29.0 14.074 26.928 12.0 21.0 12.0 z M 21.0 27.0 C 15.636 27.0 14.0 25.364 14.0 20.0 C 14.0 14.636 15.636 13.0 21.0 13.0 C 22.659 13.0 23.96 13.158 24.968 13.533 L 20.975 17.526001 L 19.349 15.9 C 19.220001 15.771999 19.057001 15.827 19.032001 16.015 L 17.998001 22.671 C 17.994001 22.705 17.991001 22.737999 17.991001 22.771 C 17.992 22.921 18.042002 23.044 18.134 23.125 C 18.235 23.213 18.382 23.249 18.545 23.227 L 25.206 22.179998 C 25.386 22.155998 25.428999 21.978998 25.312 21.863998 L 23.685 20.236998 L 27.569 16.352997 C 27.867 17.313 28.0 18.508 28.0 20.0 C 28.0 25.364 26.364 27.0 21.0 27.0 z M 12.25 16.929 C 10.924 15.550001 9.086 14.667001 7.105 14.667001 L 6.334 14.667001 C 5.596 14.667 5.0 14.07 5.0 13.333 L 5.0 12.0 C 5.0 11.264 5.596 10.667 6.334 10.667 L 7.6660004 10.667 C 7.7320004 10.667 7.7910004 10.696 7.8540006 10.705 C 10.186001 10.86 12.319 11.736 14.045 13.101 C 14.6640005 12.473 15.443 12.003 16.380001 11.664 C 13.899001 9.414 10.629002 8.0199995 7.068001 8.0199995 L 7.068001 8.0 L 6.334 8.0 C 5.596 8.0 5.0 7.403 5.0 6.667 L 5.0 5.333 C 5.0 4.598 5.596 4.0 6.334 4.0 L 7.6660004 4.0 C 7.7380004 4.0 7.7990003 4.03 7.8670006 4.041 C 13.307001 4.282 18.105 6.965 21.229 11.0060005 C 23.729 11.030001 25.623001 11.449 27.0 12.34 L 27.0 4.0 C 27.0 2.896 26.104 2.0 25.0 2.0 L 5.0 2.0 C 3.896 2.0 3.0 2.896 3.0 4.0 L 3.0 24.0 C 3.0 25.104 3.896 26.0 5.0 26.0 L 13.34 26.0 C 12.421 24.58 12.0 22.617 12.0 20.0 C 12.0 18.853 12.084 17.836 12.25 16.929 z M 8.0 24.0 C 6.3450003 24.0 5.0 22.656 5.0 21.0 C 5.0 19.344 6.3450003 18.0 8.0 18.0 C 9.655 18.0 11.0 19.344 11.0 21.0 C 11.0 22.656 9.655 24.0 8.0 24.0 z " fill-opacity="0.3"/>
<path d="M 21.0 13.0 C 15.073 13.0 13.0 15.073999 13.0 21.0 C 13.0 26.927 15.073 29.0 21.0 29.0 C 26.928 29.0 29.0 26.927 29.0 21.0 C 29.0 15.074 26.928 13.0 21.0 13.0 z M 21.0 28.0 C 15.636 28.0 14.0 26.364 14.0 21.0 C 14.0 15.636 15.636 14.0 21.0 14.0 C 22.659 14.0 23.96 14.158 24.968 14.533 L 20.975 18.526001 L 19.349 16.9 C 19.220001 16.772 19.057001 16.828 19.032001 17.015 L 17.998001 23.671 C 17.994001 23.705 17.991001 23.737999 17.991001 23.771 C 17.992 23.921 18.042002 24.044 18.134 24.125 C 18.235 24.213 18.382 24.249 18.545 24.227 L 25.206 23.179998 C 25.386 23.155998 25.428999 22.978998 25.312 22.863998 L 23.685 21.236998 L 27.569 17.352997 C 27.867 18.313 28.0 19.508 28.0 21.0 C 28.0 26.364 26.364 28.0 21.0 28.0 z M 12.25 17.929 C 10.924 16.550001 9.086 15.667001 7.105 15.667001 L 6.334 15.667001 C 5.596 15.667 5.0 15.07 5.0 14.333 L 5.0 13.0 C 5.0 12.264 5.596 11.667 6.334 11.667 L 7.6660004 11.667 C 7.7320004 11.667 7.7910004 11.696 7.8540006 11.705 C 10.186001 11.86 12.319 12.736 14.045 14.101 C 14.6640005 13.473 15.443 13.003 16.380001 12.664 C 13.899001 10.414 10.629002 9.0199995 7.068001 9.0199995 L 7.068001 9.0 L 6.334 9.0 C 5.596 9.0 5.0 8.403 5.0 7.667 L 5.0 6.333 C 5.0 5.598 5.596 5.0 6.334 5.0 L 7.6660004 5.0 C 7.7380004 5.0 7.7990003 5.03 7.8670006 5.041 C 13.307001 5.282 18.105 7.965 21.229 12.0060005 C 23.729 12.030001 25.623001 12.449 27.0 13.34 L 27.0 5.0 C 27.0 3.896 26.104 3.0 25.0 3.0 L 5.0 3.0 C 3.896 3.0 3.0 3.896 3.0 5.0 L 3.0 25.0 C 3.0 26.104 3.896 27.0 5.0 27.0 L 13.34 27.0 C 12.421 25.58 12.0 23.617 12.0 21.0 C 12.0 19.853 12.084 18.836 12.25 17.929 z M 8.0 25.0 C 6.3450003 25.0 5.0 23.656 5.0 22.0 C 5.0 20.344 6.3450003 19.0 8.0 19.0 C 9.655 19.0 11.0 20.344 11.0 22.0 C 11.0 23.656 9.655 25.0 8.0 25.0 z " fill="#dedede"/>
</svg>
