<?xml version="1.0" encoding="UTF-8"?>
<svg xmlns="http://www.w3.org/2000/svg" xmlns:xlink="http://www.w3.org/1999/xlink" baseProfile="tiny" contentScriptType="text/ecmascript" contentStyleType="text/css" height="30px" preserveAspectRatio="xMidYMid meet" version="1.1" viewBox="0 0 30 30" width="30px" x="0px" y="0px" zoomAndPan="magnify">
<path d="M 22.0 30.0 C 21.596 30.0 21.23 29.756 21.076 29.383 C 20.922 29.008999 21.007 28.578999 21.293 28.293 L 28.293 21.293 C 28.484 21.102 28.74 21.0 29.0 21.0 C 29.129 21.0 29.259 21.025 29.383 21.076 C 29.756 21.23 30.0 21.596 30.0 22.0 L 30.0 28.0 C 30.0 29.104 29.104 30.0 28.0 30.0 L 22.0 30.0 z " fill-opacity="0.15"/>
<path d="M 29.0 21.0 L 29.0 27.0 C 29.0 27.553 28.553 28.0 28.0 28.0 L 22.0 28.0 L 29.0 21.0 z " fill-opacity="0.3"/>
<path d="M 29.0 22.0 L 29.0 28.0 C 29.0 28.553 28.553 29.0 28.0 29.0 L 22.0 29.0 L 29.0 22.0 z " fill="#dedede"/>
<rect fill="none" height="30" width="30"/>
</svg>
