<?xml version="1.0" encoding="UTF-8"?>
<svg xmlns="http://www.w3.org/2000/svg" xmlns:xlink="http://www.w3.org/1999/xlink" baseProfile="tiny" contentScriptType="text/ecmascript" contentStyleType="text/css" height="30px" preserveAspectRatio="xMidYMid meet" version="1.1" viewBox="0 0 30 30" width="30px" x="0px" y="0px" zoomAndPan="magnify">
<rect fill="none" height="30" width="30"/>
<rect fill="none" height="30" width="30"/>
<path d="M 7.17 24.396 C 6.592 24.976 6.592 25.924 7.17 26.501999 L 8.224 27.553 C 8.804 28.13 9.749 28.13 10.328 27.553 L 22.828 15.051999 C 23.407 14.473999 23.407 13.526999 22.828 12.948999 L 10.327999 0.4489994 C 9.749999 -0.13000059 8.804999 -0.13000059 8.223999 0.4489994 L 7.17 1.502 C 6.592 2.0809999 6.592 3.027 7.17 3.606 L 16.515 12.95 C 17.095 13.528 17.095 14.474999 16.515 15.0529995 L 7.17 24.396 z " fill-opacity="0.3" stroke-opacity="0.3"/>
<path d="M 9.277 29.985 C 8.613001 29.985 7.9880004 29.729 7.5190005 29.261002 L 6.465 28.21 C 5.495 27.24 5.495 25.661 6.465 24.689 L 15.81 15.344999 C 15.933001 15.221999 15.952001 15.075999 15.952001 15.000999 C 15.952001 14.926 15.933001 14.78 15.808001 14.655 L 6.462 5.312 C 5.493 4.342 5.494 2.7649999 6.463 1.7949998 L 7.5169997 0.74199986 C 7.9859996 0.27299985 8.611 0.0149998665 9.276999 0.0149998665 C 9.942999 0.0149998665 10.568 0.27299985 11.035999 0.74199986 L 23.536 13.242 C 24.005999 13.71 24.264 14.335 24.264 15.000999 C 24.266 15.667 24.006 16.292 23.537 16.76 L 11.036 29.261 C 10.568 29.729 9.943 29.985 9.277 29.985 L 9.277 29.985 z " fill-opacity="0.15" stroke-opacity="0.15"/>
<path d="M 7.17 25.396 C 6.592 25.976 6.592 26.924 7.17 27.501999 L 8.224 28.553 C 8.804 29.13 9.749 29.13 10.328 28.553 L 22.828 16.051998 C 23.407 15.473998 23.407 14.5269985 22.828 13.948998 L 10.327999 1.4489985 C 9.749999 0.86999846 8.804999 0.86999846 8.223999 1.4489985 L 7.17 2.502 C 6.592 3.081 6.592 4.026 7.17 4.606 L 16.515 13.95 C 17.095 14.528 17.095 15.474999 16.515 16.053 L 7.17 25.396 z " fill-opacity="0.15" stroke-opacity="0.15"/>
<path d="M 7.17 25.396 C 6.592 25.976 6.592 26.924 7.17 27.501999 L 8.224 28.553 C 8.804 29.13 9.749 29.13 10.328 28.553 L 22.828 16.051998 C 23.407 15.473998 23.407 14.5269985 22.828 13.948998 L 10.327999 1.4489985 C 9.749999 0.86999846 8.804999 0.86999846 8.223999 1.4489985 L 7.17 2.502 C 6.592 3.081 6.592 4.026 7.17 4.606 L 16.515 13.95 C 17.095 14.528 17.095 15.474999 16.515 16.053 L 7.17 25.396 z " fill="#dedede"/>
<rect fill="none" height="30" width="30"/>
</svg>
