<?xml version="1.0" encoding="UTF-8"?>
<svg xmlns="http://www.w3.org/2000/svg" xmlns:xlink="http://www.w3.org/1999/xlink" baseProfile="tiny" contentScriptType="text/ecmascript" contentStyleType="text/css" height="96px" preserveAspectRatio="xMidYMid meet" version="1.1" viewBox="0 0 96 96" width="96px" x="0px" y="0px" zoomAndPan="magnify">
<defs>
<linearGradient id="linearGradient3853">
<stop offset="0" stop-color="#fcfcfc" stop-opacity="1"/>
<stop offset="1" stop-color="#fcfcfc" stop-opacity="0.78431374"/>
</linearGradient>
<linearGradient gradientTransform="translate(0.3728813,0.40677998)" gradientUnits="userSpaceOnUse" id="SVGID_3_-1" x1="47.9995" x2="47.9995" y1="8.5448999" y2="89.239799">
<stop offset="0" stop-color="#ffffff"/>
<stop offset="1" stop-color="#ffffff" stop-opacity="0"/>
</linearGradient>
<linearGradient gradientUnits="userSpaceOnUse" x1="47.981495" x2="47.981495" y1="8.8814144" y2="87.856812">
<stop offset="0" stop-color="#e93b4a" stop-opacity="1"/>
<stop offset="1" stop-color="#e90317" stop-opacity="1"/>
</linearGradient>
<linearGradient gradientTransform="translate(106.98305,37.423729)" gradientUnits="userSpaceOnUse" x1="47.981495" x2="47.981495" y1="8.8814144" y2="87.856812">
<stop offset="0" stop-color="#e93b4a" stop-opacity="1"/>
<stop offset="1" stop-color="#e90317" stop-opacity="1"/>
</linearGradient>
<linearGradient gradientUnits="userSpaceOnUse" id="linearGradient3908" x1="47.830505" x2="47.830505" y1="10.169492" y2="87.47773">
<stop offset="0" stop-color="#e93b4a" stop-opacity="1"/>
<stop offset="1" stop-color="#e90317" stop-opacity="1"/>
</linearGradient>
<linearGradient gradientUnits="userSpaceOnUse" id="linearGradient3859" x1="46.878468" x2="46.878468" y1="28.081161" y2="68.080177">
<stop offset="0" stop-color="#fcfcfc" stop-opacity="1"/>
<stop offset="1" stop-color="#fcfcfc" stop-opacity="0.78431374"/>
</linearGradient>
<linearGradient gradientUnits="userSpaceOnUse" id="linearGradient3863" x1="46.878468" x2="46.878468" y1="28.081161" y2="68.080177">
<stop offset="0" stop-color="#e93b4a" stop-opacity="1"/>
<stop offset="1" stop-color="#e90317" stop-opacity="1"/>
</linearGradient>
</defs>
<linearGradient gradientUnits="userSpaceOnUse" x1="48.0005" x2="48.0005" y1="87.4551" y2="6.7612">
<stop offset="0" stop-color="#b51429"/>
<stop offset="1" stop-color="#e21f2a"/>
</linearGradient>
<linearGradient gradientUnits="userSpaceOnUse" x1="8" x2="20" y1="48" y2="48">
<stop offset="0" stop-color="#000000" stop-opacity="0.15"/>
<stop offset="1" stop-color="#000000" stop-opacity="0.25"/>
</linearGradient>
<path d="M 88.37288 49.40678 C 88.37288 79.03978 78.00988 89.40678 48.37288 89.40678 C 18.73788 89.40678 8.372879 79.03978 8.372879 49.40678 C 8.372879 19.77178 18.73788 9.40678 48.37288 9.40678 C 78.00988 9.40678 88.37288 19.77178 88.37288 49.40678 z " fill-opacity="0.4"/>
<path d="M 88.37288 48.40678 C 88.37288 78.03978 78.00988 88.40678 48.37288 88.40678 C 18.73788 88.40678 8.372879 78.03978 8.372879 48.40678 C 8.372879 18.77178 18.73788 8.40678 48.37288 8.40678 C 78.00988 8.40678 88.37288 18.77178 88.37288 48.40678 z " fill="url(#linearGradient3908)" fill-opacity="1"/>
<path d="M 20.37288 82.10677 L 20.37288 14.706772 C 11.813881 20.69477 8.372881 31.356771 8.372881 48.406773 C 8.372881 65.45577 11.813881 76.117775 20.37288 82.106766 z " fill="#c01926" fill-opacity="1"/>
<path d="M 48.37288 8.40678 C 18.73788 8.40678 8.372879 18.77178 8.372879 48.40678 C 8.372879 78.03978 18.73788 88.40678 48.37288 88.40678 C 78.00988 88.40678 88.37288 78.03978 88.37288 48.40678 C 88.37288 18.77178 78.00988 8.40678 48.37288 8.40678 z M 48.37288 87.40677 C 19.21288 87.40677 9.372879 77.56477 9.372879 48.406773 C 9.372879 19.248775 19.21288 9.406773 48.37288 9.406773 C 77.53088 9.406773 87.37288 19.248772 87.37288 48.406773 C 87.37288 77.56477 77.53088 87.40677 48.37288 87.40677 z " fill="url(#SVGID_3_-1)" fill-opacity="0.25" stroke-opacity="0.25"/>
<rect fill="none" height="96" width="96" x="0.37288141" y="0.40677851"/>
<linearGradient gradientUnits="userSpaceOnUse" id="SVGID_3_" x1="47.9995" x2="47.9995" y1="8.5449" y2="89.2398">
<stop offset="0" stop-color="#ffffff"/>
<stop offset="1" stop-color="#ffffff" stop-opacity="0"/>
</linearGradient>
<path d="M 48.0 8.0 C 18.365 8.0 8.0 18.365 8.0 48.0 C 8.0 77.633 18.365 88.0 48.0 88.0 C 77.637 88.0 88.0 77.633 88.0 48.0 C 88.0 18.365 77.637 8.0 48.0 8.0 z M 48.0 87.0 C 18.842 87.0 9.0 77.158 9.0 48.0 C 9.0 18.842005 18.842 9.0 48.0 9.0 C 77.16 9.0 87.0 18.842 87.0 48.0 C 87.0 77.158005 77.16 87.0 48.0 87.0 z " fill="url(#SVGID_3_)" fill-opacity="0.25" stroke-opacity="0.25"/>
<radialGradient cx="165.708" cy="-826.2383" gradientTransform="matrix(0.7071 -0.7071 0.198 0.198 115.4226 349.7662)" gradientUnits="userSpaceOnUse" r="24.5063">
<stop offset="0" stop-color="#ffffff" stop-opacity="0.25"/>
<stop offset="0.8" stop-color="#ffffff" stop-opacity="0.04"/>
<stop offset="1" stop-color="#ffffff" stop-opacity="0"/>
</radialGradient>
<radialGradient cx="74.374" cy="73.7646" gradientUnits="userSpaceOnUse" r="33.96">
<stop offset="0" stop-color="#f08884"/>
<stop offset="1" stop-color="#b51429"/>
</radialGradient>
<linearGradient gradientUnits="userSpaceOnUse" x1="78.4619" x2="71.7712" y1="79.5439" y2="72.8533">
<stop offset="0" stop-color="#ffffff"/>
<stop offset="1" stop-color="#9c9787"/>
</linearGradient>
<rect fill="none" height="96" width="96"/>
<linearGradient gradientUnits="userSpaceOnUse" x1="20.5" x2="20.5" y1="82.373" y2="13.6265">
<stop offset="0" stop-color="#ffffff" stop-opacity="0.15"/>
<stop offset="1" stop-color="#ffffff" stop-opacity="0.25"/>
</linearGradient>
<linearGradient gradientUnits="userSpaceOnUse" x1="18.5" x2="18.5" y1="80.9375" y2="15.063">
<stop offset="0" stop-color="#000000" stop-opacity="0.1"/>
<stop offset="1" stop-color="#000000" stop-opacity="0.2"/>
</linearGradient>
<path d="M 58.0 71.0 C 56.898 71.0 56.0 70.103 56.0 69.0 L 56.0 62.0 L 51.0 62.0 L 51.0 68.0 C 51.0 69.103 50.102 70.0 49.0 70.0 L 46.0 70.0 C 44.982 70.0 44.139 69.235 44.016 68.25 L 38.985 68.25 C 38.861 69.235 38.018 70.0 37.0 70.0 L 34.0 70.0 C 32.898 70.0 32.0 69.103 32.0 68.0 L 32.0 53.25 C 32.0 52.147 32.898 51.25 34.0 51.25 L 38.0 51.25 L 38.0 49.25 L 33.0 49.25 C 31.898 49.25 31.0 48.353 31.0 47.25 L 31.0 44.25 C 31.0 43.147 31.898 42.25 33.0 42.25 L 38.0 42.25 L 38.0 38.482 C 37.129 38.552 36.176 38.587 35.16 38.587 C 34.904 38.587 34.42 38.581997 34.195 38.58 C 34.109 38.594997 34.029 38.594997 33.97 38.594997 C 33.542 38.594997 33.128002 38.453 32.773003 38.185997 C 32.281 37.811 32.0 37.227 32.0 36.582 L 32.0 33.83 C 32.0 33.288002 32.225 32.763 32.613 32.390003 C 32.983997 32.030003 33.478 31.830004 34.0 31.830004 L 34.834 31.809004 C 35.303 31.801004 35.807 31.794004 35.977 31.778004 C 36.518 31.728004 37.368 31.620005 38.362 31.379004 C 40.112 30.963003 43.948 29.111004 45.376 27.617004 C 45.75 27.225 46.277 27.0 46.82 27.0 C 47.322 27.0 47.804 27.188 48.174 27.527 L 50.352 29.527 C 50.983 30.105 51.163 31.0 50.852 31.756 C 50.903 31.752 50.952 31.75 51.0 31.75 L 56.0 31.75 L 56.0 29.75 C 56.0 28.647 56.898 27.75 58.0 27.75 L 61.0 27.75 C 62.102 27.75 63.0 28.647 63.0 29.75 L 63.0 31.75 L 68.0 31.75 C 69.102 31.75 70.0 32.647 70.0 33.75 L 70.0 36.75 C 70.0 37.853 69.102 38.75 68.0 38.75 L 66.598 38.75 L 65.018 45.75 L 68.0 45.75 C 69.102 45.75 70.0 46.647 70.0 47.75 L 70.0 50.75 C 70.0 51.853 69.102 52.75 68.0 52.75 L 63.0 52.75 L 63.0 55.0 L 68.0 55.0 C 69.102 55.0 70.0 55.897 70.0 57.0 L 70.0 60.0 C 70.0 61.103 69.102 62.0 68.0 62.0 L 63.0 62.0 L 63.0 69.0 C 63.0 70.103 62.102 71.0 61.0 71.0 L 58.0 71.0 z M 44.0 61.25 L 44.0 58.25 L 39.0 58.25 L 39.0 61.25 L 44.0 61.25 z M 56.0 55.0 L 56.0 52.75 C 56.0 52.75 50.959 52.75 50.937 52.749 C 50.979 52.909 51.0 53.077 51.0 53.25 L 51.0 55.0 L 56.0 55.0 z M 49.064 51.251 C 49.023 51.091 49.0 50.923 49.0 50.75 L 49.0 49.25 L 45.0 49.25 L 45.0 51.25 C 45.0 51.25 49.043 51.25 49.064 51.251 z M 53.982 45.75 L 52.401997 38.75 L 51.0 38.75 C 49.898 38.75 49.0 37.853 49.0 36.75 L 49.0 33.792 C 47.631 34.945 46.01 35.962 45.0 36.521 L 45.0 42.25 L 50.0 42.25 C 51.102 42.25 52.0 43.147 52.0 44.25 L 52.0 45.75 L 53.982 45.75 z " fill-opacity="0.02"/>
<path d="M 58.0 72.0 C 56.898 72.0 56.0 71.103 56.0 70.0 L 56.0 63.0 L 51.0 63.0 L 51.0 69.0 C 51.0 70.103 50.102 71.0 49.0 71.0 L 46.0 71.0 C 44.982 71.0 44.139 70.235 44.016 69.25 L 38.985 69.25 C 38.861 70.235 38.018 71.0 37.0 71.0 L 34.0 71.0 C 32.898 71.0 32.0 70.103 32.0 69.0 L 32.0 54.25 C 32.0 53.147 32.898 52.25 34.0 52.25 L 38.0 52.25 L 38.0 50.25 L 33.0 50.25 C 31.898 50.25 31.0 49.353 31.0 48.25 L 31.0 45.25 C 31.0 44.147 31.898 43.25 33.0 43.25 L 38.0 43.25 L 38.0 39.482 C 37.133 39.552 36.182 39.587 35.16 39.587 C 34.857 39.587 34.242 39.579 34.105 39.577 C 34.064 39.579 34.017 39.581 34.0 39.581 C 33.566 39.581 33.139 39.437 32.793 39.176003 C 32.295 38.799 32.0 38.203 32.0 37.582 L 32.0 34.83 C 32.0 34.292004 32.223 33.768 32.609 33.393 C 32.986 33.029 33.48 32.83 34.0 32.83 L 34.867 32.809002 C 35.289 32.801003 35.801003 32.794003 35.972 32.777 C 36.525 32.727 37.376 32.618 38.363 32.381 C 40.148 31.953 43.877 30.186 45.375 28.617 C 45.752 28.225 46.277 28.0 46.82 28.0 C 47.324 28.0 47.802 28.187 48.174 28.526 L 50.352 30.525002 C 50.983 31.105 51.161003 32.0 50.852 32.755 C 50.901 32.751 50.952 32.749 51.0 32.749 L 56.0 32.749 L 56.0 30.749 C 56.0 29.646 56.898 28.749 58.0 28.749 L 61.0 28.749 C 62.102 28.749 63.0 29.646 63.0 30.749 L 63.0 32.749 L 68.0 32.749 C 69.102 32.749 70.0 33.646 70.0 34.749 L 70.0 37.749 C 70.0 38.852 69.102 39.749 68.0 39.749 L 66.598 39.749 L 65.016 46.749 L 68.0 46.749 C 69.102 46.749 70.0 47.646 70.0 48.749 L 70.0 51.749 C 70.0 52.852 69.102 53.749 68.0 53.749 L 63.0 53.749 L 63.0 56.0 L 68.0 56.0 C 69.102 56.0 70.0 56.897 70.0 58.0 L 70.0 61.0 C 70.0 62.103 69.102 63.0 68.0 63.0 L 63.0 63.0 L 63.0 70.0 C 63.0 71.103 62.102 72.0 61.0 72.0 L 58.0 72.0 z M 44.0 62.25 L 44.0 59.25 L 39.0 59.25 L 39.0 62.25 L 44.0 62.25 z M 56.0 56.0 L 56.0 53.75 C 56.0 53.75 50.959 53.75 50.937 53.749 C 50.979 53.909 51.0 54.077 51.0 54.25 L 51.0 56.0 L 56.0 56.0 z M 49.064 52.251 C 49.023 52.091 49.0 51.923 49.0 51.75 L 49.0 50.25 L 45.0 50.25 L 45.0 52.25 C 45.0 52.25 49.043 52.25 49.064 52.251 z M 53.984 46.75 L 52.402 39.75 L 51.0 39.75 C 49.898 39.75 49.0 38.853 49.0 37.75 L 49.0 34.783 C 47.725 35.853 46.172 36.870003 45.0 37.52 L 45.0 43.249 L 50.0 43.249 C 51.102 43.249 52.0 44.146 52.0 45.249 L 52.0 46.749 L 53.984 46.749 z " fill-opacity="0.05"/>
<path d="M 43.0 36.285 C 44.59 35.615 47.742 33.527 49.0 32.0 L 46.82 30.0 C 45.049 31.854 40.947 33.818 38.832 34.324 C 37.779 34.578003 36.838 34.707 36.174 34.767 C 35.842 34.800003 34.403 34.814003 34.231 34.824 C 34.057 34.832 34.0 34.83 34.0 34.83 L 34.0 37.582 C 34.098 37.555 37.391 37.727 40.0 37.199 L 40.0 45.25 L 33.0 45.25 L 33.0 48.25 L 40.0 48.25 L 40.0 54.25 L 34.0 54.25 L 34.0 69.0 L 37.0 69.0 L 37.0 67.25 L 46.0 67.25 L 46.0 69.0 L 49.0 69.0 L 49.0 54.25 L 43.0 54.25 L 43.0 48.25 L 50.0 48.25 L 50.0 45.25 L 43.0 45.25 L 43.0 36.285 z M 46.0 57.25 L 46.0 64.25 L 37.0 64.25 L 37.0 57.25 L 46.0 57.25 z M 68.0 37.75 L 68.0 34.75 L 61.0 34.75 L 61.0 30.75 L 58.0 30.75 L 58.0 34.75 L 51.0 34.75 L 51.0 37.75 L 54.0 37.75 L 56.486 48.75 L 51.0 48.75 L 51.0 51.75 L 58.0 51.75 L 58.0 58.0 L 51.0 58.0 L 51.0 61.0 L 58.0 61.0 L 58.0 70.0 L 61.0 70.0 L 61.0 61.0 L 68.0 61.0 L 68.0 58.0 L 61.0 58.0 L 61.0 51.75 L 68.0 51.75 L 68.0 48.75 L 62.514 48.75 L 65.0 37.75 L 68.0 37.75 z M 59.5 48.477 L 57.074 37.75 L 61.924 37.75 L 59.5 48.477 z " fill-opacity="0.1"/>
<linearGradient gradientUnits="userSpaceOnUse" x1="50.5" x2="50.5" y1="28" y2="68.0005">
<stop offset="0" stop-color="#fafcef"/>
<stop offset="0.3232" stop-color="#fafcef"/>
<stop offset="1" stop-color="#d0cbc5"/>
</linearGradient>
<path d="M 43.0 34.285 C 44.59 33.615 47.742 31.527 49.0 30.0 L 46.82 28.0 C 45.049 29.854 40.947 31.818 38.832 32.324 C 37.779 32.578003 36.838 32.707 36.174 32.767002 C 35.842 32.800003 34.403 32.814003 34.231 32.824 C 34.057 32.832 34.0 32.83 34.0 32.83 L 34.0 35.582 C 34.098 35.555 37.391 35.727 40.0 35.199 L 40.0 43.25 L 33.0 43.25 L 33.0 46.25 L 40.0 46.25 L 40.0 52.25 L 34.0 52.25 L 34.0 67.0 L 37.0 67.0 L 37.0 65.25 L 46.0 65.25 L 46.0 67.0 L 49.0 67.0 L 49.0 52.25 L 43.0 52.25 L 43.0 46.25 L 50.0 46.25 L 50.0 43.25 L 43.0 43.25 L 43.0 34.285 z M 46.0 55.25 L 46.0 62.25 L 37.0 62.25 L 37.0 55.25 L 46.0 55.25 z M 68.0 35.75 L 68.0 32.75 L 61.0 32.75 L 61.0 28.75 L 58.0 28.75 L 58.0 32.75 L 51.0 32.75 L 51.0 35.75 L 54.0 35.75 L 56.486 46.75 L 51.0 46.75 L 51.0 49.75 L 58.0 49.75 L 58.0 56.0 L 51.0 56.0 L 51.0 59.0 L 58.0 59.0 L 58.0 68.0 L 61.0 68.0 L 61.0 59.0 L 68.0 59.0 L 68.0 56.0 L 61.0 56.0 L 61.0 49.75 L 68.0 49.75 L 68.0 46.75 L 62.514 46.75 L 65.0 35.75 L 68.0 35.75 z M 59.5 46.477 L 57.074 35.75 L 61.924 35.75 L 59.5 46.477 z " fill="url(#linearGradient3863)" fill-opacity="1"/>
<path d="M 43.0 34.285 C 44.59 33.615 47.742 31.527 49.0 30.0 L 46.82 28.0 C 45.049 29.854 40.947 31.818 38.832 32.324 C 37.779 32.578003 36.838 32.707 36.174 32.767002 C 35.842 32.800003 34.403 32.814003 34.231 32.824 C 34.057 32.832 34.0 32.83 34.0 32.83 L 34.0 35.582 C 34.098 35.555 37.391 35.727 40.0 35.199 L 40.0 43.25 L 33.0 43.25 L 33.0 46.25 L 40.0 46.25 L 40.0 52.25 L 34.0 52.25 L 34.0 67.0 L 37.0 67.0 L 37.0 65.25 L 46.0 65.25 L 46.0 67.0 L 49.0 67.0 L 49.0 52.25 L 43.0 52.25 L 43.0 46.25 L 50.0 46.25 L 50.0 43.25 L 43.0 43.25 L 43.0 34.285 z M 46.0 55.25 L 46.0 62.25 L 37.0 62.25 L 37.0 55.25 L 46.0 55.25 z M 68.0 35.75 L 68.0 32.75 L 61.0 32.75 L 61.0 28.75 L 58.0 28.75 L 58.0 32.75 L 51.0 32.75 L 51.0 35.75 L 54.0 35.75 L 56.486 46.75 L 51.0 46.75 L 51.0 49.75 L 58.0 49.75 L 58.0 56.0 L 51.0 56.0 L 51.0 59.0 L 58.0 59.0 L 58.0 68.0 L 61.0 68.0 L 61.0 59.0 L 68.0 59.0 L 68.0 56.0 L 61.0 56.0 L 61.0 49.75 L 68.0 49.75 L 68.0 46.75 L 62.514 46.75 L 65.0 35.75 L 68.0 35.75 z M 59.5 46.477 L 57.074 35.75 L 61.924 35.75 L 59.5 46.477 z " fill="url(#linearGradient3859)" fill-opacity="1"/>
</svg>
