<?xml version="1.0" encoding="UTF-8"?>
<svg xmlns="http://www.w3.org/2000/svg" xmlns:xlink="http://www.w3.org/1999/xlink" baseProfile="tiny" contentScriptType="text/ecmascript" contentStyleType="text/css" height="16px" preserveAspectRatio="xMidYMid meet" version="1.1" viewBox="0 0 16 16" width="16px" x="0px" y="0px" zoomAndPan="magnify">
<path d="M 14.223 1.778 L 12.518999 1.778 C 12.193999 1.778 12.066999 2.004 12.240999 2.28 L 12.721999 3.053 C 12.896999 3.329 12.77 3.555 12.444999 3.555 L 10.667999 3.555 C 10.341999 3.555 10.216999 3.3289998 10.388999 3.053 L 10.87 2.28 C 11.044 2.004 10.919 1.778 10.592999 1.778 L 5.408 1.778 C 5.082 1.778 4.956 2.004 5.129 2.28 L 5.612 3.053 C 5.784 3.329 5.659 3.555 5.333 3.555 L 3.555 3.555 C 3.229 3.555 3.104 3.3289998 3.276 3.053 L 3.759 2.28 C 3.933 2.004 3.807 1.778 3.482 1.778 L 1.778 1.778 C 1.452 1.778 1.185 2.045 1.185 2.37 L 1.185 13.63 C 1.185 13.956 1.4519999 14.223001 1.778 14.223001 L 14.223 14.223001 C 14.549 14.223001 14.815 13.956 14.815 13.63 L 14.815 2.37 C 14.814 2.044 14.549 1.778 14.223 1.778 z M 7.525 11.853 L 3.555 11.853 L 3.555 11.125 L 4.884 11.125 L 4.884 6.695 L 3.555 6.975001 L 3.555 6.248 L 5.522 5.6470003 L 6.273 5.6470003 L 6.273 11.125 L 7.525 11.125 L 7.525 11.853 z M 12.444 11.853 L 8.458 11.853 L 8.458 11.311 C 8.458 10.069 9.286 9.275 10.088 8.615 C 10.632 8.167 10.968 7.845 10.968 7.321 C 10.968 6.756 10.684 6.4419994 10.001 6.4419994 C 9.52 6.4419994 9.086 6.5779996 8.674001 6.7209992 L 8.674001 5.884 C 9.226001 5.724 9.786001 5.6299996 10.357 5.6299996 C 11.616 5.6299996 12.392 6.1289997 12.392 7.271 C 12.392 8.184999 11.875 8.667 11.143001 9.275 C 10.366 9.917 9.856001 10.365999 9.795 11.035 L 12.444 11.035 L 12.444 11.853 z " fill="#575757" fill-opacity="1"/>
<rect fill="none" height="16" width="16"/>
<defs>
<linearGradient gradientTransform="matrix(1 0 0 1 -524.9609 -815.0391)" gradientUnits="userSpaceOnUse" x1="532.96" x2="532.96" xlink:actuate="onLoad" xlink:show="other" xlink:type="simple" y1="829.2627" y2="816.8174">
<stop offset="0" stop-color="#d0cbc5"/>
<stop offset="1" stop-color="#fcfcf9"/>
</linearGradient>
</defs>
</svg>
