<?xml version="1.0" encoding="UTF-8"?>
<svg xmlns="http://www.w3.org/2000/svg" xmlns:xlink="http://www.w3.org/1999/xlink" baseProfile="tiny" contentScriptType="text/ecmascript" contentStyleType="text/css" height="30px" preserveAspectRatio="xMidYMid meet" version="1.1" viewBox="0 0 30 30" width="30px" x="0px" y="0px" zoomAndPan="magnify">
<rect fill="none" height="30" width="30"/>
<path d="M 27.818 9.427 C 27.633 9.159 27.326 9.0 27.0 9.0 L 20.959 9.0 L 23.140999 2.309 C 23.238998 2.006 23.188 1.6719999 22.998999 1.413 C 22.811 1.152 22.509 1.0 22.189 1.0 L 17.597 1.0 C 17.164 1.0 16.781 1.277 16.646 1.689 L 13.048 12.689 C 12.949 12.994 13.0 13.327 13.190001 13.586 C 13.379 13.847 13.681 14.0 14.0 14.0 L 20.068 14.0 L 18.514 17.829 C 16.774 16.255001 13.825 14.169001 10.3949995 14.169001 C 5.0079994 14.169001 0.79299927 19.322 0.6159992 19.541 L 0.11099923 20.169 L 0.6159992 20.796001 C 0.7929992 21.016 5.0079994 26.169003 10.3949995 26.169003 C 13.013 26.169003 15.349999 24.950003 17.085 23.674004 L 18.689 28.485004 C 18.866 28.803 19.2 29.0 19.563 29.0 C 19.926 29.0 20.262 28.803 20.438 28.484 L 27.438 19.484 C 27.61 19.175 27.605999 18.796999 27.425 18.493 C 27.246 18.188 26.917 18.0 26.563 18.0 L 25.140999 18.0 L 27.939999 10.343 C 28.051 10.036 28.007 9.694 27.818 9.427 z M 10.396 22.169 C 9.293 22.169 8.396 21.272001 8.396 20.169 C 8.396 19.065 9.293 18.169 10.396 18.169 C 11.499 18.169 12.396 19.065 12.396 20.169 C 12.396 21.271 11.499 22.169 10.396 22.169 z " fill-opacity="0.15" stroke-opacity="0.15"/>
<path d="M 27.0 9.0 L 19.58 9.001 L 22.188 1.0 L 17.598 1.0 L 14.0 12.0 L 21.553 12.0 L 19.119 18.0 L 18.3 18.0 C 16.773998 16.522 13.806 14.169 10.396 14.169 C 5.4249997 14.169 1.3959999 19.168999 1.3959999 19.168999 C 1.3959999 19.168999 5.4249997 24.168999 10.396 24.168999 C 13.327 24.168999 15.922 22.433998 17.565 21.006998 L 19.563 27.0 L 26.563 18.0 L 23.71 18.0 L 27.0 9.0 z M 10.396 22.169 C 8.739 22.169 7.396 20.825 7.396 19.169 C 7.396 17.513 8.739 16.169 10.396 16.169 C 12.0529995 16.169 13.396 17.513 13.396 19.169 C 13.396 20.825 12.053 22.169 10.396 22.169 z " fill-opacity="0.3" stroke-opacity="0.3"/>
<path d="M 27.0 10.0 L 19.58 10.001 L 22.188 2.0 L 17.598 2.0 L 14.0 13.0 L 21.553 13.0 L 19.293 18.572 C 19.817 19.104 20.129 19.485 20.174 19.541 L 20.68 20.169 L 20.174 20.796001 C 20.098 20.891 19.264 21.910002 17.907 23.035002 L 19.563 28.0 L 26.563 19.0 L 23.71 19.0 L 27.0 10.0 z " fill="#dedede"/>
<path d="M 10.396 15.169 C 5.4249997 15.169 1.3959999 20.168999 1.3959999 20.168999 C 1.3959999 20.168999 5.4249997 25.168999 10.396 25.168999 C 15.367001 25.168999 19.396 20.168999 19.396 20.168999 C 19.396 20.168999 15.366 15.169 10.396 15.169 z M 10.396 23.169 C 8.739 23.169 7.396 21.825 7.396 20.169 C 7.396 18.513 8.739 17.169 10.396 17.169 C 12.0529995 17.169 13.396 18.513 13.396 20.169 C 13.396 21.825 12.053 23.169 10.396 23.169 z " fill="#dedede"/>
</svg>
