<?xml version="1.0" encoding="UTF-8"?>
<svg xmlns="http://www.w3.org/2000/svg" xmlns:xlink="http://www.w3.org/1999/xlink" baseProfile="tiny" contentScriptType="text/ecmascript" contentStyleType="text/css" height="27px" preserveAspectRatio="xMidYMid meet" version="1.1" viewBox="0 0 27 27" width="27px" x="0px" y="0px" zoomAndPan="magnify">
<rect fill="none" height="27" width="27"/>
<defs>
<linearGradient gradientUnits="userSpaceOnUse" x1="13.5005" x2="13.5005" xlink:actuate="onLoad" xlink:show="other" xlink:type="simple" y1="24" y2="3.0005">
<stop offset="0" stop-color="#d0cbc5"/>
<stop offset="1" stop-color="#fcfcf9"/>
</linearGradient>
</defs>
<path d="M 4.4765625 2.999998 L 4.4765625 3.041018 C 3.6470652 3.198018 3.0 4.020768 3.0 5.009768 L 3.0 21.990236 C 3.0 23.089737 3.857703 24.000002 4.9072266 24.000002 L 22.092772 24.000002 C 23.142294 24.000002 24.0 23.089737 24.0 21.990236 L 24.0 5.009768 C 24.0 3.989267 23.319588 3.139008 22.441406 3.02051 L 22.441406 3.0 L 4.4765625 3.0 z M 9.952148 8.0859375 L 10.79297 8.0859375 L 10.79297 18.914062 L 9.48047 18.914062 L 9.48047 10.485352 C 9.162172 10.788962 8.746105 11.084097 8.229492 11.387694 C 7.712872 11.691306 7.246295 11.933165 6.834961 12.08496 L 6.834961 10.792968 C 7.57438 10.445301 8.209347 10.036581 8.762695 9.54199 C 9.316033 9.047419 9.721992 8.551147 9.952148 8.085936 z M 16.801758 8.085936 C 17.83498 8.085949 18.639872 8.394854 19.242188 8.967772 C 19.84449 9.54071 20.144527 10.25344 20.144531 11.100584 C 20.144526 11.531513 20.07472 11.935337 19.898438 12.351561 C 19.722149 12.767798 19.425486 13.224271 19.016602 13.684567 C 18.60771 14.1448765 17.915802 14.768211 16.96582 15.571286 C 16.17253 16.237257 15.673493 16.68731 15.448242 16.924805 C 15.222984 17.162302 15.020925 17.402634 14.874023 17.642576 L 20.16504 17.642576 L 20.16504 18.91406 L 13.048828 18.91406 C 13.039028 18.595766 13.079748 18.285015 13.192383 17.991207 C 13.373563 17.506424 13.675127 17.025764 14.074219 16.555662 C 14.473307 16.085571 15.04276 15.552548 15.796875 14.935545 C 16.96721 13.975768 17.76444 13.219871 18.17578 12.659178 C 18.587112 12.098496 18.79101 11.559054 18.791016 11.059567 C 18.79101 10.535613 18.61191 10.086486 18.237305 9.726561 C 17.862688 9.3666525 17.363045 9.193367 16.760742 9.193357 C 16.12415 9.193366 15.625115 9.385633 15.243164 9.767575 C 14.861209 10.149539 14.673867 10.670922 14.668945 11.346678 L 13.294922 11.203123 C 13.387962 10.1894865 13.754114 9.417057 14.361328 8.88574 C 14.96853 8.354447 15.7783165 8.085945 16.801758 8.085937 z " fill="#dedede" fill-opacity="1" stroke-opacity="0.3"/>
</svg>
