<?xml version="1.0" encoding="UTF-8"?>
<svg xmlns="http://www.w3.org/2000/svg" xmlns:xlink="http://www.w3.org/1999/xlink" baseProfile="tiny" contentScriptType="text/ecmascript" contentStyleType="text/css" height="30px" preserveAspectRatio="xMidYMid meet" version="1.1" viewBox="0 0 30 30" width="30px" x="0px" y="0px" zoomAndPan="magnify">
<path d="M 25.571 7.923 C 25.49 6.845 24.581 6.0 23.5 6.0 L 21.68 6.0 C 20.275 3.22 17.932 1.05 15.0 1.05 C 12.068001 1.05 9.725 3.22 8.32 6.0 L 6.5 6.0 C 5.419 6.0 4.51 6.845 4.429 7.922 L 3.077 25.929 C 3.037 26.466002 3.221 26.997002 3.5819998 27.387001 C 3.944 27.776 4.461 28.0 5.0 28.0 L 25.0 28.0 C 25.539 28.0 26.056 27.776 26.418 27.387 C 26.779 26.997 26.963 26.466 26.922998 25.928 L 25.571 7.923 z M 15.0 4.95 C 15.645 4.95 16.332 5.3469996 16.961 6.0 L 13.0390005 6.0 C 13.668 5.348 14.355 4.95 15.0 4.95 z " fill-opacity="0.15" stroke-opacity="0.15"/>
<path d="M 24.574 6.997 C 24.533 6.449 24.05 6.0 23.5 6.0 L 22.135 6.0 C 22.483 6.857 22.75 7.749 22.917 8.642 C 23.013 9.155001 22.903 9.673 22.608 10.103001 C 22.314 10.533001 21.869999 10.8220005 21.358 10.917001 C 21.243 10.939001 21.119999 10.950001 20.999 10.950001 C 20.061 10.950001 19.255001 10.280001 19.083 9.357 C 18.85 8.113 18.361 6.938 17.75 6.0 L 12.25 6.0 C 11.639 6.938 11.15 8.114 10.917 9.358 C 10.747 10.278999 9.939 10.948999 8.998 10.948999 C 8.8810005 10.948999 8.764 10.938999 8.645 10.917 C 8.129001 10.821 7.6850004 10.532 7.3910007 10.103 C 7.0960007 9.672999 6.987001 9.155 7.0820007 8.642 C 7.25 7.749 7.518 6.857 7.865 6.0 L 6.5 6.0 C 5.95 6.0 5.467 6.449 5.426 6.997 L 4.074 25.003 C 4.033 25.551 4.45 26.0 5.0 26.0 L 25.0 26.0 C 25.55 26.0 25.967 25.551 25.926 25.003 L 24.574 6.997 z M 8.862 9.537 C 9.265 9.611 9.662001 9.344999 9.737 8.936999 C 10.313 5.865 12.488 2.55 15.0 2.55 C 17.512001 2.55 19.688 5.865 20.263 8.938 C 20.33 9.299 20.646 9.549999 20.999 9.549999 C 21.045 9.549999 21.092001 9.546 21.138 9.537 C 21.545 9.4609995 21.814001 9.068999 21.738 8.662 C 21.046 4.972 18.45 1.05 15.0 1.05 C 11.549999 1.05 8.954 4.972 8.263 8.662 C 8.187 9.069 8.455 9.461 8.862 9.537 z " fill-opacity="0.3" stroke-opacity="0.3"/>
<path d="M 20.999 10.75 C 20.645 10.75 20.33 10.499 20.263 10.1380005 C 19.688 7.065 17.512 3.75 15.0 3.75 C 12.488001 3.75 10.312 7.065 9.7369995 10.1380005 C 9.662 10.545 9.264999 10.812 8.8619995 10.738001 C 8.455 10.662001 8.186 10.27 8.261999 9.863001 C 8.954 6.172 11.55 2.25 15.0 2.25 C 18.45 2.25 21.046 6.172 21.737 9.8619995 C 21.813 10.268999 21.545 10.660999 21.137 10.7369995 C 21.092 10.746 21.045 10.75 20.999 10.75 L 20.999 10.75 z " fill="#dedede"/>
<rect fill="none" height="30" width="30"/>
<path d="M 24.574 7.997 C 24.533 7.449 24.05 7.0 23.5 7.0 L 22.135 7.0 C 22.483 7.857 22.75 8.749 22.917 9.642 C 23.013 10.155001 22.903 10.673 22.608 11.103001 C 22.314 11.533001 21.869999 11.8220005 21.358 11.917001 C 21.243 11.939001 21.119999 11.950001 20.999 11.950001 C 20.061 11.950001 19.255001 11.280001 19.083 10.357 C 18.85 9.113 18.361 7.938 17.75 7.0 L 12.25 7.0 C 11.639 7.938 11.15 9.114 10.917 10.358 C 10.747 11.278999 9.939 11.948999 8.998 11.948999 C 8.8810005 11.948999 8.764 11.938999 8.645 11.917 C 8.129001 11.821 7.6850004 11.532 7.3910007 11.103 C 7.0960007 10.672999 6.987001 10.155 7.0820007 9.642 C 7.25 8.749 7.518 7.857 7.865 7.0 L 6.5 7.0 C 5.95 7.0 5.467 7.449 5.426 7.997 L 4.074 26.003 C 4.033 26.551 4.45 27.0 5.0 27.0 L 25.0 27.0 C 25.55 27.0 25.967 26.551 25.926 26.003 L 24.574 7.997 z M 19.0 21.21 C 19.002 21.804998 18.496 22.474998 17.692 22.861 C 16.682999 23.346 15.587999 23.199 15.245999 22.532 C 14.903999 21.865 15.441999 20.93 16.451 20.445 C 17.042 20.16 17.661 20.098999 18.142 20.228 L 18.142 15.617001 L 13.856001 16.746 L 13.856001 22.065 C 13.856001 22.659 13.351001 23.328001 12.549001 23.714 C 11.540001 24.198 10.445001 24.052 10.103001 23.385 C 9.759001 22.717001 10.298 21.783 11.307001 21.298 C 11.900002 21.013 12.517001 20.952 12.998001 21.08 L 12.998001 14.91 C 12.998001 14.676 13.185001 14.434 13.413001 14.374 L 18.585001 13.013 C 18.814 12.954 19.0 13.097 19.0 13.332 L 19.0 21.21 z " fill="#dedede"/>
</svg>
