<?xml version="1.0" encoding="UTF-8"?>
<svg xmlns="http://www.w3.org/2000/svg" xmlns:xlink="http://www.w3.org/1999/xlink" baseProfile="tiny" contentScriptType="text/ecmascript" contentStyleType="text/css" height="70px" preserveAspectRatio="xMidYMid meet" version="1.1" viewBox="0 0 70 70" width="70px" x="0px" y="0px" zoomAndPan="magnify">
<defs/>
<rect fill="none" height="70" width="70"/>
<path color="#000000" d="M 35.04608 19.192532 C 24.672655 19.192532 16.264832 27.600357 16.264832 37.973785 C 16.264832 48.347206 24.672655 56.755035 35.04608 56.755035 C 45.419506 56.755035 53.82733 48.347206 53.82733 37.973785 C 53.82733 27.600359 45.419506 19.192533 35.04608 19.192533 z M 34.85858 22.536285 C 34.910633 22.533585 34.962784 22.533585 35.01483 22.536285 C 35.423508 22.527685 35.817986 22.686298 36.10703 22.97534 C 36.39607 23.264381 36.554646 23.658857 36.54608 24.067535 L 36.54608 37.973785 C 36.545998 38.802174 35.874474 39.4737 35.04608 39.473785 L 25.358582 39.598785 C 24.819319 39.609554 24.315783 39.33001 24.039768 38.866615 C 23.763754 38.403214 23.757755 37.827316 24.024057 37.358273 C 24.29036 36.889225 24.787962 36.599247 25.327333 36.598785 L 33.54608 36.505035 L 33.54608 24.067535 C 33.52404 23.295307 34.092068 22.632607 34.85858 22.536285 z " display="inline" fill="#000000" fill-opacity="1" fill-rule="nonzero" stroke="none" stroke-dasharray="none" stroke-miterlimit="4" stroke-opacity="1" stroke-width="4" visibility="visible"/>
<path color="#000000" d="M 22.04714 13.244968 C 17.320597 13.244968 13.51589 17.080925 13.51589 21.807468 C 13.51589 24.506413 14.751473 26.895153 16.70339 28.463718 C 19.077562 23.156488 23.854956 19.17006 29.64089 17.838718 C 28.212292 15.104368 25.345873 13.244968 22.04714 13.244968 z " display="inline" fill="#000000" fill-opacity="1" fill-rule="nonzero" stroke="none" visibility="visible"/>
<path color="#000000" d="M 47.878708 13.244968 C 52.60525 13.244968 56.409958 17.080925 56.409958 21.807468 C 56.409958 24.506413 55.174374 26.895153 53.222458 28.463718 C 50.848286 23.156488 46.070892 19.17006 40.284958 17.838718 C 41.71356 15.104368 44.579975 13.244968 47.878708 13.244968 z " display="inline" fill="#000000" fill-opacity="1" fill-rule="nonzero" stroke="none" visibility="visible"/>
</svg>
