<?xml version="1.0" encoding="UTF-8"?>
<svg xmlns="http://www.w3.org/2000/svg" xmlns:xlink="http://www.w3.org/1999/xlink" baseProfile="tiny" contentScriptType="text/ecmascript" contentStyleType="text/css" height="57px" preserveAspectRatio="xMidYMid meet" version="1.1" viewBox="0 0 67 57" width="67px" x="0px" y="0px" zoomAndPan="magnify">
<path d="M 24.0 22.0 C 24.0 18.687 21.313 16.0 18.0 16.0 C 14.687 16.0 12.0 18.687 12.0 22.0 C 12.0 25.313 14.687 28.0 18.0 28.0 C 21.313 28.0 24.0 25.313 24.0 22.0 z M 34.5 24.0 C 35.328 24.0 36.0 23.328 36.0 22.5 C 36.0 21.672 35.328 21.0 34.5 21.0 L 28.5 21.0 C 27.672 21.0 27.0 21.672 27.0 22.5 C 27.0 23.328 27.672 24.0 28.5 24.0 L 34.5 24.0 z M 48.629 9.071 L 47.371 5.928 C 47.167 5.418 46.55 5.0 46.0 5.0 L 22.0 5.0 C 21.45 5.0 20.833 5.418 20.629 5.929 L 19.371 9.072 C 19.167 9.582 19.0 10.45 19.0 11.0 L 19.0 14.069 C 20.082 14.205 21.096 14.557 22.0 15.082001 L 22.0 11.0 L 46.0 11.0 L 46.0 19.0 L 46.5 19.0 C 47.479 19.0 48.364 19.407 49.0 20.059 L 49.0 11.0 C 49.0 10.45 48.833 9.582 48.629 9.071 z M 46.0 26.0 L 46.0 44.0 L 22.0 44.0 L 22.0 28.918 C 21.096 29.442 20.082 29.795 19.0 29.931 L 19.0 47.0 C 19.0 47.55 19.167 48.418 19.371 48.929 L 20.629 52.072002 C 20.833 52.582 21.45 53.0 22.0 53.0 L 46.0 53.0 C 46.55 53.0 47.167 52.582 47.371 52.071 L 48.628998 48.927998 C 48.833 48.418 49.0 47.55 49.0 47.0 L 49.0 24.941 C 48.364 25.593 47.479 26.0 46.5 26.0 L 46.0 26.0 z M 40.5 50.0 L 27.5 50.0 C 26.672 50.0 26.0 49.328 26.0 48.5 C 26.0 47.672 26.672 47.0 27.5 47.0 L 40.5 47.0 C 41.328 47.0 42.0 47.672 42.0 48.5 C 42.0 49.328 41.328 50.0 40.5 50.0 z M 46.5 24.0 C 47.328 24.0 48.0 23.328 48.0 22.5 C 48.0 21.672 47.328 21.0 46.5 21.0 L 40.5 21.0 C 39.672 21.0 39.0 21.672 39.0 22.5 C 39.0 23.328 39.672 24.0 40.5 24.0 L 46.5 24.0 z " fill="#ffffff" fill-opacity="1" stroke-opacity="0.29999999999999999"/>
<defs>
<linearGradient gradientUnits="userSpaceOnUse" x1="30.5005" x2="30.5005" y1="52" y2="4.0005">
<stop offset="0" stop-color="#d0cbc5"/>
<stop offset="0.5031" stop-color="#fafcef"/>
<stop offset="0.9693" stop-color="#ffffff"/>
<stop offset="1" stop-color="#ffffff"/>
</linearGradient>
</defs>
</svg>
