<?xml version="1.0" encoding="UTF-8"?>
<svg xmlns="http://www.w3.org/2000/svg" xmlns:xlink="http://www.w3.org/1999/xlink" baseProfile="tiny" contentScriptType="text/ecmascript" contentStyleType="text/css" height="30px" preserveAspectRatio="xMidYMid meet" version="1.1" viewBox="0 0 30 30" width="30px" x="0px" y="0px" zoomAndPan="magnify">
<rect color="#000000" display="inline" fill="#353535" fill-opacity="0.58823529" fill-rule="nonzero" height="27.533897" ry="4.7137108" stroke="none" visibility="visible" width="27.533897" x="1.2330513" y="1.2330513"/>
<path d="M 21.923077 6.0 L 8.076923 6.0 C 7.696154 6.0 7.384616 6.311538 7.384616 6.692308 L 7.384616 23.307692 C 7.384616 23.68846 7.696154 24.0 8.076923 24.0 L 21.923077 24.0 C 22.303846 24.0 22.615383 23.68846 22.615383 23.307692 L 22.615383 6.6923084 C 22.615383 6.311538 22.303846 6.0 21.923077 6.0 z M 10.153846 9.461538 L 11.538462 9.461538 C 11.921307 9.461538 12.230768 9.771 12.230768 10.153847 C 12.230768 10.536693 11.921308 10.846155 11.538462 10.846155 L 10.153846 10.846155 C 9.771 10.846155 9.461538 10.536694 9.461538 10.153847 C 9.461538 9.771001 9.771 9.461538 10.153846 9.461538 z M 10.153846 12.230769 L 15.692308 12.230769 C 16.075153 12.230769 16.384617 12.540231 16.384617 12.923078 C 16.384617 13.305923 16.075153 13.615386 15.692308 13.615386 L 10.153847 13.615386 C 9.771001 13.615386 9.461539 13.305924 9.461539 12.923078 C 9.461539 12.540232 9.771001 12.230769 10.153847 12.230769 z M 10.153847 15.0 L 14.307693 15.0 C 14.690539 15.0 15.000002 15.309462 15.000002 15.692308 C 15.000002 16.075155 14.69054 16.384615 14.307693 16.384615 L 10.153847 16.384615 C 9.771001 16.384615 9.461539 16.075153 9.461539 15.692308 C 9.461538 15.309462 9.771 15.0 10.153846 15.0 z M 11.538462 19.153849 L 10.153846 19.153849 C 9.771 19.153849 9.461538 18.844383 9.461538 18.461538 C 9.461538 18.078691 9.771 17.769232 10.153846 17.769232 L 11.538462 17.769232 C 11.921307 17.769232 12.230768 18.078691 12.230768 18.461538 C 12.230768 18.844383 11.921308 19.153849 11.538462 19.153849 z M 15.692307 19.153849 L 14.307693 19.153849 C 13.924846 19.153849 13.615383 18.844383 13.615383 18.461538 C 13.615383 18.078691 13.924845 17.769232 14.307693 17.769232 L 15.692307 17.769232 C 16.075153 17.769232 16.384615 18.078691 16.384615 18.461538 C 16.384615 18.844383 16.075151 19.153849 15.692307 19.153849 z M 19.846151 19.153849 L 18.461536 19.153849 C 18.07869 19.153849 17.769228 18.844383 17.769228 18.461538 C 17.769228 18.078691 18.07869 17.769232 18.461536 17.769232 L 19.846151 17.769232 C 20.228998 17.769232 20.53846 18.078691 20.53846 18.461538 C 20.53846 18.844383 20.228998 19.153849 19.846151 19.153849 z M 19.846151 16.384615 L 17.07692 16.384615 C 16.694075 16.384615 16.384615 16.075153 16.384615 15.692308 C 16.384617 15.309462 16.694077 15.0 17.076923 15.0 L 19.846151 15.0 C 20.229002 15.0 20.538462 15.309462 20.538462 15.692308 C 20.538462 16.075155 20.229 16.384615 19.846151 16.384615 z M 19.846151 13.615385 L 18.461538 13.615385 C 18.078691 13.615385 17.76923 13.305923 17.76923 12.923077 C 17.76923 12.540231 18.078691 12.230768 18.461538 12.230768 L 19.846151 12.230768 C 20.229 12.230768 20.538462 12.54023 20.538462 12.923077 C 20.538462 13.3059225 20.229 13.615385 19.846151 13.615385 z M 19.846151 10.846154 L 14.307692 10.846154 C 13.924846 10.846154 13.615383 10.536693 13.615383 10.153846 C 13.615383 9.771 13.924845 9.461537 14.307692 9.461537 L 19.846151 9.461537 C 20.229 9.461537 20.538462 9.770999 20.538462 10.153846 C 20.538462 10.536692 20.229 10.846154 19.846151 10.846154 z " fill="#dedede"/>
<rect fill="none" height="30" width="30"/>
</svg>
