<?xml version="1.0" encoding="UTF-8"?>
<svg xmlns="http://www.w3.org/2000/svg" xmlns:xlink="http://www.w3.org/1999/xlink" baseProfile="tiny" contentScriptType="text/ecmascript" contentStyleType="text/css" height="30px" preserveAspectRatio="xMidYMid meet" version="1.1" viewBox="0 0 30 30" width="30px" x="0px" y="0px" zoomAndPan="magnify">
<rect fill="none" height="30" width="30"/>
<path d="M 15.0 0.027 C 7.283 0.027 1.027 6.283 1.027 14.0 C 1.027 21.717 7.283 27.973 15.0 27.973 C 22.719 27.973 28.973 21.717 28.973 14.0 C 28.973 6.283001 22.719 0.027 15.0 0.027 z M 22.559 19.041 C 23.258 19.736 23.258 20.867 22.559 21.561 C 21.87 22.256 20.739 22.256 20.041 21.561 L 15.0 16.52 L 9.958 21.561 C 9.266 22.256 8.1310005 22.256 7.438 21.561 C 6.743 20.868 6.743 19.737001 7.438 19.041 L 12.479 14.0 L 7.439 8.959 C 6.744 8.261999 6.744 7.1329994 7.439 6.4379997 C 8.1310005 5.7429996 9.266 5.7429996 9.959 6.4379997 L 15.0 11.479 L 20.041 6.439 C 20.738 5.744 21.869 5.744 22.559 6.439 C 23.258 7.1330004 23.258 8.262 22.559 8.96 L 17.521 14.0 L 22.559 19.041 z " fill-opacity="0.3" stroke-opacity="0.3"/>
<path d="M 15.0 29.973 C 6.744 29.973 0.027 23.256 0.027 15.0 C 0.027 6.7439995 6.744 0.027 15.0 0.027 C 23.256 0.027 29.973 6.744 29.973 15.0 C 29.973 23.256 23.256 29.973 15.0 29.973 L 15.0 29.973 z " fill-opacity="0.15" stroke-opacity="0.15"/>
<path d="M 15.0 1.027 C 7.283 1.027 1.027 7.283 1.027 15.0 C 1.027 22.717 7.283 28.973 15.0 28.973 C 22.719 28.973 28.973 22.717 28.973 15.0 C 28.973 7.283001 22.719 1.027 15.0 1.027 z M 22.559 20.041 C 23.258 20.736 23.258 21.867 22.559 22.561 C 21.87 23.256 20.739 23.256 20.041 22.561 L 15.0 17.52 L 9.958 22.561 C 9.266 23.256 8.1310005 23.256 7.438 22.561 C 6.743 21.868 6.743 20.737001 7.438 20.041 L 12.479 15.0 L 7.439 9.959 C 6.744 9.261999 6.744 8.132999 7.439 7.4379997 C 8.1310005 6.7429996 9.266 6.7429996 9.959 7.4379997 L 15.0 12.479 L 20.041 7.439 C 20.738 6.744 21.869 6.744 22.559 7.439 C 23.258 8.133 23.258 9.262 22.559 9.96 L 17.521 15.0 L 22.559 20.041 z " fill="#dedede"/>
<rect fill="none" height="30" width="30"/>
</svg>
