<?xml version="1.0" encoding="UTF-8"?>
<svg xmlns="http://www.w3.org/2000/svg" xmlns:xlink="http://www.w3.org/1999/xlink" baseProfile="tiny" contentScriptType="text/ecmascript" contentStyleType="text/css" height="23px" preserveAspectRatio="xMidYMid meet" version="1.1" viewBox="0 0 25 23" width="25px" x="0px" y="0px" zoomAndPan="magnify">
<path color="#000000" d="M 24.15 11.500001 C 24.150826 13.519101 23.07412 15.385178 21.325665 16.394966 C 19.577211 17.404757 17.422789 17.404757 15.674334 16.394966 C 13.92588 15.385178 12.849175 13.519101 12.85 11.500001 C 12.849175 9.4809 13.92588 7.6148214 15.674333 6.6050344 C 17.422789 5.595247 19.577211 5.595247 21.325665 6.6050344 C 23.07412 7.614822 24.150826 9.4809 24.15 11.500001 z " display="inline" fill="#ffffff" fill-opacity="0.11764706" fill-rule="nonzero" stroke="none" visibility="visible"/>
<path color="#000000" d="M 12.15 11.5 C 12.150825 13.5191 11.07412 15.385177 9.3256645 16.394966 C 7.5772104 17.404757 5.4227877 17.404757 3.674333 16.394966 C 1.9258792 15.385177 0.8491761 13.5191 0.8500003 11.5 C 0.8491761 9.480899 1.9258792 7.614821 3.6743329 6.6050334 C 5.4227877 5.595246 7.5772114 5.595246 9.3256645 6.6050334 C 11.07412 7.614821 12.150825 9.480899 12.15 11.5 z " display="inline" fill="#ffffff" fill-opacity="0.11764706" fill-rule="nonzero" stroke="none" visibility="visible"/>
<rect fill="none" height="23" width="25"/>
<defs>
<linearGradient gradientUnits="userSpaceOnUse" x1="12.5" x2="12.5" xlink:actuate="onLoad" xlink:show="other" xlink:type="simple" y1="22" y2="1.0005">
<stop offset="0" stop-color="#195b19"/>
<stop offset="1" stop-color="#9bd22d"/>
</linearGradient>
</defs>
<path color="#000000" d="M 10.852331 11.500001 C 10.852967 13.055362 10.023555 14.492847 8.67668 15.270711 C 7.3298025 16.048574 5.6701984 16.048574 4.323322 15.270711 C 2.9764445 14.492847 2.147034 13.055362 2.147669 11.500001 C 2.147034 9.94464 2.9764445 8.5071535 4.323321 7.7292895 C 5.670198 6.9514256 7.3298016 6.9514256 8.676679 7.7292895 C 10.023555 8.5071535 10.852966 9.944639 10.852331 11.500001 z " display="inline" fill="#ffffff" fill-opacity="0.11764706" fill-rule="nonzero" stroke="none" visibility="visible"/>
<path color="#000000" d="M 11.5 11.500001 C 11.50073 13.286815 10.547894 14.938211 9.000589 15.831829 C 7.4532847 16.725447 5.5467153 16.725447 3.9994104 15.831829 C 2.4521058 14.938211 1.4992712 13.286815 1.5000005 11.500001 C 1.4992712 9.713186 2.4521058 8.0617895 3.99941 7.168172 C 5.546715 6.2745547 7.4532847 6.2745547 9.000589 7.168172 C 10.547894 8.0617895 11.50073 9.713186 11.5 11.500001 z " display="inline" fill="#ffffff" fill-opacity="0.11764706" fill-rule="nonzero" stroke="none" visibility="visible"/>
<path color="#000000" d="M 10.204517 11.176167 C 10.205058 12.500023 9.4991 13.723547 8.352695 14.385632 C 7.206292 15.047716 5.7937083 15.047716 4.6473055 14.385632 C 3.5009012 13.723548 2.7949426 12.500023 2.795483 11.176167 C 2.7949426 9.852309 3.5009012 8.628784 4.647305 7.9667 C 5.793708 7.304615 7.206292 7.304615 8.352695 7.9667 C 9.4991 8.628784 10.205058 9.85231 10.204517 11.176168 z " display="inline" fill="#ffffff" fill-opacity="1" fill-rule="nonzero" stroke="#c8c8c8" stroke-opacity="1" stroke-width="0.64766836000000005" visibility="visible"/>
<path color="#000000" d="M 22.852331 11.500001 C 22.852966 13.055362 22.023556 14.492847 20.67668 15.270711 C 19.329803 16.048574 17.670198 16.048574 16.323322 15.270711 C 14.976446 14.492847 14.147036 13.055362 14.147671 11.500001 C 14.147036 9.944639 14.976447 8.5071535 16.323322 7.72929 C 17.670198 6.951426 19.329803 6.951426 20.67668 7.72929 C 22.023556 8.507154 22.852968 9.94464 22.852331 11.500001 z " display="inline" fill="#ffffff" fill-opacity="0.11764706" fill-rule="nonzero" stroke="none" visibility="visible"/>
<path color="#000000" d="M 23.5 11.500001 C 23.50073 13.286815 22.547894 14.938211 21.00059 15.831829 C 19.453283 16.725447 17.546717 16.725447 15.999411 15.831829 C 14.452106 14.938211 13.499271 13.286816 13.500001 11.500001 C 13.499272 9.713186 14.452106 8.0617895 15.999411 7.1681714 C 17.546717 6.2745543 19.453283 6.2745543 21.00059 7.1681714 C 22.547894 8.0617895 23.50073 9.713186 23.5 11.500001 z " display="inline" fill="#ffffff" fill-opacity="0.11764706" fill-rule="nonzero" stroke="none" visibility="visible"/>
<path color="#000000" d="M 22.204515 11.176167 C 22.205055 12.500023 21.499098 13.723547 20.352694 14.385632 C 19.206291 15.047716 17.793709 15.047716 16.647305 14.385632 C 15.5009 13.723548 14.794943 12.500023 14.795483 11.176167 C 14.794943 9.852309 15.5009 8.628783 16.647305 7.966699 C 17.793709 7.304614 19.206291 7.304614 20.352695 7.966699 C 21.4991 8.628783 22.20506 9.852309 22.204515 11.176167 z " display="inline" fill="#ffffff" fill-opacity="1" fill-rule="nonzero" stroke="#c8c8c8" stroke-opacity="1" stroke-width="0.64766836" visibility="visible"/>
</svg>
