<?xml version="1.0" encoding="UTF-8"?>
<svg xmlns="http://www.w3.org/2000/svg" xmlns:xlink="http://www.w3.org/1999/xlink" baseProfile="tiny" contentScriptType="text/ecmascript" contentStyleType="text/css" height="30px" preserveAspectRatio="xMidYMid meet" version="1.1" viewBox="0 0 30 30" width="30px" x="0px" y="0px" zoomAndPan="magnify">
<rect fill="none" height="30" width="30"/>
<path d="M 15.847 24.432 L 15.801001 23.014 C 15.777 22.205 16.390001 21.498 17.197 21.407 L 17.631 21.314 C 17.681 21.175 17.771 20.985 17.873 20.799 C 17.961 20.639 18.058 20.486 18.161 20.338 L 18.019 19.946 C 17.855 19.634 17.807 19.254 17.891 18.891998 C 17.987 18.479998 18.25 18.120998 18.614 17.903996 L 19.845 17.159998 C 20.097002 17.010998 20.381 16.930998 20.666 16.930998 C 21.163 16.930998 21.621 17.155998 21.922 17.546995 L 22.195002 17.838997 C 22.447002 17.832996 22.717 17.815996 22.986002 17.815996 C 23.131002 17.815996 23.275002 17.820995 23.419004 17.831997 C 23.410002 17.824997 23.431002 17.811996 23.448002 17.798996 L 23.706 17.478996 C 23.987 17.059996 24.477 16.799995 25.005 16.799995 C 25.261002 16.799995 25.516 16.862995 25.741 16.982996 L 27.027 17.651997 C 27.394 17.839996 27.676 18.178995 27.799 18.580996 C 27.906 18.935995 27.884 19.318998 27.736 19.659998 L 27.607 20.056995 C 27.742 20.216995 27.874 20.413998 28.0 20.623997 L 28.0 8.0 C 28.0 7.45 27.55 7.0 27.0 7.0 L 11.5 7.0 L 9.641 4.768 C 9.288 4.346 8.55 4.0 8.0 4.0 L 3.0 4.0 C 2.45 4.0 2.0 4.45 2.0 5.0 L 2.0 25.0 C 2.0 25.55 2.45 26.0 3.0 26.0 L 17.612 26.0 L 17.26 25.932 C 16.47 25.844 15.873 25.212 15.847 24.432 z M 28.99 23.768 L 28.963 22.867 L 28.953 22.61 C 28.947 22.407 28.773 22.249 28.564 22.255 L 27.979 22.169 C 27.981 22.169 27.985 22.167 27.985 22.167 C 27.985 22.167 27.537 22.073 27.22 21.712 C 27.047 21.319 26.813002 20.95 26.524002 20.615 C 26.334002 20.182 26.444002 19.756 26.444002 19.756 C 26.444002 19.756 26.443005 19.757 26.443005 19.759 L 26.622004 19.21 C 26.721004 19.031 26.652004 18.809002 26.469004 18.714 L 26.235004 18.591002 L 25.417004 18.165 L 25.183004 18.044 C 25.001003 17.948 24.772003 18.017 24.673004 18.194 L 24.304005 18.642 L 24.304005 18.638 C 24.304005 18.638 24.006004 18.957 23.537004 19.047 C 23.079004 18.994 22.617004 19.009 22.171003 19.086 C 21.701006 19.023 21.386003 18.727 21.386003 18.727 C 21.386003 18.727 21.386003 18.73 21.386003 18.731 L 20.990004 18.305 C 20.880005 18.133 20.647003 18.08 20.470003 18.186 L 20.244003 18.324 L 19.456003 18.8 L 19.229006 18.936 C 19.052006 19.041 18.997004 19.269 19.108006 19.441 L 19.323006 19.975 C 19.322006 19.974 19.321005 19.974 19.321005 19.974 C 19.321005 19.974 19.451004 20.372002 19.306004 20.806002 C 19.166006 20.988 19.035006 21.175 18.922005 21.38 C 18.811005 21.582 18.721004 21.791 18.643003 22.003 C 18.354006 22.358 17.940006 22.474 17.940006 22.474 C 17.940006 22.474 17.942007 22.476002 17.944006 22.476002 L 17.366009 22.597002 C 17.159006 22.604002 16.995008 22.773005 17.001007 22.974005 L 17.010008 23.233004 L 17.038008 24.134005 L 17.047009 24.392002 C 17.054008 24.595 17.227009 24.753002 17.436008 24.746002 L 18.020008 24.832005 C 18.019009 24.833002 18.017008 24.835005 18.017008 24.835005 C 18.017008 24.835005 18.432009 24.923002 18.745008 25.256002 C 18.928007 25.675003 19.180008 26.068005 19.49001 26.419004 C 19.661009 26.841003 19.55601 27.246002 19.55601 27.246002 L 19.55801 27.244 L 19.37901 27.791002 C 19.280008 27.970003 19.349009 28.192 19.53201 28.288002 L 19.765009 28.409002 L 20.58301 28.835005 L 20.81601 28.958002 C 20.99901 29.053 21.22801 28.985004 21.32701 28.808002 L 21.696009 28.359003 L 21.696009 28.363005 C 21.696009 28.363005 21.991009 28.049004 22.457008 27.957005 C 22.916008 28.008003 23.377008 27.994003 23.824009 27.912004 C 24.297009 27.975002 24.61401 28.273005 24.61401 28.273005 C 24.61401 28.273005 24.61401 28.271002 24.61401 28.270002 L 25.01101 28.697002 C 25.120008 28.867002 25.353008 28.920002 25.530008 28.814005 L 25.756008 28.678003 L 26.547009 28.202003 L 26.77101 28.066004 C 26.949009 27.959003 27.00201 27.734003 26.89301 27.560003 L 26.678007 27.026005 C 26.678007 27.027002 26.68001 27.028004 26.68001 27.028004 C 26.68001 27.028004 26.53901 26.605003 26.70501 26.158005 C 26.83401 25.989002 26.95501 25.812002 27.060007 25.621002 C 27.165009 25.429005 27.25001 25.231005 27.32601 25.032 C 27.61701 24.648 28.05901 24.527002 28.05901 24.527002 C 28.05901 24.527002 28.05801 24.526005 28.05601 24.526005 L 28.633007 24.404003 C 28.84101 24.399004 29.005009 24.227003 28.999008 24.026005 L 28.99 23.768 z M 23.0 26.5 C 21.343 26.5 20.0 25.157 20.0 23.501 C 20.0 21.843 21.343 20.5 23.0 20.5 C 24.657 20.5 26.0 21.843 26.0 23.501 C 26.0 25.157 24.657 26.5 23.0 26.5 z " fill="#70afe0"/>
</svg>
