<?xml version="1.0" encoding="UTF-8"?>
<svg xmlns="http://www.w3.org/2000/svg" xmlns:xlink="http://www.w3.org/1999/xlink" baseProfile="tiny" contentScriptType="text/ecmascript" contentStyleType="text/css" height="26px" preserveAspectRatio="xMidYMid meet" version="1.1" viewBox="0 0 26 26" width="26px" x="0px" y="0px" zoomAndPan="magnify">
<linearGradient gradientTransform="matrix(1 0 0 1 -249.4404 -1188.8652)" gradientUnits="userSpaceOnUse" x1="261.959" x2="261.959" xlink:actuate="onLoad" xlink:show="other" xlink:type="simple" y1="1211.9766" y2="1190.79">
<stop offset="0" stop-color="#d0cbc5"/>
<stop offset="1" stop-color="#fcfcf9"/>
</linearGradient>
<path d="M 22.104 3.885 C 19.479 1.2709999 15.205 1.2739999 12.58 3.885 L 2.373 14.034 C 1.4649999 14.939 0.96299994 16.14 0.96299994 17.418 C 0.96299994 18.696005 1.4649999 19.897 2.373 20.803 C 3.2819998 21.705002 4.489 22.203 5.774 22.203 C 7.059001 22.203 8.267 21.704 9.176001 20.803 L 19.383 10.652001 C 20.509 9.533001 20.509 7.7110014 19.383 6.5920014 C 18.257 5.4730015 16.427 5.4730015 15.299999 6.5920014 L 15.299999 6.5920014 L 15.299999 6.5920014 L 5.773999 16.067001 C 5.3979993 16.44 5.3979993 17.046 5.773999 17.420002 C 5.9619994 17.607002 6.207999 17.700005 6.454999 17.700005 C 6.699999 17.700005 6.946999 17.606005 7.134999 17.420002 L 16.661999 7.9470024 L 16.661999 7.9470024 C 17.036 7.5730023 17.645998 7.5720024 18.020998 7.9460025 C 18.395998 8.320003 18.395998 8.927003 18.020998 9.300002 L 7.815 19.447 C 6.724 20.529 4.823 20.529 3.7330005 19.447 C 3.1880002 18.904 2.8870003 18.183 2.8870003 17.418 C 2.8870003 16.653002 3.1880002 15.932001 3.7330005 15.389001 L 13.939 5.238 C 15.812 3.374 18.866 3.371 20.743 5.238 C 22.618 7.104 22.618 10.139 20.743 12.005 L 11.217 21.479 C 10.841 21.852 10.841 22.458 11.217 22.833 C 11.406 23.019 11.653 23.112 11.897 23.112 C 12.143001 23.112 12.39 23.018 12.578 22.833 L 22.103 13.359 C 24.73 10.747 24.73 6.496 22.104 3.885 z " fill="#575757" fill-opacity="1"/>
<rect fill="none" height="26" width="26"/>
</svg>
