<?xml version="1.0" encoding="UTF-8"?>
<svg xmlns="http://www.w3.org/2000/svg" xmlns:xlink="http://www.w3.org/1999/xlink" baseProfile="tiny" contentScriptType="text/ecmascript" contentStyleType="text/css" height="30px" preserveAspectRatio="xMidYMid meet" version="1.1" viewBox="0 0 30 30" width="30px" x="0px" y="0px" zoomAndPan="magnify">
<path d="M 28.0 4.0 L 27.0 4.0 C 27.0 3.263 26.596 2.625 26.0 2.2779999 L 26.0 2.0 C 26.0 0.89699996 25.104 0.0 24.0 0.0 C 22.896 0.0 22.0 0.897 22.0 2.0 L 21.0 2.0 C 21.0 0.89699996 20.104 0.0 19.0 0.0 L 11.0 0.0 C 9.896 0.0 9.0 0.897 9.0 2.0 L 5.0 2.0 C 3.896 2.0 3.0 2.897 3.0 4.0 L 3.0 27.0 C 3.0 28.104 3.896 29.0 5.0 29.0 L 25.0 29.0 C 26.104 29.0 27.0 28.104 27.0 27.0 L 27.0 8.0 L 28.0 8.0 C 29.104 8.0 30.0 7.103 30.0 6.0 C 30.0 4.897 29.104 4.0 28.0 4.0 z " fill-opacity="0.15"/>
<path d="M 20.0 3.0 L 20.0 1.0 C 20.0 0.448 19.553 0.0 19.0 0.0 L 11.0 0.0 C 10.4470005 0.0 10.0 0.448 10.0 1.0 L 10.0 4.0 L 18.277 4.0 C 18.625 3.405 19.263 3.0 20.0 3.0 z M 28.0 4.0 L 25.0 4.0 L 25.0 1.0 C 25.0 0.448 24.553 0.0 24.0 0.0 C 23.447 0.0 23.0 0.448 23.0 1.0 L 23.0 4.0 L 20.0 4.0 C 19.447 4.0 19.0 4.448 19.0 5.0 C 19.0 5.552 19.447 6.0 20.0 6.0 L 23.0 6.0 L 23.0 9.0 C 23.0 9.552 23.447 10.0 24.0 10.0 C 24.553 10.0 25.0 9.552 25.0 9.0 L 25.0 6.0 L 28.0 6.0 C 28.553 6.0 29.0 5.552 29.0 5.0 C 29.0 4.448 28.553 4.0 28.0 4.0 z M 22.0 2.0 L 21.0 2.0 L 21.0 3.0 L 22.0 3.0 L 22.0 2.0 z M 24.0 11.0 C 23.315 11.0 22.712 10.654 22.352 10.129 C 22.238 10.165 22.125 10.2 22.0 10.2 L 12.0 10.2 C 11.338 10.2 10.8 9.661 10.8 9.0 C 10.8 8.339 11.338 7.8 12.0 7.8 L 22.0 7.8 L 22.0 7.0 L 20.0 7.0 C 18.896 7.0 18.0 6.103 18.0 5.0 L 10.0 5.0 C 9.447 5.0 9.0 4.552 9.0 4.0 L 9.0 2.0 L 5.0 2.0 C 4.447 2.0 4.0 2.448 4.0 3.0 L 4.0 26.0 C 4.0 26.553 4.447 27.0 5.0 27.0 L 25.0 27.0 C 25.553 27.0 26.0 26.553 26.0 26.0 L 26.0 9.0 C 26.0 10.103 25.104 11.0 24.0 11.0 z M 8.0 22.2 C 7.338 22.2 6.8 21.662 6.8 21.0 C 6.8 20.338 7.3380003 19.8 8.0 19.8 C 8.662 19.8 9.2 20.338 9.2 21.0 C 9.2 21.662 8.662 22.2 8.0 22.2 z M 8.0 18.2 C 7.338 18.2 6.8 17.662 6.8 17.0 C 6.8 16.338 7.3380003 15.8 8.0 15.8 C 8.662 15.8 9.2 16.338 9.2 17.0 C 9.2 17.662 8.662 18.2 8.0 18.2 z M 8.0 14.2 C 7.338 14.2 6.8 13.661 6.8 13.0 C 6.8 12.339 7.3380003 11.8 8.0 11.8 C 8.662 11.8 9.2 12.339 9.2 13.0 C 9.2 13.661 8.662 14.2 8.0 14.2 z M 8.0 10.2 C 7.338 10.2 6.8 9.661 6.8 9.0 C 6.8 8.339 7.338 7.8 8.0 7.8 C 8.662001 7.8 9.2 8.338 9.2 9.0 C 9.2 9.662 8.662 10.2 8.0 10.2 z M 22.0 22.2 L 12.0 22.2 C 11.338 22.2 10.8 21.662 10.8 21.0 C 10.8 20.338 11.338 19.8 12.0 19.8 L 22.0 19.8 C 22.662 19.8 23.2 20.338 23.2 21.0 C 23.2 21.662 22.662 22.2 22.0 22.2 z M 22.0 18.2 L 12.0 18.2 C 11.338 18.2 10.8 17.662 10.8 17.0 C 10.8 16.338 11.338 15.8 12.0 15.8 L 22.0 15.8 C 22.662 15.8 23.2 16.338 23.2 17.0 C 23.2 17.662 22.662 18.2 22.0 18.2 z M 22.0 14.2 L 12.0 14.2 C 11.338 14.2 10.8 13.661 10.8 13.0 C 10.8 12.339 11.338 11.8 12.0 11.8 L 22.0 11.8 C 22.662 11.8 23.2 12.339 23.2 13.0 C 23.2 13.661 22.662 14.2 22.0 14.2 z " fill-opacity="0.3"/>
<path d="M 20.0 4.0 L 20.0 2.0 C 20.0 1.448 19.553 1.0 19.0 1.0 L 11.0 1.0 C 10.4470005 1.0 10.0 1.448 10.0 2.0 L 10.0 5.0 L 18.277 5.0 C 18.625 4.405 19.263 4.0 20.0 4.0 z M 28.0 5.0 L 25.0 5.0 L 25.0 2.0 C 25.0 1.448 24.553 1.0 24.0 1.0 C 23.447 1.0 23.0 1.448 23.0 2.0 L 23.0 5.0 L 20.0 5.0 C 19.447 5.0 19.0 5.448 19.0 6.0 C 19.0 6.552 19.447 7.0 20.0 7.0 L 23.0 7.0 L 23.0 10.0 C 23.0 10.552 23.447 11.0 24.0 11.0 C 24.553 11.0 25.0 10.552 25.0 10.0 L 25.0 7.0 L 28.0 7.0 C 28.553 7.0 29.0 6.552 29.0 6.0 C 29.0 5.448 28.553 5.0 28.0 5.0 z M 22.0 3.0 L 21.0 3.0 L 21.0 4.0 L 22.0 4.0 L 22.0 3.0 z M 24.0 12.0 C 23.315 12.0 22.712 11.654 22.352 11.129 C 22.238 11.165 22.125 11.2 22.0 11.2 L 12.0 11.2 C 11.338 11.2 10.8 10.661 10.8 10.0 C 10.8 9.339 11.338 8.8 12.0 8.8 L 22.0 8.8 L 22.0 8.0 L 20.0 8.0 C 18.896 8.0 18.0 7.103 18.0 6.0 L 10.0 6.0 C 9.447 6.0 9.0 5.552 9.0 5.0 L 9.0 3.0 L 5.0 3.0 C 4.447 3.0 4.0 3.448 4.0 4.0 L 4.0 27.0 C 4.0 27.553 4.447 28.0 5.0 28.0 L 25.0 28.0 C 25.553 28.0 26.0 27.553 26.0 27.0 L 26.0 10.0 C 26.0 11.103 25.104 12.0 24.0 12.0 z M 8.0 23.2 C 7.338 23.2 6.8 22.662 6.8 22.0 C 6.8 21.338 7.3380003 20.8 8.0 20.8 C 8.662 20.8 9.2 21.338 9.2 22.0 C 9.2 22.662 8.662 23.2 8.0 23.2 z M 8.0 19.2 C 7.338 19.2 6.8 18.662 6.8 18.0 C 6.8 17.338 7.3380003 16.8 8.0 16.8 C 8.662 16.8 9.2 17.338 9.2 18.0 C 9.2 18.662 8.662 19.2 8.0 19.2 z M 8.0 15.2 C 7.338 15.2 6.8 14.661 6.8 14.0 C 6.8 13.339 7.3380003 12.8 8.0 12.8 C 8.662 12.8 9.2 13.339 9.2 14.0 C 9.2 14.661 8.662 15.2 8.0 15.2 z M 8.0 11.2 C 7.338 11.2 6.8 10.661 6.8 10.0 C 6.8 9.339 7.338 8.8 8.0 8.8 C 8.662001 8.8 9.2 9.338 9.2 10.0 C 9.2 10.662 8.662 11.2 8.0 11.2 z M 22.0 23.2 L 12.0 23.2 C 11.338 23.2 10.8 22.662 10.8 22.0 C 10.8 21.338 11.338 20.8 12.0 20.8 L 22.0 20.8 C 22.662 20.8 23.2 21.338 23.2 22.0 C 23.2 22.662 22.662 23.2 22.0 23.2 z M 22.0 19.2 L 12.0 19.2 C 11.338 19.2 10.8 18.662 10.8 18.0 C 10.8 17.338 11.338 16.8 12.0 16.8 L 22.0 16.8 C 22.662 16.8 23.2 17.338 23.2 18.0 C 23.2 18.662 22.662 19.2 22.0 19.2 z M 22.0 15.2 L 12.0 15.2 C 11.338 15.2 10.8 14.661 10.8 14.0 C 10.8 13.339 11.338 12.8 12.0 12.8 L 22.0 12.8 C 22.662 12.8 23.2 13.339 23.2 14.0 C 23.2 14.661 22.662 15.2 22.0 15.2 z " fill="#dedede"/>
<rect fill="none" height="30" width="30"/>
</svg>
