<?xml version="1.0" encoding="UTF-8"?>
<svg xmlns="http://www.w3.org/2000/svg" xmlns:xlink="http://www.w3.org/1999/xlink" baseProfile="tiny" contentScriptType="text/ecmascript" contentStyleType="text/css" height="30px" preserveAspectRatio="xMidYMid meet" version="1.1" viewBox="0 0 30 30" width="30px" x="0px" y="0px" zoomAndPan="magnify">
<path d="M 8.748 18.622 C 8.686 18.51 7.882 16.807 12.115 12.441 L 12.37 12.187 C 15.486 9.166 17.253 8.714001 18.028 8.714001 C 18.389 8.714001 18.545 8.816001 18.549 8.819 L 20.629 10.542 C 20.831 10.747 21.352 11.172 22.162 11.172999 C 22.533 11.172999 22.908 11.079 23.275 10.898 L 27.596 9.283999 L 27.654 9.254 C 28.279 8.922999 29.254002 8.014 28.94 6.7009997 C 27.76 1.74 23.869 1.0 21.654 1.0 C 20.383 1.0 19.435 1.2409999 19.445 1.2409999 L 19.446 1.2409999 C 14.86 2.1 11.006 5.333 9.345 6.92 L 9.333 6.913 L 6.953 9.294001 L 6.234 10.029 L 6.263 10.057 C 4.473 12.07 1.987 15.46 1.2540002 19.376 C 1.2170002 19.521 0.3500002 22.939 2.0420003 25.759 C 3.0040002 27.363 4.571 28.435 6.7000003 28.940998 C 6.863 28.98 7.027 29.0 7.189 29.0 C 8.505 29.0 9.179 27.794 9.252 27.656 L 9.281 27.6 L 10.899 23.277 C 11.516 22.033 10.962 21.027 10.527 20.611 L 8.748 18.622 z M 30.0 14.0 C 30.0 13.466 29.792 12.964 29.414 12.586 C 29.036 12.208001 28.534 12.0 28.0 12.0 C 27.466 12.0 26.964 12.208 26.586 12.586 L 25.328 13.844001 C 24.338 13.306 23.204 13.0 22.0 13.0 C 18.141 13.0 15.0 16.141 15.0 20.0 C 15.0 21.204 15.306 22.338 15.844 23.328 L 12.586 26.586 C 12.208 26.964 12.0 27.466 12.0 28.0 C 12.0 28.534 12.208 29.036 12.586 29.414 C 12.964001 29.792 13.466 30.0 14.0 30.0 C 14.534 30.0 15.036 29.792 15.414 29.414 L 15.592 29.236 C 15.848 29.721 16.356 30.0 17.0 30.0 L 27.0 30.0 C 27.655 30.0 28.175 29.713 28.425 29.212 C 28.675 28.711 28.593 28.123 28.2 27.6 L 26.509 25.346 C 28.03 24.061 29.0 22.143 29.0 20.0 C 29.0 18.796 28.694 17.662 28.156 16.672 L 29.414 15.414 C 29.792 15.036 30.0 14.534 30.0 14.0 z " fill-opacity="0.15"/>
<path d="M 19.143 7.01 L 21.314 8.812 C 21.314 8.812 21.893 9.497001 22.874 8.982 L 27.188 7.371 C 27.188 7.371 28.186 6.843001 27.969 5.934 C 26.422 -0.5580001 19.63 1.2249999 19.63 1.2249999 C 14.766001 2.135 10.748001 5.893 9.512001 7.162 L 9.504 7.156 L 7.66 9.001 L 7.669 9.01 C 6.11 10.635 3.0350003 14.297001 2.223 18.631 C 2.223 18.631 0.444 25.424 6.933 26.969002 C 7.843 27.186 8.368 26.191002 8.368 26.191002 L 9.983 21.876 C 10.497 20.894 9.815 20.315 9.815 20.315 L 7.936 18.213 C 8.12 18.372002 5.899 16.416 11.398 10.744001 L 11.398 10.742002 L 11.672 10.469002 L 11.674 10.470002 C 17.348 4.969 19.301 7.189 19.143 7.01 z M 16.0 19.0 C 16.0 19.734 16.139 20.435 16.38 21.085 L 24.085 13.379999 C 23.435 13.139 22.734 13.0 22.0 13.0 C 18.687 13.0 16.0 15.687 16.0 19.0 z M 28.707 12.293 C 28.316 11.902 27.684 11.902 27.293 12.293 L 13.293001 26.293 C 12.902001 26.684 12.902001 27.316 13.293001 27.707 C 13.488 27.902 13.744 28.0 14.0 28.0 C 14.256 28.0 14.512 27.902 14.707 27.707 L 28.707 13.707001 C 29.098 13.316 29.098 12.684 28.707 12.293 z M 19.915 24.62 C 20.565 24.861 21.266 25.0 22.0 25.0 C 25.313 25.0 28.0 22.313 28.0 19.0 C 28.0 18.266 27.861 17.565 27.62 16.915 L 19.915 24.62 z M 25.699 24.932 C 24.624 25.604 23.358 26.0 22.0 26.0 C 20.984 26.0 20.021 25.778 19.149 25.386 L 16.627 27.908 C 16.722 27.963 16.84 28.0 17.0 28.0 L 27.0 28.0 C 27.55 28.0 27.73 27.641 27.4 27.2 L 25.699 24.932 z " fill-opacity="0.3"/>
<path d="M 27.969 6.934 C 26.422 0.4419999 19.63 2.225 19.63 2.225 C 14.766001 3.135 10.748001 6.893 9.512001 8.162 L 9.504 8.156 L 7.66 10.001 L 7.669 10.01 C 6.1099997 11.635 3.0349998 15.297001 2.2229996 19.631 C 2.2229996 19.631 0.44399953 26.424 6.933 27.969002 C 7.843 28.186 8.368 27.191002 8.368 27.191002 L 9.983 22.876 C 10.497 21.894 9.815 21.315 9.815 21.315 L 7.936 19.213 C 8.12 19.372002 5.899 17.416 11.398 11.744001 L 11.398 11.742002 L 11.672 11.469002 L 11.674 11.470002 C 17.348 5.9690022 19.301 8.190002 19.143 8.010002 L 21.314 9.812002 C 21.314 9.812002 21.893 10.497003 22.874 9.982002 L 27.188 8.371002 C 27.188 8.37 28.186 7.842 27.969 6.934 z " fill="#dedede"/>
<rect fill="none" height="30" width="30"/>
<path d="M 25.699 25.932 C 24.624 26.604 23.358 27.0 22.0 27.0 C 20.984 27.0 20.021 26.778 19.149 26.386 L 16.627 28.908 C 16.722 28.963 16.84 29.0 17.0 29.0 L 27.0 29.0 C 27.55 29.0 27.73 28.641 27.4 28.2 L 25.699 25.932 z " fill="#dedede"/>
<path d="M 24.085 14.38 C 23.435 14.139 22.734 14.0 22.0 14.0 C 18.687 14.0 16.0 16.687 16.0 20.0 C 16.0 20.734 16.139 21.435 16.38 22.085 L 24.085 14.38 z " fill="#dedede"/>
<path d="M 19.915 25.62 C 20.565 25.861 21.266 26.0 22.0 26.0 C 25.313 26.0 28.0 23.313 28.0 20.0 C 28.0 19.266 27.861 18.565 27.62 17.915 L 19.915 25.62 z " fill="#dedede"/>
<path d="M 14.0 29.0 C 13.744 29.0 13.488 28.902 13.293 28.707 C 12.902 28.316 12.902 27.684 13.293 27.293 L 27.293 13.293001 C 27.684 12.902001 28.316 12.902001 28.707 13.293001 C 29.097998 13.684001 29.098 14.316001 28.707 14.707001 L 14.706999 28.707 C 14.512 28.902 14.256 29.0 14.0 29.0 L 14.0 29.0 z " fill="#fa664b"/>
</svg>
