<?xml version="1.0" encoding="UTF-8"?>
<svg xmlns="http://www.w3.org/2000/svg" xmlns:xlink="http://www.w3.org/1999/xlink" baseProfile="tiny" contentScriptType="text/ecmascript" contentStyleType="text/css" height="57px" preserveAspectRatio="xMidYMid meet" version="1.1" viewBox="0 0 67 57" width="67px" x="0px" y="0px" zoomAndPan="magnify">
<defs/>
<rect color="#000000" display="inline" fill="#575757" fill-opacity="1" fill-rule="nonzero" height="57" stroke="none" stroke-width="4" visibility="visible" width="57" x="5" y="0"/>
<rect fill="none" height="57" width="67"/>
<linearGradient gradientTransform="matrix(1 0 0 -1 0.0449 56.7598)" gradientUnits="userSpaceOnUse" x1="33.4531" x2="33.4531" xlink:actuate="onLoad" xlink:show="other" xlink:type="simple" y1="4.479" y2="51.9332">
<stop offset="0" stop-color="#d0cbc5"/>
<stop offset="1" stop-color="#fcfcf9"/>
</linearGradient>
<path d="M 22.21488 8.46828 C 22.17234 7.5448494 23.545967 6.846517 25.180136 7.62195 C 26.203709 8.110251 26.79215 8.769591 28.801188 9.210038 C 30.811111 9.648711 33.17286 8.363708 34.936417 10.062571 C 36.701744 11.760549 35.619682 14.610597 34.565094 18.439907 C 33.51671 22.27276 30.16595 34.629173 28.296051 42.12119 C 28.126785 42.78673 27.88485 43.43455 28.520264 43.727886 C 29.161877 44.02211 29.431284 43.742947 29.745888 43.015373 C 30.058722 42.293114 30.962652 38.742958 32.5986 34.420918 C 34.365696 29.742619 37.268036 27.349854 37.719116 26.959925 C 38.17197 26.56999 37.29462 24.39612 37.567574 23.932632 C 38.21362 22.807148 41.092026 25.244223 43.021305 29.120502 C 44.912476 32.92943 45.25544 36.534527 44.185783 36.565544 C 43.656715 36.582386 41.89759 34.65665 41.45803 34.711597 C 41.016697 34.76566 38.670902 35.72099 36.746056 41.46717 C 34.813232 47.20892 31.74429 50.906185 27.045609 49.35798 C 22.870676 47.981693 21.497938 45.308887 23.148947 40.00581 C 25.89531 31.178282 30.854536 20.896486 32.50643 16.278446 C 33.22249 14.279159 33.966904 12.446479 33.146275 11.594831 C 32.571125 10.996639 30.258116 10.892954 28.877405 10.6625395 C 27.658869 10.457825 25.628563 10.590759 24.47206 10.303624 C 23.312012 10.021809 22.258308 9.394372 22.214884 8.468283 z " fill="#ffffff" fill-opacity="1"/>
</svg>
