<?xml version="1.0" encoding="UTF-8"?>
<svg xmlns="http://www.w3.org/2000/svg" xmlns:xlink="http://www.w3.org/1999/xlink" baseProfile="tiny" contentScriptType="text/ecmascript" contentStyleType="text/css" height="57px" preserveAspectRatio="xMidYMid meet" version="1.1" viewBox="0 0 67 57" width="67px" x="0px" y="0px" zoomAndPan="magnify">
<path d="M 49.572 45.262 L 49.572 32.195 C 49.572 31.009 50.123997 30.037 51.0 29.487 L 51.0 11.0 C 51.0 9.896 50.104 9.0 49.0 9.0 L 17.0 9.0 C 15.896 9.0 15.0 9.896 15.0 11.0 L 15.0 48.0 C 15.0 49.104 15.896 50.0 17.0 50.0 L 41.133 50.0 C 41.781 47.24 44.816 45.209 48.577 45.209 C 48.91 45.209 49.242 45.227 49.572 45.262 z M 45.5 41.0 L 20.5 41.0 C 19.672 41.0 19.0 40.328 19.0 39.5 C 19.0 38.672 19.672 38.0 20.5 38.0 L 45.5 38.0 C 46.328 38.0 47.0 38.672 47.0 39.5 C 47.0 40.328 46.328 41.0 45.5 41.0 z M 45.5 34.0 L 20.5 34.0 C 19.672 34.0 19.0 33.328 19.0 32.5 C 19.0 31.672 19.672 31.0 20.5 31.0 L 45.5 31.0 C 46.328 31.0 47.0 31.672 47.0 32.5 C 47.0 33.328 46.328 34.0 45.5 34.0 z M 45.5 27.0 L 20.5 27.0 C 19.672 27.0 19.0 26.328 19.0 25.5 C 19.0 24.672 19.672 24.0 20.5 24.0 L 45.5 24.0 C 46.328 24.0 47.0 24.672 47.0 25.5 C 47.0 26.328 46.328 27.0 45.5 27.0 z M 45.5 20.0 L 20.5 20.0 C 19.672 20.0 19.0 19.328 19.0 18.5 C 19.0 17.672 19.672 17.0 20.5 17.0 L 45.5 17.0 C 46.328 17.0 47.0 17.672 47.0 18.5 C 47.0 19.328 46.328 20.0 45.5 20.0 z M 52.833 31.004 C 52.833 31.004 51.572 30.875 51.572 32.195 L 51.572 47.84 C 50.7 47.447 49.679 47.209 48.577 47.209 C 45.493 47.209 43.0 48.951 43.0 51.105 C 43.0 53.259 45.493 55.0 48.577 55.0 C 51.652 55.0 54.142 53.259 54.142 51.105 L 54.142 37.605 C 56.705 37.997 59.052 38.531 60.998997 39.073 L 60.998997 32.548 C 58.038 31.78 55.096 31.329 52.833 31.004 z " fill="#575757" fill-opacity="1" stroke-opacity="0.29999999999999999"/>
<defs>
<linearGradient gradientUnits="userSpaceOnUse" x1="38" x2="38" xlink:actuate="onLoad" xlink:show="other" xlink:type="simple" y1="54" y2="8.0005">
<stop offset="0" stop-color="#d0cbc5"/>
<stop offset="0.5031" stop-color="#fafcef"/>
<stop offset="0.9693" stop-color="#ffffff"/>
<stop offset="1" stop-color="#ffffff"/>
</linearGradient>
</defs>
</svg>
