<?xml version="1.0" encoding="UTF-8"?>
<svg xmlns="http://www.w3.org/2000/svg" xmlns:xlink="http://www.w3.org/1999/xlink" baseProfile="tiny" contentScriptType="text/ecmascript" contentStyleType="text/css" height="96px" preserveAspectRatio="xMidYMid meet" version="1.1" viewBox="0 0 96 96" width="96px" x="0px" y="0px" zoomAndPan="magnify">
<defs>
<linearGradient id="linearGradient3790">
<stop offset="0" stop-color="#9113a6" stop-opacity="1"/>
<stop offset="1" stop-color="#8113a6" stop-opacity="1"/>
</linearGradient>
<linearGradient gradientTransform="matrix(0,1,-1,0,96,0)" gradientUnits="userSpaceOnUse" id="linearGradient3796" x1="8" x2="88" y1="48" y2="48">
<stop offset="0" stop-color="#9113a6" stop-opacity="1"/>
<stop offset="1" stop-color="#8113a6" stop-opacity="1"/>
</linearGradient>
</defs>
<path d="M 88.0 49.0 C 88.0 78.633 77.637 89.0 48.0 89.0 C 18.365 89.0 8.0 78.633 8.0 49.0 C 8.0 19.365 18.365 9.0 48.0 9.0 C 77.637 9.0 88.0 19.365 88.0 49.0 z " fill-opacity="0.4"/>
<linearGradient gradientUnits="userSpaceOnUse" x1="47.9995" x2="47.9995" y1="8" y2="88.0005">
<stop offset="0" stop-color="#b30dac"/>
<stop offset="1" stop-color="#511475"/>
</linearGradient>
<path d="M 48.0 88.0 C 18.367004 88.0 8.0 77.637 8.0 48.0 C 8.0 18.365 18.367 8.0 48.0 8.0 C 77.635 8.0 88.0 18.365 88.0 48.0 C 88.0 77.637 77.635 88.0 48.0 88.0 z " fill="url(#linearGradient3796)" fill-opacity="1"/>
<linearGradient gradientUnits="userSpaceOnUse" id="SVGID_2_" x1="47.9995" x2="47.9995" y1="8.2534" y2="87.4985">
<stop offset="0" stop-color="#ffffff"/>
<stop offset="1" stop-color="#ffffff" stop-opacity="0"/>
</linearGradient>
<path d="M 48.0 8.0 C 18.365 8.0 8.0 18.365 8.0 48.0 C 8.0 77.633 18.365 88.0 48.0 88.0 C 77.637 88.0 88.0 77.633 88.0 48.0 C 88.0 18.365 77.637 8.0 48.0 8.0 z M 48.0 87.0 C 18.842 87.0 9.0 77.158 9.0 48.0 C 9.0 18.842005 18.842 9.0 48.0 9.0 C 77.158005 9.0 87.0 18.842 87.0 48.0 C 87.0 77.158005 77.158 87.0 48.0 87.0 z " fill="url(#SVGID_2_)" fill-opacity="0.25" stroke-opacity="0.25"/>
<rect fill="none" height="96" width="96"/>
<path d="M 62.0 74.0 C 57.127 74.0 52.897 70.345 52.125 65.575 L 36.348 58.45 C 34.759 59.453 32.881 60.0 31.0 60.0 C 25.486 60.0 21.0 55.514 21.0 50.0 C 21.0 44.486 25.486 40.0 31.0 40.0 C 32.881 40.0 34.759 40.547 36.348 41.55 L 52.125 34.425 C 52.897 29.655 57.127 26.0 62.0 26.0 C 67.514 26.0 72.0 30.486 72.0 36.0 C 72.0 41.514 67.514 46.0 62.0 46.0 C 60.118 46.0 58.241 45.453 56.652 44.45 L 44.362 50.0 L 56.652 55.55 C 58.241 54.547 60.118 54.0 62.0 54.0 C 67.514 54.0 72.0 58.486 72.0 64.0 C 72.0 69.514 67.514 74.0 62.0 74.0 L 62.0 74.0 z " fill-opacity="0.05" stroke-opacity="0.05"/>
<path d="M 62.0 73.0 C 57.39 73.0 53.5 69.418 53.044 64.893 L 36.252 57.31 C 34.73 58.403 32.889 59.0 31.0 59.0 C 26.037 59.0 22.0 54.963 22.0 50.0 C 22.0 45.037 26.037 41.0 31.0 41.0 C 32.889 41.0 34.73 41.597 36.252 42.69 L 53.044 35.107 C 53.5 30.582 57.39 27.0 62.0 27.0 C 66.963 27.0 71.0 31.037 71.0 36.0 C 71.0 40.962997 66.963 45.0 62.0 45.0 C 60.111 45.0 58.27 44.403 56.748 43.31 L 41.933 50.0 L 56.747997 56.69 C 58.27 55.597 60.111 55.0 62.0 55.0 C 66.963 55.0 71.0 59.037 71.0 64.0 C 71.0 68.963 66.963 73.0 62.0 73.0 L 62.0 73.0 z " fill-opacity="0.05" stroke-opacity="0.05"/>
<path d="M 62.0 72.0 C 57.665 72.0 54.125 68.534 54.002 64.229004 L 36.115 56.15 C 34.681 57.348 32.889 58.0 31.0 58.0 C 26.589 58.0 23.0 54.411 23.0 50.0 C 23.0 45.589 26.589 42.0 31.0 42.0 C 32.889 42.0 34.681 42.652 36.115 43.85 L 54.002 35.772 C 54.125 31.466 57.665 28.0 62.0 28.0 C 66.411 28.0 70.0 31.589 70.0 36.0 C 70.0 40.411 66.411 44.0 62.0 44.0 C 60.111 44.0 58.318 43.348 56.885 42.15 L 39.502 50.0 L 56.885 57.85 C 58.318 56.652 60.111 56.0 62.0 56.0 C 66.411 56.0 70.0 59.589 70.0 64.0 C 70.0 68.410995 66.411 72.0 62.0 72.0 L 62.0 72.0 z " fill-opacity="0.1" stroke-opacity="0.1"/>
<path d="M 62.0 57.0 C 60.077 57.0 58.336 57.776 57.071 59.031 L 37.979 50.408997 C 37.987 50.272 38.0 50.138 38.0 50.0 C 38.0 49.862 37.987 49.728 37.979 49.591 L 57.071 40.969 C 58.336 42.224 60.077 43.0 62.0 43.0 C 65.866 43.0 69.0 39.866 69.0 36.0 C 69.0 32.134 65.866 29.0 62.0 29.0 C 58.133 29.0 55.0 32.134 55.0 36.0 C 55.0 36.138 55.013 36.272 55.021 36.409 L 35.929 45.031 C 34.664 43.776 32.923 43.0 31.0 43.0 C 27.133 43.0 24.0 46.134 24.0 50.0 C 24.0 53.866 27.133 57.0 31.0 57.0 C 32.923 57.0 34.664 56.224 35.929 54.969 L 55.021 63.591003 C 55.013 63.728 55.0 63.862 55.0 64.0 C 55.0 67.866 58.133 71.0 62.0 71.0 C 65.866 71.0 69.0 67.866 69.0 64.0 C 69.0 60.134003 65.866 57.0 62.0 57.0 z " fill-opacity="0.1" stroke-opacity="0.1"/>
<linearGradient gradientUnits="userSpaceOnUse" x1="46.4995" x2="46.4995" y1="27" y2="69.0005">
<stop offset="0" stop-color="#fafcef"/>
<stop offset="0.3232" stop-color="#fafcef"/>
<stop offset="1" stop-color="#d0cbc5"/>
</linearGradient>
<path d="M 62.0 55.0 C 60.077 55.0 58.336 55.776 57.071 57.031 L 37.979 48.408997 C 37.987 48.272 38.0 48.138 38.0 48.0 C 38.0 47.862 37.987 47.728 37.979 47.591 L 57.071 38.969 C 58.336 40.224 60.077 41.0 62.0 41.0 C 65.866 41.0 69.0 37.866 69.0 34.0 C 69.0 30.134 65.866 27.0 62.0 27.0 C 58.133 27.0 55.0 30.134 55.0 34.0 C 55.0 34.138 55.013 34.272 55.021 34.409 L 35.929 43.031 C 34.664 41.776 32.923 41.0 31.0 41.0 C 27.133 41.0 24.0 44.134 24.0 48.0 C 24.0 51.866 27.133 55.0 31.0 55.0 C 32.923 55.0 34.664 54.224 35.929 52.969 L 55.021 61.591003 C 55.013 61.728 55.0 61.862 55.0 62.0 C 55.0 65.866 58.133 69.0 62.0 69.0 C 65.866 69.0 69.0 65.866 69.0 62.0 C 69.0 58.134003 65.866 55.0 62.0 55.0 z " fill="#ffffff" fill-opacity="1"/>
</svg>
