<?xml version="1.0" encoding="UTF-8"?>
<svg xmlns="http://www.w3.org/2000/svg" xmlns:xlink="http://www.w3.org/1999/xlink" baseProfile="tiny" contentScriptType="text/ecmascript" contentStyleType="text/css" height="30px" preserveAspectRatio="xMidYMid meet" version="1.1" viewBox="0 -0.031 30 30" width="30px" x="0px" y="0px" zoomAndPan="magnify">
<path d="M 27.485 21.126 L 18.485 16.126 C 18.335 16.042 18.167 16.0 18.0 16.0 C 17.824 16.0 17.649 16.046 17.493 16.138 C 17.188 16.317 17.0 16.646 17.0 17.0 L 17.0 27.0 C 17.0 27.354 17.188 27.683 17.493 27.862 C 17.649 27.954 17.824 28.0 18.0 28.0 C 18.167 28.0 18.335 27.958 18.485 27.874 L 27.485 22.874 C 27.803 22.698 28.0 22.363 28.0 22.0 C 28.0 21.637 27.803 21.302 27.485 21.126 z M 28.941 6.702 C 27.76 1.741 23.869 1.0 21.655 1.0 C 20.383001 1.0 19.435001 1.242 19.445 1.242 C 19.445 1.242 19.445 1.242 19.446 1.2409999 C 14.372 2.191 10.192999 6.049 8.889999 7.366 C 8.858 7.392 8.826 7.419 8.797 7.449 L 6.953 9.294 C 6.91 9.337 6.871 9.384 6.838 9.433 C 5.055 11.315 2.0699997 15.018999 1.2549996 19.377998 C 1.2179997 19.521997 0.35099965 22.939999 2.0429997 25.759998 C 3.0059998 27.363998 4.5719995 28.434998 6.7009997 28.941998 C 6.862 28.98 7.027 29.0 7.189 29.0 C 8.505 29.0 9.179 27.794 9.252 27.656 C 9.272 27.619 9.289 27.581 9.304 27.541 L 10.9 23.278 C 11.516999 22.032999 10.962999 21.028 10.528 20.612 L 8.749 18.621 C 8.686999 18.511 7.8809996 16.808 12.104 12.450001 C 12.104 12.450001 12.358 12.199 12.371 12.187 C 15.487 9.166 17.254 8.714001 18.029 8.714001 C 18.389 8.714001 18.546 8.816001 18.55 8.818001 C 18.557999 8.824 20.630999 10.542001 20.630999 10.542001 C 20.832998 10.746 21.353998 11.172001 22.163998 11.172001 C 22.534998 11.172001 22.909998 11.080001 23.276999 10.898001 L 27.537998 9.306001 C 27.578999 9.291 27.617998 9.274001 27.655998 9.253 C 28.28 8.923 29.255 8.013 28.941 6.702 z " fill-opacity="0.15"/>
<rect fill="none" height="30" width="30"/>
<path d="M 18.0 26.0 L 27.0 21.0 L 18.0 16.0 L 18.0 26.0 z M 27.969 5.934 C 26.421999 -0.5580001 19.630001 1.2249999 19.630001 1.2249999 C 14.766001 2.135 10.748001 5.893 9.512001 7.1619997 L 9.504 7.156 L 7.66 9.001 L 7.669 9.01 C 6.11 10.635 3.0350003 14.297001 2.223 18.631 C 2.223 18.631 0.444 25.424 6.933 26.969002 C 7.843 27.186 8.368 26.191002 8.368 26.191002 L 9.983 21.876001 C 10.497 20.894001 9.815 20.315 9.815 20.315 L 7.936 18.213001 C 8.12 18.372002 5.899 16.416 11.398 10.744001 L 11.398 10.742002 L 11.672 10.469002 L 11.674 10.470002 C 17.348 4.9690022 19.300999 7.1900024 19.143 7.010002 L 21.314 8.812002 C 21.314 8.812002 21.893 9.497003 22.873999 8.982002 L 27.188 7.371002 C 27.188 7.37 28.186 6.842 27.969 5.934 z " fill-opacity="0.3"/>
<path d="M 18.0 27.0 L 27.0 22.0 L 18.0 17.0 L 18.0 27.0 z M 27.969 6.934 C 26.421999 0.4419999 19.630001 2.225 19.630001 2.225 C 14.766001 3.135 10.748001 6.893 9.512001 8.162 L 9.504 8.156 L 7.66 10.001 L 7.6689997 10.01 C 6.1099997 11.635 3.0349998 15.297001 2.2229996 19.631 C 2.2229996 19.631 0.44399953 26.424 6.9329996 27.969002 C 7.8429995 28.186 8.368 27.191002 8.368 27.191002 L 9.983 22.876001 C 10.497 21.894001 9.815 21.315 9.815 21.315 L 7.936 19.213001 C 8.12 19.372002 5.899 17.416 11.398 11.744001 L 11.398 11.742002 L 11.672 11.469002 L 11.674 11.470002 C 17.348 5.9690022 19.300999 8.190002 19.143 8.010002 L 21.314 9.812002 C 21.314 9.812002 21.893 10.497003 22.873999 9.982002 L 27.188 8.371002 C 27.188 8.37 28.186 7.842 27.969 6.934 z " fill="#dedede"/>
</svg>
