<?xml version="1.0" encoding="UTF-8"?>
<svg xmlns="http://www.w3.org/2000/svg" xmlns:xlink="http://www.w3.org/1999/xlink" baseProfile="tiny" contentScriptType="text/ecmascript" contentStyleType="text/css" height="58px" preserveAspectRatio="xMidYMid meet" version="1.1" viewBox="0 0 84 58" width="84px" x="0px" y="0px" zoomAndPan="magnify">
<defs>
<linearGradient gradientTransform="matrix(1,0,0,-1,-272.0996,-337.4004)" gradientUnits="userSpaceOnUse" x1="304.0938" x2="304.0938" xlink:actuate="onLoad" xlink:show="other" xlink:type="simple" y1="-388.6123" y2="-343.1553">
<stop offset="0" stop-color="#d0cbc5"/>
<stop offset="0.5031" stop-color="#fafcef"/>
<stop offset="0.9693" stop-color="#ffffff"/>
<stop offset="1" stop-color="#ffffff"/>
</linearGradient>
<linearGradient gradientTransform="matrix(1,0,0,-1,-272.0996,-337.4004)" gradientUnits="userSpaceOnUse" x1="330.3721" x2="330.3721" xlink:actuate="onLoad" xlink:show="other" xlink:type="simple" y1="-389.6699" y2="-370.7363">
<stop offset="0" stop-color="#d0cbc5"/>
<stop offset="0.5031" stop-color="#fafcef"/>
<stop offset="0.9693" stop-color="#ffffff"/>
<stop offset="1" stop-color="#ffffff"/>
</linearGradient>
<linearGradient gradientTransform="matrix(1,0,0,-1,-272.0996,-337.4004)" gradientUnits="userSpaceOnUse" x1="330.3721" x2="330.3721" xlink:actuate="onLoad" xlink:show="other" xlink:type="simple" y1="-389.6699" y2="-370.7363">
<stop offset="0" stop-color="#d0cbc5"/>
<stop offset="0.5031" stop-color="#fafcef"/>
<stop offset="0.9693" stop-color="#ffffff"/>
<stop offset="1" stop-color="#ffffff"/>
</linearGradient>
</defs>
<rect fill="#ffffff" fill-opacity="0.70588235" fill-rule="nonzero" height="48" ry="8.2174387" stroke="none" width="48" x="18" y="5"/>
<rect fill="#040cff" fill-opacity="0.58823532" fill-rule="nonzero" height="48" ry="8.2174387" stroke="none" width="48" x="18" y="5"/>
<g transform="matrix(0.88343025,0,0,0.88343025,4.6430312,2.6500974)">
<path d="M 45.50344 40.205696 C 44.074352 39.18649 43.34605 37.44242 43.27384 37.17421 C 43.065456 36.342747 42.879772 35.469337 43.176872 35.18737 C 44.662357 33.90201 45.257236 30.836824 45.257236 30.836824 C 45.295757 30.715784 45.337708 30.607813 45.372776 30.491589 C 46.105892 31.39044 46.482075 29.288069 46.78055 28.32594 C 47.097588 27.303295 47.234444 26.63964 47.234444 26.63964 C 47.35961 25.608742 46.569416 25.91615 46.569416 25.91615 L 46.507515 25.97942 C 46.62168 24.53864 47.04325 23.659723 47.04325 22.363363 C 47.05015 20.36071 47.537727 19.631723 45.495186 16.561035 C 44.857662 15.615413 43.983578 15.454485 40.357197 14.283979 C 36.730137 13.116223 36.220535 14.600333 35.01633 14.455912 C 33.8135 14.315616 33.645695 14.800462 33.416683 15.229602 C 33.18492 15.658052 33.416683 16.001228 32.76197 16.025297 C 32.101753 16.059687 31.810156 16.561033 31.810156 16.561033 C 29.848768 19.69293 30.583256 20.630983 30.509668 22.632269 C 30.473907 23.698238 30.650652 24.488436 31.19877 25.951912 L 31.14719 25.875572 C 31.14719 25.875572 30.378317 25.51452 30.430584 26.555733 C 30.430584 26.555733 30.32605 26.876211 30.764818 28.264038 C 31.019964 29.065926 31.214588 31.290714 31.971085 30.582355 C 31.991724 30.667637 32.022663 30.74947 32.052925 30.838192 C 32.052925 30.838192 32.642303 33.904755 34.126415 35.18874 C 34.42419 35.47002 34.23989 36.34274 34.02463 37.168697 C 33.94279 37.48712 33.52328 39.657578 30.904428 40.701534 C 30.904428 40.701534 28.511831 41.625153 26.099983 43.031548 C 26.099983 43.031548 24.557417 43.805923 24.175043 45.096096 L 45.503445 45.096096 L 45.503445 40.20569 z " fill="#ffffff" fill-opacity="1"/>
<path d="M 59.074997 32.80028 L 48.495045 32.80028 C 47.76331 32.80028 47.171864 33.383472 47.171864 34.100765 L 47.171864 44.51704 C 47.171864 45.23984 47.76262 45.820965 48.495045 45.820965 L 59.075 45.820965 C 59.806744 45.820965 60.39749 45.23915 60.39749 44.51704 L 60.39749 34.10077 C 60.39749 33.383472 59.806736 32.800285 59.075 32.800285 z M 56.06071 36.963085 L 57.03934 36.963085 L 57.03934 43.365116 L 56.06071 43.365116 L 56.06071 36.96309 z M 54.1 39.402447 L 55.077946 39.402447 L 55.077946 43.365116 L 54.1 43.365116 L 54.1 39.402447 z M 52.13998 38.249138 L 53.11724 38.249138 L 53.11724 43.36443 L 52.13998 43.36443 L 52.13998 38.249138 z M 50.17997 42.381668 L 51.162724 42.381668 L 51.162724 43.365803 L 50.17996 43.365803 L 50.17996 42.38166 z M 58.93812 44.721283 L 48.100273 44.721283 L 48.100273 34.45081 L 48.83614 34.45081 L 48.83614 43.985416 L 58.93744 43.985416 L 58.93744 44.721283 z " fill="#ffffff" fill-opacity="1"/>
</g>
</svg>
