<?xml version="1.0" encoding="UTF-8"?>
<svg xmlns="http://www.w3.org/2000/svg" xmlns:xlink="http://www.w3.org/1999/xlink" baseProfile="tiny" contentScriptType="text/ecmascript" contentStyleType="text/css" height="30px" preserveAspectRatio="xMidYMid meet" version="1.1" viewBox="0 0 30 30" width="30px" x="0px" y="0px" zoomAndPan="magnify">
<path d="M 29.934 27.104 C 29.65 25.95 28.48 25.33 28.404 25.292 C 27.028 24.482 25.682 23.954 25.627998 23.933 C 25.505999 23.885 25.398998 23.829 25.338999 23.793001 C 24.832998 23.442001 24.519 22.77 24.481998 22.673 C 24.437998 22.495 24.411999 22.372 24.395998 22.285 C 24.944998 21.649 25.268997 20.765999 25.436998 20.184 C 25.967999 19.866 26.168 19.122 26.311998 18.588 C 26.338999 18.486 26.364998 18.392 26.389997 18.31 C 26.580997 17.685999 26.660997 17.279999 26.672997 17.206999 C 26.740997 16.654 26.563997 16.299 26.391996 16.092 C 26.399996 16.054998 26.408997 16.015999 26.415997 15.978999 C 26.490997 15.619999 26.576996 15.212999 26.576996 14.723 C 26.577995 14.551 26.585997 14.396999 26.592997 14.252 C 26.642996 13.283 26.594997 12.568 25.660997 11.1119995 C 25.875 10.796 26.0 10.412 26.0 10.0 L 26.0 9.0 L 26.0 8.0 L 27.0 8.0 L 28.0 8.0 C 29.104 8.0 30.0 7.103 30.0 6.0 C 30.0 4.897 29.104 4.0 28.0 4.0 L 27.0 4.0 L 26.0 4.0 L 26.0 3.0 L 26.0 2.0 C 26.0 0.89699996 25.104 0.0 24.0 0.0 C 22.896 0.0 22.0 0.897 22.0 2.0 L 22.0 3.0 L 22.0 4.0 L 21.0 4.0 L 20.0 4.0 C 19.922 4.0 19.847 4.015 19.771 4.023 C 19.689 3.4479997 19.456 2.8269997 18.831 1.8779998 C 18.355999 1.1579998 17.771 0.9699998 16.359999 0.51799977 L 15.663999 0.29299977 C 15.076999 0.101999775 14.565998 0.007999778 14.099998 0.007999778 C 13.478998 0.007999778 13.067999 0.17399977 12.795999 0.28399977 C 12.740998 0.30599976 12.6919985 0.32999977 12.730999 0.33999977 C 12.608999 0.32499978 12.500999 0.31899977 12.402999 0.31899977 C 11.399999 0.31899977 11.042999 0.99699974 10.911999 1.2509997 C 10.516998 1.3979996 10.238998 1.6759996 10.109999 1.9019997 C 9.239999 3.3109999 9.215999 4.1029997 9.275999 4.9919996 C 9.279999 5.0519996 9.278999 5.1219997 9.282999 5.1829996 C 8.855 5.073 8.457 5.0 8.1 5.0 C 7.479 5.0 7.066 5.166 6.795 5.276 C 6.74 5.298 6.691 5.322 6.729 5.333 C 6.607 5.318 6.498 5.312 6.4 5.312 C 5.3980002 5.312 5.0410004 5.99 4.91 6.244 C 4.516 6.391 4.237 6.668 4.107 6.895 C 3.238 8.304 3.2139997 9.096 3.274 9.985 C 3.2849998 10.158999 3.2979999 10.339999 3.293 10.546 C 3.277 11.016 3.328 11.410999 3.438 11.825999 C 3.3339999 12.001999 3.251 12.2439995 3.25 12.565 C 3.23 12.808 3.27 13.176 3.469 13.818999 C 3.493 13.894 3.514 14.0 3.537 14.114 C 3.6339998 14.567 3.777 15.241 4.229 15.58 C 4.3840003 16.141 4.685 16.978 5.205 17.58 C 5.18 17.708 5.1419997 17.857 5.123 17.937 C 4.993 18.462 4.6540003 18.839 4.1270003 19.052 C 4.0740004 19.073 2.8070002 19.573 1.5740004 20.306 C 1.3670003 20.41 0.3170004 20.987999 0.034000397 22.14 L 0.015000397 22.244 C -0.058999605 22.659 0.1340004 23.076 0.4990004 23.286999 C 1.2860004 23.741 2.2110004 24.107998 3.2470002 24.378998 C 5.377 24.936 6.947 25.0 7.943 25.0 C 8.184999 25.0 8.408999 24.996 8.571 24.991 C 8.777 24.996 9.0 25.0 9.242 25.0 C 10.238 25.0 11.808 24.936 13.938 24.379 C 14.903999 24.125 15.738999 23.796999 16.49 23.376 C 16.862 23.166 17.06 22.744 16.983 22.324 L 16.937 22.078 C 16.663 20.967 15.542 20.370998 15.474 20.338 C 15.273 20.219 15.074 20.109 14.878 20.004 C 14.998 20.006 15.110001 20.008999 15.241 20.008999 C 15.547 20.008999 15.925 19.995998 16.339 19.970999 C 16.393002 20.030998 16.439001 20.098 16.505001 20.144999 C 16.669 20.732998 16.995 21.651 17.556002 22.290998 C 17.536001 22.391998 17.505001 22.527998 17.462002 22.703999 C 17.317001 23.283998 16.944002 23.697998 16.360003 23.932999 C 16.303003 23.954998 14.957003 24.484 13.642002 25.262 C 13.509002 25.328 12.3340025 25.949 12.034002 27.169998 L 12.014002 27.279999 C 11.9400015 27.695 12.135002 28.110998 12.500002 28.321999 C 13.334002 28.800999 14.314002 29.189 15.414001 29.473999 C 16.695 29.809 18.767 30.0 21.1 30.0 C 23.432001 30.0 25.502 29.809 26.784 29.475 C 27.811 29.206001 28.696001 28.86 29.489 28.415 C 29.863 28.206001 30.061 27.781 29.984001 27.361 L 29.934 27.104 z M 20.572 9.0 C 20.124 9.0 19.785 9.083 19.521 9.173 C 19.526 9.152 19.534 9.127001 19.539999 9.106 C 19.564999 9.011 19.588999 8.922 19.612 8.845 C 19.732 8.454 19.802 8.1640005 19.841 7.985 C 19.895 7.988 19.945 8.0 20.0 8.0 L 21.0 8.0 L 22.0 8.0 L 22.0 9.0 L 22.0 9.243 C 21.476 9.09 21.0 9.0 20.572 9.0 z " fill-opacity="0.15"/>
<rect fill="none" height="30" width="30"/>
<path d="M 20.0 6.0 L 23.0 6.0 L 23.0 9.0 C 23.0 9.552 23.447 10.0 24.0 10.0 C 24.553 10.0 25.0 9.552 25.0 9.0 L 25.0 6.0 L 28.0 6.0 C 28.553 6.0 29.0 5.552 29.0 5.0 C 29.0 4.448 28.553 4.0 28.0 4.0 L 25.0 4.0 L 25.0 1.0 C 25.0 0.448 24.553 0.0 24.0 0.0 C 23.447 0.0 23.0 0.448 23.0 1.0 L 23.0 4.0 L 20.0 4.0 C 19.447 4.0 19.0 4.448 19.0 5.0 C 19.0 5.552 19.447 6.0 20.0 6.0 z M 10.359 4.51 C 11.771 4.9630003 12.3550005 5.15 12.83 5.8700004 C 13.812 7.3600006 13.853 8.049 13.805 9.0060005 C 13.799001 9.141001 13.791 9.285001 13.79 9.446 C 13.79 9.912 13.709 10.298 13.638 10.6380005 C 13.632999 10.665001 13.627 10.692 13.620999 10.719001 C 13.782999 10.926001 13.942999 11.269001 13.879 11.790001 C 13.867 11.861001 13.792999 12.247001 13.6119995 12.836 C 13.589 12.913 13.563999 13.003 13.539 13.097 C 13.403999 13.603 13.214999 14.305 12.714999 14.621 C 12.555999 15.175 12.256999 15.979 11.749 16.577 C 11.764 16.654999 11.787 16.763 11.823 16.91 C 11.855 16.993 12.146 17.612 12.604 17.931 C 12.618 17.939 12.642 17.951 12.662 17.962 C 13.434 18.02 14.073999 18.013 14.592999 18.001 C 14.903 18.008999 15.259 18.012999 15.655999 18.004 C 15.625999 17.881 15.598 17.761 15.575999 17.654999 C 15.542999 17.498999 15.525999 17.414999 15.506999 17.353998 C 15.314999 16.736998 15.238999 16.294998 15.267999 15.962998 C 15.267999 15.675999 15.331999 15.406999 15.457998 15.173999 C 15.341998 14.716999 15.295999 14.298999 15.311998 13.827999 C 15.319999 13.624999 15.306998 13.447 15.294998 13.275 C 15.227998 12.275 15.253998 11.41 16.203 9.877999 C 16.338999 9.639999 16.64 9.325999 17.075998 9.15 C 17.239998 8.842999 17.609999 8.257999 18.487999 8.153 C 18.550999 7.9389997 18.605 7.7149997 18.655998 7.552 C 18.748999 7.249 18.807999 7.016 18.843998 6.864 C 18.22 6.475 17.8 5.788 17.8 5.0 C 17.8 4.234 18.196 3.56 18.790998 3.165 C 18.727 2.736 18.529 2.2389998 17.994999 1.429 C 17.668999 0.934 17.22 0.85300004 15.351999 0.24400008 C 13.490999 -0.3639999 13.224999 0.40700006 12.605999 0.33400008 C 11.989999 0.25800008 11.903999 0.5120001 11.784999 0.73600006 C 11.663999 0.95800006 11.784999 1.136 11.446999 1.151 C 11.107999 1.168 10.958999 1.429 10.958999 1.429 C 9.987999 3.0019999 10.298999 3.5159998 10.290998 4.488 L 10.359 4.51 z M 27.896 25.155 C 26.574 24.377 25.261 23.864 25.261 23.864 C 25.076 23.792 24.914999 23.708 24.769 23.616001 C 23.962 23.057001 23.549 22.063002 23.508999 21.913002 C 23.395998 21.455002 23.294998 20.971003 23.456 20.815002 C 24.272 20.103003 24.597 18.408003 24.597 18.408003 C 24.618 18.342003 24.638 18.279003 24.661 18.220003 C 25.060999 18.715004 25.265999 17.551003 25.432 17.018003 C 25.605 16.455004 25.678 16.086004 25.678 16.086004 C 25.748 15.515004 25.317 15.683004 25.317 15.683004 L 25.283998 15.7210045 C 25.346998 14.925005 25.574999 14.4380045 25.574999 13.7210045 C 25.578999 12.717005 25.790998 12.281004 24.998999 10.949004 C 24.697998 11.105004 24.359999 11.201004 23.998999 11.201004 C 22.863998 11.201004 21.936998 10.333004 21.821 9.228004 C 19.921999 8.638004 19.629 9.423004 18.979 9.3460045 C 18.321 9.265004 18.23 9.536004 18.102 9.774005 C 17.973 10.010005 18.102 10.200005 17.743 10.215005 C 17.382 10.233005 17.222 10.510005 17.222 10.510005 C 16.15 12.241005 16.547 12.761005 16.511 13.868005 C 16.491 14.457005 16.585 14.895004 16.89 15.707005 L 16.856998 15.662004 C 16.856998 15.662004 16.436998 15.463004 16.467999 16.037004 C 16.467999 16.037004 16.408998 16.217005 16.647999 16.986004 C 16.790998 17.427004 16.9 18.658005 17.308998 18.267004 C 17.321999 18.313004 17.340998 18.361004 17.355999 18.408005 C 17.355999 18.408005 17.676998 20.103004 18.494 20.815004 C 18.66 20.970005 18.555 21.455004 18.441 21.913004 C 18.394 22.088003 18.162 23.285004 16.723999 23.864004 C 16.723999 23.864004 15.410999 24.377005 14.091999 25.155005 C 14.091999 25.155005 13.202999 25.601004 13.018999 26.343004 L 13.0 26.455 C 13.751 26.887 14.637 27.239 15.668 27.508 C 18.188 28.164 24.01 28.164 26.53 27.508 C 27.485 27.258 28.299 26.935999 29.0 26.543 L 28.963 26.344 C 28.78 25.602 27.896 25.155 27.896 25.155 z M 16.0 21.504 L 15.966 21.317 C 15.794 20.619 14.964999 20.199 14.964999 20.199 C 13.725999 19.467 12.494999 18.984 12.494999 18.984 C 12.321999 18.915998 12.170999 18.837 12.0339985 18.751 C 11.2769985 18.226 10.889998 17.289999 10.851998 17.147999 C 10.745998 16.716 10.6519985 16.261 10.802999 16.116 C 11.567999 15.445999 11.871999 13.850999 11.871999 13.850999 C 11.891999 13.787999 11.909999 13.729999 11.932999 13.673999 C 12.307999 14.139998 12.499999 13.044999 12.655998 12.542999 C 12.817998 12.013 12.885998 11.666999 12.885998 11.666999 C 12.951998 11.128999 12.547997 11.286999 12.547997 11.286999 L 12.516997 11.321999 C 12.575997 10.572999 12.788998 10.114999 12.788998 9.440998 C 12.793998 8.397998 13.046998 8.016998 11.993998 6.419998 C 11.667997 5.9249983 11.218998 5.843998 9.350998 5.234998 C 7.489998 4.6269984 7.223998 5.3979983 6.6049976 5.3249984 C 5.99 5.249 5.904 5.503 5.785 5.728 C 5.664 5.9500003 5.785 6.1280003 5.447 6.143 C 5.108 6.159 4.959 6.42 4.959 6.42 C 3.953 8.049 4.326 8.539 4.292 9.58 C 4.273 10.134 4.362 10.546 4.647 11.309 L 4.6159997 11.267 C 4.6159997 11.267 4.2219996 11.08 4.252 11.621 C 4.252 11.621 4.197 11.79 4.421 12.5130005 C 4.555 12.929001 4.656 14.086 5.04 13.72 C 5.053 13.7630005 5.07 13.808001 5.084 13.852 C 5.084 13.852 5.385 15.4470005 6.151 16.117 C 6.306 16.263 6.2070003 16.718 6.101 17.149 C 6.0569997 17.314001 5.838 18.44 4.4919996 18.985 C 4.4919996 18.985 3.2619996 19.467001 2.0239997 20.2 C 2.0239997 20.2 1.1909997 20.62 1.0179996 21.318 L 1.0 21.421 C 1.704 21.827 2.534 22.159 3.501 22.411999 C 5.863 23.029 7.491 23.015999 8.593 22.991999 C 9.696 23.015 11.3220005 23.029 13.685 22.411999 C 14.58 22.177 15.343 21.873 16.0 21.504 z " fill-opacity="0.3"/>
<path d="M 20.0 7.0 L 23.0 7.0 L 23.0 10.0 C 23.0 10.552 23.447 11.0 24.0 11.0 C 24.553 11.0 25.0 10.552 25.0 10.0 L 25.0 7.0 L 28.0 7.0 C 28.553 7.0 29.0 6.552 29.0 6.0 C 29.0 5.448 28.553 5.0 28.0 5.0 L 25.0 5.0 L 25.0 2.0 C 25.0 1.448 24.553 1.0 24.0 1.0 C 23.447 1.0 23.0 1.448 23.0 2.0 L 23.0 5.0 L 20.0 5.0 C 19.447 5.0 19.0 5.448 19.0 6.0 C 19.0 6.552 19.447 7.0 20.0 7.0 z M 10.359 5.51 C 11.771 5.9630003 12.3550005 6.15 12.83 6.8700004 C 13.812 8.360001 13.853 9.049 13.805 10.0060005 C 13.799001 10.141001 13.791 10.285001 13.79 10.446 C 13.79 10.912 13.709 11.298 13.638 11.6380005 C 13.632999 11.665001 13.627 11.692 13.620999 11.719001 C 13.782999 11.926001 13.942999 12.269001 13.879 12.790001 C 13.867 12.861001 13.792999 13.247001 13.6119995 13.836 C 13.589 13.913 13.563999 14.003 13.539 14.097 C 13.403999 14.603 13.214999 15.305 12.714999 15.621 C 12.555999 16.174 12.256999 16.979 11.749 17.577 C 11.764 17.654999 11.787 17.763 11.823 17.91 C 11.855 17.993 12.146 18.612 12.604 18.931 C 12.618 18.939 12.642 18.951 12.662 18.962 C 13.434 19.02 14.073999 19.013 14.592999 19.001 C 14.903 19.008999 15.259 19.012999 15.655999 19.004 C 15.625999 18.881 15.598 18.761 15.575999 18.654999 C 15.542999 18.498999 15.525999 18.414999 15.506999 18.353998 C 15.314999 17.736998 15.238999 17.294998 15.267999 16.962997 C 15.267999 16.675997 15.331999 16.405998 15.457998 16.173998 C 15.341998 15.716998 15.295999 15.297997 15.311998 14.827998 C 15.319999 14.624998 15.306998 14.446999 15.294998 14.274998 C 15.227998 13.274998 15.253998 12.409998 16.203 10.877997 C 16.338999 10.6399975 16.64 10.325997 17.075998 10.149998 C 17.239998 9.842998 17.609999 9.2579975 18.487999 9.152998 C 18.550999 8.938998 18.605 8.714998 18.655998 8.551998 C 18.748999 8.248998 18.807999 8.015998 18.843998 7.863998 C 18.22 7.475 17.8 6.788 17.8 6.0 C 17.8 5.234 18.196 4.56 18.790998 4.165 C 18.727 3.736 18.529 3.2389998 17.994999 2.429 C 17.668999 1.9339999 17.22 1.8529999 15.351999 1.244 C 13.490999 0.636 13.224999 1.407 12.605999 1.334 C 11.989999 1.258 11.903999 1.512 11.784999 1.7360001 C 11.663999 1.9580001 11.784999 2.1360002 11.446999 2.151 C 11.107999 2.168 10.958999 2.429 10.958999 2.429 C 9.987999 4.002 10.298999 4.516 10.290998 5.488 L 10.359 5.51 z M 27.896 26.155 C 26.574 25.377 25.261 24.864 25.261 24.864 C 25.076 24.792 24.914999 24.708 24.769 24.616001 C 23.962 24.057001 23.549 23.063002 23.508999 22.913002 C 23.395998 22.455002 23.294998 21.971003 23.456 21.815002 C 24.272 21.103003 24.597 19.408003 24.597 19.408003 C 24.618 19.342003 24.638 19.279003 24.661 19.220003 C 25.060999 19.715004 25.265999 18.551003 25.432 18.018003 C 25.605 17.455004 25.678 17.086004 25.678 17.086004 C 25.748 16.515005 25.317 16.683004 25.317 16.683004 L 25.283998 16.721004 C 25.346998 15.924005 25.574999 15.4380045 25.574999 14.7210045 C 25.578999 13.717005 25.790998 13.281004 24.998999 11.949004 C 24.697998 12.105004 24.359999 12.201004 23.998999 12.201004 C 22.863998 12.201004 21.936998 11.333004 21.821 10.228004 C 19.921999 9.638004 19.629 10.423004 18.979 10.3460045 C 18.321 10.265004 18.23 10.536004 18.102 10.774005 C 17.973 11.010005 18.102 11.200005 17.743 11.215005 C 17.382 11.233005 17.222 11.510005 17.222 11.510005 C 16.15 13.241005 16.547 13.761005 16.511 14.868005 C 16.491 15.457005 16.585 15.895004 16.89 16.707005 L 16.856998 16.662004 C 16.856998 16.662004 16.436998 16.463005 16.467999 17.037004 C 16.467999 17.037004 16.408998 17.217005 16.647999 17.986004 C 16.790998 18.427004 16.9 19.658005 17.308998 19.267004 C 17.321999 19.313004 17.340998 19.361004 17.355999 19.408005 C 17.355999 19.408005 17.676998 21.103004 18.494 21.815004 C 18.66 21.970005 18.555 22.455004 18.441 22.913004 C 18.394 23.088003 18.162 24.285004 16.723999 24.864004 C 16.723999 24.864004 15.410999 25.377005 14.091999 26.155005 C 14.091999 26.155005 13.202999 26.601004 13.018999 27.343004 L 13.0 27.455 C 13.751 27.887 14.637 28.239 15.668 28.508 C 18.188 29.164 24.01 29.164 26.53 28.508 C 27.485 28.258 28.299 27.935999 29.0 27.543 L 28.963 27.344 C 28.78 26.602 27.896 26.155 27.896 26.155 z M 16.0 22.504 L 15.966 22.317 C 15.794 21.619 14.964999 21.199 14.964999 21.199 C 13.725999 20.467 12.494999 19.984 12.494999 19.984 C 12.321999 19.915998 12.170999 19.837 12.0339985 19.751 C 11.2769985 19.226 10.889998 18.289999 10.851998 18.147999 C 10.745998 17.716 10.6519985 17.261 10.802999 17.116 C 11.567999 16.446 11.871999 14.850999 11.871999 14.850999 C 11.891999 14.787999 11.909999 14.729999 11.932999 14.673999 C 12.307999 15.139998 12.499999 14.044999 12.655998 13.542999 C 12.817998 13.013 12.885998 12.666999 12.885998 12.666999 C 12.951998 12.128999 12.547997 12.286999 12.547997 12.286999 L 12.516997 12.321999 C 12.575997 11.572999 12.788998 11.114999 12.788998 10.440998 C 12.793998 9.397998 13.046998 9.016998 11.993998 7.419998 C 11.667997 6.9249983 11.218998 6.843998 9.350998 6.234998 C 7.489998 5.6269984 7.223998 6.3979983 6.6049976 6.3249984 C 5.99 6.249 5.904 6.503 5.785 6.728 C 5.664 6.9500003 5.785 7.1280003 5.447 7.143 C 5.108 7.159 4.959 7.42 4.959 7.42 C 3.953 9.049 4.326 9.538 4.2920003 10.58 C 4.2730002 11.134 4.3620005 11.546 4.6470003 12.309 L 4.616 12.267 C 4.616 12.267 4.222 12.08 4.2520003 12.621 C 4.2520003 12.621 4.1970005 12.79 4.4210005 13.5130005 C 4.5550003 13.929001 4.6560006 15.086 5.0400004 14.72 C 5.0530005 14.7630005 5.0700006 14.808001 5.0840006 14.852 C 5.0840006 14.852 5.3850007 16.447 6.1510005 17.117 C 6.3060007 17.263 6.2070007 17.718 6.1010003 18.149 C 6.057 18.314001 5.8380003 19.44 4.4920006 19.985 C 4.4920006 19.985 3.2620006 20.467001 2.0240006 21.2 C 2.0240006 21.2 1.1910007 21.62 1.0180006 22.318 L 1.0 22.421 C 1.704 22.827 2.534 23.159 3.501 23.411999 C 5.863 24.029 7.491 24.015999 8.593 23.991999 C 9.696 24.015 11.3220005 24.029 13.685 23.411999 C 14.58 23.177 15.343 22.873 16.0 22.504 z " fill="#dedede"/>
</svg>
