<?xml version="1.0" encoding="UTF-8"?>
<svg xmlns="http://www.w3.org/2000/svg" xmlns:xlink="http://www.w3.org/1999/xlink" baseProfile="tiny" contentScriptType="text/ecmascript" contentStyleType="text/css" height="57px" preserveAspectRatio="xMidYMid meet" version="1.1" viewBox="0 0 67 57" width="67px" x="0px" y="0px" zoomAndPan="magnify">
<rect fill="#ffffff" fill-opacity="0.70588235" fill-rule="nonzero" height="48" ry="8.2174387" stroke="none" width="48" x="9.5000134" y="5.5000019"/>
<rect color="#000000" display="inline" fill="#0500a7" fill-opacity="0.58823528999999997" fill-rule="nonzero" height="48" ry="8.2174387" stroke="none" visibility="visible" width="48" x="9.5" y="5.5"/>
<path d="M 34.634266 31.77484 L 31.993814 31.77484 L 31.993814 21.5101 L 42.24708 21.5101 L 42.24708 27.05306 C 42.36301 27.038568 42.416748 27.015018 42.443314 26.982409 C 42.486183 26.928068 42.527843 26.87191 42.569504 26.81636 C 42.82431 26.474005 43.283207 25.867174 44.06695 25.759695 L 44.06695 18.491056 C 44.06695 17.826868 43.523525 17.283442 42.859337 17.283442 L 18.707617 17.283442 C 18.043428 17.283442 17.5 17.826868 17.5 18.491056 L 17.5 34.793877 C 17.5 35.45806 18.043428 36.001495 18.707617 36.001495 L 32.766083 36.001495 C 32.70148 35.811893 32.659813 35.604794 32.652565 35.373535 L 32.635666 34.924904 C 32.633865 34.881435 32.633865 34.836754 32.632065 34.79328 L 31.387615 34.79328 L 31.387615 32.981853 L 32.793278 32.981853 C 33.163414 32.10935 34.017197 31.91432 34.485752 31.812883 C 34.5413 31.801413 34.589607 31.789944 34.634293 31.774843 z M 25.349552 18.490463 L 27.160976 18.490463 L 27.160976 20.301886 L 25.349552 20.301886 L 25.349552 18.490463 z M 22.330511 18.490463 L 24.141935 18.490463 L 24.141935 20.301886 L 22.330511 20.301886 L 22.330511 18.490463 z M 19.31147 18.490463 L 21.122894 18.490463 L 21.122894 20.301886 L 19.31147 20.301886 L 19.31147 18.490463 z M 19.31147 21.510109 L 29.597944 21.510109 L 29.597944 31.774843 L 19.31147 31.774843 L 19.31147 21.510109 z M 21.122894 34.79328 L 19.31147 34.79328 L 19.31147 32.981857 L 21.122894 32.981857 L 21.122894 34.79328 z M 24.141935 34.79328 L 22.330511 34.79328 L 22.330511 32.981857 L 24.141935 32.981857 L 24.141935 34.79328 z M 27.160976 34.79328 L 25.349552 34.79328 L 25.349552 32.981857 L 27.160976 32.981857 L 27.160976 34.79328 z M 30.180016 34.79328 L 28.368591 34.79328 L 28.368591 32.981857 L 30.180016 32.981857 L 30.180016 34.79328 z M 30.180016 20.301886 L 28.368591 20.301886 L 28.368591 18.490463 L 30.180016 18.490463 L 30.180016 20.301886 z M 40.444756 18.490463 L 42.256176 18.490463 L 42.256176 20.301886 L 40.444756 20.301886 L 40.444756 18.490463 z M 37.425716 18.490463 L 39.23714 18.490463 L 39.23714 20.301886 L 37.425716 20.301886 L 37.425716 18.490463 z M 34.406673 18.490463 L 36.218098 18.490463 L 36.218098 20.301886 L 34.406673 20.301886 L 34.406673 18.490463 z M 31.387634 18.490463 L 33.19906 18.490463 L 33.19906 20.301886 L 31.387636 20.301886 L 31.387636 18.490463 z M 49.492214 34.67071 C 49.479534 34.248047 49.467457 33.825382 49.453568 33.40211 C 49.42579 32.59723 48.88176 32.625008 48.21274 32.522964 C 47.430206 32.403408 47.151245 31.739824 46.77689 31.133602 C 46.31135 30.379446 45.975636 29.852324 46.25157 28.98163 C 46.45385 28.34401 46.504566 28.062029 45.88687 27.70156 C 45.48836 27.469091 45.071735 27.261986 44.66416 27.04582 C 44.025932 26.707085 43.74456 27.289156 43.386497 27.73658 C 42.81892 28.446655 41.95789 28.22989 41.159653 28.293287 C 40.482788 28.346416 39.91098 28.295689 39.439407 27.777033 C 38.95938 27.2487 38.73476 26.948006 38.048832 27.342293 C 37.682926 27.55302 37.330303 27.78851 36.971035 28.010103 C 36.285107 28.434582 36.581573 28.893476 36.827934 29.523249 C 37.164856 30.384275 36.5218 30.997747 36.184277 31.72956 C 35.85701 32.438435 35.492306 32.83091 34.742386 32.993332 C 34.087856 33.135223 33.819763 33.233646 33.81795 33.948555 C 33.81675 34.411068 33.84632 34.87419 33.86022 35.336708 C 33.87955 35.96769 34.326363 35.97916 34.837788 36.05645 C 35.309967 36.1277 35.7435 36.29616 36.086464 36.67173 C 36.452976 37.535774 37.29106 38.195744 37.17513 39.18961 C 37.13286 39.5525 36.893753 39.902107 36.859943 40.27284 C 36.81163 40.79212 38.355576 41.546276 38.799377 41.655563 C 39.338573 41.94177 39.653763 41.144142 39.949627 40.84948 C 40.51781 40.283108 41.093845 40.368248 41.84498 40.344093 C 42.558075 40.32115 43.209583 40.17141 43.767506 40.729927 C 44.07907 41.003452 44.449203 41.783573 44.965454 41.461136 C 45.403217 41.32407 46.89704 40.477528 46.815525 39.95947 C 46.757557 39.588737 46.494904 39.25543 46.42909 38.889523 C 46.348778 38.43727 46.41098 38.033928 46.668194 37.65594 C 46.97493 37.2055 47.11018 36.548557 47.48756 36.172382 C 48.13061 35.531742 49.620815 35.78595 49.4922 34.67071 z M 41.635433 38.71563 C 39.250393 38.71563 37.25722 36.724262 37.25722 34.338627 C 37.25722 31.952374 39.249187 29.95981 41.635433 29.95981 C 44.021683 29.95981 46.013645 31.952375 46.013645 34.338627 C 46.013645 36.723667 44.020473 38.71563 41.635433 38.71563 z " fill="#ffffff" fill-opacity="1" stroke-opacity="0.3"/>
<defs>
<linearGradient gradientUnits="userSpaceOnUse" x1="37.498" x2="37.498" xlink:actuate="onLoad" xlink:show="other" xlink:type="simple" y1="53.4639" y2="13.0005">
<stop offset="0" stop-color="#d0cbc5"/>
<stop offset="0.5031" stop-color="#fafcef"/>
<stop offset="0.9693" stop-color="#ffffff"/>
<stop offset="1" stop-color="#ffffff"/>
</linearGradient>
</defs>
</svg>
