<?xml version="1.0" encoding="UTF-8"?>
<svg xmlns="http://www.w3.org/2000/svg" xmlns:xlink="http://www.w3.org/1999/xlink" baseProfile="tiny" contentScriptType="text/ecmascript" contentStyleType="text/css" height="57px" preserveAspectRatio="xMidYMid meet" version="1.1" viewBox="0 0 67 57" width="67px" x="0px" y="0px" zoomAndPan="magnify">
<rect fill="#ffffff" fill-opacity="0.70588235" fill-rule="nonzero" height="48" ry="8.2174387" stroke="none" width="48" x="9.5" y="4.4996672"/>
<rect color="#000000" display="inline" fill="#01a0f3" fill-opacity="0.58823528999999997" fill-rule="nonzero" height="48" ry="8.2174387" stroke="none" visibility="visible" width="48" x="9.5" y="4.5"/>
<rect fill="none" height="57" width="67"/>
<path d="M 33.43592 33.020863 L 33.43592 23.968462 L 31.656542 23.968462 L 29.470695 28.246044 L 27.280848 23.968462 L 25.490791 23.968462 L 25.490791 33.020195 L 27.530468 33.020195 L 27.530468 27.0153 L 29.096935 30.07481 L 29.84246 30.07481 L 31.41093 27.0153 L 31.41093 33.020195 L 33.435925 33.020195 z M 32.498848 15.60285 L 32.498848 12.486602 C 27.647274 12.588718 24.171282 13.461723 21.791882 15.3692465 L 24.144585 17.722618 C 26.012066 16.32301 28.718508 15.694288 32.498848 15.602849 z M 34.50115 12.486601 L 34.50115 15.602849 C 43.482136 15.819098 46.40416 19.067495 46.40416 28.49366 C 46.40416 38.262215 43.26856 41.397152 33.499996 41.397152 C 23.731436 41.397152 20.595833 38.262222 20.595833 28.49366 C 20.595833 24.183374 21.20787 21.165909 22.728952 19.138245 L 20.37625 16.786207 C 18.338575 19.327126 17.48159 23.116812 17.48159 28.494995 C 17.48159 40.36063 21.63236 44.512733 33.5 44.512733 C 45.368305 44.512733 49.51841 40.36063 49.51841 28.494995 C 49.51841 16.969086 45.60191 12.722872 34.501156 12.487936 z M 41.321667 26.15831 C 41.321667 25.188534 40.92588 24.59251 40.267124 24.268806 C 39.831947 24.05723 39.270634 23.96913 38.400303 23.96913 L 35.231327 23.96913 L 35.231327 33.020863 L 38.400303 33.020863 C 40.21572 33.020863 41.509212 32.339413 41.509212 30.47327 C 41.509212 29.2799 41.01064 28.533709 39.743183 28.246712 C 40.77504 27.898975 41.321663 27.178818 41.321663 26.15831 z M 37.281013 25.13914 L 38.026535 25.13914 C 38.48707 25.13914 38.710663 25.21456 38.898876 25.350718 C 39.160515 25.548946 39.270634 25.89668 39.270634 26.36922 C 39.270634 26.891825 39.16051 27.252234 38.910892 27.476492 C 38.69931 27.66204 38.400303 27.749475 37.853672 27.749475 L 37.281685 27.749475 L 37.281685 25.13914 z M 38.9496 31.629936 C 38.73802 31.77877 38.439014 31.854193 37.904404 31.854193 L 37.282356 31.854193 L 37.282356 28.894123 L 37.88038 28.894123 C 38.41433 28.894123 38.675293 28.968876 38.89955 29.118383 C 39.24728 29.34264 39.4088 29.75111 39.4088 30.373158 C 39.40947 30.945814 39.298676 31.380316 38.949608 31.629934 z " fill="#ffffff" fill-opacity="1" stroke-opacity="0.3"/>
<defs>
<linearGradient gradientUnits="userSpaceOnUse" x1="33.5005" x2="33.5005" xlink:actuate="onLoad" xlink:show="other" xlink:type="simple" y1="52.4824" y2="4.5005">
<stop offset="0" stop-color="#cfcac4"/>
<stop offset="0.5031" stop-color="#f9fbee"/>
<stop offset="0.9693" stop-color="#ffffff"/>
<stop offset="1" stop-color="#ffffff"/>
</linearGradient>
</defs>
<rect color="#000000" display="inline" fill="#ffffff" fill-opacity="0" fill-rule="nonzero" height="33" ry="0" stroke="none" visibility="visible" width="33" x="17" y="12"/>
</svg>
