<?xml version="1.0" encoding="UTF-8"?>
<svg xmlns="http://www.w3.org/2000/svg" xmlns:xlink="http://www.w3.org/1999/xlink" baseProfile="tiny" contentScriptType="text/ecmascript" contentStyleType="text/css" height="30px" preserveAspectRatio="xMidYMid meet" version="1.1" viewBox="0 0 30 30" width="30px" x="0px" y="0px" zoomAndPan="magnify">
<rect fill="none" height="30" width="30"/>
<path d="M 21.583967 22.649456 L 21.583967 25.0 L 8.418206 25.0 C 8.400096 24.411228 8.495196 23.845108 8.703531 23.30163 C 9.038676 22.404892 9.575359 21.52174 10.313588 20.652174 C 11.051808 19.782614 12.118384 18.777178 13.513317 17.63587 C 15.678164 15.860518 17.141024 14.4542675 17.901903 13.417118 C 18.662764 12.379995 19.0432 11.399469 19.043213 10.475542 C 19.043198 9.506355 18.696732 8.688874 18.003807 8.023097 C 17.310863 7.357353 16.40733 7.024475 15.293211 7.024456 C 14.115667 7.024475 13.173641 7.377733 12.467123 8.084238 C 11.760598 8.790777 11.402808 9.769037 11.393753 11.019021 L 8.880163 10.760868 C 9.052262 8.885885 9.699907 7.456991 10.823098 6.474185 C 11.946281 5.491415 13.454433 5.00002 15.347557 5.0 C 17.25878 5.000019 18.771458 5.529911 19.8856 6.589674 C 20.999718 7.649473 21.556784 8.962877 21.556795 10.529891 C 21.556784 11.327006 21.393742 12.11052 21.067669 12.880434 C 20.741568 13.650376 20.200356 14.461063 19.444029 15.312501 C 18.687674 16.16396 17.430883 17.332436 15.673647 18.817936 C 14.206245 20.049826 13.264219 20.885424 12.847559 21.32473 C 12.430885 21.764046 12.086683 22.205622 11.814949 22.649458 z " fill="#dedede" fill-opacity="1" font-family="Sans" font-size="40px" font-style="normal" font-weight="normal" stroke="none"/>
</svg>
