<?xml version="1.0" encoding="UTF-8"?>
<svg xmlns="http://www.w3.org/2000/svg" xmlns:xlink="http://www.w3.org/1999/xlink" baseProfile="tiny" contentScriptType="text/ecmascript" contentStyleType="text/css" height="57px" preserveAspectRatio="xMidYMid meet" version="1.1" viewBox="0 0 67 57" width="67px" x="0px" y="0px" zoomAndPan="magnify">
<rect fill="#ffffff" fill-opacity="0.70588235" fill-rule="nonzero" height="48" ry="8.2174387" stroke="none" width="48" x="9.5" y="4.5"/>
<rect color="#000000" display="inline" fill="#30f0ff" fill-opacity="0.58823528999999997" fill-rule="nonzero" height="48" ry="8.2174387" stroke="none" visibility="visible" width="48" x="9.5" y="4.5"/>
<path color="#000000" d="M 32.21875 17.90625 C 26.824669 18.383472 22.7528 22.723476 22.75 28.0 C 22.751392 30.742952 23.857613 33.297356 25.875 35.21875 L 26.40625 35.75 L 25.09375 37.03125 L 31.65625 38.625 L 30.0 32.25 L 28.71875 33.5 L 28.21875 33.03125 C 26.213186 31.157158 25.490187 28.416971 26.34375 25.84375 C 27.21888 23.207924 29.484032 21.369284 32.28125 21.0625 C 32.557423 21.036762 32.71324 20.889458 32.6875 20.5625 L 32.6875 18.28125 C 32.6875 17.840908 32.22015 17.90625 32.21875 17.90625 z M 35.375 18.1875 L 37.03125 24.5625 L 38.3125 23.3125 L 38.8125 23.78125 C 40.82015 25.655334 41.54176 28.395533 40.6875 30.96875 C 39.813065 33.604576 37.547215 35.44321 34.75 35.75 C 34.473824 35.77573 34.31731 35.922344 34.34375 36.25 L 34.34375 38.53125 C 34.34375 38.9716 34.843056 38.90625 34.84375 38.90625 C 40.23784 38.426945 44.27845 34.08902 44.28125 28.8125 C 44.279858 26.068844 43.17573 23.515137 41.15625 21.59375 L 40.625 21.0625 L 41.9375 19.78125 L 35.375 18.1875 z " display="inline" fill="#ffffff" fill-opacity="1" fill-rule="nonzero" stroke="none" stroke-width="1" visibility="visible"/>
<defs>
<linearGradient gradientUnits="userSpaceOnUse" x1="33.5005" x2="33.5005" xlink:actuate="onLoad" xlink:show="other" xlink:type="simple" y1="51.4995" y2="5.5005">
<stop offset="0" stop-color="#d0cbc5"/>
<stop offset="0.5031" stop-color="#fafcef"/>
<stop offset="0.9693" stop-color="#ffffff"/>
<stop offset="1" stop-color="#ffffff"/>
</linearGradient>
</defs>
</svg>
