<?xml version="1.0" encoding="UTF-8"?>
<svg xmlns="http://www.w3.org/2000/svg" xmlns:xlink="http://www.w3.org/1999/xlink" baseProfile="tiny" contentScriptType="text/ecmascript" contentStyleType="text/css" height="27px" preserveAspectRatio="xMidYMid meet" version="1.1" viewBox="0 0 27 27" width="27px" x="0px" y="0px" zoomAndPan="magnify">
<rect fill="none" height="27" width="27"/>
<path d="M 5.0 16.0 L 5.0 19.0 L 1.0 19.0 L 1.0 23.0 L 5.0 23.0 L 5.0 26.0 L 14.0 21.0 L 5.0 16.0 z " fill="#dedede"/>
<defs>
<linearGradient gradientUnits="userSpaceOnUse" x1="13.5" x2="13.5" xlink:actuate="onLoad" xlink:show="other" xlink:type="simple" y1="24" y2="3.0005">
<stop offset="0" stop-color="#d0cbc5"/>
<stop offset="1" stop-color="#fcfcf9"/>
</linearGradient>
</defs>
<path d="M 4.46875 3.0 L 4.46875 3.03125 C 3.639252 3.18825 3.0 4.011 3.0 5.0 L 3.0 17.84375 L 3.84375 17.84375 L 3.84375 16.0 C 3.838898 15.423856 4.3317504 14.887517 4.90625 14.84375 C 5.1340046 14.829162 5.365757 14.884341 5.5625 15.0 L 9.46875 17.15625 L 9.46875 10.5 C 9.150452 10.80361 8.735363 11.0714035 8.21875 11.375 C 7.70213 11.678612 7.255084 11.941955 6.84375 12.09375 L 6.84375 10.78125 C 7.583169 10.433583 8.196652 10.025841 8.75 9.53125 C 9.303338 9.036679 9.707344 8.558961 9.9375 8.09375 L 10.78125 8.09375 L 10.78125 17.90625 L 14.5625 20.0 C 15.265494 20.399069 15.265494 21.600931 14.5625 22.0 L 10.96875 24.0 L 22.09375 24.0 C 23.143272 24.0 24.0 23.0995 24.0 22.0 L 24.0 5.0 C 24.0 3.979499 23.31568 3.149748 22.4375 3.03125 L 22.4375 3.0 z M 28.9375 24.0 C 21.625 26.0 25.28125 25.0 28.9375 24.0 z M 16.8125 8.09375 C 17.845722 8.093763 18.647684 8.395832 19.25 8.96875 C 19.852304 9.541688 20.156246 10.246606 20.15625 11.09375 C 20.156244 11.524679 20.08253 11.927526 19.90625 12.34375 C 19.72996 12.759987 19.440134 13.227204 19.03125 13.6875 C 18.622358 14.14781 17.918732 14.759425 16.96875 15.5625 C 16.17546 16.228472 15.662751 16.700006 15.4375 16.9375 C 15.212242 17.175 15.021903 17.416307 14.875 17.65625 L 20.15625 17.65625 L 20.15625 18.90625 L 13.0625 18.90625 C 13.0527 18.587955 13.07487 18.293806 13.1875 18.0 C 13.36868 17.515217 13.663408 17.0326 14.0625 16.5625 C 14.461588 16.09241 15.058385 15.5545025 15.8125 14.9375 C 16.982836 13.977723 17.77616 13.216943 18.1875 12.65625 C 18.598831 12.095568 18.781244 11.561987 18.78125 11.0625 C 18.781244 10.538546 18.624603 10.078675 18.25 9.71875 C 17.875383 9.358842 17.352304 9.18751 16.75 9.1875 C 16.113407 9.187509 15.631951 9.399308 15.25 9.78125 C 14.868045 10.163214 14.661172 10.667994 14.65625 11.34375 L 13.28125 11.1875 C 13.37429 10.173863 13.767786 9.406317 14.375 8.875 C 14.982202 8.343707 15.789059 8.093758 16.8125 8.09375 z " fill="#dedede"/>
</svg>
