<?xml version="1.0" encoding="UTF-8"?>
<svg xmlns="http://www.w3.org/2000/svg" xmlns:xlink="http://www.w3.org/1999/xlink" baseProfile="tiny" contentScriptType="text/ecmascript" contentStyleType="text/css" height="7px" preserveAspectRatio="xMidYMid meet" version="1.1" viewBox="0 0 7 7" width="7px" x="0px" y="0px" zoomAndPan="magnify">
<rect fill="none" height="7" width="7"/>
<linearGradient gradientUnits="userSpaceOnUse" id="SVGID_1_" x1="4.0088" x2="4.0088" xlink:actuate="onLoad" xlink:show="other" xlink:type="simple" y1="54.9814" y2="7.0791">
<stop offset="0" stop-color="#c2c2c2"/>
<stop offset="1" stop-color="#c2c2c2"/>
</linearGradient>
<path d="M 1.018 7.0 L 7.0 7.0 L 7.0 1.236 C 3.819 1.237 1.203 3.799 1.018 7.0 z " fill="url(#SVGID_1_)"/>
<linearGradient gradientUnits="userSpaceOnUse" id="SVGID_2_" x1="0.0195" x2="7.4004" xlink:actuate="onLoad" xlink:show="other" xlink:type="simple" y1="3.6182" y2="3.6182">
<stop offset="0" stop-color="#c2c2c2"/>
<stop offset="1" stop-color="#c2c2c2"/>
</linearGradient>
<path d="M 0.02 6.942 L 0.02 7.0 L 1.018 7.0 C 1.203 3.799 3.819 1.237 7.0 1.236 L 7.0 0.23599994 C 3.303 0.237 0.237 3.182 0.02 6.942 z " fill="url(#SVGID_2_)" fill-opacity="0.1" stroke-opacity="0.1"/>
<linearGradient gradientUnits="userSpaceOnUse" id="SVGID_3_" x1="4.0088" x2="4.0088" xlink:actuate="onLoad" xlink:show="other" xlink:type="simple" y1="1.0186" y2="32.7196">
<stop offset="0" stop-color="#c2c2c2"/>
<stop offset="1" stop-color="#c2c2c2"/>
</linearGradient>
<path d="M 1.018 7.0 C 1.33 4.403 4.254 2.327 7.0 2.239 L 7.0 1.236 C 3.819 1.237 1.203 3.799 1.018 7.0 z " fill="url(#SVGID_3_)" fill-opacity="0.3" stroke-opacity="0.3"/>
</svg>
