<?xml version="1.0" encoding="UTF-8"?>
<svg xmlns="http://www.w3.org/2000/svg" xmlns:xlink="http://www.w3.org/1999/xlink" baseProfile="tiny" contentScriptType="text/ecmascript" contentStyleType="text/css" height="16px" preserveAspectRatio="xMidYMid meet" version="1.1" viewBox="8 8 16 16" width="16px" x="0px" y="0px" zoomAndPan="magnify">
<defs/>
<rect fill="none" height="16" width="16" x="8" y="8"/>
<path d="M 16.0 10.0 L 12.375 10.0 L 12.0 10.0 C 11.31 10.0 10.661188 10.152969 10.0625 10.40625 C 9.463813 10.659531 8.922 11.016125 8.46875 11.46875 C 8.0155 11.921375 7.6599374 12.464469 7.40625 13.0625 C 7.1525626 13.660531 7.0 14.3105 7.0 15.0 L 7.0 16.0 L 16.0 16.0 L 16.0 10.0 z " fill="#2e2e2e" fill-opacity="0.78431374" transform="translate(8,8)"/>
<path d="M 12.0 7.0 C 7.584 7.0 4.0 10.588 4.0 15.0 L 4.0 16.0 L 7.0 16.0 L 7.0 15.0 C 7.0 14.3105 7.1525626 13.660531 7.40625 13.0625 C 7.6599374 12.464469 8.0155 11.921375 8.46875 11.46875 C 8.922 11.016125 9.463813 10.659531 10.0625 10.40625 C 10.661188 10.152969 11.31 10.0 12.0 10.0 L 12.375 10.0 L 16.0 10.0 L 16.0 7.0 L 12.0 7.0 z " fill="#646464" fill-opacity="0.19607843" transform="translate(8,8)"/>
<path d="M 12.0 8.0 C 8.139 8.0 5.0 11.143 5.0 15.0 L 5.0 16.0 L 7.0 16.0 L 7.0 15.0 C 7.0 14.3105 7.1525626 13.660531 7.40625 13.0625 C 7.6599374 12.464469 8.0155 11.921375 8.46875 11.46875 C 8.922 11.016125 9.463813 10.659531 10.0625 10.40625 C 10.661188 10.152969 11.31 10.0 12.0 10.0 L 12.375 10.0 L 16.0 10.0 L 16.0 9.0 L 16.0 8.0 L 12.0 8.0 z " fill="#646464" fill-opacity="0.19607843" transform="translate(8,8)"/>
<path d="M 20.006 16.996 C 16.693 16.996 14.0 19.693 14.0 23.002 L 14.0 24.0 L 15.0 24.0 L 15.0 23.002 C 15.0 20.244 17.246 18.0 20.006 18.0 L 24.0 17.998 L 24.0 16.995996 L 20.006 16.995996 z " fill="#646464" fill-opacity="0.19607843"/>
</svg>
