<?xml version="1.0" encoding="UTF-8"?>
<svg xmlns="http://www.w3.org/2000/svg" xmlns:xlink="http://www.w3.org/1999/xlink" baseProfile="tiny" contentScriptType="text/ecmascript" contentStyleType="text/css" height="51px" preserveAspectRatio="xMidYMid meet" version="1.1" viewBox="8.309 0 15.691 51" width="15.691px" x="0px" y="0px" zoomAndPan="magnify">
<defs>
<linearGradient gradientTransform="translate(-686.0132,1409.1914)" gradientUnits="userSpaceOnUse" x1="667.06708" x2="1001.2087" xlink:actuate="onLoad" xlink:show="other" xlink:type="simple" y1="-1402.1782" y2="-1402.1782">
<stop offset="0" stop-color="#2e2e2e"/>
<stop offset="0.5" stop-color="#636363"/>
<stop offset="0.865" stop-color="#2e2e2e"/>
<stop offset="1" stop-color="#2e2e2e"/>
</linearGradient>
</defs>
<rect fill="none" height="38.574154" width="16" x="8.309" y="-1.4210855e-014"/>
<path d="M 15.309 -2.4797608E-8 L 15.309 38.5625 L 15.309 39.5625 C 15.309 40.252 15.462125 40.901966 15.71525 41.5 C 15.968375 42.098034 16.32525 42.641125 16.77775 43.09375 C 17.23025 43.546375 17.773376 43.90297 18.3715 44.15625 C 18.969624 44.40953 19.619 44.5625 20.309 44.5625 L 20.684 44.5625 L 24.309 44.5625 L 24.309 47.5625 L 20.309 47.5625 C 15.893 47.5625 12.309 43.9745 12.309 39.5625 L 12.309 38.5625 L 12.309 0.0 L 15.309 0.0 z " fill="#000000" fill-opacity="0.03921569"/>
<path d="M 24.309 -2.4797608E-8 L 24.309 38.5625 L 24.309 44.5625 L 20.684 44.5625 L 20.309 44.5625 C 19.619 44.5625 18.969624 44.40953 18.3715 44.15625 C 17.773376 43.90297 17.23025 43.546375 16.77775 43.09375 C 16.32525 42.641125 15.968375 42.098034 15.71525 41.5 C 15.462125 40.901966 15.309 40.252 15.309 39.5625 L 15.309 38.5625 L 15.309 0.0 L 24.309 0.0 z " fill="#646464" fill-opacity="0.39215687"/>
<path d="M 15.309 -2.4797608E-8 L 15.309 38.5625 L 15.309 39.5625 C 15.309 40.252 15.462125 40.901966 15.71525 41.5 C 15.968375 42.098034 16.32525 42.641125 16.77775 43.09375 C 17.23025 43.546375 17.773376 43.90297 18.3715 44.15625 C 18.969624 44.40953 19.619 44.5625 20.309 44.5625 L 20.684 44.5625 L 24.309 44.5625 L 24.309 45.5625 L 24.309 46.5625 L 20.309 46.5625 C 16.448 46.5625 13.309 43.4195 13.309 39.5625 L 13.309 38.5625 L 13.309 0.0 L 15.309 0.0 z " fill="#000000" fill-opacity="0.03921569"/>
<path d="M 24.309 44.5625 L 24.309 45.5625 L 20.309 45.5625 C 16.996 45.5625 14.309 42.8715 14.309 39.5625 L 14.309 38.5625 L 14.309 0.0 L 15.309 0.0 L 15.309 38.5625 L 15.309 39.5625 C 15.309 42.3205 17.549 44.5625 20.309 44.5625 L 24.309 44.5625 z " fill="#000000" fill-opacity="0.03921569"/>
</svg>
