<?xml version="1.0" encoding="UTF-8"?>
<svg xmlns="http://www.w3.org/2000/svg" xmlns:xlink="http://www.w3.org/1999/xlink" baseProfile="tiny" contentScriptType="text/ecmascript" contentStyleType="text/css" height="68px" preserveAspectRatio="xMidYMid meet" version="1.1" viewBox="0 0 132 68" width="132px" x="0px" y="0px" zoomAndPan="magnify">
<defs>
<linearGradient gradientTransform="matrix(1,0,0,-1,-117.48,10.9805)" gradientUnits="userSpaceOnUse" id="linearGradient3098" x1="165.47659" x2="165.47659" xlink:actuate="onLoad" xlink:show="other" xlink:type="simple" y1="-82.990196" y2="-56.923401">
<stop offset="0" stop-color="#ffffff"/>
<stop offset="1" stop-color="#ffffff" stop-opacity="0.13"/>
</linearGradient>
<linearGradient gradientTransform="matrix(1,0,0,-1,-117.48,10.9805)" gradientUnits="userSpaceOnUse" id="linearGradient3813" x1="165.47659" x2="165.47659" xlink:actuate="onLoad" xlink:show="other" xlink:type="simple" y1="-82.990196" y2="-56.923401">
<stop offset="0" stop-color="#ffffff"/>
<stop offset="1" stop-color="#ffffff" stop-opacity="0.13"/>
</linearGradient>
</defs>
<g transform="matrix(0.68480707,0,0,0.68480707,33.120046,0.1780786)">
<path d="M 94.01182 49.388977 C 94.01182 74.793175 73.417656 95.38733 48.01346 95.38733 C 22.609266 95.38733 2.0150986 74.79317 2.0150986 49.388973 C 2.0150986 23.984785 22.609262 3.3906174 48.01346 3.3906174 C 73.417656 3.3906174 94.01182 23.984785 94.01182 49.388973 z " fill="#cdcdcd" fill-opacity="1" fill-rule="nonzero" stroke="none"/>
<path d="M 47.997 90.771 C 15.637001 90.771 3.980011 79.63902 3.6060028 47.971012 C 3.6000028 48.498013 3.5960028 49.032013 3.5960028 49.57101 C 3.5960028 82.467 15.097003 93.97102 47.99601 93.97102 C 80.88901 93.97102 92.39601 82.46603 92.39601 49.571014 C 92.39601 49.032013 92.39201 48.499016 92.38601 47.971016 C 92.014 79.639 80.351 90.771 47.997 90.771 z " fill="url(#linearGradient3098)" fill-opacity="0.07999998"/>
<path d="M 47.997 9.57 C 47.556 9.57 47.197002 9.9279995 47.197002 10.37 L 47.197002 13.57 C 47.197002 14.011 47.555008 14.37 47.997 14.37 C 48.439003 14.37 48.797 14.012 48.797 13.57 L 48.797 10.37 C 48.797 9.929 48.438 9.57 47.997 9.57 z M 47.997 84.770996 C 47.556 84.770996 47.197002 85.129 47.197002 85.57101 L 47.197002 88.770996 C 47.197002 89.213 47.555008 89.57101 47.997 89.57101 C 48.439003 89.57101 48.797 89.214005 48.797 88.770996 L 48.797 85.57101 C 48.797 85.129 48.438 84.770996 47.997 84.770996 z M 87.19701 48.770992 L 83.99701 48.770992 C 83.55601 48.770992 83.19701 49.128998 83.19701 49.57099 C 83.19701 50.01299 83.55501 50.37099 83.99701 50.37099 L 87.19701 50.37099 C 87.63801 50.37099 87.99701 50.01299 87.99701 49.57099 C 87.99701 49.128986 87.63901 48.770992 87.19701 48.770992 z M 11.997009 48.770992 L 8.797009 48.770992 C 8.35601 48.770992 7.99701 49.128998 7.99701 49.57099 C 7.99701 50.01299 8.35501 50.37099 8.797009 50.37099 L 11.997009 50.37099 C 12.438009 50.37099 12.797009 50.01299 12.797009 49.57099 C 12.797009 49.128986 12.438009 48.770992 11.997009 48.770992 z " fill="#aaaaaa" fill-opacity="1"/>
<path d="M 27.998892 14.960834 C 27.616964 15.181315 27.48504 15.670846 27.706022 16.05364 L 29.305897 18.824997 C 29.52638 19.206924 30.015911 19.338846 30.398705 19.117868 C 30.781494 18.896885 30.912554 18.407852 30.691572 18.02506 L 29.091698 15.253705 C 28.871214 14.871779 28.380816 14.740353 27.99889 14.960835 z M 65.59641 80.08853 C 65.214485 80.30901 65.082565 80.798546 65.30355 81.18134 L 66.90342 83.95269 C 67.124405 84.33549 67.61344 84.46655 67.99623 84.24557 C 68.37902 84.024574 68.51058 83.536415 68.28909 83.15275 L 66.689224 80.38141 C 66.46824 79.99861 65.97835 79.86805 65.59641 80.08853 z M 81.54693 29.312347 L 78.77557 30.91222 C 78.393654 31.132704 78.26173 31.622234 78.482704 32.005028 C 78.70368 32.387817 79.19272 32.51888 79.57552 32.297897 L 82.34687 30.698025 C 82.7288 30.47754 82.860725 29.988008 82.63974 29.605215 C 82.418755 29.222422 81.929726 29.091362 81.546936 29.312346 z M 16.420103 66.90937 L 13.648749 68.50924 C 13.266824 68.72972 13.134896 69.219246 13.35588 69.602036 C 13.57686 69.984825 14.065894 70.1159 14.448688 69.894905 L 17.220041 68.29504 C 17.60197 68.07455 17.733892 67.585014 17.51291 67.202225 C 17.291931 66.819435 16.802032 66.68887 16.420103 66.909355 z " fill="#aaaaaa" fill-opacity="1"/>
<path d="M 13.362461 29.570925 C 13.141719 29.952703 13.271941 30.442686 13.654588 30.663927 L 16.424852 32.265686 C 16.806631 32.486427 17.296616 32.356205 17.51786 31.97356 C 17.7391 31.590918 17.60837 31.1018 17.22573 30.880554 L 14.455465 29.278795 C 14.0736885 29.058056 13.583201 29.189146 13.362459 29.570925 z M 78.46455 67.21277 C 78.243805 67.594536 78.37404 68.084526 78.756676 68.30578 L 81.52694 69.90753 C 81.909584 70.128784 82.39871 69.998055 82.61996 69.61541 C 82.841194 69.232765 82.71133 68.74415 82.32782 68.5224 L 79.55756 66.92065 C 79.17491 66.6994 78.685295 66.83099 78.46455 67.21277 z M 66.92062 15.257229 L 65.31886 18.027493 C 65.09812 18.409271 65.22834 18.899256 65.61099 19.120499 C 65.99363 19.341742 66.482765 19.211008 66.704 18.82837 L 68.30576 16.058105 C 68.526505 15.67633 68.39629 15.186341 68.01363 14.965099 C 67.631 14.743856 67.14188 14.874579 66.92063 15.257226 z M 29.279291 80.35845 L 27.677532 83.12872 C 27.45679 83.51049 27.587011 84.00048 27.969658 84.221725 C 28.3523 84.44296 28.84142 84.31225 29.062664 83.9296 L 30.664425 81.15933 C 30.885166 80.777565 30.754934 80.287575 30.372295 80.06632 C 29.989656 79.845085 29.500034 79.97667 29.279291 80.35845 z " fill="#aaaaaa" fill-opacity="1"/>
</g>
</svg>
