<?xml version="1.0" encoding="UTF-8"?>
<svg xmlns="http://www.w3.org/2000/svg" xmlns:xlink="http://www.w3.org/1999/xlink" baseProfile="tiny" contentScriptType="text/ecmascript" contentStyleType="text/css" height="38px" preserveAspectRatio="xMidYMid meet" version="1.1" viewBox="0 0 7 38" width="7px" x="0px" y="0px" zoomAndPan="magnify">
<rect fill="none" height="38" width="7"/>
<path d="M 1.0 38.0 C 1.0 38.0 1.011 0.229 1.018 0.0 L 0.02 0.0 L 0.0 0.0 L 0.0 38.0 L 0.02 38.0 L 1.0 38.0 z " fill="none"/>
<linearGradient gradientUnits="userSpaceOnUse" id="SVGID_1_" x1="4" x2="4" xlink:actuate="onLoad" xlink:show="other" xlink:type="simple" y1="47.5088" y2="-0.397">
<stop offset="0" stop-color="#fa6a62"/>
<stop offset="1" stop-color="#fa6a62"/>
</linearGradient>
<path d="M 1.018 0.0 C 1.011 0.229 1.0 38.0 1.0 38.0 L 1.018 38.0 L 7.0 38.0 L 7.0 0.0 L 1.018 0.0 z " fill="url(#SVGID_1_)"/>
<linearGradient gradientUnits="userSpaceOnUse" id="SVGID_2_" x1="0" x2="1" xlink:actuate="onLoad" xlink:show="other" xlink:type="simple" y1="19" y2="19">
<stop offset="0" stop-color="#fa6a62"/>
<stop offset="1" stop-color="#fa6a62"/>
</linearGradient>
<path d="M 1.0 0.0 L 0.0030 0.0 C 0.0020 0.229 0.0 38.0 0.0 38.0 L 1.0 38.0 L 1.0 0.0 z " fill="url(#SVGID_2_)" fill-opacity="0.1" stroke-opacity="0.1"/>
</svg>
