<?xml version="1.0" encoding="UTF-8"?>
<svg xmlns="http://www.w3.org/2000/svg" xmlns:xlink="http://www.w3.org/1999/xlink" baseProfile="tiny" contentScriptType="text/ecmascript" contentStyleType="text/css" height="10px" preserveAspectRatio="xMidYMid meet" version="1.1" viewBox="0 0 10 10" width="10px" x="0px" y="0px" zoomAndPan="magnify">
<g>
<path d="M 10.0 0.0 L 6.602 0.0 C 2.961 0.0 0.0 2.956 0.0 6.594 L 0.0 10.0 L 10.0 10.0 L 10.0 0.0 z " fill="#8c8c8c"/>
<path d="M 10.0 0.599 L 6.602 0.599 C 3.301 0.599 0.6 3.296 0.6 6.594 L 0.6 10.0 L 10.0 10.0 L 10.0 0.599 z " fill="url(#SVGID_1_)"/>
<path d="M 6.602 0.599 C 3.301 0.599 0.6 3.296 0.6 6.594 L 0.6 7.176 C 0.6 3.8799996 3.301 1.1809998 6.602 1.1809998 L 10.0 1.1809998 L 10.0 0.599 L 6.602 0.599 z " fill="#8c8c8c" fill-opacity="0.15" stroke-opacity="0.15"/>
<defs>
<linearGradient gradientUnits="userSpaceOnUse" id="SVGID_1_" x1="5.3003" x2="5.3003" xlink:actuate="onLoad" xlink:show="other" xlink:type="simple" y1="259.0225" y2="0.3584">
<stop offset="0" stop-color="#2e2e2e"/>
<stop offset="1" stop-color="#2e2e2e"/>
</linearGradient>
</defs>
</g>
</svg>
