<?xml version="1.0" encoding="UTF-8"?>
<svg xmlns="http://www.w3.org/2000/svg" xmlns:xlink="http://www.w3.org/1999/xlink" baseProfile="tiny" contentScriptType="text/ecmascript" contentStyleType="text/css" height="16px" preserveAspectRatio="xMidYMid meet" version="1.1" viewBox="8 8 16 16" width="16px" x="0px" y="0px" zoomAndPan="magnify">
<defs/>
<rect fill="none" height="16" transform="scale(-1,1)" width="16" x="-24" y="8"/>
<path d="M 8.0 18.0 L 11.625 18.0 L 12.0 18.0 C 12.69 18.0 13.338812 18.15297 13.9375 18.40625 C 14.536187 18.65953 15.078 19.016125 15.53125 19.46875 C 15.9845 19.921375 16.340063 20.46447 16.59375 21.0625 C 16.847437 21.660532 17.0 22.3105 17.0 23.0 L 17.0 24.0 L 8.0 24.0 L 8.0 18.0 z " fill="#2e2e2e" fill-opacity="0.78431374"/>
<path d="M 12.0 15.0 C 16.416 15.0 20.0 18.588 20.0 23.0 L 20.0 24.0 L 17.0 24.0 L 17.0 23.0 C 17.0 22.3105 16.847437 21.660532 16.59375 21.0625 C 16.340063 20.464468 15.9845 19.921375 15.53125 19.46875 C 15.078 19.016125 14.536187 18.659533 13.9375 18.40625 C 13.338812 18.152967 12.69 18.0 12.0 18.0 L 11.625 18.0 L 8.0 18.0 L 8.0 15.0 L 12.0 15.0 z " fill="#646464" fill-opacity="0.19607843"/>
<path d="M 12.0 16.0 C 15.861 16.0 19.0 19.143 19.0 23.0 L 19.0 24.0 L 17.0 24.0 L 17.0 23.0 C 17.0 22.3105 16.847437 21.660532 16.59375 21.0625 C 16.340063 20.464468 15.9845 19.921375 15.53125 19.46875 C 15.078 19.016125 14.536187 18.659533 13.9375 18.40625 C 13.338812 18.152967 12.69 18.0 12.0 18.0 L 11.625 18.0 L 8.0 18.0 L 8.0 17.0 L 8.0 16.0 L 12.0 16.0 z " fill="#646464" fill-opacity="0.19607843"/>
<path d="M 11.994 16.996 C 15.307 16.996 18.0 19.693 18.0 23.002 L 18.0 24.0 L 17.0 24.0 L 17.0 23.002 C 17.0 20.244 14.754 18.0 11.994 18.0 L 8.0 17.998 L 8.0 16.995996 L 11.994 16.995996 z " fill="#646464" fill-opacity="0.19607843"/>
</svg>
