<?xml version="1.0" encoding="UTF-8"?>
<svg xmlns="http://www.w3.org/2000/svg" xmlns:xlink="http://www.w3.org/1999/xlink" baseProfile="tiny" contentScriptType="text/ecmascript" contentStyleType="text/css" height="30px" preserveAspectRatio="xMidYMid meet" version="1.1" viewBox="0 0 30 30" width="30px" x="0px" y="0px" zoomAndPan="magnify">
<path d="M 29.414 3.414 C 29.793 3.036 30.0 2.534 30.0 2.0 C 30.0 1.4660001 29.793 0.964 29.414 0.58599997 C 29.036 0.208 28.534 0.0 28.0 0.0 C 27.466 0.0 26.964 0.208 26.586 0.586 L 22.908 4.264 C 21.666 2.306 19.484 1.0 17.0 1.0 L 13.0 1.0 C 9.141 1.0 6.0 4.141 6.0 8.0 L 6.0 10.0 C 4.3459997 10.0 3.0 11.346 3.0 13.0 L 3.0 24.172 L 0.58599997 26.586 C 0.209 26.964 0.0 27.466 0.0 28.0 C 0.0 28.534 0.209 29.036 0.586 29.414 C 0.964 29.792 1.466 30.0 2.0 30.0 C 2.534 30.0 3.036 29.792 3.414 29.414 L 4.336 28.493 C 4.813 28.813 5.385 29.0 6.0 29.0 L 24.0 29.0 C 25.654 29.0 27.0 27.654 27.0 26.0 L 27.0 13.0 C 27.0 11.346 25.654 10.0 24.0 10.0 L 24.0 8.828 L 29.414 3.414 z M 11.0 10.0 L 11.0 8.0 C 11.0 6.897 11.897 6.0 13.0 6.0 L 17.0 6.0 C 18.103 6.0 19.0 6.897 19.0 8.0 L 19.0 8.172 L 17.172 10.0 L 11.0 10.0 z " fill-opacity="0.15" stroke-opacity="0.15"/>
<path d="M 10.0 10.0 L 10.0 7.0 C 10.0 5.3459997 11.346 4.0 13.0 4.0 L 17.0 4.0 C 18.206 4.0 19.241 4.719 19.717 5.748 L 21.905 3.56 C 20.815 2.017 19.021 1.0 17.0 1.0 L 13.0 1.0 C 9.7 1.0 7.0 3.7 7.0 7.0 L 7.0 10.0 L 6.0 10.0 C 4.9 10.0 4.0 10.9 4.0 12.0 L 4.0 21.465 L 15.465 10.0 L 10.0 10.0 z M 24.0 10.0 L 23.0 10.0 L 23.0 9.535 L 17.01 15.525 C 17.315 15.938999 17.5 16.446 17.5 17.0 C 17.5 18.024 16.881 18.902 16.0 19.289 L 16.0 23.0 L 14.0 23.0 L 14.0 19.289 C 13.83 19.215 13.674 19.117 13.526 19.009 L 5.581 26.954 C 5.717 26.983 5.856 27.0 6.0 27.0 L 24.0 27.0 C 25.1 27.0 26.0 26.1 26.0 25.0 L 26.0 12.0 C 26.0 10.9 25.1 10.0 24.0 10.0 z M 28.707 0.293 C 28.316 -0.09799999 27.684 -0.09799999 27.293 0.293 L 1.2930012 26.293 C 0.90200114 26.684 0.90200114 27.316 1.2930012 27.707 C 1.488 27.902 1.744 28.0 2.0 28.0 C 2.256 28.0 2.512 27.902 2.707 27.707 L 28.707 1.7070009 C 29.098 1.316 29.098 0.684 28.707 0.293 z " fill-opacity="0.3" stroke-opacity="0.3"/>
<rect fill="none" height="30" width="30"/>
<path d="M 15.465 11.0 L 10.0 11.0 L 10.0 8.0 C 10.0 6.3459997 11.346 5.0 13.0 5.0 L 17.0 5.0 C 18.206 5.0 19.241 5.719 19.717 6.748 L 21.905 4.5600004 C 20.815 3.017 19.021 2.0 17.0 2.0 L 13.0 2.0 C 9.7 2.0 7.0 4.7 7.0 8.0 L 7.0 11.0 L 6.0 11.0 C 4.9 11.0 4.0 11.9 4.0 13.0 L 4.0 22.465 L 15.465 11.0 z " fill="#dedede"/>
<path d="M 24.0 11.0 L 23.0 11.0 L 23.0 10.535 L 17.01 16.525 C 17.315 16.939 17.5 17.446 17.5 18.0 C 17.5 19.024 16.881 19.902 16.0 20.289 L 16.0 24.0 L 14.0 24.0 L 14.0 20.289 C 13.83 20.215 13.674 20.117 13.526 20.009 L 5.581 27.954 C 5.717 27.983 5.856 28.0 6.0 28.0 L 24.0 28.0 C 25.1 28.0 26.0 27.1 26.0 26.0 L 26.0 13.0 C 26.0 11.9 25.1 11.0 24.0 11.0 z " fill="#dedede"/>
<path d="M 2.0 29.0 C 1.744 29.0 1.4879999 28.902 1.293 28.707 C 0.902 28.316 0.902 27.684 1.293 27.293 L 27.293 1.2930012 C 27.684 0.90200114 28.316 0.90200114 28.707 1.2930012 C 29.097998 1.6840012 29.098 2.3160012 28.707 2.7070012 L 2.7069988 28.707 C 2.512 28.902 2.256 29.0 2.0 29.0 L 2.0 29.0 z " fill="#fa664b"/>
</svg>
