<?xml version="1.0" encoding="UTF-8"?>
<svg xmlns="http://www.w3.org/2000/svg" xmlns:xlink="http://www.w3.org/1999/xlink" baseProfile="tiny" contentScriptType="text/ecmascript" contentStyleType="text/css" height="30px" preserveAspectRatio="xMidYMid meet" version="1.1" viewBox="0 0 30 30" width="30px" x="0px" y="0px" zoomAndPan="magnify">
<path d="M 30.0 2.0 C 30.0 1.4660001 29.793 0.964 29.414 0.58599997 C 29.035 0.20799994 28.534 0.0 28.0 0.0 C 27.465 0.0 26.963 0.208 26.586 0.586 L 25.143 2.029 C 25.094 2.021 25.051 2.0 25.0 2.0 L 5.0 2.0 C 4.447 2.0 4.0 2.447 4.0 3.0 L 4.0 9.0 C 4.0 9.304 4.138 9.591 4.375 9.781 L 11.606 15.565001 L 0.586 26.586 C 0.209 26.964 0.0 27.466 0.0 28.0 C 0.0 28.534 0.209 29.036 0.586 29.414 C 0.964 29.792 1.466 30.0 2.0 30.0 C 2.534 30.0 3.036 29.792 3.414 29.414 L 12.5 20.328 L 12.5 27.0 C 12.5 27.553 12.947 28.0 13.5 28.0 L 16.5 28.0 C 17.053 28.0 17.5 27.553 17.5 27.0 L 17.5 15.328 L 29.415 3.414 C 29.793 3.036 30.0 2.534 30.0 2.0 z M 9.0 7.0 L 12.5 7.0 L 12.5 9.878 L 9.0 7.078 L 9.0 7.0 z M 17.5 7.0 L 20.172 7.0 L 17.5 9.672 L 17.5 7.0 z " fill-opacity="0.15" stroke-opacity="0.15"/>
<path d="M 16.5 8.965 L 16.5 5.0 L 20.465 5.0 L 23.465 2.0 L 5.0 2.0 L 5.0 8.0 L 11.925 13.54 L 16.5 8.965 z M 8.0 5.0 L 13.5 5.0 L 13.5 10.958 L 8.0 6.559 L 8.0 5.0 z M 13.5 26.0 L 16.5 26.0 L 16.5 16.035 L 13.5 19.035 L 13.5 26.0 z M 28.708 0.293 C 28.317 -0.09799999 27.685 -0.09799999 27.294 0.293 L 1.2940006 26.293 C 0.9030006 26.684 0.9030006 27.316 1.2940006 27.706999 C 1.488 27.902 1.744 28.0 2.0 28.0 C 2.256 28.0 2.512 27.902 2.707 27.707 L 28.707 1.7070007 C 29.098 1.316 29.098 0.684 28.708 0.293 z " fill-opacity="0.3" stroke-opacity="0.3"/>
<rect fill="none" height="30" width="30"/>
<path d="M 5.0 3.0 L 5.0 9.0 L 11.925 14.54 L 16.5 9.965 L 16.5 6.0 L 20.465 6.0 L 23.465 3.0 L 5.0 3.0 z M 13.5 11.958 L 8.0 7.559 L 8.0 6.0 L 13.5 6.0 L 13.5 11.958 z M 13.5 27.0 L 16.5 27.0 L 16.5 17.035 L 13.5 20.035 L 13.5 27.0 z " fill="#ffffff"/>
<path d="M 2.0 29.0 C 1.744 29.0 1.4879999 28.902 1.293 28.707 C 0.90199995 28.316 0.90199995 27.684 1.293 27.293001 L 27.293 1.2930012 C 27.684 0.90200114 28.316 0.90200114 28.706999 1.2930012 C 29.097998 1.6840012 29.098 2.3160012 28.706999 2.7070012 L 2.7069988 28.707 C 2.512 28.902 2.256 29.0 2.0 29.0 L 2.0 29.0 z " fill="#fa664b"/>
</svg>
