<?xml version="1.0" encoding="UTF-8"?>
<svg xmlns="http://www.w3.org/2000/svg" xmlns:xlink="http://www.w3.org/1999/xlink" baseProfile="tiny" contentScriptType="text/ecmascript" contentStyleType="text/css" height="30px" preserveAspectRatio="xMidYMid meet" version="1.1" viewBox="0 0 30 30" width="30px" x="0px" y="0px" zoomAndPan="magnify">
<path d="M 27.555 6.122 C 27.414 6.04 27.256 6.0 27.1 6.0 C 26.95 6.0 26.795 6.038 26.659 6.115 L 17.0 13.456 L 17.0 6.899 C 17.0 6.579 16.832 6.2860003 16.555 6.122 C 16.414 6.04 16.256 6.0 16.1 6.0 C 15.949 6.0 15.795 6.038 15.658 6.115 L 6.0 13.456 L 6.0 7.0 C 6.0 6.447 5.553 6.0 5.0 6.0 L 3.0 6.0 C 2.447 6.0 2.0 6.447 2.0 7.0 L 2.0 23.0 C 2.0 23.553 2.447 24.0 3.0 24.0 L 5.0 24.0 C 5.553 24.0 6.0 23.553 6.0 23.0 L 6.0 16.544 L 15.658 23.885 C 15.794 23.962 15.949 24.0 16.1 24.0 C 16.256 24.0 16.414 23.962 16.555 23.878 C 16.832 23.716 17.0 23.421 17.0 23.101 L 17.0 16.543999 L 26.658 23.884998 C 26.795 23.962 26.949 24.0 27.1 24.0 C 27.256 24.0 27.414 23.962 27.555 23.878 C 27.832 23.716 28.0 23.421 28.0 23.101 L 28.0 6.899 C 28.0 6.579 27.832 6.286 27.555 6.122 z " fill="#dedede"/>
<rect fill="none" height="30" width="30"/>
</svg>
