<?xml version="1.0" encoding="UTF-8"?>
<svg xmlns="http://www.w3.org/2000/svg" xmlns:xlink="http://www.w3.org/1999/xlink" baseProfile="tiny" contentScriptType="text/ecmascript" contentStyleType="text/css" height="30px" preserveAspectRatio="xMidYMid meet" version="1.1" viewBox="0 0 30 30" width="30px" x="0px" y="0px" zoomAndPan="magnify">
<defs/>
<path d="M 17.534 21.551 L 14.596001 15.071001 C 14.367001 14.629001 13.967001 14.614001 13.703001 15.036001 L 12.571001 16.813002 C 10.672 16.043 9.104 14.58 8.011 12.661 C 7.776 12.247 7.327 12.198 7.035 12.358 C 6.3739996 12.717999 5.581 13.080999 5.156 13.379 C 4.861 13.5859995 4.7980003 13.8949995 4.967 14.231999 C 6.242 16.778 8.338 18.640999 10.736 19.747 L 9.39 21.918 C 9.127001 22.338 9.318001 22.705 9.812 22.734 L 17.049 22.3 C 17.544 22.331 17.763 21.993 17.534 21.550999 z M 18.0 2.0 C 18.0 1.448 17.553 1.0 17.0 1.0 L 9.0 1.0 C 8.447 1.0 8.0 1.448 8.0 2.0 L 8.0 5.0 L 18.0 5.0 L 18.0 2.0 z M 4.074 14.68 C 3.684 13.9 3.888 13.049 4.584 12.561 C 4.919 12.326 5.38 12.089 5.869 11.839 C 6.1 11.721 6.337 11.6 6.557 11.479 C 6.8050003 11.344 7.087 11.274 7.373 11.274 C 7.999 11.274 8.562 11.607 8.8810005 12.166 C 8.918 12.229 8.963 12.284 9.000001 12.346001 L 9.000001 10.0 C 9.0 8.896 9.897 8.0 11.0 8.0 L 23.0 8.0 C 23.266 8.0 23.52 8.105 23.707 8.293 L 24.0 8.586 L 24.0 4.0 C 24.0 3.447 23.553 3.0 23.0 3.0 L 19.0 3.0 L 19.0 5.0 C 19.0 5.553 18.553 6.0 18.0 6.0 L 8.0 6.0 C 7.447 6.0 7.0 5.553 7.0 5.0 L 7.0 3.0 L 3.0 3.0 C 2.447 3.0 2.0 3.448 2.0 4.0 L 2.0 27.0 C 2.0 27.553 2.447 28.0 3.0 28.0 L 9.0 28.0 L 9.0 23.516 C 8.756 23.377 8.558 23.182 8.428 22.932 C 8.184 22.457 8.225 21.895 8.542 21.387 L 9.0 20.649 L 9.0 19.95 C 6.865 18.672 5.175 16.875 4.074 14.68 z M 23.0 9.0 L 11.0 9.0 C 10.451 9.0 10.0 9.449 10.0 10.0 L 10.0 13.717 C 10.649 14.464 11.383 15.088 12.202 15.533 L 12.86 14.498 C 13.165 14.012 13.634999 13.728001 14.149 13.728001 C 14.428 13.728001 14.693 13.814001 14.925 13.97 L 24.095001 13.97 C 24.648 13.97 25.095001 14.417 25.095001 14.97 C 25.095001 15.523001 24.648 15.97 24.095001 15.97 L 16.101002 15.97 L 17.009003 17.972 L 24.095003 17.972 C 24.648003 17.972 25.095003 18.417 25.095003 18.972 C 25.095003 19.523 24.648003 19.972 24.095003 19.972 L 17.916004 19.972 L 18.444004 21.138 C 18.582005 21.402 18.634005 21.689001 18.616005 21.970001 L 24.095005 21.970001 C 24.648005 21.970001 25.095005 22.417002 25.095005 22.970001 C 25.095005 23.523 24.648005 23.970001 24.095005 23.970001 L 13.902 23.970001 C 13.565001 23.970001 13.282001 23.792002 13.101001 23.538002 C 11.738001 23.618002 10.455001 23.696003 9.999001 23.722002 L 9.999001 28.0 C 9.999001 28.549 10.450001 29.0 10.999001 29.0 L 26.999 29.0 C 27.550001 29.0 27.999 28.549 27.999 28.0 L 27.999 14.0 L 23.0 9.0 z " fill="#ffffff"/>
</svg>
