<?xml version="1.0" encoding="UTF-8"?>
<svg xmlns="http://www.w3.org/2000/svg" xmlns:xlink="http://www.w3.org/1999/xlink" baseProfile="tiny" contentScriptType="text/ecmascript" contentStyleType="text/css" height="50px" preserveAspectRatio="xMidYMid meet" version="1.1" viewBox="0 0 50 50" width="50px" x="0px" y="0px" zoomAndPan="magnify">
<polygon fill="none" points="25,0 0,0 0,50 25,50 50,50 50,0 "/>
<path d="M 38.803 28.759 C 38.334 28.102001 37.744003 27.688002 37.030003 27.528 C 37.077003 27.083 37.100002 26.632 37.100002 26.175 C 37.100002 22.887 35.680004 20.324 32.850002 18.481998 C 30.557003 16.984 27.940002 16.241999 25.001003 16.262 C 22.062004 16.241 19.442003 16.984999 17.153004 18.481998 C 14.3200035 20.324999 12.903004 22.887 12.903004 26.175 C 12.903004 26.627998 12.925004 27.077 12.973003 27.528 C 12.257004 27.688 11.667004 28.102 11.201003 28.758999 C 10.733003 29.419998 10.501003 30.182 10.501003 31.05 C 10.501003 32.118 10.847003 33.052998 11.539003 33.864998 C 12.284003 34.733997 13.183003 35.100998 14.235003 34.974 L 15.792004 34.760998 L 14.746004 27.252998 L 13.778004 27.394 C 13.869003 24.401999 15.124003 22.118 17.538004 20.522 C 19.558004 19.184 22.046003 18.512999 25.001003 18.512999 C 27.959003 18.512999 30.443003 19.183998 32.463005 20.522 C 34.879005 22.113998 36.133003 24.401 36.229004 27.394 L 35.258003 27.252998 L 34.209003 34.760998 L 35.768005 34.974 C 36.821007 35.100998 37.721004 34.733997 38.465004 33.864998 C 39.156006 33.052 39.500004 32.117996 39.500004 31.049997 C 39.5 30.182 39.266 29.42 38.803 28.759 z " fill-opacity="0.2"/>
<path d="M 18.018 34.813 L 31.981998 34.813 L 31.981998 25.12 L 18.018 25.12 L 18.018 34.813 z M 28.742 26.374 L 30.338001 26.374 L 30.338001 33.555 L 28.742 33.555 C 27.086 33.555 25.709 31.942 25.709 29.951 C 25.709 28.016 27.086 26.374 28.742 26.374 z M 19.665 26.374 L 21.257 26.374 C 22.911 26.374 24.29 28.016 24.29 29.947 C 24.29 31.939001 22.911001 33.554 21.257 33.554 L 19.665 33.554 L 19.665 26.374 z " fill-opacity="0.2"/>
<path d="M 38.803 27.759 C 38.334 27.102001 37.744003 26.688002 37.030003 26.528 C 37.078003 26.083 37.100002 25.632 37.100002 25.175 C 37.100002 21.887 35.680004 19.324 32.850002 17.481998 C 30.557003 15.983998 27.940002 15.241999 25.001003 15.261998 C 22.062004 15.240998 19.442003 15.984998 17.153004 17.481998 C 14.3200035 19.324999 12.903004 21.887 12.903004 25.175 C 12.903004 25.627998 12.925004 26.077 12.973003 26.528 C 12.257004 26.688 11.667004 27.102 11.201003 27.758999 C 10.733003 28.419998 10.501003 29.182 10.501003 30.05 C 10.501003 31.118 10.847003 32.052998 11.539003 32.864998 C 12.284003 33.733997 13.183003 34.100998 14.235003 33.974 L 15.792004 33.760998 L 14.746004 26.252998 L 13.778004 26.394 C 13.869003 23.401999 15.124003 21.118 17.538004 19.522 C 19.558004 18.184 22.046003 17.512999 25.001003 17.512999 C 27.959003 17.512999 30.443003 18.183998 32.463005 19.522 C 34.879005 21.113998 36.133003 23.402 36.229004 26.394 L 35.258003 26.252998 L 34.209003 33.760998 L 35.768005 33.974 C 36.821007 34.100998 37.721004 33.733997 38.465004 32.864998 C 39.156006 32.052 39.500004 31.117998 39.500004 30.049997 C 39.5 29.182 39.266 28.42 38.803 27.759 z " fill="#dedede" fill-opacity="0.5"/>
<path d="M 18.018 33.813 L 31.981998 33.813 L 31.981998 24.12 L 18.018 24.12 L 18.018 33.813 z M 28.742 25.374 L 30.338001 25.374 L 30.338001 32.555 L 28.742 32.555 C 27.086 32.555 25.709 30.942 25.709 28.951 C 25.709 27.016 27.086 25.374 28.742 25.374 z M 19.665 25.374 L 21.257 25.374 C 22.911 25.374 24.29 27.016 24.29 28.947 C 24.29 30.939001 22.911001 32.554 21.257 32.554 L 19.665 32.554 L 19.665 25.374 z " fill="#dedede" fill-opacity="0.5"/>
</svg>
