<?xml version="1.0" encoding="UTF-8"?>
<svg xmlns="http://www.w3.org/2000/svg" xmlns:xlink="http://www.w3.org/1999/xlink" baseProfile="tiny" contentScriptType="text/ecmascript" contentStyleType="text/css" height="30px" preserveAspectRatio="xMidYMid meet" version="1.1" viewBox="0 0 30 30" width="30px" x="0px" y="0px" zoomAndPan="magnify">
<path d="M 11.0 5.0 L 8.0 5.0 C 7.447 5.0 7.0 5.447 7.0 6.0 L 7.0 24.0 C 7.0 24.553 7.447 25.0 8.0 25.0 L 11.0 25.0 C 11.553 25.0 12.0 24.553 12.0 24.0 L 12.0 6.0 C 12.0 5.447 11.553 5.0 11.0 5.0 z M 22.0 5.0 L 19.0 5.0 C 18.447 5.0 18.0 5.447 18.0 6.0 L 18.0 24.0 C 18.0 24.553 18.447 25.0 19.0 25.0 L 22.0 25.0 C 22.553 25.0 23.0 24.553 23.0 24.0 L 23.0 6.0 C 23.0 5.447 22.553 5.0 22.0 5.0 z " fill="#dedede"/>
<rect fill="none" height="30" width="30"/>
</svg>
