<?xml version="1.0" encoding="UTF-8"?>
<svg xmlns="http://www.w3.org/2000/svg" xmlns:xlink="http://www.w3.org/1999/xlink" baseProfile="tiny" contentScriptType="text/ecmascript" contentStyleType="text/css" height="30px" preserveAspectRatio="xMidYMid meet" version="1.1" viewBox="0 0 30 30" width="30px" x="0px" y="0px" zoomAndPan="magnify">
<defs/>
<g transform="translate(0,-14)">
<path d="M 25.0 16.0 L 5.0 16.0 C 4.449 16.0 4.0 16.451 4.0 17.0 L 4.0 41.001 C 4.0 41.55 4.449 42.001 5.0 42.001 L 25.0 42.001 C 25.549 42.001 26.0 41.55 26.0 41.001 L 26.0 17.0 C 26.0 16.451 25.549 16.0 25.0 16.0 z M 6.0 26.5 C 6.0 25.121 7.121 24.0 8.5 24.0 L 14.5 24.0 C 15.879 24.0 17.0 25.121 17.0 26.5 C 17.0 27.879 15.879 29.0 14.5 29.0 L 8.5 29.0 C 7.121 29.0 6.0 27.879 6.0 26.5 z M 14.5 35.0 L 8.5 35.0 C 8.224 35.0 8.0 34.776 8.0 34.5 C 8.0 34.224 8.224 34.0 8.5 34.0 L 14.5 34.0 C 14.776 34.0 15.0 34.224 15.0 34.5 C 15.0 34.776 14.776 35.0 14.5 35.0 z M 21.5 31.0 L 8.5 31.0 C 8.224 31.0 8.0 30.776 8.0 30.5 C 8.0 30.224 8.224 30.0 8.5 30.0 L 21.5 30.0 C 21.776 30.0 22.0 30.224 22.0 30.5 C 22.0 30.776 21.776 31.0 21.5 31.0 z M 21.5 27.0 L 18.5 27.0 C 18.224 27.0 18.0 26.776 18.0 26.5 C 18.0 26.224 18.224 26.0 18.5 26.0 L 21.5 26.0 C 21.776 26.0 22.0 26.224 22.0 26.5 C 22.0 26.776 21.776 27.0 21.5 27.0 z M 21.5 23.0 L 8.5 23.0 C 8.224 23.0 8.0 22.776 8.0 22.5 C 8.0 22.224 8.224 22.0 8.5 22.0 L 21.5 22.0 C 21.776 22.0 22.0 22.224 22.0 22.5 C 22.0 22.776 21.776 23.0 21.5 23.0 z " fill="#ffffff"/>
<path d="M 15.0 26.5 C 15.0 26.776 14.776 27.0 14.5 27.0 L 8.5 27.0 C 8.224 27.0 8.0 26.776 8.0 26.5 L 8.0 26.5 C 8.0 26.224 8.224 26.0 8.5 26.0 L 14.5 26.0 C 14.776 26.0 15.0 26.224 15.0 26.5 L 15.0 26.5 z " fill="#ffffff"/>
</g>
</svg>
