<?xml version="1.0" encoding="UTF-8"?>
<svg xmlns="http://www.w3.org/2000/svg" xmlns:xlink="http://www.w3.org/1999/xlink" baseProfile="tiny" contentScriptType="text/ecmascript" contentStyleType="text/css" height="42px" preserveAspectRatio="xMidYMid meet" version="1.1" viewBox="0 0 42 42" width="42px" x="0px" y="0px" zoomAndPan="magnify">
<linearGradient gradientUnits="userSpaceOnUse" x1="20.9995" x2="20.9995" xlink:actuate="onLoad" xlink:show="other" xlink:type="simple" y1="4.1431" y2="38.7565">
<stop offset="0" stop-color="#ffffff"/>
<stop offset="0.1404" stop-color="#ffffff" stop-opacity="0.8596"/>
<stop offset="1" stop-color="#ffffff" stop-opacity="0"/>
</linearGradient>
<linearGradient gradientUnits="userSpaceOnUse" x1="21.0005" x2="21.0005" xlink:actuate="onLoad" xlink:show="other" xlink:type="simple" y1="39" y2="3.0005">
<stop offset="0" stop-color="#ffffff"/>
<stop offset="1" stop-color="#ffffff" stop-opacity="0.5"/>
</linearGradient>
<linearGradient gradientTransform="matrix(1.4061877,0,0,1.4061877,-8.5313379,-9.6326682)" gradientUnits="userSpaceOnUse" x1="21.0005" x2="21.0005" xlink:actuate="onLoad" xlink:show="other" xlink:type="simple" y1="13.2856" y2="29.5742">
<stop offset="0" stop-color="#4d8dca"/>
<stop offset="1" stop-color="#4d8dca"/>
</linearGradient>
<path d="M 21.0 1.0 C 9.954305 1.0 1.0 9.954308 1.0 21.0 C 1.0 32.045696 9.954305 41.0 21.0 41.0 C 32.045696 41.0 41.0 32.045696 41.0 21.0 C 41.0 9.954308 32.045696 1.0 21.0 1.0 z M 32.6875 9.875 C 33.172634 9.875 33.609856 10.04314 33.9375 10.375 L 35.4375 11.875 C 36.10545 12.540128 36.08372 13.84675 35.375 14.5625 L 18.21875 31.53125 C 17.556437 32.193565 16.5395 32.3317 15.8125 31.84375 C 15.550946 31.735474 15.310616 31.571863 15.125 31.375 L 6.6875 23.34375 C 6.30783 22.95986 6.09375 22.460602 6.09375 21.9375 C 6.09375 21.456585 6.2661095 20.983892 6.59375 20.65625 L 8.09375 19.15625 C 8.421392 18.825796 8.861427 18.65625 9.34375 18.65625 C 9.866853 18.650623 10.39736 18.867516 10.78125 19.25 L 16.75 24.84375 L 31.28125 10.46875 C 31.66092 10.089077 32.170025 9.875 32.6875 9.875 z " fill="#b8cfe7" fill-opacity="1" stroke="none"/>
<rect fill="none" height="42" width="42"/>
<defs>
<linearGradient gradientUnits="userSpaceOnUse" x1="20.9995" x2="20.9995" xlink:actuate="onLoad" xlink:show="other" xlink:type="simple" y1="4.5005" y2="37.2861">
<stop offset="0" stop-color="#000000"/>
<stop offset="1" stop-color="#000000" stop-opacity="0"/>
</linearGradient>
</defs>
</svg>
