<?xml version="1.0" encoding="UTF-8"?>
<svg xmlns="http://www.w3.org/2000/svg" xmlns:xlink="http://www.w3.org/1999/xlink" baseProfile="tiny" contentScriptType="text/ecmascript" contentStyleType="text/css" height="52px" preserveAspectRatio="xMidYMid meet" version="1.1" viewBox="0 0 52 52" width="52px" x="0px" y="0px" zoomAndPan="magnify">
<defs>
<defs>
<linearGradient gradientTransform="translate(-582,-734)" gradientUnits="userSpaceOnUse" x1="607.99609" x2="607.99609" y1="783.00201" y2="736.99799">
<stop offset="0" stop-color="#d0cbc5"/>
<stop offset="0.5031" stop-color="#fafcef"/>
<stop offset="0.9693" stop-color="#ffffff"/>
<stop offset="1" stop-color="#ffffff"/>
</linearGradient>
</defs>
</defs>
<path d="M 48.055 38.056 C 47.588 37.103 46.913 36.61 46.848 36.554 L 46.776 36.497 C 44.451 34.757 42.192 33.919003 41.813 33.782 C 41.008 33.43 40.093998 33.43 39.292 33.753002 C 38.771 33.962 38.299 34.304 37.93 34.773003 C 37.727 35.032 37.594 35.317 37.483 35.603004 C 36.684 35.04 35.43 34.808 34.41 34.714 C 33.464 34.632 32.718 34.663 32.718 34.663 L 31.009 33.202 L 17.765 21.876 C 16.354 24.379 19.348 27.296 19.348 27.296 L 29.596 36.656998 L 30.990002 37.929996 C 31.653002 37.814995 32.272003 37.755997 32.848003 37.741997 C 36.856003 37.633995 38.735004 39.624996 38.735004 39.624996 L 38.733006 39.622997 C 39.436005 40.417995 40.576004 41.614998 41.967007 42.706997 L 41.95001 42.697 L 42.022007 42.757 C 43.149006 43.599 44.593006 43.716 45.827007 43.224 C 46.47101 42.966 47.056007 42.538998 47.51201 41.962997 L 47.569008 41.895996 C 48.652008 40.516994 48.541008 38.971996 48.055008 38.055996 z M 45.40601 40.855995 C 45.19701 41.119995 44.92901 41.310997 44.63601 41.425995 C 44.07501 41.650993 43.431007 41.597996 42.94301 41.240993 C 40.814007 39.574993 39.26701 37.550995 39.25501 37.552994 C 38.910007 37.146996 38.88801 36.597992 39.201008 36.198994 C 39.322006 36.042995 39.479008 35.927994 39.654007 35.860992 C 39.926006 35.75199 40.238007 35.753994 40.508007 35.87699 L 40.565006 35.90399 L 40.608006 35.91799 C 40.608006 35.91799 41.128006 36.090992 41.963005 36.485992 C 42.797005 36.88499 43.918007 37.497993 45.030006 38.337994 L 45.099007 38.387993 C 45.097008 38.387993 45.161007 38.430992 45.287006 38.57199 C 45.691006 39.10599 46.283005 39.693993 45.406006 40.85599 z M 31.225 39.562 C 30.737 39.632 30.244 39.486 29.876 39.152 L 28.594 37.984 C 28.301 38.457 28.067 38.955 27.975 39.433002 C 27.697 39.302002 27.401001 39.187004 27.079 39.140003 C 26.489 39.058002 25.911001 39.136 25.388 39.347004 C 24.589 39.664005 23.925001 40.295006 23.582 41.107002 C 23.403 41.466003 22.353 43.629 21.87 46.496002 L 21.854 46.588 C 21.844 46.672 21.7 47.496002 22.02 48.506 C 22.293001 49.508 23.281 50.703 25.022001 50.949 L 25.109001 50.961002 C 25.835001 51.066 26.553001 50.967003 27.199001 50.709003 C 28.432001 50.215004 29.393002 49.131004 29.627 47.746002 L 29.642 47.654003 L 29.634 47.672005 C 29.890001 45.922005 29.888 44.270004 29.849 43.207005 L 29.851002 43.209003 C 29.85 43.208 29.84 41.558 31.225 39.562 z M 27.92 47.284 C 27.809 47.878002 27.377 48.364002 26.82 48.587 C 26.525 48.704002 26.199999 48.751003 25.865 48.704002 C 24.427 48.472004 24.454 47.634003 24.373 46.975002 C 24.366999 46.786003 24.383 46.708004 24.383 46.708004 L 24.401999 46.626003 C 24.623999 45.251003 25.017998 44.032 25.347998 43.165005 C 25.671997 42.307003 25.929998 41.819004 25.929998 41.819004 L 25.950998 41.782005 L 25.971998 41.720005 C 26.086998 41.444004 26.305998 41.228004 26.575998 41.118004 C 26.752998 41.046005 26.944998 41.020004 27.138998 41.048004 C 27.644999 41.120003 28.005999 41.534004 28.034998 42.069004 C 28.026999 42.075005 28.306997 44.610004 27.919998 47.284004 z M 26.616999 37.573006 C 26.759998 37.573006 26.901999 37.579006 27.046999 37.593006 C 27.123 37.454006 27.203 37.319008 27.290998 37.175007 C 27.362999 37.060005 27.449 36.954006 27.546999 36.862007 L 25.553 35.042007 C 25.723 35.476006 25.824 35.940006 25.824 36.43501 C 25.824 36.87601 25.734 37.292007 25.597 37.687008 C 25.932 37.614006 26.271 37.57301 26.617 37.57301 z M 31.209 31.20201 L 33.313 33.00101 C 33.641 33.005013 34.068 33.026012 34.522 33.06501 L 35.363 20.90201 C 35.363 20.90201 35.511997 16.72601 32.764 15.88801 L 31.209 31.202011 z M 22.317 40.23301 C 22.208 40.243008 22.101 40.26601 21.99 40.26601 C 19.872 40.26601 18.157 38.54901 18.157 36.43401 C 18.157 34.31701 19.872 32.60001 21.99 32.60001 C 22.368 32.60001 22.723999 32.66901 23.071 32.77401 L 18.313 28.428009 C 16.851 27.00401 14.858 23.909008 16.43 21.120008 C 16.655 20.722008 17.045 20.443008 17.497 20.363008 C 17.586 20.347008 17.676 20.34101 17.765 20.34101 C 18.126 20.34101 18.481998 20.470009 18.762 20.70901 L 19.924 21.70201 C 20.414 21.10401 21.153 20.71501 21.987 20.71501 C 23.467 20.71501 24.67 21.91601 24.67 23.40001 C 24.67 24.08401 24.406 24.703009 23.982 25.17601 L 29.460001 29.86101 C 29.470001 29.22601 29.616001 28.588009 29.956001 27.998009 C 29.970001 27.977009 29.984001 27.961008 29.997002 27.939009 L 30.823002 19.812008 C 30.486002 19.531008 30.184002 19.199007 29.954002 18.797009 C 28.895002 16.965008 29.522003 14.619009 31.357002 13.560009 C 33.188004 12.501009 35.536003 13.131009 36.592003 14.963009 C 37.272003 16.144009 37.248 17.529009 36.660004 18.652008 C 36.853004 19.493008 36.914005 20.309008 36.890003 20.955008 L 36.420002 27.750008 C 37.231003 28.931007 37.354004 30.511007 36.592003 31.832008 C 36.447002 32.078007 36.279003 32.30201 36.094 32.50401 L 36.045002 33.17001 C 36.039 33.24801 36.029003 33.326008 36.014004 33.402008 C 36.321003 33.465008 36.610004 33.543007 36.877003 33.63101 C 37.145004 33.32501 37.447002 33.06101 37.777004 32.833008 C 39.427006 30.073008 40.381004 26.848007 40.381004 23.397007 C 40.381004 13.234007 32.143005 4.9970074 21.983004 4.9970074 C 11.821004 4.9970074 3.583004 13.235007 3.583004 23.397007 C 3.583004 33.432007 11.617004 41.583008 21.604004 41.786007 C 21.848003 41.169006 22.063004 40.708008 22.184004 40.460007 C 22.223003 40.384007 22.277004 40.313007 22.317003 40.233006 z M 21.988 6.535 C 24.105001 6.535 25.821001 8.250999 25.821001 10.368 C 25.821001 12.485001 24.105001 14.201 21.988 14.201 C 19.872002 14.201 18.154001 12.485001 18.154001 10.368 C 18.154001 8.25 19.872002 6.535 21.988 6.535 z M 7.381 14.969 C 8.441 13.134 10.783 12.507 12.617001 13.566 C 14.450001 14.625 15.079 16.968 14.019001 18.802 C 12.960001 20.633 10.617001 21.265 8.783001 20.205 C 6.951 19.147 6.323 16.8 7.381 14.969 z M 12.6189995 33.239 C 10.785 34.297997 8.44 33.667 7.3829994 31.835 C 6.3229995 30.001 6.9519997 27.657999 8.785 26.600998 C 10.62 25.539997 12.962999 26.166998 14.021 28.001999 C 15.08 29.832998 14.452 32.181 12.6189995 33.239 z " fill="#ffffff" fill-opacity="1" stroke-opacity="0.14999999999999999"/>
</svg>
