<?xml version="1.0" encoding="UTF-8"?>
<svg xmlns="http://www.w3.org/2000/svg" xmlns:xlink="http://www.w3.org/1999/xlink" baseProfile="tiny" contentScriptType="text/ecmascript" contentStyleType="text/css" height="30px" preserveAspectRatio="xMidYMid meet" version="1.1" viewBox="0 0 30 30" width="30px" x="0px" y="0px" zoomAndPan="magnify">
<path d="M 28.0 28.0 C 27.74 28.0 27.484 27.898 27.293 27.707 L 23.586 24.0 L 7.0 24.0 C 3.691 24.0 1.0 21.309 1.0 18.0 L 1.0 9.0 C 1.0 5.691 3.691 3.0 7.0 3.0 L 23.0 3.0 C 26.309 3.0 29.0 5.691 29.0 9.0 L 29.0 27.0 C 29.0 27.404 28.757 27.77 28.383 27.924 C 28.259 27.975 28.129 28.0 28.0 28.0 L 28.0 28.0 z " fill-opacity="0.15" stroke-opacity="0.15"/>
<path d="M 23.0 3.0 L 7.0 3.0 C 4.25 3.0 2.0 5.25 2.0 8.0 L 2.0 17.0 C 2.0 19.75 4.25 22.0 7.0 22.0 L 24.0 22.0 L 28.0 26.0 L 28.0 8.0 C 28.0 5.25 25.75 3.0 23.0 3.0 z M 13.5 6.0 C 13.5 5.45 13.95 5.0 14.5 5.0 L 15.5 5.0 C 16.05 5.0 16.5 5.45 16.5 6.0 L 16.5 13.5 C 16.5 14.049 16.05 14.5 15.5 14.5 L 14.5 14.5 C 13.95 14.5 13.5 14.049 13.5 13.5 L 13.5 6.0 z M 15.0 20.0 C 13.896 20.0 13.0 19.104 13.0 18.0 C 13.0 16.896 13.896 16.0 15.0 16.0 C 16.104 16.0 17.0 16.896 17.0 18.0 C 17.0 19.104 16.104 20.0 15.0 20.0 z " fill-opacity="0.3" stroke-opacity="0.3"/>
<path d="M 23.0 4.0 L 7.0 4.0 C 4.25 4.0 2.0 6.25 2.0 9.0 L 2.0 18.0 C 2.0 20.75 4.25 23.0 7.0 23.0 L 24.0 23.0 L 28.0 27.0 L 28.0 9.0 C 28.0 6.25 25.75 4.0 23.0 4.0 z M 13.5 7.0 C 13.5 6.45 13.95 6.0 14.5 6.0 L 15.5 6.0 C 16.05 6.0 16.5 6.45 16.5 7.0 L 16.5 14.5 C 16.5 15.049 16.05 15.5 15.5 15.5 L 14.5 15.5 C 13.95 15.5 13.5 15.049 13.5 14.5 L 13.5 7.0 z M 15.0 21.0 C 13.896 21.0 13.0 20.104 13.0 19.0 C 13.0 17.896 13.896 17.0 15.0 17.0 C 16.104 17.0 17.0 17.896 17.0 19.0 C 17.0 20.104 16.104 21.0 15.0 21.0 z " fill="#dedede"/>
<rect fill="none" height="30" width="30"/>
</svg>
