<?xml version="1.0" encoding="UTF-8"?>
<svg xmlns="http://www.w3.org/2000/svg" xmlns:xlink="http://www.w3.org/1999/xlink" baseProfile="tiny" contentScriptType="text/ecmascript" contentStyleType="text/css" height="30px" preserveAspectRatio="xMidYMid meet" version="1.1" viewBox="0 0.001 30 30" width="30px" x="0px" y="0px" zoomAndPan="magnify">
<rect fill="none" height="30" width="30" y="0.001"/>
<path d="M 15.0 29.002 C 7.832 29.002 2.0 23.171001 2.0 16.002 C 2.0 13.394001 2.764 10.9070015 4.218 8.7560005 L 3.331 7.869 C 2.954 7.492 2.746 6.99 2.746 6.455 C 2.746 5.92 2.954 5.418 3.331 5.041 L 4.038 4.3339996 C 4.415 3.957 4.917 3.75 5.452 3.75 C 5.9870005 3.75 6.4890003 3.958 6.866 4.334 L 7.7530003 5.221 C 8.912001 4.4370003 10.167 3.855 11.5 3.4830003 L 11.5 2.001 C 11.5 0.8979999 12.397 9.999275E-4 13.5 9.999275E-4 L 16.5 9.999275E-4 C 17.603 9.999275E-4 18.5 0.89799994 18.5 2.001 L 18.5 3.484 C 19.822 3.856 21.094 4.445 22.244999 5.2209997 L 23.131998 4.3339996 C 23.508999 3.9569995 24.010998 3.7499995 24.545998 3.7499995 C 25.079998 3.7499995 25.581997 3.9569995 25.958998 4.3329997 L 26.667997 5.041 C 27.447998 5.821 27.447998 7.09 26.667997 7.87 L 25.780998 8.757 C 27.235 10.905 28.0 13.393 28.0 16.002 C 28.0 23.171 22.168 29.002 15.0 29.002 L 15.0 29.002 z " fill-opacity="0.15"/>
<path d="M 24.471 7.651 L 25.961 6.1610003 C 26.35 5.7720003 26.35 5.136 25.961 4.747 L 25.253 4.04 C 24.863 3.651 24.228 3.651 23.839 4.04 L 22.35 5.53 C 20.948 4.439 19.301 3.6480002 17.5 3.2660003 L 17.5 1.0 C 17.5 0.45 17.05 0.0 16.5 0.0 L 13.5 0.0 C 12.95 0.0 12.5 0.45 12.5 1.0 L 12.5 3.266 C 10.699 3.647 9.053 4.439 7.648 5.53 L 6.159 4.04 C 5.77 3.651 5.134 3.651 4.745 4.04 L 4.038 4.747 C 3.6490002 5.136 3.6490002 5.7720003 4.038 6.1610003 L 5.527 7.651 C 3.949 9.684 3.0 12.229 3.0 15.001 C 3.0 21.628 8.371 27.001 15.0 27.001 C 21.626999 27.001 27.0 21.627998 27.0 15.000999 C 27.0 12.229 26.051 9.683 24.471 7.651 z M 15.0 24.001 C 10.037001 24.001 6.0 19.963999 6.0 15.000999 C 6.0 10.038 10.037001 6.0009995 15.0 6.0009995 C 19.963 6.0009995 24.0 10.038 24.0 15.000999 C 24.0 19.963999 19.963 24.001 15.0 24.001 z M 15.0 7.5 C 14.172 7.5 13.5 8.171 13.5 9.0 L 13.5 15.0 C 13.5 15.829 14.172 16.5 15.0 16.5 C 15.828 16.5 16.5 15.829 16.5 15.0 L 16.5 9.0 C 16.5 8.171 15.828 7.5 15.0 7.5 z " fill-opacity="0.3"/>
<path d="M 24.471 8.652 L 25.961 7.1620007 C 26.35 6.7730007 26.35 6.1370006 25.961 5.7480006 L 25.253 5.0410004 C 24.863 4.6520004 24.228 4.6520004 23.839 5.0410004 L 22.35 6.531 C 20.948 5.44 19.301 4.649 17.5 4.267 L 17.5 2.001 C 17.5 1.451 17.05 1.0009999 16.5 1.0009999 L 13.5 1.0009999 C 12.95 1.0009999 12.5 1.451 12.5 2.001 L 12.5 4.267 C 10.699 4.648 9.053 5.44 7.648 6.531 L 6.159 5.0410004 C 5.77 4.6520004 5.134 4.6520004 4.745 5.0410004 L 4.038 5.748 C 3.6490002 6.137 3.6490002 6.7730002 4.038 7.162 L 5.527 8.652 C 3.949 10.685 3.0 13.229 3.0 16.002 C 3.0 22.629002 8.371 28.002 15.0 28.002 C 21.626999 28.002 27.0 22.629002 27.0 16.002 C 27.0 13.229 26.051 10.684 24.471 8.652 z M 15.0 25.002 C 10.037001 25.002 6.0 20.965 6.0 16.002 C 6.0 11.039001 10.037001 7.002001 15.0 7.002001 C 19.963 7.002001 24.0 11.039001 24.0 16.002 C 24.0 20.965 19.963 25.002 15.0 25.002 z M 15.0 8.501 C 14.172 8.501 13.5 9.172001 13.5 10.001 L 13.5 16.001 C 13.5 16.828999 14.172 17.501 15.0 17.501 C 15.828 17.501 16.5 16.828999 16.5 16.001 L 16.5 10.000999 C 16.5 9.172 15.828 8.501 15.0 8.501 z " fill="#dedede"/>
</svg>
