<?xml version="1.0" encoding="UTF-8"?>
<svg xmlns="http://www.w3.org/2000/svg" xmlns:xlink="http://www.w3.org/1999/xlink" baseProfile="tiny" contentScriptType="text/ecmascript" contentStyleType="text/css" height="30px" preserveAspectRatio="xMidYMid meet" version="1.1" viewBox="0 0 30 30" width="30px" x="0px" y="0px" zoomAndPan="magnify">
<path d="M 10.998 28.0 C 9.96 28.0 9.081 27.432 8.385 26.312 L 1.89 17.17 C 1.252 16.281 1.452 15.03 2.336 14.3810005 L 4.756 12.613001 C 5.099 12.363001 5.505 12.2300005 5.9300003 12.2300005 C 6.571 12.2300005 7.1760006 12.541 7.5490003 13.064 L 10.975 17.823 L 21.432 2.859 C 21.798 2.324 22.412 2.0 23.07 2.0 C 23.479 2.0 23.873 2.124 24.209 2.3600001 L 26.661999 4.0750003 C 27.56 4.7070003 27.783998 5.9550004 27.161 6.859 L 13.46 26.471 C 13.227 26.83 12.462 28.0 10.998 28.0 L 10.998 28.0 z " fill-opacity="0.15"/>
<path d="M 26.089 3.895 L 23.635 2.179 C 23.184 1.8629999 22.563 1.9779999 22.252 2.4329998 L 10.986001 18.553001 L 6.734001 12.645001 C 6.414001 12.196001 5.7910013 12.096002 5.345001 12.422002 L 2.9250011 14.1900015 C 2.482001 14.514002 2.3820012 15.143002 2.7040012 15.592001 L 9.233001 24.785 C 9.709 25.549 10.266 26.0 10.998 26.0 C 11.690001 26.0 12.188 25.59 12.641 24.898 L 26.338 5.292 C 26.651 4.837 26.539 4.211 26.089 3.895 z " fill-opacity="0.3"/>
<path d="M 26.089 4.895 L 23.635 3.179 C 23.184 2.863 22.563 2.978 22.252 3.4329998 L 10.986001 19.553001 L 6.734001 13.645001 C 6.414001 13.196001 5.7910013 13.096002 5.345001 13.422002 L 2.9250011 15.1900015 C 2.482001 15.514002 2.3820012 16.143002 2.7040012 16.592001 L 9.233001 25.785 C 9.709 26.549 10.266 27.0 10.998 27.0 C 11.690001 27.0 12.188 26.59 12.641 25.898 L 26.338 6.292 C 26.651 5.837 26.539 5.211 26.089 4.895 z " fill="#dedede"/>
<rect fill="none" height="30" width="30"/>
</svg>
