<?xml version="1.0" encoding="UTF-8"?>
<svg xmlns="http://www.w3.org/2000/svg" xmlns:xlink="http://www.w3.org/1999/xlink" baseProfile="tiny" contentScriptType="text/ecmascript" contentStyleType="text/css" height="30px" preserveAspectRatio="xMidYMid meet" version="1.1" viewBox="0 0 30 30" width="30px" x="0px" y="0px" zoomAndPan="magnify">
<path d="M 14.006 29.0 C 11.797 29.0 10.0 27.207 10.0 25.002 C 10.0 22.795 11.797 21.0 14.006 21.0 L 12.0 21.0 C 11.4470005 21.0 11.0 20.553 11.0 20.0 L 11.0 18.287 C 11.0 15.372001 12.25 13.589001 14.123 11.804001 C 15.57 10.383001 16.295 9.267001 16.265 8.501001 C 16.265 8.488002 16.262 8.392001 16.262 8.379002 C 16.262 7.125002 15.918999 5.9650016 13.433999 5.9650016 C 12.353999 5.9650016 10.970999 6.3800015 9.370998 6.8610015 C 9.27 6.891 9.162 6.906 9.054 6.906 C 8.8359995 6.906 8.615 6.843 8.445 6.718 C 8.19 6.529 8.0 6.244 8.0 5.928 L 8.0 3.0 C 8.0 2.549 8.302 2.154 8.736 2.035 C 10.688 1.503 12.53 1.0 14.184 1.0 C 21.847 1.0 22.997 5.468 23.0 8.132 C 23.0 11.343 20.771 13.613 18.979 15.434999 C 18.331 16.095999 17.718 16.719 17.348 17.26 C 17.115 17.605 17.0 18.021 17.0 18.529 L 17.0 20.0 C 17.0 20.553 16.553 21.0 16.0 21.0 L 14.0060005 21.0 C 16.209 21.0 18.0 22.795 18.0 25.002 C 18.0 27.207 16.209 29.0 14.006 29.0 L 14.006 29.0 z " fill-opacity="0.15" stroke-opacity="0.15"/>
<path d="M 14.006 21.0 C 12.348 21.0 11.0 22.344 11.0 24.002 C 11.0 25.654 12.348 27.0 14.006 27.0 C 15.666 27.0 17.0 25.654 17.0 24.002 C 17.0 22.344 15.659 21.0 14.006 21.0 z M 14.184 1.0 C 12.668 1.0 10.939 1.471 9.0 2.0 L 9.0 4.928 C 10.711 4.414 12.187 3.965 13.434 3.965 C 16.046 3.965 17.262001 5.154 17.262001 7.3789997 C 17.262001 7.7439995 17.506 8.882999 14.813002 11.528999 C 12.983 13.269 12.0 14.794 12.0 17.287 L 12.0 19.0 L 16.0 19.0 L 16.0 17.529 C 16.0 16.834 16.166 16.223999 16.522 15.695 C 17.978 13.566 22.0 11.07 22.0 7.133 C 21.995 3.257 19.467 1.0 14.184 1.0 z " fill-opacity="0.3" stroke-opacity="0.3"/>
<path d="M 14.006 22.0 C 12.348 22.0 11.0 23.344 11.0 25.002 C 11.0 26.654 12.348 28.0 14.006 28.0 C 15.666 28.0 17.0 26.654 17.0 25.002 C 17.0 23.344 15.659 22.0 14.006 22.0 z M 14.184 2.0 C 12.668 2.0 10.939 2.471 9.0 3.0 L 9.0 5.928 C 10.711 5.414 12.187 4.965 13.434 4.965 C 16.046 4.965 17.262001 6.1540003 17.262001 8.379 C 17.262001 8.7439995 17.506 9.882999 14.813002 12.528999 C 12.983 14.269 12.0 15.794 12.0 18.287 L 12.0 20.0 L 16.0 20.0 L 16.0 18.529 C 16.0 17.834 16.166 17.223999 16.522 16.695 C 17.978 14.566 22.0 12.07 22.0 8.133 C 21.995 4.257 19.467 2.0 14.184 2.0 z " fill="#dedede"/>
<rect fill="none" height="30" width="30"/>
</svg>
