<?xml version="1.0" encoding="UTF-8"?>
<svg xmlns="http://www.w3.org/2000/svg" xmlns:xlink="http://www.w3.org/1999/xlink" baseProfile="tiny" contentScriptType="text/ecmascript" contentStyleType="text/css" height="52px" preserveAspectRatio="xMidYMid meet" version="1.1" viewBox="0 0 52 52" width="52px" x="0px" y="0px" zoomAndPan="magnify">
<defs>
<defs>
<linearGradient gradientUnits="userSpaceOnUse" x1="26.0005" x2="26.0005" y1="50.499001" y2="1.5015">
<stop offset="0" stop-color="#d0cbc5"/>
<stop offset="0.5031" stop-color="#fafcef"/>
<stop offset="0.9693" stop-color="#ffffff"/>
<stop offset="1" stop-color="#ffffff"/>
</linearGradient>
</defs>
</defs>
<path d="M 30.081 48.0 L 30.081 48.006 C 30.081 48.176 30.094 48.343002 30.119 48.508 C 30.494 45.985 33.684998 44.010998 37.572998 44.010998 C 39.113 44.010998 40.545 44.323997 41.733997 44.853996 L 41.733997 43.853996 C 40.545 43.323997 39.113 43.010998 37.572998 43.010998 C 33.438 43.011 30.086 45.244 30.081 48.0 z " fill="#ffffff"/>
<path d="M 13.712 18.69 L 13.467 17.758001 C 12.664 18.018002 12.081 18.763 12.081 19.653002 C 12.081 19.827002 12.110001 19.992002 12.152 20.153002 C 12.345 19.41 12.949 18.833 13.712 18.69 z " fill="#ffffff"/>
<rect fill="none" height="52" width="52" x="0" y="0"/>
<path d="M 6.58 25.154 L 32.232002 25.154 L 32.232002 24.501 L 32.238003 24.501 L 32.238003 21.501 L 32.232002 21.501 L 32.232002 18.203999 C 32.232002 18.186998 32.238003 18.170998 32.238003 18.154 L 8.58 18.154 C 8.58 17.991 8.556 17.835 8.518 17.684 L 40.58 9.272 L 40.345 8.371 L 40.326 8.305 L 39.056 3.469 L 38.802 2.501 L 4.949 11.382 L 5.203 12.349 L 6.211 16.19 C 5.283 16.364 4.58 17.175001 4.58 18.153 C 4.58 19.257 5.476 20.153 6.58 20.153 L 6.58 25.154 z M 35.773 4.331 L 39.053 8.638 L 35.91 9.463 L 32.629 5.155 L 35.773 4.331 z M 29.3 6.028 L 32.583 10.336 L 29.437 11.161 L 26.156 6.852 L 29.3 6.028 z M 22.826 7.726 L 26.109001 12.034 L 22.963001 12.859 L 19.683 8.551001 L 22.826 7.726001 z M 16.356 9.424001 L 19.638 13.732 L 16.493 14.556001 L 13.211 10.248001 L 16.356 9.424001 z M 9.883001 11.122001 L 13.165001 15.43 L 10.022001 16.255001 L 6.741001 11.9470005 L 9.883001 11.122001 z M 45.507004 18.908 C 42.588005 17.812 39.649002 17.036001 36.765003 16.603 C 36.479004 16.560001 36.188004 16.539001 35.901005 16.539001 C 34.999004 16.539001 34.268005 17.258001 34.241005 18.154001 C 34.241005 18.171001 34.237003 18.187002 34.237003 18.204 L 34.237003 42.353 C 33.047005 41.821 31.614004 41.509 30.075003 41.509 C 25.938004 41.509 22.588003 43.742 22.583002 46.497997 L 22.583002 46.504997 C 22.583002 49.262997 25.937002 51.497997 30.075003 51.497997 C 34.212 51.497997 37.565002 49.262997 37.565002 46.504997 L 37.565002 22.664 C 38.866 22.927 40.211002 23.279999 41.583004 23.717 C 42.205006 23.915998 42.830006 24.126 43.460003 24.362999 C 44.858 24.887999 46.178 25.48 47.421 26.108 L 47.421 19.675 C 46.795 19.412 46.16 19.154 45.507 18.908 z M 39.564 46.501 L 39.580997 46.501 C 40.684998 46.501 41.580997 45.605 41.580997 44.501 L 41.580997 26.501 L 39.564 26.501 L 39.564 46.501 z M 32.234 39.689 L 32.234 26.501 L 6.58 26.501 L 6.58 44.501 C 6.58 45.605 7.476 46.501 8.58 46.501 L 20.58 46.501 C 20.584 42.581 24.751999 39.512 30.071999 39.512 C 30.805998 39.512 31.529 39.571 32.233997 39.689 z " fill="#ffffff" fill-opacity="1" stroke-opacity="0.29999999999999999"/>
</svg>
