<?xml version="1.0" encoding="UTF-8"?>
<svg xmlns="http://www.w3.org/2000/svg" xmlns:xlink="http://www.w3.org/1999/xlink" baseProfile="tiny" contentScriptType="text/ecmascript" contentStyleType="text/css" height="30px" preserveAspectRatio="xMidYMid meet" version="1.1" viewBox="0 0 30 30" width="30px" x="0px" y="0px" zoomAndPan="magnify">
<path d="M 14.0 27.0 C 12.897 27.0 12.0 26.104 12.0 25.0 L 12.0 18.0 L 5.0 18.0 C 3.8969998 18.0 3.0 17.104 3.0 16.0 L 3.0 14.0 C 3.0 12.897 3.897 12.0 5.0 12.0 L 12.0 12.0 L 12.0 5.0 C 12.0 3.8969998 12.897 3.0 14.0 3.0 L 16.0 3.0 C 17.102 3.0 18.0 3.897 18.0 5.0 L 18.0 12.0 L 25.0 12.0 C 26.102 12.0 27.0 12.897 27.0 14.0 L 27.0 16.0 C 27.0 17.104 26.102 18.0 25.0 18.0 L 18.0 18.0 L 18.0 25.0 C 18.0 26.104 17.102 27.0 16.0 27.0 L 14.0 27.0 z " fill-opacity="0.15" stroke-opacity="0.15"/>
<path d="M 25.0 12.0 L 17.0 12.0 L 17.0 4.0 C 17.0 3.45 16.549 3.0 16.0 3.0 L 14.0 3.0 C 13.449 3.0 13.0 3.45 13.0 4.0 L 13.0 12.0 L 5.0 12.0 C 4.45 12.0 4.0 12.45 4.0 13.0 L 4.0 15.0 C 4.0 15.55 4.45 16.0 5.0 16.0 L 13.0 16.0 L 13.0 24.0 C 13.0 24.55 13.449 25.0 14.0 25.0 L 16.0 25.0 C 16.549 25.0 17.0 24.55 17.0 24.0 L 17.0 16.0 L 25.0 16.0 C 25.549 16.0 26.0 15.55 26.0 15.0 L 26.0 13.0 C 26.0 12.45 25.549 12.0 25.0 12.0 z " fill-opacity="0.3" stroke-opacity="0.3"/>
<path d="M 25.0 13.0 L 17.0 13.0 L 17.0 5.0 C 17.0 4.45 16.549 4.0 16.0 4.0 L 14.0 4.0 C 13.449 4.0 13.0 4.45 13.0 5.0 L 13.0 13.0 L 5.0 13.0 C 4.45 13.0 4.0 13.45 4.0 14.0 L 4.0 16.0 C 4.0 16.55 4.45 17.0 5.0 17.0 L 13.0 17.0 L 13.0 25.0 C 13.0 25.55 13.449 26.0 14.0 26.0 L 16.0 26.0 C 16.549 26.0 17.0 25.55 17.0 25.0 L 17.0 17.0 L 25.0 17.0 C 25.549 17.0 26.0 16.55 26.0 16.0 L 26.0 14.0 C 26.0 13.45 25.549 13.0 25.0 13.0 z " fill="#dedede"/>
<rect fill="none" height="30" width="30"/>
</svg>
