<?xml version="1.0" encoding="UTF-8"?>
<svg xmlns="http://www.w3.org/2000/svg" xmlns:xlink="http://www.w3.org/1999/xlink" baseProfile="tiny" contentScriptType="text/ecmascript" contentStyleType="text/css" height="30px" preserveAspectRatio="xMidYMid meet" version="1.1" viewBox="0 0 30 30" width="30px" x="0px" y="0px" zoomAndPan="magnify">
<path d="M 28.707 0.292 C 28.316 -0.09799999 27.686 -0.09799999 27.293001 0.292 L 1.2920017 26.292 C 0.9030017 26.685999 0.9030017 27.313 1.2920017 27.706 C 1.489 27.904 1.745 28.0 2.0 28.0 C 2.255 28.0 2.511 27.9 2.7059999 27.708 L 28.706999 1.7080002 C 29.098 1.314 29.098 0.685 28.707 0.292 z M 3.0 22.438 L 1.0 22.438 L 1.0 25.171999 L 3.0 23.171 L 3.0 22.438 z M 3.0 2.0 L 6.5629997 2.0 L 6.5629997 0.0 L 1.0 0.0 L 1.0 5.563 L 3.0 5.563 L 3.0 2.0 z M 14.471 10.445 L 14.723 11.448 L 16.838 9.333 L 16.532 8.235001 L 13.063999 8.235001 L 10.966 15.204 L 14.033999 12.136001 L 14.471 10.445 z M 1.607 14.215 C 1.607 16.467001 2.035 18.088 2.8899999 19.076 C 3.5609999 19.853 4.502 20.312 5.6899996 20.48 L 7.2169995 18.953999 C 7.2009997 18.953999 7.1829996 18.957998 7.1679997 18.957998 C 6.273 18.957998 5.6089997 18.597998 5.1769996 17.869999 C 4.7429996 17.144 4.5279994 15.899999 4.5279994 14.132999 C 4.5279994 12.584999 4.7389994 11.459999 5.1659994 10.758999 C 5.5909996 10.057999 6.2369995 9.708999 7.103999 9.708999 C 7.718999 9.708999 8.343999 9.808999 8.976999 10.010999 L 8.976999 8.384 C 8.18 8.198 7.443 8.105 6.768 8.105 C 5.057 8.105 3.7680001 8.618 2.903 9.643 C 2.039 10.668 1.607 12.192 1.607 14.215 z M 26.171 0.0 L 23.438 0.0 L 23.438 2.0 L 24.171 2.0 L 26.171 0.0 z M 27.0 5.563 L 29.0 5.563 L 29.0 2.829 L 27.0 4.829 L 27.0 5.563 z M 27.0 26.0 L 23.437 26.0 L 23.437 28.0 L 29.0 28.0 L 29.0 22.437 L 27.0 22.437 L 27.0 26.0 z M 24.032 15.0 L 27.468 15.0 L 27.468 13.397 L 24.032 13.397 L 24.032 9.848 L 28.392 9.848 L 28.392 8.236 L 23.592 8.236 L 21.234 10.595 L 21.234 20.431 L 24.032 20.431 L 24.032 15.0 z M 15.857 15.971 L 13.925 17.903 L 16.326 17.903 L 16.965 20.432 L 19.925 20.432 L 18.067999 13.759999 L 15.857 15.971 z M 11.938 20.432 L 12.125999 19.703 L 11.398 20.432 L 11.938 20.432 z M 3.829 28.0 L 6.5620003 28.0 L 6.5620003 26.0 L 5.829 26.0 L 3.829 28.0 z " fill-opacity="0.3" stroke-opacity="0.3"/>
<rect fill="none" height="30" width="30"/>
<path d="M 23.438 30.0 C 22.885 30.0 22.438 29.553 22.438 29.0 L 22.438 27.0 C 22.438 26.447 22.885 26.0 23.438 26.0 L 26.0 26.0 L 26.0 23.437 C 26.0 22.883 26.447 22.437 27.0 22.437 L 29.0 22.437 C 29.553 22.437 30.0 22.883 30.0 23.437 L 30.0 29.0 C 30.0 29.553 29.553 30.0 29.0 30.0 L 23.438 30.0 z M 3.829 30.0 C 3.543 30.0 3.277 29.878 3.091 29.675 C 2.767 29.889 2.392 30.0 2.0 30.0 C 1.464 30.0 0.96099997 29.792 0.584 29.413 C -0.09100002 28.732 -0.17699999 27.684 0.324 26.909 C 0.121 26.723 0.0 26.457 0.0 26.172 L 0.0 23.438002 C 0.0 22.885002 0.448 22.438002 1.0 22.438002 L 3.0 22.438002 C 3.47 22.438002 3.865 22.762001 3.9720001 23.201002 L 4.8380003 22.335003 C 3.7230003 22.060003 2.8160002 21.522003 2.1340003 20.731003 C 1.1070004 19.543003 0.6080003 17.740004 0.6080003 15.215003 C 0.6080003 12.959003 1.1230003 11.204002 2.1390004 9.999002 C 3.2 8.742 4.757 8.105 6.768 8.105 C 7.5160003 8.105 8.335 8.207999 9.204 8.41 C 9.657001 8.514999 9.977 8.919 9.977 9.384 L 9.977 11.011 C 9.977 11.33 9.825 11.63 9.567 11.818 C 9.394 11.945 9.187 12.011 8.977 12.011 C 8.875 12.011 8.773001 11.995 8.673 11.964 C 8.143001 11.795 7.6150002 11.71 7.104 11.71 C 6.586 11.71 6.262 11.88 6.021 12.278 C 5.796 12.648 5.528 13.443 5.528 15.132999 C 5.528 17.095999 5.804 17.970999 6.036 18.358 C 6.2869997 18.78 6.625 18.96 7.1689997 18.96 C 7.4459996 18.96 7.7159996 19.073 7.9089994 19.266998 L 10.259999 16.913998 C 10.004999 16.657997 9.901999 16.275997 10.009999 15.918998 L 12.108 8.949998 C 12.235 8.526998 12.624 8.237998 13.066 8.237998 L 16.534 8.237998 C 16.982 8.237998 17.377 8.536998 17.497 8.969998 L 17.65 9.523998 L 23.201 3.973998 C 22.764 3.865 22.438 3.47 22.438 3.0 L 22.438 1.0 C 22.438 0.448 22.885 0.0 23.438 0.0 L 26.171 0.0 C 26.456 0.0 26.723 0.122 26.907999 0.324 C 27.23 0.113 27.607 0.0 28.001 0.0 C 28.534 0.0 29.036 0.208 29.414 0.585 C 30.091 1.265 30.178 2.316 29.675999 3.092 C 29.879 3.278 30.0 3.543 30.0 3.829 L 30.0 6.5629997 C 30.0 7.115 29.553 7.5629997 29.0 7.5629997 L 27.0 7.5629997 C 26.529 7.5629997 26.137 7.238 26.027 6.8009996 L 24.592001 8.236 L 28.392 8.236 C 28.945 8.236 29.392 8.684 29.392 9.236 L 29.392 10.848 C 29.392 11.4 28.945 11.848 28.392 11.848 L 25.032 11.848 L 25.032 13.396999 L 27.468 13.396999 C 28.022001 13.396999 28.468 13.844999 28.468 14.396999 L 28.468 16.0 C 28.468 16.553 28.022001 17.0 27.468 17.0 L 25.032 17.0 L 25.032 21.432 C 25.032 21.984999 24.585 22.432 24.032 22.432 L 21.234 22.432 C 20.984 22.432 20.755 22.34 20.581 22.189999 C 20.4 22.343998 20.168999 22.432 19.927 22.432 L 16.967 22.432 C 16.508999 22.432 16.109999 22.119999 15.996999 21.677 L 15.548999 19.903 L 13.926999 19.903 C 13.655999 19.903 13.403999 19.795 13.219999 19.61 L 12.832999 19.998001 C 13.0789995 20.244001 13.183999 20.606 13.093999 20.955002 L 12.905999 21.684002 C 12.791999 22.124002 12.393999 22.434002 11.937999 22.434002 L 11.397999 22.434002 C 11.126999 22.434002 10.874999 22.325003 10.689999 22.141003 L 6.8 26.029 C 7.2380004 26.133999 7.563 26.529 7.563 27.0 L 7.563 29.0 C 7.563 29.553 7.1150002 30.0 6.563 30.0 L 3.829 30.0 z M 18.775 14.052 C 18.896 14.172 18.984 14.3220005 19.032 14.491 L 20.234 18.806 L 20.234 12.593 L 18.775 14.052 z M 1.0 7.563 C 0.448 7.563 0.0 7.1150002 0.0 6.563 L 0.0 1.0 C 0.0 0.448 0.448 0.0 1.0 0.0 L 6.563 0.0 C 7.1150002 0.0 7.563 0.448 7.563 1.0 L 7.563 3.0 C 7.563 3.552 7.1150002 4.0 6.563 4.0 L 4.0 4.0 L 4.0 6.5629997 C 4.0 7.115 3.552 7.5629997 3.0 7.5629997 L 1.0 7.5629997 z " fill-opacity="0.15" stroke-opacity="0.15"/>
<path d="M 28.707 1.292 C 28.316 0.90200007 27.686 0.90200007 27.293001 1.292 L 1.2920017 27.292 C 0.9030017 27.685999 0.9030017 28.313 1.2920017 28.706 C 1.489 28.904 1.745 29.0 2.0 29.0 C 2.255 29.0 2.511 28.9 2.7059999 28.708 L 28.706999 2.7080002 C 29.098 2.314 29.098 1.685 28.707 1.292 z M 3.0 23.438 L 1.0 23.438 L 1.0 26.171999 L 3.0 24.171 L 3.0 23.438 z M 3.0 3.0 L 6.5629997 3.0 L 6.5629997 1.0 L 1.0 1.0 L 1.0 6.563 L 3.0 6.563 L 3.0 3.0 z M 14.471 11.445 L 14.723 12.448 L 16.838 10.333 L 16.532 9.235001 L 13.063999 9.235001 L 10.966 16.204 L 14.033999 13.136001 L 14.471 11.445 z M 1.607 15.215 C 1.607 17.467001 2.035 19.088 2.8899999 20.076 C 3.5609999 20.853 4.502 21.312 5.6899996 21.48 L 7.2169995 19.953999 C 7.2009997 19.953999 7.1829996 19.957998 7.1679997 19.957998 C 6.273 19.957998 5.6089997 19.597998 5.1769996 18.869999 C 4.7429996 18.144 4.5279994 16.9 4.5279994 15.132999 C 4.5279994 13.584999 4.7389994 12.459999 5.1659994 11.758999 C 5.5909996 11.057999 6.2369995 10.708999 7.103999 10.708999 C 7.718999 10.708999 8.343999 10.808999 8.976999 11.010999 L 8.976999 9.384 C 8.18 9.198 7.443 9.105 6.768 9.105 C 5.057 9.105 3.7680001 9.618 2.903 10.643 C 2.039 11.668 1.607 13.192 1.607 15.215 z M 26.171 1.0 L 23.438 1.0 L 23.438 3.0 L 24.171 3.0 L 26.171 1.0 z M 27.0 6.563 L 29.0 6.563 L 29.0 3.829 L 27.0 5.829 L 27.0 6.563 z M 27.0 27.0 L 23.437 27.0 L 23.437 29.0 L 29.0 29.0 L 29.0 23.437 L 27.0 23.437 L 27.0 27.0 z M 24.032 16.0 L 27.468 16.0 L 27.468 14.397 L 24.032 14.397 L 24.032 10.848001 L 28.392 10.848001 L 28.392 9.236 L 23.592 9.236 L 21.234 11.595 L 21.234 21.431 L 24.032 21.431 L 24.032 16.0 z M 15.857 16.971 L 13.925 18.903 L 16.326 18.903 L 16.965 21.432 L 19.925 21.432 L 18.067999 14.759999 L 15.857 16.971 z M 11.938 21.432 L 12.125999 20.703 L 11.398 21.432 L 11.938 21.432 z M 3.829 29.0 L 6.5620003 29.0 L 6.5620003 27.0 L 5.829 27.0 L 3.829 29.0 z " fill-opacity="0.15" stroke-opacity="0.15"/>
<path d="M 28.707 1.292 C 28.316 0.90200007 27.686 0.90200007 27.293001 1.292 L 1.2920017 27.292 C 0.9030017 27.685999 0.9030017 28.313 1.2920017 28.706 C 1.489 28.904 1.745 29.0 2.0 29.0 C 2.255 29.0 2.511 28.9 2.7059999 28.708 L 28.706999 2.7080002 C 29.098 2.314 29.098 1.685 28.707 1.292 z M 3.0 23.438 L 1.0 23.438 L 1.0 26.171999 L 3.0 24.171 L 3.0 23.438 z M 3.0 3.0 L 6.5629997 3.0 L 6.5629997 1.0 L 1.0 1.0 L 1.0 6.563 L 3.0 6.563 L 3.0 3.0 z M 14.471 11.445 L 14.723 12.448 L 16.838 10.333 L 16.532 9.235001 L 13.063999 9.235001 L 10.966 16.204 L 14.033999 13.136001 L 14.471 11.445 z M 1.607 15.215 C 1.607 17.467001 2.035 19.088 2.8899999 20.076 C 3.5609999 20.853 4.502 21.312 5.6899996 21.48 L 7.2169995 19.953999 C 7.2009997 19.953999 7.1829996 19.957998 7.1679997 19.957998 C 6.273 19.957998 5.6089997 19.597998 5.1769996 18.869999 C 4.7429996 18.144 4.5279994 16.9 4.5279994 15.132999 C 4.5279994 13.584999 4.7389994 12.459999 5.1659994 11.758999 C 5.5909996 11.057999 6.2369995 10.708999 7.103999 10.708999 C 7.718999 10.708999 8.343999 10.808999 8.976999 11.010999 L 8.976999 9.384 C 8.18 9.198 7.443 9.105 6.768 9.105 C 5.057 9.105 3.7680001 9.618 2.903 10.643 C 2.039 11.668 1.607 13.192 1.607 15.215 z M 26.171 1.0 L 23.438 1.0 L 23.438 3.0 L 24.171 3.0 L 26.171 1.0 z M 27.0 6.563 L 29.0 6.563 L 29.0 3.829 L 27.0 5.829 L 27.0 6.563 z M 27.0 27.0 L 23.437 27.0 L 23.437 29.0 L 29.0 29.0 L 29.0 23.437 L 27.0 23.437 L 27.0 27.0 z M 24.032 16.0 L 27.468 16.0 L 27.468 14.397 L 24.032 14.397 L 24.032 10.848001 L 28.392 10.848001 L 28.392 9.236 L 23.592 9.236 L 21.234 11.595 L 21.234 21.431 L 24.032 21.431 L 24.032 16.0 z M 15.857 16.971 L 13.925 18.903 L 16.326 18.903 L 16.965 21.432 L 19.925 21.432 L 18.067999 14.759999 L 15.857 16.971 z M 11.938 21.432 L 12.125999 20.703 L 11.398 21.432 L 11.938 21.432 z M 3.829 29.0 L 6.5620003 29.0 L 6.5620003 27.0 L 5.829 27.0 L 3.829 29.0 z " fill="#ffffff"/>
<path d="M 2.0 29.0 C 1.744 29.0 1.4860001 28.902 1.293 28.707 C 0.9 28.316 0.9 27.684 1.293 27.293001 L 27.293 1.2930012 C 27.684 0.90200114 28.314999 0.90200114 28.706 1.2930012 C 29.098 1.6840012 29.098 2.3160012 28.706 2.7070012 L 2.7059994 28.707 C 2.513 28.902 2.256 29.0 2.0 29.0 L 2.0 29.0 z " fill="#fa664b"/>
</svg>
