<?xml version="1.0" encoding="UTF-8"?>
<svg xmlns="http://www.w3.org/2000/svg" xmlns:xlink="http://www.w3.org/1999/xlink" baseProfile="tiny" contentScriptType="text/ecmascript" contentStyleType="text/css" height="30px" preserveAspectRatio="xMidYMid meet" version="1.1" viewBox="0 0 30 30" width="30px" x="0px" y="0px" zoomAndPan="magnify">
<path d="M 14.0 28.001797 C 13.465 28.001797 12.963 27.7695 12.586 27.34643 L 3.0 16.58901 C 2.22 15.714816 2.22 14.28962 3.0 13.415425 L 12.586 2.6580043 C 12.963 2.2349343 13.465 2.0026388 14.0 2.0026388 C 14.535 2.0026388 15.037 2.2349346 15.414 2.6580043 L 17.0 4.437815 C 17.78 5.31201 17.78 6.7372055 17.0 7.6114 L 13.414 11.635614 L 10.522051 15.016484 L 17.0 22.393034 C 17.78 23.26723 17.78 24.692425 17.0 25.566622 L 15.414 27.346432 C 15.037 27.769505 14.535 28.0018 14.0 28.0018 z " fill-opacity="0.15" stroke-opacity="0.15"/>
<path d="M 8.775424 9.388834 L 11.0 11.635614 L 16.293 5.6958027 C 16.682 5.2592664 16.682 4.5455456 16.293 4.1090093 L 14.707 2.3291993 C 14.318 1.8926628 13.682 1.8926628 13.292999 2.3291993 L 3.7069988 13.08662 C 3.3179991 13.523156 3.3179991 14.2368765 3.7069988 14.673414 L 13.292999 25.430836 C 13.681999 25.867373 14.317999 25.867373 14.706999 25.430836 L 16.293 23.651022 C 16.682 23.214483 16.682 22.500769 16.293 22.064232 L 11.0 16.124418 L 8.775424 13.877638 C 8.366612 13.464746 9.775424 13.37377 9.775424 12.755437 L 9.775424 10.511035 C 9.775424 9.894946 8.3666115 8.975942 8.775424 9.388834 z " fill-opacity="0.3" stroke-opacity="0.3"/>
<path d="M 11.0 12.757816 L 16.293 6.818004 C 16.682 6.381468 16.682 5.6677465 16.293 5.2312107 L 14.707 3.4514005 C 14.318 3.0148642 13.682 3.0148642 13.292999 3.4514005 L 3.7069988 14.208821 C 3.3179991 14.645357 3.3179991 15.359077 3.7069988 15.795615 L 13.292999 26.553036 C 13.681999 26.989573 14.317999 26.989573 14.706999 26.553036 L 16.293 24.773224 C 16.682 24.336687 16.682 23.622969 16.293 23.186432 L 11.0 17.24662 C 8.934582 14.981679 9.193942 14.910231 11.0 12.757816 z " fill="#dedede"/>
<rect fill="none" height="33.177967" width="30" x="0" y="-1.3983051"/>
</svg>
