<?xml version="1.0" encoding="UTF-8"?>
<svg xmlns="http://www.w3.org/2000/svg" xmlns:xlink="http://www.w3.org/1999/xlink" baseProfile="tiny" contentScriptType="text/ecmascript" contentStyleType="text/css" height="30px" preserveAspectRatio="xMidYMid meet" version="1.1" viewBox="0 0 30 30" width="30px" x="0px" y="0px" zoomAndPan="magnify">
<path d="M 30.0 2.0 C 30.0 1.4660001 29.793 0.964 29.414 0.58599997 C 29.037 0.208 28.535 0.0 28.0 0.0 C 27.467 0.0 26.965 0.208 26.586 0.586 L 21.875 5.297 C 19.708 4.455 17.39 4.0 15.0 4.0 C 9.931 4.0 5.162 5.979 1.57 9.57 C 0.7900001 10.349 0.7900001 11.6189995 1.57 12.398 C 1.9480001 12.776 2.45 12.984 2.9840002 12.984 C 3.5180004 12.984 4.0200005 12.776 4.3980002 12.398 C 7.235 9.563 11.0 8.0 15.0 8.0 C 16.266 8.0 17.5 8.174 18.695 8.477 L 17.873 9.3 C 16.937 9.105 15.976 9.0 15.0 9.0 C 11.266 9.0 7.752 10.458 5.1049995 13.104 C 4.325 13.883 4.325 15.153 5.1049995 15.932 C 5.4829993 16.31 5.9849997 16.518 6.5189996 16.518 C 7.0529995 16.518 7.5549994 16.31 7.9329996 15.931999 C 9.617 14.249 11.790999 13.2439995 14.129 13.041999 L 0.586 26.586 C 0.209 26.964 0.0 27.466 0.0 28.0 C 0.0 28.534 0.209 29.036 0.586 29.414 C 0.964 29.792 1.466 30.0 2.0 30.0 C 2.534 30.0 3.036 29.792 3.414 29.414 L 11.283 21.545 C 11.105 21.997 11.0 22.485 11.0 23.0 C 11.0 25.206 12.795 27.0 15.0 27.0 C 17.207 27.0 19.0 25.206 19.0 23.0 C 19.0 20.794 17.207 19.0 15.0 19.0 C 14.486 19.0 13.996 19.105 13.545 19.283 L 14.811 18.018002 C 14.873 18.017 14.935 18.0 15.0 18.0 C 16.332 18.0 17.588 18.521 18.533 19.467 C 18.912 19.845 19.414001 20.053 19.947 20.053 C 20.482 20.053 20.984001 19.845 21.361 19.467 C 22.142 18.688 22.142 17.418 21.361 16.639 C 20.455 15.732 19.386 15.05 18.223999 14.604 L 18.991999 13.837 C 20.123 14.331 21.165998 15.032 22.067999 15.933 C 22.445 16.310999 22.946999 16.519 23.481998 16.519 C 24.015 16.519 24.516998 16.310999 24.895998 15.932999 C 25.674997 15.153998 25.674997 13.883999 24.895998 13.104999 C 24.008999 12.2179985 23.016998 11.477999 21.959997 10.867998 L 22.686996 10.140998 C 23.731997 10.768998 24.715996 11.513998 25.600996 12.398998 C 25.979996 12.7769985 26.481997 12.984999 27.014996 12.984999 C 27.549995 12.984999 28.051996 12.7769985 28.428995 12.398998 C 29.209995 11.619998 29.209995 10.349998 28.428995 9.570998 C 27.549995 8.692998 26.600996 7.914998 25.594995 7.2339983 L 29.412996 3.4149983 C 29.792 3.036 30.0 2.534 30.0 2.0 z " fill-opacity="0.15" stroke-opacity="0.15"/>
<path d="M 5.812 12.812 C 5.421 13.203 5.421 13.835 5.812 14.226 C 6.2029996 14.617 6.836 14.617 7.226 14.226 C 9.172 12.28 11.717 11.165 14.437 11.028 L 16.386 9.078 C 15.929 9.029 15.466 9.0 15.0 9.0 C 11.533 9.0 8.27 10.354 5.812 12.812 z M 3.691 10.691 C 6.717 7.666 10.734 6.0 15.0 6.0 C 16.354 6.0 17.676 6.186 18.955 6.511 L 20.572 4.893 C 18.794 4.313 16.921 4.0 15.0 4.0 C 10.199 4.0 5.681 5.874 2.277 9.277 C 1.8859999 9.668 1.8859999 10.3 2.277 10.691 C 2.668 11.082 3.301 11.082 3.691 10.691 z M 15.0 19.0 C 13.344 19.0 12.0 20.343 12.0 22.0 C 12.0 23.656 13.344 25.0 15.0 25.0 C 16.658 25.0 18.0 23.656 18.0 22.0 C 18.0 20.343 16.658 19.0 15.0 19.0 z M 25.287 7.249 L 23.857 8.678 C 24.728 9.26 25.550001 9.933001 26.308 10.692 C 26.503 10.887 26.759 10.985001 27.015001 10.985001 C 27.271002 10.985001 27.527 10.887001 27.722002 10.692 C 28.113003 10.301001 28.113003 9.669001 27.722002 9.278 C 26.964 8.52 26.144 7.852 25.287 7.249 z M 21.673 10.861 L 20.218 12.317 C 21.146 12.819 22.007 13.458 22.775 14.225 C 22.97 14.42 23.226 14.518001 23.482 14.518001 C 23.738 14.518001 23.994 14.420001 24.189001 14.225 C 24.580002 13.834001 24.580002 13.202001 24.189001 12.811001 C 23.423 12.048 22.576 11.404 21.673 10.861 z M 17.964 14.571 L 16.37 16.164 C 17.446001 16.416 18.436 16.956999 19.239 17.76 C 19.434 17.955 19.69 18.053 19.946001 18.053 C 20.202002 18.053 20.458 17.955 20.653002 17.76 C 21.044003 17.369 21.044003 16.737 20.653002 16.346 C 19.873 15.564 18.958 14.969 17.964 14.571 z M 28.707 0.293 C 28.316 -0.09799999 27.684 -0.09799999 27.293001 0.293 L 1.2930012 26.293 C 0.90200114 26.684 0.90200114 27.316 1.2930012 27.706999 C 1.488 27.902 1.744 28.0 2.0 28.0 C 2.256 28.0 2.512 27.902 2.707 27.707 L 28.707 1.7070007 C 29.097 1.316 29.097 0.684 28.707 0.293 z " fill-opacity="0.3" stroke-opacity="0.3"/>
<rect fill="none" height="30" width="30"/>
<path d="M 15.0 10.0 C 11.533 10.0 8.27 11.354 5.8120003 13.812 C 5.4210005 14.203 5.4210005 14.835 5.8120003 15.226 C 6.203 15.617 6.8360004 15.617 7.2260003 15.226 C 9.172 13.28 11.717001 12.165 14.437 12.028 L 16.386 10.078 C 15.929 10.029 15.466 10.0 15.0 10.0 z " fill="#ffffff"/>
<path d="M 3.691 11.691 C 6.717 8.666 10.734 7.0 15.0 7.0 C 16.354 7.0 17.676 7.186 18.955 7.511 L 20.572 5.893 C 18.794 5.313 16.921 5.0 15.0 5.0 C 10.198999 5.0 5.6809998 6.874 2.2779999 10.277 C 1.8869998 10.668 1.8869998 11.3 2.2779999 11.691 C 2.669 12.082 3.301 12.082 3.691 11.691 z " fill="#ffffff"/>
<circle cx="15" cy="23" fill="#ffffff" r="3"/>
<path d="M 25.287 8.249 L 23.857 9.6779995 C 24.728 10.259999 25.550001 10.933 26.308 11.691999 C 26.503 11.886999 26.759 11.985 27.015001 11.985 C 27.271002 11.985 27.527 11.887 27.722002 11.691999 C 28.113003 11.301 28.113003 10.669 27.722002 10.278 C 26.964 9.52 26.144 8.852 25.287 8.249 z " fill="#ffffff"/>
<path d="M 21.673 11.861 L 20.218 13.317 C 21.146 13.819 22.007 14.458 22.775 15.225 C 22.97 15.42 23.226 15.518001 23.482 15.518001 C 23.738 15.518001 23.994 15.420001 24.189001 15.225 C 24.580002 14.834001 24.580002 14.202001 24.189001 13.811001 C 23.423 13.048 22.576 12.404 21.673 11.861 z " fill="#ffffff"/>
<path d="M 17.964 15.571 L 16.37 17.164 C 17.446001 17.416 18.436 17.956999 19.239 18.76 C 19.434 18.955 19.69 19.053 19.946001 19.053 C 20.202002 19.053 20.458 18.955 20.653002 18.76 C 21.044003 18.369 21.044003 17.737 20.653002 17.346 C 19.873 16.564 18.958 15.969 17.964 15.571 z " fill="#ffffff"/>
<path d="M 2.0 29.0 C 1.744 29.0 1.4879999 28.902 1.293 28.707 C 0.90199995 28.316 0.90199995 27.684 1.293 27.293001 L 27.293 1.2930012 C 27.684 0.90200114 28.316 0.90200114 28.706999 1.2930012 C 29.097998 1.6840012 29.098 2.3160012 28.706999 2.7070012 L 2.7069988 28.707 C 2.512 28.902 2.256 29.0 2.0 29.0 L 2.0 29.0 z " fill="#fa664b"/>
</svg>
