<?xml version="1.0" encoding="UTF-8"?>
<svg xmlns="http://www.w3.org/2000/svg" xmlns:xlink="http://www.w3.org/1999/xlink" baseProfile="tiny" contentScriptType="text/ecmascript" contentStyleType="text/css" height="52px" preserveAspectRatio="xMidYMid meet" version="1.1" viewBox="0 0 52 52" width="52px" x="0px" y="0px" zoomAndPan="magnify">
<defs>
<linearGradient gradientTransform="matrix(1,0,0,-1,-291,-328)" gradientUnits="userSpaceOnUse" id="SVGID_1_" x1="317" x2="317" y1="-373.4971" y2="-334.50391">
<stop offset="0" stop-color="#d0cbc5"/>
<stop offset="0.5031" stop-color="#fafcef"/>
<stop offset="0.9693" stop-color="#ffffff"/>
<stop offset="1" stop-color="#ffffff"/>
</linearGradient>
<defs>
<linearGradient gradientTransform="matrix(1,0,0,-1,-291,-328)" gradientUnits="userSpaceOnUse" id="SVGID_1_" x1="317" x2="317" y1="-373.4971" y2="-334.50391">
<stop offset="0" stop-color="#d0cbc5"/>
<stop offset="0.5031" stop-color="#fafcef"/>
<stop offset="0.9693" stop-color="#ffffff"/>
<stop offset="1" stop-color="#ffffff"/>
</linearGradient>
</defs>
<linearGradient gradientTransform="matrix(1,0,0,-1,-291,-328)" gradientUnits="userSpaceOnUse" id="SVGID_1_" x1="317" x2="317" y1="-373.4971" y2="-334.50391">
<stop offset="0" stop-color="#d0cbc5"/>
<stop offset="0.5031" stop-color="#fafcef"/>
<stop offset="0.9693" stop-color="#ffffff"/>
<stop offset="1" stop-color="#ffffff"/>
</linearGradient>
</defs>
<path d="M 39.611 22.497 L 10.899 22.497 C 7.834 22.497 6.1800003 23.226 5.54 25.383 C 5.154 26.682 2.064 38.633 1.2129998 41.958 C 1.1759999 42.104 1.1419998 42.236 1.1129998 42.348 C 0.5809998 44.434 2.0499997 46.497 4.0499997 46.497 C 4.0499997 46.497 15.699999 46.497 23.696 46.497 L 33.517998 46.497 C 34.517998 46.497 36.517998 46.497 37.123997 44.497 C 37.885 41.993 38.890995 38.249 40.638996 31.353 C 40.823997 30.628 41.015995 29.868 41.214996 29.073 C 41.411995 28.288 41.614998 27.482 41.829998 26.624 C 41.907997 26.314001 41.954998 26.039001 41.997997 25.768 C 42.17 24.682 42.072998 23.903 41.739998 23.387 C 41.336998 22.755999 40.6 22.497 39.610996 22.497 z M 3.0009956 27.111 C 3.0199957 27.041 3.0369956 26.976 3.0549955 26.908 C 3.1529956 26.541 3.2419956 26.210001 3.3179955 25.922 C 3.3339956 25.865002 3.3489954 25.809 3.3629956 25.755001 C 3.3809955 25.692001 3.3959956 25.632002 3.4119956 25.574001 C 3.4309957 25.507002 3.4479957 25.443 3.4649956 25.383001 C 3.4769957 25.338001 3.4889956 25.293001 3.5009956 25.251001 C 3.5179956 25.191002 3.5309956 25.141 3.5449955 25.090002 C 3.5549955 25.059002 3.5639956 25.026003 3.5709956 24.997002 C 3.5919955 24.924002 3.6089957 24.861002 3.6239955 24.812002 C 4.9049954 20.497002 9.260996 20.497002 10.899996 20.497002 L 23.129 20.497002 C 23.128 20.485 23.126 20.475 23.125 20.462 L 23.07 18.876 C 23.067999 18.800999 23.07 18.726 23.076 18.651 C 23.213 17.002998 24.131 16.278 25.004 15.912999 L 19.8 15.912999 C 19.8 14.808999 18.904 13.912999 17.8 13.912999 L 6.799999 13.912999 C 5.695999 13.912999 4.799999 14.808999 4.799999 15.912999 L 3.003 15.912999 C 1.899 15.912999 1.003 16.809 1.003 17.912998 L 1.003 34.767 C 1.136 34.25 1.272 33.732 1.407 33.209 C 1.992 30.957 2.574 28.727 3.001 27.111 z M 50.95 18.198 C 50.902 16.866 50.003 16.911 48.894 16.743 C 47.597 16.544 47.136 15.446 46.515 14.442 C 45.833 13.338 45.325 12.526 45.529 11.359 C 45.447 10.914 45.466 10.44 45.646 9.879 C 45.698 9.715 45.741 9.569 45.777 9.431 C 45.663 9.199 45.435 8.988 45.043 8.758 C 44.383 8.373 43.691 8.031 43.018 7.672 C 41.961 7.111 41.497 8.076 40.903 8.817 C 39.964 9.993 38.538 9.633 37.215 9.739 C 36.094 9.827 35.148 9.743 34.364 8.884 C 33.569 8.009 33.199 7.511 32.061 8.163 C 31.457 8.5130005 30.873001 8.903 30.276001 9.27 C 29.967001 9.461 29.788 9.657001 29.684002 9.860001 C 29.776001 10.142 29.910002 10.443001 30.038002 10.776001 C 30.226002 11.255001 30.221003 11.685001 30.123001 12.094001 C 30.419 13.3550005 29.488 14.310001 28.973001 15.429001 C 28.893002 15.603001 28.811 15.762001 28.725002 15.913001 C 28.239002 16.784 27.645002 17.293001 26.585003 17.521002 C 25.600002 17.736002 25.147003 17.899002 25.068003 18.817001 C 25.085003 19.345001 25.107002 19.874 25.124002 20.402 C 25.125002 20.438 25.134003 20.463001 25.136002 20.496 L 30.79 20.496 C 30.766 20.25 30.75 20.001 30.75 19.749 C 30.75 19.581001 30.766 19.415 30.775 19.249 C 30.763 19.083 30.75 18.917 30.75 18.749 C 30.75 17.747 30.964 16.788 31.346 15.913 C 32.467 13.337 35.052002 11.497 38.001 11.497 C 41.952 11.497 45.252 14.798 45.252 18.749 C 45.252 18.917 45.236 19.083 45.226997 19.249 C 45.239 19.415 45.252 19.581001 45.252 19.749 C 45.252 21.234001 44.786 22.626001 43.994 23.786001 C 44.166 24.715002 44.098 25.812 43.771 27.109001 C 43.458 28.359001 43.163 29.529001 42.884 30.630001 C 43.079 30.693 43.287 30.688002 43.515 30.544 C 44.113 30.356 45.896 29.372 46.429 28.552 C 46.261 28.128 46.017002 27.723 45.939 27.286 C 45.871998 26.907 45.865997 26.547998 45.931 26.206 C 45.82 25.49 45.923 24.845999 46.334 24.241999 C 46.842 23.495998 47.065 22.407999 47.69 21.784998 C 48.653 20.826998 50.753998 21.071999 50.995 19.765999 C 50.982 19.244999 50.967 18.723 50.95 18.197998 z M 32.75 19.749998 C 32.75 20.004997 32.791 20.249998 32.828 20.496998 L 37.6 20.496998 L 37.6 17.913998 C 37.6 16.809998 36.704 15.913998 35.6 15.913998 L 33.62 15.913998 C 33.077 16.738998 32.752 17.712997 32.752 18.749998 C 32.752 18.840998 32.760998 18.930998 32.767 19.020998 C 32.774998 19.115997 32.781 19.294998 32.774998 19.390999 C 32.759 19.568998 32.749996 19.658998 32.749996 19.749998 z " fill="#ffffff" fill-opacity="1" stroke-opacity="0.29999999999999999"/>
<rect fill="none" height="52" width="52" x="0" y="0"/>
</svg>
