<?xml version="1.0" encoding="UTF-8"?>
<svg xmlns="http://www.w3.org/2000/svg" xmlns:xlink="http://www.w3.org/1999/xlink" baseProfile="tiny" contentScriptType="text/ecmascript" contentStyleType="text/css" height="30px" preserveAspectRatio="xMidYMid meet" version="1.1" viewBox="0 0 30 30" width="30px" x="0px" y="0px" zoomAndPan="magnify">
<path d="M 6.0 29.0 C 4.3459997 29.0 3.0 27.654 3.0 26.0 L 3.0 13.0 C 3.0 11.346 4.3459997 10.0 6.0 10.0 L 6.0 8.0 C 6.0 4.141 9.141 1.0 13.0 1.0 L 17.0 1.0 C 20.859 1.0 24.0 4.141 24.0 8.0 L 24.0 10.0 C 25.654 10.0 27.0 11.346 27.0 13.0 L 27.0 26.0 C 27.0 27.654 25.654 29.0 24.0 29.0 L 6.0 29.0 z M 19.0 10.0 L 19.0 8.0 C 19.0 6.897 18.103 6.0 17.0 6.0 L 13.0 6.0 C 11.897 6.0 11.0 6.897 11.0 8.0 L 11.0 10.0 L 19.0 10.0 z " fill-opacity="0.15" stroke-opacity="0.15"/>
<path d="M 24.0 10.0 L 23.0 10.0 L 23.0 7.0 C 23.0 3.7 20.3 1.0 17.0 1.0 L 13.0 1.0 C 9.7 1.0 7.0 3.7 7.0 7.0 L 7.0 10.0 L 6.0 10.0 C 4.9 10.0 4.0 10.9 4.0 12.0 L 4.0 25.0 C 4.0 26.1 4.9 27.0 6.0 27.0 L 24.0 27.0 C 25.1 27.0 26.0 26.1 26.0 25.0 L 26.0 12.0 C 26.0 10.901 25.1 10.0 24.0 10.0 z M 16.0 19.289 L 16.0 23.0 L 14.0 23.0 L 14.0 19.289 C 13.119 18.902 12.5 18.022999 12.5 17.0 C 12.5 15.62 13.621 14.5 15.0 14.5 C 16.379 14.5 17.5 15.6189995 17.5 17.0 C 17.5 18.023 16.881 18.902 16.0 19.289 z M 20.0 10.0 L 10.0 10.0 L 10.0 7.0 C 10.0 5.3459997 11.346 4.0 13.0 4.0 L 17.0 4.0 C 18.654 4.0 20.0 5.3459997 20.0 7.0 L 20.0 10.0 z " fill-opacity="0.3" stroke-opacity="0.3"/>
<path d="M 24.0 11.0 L 23.0 11.0 L 23.0 8.0 C 23.0 4.7 20.3 2.0 17.0 2.0 L 13.0 2.0 C 9.7 2.0 7.0 4.7 7.0 8.0 L 7.0 11.0 L 6.0 11.0 C 4.9 11.0 4.0 11.9 4.0 13.0 L 4.0 26.0 C 4.0 27.1 4.9 28.0 6.0 28.0 L 24.0 28.0 C 25.1 28.0 26.0 27.1 26.0 26.0 L 26.0 13.0 C 26.0 11.901 25.1 11.0 24.0 11.0 z M 16.0 20.289 L 16.0 24.0 L 14.0 24.0 L 14.0 20.289 C 13.119 19.902 12.5 19.022999 12.5 18.0 C 12.5 16.619 13.621 15.5 15.0 15.5 C 16.379 15.5 17.5 16.619 17.5 18.0 C 17.5 19.023 16.881 19.902 16.0 20.289 z M 20.0 11.0 L 10.0 11.0 L 10.0 8.0 C 10.0 6.3459997 11.346 5.0 13.0 5.0 L 17.0 5.0 C 18.654 5.0 20.0 6.3459997 20.0 8.0 L 20.0 11.0 z " fill="#dedede"/>
<rect fill="none" height="30" width="30"/>
</svg>
