<?xml version="1.0" encoding="UTF-8"?>
<svg xmlns="http://www.w3.org/2000/svg" xmlns:xlink="http://www.w3.org/1999/xlink" baseProfile="tiny" contentScriptType="text/ecmascript" contentStyleType="text/css" height="30px" preserveAspectRatio="xMidYMid meet" version="1.1" viewBox="0 0 30 30" width="30px" x="0px" y="0px" zoomAndPan="magnify">
<path d="M 23.25 29.0 C 20.079 29.0 17.5 26.42 17.5 23.25 C 17.5 23.219 17.502 23.186 17.502 23.154 L 12.729001 20.449 C 11.454 21.453 9.89 22.0 8.25 22.0 C 4.252 22.0 1.0 18.748 1.0 14.75 C 1.0 10.752 4.252 7.5 8.25 7.5 C 9.96 7.5 11.576 8.087 12.875 9.167 L 17.5 6.701 C 17.526 3.553 20.096 1.0 23.25 1.0 C 26.421 1.0 29.0 3.58 29.0 6.75 C 29.0 9.92 26.421 12.5 23.25 12.5 C 22.123 12.5 21.049 12.172 20.105999 11.543 L 15.461999 14.019 C 15.485999 14.2630005 15.498999 14.5060005 15.498999 14.749001 C 15.498999 15.05 15.477999 15.3550005 15.437999 15.663 L 20.228998 18.378 C 21.142998 17.802 22.173998 17.499 23.248999 17.499 C 26.419998 17.499 28.998999 20.079 28.998999 23.249 C 28.998999 26.419 26.421 29.0 23.25 29.0 L 23.25 29.0 z " fill-opacity="0.15" stroke-opacity="0.15"/>
<path d="M 23.25 17.5 C 22.125 17.5 21.104 17.908 20.291 18.563 L 14.328001 15.184 C 14.436001 14.723 14.500001 14.245 14.500001 13.75 C 14.500001 13.312 14.454001 12.884 14.368001 12.471 L 20.197 9.3619995 C 21.025 10.061999 22.081001 10.500999 23.25 10.500999 C 25.875 10.500999 28.0 8.374 28.0 5.7509995 C 28.0 3.1279993 25.875 1.0 23.25 1.0 C 20.627 1.0 18.5 3.127 18.5 5.75 C 18.5 5.929 18.533 6.099 18.553 6.272 L 12.719 9.382999 C 11.584 8.223 10.002 7.5 8.25 7.5 C 4.799 7.5 2.0 10.298 2.0 13.75 C 2.0 17.201 4.799 20.0 8.25 20.0 C 9.945 20.0 11.479 19.324 12.604 18.229 L 18.564 21.608 C 18.535 21.819 18.5 22.03 18.5 22.251 C 18.5 24.873999 20.627 27.001 23.25 27.001 C 25.875 27.001 28.0 24.873999 28.0 22.251 C 28.0 19.628 25.875 17.5 23.25 17.5 z " fill-opacity="0.3" stroke-opacity="0.3"/>
<path d="M 23.25 18.5 C 22.125 18.5 21.104 18.908 20.291 19.563 L 14.328001 16.184 C 14.436001 15.723 14.500001 15.244 14.500001 14.75 C 14.500001 14.312 14.454001 13.884 14.368001 13.471 L 20.197 10.3619995 C 21.025 11.061999 22.081001 11.500999 23.25 11.500999 C 25.875 11.500999 28.0 9.374 28.0 6.7509995 C 28.0 4.1279993 25.875 2.0 23.25 2.0 C 20.627 2.0 18.5 4.127 18.5 6.75 C 18.5 6.929 18.533 7.099 18.553 7.272 L 12.719 10.382999 C 11.584 9.223 10.002 8.5 8.25 8.5 C 4.799 8.5 2.0 11.298 2.0 14.75 C 2.0 18.201 4.799 21.0 8.25 21.0 C 9.945 21.0 11.479 20.324 12.604 19.229 L 18.564 22.608 C 18.535 22.819 18.5 23.03 18.5 23.251 C 18.5 25.873999 20.627 28.001 23.25 28.001 C 25.875 28.001 28.0 25.873999 28.0 23.251 C 28.0 20.628 25.875 18.5 23.25 18.5 z " fill="#dedede"/>
<rect fill="none" height="30" width="30"/>
</svg>
