<?xml version="1.0" encoding="UTF-8"?>
<svg xmlns="http://www.w3.org/2000/svg" xmlns:xlink="http://www.w3.org/1999/xlink" baseProfile="tiny" contentScriptType="text/ecmascript" contentStyleType="text/css" height="30px" preserveAspectRatio="xMidYMid meet" version="1.1" viewBox="0 0 30 30" width="30px" x="0px" y="0px" zoomAndPan="magnify">
<rect fill="none" height="30" width="30"/>
<path d="M 30.0 2.0 C 30.0 1.4660001 29.793 0.964 29.414 0.58599997 C 29.036 0.208 28.534 0.0 28.0 0.0 C 27.466 0.0 26.964 0.208 26.586 0.586 L 19.43 7.742 L 14.967001 3.2920003 C 14.775 3.102 14.521 3.0 14.261 3.0 C 14.132 3.0 14.002 3.025 13.877 3.076 C 13.504 3.231 13.261 3.596 13.261 4.0 L 13.261 10.462999 L 11.245 8.447999 C 11.05 8.252999 10.794 8.154999 10.538 8.154999 C 10.282001 8.154999 10.027 8.252998 9.832 8.446999 L 8.567 9.709 C 8.176001 10.099 8.175 10.731 8.564 11.122 L 12.297 14.872999 L 0.586 26.586 C 0.209 26.963 0.0 27.465 0.0 28.0 C 0.0 28.533 0.209 29.035 0.586 29.414 C 0.964 29.791 1.466 30.0 2.0 30.0 C 2.534 30.0 3.036 29.791 3.414 29.414 L 13.259001 19.568 L 13.259001 26.0 C 13.259001 26.404 13.502001 26.768 13.877001 26.924 C 14.0 26.975 14.13 27.0 14.259 27.0 C 14.519 27.0 14.774 26.898 14.965 26.707 L 21.537 20.152 C 21.725 19.964 21.831001 19.709 21.831001 19.443 C 21.831001 19.177002 21.725 18.922 21.536001 18.734001 L 17.805 15.024001 L 29.414001 3.4140015 C 29.793 3.036 30.0 2.534 30.0 2.0 z " fill-opacity="0.15" stroke-opacity="0.15"/>
<path d="M 13.924 11.541 L 10.538 8.155001 L 9.273 9.417 L 12.651999 12.813 L 13.924 11.541 z M 16.049 7.299 L 17.11 8.356 L 18.369001 7.097 L 14.261 3.0 L 14.261 11.204 L 16.049 9.416 L 16.049 7.299 z M 16.193 16.342 L 18.36 18.509998 L 16.048 20.818998 L 16.048 16.487 L 14.258 18.276 L 14.258 25.0 L 20.83 18.443 L 17.45 15.084001 L 16.193 16.342 z M 28.707 0.293 C 28.316 -0.09799999 27.684 -0.09799999 27.293001 0.293 L 1.2930012 26.293 C 0.90200114 26.684 0.90200114 27.316 1.2930012 27.706999 C 1.488 27.902 1.744 28.0 2.0 28.0 C 2.256 28.0 2.512 27.902 2.707 27.707 L 28.707 1.7070007 C 29.098 1.316 29.098 0.684 28.707 0.293 z " fill-opacity="0.3" stroke-opacity="0.3"/>
<path d="M 2.0 29.0 C 1.744 29.0 1.4879999 28.902 1.293 28.707 C 0.90199995 28.316 0.90199995 27.684 1.293 27.293001 L 27.293 1.2930012 C 27.684 0.90200114 28.316 0.90200114 28.706999 1.2930012 C 29.097998 1.6840012 29.098 2.3160012 28.706999 2.7070012 L 2.7069988 28.707 C 2.512 28.902 2.256 29.0 2.0 29.0 L 2.0 29.0 z " fill="#fa664b"/>
<path d="M 9.273 10.417 L 12.651999 13.813 L 13.922999 12.542 L 10.537 9.156 L 9.273 10.417 z M 16.049 8.299 L 17.11 9.356 L 18.369001 8.097 L 14.261 4.0 L 14.261 12.204 L 16.049 10.416 L 16.049 8.299 z M 17.451 16.084 L 16.193 17.342 L 18.36 19.509998 L 16.048 21.818998 L 16.048 17.487 L 14.258 19.276 L 14.258 26.0 L 20.83 19.443 L 17.451 16.084 z " fill="#ffffff"/>
</svg>
