<?xml version="1.0" encoding="UTF-8"?>
<svg xmlns="http://www.w3.org/2000/svg" xmlns:xlink="http://www.w3.org/1999/xlink" baseProfile="tiny" contentScriptType="text/ecmascript" contentStyleType="text/css" height="30px" preserveAspectRatio="xMidYMid meet" version="1.1" viewBox="0 0 30 30" width="30px" x="0px" y="0px" zoomAndPan="magnify">
<path d="M 29.414 26.586 L 19.974998 17.147 L 27.161999 6.8599997 C 27.784998 5.956 27.560999 4.7079997 26.662998 4.0759997 L 24.209 2.36 C 23.873 2.124 23.479 2.0 23.07 2.0 C 22.411999 2.0 21.798 2.324 21.431 2.859 L 14.9539995 12.128 L 3.414 0.586 C 3.036 0.208 2.534 0.0 2.0 0.0 C 1.4660001 0.0 0.964 0.208 0.586 0.586 C 0.209 0.964 0.0 1.466 0.0 2.0 C 0.0 2.534 0.209 3.036 0.586 3.414 L 12.629001 15.455999 L 10.975 17.826 L 7.5490003 13.064 C 7.176 12.542 6.57 12.23 5.93 12.23 C 5.5049996 12.23 5.099 12.3619995 4.7559996 12.613999 L 2.3359995 14.381999 C 1.4509995 15.027999 1.2519995 16.282999 1.8899995 17.171999 L 8.384999 26.314999 C 9.081 27.434 9.96 28.0 10.998 28.0 C 12.462 28.0 13.227 26.832 13.46 26.473 L 17.648 20.477 L 26.586 29.414999 C 26.964 29.793 27.466 30.0 28.0 30.0 C 28.534 30.0 29.036 29.793 29.414 29.414 C 29.793 29.037 30.0 28.535 30.0 28.0 C 30.0 27.467 29.793 26.965 29.414 26.586 z " fill-opacity="0.15" stroke-opacity="0.15"/>
<path d="M 26.338 5.292 C 26.651 4.837 26.539 4.211 26.088999 3.895 L 23.634998 2.179 C 23.183998 1.8629999 22.562998 1.9779999 22.251999 2.4329998 L 15.964998 11.429999 L 19.546999 15.013 L 26.338 5.292 z M 10.986 18.555 L 6.734 12.646 C 6.414 12.196 5.7910004 12.096 5.3450003 12.421 L 2.9250002 14.188999 C 2.482 14.513 2.3820002 15.141999 2.7040002 15.591 L 9.233 24.785 C 9.709 25.549 10.266 26.0 10.998 26.0 C 11.690001 26.0 12.188 25.592 12.641 24.9 L 16.64 19.175 L 13.056999 15.591 L 10.986 18.555 z M 28.707 26.293 L 2.7070007 0.29299927 C 2.3160007 -0.098000735 1.6840007 -0.098000735 1.2930007 0.29299927 C 0.90200067 0.6839993 0.90200067 1.3159993 1.2930007 1.7069993 L 27.293001 27.706999 C 27.488 27.902 27.744 28.0 28.0 28.0 C 28.256 28.0 28.512 27.902 28.707 27.707 C 29.098 27.316 29.098 26.684 28.707 26.293 z " fill-opacity="0.3" stroke-opacity="0.3"/>
<rect fill="none" height="30" width="30"/>
<path d="M 26.089 4.895 L 23.635 3.179 C 23.184 2.863 22.563 2.978 22.252 3.4329998 L 15.965 12.429999 L 19.547 16.014 L 26.338001 6.292 C 26.651 5.837 26.539 5.211 26.089 4.895 z M 10.986 19.555 L 6.734 13.646 C 6.414 13.197 5.7910004 13.095 5.3450003 13.421 L 2.9250002 15.188999 C 2.482 15.513 2.3820002 16.143 2.7040002 16.592 L 9.233 25.785 C 9.709 26.549 10.266 27.0 10.998 27.0 C 11.690001 27.0 12.188 26.592 12.641 25.9 L 16.64 20.175 L 13.056999 16.591 L 10.986 19.555 z " fill="#ffffff"/>
<path d="M 28.0 29.0 C 27.744 29.0 27.488 28.902 27.293 28.707 L 1.2929993 2.7070007 C 0.90199924 2.3160007 0.90199924 1.6840007 1.2929993 1.2930007 C 1.6839993 0.90200067 2.3159993 0.90200067 2.7069993 1.2930007 L 28.706999 27.293001 C 29.098 27.684002 29.098 28.316002 28.706999 28.707 C 28.512 28.902 28.256 29.0 28.0 29.0 L 28.0 29.0 z " fill="#fa664b"/>
</svg>
