<?xml version="1.0" encoding="UTF-8"?>
<svg xmlns="http://www.w3.org/2000/svg" xmlns:xlink="http://www.w3.org/1999/xlink" baseProfile="tiny" contentScriptType="text/ecmascript" contentStyleType="text/css" height="30px" preserveAspectRatio="xMidYMid meet" version="1.1" viewBox="0 0 30 30" width="30px" x="0px" y="0px" zoomAndPan="magnify">
<g>
<path d="M 22.431 5.365 C 22.976 5.365 23.52 5.5699997 23.933 5.983 C 24.759 6.809 24.76 8.162 23.933 8.989 L 17.922 15.0 L 23.933 21.01 C 24.759 21.836 24.759 23.19 23.933 24.016 C 23.52 24.428001 22.976 24.635 22.431 24.635 C 21.886 24.635 21.341 24.428 20.928 24.016 L 14.917 18.004002 L 8.906 24.016003 C 8.493 24.428003 7.948 24.635002 7.4040003 24.635002 C 6.859 24.635002 6.3150005 24.428001 5.9020004 24.016003 C 5.076 23.190002 5.076 21.836002 5.9020004 21.010002 L 11.912 15.0 L 5.901 8.99 C 5.074 8.163 5.075 6.811 5.901 5.9839997 C 6.314 5.5709996 6.859 5.365 7.4040003 5.365 C 7.9480004 5.365 8.493 5.5709996 8.906 5.9839997 L 14.916 11.995 L 20.927 5.983 C 21.341 5.57 21.886 5.365 22.431 5.365 M 22.431 4.302 C 21.577 4.302 20.777 4.631 20.177 5.232 L 14.917 10.493 L 9.658 5.233 C 9.058 4.6309996 8.258 4.302 7.4049997 4.302 C 6.5509996 4.302 5.7509995 4.631 5.151 5.233 C 3.909 6.476 3.909 8.498 5.151 9.740999 L 10.41 15.0 L 5.1499996 20.26 C 3.9069996 21.502 3.9069996 23.524 5.1499996 24.766 C 5.7509995 25.366001 6.5499997 25.698 7.4039993 25.698 C 8.257999 25.698 9.056999 25.366 9.657 24.766 L 14.917 19.508001 L 20.177 24.766 C 20.777 25.366001 21.577 25.698 22.431 25.698 C 23.284 25.698 24.084 25.366 24.685 24.766 C 25.927 23.524 25.927 21.502 24.685 20.26 L 19.425 15.0 L 24.685 9.74 C 25.285 9.139 25.616999 8.34 25.615 7.4849997 C 25.615 6.6319995 25.285 5.8329997 24.685 5.2319994 C 24.084 4.631 23.283 4.302 22.431 4.302 L 22.431 4.302 z " fill-opacity="0.15" stroke-opacity="0.15"/>
<path d="M 17.922 13.937 L 23.933 7.926 C 24.76 7.099 24.759 5.7460003 23.933 4.92 C 23.107 4.094 21.754002 4.094 20.928001 4.92 L 14.917002 10.932 L 8.9070015 4.921 C 8.080002 4.094 6.727001 4.0950003 5.9020014 4.921 C 5.076001 5.748 5.0750012 7.1 5.9020014 7.927 L 11.913002 13.937 L 5.902002 19.947 C 5.076002 20.773 5.076002 22.127 5.902002 22.953001 C 6.7280016 23.779001 8.081001 23.779001 8.9070015 22.953001 L 14.918001 16.941002 L 20.929 22.953003 C 21.755001 23.779003 23.108002 23.779003 23.934002 22.953003 C 24.760002 22.127003 24.760002 20.773003 23.934002 19.947002 L 17.922 13.937 z " fill-opacity="0.3" stroke-opacity="0.3"/>
<path d="M 17.922 15.0 L 23.933 8.989 C 24.76 8.162001 24.759 6.809 23.933 5.9830003 C 23.107 5.1570005 21.754002 5.1570005 20.928001 5.9830003 L 14.917002 11.995001 L 8.9070015 5.9840007 C 8.080002 5.1570005 6.727001 5.158001 5.9020014 5.9840007 C 5.076001 6.811001 5.0750012 8.163 5.9020014 8.990001 L 11.912 15.0 L 5.9009995 21.01 C 5.075 21.836 5.075 23.19 5.9009995 24.016 C 6.7269993 24.842001 8.08 24.842001 8.906 24.016 L 14.917 18.004002 L 20.928 24.016003 C 21.754 24.842003 23.106998 24.842003 23.932999 24.016003 C 24.758999 23.190002 24.758999 21.836002 23.932999 21.010002 L 17.922 15.0 z " fill="#dedede"/>
<rect fill="none" height="30" width="30" y="0"/>
</g>
</svg>
