<?xml version="1.0" encoding="UTF-8"?>
<svg xmlns="http://www.w3.org/2000/svg" xmlns:xlink="http://www.w3.org/1999/xlink" baseProfile="tiny" contentScriptType="text/ecmascript" contentStyleType="text/css" height="57px" preserveAspectRatio="xMidYMid meet" version="1.1" viewBox="0 0 67 57" width="67px" x="0px" y="0px" zoomAndPan="magnify">
<defs>
<linearGradient gradientUnits="userSpaceOnUse" x1="20.8262" x2="49.8663" xlink:actuate="onLoad" xlink:show="other" xlink:type="simple" y1="5.1953" y2="52.7525">
<stop offset="0" stop-color="#fdfef9"/>
<stop offset="0.1656" stop-color="#fdfef9"/>
<stop offset="1" stop-color="#d0cbc5"/>
</linearGradient>
</defs>
<rect fill="#ffffff" fill-opacity="0.70588235" fill-rule="nonzero" height="48" ry="8.2174387" stroke="none" width="48" x="9.5000038" y="4.5000014"/>
<rect fill="#8cf000" fill-opacity="0.58823532" fill-rule="nonzero" height="48" ry="8.2174387" stroke="none" width="48" x="9.5" y="4.5"/>
<rect fill="none" height="57" width="67" x="0" y="0"/>
<path d="M 26.777706 20.618055 C 26.136246 20.636236 25.634426 21.167852 25.652609 21.807098 C 25.669338 22.4478 26.203886 22.950323 26.843887 22.93287 C 27.480982 22.915413 27.984983 22.380169 27.966805 21.740192 C 27.947891 21.100945 27.414072 20.599876 26.777706 20.61806 z M 33.13701 32.71866 L 25.281698 32.71866 C 24.202423 32.71866 23.31878 33.600803 23.31878 34.681488 L 23.31878 42.53644 C 23.31878 43.6164 24.20242 44.500004 25.281698 44.500004 L 33.13701 44.500004 C 34.217743 44.500004 35.101383 43.6164 35.101383 42.53644 L 35.101383 34.681488 C 35.101383 33.600807 34.217743 32.71866 33.137012 32.71866 z M 47.53636 18.31852 L 39.683956 18.31852 C 38.60395 18.31852 37.721035 19.201397 37.721035 20.281351 L 37.721035 28.135572 C 37.721035 29.216255 38.60395 30.100584 39.683956 30.100584 L 47.53636 30.100584 C 48.617092 30.100584 49.500004 29.216251 49.500004 28.135572 L 49.500004 20.281351 C 49.500004 19.201391 48.617092 18.31852 47.53636 18.31852 z M 26.510796 12.511479 C 19.646765 12.70856 17.31366 15.18046 17.51148 22.04709 C 17.7093 28.915173 20.179855 31.248169 27.041708 31.051086 C 33.906467 30.854 36.23884 28.382105 36.041027 21.5162 C 35.84466 14.646664 33.3741 12.313668 26.5108 12.511478 z M 26.73771 13.861968 C 27.487534 13.840148 28.115902 14.429216 28.136992 15.181914 C 28.15953 15.933885 27.566078 16.563677 26.816984 16.58404 C 26.063528 16.60513 25.435886 16.013155 25.415522 15.260457 C 25.392982 14.50776 25.983526 13.882331 26.73771 13.861968 z M 25.416977 23.433212 L 20.59441 16.005882 L 28.131172 19.951176 L 32.958107 27.3836 L 25.416985 23.433212 z M 47.53636 32.71865 L 39.68396 32.71865 C 38.60395 32.71865 37.72104 33.600796 37.72104 34.68148 L 37.72104 42.53643 C 37.72104 43.616383 38.60395 44.499985 39.68396 44.499985 L 47.53636 44.499985 C 48.617096 44.499985 49.500008 43.616383 49.500008 42.53643 L 49.500008 34.68148 C 49.500008 33.600796 48.617096 32.71865 47.53636 32.71865 z " fill="#ffffff" fill-opacity="1"/>
</svg>
