<?xml version="1.0" encoding="UTF-8"?>
<svg xmlns="http://www.w3.org/2000/svg" xmlns:xlink="http://www.w3.org/1999/xlink" baseProfile="tiny" contentScriptType="text/ecmascript" contentStyleType="text/css" height="96px" preserveAspectRatio="xMidYMid meet" version="1.1" viewBox="0 0 96 96" width="96px" x="0px" y="0px" zoomAndPan="magnify">
<defs>
<linearGradient id="linearGradient3894">
<stop offset="0" stop-color="#393a3d" stop-opacity="1"/>
<stop offset="1" stop-color="#2e2f31" stop-opacity="1"/>
</linearGradient>
<linearGradient gradientUnits="userSpaceOnUse" x1="23.1592" x2="58.033" y1="29.5518" y2="47.0511">
<stop offset="0" stop-color="#ffffff"/>
<stop offset="0.5743" stop-color="#b1b1b1"/>
<stop offset="1" stop-color="#ffffff"/>
</linearGradient>
<linearGradient gradientTransform="matrix(0.5778,-0.8161,0.8162,0.5779,-3150.1169,-624.3198)" gradientUnits="userSpaceOnUse" x1="1310.7793" x2="1310.7793" y1="2994.0742" y2="3029.1895">
<stop offset="0" stop-color="#b30dac"/>
<stop offset="1" stop-color="#511475"/>
</linearGradient>
<linearGradient gradientTransform="translate(1194.1597,-1800.0742)" gradientUnits="userSpaceOnUse" x1="-1126.6968" x2="-1126.6968" y1="1845.2354" y2="1857.9192">
<stop offset="0" stop-color="#ffffff"/>
<stop offset="0.0896" stop-color="#ffffff" stop-opacity="0.9104"/>
<stop offset="1" stop-color="#ffffff" stop-opacity="0"/>
</linearGradient>
<linearGradient gradientTransform="translate(1194.1597,-1800.0742)" gradientUnits="userSpaceOnUse" x1="-1129.6948" x2="-1129.6948" y1="1840.5205" y2="1854.0734">
<stop offset="0" stop-color="#ffffff"/>
<stop offset="0.0896" stop-color="#ffffff" stop-opacity="0.9104"/>
<stop offset="1" stop-color="#ffffff" stop-opacity="0"/>
</linearGradient>
<linearGradient gradientUnits="userSpaceOnUse" x1="39.1074" x2="39.1074" y1="47.375" y2="17.1464">
<stop offset="0" stop-color="#bfbfbf"/>
<stop offset="1" stop-color="#ffffff"/>
</linearGradient>
<linearGradient gradientTransform="matrix(-0.8959,0.4441,0.4442,0.896,-3079.4639,-675.9365)" gradientUnits="userSpaceOnUse" x1="-2479.083" x2="-2479.083" y1="2028.2373" y2="2024.3066">
<stop offset="0" stop-color="#999999"/>
<stop offset="1" stop-color="#242424"/>
</linearGradient>
<linearGradient gradientTransform="matrix(-0.8959,0.4441,0.4442,0.896,-3079.4639,-675.9365)" gradientUnits="userSpaceOnUse" x1="-2479.0825" x2="-2479.0825" y1="2027.4521" y2="2025.0947">
<stop offset="0" stop-color="#808080"/>
<stop offset="1" stop-color="#d9d9d9"/>
</linearGradient>
<linearGradient gradientTransform="matrix(-0.8959,0.4441,0.4442,0.896,-3079.4639,-675.9365)" gradientUnits="userSpaceOnUse" x1="-2471.5322" x2="-2471.5322" y1="2032.2832" y2="2067.3994">
<stop offset="0" stop-color="#b30dac"/>
<stop offset="1" stop-color="#511475"/>
</linearGradient>
<linearGradient gradientTransform="matrix(-0.8959,0.4441,0.4442,0.896,-3079.4639,-675.9365)" gradientUnits="userSpaceOnUse" x1="-2479.083" x2="-2479.083" y1="2028.2373" y2="2024.3066">
<stop offset="0" stop-color="#999999"/>
<stop offset="1" stop-color="#242424"/>
</linearGradient>
<linearGradient gradientTransform="translate(1194.1597,-1800.0742)" gradientUnits="userSpaceOnUse" x1="-1129.6948" x2="-1129.6948" y1="1840.5205" y2="1854.0734">
<stop offset="0" stop-color="#ffffff"/>
<stop offset="0.0896" stop-color="#ffffff" stop-opacity="0.9104"/>
<stop offset="1" stop-color="#ffffff" stop-opacity="0"/>
</linearGradient>
<linearGradient gradientTransform="translate(1194.1597,-1800.0742)" gradientUnits="userSpaceOnUse" x1="-1126.6968" x2="-1126.6968" y1="1845.2354" y2="1857.9192">
<stop offset="0" stop-color="#ffffff"/>
<stop offset="0.0896" stop-color="#ffffff" stop-opacity="0.9104"/>
<stop offset="1" stop-color="#ffffff" stop-opacity="0"/>
</linearGradient>
<linearGradient gradientUnits="userSpaceOnUse" x1="48.0005" x2="48.0005" y1="88" y2="8.0004997">
<stop offset="0" stop-color="#0a0a0a"/>
<stop offset="0.6008" stop-color="#545557"/>
<stop offset="1" stop-color="#3d3e40"/>
</linearGradient>
<linearGradient gradientUnits="userSpaceOnUse" x1="48.0005" x2="48.0005" y1="83" y2="14.0005">
<stop offset="0" stop-color="#000000"/>
<stop offset="0.6008" stop-color="#3d3e40"/>
<stop offset="1" stop-color="#272829"/>
</linearGradient>
<linearGradient gradientUnits="userSpaceOnUse" x1="47.9995" x2="47.9995" y1="8.2533998" y2="87.498497">
<stop offset="0" stop-color="#ffffff"/>
<stop offset="1" stop-color="#ffffff" stop-opacity="0"/>
</linearGradient>
<linearGradient gradientUnits="userSpaceOnUse" id="linearGradient3240" x1="47.9995" x2="47.9995" y1="8.2533998" y2="87.498497">
<stop offset="0" stop-color="#ffffff"/>
<stop offset="1" stop-color="#ffffff" stop-opacity="0"/>
</linearGradient>
<linearGradient gradientUnits="userSpaceOnUse" id="linearGradient3900" x1="47.864407" x2="47.864407" y1="12.70339" y2="82.35199">
<stop offset="0" stop-color="#393a3d" stop-opacity="1"/>
<stop offset="1" stop-color="#2e2f31" stop-opacity="1"/>
</linearGradient>
</defs>
<path d="M 88.0 49.0 C 88.0 78.633 77.637 89.0 48.0 89.0 C 18.365 89.0 8.0 78.633 8.0 49.0 C 8.0 19.365 18.365 9.0 48.0 9.0 C 77.637 9.0 88.0 19.365 88.0 49.0 z " fill-opacity="0.4"/>
<path d="M 88.0 48.0 C 88.0 77.633 77.637 88.0 48.0 88.0 C 18.365 88.0 8.0 77.633 8.0 48.0 C 8.0 18.365 18.365 8.0 48.0 8.0 C 77.637 8.0 88.0 18.365 88.0 48.0 z " fill="#56565a" fill-opacity="1"/>
<path d="M 84.842 26.0 L 53.0 26.0 C 51.9 26.0 51.0 26.9 51.0 28.0 L 51.0 68.0 C 51.0 69.1 51.9 70.0 53.0 70.0 L 84.842 70.0 C 87.027 64.291 88.0 57.048 88.0 48.0 C 88.0 38.952 87.027 31.709 84.842 26.0 z M 45.0 68.0 L 45.0 28.0 C 45.0 26.9 44.1 26.0 43.0 26.0 L 11.158 26.0 C 8.973 31.709 8.0 38.952 8.0 48.0 C 8.0 57.048 8.973 64.291 11.159 70.0 L 43.0 70.0 C 44.1 70.0 45.0 69.1 45.0 68.0 z M 81.0 75.0 L 75.0 75.0 C 74.45 75.0 74.0 75.449 74.0 76.0 L 74.0 82.0 C 74.0 82.305 74.146 82.568 74.362 82.752 C 77.455 80.93 79.958 78.588 81.931 75.665 C 81.793 75.28 81.432 75.0 81.0 75.0 z M 57.0 75.0 L 51.0 75.0 C 50.45 75.0 50.0 75.449 50.0 76.0 L 50.0 82.0 C 50.0 82.551 50.45 83.0 51.0 83.0 L 57.0 83.0 C 57.55 83.0 58.0 82.551 58.0 82.0 L 58.0 76.0 C 58.0 75.449 57.55 75.0 57.0 75.0 z M 63.0 22.0 L 69.0 22.0 C 69.55 22.0 70.0 21.55 70.0 21.0 L 70.0 15.0 C 70.0 14.45 69.55 14.0 69.0 14.0 L 63.0 14.0 C 62.45 14.0 62.0 14.45 62.0 15.0 L 62.0 21.0 C 62.0 21.55 62.45 22.0 63.0 22.0 z M 69.0 75.0 L 63.0 75.0 C 62.45 75.0 62.0 75.449 62.0 76.0 L 62.0 82.0 C 62.0 82.551 62.45 83.0 63.0 83.0 L 69.0 83.0 C 69.55 83.0 70.0 82.551 70.0 82.0 L 70.0 76.0 C 70.0 75.449 69.55 75.0 69.0 75.0 z M 75.0 22.0 L 81.0 22.0 C 81.55 22.0 82.0 21.55 82.0 21.0 L 82.0 20.433 C 80.277 17.853 78.146 15.723 75.566 14.0 L 75.0 14.0 C 74.45 14.0 74.0 14.45 74.0 15.0 L 74.0 21.0 C 74.0 21.55 74.45 22.0 75.0 22.0 z M 51.0 22.0 L 57.0 22.0 C 57.55 22.0 58.0 21.55 58.0 21.0 L 58.0 15.0 C 58.0 14.45 57.55 14.0 57.0 14.0 L 51.0 14.0 C 50.45 14.0 50.0 14.45 50.0 15.0 L 50.0 21.0 C 50.0 21.55 50.45 22.0 51.0 22.0 z M 21.0 75.0 L 15.0 75.0 C 14.568 75.0 14.208 75.279 14.068 75.664 C 16.042 78.588005 18.545 80.93 21.638 82.752 C 21.854 82.568 22.0 82.305 22.0 82.0 L 22.0 76.0 C 22.0 75.449 21.55 75.0 21.0 75.0 z M 45.0 14.0 L 39.0 14.0 C 38.45 14.0 38.0 14.45 38.0 15.0 L 38.0 21.0 C 38.0 21.55 38.45 22.0 39.0 22.0 L 45.0 22.0 C 45.55 22.0 46.0 21.55 46.0 21.0 L 46.0 15.0 C 46.0 14.45 45.55 14.0 45.0 14.0 z M 15.0 22.0 L 21.0 22.0 C 21.55 22.0 22.0 21.55 22.0 21.0 L 22.0 15.0 C 22.0 14.45 21.55 14.0 21.0 14.0 L 20.434 14.0 C 17.854 15.724 15.724 17.854 14.0 20.434 L 14.0 21.0 C 14.0 21.55 14.45 22.0 15.0 22.0 z M 45.0 75.0 L 39.0 75.0 C 38.45 75.0 38.0 75.449 38.0 76.0 L 38.0 82.0 C 38.0 82.551 38.45 83.0 39.0 83.0 L 45.0 83.0 C 45.55 83.0 46.0 82.551 46.0 82.0 L 46.0 76.0 C 46.0 75.449 45.55 75.0 45.0 75.0 z M 27.0 22.0 L 33.0 22.0 C 33.55 22.0 34.0 21.55 34.0 21.0 L 34.0 15.0 C 34.0 14.45 33.55 14.0 33.0 14.0 L 27.0 14.0 C 26.45 14.0 26.0 14.45 26.0 15.0 L 26.0 21.0 C 26.0 21.55 26.45 22.0 27.0 22.0 z M 33.0 75.0 L 27.0 75.0 C 26.45 75.0 26.0 75.449 26.0 76.0 L 26.0 82.0 C 26.0 82.551 26.45 83.0 27.0 83.0 L 33.0 83.0 C 33.55 83.0 34.0 82.551 34.0 82.0 L 34.0 76.0 C 34.0 75.449 33.55 75.0 33.0 75.0 z " fill="url(#linearGradient3900)" fill-opacity="1"/>
<path d="M 48.0 8.0 C 18.365 8.0 8.0 18.365 8.0 48.0 C 8.0 77.633 18.365 88.0 48.0 88.0 C 77.637 88.0 88.0 77.633 88.0 48.0 C 88.0 18.365 77.637 8.0 48.0 8.0 z M 48.0 87.0 C 18.842 87.0 9.0 77.158 9.0 48.0 C 9.0 18.842 18.842 9.0 48.0 9.0 C 77.158 9.0 87.0 18.842 87.0 48.0 C 87.0 77.158 77.158 87.0 48.0 87.0 z " fill="url(#linearGradient3240)" fill-opacity="0.25" stroke-opacity="0.25"/>
<rect fill="none" height="96" width="96" x="0" y="0"/>
<path d="M 73.818 63.803 C 72.891 63.803 72.122 63.628 71.638 63.481003 C 71.489 63.436005 71.335 63.376003 71.185 63.301003 C 70.809 63.112003 68.746994 61.768 68.134995 61.299004 C 64.629 58.617 57.426 52.428 55.555 50.815 C 54.029 50.47 51.926 49.639 51.552 49.479 C 50.22 48.906 49.065 48.003 48.3 47.314 L 45.395 45.823997 L 43.681 46.74 C 43.244 46.971996 42.755 47.094 42.266 47.094 C 41.784 47.094 41.303 46.976 40.876 46.752 C 29.017 40.57 23.097 34.273 20.623 31.07 C 19.674 29.838 19.834 28.056 20.986 27.013 L 21.679 26.386 C 22.232 25.886 22.947 25.61 23.692 25.61 C 24.134 25.61 24.562002 25.705 24.964 25.893002 L 49.505 37.405003 C 49.568 37.401 49.632 37.399 49.696003 37.399 C 50.318005 37.399 50.915005 37.587 51.422005 37.944 C 51.433006 37.951 53.422005 39.293 56.911003 40.351 C 57.106003 40.41 57.336 40.439003 57.610004 40.439003 C 58.366005 40.439003 59.354004 40.22 60.401005 39.989 C 61.891006 39.661003 63.576004 39.289 65.48701 39.289 C 68.40001 39.289 71.05601 40.168003 73.60901 41.976 C 85.34501 50.289 82.101006 57.561 80.16201 60.302 C 78.11401 63.195004 75.58201 63.803 73.81801 63.803 L 73.81801 63.803 z " fill-opacity="0.05" stroke-opacity="0.05"/>
<path d="M 73.818 62.803 C 73.014 62.803 72.348 62.652 71.93 62.524 C 71.828 62.494003 71.726 62.454 71.625 62.404003 C 71.333 62.257 69.34 60.964 68.742 60.507 C 65.218 57.809 57.931 51.546 56.013 49.89 C 54.587 49.613 52.331 48.726 51.944 48.56 C 50.637 47.998 49.496 47.057 48.874 46.486 L 45.385 44.696 L 43.209003 45.858997 C 42.918003 46.013996 42.593 46.094997 42.266003 46.094997 C 41.945004 46.094997 41.624004 46.016 41.340004 45.866997 C 29.648 39.772 23.838 33.598 21.415 30.46 C 20.782 29.639 20.889 28.451 21.657 27.756 L 22.35 27.128 C 22.718 26.795 23.195 26.61 23.692 26.61 C 23.987 26.61 24.272 26.673 24.541 26.799 L 49.34 38.432 C 49.458 38.411 49.578 38.399 49.698 38.399 C 50.112003 38.399 50.511 38.524 50.848003 38.761997 C 50.866005 38.774 52.934 40.188995 56.622 41.308 C 56.913 41.396 57.236 41.439 57.611 41.439 C 58.476 41.439 59.516 41.209 60.618 40.965 C 62.056 40.648 63.684 40.289 65.488 40.289 C 68.186 40.289 70.654 41.107 73.032 42.791 C 83.636 50.302 81.54 56.624 79.346 59.724 C 77.545 62.27 75.346 62.803 73.818 62.803 L 73.818 62.803 z M 64.864 47.718 C 67.54 49.993 71.132 53.008 73.244995 54.627 C 73.312 54.678 73.43099 54.761997 73.578995 54.861 C 73.952995 53.392 72.336 51.368 68.756 48.832 C 67.62299 48.031 66.645 47.689 65.482994 47.689 C 65.28099 47.689 65.076 47.698997 64.86399 47.718 L 64.86399 47.718 z " fill-opacity="0.05" stroke-opacity="0.05"/>
<path d="M 73.818 61.803 C 73.14 61.803 72.57601 61.676003 72.222 61.568 C 72.168 61.551 72.117 61.531 72.066 61.506 C 71.879 61.412 69.959 60.177 69.351 59.711 C 65.696 56.914 57.97 50.258 56.456 48.95 C 55.292 48.788 52.938 47.896 52.338 47.639 C 51.081 47.098 49.967003 46.139 49.453003 45.658 L 45.375004 43.566 L 42.737003 44.976 C 42.590004 45.055 42.427 45.094 42.265003 45.094 C 42.107 45.094 41.948 45.056004 41.803 44.981003 C 30.278 38.973 24.578 32.921 22.206 29.849 C 21.888 29.436 21.94 28.847 22.327 28.497 L 23.02 27.869 C 23.208 27.699 23.448 27.61 23.691 27.61 C 23.836 27.61 23.98 27.641 24.116 27.704998 L 49.262 39.5 C 49.4 39.433 49.549 39.399 49.699 39.399 C 49.901 39.399 50.103 39.46 50.275 39.580997 C 50.296 39.595997 52.443 41.085 56.334 42.266 C 56.72 42.383 57.138 42.44 57.613 42.44 C 58.585 42.44 59.678 42.198997 60.836 41.942997 C 62.224 41.636997 63.796997 41.289997 65.49 41.289997 C 67.974 41.289997 70.253 42.047997 72.456 43.608 C 81.855 50.266 80.948 55.733 78.532 59.146996 C 76.976 61.341995 75.11 61.802994 73.818 61.802994 L 73.818 61.802994 z M 62.589 47.091 C 65.315 49.424 70.058 53.445 72.637 55.42 C 72.828 55.566 73.388 55.941 73.915 56.282997 C 73.968 56.224 74.038 56.139996 74.122 56.020996 C 74.659004 55.261 76.297005 52.948 69.334 48.015995 C 68.037 47.098995 66.849 46.688995 65.482 46.688995 C 64.571 46.688995 63.635 46.86499 62.589 47.090996 L 62.589 47.090996 z " fill-opacity="0.1" stroke-opacity="0.1"/>
<path d="M 71.877 44.423 C 65.211 39.702 60.164 44.471 56.043 43.222 C 51.922 41.972 49.698 40.398 49.698 40.398 L 49.722 40.82 L 23.693 28.61 L 23.0 29.238 C 25.077 31.929 30.674 38.051003 42.267 44.094 L 45.366997 42.437 L 50.039997 44.834 C 50.344 45.127 51.480995 46.181 52.733 46.72 C 53.723 47.144 56.344997 48.056 56.852997 47.97 C 56.852997 47.97 65.895 55.806 69.959 58.918 C 70.566 59.383 72.42 60.564 72.514 60.611 C 73.381 60.875 75.787 61.291 77.715 58.568 C 80.074 55.234 80.284 50.379 71.877 44.423 z M 74.938 56.6 C 74.484 57.240997 74.119 57.408997 73.810005 57.405 C 73.242004 57.044 72.327 56.442 72.03001 56.216 C 69.009 53.903 63.051006 48.814 60.405006 46.535 C 60.87801 46.445 61.341007 46.343 61.786007 46.245 C 64.671005 45.608 66.948006 45.104 69.91301 47.202 C 77.69101 52.711 75.61801 55.639 74.93801 56.6 z " fill-opacity="0.15" stroke-opacity="0.15"/>
<path d="M 23.0 27.799 C 25.077 30.49 30.674 36.612 42.267 42.655 L 45.366997 40.997997 L 50.312996 43.534996 L 50.206 39.607 L 23.693 27.171 L 23.0 27.799 z " fill="#bbbbbb" fill-opacity="1"/>
<path d="M 50.796 82.439 C 45.981003 82.439 41.795 78.91901 38.355003 71.978004 C 35.484005 66.186005 37.263004 61.636005 38.44 58.624004 C 38.984 57.235004 39.453003 56.036003 39.340004 55.228004 C 38.83701 51.630005 37.846004 49.498005 37.804005 49.408005 C 37.51 48.812 37.432 48.111 37.58 47.449 L 30.021 21.421 C 29.679 20.259 30.071 19.013 31.017 18.25 L 31.743 17.665 C 32.274 17.236 32.943 17.0 33.627 17.0 C 34.445 17.0 35.239 17.341 35.805 17.937 C 38.586 20.878 43.888 27.704 48.156 40.383 C 48.474 41.321 48.306 42.355 47.707996 43.148 L 46.536995 44.698997 L 47.560993 47.81 C 48.12199 48.671997 48.830994 49.954 49.184994 51.35 C 49.202995 51.394997 49.775993 53.786 49.880993 55.51 C 51.186993 57.612 56.18199 65.686 58.290993 69.571 C 58.65399 70.237 59.673992 72.494 59.803993 72.923 C 59.84899 73.08099 59.87599 73.20699 59.89699 73.335 C 60.07899 74.61 60.284992 78.898 55.44099 81.299 C 53.909992 82.05499 52.34899 82.438995 50.79599 82.438995 L 50.79599 82.438995 z " fill-opacity="0.05" stroke-opacity="0.05"/>
<path d="M 50.796 81.439 C 46.393 81.439 42.508003 78.106 39.25 71.533005 C 36.576 66.13801 38.191 62.007004 39.371 58.98901 C 39.966 57.468006 40.477997 56.157005 40.33 55.092007 C 39.802 51.309 38.752 49.076 38.708 48.983 C 38.471 48.5 38.444 47.944 38.62 47.445 L 30.981 21.143 C 30.753 20.368 31.014002 19.538 31.645 19.029 L 32.371002 18.444 C 32.726 18.157 33.172 18.0 33.627 18.0 C 34.173 18.0 34.702 18.228 35.079 18.625 C 37.803997 21.506 43.001 28.203 47.208 40.702 C 47.42 41.328 47.308 42.018 46.909 42.546 L 45.422 44.515003 L 46.652 48.248005 C 47.117 48.950005 47.867 50.223003 48.215 51.595005 C 48.22 51.610004 48.844 54.190006 48.895 55.817005 C 50.235 57.971004 55.288 66.134 57.413 70.047005 C 57.77 70.70101 58.745003 72.87401 58.848003 73.213005 C 58.876003 73.313 58.896004 73.40201 58.911003 73.492004 C 59.067 74.592 59.243004 78.299 54.998 80.40201 C 53.606003 81.09001 52.193 81.43901 50.796 81.43901 L 50.796 81.43901 z M 45.38 64.225 C 45.065 65.502 45.108 66.68 45.882 68.244995 C 47.995 72.505 49.846 74.022 50.873 74.022 C 50.956 74.022 51.035 74.01399 51.111 73.99899 C 51.024 73.813 50.952 73.662994 50.907 73.58099 C 49.647003 71.26399 47.219 67.232994 45.38 64.22499 L 45.38 64.22499 z " fill-opacity="0.05" stroke-opacity="0.05"/>
<path d="M 50.795 80.439 C 46.804996 80.439 43.220997 77.293 40.145996 71.089005 C 37.667995 66.089005 39.129997 62.353004 40.303997 59.35101 C 40.948997 57.702007 41.504997 56.277004 41.320995 54.953007 C 40.757996 50.926006 39.620995 48.57301 39.609997 48.551006 C 39.448997 48.222008 39.479996 47.832005 39.687996 47.535007 L 31.942 20.864 C 31.829 20.477 31.961 20.06 32.274 19.807 L 33.0 19.222 C 33.184 19.073 33.405 19.0 33.627 19.0 C 33.893 19.0 34.157 19.106 34.354 19.313 C 37.022 22.134 42.116 28.705 46.261 41.021 C 46.366 41.334 46.311 41.679 46.112003 41.943 L 44.308 44.33 L 45.746 48.691 C 46.141003 49.272003 46.912003 50.523003 47.247 51.841003 C 47.255 51.870003 47.927 54.680004 47.898003 56.107 C 48.939003 57.780003 54.334003 66.471 56.534004 70.525 C 56.889004 71.176 57.822 73.277 57.889004 73.501 C 57.903004 73.55 57.913 73.599 57.921005 73.648 C 58.05201 74.566 58.195004 77.70101 54.55201 79.506004 C 53.30201 80.12501 52.03801 80.439 50.79501 80.439 C 50.796005 80.439 50.796005 80.439 50.79501 80.439 z M 45.116 61.881 C 44.183 64.295 43.67 66.033 44.986 68.689 C 47.011 72.773 49.102 75.022 50.873 75.022 C 51.425 75.022 51.843 74.813 52.147 74.661 C 52.277 74.598 52.371 74.542 52.438 74.496 C 52.182 73.924 51.898 73.311005 51.785 73.102005 C 50.236 70.25201 46.997 64.938 45.116 61.881004 L 45.116 61.881004 z " fill-opacity="0.1" stroke-opacity="0.1"/>
<path d="M 56.931 73.789 C 56.901 73.687 56.022 71.674 55.655 71.002 C 53.214 66.504 46.876 56.356 46.876 56.356 C 47.04 55.868 46.548 53.133 46.278 52.088 C 45.944 50.774 45.087 49.492 44.84 49.139 L 43.194 44.145 L 45.314 41.339 C 41.142 28.947 35.963 22.47 33.627 20.0 L 32.900997 20.585 L 40.921997 48.198997 L 40.505997 48.108 C 40.505997 48.108 41.714996 50.548996 42.310997 54.815 C 42.907 59.080997 37.414997 63.324997 41.040997 70.645 C 45.617996 79.877 50.447 80.424 54.106995 78.61 C 57.09399 77.131004 57.05899 74.686 56.930996 73.789 z M 52.594997 75.555 C 51.540997 76.082 48.325996 77.674 44.089996 69.133 C 42.477997 65.879005 43.326996 63.709003 44.402996 60.957005 C 44.570995 60.529003 44.742996 60.090004 44.90599 59.639004 C 46.745995 62.60801 50.845993 69.282005 52.663994 72.625 C 52.841995 72.951 53.29499 73.949 53.562992 74.568 C 53.518993 74.875 53.296993 75.209 52.594994 75.555 z " fill-opacity="0.15" stroke-opacity="0.15"/>
<path d="M 56.043 41.783 C 51.922 40.533 49.698 38.959 49.698 38.959 L 49.955 43.313 C 49.955 43.313 51.269997 44.653 52.732 45.282 C 53.722 45.706 56.344 46.618 56.851997 46.532 C 56.851997 46.532 65.894 54.368 69.958 57.479 C 70.565 57.944 72.419 59.125 72.513 59.172 C 73.38 59.436 75.786 59.852 77.714005 57.13 C 80.073006 53.796 80.283005 48.94 71.87601 42.984 C 65.211006 38.264 60.16401 43.032 56.043007 41.783 z M 74.938 55.161003 C 74.484 55.802 74.119 55.969 73.810005 55.965004 C 73.242004 55.604004 72.327 55.002003 72.03001 54.776005 C 69.009 52.463005 63.051006 47.375004 60.405006 45.095005 C 60.87801 45.005005 61.341007 44.903004 61.786007 44.805004 C 64.671005 44.168003 66.948006 43.664005 69.91301 45.762005 C 77.69101 51.271004 75.61801 54.199005 74.93801 55.161003 z " fill="#6c336d" fill-opacity="1"/>
<path d="M 33.627 18.561 C 35.962997 21.031 41.142 27.508 45.314 39.9 L 43.194 42.706 L 44.934 47.986 L 41.070004 47.269 L 32.902004 19.145 L 33.627003 18.561 z " fill="#bbbbbb" fill-opacity="1"/>
<path d="M 42.498 40.417 C 43.47 39.938 43.864 38.756 43.385 37.784 C 42.906 36.812 41.724003 36.414 40.752003 36.894 C 39.779003 37.374 39.383003 38.558 39.863003 39.530003 C 40.346004 40.500004 41.526 40.898003 42.498 40.417004 L 42.498 40.417004 z " fill="#8c8c8c" fill-opacity="1"/>
<circle cx="41.623001" cy="38.657001" fill="#bbbbbb" fill-opacity="1" r="1.179"/>
<path d="M 41.041 69.206 C 45.618 78.43701 50.447 78.984 54.107 77.171005 C 57.093 75.69201 57.058 73.246 56.93 72.350006 C 56.9 72.24901 56.021 70.23501 55.654 69.563 C 53.212997 65.065 46.875 54.917004 46.875 54.917004 C 47.039 54.428005 46.547 51.693005 46.277 50.648003 C 45.885 49.107 44.766 47.597004 44.766 47.597004 L 40.504997 46.668003 C 40.504997 46.668003 41.713997 49.108 42.31 53.375004 C 42.906 57.641003 37.414 61.885 41.040997 69.206 z M 44.089996 67.693 C 42.477997 64.439 43.326996 62.269 44.402996 59.517 C 44.570995 59.089 44.742996 58.65 44.90599 58.199 C 46.745995 61.168003 50.845993 67.843 52.663994 71.185 C 52.841995 71.512 53.29499 72.51 53.562992 73.128 C 53.51799 73.435 53.295994 73.769 52.59399 74.115 C 51.54099 74.643 48.32599 76.234 44.08999 67.693 z " fill="#6c336d" fill-opacity="1"/>
</svg>
