<?xml version="1.0" encoding="UTF-8"?>
<svg xmlns="http://www.w3.org/2000/svg" xmlns:xlink="http://www.w3.org/1999/xlink" baseProfile="tiny" contentScriptType="text/ecmascript" contentStyleType="text/css" height="96px" preserveAspectRatio="xMidYMid meet" version="1.1" viewBox="0 0 96 96" width="96px" x="0px" y="0px" zoomAndPan="magnify">
<defs/>
<rect fill="none" height="96" width="96"/>
<path d="M 89.098366 47.644 C 89.098366 70.1454 70.85738 88.38638 48.355995 88.38638 C 25.854595 88.38638 7.613617 70.145386 7.613617 47.643993 C 7.613617 25.1426 25.8546 6.901619 48.355995 6.901619 C 70.85738 6.901619 89.098366 25.1426 89.098366 47.643993 z " fill="#50b4fb" fill-opacity="1" fill-rule="nonzero" stroke="#f1f1f1" stroke-dasharray="none" stroke-dashoffset="0" stroke-linecap="round" stroke-linejoin="round" stroke-miterlimit="4" stroke-opacity="0.94509804" stroke-width="7"/>
<path d="M 68.81444 61.38549 C 70.66885 63.23989 70.66885 66.24568 68.81444 68.10388 C 67.887245 69.03108 66.671234 69.49468 65.45528 69.49468 C 64.23927 69.49468 63.023266 69.031075 62.09606 68.10388 L 48.35527 54.363106 L 34.614506 68.10388 C 33.687305 69.03108 32.47131 69.49468 31.255312 69.49468 C 30.039314 69.49468 28.82331 69.031075 27.896118 68.10388 C 26.041723 66.24949 26.041723 63.24369 27.896118 61.385494 L 41.63689 47.64471 L 27.896116 33.903934 C 26.04172 32.049538 26.04172 29.043743 27.896116 27.185543 C 29.750511 25.327356 32.75631 25.33115 34.614506 27.185543 L 48.35527 40.926323 L 62.09605 27.185549 C 63.950462 25.331154 66.956245 25.331154 68.81443 27.185549 C 70.672615 29.039948 70.668846 32.045742 68.81443 33.90394 L 55.07365 47.64471 z " fill="#f1f1f1" fill-opacity="0.94509804"/>
</svg>
